//Event file generated from Sappy .s format.
	#include "MPlayDef.event"

	#define	song0104_grp  voicegroup001
	#define	song0104_pri  0
	#define	song0104_rev  0
	#define	song0104_mvl  127
	#define	song0104_key  0
	#define	song0104_tbs  1
	#define	song0104_exg  0
	#define	song0104_cmp  1

	// .rodata
	//	song0104
	ALIGN 4


//**************** Track 1 (Midi-Chn.0) ****************//

song0104_001:
// 000   ----------------------------------------
 BYTE   KEYSH   song0104_key+0
Label_0_0198C1EA:
 BYTE   TEMPO   180*song0104_tbs/2
 BYTE   VOICE   49
 BYTE   VOL   29*song0104_mvl/mxv
 BYTE   PAN   c_v+0
 BYTE   BEND   c_v+0
 BYTE   N07  Bn2  v076
 BYTE   W08
 BYTE   Cn3
 BYTE   W08
 BYTE   Ds3  v080
 BYTE   W08
 BYTE   Dn3  v084
 BYTE   W08
 BYTE   Fs3
 BYTE   W08
 BYTE   Fn3  v088
 BYTE   W08
 BYTE   Gs3
 BYTE   W08
 BYTE   An3  v092
 BYTE   W08
 BYTE   Bn3  v096
 BYTE   W08
 BYTE   Cn4  v100
 BYTE   W08
 BYTE   Ds4  v104
 BYTE   W08
 BYTE   Fs4  v112
 BYTE   W08
// 001   ----------------------------------------
 BYTE   N44  En4  v116
 BYTE   W48
 BYTE   N14  Bn3  v120
 BYTE   W16
 BYTE   En4
 BYTE   W16
 BYTE   Gn4
 BYTE   W16
// 002   ----------------------------------------
Label_0_0198C222:
 BYTE   N44  Fs4  v120
 BYTE   W48
 BYTE   N14  Dn4
 BYTE   W16
 BYTE   Fs4
 BYTE   W16
 BYTE   An4
 BYTE   W16
 BYTE   PEND 
// 003   ----------------------------------------
Label_0_0198C22E:
 BYTE   N44  Gn4  v120
 BYTE   W48
 BYTE   N14
 BYTE   W16
 BYTE   An4
 BYTE   W16
 BYTE   Bn4
 BYTE   W16
 BYTE   PEND 
// 004   ----------------------------------------
 BYTE   N92
 BYTE   W96
// 005   ----------------------------------------
Label_0_0198C23B:
 BYTE   N44  En4  v120
 BYTE   W48
 BYTE   N14  Bn3
 BYTE   W16
 BYTE   En4
 BYTE   W16
 BYTE   Gn4
 BYTE   W16
 BYTE   PEND 
// 006   ----------------------------------------
Label_0_0198C247:
 BYTE   N44  Fs4  v120
 BYTE   W48
 BYTE   N14
 BYTE   W16
 BYTE   Gn4
 BYTE   W16
 BYTE   An4
 BYTE   W16
 BYTE   PEND 
// 007   ----------------------------------------
Label_0_0198C252:
 BYTE   N48  Bn4  v120
 BYTE   W48
 BYTE   N14  Gn4
 BYTE   W16
 BYTE   An4
 BYTE   W16
 BYTE   Bn4
 BYTE   W16
 BYTE   PEND 
// 008   ----------------------------------------
Label_0_0198C25E:
 BYTE   N48  Cn5  v120
 BYTE   W48
 BYTE   N14  Ds4
 BYTE   W16
 BYTE   En4
 BYTE   W16
 BYTE   Fs4
 BYTE   W16
 BYTE   PEND 
// 009   ----------------------------------------
Label_0_0198C26A:
 BYTE   W08
 BYTE   N07  En4  v120
 BYTE   W08
 BYTE   Cn4
 BYTE   W08
 BYTE   Gn3
 BYTE   W08
 BYTE   Cn4
 BYTE   W08
 BYTE   En4
 BYTE   W08
 BYTE   An4
 BYTE   W08
 BYTE   Fs4
 BYTE   W08
 BYTE   Dn4
 BYTE   W08
 BYTE   An3
 BYTE   W08
 BYTE   Dn4
 BYTE   W08
 BYTE   Fs4
 BYTE   W08
 BYTE   PEND 
// 010   ----------------------------------------
Label_0_0198C284:
 BYTE   W08
 BYTE   N07  Fs4  v120
 BYTE   W08
 BYTE   Ds4
 BYTE   W08
 BYTE   Bn3
 BYTE   W08
 BYTE   Ds4
 BYTE   W08
 BYTE   Fs4
 BYTE   W08
 BYTE   N14  Gn4
 BYTE   W16
 BYTE   An4
 BYTE   W16
 BYTE   Bn4
 BYTE   W16
 BYTE   PEND 
// 011   ----------------------------------------
Label_0_0198C299:
 BYTE   N44  Cn5  v120
 BYTE   W48
 BYTE   N14  An4
 BYTE   W16
 BYTE   Bn4
 BYTE   W16
 BYTE   Cn5
 BYTE   W16
 BYTE   PEND 
// 012   ----------------------------------------
Label_0_0198C2A5:
 BYTE   N44  En5  v120
 BYTE   W48
 BYTE   Ds5
 BYTE   W48
 BYTE   PEND 
// 013   ----------------------------------------
 BYTE   PATT
  POIN2 Label_0_0198C26A
// 014   ----------------------------------------
 BYTE   PATT
  POIN2 Label_0_0198C284
// 015   ----------------------------------------
Label_0_0198C2B6:
 BYTE   N44  Cn5  v120
 BYTE   W48
 BYTE   N14  En4
 BYTE   W16
 BYTE   Gn4
 BYTE   W16
 BYTE   Cn5
 BYTE   W16
 BYTE   PEND 
// 016   ----------------------------------------
Label_0_0198C2C2:
 BYTE   N44  Dn5  v120
 BYTE   W48
 BYTE   An4
 BYTE   W48
 BYTE   PEND 
// 017   ----------------------------------------
 BYTE   PATT
  POIN2 Label_0_0198C23B
// 018   ----------------------------------------
 BYTE   PATT
  POIN2 Label_0_0198C222
// 019   ----------------------------------------
 BYTE   PATT
  POIN2 Label_0_0198C22E
// 020   ----------------------------------------
 BYTE   N92  Bn4  v120
 BYTE   W96
// 021   ----------------------------------------
 BYTE   PATT
  POIN2 Label_0_0198C23B
// 022   ----------------------------------------
 BYTE   PATT
  POIN2 Label_0_0198C247
// 023   ----------------------------------------
 BYTE   PATT
  POIN2 Label_0_0198C252
// 024   ----------------------------------------
 BYTE   PATT
  POIN2 Label_0_0198C25E
// 025   ----------------------------------------
 BYTE   PATT
  POIN2 Label_0_0198C26A
// 026   ----------------------------------------
 BYTE   PATT
  POIN2 Label_0_0198C284
// 027   ----------------------------------------
 BYTE   PATT
  POIN2 Label_0_0198C299
// 028   ----------------------------------------
 BYTE   PATT
  POIN2 Label_0_0198C2A5
// 029   ----------------------------------------
 BYTE   PATT
  POIN2 Label_0_0198C26A
// 030   ----------------------------------------
 BYTE   PATT
  POIN2 Label_0_0198C284
// 031   ----------------------------------------
 BYTE   PATT
  POIN2 Label_0_0198C2B6
// 032   ----------------------------------------
 BYTE   PATT
  POIN2 Label_0_0198C2C2
// 033   ----------------------------------------
Label_0_0198C318:
 BYTE   N60  Dn5  v108
 BYTE   W64
 BYTE   N14  Cn5
 BYTE   W16
 BYTE   Bn4
 BYTE   W16
 BYTE   PEND 
// 034   ----------------------------------------
 BYTE   N92  An4
 BYTE   W96
// 035   ----------------------------------------
 BYTE   N60  Cn5
 BYTE   W64
 BYTE   N14  Bn4
 BYTE   W16
 BYTE   An4
 BYTE   W16
// 036   ----------------------------------------
 BYTE   Gs4
 BYTE   W16
 BYTE   Fn4
 BYTE   W16
 BYTE   Dn4
 BYTE   W16
 BYTE   Fn4
 BYTE   W16
 BYTE   Gs4
 BYTE   W16
 BYTE   Bn4
 BYTE   W16
// 037   ----------------------------------------
 BYTE   PATT
  POIN2 Label_0_0198C318
// 038   ----------------------------------------
 BYTE   N92  An4  v108
 BYTE   W96
// 039   ----------------------------------------
 BYTE   N60  Cn5
 BYTE   W64
 BYTE   N14  Bn4
 BYTE   W16
 BYTE   Cn5
 BYTE   W16
// 040   ----------------------------------------
 BYTE   Dn5  v100
 BYTE   W16
 BYTE   Bn4
 BYTE   W16
 BYTE   Gs4
 BYTE   W16
 BYTE   Fn4
 BYTE   W16
 BYTE   Dn4
 BYTE   W16
 BYTE   Bn3
 BYTE   W16
// 041   ----------------------------------------
Label_0_0198C357:
 BYTE   N92  Fs2  v080
 BYTE   N92  Cs3
 BYTE   N92  An3
 BYTE   W96
 BYTE   PEND 
// 042   ----------------------------------------
Label_0_0198C360:
 BYTE   N92  Fn2  v080
 BYTE   N92  Cs3
 BYTE   N92  An3
 BYTE   W96
 BYTE   PEND 
// 043   ----------------------------------------
 BYTE   PATT
  POIN2 Label_0_0198C357
// 044   ----------------------------------------
Label_0_0198C36E:
 BYTE   N92  Gs2  v080
 BYTE   N92  En3
 BYTE   N92  Bn3
 BYTE   W96
 BYTE   PEND 
// 045   ----------------------------------------
 BYTE   PATT
  POIN2 Label_0_0198C357
// 046   ----------------------------------------
 BYTE   PATT
  POIN2 Label_0_0198C360
// 047   ----------------------------------------
 BYTE   PATT
  POIN2 Label_0_0198C357
// 048   ----------------------------------------
 BYTE   PATT
  POIN2 Label_0_0198C36E
// 049   ----------------------------------------
Label_0_0198C38B:
 BYTE   N14  An4  v108
 BYTE   N14  Cn5
 BYTE   W16
 BYTE   Bn4
 BYTE   N14  Dn5
 BYTE   W16
 BYTE   Cn5
 BYTE   N14  En5
 BYTE   W16
 BYTE   Bn4
 BYTE   N14  Dn5
 BYTE   W16
 BYTE   An4
 BYTE   N14  Cn5
 BYTE   W16
 BYTE   Gn4
 BYTE   N14  Bn4
 BYTE   W16
 BYTE   PEND 
// 050   ----------------------------------------
Label_0_0198C3A6:
 BYTE   N14  Cn5  v108
 BYTE   N14  En5
 BYTE   W16
 BYTE   Bn4
 BYTE   N14  Dn5
 BYTE   W16
 BYTE   An4
 BYTE   N14  Cn5
 BYTE   W16
 BYTE   Gs4
 BYTE   N14  Bn4
 BYTE   W16
 BYTE   En4
 BYTE   N14  Gs4
 BYTE   W16
 BYTE   Bn3
 BYTE   N14  En4
 BYTE   W16
 BYTE   PEND 
// 051   ----------------------------------------
 BYTE   N14
 BYTE   N14  An4
 BYTE   W16
 BYTE   Gn4
 BYTE   N14  Bn4
 BYTE   W16
 BYTE   An4
 BYTE   N14  Cn5
 BYTE   W16
 BYTE   Gn4
 BYTE   N14  Bn4
 BYTE   W16
 BYTE   An4
 BYTE   N14  Cn5
 BYTE   W16
 BYTE   Bn4
 BYTE   N14  Dn5
 BYTE   W16
// 052   ----------------------------------------
 BYTE   Bn4
 BYTE   N14  Dn5
 BYTE   W16
 BYTE   Cn5
 BYTE   N14  En5
 BYTE   W16
 BYTE   Dn5
 BYTE   N14  Fn5
 BYTE   W16
 BYTE   Cn5
 BYTE   N14  En5
 BYTE   W16
 BYTE   Bn4
 BYTE   N14  Dn5
 BYTE   W16
 BYTE   Cn5
 BYTE   N14  En5
 BYTE   W16
// 053   ----------------------------------------
 BYTE   PATT
  POIN2 Label_0_0198C38B
// 054   ----------------------------------------
 BYTE   PATT
  POIN2 Label_0_0198C3A6
// 055   ----------------------------------------
 BYTE   N14  Fn3  v108
 BYTE   N14  An3
 BYTE   W16
 BYTE   N14
 BYTE   N14  Cn4
 BYTE   W16
 BYTE   N14
 BYTE   N14  Fn4
 BYTE   W16
 BYTE   N14
 BYTE   N14  An4
 BYTE   W16
 BYTE   N14
 BYTE   N14  Cn5
 BYTE   W16
 BYTE   N14
 BYTE   N14  Fn5
 BYTE   W16
// 056   ----------------------------------------
 BYTE   Gn3
 BYTE   N14  Bn3
 BYTE   W16
 BYTE   N14
 BYTE   N14  Dn4
 BYTE   W16
 BYTE   N14
 BYTE   N14  Gn4
 BYTE   W16
 BYTE   N14
 BYTE   N14  Bn4
 BYTE   W16
 BYTE   N14
 BYTE   N14  Dn5
 BYTE   W16
 BYTE   N14
 BYTE   N14  Gn5
 BYTE   W16
// 057   ----------------------------------------
 BYTE   W96
// 058   ----------------------------------------
 BYTE   W96
// 059   ----------------------------------------
 BYTE   W96
// 060   ----------------------------------------
 BYTE   W92
 BYTE   W01
 BYTE   W01
 BYTE   W02
// 061   ----------------------------------------
 BYTE   TIE  An4  v112
 BYTE   W03
 BYTE   W02
 BYTE   W01
 BYTE   W02
 BYTE   W01
 BYTE   W01
 BYTE   W01
 BYTE   W01
 BYTE   W01
 BYTE   W01
 BYTE   W01
 BYTE   W01
 BYTE   W01
 BYTE   W01
 BYTE   W01
 BYTE   W01
 BYTE   W01
 BYTE   W01
 BYTE   W01
 BYTE   W01
 BYTE   W01
 BYTE   W01
 BYTE   W01
 BYTE   W01
 BYTE   W01
 BYTE   W66
 BYTE   W01
// 062   ----------------------------------------
 BYTE   W44
 BYTE   W02
 BYTE   EOT
 BYTE   W02
 BYTE   N44  Cn5  v092
 BYTE   W48
// 063   ----------------------------------------
 BYTE   N92
 BYTE   W96
// 064   ----------------------------------------
 BYTE   N44  Dn5
 BYTE   W48
 BYTE   Gn4
 BYTE   W48
// 065   ----------------------------------------
Label_0_0198C461:
 BYTE   N14  En5  v104
 BYTE   W16
 BYTE   Dn5
 BYTE   W16
 BYTE   Cn5
 BYTE   W16
 BYTE   N44  Bn4
 BYTE   W48
 BYTE   PEND 
// 066   ----------------------------------------
Label_0_0198C46D:
 BYTE   N14  Cn5  v104
 BYTE   W16
 BYTE   Bn4
 BYTE   W16
 BYTE   Cn5
 BYTE   W16
 BYTE   N22  Dn5
 BYTE   W24
 BYTE   En5
 BYTE   W24
 BYTE   PEND 
// 067   ----------------------------------------
 BYTE   N44
 BYTE   W48
 BYTE   N92  Dn5
 BYTE   W48
// 068   ----------------------------------------
 BYTE   W48
 BYTE   N44  Gn4
 BYTE   W48
// 069   ----------------------------------------
 BYTE   PATT
  POIN2 Label_0_0198C461
// 070   ----------------------------------------
 BYTE   PATT
  POIN2 Label_0_0198C46D
// 071   ----------------------------------------
 BYTE   N92  En5  v104
 BYTE   W96
// 072   ----------------------------------------
 BYTE   Dn5
 BYTE   W96
// 073   ----------------------------------------
 BYTE   TIE  Cn5  v060
 BYTE   W96
// 074   ----------------------------------------
 BYTE   W96
// 075   ----------------------------------------
 BYTE   W96
// 076   ----------------------------------------
 BYTE   W92
 BYTE   W02
 BYTE   EOT
 BYTE   W02
// 077   ----------------------------------------
 BYTE   TIE
 BYTE   W96
// 078   ----------------------------------------
 BYTE   W96
// 079   ----------------------------------------
 BYTE   W92
 BYTE   W02
 BYTE   EOT
 BYTE   W02
// 080   ----------------------------------------
 BYTE   N92  Dn5  v080
 BYTE   W96
// 081   ----------------------------------------
Label_0_0198C4A9:
 BYTE   N14  Cn3  v127
 BYTE   N14  Cn4
 BYTE   W16
 BYTE   Dn3
 BYTE   N14  Dn4
 BYTE   W16
 BYTE   Ds3
 BYTE   N14  Ds4
 BYTE   W16
 BYTE   Dn3
 BYTE   N14  Dn4
 BYTE   W16
 BYTE   Ds3
 BYTE   N14  Ds4
 BYTE   W16
 BYTE   Fn3
 BYTE   N14  Fn4
 BYTE   W16
 BYTE   PEND 
// 082   ----------------------------------------
Label_0_0198C4C4:
 BYTE   N44  Gn3  v127
 BYTE   N44  Gn4
 BYTE   W48
 BYTE   Cn3
 BYTE   N44  Cn4
 BYTE   W48
 BYTE   PEND 
// 083   ----------------------------------------
 BYTE   Cn3
 BYTE   N44  Cn4
 BYTE   W48
 BYTE   N14  An3
 BYTE   N14  An4
 BYTE   W16
 BYTE   Gn3
 BYTE   N14  Gn4
 BYTE   W16
 BYTE   Fn3
 BYTE   N14  Fn4
 BYTE   W16
// 084   ----------------------------------------
 BYTE   N44  As3
 BYTE   N44  As4
 BYTE   W48
 BYTE   Fn3
 BYTE   N44  Fn4
 BYTE   W48
// 085   ----------------------------------------
 BYTE   PATT
  POIN2 Label_0_0198C4A9
// 086   ----------------------------------------
 BYTE   PATT
  POIN2 Label_0_0198C4C4
// 087   ----------------------------------------
 BYTE   N44  Cn3  v127
 BYTE   N44  Cn4
 BYTE   W48
 BYTE   N14  Fn3
 BYTE   N14  Fn4
 BYTE   W16
 BYTE   Gn3
 BYTE   N14  Gn4
 BYTE   W16
 BYTE   An3
 BYTE   N14  An4
 BYTE   W16
// 088   ----------------------------------------
 BYTE   N44  As3
 BYTE   N44  As4
 BYTE   W48
 BYTE   Dn4
 BYTE   N44  Dn5
 BYTE   W48
// 089   ----------------------------------------
Label_0_0198C50F:
 BYTE   N09  En3  v120
 BYTE   N09  Cn4
 BYTE   W24
 BYTE   En3
 BYTE   N09  Cn4
 BYTE   W24
 BYTE   En3
 BYTE   N09  Cn4
 BYTE   W24
 BYTE   En3
 BYTE   N09  Cn4
 BYTE   W24
 BYTE   PEND 
// 090   ----------------------------------------
 BYTE   PATT
  POIN2 Label_0_0198C50F
// 091   ----------------------------------------
 BYTE   PATT
  POIN2 Label_0_0198C50F
// 092   ----------------------------------------
 BYTE   N09  En3  v120
 BYTE   N09  Bn3
 BYTE   W24
 BYTE   En3
 BYTE   N09  Bn3
 BYTE   W24
 BYTE   En3
 BYTE   N09  Bn3
 BYTE   W24
 BYTE   En3
 BYTE   N09  Bn3
 BYTE   W24
// 093   ----------------------------------------
 BYTE   PATT
  POIN2 Label_0_0198C50F
// 094   ----------------------------------------
 BYTE   PATT
  POIN2 Label_0_0198C50F
// 095   ----------------------------------------
 BYTE   PATT
  POIN2 Label_0_0198C50F
// 096   ----------------------------------------
 BYTE   N09  En3  v120
 BYTE   N09  Bn3
 BYTE   W24
 BYTE   En3
 BYTE   N09  Bn3
 BYTE   W24
 BYTE   En3
 BYTE   N09  Bn3
 BYTE   W24
 BYTE   En3
 BYTE   N09  Bn3
 BYTE   W09
 BYTE   GoTo
  POIN2 Label_0_0198C1EA
// 097   ----------------------------------------
 BYTE   W15
 BYTE   W01
 BYTE   FINE

//**************** Track 2 (Midi-Chn.1) ****************//

song0104_002:
// 000   ----------------------------------------
 BYTE   KEYSH   song0104_key+0
Label_1_0198C56A:
 BYTE   VOICE   49
 BYTE   VOL   25*song0104_mvl/mxv
 BYTE   PAN   c_v+0
 BYTE   BEND   c_v+0
 BYTE   N07  Fn3  v088
 BYTE   W08
 BYTE   Fs3
 BYTE   W08
 BYTE   An3
 BYTE   W08
 BYTE   Gs3
 BYTE   W08
 BYTE   Cn4  v092
 BYTE   W08
 BYTE   Bn3
 BYTE   W08
 BYTE   Dn4  v096
 BYTE   W08
 BYTE   Ds4  v100
 BYTE   W08
 BYTE   Fn4  v104
 BYTE   W08
 BYTE   Fs4  v112
 BYTE   W08
 BYTE   An4  v116
 BYTE   W08
 BYTE   Cn5  v120
 BYTE   W08
// 001   ----------------------------------------
 BYTE   N44  Bn3  v116
 BYTE   W48
 BYTE   N14  En3  v108
 BYTE   W16
 BYTE   Gn3
 BYTE   W16
 BYTE   Bn3
 BYTE   W16
// 002   ----------------------------------------
Label_1_0198C59F:
 BYTE   N44  An3  v108
 BYTE   W48
 BYTE   N14  Fs3
 BYTE   W16
 BYTE   An3
 BYTE   W16
 BYTE   Dn4
 BYTE   W16
 BYTE   PEND 
// 003   ----------------------------------------
Label_1_0198C5AB:
 BYTE   N44  En4  v108
 BYTE   W48
 BYTE   N14
 BYTE   W16
 BYTE   Fs4
 BYTE   W16
 BYTE   Gn4
 BYTE   W16
 BYTE   PEND 
// 004   ----------------------------------------
Label_1_0198C5B6:
 BYTE   N07  Ds4  v120
 BYTE   W08
 BYTE   En4
 BYTE   W08
 BYTE   Fs4
 BYTE   W08
 BYTE   Bn3
 BYTE   W08
 BYTE   An3
 BYTE   W08
 BYTE   Gn3
 BYTE   W08
 BYTE   Fs3
 BYTE   W08
 BYTE   En3
 BYTE   W08
 BYTE   Ds3
 BYTE   W08
 BYTE   Bn2
 BYTE   W08
 BYTE   Ds3
 BYTE   W08
 BYTE   Fs3
 BYTE   W08
 BYTE   PEND 
// 005   ----------------------------------------
Label_1_0198C5D1:
 BYTE   N44  Bn3  v108
 BYTE   W48
 BYTE   N14  Gn3
 BYTE   W16
 BYTE   Bn3
 BYTE   W16
 BYTE   En4
 BYTE   W16
 BYTE   PEND 
// 006   ----------------------------------------
Label_1_0198C5DD:
 BYTE   N44  Dn4  v108
 BYTE   W48
 BYTE   N14
 BYTE   W16
 BYTE   En4
 BYTE   W16
 BYTE   Fs4
 BYTE   W16
 BYTE   PEND 
// 007   ----------------------------------------
Label_1_0198C5E8:
 BYTE   N44  Gn4  v108
 BYTE   W48
 BYTE   N14  En4
 BYTE   W16
 BYTE   Fs4
 BYTE   W16
 BYTE   Gn4
 BYTE   W16
 BYTE   PEND 
// 008   ----------------------------------------
Label_1_0198C5F4:
 BYTE   N44  Fs4  v108
 BYTE   W48
 BYTE   N14  Bn3
 BYTE   W16
 BYTE   Cn4
 BYTE   W16
 BYTE   Ds4
 BYTE   W16
 BYTE   PEND 
// 009   ----------------------------------------
Label_1_0198C600:
 BYTE   N44  Gn4  v108
 BYTE   W48
 BYTE   N14  Fs4
 BYTE   W16
 BYTE   Gn4
 BYTE   W16
 BYTE   An4
 BYTE   W16
 BYTE   PEND 
// 010   ----------------------------------------
Label_1_0198C60C:
 BYTE   N44  An4  v108
 BYTE   W48
 BYTE   N07  Bn4  v120
 BYTE   W08
 BYTE   Fs4
 BYTE   W08
 BYTE   Ds4
 BYTE   W08
 BYTE   Bn3
 BYTE   W08
 BYTE   Fs3
 BYTE   W08
 BYTE   Ds3
 BYTE   W08
 BYTE   PEND 
// 011   ----------------------------------------
 BYTE   PATT
  POIN2 Label_1_0198C600
// 012   ----------------------------------------
Label_1_0198C624:
 BYTE   N44  Cn5  v108
 BYTE   W48
 BYTE   Bn4
 BYTE   W48
 BYTE   PEND 
// 013   ----------------------------------------
 BYTE   PATT
  POIN2 Label_1_0198C600
// 014   ----------------------------------------
 BYTE   PATT
  POIN2 Label_1_0198C60C
// 015   ----------------------------------------
Label_1_0198C635:
 BYTE   N44  Gn4  v108
 BYTE   W48
 BYTE   N14  Cn4
 BYTE   W16
 BYTE   En4
 BYTE   W16
 BYTE   Gn4
 BYTE   W16
 BYTE   PEND 
// 016   ----------------------------------------
 BYTE   An4  v120
 BYTE   W16
 BYTE   Fs4
 BYTE   W16
 BYTE   Dn4
 BYTE   W16
 BYTE   An3
 BYTE   W16
 BYTE   Fs3
 BYTE   W16
 BYTE   Dn3
 BYTE   W16
// 017   ----------------------------------------
 BYTE   N44  Bn3  v108
 BYTE   W48
 BYTE   N14  En3
 BYTE   W16
 BYTE   Gn3
 BYTE   W16
 BYTE   Bn3
 BYTE   W16
// 018   ----------------------------------------
 BYTE   PATT
  POIN2 Label_1_0198C59F
// 019   ----------------------------------------
 BYTE   PATT
  POIN2 Label_1_0198C5AB
// 020   ----------------------------------------
 BYTE   PATT
  POIN2 Label_1_0198C5B6
// 021   ----------------------------------------
 BYTE   PATT
  POIN2 Label_1_0198C5D1
// 022   ----------------------------------------
 BYTE   PATT
  POIN2 Label_1_0198C5DD
// 023   ----------------------------------------
 BYTE   PATT
  POIN2 Label_1_0198C5E8
// 024   ----------------------------------------
 BYTE   PATT
  POIN2 Label_1_0198C5F4
// 025   ----------------------------------------
 BYTE   PATT
  POIN2 Label_1_0198C600
// 026   ----------------------------------------
 BYTE   PATT
  POIN2 Label_1_0198C60C
// 027   ----------------------------------------
 BYTE   PATT
  POIN2 Label_1_0198C600
// 028   ----------------------------------------
 BYTE   PATT
  POIN2 Label_1_0198C624
// 029   ----------------------------------------
 BYTE   PATT
  POIN2 Label_1_0198C600
// 030   ----------------------------------------
 BYTE   PATT
  POIN2 Label_1_0198C60C
// 031   ----------------------------------------
 BYTE   PATT
  POIN2 Label_1_0198C635
// 032   ----------------------------------------
 BYTE   N14  An4  v088
 BYTE   W16
 BYTE   Fs4
 BYTE   W16
 BYTE   Dn4  v092
 BYTE   W16
 BYTE   An3  v096
 BYTE   W16
 BYTE   Fs3  v100
 BYTE   W16
 BYTE   Dn3  v108
 BYTE   W16
// 033   ----------------------------------------
 BYTE   N44  En3  v120
 BYTE   W48
 BYTE   N22  Fs3
 BYTE   W24
 BYTE   Gn3
 BYTE   W24
// 034   ----------------------------------------
 BYTE   N44  Fs3
 BYTE   W48
 BYTE   Dn3
 BYTE   W48
// 035   ----------------------------------------
 BYTE   Fn3
 BYTE   W48
 BYTE   N22  An3
 BYTE   W24
 BYTE   Cn4
 BYTE   W24
// 036   ----------------------------------------
 BYTE   N44  Bn3
 BYTE   W48
 BYTE   Fn3
 BYTE   W48
// 037   ----------------------------------------
 BYTE   N14  En3
 BYTE   W16
 BYTE   Fs3
 BYTE   W16
 BYTE   Gn3
 BYTE   W16
 BYTE   En3
 BYTE   W16
 BYTE   Fs3
 BYTE   W16
 BYTE   Gn3
 BYTE   W16
// 038   ----------------------------------------
 BYTE   An3
 BYTE   W16
 BYTE   Gn3
 BYTE   W16
 BYTE   Fs3
 BYTE   W16
 BYTE   En3
 BYTE   W16
 BYTE   Fs3
 BYTE   W16
 BYTE   Gn3
 BYTE   W16
// 039   ----------------------------------------
 BYTE   Fn3
 BYTE   W16
 BYTE   Gn3
 BYTE   W16
 BYTE   An3
 BYTE   W16
 BYTE   Fn3
 BYTE   W16
 BYTE   Gn3
 BYTE   W16
 BYTE   An3
 BYTE   W16
// 040   ----------------------------------------
 BYTE   Gs3  v100
 BYTE   W16
 BYTE   Fn3
 BYTE   W16
 BYTE   Dn3
 BYTE   W16
 BYTE   Bn2
 BYTE   W16
 BYTE   Gs2
 BYTE   W16
 BYTE   Fn2
 BYTE   W16
// 041   ----------------------------------------
 BYTE   W96
// 042   ----------------------------------------
 BYTE   W96
// 043   ----------------------------------------
 BYTE   W96
// 044   ----------------------------------------
 BYTE   W96
// 045   ----------------------------------------
 BYTE   W96
// 046   ----------------------------------------
 BYTE   W96
// 047   ----------------------------------------
 BYTE   W96
// 048   ----------------------------------------
 BYTE   N07  Bn4  v120
 BYTE   W08
 BYTE   Gs4
 BYTE   W08
 BYTE   Bn4
 BYTE   W08
 BYTE   En4
 BYTE   W08
 BYTE   Gs4
 BYTE   W08
 BYTE   Bn3
 BYTE   W08
 BYTE   En4
 BYTE   W08
 BYTE   Gs3
 BYTE   W08
 BYTE   Bn3
 BYTE   W08
 BYTE   En4
 BYTE   W08
 BYTE   Gs4
 BYTE   W08
 BYTE   Bn4
 BYTE   W08
// 049   ----------------------------------------
 BYTE   W96
// 050   ----------------------------------------
 BYTE   W96
// 051   ----------------------------------------
 BYTE   W96
// 052   ----------------------------------------
 BYTE   W96
// 053   ----------------------------------------
 BYTE   W96
// 054   ----------------------------------------
 BYTE   W96
// 055   ----------------------------------------
 BYTE   W96
// 056   ----------------------------------------
 BYTE   W96
// 057   ----------------------------------------
Label_1_0198C726:
 BYTE   N92  En2  v108
 BYTE   N92  An2
 BYTE   N92  Cn3
 BYTE   W96
 BYTE   PEND 
// 058   ----------------------------------------
Label_1_0198C72F:
 BYTE   N92  Fn2  v108
 BYTE   N92  An2
 BYTE   N92  Cn3
 BYTE   W96
 BYTE   PEND 
// 059   ----------------------------------------
Label_1_0198C738:
 BYTE   N92  Dn2  v108
 BYTE   N92  Gn2
 BYTE   N92  Cn3
 BYTE   W96
 BYTE   PEND 
// 060   ----------------------------------------
Label_1_0198C741:
 BYTE   N92  Dn2  v108
 BYTE   N92  Gn2
 BYTE   N92  Bn2
 BYTE   W96
 BYTE   PEND 
// 061   ----------------------------------------
 BYTE   PATT
  POIN2 Label_1_0198C726
// 062   ----------------------------------------
 BYTE   PATT
  POIN2 Label_1_0198C72F
// 063   ----------------------------------------
 BYTE   PATT
  POIN2 Label_1_0198C738
// 064   ----------------------------------------
 BYTE   PATT
  POIN2 Label_1_0198C741
// 065   ----------------------------------------
 BYTE   PATT
  POIN2 Label_1_0198C726
// 066   ----------------------------------------
 BYTE   PATT
  POIN2 Label_1_0198C72F
// 067   ----------------------------------------
 BYTE   PATT
  POIN2 Label_1_0198C738
// 068   ----------------------------------------
 BYTE   PATT
  POIN2 Label_1_0198C741
// 069   ----------------------------------------
 BYTE   PATT
  POIN2 Label_1_0198C726
// 070   ----------------------------------------
 BYTE   PATT
  POIN2 Label_1_0198C72F
// 071   ----------------------------------------
 BYTE   PATT
  POIN2 Label_1_0198C738
// 072   ----------------------------------------
 BYTE   PATT
  POIN2 Label_1_0198C741
// 073   ----------------------------------------
Label_1_0198C786:
 BYTE   N11  Cn1  v120
 BYTE   N11  Gn1
 BYTE   W16
 BYTE   Cn1
 BYTE   N11  Gn1
 BYTE   W16
 BYTE   Cn1
 BYTE   N11  Gn1
 BYTE   W16
 BYTE   Cn1
 BYTE   N11  Gn1
 BYTE   W16
 BYTE   Cn1
 BYTE   N11  Gn1
 BYTE   W16
 BYTE   Cn1
 BYTE   N11  Gn1
 BYTE   W16
 BYTE   PEND 
// 074   ----------------------------------------
Label_1_0198C7A1:
 BYTE   N11  Cn1  v120
 BYTE   N11  Gs1
 BYTE   W16
 BYTE   Cn1
 BYTE   N11  Gs1
 BYTE   W16
 BYTE   Cn1
 BYTE   N11  Gs1
 BYTE   W16
 BYTE   Cn1
 BYTE   N11  Gs1
 BYTE   W16
 BYTE   Cn1
 BYTE   N11  Gs1
 BYTE   W16
 BYTE   Cn1
 BYTE   N11  Gs1
 BYTE   W16
 BYTE   PEND 
// 075   ----------------------------------------
Label_1_0198C7BC:
 BYTE   N11  Cn1  v120
 BYTE   N11  An1
 BYTE   W16
 BYTE   Cn1
 BYTE   N11  An1
 BYTE   W16
 BYTE   Cn1
 BYTE   N11  An1
 BYTE   W16
 BYTE   Cn1
 BYTE   N11  An1
 BYTE   W16
 BYTE   Cn1
 BYTE   N11  An1
 BYTE   W16
 BYTE   Cn1
 BYTE   N11  An1
 BYTE   W16
 BYTE   PEND 
// 076   ----------------------------------------
 BYTE   PATT
  POIN2 Label_1_0198C786
// 077   ----------------------------------------
 BYTE   PATT
  POIN2 Label_1_0198C786
// 078   ----------------------------------------
 BYTE   PATT
  POIN2 Label_1_0198C7A1
// 079   ----------------------------------------
 BYTE   PATT
  POIN2 Label_1_0198C7BC
// 080   ----------------------------------------
 BYTE   PATT
  POIN2 Label_1_0198C786
// 081   ----------------------------------------
 BYTE   PATT
  POIN2 Label_1_0198C786
// 082   ----------------------------------------
 BYTE   PATT
  POIN2 Label_1_0198C7A1
// 083   ----------------------------------------
 BYTE   PATT
  POIN2 Label_1_0198C7BC
// 084   ----------------------------------------
 BYTE   PATT
  POIN2 Label_1_0198C786
// 085   ----------------------------------------
 BYTE   PATT
  POIN2 Label_1_0198C786
// 086   ----------------------------------------
 BYTE   PATT
  POIN2 Label_1_0198C7A1
// 087   ----------------------------------------
 BYTE   PATT
  POIN2 Label_1_0198C7BC
// 088   ----------------------------------------
 BYTE   PATT
  POIN2 Label_1_0198C786
// 089   ----------------------------------------
 BYTE   N92  An2  v120
 BYTE   W96
// 090   ----------------------------------------
 BYTE   Gn2
 BYTE   W96
// 091   ----------------------------------------
 BYTE   Fn2
 BYTE   W96
// 092   ----------------------------------------
 BYTE   Gs2
 BYTE   W96
// 093   ----------------------------------------
 BYTE   An2
 BYTE   W96
// 094   ----------------------------------------
 BYTE   Gn2
 BYTE   W96
// 095   ----------------------------------------
 BYTE   Fn2
 BYTE   W96
// 096   ----------------------------------------
 BYTE   Gs2
 BYTE   W80
 BYTE   W01
 BYTE   GoTo
  POIN2 Label_1_0198C56A
// 097   ----------------------------------------
 BYTE   W15
 BYTE   W01
 BYTE   FINE

//**************** Track 3 (Midi-Chn.2) ****************//

song0104_003:
// 000   ----------------------------------------
 BYTE   KEYSH   song0104_key+0
Label_2_0198C836:
 BYTE   VOICE   33
 BYTE   VOL   42*song0104_mvl/mxv
 BYTE   PAN   c_v+0
 BYTE   BEND   c_v+0
 BYTE   N07  Bn0  v127
 BYTE   W08
 BYTE   Cn1
 BYTE   W08
 BYTE   Ds1
 BYTE   W08
 BYTE   Dn1
 BYTE   W08
 BYTE   Fs1
 BYTE   W08
 BYTE   Fn1
 BYTE   W08
 BYTE   Gs1
 BYTE   W08
 BYTE   An1
 BYTE   W08
 BYTE   Bn1
 BYTE   W08
 BYTE   Cn2
 BYTE   W08
 BYTE   Ds2
 BYTE   W08
 BYTE   Fs2
 BYTE   W08
// 001   ----------------------------------------
Label_2_0198C858:
 BYTE   N14  En0  v127
 BYTE   W16
 BYTE   N07
 BYTE   W08
 BYTE   En1
 BYTE   W08
 BYTE   N14  En0
 BYTE   W16
 BYTE   N14
 BYTE   W16
 BYTE   N07
 BYTE   W08
 BYTE   En1
 BYTE   W08
 BYTE   N14  En0
 BYTE   W16
 BYTE   PEND 
// 002   ----------------------------------------
 BYTE   PATT
  POIN2 Label_2_0198C858
// 003   ----------------------------------------
 BYTE   PATT
  POIN2 Label_2_0198C858
// 004   ----------------------------------------
 BYTE   PATT
  POIN2 Label_2_0198C858
// 005   ----------------------------------------
 BYTE   PATT
  POIN2 Label_2_0198C858
// 006   ----------------------------------------
 BYTE   PATT
  POIN2 Label_2_0198C858
// 007   ----------------------------------------
 BYTE   PATT
  POIN2 Label_2_0198C858
// 008   ----------------------------------------
Label_2_0198C88B:
 BYTE   N14  Bn0  v127
 BYTE   W16
 BYTE   N07
 BYTE   W08
 BYTE   Bn1
 BYTE   W08
 BYTE   N14  Bn0
 BYTE   W16
 BYTE   N14
 BYTE   W16
 BYTE   N07
 BYTE   W08
 BYTE   Bn1
 BYTE   W08
 BYTE   N14  Bn0
 BYTE   W16
 BYTE   PEND 
// 009   ----------------------------------------
Label_2_0198C8A0:
 BYTE   N14  Cn1  v127
 BYTE   W16
 BYTE   N07
 BYTE   W08
 BYTE   Cn2
 BYTE   W08
 BYTE   N14  Cn1
 BYTE   W16
 BYTE   Dn1
 BYTE   W16
 BYTE   N07
 BYTE   W08
 BYTE   Dn2
 BYTE   W08
 BYTE   N14  Dn1
 BYTE   W16
 BYTE   PEND 
// 010   ----------------------------------------
Label_2_0198C8B5:
 BYTE   N14  Ds1  v127
 BYTE   W16
 BYTE   N07
 BYTE   W08
 BYTE   Ds2
 BYTE   W08
 BYTE   N14  Ds1
 BYTE   W16
 BYTE   En0
 BYTE   W16
 BYTE   N07
 BYTE   W08
 BYTE   En1
 BYTE   W08
 BYTE   N14  En0
 BYTE   W16
 BYTE   PEND 
// 011   ----------------------------------------
Label_2_0198C8CA:
 BYTE   N14  Cn1  v127
 BYTE   W16
 BYTE   N07
 BYTE   W08
 BYTE   Cn2
 BYTE   W08
 BYTE   N14  Cn1
 BYTE   W16
 BYTE   N14
 BYTE   W16
 BYTE   N07
 BYTE   W08
 BYTE   Cn2
 BYTE   W08
 BYTE   N14  Cn1
 BYTE   W16
 BYTE   PEND 
// 012   ----------------------------------------
Label_2_0198C8DF:
 BYTE   N07  Ds2  v127
 BYTE   W08
 BYTE   En2
 BYTE   W08
 BYTE   Fs2
 BYTE   W08
 BYTE   En2
 BYTE   W08
 BYTE   Ds2
 BYTE   W08
 BYTE   Bn1
 BYTE   W08
 BYTE   An1
 BYTE   W08
 BYTE   Gn1
 BYTE   W08
 BYTE   Fs1
 BYTE   W08
 BYTE   En1
 BYTE   W08
 BYTE   Ds1
 BYTE   W08
 BYTE   Bn0
 BYTE   W08
 BYTE   PEND 
// 013   ----------------------------------------
 BYTE   PATT
  POIN2 Label_2_0198C8A0
// 014   ----------------------------------------
 BYTE   PATT
  POIN2 Label_2_0198C8B5
// 015   ----------------------------------------
 BYTE   PATT
  POIN2 Label_2_0198C8CA
// 016   ----------------------------------------
Label_2_0198C909:
 BYTE   N07  Dn1  v127
 BYTE   W08
 BYTE   Fs1
 BYTE   W08
 BYTE   An1
 BYTE   W08
 BYTE   Dn2
 BYTE   W08
 BYTE   An1
 BYTE   W08
 BYTE   Dn2
 BYTE   W08
 BYTE   Fs1
 BYTE   W08
 BYTE   An1
 BYTE   W08
 BYTE   Dn1
 BYTE   W08
 BYTE   Fs1
 BYTE   W08
 BYTE   An1
 BYTE   W08
 BYTE   Dn2
 BYTE   W08
 BYTE   PEND 
// 017   ----------------------------------------
 BYTE   PATT
  POIN2 Label_2_0198C858
// 018   ----------------------------------------
 BYTE   PATT
  POIN2 Label_2_0198C858
// 019   ----------------------------------------
 BYTE   PATT
  POIN2 Label_2_0198C858
// 020   ----------------------------------------
 BYTE   PATT
  POIN2 Label_2_0198C858
// 021   ----------------------------------------
 BYTE   PATT
  POIN2 Label_2_0198C858
// 022   ----------------------------------------
 BYTE   PATT
  POIN2 Label_2_0198C858
// 023   ----------------------------------------
 BYTE   PATT
  POIN2 Label_2_0198C858
// 024   ----------------------------------------
 BYTE   PATT
  POIN2 Label_2_0198C88B
// 025   ----------------------------------------
 BYTE   PATT
  POIN2 Label_2_0198C8A0
// 026   ----------------------------------------
 BYTE   PATT
  POIN2 Label_2_0198C8B5
// 027   ----------------------------------------
 BYTE   PATT
  POIN2 Label_2_0198C8CA
// 028   ----------------------------------------
 BYTE   PATT
  POIN2 Label_2_0198C8DF
// 029   ----------------------------------------
 BYTE   PATT
  POIN2 Label_2_0198C8A0
// 030   ----------------------------------------
 BYTE   PATT
  POIN2 Label_2_0198C8B5
// 031   ----------------------------------------
 BYTE   PATT
  POIN2 Label_2_0198C8CA
// 032   ----------------------------------------
 BYTE   PATT
  POIN2 Label_2_0198C909
// 033   ----------------------------------------
 BYTE   PATT
  POIN2 Label_2_0198C858
// 034   ----------------------------------------
 BYTE   PATT
  POIN2 Label_2_0198C858
// 035   ----------------------------------------
 BYTE   PATT
  POIN2 Label_2_0198C858
// 036   ----------------------------------------
 BYTE   PATT
  POIN2 Label_2_0198C858
// 037   ----------------------------------------
 BYTE   PATT
  POIN2 Label_2_0198C858
// 038   ----------------------------------------
 BYTE   PATT
  POIN2 Label_2_0198C858
// 039   ----------------------------------------
 BYTE   PATT
  POIN2 Label_2_0198C858
// 040   ----------------------------------------
 BYTE   PATT
  POIN2 Label_2_0198C858
// 041   ----------------------------------------
Label_2_0198C99C:
 BYTE   N14  Fs0  v127
 BYTE   W16
 BYTE   N07
 BYTE   W08
 BYTE   Fs1
 BYTE   W08
 BYTE   N14  Fs0
 BYTE   W16
 BYTE   N14
 BYTE   W16
 BYTE   N07
 BYTE   W08
 BYTE   Fs1
 BYTE   W08
 BYTE   N14  Fs0
 BYTE   W16
 BYTE   PEND 
// 042   ----------------------------------------
 BYTE   PATT
  POIN2 Label_2_0198C99C
// 043   ----------------------------------------
 BYTE   PATT
  POIN2 Label_2_0198C99C
// 044   ----------------------------------------
 BYTE   PATT
  POIN2 Label_2_0198C99C
// 045   ----------------------------------------
 BYTE   PATT
  POIN2 Label_2_0198C99C
// 046   ----------------------------------------
 BYTE   PATT
  POIN2 Label_2_0198C99C
// 047   ----------------------------------------
 BYTE   PATT
  POIN2 Label_2_0198C99C
// 048   ----------------------------------------
 BYTE   PATT
  POIN2 Label_2_0198C99C
// 049   ----------------------------------------
Label_2_0198C9D4:
 BYTE   N14  An0  v127
 BYTE   W16
 BYTE   N07
 BYTE   W08
 BYTE   An1
 BYTE   W08
 BYTE   N14  An0
 BYTE   W16
 BYTE   N14
 BYTE   W16
 BYTE   N07
 BYTE   W08
 BYTE   An1
 BYTE   W08
 BYTE   N14  An0
 BYTE   W16
 BYTE   PEND 
// 050   ----------------------------------------
 BYTE   PATT
  POIN2 Label_2_0198C9D4
// 051   ----------------------------------------
 BYTE   PATT
  POIN2 Label_2_0198C9D4
// 052   ----------------------------------------
 BYTE   PATT
  POIN2 Label_2_0198C9D4
// 053   ----------------------------------------
 BYTE   PATT
  POIN2 Label_2_0198C9D4
// 054   ----------------------------------------
 BYTE   PATT
  POIN2 Label_2_0198C9D4
// 055   ----------------------------------------
 BYTE   PATT
  POIN2 Label_2_0198C9D4
// 056   ----------------------------------------
 BYTE   PATT
  POIN2 Label_2_0198C9D4
// 057   ----------------------------------------
 BYTE   PATT
  POIN2 Label_2_0198C9D4
// 058   ----------------------------------------
Label_2_0198CA11:
 BYTE   N14  Fn0  v127
 BYTE   W16
 BYTE   N07
 BYTE   W08
 BYTE   Fn1
 BYTE   W08
 BYTE   N14  Fn0
 BYTE   W16
 BYTE   N14
 BYTE   W16
 BYTE   N07
 BYTE   W08
 BYTE   Fn1
 BYTE   W08
 BYTE   N14  Fn0
 BYTE   W16
 BYTE   PEND 
// 059   ----------------------------------------
Label_2_0198CA26:
 BYTE   N14  Gn0  v127
 BYTE   W16
 BYTE   N07
 BYTE   W08
 BYTE   Gn1
 BYTE   W08
 BYTE   N14  Gn0
 BYTE   W16
 BYTE   N14
 BYTE   W16
 BYTE   N07
 BYTE   W08
 BYTE   Gn1
 BYTE   W08
 BYTE   N14  Gn0
 BYTE   W16
 BYTE   PEND 
// 060   ----------------------------------------
 BYTE   PATT
  POIN2 Label_2_0198CA26
// 061   ----------------------------------------
 BYTE   PATT
  POIN2 Label_2_0198C9D4
// 062   ----------------------------------------
 BYTE   PATT
  POIN2 Label_2_0198CA11
// 063   ----------------------------------------
 BYTE   PATT
  POIN2 Label_2_0198CA26
// 064   ----------------------------------------
 BYTE   PATT
  POIN2 Label_2_0198CA26
// 065   ----------------------------------------
 BYTE   PATT
  POIN2 Label_2_0198C9D4
// 066   ----------------------------------------
 BYTE   PATT
  POIN2 Label_2_0198CA11
// 067   ----------------------------------------
 BYTE   PATT
  POIN2 Label_2_0198CA26
// 068   ----------------------------------------
 BYTE   PATT
  POIN2 Label_2_0198CA26
// 069   ----------------------------------------
 BYTE   PATT
  POIN2 Label_2_0198C9D4
// 070   ----------------------------------------
 BYTE   PATT
  POIN2 Label_2_0198CA11
// 071   ----------------------------------------
 BYTE   PATT
  POIN2 Label_2_0198CA26
// 072   ----------------------------------------
 BYTE   PATT
  POIN2 Label_2_0198CA26
// 073   ----------------------------------------
Label_2_0198CA7C:
 BYTE   N14  Cn1  v127
 BYTE   W16
 BYTE   N14
 BYTE   W16
 BYTE   N14
 BYTE   W16
 BYTE   N14
 BYTE   W16
 BYTE   N14
 BYTE   W16
 BYTE   N14
 BYTE   W16
 BYTE   PEND 
// 074   ----------------------------------------
 BYTE   PATT
  POIN2 Label_2_0198CA7C
// 075   ----------------------------------------
 BYTE   PATT
  POIN2 Label_2_0198CA7C
// 076   ----------------------------------------
 BYTE   PATT
  POIN2 Label_2_0198CA7C
// 077   ----------------------------------------
 BYTE   PATT
  POIN2 Label_2_0198CA7C
// 078   ----------------------------------------
 BYTE   PATT
  POIN2 Label_2_0198CA7C
// 079   ----------------------------------------
 BYTE   PATT
  POIN2 Label_2_0198CA7C
// 080   ----------------------------------------
 BYTE   PATT
  POIN2 Label_2_0198CA7C
// 081   ----------------------------------------
 BYTE   PATT
  POIN2 Label_2_0198C8CA
// 082   ----------------------------------------
 BYTE   PATT
  POIN2 Label_2_0198C8CA
// 083   ----------------------------------------
 BYTE   PATT
  POIN2 Label_2_0198C8CA
// 084   ----------------------------------------
 BYTE   PATT
  POIN2 Label_2_0198C8CA
// 085   ----------------------------------------
 BYTE   PATT
  POIN2 Label_2_0198C8CA
// 086   ----------------------------------------
 BYTE   PATT
  POIN2 Label_2_0198C8CA
// 087   ----------------------------------------
 BYTE   PATT
  POIN2 Label_2_0198C8CA
// 088   ----------------------------------------
 BYTE   PATT
  POIN2 Label_2_0198C8CA
// 089   ----------------------------------------
 BYTE   PATT
  POIN2 Label_2_0198C9D4
// 090   ----------------------------------------
 BYTE   PATT
  POIN2 Label_2_0198C9D4
// 091   ----------------------------------------
 BYTE   PATT
  POIN2 Label_2_0198C9D4
// 092   ----------------------------------------
 BYTE   PATT
  POIN2 Label_2_0198C858
// 093   ----------------------------------------
 BYTE   PATT
  POIN2 Label_2_0198C9D4
// 094   ----------------------------------------
 BYTE   PATT
  POIN2 Label_2_0198CA26
// 095   ----------------------------------------
 BYTE   PATT
  POIN2 Label_2_0198CA11
// 096   ----------------------------------------
 BYTE   N14  En0  v127
 BYTE   W16
 BYTE   N07
 BYTE   W08
 BYTE   En1
 BYTE   W08
 BYTE   N14  En0
 BYTE   W16
 BYTE   N14
 BYTE   W16
 BYTE   N07
 BYTE   W08
 BYTE   En1
 BYTE   W08
 BYTE   N14  En0
 BYTE   W01
 BYTE   GoTo
  POIN2 Label_2_0198C836
// 097   ----------------------------------------
 BYTE   W15
 BYTE   W01
 BYTE   FINE

//**************** Track 4 (Midi-Chn.3) ****************//

song0104_004:
// 000   ----------------------------------------
 BYTE   KEYSH   song0104_key+0
Label_3_0198CB1A:
 BYTE   VOICE   60
 BYTE   VOL   42*song0104_mvl/mxv
 BYTE   PAN   c_v+6
 BYTE   BEND   c_v+0
 BYTE   W96
// 001   ----------------------------------------
Label_3_0198CB23:
 BYTE   N92  En2  v112
 BYTE   N92  Gn2
 BYTE   N92  Bn2
 BYTE   W96
 BYTE   PEND 
// 002   ----------------------------------------
Label_3_0198CB2C:
 BYTE   N92  Fs2  v112
 BYTE   N92  An2
 BYTE   N92  Dn3
 BYTE   W96
 BYTE   PEND 
// 003   ----------------------------------------
 BYTE   PATT
  POIN2 Label_3_0198CB23
// 004   ----------------------------------------
Label_3_0198CB3A:
 BYTE   N92  Ds2  v112
 BYTE   N92  Fs2
 BYTE   N92  Bn2
 BYTE   W96
 BYTE   PEND 
// 005   ----------------------------------------
 BYTE   PATT
  POIN2 Label_3_0198CB23
// 006   ----------------------------------------
 BYTE   PATT
  POIN2 Label_3_0198CB2C
// 007   ----------------------------------------
Label_3_0198CB4D:
 BYTE   N92  Cn2  v112
 BYTE   N92  En2
 BYTE   N92  Gn2
 BYTE   W96
 BYTE   PEND 
// 008   ----------------------------------------
Label_3_0198CB56:
 BYTE   N92  Ds2  v112
 BYTE   N92  Fs2
 BYTE   N44  Cn3
 BYTE   W48
 BYTE   Bn2
 BYTE   W48
 BYTE   PEND 
// 009   ----------------------------------------
Label_3_0198CB61:
 BYTE   N44  Cn2  v112
 BYTE   N44  En2
 BYTE   N44  Gn2
 BYTE   W48
 BYTE   Dn2
 BYTE   N44  Fs2
 BYTE   N44  An2
 BYTE   W48
 BYTE   PEND 
// 010   ----------------------------------------
Label_3_0198CB70:
 BYTE   N44  Ds2  v112
 BYTE   N44  Fs2
 BYTE   N44  An2
 BYTE   W48
 BYTE   En2
 BYTE   N44  Gn2
 BYTE   N44  Bn2
 BYTE   W48
 BYTE   PEND 
// 011   ----------------------------------------
 BYTE   PATT
  POIN2 Label_3_0198CB4D
// 012   ----------------------------------------
 BYTE   PATT
  POIN2 Label_3_0198CB56
// 013   ----------------------------------------
 BYTE   PATT
  POIN2 Label_3_0198CB61
// 014   ----------------------------------------
 BYTE   PATT
  POIN2 Label_3_0198CB70
// 015   ----------------------------------------
 BYTE   PATT
  POIN2 Label_3_0198CB4D
// 016   ----------------------------------------
Label_3_0198CB98:
 BYTE   N44  Dn2  v112
 BYTE   N92  Fs2
 BYTE   N44  An2
 BYTE   W48
 BYTE   N44
 BYTE   N44  Dn3
 BYTE   W48
 BYTE   PEND 
// 017   ----------------------------------------
 BYTE   PATT
  POIN2 Label_3_0198CB23
// 018   ----------------------------------------
 BYTE   PATT
  POIN2 Label_3_0198CB2C
// 019   ----------------------------------------
 BYTE   PATT
  POIN2 Label_3_0198CB23
// 020   ----------------------------------------
 BYTE   PATT
  POIN2 Label_3_0198CB3A
// 021   ----------------------------------------
 BYTE   PATT
  POIN2 Label_3_0198CB23
// 022   ----------------------------------------
 BYTE   PATT
  POIN2 Label_3_0198CB2C
// 023   ----------------------------------------
 BYTE   PATT
  POIN2 Label_3_0198CB4D
// 024   ----------------------------------------
 BYTE   PATT
  POIN2 Label_3_0198CB56
// 025   ----------------------------------------
 BYTE   PATT
  POIN2 Label_3_0198CB61
// 026   ----------------------------------------
 BYTE   PATT
  POIN2 Label_3_0198CB70
// 027   ----------------------------------------
 BYTE   PATT
  POIN2 Label_3_0198CB4D
// 028   ----------------------------------------
 BYTE   PATT
  POIN2 Label_3_0198CB56
// 029   ----------------------------------------
 BYTE   PATT
  POIN2 Label_3_0198CB61
// 030   ----------------------------------------
 BYTE   PATT
  POIN2 Label_3_0198CB70
// 031   ----------------------------------------
 BYTE   PATT
  POIN2 Label_3_0198CB4D
// 032   ----------------------------------------
 BYTE   PATT
  POIN2 Label_3_0198CB98
// 033   ----------------------------------------
Label_3_0198CBF5:
 BYTE   N92  Gn2  v112
 BYTE   N92  Bn2
 BYTE   N92  Dn3
 BYTE   W96
 BYTE   PEND 
// 034   ----------------------------------------
 BYTE   PATT
  POIN2 Label_3_0198CB2C
// 035   ----------------------------------------
Label_3_0198CC03:
 BYTE   N92  Fn2  v112
 BYTE   N92  An2
 BYTE   N92  Cn3
 BYTE   W96
 BYTE   PEND 
// 036   ----------------------------------------
Label_3_0198CC0C:
 BYTE   N92  Fn2  v112
 BYTE   N92  Gs2
 BYTE   N92  Bn2
 BYTE   W96
 BYTE   PEND 
// 037   ----------------------------------------
 BYTE   PATT
  POIN2 Label_3_0198CBF5
// 038   ----------------------------------------
 BYTE   PATT
  POIN2 Label_3_0198CB2C
// 039   ----------------------------------------
 BYTE   PATT
  POIN2 Label_3_0198CC03
// 040   ----------------------------------------
 BYTE   PATT
  POIN2 Label_3_0198CC0C
// 041   ----------------------------------------
 BYTE   N44  Fs2  v127
 BYTE   W48
 BYTE   N92  Cs3
 BYTE   W48
// 042   ----------------------------------------
 BYTE   W48
 BYTE   N44  Bn2
 BYTE   W48
// 043   ----------------------------------------
 BYTE   N92  Cs3
 BYTE   W96
// 044   ----------------------------------------
 BYTE   N44  Fs3
 BYTE   W48
 BYTE   Gs3
 BYTE   W48
// 045   ----------------------------------------
 BYTE   An3
 BYTE   W48
 BYTE   N14
 BYTE   W16
 BYTE   Gs3
 BYTE   W16
 BYTE   Fs3
 BYTE   W16
// 046   ----------------------------------------
 BYTE   N44  Fn3
 BYTE   W48
 BYTE   Cs3
 BYTE   W48
// 047   ----------------------------------------
 BYTE   N14  Fs2
 BYTE   W16
 BYTE   Gs2
 BYTE   W16
 BYTE   An2
 BYTE   W16
 BYTE   Gs2
 BYTE   W16
 BYTE   An2
 BYTE   W16
 BYTE   Bn2
 BYTE   W16
// 048   ----------------------------------------
 BYTE   N44  Cs3
 BYTE   W48
 BYTE   Bn2
 BYTE   W48
// 049   ----------------------------------------
Label_3_0198CC5B:
 BYTE   N92  En2  v108
 BYTE   N92  An2
 BYTE   N92  Cn3
 BYTE   W96
 BYTE   PEND 
// 050   ----------------------------------------
Label_3_0198CC64:
 BYTE   N92  En2  v108
 BYTE   N92  Gs2
 BYTE   N92  Bn2
 BYTE   W96
 BYTE   PEND 
// 051   ----------------------------------------
 BYTE   PATT
  POIN2 Label_3_0198CC5B
// 052   ----------------------------------------
 BYTE   N92  En2  v108
 BYTE   N92  Bn2
 BYTE   N92  Dn3
 BYTE   W96
// 053   ----------------------------------------
 BYTE   PATT
  POIN2 Label_3_0198CC5B
// 054   ----------------------------------------
 BYTE   PATT
  POIN2 Label_3_0198CC64
// 055   ----------------------------------------
 BYTE   N92  Fn2  v108
 BYTE   N92  An2
 BYTE   N92  Cn3
 BYTE   W96
// 056   ----------------------------------------
 BYTE   Gn2
 BYTE   N92  Bn2
 BYTE   N92  Dn3
 BYTE   W96
// 057   ----------------------------------------
 BYTE   W96
// 058   ----------------------------------------
 BYTE   W96
// 059   ----------------------------------------
 BYTE   W96
// 060   ----------------------------------------
 BYTE   W96
// 061   ----------------------------------------
 BYTE   N44  An2  v127
 BYTE   W48
 BYTE   En3
 BYTE   W48
// 062   ----------------------------------------
 BYTE   An3
 BYTE   W48
 BYTE   Gn3
 BYTE   W48
// 063   ----------------------------------------
 BYTE   N92  Dn3
 BYTE   N92  Cn4
 BYTE   W96
// 064   ----------------------------------------
 BYTE   Dn3
 BYTE   N92  Bn3
 BYTE   W96
// 065   ----------------------------------------
Label_3_0198CCA9:
 BYTE   N14  En3  v127
 BYTE   W16
 BYTE   Dn3
 BYTE   W16
 BYTE   Cn3
 BYTE   W16
 BYTE   N44  Bn2
 BYTE   W48
 BYTE   PEND 
// 066   ----------------------------------------
Label_3_0198CCB5:
 BYTE   N14  Cn3  v127
 BYTE   W16
 BYTE   Bn2
 BYTE   W16
 BYTE   Cn3
 BYTE   W16
 BYTE   N22  Dn3
 BYTE   W24
 BYTE   En3
 BYTE   W24
 BYTE   PEND 
// 067   ----------------------------------------
 BYTE   N44
 BYTE   W48
 BYTE   N92  Dn3
 BYTE   W48
// 068   ----------------------------------------
 BYTE   W48
 BYTE   N44  Gn2
 BYTE   W48
// 069   ----------------------------------------
 BYTE   PATT
  POIN2 Label_3_0198CCA9
// 070   ----------------------------------------
 BYTE   PATT
  POIN2 Label_3_0198CCB5
// 071   ----------------------------------------
 BYTE   N92  Dn3  v127
 BYTE   N92  Cn4
 BYTE   W96
// 072   ----------------------------------------
 BYTE   Dn3
 BYTE   N92  Bn3
 BYTE   W96
// 073   ----------------------------------------
Label_3_0198CCE0:
 BYTE   N92  Cn2  v112
 BYTE   N92  Ds2
 BYTE   N92  Gn2
 BYTE   W96
 BYTE   PEND 
// 074   ----------------------------------------
Label_3_0198CCE9:
 BYTE   N92  Cn2  v112
 BYTE   N92  Ds2
 BYTE   N92  Gs2
 BYTE   W96
 BYTE   PEND 
// 075   ----------------------------------------
Label_3_0198CCF2:
 BYTE   N92  Cn2  v112
 BYTE   N92  Fn2
 BYTE   N92  An2
 BYTE   W96
 BYTE   PEND 
// 076   ----------------------------------------
Label_3_0198CCFB:
 BYTE   N92  Dn2  v112
 BYTE   N92  Fn2
 BYTE   N92  As2
 BYTE   W96
 BYTE   PEND 
// 077   ----------------------------------------
 BYTE   PATT
  POIN2 Label_3_0198CCE0
// 078   ----------------------------------------
 BYTE   PATT
  POIN2 Label_3_0198CCE9
// 079   ----------------------------------------
 BYTE   PATT
  POIN2 Label_3_0198CCF2
// 080   ----------------------------------------
 BYTE   PATT
  POIN2 Label_3_0198CCFB
// 081   ----------------------------------------
 BYTE   PATT
  POIN2 Label_3_0198CCE0
// 082   ----------------------------------------
 BYTE   PATT
  POIN2 Label_3_0198CCE9
// 083   ----------------------------------------
 BYTE   PATT
  POIN2 Label_3_0198CCF2
// 084   ----------------------------------------
 BYTE   PATT
  POIN2 Label_3_0198CCFB
// 085   ----------------------------------------
 BYTE   PATT
  POIN2 Label_3_0198CCE0
// 086   ----------------------------------------
 BYTE   PATT
  POIN2 Label_3_0198CCE9
// 087   ----------------------------------------
 BYTE   PATT
  POIN2 Label_3_0198CCF2
// 088   ----------------------------------------
 BYTE   PATT
  POIN2 Label_3_0198CCFB
// 089   ----------------------------------------
 BYTE   N44  An2  v127
 BYTE   N44  An3
 BYTE   W48
 BYTE   En2
 BYTE   N44  En3
 BYTE   W48
// 090   ----------------------------------------
 BYTE   N14  An2
 BYTE   N14  An3
 BYTE   W16
 BYTE   Bn2
 BYTE   N14  Bn3
 BYTE   W16
 BYTE   Cn3
 BYTE   N14  Cn4
 BYTE   W16
 BYTE   Dn3
 BYTE   N14  Dn4
 BYTE   W16
 BYTE   Cn3
 BYTE   N14  Cn4
 BYTE   W16
 BYTE   Dn3
 BYTE   N14  Dn4
 BYTE   W16
// 091   ----------------------------------------
 BYTE   N44  En3
 BYTE   N44  En4
 BYTE   W48
 BYTE   An2
 BYTE   N44  An3
 BYTE   W48
// 092   ----------------------------------------
 BYTE   Gs2
 BYTE   N44  Gs3
 BYTE   W48
 BYTE   N22  An2
 BYTE   N22  An3
 BYTE   W24
 BYTE   Bn2
 BYTE   N22  Bn3
 BYTE   W24
// 093   ----------------------------------------
 BYTE   N44  Cn3
 BYTE   N44  Cn4
 BYTE   W48
 BYTE   N14  Cn3
 BYTE   N14  Cn4
 BYTE   W16
 BYTE   Bn2
 BYTE   N14  Bn3
 BYTE   W16
 BYTE   An2
 BYTE   N14  An3
 BYTE   W16
// 094   ----------------------------------------
 BYTE   N44  Dn3
 BYTE   N44  Dn4
 BYTE   W48
 BYTE   Gn2
 BYTE   N44  Gn3
 BYTE   W48
// 095   ----------------------------------------
 BYTE   N14  Fn2
 BYTE   N14  Fn3
 BYTE   W16
 BYTE   Gn2
 BYTE   N14  Gn3
 BYTE   W16
 BYTE   An2
 BYTE   N14  An3
 BYTE   W16
 BYTE   Cn3
 BYTE   N14  Cn4
 BYTE   W16
 BYTE   Bn2
 BYTE   N14  Bn3
 BYTE   W16
 BYTE   Cn3
 BYTE   N14  Cn4
 BYTE   W16
// 096   ----------------------------------------
 BYTE   N44  Dn3
 BYTE   N44  Dn4
 BYTE   W48
 BYTE   En3
 BYTE   N44  En4
 BYTE   W32
 BYTE   W01
 BYTE   GoTo
  POIN2 Label_3_0198CB1A
// 097   ----------------------------------------
 BYTE   W15
 BYTE   W01
 BYTE   FINE

//**************** Track 5 (Midi-Chn.4) ****************//

song0104_005:
// 000   ----------------------------------------
 BYTE   KEYSH   song0104_key+0
Label_4_0198CDC2:
 BYTE   VOICE   56
 BYTE   VOL   23*song0104_mvl/mxv
 BYTE   PAN   c_v+6
 BYTE   BEND   c_v+0
 BYTE   W96
// 001   ----------------------------------------
 BYTE   W96
// 002   ----------------------------------------
 BYTE   W96
// 003   ----------------------------------------
 BYTE   W96
// 004   ----------------------------------------
 BYTE   W96
// 005   ----------------------------------------
 BYTE   W96
// 006   ----------------------------------------
 BYTE   W96
// 007   ----------------------------------------
 BYTE   W96
// 008   ----------------------------------------
 BYTE   W96
// 009   ----------------------------------------
 BYTE   W96
// 010   ----------------------------------------
 BYTE   W96
// 011   ----------------------------------------
 BYTE   W96
// 012   ----------------------------------------
 BYTE   W96
// 013   ----------------------------------------
 BYTE   W96
// 014   ----------------------------------------
 BYTE   W96
// 015   ----------------------------------------
 BYTE   W96
// 016   ----------------------------------------
 BYTE   W96
// 017   ----------------------------------------
 BYTE   W96
// 018   ----------------------------------------
 BYTE   W96
// 019   ----------------------------------------
 BYTE   W96
// 020   ----------------------------------------
 BYTE   W96
// 021   ----------------------------------------
 BYTE   W96
// 022   ----------------------------------------
 BYTE   W96
// 023   ----------------------------------------
 BYTE   W96
// 024   ----------------------------------------
 BYTE   W96
// 025   ----------------------------------------
 BYTE   W96
// 026   ----------------------------------------
 BYTE   W96
// 027   ----------------------------------------
 BYTE   W96
// 028   ----------------------------------------
 BYTE   W96
// 029   ----------------------------------------
 BYTE   W96
// 030   ----------------------------------------
 BYTE   W96
// 031   ----------------------------------------
 BYTE   W96
// 032   ----------------------------------------
 BYTE   W96
// 033   ----------------------------------------
 BYTE   W96
// 034   ----------------------------------------
 BYTE   W96
// 035   ----------------------------------------
 BYTE   W96
// 036   ----------------------------------------
 BYTE   W96
// 037   ----------------------------------------
 BYTE   W96
// 038   ----------------------------------------
 BYTE   W96
// 039   ----------------------------------------
 BYTE   W96
// 040   ----------------------------------------
 BYTE   W92
 BYTE   W02
 BYTE   N44  Fs3  v127
 BYTE   W02
// 041   ----------------------------------------
 BYTE   W44
 BYTE   W02
 BYTE   N92  Cs4
 BYTE   W48
 BYTE   W02
// 042   ----------------------------------------
 BYTE   W44
 BYTE   W02
 BYTE   N44  Bn3
 BYTE   W48
 BYTE   N92  Cs4
 BYTE   W02
// 043   ----------------------------------------
 BYTE   W92
 BYTE   W02
 BYTE   N44  Fs4
 BYTE   W02
// 044   ----------------------------------------
 BYTE   W44
 BYTE   W02
 BYTE   Gs4
 BYTE   W48
 BYTE   An4
 BYTE   W02
// 045   ----------------------------------------
 BYTE   W44
 BYTE   W02
 BYTE   N14
 BYTE   W16
 BYTE   Gs4
 BYTE   W16
 BYTE   Fs4
 BYTE   W16
 BYTE   N44  Fn4
 BYTE   W02
// 046   ----------------------------------------
 BYTE   W44
 BYTE   W02
 BYTE   Cs4
 BYTE   W48
 BYTE   N14  Fs3
 BYTE   W02
// 047   ----------------------------------------
 BYTE   W14
 BYTE   Gs3
 BYTE   W16
 BYTE   An3
 BYTE   W16
 BYTE   Gs3
 BYTE   W16
 BYTE   An3
 BYTE   W16
 BYTE   Bn3
 BYTE   W16
 BYTE   N44  Cs4
 BYTE   W02
// 048   ----------------------------------------
 BYTE   W44
 BYTE   W02
 BYTE   Bn3
 BYTE   W48
 BYTE   W02
// 049   ----------------------------------------
 BYTE   W96
// 050   ----------------------------------------
 BYTE   W96
// 051   ----------------------------------------
 BYTE   W96
// 052   ----------------------------------------
 BYTE   W96
// 053   ----------------------------------------
 BYTE   W96
// 054   ----------------------------------------
 BYTE   W96
// 055   ----------------------------------------
 BYTE   W96
// 056   ----------------------------------------
 BYTE   W96
// 057   ----------------------------------------
 BYTE   W96
// 058   ----------------------------------------
 BYTE   W96
// 059   ----------------------------------------
 BYTE   W96
// 060   ----------------------------------------
 BYTE   W96
// 061   ----------------------------------------
 BYTE   W96
// 062   ----------------------------------------
 BYTE   W96
// 063   ----------------------------------------
 BYTE   W96
// 064   ----------------------------------------
 BYTE   W96
// 065   ----------------------------------------
 BYTE   W96
// 066   ----------------------------------------
 BYTE   W96
// 067   ----------------------------------------
 BYTE   W96
// 068   ----------------------------------------
 BYTE   W96
// 069   ----------------------------------------
 BYTE   W96
// 070   ----------------------------------------
 BYTE   W96
// 071   ----------------------------------------
 BYTE   W96
// 072   ----------------------------------------
 BYTE   W96
// 073   ----------------------------------------
 BYTE   W96
// 074   ----------------------------------------
 BYTE   W96
// 075   ----------------------------------------
 BYTE   W96
// 076   ----------------------------------------
 BYTE   W96
// 077   ----------------------------------------
 BYTE   W96
// 078   ----------------------------------------
 BYTE   W96
// 079   ----------------------------------------
 BYTE   W96
// 080   ----------------------------------------
 BYTE   W92
 BYTE   W02
 BYTE   N14  Cn4
 BYTE   W02
// 081   ----------------------------------------
Label_4_0198CE5A:
 BYTE   W14
 BYTE   N14  Dn4  v127
 BYTE   W16
 BYTE   Ds4
 BYTE   W16
 BYTE   Dn4
 BYTE   W16
 BYTE   Ds4
 BYTE   W16
 BYTE   Fn4
 BYTE   W16
 BYTE   N44  Gn4
 BYTE   W02
 BYTE   PEND 
// 082   ----------------------------------------
Label_4_0198CE6B:
 BYTE   W44
 BYTE   W02
 BYTE   N44  Cn4  v127
 BYTE   W48
 BYTE   N44
 BYTE   W02
 BYTE   PEND 
// 083   ----------------------------------------
 BYTE   W44
 BYTE   W02
 BYTE   N14  An4
 BYTE   W16
 BYTE   Gn4
 BYTE   W16
 BYTE   Fn4
 BYTE   W16
 BYTE   N44  As4
 BYTE   W02
// 084   ----------------------------------------
 BYTE   W44
 BYTE   W02
 BYTE   Fn4
 BYTE   W48
 BYTE   N14  Cn4
 BYTE   W02
// 085   ----------------------------------------
 BYTE   PATT
  POIN2 Label_4_0198CE5A
// 086   ----------------------------------------
 BYTE   PATT
  POIN2 Label_4_0198CE6B
// 087   ----------------------------------------
 BYTE   W44
 BYTE   W02
 BYTE   N14  Fn4  v127
 BYTE   W16
 BYTE   Gn4
 BYTE   W16
 BYTE   An4
 BYTE   W16
 BYTE   N44  As4
 BYTE   W02
// 088   ----------------------------------------
 BYTE   W44
 BYTE   W02
 BYTE   Dn5
 BYTE   W48
 BYTE   W02
// 089   ----------------------------------------
 BYTE   W96
// 090   ----------------------------------------
 BYTE   W96
// 091   ----------------------------------------
 BYTE   W96
// 092   ----------------------------------------
 BYTE   W96
// 093   ----------------------------------------
 BYTE   W96
// 094   ----------------------------------------
 BYTE   W96
// 095   ----------------------------------------
 BYTE   W96
// 096   ----------------------------------------
 BYTE   W80
 BYTE   W01
 BYTE   GoTo
  POIN2 Label_4_0198CDC2
// 097   ----------------------------------------
 BYTE   W15
 BYTE   W01
 BYTE   FINE

//**************** Track 6 (Midi-Chn.5) ****************//

song0104_006:
// 000   ----------------------------------------
 BYTE   KEYSH   song0104_key+0
Label_5_0198CEB6:
 BYTE   VOICE   29
 BYTE   VOL   34*song0104_mvl/mxv
 BYTE   PAN   c_v-4
 BYTE   BEND   c_v+0
 BYTE   N07  Bn1  v127
 BYTE   W08
 BYTE   Cn2
 BYTE   W08
 BYTE   Ds2
 BYTE   W08
 BYTE   Dn2
 BYTE   W08
 BYTE   Fs2
 BYTE   W08
 BYTE   Fn2
 BYTE   W08
 BYTE   Gs2
 BYTE   W08
 BYTE   An2
 BYTE   W08
 BYTE   Bn2
 BYTE   W08
 BYTE   Cn3
 BYTE   W08
 BYTE   Ds3
 BYTE   W08
 BYTE   Fs3
 BYTE   W08
// 001   ----------------------------------------
Label_5_0198CED8:
 BYTE   N14  En1  v127
 BYTE   W16
 BYTE   N07
 BYTE   W08
 BYTE   En2  v112
 BYTE   W08
 BYTE   N14  En1  v127
 BYTE   W16
 BYTE   N14
 BYTE   W16
 BYTE   N07
 BYTE   W08
 BYTE   En2  v112
 BYTE   W08
 BYTE   N14  En1  v127
 BYTE   W16
 BYTE   PEND 
// 002   ----------------------------------------
 BYTE   PATT
  POIN2 Label_5_0198CED8
// 003   ----------------------------------------
 BYTE   PATT
  POIN2 Label_5_0198CED8
// 004   ----------------------------------------
 BYTE   PATT
  POIN2 Label_5_0198CED8
// 005   ----------------------------------------
 BYTE   PATT
  POIN2 Label_5_0198CED8
// 006   ----------------------------------------
 BYTE   PATT
  POIN2 Label_5_0198CED8
// 007   ----------------------------------------
 BYTE   PATT
  POIN2 Label_5_0198CED8
// 008   ----------------------------------------
 BYTE   N14  Bn1  v127
 BYTE   W16
 BYTE   N07
 BYTE   W08
 BYTE   Bn2
 BYTE   W08
 BYTE   N14  Bn1
 BYTE   W16
 BYTE   N14
 BYTE   W16
 BYTE   N07
 BYTE   W08
 BYTE   Bn2
 BYTE   W08
 BYTE   N14  Bn1
 BYTE   W16
// 009   ----------------------------------------
 BYTE   Cn2
 BYTE   W16
 BYTE   N07
 BYTE   W08
 BYTE   Cn3
 BYTE   W08
 BYTE   N14  Cn2
 BYTE   W16
 BYTE   Dn2
 BYTE   W16
 BYTE   N07
 BYTE   W08
 BYTE   Dn3
 BYTE   W08
 BYTE   N14  Dn2
 BYTE   W16
// 010   ----------------------------------------
 BYTE   Ds2
 BYTE   W16
 BYTE   N07
 BYTE   W08
 BYTE   Ds3
 BYTE   W08
 BYTE   N14  Ds2
 BYTE   W16
 BYTE   En1
 BYTE   W16
 BYTE   N07
 BYTE   W08
 BYTE   En2
 BYTE   W08
 BYTE   N14  En1
 BYTE   W16
// 011   ----------------------------------------
Label_5_0198CF47:
 BYTE   N14  Cn2  v127
 BYTE   W16
 BYTE   N07
 BYTE   W08
 BYTE   Cn3  v112
 BYTE   W08
 BYTE   N14  Cn2  v127
 BYTE   W16
 BYTE   N14
 BYTE   W16
 BYTE   N07
 BYTE   W08
 BYTE   Cn3  v112
 BYTE   W08
 BYTE   N14  Cn2  v127
 BYTE   W16
 BYTE   PEND 
// 012   ----------------------------------------
Label_5_0198CF60:
 BYTE   N07  Ds3  v127
 BYTE   W08
 BYTE   En3
 BYTE   W08
 BYTE   Fs3
 BYTE   W08
 BYTE   En3
 BYTE   W08
 BYTE   Ds3
 BYTE   W08
 BYTE   Bn2
 BYTE   W08
 BYTE   An2
 BYTE   W08
 BYTE   Gn2
 BYTE   W08
 BYTE   Fs2
 BYTE   W08
 BYTE   En2
 BYTE   W08
 BYTE   Ds2
 BYTE   W08
 BYTE   Bn1
 BYTE   W08
 BYTE   PEND 
// 013   ----------------------------------------
Label_5_0198CF7B:
 BYTE   N14  Cn2  v127
 BYTE   W16
 BYTE   N07
 BYTE   W08
 BYTE   Cn3  v112
 BYTE   W08
 BYTE   N14  Cn2  v127
 BYTE   W16
 BYTE   Dn2
 BYTE   W16
 BYTE   N07
 BYTE   W08
 BYTE   Dn3  v112
 BYTE   W08
 BYTE   N14  Dn2  v127
 BYTE   W16
 BYTE   PEND 
// 014   ----------------------------------------
Label_5_0198CF94:
 BYTE   N14  Ds2  v127
 BYTE   W16
 BYTE   N07
 BYTE   W08
 BYTE   Ds3  v112
 BYTE   W08
 BYTE   N14  Ds2  v127
 BYTE   W16
 BYTE   En1
 BYTE   W16
 BYTE   N07
 BYTE   W08
 BYTE   En2
 BYTE   W08
 BYTE   N14  En1
 BYTE   W16
 BYTE   PEND 
// 015   ----------------------------------------
 BYTE   PATT
  POIN2 Label_5_0198CF47
// 016   ----------------------------------------
Label_5_0198CFB0:
 BYTE   N07  Dn2  v127
 BYTE   W08
 BYTE   Fs2
 BYTE   W08
 BYTE   An2
 BYTE   W08
 BYTE   Dn3
 BYTE   W08
 BYTE   An2
 BYTE   W08
 BYTE   Dn3
 BYTE   W08
 BYTE   Fs2
 BYTE   W08
 BYTE   An2
 BYTE   W08
 BYTE   Dn2
 BYTE   W08
 BYTE   Fs2
 BYTE   W08
 BYTE   An2
 BYTE   W08
 BYTE   Dn3
 BYTE   W08
 BYTE   PEND 
// 017   ----------------------------------------
 BYTE   PATT
  POIN2 Label_5_0198CED8
// 018   ----------------------------------------
 BYTE   PATT
  POIN2 Label_5_0198CED8
// 019   ----------------------------------------
 BYTE   PATT
  POIN2 Label_5_0198CED8
// 020   ----------------------------------------
 BYTE   PATT
  POIN2 Label_5_0198CED8
// 021   ----------------------------------------
 BYTE   PATT
  POIN2 Label_5_0198CED8
// 022   ----------------------------------------
 BYTE   PATT
  POIN2 Label_5_0198CED8
// 023   ----------------------------------------
 BYTE   PATT
  POIN2 Label_5_0198CED8
// 024   ----------------------------------------
 BYTE   N14  Bn1  v127
 BYTE   W16
 BYTE   N07
 BYTE   W08
 BYTE   Bn2  v112
 BYTE   W08
 BYTE   N14  Bn1  v127
 BYTE   W16
 BYTE   N14
 BYTE   W16
 BYTE   N07
 BYTE   W08
 BYTE   Bn2  v112
 BYTE   W08
 BYTE   N14  Bn1  v127
 BYTE   W16
// 025   ----------------------------------------
 BYTE   PATT
  POIN2 Label_5_0198CF7B
// 026   ----------------------------------------
 BYTE   PATT
  POIN2 Label_5_0198CF94
// 027   ----------------------------------------
 BYTE   PATT
  POIN2 Label_5_0198CF47
// 028   ----------------------------------------
 BYTE   PATT
  POIN2 Label_5_0198CF60
// 029   ----------------------------------------
 BYTE   PATT
  POIN2 Label_5_0198CF7B
// 030   ----------------------------------------
 BYTE   N14  Ds2  v127
 BYTE   W16
 BYTE   N07
 BYTE   W08
 BYTE   Ds3  v112
 BYTE   W08
 BYTE   N14  Ds2  v127
 BYTE   W16
 BYTE   En1
 BYTE   W16
 BYTE   N07
 BYTE   W08
 BYTE   En2  v112
 BYTE   W08
 BYTE   N14  En1  v127
 BYTE   W16
// 031   ----------------------------------------
 BYTE   PATT
  POIN2 Label_5_0198CF47
// 032   ----------------------------------------
 BYTE   PATT
  POIN2 Label_5_0198CFB0
// 033   ----------------------------------------
 BYTE   PATT
  POIN2 Label_5_0198CED8
// 034   ----------------------------------------
 BYTE   PATT
  POIN2 Label_5_0198CED8
// 035   ----------------------------------------
 BYTE   PATT
  POIN2 Label_5_0198CED8
// 036   ----------------------------------------
 BYTE   PATT
  POIN2 Label_5_0198CED8
// 037   ----------------------------------------
 BYTE   PATT
  POIN2 Label_5_0198CED8
// 038   ----------------------------------------
 BYTE   PATT
  POIN2 Label_5_0198CED8
// 039   ----------------------------------------
 BYTE   PATT
  POIN2 Label_5_0198CED8
// 040   ----------------------------------------
 BYTE   PATT
  POIN2 Label_5_0198CED8
// 041   ----------------------------------------
Label_5_0198D069:
 BYTE   N14  Fs1  v127
 BYTE   W16
 BYTE   N07
 BYTE   W08
 BYTE   Fs2  v112
 BYTE   W08
 BYTE   N14  Fs1  v127
 BYTE   W16
 BYTE   N14
 BYTE   W16
 BYTE   N07
 BYTE   W08
 BYTE   Fs2  v112
 BYTE   W08
 BYTE   N14  Fs1  v127
 BYTE   W16
 BYTE   PEND 
// 042   ----------------------------------------
 BYTE   PATT
  POIN2 Label_5_0198D069
// 043   ----------------------------------------
 BYTE   PATT
  POIN2 Label_5_0198D069
// 044   ----------------------------------------
 BYTE   PATT
  POIN2 Label_5_0198D069
// 045   ----------------------------------------
 BYTE   PATT
  POIN2 Label_5_0198D069
// 046   ----------------------------------------
 BYTE   PATT
  POIN2 Label_5_0198D069
// 047   ----------------------------------------
 BYTE   PATT
  POIN2 Label_5_0198D069
// 048   ----------------------------------------
 BYTE   PATT
  POIN2 Label_5_0198D069
// 049   ----------------------------------------
Label_5_0198D0A5:
 BYTE   N14  An1  v127
 BYTE   W16
 BYTE   N07
 BYTE   W08
 BYTE   An2  v112
 BYTE   W08
 BYTE   N14  An1  v127
 BYTE   W16
 BYTE   N14
 BYTE   W16
 BYTE   N07
 BYTE   W08
 BYTE   An2  v112
 BYTE   W08
 BYTE   N14  An1  v127
 BYTE   W16
 BYTE   PEND 
// 050   ----------------------------------------
 BYTE   PATT
  POIN2 Label_5_0198D0A5
// 051   ----------------------------------------
 BYTE   PATT
  POIN2 Label_5_0198D0A5
// 052   ----------------------------------------
 BYTE   PATT
  POIN2 Label_5_0198D0A5
// 053   ----------------------------------------
 BYTE   PATT
  POIN2 Label_5_0198D0A5
// 054   ----------------------------------------
 BYTE   PATT
  POIN2 Label_5_0198D0A5
// 055   ----------------------------------------
 BYTE   PATT
  POIN2 Label_5_0198D0A5
// 056   ----------------------------------------
 BYTE   PATT
  POIN2 Label_5_0198D0A5
// 057   ----------------------------------------
 BYTE   N92  An1  v127
 BYTE   N92  En2
 BYTE   W96
// 058   ----------------------------------------
 BYTE   Fn1
 BYTE   N92  Cn2
 BYTE   W96
// 059   ----------------------------------------
 BYTE   Gn1
 BYTE   N92  Dn2
 BYTE   W96
// 060   ----------------------------------------
 BYTE   Gn1
 BYTE   N92  Dn2
 BYTE   W96
// 061   ----------------------------------------
 BYTE   An1
 BYTE   N92  En2
 BYTE   W96
// 062   ----------------------------------------
 BYTE   Fn1
 BYTE   N92  Cn2
 BYTE   W96
// 063   ----------------------------------------
 BYTE   Gn1
 BYTE   N92  Dn2
 BYTE   W96
// 064   ----------------------------------------
 BYTE   Gn1
 BYTE   N92  Dn2
 BYTE   W96
// 065   ----------------------------------------
 BYTE   PATT
  POIN2 Label_5_0198D0A5
// 066   ----------------------------------------
Label_5_0198D108:
 BYTE   N14  Fn1  v127
 BYTE   W16
 BYTE   N07
 BYTE   W08
 BYTE   Fn2  v112
 BYTE   W08
 BYTE   N14  Fn1  v127
 BYTE   W16
 BYTE   N14
 BYTE   W16
 BYTE   N07
 BYTE   W08
 BYTE   Fn2  v112
 BYTE   W08
 BYTE   N14  Fn1  v127
 BYTE   W16
 BYTE   PEND 
// 067   ----------------------------------------
Label_5_0198D121:
 BYTE   N14  Gn1  v127
 BYTE   W16
 BYTE   N07
 BYTE   W08
 BYTE   Gn2  v112
 BYTE   W08
 BYTE   N14  Gn1  v127
 BYTE   W16
 BYTE   N14
 BYTE   W16
 BYTE   N07
 BYTE   W08
 BYTE   Gn2  v112
 BYTE   W08
 BYTE   N14  Gn1  v127
 BYTE   W16
 BYTE   PEND 
// 068   ----------------------------------------
 BYTE   PATT
  POIN2 Label_5_0198D121
// 069   ----------------------------------------
 BYTE   PATT
  POIN2 Label_5_0198D0A5
// 070   ----------------------------------------
 BYTE   PATT
  POIN2 Label_5_0198D108
// 071   ----------------------------------------
 BYTE   PATT
  POIN2 Label_5_0198D121
// 072   ----------------------------------------
 BYTE   PATT
  POIN2 Label_5_0198D121
// 073   ----------------------------------------
Label_5_0198D153:
 BYTE   N14  Cn2  v127
 BYTE   W16
 BYTE   N14
 BYTE   W16
 BYTE   N14
 BYTE   W16
 BYTE   N14
 BYTE   W16
 BYTE   N14
 BYTE   W16
 BYTE   N14
 BYTE   W16
 BYTE   PEND 
// 074   ----------------------------------------
 BYTE   PATT
  POIN2 Label_5_0198D153
// 075   ----------------------------------------
 BYTE   PATT
  POIN2 Label_5_0198D153
// 076   ----------------------------------------
 BYTE   PATT
  POIN2 Label_5_0198D153
// 077   ----------------------------------------
 BYTE   PATT
  POIN2 Label_5_0198D153
// 078   ----------------------------------------
 BYTE   PATT
  POIN2 Label_5_0198D153
// 079   ----------------------------------------
 BYTE   PATT
  POIN2 Label_5_0198D153
// 080   ----------------------------------------
 BYTE   PATT
  POIN2 Label_5_0198D153
// 081   ----------------------------------------
 BYTE   PATT
  POIN2 Label_5_0198CF47
// 082   ----------------------------------------
 BYTE   PATT
  POIN2 Label_5_0198CF47
// 083   ----------------------------------------
 BYTE   PATT
  POIN2 Label_5_0198CF47
// 084   ----------------------------------------
 BYTE   PATT
  POIN2 Label_5_0198CF47
// 085   ----------------------------------------
 BYTE   PATT
  POIN2 Label_5_0198CF47
// 086   ----------------------------------------
 BYTE   PATT
  POIN2 Label_5_0198CF47
// 087   ----------------------------------------
 BYTE   PATT
  POIN2 Label_5_0198CF47
// 088   ----------------------------------------
 BYTE   PATT
  POIN2 Label_5_0198CF47
// 089   ----------------------------------------
 BYTE   N92  An1  v127
 BYTE   N92  En2
 BYTE   W96
// 090   ----------------------------------------
 BYTE   An1
 BYTE   N92  En2
 BYTE   W96
// 091   ----------------------------------------
 BYTE   An1
 BYTE   N92  En2
 BYTE   W96
// 092   ----------------------------------------
 BYTE   Bn1
 BYTE   N92  En2
 BYTE   W96
// 093   ----------------------------------------
 BYTE   An1
 BYTE   N92  En2
 BYTE   W96
// 094   ----------------------------------------
 BYTE   Gn1
 BYTE   N92  Dn2
 BYTE   W96
// 095   ----------------------------------------
 BYTE   Cn2
 BYTE   N92  Fn2
 BYTE   W96
// 096   ----------------------------------------
 BYTE   Bn1
 BYTE   N92  En2
 BYTE   W80
 BYTE   W01
 BYTE   GoTo
  POIN2 Label_5_0198CEB6
// 097   ----------------------------------------
 BYTE   W15
 BYTE   W01
 BYTE   FINE

//**************** Track 7 (Midi-Chn.6) ****************//

song0104_007:
// 000   ----------------------------------------
 BYTE   KEYSH   song0104_key+0
Label_6_0198D1DA:
 BYTE   VOICE   80
 BYTE   VOL   16*song0104_mvl/mxv
 BYTE   PAN   c_v+0
 BYTE   BEND   c_v+0
 BYTE   W96
// 001   ----------------------------------------
Label_6_0198D1E3:
 BYTE   N07  En3  v127
 BYTE   W08
 BYTE   Gn3
 BYTE   W08
 BYTE   Bn3
 BYTE   W08
 BYTE   En4
 BYTE   W08
 BYTE   Gn4
 BYTE   W08
 BYTE   Bn4
 BYTE   W08
 BYTE   En5
 BYTE   W08
 BYTE   Bn4
 BYTE   W08
 BYTE   Gn4
 BYTE   W08
 BYTE   En4
 BYTE   W08
 BYTE   Bn3
 BYTE   W08
 BYTE   Gn3
 BYTE   W08
 BYTE   PEND 
// 002   ----------------------------------------
Label_6_0198D1FE:
 BYTE   N07  Dn3  v127
 BYTE   W08
 BYTE   Fs3
 BYTE   W08
 BYTE   An3
 BYTE   W08
 BYTE   Dn4
 BYTE   W08
 BYTE   Fs4
 BYTE   W08
 BYTE   An4
 BYTE   W08
 BYTE   Dn5
 BYTE   W08
 BYTE   An4
 BYTE   W08
 BYTE   Fs4
 BYTE   W08
 BYTE   Dn4
 BYTE   W08
 BYTE   An3
 BYTE   W08
 BYTE   Fs3
 BYTE   W08
 BYTE   PEND 
// 003   ----------------------------------------
 BYTE   PATT
  POIN2 Label_6_0198D1E3
// 004   ----------------------------------------
Label_6_0198D21E:
 BYTE   N07  Ds3  v127
 BYTE   W08
 BYTE   Fs3
 BYTE   W08
 BYTE   Bn3
 BYTE   W08
 BYTE   Ds4
 BYTE   W08
 BYTE   Fs4
 BYTE   W08
 BYTE   Bn4
 BYTE   W08
 BYTE   Ds5
 BYTE   W08
 BYTE   Bn4
 BYTE   W08
 BYTE   Fs4
 BYTE   W08
 BYTE   Ds4
 BYTE   W08
 BYTE   Bn3
 BYTE   W08
 BYTE   Fs3
 BYTE   W08
 BYTE   PEND 
// 005   ----------------------------------------
Label_6_0198D239:
 BYTE   N07  En3  v127
 BYTE   W08
 BYTE   Gn3
 BYTE   W08
 BYTE   Bn3
 BYTE   W08
 BYTE   Gn3
 BYTE   W08
 BYTE   Bn3
 BYTE   W08
 BYTE   En4
 BYTE   W08
 BYTE   Bn3
 BYTE   W08
 BYTE   En4
 BYTE   W08
 BYTE   Gn4
 BYTE   W08
 BYTE   Bn4
 BYTE   W08
 BYTE   En5
 BYTE   W08
 BYTE   Gn5
 BYTE   W08
 BYTE   PEND 
// 006   ----------------------------------------
Label_6_0198D254:
 BYTE   N07  Dn3  v127
 BYTE   W08
 BYTE   Fs3
 BYTE   W08
 BYTE   An3
 BYTE   W08
 BYTE   Fs3
 BYTE   W08
 BYTE   An3
 BYTE   W08
 BYTE   Dn4
 BYTE   W08
 BYTE   An3
 BYTE   W08
 BYTE   Dn4
 BYTE   W08
 BYTE   Fs4
 BYTE   W08
 BYTE   An4
 BYTE   W08
 BYTE   Dn5
 BYTE   W08
 BYTE   Fs5
 BYTE   W08
 BYTE   PEND 
// 007   ----------------------------------------
Label_6_0198D26F:
 BYTE   N07  Cn3  v127
 BYTE   W08
 BYTE   En3
 BYTE   W08
 BYTE   Gn3
 BYTE   W08
 BYTE   Cn4
 BYTE   W08
 BYTE   En4
 BYTE   W08
 BYTE   Gn4
 BYTE   W08
 BYTE   Cn5
 BYTE   W08
 BYTE   En5
 BYTE   W08
 BYTE   Gn5
 BYTE   W08
 BYTE   En5
 BYTE   W08
 BYTE   Gn5
 BYTE   W08
 BYTE   Cn5
 BYTE   W08
 BYTE   PEND 
// 008   ----------------------------------------
Label_6_0198D28A:
 BYTE   N07  Ds3  v127
 BYTE   W08
 BYTE   Fs3
 BYTE   W08
 BYTE   Cn4
 BYTE   W08
 BYTE   Bn3
 BYTE   W08
 BYTE   Ds4
 BYTE   W08
 BYTE   Fs4
 BYTE   W08
 BYTE   Cn5
 BYTE   W08
 BYTE   Bn4
 BYTE   W08
 BYTE   Ds5
 BYTE   W08
 BYTE   Fs5
 BYTE   W08
 BYTE   Bn5
 BYTE   W08
 BYTE   Bn4
 BYTE   W08
 BYTE   PEND 
// 009   ----------------------------------------
Label_6_0198D2A5:
 BYTE   N07  Cn4  v127
 BYTE   W08
 BYTE   En4
 BYTE   W08
 BYTE   Gn4
 BYTE   W08
 BYTE   Cn5
 BYTE   W08
 BYTE   Gn4
 BYTE   W08
 BYTE   En4
 BYTE   W08
 BYTE   Dn4
 BYTE   W08
 BYTE   Fs4
 BYTE   W08
 BYTE   An4
 BYTE   W08
 BYTE   Dn5
 BYTE   W08
 BYTE   An4
 BYTE   W08
 BYTE   Fs4
 BYTE   W08
 BYTE   PEND 
// 010   ----------------------------------------
Label_6_0198D2C0:
 BYTE   N07  Ds4  v127
 BYTE   W08
 BYTE   Fs4
 BYTE   W08
 BYTE   Bn4
 BYTE   W08
 BYTE   Ds5
 BYTE   W08
 BYTE   Bn4
 BYTE   W08
 BYTE   Fs4
 BYTE   W08
 BYTE   En4
 BYTE   W08
 BYTE   Gn4
 BYTE   W08
 BYTE   Bn4
 BYTE   W08
 BYTE   En5
 BYTE   W08
 BYTE   Bn4
 BYTE   W08
 BYTE   Gn4
 BYTE   W08
 BYTE   PEND 
// 011   ----------------------------------------
Label_6_0198D2DB:
 BYTE   N07  Cn4  v127
 BYTE   W08
 BYTE   En4
 BYTE   W08
 BYTE   Gn4
 BYTE   W08
 BYTE   En4
 BYTE   W08
 BYTE   Gn4
 BYTE   W08
 BYTE   Cn5
 BYTE   W08
 BYTE   En4
 BYTE   W08
 BYTE   Gn4
 BYTE   W08
 BYTE   Cn5
 BYTE   W08
 BYTE   Gn4
 BYTE   W08
 BYTE   Cn5
 BYTE   W08
 BYTE   En5
 BYTE   W08
 BYTE   PEND 
// 012   ----------------------------------------
Label_6_0198D2F6:
 BYTE   N07  Bn3  v127
 BYTE   W08
 BYTE   Ds4
 BYTE   W08
 BYTE   Fs4
 BYTE   W08
 BYTE   Cn5
 BYTE   W08
 BYTE   Bn4
 BYTE   W08
 BYTE   Fs4
 BYTE   W08
 BYTE   Ds4
 BYTE   W08
 BYTE   Bn3
 BYTE   W08
 BYTE   Ds4
 BYTE   W08
 BYTE   Fs4
 BYTE   W08
 BYTE   Bn4
 BYTE   W08
 BYTE   Fs4
 BYTE   W08
 BYTE   PEND 
// 013   ----------------------------------------
 BYTE   PATT
  POIN2 Label_6_0198D2A5
// 014   ----------------------------------------
 BYTE   PATT
  POIN2 Label_6_0198D2C0
// 015   ----------------------------------------
 BYTE   PATT
  POIN2 Label_6_0198D2DB
// 016   ----------------------------------------
Label_6_0198D320:
 BYTE   N07  Dn4  v127
 BYTE   W08
 BYTE   Fs4
 BYTE   W08
 BYTE   An4
 BYTE   W08
 BYTE   Fs4
 BYTE   W08
 BYTE   An4
 BYTE   W08
 BYTE   Dn5
 BYTE   W08
 BYTE   Fs5
 BYTE   W08
 BYTE   Dn5
 BYTE   W08
 BYTE   An4
 BYTE   W08
 BYTE   Fs4
 BYTE   W08
 BYTE   Dn4
 BYTE   W08
 BYTE   An3
 BYTE   W08
 BYTE   PEND 
// 017   ----------------------------------------
 BYTE   PATT
  POIN2 Label_6_0198D1E3
// 018   ----------------------------------------
 BYTE   PATT
  POIN2 Label_6_0198D1FE
// 019   ----------------------------------------
 BYTE   PATT
  POIN2 Label_6_0198D1E3
// 020   ----------------------------------------
 BYTE   PATT
  POIN2 Label_6_0198D21E
// 021   ----------------------------------------
 BYTE   PATT
  POIN2 Label_6_0198D239
// 022   ----------------------------------------
 BYTE   PATT
  POIN2 Label_6_0198D254
// 023   ----------------------------------------
 BYTE   PATT
  POIN2 Label_6_0198D26F
// 024   ----------------------------------------
 BYTE   PATT
  POIN2 Label_6_0198D28A
// 025   ----------------------------------------
 BYTE   PATT
  POIN2 Label_6_0198D2A5
// 026   ----------------------------------------
 BYTE   PATT
  POIN2 Label_6_0198D2C0
// 027   ----------------------------------------
 BYTE   PATT
  POIN2 Label_6_0198D2DB
// 028   ----------------------------------------
 BYTE   PATT
  POIN2 Label_6_0198D2F6
// 029   ----------------------------------------
 BYTE   PATT
  POIN2 Label_6_0198D2A5
// 030   ----------------------------------------
 BYTE   PATT
  POIN2 Label_6_0198D2C0
// 031   ----------------------------------------
 BYTE   PATT
  POIN2 Label_6_0198D2DB
// 032   ----------------------------------------
 BYTE   PATT
  POIN2 Label_6_0198D320
// 033   ----------------------------------------
 BYTE   N07  En4  v127
 BYTE   W08
 BYTE   Gn4
 BYTE   W08
 BYTE   Bn4
 BYTE   W08
 BYTE   En5
 BYTE   W08
 BYTE   Bn4
 BYTE   W08
 BYTE   Gn4
 BYTE   W08
 BYTE   En4
 BYTE   W08
 BYTE   Gn4
 BYTE   W08
 BYTE   Bn4
 BYTE   W08
 BYTE   En5
 BYTE   W08
 BYTE   Bn4
 BYTE   W08
 BYTE   Gn4
 BYTE   W08
// 034   ----------------------------------------
Label_6_0198D3A5:
 BYTE   N07  Dn4  v127
 BYTE   W08
 BYTE   Fs4
 BYTE   W08
 BYTE   An4
 BYTE   W08
 BYTE   Dn5
 BYTE   W08
 BYTE   An4
 BYTE   W08
 BYTE   Fs4
 BYTE   W08
 BYTE   Dn4
 BYTE   W08
 BYTE   Fs4
 BYTE   W08
 BYTE   An4
 BYTE   W08
 BYTE   Dn5
 BYTE   W08
 BYTE   An4
 BYTE   W08
 BYTE   Fs4
 BYTE   W08
 BYTE   PEND 
// 035   ----------------------------------------
Label_6_0198D3C0:
 BYTE   N07  Fn4  v127
 BYTE   W08
 BYTE   An4
 BYTE   W08
 BYTE   Cn5
 BYTE   W08
 BYTE   Fn5
 BYTE   W08
 BYTE   Cn5
 BYTE   W08
 BYTE   An4
 BYTE   W08
 BYTE   Fn4
 BYTE   W08
 BYTE   An4
 BYTE   W08
 BYTE   Cn5
 BYTE   W08
 BYTE   Fn5
 BYTE   W08
 BYTE   Cn5
 BYTE   W08
 BYTE   An4
 BYTE   W08
 BYTE   PEND 
// 036   ----------------------------------------
 BYTE   Dn4
 BYTE   W08
 BYTE   Fn4
 BYTE   W08
 BYTE   Gs4
 BYTE   W08
 BYTE   Bn4
 BYTE   W08
 BYTE   Gs4
 BYTE   W08
 BYTE   Fn4
 BYTE   W08
 BYTE   Dn5
 BYTE   W08
 BYTE   Bn4
 BYTE   W08
 BYTE   Gs4
 BYTE   W08
 BYTE   Bn4
 BYTE   W08
 BYTE   Gs4
 BYTE   W08
 BYTE   Fn4
 BYTE   W08
// 037   ----------------------------------------
 BYTE   En4
 BYTE   W08
 BYTE   Gn4
 BYTE   W08
 BYTE   Bn4
 BYTE   W08
 BYTE   Dn5
 BYTE   W08
 BYTE   Bn4
 BYTE   W08
 BYTE   Gn4
 BYTE   W08
 BYTE   En4
 BYTE   W08
 BYTE   Gn4
 BYTE   W08
 BYTE   Bn4
 BYTE   W08
 BYTE   Dn5
 BYTE   W08
 BYTE   Bn4
 BYTE   W08
 BYTE   Gn4
 BYTE   W08
// 038   ----------------------------------------
 BYTE   PATT
  POIN2 Label_6_0198D3A5
// 039   ----------------------------------------
 BYTE   PATT
  POIN2 Label_6_0198D3C0
// 040   ----------------------------------------
 BYTE   N07  Dn5  v127
 BYTE   W08
 BYTE   Gs4
 BYTE   W08
 BYTE   Bn4
 BYTE   W08
 BYTE   Fn4
 BYTE   W08
 BYTE   Gs4
 BYTE   W08
 BYTE   Dn4
 BYTE   W08
 BYTE   Fn4
 BYTE   W08
 BYTE   Bn3
 BYTE   W08
 BYTE   Dn4
 BYTE   W08
 BYTE   Gs3
 BYTE   W08
 BYTE   Bn3
 BYTE   W08
 BYTE   Fn3
 BYTE   W08
// 041   ----------------------------------------
Label_6_0198D42F:
 BYTE   N04  Fs4  v127
 BYTE   W08
 BYTE   N04
 BYTE   W16
 BYTE   N04
 BYTE   W08
 BYTE   N04
 BYTE   W16
 BYTE   N04
 BYTE   W16
 BYTE   N04
 BYTE   W16
 BYTE   N04
 BYTE   W16
 BYTE   PEND 
// 042   ----------------------------------------
 BYTE   PATT
  POIN2 Label_6_0198D42F
// 043   ----------------------------------------
 BYTE   PATT
  POIN2 Label_6_0198D42F
// 044   ----------------------------------------
 BYTE   PATT
  POIN2 Label_6_0198D42F
// 045   ----------------------------------------
 BYTE   PATT
  POIN2 Label_6_0198D42F
// 046   ----------------------------------------
 BYTE   PATT
  POIN2 Label_6_0198D42F
// 047   ----------------------------------------
 BYTE   PATT
  POIN2 Label_6_0198D42F
// 048   ----------------------------------------
 BYTE   PATT
  POIN2 Label_6_0198D42F
// 049   ----------------------------------------
Label_6_0198D463:
 BYTE   N14  An3  v127
 BYTE   N14  Cn4
 BYTE   W16
 BYTE   Bn3
 BYTE   N14  Dn4
 BYTE   W16
 BYTE   Cn4
 BYTE   N14  En4
 BYTE   W16
 BYTE   Bn3
 BYTE   N14  Dn4
 BYTE   W16
 BYTE   An3
 BYTE   N14  Cn4
 BYTE   W16
 BYTE   Gn3
 BYTE   N14  Bn3
 BYTE   W16
 BYTE   PEND 
// 050   ----------------------------------------
Label_6_0198D47E:
 BYTE   N14  Cn4  v127
 BYTE   N14  En4
 BYTE   W16
 BYTE   Bn3
 BYTE   N14  Dn4
 BYTE   W16
 BYTE   An3
 BYTE   N14  Cn4
 BYTE   W16
 BYTE   Gs3
 BYTE   N14  Bn3
 BYTE   W16
 BYTE   En3
 BYTE   N14  Gs3
 BYTE   W16
 BYTE   Bn2
 BYTE   N14  En3
 BYTE   W16
 BYTE   PEND 
// 051   ----------------------------------------
 BYTE   N14
 BYTE   N14  An3
 BYTE   W16
 BYTE   Gn3
 BYTE   N14  Bn3
 BYTE   W16
 BYTE   An3
 BYTE   N14  Cn4
 BYTE   W16
 BYTE   Gn3
 BYTE   N14  Bn3
 BYTE   W16
 BYTE   An3
 BYTE   N14  Cn4
 BYTE   W16
 BYTE   Bn3
 BYTE   N14  Dn4
 BYTE   W16
// 052   ----------------------------------------
 BYTE   Bn3
 BYTE   N14  Dn4
 BYTE   W16
 BYTE   Cn4
 BYTE   N14  En4
 BYTE   W16
 BYTE   Dn4
 BYTE   N14  Fn4
 BYTE   W16
 BYTE   Cn4
 BYTE   N14  En4
 BYTE   W16
 BYTE   Bn3
 BYTE   N14  Dn4
 BYTE   W16
 BYTE   Cn4
 BYTE   N14  En4
 BYTE   W16
// 053   ----------------------------------------
 BYTE   PATT
  POIN2 Label_6_0198D463
// 054   ----------------------------------------
 BYTE   PATT
  POIN2 Label_6_0198D47E
// 055   ----------------------------------------
 BYTE   N14  Fn2  v127
 BYTE   N14  An2
 BYTE   W16
 BYTE   N14
 BYTE   N14  Cn3
 BYTE   W16
 BYTE   N14
 BYTE   N14  Fn3
 BYTE   W16
 BYTE   N14
 BYTE   N14  An3
 BYTE   W16
 BYTE   N14
 BYTE   N14  Cn4
 BYTE   W16
 BYTE   N14
 BYTE   N14  Fn4
 BYTE   W16
// 056   ----------------------------------------
 BYTE   Gn2
 BYTE   N14  Bn2
 BYTE   W16
 BYTE   N14
 BYTE   N14  Dn3
 BYTE   W16
 BYTE   N14
 BYTE   N14  Gn3
 BYTE   W16
 BYTE   N14
 BYTE   N14  Bn3
 BYTE   W16
 BYTE   N14
 BYTE   N14  Dn4
 BYTE   W16
 BYTE   N14
 BYTE   N14  Gn4
 BYTE   W16
// 057   ----------------------------------------
Label_6_0198D505:
 BYTE   N07  An3  v127
 BYTE   W08
 BYTE   Cn4
 BYTE   W08
 BYTE   En4
 BYTE   W08
 BYTE   An4
 BYTE   W08
 BYTE   Cn5
 BYTE   W08
 BYTE   En5
 BYTE   W08
 BYTE   An5
 BYTE   W08
 BYTE   En5
 BYTE   W08
 BYTE   Cn5
 BYTE   W08
 BYTE   An4
 BYTE   W08
 BYTE   En4
 BYTE   W08
 BYTE   Cn4
 BYTE   W08
 BYTE   PEND 
// 058   ----------------------------------------
Label_6_0198D520:
 BYTE   N07  Fn3  v127
 BYTE   W08
 BYTE   An3
 BYTE   W08
 BYTE   Cn4
 BYTE   W08
 BYTE   Fn4
 BYTE   W08
 BYTE   An4
 BYTE   W08
 BYTE   Cn5
 BYTE   W08
 BYTE   Fn5
 BYTE   W08
 BYTE   Cn5
 BYTE   W08
 BYTE   An4
 BYTE   W08
 BYTE   Fn4
 BYTE   W08
 BYTE   Cn4
 BYTE   W08
 BYTE   An3
 BYTE   W08
 BYTE   PEND 
// 059   ----------------------------------------
Label_6_0198D53B:
 BYTE   N07  Gn3  v127
 BYTE   W08
 BYTE   Cn4
 BYTE   W08
 BYTE   Dn4
 BYTE   W08
 BYTE   Gn4
 BYTE   W08
 BYTE   Cn5
 BYTE   W08
 BYTE   Dn5
 BYTE   W08
 BYTE   Gn5
 BYTE   W08
 BYTE   Dn5
 BYTE   W08
 BYTE   Cn5
 BYTE   W08
 BYTE   Gn4
 BYTE   W08
 BYTE   Dn4
 BYTE   W08
 BYTE   Cn4
 BYTE   W08
 BYTE   PEND 
// 060   ----------------------------------------
Label_6_0198D556:
 BYTE   N07  Gn3  v127
 BYTE   W08
 BYTE   Bn3
 BYTE   W08
 BYTE   Dn4
 BYTE   W08
 BYTE   Gn4
 BYTE   W08
 BYTE   Bn4
 BYTE   W08
 BYTE   Dn5
 BYTE   W08
 BYTE   Gn5
 BYTE   W08
 BYTE   Dn5
 BYTE   W08
 BYTE   Bn4
 BYTE   W08
 BYTE   Gn4
 BYTE   W08
 BYTE   Dn4
 BYTE   W08
 BYTE   Bn3
 BYTE   W08
 BYTE   PEND 
// 061   ----------------------------------------
 BYTE   PATT
  POIN2 Label_6_0198D505
// 062   ----------------------------------------
 BYTE   PATT
  POIN2 Label_6_0198D520
// 063   ----------------------------------------
 BYTE   PATT
  POIN2 Label_6_0198D53B
// 064   ----------------------------------------
 BYTE   PATT
  POIN2 Label_6_0198D556
// 065   ----------------------------------------
 BYTE   PATT
  POIN2 Label_6_0198D505
// 066   ----------------------------------------
 BYTE   PATT
  POIN2 Label_6_0198D520
// 067   ----------------------------------------
 BYTE   PATT
  POIN2 Label_6_0198D53B
// 068   ----------------------------------------
 BYTE   PATT
  POIN2 Label_6_0198D556
// 069   ----------------------------------------
 BYTE   PATT
  POIN2 Label_6_0198D505
// 070   ----------------------------------------
 BYTE   PATT
  POIN2 Label_6_0198D520
// 071   ----------------------------------------
 BYTE   PATT
  POIN2 Label_6_0198D53B
// 072   ----------------------------------------
 BYTE   PATT
  POIN2 Label_6_0198D556
// 073   ----------------------------------------
Label_6_0198D5AD:
 BYTE   N03  Cn5  v127
 BYTE   W08
 BYTE   Cn4
 BYTE   W08
 BYTE   N03
 BYTE   W08
 BYTE   Cn5
 BYTE   W08
 BYTE   Cn4
 BYTE   W08
 BYTE   N03
 BYTE   W08
 BYTE   Cn5
 BYTE   W08
 BYTE   Cn4
 BYTE   W08
 BYTE   N03
 BYTE   W08
 BYTE   Cn5
 BYTE   W08
 BYTE   Cn4
 BYTE   W08
 BYTE   N03
 BYTE   W08
 BYTE   PEND 
// 074   ----------------------------------------
 BYTE   PATT
  POIN2 Label_6_0198D5AD
// 075   ----------------------------------------
 BYTE   PATT
  POIN2 Label_6_0198D5AD
// 076   ----------------------------------------
 BYTE   PATT
  POIN2 Label_6_0198D5AD
// 077   ----------------------------------------
 BYTE   PATT
  POIN2 Label_6_0198D5AD
// 078   ----------------------------------------
 BYTE   PATT
  POIN2 Label_6_0198D5AD
// 079   ----------------------------------------
 BYTE   PATT
  POIN2 Label_6_0198D5AD
// 080   ----------------------------------------
 BYTE   PATT
  POIN2 Label_6_0198D5AD
// 081   ----------------------------------------
 BYTE   PATT
  POIN2 Label_6_0198D5AD
// 082   ----------------------------------------
 BYTE   PATT
  POIN2 Label_6_0198D5AD
// 083   ----------------------------------------
 BYTE   PATT
  POIN2 Label_6_0198D5AD
// 084   ----------------------------------------
 BYTE   PATT
  POIN2 Label_6_0198D5AD
// 085   ----------------------------------------
 BYTE   PATT
  POIN2 Label_6_0198D5AD
// 086   ----------------------------------------
 BYTE   PATT
  POIN2 Label_6_0198D5AD
// 087   ----------------------------------------
 BYTE   PATT
  POIN2 Label_6_0198D5AD
// 088   ----------------------------------------
 BYTE   PATT
  POIN2 Label_6_0198D5AD
// 089   ----------------------------------------
 BYTE   W96
// 090   ----------------------------------------
 BYTE   W96
// 091   ----------------------------------------
 BYTE   W96
// 092   ----------------------------------------
 BYTE   W96
// 093   ----------------------------------------
 BYTE   W96
// 094   ----------------------------------------
 BYTE   W96
// 095   ----------------------------------------
 BYTE   W96
// 096   ----------------------------------------
 BYTE   W80
 BYTE   W01
 BYTE   GoTo
  POIN2 Label_6_0198D1DA
// 097   ----------------------------------------
 BYTE   W15
 BYTE   W01
 BYTE   FINE

//**************** Track 8 (Midi-Chn.7) ****************//

song0104_008:
// 000   ----------------------------------------
 BYTE   KEYSH   song0104_key+0
Label_7_0198D626:
 BYTE   VOICE   124
 BYTE   VOL   36*song0104_mvl/mxv
 BYTE   PAN   c_v+0
 BYTE   BEND   c_v+0
 BYTE   N04  Bn1  v127
 BYTE   W08
 BYTE   N04
 BYTE   W08
 BYTE   N04
 BYTE   W08
 BYTE   An1
 BYTE   W08
 BYTE   N04
 BYTE   W08
 BYTE   N04
 BYTE   W08
 BYTE   Fn1
 BYTE   N04  Cs2  v020
 BYTE   W03
 BYTE   En2  v040
 BYTE   W03
 BYTE   Cs2  v032
 BYTE   W02
 BYTE   Fn1  v127
 BYTE   W01
 BYTE   En2  v040
 BYTE   W03
 BYTE   Cs2  v036
 BYTE   W03
 BYTE   En2  v048
 BYTE   W01
 BYTE   Fn1  v127
 BYTE   W02
 BYTE   Cs2  v044
 BYTE   W03
 BYTE   En2  v056
 BYTE   W02
 BYTE   N07  Dn1  v127
 BYTE   W01
 BYTE   N04  Cs2  v052
 BYTE   W03
 BYTE   En2  v068
 BYTE   W03
 BYTE   Cs2
 BYTE   W01
 BYTE   N07  Dn1  v127
 BYTE   W02
 BYTE   N04  En2  v084
 BYTE   W03
 BYTE   Cs2
 BYTE   W03
 BYTE   N19  Dn1  v127
 BYTE   N04  En2  v100
 BYTE   W03
 BYTE   Cs2  v104
 BYTE   W03
 BYTE   En2  v120
 BYTE   W03
// 001   ----------------------------------------
Label_7_0198D680:
 BYTE   N14  Cn1  v127
 BYTE   N92  Cs2  v120
 BYTE   W16
 BYTE   N14  Cn1  v127
 BYTE   W07
 BYTE   N21  Dn1
 BYTE   W01
 BYTE   N22  As1  v100
 BYTE   W08
 BYTE   N14  Cn1  v127
 BYTE   W16
 BYTE   N14
 BYTE   N22  As1  v100
 BYTE   W16
 BYTE   N14  Cn1  v127
 BYTE   W07
 BYTE   N21  Dn1
 BYTE   W01
 BYTE   N22  As1  v100
 BYTE   W08
 BYTE   N14  Cn1  v127
 BYTE   W16
 BYTE   PEND 
// 002   ----------------------------------------
Label_7_0198D6AB:
 BYTE   N14  Cn1  v127
 BYTE   N22  As1  v100
 BYTE   W16
 BYTE   N14  Cn1  v127
 BYTE   W08
 BYTE   N21  Dn1
 BYTE   N22  As1  v100
 BYTE   W08
 BYTE   N14  Cn1  v127
 BYTE   W16
 BYTE   N14
 BYTE   N22  As1  v100
 BYTE   W16
 BYTE   N14  Cn1  v127
 BYTE   W08
 BYTE   N21  Dn1
 BYTE   N22  As1  v100
 BYTE   W08
 BYTE   N14  Cn1  v127
 BYTE   W16
 BYTE   PEND 
// 003   ----------------------------------------
 BYTE   PATT
  POIN2 Label_7_0198D6AB
// 004   ----------------------------------------
Label_7_0198D6D9:
 BYTE   N14  Cn1  v127
 BYTE   N22  As1  v100
 BYTE   W16
 BYTE   N14  Cn1  v127
 BYTE   W07
 BYTE   N21  Dn1
 BYTE   W01
 BYTE   N22  As1  v100
 BYTE   W08
 BYTE   N14  Cn1  v127
 BYTE   W16
 BYTE   N14
 BYTE   N22  As1  v100
 BYTE   W16
 BYTE   N14  Cn1  v127
 BYTE   W08
 BYTE   N07  Dn1
 BYTE   N22  As1  v100
 BYTE   W07
 BYTE   N07  Dn1  v127
 BYTE   W08
 BYTE   N13
 BYTE   W09
 BYTE   PEND 
// 005   ----------------------------------------
Label_7_0198D705:
 BYTE   N14  Cn1  v127
 BYTE   N92  Cs2  v120
 BYTE   W16
 BYTE   N14  Cn1  v127
 BYTE   W07
 BYTE   N21  Dn1
 BYTE   W01
 BYTE   N22  As1  v100
 BYTE   W08
 BYTE   N14  Cn1  v127
 BYTE   W16
 BYTE   N14
 BYTE   N22  As1  v100
 BYTE   W16
 BYTE   N14  Cn1  v127
 BYTE   W08
 BYTE   N21  Dn1
 BYTE   N22  As1  v100
 BYTE   W08
 BYTE   N14  Cn1  v127
 BYTE   W16
 BYTE   PEND 
// 006   ----------------------------------------
 BYTE   PATT
  POIN2 Label_7_0198D6AB
// 007   ----------------------------------------
Label_7_0198D734:
 BYTE   N14  Cn1  v127
 BYTE   N22  As1  v100
 BYTE   W16
 BYTE   N14  Cn1  v127
 BYTE   W08
 BYTE   N21  Dn1
 BYTE   N22  As1  v100
 BYTE   W08
 BYTE   N14  Cn1  v127
 BYTE   W16
 BYTE   N14
 BYTE   N22  As1  v100
 BYTE   W16
 BYTE   N14  Cn1  v127
 BYTE   W07
 BYTE   N21  Dn1
 BYTE   W01
 BYTE   N22  As1  v100
 BYTE   W08
 BYTE   N14  Cn1  v127
 BYTE   W16
 BYTE   PEND 
// 008   ----------------------------------------
Label_7_0198D75E:
 BYTE   N14  Cn1  v127
 BYTE   N22  As1  v100
 BYTE   W16
 BYTE   N14  Cn1  v127
 BYTE   W07
 BYTE   N21  Dn1
 BYTE   W01
 BYTE   N22  As1  v100
 BYTE   W08
 BYTE   N14  Cn1  v127
 BYTE   W16
 BYTE   N14
 BYTE   N22  As1  v100
 BYTE   W16
 BYTE   N14  Cn1  v127
 BYTE   W08
 BYTE   N22  As1  v100
 BYTE   N04  Bn1  v127
 BYTE   W08
 BYTE   An1
 BYTE   W08
 BYTE   Fn1
 BYTE   W08
 BYTE   PEND 
// 009   ----------------------------------------
Label_7_0198D789:
 BYTE   N14  Cn1  v127
 BYTE   N22  As1  v100
 BYTE   W16
 BYTE   N14  Cn1  v127
 BYTE   W08
 BYTE   N24  Dn1
 BYTE   N44  En2  v100
 BYTE   W24
 BYTE   N14  Cn1  v127
 BYTE   N22  As1  v100
 BYTE   W16
 BYTE   N14  Cn1  v127
 BYTE   W08
 BYTE   N24  Dn1
 BYTE   N44  En2  v100
 BYTE   W24
 BYTE   PEND 
// 010   ----------------------------------------
 BYTE   PATT
  POIN2 Label_7_0198D789
// 011   ----------------------------------------
 BYTE   PATT
  POIN2 Label_7_0198D680
// 012   ----------------------------------------
 BYTE   PATT
  POIN2 Label_7_0198D75E
// 013   ----------------------------------------
Label_7_0198D7BB:
 BYTE   N14  Cn1  v127
 BYTE   N22  As1  v100
 BYTE   W16
 BYTE   N14  Cn1  v127
 BYTE   W08
 BYTE   N24  Dn1
 BYTE   N44  En2  v100
 BYTE   W24
 BYTE   N14  Cn1  v127
 BYTE   N22  As1  v100
 BYTE   W16
 BYTE   N14  Cn1  v127
 BYTE   W07
 BYTE   N24  Dn1
 BYTE   W01
 BYTE   N44  En2  v100
 BYTE   W24
 BYTE   PEND 
// 014   ----------------------------------------
 BYTE   PATT
  POIN2 Label_7_0198D789
// 015   ----------------------------------------
Label_7_0198D7E4:
 BYTE   N14  Cn1  v127
 BYTE   N92  Cs2  v120
 BYTE   W16
 BYTE   N14  Cn1  v127
 BYTE   W08
 BYTE   N21  Dn1
 BYTE   N22  As1  v100
 BYTE   W08
 BYTE   N14  Cn1  v127
 BYTE   W16
 BYTE   N14
 BYTE   N22  As1  v100
 BYTE   W16
 BYTE   N14  Cn1  v127
 BYTE   W08
 BYTE   N21  Dn1
 BYTE   N22  As1  v100
 BYTE   W08
 BYTE   N14  Cn1  v127
 BYTE   W16
 BYTE   PEND 
// 016   ----------------------------------------
 BYTE   N14
 BYTE   N22  As1  v100
 BYTE   W16
 BYTE   N14  Cn1  v127
 BYTE   W08
 BYTE   N22  Dn1
 BYTE   N22  En2  v120
 BYTE   W16
 BYTE   N04  Bn1  v127
 BYTE   W08
 BYTE   N04
 BYTE   N22  En2  v120
 BYTE   W08
 BYTE   N04  An1  v127
 BYTE   W08
 BYTE   N04
 BYTE   W08
 BYTE   Fn1
 BYTE   N32  En2  v120
 BYTE   W08
 BYTE   N04  Fn1  v127
 BYTE   W08
 BYTE   N04
 BYTE   W08
// 017   ----------------------------------------
 BYTE   PATT
  POIN2 Label_7_0198D680
// 018   ----------------------------------------
 BYTE   PATT
  POIN2 Label_7_0198D734
// 019   ----------------------------------------
Label_7_0198D840:
 BYTE   N14  Cn1  v127
 BYTE   N22  As1  v100
 BYTE   W16
 BYTE   N14  Cn1  v127
 BYTE   W07
 BYTE   N21  Dn1
 BYTE   W01
 BYTE   N22  As1  v100
 BYTE   W08
 BYTE   N14  Cn1  v127
 BYTE   W16
 BYTE   N14
 BYTE   N22  As1  v100
 BYTE   W16
 BYTE   N14  Cn1  v127
 BYTE   W07
 BYTE   N21  Dn1
 BYTE   W01
 BYTE   N22  As1  v100
 BYTE   W08
 BYTE   N14  Cn1  v127
 BYTE   W16
 BYTE   PEND 
// 020   ----------------------------------------
 BYTE   N14
 BYTE   N22  As1  v100
 BYTE   W16
 BYTE   N14  Cn1  v127
 BYTE   W08
 BYTE   N21  Dn1
 BYTE   N22  As1  v100
 BYTE   W08
 BYTE   N14  Cn1  v127
 BYTE   W16
 BYTE   N14
 BYTE   N22  As1  v100
 BYTE   W16
 BYTE   N14  Cn1  v127
 BYTE   W07
 BYTE   N07  Dn1
 BYTE   W01
 BYTE   N22  As1  v100
 BYTE   W07
 BYTE   N07  Dn1  v127
 BYTE   W09
 BYTE   N13
 BYTE   W08
// 021   ----------------------------------------
 BYTE   PATT
  POIN2 Label_7_0198D680
// 022   ----------------------------------------
 BYTE   PATT
  POIN2 Label_7_0198D6AB
// 023   ----------------------------------------
 BYTE   PATT
  POIN2 Label_7_0198D734
// 024   ----------------------------------------
Label_7_0198D8A3:
 BYTE   N14  Cn1  v127
 BYTE   N22  As1  v100
 BYTE   W16
 BYTE   N14  Cn1  v127
 BYTE   W08
 BYTE   N21  Dn1
 BYTE   N22  As1  v100
 BYTE   W08
 BYTE   N14  Cn1  v127
 BYTE   W16
 BYTE   N14
 BYTE   N22  As1  v100
 BYTE   W16
 BYTE   N14  Cn1  v127
 BYTE   W08
 BYTE   N22  As1  v100
 BYTE   N04  Bn1  v127
 BYTE   W08
 BYTE   An1
 BYTE   W08
 BYTE   Fn1
 BYTE   W08
 BYTE   PEND 
// 025   ----------------------------------------
 BYTE   N14  Cn1
 BYTE   N22  As1  v100
 BYTE   W16
 BYTE   N14  Cn1  v127
 BYTE   W07
 BYTE   N24  Dn1
 BYTE   W01
 BYTE   N44  En2  v100
 BYTE   W24
 BYTE   N14  Cn1  v127
 BYTE   N22  As1  v100
 BYTE   W16
 BYTE   N14  Cn1  v127
 BYTE   W08
 BYTE   N24  Dn1
 BYTE   N44  En2  v100
 BYTE   W24
// 026   ----------------------------------------
 BYTE   PATT
  POIN2 Label_7_0198D7BB
// 027   ----------------------------------------
 BYTE   PATT
  POIN2 Label_7_0198D7E4
// 028   ----------------------------------------
 BYTE   PATT
  POIN2 Label_7_0198D8A3
// 029   ----------------------------------------
 BYTE   PATT
  POIN2 Label_7_0198D7BB
// 030   ----------------------------------------
 BYTE   PATT
  POIN2 Label_7_0198D789
// 031   ----------------------------------------
 BYTE   N14  Cn1  v127
 BYTE   N92  Cs2  v120
 BYTE   W16
 BYTE   N14  Cn1  v127
 BYTE   W08
 BYTE   N21  Dn1
 BYTE   N22  As1  v100
 BYTE   W08
 BYTE   N14  Cn1  v127
 BYTE   W16
 BYTE   N14
 BYTE   N22  As1  v100
 BYTE   W16
 BYTE   N14  Cn1  v127
 BYTE   W07
 BYTE   N21  Dn1
 BYTE   W01
 BYTE   N22  As1  v100
 BYTE   W08
 BYTE   N14  Cn1  v127
 BYTE   W16
// 032   ----------------------------------------
 BYTE   N14
 BYTE   N22  As1  v100
 BYTE   W16
 BYTE   N14  Cn1  v127
 BYTE   W07
 BYTE   N21  Dn1
 BYTE   W01
 BYTE   N22  As1  v100
 BYTE   W08
 BYTE   N14  Cn1  v127
 BYTE   W16
 BYTE   N14
 BYTE   N22  As1  v100
 BYTE   W16
 BYTE   N14  Cn1  v127
 BYTE   W07
 BYTE   N07  Dn1
 BYTE   W01
 BYTE   N22  As1  v100
 BYTE   W07
 BYTE   N07  Dn1  v127
 BYTE   W09
 BYTE   N13
 BYTE   W08
// 033   ----------------------------------------
 BYTE   N14  Cn1
 BYTE   N92  Cs2
 BYTE   W16
 BYTE   N14  Cn1
 BYTE   N14  Fn2  v112
 BYTE   W08
 BYTE   N21  Dn1  v127
 BYTE   W08
 BYTE   N14  Cn1
 BYTE   N14  Fn2  v112
 BYTE   W16
 BYTE   Cn1  v127
 BYTE   N14  Fn2  v112
 BYTE   W16
 BYTE   Cn1  v127
 BYTE   N14  Fn2  v112
 BYTE   W08
 BYTE   N21  Dn1  v127
 BYTE   W08
 BYTE   N14  Cn1
 BYTE   N14  Fn2  v112
 BYTE   W16
// 034   ----------------------------------------
 BYTE   Cn1  v127
 BYTE   N14  Fn2  v112
 BYTE   W16
 BYTE   Cn1  v127
 BYTE   N14  Fn2  v112
 BYTE   W08
 BYTE   N21  Dn1  v127
 BYTE   W08
 BYTE   N14  Cn1
 BYTE   N14  Fn2  v112
 BYTE   W16
 BYTE   Cn1  v127
 BYTE   N14  Fn2  v112
 BYTE   W16
 BYTE   Cn1  v127
 BYTE   N14  Fn2  v112
 BYTE   W07
 BYTE   N21  Dn1  v127
 BYTE   W09
 BYTE   N14  Cn1
 BYTE   N14  Fn2  v112
 BYTE   W16
// 035   ----------------------------------------
Label_7_0198D9B2:
 BYTE   N14  Cn1  v127
 BYTE   N14  Fn2  v112
 BYTE   W16
 BYTE   Cn1  v127
 BYTE   N14  Fn2  v112
 BYTE   W07
 BYTE   N21  Dn1  v127
 BYTE   W09
 BYTE   N14  Cn1
 BYTE   N14  Fn2  v112
 BYTE   W16
 BYTE   Cn1  v127
 BYTE   N14  Fn2  v112
 BYTE   W16
 BYTE   Cn1  v127
 BYTE   N14  Fn2  v112
 BYTE   W08
 BYTE   N21  Dn1  v127
 BYTE   W08
 BYTE   N14  Cn1
 BYTE   N14  Fn2  v112
 BYTE   W16
 BYTE   PEND 
// 036   ----------------------------------------
 BYTE   Cn1  v127
 BYTE   N14  Fn2  v112
 BYTE   W16
 BYTE   Cn1  v127
 BYTE   N14  Fn2  v112
 BYTE   W08
 BYTE   N21  Dn1  v127
 BYTE   W08
 BYTE   N14  Cn1
 BYTE   N14  Fn2  v112
 BYTE   W16
 BYTE   Cn1  v127
 BYTE   N14  Fn2  v112
 BYTE   W16
 BYTE   Cn1  v127
 BYTE   N14  Fn2  v112
 BYTE   W07
 BYTE   N07  Dn1  v127
 BYTE   W09
 BYTE   N07
 BYTE   N14  Fn2  v112
 BYTE   W08
 BYTE   N13  Dn1  v127
 BYTE   W08
// 037   ----------------------------------------
 BYTE   N14  Cn1
 BYTE   N92  Cs2
 BYTE   W16
 BYTE   N14  Cn1
 BYTE   N14  Fn2  v112
 BYTE   W07
 BYTE   N21  Dn1  v127
 BYTE   W09
 BYTE   N14  Cn1
 BYTE   N14  Fn2  v112
 BYTE   W16
 BYTE   Cn1  v127
 BYTE   N14  Fn2  v112
 BYTE   W16
 BYTE   Cn1  v127
 BYTE   N14  Fn2  v112
 BYTE   W08
 BYTE   N21  Dn1  v127
 BYTE   W08
 BYTE   N14  Cn1
 BYTE   N14  Fn2  v112
 BYTE   W16
// 038   ----------------------------------------
 BYTE   PATT
  POIN2 Label_7_0198D9B2
// 039   ----------------------------------------
 BYTE   N14  Cn1  v127
 BYTE   N14  Fn2  v112
 BYTE   W16
 BYTE   Cn1  v127
 BYTE   N14  Fn2  v112
 BYTE   W08
 BYTE   N21  Dn1  v127
 BYTE   W08
 BYTE   N14  Cn1
 BYTE   N14  Fn2  v112
 BYTE   W16
 BYTE   Cn1  v127
 BYTE   N14  Fn2  v112
 BYTE   W16
 BYTE   Cn1  v127
 BYTE   N14  Fn2  v112
 BYTE   W08
 BYTE   N21  Dn1  v127
 BYTE   W08
 BYTE   N14  Cn1
 BYTE   N14  Fn2  v112
 BYTE   W16
// 040   ----------------------------------------
 BYTE   Cn1  v127
 BYTE   N14  Fn2  v112
 BYTE   W16
 BYTE   Cn1  v127
 BYTE   N14  Fn2  v112
 BYTE   W07
 BYTE   N21  Dn1  v127
 BYTE   W09
 BYTE   N14  Cn1
 BYTE   N14  Fn2  v112
 BYTE   W16
 BYTE   Cn1  v127
 BYTE   N14  Fn2  v112
 BYTE   W16
 BYTE   Cn1  v127
 BYTE   N14  Fn2  v112
 BYTE   W08
 BYTE   N04  Bn1  v127
 BYTE   W08
 BYTE   An1
 BYTE   N14  Fn2  v112
 BYTE   W08
 BYTE   N04  Fn1  v127
 BYTE   W08
// 041   ----------------------------------------
 BYTE   N07  Cn1
 BYTE   N14  Cs2  v112
 BYTE   W08
 BYTE   N07  Cn1  v127
 BYTE   N14  En2  v100
 BYTE   W08
 BYTE   N07  Cn1  v127
 BYTE   N14  Cs2  v112
 BYTE   W07
 BYTE   N19  Dn1  v127
 BYTE   W01
 BYTE   N22  En2  v100
 BYTE   W08
 BYTE   N07  Cn1  v127
 BYTE   W08
 BYTE   N07
 BYTE   W08
 BYTE   N07
 BYTE   N14  Cs2  v112
 BYTE   W08
 BYTE   N07  Cn1  v127
 BYTE   N14  En2  v100
 BYTE   W08
 BYTE   N07  Cn1  v127
 BYTE   N14  Cs2  v112
 BYTE   W08
 BYTE   N19  Dn1  v127
 BYTE   N22  En2  v100
 BYTE   W08
 BYTE   N07  Cn1  v127
 BYTE   W08
 BYTE   N07
 BYTE   W08
// 042   ----------------------------------------
 BYTE   N07
 BYTE   N92  Cs2
 BYTE   W08
 BYTE   N07  Cn1
 BYTE   W08
 BYTE   N07
 BYTE   N07  Fn2  v112
 BYTE   W08
 BYTE   N19  Dn1  v127
 BYTE   N07  Fn2  v112
 BYTE   W08
 BYTE   Cn1  v127
 BYTE   N14  Fn2  v112
 BYTE   W08
 BYTE   N07  Cn1  v127
 BYTE   W08
 BYTE   N07
 BYTE   N14  Fn2  v112
 BYTE   W08
 BYTE   N07  Cn1  v127
 BYTE   W08
 BYTE   N07
 BYTE   N14  Fn2  v112
 BYTE   W07
 BYTE   N19  Dn1  v127
 BYTE   W09
 BYTE   N07  Cn1
 BYTE   N14  Fn2  v112
 BYTE   W08
 BYTE   N07  Cn1  v127
 BYTE   W08
// 043   ----------------------------------------
 BYTE   N07
 BYTE   N14  Fn2  v112
 BYTE   W08
 BYTE   N07  Cn1  v127
 BYTE   W08
 BYTE   N07
 BYTE   N07  Fn2  v112
 BYTE   W08
 BYTE   N19  Dn1  v127
 BYTE   N07  Fn2  v112
 BYTE   W08
 BYTE   Cn1  v127
 BYTE   N14  Fn2  v112
 BYTE   W08
 BYTE   N07  Cn1  v127
 BYTE   W08
 BYTE   N07
 BYTE   N14  Fn2  v112
 BYTE   W08
 BYTE   N07  Cn1  v127
 BYTE   W08
 BYTE   N07
 BYTE   N14  Fn2  v112
 BYTE   W08
 BYTE   N19  Dn1  v127
 BYTE   W08
 BYTE   N07  Cn1
 BYTE   N14  Fn2  v112
 BYTE   W08
 BYTE   N07  Cn1  v127
 BYTE   W08
// 044   ----------------------------------------
 BYTE   N07
 BYTE   N07  Fn2  v112
 BYTE   W08
 BYTE   Cn1  v127
 BYTE   N07  Fn2  v092
 BYTE   W08
 BYTE   Cn1  v127
 BYTE   N07  Fn2  v112
 BYTE   W08
 BYTE   N19  Dn1  v127
 BYTE   N14  En2  v120
 BYTE   W08
 BYTE   N07  Cn1  v127
 BYTE   W08
 BYTE   N07
 BYTE   W08
 BYTE   N07
 BYTE   N07  Fn2  v112
 BYTE   W08
 BYTE   Cn1  v127
 BYTE   N07  Fn2  v092
 BYTE   W08
 BYTE   Cn1  v127
 BYTE   N07  Fn2  v112
 BYTE   W07
 BYTE   Dn1  v127
 BYTE   W01
 BYTE   N14  En2  v120
 BYTE   W07
 BYTE   N07  Dn1  v127
 BYTE   W09
 BYTE   N13
 BYTE   W08
// 045   ----------------------------------------
 BYTE   N07  Cn1
 BYTE   N14  Cs2  v112
 BYTE   W08
 BYTE   N07  Cn1  v127
 BYTE   N14  En2  v100
 BYTE   W08
 BYTE   N07  Cn1  v127
 BYTE   N14  Cs2  v112
 BYTE   W08
 BYTE   N19  Dn1  v127
 BYTE   N22  En2  v100
 BYTE   W08
 BYTE   N07  Cn1  v127
 BYTE   W08
 BYTE   N07
 BYTE   W08
 BYTE   N07
 BYTE   N14  Cs2  v112
 BYTE   W08
 BYTE   N07  Cn1  v127
 BYTE   N14  En2  v100
 BYTE   W08
 BYTE   N07  Cn1  v127
 BYTE   N14  Cs2  v112
 BYTE   W07
 BYTE   N19  Dn1  v127
 BYTE   W01
 BYTE   N22  En2  v100
 BYTE   W08
 BYTE   N07  Cn1  v127
 BYTE   W08
 BYTE   N07
 BYTE   W08
// 046   ----------------------------------------
 BYTE   N07
 BYTE   N92  Cs2
 BYTE   W08
 BYTE   N07  Cn1
 BYTE   W08
 BYTE   N07
 BYTE   N07  Fn2  v112
 BYTE   W08
 BYTE   N19  Dn1  v127
 BYTE   N07  Fn2  v112
 BYTE   W08
 BYTE   Cn1  v127
 BYTE   N14  Fn2  v112
 BYTE   W08
 BYTE   N07  Cn1  v127
 BYTE   W08
 BYTE   N07
 BYTE   N14  Fn2  v112
 BYTE   W08
 BYTE   N07  Cn1  v127
 BYTE   W08
 BYTE   N07
 BYTE   N14  Fn2  v112
 BYTE   W08
 BYTE   N19  Dn1  v127
 BYTE   W08
 BYTE   N07  Cn1
 BYTE   N14  Fn2  v112
 BYTE   W08
 BYTE   N07  Cn1  v127
 BYTE   W08
// 047   ----------------------------------------
 BYTE   N07
 BYTE   N14  Fn2  v112
 BYTE   W08
 BYTE   N07  Cn1  v127
 BYTE   W08
 BYTE   N07
 BYTE   N07  Fn2  v112
 BYTE   W07
 BYTE   N19  Dn1  v127
 BYTE   W01
 BYTE   N07  Fn2  v112
 BYTE   W08
 BYTE   Cn1  v127
 BYTE   N14  Fn2  v112
 BYTE   W08
 BYTE   N07  Cn1  v127
 BYTE   W08
 BYTE   N07
 BYTE   N14  Fn2  v112
 BYTE   W08
 BYTE   N07  Cn1  v127
 BYTE   W08
 BYTE   N07
 BYTE   N14  Fn2  v112
 BYTE   W07
 BYTE   N19  Dn1  v127
 BYTE   W09
 BYTE   N07  Cn1
 BYTE   N14  Fn2  v112
 BYTE   W08
 BYTE   N07  Cn1  v127
 BYTE   W08
// 048   ----------------------------------------
 BYTE   N07
 BYTE   N07  Fn2  v112
 BYTE   W08
 BYTE   Cn1  v127
 BYTE   N07  Fn2  v092
 BYTE   W08
 BYTE   Cn1  v127
 BYTE   N07  Fn2  v112
 BYTE   W08
 BYTE   N19  Dn1  v127
 BYTE   N14  En2  v120
 BYTE   W08
 BYTE   N07  Cn1  v127
 BYTE   W08
 BYTE   N07
 BYTE   W08
 BYTE   N07
 BYTE   N07  Fn2  v112
 BYTE   W08
 BYTE   Cn1  v127
 BYTE   N07  Fn2  v092
 BYTE   W08
 BYTE   Cn1  v127
 BYTE   N07  Fn2  v112
 BYTE   W08
 BYTE   Dn1  v127
 BYTE   N14  En2  v120
 BYTE   W08
 BYTE   N07  Dn1  v127
 BYTE   W08
 BYTE   N13
 BYTE   W08
// 049   ----------------------------------------
Label_7_0198DC7F:
 BYTE   N14  Cn1  v127
 BYTE   N92  Cs2
 BYTE   W16
 BYTE   N14  Cn1
 BYTE   N07  Fn2  v092
 BYTE   W08
 BYTE   Fn2  v100
 BYTE   W08
 BYTE   N14  Cn1  v127
 BYTE   N14  Fn2  v092
 BYTE   W16
 BYTE   N28  Dn1  v127
 BYTE   N14  Fn2  v100
 BYTE   W16
 BYTE   Cn1  v127
 BYTE   N14  Fn2  v092
 BYTE   W16
 BYTE   Cn1  v127
 BYTE   N14  Fn2  v100
 BYTE   W16
 BYTE   PEND 
// 050   ----------------------------------------
Label_7_0198DCA9:
 BYTE   N14  Cn1  v127
 BYTE   N14  Fn2  v100
 BYTE   W16
 BYTE   Cn1  v127
 BYTE   N07  Fn2  v092
 BYTE   W08
 BYTE   Fn2  v100
 BYTE   W08
 BYTE   N14  Cn1  v127
 BYTE   N14  Fn2  v092
 BYTE   W15
 BYTE   N28  Dn1  v127
 BYTE   W01
 BYTE   N14  Fn2  v100
 BYTE   W16
 BYTE   Cn1  v127
 BYTE   N14  Fn2  v092
 BYTE   W16
 BYTE   Cn1  v127
 BYTE   N14  Fn2  v100
 BYTE   W16
 BYTE   PEND 
// 051   ----------------------------------------
 BYTE   PATT
  POIN2 Label_7_0198DCA9
// 052   ----------------------------------------
 BYTE   N14  Cn1  v127
 BYTE   N14  Fn2  v100
 BYTE   W16
 BYTE   Cn1  v127
 BYTE   N07  Fn2  v092
 BYTE   W08
 BYTE   Fn2  v100
 BYTE   W08
 BYTE   N14  Cn1  v127
 BYTE   N14  Fn2  v092
 BYTE   W16
 BYTE   N28  Dn1  v127
 BYTE   N14  Fn2  v100
 BYTE   W16
 BYTE   Cn1  v127
 BYTE   N14  Fn2  v092
 BYTE   W15
 BYTE   N07  Dn1  v127
 BYTE   W01
 BYTE   N14  Fn2  v100
 BYTE   W08
 BYTE   N13  Dn1  v127
 BYTE   W08
// 053   ----------------------------------------
 BYTE   PATT
  POIN2 Label_7_0198DC7F
// 054   ----------------------------------------
 BYTE   PATT
  POIN2 Label_7_0198DCA9
// 055   ----------------------------------------
 BYTE   N07  Cn1  v127
 BYTE   N92  Cs2  v120
 BYTE   W08
 BYTE   N07  Cn1  v127
 BYTE   W08
 BYTE   N07
 BYTE   W07
 BYTE   N19  Dn1
 BYTE   W01
 BYTE   N22  As1  v100
 BYTE   W08
 BYTE   N07  Cn1  v127
 BYTE   W08
 BYTE   N07
 BYTE   W08
 BYTE   N07
 BYTE   N22  As1  v100
 BYTE   W08
 BYTE   N07  Cn1  v127
 BYTE   W08
 BYTE   N07
 BYTE   W08
 BYTE   N19  Dn1
 BYTE   N22  En2  v092
 BYTE   W08
 BYTE   N07  Cn1  v127
 BYTE   W08
 BYTE   N07
 BYTE   W08
// 056   ----------------------------------------
 BYTE   N07
 BYTE   N07  Fn2  v112
 BYTE   W08
 BYTE   Cn1  v127
 BYTE   N07  Fn2  v100
 BYTE   W08
 BYTE   Cn1  v127
 BYTE   N07  Fn2  v100
 BYTE   W08
 BYTE   N19  Dn1  v127
 BYTE   N22  En2  v100
 BYTE   W08
 BYTE   N07  Cn1  v127
 BYTE   W08
 BYTE   N07
 BYTE   W08
 BYTE   N07
 BYTE   N22  As1  v100
 BYTE   W08
 BYTE   N07  Cn1  v127
 BYTE   W08
 BYTE   N07
 BYTE   W08
 BYTE   Dn1
 BYTE   N22  En2  v100
 BYTE   W07
 BYTE   N07  Dn1  v127
 BYTE   W09
 BYTE   N13
 BYTE   W08
// 057   ----------------------------------------
 BYTE   N14  Cn1
 BYTE   N92  Cs2
 BYTE   W16
 BYTE   N14  Cn1
 BYTE   W07
 BYTE   N21  Dn1
 BYTE   W01
 BYTE   N22  As1  v100
 BYTE   W08
 BYTE   N14  Cn1  v127
 BYTE   W16
 BYTE   N14
 BYTE   N22  As1  v100
 BYTE   W16
 BYTE   N14  Cn1  v127
 BYTE   W08
 BYTE   N21  Dn1
 BYTE   N22  As1  v100
 BYTE   W08
 BYTE   N14  Cn1  v127
 BYTE   W16
// 058   ----------------------------------------
 BYTE   PATT
  POIN2 Label_7_0198D840
// 059   ----------------------------------------
Label_7_0198DDA4:
 BYTE   N14  Cn1  v127
 BYTE   N22  As1  v100
 BYTE   W16
 BYTE   N14  Cn1  v127
 BYTE   W07
 BYTE   N21  Dn1
 BYTE   W01
 BYTE   N22  As1  v100
 BYTE   W08
 BYTE   N14  Cn1  v127
 BYTE   W16
 BYTE   N14
 BYTE   N22  As1  v100
 BYTE   W16
 BYTE   N14  Cn1  v127
 BYTE   W08
 BYTE   N21  Dn1
 BYTE   N22  As1  v100
 BYTE   W08
 BYTE   N14  Cn1  v127
 BYTE   W16
 BYTE   PEND 
// 060   ----------------------------------------
 BYTE   N14
 BYTE   N22  As1  v100
 BYTE   W16
 BYTE   N14  Cn1  v127
 BYTE   W07
 BYTE   N21  Dn1
 BYTE   W01
 BYTE   N22  As1  v100
 BYTE   W08
 BYTE   N14  Cn1  v127
 BYTE   W16
 BYTE   N14
 BYTE   N22  As1  v100
 BYTE   W16
 BYTE   N14  Cn1  v127
 BYTE   W08
 BYTE   N07  Dn1
 BYTE   N22  As1  v100
 BYTE   W08
 BYTE   N07  Dn1  v127
 BYTE   W07
 BYTE   N13
 BYTE   W09
// 061   ----------------------------------------
 BYTE   PATT
  POIN2 Label_7_0198D7E4
// 062   ----------------------------------------
 BYTE   PATT
  POIN2 Label_7_0198DDA4
// 063   ----------------------------------------
 BYTE   PATT
  POIN2 Label_7_0198D6AB
// 064   ----------------------------------------
 BYTE   PATT
  POIN2 Label_7_0198D75E
// 065   ----------------------------------------
Label_7_0198DE0B:
 BYTE   N14  Cn1  v124
 BYTE   N22  As1  v096
 BYTE   W16
 BYTE   N14  Cn1  v124
 BYTE   W08
 BYTE   N24  Dn1
 BYTE   N44  En2  v096
 BYTE   W24
 BYTE   N14  Cn1  v124
 BYTE   N22  As1  v096
 BYTE   W16
 BYTE   N14  Cn1  v124
 BYTE   W07
 BYTE   N24  Dn1
 BYTE   W01
 BYTE   N44  En2  v096
 BYTE   W24
 BYTE   PEND 
// 066   ----------------------------------------
 BYTE   PATT
  POIN2 Label_7_0198DE0B
// 067   ----------------------------------------
 BYTE   N14  Cn1  v124
 BYTE   N92  Cs2  v116
 BYTE   W16
 BYTE   N14  Cn1  v124
 BYTE   W08
 BYTE   N21  Dn1
 BYTE   N22  As1  v096
 BYTE   W08
 BYTE   N14  Cn1  v124
 BYTE   W16
 BYTE   N14
 BYTE   N22  As1  v096
 BYTE   W16
 BYTE   N14  Cn1  v124
 BYTE   W08
 BYTE   N21  Dn1
 BYTE   N22  As1  v096
 BYTE   W08
 BYTE   N14  Cn1  v124
 BYTE   W16
// 068   ----------------------------------------
 BYTE   N14
 BYTE   N22  As1  v096
 BYTE   W16
 BYTE   N14  Cn1  v124
 BYTE   W08
 BYTE   N21  Dn1
 BYTE   N22  As1  v096
 BYTE   W08
 BYTE   N14  Cn1  v124
 BYTE   W16
 BYTE   N14
 BYTE   N22  As1  v096
 BYTE   W16
 BYTE   N14  Cn1  v124
 BYTE   W08
 BYTE   N22  As1  v096
 BYTE   N04  Bn1  v124
 BYTE   W08
 BYTE   An1
 BYTE   W08
 BYTE   Fn1
 BYTE   W08
// 069   ----------------------------------------
 BYTE   N14  Cn1
 BYTE   N22  As1  v096
 BYTE   W16
 BYTE   N14  Cn1  v124
 BYTE   W07
 BYTE   N24  Dn1
 BYTE   W01
 BYTE   N44  En2  v096
 BYTE   W24
 BYTE   N14  Cn1  v124
 BYTE   N22  As1  v096
 BYTE   W16
 BYTE   N14  Cn1  v124
 BYTE   W08
 BYTE   N24  Dn1
 BYTE   N44  En2  v096
 BYTE   W24
// 070   ----------------------------------------
 BYTE   N14  Cn1  v124
 BYTE   N22  As1  v096
 BYTE   W16
 BYTE   N14  Cn1  v124
 BYTE   W07
 BYTE   N24  Dn1
 BYTE   W01
 BYTE   N44  En2  v096
 BYTE   W24
 BYTE   N14  Cn1  v124
 BYTE   N22  As1  v096
 BYTE   W16
 BYTE   N14  Cn1  v124
 BYTE   W07
 BYTE   N24  Dn1
 BYTE   W01
 BYTE   N44  En2  v096
 BYTE   W24
// 071   ----------------------------------------
 BYTE   N14  Cn1  v124
 BYTE   N92  Cs2  v116
 BYTE   W16
 BYTE   N14  Cn1  v124
 BYTE   W08
 BYTE   N21  Dn1
 BYTE   N22  As1  v096
 BYTE   W08
 BYTE   N14  Cn1  v124
 BYTE   W16
 BYTE   N14
 BYTE   N22  As1  v096
 BYTE   W16
 BYTE   N14  Cn1  v124
 BYTE   W07
 BYTE   N21  Dn1
 BYTE   W01
 BYTE   N22  As1  v096
 BYTE   W08
 BYTE   N14  Cn1  v124
 BYTE   W16
// 072   ----------------------------------------
 BYTE   N14
 BYTE   N22  As1  v096
 BYTE   W16
 BYTE   N14  Cn1  v124
 BYTE   W08
 BYTE   N21  Dn1
 BYTE   N22  As1  v096
 BYTE   W08
 BYTE   N14  Cn1  v124
 BYTE   W16
 BYTE   N14
 BYTE   N22  As1  v096
 BYTE   W16
 BYTE   N14  Cn1  v124
 BYTE   W07
 BYTE   N07  Dn1
 BYTE   W01
 BYTE   N22  As1  v096
 BYTE   W07
 BYTE   N07  Dn1  v124
 BYTE   W08
 BYTE   N13
 BYTE   W09
// 073   ----------------------------------------
 BYTE   N14  Cn1  v120
 BYTE   N92  Cs2
 BYTE   W24
 BYTE   N14  Cn1
 BYTE   W24
 BYTE   N14
 BYTE   W24
 BYTE   N14
 BYTE   W24
// 074   ----------------------------------------
Label_7_0198DF28:
 BYTE   N14  Cn1  v120
 BYTE   W24
 BYTE   N14
 BYTE   W24
 BYTE   N14
 BYTE   W24
 BYTE   N14
 BYTE   W24
 BYTE   PEND 
// 075   ----------------------------------------
 BYTE   PATT
  POIN2 Label_7_0198DF28
// 076   ----------------------------------------
 BYTE   PATT
  POIN2 Label_7_0198DF28
// 077   ----------------------------------------
 BYTE   N14  Cn1  v120
 BYTE   N92  Cs2
 BYTE   W16
 BYTE   N14  Cn1
 BYTE   W08
 BYTE   N09  Fs1  v080
 BYTE   W08
 BYTE   N14  Cn1  v120
 BYTE   W16
 BYTE   N14
 BYTE   N09  Fs1  v080
 BYTE   W16
 BYTE   N14  Cn1  v120
 BYTE   W08
 BYTE   N09  Fs1  v080
 BYTE   W08
 BYTE   N14  Cn1  v120
 BYTE   W16
// 078   ----------------------------------------
 BYTE   N14
 BYTE   N09  Fs1  v080
 BYTE   W16
 BYTE   N14  Cn1  v120
 BYTE   W08
 BYTE   N09  Fs1  v080
 BYTE   W08
 BYTE   N14  Cn1  v120
 BYTE   W16
 BYTE   N14
 BYTE   N09  Fs1  v080
 BYTE   W16
 BYTE   N14  Cn1  v120
 BYTE   W08
 BYTE   N09  Fs1  v080
 BYTE   W08
 BYTE   N14  Cn1  v120
 BYTE   W16
// 079   ----------------------------------------
 BYTE   N14
 BYTE   N09  Fs1  v080
 BYTE   W16
 BYTE   N14  Cn1  v120
 BYTE   W08
 BYTE   N09  Fs1  v080
 BYTE   W08
 BYTE   N14  Cn1  v120
 BYTE   W16
 BYTE   N14
 BYTE   N09  Fs1  v080
 BYTE   W16
 BYTE   N14  Cn1  v120
 BYTE   W08
 BYTE   N22  As1  v112
 BYTE   W08
 BYTE   N14  Cn1  v120
 BYTE   W16
// 080   ----------------------------------------
 BYTE   N14
 BYTE   N14  Fn2  v112
 BYTE   W16
 BYTE   Cn1  v120
 BYTE   N14  Fn2  v112
 BYTE   W16
 BYTE   Cn1  v120
 BYTE   N14  Fn2  v112
 BYTE   W16
 BYTE   N07  Dn1  v120
 BYTE   N44  En2  v108
 BYTE   W08
 BYTE   N07  Dn1  v120
 BYTE   W08
 BYTE   N07
 BYTE   W08
 BYTE   N07
 BYTE   W08
 BYTE   N07
 BYTE   W07
 BYTE   N13
 BYTE   W09
// 081   ----------------------------------------
 BYTE   PATT
  POIN2 Label_7_0198D680
// 082   ----------------------------------------
 BYTE   PATT
  POIN2 Label_7_0198DDA4
// 083   ----------------------------------------
 BYTE   PATT
  POIN2 Label_7_0198D734
// 084   ----------------------------------------
 BYTE   PATT
  POIN2 Label_7_0198D6D9
// 085   ----------------------------------------
 BYTE   PATT
  POIN2 Label_7_0198D705
// 086   ----------------------------------------
 BYTE   PATT
  POIN2 Label_7_0198D6AB
// 087   ----------------------------------------
 BYTE   PATT
  POIN2 Label_7_0198D840
// 088   ----------------------------------------
 BYTE   PATT
  POIN2 Label_7_0198D75E
// 089   ----------------------------------------
 BYTE   N23  Dn1  v127
 BYTE   N44  Cs2
 BYTE   W08
 BYTE   N07  Cn1
 BYTE   W08
 BYTE   N07
 BYTE   W07
 BYTE   N23  Dn1
 BYTE   W01
 BYTE   N44  En2  v120
 BYTE   W08
 BYTE   N07  Cn1  v127
 BYTE   W08
 BYTE   N07
 BYTE   W07
 BYTE   N23  Dn1
 BYTE   W01
 BYTE   N44  Cs2
 BYTE   W08
 BYTE   N07  Cn1
 BYTE   W08
 BYTE   N07
 BYTE   W07
 BYTE   N23  Dn1
 BYTE   W01
 BYTE   N44  En2  v120
 BYTE   W08
 BYTE   N07  Cn1  v127
 BYTE   W08
 BYTE   N07
 BYTE   W08
// 090   ----------------------------------------
 BYTE   N23  Dn1
 BYTE   N44  Cs2
 BYTE   W08
 BYTE   N07  Cn1
 BYTE   W08
 BYTE   N07
 BYTE   W08
 BYTE   N23  Dn1
 BYTE   N44  En2  v120
 BYTE   W08
 BYTE   N07  Cn1  v127
 BYTE   W08
 BYTE   N07
 BYTE   W08
 BYTE   N23  Dn1
 BYTE   N44  Cs2
 BYTE   W08
 BYTE   N07  Cn1
 BYTE   W08
 BYTE   N07
 BYTE   W07
 BYTE   N23  Dn1
 BYTE   W01
 BYTE   N44  En2  v120
 BYTE   W08
 BYTE   N07  Cn1  v127
 BYTE   W08
 BYTE   N07
 BYTE   W08
// 091   ----------------------------------------
 BYTE   N23  Dn1
 BYTE   N44  Cs2
 BYTE   W08
 BYTE   N07  Cn1
 BYTE   W08
 BYTE   N07
 BYTE   W08
 BYTE   N23  Dn1
 BYTE   N44  En2  v120
 BYTE   W08
 BYTE   N07  Cn1  v127
 BYTE   W08
 BYTE   N07
 BYTE   W08
 BYTE   N23  Dn1
 BYTE   N44  Cs2
 BYTE   W08
 BYTE   N07  Cn1
 BYTE   W08
 BYTE   N07
 BYTE   W08
 BYTE   N23  Dn1
 BYTE   N44  En2  v120
 BYTE   W08
 BYTE   N07  Cn1  v127
 BYTE   W08
 BYTE   N07
 BYTE   W07
 BYTE   N23  Dn1
 BYTE   W01
// 092   ----------------------------------------
 BYTE   N44  Cs2
 BYTE   W08
 BYTE   N07  Cn1
 BYTE   W08
 BYTE   N07
 BYTE   W07
 BYTE   N23  Dn1
 BYTE   W01
 BYTE   N44  En2  v120
 BYTE   W08
 BYTE   N07  Cn1  v127
 BYTE   W08
 BYTE   N07
 BYTE   W07
 BYTE   N23  Dn1
 BYTE   W01
 BYTE   N44  Cs2
 BYTE   W08
 BYTE   N07  Cn1
 BYTE   W08
 BYTE   N07
 BYTE   W08
 BYTE   N23  Dn1
 BYTE   N44  En2  v120
 BYTE   W08
 BYTE   N07  Cn1  v127
 BYTE   W08
 BYTE   N07
 BYTE   W07
 BYTE   N23  Dn1
 BYTE   W01
// 093   ----------------------------------------
 BYTE   N44  Cs2
 BYTE   W08
 BYTE   N07  Cn1
 BYTE   W08
 BYTE   N07
 BYTE   W08
 BYTE   N23  Dn1
 BYTE   N44  En2  v120
 BYTE   W08
 BYTE   N07  Cn1  v127
 BYTE   W08
 BYTE   N07
 BYTE   W07
 BYTE   N23  Dn1
 BYTE   W01
 BYTE   N44  Cs2
 BYTE   W08
 BYTE   N07  Cn1
 BYTE   W08
 BYTE   N07
 BYTE   W08
 BYTE   N23  Dn1
 BYTE   N44  En2  v120
 BYTE   W08
 BYTE   N07  Cn1  v127
 BYTE   W08
 BYTE   N07
 BYTE   W07
 BYTE   N23  Dn1
 BYTE   W01
// 094   ----------------------------------------
 BYTE   N44  Cs2
 BYTE   W08
 BYTE   N07  Cn1
 BYTE   W08
 BYTE   N07
 BYTE   W07
 BYTE   N23  Dn1
 BYTE   W01
 BYTE   N44  En2  v120
 BYTE   W08
 BYTE   N07  Cn1  v127
 BYTE   W08
 BYTE   N07
 BYTE   W08
 BYTE   N23  Dn1
 BYTE   N44  Cs2
 BYTE   W08
 BYTE   N07  Cn1
 BYTE   W08
 BYTE   N07
 BYTE   W07
 BYTE   N23  Dn1
 BYTE   W01
 BYTE   N44  En2  v120
 BYTE   W08
 BYTE   N07  Cn1  v127
 BYTE   W08
 BYTE   N07
 BYTE   W08
// 095   ----------------------------------------
 BYTE   N23  Dn1
 BYTE   N44  Cs2
 BYTE   W08
 BYTE   N07  Cn1
 BYTE   W08
 BYTE   N07
 BYTE   W07
 BYTE   N23  Dn1
 BYTE   W01
 BYTE   N44  En2  v120
 BYTE   W08
 BYTE   N07  Cn1  v127
 BYTE   W08
 BYTE   N07
 BYTE   W07
 BYTE   N23  Dn1
 BYTE   W01
 BYTE   N44  Cs2
 BYTE   W08
 BYTE   N07  Cn1
 BYTE   W08
 BYTE   N07
 BYTE   W08
 BYTE   N23  Dn1
 BYTE   N44  En2  v120
 BYTE   W08
 BYTE   N07  Cn1  v127
 BYTE   W08
 BYTE   N07
 BYTE   W07
 BYTE   N23  Dn1
 BYTE   W01
// 096   ----------------------------------------
 BYTE   N44  Cs2
 BYTE   W08
 BYTE   N07  Cn1
 BYTE   W08
 BYTE   N07
 BYTE   W07
 BYTE   N23  Dn1
 BYTE   W01
 BYTE   N44  En2  v120
 BYTE   W08
 BYTE   N07  Cn1  v127
 BYTE   W08
 BYTE   N07
 BYTE   W08
 BYTE   N23  Dn1
 BYTE   N44  Cs2
 BYTE   W08
 BYTE   N07  Cn1
 BYTE   W08
 BYTE   N07
 BYTE   W08
 BYTE   N24  Dn1
 BYTE   N23  En2  v120
 BYTE   W08
 BYTE   N07  Cn1  v127
 BYTE   W01
 BYTE   GoTo
  POIN2 Label_7_0198D626
// 097   ----------------------------------------
 BYTE   W07
 BYTE   N07  Cn1  v127
 BYTE   W08
 BYTE   W01
 BYTE   FINE

//**************** Track 9 (Midi-Chn.8) ****************//

song0104_009:
// 000   ----------------------------------------
 BYTE   KEYSH   song0104_key+0
Label_8_0198E16E:
 BYTE   VOICE   80
 BYTE   VOL   7*song0104_mvl/mxv
 BYTE   PAN   c_v+0
 BYTE   BEND   c_v-2
 BYTE   W96
// 001   ----------------------------------------
 BYTE   W11
 BYTE   N07  En3  v112
 BYTE   W08
 BYTE   Gn3
 BYTE   W08
 BYTE   Bn3
 BYTE   W08
 BYTE   En4
 BYTE   W08
 BYTE   Gn4
 BYTE   W08
 BYTE   Bn4
 BYTE   W08
 BYTE   En5
 BYTE   W08
 BYTE   Bn4
 BYTE   W08
 BYTE   Gn4
 BYTE   W08
 BYTE   En4
 BYTE   W08
 BYTE   Bn3
 BYTE   W05
// 002   ----------------------------------------
 BYTE   W03
 BYTE   Gn3
 BYTE   W08
 BYTE   Dn3
 BYTE   W08
 BYTE   Fs3
 BYTE   W08
 BYTE   An3
 BYTE   W08
 BYTE   Dn4
 BYTE   W08
 BYTE   Fs4
 BYTE   W08
 BYTE   An4
 BYTE   W08
 BYTE   Dn5
 BYTE   W08
 BYTE   An4
 BYTE   W08
 BYTE   Fs4
 BYTE   W08
 BYTE   Dn4
 BYTE   W08
 BYTE   An3
 BYTE   W05
// 003   ----------------------------------------
 BYTE   W03
 BYTE   Fs3
 BYTE   W08
 BYTE   En3
 BYTE   W08
 BYTE   Gn3
 BYTE   W08
 BYTE   Bn3
 BYTE   W08
 BYTE   En4
 BYTE   W08
 BYTE   Gn4
 BYTE   W08
 BYTE   Bn4
 BYTE   W08
 BYTE   En5
 BYTE   W08
 BYTE   Bn4
 BYTE   W08
 BYTE   Gn4
 BYTE   W08
 BYTE   En4
 BYTE   W08
 BYTE   Bn3
 BYTE   W05
// 004   ----------------------------------------
 BYTE   W03
 BYTE   Gn3
 BYTE   W08
 BYTE   Ds3
 BYTE   W08
 BYTE   Fs3
 BYTE   W08
 BYTE   Bn3
 BYTE   W08
 BYTE   Ds4
 BYTE   W08
 BYTE   Fs4
 BYTE   W08
 BYTE   Bn4
 BYTE   W08
 BYTE   Ds5
 BYTE   W08
 BYTE   Bn4
 BYTE   W08
 BYTE   Fs4
 BYTE   W08
 BYTE   Ds4
 BYTE   W08
 BYTE   Bn3
 BYTE   W05
// 005   ----------------------------------------
 BYTE   W03
 BYTE   Fs3
 BYTE   W08
 BYTE   En3
 BYTE   W08
 BYTE   Gn3
 BYTE   W08
 BYTE   Bn3
 BYTE   W08
 BYTE   Gn3
 BYTE   W08
 BYTE   Bn3
 BYTE   W08
 BYTE   En4
 BYTE   W08
 BYTE   Bn3
 BYTE   W08
 BYTE   En4
 BYTE   W08
 BYTE   Gn4
 BYTE   W08
 BYTE   Bn4
 BYTE   W08
 BYTE   En5
 BYTE   W05
// 006   ----------------------------------------
 BYTE   W03
 BYTE   Gn5
 BYTE   W08
 BYTE   Dn3
 BYTE   W08
 BYTE   Fs3
 BYTE   W08
 BYTE   An3
 BYTE   W08
 BYTE   Fs3
 BYTE   W08
 BYTE   An3
 BYTE   W08
 BYTE   Dn4
 BYTE   W08
 BYTE   An3
 BYTE   W08
 BYTE   Dn4
 BYTE   W08
 BYTE   Fs4
 BYTE   W08
 BYTE   An4
 BYTE   W08
 BYTE   Dn5
 BYTE   W05
// 007   ----------------------------------------
 BYTE   W03
 BYTE   Fs5
 BYTE   W08
 BYTE   Cn3
 BYTE   W08
 BYTE   En3
 BYTE   W08
 BYTE   Gn3
 BYTE   W08
 BYTE   Cn4
 BYTE   W08
 BYTE   En4
 BYTE   W08
 BYTE   Gn4
 BYTE   W08
 BYTE   Cn5
 BYTE   W08
 BYTE   En5
 BYTE   W08
 BYTE   Gn5
 BYTE   W08
 BYTE   En5
 BYTE   W08
 BYTE   Gn5
 BYTE   W05
// 008   ----------------------------------------
 BYTE   W03
 BYTE   Cn5
 BYTE   W08
 BYTE   Ds3
 BYTE   W08
 BYTE   Fs3
 BYTE   W08
 BYTE   Cn4
 BYTE   W08
 BYTE   Bn3
 BYTE   W08
 BYTE   Ds4
 BYTE   W08
 BYTE   Fs4
 BYTE   W08
 BYTE   Cn5
 BYTE   W08
 BYTE   Bn4
 BYTE   W08
 BYTE   Ds5
 BYTE   W08
 BYTE   Fs5
 BYTE   W08
 BYTE   Bn5
 BYTE   W05
// 009   ----------------------------------------
 BYTE   W03
 BYTE   Bn4
 BYTE   W08
 BYTE   Cn4
 BYTE   W08
 BYTE   En4
 BYTE   W08
 BYTE   Gn4
 BYTE   W08
 BYTE   Cn5
 BYTE   W08
 BYTE   Gn4
 BYTE   W08
 BYTE   En4
 BYTE   W08
 BYTE   Dn4
 BYTE   W08
 BYTE   Fs4
 BYTE   W08
 BYTE   An4
 BYTE   W08
 BYTE   Dn5
 BYTE   W08
 BYTE   An4
 BYTE   W05
// 010   ----------------------------------------
Label_8_0198E258:
 BYTE   W03
 BYTE   N07  Fs4  v112
 BYTE   W08
 BYTE   Ds4
 BYTE   W08
 BYTE   Fs4
 BYTE   W08
 BYTE   Bn4
 BYTE   W08
 BYTE   Ds5
 BYTE   W08
 BYTE   Bn4
 BYTE   W08
 BYTE   Fs4
 BYTE   W08
 BYTE   En4
 BYTE   W08
 BYTE   Gn4
 BYTE   W08
 BYTE   Bn4
 BYTE   W08
 BYTE   En5
 BYTE   W08
 BYTE   Bn4
 BYTE   W05
 BYTE   PEND 
// 011   ----------------------------------------
Label_8_0198E274:
 BYTE   W03
 BYTE   N07  Gn4  v112
 BYTE   W08
 BYTE   Cn4
 BYTE   W08
 BYTE   En4
 BYTE   W08
 BYTE   Gn4
 BYTE   W08
 BYTE   En4
 BYTE   W08
 BYTE   Gn4
 BYTE   W08
 BYTE   Cn5
 BYTE   W08
 BYTE   En4
 BYTE   W08
 BYTE   Gn4
 BYTE   W08
 BYTE   Cn5
 BYTE   W08
 BYTE   Gn4
 BYTE   W08
 BYTE   Cn5
 BYTE   W05
 BYTE   PEND 
// 012   ----------------------------------------
 BYTE   W03
 BYTE   En5
 BYTE   W08
 BYTE   Bn3
 BYTE   W08
 BYTE   Ds4
 BYTE   W08
 BYTE   Fs4
 BYTE   W08
 BYTE   Cn5
 BYTE   W08
 BYTE   Bn4
 BYTE   W08
 BYTE   Fs4
 BYTE   W08
 BYTE   Ds4
 BYTE   W08
 BYTE   Bn3
 BYTE   W08
 BYTE   Ds4
 BYTE   W08
 BYTE   Fs4
 BYTE   W08
 BYTE   Bn4
 BYTE   W05
// 013   ----------------------------------------
 BYTE   W03
 BYTE   Fs4
 BYTE   W08
 BYTE   Cn4
 BYTE   W08
 BYTE   En4
 BYTE   W08
 BYTE   Gn4
 BYTE   W08
 BYTE   Cn5
 BYTE   W08
 BYTE   Gn4
 BYTE   W08
 BYTE   En4
 BYTE   W08
 BYTE   Dn4
 BYTE   W08
 BYTE   Fs4
 BYTE   W08
 BYTE   An4
 BYTE   W08
 BYTE   Dn5
 BYTE   W08
 BYTE   An4
 BYTE   W05
// 014   ----------------------------------------
 BYTE   PATT
  POIN2 Label_8_0198E258
// 015   ----------------------------------------
 BYTE   PATT
  POIN2 Label_8_0198E274
// 016   ----------------------------------------
 BYTE   W03
 BYTE   N07  En5  v112
 BYTE   W08
 BYTE   Dn4
 BYTE   W08
 BYTE   Fs4
 BYTE   W08
 BYTE   An4
 BYTE   W08
 BYTE   Fs4
 BYTE   W08
 BYTE   An4
 BYTE   W08
 BYTE   Dn5
 BYTE   W08
 BYTE   Fs5
 BYTE   W08
 BYTE   Dn5
 BYTE   W08
 BYTE   An4
 BYTE   W08
 BYTE   Fs4
 BYTE   W08
 BYTE   Dn4
 BYTE   W05
// 017   ----------------------------------------
 BYTE   W03
 BYTE   An3
 BYTE   W19
 BYTE   En3
 BYTE   W08
 BYTE   Gn3
 BYTE   W08
 BYTE   Bn3
 BYTE   W08
 BYTE   En4
 BYTE   W08
 BYTE   Gn4
 BYTE   W08
 BYTE   Bn4
 BYTE   W08
 BYTE   En5
 BYTE   W08
 BYTE   Bn4
 BYTE   W08
 BYTE   Gn4
 BYTE   W08
 BYTE   En4
 BYTE   W02
// 018   ----------------------------------------
 BYTE   W06
 BYTE   Bn3
 BYTE   W08
 BYTE   Gn3
 BYTE   W08
 BYTE   Dn3
 BYTE   W08
 BYTE   Fs3
 BYTE   W08
 BYTE   An3
 BYTE   W08
 BYTE   Dn4
 BYTE   W08
 BYTE   Fs4
 BYTE   W08
 BYTE   An4
 BYTE   W08
 BYTE   Dn5
 BYTE   W08
 BYTE   An4
 BYTE   W08
 BYTE   Fs4
 BYTE   W08
 BYTE   Dn4
 BYTE   W02
// 019   ----------------------------------------
 BYTE   W06
 BYTE   An3
 BYTE   W08
 BYTE   Fs3
 BYTE   W08
 BYTE   En3
 BYTE   W08
 BYTE   Gn3
 BYTE   W08
 BYTE   Bn3
 BYTE   W08
 BYTE   En4
 BYTE   W08
 BYTE   Gn4
 BYTE   W08
 BYTE   Bn4
 BYTE   W08
 BYTE   En5
 BYTE   W08
 BYTE   Bn4
 BYTE   W08
 BYTE   Gn4
 BYTE   W08
 BYTE   En4
 BYTE   W02
// 020   ----------------------------------------
 BYTE   W06
 BYTE   Bn3
 BYTE   W08
 BYTE   Gn3
 BYTE   W08
 BYTE   Ds3
 BYTE   W08
 BYTE   Fs3
 BYTE   W08
 BYTE   Bn3
 BYTE   W08
 BYTE   Ds4
 BYTE   W08
 BYTE   Fs4
 BYTE   W08
 BYTE   Bn4
 BYTE   W08
 BYTE   Ds5
 BYTE   W08
 BYTE   Bn4
 BYTE   W08
 BYTE   Fs4
 BYTE   W08
 BYTE   Ds4
 BYTE   W02
// 021   ----------------------------------------
 BYTE   W06
 BYTE   Bn3
 BYTE   W08
 BYTE   Fs3
 BYTE   W08
 BYTE   En3
 BYTE   W08
 BYTE   Gn3
 BYTE   W08
 BYTE   Bn3
 BYTE   W08
 BYTE   Gn3
 BYTE   W08
 BYTE   Bn3
 BYTE   W08
 BYTE   En4
 BYTE   W08
 BYTE   Bn3
 BYTE   W08
 BYTE   En4
 BYTE   W08
 BYTE   Gn4
 BYTE   W08
 BYTE   Bn4
 BYTE   W02
// 022   ----------------------------------------
 BYTE   W06
 BYTE   En5
 BYTE   W08
 BYTE   Gn5
 BYTE   W08
 BYTE   Dn3
 BYTE   W08
 BYTE   Fs3
 BYTE   W08
 BYTE   An3
 BYTE   W08
 BYTE   Fs3
 BYTE   W08
 BYTE   An3
 BYTE   W08
 BYTE   Dn4
 BYTE   W08
 BYTE   An3
 BYTE   W08
 BYTE   Dn4
 BYTE   W08
 BYTE   Fs4
 BYTE   W08
 BYTE   An4
 BYTE   W02
// 023   ----------------------------------------
 BYTE   W06
 BYTE   Dn5
 BYTE   W08
 BYTE   Fs5
 BYTE   W08
 BYTE   Cn3
 BYTE   W08
 BYTE   En3
 BYTE   W08
 BYTE   Gn3
 BYTE   W08
 BYTE   Cn4
 BYTE   W08
 BYTE   En4
 BYTE   W08
 BYTE   Gn4
 BYTE   W08
 BYTE   Cn5
 BYTE   W08
 BYTE   En5
 BYTE   W08
 BYTE   Gn5
 BYTE   W08
 BYTE   En5
 BYTE   W02
// 024   ----------------------------------------
 BYTE   W06
 BYTE   Gn5
 BYTE   W08
 BYTE   Cn5
 BYTE   W08
 BYTE   Ds3
 BYTE   W08
 BYTE   Fs3
 BYTE   W08
 BYTE   Cn4
 BYTE   W08
 BYTE   Bn3
 BYTE   W08
 BYTE   Ds4
 BYTE   W08
 BYTE   Fs4
 BYTE   W08
 BYTE   Cn5
 BYTE   W08
 BYTE   Bn4
 BYTE   W08
 BYTE   Ds5
 BYTE   W08
 BYTE   Fs5
 BYTE   W02
// 025   ----------------------------------------
 BYTE   W06
 BYTE   Bn5
 BYTE   W08
 BYTE   Bn4
 BYTE   W08
 BYTE   Cn4
 BYTE   W08
 BYTE   En4
 BYTE   W08
 BYTE   Gn4
 BYTE   W08
 BYTE   Cn5
 BYTE   W08
 BYTE   Gn4
 BYTE   W08
 BYTE   En4
 BYTE   W08
 BYTE   Dn4
 BYTE   W08
 BYTE   Fs4
 BYTE   W08
 BYTE   An4
 BYTE   W08
 BYTE   Dn5
 BYTE   W02
// 026   ----------------------------------------
Label_8_0198E3C6:
 BYTE   W06
 BYTE   N07  An4  v112
 BYTE   W08
 BYTE   Fs4
 BYTE   W08
 BYTE   Ds4
 BYTE   W08
 BYTE   Fs4
 BYTE   W08
 BYTE   Bn4
 BYTE   W08
 BYTE   Ds5
 BYTE   W08
 BYTE   Bn4
 BYTE   W08
 BYTE   Fs4
 BYTE   W08
 BYTE   En4
 BYTE   W08
 BYTE   Gn4
 BYTE   W08
 BYTE   Bn4
 BYTE   W08
 BYTE   En5
 BYTE   W02
 BYTE   PEND 
// 027   ----------------------------------------
Label_8_0198E3E2:
 BYTE   W06
 BYTE   N07  Bn4  v112
 BYTE   W08
 BYTE   Gn4
 BYTE   W08
 BYTE   Cn4
 BYTE   W08
 BYTE   En4
 BYTE   W08
 BYTE   Gn4
 BYTE   W08
 BYTE   En4
 BYTE   W08
 BYTE   Gn4
 BYTE   W08
 BYTE   Cn5
 BYTE   W08
 BYTE   En4
 BYTE   W08
 BYTE   Gn4
 BYTE   W08
 BYTE   Cn5
 BYTE   W08
 BYTE   Gn4
 BYTE   W02
 BYTE   PEND 
// 028   ----------------------------------------
 BYTE   W06
 BYTE   Cn5
 BYTE   W08
 BYTE   En5
 BYTE   W08
 BYTE   Bn3
 BYTE   W08
 BYTE   Ds4
 BYTE   W08
 BYTE   Fs4
 BYTE   W08
 BYTE   Cn5
 BYTE   W08
 BYTE   Bn4
 BYTE   W08
 BYTE   Fs4
 BYTE   W08
 BYTE   Ds4
 BYTE   W08
 BYTE   Bn3
 BYTE   W08
 BYTE   Ds4
 BYTE   W08
 BYTE   Fs4
 BYTE   W02
// 029   ----------------------------------------
 BYTE   W06
 BYTE   Bn4
 BYTE   W08
 BYTE   Fs4
 BYTE   W08
 BYTE   Cn4
 BYTE   W08
 BYTE   En4
 BYTE   W08
 BYTE   Gn4
 BYTE   W08
 BYTE   Cn5
 BYTE   W08
 BYTE   Gn4
 BYTE   W08
 BYTE   En4
 BYTE   W08
 BYTE   Dn4
 BYTE   W08
 BYTE   Fs4
 BYTE   W08
 BYTE   An4
 BYTE   W08
 BYTE   Dn5
 BYTE   W02
// 030   ----------------------------------------
 BYTE   PATT
  POIN2 Label_8_0198E3C6
// 031   ----------------------------------------
 BYTE   PATT
  POIN2 Label_8_0198E3E2
// 032   ----------------------------------------
 BYTE   W06
 BYTE   N07  Cn5  v112
 BYTE   W08
 BYTE   En5
 BYTE   W08
 BYTE   Dn4
 BYTE   W08
 BYTE   Fs4
 BYTE   W08
 BYTE   An4
 BYTE   W08
 BYTE   Fs4
 BYTE   W08
 BYTE   An4
 BYTE   W08
 BYTE   Dn5
 BYTE   W08
 BYTE   Fs5
 BYTE   W08
 BYTE   Dn5
 BYTE   W08
 BYTE   An4
 BYTE   W08
 BYTE   Fs4
 BYTE   W02
// 033   ----------------------------------------
 BYTE   W06
 BYTE   Dn4  v127
 BYTE   W08
 BYTE   An3
 BYTE   W08
 BYTE   En4
 BYTE   W08
 BYTE   Gn4
 BYTE   W08
 BYTE   Bn4
 BYTE   W08
 BYTE   En5
 BYTE   W08
 BYTE   Bn4
 BYTE   W08
 BYTE   Gn4
 BYTE   W08
 BYTE   En4
 BYTE   W08
 BYTE   Gn4
 BYTE   W08
 BYTE   Bn4
 BYTE   W08
 BYTE   En5
 BYTE   W02
// 034   ----------------------------------------
Label_8_0198E46F:
 BYTE   W06
 BYTE   N07  Bn4  v127
 BYTE   W08
 BYTE   Gn4
 BYTE   W08
 BYTE   Dn4
 BYTE   W08
 BYTE   Fs4
 BYTE   W08
 BYTE   An4
 BYTE   W08
 BYTE   Dn5
 BYTE   W08
 BYTE   An4
 BYTE   W08
 BYTE   Fs4
 BYTE   W08
 BYTE   Dn4
 BYTE   W08
 BYTE   Fs4
 BYTE   W08
 BYTE   An4
 BYTE   W08
 BYTE   Dn5
 BYTE   W02
 BYTE   PEND 
// 035   ----------------------------------------
Label_8_0198E48B:
 BYTE   W06
 BYTE   N07  An4  v127
 BYTE   W08
 BYTE   Fs4
 BYTE   W08
 BYTE   Fn4
 BYTE   W08
 BYTE   An4
 BYTE   W08
 BYTE   Cn5
 BYTE   W08
 BYTE   Fn5
 BYTE   W08
 BYTE   Cn5
 BYTE   W08
 BYTE   An4
 BYTE   W08
 BYTE   Fn4
 BYTE   W08
 BYTE   An4
 BYTE   W08
 BYTE   Cn5
 BYTE   W08
 BYTE   Fn5
 BYTE   W02
 BYTE   PEND 
// 036   ----------------------------------------
 BYTE   W06
 BYTE   Cn5
 BYTE   W08
 BYTE   An4
 BYTE   W08
 BYTE   Dn4
 BYTE   W08
 BYTE   Fn4
 BYTE   W08
 BYTE   Gs4
 BYTE   W08
 BYTE   Bn4
 BYTE   W08
 BYTE   Gs4
 BYTE   W08
 BYTE   Fn4
 BYTE   W08
 BYTE   Dn5
 BYTE   W08
 BYTE   Bn4
 BYTE   W08
 BYTE   Gs4
 BYTE   W08
 BYTE   Bn4
 BYTE   W02
// 037   ----------------------------------------
 BYTE   W06
 BYTE   Gs4
 BYTE   W08
 BYTE   Fn4
 BYTE   W08
 BYTE   En4
 BYTE   W08
 BYTE   Gn4
 BYTE   W08
 BYTE   Bn4
 BYTE   W08
 BYTE   Dn5
 BYTE   W08
 BYTE   Bn4
 BYTE   W08
 BYTE   Gn4
 BYTE   W08
 BYTE   En4
 BYTE   W08
 BYTE   Gn4
 BYTE   W08
 BYTE   Bn4
 BYTE   W08
 BYTE   Dn5
 BYTE   W02
// 038   ----------------------------------------
 BYTE   PATT
  POIN2 Label_8_0198E46F
// 039   ----------------------------------------
 BYTE   PATT
  POIN2 Label_8_0198E48B
// 040   ----------------------------------------
 BYTE   W06
 BYTE   N07  Cn5  v127
 BYTE   W08
 BYTE   An4
 BYTE   W08
 BYTE   Dn5
 BYTE   W08
 BYTE   Gs4
 BYTE   W08
 BYTE   Bn4
 BYTE   W08
 BYTE   Fn4
 BYTE   W08
 BYTE   Gs4
 BYTE   W08
 BYTE   Dn4
 BYTE   W08
 BYTE   Fn4
 BYTE   W08
 BYTE   Bn3
 BYTE   W08
 BYTE   Dn4
 BYTE   W08
 BYTE   Gs3
 BYTE   W02
// 041   ----------------------------------------
 BYTE   W06
 BYTE   Bn3  v112
 BYTE   W08
 BYTE   Fn3
 BYTE   W08
 BYTE   N04  Fs4
 BYTE   W08
 BYTE   N04
 BYTE   W16
 BYTE   N04
 BYTE   W08
 BYTE   N04
 BYTE   W16
 BYTE   N04
 BYTE   W16
 BYTE   N04
 BYTE   W10
// 042   ----------------------------------------
Label_8_0198E511:
 BYTE   W06
 BYTE   N04  Fs4  v112
 BYTE   W16
 BYTE   N04
 BYTE   W08
 BYTE   N04
 BYTE   W16
 BYTE   N04
 BYTE   W08
 BYTE   N04
 BYTE   W16
 BYTE   N04
 BYTE   W16
 BYTE   N04
 BYTE   W10
 BYTE   PEND 
// 043   ----------------------------------------
 BYTE   PATT
  POIN2 Label_8_0198E511
// 044   ----------------------------------------
 BYTE   PATT
  POIN2 Label_8_0198E511
// 045   ----------------------------------------
 BYTE   PATT
  POIN2 Label_8_0198E511
// 046   ----------------------------------------
 BYTE   PATT
  POIN2 Label_8_0198E511
// 047   ----------------------------------------
 BYTE   PATT
  POIN2 Label_8_0198E511
// 048   ----------------------------------------
 BYTE   PATT
  POIN2 Label_8_0198E511
// 049   ----------------------------------------
 BYTE   W06
 BYTE   N03  Fs4  v112
 BYTE   W90
// 050   ----------------------------------------
 BYTE   W96
// 051   ----------------------------------------
 BYTE   W96
// 052   ----------------------------------------
 BYTE   W96
// 053   ----------------------------------------
 BYTE   W96
// 054   ----------------------------------------
 BYTE   W96
// 055   ----------------------------------------
 BYTE   W96
// 056   ----------------------------------------
 BYTE   W96
// 057   ----------------------------------------
 BYTE   W96
// 058   ----------------------------------------
 BYTE   W96
// 059   ----------------------------------------
 BYTE   W96
// 060   ----------------------------------------
 BYTE   W96
// 061   ----------------------------------------
 BYTE   W96
// 062   ----------------------------------------
 BYTE   W96
// 063   ----------------------------------------
 BYTE   W96
// 064   ----------------------------------------
 BYTE   W96
// 065   ----------------------------------------
 BYTE   W96
// 066   ----------------------------------------
 BYTE   W96
// 067   ----------------------------------------
 BYTE   W96
// 068   ----------------------------------------
 BYTE   W96
// 069   ----------------------------------------
 BYTE   W96
// 070   ----------------------------------------
 BYTE   W96
// 071   ----------------------------------------
 BYTE   W96
// 072   ----------------------------------------
 BYTE   W96
// 073   ----------------------------------------
 BYTE   W96
// 074   ----------------------------------------
 BYTE   W96
// 075   ----------------------------------------
 BYTE   W96
// 076   ----------------------------------------
 BYTE   W96
// 077   ----------------------------------------
 BYTE   W96
// 078   ----------------------------------------
 BYTE   W96
// 079   ----------------------------------------
 BYTE   W96
// 080   ----------------------------------------
 BYTE   W96
// 081   ----------------------------------------
 BYTE   W96
// 082   ----------------------------------------
 BYTE   W96
// 083   ----------------------------------------
 BYTE   W96
// 084   ----------------------------------------
 BYTE   W96
// 085   ----------------------------------------
 BYTE   W96
// 086   ----------------------------------------
 BYTE   W96
// 087   ----------------------------------------
 BYTE   W96
// 088   ----------------------------------------
 BYTE   W96
// 089   ----------------------------------------
 BYTE   W96
// 090   ----------------------------------------
 BYTE   W96
// 091   ----------------------------------------
 BYTE   W96
// 092   ----------------------------------------
 BYTE   W96
// 093   ----------------------------------------
 BYTE   W96
// 094   ----------------------------------------
 BYTE   W96
// 095   ----------------------------------------
 BYTE   W96
// 096   ----------------------------------------
 BYTE   W80
 BYTE   W01
 BYTE   GoTo
  POIN2 Label_8_0198E16E
// 097   ----------------------------------------
 BYTE   W15
 BYTE   W01
 BYTE   FINE

//******************************************************//
	ALIGN 4

song0104:
	BYTE	9	// NumTrks
	BYTE	0	// NumBlks
	BYTE	song0104_pri	// Priority
	BYTE	song0104_rev	// Reverb.
    
	POIN2	song0104_grp
    
	POIN2	song0104_001
	POIN2	song0104_002
	POIN2	song0104_003
	POIN2	song0104_004
	POIN2	song0104_005
	POIN2	song0104_006
	POIN2	song0104_007
	POIN2	song0104_008
	POIN2	song0104_009

	
