//Event file generated from Sappy .s format.
	#include "MPlayDef.event"

	#define	songE9_grp  voicegroup001
	#define	songE9_pri  0
	#define	songE9_rev  160 //0xA0
	#define	songE9_mvl  127
	#define	songE9_key  0
	#define	songE9_tbs  1
	#define	songE9_exg  0
	#define	songE9_cmp  1

	// .rodata
	//	songE9
	ALIGN 4


//**************** Track 1 (Midi-Chn.0) ****************//

songE9_001:
// 000   ----------------------------------------
 BYTE   KEYSH   songE9_key+0
Label_0_014ADCEA:
 BYTE   TEMPO   120*songE9_tbs/2
 BYTE   VOICE   52
 BYTE   VOL   29*songE9_mvl/mxv
 BYTE   PAN   c_v+0
 BYTE   BEND   c_v+0
 BYTE   W01
 BYTE   N28  An3  v120
 BYTE   W30
 BYTE   N36  En4
 BYTE   W42
 BYTE   N04  Dn4
 BYTE   W06
 BYTE   Cn4
 BYTE   W06
 BYTE   Bn3
 BYTE   W06
 BYTE   An3
 BYTE   W05
// 001   ----------------------------------------
Label_0_014ADD05:
 BYTE   W01
 BYTE   N04  Bn3  v120
 BYTE   W06
 BYTE   Cn4
 BYTE   W06
 BYTE   Dn4
 BYTE   W06
 BYTE   Cn4
 BYTE   W06
 BYTE   Bn3
 BYTE   W06
 BYTE   Gs3
 BYTE   W06
 BYTE   An3
 BYTE   W06
 BYTE   Bn3
 BYTE   W06
 BYTE   N28  An3
 BYTE   W30
 BYTE   N36  En4
 BYTE   W17
 BYTE   PEND 
// 002   ----------------------------------------
Label_0_014ADD1F:
 BYTE   W24
 BYTE   W01
 BYTE   N16  Fn4  v120
 BYTE   W18
 BYTE   Dn4
 BYTE   W18
 BYTE   En4
 BYTE   W18
 BYTE   N04  Gs3
 BYTE   W06
 BYTE   An3
 BYTE   W06
 BYTE   Bn3
 BYTE   W05
 BYTE   PEND 
// 003   ----------------------------------------
 BYTE   W01
 BYTE   N32  Cn4
 BYTE   W36
 BYTE   N11  Bn3
 BYTE   W12
 BYTE   Cn4
 BYTE   W12
 BYTE   Dn4
 BYTE   W12
 BYTE   N32  En4
 BYTE   W23
// 004   ----------------------------------------
 BYTE   W13
 BYTE   N11  An3
 BYTE   W12
 BYTE   Bn3
 BYTE   W12
 BYTE   Cn4
 BYTE   W12
 BYTE   N04  Dn4
 BYTE   W06
 BYTE   Cn4
 BYTE   W06
 BYTE   Dn4
 BYTE   W06
 BYTE   Bn3
 BYTE   W06
 BYTE   Dn4
 BYTE   W06
 BYTE   An3
 BYTE   W06
 BYTE   Dn4
 BYTE   W06
 BYTE   Gs3
 BYTE   W05
// 005   ----------------------------------------
 BYTE   W01
 BYTE   An3
 BYTE   W06
 BYTE   Bn3
 BYTE   W06
 BYTE   Cn4
 BYTE   W06
 BYTE   Dn4
 BYTE   W06
 BYTE   N32  En4
 BYTE   W36
 BYTE   Gs3
 BYTE   W32
 BYTE   W03
// 006   ----------------------------------------
 BYTE   W01
 BYTE   N28  An3
 BYTE   W30
 BYTE   N36  En4
 BYTE   W42
 BYTE   N04  Dn4
 BYTE   W06
 BYTE   Cn4
 BYTE   W06
 BYTE   Bn3
 BYTE   W06
 BYTE   An3
 BYTE   W05
// 007   ----------------------------------------
 BYTE   PATT
  POIN2 Label_0_014ADD05
// 008   ----------------------------------------
 BYTE   PATT
  POIN2 Label_0_014ADD1F
// 009   ----------------------------------------
 BYTE   W01
 BYTE   N32  Cn4  v120
 BYTE   W36
 BYTE   N11
 BYTE   W12
 BYTE   Dn4
 BYTE   W12
 BYTE   En4
 BYTE   W12
 BYTE   N32  Fn4
 BYTE   W23
// 010   ----------------------------------------
 BYTE   W13
 BYTE   N11
 BYTE   W12
 BYTE   En4
 BYTE   W12
 BYTE   Dn4
 BYTE   W12
 BYTE   TIE  En4
 BYTE   W44
 BYTE   W03
// 011   ----------------------------------------
 BYTE   W92
 BYTE   W03
 BYTE   EOT
 BYTE   W01
// 012   ----------------------------------------
 BYTE   W96
// 013   ----------------------------------------
 BYTE   W96
// 014   ----------------------------------------
 BYTE   W96
// 015   ----------------------------------------
 BYTE   W96
// 016   ----------------------------------------
 BYTE   W96
// 017   ----------------------------------------
 BYTE   W96
// 018   ----------------------------------------
 BYTE   W96
// 019   ----------------------------------------
 BYTE   W96
// 020   ----------------------------------------
 BYTE   W96
// 021   ----------------------------------------
 BYTE   W96
// 022   ----------------------------------------
 BYTE   W96
// 023   ----------------------------------------
 BYTE   W96
// 024   ----------------------------------------
Label_0_014ADDAA:
 BYTE   W01
 BYTE   N28  An3  v127
 BYTE   W30
 BYTE   N36  En4
 BYTE   W42
 BYTE   N04  Dn4
 BYTE   W06
 BYTE   Cn4
 BYTE   W06
 BYTE   Bn3
 BYTE   W06
 BYTE   An3
 BYTE   W05
 BYTE   PEND 
// 025   ----------------------------------------
Label_0_014ADDBC:
 BYTE   W01
 BYTE   N04  Bn3  v127
 BYTE   W06
 BYTE   Cn4
 BYTE   W06
 BYTE   Dn4
 BYTE   W06
 BYTE   Cn4
 BYTE   W06
 BYTE   Bn3
 BYTE   W06
 BYTE   Gs3
 BYTE   W06
 BYTE   An3
 BYTE   W06
 BYTE   Bn3
 BYTE   W06
 BYTE   N28  An3
 BYTE   W30
 BYTE   N36  En4
 BYTE   W17
 BYTE   PEND 
// 026   ----------------------------------------
Label_0_014ADDD6:
 BYTE   W24
 BYTE   W01
 BYTE   N16  Fn4  v127
 BYTE   W18
 BYTE   Dn4
 BYTE   W18
 BYTE   En4
 BYTE   W18
 BYTE   N04  Gs3
 BYTE   W06
 BYTE   An3
 BYTE   W06
 BYTE   Bn3
 BYTE   W05
 BYTE   PEND 
// 027   ----------------------------------------
 BYTE   W01
 BYTE   N32  Cn4
 BYTE   W36
 BYTE   N11  Bn3
 BYTE   W12
 BYTE   Cn4
 BYTE   W12
 BYTE   Dn4
 BYTE   W12
 BYTE   N32  En4
 BYTE   W23
// 028   ----------------------------------------
 BYTE   W13
 BYTE   N11  An3
 BYTE   W12
 BYTE   Bn3
 BYTE   W12
 BYTE   Cn4
 BYTE   W12
 BYTE   N04  Dn4
 BYTE   W06
 BYTE   Cn4
 BYTE   W06
 BYTE   Dn4
 BYTE   W06
 BYTE   Bn3
 BYTE   W06
 BYTE   Dn4
 BYTE   W06
 BYTE   An3
 BYTE   W06
 BYTE   Dn4
 BYTE   W06
 BYTE   Gs3
 BYTE   W05
// 029   ----------------------------------------
 BYTE   W01
 BYTE   An3
 BYTE   W06
 BYTE   Bn3
 BYTE   W06
 BYTE   Cn4
 BYTE   W06
 BYTE   Dn4
 BYTE   W06
 BYTE   N32  En4
 BYTE   W36
 BYTE   Gs3
 BYTE   W32
 BYTE   W03
// 030   ----------------------------------------
 BYTE   PATT
  POIN2 Label_0_014ADDAA
// 031   ----------------------------------------
 BYTE   PATT
  POIN2 Label_0_014ADDBC
// 032   ----------------------------------------
 BYTE   PATT
  POIN2 Label_0_014ADDD6
// 033   ----------------------------------------
 BYTE   W01
 BYTE   N32  Cn4  v127
 BYTE   W36
 BYTE   N11
 BYTE   W12
 BYTE   Dn4
 BYTE   W12
 BYTE   En4
 BYTE   W12
 BYTE   N32  Fn4
 BYTE   W23
// 034   ----------------------------------------
 BYTE   W13
 BYTE   N11
 BYTE   W12
 BYTE   En4
 BYTE   W12
 BYTE   Dn4
 BYTE   W12
 BYTE   TIE  En4
 BYTE   W44
 BYTE   W03
// 035   ----------------------------------------
 BYTE   W92
 BYTE   W03
 BYTE   EOT
 BYTE   W01
// 036   ----------------------------------------
 BYTE   W01
 BYTE   N04  Cn4  v108
 BYTE   W06
 BYTE   N03  An3
 BYTE   W03
 BYTE   Cn4
 BYTE   W03
 BYTE   An3
 BYTE   W03
 BYTE   En3
 BYTE   W03
 BYTE   N04  En4
 BYTE   W06
 BYTE   Cn4
 BYTE   W06
 BYTE   An3
 BYTE   W06
 BYTE   En4
 BYTE   W06
 BYTE   Bn3
 BYTE   W06
 BYTE   Gs3
 BYTE   W06
 BYTE   En3
 BYTE   W06
 BYTE   Gs3
 BYTE   W06
 BYTE   Bn3
 BYTE   W06
 BYTE   Cn4
 BYTE   W06
 BYTE   N03  An3
 BYTE   W03
 BYTE   Cn4
 BYTE   W03
 BYTE   An3
 BYTE   W03
 BYTE   En3
 BYTE   W03
 BYTE   N04  En4
 BYTE   W05
// 037   ----------------------------------------
 BYTE   W01
 BYTE   Cn4
 BYTE   W06
 BYTE   An3
 BYTE   W06
 BYTE   Fn4
 BYTE   W06
 BYTE   Dn4
 BYTE   W06
 BYTE   An3
 BYTE   W06
 BYTE   Fn3
 BYTE   W06
 BYTE   An3
 BYTE   W06
 BYTE   Dn4
 BYTE   W06
 BYTE   Fs4
 BYTE   W06
 BYTE   N03  Ds4
 BYTE   W03
 BYTE   Fs4
 BYTE   W03
 BYTE   Ds4
 BYTE   W03
 BYTE   Bn3
 BYTE   W03
 BYTE   N04  Bn4
 BYTE   W06
 BYTE   Fs4
 BYTE   W06
 BYTE   Ds4
 BYTE   W06
 BYTE   Gn4
 BYTE   W06
 BYTE   En4
 BYTE   W05
// 038   ----------------------------------------
 BYTE   W01
 BYTE   Bn3
 BYTE   W06
 BYTE   Gn3
 BYTE   W06
 BYTE   En3
 BYTE   W06
 BYTE   Bn2
 BYTE   W06
 BYTE   Dn4
 BYTE   W06
 BYTE   N03  Bn3
 BYTE   W03
 BYTE   Dn4
 BYTE   W03
 BYTE   Bn3
 BYTE   W03
 BYTE   Gs3
 BYTE   W03
 BYTE   N04  Fn3
 BYTE   W06
 BYTE   Gs3
 BYTE   W06
 BYTE   Bn3
 BYTE   W06
 BYTE   Cs4
 BYTE   W06
 BYTE   An3
 BYTE   W06
 BYTE   Fs3
 BYTE   W06
 BYTE   Fs4
 BYTE   W06
 BYTE   Cs4
 BYTE   W06
 BYTE   An3
 BYTE   W05
// 039   ----------------------------------------
 BYTE   W01
 BYTE   Cs4
 BYTE   W06
 BYTE   N03  Gs3
 BYTE   W03
 BYTE   Cs4
 BYTE   W03
 BYTE   Gs3
 BYTE   W03
 BYTE   Fn3
 BYTE   W03
 BYTE   N04  Fn4
 BYTE   W06
 BYTE   Cs4
 BYTE   W06
 BYTE   Gs3
 BYTE   W06
 BYTE   Fs3
 BYTE   W06
 BYTE   An3
 BYTE   W06
 BYTE   Cs4
 BYTE   W06
 BYTE   Fs4
 BYTE   W06
 BYTE   Cs4
 BYTE   W06
 BYTE   An3
 BYTE   W06
 BYTE   Bn3
 BYTE   W06
 BYTE   N03  Gs3
 BYTE   W03
 BYTE   Bn3
 BYTE   W03
 BYTE   Gs3
 BYTE   W03
 BYTE   En3
 BYTE   W03
 BYTE   N04  En4
 BYTE   W05
// 040   ----------------------------------------
 BYTE   W01
 BYTE   Bn3
 BYTE   W06
 BYTE   Gs3
 BYTE   W06
 BYTE   Cs4
 BYTE   W06
 BYTE   An3
 BYTE   W06
 BYTE   En3
 BYTE   W06
 BYTE   En4
 BYTE   W06
 BYTE   Cs4
 BYTE   W06
 BYTE   An3
 BYTE   W06
 BYTE   Cs4
 BYTE   W06
 BYTE   N03  As3
 BYTE   W03
 BYTE   Cs4
 BYTE   W03
 BYTE   As3
 BYTE   W03
 BYTE   Fs3
 BYTE   W03
 BYTE   N04  Fs4
 BYTE   W06
 BYTE   Cs4
 BYTE   W06
 BYTE   As3
 BYTE   W06
 BYTE   Dn4
 BYTE   W06
 BYTE   Bn3
 BYTE   W05
// 041   ----------------------------------------
 BYTE   W01
 BYTE   Fs3
 BYTE   W06
 BYTE   Fs4
 BYTE   W06
 BYTE   Dn4
 BYTE   W06
 BYTE   Bn3
 BYTE   W06
 BYTE   En4
 BYTE   W06
 BYTE   N03  Cs4
 BYTE   W03
 BYTE   En4
 BYTE   W03
 BYTE   Cs4
 BYTE   W03
 BYTE   An3
 BYTE   W03
 BYTE   N04  An4
 BYTE   W06
 BYTE   En4
 BYTE   W06
 BYTE   Cs4
 BYTE   W06
 BYTE   Fn4
 BYTE   W06
 BYTE   Dn4
 BYTE   W06
 BYTE   An3
 BYTE   W06
 BYTE   Fn3
 BYTE   W06
 BYTE   Dn3
 BYTE   W06
 BYTE   An2
 BYTE   W05
// 042   ----------------------------------------
 BYTE   W01
 BYTE   En3
 BYTE   W06
 BYTE   An3
 BYTE   W06
 BYTE   Bn3
 BYTE   W06
 BYTE   En4
 BYTE   W06
 BYTE   Bn3
 BYTE   W06
 BYTE   An3
 BYTE   W06
 BYTE   En3
 BYTE   W06
 BYTE   An3
 BYTE   W06
 BYTE   Bn3
 BYTE   W06
 BYTE   En4
 BYTE   W06
 BYTE   Bn3
 BYTE   W06
 BYTE   An3
 BYTE   W06
 BYTE   En3
 BYTE   W06
 BYTE   Gs3
 BYTE   W06
 BYTE   Bn3
 BYTE   W06
 BYTE   En4
 BYTE   W05
// 043   ----------------------------------------
 BYTE   W01
 BYTE   Bn3
 BYTE   W06
 BYTE   En4
 BYTE   W06
 BYTE   Gs4
 BYTE   W06
 BYTE   En4
 BYTE   W06
 BYTE   Gs4
 BYTE   W06
 BYTE   Bn4
 BYTE   W06
 BYTE   Gs4
 BYTE   W06
 BYTE   En4
 BYTE   W52
 BYTE   W01
// 044   ----------------------------------------
 BYTE   W96
// 045   ----------------------------------------
 BYTE   W96
// 046   ----------------------------------------
 BYTE   W96
// 047   ----------------------------------------
 BYTE   W96
// 048   ----------------------------------------
 BYTE   W96
// 049   ----------------------------------------
 BYTE   W96
// 050   ----------------------------------------
 BYTE   W96
// 051   ----------------------------------------
 BYTE   W96
// 052   ----------------------------------------
 BYTE   W96
// 053   ----------------------------------------
 BYTE   W96
// 054   ----------------------------------------
 BYTE   W96
// 055   ----------------------------------------
 BYTE   W44
 BYTE   W03
 BYTE   GoTo
  POIN2 Label_0_014ADCEA
 BYTE   FINE

//**************** Track 2 (Midi-Chn.1) ****************//

songE9_002:
// 000   ----------------------------------------
 BYTE   KEYSH   songE9_key+0
Label_1_014ADF8A:
 BYTE   VOICE   65
 BYTE   VOL   35*songE9_mvl/mxv
 BYTE   PAN   c_v+0
 BYTE   BEND   c_v+0
 BYTE   W96
// 001   ----------------------------------------
 BYTE   W96
// 002   ----------------------------------------
 BYTE   W96
// 003   ----------------------------------------
 BYTE   W96
// 004   ----------------------------------------
 BYTE   W96
// 005   ----------------------------------------
 BYTE   W96
// 006   ----------------------------------------
 BYTE   W96
// 007   ----------------------------------------
 BYTE   W96
// 008   ----------------------------------------
 BYTE   W96
// 009   ----------------------------------------
 BYTE   W96
// 010   ----------------------------------------
 BYTE   W96
// 011   ----------------------------------------
 BYTE   W96
// 012   ----------------------------------------
 BYTE   W01
 BYTE   N05  Gs3  v127
 BYTE   W06
 BYTE   An3
 BYTE   W06
 BYTE   Bn3
 BYTE   W06
 BYTE   N44  Cs4
 BYTE   W54
 BYTE   N32
 BYTE   W23
// 013   ----------------------------------------
 BYTE   W13
 BYTE   Bn3
 BYTE   W36
 BYTE   N32
 BYTE   W36
 BYTE   N11  Fs3
 BYTE   W11
// 014   ----------------------------------------
 BYTE   W01
 BYTE   Gs3
 BYTE   W12
 BYTE   An3
 BYTE   W12
 BYTE   N32  Bn3
 BYTE   W36
 BYTE   N28  En4
 BYTE   W32
 BYTE   W03
// 015   ----------------------------------------
 BYTE   W01
 BYTE   N32
 BYTE   W36
 BYTE   N28  Dn4
 BYTE   W36
 BYTE   N28
 BYTE   W23
// 016   ----------------------------------------
 BYTE   W13
 BYTE   N11  Cn4
 BYTE   W12
 BYTE   Bn3
 BYTE   W12
 BYTE   An3
 BYTE   W12
 BYTE   TIE  Bn3
 BYTE   W44
 BYTE   W03
// 017   ----------------------------------------
 BYTE   W84
 BYTE   EOT
 BYTE   W12
// 018   ----------------------------------------
 BYTE   W01
 BYTE   N05  En3
 BYTE   N05  Gs3
 BYTE   W06
 BYTE   Fs3
 BYTE   N05  An3
 BYTE   W06
 BYTE   Gs3
 BYTE   N05  Bn3
 BYTE   W06
 BYTE   N44  An3
 BYTE   N44  Cs4
 BYTE   W54
 BYTE   N32  Gs3
 BYTE   N32  Cs4
 BYTE   W23
// 019   ----------------------------------------
 BYTE   W13
 BYTE   N28  Gs3
 BYTE   N28  Bn3
 BYTE   W36
 BYTE   Fs3
 BYTE   N28  Bn3
 BYTE   W36
 BYTE   N11  Ds3
 BYTE   N11  Fs3
 BYTE   W11
// 020   ----------------------------------------
 BYTE   W01
 BYTE   En3
 BYTE   N11  Gs3
 BYTE   W12
 BYTE   Fs3
 BYTE   N11  An3
 BYTE   W12
 BYTE   N32  Gn3
 BYTE   N32  Bn3
 BYTE   W36
 BYTE   N28
 BYTE   N28  En4
 BYTE   W32
 BYTE   W03
// 021   ----------------------------------------
 BYTE   W01
 BYTE   An3
 BYTE   N28  En4
 BYTE   W36
 BYTE   An3
 BYTE   N28  Dn4
 BYTE   W36
 BYTE   Gn3
 BYTE   N28  Dn4
 BYTE   W23
// 022   ----------------------------------------
 BYTE   W13
 BYTE   N11  Gn3
 BYTE   N11  Cn4
 BYTE   W12
 BYTE   Gn3
 BYTE   N11  Bn3
 BYTE   W12
 BYTE   Gn3
 BYTE   N11  An3
 BYTE   W12
 BYTE   N68  En3
 BYTE   TIE  Bn3
 BYTE   W44
 BYTE   W03
// 023   ----------------------------------------
 BYTE   W24
 BYTE   W01
 BYTE   N68  Ds3
 BYTE   W68
 BYTE   W02
 BYTE   EOT
 BYTE   Bn3
 BYTE   W01
// 024   ----------------------------------------
 BYTE   W96
// 025   ----------------------------------------
 BYTE   W96
// 026   ----------------------------------------
 BYTE   W96
// 027   ----------------------------------------
 BYTE   W96
// 028   ----------------------------------------
 BYTE   W96
// 029   ----------------------------------------
 BYTE   W96
// 030   ----------------------------------------
 BYTE   W96
// 031   ----------------------------------------
 BYTE   W96
// 032   ----------------------------------------
 BYTE   W96
// 033   ----------------------------------------
 BYTE   W96
// 034   ----------------------------------------
 BYTE   W96
// 035   ----------------------------------------
 BYTE   W96
// 036   ----------------------------------------
 BYTE   W96
// 037   ----------------------------------------
 BYTE   W96
// 038   ----------------------------------------
 BYTE   W96
// 039   ----------------------------------------
 BYTE   W96
// 040   ----------------------------------------
 BYTE   W96
// 041   ----------------------------------------
 BYTE   W96
// 042   ----------------------------------------
 BYTE   W96
// 043   ----------------------------------------
 BYTE   W48
 BYTE   W01
 BYTE   N05  Gs3
 BYTE   W06
 BYTE   An3
 BYTE   W06
 BYTE   Bn3
 BYTE   W06
 BYTE   N44  Cs4
 BYTE   W28
 BYTE   W01
// 044   ----------------------------------------
 BYTE   W24
 BYTE   W01
 BYTE   N32
 BYTE   W36
 BYTE   Bn3
 BYTE   W32
 BYTE   W03
// 045   ----------------------------------------
 BYTE   W01
 BYTE   N32
 BYTE   W36
 BYTE   N11  Fs3
 BYTE   W12
 BYTE   Gs3
 BYTE   W12
 BYTE   An3
 BYTE   W12
 BYTE   N32  Bn3
 BYTE   W23
// 046   ----------------------------------------
 BYTE   W13
 BYTE   N28  En4
 BYTE   W36
 BYTE   N32
 BYTE   W36
 BYTE   N28  Dn4
 BYTE   W11
// 047   ----------------------------------------
 BYTE   W24
 BYTE   W01
 BYTE   N28
 BYTE   W36
 BYTE   N11  Cn4
 BYTE   W12
 BYTE   Bn3
 BYTE   W12
 BYTE   An3
 BYTE   W11
// 048   ----------------------------------------
 BYTE   W01
 BYTE   TIE  Bn3
 BYTE   W92
 BYTE   W03
// 049   ----------------------------------------
 BYTE   W36
 BYTE   EOT
 BYTE   W13
 BYTE   N05  En3
 BYTE   N05  Gs3
 BYTE   W06
 BYTE   Fs3
 BYTE   N05  An3
 BYTE   W06
 BYTE   Gs3
 BYTE   N05  Bn3
 BYTE   W06
 BYTE   N44  An3
 BYTE   N44  Cs4
 BYTE   W28
 BYTE   W01
// 050   ----------------------------------------
 BYTE   W24
 BYTE   W01
 BYTE   N32  Gs3
 BYTE   N32  Cs4
 BYTE   W36
 BYTE   N28  Gs3
 BYTE   N28  Bn3
 BYTE   W32
 BYTE   W03
// 051   ----------------------------------------
 BYTE   W01
 BYTE   Fs3
 BYTE   N28  Bn3
 BYTE   W36
 BYTE   N11  Ds3
 BYTE   N11  Fs3
 BYTE   W12
 BYTE   En3
 BYTE   N11  Gs3
 BYTE   W12
 BYTE   Fs3
 BYTE   N11  An3
 BYTE   W12
 BYTE   N32  Gn3
 BYTE   N32  Bn3
 BYTE   W23
// 052   ----------------------------------------
 BYTE   W13
 BYTE   N28
 BYTE   N28  En4
 BYTE   W36
 BYTE   An3
 BYTE   N28  En4
 BYTE   W36
 BYTE   An3
 BYTE   N28  Dn4
 BYTE   W11
// 053   ----------------------------------------
 BYTE   W24
 BYTE   W01
 BYTE   Gn3
 BYTE   N28  Dn4
 BYTE   W36
 BYTE   N11  Gn3
 BYTE   N11  Cn4
 BYTE   W12
 BYTE   Gn3
 BYTE   N11  Bn3
 BYTE   W12
 BYTE   Gn3
 BYTE   N11  An3
 BYTE   W11
// 054   ----------------------------------------
 BYTE   W01
 BYTE   N68  En3
 BYTE   TIE  Bn3
 BYTE   W72
 BYTE   N68  Ds3
 BYTE   W23
// 055   ----------------------------------------
 BYTE   W44
 BYTE   W03
 BYTE   EOT
 BYTE   Bn3
 BYTE   GoTo
  POIN2 Label_1_014ADF8A
 BYTE   FINE

//**************** Track 3 (Midi-Chn.2) ****************//

songE9_003:
// 000   ----------------------------------------
 BYTE   KEYSH   songE9_key+0
Label_2_014AE0F7:
 BYTE   VOICE   33
 BYTE   VOL   39*songE9_mvl/mxv
 BYTE   PAN   c_v+0
 BYTE   BEND   c_v+0
 BYTE   W01
 BYTE   N11  An0  v127
 BYTE   W12
 BYTE   N04
 BYTE   W06
 BYTE   An1
 BYTE   W06
 BYTE   N11  An0
 BYTE   W12
 BYTE   N04
 BYTE   W06
 BYTE   N04
 BYTE   W06
 BYTE   N04
 BYTE   W06
 BYTE   An1
 BYTE   W06
 BYTE   N11  An0
 BYTE   W12
 BYTE   N11
 BYTE   W12
 BYTE   N04
 BYTE   W06
 BYTE   An1
 BYTE   W05
// 001   ----------------------------------------
Label_2_014AE11C:
 BYTE   W01
 BYTE   N11  An0  v127
 BYTE   W12
 BYTE   N11
 BYTE   W12
 BYTE   N04
 BYTE   W06
 BYTE   An1
 BYTE   W06
 BYTE   N11  An0
 BYTE   W12
 BYTE   N11
 BYTE   W12
 BYTE   N04
 BYTE   W06
 BYTE   An1
 BYTE   W06
 BYTE   N11  An0
 BYTE   W12
 BYTE   N04
 BYTE   W06
 BYTE   N04
 BYTE   W05
 BYTE   PEND 
// 002   ----------------------------------------
Label_2_014AE138:
 BYTE   W01
 BYTE   N04  An0  v127
 BYTE   W06
 BYTE   An1
 BYTE   W06
 BYTE   N11  An0
 BYTE   W12
 BYTE   N11
 BYTE   W12
 BYTE   N04
 BYTE   W06
 BYTE   An1
 BYTE   W06
 BYTE   N11  An0
 BYTE   W12
 BYTE   N11
 BYTE   W12
 BYTE   N04
 BYTE   W06
 BYTE   An1
 BYTE   W06
 BYTE   N11  An0
 BYTE   W11
 BYTE   PEND 
// 003   ----------------------------------------
Label_2_014AE155:
 BYTE   W01
 BYTE   N11  Fn0  v127
 BYTE   W12
 BYTE   N04
 BYTE   W06
 BYTE   Fn1
 BYTE   W06
 BYTE   N11  Fn0
 BYTE   W12
 BYTE   N04
 BYTE   W06
 BYTE   Fn1
 BYTE   W06
 BYTE   Fn0
 BYTE   W06
 BYTE   Fn1
 BYTE   W06
 BYTE   N11  Fn0
 BYTE   W12
 BYTE   N11
 BYTE   W12
 BYTE   N04
 BYTE   W06
 BYTE   Fn1
 BYTE   W05
 BYTE   PEND 
// 004   ----------------------------------------
Label_2_014AE173:
 BYTE   W01
 BYTE   N11  Fn0  v127
 BYTE   W12
 BYTE   N11
 BYTE   W12
 BYTE   N04
 BYTE   W06
 BYTE   Fn1
 BYTE   W06
 BYTE   N11  Fn0
 BYTE   W12
 BYTE   Dn0
 BYTE   W12
 BYTE   N04
 BYTE   W06
 BYTE   Dn1
 BYTE   W06
 BYTE   N11  Dn0
 BYTE   W12
 BYTE   N11
 BYTE   W11
 BYTE   PEND 
// 005   ----------------------------------------
Label_2_014AE18D:
 BYTE   W01
 BYTE   N04  Dn0  v127
 BYTE   W06
 BYTE   Dn1
 BYTE   W06
 BYTE   N11  Dn0
 BYTE   W12
 BYTE   En0
 BYTE   W12
 BYTE   N04
 BYTE   W06
 BYTE   En1
 BYTE   W06
 BYTE   N11  En0
 BYTE   W12
 BYTE   N11
 BYTE   W12
 BYTE   N04
 BYTE   W06
 BYTE   En1
 BYTE   W06
 BYTE   N11  En0
 BYTE   W11
 BYTE   PEND 
// 006   ----------------------------------------
Label_2_014AE1AA:
 BYTE   W01
 BYTE   N11  An0  v127
 BYTE   W12
 BYTE   N04
 BYTE   W06
 BYTE   An1
 BYTE   W06
 BYTE   N11  An0
 BYTE   W12
 BYTE   N11
 BYTE   W12
 BYTE   N04
 BYTE   W06
 BYTE   An1
 BYTE   W06
 BYTE   N11  An0
 BYTE   W12
 BYTE   Gn0
 BYTE   W12
 BYTE   N04
 BYTE   W06
 BYTE   Gn1
 BYTE   W05
 BYTE   PEND 
// 007   ----------------------------------------
Label_2_014AE1C6:
 BYTE   W01
 BYTE   N11  Gn0  v127
 BYTE   W12
 BYTE   En0
 BYTE   W12
 BYTE   N04
 BYTE   W06
 BYTE   En1
 BYTE   W06
 BYTE   N11  En0
 BYTE   W12
 BYTE   Fn0
 BYTE   W12
 BYTE   N04
 BYTE   W06
 BYTE   Fn1
 BYTE   W06
 BYTE   N11  Fn0
 BYTE   W12
 BYTE   N11
 BYTE   W11
 BYTE   PEND 
// 008   ----------------------------------------
Label_2_014AE1E0:
 BYTE   W01
 BYTE   N04  Fn0  v127
 BYTE   W06
 BYTE   Fn1
 BYTE   W06
 BYTE   N11  Fn0
 BYTE   W12
 BYTE   Dn0
 BYTE   W12
 BYTE   N04
 BYTE   W06
 BYTE   Dn1
 BYTE   W06
 BYTE   N11  Dn0
 BYTE   W12
 BYTE   En0
 BYTE   W12
 BYTE   N04
 BYTE   W06
 BYTE   En1
 BYTE   W06
 BYTE   N11  En0
 BYTE   W11
 BYTE   PEND 
// 009   ----------------------------------------
Label_2_014AE1FD:
 BYTE   W01
 BYTE   N11  Fn0  v127
 BYTE   W12
 BYTE   N04
 BYTE   W06
 BYTE   Fn1
 BYTE   W06
 BYTE   N11  Fn0
 BYTE   W12
 BYTE   N11
 BYTE   W12
 BYTE   N04
 BYTE   W06
 BYTE   Fn1
 BYTE   W06
 BYTE   N11  Fn0
 BYTE   W12
 BYTE   Dn0
 BYTE   W12
 BYTE   N04
 BYTE   W06
 BYTE   Dn1
 BYTE   W05
 BYTE   PEND 
// 010   ----------------------------------------
Label_2_014AE219:
 BYTE   W01
 BYTE   N11  Dn0  v127
 BYTE   W12
 BYTE   N11
 BYTE   W12
 BYTE   N04
 BYTE   W06
 BYTE   Dn1
 BYTE   W06
 BYTE   N11  Dn0
 BYTE   W12
 BYTE   En0
 BYTE   W12
 BYTE   N04
 BYTE   W06
 BYTE   En1
 BYTE   W06
 BYTE   N11  En0
 BYTE   W12
 BYTE   N11
 BYTE   W11
 BYTE   PEND 
// 011   ----------------------------------------
Label_2_014AE233:
 BYTE   W01
 BYTE   N04  En0  v127
 BYTE   W06
 BYTE   En1
 BYTE   W06
 BYTE   N11  En0
 BYTE   W12
 BYTE   N04
 BYTE   W06
 BYTE   En1
 BYTE   W06
 BYTE   En0
 BYTE   W06
 BYTE   An1
 BYTE   W06
 BYTE   Gs1
 BYTE   W06
 BYTE   En1
 BYTE   W06
 BYTE   Dn1
 BYTE   W06
 BYTE   Cn1
 BYTE   W06
 BYTE   Bn0
 BYTE   W06
 BYTE   An0
 BYTE   W06
 BYTE   Gs0
 BYTE   W06
 BYTE   En0
 BYTE   W05
 BYTE   PEND 
// 012   ----------------------------------------
Label_2_014AE256:
 BYTE   W01
 BYTE   N11  Fs0  v127
 BYTE   W12
 BYTE   N04
 BYTE   W06
 BYTE   Fs1
 BYTE   W06
 BYTE   N11  Fs0
 BYTE   W12
 BYTE   N11
 BYTE   W12
 BYTE   N04
 BYTE   W06
 BYTE   Fs1
 BYTE   W06
 BYTE   N11  Fs0
 BYTE   W12
 BYTE   En0
 BYTE   W12
 BYTE   N04
 BYTE   W06
 BYTE   En1
 BYTE   W05
 BYTE   PEND 
// 013   ----------------------------------------
Label_2_014AE272:
 BYTE   W01
 BYTE   N11  En0  v127
 BYTE   W12
 BYTE   N11
 BYTE   W12
 BYTE   N04
 BYTE   W06
 BYTE   En1
 BYTE   W06
 BYTE   N11  En0
 BYTE   W12
 BYTE   Bn0
 BYTE   W12
 BYTE   N04
 BYTE   W06
 BYTE   Bn1
 BYTE   W06
 BYTE   N11  Bn0
 BYTE   W12
 BYTE   N11
 BYTE   W11
 BYTE   PEND 
// 014   ----------------------------------------
Label_2_014AE28C:
 BYTE   W01
 BYTE   N04  Bn0  v127
 BYTE   W06
 BYTE   Bn1
 BYTE   W06
 BYTE   N11  Bn0
 BYTE   W12
 BYTE   En0
 BYTE   W12
 BYTE   N04
 BYTE   W06
 BYTE   En1
 BYTE   W06
 BYTE   N11  En0
 BYTE   W12
 BYTE   N11
 BYTE   W12
 BYTE   N04
 BYTE   W06
 BYTE   En1
 BYTE   W06
 BYTE   N11  En0
 BYTE   W11
 BYTE   PEND 
// 015   ----------------------------------------
Label_2_014AE2A9:
 BYTE   W01
 BYTE   N11  Dn0  v127
 BYTE   W12
 BYTE   N04
 BYTE   W06
 BYTE   Dn1
 BYTE   W06
 BYTE   N11  Dn0
 BYTE   W12
 BYTE   N11
 BYTE   W12
 BYTE   N04
 BYTE   W06
 BYTE   Dn1
 BYTE   W06
 BYTE   N11  Dn0
 BYTE   W12
 BYTE   Cn1
 BYTE   W12
 BYTE   N04
 BYTE   W06
 BYTE   Gn0
 BYTE   W05
 BYTE   PEND 
// 016   ----------------------------------------
Label_2_014AE2C5:
 BYTE   W01
 BYTE   N11  Cn1  v127
 BYTE   W12
 BYTE   N11
 BYTE   W12
 BYTE   N04
 BYTE   W06
 BYTE   Cn2
 BYTE   W06
 BYTE   N11  Cn1
 BYTE   W12
 BYTE   Bn0
 BYTE   W12
 BYTE   N04
 BYTE   W06
 BYTE   Bn1
 BYTE   W06
 BYTE   N11  Bn0
 BYTE   W12
 BYTE   N11
 BYTE   W11
 BYTE   PEND 
// 017   ----------------------------------------
Label_2_014AE2DF:
 BYTE   W01
 BYTE   N04  Bn0  v127
 BYTE   W06
 BYTE   Bn1
 BYTE   W06
 BYTE   N11  Bn0
 BYTE   W12
 BYTE   N11
 BYTE   W12
 BYTE   N04
 BYTE   W06
 BYTE   Bn1
 BYTE   W06
 BYTE   N11  Bn0
 BYTE   W12
 BYTE   N11
 BYTE   W12
 BYTE   N04
 BYTE   W06
 BYTE   Bn1
 BYTE   W06
 BYTE   N11  Bn0
 BYTE   W11
 BYTE   PEND 
// 018   ----------------------------------------
 BYTE   PATT
  POIN2 Label_2_014AE256
// 019   ----------------------------------------
 BYTE   PATT
  POIN2 Label_2_014AE272
// 020   ----------------------------------------
 BYTE   PATT
  POIN2 Label_2_014AE28C
// 021   ----------------------------------------
 BYTE   PATT
  POIN2 Label_2_014AE2A9
// 022   ----------------------------------------
 BYTE   PATT
  POIN2 Label_2_014AE2C5
// 023   ----------------------------------------
 BYTE   PATT
  POIN2 Label_2_014AE2DF
// 024   ----------------------------------------
 BYTE   W01
 BYTE   N11  An0  v127
 BYTE   W12
 BYTE   N04
 BYTE   W06
 BYTE   An1
 BYTE   W06
 BYTE   N11  An0
 BYTE   W12
 BYTE   N04
 BYTE   W06
 BYTE   N04
 BYTE   W06
 BYTE   N04
 BYTE   W06
 BYTE   An1
 BYTE   W06
 BYTE   N11  An0
 BYTE   W12
 BYTE   N11
 BYTE   W12
 BYTE   N04
 BYTE   W06
 BYTE   An1
 BYTE   W05
// 025   ----------------------------------------
 BYTE   PATT
  POIN2 Label_2_014AE11C
// 026   ----------------------------------------
 BYTE   PATT
  POIN2 Label_2_014AE138
// 027   ----------------------------------------
 BYTE   PATT
  POIN2 Label_2_014AE155
// 028   ----------------------------------------
 BYTE   PATT
  POIN2 Label_2_014AE173
// 029   ----------------------------------------
 BYTE   PATT
  POIN2 Label_2_014AE18D
// 030   ----------------------------------------
 BYTE   PATT
  POIN2 Label_2_014AE1AA
// 031   ----------------------------------------
 BYTE   PATT
  POIN2 Label_2_014AE1C6
// 032   ----------------------------------------
 BYTE   PATT
  POIN2 Label_2_014AE1E0
// 033   ----------------------------------------
 BYTE   PATT
  POIN2 Label_2_014AE1FD
// 034   ----------------------------------------
 BYTE   PATT
  POIN2 Label_2_014AE219
// 035   ----------------------------------------
 BYTE   PATT
  POIN2 Label_2_014AE233
// 036   ----------------------------------------
 BYTE   W01
 BYTE   N11  An0  v127
 BYTE   W12
 BYTE   N04
 BYTE   W06
 BYTE   An1
 BYTE   W06
 BYTE   En1
 BYTE   W06
 BYTE   An0
 BYTE   W06
 BYTE   N11  Gs0
 BYTE   W12
 BYTE   N04
 BYTE   W06
 BYTE   Gs1
 BYTE   W06
 BYTE   Gs0
 BYTE   W06
 BYTE   Gs1
 BYTE   W06
 BYTE   N11  An0
 BYTE   W12
 BYTE   N04
 BYTE   W06
 BYTE   An1
 BYTE   W05
// 037   ----------------------------------------
 BYTE   W01
 BYTE   En1
 BYTE   W06
 BYTE   An1
 BYTE   W06
 BYTE   N11  Dn0
 BYTE   W12
 BYTE   N04
 BYTE   W06
 BYTE   Dn1
 BYTE   W06
 BYTE   An0
 BYTE   W06
 BYTE   Dn1
 BYTE   W06
 BYTE   N11  Ds0
 BYTE   W12
 BYTE   N04
 BYTE   W06
 BYTE   Ds1
 BYTE   W06
 BYTE   Bn0
 BYTE   W06
 BYTE   Ds1
 BYTE   W06
 BYTE   N11  En0
 BYTE   W11
// 038   ----------------------------------------
 BYTE   W01
 BYTE   N04
 BYTE   W06
 BYTE   En1
 BYTE   W06
 BYTE   Bn0
 BYTE   W06
 BYTE   En1
 BYTE   W06
 BYTE   N11  Fn0
 BYTE   W12
 BYTE   N04
 BYTE   W06
 BYTE   Fn1
 BYTE   W06
 BYTE   Dn1
 BYTE   W06
 BYTE   Bn0
 BYTE   W06
 BYTE   N11  Fs0
 BYTE   W12
 BYTE   N04
 BYTE   W06
 BYTE   Fs1
 BYTE   W06
 BYTE   Cs1
 BYTE   W06
 BYTE   Fs1
 BYTE   W05
// 039   ----------------------------------------
 BYTE   W01
 BYTE   N11  Fn0
 BYTE   W12
 BYTE   N04
 BYTE   W06
 BYTE   Fn1
 BYTE   W06
 BYTE   Cs1
 BYTE   W06
 BYTE   Fn1
 BYTE   W06
 BYTE   N11  Fs0
 BYTE   W12
 BYTE   N04
 BYTE   W06
 BYTE   Fs1
 BYTE   W06
 BYTE   Cs1
 BYTE   W06
 BYTE   Fs1
 BYTE   W06
 BYTE   N11  Gs0
 BYTE   W12
 BYTE   N04
 BYTE   W06
 BYTE   Gs1
 BYTE   W05
// 040   ----------------------------------------
 BYTE   W01
 BYTE   En1
 BYTE   W06
 BYTE   Gs1
 BYTE   W06
 BYTE   N11  An0
 BYTE   W12
 BYTE   N04
 BYTE   W06
 BYTE   An1
 BYTE   W06
 BYTE   En1
 BYTE   W06
 BYTE   An1
 BYTE   W06
 BYTE   N11  As0
 BYTE   W12
 BYTE   N04
 BYTE   W06
 BYTE   As1
 BYTE   W06
 BYTE   As0
 BYTE   W06
 BYTE   As1
 BYTE   W06
 BYTE   N11  Bn0
 BYTE   W11
// 041   ----------------------------------------
 BYTE   W01
 BYTE   N04
 BYTE   W06
 BYTE   Bn1
 BYTE   W06
 BYTE   Fs1
 BYTE   W06
 BYTE   Bn1
 BYTE   W06
 BYTE   N11  An0
 BYTE   W12
 BYTE   N04
 BYTE   W06
 BYTE   An1
 BYTE   W06
 BYTE   An0
 BYTE   W06
 BYTE   N04
 BYTE   W06
 BYTE   N11  Dn1
 BYTE   W12
 BYTE   N04
 BYTE   W06
 BYTE   Dn2
 BYTE   W06
 BYTE   An1
 BYTE   W06
 BYTE   Dn1
 BYTE   W05
// 042   ----------------------------------------
 BYTE   W01
 BYTE   N11  En0
 BYTE   W12
 BYTE   N04
 BYTE   W06
 BYTE   En1
 BYTE   W06
 BYTE   En0
 BYTE   W06
 BYTE   N04
 BYTE   W06
 BYTE   N11
 BYTE   W12
 BYTE   N04
 BYTE   W06
 BYTE   En1
 BYTE   W06
 BYTE   En0
 BYTE   W06
 BYTE   N04
 BYTE   W06
 BYTE   N11
 BYTE   W12
 BYTE   N04
 BYTE   W06
 BYTE   En1
 BYTE   W05
// 043   ----------------------------------------
 BYTE   W01
 BYTE   En0
 BYTE   W06
 BYTE   N04
 BYTE   W06
 BYTE   N11
 BYTE   W12
 BYTE   N04
 BYTE   W06
 BYTE   En1
 BYTE   W06
 BYTE   En0
 BYTE   W06
 BYTE   N04
 BYTE   W06
 BYTE   N11  Fs0
 BYTE   W12
 BYTE   N04
 BYTE   W06
 BYTE   Fs1
 BYTE   W06
 BYTE   N11  Fs0
 BYTE   W12
 BYTE   N11
 BYTE   W11
// 044   ----------------------------------------
Label_2_014AE45C:
 BYTE   W01
 BYTE   N04  Fs0  v127
 BYTE   W06
 BYTE   Fs1
 BYTE   W06
 BYTE   N11  Fs0
 BYTE   W12
 BYTE   En0
 BYTE   W12
 BYTE   N04
 BYTE   W06
 BYTE   En1
 BYTE   W06
 BYTE   N11  En0
 BYTE   W12
 BYTE   N11
 BYTE   W12
 BYTE   N04
 BYTE   W06
 BYTE   En1
 BYTE   W06
 BYTE   N11  En0
 BYTE   W11
 BYTE   PEND 
// 045   ----------------------------------------
Label_2_014AE479:
 BYTE   W01
 BYTE   N11  Bn0  v127
 BYTE   W12
 BYTE   N04
 BYTE   W06
 BYTE   Bn1
 BYTE   W06
 BYTE   N11  Bn0
 BYTE   W12
 BYTE   N11
 BYTE   W12
 BYTE   N04
 BYTE   W06
 BYTE   Bn1
 BYTE   W06
 BYTE   N11  Bn0
 BYTE   W12
 BYTE   En0
 BYTE   W12
 BYTE   N04
 BYTE   W06
 BYTE   En1
 BYTE   W05
 BYTE   PEND 
// 046   ----------------------------------------
Label_2_014AE495:
 BYTE   W01
 BYTE   N11  En0  v127
 BYTE   W12
 BYTE   N11
 BYTE   W12
 BYTE   N04
 BYTE   W06
 BYTE   En1
 BYTE   W06
 BYTE   N11  En0
 BYTE   W12
 BYTE   Dn0
 BYTE   W12
 BYTE   N04
 BYTE   W06
 BYTE   Dn1
 BYTE   W06
 BYTE   N11  Dn0
 BYTE   W12
 BYTE   N11
 BYTE   W11
 BYTE   PEND 
// 047   ----------------------------------------
Label_2_014AE4AF:
 BYTE   W01
 BYTE   N04  Dn0  v127
 BYTE   W06
 BYTE   Dn1
 BYTE   W06
 BYTE   N11  Dn0
 BYTE   W12
 BYTE   Cn1
 BYTE   W12
 BYTE   N04
 BYTE   W06
 BYTE   Gn0
 BYTE   W06
 BYTE   N11  Cn1
 BYTE   W12
 BYTE   N11
 BYTE   W12
 BYTE   N04
 BYTE   W06
 BYTE   Cn2
 BYTE   W06
 BYTE   N11  Cn1
 BYTE   W11
 BYTE   PEND 
// 048   ----------------------------------------
Label_2_014AE4CC:
 BYTE   W01
 BYTE   N11  Bn0  v127
 BYTE   W12
 BYTE   N04
 BYTE   W06
 BYTE   Bn1
 BYTE   W06
 BYTE   N11  Bn0
 BYTE   W12
 BYTE   N11
 BYTE   W12
 BYTE   N04
 BYTE   W06
 BYTE   Bn1
 BYTE   W06
 BYTE   N11  Bn0
 BYTE   W12
 BYTE   N11
 BYTE   W12
 BYTE   N04
 BYTE   W06
 BYTE   Bn1
 BYTE   W05
 BYTE   PEND 
// 049   ----------------------------------------
 BYTE   W01
 BYTE   N11  Bn0
 BYTE   W12
 BYTE   N11
 BYTE   W12
 BYTE   N04
 BYTE   W06
 BYTE   Bn1
 BYTE   W06
 BYTE   N11  Bn0
 BYTE   W12
 BYTE   Fs0
 BYTE   W12
 BYTE   N04
 BYTE   W06
 BYTE   Fs1
 BYTE   W06
 BYTE   N11  Fs0
 BYTE   W12
 BYTE   N11
 BYTE   W11
// 050   ----------------------------------------
 BYTE   PATT
  POIN2 Label_2_014AE45C
// 051   ----------------------------------------
 BYTE   PATT
  POIN2 Label_2_014AE479
// 052   ----------------------------------------
 BYTE   PATT
  POIN2 Label_2_014AE495
// 053   ----------------------------------------
 BYTE   PATT
  POIN2 Label_2_014AE4AF
// 054   ----------------------------------------
 BYTE   PATT
  POIN2 Label_2_014AE4CC
// 055   ----------------------------------------
 BYTE   W01
 BYTE   N11  Bn0  v127
 BYTE   W12
 BYTE   N11
 BYTE   W12
 BYTE   N04
 BYTE   W06
 BYTE   Bn1
 BYTE   W06
 BYTE   N10  Bn0
 BYTE   W10
 BYTE   GoTo
  POIN2 Label_2_014AE0F7
 BYTE   FINE

//**************** Track 4 (Midi-Chn.3) ****************//

songE9_004:
// 000   ----------------------------------------
 BYTE   KEYSH   songE9_key+0
Label_3_014AE52F:
 BYTE   VOICE   48
 BYTE   VOL   14*songE9_mvl/mxv
 BYTE   PAN   c_v+0
 BYTE   BEND   c_v+0
 BYTE   W01
 BYTE   TIE  An2  v127
 BYTE   TIE  Cn3
 BYTE   TIE  En3
 BYTE   W92
 BYTE   W03
// 001   ----------------------------------------
 BYTE   W11
 BYTE   EOT
 BYTE   An2  v060
 BYTE   En3
 BYTE   W02
 BYTE   N32  Gs2
 BYTE   N32  Bn2
 BYTE   N32  En3
 BYTE   W36
 BYTE   N68  An2
 BYTE   N68  Cn3
 BYTE   N68  En3
 BYTE   W44
 BYTE   W03
// 002   ----------------------------------------
Label_3_014AE556:
 BYTE   W24
 BYTE   W01
 BYTE   N32  An2  v127
 BYTE   N32  Dn3
 BYTE   N32  Fn3
 BYTE   W36
 BYTE   Gs2
 BYTE   N32  Bn2
 BYTE   N32  En3
 BYTE   W32
 BYTE   W03
 BYTE   PEND 
// 003   ----------------------------------------
Label_3_014AE568:
 BYTE   W01
 BYTE   N68  An2  v127
 BYTE   N68  Cn3
 BYTE   N68  Fn3
 BYTE   W72
 BYTE   Cn3
 BYTE   N68  Fn3
 BYTE   N68  An3
 BYTE   W23
 BYTE   PEND 
// 004   ----------------------------------------
Label_3_014AE578:
 BYTE   W48
 BYTE   W01
 BYTE   N68  An2  v127
 BYTE   N68  Dn3
 BYTE   N68  Fn3
 BYTE   W44
 BYTE   W03
 BYTE   PEND 
// 005   ----------------------------------------
Label_3_014AE584:
 BYTE   W24
 BYTE   W01
 BYTE   N68  Gs2  v127
 BYTE   N68  Bn2
 BYTE   N68  En3
 BYTE   W68
 BYTE   W03
 BYTE   PEND 
// 006   ----------------------------------------
Label_3_014AE590:
 BYTE   W01
 BYTE   N68  An2  v127
 BYTE   N68  Cn3
 BYTE   N68  En3
 BYTE   W72
 BYTE   N32  Bn2
 BYTE   N32  Dn3
 BYTE   N32  Gn3
 BYTE   W23
 BYTE   PEND 
// 007   ----------------------------------------
Label_3_014AE5A1:
 BYTE   W13
 BYTE   N32  Bn2  v127
 BYTE   N32  En3
 BYTE   N32  Gs3
 BYTE   W36
 BYTE   Cn3
 BYTE   N32  Fn3
 BYTE   N32  An3
 BYTE   W36
 BYTE   An2
 BYTE   N32  Cn3
 BYTE   N32  Fn3
 BYTE   W11
 BYTE   PEND 
// 008   ----------------------------------------
Label_3_014AE5B7:
 BYTE   W24
 BYTE   W01
 BYTE   N32  An2  v127
 BYTE   N32  Dn3
 BYTE   N32  Fn3
 BYTE   W36
 BYTE   Bn2
 BYTE   N32  En3
 BYTE   N32  Gs3
 BYTE   W32
 BYTE   W03
 BYTE   PEND 
// 009   ----------------------------------------
Label_3_014AE5C9:
 BYTE   W01
 BYTE   N68  An2  v127
 BYTE   N68  Cn3
 BYTE   N68  Fn3
 BYTE   W72
 BYTE   An2
 BYTE   N68  Dn3
 BYTE   N68  Fn3
 BYTE   W23
 BYTE   PEND 
// 010   ----------------------------------------
Label_3_014AE5D9:
 BYTE   W48
 BYTE   W01
 BYTE   N68  Bn2  v127
 BYTE   N68  En3
 BYTE   N68  An3
 BYTE   W44
 BYTE   W03
 BYTE   PEND 
// 011   ----------------------------------------
Label_3_014AE5E5:
 BYTE   W24
 BYTE   W01
 BYTE   N68  Bn2  v127
 BYTE   N68  En3
 BYTE   N68  Gs3
 BYTE   W68
 BYTE   W03
 BYTE   PEND 
// 012   ----------------------------------------
 BYTE   W96
// 013   ----------------------------------------
 BYTE   W96
// 014   ----------------------------------------
 BYTE   W96
// 015   ----------------------------------------
 BYTE   W96
// 016   ----------------------------------------
 BYTE   W96
// 017   ----------------------------------------
 BYTE   W96
// 018   ----------------------------------------
 BYTE   W96
// 019   ----------------------------------------
 BYTE   W96
// 020   ----------------------------------------
 BYTE   W96
// 021   ----------------------------------------
 BYTE   W96
// 022   ----------------------------------------
 BYTE   W96
// 023   ----------------------------------------
 BYTE   W96
// 024   ----------------------------------------
 BYTE   W01
 BYTE   TIE  An2
 BYTE   TIE  Cn3
 BYTE   TIE  En3
 BYTE   W92
 BYTE   W03
// 025   ----------------------------------------
 BYTE   W11
 BYTE   EOT
 BYTE   An2  v060
 BYTE   En3
 BYTE   W02
 BYTE   N32  Gs2
 BYTE   N32  Bn2
 BYTE   N32  En3
 BYTE   W36
 BYTE   N68  An2
 BYTE   N68  Cn3
 BYTE   N68  En3
 BYTE   W44
 BYTE   W03
// 026   ----------------------------------------
 BYTE   PATT
  POIN2 Label_3_014AE556
// 027   ----------------------------------------
 BYTE   PATT
  POIN2 Label_3_014AE568
// 028   ----------------------------------------
 BYTE   PATT
  POIN2 Label_3_014AE578
// 029   ----------------------------------------
 BYTE   PATT
  POIN2 Label_3_014AE584
// 030   ----------------------------------------
 BYTE   PATT
  POIN2 Label_3_014AE590
// 031   ----------------------------------------
 BYTE   PATT
  POIN2 Label_3_014AE5A1
// 032   ----------------------------------------
 BYTE   PATT
  POIN2 Label_3_014AE5B7
// 033   ----------------------------------------
 BYTE   PATT
  POIN2 Label_3_014AE5C9
// 034   ----------------------------------------
 BYTE   PATT
  POIN2 Label_3_014AE5D9
// 035   ----------------------------------------
 BYTE   PATT
  POIN2 Label_3_014AE5E5
// 036   ----------------------------------------
 BYTE   W96
// 037   ----------------------------------------
 BYTE   W96
// 038   ----------------------------------------
 BYTE   W96
// 039   ----------------------------------------
 BYTE   W96
// 040   ----------------------------------------
 BYTE   W96
// 041   ----------------------------------------
 BYTE   W96
// 042   ----------------------------------------
 BYTE   W96
// 043   ----------------------------------------
 BYTE   W96
// 044   ----------------------------------------
 BYTE   W96
// 045   ----------------------------------------
 BYTE   W96
// 046   ----------------------------------------
 BYTE   W96
// 047   ----------------------------------------
 BYTE   W96
// 048   ----------------------------------------
 BYTE   W96
// 049   ----------------------------------------
 BYTE   W96
// 050   ----------------------------------------
 BYTE   W96
// 051   ----------------------------------------
 BYTE   W96
// 052   ----------------------------------------
 BYTE   W96
// 053   ----------------------------------------
 BYTE   W96
// 054   ----------------------------------------
 BYTE   W96
// 055   ----------------------------------------
 BYTE   W44
 BYTE   W03
 BYTE   GoTo
  POIN2 Label_3_014AE52F
 BYTE   FINE

//**************** Track 5 (Midi-Chn.4) ****************//

songE9_005:
// 000   ----------------------------------------
 BYTE   KEYSH   songE9_key+0
Label_4_014AE66A:
 BYTE   VOICE   18
 BYTE   VOL   20*songE9_mvl/mxv
 BYTE   PAN   c_v+0
 BYTE   MOD 0
 BYTE   CnM2  v010
 BYTE   BEND   c_v+0
 BYTE   W01
 BYTE   N28  An4  v127
 BYTE   W30
 BYTE   N36  En5
 BYTE   W42
 BYTE   N04  Dn5
 BYTE   W06
 BYTE   Cn5
 BYTE   W06
 BYTE   Bn4
 BYTE   W06
 BYTE   An4
 BYTE   W05
// 001   ----------------------------------------
Label_4_014AE687:
 BYTE   W01
 BYTE   N04  Bn4  v127
 BYTE   W06
 BYTE   Cn5
 BYTE   W06
 BYTE   Dn5
 BYTE   W06
 BYTE   Cn5
 BYTE   W06
 BYTE   Bn4
 BYTE   W06
 BYTE   Gs4
 BYTE   W06
 BYTE   An4
 BYTE   W06
 BYTE   Bn4
 BYTE   W06
 BYTE   N28  An4
 BYTE   W30
 BYTE   N36  En5
 BYTE   W17
 BYTE   PEND 
// 002   ----------------------------------------
Label_4_014AE6A1:
 BYTE   W24
 BYTE   W01
 BYTE   N16  Fn5  v127
 BYTE   W18
 BYTE   Dn5
 BYTE   W18
 BYTE   En5
 BYTE   W18
 BYTE   N04  Gs4
 BYTE   W06
 BYTE   An4
 BYTE   W06
 BYTE   Bn4
 BYTE   W05
 BYTE   PEND 
// 003   ----------------------------------------
Label_4_014AE6B3:
 BYTE   W01
 BYTE   N32  Cn5  v127
 BYTE   W36
 BYTE   N11  Bn4
 BYTE   W12
 BYTE   Cn5
 BYTE   W12
 BYTE   Dn5
 BYTE   W12
 BYTE   N32  En5
 BYTE   W23
 BYTE   PEND 
// 004   ----------------------------------------
Label_4_014AE6C3:
 BYTE   W13
 BYTE   N11  An4  v127
 BYTE   W12
 BYTE   Bn4
 BYTE   W12
 BYTE   Cn5
 BYTE   W12
 BYTE   N04  Dn5
 BYTE   W06
 BYTE   Cn5
 BYTE   W06
 BYTE   Dn5
 BYTE   W06
 BYTE   Bn4
 BYTE   W06
 BYTE   Dn5
 BYTE   W06
 BYTE   An4
 BYTE   W06
 BYTE   Dn5
 BYTE   W06
 BYTE   Gs4
 BYTE   W05
 BYTE   PEND 
// 005   ----------------------------------------
Label_4_014AE6DE:
 BYTE   W01
 BYTE   N04  An4  v127
 BYTE   W06
 BYTE   Bn4
 BYTE   W06
 BYTE   Cn5
 BYTE   W06
 BYTE   Dn5
 BYTE   W06
 BYTE   N32  En5
 BYTE   W36
 BYTE   Gs4
 BYTE   W32
 BYTE   W03
 BYTE   PEND 
// 006   ----------------------------------------
Label_4_014AE6F0:
 BYTE   W01
 BYTE   N28  An4  v127
 BYTE   W30
 BYTE   N36  En5
 BYTE   W42
 BYTE   N04  Dn5
 BYTE   W06
 BYTE   Cn5
 BYTE   W06
 BYTE   Bn4
 BYTE   W06
 BYTE   An4
 BYTE   W05
 BYTE   PEND 
// 007   ----------------------------------------
 BYTE   PATT
  POIN2 Label_4_014AE687
// 008   ----------------------------------------
 BYTE   PATT
  POIN2 Label_4_014AE6A1
// 009   ----------------------------------------
Label_4_014AE70C:
 BYTE   W01
 BYTE   N32  Cn5  v127
 BYTE   W36
 BYTE   N11
 BYTE   W12
 BYTE   Dn5
 BYTE   W12
 BYTE   En5
 BYTE   W12
 BYTE   N32  Fn5
 BYTE   W23
 BYTE   PEND 
// 010   ----------------------------------------
Label_4_014AE71B:
 BYTE   W13
 BYTE   N11  Fn5  v127
 BYTE   W12
 BYTE   En5
 BYTE   W12
 BYTE   Dn5
 BYTE   W12
 BYTE   TIE  En5
 BYTE   W44
 BYTE   W03
 BYTE   PEND 
// 011   ----------------------------------------
 BYTE   W92
 BYTE   W03
 BYTE   EOT
 BYTE   W01
// 012   ----------------------------------------
 BYTE   W96
// 013   ----------------------------------------
 BYTE   W96
// 014   ----------------------------------------
 BYTE   W96
// 015   ----------------------------------------
 BYTE   W96
// 016   ----------------------------------------
 BYTE   W96
// 017   ----------------------------------------
 BYTE   W96
// 018   ----------------------------------------
 BYTE   W96
// 019   ----------------------------------------
 BYTE   W96
// 020   ----------------------------------------
 BYTE   W96
// 021   ----------------------------------------
 BYTE   W96
// 022   ----------------------------------------
 BYTE   W96
// 023   ----------------------------------------
 BYTE   W96
// 024   ----------------------------------------
 BYTE   PATT
  POIN2 Label_4_014AE6F0
// 025   ----------------------------------------
 BYTE   PATT
  POIN2 Label_4_014AE687
// 026   ----------------------------------------
 BYTE   PATT
  POIN2 Label_4_014AE6A1
// 027   ----------------------------------------
 BYTE   PATT
  POIN2 Label_4_014AE6B3
// 028   ----------------------------------------
 BYTE   PATT
  POIN2 Label_4_014AE6C3
// 029   ----------------------------------------
 BYTE   PATT
  POIN2 Label_4_014AE6DE
// 030   ----------------------------------------
 BYTE   PATT
  POIN2 Label_4_014AE6F0
// 031   ----------------------------------------
 BYTE   PATT
  POIN2 Label_4_014AE687
// 032   ----------------------------------------
 BYTE   PATT
  POIN2 Label_4_014AE6A1
// 033   ----------------------------------------
 BYTE   PATT
  POIN2 Label_4_014AE70C
// 034   ----------------------------------------
 BYTE   PATT
  POIN2 Label_4_014AE71B
// 035   ----------------------------------------
 BYTE   W92
 BYTE   W03
 BYTE   EOT
 BYTE   En5
 BYTE   W01
// 036   ----------------------------------------
 BYTE   W01
 BYTE   N32  An4  v108
 BYTE   N32  Cn5
 BYTE   W36
 BYTE   Gs4
 BYTE   N32  Bn4
 BYTE   W36
 BYTE   An4
 BYTE   N32  Cn5
 BYTE   W23
// 037   ----------------------------------------
 BYTE   W13
 BYTE   An4
 BYTE   N32  Dn5
 BYTE   W36
 BYTE   Bn4
 BYTE   N32  Ds5
 BYTE   W36
 BYTE   Bn4
 BYTE   N32  En5
 BYTE   W11
// 038   ----------------------------------------
 BYTE   W24
 BYTE   W01
 BYTE   Bn4
 BYTE   N32  Dn5
 BYTE   W36
 BYTE   An4
 BYTE   N32  Cs5
 BYTE   W32
 BYTE   W03
// 039   ----------------------------------------
 BYTE   W01
 BYTE   Fn4
 BYTE   N32  Cs5
 BYTE   W36
 BYTE   Fs4
 BYTE   N32  Cs5
 BYTE   W36
 BYTE   Gs4
 BYTE   N32  Bn4
 BYTE   W23
// 040   ----------------------------------------
 BYTE   W13
 BYTE   An4
 BYTE   N32  Cs5
 BYTE   W36
 BYTE   As4
 BYTE   N32  Cs5
 BYTE   W36
 BYTE   Bn4
 BYTE   N32  Dn5
 BYTE   W11
// 041   ----------------------------------------
 BYTE   W24
 BYTE   W01
 BYTE   An4
 BYTE   N32  Cs5
 BYTE   W36
 BYTE   An4
 BYTE   N32  Dn5
 BYTE   W32
 BYTE   W03
// 042   ----------------------------------------
 BYTE   W01
 BYTE   N68  An4
 BYTE   N68  En5
 BYTE   W72
 BYTE   Gs4
 BYTE   N68  En5
 BYTE   W23
// 043   ----------------------------------------
 BYTE   W96
// 044   ----------------------------------------
 BYTE   W96
// 045   ----------------------------------------
 BYTE   W96
// 046   ----------------------------------------
 BYTE   W96
// 047   ----------------------------------------
 BYTE   W96
// 048   ----------------------------------------
 BYTE   W96
// 049   ----------------------------------------
 BYTE   W96
// 050   ----------------------------------------
 BYTE   W96
// 051   ----------------------------------------
 BYTE   W96
// 052   ----------------------------------------
 BYTE   W96
// 053   ----------------------------------------
 BYTE   W96
// 054   ----------------------------------------
 BYTE   W96
// 055   ----------------------------------------
 BYTE   W44
 BYTE   W03
 BYTE   GoTo
  POIN2 Label_4_014AE66A
 BYTE   FINE

//**************** Track 6 (Midi-Chn.5) ****************//

songE9_006:
// 000   ----------------------------------------
 BYTE   KEYSH   songE9_key+0
Label_5_014AE7E1:
 BYTE   VOICE   7
 BYTE   VOL   16*songE9_mvl/mxv
 BYTE   PAN   c_v+40
 BYTE   BEND   c_v+0
 BYTE   W01
 BYTE   N04  An2  v127
 BYTE   W06
 BYTE   N04
 BYTE   W06
 BYTE   N04
 BYTE   W06
 BYTE   An3
 BYTE   N04  En4
 BYTE   W06
 BYTE   An2
 BYTE   W06
 BYTE   N04
 BYTE   W06
 BYTE   N04
 BYTE   W06
 BYTE   N04
 BYTE   W06
 BYTE   N04
 BYTE   W06
 BYTE   An3
 BYTE   N04  En4
 BYTE   W06
 BYTE   An2
 BYTE   W06
 BYTE   N04
 BYTE   W06
 BYTE   N04
 BYTE   W06
 BYTE   N04
 BYTE   W06
 BYTE   N04
 BYTE   W06
 BYTE   An3
 BYTE   N04  En4
 BYTE   W05
// 001   ----------------------------------------
Label_5_014AE812:
 BYTE   W01
 BYTE   N04  An2  v127
 BYTE   W06
 BYTE   N04
 BYTE   W06
 BYTE   N04
 BYTE   W06
 BYTE   An3
 BYTE   N04  En4
 BYTE   W06
 BYTE   An2
 BYTE   W06
 BYTE   An3
 BYTE   N04  En4
 BYTE   W06
 BYTE   An2
 BYTE   W06
 BYTE   N04
 BYTE   W06
 BYTE   N04
 BYTE   W06
 BYTE   N04
 BYTE   W06
 BYTE   N04
 BYTE   W06
 BYTE   An3
 BYTE   N04  En4
 BYTE   W06
 BYTE   An2
 BYTE   W06
 BYTE   N04
 BYTE   W06
 BYTE   N04
 BYTE   W06
 BYTE   N04
 BYTE   W05
 BYTE   PEND 
// 002   ----------------------------------------
Label_5_014AE83C:
 BYTE   W01
 BYTE   N04  An2  v127
 BYTE   W06
 BYTE   An3
 BYTE   N04  En4
 BYTE   W06
 BYTE   An2
 BYTE   W06
 BYTE   N04
 BYTE   W06
 BYTE   N04
 BYTE   W06
 BYTE   N04
 BYTE   W06
 BYTE   N04
 BYTE   W06
 BYTE   An3
 BYTE   N04  Fn4
 BYTE   W06
 BYTE   An2
 BYTE   W06
 BYTE   N04
 BYTE   W06
 BYTE   N04
 BYTE   W06
 BYTE   An3
 BYTE   N04  En4
 BYTE   W06
 BYTE   An2
 BYTE   W06
 BYTE   An3
 BYTE   N04  En4
 BYTE   W06
 BYTE   An2
 BYTE   W06
 BYTE   N04
 BYTE   W05
 BYTE   PEND 
// 003   ----------------------------------------
Label_5_014AE868:
 BYTE   W01
 BYTE   N04  Fn2  v127
 BYTE   W06
 BYTE   Fn3
 BYTE   W06
 BYTE   Fn2
 BYTE   W06
 BYTE   Cn4
 BYTE   N04  Fn4
 BYTE   W06
 BYTE   Fn3
 BYTE   W06
 BYTE   Fn2
 BYTE   W06
 BYTE   N04
 BYTE   W06
 BYTE   N04
 BYTE   W06
 BYTE   N04
 BYTE   W06
 BYTE   Cn4
 BYTE   N04  Fn4
 BYTE   W06
 BYTE   Fn3
 BYTE   W06
 BYTE   Cn4
 BYTE   N04  Fn4
 BYTE   W06
 BYTE   Fn2
 BYTE   W06
 BYTE   N04
 BYTE   W06
 BYTE   N04
 BYTE   W06
 BYTE   Cn4
 BYTE   N04  Fn4
 BYTE   W05
 BYTE   PEND 
// 004   ----------------------------------------
Label_5_014AE894:
 BYTE   W01
 BYTE   N04  Fn3  v127
 BYTE   W06
 BYTE   Cn4
 BYTE   N04  Fn4
 BYTE   W06
 BYTE   Fn2
 BYTE   W06
 BYTE   Cn4
 BYTE   N04  Fn4
 BYTE   W06
 BYTE   Fn3
 BYTE   W06
 BYTE   Cn4
 BYTE   N04  Fn4
 BYTE   W06
 BYTE   Fn3
 BYTE   W06
 BYTE   Cn4
 BYTE   N04  Fn4
 BYTE   W06
 BYTE   Dn2
 BYTE   W06
 BYTE   N04
 BYTE   W06
 BYTE   N04
 BYTE   W06
 BYTE   An3
 BYTE   N04  Dn4
 BYTE   W06
 BYTE   Dn2
 BYTE   W06
 BYTE   N04
 BYTE   W06
 BYTE   N04
 BYTE   W06
 BYTE   Dn3
 BYTE   W05
 BYTE   PEND 
// 005   ----------------------------------------
Label_5_014AE8C2:
 BYTE   W01
 BYTE   N04  Dn2  v127
 BYTE   W06
 BYTE   An3
 BYTE   N04  Dn4
 BYTE   W06
 BYTE   Dn2
 BYTE   W06
 BYTE   N04
 BYTE   W06
 BYTE   En2
 BYTE   W06
 BYTE   N04
 BYTE   W06
 BYTE   N04
 BYTE   W06
 BYTE   Bn3
 BYTE   N04  En4
 BYTE   W06
 BYTE   En3
 BYTE   W06
 BYTE   Bn3
 BYTE   N04  En4
 BYTE   W06
 BYTE   En2
 BYTE   W06
 BYTE   Bn3
 BYTE   N04  En4
 BYTE   W06
 BYTE   En3
 BYTE   W06
 BYTE   Bn3
 BYTE   N04  En4
 BYTE   W06
 BYTE   En3
 BYTE   W06
 BYTE   Bn3
 BYTE   N04  En4
 BYTE   W05
 BYTE   PEND 
// 006   ----------------------------------------
Label_5_014AE8F2:
 BYTE   W01
 BYTE   N04  An2  v127
 BYTE   W06
 BYTE   N04
 BYTE   W06
 BYTE   N04
 BYTE   W06
 BYTE   En3
 BYTE   N04  An3
 BYTE   W06
 BYTE   An2
 BYTE   W06
 BYTE   N04
 BYTE   W06
 BYTE   N04
 BYTE   W06
 BYTE   En3
 BYTE   N04  An3
 BYTE   W06
 BYTE   An2
 BYTE   W06
 BYTE   En3
 BYTE   N04  An3
 BYTE   W06
 BYTE   An2
 BYTE   W06
 BYTE   En3
 BYTE   N04  An3
 BYTE   W06
 BYTE   Gn2
 BYTE   W06
 BYTE   N04
 BYTE   W06
 BYTE   N04
 BYTE   W06
 BYTE   Dn3
 BYTE   N04  Gn3
 BYTE   W05
 BYTE   PEND 
// 007   ----------------------------------------
Label_5_014AE920:
 BYTE   W01
 BYTE   N04  Gn2  v127
 BYTE   W06
 BYTE   Dn3
 BYTE   N04  Gn3
 BYTE   W06
 BYTE   En2
 BYTE   W06
 BYTE   En3
 BYTE   W06
 BYTE   Gs3
 BYTE   N04  En4
 BYTE   W06
 BYTE   En2
 BYTE   W06
 BYTE   Gs3
 BYTE   N04  En4
 BYTE   W06
 BYTE   En3
 BYTE   W06
 BYTE   Fn2
 BYTE   W06
 BYTE   N04
 BYTE   W06
 BYTE   N04
 BYTE   N04  Fn3
 BYTE   W06
 BYTE   Cn3
 BYTE   W06
 BYTE   Fn2
 BYTE   W06
 BYTE   Cn3
 BYTE   N04  Fn3
 BYTE   W06
 BYTE   Fn2
 BYTE   W06
 BYTE   Fn3
 BYTE   N04  Cn4
 BYTE   W05
 BYTE   PEND 
// 008   ----------------------------------------
Label_5_014AE950:
 BYTE   W01
 BYTE   N04  Fn2  v127
 BYTE   W06
 BYTE   Fn3
 BYTE   N04  Cn4
 BYTE   W06
 BYTE   Fn2
 BYTE   W06
 BYTE   Fn3
 BYTE   N04  Cn4
 BYTE   W06
 BYTE   Dn2
 BYTE   W06
 BYTE   N04
 BYTE   W06
 BYTE   N04
 BYTE   W06
 BYTE   Fn3
 BYTE   N04  Dn4
 BYTE   W06
 BYTE   Dn3
 BYTE   W06
 BYTE   Fn3
 BYTE   N04  Dn4
 BYTE   W06
 BYTE   En2
 BYTE   W06
 BYTE   N04
 BYTE   W06
 BYTE   Gs3
 BYTE   N04  En4
 BYTE   W06
 BYTE   En3
 BYTE   W06
 BYTE   Gs3
 BYTE   N04  En4
 BYTE   W06
 BYTE   En3
 BYTE   W05
 BYTE   PEND 
// 009   ----------------------------------------
Label_5_014AE980:
 BYTE   W01
 BYTE   N04  Fn2  v127
 BYTE   W06
 BYTE   N04
 BYTE   W06
 BYTE   N04
 BYTE   W06
 BYTE   Fn3
 BYTE   N04  Cn4
 BYTE   W06
 BYTE   Fn2
 BYTE   W06
 BYTE   Fn3
 BYTE   N04  Cn4
 BYTE   W06
 BYTE   Fn2
 BYTE   W06
 BYTE   Fn3
 BYTE   N04  Cn4
 BYTE   W06
 BYTE   Fn2
 BYTE   W06
 BYTE   Fn3
 BYTE   N04  Cn4
 BYTE   W06
 BYTE   Fn2
 BYTE   W06
 BYTE   N04
 BYTE   W06
 BYTE   Dn2
 BYTE   W06
 BYTE   N04
 BYTE   W06
 BYTE   N04
 BYTE   W06
 BYTE   Fn3
 BYTE   N04  Dn4
 BYTE   W05
 BYTE   PEND 
// 010   ----------------------------------------
Label_5_014AE9AE:
 BYTE   W01
 BYTE   N04  Dn3  v127
 BYTE   W06
 BYTE   Fn3
 BYTE   N04  Dn4
 BYTE   W06
 BYTE   Dn2
 BYTE   W06
 BYTE   Fn3
 BYTE   N04  Dn4
 BYTE   W06
 BYTE   Dn3
 BYTE   W06
 BYTE   Fn3
 BYTE   N04  Dn4
 BYTE   W06
 BYTE   Dn2
 BYTE   W06
 BYTE   N04
 BYTE   W06
 BYTE   En2
 BYTE   W06
 BYTE   N04
 BYTE   W06
 BYTE   N04
 BYTE   W06
 BYTE   Bn3
 BYTE   N04  En4
 BYTE   W06
 BYTE   En3
 BYTE   W06
 BYTE   Bn3
 BYTE   N04  En4
 BYTE   W06
 BYTE   En2
 BYTE   W06
 BYTE   En3
 BYTE   N04  Bn3
 BYTE   W05
 BYTE   PEND 
// 011   ----------------------------------------
Label_5_014AE9DE:
 BYTE   W01
 BYTE   N04  En2  v127
 BYTE   W06
 BYTE   En3
 BYTE   N04  Bn3
 BYTE   W06
 BYTE   En2
 BYTE   W06
 BYTE   Bn3
 BYTE   N04  En4
 BYTE   W06
 BYTE   En2
 BYTE   W06
 BYTE   N04
 BYTE   W06
 BYTE   N04
 BYTE   W06
 BYTE   Bn3
 BYTE   N04  En4
 BYTE   W06
 BYTE   En3
 BYTE   W06
 BYTE   Bn3
 BYTE   N04  En4
 BYTE   W06
 BYTE   En2
 BYTE   W06
 BYTE   Bn3
 BYTE   N04  En4
 BYTE   W06
 BYTE   En3
 BYTE   W06
 BYTE   Bn3
 BYTE   N04  En4
 BYTE   W06
 BYTE   En3
 BYTE   W06
 BYTE   Bn3
 BYTE   N04  En4
 BYTE   W05
 BYTE   PEND 
// 012   ----------------------------------------
Label_5_014AEA10:
 BYTE   W01
 BYTE   N04  Fs2  v127
 BYTE   W06
 BYTE   N04
 BYTE   W06
 BYTE   N04
 BYTE   W06
 BYTE   Fs3
 BYTE   N04  Cs4
 BYTE   W06
 BYTE   Fs2
 BYTE   W06
 BYTE   N04
 BYTE   W06
 BYTE   N04
 BYTE   W06
 BYTE   N04
 BYTE   W06
 BYTE   N04
 BYTE   W06
 BYTE   Fs3
 BYTE   N04  Cs4
 BYTE   W06
 BYTE   Fs2
 BYTE   W06
 BYTE   N04
 BYTE   W06
 BYTE   En2
 BYTE   W06
 BYTE   N04
 BYTE   W06
 BYTE   N04
 BYTE   W06
 BYTE   En3
 BYTE   N04  Bn3
 BYTE   W05
 BYTE   PEND 
// 013   ----------------------------------------
Label_5_014AEA3A:
 BYTE   W01
 BYTE   N04  En2  v127
 BYTE   W06
 BYTE   N04
 BYTE   W06
 BYTE   N04
 BYTE   W06
 BYTE   En3
 BYTE   N04  Bn3
 BYTE   W06
 BYTE   En2
 BYTE   W06
 BYTE   En3
 BYTE   N04  Bn3
 BYTE   W06
 BYTE   En2
 BYTE   W06
 BYTE   N04
 BYTE   W06
 BYTE   Bn2
 BYTE   W06
 BYTE   N04
 BYTE   W06
 BYTE   N04
 BYTE   W06
 BYTE   Fs3
 BYTE   N04  Bn3
 BYTE   W06
 BYTE   Bn2
 BYTE   W06
 BYTE   N04
 BYTE   W06
 BYTE   N04
 BYTE   W06
 BYTE   Fs3
 BYTE   N04  Bn3
 BYTE   W05
 BYTE   PEND 
// 014   ----------------------------------------
Label_5_014AEA66:
 BYTE   W01
 BYTE   N04  Bn2  v127
 BYTE   W06
 BYTE   Fs3
 BYTE   N04  Bn3
 BYTE   W06
 BYTE   Bn2
 BYTE   W06
 BYTE   N04
 BYTE   W06
 BYTE   En2
 BYTE   W06
 BYTE   N04
 BYTE   W06
 BYTE   N04
 BYTE   W06
 BYTE   Bn2
 BYTE   N04  En3
 BYTE   W06
 BYTE   En2
 BYTE   W06
 BYTE   N04
 BYTE   W06
 BYTE   N04
 BYTE   W06
 BYTE   Bn3
 BYTE   N04  En4
 BYTE   W06
 BYTE   En3
 BYTE   W06
 BYTE   N04
 BYTE   N04  Bn3
 BYTE   W06
 BYTE   En2
 BYTE   W06
 BYTE   En3
 BYTE   N04  Bn3
 BYTE   W05
 BYTE   PEND 
// 015   ----------------------------------------
Label_5_014AEA94:
 BYTE   W01
 BYTE   N04  Dn2  v127
 BYTE   W06
 BYTE   N04
 BYTE   W06
 BYTE   N04
 BYTE   W06
 BYTE   Fs3
 BYTE   N04  Dn4
 BYTE   W06
 BYTE   Dn3
 BYTE   W06
 BYTE   Fs3
 BYTE   N04  Dn4
 BYTE   W06
 BYTE   Dn2
 BYTE   W06
 BYTE   Fs3
 BYTE   N04  Dn4
 BYTE   W06
 BYTE   Dn3
 BYTE   W06
 BYTE   Fs3
 BYTE   N04  Dn4
 BYTE   W06
 BYTE   Dn2
 BYTE   W06
 BYTE   N04
 BYTE   W06
 BYTE   Cn2
 BYTE   W06
 BYTE   N04
 BYTE   W06
 BYTE   N04
 BYTE   W06
 BYTE   En3
 BYTE   N04  Cn4
 BYTE   W05
 BYTE   PEND 
// 016   ----------------------------------------
Label_5_014AEAC2:
 BYTE   W01
 BYTE   N04  Cn3  v127
 BYTE   W06
 BYTE   En3
 BYTE   N04  Cn4
 BYTE   W06
 BYTE   Cn2
 BYTE   W06
 BYTE   En3
 BYTE   N04  Cn4
 BYTE   W06
 BYTE   Cn3
 BYTE   W06
 BYTE   En3
 BYTE   N04  Cn4
 BYTE   W06
 BYTE   Cn3
 BYTE   W06
 BYTE   N04
 BYTE   W06
 BYTE   Bn2
 BYTE   W06
 BYTE   N04
 BYTE   W06
 BYTE   N04
 BYTE   W06
 BYTE   Fs3
 BYTE   N04  Bn3
 BYTE   W06
 BYTE   Bn2
 BYTE   W06
 BYTE   Fs3
 BYTE   N04  Bn3
 BYTE   W06
 BYTE   Bn2
 BYTE   W06
 BYTE   Fs3
 BYTE   N04  Bn3
 BYTE   W05
 BYTE   PEND 
// 017   ----------------------------------------
Label_5_014AEAF2:
 BYTE   W01
 BYTE   N04  Bn2  v127
 BYTE   W06
 BYTE   En3
 BYTE   N04  Bn3
 BYTE   W06
 BYTE   Bn2
 BYTE   W06
 BYTE   Fs3
 BYTE   N04  Bn3
 BYTE   W06
 BYTE   Bn2
 BYTE   W06
 BYTE   N04
 BYTE   W06
 BYTE   N04
 BYTE   W06
 BYTE   Fs3
 BYTE   N04  Bn3
 BYTE   W06
 BYTE   Bn2
 BYTE   W06
 BYTE   N04
 BYTE   W06
 BYTE   N04
 BYTE   W06
 BYTE   N04
 BYTE   W06
 BYTE   N04
 BYTE   W06
 BYTE   Fs3
 BYTE   N04  Bn3
 BYTE   W06
 BYTE   Bn2
 BYTE   W06
 BYTE   N04
 BYTE   W05
 BYTE   PEND 
// 018   ----------------------------------------
 BYTE   PATT
  POIN2 Label_5_014AEA10
// 019   ----------------------------------------
 BYTE   PATT
  POIN2 Label_5_014AEA3A
// 020   ----------------------------------------
 BYTE   PATT
  POIN2 Label_5_014AEA66
// 021   ----------------------------------------
 BYTE   PATT
  POIN2 Label_5_014AEA94
// 022   ----------------------------------------
 BYTE   PATT
  POIN2 Label_5_014AEAC2
// 023   ----------------------------------------
 BYTE   PATT
  POIN2 Label_5_014AEAF2
// 024   ----------------------------------------
 BYTE   W01
 BYTE   N04  An2  v127
 BYTE   W06
 BYTE   N04
 BYTE   W06
 BYTE   N04
 BYTE   W06
 BYTE   An3
 BYTE   N04  En4
 BYTE   W06
 BYTE   An2
 BYTE   W06
 BYTE   N04
 BYTE   W06
 BYTE   N04
 BYTE   W06
 BYTE   N04
 BYTE   W06
 BYTE   N04
 BYTE   W06
 BYTE   An3
 BYTE   N04  En4
 BYTE   W06
 BYTE   An2
 BYTE   W06
 BYTE   N04
 BYTE   W06
 BYTE   N04
 BYTE   W06
 BYTE   N04
 BYTE   W06
 BYTE   N04
 BYTE   W06
 BYTE   An3
 BYTE   N04  En4
 BYTE   W05
// 025   ----------------------------------------
 BYTE   PATT
  POIN2 Label_5_014AE812
// 026   ----------------------------------------
 BYTE   PATT
  POIN2 Label_5_014AE83C
// 027   ----------------------------------------
 BYTE   PATT
  POIN2 Label_5_014AE868
// 028   ----------------------------------------
 BYTE   PATT
  POIN2 Label_5_014AE894
// 029   ----------------------------------------
 BYTE   PATT
  POIN2 Label_5_014AE8C2
// 030   ----------------------------------------
 BYTE   PATT
  POIN2 Label_5_014AE8F2
// 031   ----------------------------------------
 BYTE   PATT
  POIN2 Label_5_014AE920
// 032   ----------------------------------------
 BYTE   PATT
  POIN2 Label_5_014AE950
// 033   ----------------------------------------
 BYTE   PATT
  POIN2 Label_5_014AE980
// 034   ----------------------------------------
 BYTE   PATT
  POIN2 Label_5_014AE9AE
// 035   ----------------------------------------
 BYTE   PATT
  POIN2 Label_5_014AE9DE
// 036   ----------------------------------------
 BYTE   W01
 BYTE   N04  An2  v127
 BYTE   W06
 BYTE   N04
 BYTE   W06
 BYTE   N04
 BYTE   W06
 BYTE   En3
 BYTE   N04  An3
 BYTE   W06
 BYTE   An2
 BYTE   W06
 BYTE   N04
 BYTE   W06
 BYTE   Gs2
 BYTE   W06
 BYTE   N04
 BYTE   W06
 BYTE   N04
 BYTE   W06
 BYTE   Gs3
 BYTE   N04  En4
 BYTE   W06
 BYTE   Gs2
 BYTE   W06
 BYTE   N04
 BYTE   W06
 BYTE   An2
 BYTE   W06
 BYTE   N04
 BYTE   W06
 BYTE   N04
 BYTE   W06
 BYTE   En3
 BYTE   N04  An3
 BYTE   W05
// 037   ----------------------------------------
 BYTE   W01
 BYTE   An2
 BYTE   W06
 BYTE   En3
 BYTE   N04  An3
 BYTE   W06
 BYTE   Dn2
 BYTE   W06
 BYTE   Dn3
 BYTE   W06
 BYTE   Fn3
 BYTE   N04  Dn4
 BYTE   W06
 BYTE   Dn3
 BYTE   W06
 BYTE   Fn3
 BYTE   N04  Dn4
 BYTE   W06
 BYTE   Dn3
 BYTE   W06
 BYTE   Ds2
 BYTE   W06
 BYTE   N04
 BYTE   W06
 BYTE   N04
 BYTE   W06
 BYTE   Fs3
 BYTE   N04  Bn3
 BYTE   W06
 BYTE   Ds2
 BYTE   W06
 BYTE   Fs3
 BYTE   N04  Bn3
 BYTE   W06
 BYTE   En2
 BYTE   W06
 BYTE   N04
 BYTE   W05
// 038   ----------------------------------------
 BYTE   W01
 BYTE   N04
 BYTE   W06
 BYTE   En3
 BYTE   N04  Bn3
 BYTE   W06
 BYTE   En2
 BYTE   W06
 BYTE   En3
 BYTE   N04  Bn3
 BYTE   W06
 BYTE   Fn2
 BYTE   W06
 BYTE   N04
 BYTE   W06
 BYTE   N04
 BYTE   W06
 BYTE   Gs3
 BYTE   N04  Dn4
 BYTE   W06
 BYTE   Fn2
 BYTE   W06
 BYTE   Gs3
 BYTE   N04  Dn4
 BYTE   W06
 BYTE   Fs2
 BYTE   W06
 BYTE   N04
 BYTE   W06
 BYTE   N04
 BYTE   W06
 BYTE   Fs3
 BYTE   N04  Cs4
 BYTE   W06
 BYTE   Fs2
 BYTE   W06
 BYTE   Fs3
 BYTE   N04  Cs4
 BYTE   W05
// 039   ----------------------------------------
 BYTE   W01
 BYTE   Fn2
 BYTE   W06
 BYTE   N04
 BYTE   W06
 BYTE   N04
 BYTE   W06
 BYTE   Fn3
 BYTE   N04  Cs4
 BYTE   W06
 BYTE   Fn2
 BYTE   W06
 BYTE   Fn3
 BYTE   N04  Cs4
 BYTE   W06
 BYTE   Fs2
 BYTE   W06
 BYTE   N04
 BYTE   W06
 BYTE   N04
 BYTE   W06
 BYTE   Fs3
 BYTE   N04  Cs4
 BYTE   W06
 BYTE   Fs2
 BYTE   W06
 BYTE   Fs3
 BYTE   N04  Cs4
 BYTE   W06
 BYTE   Gs2
 BYTE   W06
 BYTE   N04
 BYTE   W06
 BYTE   N04
 BYTE   W06
 BYTE   Gs3
 BYTE   N04  En4
 BYTE   W05
// 040   ----------------------------------------
 BYTE   W01
 BYTE   Gs2
 BYTE   W06
 BYTE   Gs3
 BYTE   N04  En4
 BYTE   W06
 BYTE   An2
 BYTE   W06
 BYTE   N04
 BYTE   W06
 BYTE   N04
 BYTE   W06
 BYTE   An3
 BYTE   N04  En4
 BYTE   W06
 BYTE   An2
 BYTE   W06
 BYTE   An3
 BYTE   N04  En4
 BYTE   W06
 BYTE   As2
 BYTE   W06
 BYTE   N04
 BYTE   W06
 BYTE   N04
 BYTE   W06
 BYTE   Fs3
 BYTE   N04  Cs4
 BYTE   W06
 BYTE   As2
 BYTE   W06
 BYTE   Fs3
 BYTE   N04  Cs4
 BYTE   W06
 BYTE   Bn2
 BYTE   W06
 BYTE   N04
 BYTE   W05
// 041   ----------------------------------------
 BYTE   W01
 BYTE   N04
 BYTE   W06
 BYTE   Fs3
 BYTE   N04  Dn4
 BYTE   W06
 BYTE   Bn2
 BYTE   W06
 BYTE   Fs3
 BYTE   N04  Dn4
 BYTE   W06
 BYTE   An2
 BYTE   W06
 BYTE   N04
 BYTE   W06
 BYTE   N04
 BYTE   W06
 BYTE   En3
 BYTE   N04  An3
 BYTE   W06
 BYTE   An2
 BYTE   W06
 BYTE   En3
 BYTE   N04  An3
 BYTE   W06
 BYTE   Dn3
 BYTE   W06
 BYTE   N04
 BYTE   W06
 BYTE   N04
 BYTE   W06
 BYTE   An3
 BYTE   N04  Dn4
 BYTE   W06
 BYTE   Dn3
 BYTE   W06
 BYTE   An3
 BYTE   N04  Dn4
 BYTE   W05
// 042   ----------------------------------------
 BYTE   W01
 BYTE   En2
 BYTE   W06
 BYTE   N04
 BYTE   W06
 BYTE   N04
 BYTE   W06
 BYTE   Bn2
 BYTE   N04  En3
 BYTE   W06
 BYTE   En2
 BYTE   W06
 BYTE   Bn2
 BYTE   N04  En3
 BYTE   W06
 BYTE   En2
 BYTE   W06
 BYTE   Bn2
 BYTE   N04  En3
 BYTE   W06
 BYTE   En2
 BYTE   W06
 BYTE   N04
 BYTE   W06
 BYTE   N04
 BYTE   W06
 BYTE   Bn2
 BYTE   N04  En3
 BYTE   W06
 BYTE   En2
 BYTE   W06
 BYTE   N04
 BYTE   W06
 BYTE   N04
 BYTE   W06
 BYTE   En3
 BYTE   N04  Bn3
 BYTE   W05
// 043   ----------------------------------------
 BYTE   W01
 BYTE   En2
 BYTE   W06
 BYTE   En3
 BYTE   N04  Bn3
 BYTE   W06
 BYTE   En2
 BYTE   W06
 BYTE   N04
 BYTE   W06
 BYTE   En3
 BYTE   N04  Bn3
 BYTE   W06
 BYTE   En2
 BYTE   W06
 BYTE   En3
 BYTE   N04  Bn3
 BYTE   W06
 BYTE   En2
 BYTE   W06
 BYTE   Fs2
 BYTE   W06
 BYTE   N04
 BYTE   W06
 BYTE   N04
 BYTE   W06
 BYTE   Fs3
 BYTE   N04  Cs4
 BYTE   W06
 BYTE   Fs2
 BYTE   W06
 BYTE   N04
 BYTE   W06
 BYTE   N04
 BYTE   W06
 BYTE   N04
 BYTE   W05
// 044   ----------------------------------------
Label_5_014AECF4:
 BYTE   W01
 BYTE   N04  Fs2  v127
 BYTE   W06
 BYTE   Fs3
 BYTE   N04  Cs4
 BYTE   W06
 BYTE   Fs2
 BYTE   W06
 BYTE   N04
 BYTE   W06
 BYTE   En2
 BYTE   W06
 BYTE   N04
 BYTE   W06
 BYTE   N04
 BYTE   W06
 BYTE   En3
 BYTE   N04  Bn3
 BYTE   W06
 BYTE   En2
 BYTE   W06
 BYTE   N04
 BYTE   W06
 BYTE   N04
 BYTE   W06
 BYTE   En3
 BYTE   N04  Bn3
 BYTE   W06
 BYTE   En2
 BYTE   W06
 BYTE   En3
 BYTE   N04  Bn3
 BYTE   W06
 BYTE   En2
 BYTE   W06
 BYTE   N04
 BYTE   W05
 BYTE   PEND 
// 045   ----------------------------------------
Label_5_014AED20:
 BYTE   W01
 BYTE   N04  Bn2  v127
 BYTE   W06
 BYTE   N04
 BYTE   W06
 BYTE   N04
 BYTE   W06
 BYTE   Fs3
 BYTE   N04  Bn3
 BYTE   W06
 BYTE   Bn2
 BYTE   W06
 BYTE   N04
 BYTE   W06
 BYTE   N04
 BYTE   W06
 BYTE   Fs3
 BYTE   N04  Bn3
 BYTE   W06
 BYTE   Bn2
 BYTE   W06
 BYTE   Fs3
 BYTE   N04  Bn3
 BYTE   W06
 BYTE   Bn2
 BYTE   W06
 BYTE   N04
 BYTE   W06
 BYTE   En2
 BYTE   W06
 BYTE   N04
 BYTE   W06
 BYTE   N04
 BYTE   W06
 BYTE   Bn2
 BYTE   N04  En3
 BYTE   W05
 BYTE   PEND 
// 046   ----------------------------------------
Label_5_014AED4C:
 BYTE   W01
 BYTE   N04  En2  v127
 BYTE   W06
 BYTE   N04
 BYTE   W06
 BYTE   N04
 BYTE   W06
 BYTE   Bn3
 BYTE   N04  En4
 BYTE   W06
 BYTE   En3
 BYTE   W06
 BYTE   N04
 BYTE   N04  Bn3
 BYTE   W06
 BYTE   En2
 BYTE   W06
 BYTE   En3
 BYTE   N04  Bn3
 BYTE   W06
 BYTE   Dn2
 BYTE   W06
 BYTE   N04
 BYTE   W06
 BYTE   N04
 BYTE   W06
 BYTE   Fs3
 BYTE   N04  Dn4
 BYTE   W06
 BYTE   Dn3
 BYTE   W06
 BYTE   Fs3
 BYTE   N04  Dn4
 BYTE   W06
 BYTE   Dn2
 BYTE   W06
 BYTE   Fs3
 BYTE   N04  Dn4
 BYTE   W05
 BYTE   PEND 
// 047   ----------------------------------------
Label_5_014AED7C:
 BYTE   W01
 BYTE   N04  Dn3  v127
 BYTE   W06
 BYTE   Fs3
 BYTE   N04  Dn4
 BYTE   W06
 BYTE   Dn2
 BYTE   W06
 BYTE   N04
 BYTE   W06
 BYTE   Cn2
 BYTE   W06
 BYTE   N04
 BYTE   W06
 BYTE   N04
 BYTE   W06
 BYTE   En3
 BYTE   N04  Cn4
 BYTE   W06
 BYTE   Cn3
 BYTE   W06
 BYTE   En3
 BYTE   N04  Cn4
 BYTE   W06
 BYTE   Cn2
 BYTE   W06
 BYTE   En3
 BYTE   N04  Cn4
 BYTE   W06
 BYTE   Cn3
 BYTE   W06
 BYTE   En3
 BYTE   N04  Cn4
 BYTE   W06
 BYTE   Cn3
 BYTE   W06
 BYTE   N04
 BYTE   W05
 BYTE   PEND 
// 048   ----------------------------------------
Label_5_014AEDAA:
 BYTE   W01
 BYTE   N04  Bn2  v127
 BYTE   W06
 BYTE   N04
 BYTE   W06
 BYTE   N04
 BYTE   W06
 BYTE   Fs3
 BYTE   N04  Bn3
 BYTE   W06
 BYTE   Bn2
 BYTE   W06
 BYTE   Fs3
 BYTE   N04  Bn3
 BYTE   W06
 BYTE   Bn2
 BYTE   W06
 BYTE   Fs3
 BYTE   N04  Bn3
 BYTE   W06
 BYTE   Bn2
 BYTE   W06
 BYTE   En3
 BYTE   N04  Bn3
 BYTE   W06
 BYTE   Bn2
 BYTE   W06
 BYTE   Fs3
 BYTE   N04  Bn3
 BYTE   W06
 BYTE   Bn2
 BYTE   W06
 BYTE   N04
 BYTE   W06
 BYTE   N04
 BYTE   W06
 BYTE   Fs3
 BYTE   N04  Bn3
 BYTE   W05
 BYTE   PEND 
// 049   ----------------------------------------
 BYTE   W01
 BYTE   Bn2
 BYTE   W06
 BYTE   N04
 BYTE   W06
 BYTE   N04
 BYTE   W06
 BYTE   N04
 BYTE   W06
 BYTE   N04
 BYTE   W06
 BYTE   Fs3
 BYTE   N04  Bn3
 BYTE   W06
 BYTE   Bn2
 BYTE   W06
 BYTE   N04
 BYTE   W06
 BYTE   Fs2
 BYTE   W06
 BYTE   N04
 BYTE   W06
 BYTE   N04
 BYTE   W06
 BYTE   Fs3
 BYTE   N04  Cs4
 BYTE   W06
 BYTE   Fs2
 BYTE   W06
 BYTE   N04
 BYTE   W06
 BYTE   N04
 BYTE   W06
 BYTE   N04
 BYTE   W05
// 050   ----------------------------------------
 BYTE   PATT
  POIN2 Label_5_014AECF4
// 051   ----------------------------------------
 BYTE   PATT
  POIN2 Label_5_014AED20
// 052   ----------------------------------------
 BYTE   PATT
  POIN2 Label_5_014AED4C
// 053   ----------------------------------------
 BYTE   PATT
  POIN2 Label_5_014AED7C
// 054   ----------------------------------------
 BYTE   PATT
  POIN2 Label_5_014AEDAA
// 055   ----------------------------------------
 BYTE   W01
 BYTE   N04  Bn2  v127
 BYTE   W06
 BYTE   N04
 BYTE   W06
 BYTE   N04
 BYTE   W06
 BYTE   N04
 BYTE   W06
 BYTE   N04
 BYTE   W06
 BYTE   Fs3
 BYTE   N04  Bn3
 BYTE   W06
 BYTE   Bn2
 BYTE   W06
 BYTE   N04
 BYTE   W04
 BYTE   GoTo
  POIN2 Label_5_014AE7E1
 BYTE   FINE

//**************** Track 7 (Midi-Chn.6) ****************//

songE9_007:
// 000   ----------------------------------------
 BYTE   KEYSH   songE9_key+0
Label_6_014AEE35:
 BYTE   VOICE   46
 BYTE   VOL   18*songE9_mvl/mxv
 BYTE   PAN   c_v-24
 BYTE   BEND   c_v+0
 BYTE   W96
// 001   ----------------------------------------
 BYTE   W96
// 002   ----------------------------------------
 BYTE   W96
// 003   ----------------------------------------
 BYTE   W96
// 004   ----------------------------------------
 BYTE   W96
// 005   ----------------------------------------
 BYTE   W96
// 006   ----------------------------------------
 BYTE   W96
// 007   ----------------------------------------
 BYTE   W96
// 008   ----------------------------------------
 BYTE   W96
// 009   ----------------------------------------
 BYTE   W96
// 010   ----------------------------------------
 BYTE   W96
// 011   ----------------------------------------
 BYTE   W96
// 012   ----------------------------------------
Label_6_014AEE49:
 BYTE   W01
 BYTE   N04  Fs2  v127
 BYTE   W06
 BYTE   Cs3
 BYTE   W06
 BYTE   Fs3
 BYTE   W06
 BYTE   Gs3
 BYTE   W06
 BYTE   An3
 BYTE   W06
 BYTE   Cs4
 BYTE   W06
 BYTE   An4
 BYTE   W06
 BYTE   Gs4
 BYTE   W06
 BYTE   Fs4
 BYTE   W06
 BYTE   Cs4
 BYTE   W06
 BYTE   An3
 BYTE   W06
 BYTE   Fs3
 BYTE   W06
 BYTE   En2
 BYTE   W06
 BYTE   Bn2
 BYTE   W06
 BYTE   En3
 BYTE   W06
 BYTE   Gs3
 BYTE   W05
 BYTE   PEND 
// 013   ----------------------------------------
Label_6_014AEE6D:
 BYTE   W01
 BYTE   N04  Bn3  v127
 BYTE   W06
 BYTE   En4
 BYTE   W06
 BYTE   An4
 BYTE   W06
 BYTE   Gs4
 BYTE   W06
 BYTE   En4
 BYTE   W06
 BYTE   Bn3
 BYTE   W06
 BYTE   Gs3
 BYTE   W06
 BYTE   En3
 BYTE   W06
 BYTE   Bn1
 BYTE   W06
 BYTE   Fs2
 BYTE   W06
 BYTE   Bn2
 BYTE   W06
 BYTE   Ds3
 BYTE   W06
 BYTE   Fs3
 BYTE   W06
 BYTE   Bn3
 BYTE   W06
 BYTE   Ds4
 BYTE   W06
 BYTE   Bn3
 BYTE   W05
 BYTE   PEND 
// 014   ----------------------------------------
Label_6_014AEE91:
 BYTE   W01
 BYTE   N04  Fs4  v127
 BYTE   W06
 BYTE   Bn4
 BYTE   W06
 BYTE   Fs4
 BYTE   W06
 BYTE   Ds4
 BYTE   W06
 BYTE   En2
 BYTE   W06
 BYTE   Bn2
 BYTE   W06
 BYTE   En3
 BYTE   W06
 BYTE   Fs3
 BYTE   W06
 BYTE   Gn3
 BYTE   W06
 BYTE   Bn3
 BYTE   W06
 BYTE   En4
 BYTE   W06
 BYTE   Gn3
 BYTE   W06
 BYTE   Gn4
 BYTE   W06
 BYTE   Fs4
 BYTE   W06
 BYTE   En4
 BYTE   W06
 BYTE   Bn3
 BYTE   W05
 BYTE   PEND 
// 015   ----------------------------------------
Label_6_014AEEB5:
 BYTE   W01
 BYTE   N04  Dn2  v127
 BYTE   W06
 BYTE   An2
 BYTE   W06
 BYTE   Dn3
 BYTE   W06
 BYTE   Fs3
 BYTE   W06
 BYTE   An3
 BYTE   W06
 BYTE   Dn4
 BYTE   W06
 BYTE   Fs4
 BYTE   W06
 BYTE   Dn4
 BYTE   W06
 BYTE   An4
 BYTE   W06
 BYTE   Fs4
 BYTE   W06
 BYTE   Dn4
 BYTE   W06
 BYTE   An3
 BYTE   W06
 BYTE   Cn2
 BYTE   W06
 BYTE   Gn2
 BYTE   W06
 BYTE   Cn3
 BYTE   W06
 BYTE   En3
 BYTE   W05
 BYTE   PEND 
// 016   ----------------------------------------
Label_6_014AEED9:
 BYTE   W01
 BYTE   N04  Gn3  v127
 BYTE   W06
 BYTE   Bn3
 BYTE   W06
 BYTE   Cn4
 BYTE   W06
 BYTE   En4
 BYTE   W06
 BYTE   Gn4
 BYTE   W06
 BYTE   Bn4
 BYTE   W06
 BYTE   Gn4
 BYTE   W06
 BYTE   En4
 BYTE   W06
 BYTE   Bn1
 BYTE   W06
 BYTE   Fs2
 BYTE   W06
 BYTE   Bn2
 BYTE   W06
 BYTE   En3
 BYTE   W06
 BYTE   Fs3
 BYTE   W06
 BYTE   Bn3
 BYTE   W06
 BYTE   En4
 BYTE   W06
 BYTE   Fs4
 BYTE   W05
 BYTE   PEND 
// 017   ----------------------------------------
Label_6_014AEEFD:
 BYTE   W01
 BYTE   N04  Bn4  v127
 BYTE   W06
 BYTE   Fs4
 BYTE   W06
 BYTE   En4
 BYTE   W06
 BYTE   Bn3
 BYTE   W06
 BYTE   Bn1
 BYTE   W06
 BYTE   Fs2
 BYTE   W06
 BYTE   Bn2
 BYTE   W06
 BYTE   Ds3
 BYTE   W06
 BYTE   Fs3
 BYTE   W06
 BYTE   Bn3
 BYTE   W06
 BYTE   Ds4
 BYTE   W06
 BYTE   Bn3
 BYTE   W06
 BYTE   Fs4
 BYTE   W06
 BYTE   Bn4
 BYTE   W06
 BYTE   Fs4
 BYTE   W06
 BYTE   Bn3
 BYTE   W05
 BYTE   PEND 
// 018   ----------------------------------------
 BYTE   PATT
  POIN2 Label_6_014AEE49
// 019   ----------------------------------------
 BYTE   PATT
  POIN2 Label_6_014AEE6D
// 020   ----------------------------------------
 BYTE   PATT
  POIN2 Label_6_014AEE91
// 021   ----------------------------------------
 BYTE   PATT
  POIN2 Label_6_014AEEB5
// 022   ----------------------------------------
 BYTE   PATT
  POIN2 Label_6_014AEED9
// 023   ----------------------------------------
 BYTE   PATT
  POIN2 Label_6_014AEEFD
// 024   ----------------------------------------
 BYTE   W96
// 025   ----------------------------------------
 BYTE   W96
// 026   ----------------------------------------
 BYTE   W96
// 027   ----------------------------------------
 BYTE   W96
// 028   ----------------------------------------
 BYTE   W96
// 029   ----------------------------------------
 BYTE   W96
// 030   ----------------------------------------
 BYTE   W96
// 031   ----------------------------------------
 BYTE   W96
// 032   ----------------------------------------
 BYTE   W96
// 033   ----------------------------------------
 BYTE   W96
// 034   ----------------------------------------
 BYTE   W96
// 035   ----------------------------------------
 BYTE   W96
// 036   ----------------------------------------
 BYTE   W01
 BYTE   N04  An2  v120
 BYTE   W06
 BYTE   En3
 BYTE   W06
 BYTE   An3
 BYTE   W06
 BYTE   Cn4
 BYTE   W06
 BYTE   An3
 BYTE   W06
 BYTE   En3
 BYTE   W06
 BYTE   Gs2
 BYTE   W06
 BYTE   En3
 BYTE   W06
 BYTE   Gs3
 BYTE   W06
 BYTE   En4
 BYTE   W06
 BYTE   Bn3
 BYTE   W06
 BYTE   Gs3
 BYTE   W06
 BYTE   An2
 BYTE   W06
 BYTE   En3
 BYTE   W06
 BYTE   An3
 BYTE   W06
 BYTE   Cn4
 BYTE   W05
// 037   ----------------------------------------
 BYTE   W01
 BYTE   An3
 BYTE   W06
 BYTE   En3
 BYTE   W06
 BYTE   Dn3
 BYTE   W06
 BYTE   Fn3
 BYTE   W06
 BYTE   An3
 BYTE   W06
 BYTE   Dn4
 BYTE   W06
 BYTE   An3
 BYTE   W06
 BYTE   Fn4
 BYTE   W06
 BYTE   Bn2
 BYTE   W06
 BYTE   Ds3
 BYTE   W06
 BYTE   Fs3
 BYTE   W06
 BYTE   Bn3
 BYTE   W06
 BYTE   Ds4
 BYTE   W06
 BYTE   Fs4
 BYTE   W06
 BYTE   Bn4
 BYTE   W06
 BYTE   Gn4
 BYTE   W05
// 038   ----------------------------------------
 BYTE   W01
 BYTE   En4
 BYTE   W06
 BYTE   Bn3
 BYTE   W06
 BYTE   Gn3
 BYTE   W06
 BYTE   En3
 BYTE   W06
 BYTE   Dn2
 BYTE   W06
 BYTE   Dn3
 BYTE   W06
 BYTE   Fn3
 BYTE   W06
 BYTE   Gs3
 BYTE   W06
 BYTE   Bn3
 BYTE   W06
 BYTE   Dn4
 BYTE   W06
 BYTE   Fs2
 BYTE   W06
 BYTE   Cs3
 BYTE   W06
 BYTE   Fs3
 BYTE   W06
 BYTE   An3
 BYTE   W06
 BYTE   Cs4
 BYTE   W06
 BYTE   Fs4
 BYTE   W05
// 039   ----------------------------------------
 BYTE   W01
 BYTE   Fn2
 BYTE   W06
 BYTE   Gs2
 BYTE   W06
 BYTE   Cs3
 BYTE   W06
 BYTE   Fn3
 BYTE   W06
 BYTE   Gs3
 BYTE   W06
 BYTE   Cs4
 BYTE   W06
 BYTE   Fs2
 BYTE   W06
 BYTE   Cs3
 BYTE   W06
 BYTE   Fs3
 BYTE   W06
 BYTE   An3
 BYTE   W06
 BYTE   Cs4
 BYTE   W06
 BYTE   Fs4
 BYTE   W06
 BYTE   Gs2
 BYTE   W06
 BYTE   Bn2
 BYTE   W06
 BYTE   En3
 BYTE   W06
 BYTE   Gs3
 BYTE   W05
// 040   ----------------------------------------
 BYTE   W01
 BYTE   Bn3
 BYTE   W06
 BYTE   En4
 BYTE   W06
 BYTE   An2
 BYTE   W06
 BYTE   Cs3
 BYTE   W06
 BYTE   En3
 BYTE   W06
 BYTE   An3
 BYTE   W06
 BYTE   Cs4
 BYTE   W06
 BYTE   En4
 BYTE   W06
 BYTE   As2
 BYTE   W06
 BYTE   Cs3
 BYTE   W06
 BYTE   Fs3
 BYTE   W06
 BYTE   As3
 BYTE   W06
 BYTE   Cs4
 BYTE   W06
 BYTE   Fs4
 BYTE   W06
 BYTE   Bn2
 BYTE   W06
 BYTE   Dn3
 BYTE   W05
// 041   ----------------------------------------
 BYTE   W01
 BYTE   Fs3
 BYTE   W06
 BYTE   Bn3
 BYTE   W06
 BYTE   Dn4
 BYTE   W06
 BYTE   Fs4
 BYTE   W06
 BYTE   An2
 BYTE   W06
 BYTE   Cs3
 BYTE   W06
 BYTE   En3
 BYTE   W06
 BYTE   An3
 BYTE   W06
 BYTE   Cs4
 BYTE   W06
 BYTE   En4
 BYTE   W06
 BYTE   Dn2
 BYTE   W06
 BYTE   An2
 BYTE   W06
 BYTE   Dn3
 BYTE   W06
 BYTE   Fn3
 BYTE   W06
 BYTE   An3
 BYTE   W06
 BYTE   Dn4
 BYTE   W05
// 042   ----------------------------------------
 BYTE   W01
 BYTE   En2
 BYTE   W06
 BYTE   Bn2
 BYTE   W06
 BYTE   En3
 BYTE   W06
 BYTE   An3
 BYTE   W06
 BYTE   Bn3
 BYTE   W06
 BYTE   En4
 BYTE   W06
 BYTE   An4
 BYTE   W06
 BYTE   En4
 BYTE   W06
 BYTE   Bn4
 BYTE   W06
 BYTE   En5
 BYTE   W06
 BYTE   Bn4
 BYTE   W06
 BYTE   An4
 BYTE   W06
 BYTE   En5
 BYTE   W03
 BYTE   Bn4
 BYTE   W03
 BYTE   Gs4
 BYTE   W03
 BYTE   En4
 BYTE   W03
 BYTE   Bn4
 BYTE   W03
 BYTE   Gs4
 BYTE   W03
 BYTE   En4
 BYTE   W03
 BYTE   Bn3
 BYTE   W02
// 043   ----------------------------------------
 BYTE   W01
 BYTE   Gs4
 BYTE   W03
 BYTE   En4
 BYTE   W03
 BYTE   Bn3
 BYTE   W03
 BYTE   Gs3
 BYTE   W03
 BYTE   En4
 BYTE   W03
 BYTE   Bn3
 BYTE   W03
 BYTE   Gs3
 BYTE   W03
 BYTE   En3
 BYTE   W03
 BYTE   Bn3
 BYTE   W03
 BYTE   Gs3
 BYTE   W03
 BYTE   En3
 BYTE   W03
 BYTE   Bn2
 BYTE   W03
 BYTE   Bn3
 BYTE   W03
 BYTE   Gs3
 BYTE   W03
 BYTE   En3
 BYTE   W03
 BYTE   Bn2
 BYTE   W03
 BYTE   Fs2
 BYTE   W06
 BYTE   Cs3
 BYTE   W06
 BYTE   Fs3
 BYTE   W06
 BYTE   Gs3
 BYTE   W06
 BYTE   An3
 BYTE   W06
 BYTE   Cs4
 BYTE   W06
 BYTE   An4
 BYTE   W06
 BYTE   Gs4
 BYTE   W05
// 044   ----------------------------------------
Label_6_014AF06D:
 BYTE   W01
 BYTE   N04  Fs4  v120
 BYTE   W06
 BYTE   Cs4
 BYTE   W06
 BYTE   An3
 BYTE   W06
 BYTE   Fs3
 BYTE   W06
 BYTE   En2
 BYTE   W06
 BYTE   Bn2
 BYTE   W06
 BYTE   En3
 BYTE   W06
 BYTE   Gs3
 BYTE   W06
 BYTE   Bn3
 BYTE   W06
 BYTE   En4
 BYTE   W06
 BYTE   An4
 BYTE   W06
 BYTE   Gs4
 BYTE   W06
 BYTE   En4
 BYTE   W06
 BYTE   Bn3
 BYTE   W06
 BYTE   Gs3
 BYTE   W06
 BYTE   En3
 BYTE   W05
 BYTE   PEND 
// 045   ----------------------------------------
Label_6_014AF091:
 BYTE   W01
 BYTE   N04  Bn1  v120
 BYTE   W06
 BYTE   Fs2
 BYTE   W06
 BYTE   Bn2
 BYTE   W06
 BYTE   Ds3
 BYTE   W06
 BYTE   Fs3
 BYTE   W06
 BYTE   Bn3
 BYTE   W06
 BYTE   Ds4
 BYTE   W06
 BYTE   Bn3
 BYTE   W06
 BYTE   Fs4
 BYTE   W06
 BYTE   Bn4
 BYTE   W06
 BYTE   Fs4
 BYTE   W06
 BYTE   Ds4
 BYTE   W06
 BYTE   En2
 BYTE   W06
 BYTE   Bn2
 BYTE   W06
 BYTE   En3
 BYTE   W06
 BYTE   Fs3
 BYTE   W05
 BYTE   PEND 
// 046   ----------------------------------------
Label_6_014AF0B5:
 BYTE   W01
 BYTE   N04  Gn3  v120
 BYTE   W06
 BYTE   Bn3
 BYTE   W06
 BYTE   En4
 BYTE   W06
 BYTE   Gn3
 BYTE   W06
 BYTE   Gn4
 BYTE   W06
 BYTE   Fs4
 BYTE   W06
 BYTE   En4
 BYTE   W06
 BYTE   Bn3
 BYTE   W06
 BYTE   Dn2
 BYTE   W06
 BYTE   An2
 BYTE   W06
 BYTE   Dn3
 BYTE   W06
 BYTE   Fs3
 BYTE   W06
 BYTE   An3
 BYTE   W06
 BYTE   Dn4
 BYTE   W06
 BYTE   Fs4
 BYTE   W06
 BYTE   Dn4
 BYTE   W05
 BYTE   PEND 
// 047   ----------------------------------------
Label_6_014AF0D9:
 BYTE   W01
 BYTE   N04  An4  v120
 BYTE   W06
 BYTE   Fs4
 BYTE   W06
 BYTE   Dn4
 BYTE   W06
 BYTE   An3
 BYTE   W06
 BYTE   Cn2
 BYTE   W06
 BYTE   Gn2
 BYTE   W06
 BYTE   Cn3
 BYTE   W06
 BYTE   En3
 BYTE   W06
 BYTE   Gn3
 BYTE   W06
 BYTE   Bn3
 BYTE   W06
 BYTE   Cn4
 BYTE   W06
 BYTE   En4
 BYTE   W06
 BYTE   Gn4
 BYTE   W06
 BYTE   Bn4
 BYTE   W06
 BYTE   Gn4
 BYTE   W06
 BYTE   En4
 BYTE   W05
 BYTE   PEND 
// 048   ----------------------------------------
Label_6_014AF0FD:
 BYTE   W01
 BYTE   N04  Bn1  v120
 BYTE   W06
 BYTE   Fs2
 BYTE   W06
 BYTE   Bn2
 BYTE   W06
 BYTE   En3
 BYTE   W06
 BYTE   Fs3
 BYTE   W06
 BYTE   Bn3
 BYTE   W06
 BYTE   En4
 BYTE   W06
 BYTE   Fs4
 BYTE   W06
 BYTE   Bn4
 BYTE   W06
 BYTE   Fs4
 BYTE   W06
 BYTE   En4
 BYTE   W06
 BYTE   Bn3
 BYTE   W06
 BYTE   Bn1
 BYTE   W06
 BYTE   Fs2
 BYTE   W06
 BYTE   Bn2
 BYTE   W06
 BYTE   Ds3
 BYTE   W05
 BYTE   PEND 
// 049   ----------------------------------------
 BYTE   W01
 BYTE   Fs3
 BYTE   W06
 BYTE   Bn3
 BYTE   W06
 BYTE   Ds4
 BYTE   W06
 BYTE   Bn3
 BYTE   W06
 BYTE   Fs4
 BYTE   W06
 BYTE   Bn4
 BYTE   W06
 BYTE   Fs4
 BYTE   W06
 BYTE   Bn3
 BYTE   W06
 BYTE   Fs2
 BYTE   W06
 BYTE   Cs3
 BYTE   W06
 BYTE   Fs3
 BYTE   W06
 BYTE   Gs3
 BYTE   W06
 BYTE   An3
 BYTE   W06
 BYTE   Cs4
 BYTE   W06
 BYTE   An4
 BYTE   W06
 BYTE   Gs4
 BYTE   W05
// 050   ----------------------------------------
 BYTE   PATT
  POIN2 Label_6_014AF06D
// 051   ----------------------------------------
 BYTE   PATT
  POIN2 Label_6_014AF091
// 052   ----------------------------------------
 BYTE   PATT
  POIN2 Label_6_014AF0B5
// 053   ----------------------------------------
 BYTE   PATT
  POIN2 Label_6_014AF0D9
// 054   ----------------------------------------
 BYTE   PATT
  POIN2 Label_6_014AF0FD
// 055   ----------------------------------------
 BYTE   W01
 BYTE   N04  Fs3  v120
 BYTE   W06
 BYTE   Bn3
 BYTE   W06
 BYTE   Ds4
 BYTE   W06
 BYTE   Bn3
 BYTE   W06
 BYTE   Fs4
 BYTE   W06
 BYTE   Bn4
 BYTE   W06
 BYTE   Fs4
 BYTE   W06
 BYTE   Bn3
 BYTE   W04
 BYTE   GoTo
  POIN2 Label_6_014AEE35
 BYTE   FINE

//**************** Track 8 (Midi-Chn.7) ****************//

songE9_008:
// 000   ----------------------------------------
 BYTE   KEYSH   songE9_key+0
Label_7_014AF176:
 BYTE   VOICE   52
 BYTE   VOL   16*songE9_mvl/mxv
 BYTE   PAN   c_v-10
 BYTE   BEND   c_v+0
 BYTE   W96
// 001   ----------------------------------------
 BYTE   W96
// 002   ----------------------------------------
 BYTE   W96
// 003   ----------------------------------------
 BYTE   W96
// 004   ----------------------------------------
 BYTE   W96
// 005   ----------------------------------------
 BYTE   W96
// 006   ----------------------------------------
 BYTE   W96
// 007   ----------------------------------------
 BYTE   W96
// 008   ----------------------------------------
 BYTE   W96
// 009   ----------------------------------------
 BYTE   W96
// 010   ----------------------------------------
 BYTE   W96
// 011   ----------------------------------------
 BYTE   W96
// 012   ----------------------------------------
Label_7_014AF18A:
 BYTE   W01
 BYTE   N68  Fs3  v127
 BYTE   N68  An3
 BYTE   N68  Cs4
 BYTE   W72
 BYTE   Gs3
 BYTE   N68  Bn3
 BYTE   N68  En4
 BYTE   W23
 BYTE   PEND 
// 013   ----------------------------------------
Label_7_014AF19A:
 BYTE   W48
 BYTE   W01
 BYTE   N68  Fs3  v127
 BYTE   N68  Bn3
 BYTE   N68  Ds4
 BYTE   W44
 BYTE   W03
 BYTE   PEND 
// 014   ----------------------------------------
Label_7_014AF1A6:
 BYTE   W24
 BYTE   W01
 BYTE   N68  Gn3  v127
 BYTE   N68  Bn3
 BYTE   N68  En4
 BYTE   W68
 BYTE   W03
 BYTE   PEND 
// 015   ----------------------------------------
Label_7_014AF1B2:
 BYTE   W01
 BYTE   N68  Fs3  v127
 BYTE   N68  An3
 BYTE   N68  Dn4
 BYTE   W72
 BYTE   En3
 BYTE   N68  Gn3
 BYTE   N68  Cn4
 BYTE   W23
 BYTE   PEND 
// 016   ----------------------------------------
Label_7_014AF1C2:
 BYTE   W48
 BYTE   W01
 BYTE   N68  En3  v127
 BYTE   TIE  Fs3
 BYTE   TIE  Bn3
 BYTE   W44
 BYTE   W03
 BYTE   PEND 
// 017   ----------------------------------------
Label_7_014AF1CE:
 BYTE   W24
 BYTE   W01
 BYTE   N68  Ds3  v127
 BYTE   W68
 BYTE   W02
 BYTE   PEND 
 BYTE   EOT
 BYTE   Fs3  v071
 BYTE   W01
// 018   ----------------------------------------
 BYTE   PATT
  POIN2 Label_7_014AF18A
// 019   ----------------------------------------
 BYTE   PATT
  POIN2 Label_7_014AF19A
// 020   ----------------------------------------
 BYTE   PATT
  POIN2 Label_7_014AF1A6
// 021   ----------------------------------------
 BYTE   PATT
  POIN2 Label_7_014AF1B2
// 022   ----------------------------------------
 BYTE   PATT
  POIN2 Label_7_014AF1C2
// 023   ----------------------------------------
 BYTE   PATT
  POIN2 Label_7_014AF1CE
// 024   ----------------------------------------
 BYTE   EOT
 BYTE   Fs3  v071
 BYTE   W01
 BYTE   W96
// 025   ----------------------------------------
 BYTE   W96
// 026   ----------------------------------------
 BYTE   W96
// 027   ----------------------------------------
 BYTE   W96
// 028   ----------------------------------------
 BYTE   W96
// 029   ----------------------------------------
 BYTE   W96
// 030   ----------------------------------------
 BYTE   W96
// 031   ----------------------------------------
 BYTE   W96
// 032   ----------------------------------------
 BYTE   W96
// 033   ----------------------------------------
 BYTE   W96
// 034   ----------------------------------------
 BYTE   W96
// 035   ----------------------------------------
 BYTE   W96
// 036   ----------------------------------------
 BYTE   W01
 BYTE   N68  En3  v127
 BYTE   N32  An3
 BYTE   N32  Cn4
 BYTE   W36
 BYTE   Gs3
 BYTE   N32  Bn3
 BYTE   W36
 BYTE   En3
 BYTE   N68  An3
 BYTE   N32  Cn4
 BYTE   W23
// 037   ----------------------------------------
 BYTE   W13
 BYTE   Fn3
 BYTE   N32  Dn4
 BYTE   W36
 BYTE   Fs3
 BYTE   N68  Bn3
 BYTE   N32  Ds4
 BYTE   W36
 BYTE   Gn3
 BYTE   N32  En4
 BYTE   W11
// 038   ----------------------------------------
 BYTE   W24
 BYTE   W01
 BYTE   Gs3
 BYTE   N32  Bn3
 BYTE   N32  Dn4
 BYTE   W36
 BYTE   Fs3
 BYTE   N32  An3
 BYTE   TIE  Cs4
 BYTE   W32
 BYTE   W03
// 039   ----------------------------------------
 BYTE   W01
 BYTE   N32  Fn3
 BYTE   N32  Gs3
 BYTE   W36
 BYTE   Fs3
 BYTE   N32  An3
 BYTE   W32
 BYTE   W02
 BYTE   EOT
 BYTE   Cs4
 BYTE   W02
 BYTE   N32  En3
 BYTE   N32  Gs3
 BYTE   N32  Bn3
 BYTE   W23
// 040   ----------------------------------------
 BYTE   W13
 BYTE   En3
 BYTE   N32  An3
 BYTE   N32  Cs4
 BYTE   W36
 BYTE   Fs3
 BYTE   N32  As3
 BYTE   N32  Cs4
 BYTE   W36
 BYTE   Fs3
 BYTE   N32  Bn3
 BYTE   N32  Dn4
 BYTE   W11
// 041   ----------------------------------------
 BYTE   W24
 BYTE   W01
 BYTE   An3
 BYTE   N32  Cs4
 BYTE   N32  En4
 BYTE   W36
 BYTE   An3
 BYTE   N32  Dn4
 BYTE   N32  Fn4
 BYTE   W32
 BYTE   W03
// 042   ----------------------------------------
 BYTE   W01
 BYTE   N68  An3
 BYTE   TIE  Bn3
 BYTE   TIE  En4
 BYTE   W72
 BYTE   N68  Gs3
 BYTE   W23
// 043   ----------------------------------------
 BYTE   W44
 BYTE   W03
 BYTE   EOT
 BYTE   Bn3  v076
 BYTE   W02
 BYTE   N68  Fs3
 BYTE   N68  An3
 BYTE   N68  Cs4
 BYTE   W44
 BYTE   W03
// 044   ----------------------------------------
Label_7_014AF289:
 BYTE   W24
 BYTE   W01
 BYTE   N68  Gs3  v127
 BYTE   N68  Bn3
 BYTE   N68  En4
 BYTE   W68
 BYTE   W03
 BYTE   PEND 
// 045   ----------------------------------------
Label_7_014AF295:
 BYTE   W01
 BYTE   N68  Fs3  v127
 BYTE   N68  Bn3
 BYTE   N68  Ds4
 BYTE   W72
 BYTE   Gn3
 BYTE   N68  Bn3
 BYTE   N68  En4
 BYTE   W23
 BYTE   PEND 
// 046   ----------------------------------------
Label_7_014AF2A5:
 BYTE   W48
 BYTE   W01
 BYTE   N68  Fs3  v127
 BYTE   N68  An3
 BYTE   N68  Dn4
 BYTE   W44
 BYTE   W03
 BYTE   PEND 
// 047   ----------------------------------------
Label_7_014AF2B1:
 BYTE   W24
 BYTE   W01
 BYTE   N68  En3  v127
 BYTE   N68  Gn3
 BYTE   N68  Cn4
 BYTE   W68
 BYTE   W03
 BYTE   PEND 
// 048   ----------------------------------------
Label_7_014AF2BD:
 BYTE   W01
 BYTE   N68  En3  v127
 BYTE   TIE  Fs3
 BYTE   TIE  Bn3
 BYTE   W72
 BYTE   N68  Ds3
 BYTE   W23
 BYTE   PEND 
// 049   ----------------------------------------
 BYTE   W44
 BYTE   W03
 BYTE   EOT
 BYTE   Fs3  v071
 BYTE   W02
 BYTE   N68  Fs3
 BYTE   N68  An3
 BYTE   N68  Cs4
 BYTE   W44
 BYTE   W03
// 050   ----------------------------------------
 BYTE   PATT
  POIN2 Label_7_014AF289
// 051   ----------------------------------------
 BYTE   PATT
  POIN2 Label_7_014AF295
// 052   ----------------------------------------
 BYTE   PATT
  POIN2 Label_7_014AF2A5
// 053   ----------------------------------------
 BYTE   PATT
  POIN2 Label_7_014AF2B1
// 054   ----------------------------------------
 BYTE   PATT
  POIN2 Label_7_014AF2BD
// 055   ----------------------------------------
 BYTE   W44
 BYTE   W03
 BYTE   EOT
 BYTE   Fs3  v071
 BYTE   GoTo
  POIN2 Label_7_014AF176
 BYTE   FINE

//**************** Track 9 (Midi-Chn.8) ****************//

songE9_009:
// 000   ----------------------------------------
 BYTE   KEYSH   songE9_key+0
Label_8_014AF2FE:
 BYTE   VOICE   48
 BYTE   VOL   14*songE9_mvl/mxv
 BYTE   PAN   c_v-64
 BYTE   BEND   c_v+0
 BYTE   W96
// 001   ----------------------------------------
 BYTE   W96
// 002   ----------------------------------------
 BYTE   W96
// 003   ----------------------------------------
 BYTE   W96
// 004   ----------------------------------------
 BYTE   W96
// 005   ----------------------------------------
 BYTE   W96
// 006   ----------------------------------------
 BYTE   W96
// 007   ----------------------------------------
 BYTE   W96
// 008   ----------------------------------------
 BYTE   W96
// 009   ----------------------------------------
 BYTE   W96
// 010   ----------------------------------------
 BYTE   W96
// 011   ----------------------------------------
 BYTE   W96
// 012   ----------------------------------------
 BYTE   W96
// 013   ----------------------------------------
 BYTE   W96
// 014   ----------------------------------------
 BYTE   W96
// 015   ----------------------------------------
 BYTE   W96
// 016   ----------------------------------------
 BYTE   W96
// 017   ----------------------------------------
 BYTE   W96
// 018   ----------------------------------------
 BYTE   W96
// 019   ----------------------------------------
 BYTE   W96
// 020   ----------------------------------------
 BYTE   W96
// 021   ----------------------------------------
 BYTE   W96
// 022   ----------------------------------------
 BYTE   W96
// 023   ----------------------------------------
 BYTE   W96
// 024   ----------------------------------------
Label_8_014AF31E:
 BYTE   W01
 BYTE   TIE  An4  v080
 BYTE   W92
 BYTE   W03
 BYTE   PEND 
// 025   ----------------------------------------
 BYTE   W11
 BYTE   EOT
 BYTE   W02
 BYTE   N32  Bn4
 BYTE   W36
 BYTE   TIE  Cn5
 BYTE   W44
 BYTE   W03
// 026   ----------------------------------------
 BYTE   W56
 BYTE   W03
 BYTE   EOT
 BYTE   W02
 BYTE   N32  Dn5
 BYTE   W32
 BYTE   W03
// 027   ----------------------------------------
 BYTE   W01
 BYTE   En5
 BYTE   W36
 BYTE   TIE  An4
 BYTE   W56
 BYTE   W03
// 028   ----------------------------------------
 BYTE   W96
// 029   ----------------------------------------
 BYTE   W23
 BYTE   EOT
 BYTE   W02
 BYTE   N68  Bn4
 BYTE   W68
 BYTE   W03
// 030   ----------------------------------------
 BYTE   W01
 BYTE   Cn5
 BYTE   W72
 BYTE   N32  Dn5
 BYTE   W23
// 031   ----------------------------------------
 BYTE   W13
 BYTE   Bn4
 BYTE   W36
 BYTE   N68  Cn5
 BYTE   W44
 BYTE   W03
// 032   ----------------------------------------
 BYTE   W24
 BYTE   W01
 BYTE   N32  Dn5
 BYTE   W36
 BYTE   Bn4
 BYTE   W32
 BYTE   W03
// 033   ----------------------------------------
 BYTE   PATT
  POIN2 Label_8_014AF31E
// 034   ----------------------------------------
 BYTE   W44
 BYTE   W03
 BYTE   EOT
 BYTE   An4
 BYTE   W02
 BYTE   TIE  Bn4  v080
 BYTE   W44
 BYTE   W03
// 035   ----------------------------------------
 BYTE   W92
 BYTE   W03
 BYTE   EOT
 BYTE   W01
// 036   ----------------------------------------
 BYTE   W01
 BYTE   N32  Cn5
 BYTE   W36
 BYTE   Bn4
 BYTE   W36
 BYTE   Cn5
 BYTE   W23
// 037   ----------------------------------------
 BYTE   W13
 BYTE   Dn5
 BYTE   W36
 BYTE   Ds5
 BYTE   W36
 BYTE   En5
 BYTE   W11
// 038   ----------------------------------------
 BYTE   W24
 BYTE   W01
 BYTE   Dn5
 BYTE   W36
 BYTE   TIE  Cs5
 BYTE   W32
 BYTE   W03
// 039   ----------------------------------------
 BYTE   W72
 BYTE   EOT
 BYTE   W01
 BYTE   N32  Bn4
 BYTE   W23
// 040   ----------------------------------------
 BYTE   W13
 BYTE   N68  Cs5
 BYTE   W72
 BYTE   N32  Dn5
 BYTE   W11
// 041   ----------------------------------------
 BYTE   W24
 BYTE   W01
 BYTE   Cs5
 BYTE   W36
 BYTE   Dn5
 BYTE   W32
 BYTE   W03
// 042   ----------------------------------------
 BYTE   W01
 BYTE   TIE  En5
 BYTE   W92
 BYTE   W03
// 043   ----------------------------------------
 BYTE   W44
 BYTE   W03
 BYTE   EOT
 BYTE   W48
 BYTE   W01
// 044   ----------------------------------------
 BYTE   W96
// 045   ----------------------------------------
 BYTE   W96
// 046   ----------------------------------------
 BYTE   W96
// 047   ----------------------------------------
 BYTE   W96
// 048   ----------------------------------------
 BYTE   W96
// 049   ----------------------------------------
 BYTE   W96
// 050   ----------------------------------------
 BYTE   W96
// 051   ----------------------------------------
 BYTE   W96
// 052   ----------------------------------------
 BYTE   W96
// 053   ----------------------------------------
 BYTE   W96
// 054   ----------------------------------------
 BYTE   W96
// 055   ----------------------------------------
 BYTE   W44
 BYTE   W03
 BYTE   GoTo
  POIN2 Label_8_014AF2FE
 BYTE   FINE

//**************** Track 10 (Midi-Chn.9) ****************//

songE9_010:
// 000   ----------------------------------------
 BYTE   KEYSH   songE9_key+0
Label_9_014AF3B8:
 BYTE   VOICE   124
 BYTE   VOL   39*songE9_mvl/mxv
 BYTE   PAN   c_v+0
 BYTE   BEND   c_v+0
 BYTE   N90  Cs2  v112
 BYTE   W01
 BYTE   N11  Cn1  v127
 BYTE   N11  Ds2  v072
 BYTE   W12
 BYTE   Cn1  v127
 BYTE   N11  Ds2  v056
 BYTE   W06
 BYTE   Dn1  v127
 BYTE   W06
 BYTE   Cn1
 BYTE   N04  Ds2  v072
 BYTE   W06
 BYTE   Ds2  v056
 BYTE   W06
 BYTE   N11  Cn1  v127
 BYTE   N04  Ds2  v072
 BYTE   W06
 BYTE   Ds2  v056
 BYTE   W06
 BYTE   N11  Cn1  v127
 BYTE   N11  Ds2  v072
 BYTE   W06
 BYTE   Dn1  v127
 BYTE   W06
 BYTE   Cn1
 BYTE   N04  Ds2  v056
 BYTE   W06
 BYTE   Ds2  v072
 BYTE   W06
 BYTE   N11  Cn1  v127
 BYTE   N12  Ds2  v072
 BYTE   W12
 BYTE   N11  Cn1  v127
 BYTE   N11  Ds2  v056
 BYTE   W06
 BYTE   Dn1  v127
 BYTE   W05
// 001   ----------------------------------------
 BYTE   W01
 BYTE   Cn1
 BYTE   N04  Ds2  v072
 BYTE   W06
 BYTE   Ds2  v056
 BYTE   W06
 BYTE   N11  Cn1  v127
 BYTE   N04  Ds2  v072
 BYTE   W06
 BYTE   Ds2  v056
 BYTE   W06
 BYTE   N11  Cn1  v127
 BYTE   N11  Ds2  v072
 BYTE   W06
 BYTE   Dn1  v127
 BYTE   W06
 BYTE   Cn1
 BYTE   N04  Ds2  v056
 BYTE   W06
 BYTE   Ds2  v072
 BYTE   W06
 BYTE   N11  Cn1  v127
 BYTE   N11  Ds2  v072
 BYTE   W12
 BYTE   Cn1  v127
 BYTE   N11  Ds2  v056
 BYTE   W06
 BYTE   Dn1  v127
 BYTE   W06
 BYTE   Cn1
 BYTE   N04  Ds2  v072
 BYTE   W06
 BYTE   Ds2  v056
 BYTE   W06
 BYTE   N11  Cn1  v127
 BYTE   N04  Ds2  v072
 BYTE   W06
 BYTE   Ds2  v056
 BYTE   W05
// 002   ----------------------------------------
Label_9_014AF450:
 BYTE   W01
 BYTE   N11  Cn1  v127
 BYTE   N11  Ds2  v072
 BYTE   W06
 BYTE   Dn1  v127
 BYTE   W06
 BYTE   Cn1
 BYTE   N04  Ds2  v056
 BYTE   W06
 BYTE   Ds2  v072
 BYTE   W06
 BYTE   N11  Cn1  v127
 BYTE   N11  Ds2  v072
 BYTE   W12
 BYTE   Cn1  v127
 BYTE   N11  Ds2  v056
 BYTE   W06
 BYTE   Dn1  v127
 BYTE   W06
 BYTE   Cn1
 BYTE   N04  Ds2  v072
 BYTE   W06
 BYTE   Ds2  v056
 BYTE   W06
 BYTE   N11  Cn1  v127
 BYTE   N04  Ds2  v072
 BYTE   W06
 BYTE   Ds2  v056
 BYTE   W06
 BYTE   N11  Cn1  v127
 BYTE   N11  Ds2  v072
 BYTE   W06
 BYTE   N04  Dn1  v127
 BYTE   W06
 BYTE   N04
 BYTE   N04  Ds2  v056
 BYTE   W06
 BYTE   Dn1  v127
 BYTE   N04  Ds2  v072
 BYTE   W05
 BYTE   PEND 
// 003   ----------------------------------------
Label_9_014AF49C:
 BYTE   TIE  Cs2  v112
 BYTE   W01
 BYTE   N11  Cn1  v127
 BYTE   N11  Ds2  v072
 BYTE   W12
 BYTE   Cn1  v127
 BYTE   N11  Ds2  v056
 BYTE   W06
 BYTE   Dn1  v127
 BYTE   W06
 BYTE   Cn1
 BYTE   N04  Ds2  v072
 BYTE   W06
 BYTE   Ds2  v056
 BYTE   W06
 BYTE   N11  Cn1  v127
 BYTE   N04  Ds2  v072
 BYTE   W06
 BYTE   Ds2  v056
 BYTE   W06
 BYTE   N11  Cn1  v127
 BYTE   N11  Ds2  v072
 BYTE   W06
 BYTE   Dn1  v127
 BYTE   W06
 BYTE   Cn1
 BYTE   N04  Ds2  v056
 BYTE   W06
 BYTE   Ds2  v072
 BYTE   W06
 BYTE   N11  Cn1  v127
 BYTE   N11  Ds2  v072
 BYTE   W12
 BYTE   Cn1  v127
 BYTE   N11  Ds2  v056
 BYTE   W06
 BYTE   Dn1  v127
 BYTE   W05
 BYTE   PEND 
// 004   ----------------------------------------
Label_9_014AF4E5:
 BYTE   W01
 BYTE   N11  Cn1  v127
 BYTE   N04  Ds2  v072
 BYTE   W06
 BYTE   Ds2  v056
 BYTE   W06
 BYTE   N11  Cn1  v127
 BYTE   N04  Ds2  v072
 BYTE   W06
 BYTE   Ds2  v056
 BYTE   W06
 BYTE   N11  Cn1  v127
 BYTE   N11  Ds2  v072
 BYTE   W04
 BYTE   PEND 
 BYTE   EOT
 BYTE   Cs2
 BYTE   W02
 BYTE   N11  Dn1  v127
 BYTE   W06
 BYTE   N04  Ds2  v056
 BYTE   W06
 BYTE   N11  Dn1  v127
 BYTE   N04  Ds2  v072
 BYTE   W06
 BYTE   N11  Cn1  v127
 BYTE   N11  Ds2  v072
 BYTE   W12
 BYTE   Cn1  v127
 BYTE   N11  Ds2  v056
 BYTE   W06
 BYTE   Dn1  v127
 BYTE   W06
 BYTE   Cn1
 BYTE   N04  Ds2  v072
 BYTE   W06
 BYTE   Ds2  v056
 BYTE   W06
 BYTE   N11  Cn1  v127
 BYTE   N04  Ds2  v072
 BYTE   W06
 BYTE   Ds2  v056
 BYTE   W05
// 005   ----------------------------------------
 BYTE   PATT
  POIN2 Label_9_014AF450
// 006   ----------------------------------------
 BYTE   PATT
  POIN2 Label_9_014AF49C
// 007   ----------------------------------------
 BYTE   PATT
  POIN2 Label_9_014AF4E5
// 008   ----------------------------------------
 BYTE   EOT
 BYTE   Cs2
 BYTE   W02
 BYTE   N11  Dn1  v127
 BYTE   W06
 BYTE   Cn1
 BYTE   N04  Ds2  v056
 BYTE   W06
 BYTE   Ds2  v072
 BYTE   W06
 BYTE   N11  Cn1  v127
 BYTE   N11  Ds2  v072
 BYTE   W12
 BYTE   Cn1  v127
 BYTE   N11  Ds2  v056
 BYTE   W06
 BYTE   Dn1  v127
 BYTE   W06
 BYTE   Cn1
 BYTE   N04  Ds2  v072
 BYTE   W06
 BYTE   Ds2  v056
 BYTE   W06
 BYTE   N11  Cn1  v127
 BYTE   N04  Ds2  v072
 BYTE   W06
 BYTE   Ds2  v056
 BYTE   W05
Label_9_014AF576:
 BYTE   W01
 BYTE   N11  Cn1  v127
 BYTE   N11  Ds2  v072
 BYTE   W06
 BYTE   Dn1  v127
 BYTE   W06
 BYTE   Cn1
 BYTE   N04  Ds2  v056
 BYTE   W06
 BYTE   Ds2  v072
 BYTE   W05
 BYTE   N17  Cs2  v112
 BYTE   W01
 BYTE   N11  Cn1  v127
 BYTE   N11  Ds2  v072
 BYTE   W12
// 009   ----------------------------------------
 BYTE   Cn1  v127
 BYTE   N11  Ds2  v056
 BYTE   W05
 BYTE   N17  An2  v092
 BYTE   W01
 BYTE   N11  Dn1  v127
 BYTE   W06
 BYTE   Cn1
 BYTE   N04  Ds2  v072
 BYTE   W06
 BYTE   Ds2  v056
 BYTE   W05
 BYTE   N17  Cs2  v112
 BYTE   W01
 BYTE   N11  Cn1  v127
 BYTE   N04  Ds2  v072
 BYTE   W06
 BYTE   Ds2  v056
 BYTE   W06
 BYTE   N11  Cn1  v127
 BYTE   N11  Ds2  v072
 BYTE   W05
 BYTE   N17  An2  v092
 BYTE   W01
 BYTE   N04  Dn1  v127
 BYTE   W06
 BYTE   N04
 BYTE   N04  Ds2  v056
 BYTE   W06
 BYTE   Dn1  v127
 BYTE   N04  Ds2  v072
 BYTE   W05
 BYTE   PEND 
// 010   ----------------------------------------
 BYTE   PATT
  POIN2 Label_9_014AF49C
// 011   ----------------------------------------
 BYTE   PATT
  POIN2 Label_9_014AF4E5
// 012   ----------------------------------------
 BYTE   EOT
 BYTE   Cs2
 BYTE   W02
 BYTE   N11  Dn1  v127
 BYTE   W06
 BYTE   N04  Ds2  v056
 BYTE   W06
 BYTE   N11  Dn1  v127
 BYTE   N04  Ds2  v072
 BYTE   W05
 BYTE   N68  Cs2  v112
 BYTE   W01
 BYTE   N11  Cn1  v127
 BYTE   N11  Ds2  v072
 BYTE   W12
 BYTE   Cn1  v127
 BYTE   N11  Ds2  v056
 BYTE   W06
 BYTE   Dn1  v127
 BYTE   W06
 BYTE   Cn1
 BYTE   N04  Ds2  v072
 BYTE   W06
 BYTE   Ds2  v056
 BYTE   W06
 BYTE   N11  Cn1  v127
 BYTE   N04  Ds2  v072
 BYTE   W06
 BYTE   Ds2  v056
 BYTE   W05
 BYTE   W01
 BYTE   N11  Cn1  v127
 BYTE   N11  Ds2  v072
 BYTE   W06
 BYTE   Dn1  v127
 BYTE   W06
 BYTE   Cn1
 BYTE   N04  Ds2  v056
 BYTE   W06
 BYTE   Ds2  v072
 BYTE   W05
 BYTE   N68  Cs2  v112
 BYTE   W01
 BYTE   N11  Cn1  v127
 BYTE   N11  Ds2  v072
 BYTE   W12
// 013   ----------------------------------------
 BYTE   Cn1  v127
 BYTE   N11  Ds2  v056
 BYTE   W06
 BYTE   Dn1  v127
 BYTE   W06
 BYTE   Cn1
 BYTE   N04  Ds2  v072
 BYTE   W06
 BYTE   Ds2  v056
 BYTE   W06
 BYTE   N11  Cn1  v127
 BYTE   N04  Ds2  v072
 BYTE   W06
 BYTE   Ds2  v056
 BYTE   W06
 BYTE   N11  Cn1  v127
 BYTE   N16  Ds2  v072
 BYTE   W06
 BYTE   N04  Dn1  v127
 BYTE   W06
 BYTE   N04
 BYTE   W06
 BYTE   N04
 BYTE   N04  Ds2  v056
 BYTE   W05
 BYTE   TIE  Cs2  v112
 BYTE   W01
 BYTE   N16  Cn1  v127
 BYTE   N04  Ds2  v072
 BYTE   W06
 BYTE   Ds2  v056
 BYTE   W06
 BYTE   N16  Ds2  v072
 BYTE   W06
 BYTE   Dn1  v127
 BYTE   W12
 BYTE   Ds2  v056
 BYTE   W06
// 014   ----------------------------------------
 BYTE   N04  Cn1  v127
 BYTE   W06
 BYTE   N04
 BYTE   W06
 BYTE   N04
 BYTE   N16  Ds2  v072
 BYTE   W06
 BYTE   Dn1  v127
 BYTE   W12
 BYTE   N04  Ds2  v056
 BYTE   W06
 BYTE   N11  Cn1  v127
 BYTE   N04  Ds2  v072
 BYTE   W06
 BYTE   Ds2  v056
 BYTE   W06
 BYTE   Cn1  v127
 BYTE   N16  Ds2  v072
 BYTE   W06
 BYTE   Dn1  v127
 BYTE   W05
 BYTE   W07
 BYTE   N11  Ds2  v056
 BYTE   W06
 BYTE   N04  Cn1  v127
 BYTE   W06
 BYTE   N04
 BYTE   N04  Ds2  v072
 BYTE   W06
 BYTE   Cn1  v127
 BYTE   N16  Ds2  v072
 BYTE   W04
 BYTE   EOT
 BYTE   Cs2
 BYTE   W02
 BYTE   N16  Dn1  v127
 BYTE   W12
// 015   ----------------------------------------
 BYTE   N04  Ds2  v056
 BYTE   W06
 BYTE   Cn1  v127
 BYTE   N04  Ds2  v072
 BYTE   W06
 BYTE   Cn1  v127
 BYTE   N04  Ds2  v056
 BYTE   W06
 BYTE   Cn1  v127
 BYTE   N16  Ds2  v072
 BYTE   W06
 BYTE   Dn1  v127
 BYTE   W12
 BYTE   N04  Ds2  v056
 BYTE   W06
 BYTE   N11  Cn1  v127
 BYTE   N04  Ds2  v072
 BYTE   W06
 BYTE   Ds2  v056
 BYTE   W05
 BYTE   W01
 BYTE   Cn1  v127
 BYTE   N16  Ds2  v072
 BYTE   W06
 BYTE   Dn1  v127
 BYTE   W12
 BYTE   N04  Ds2  v056
 BYTE   W06
 BYTE   N11  Cn1  v127
 BYTE   N04  Ds2  v072
 BYTE   W06
 BYTE   Ds2  v056
 BYTE   W06
 BYTE   Cn1  v127
 BYTE   N16  Ds2  v072
 BYTE   W06
// 016   ----------------------------------------
 BYTE   Dn1  v127
 BYTE   W12
 BYTE   N11  Ds2  v056
 BYTE   W06
 BYTE   N04  Cn1  v127
 BYTE   W06
 BYTE   N04
 BYTE   N04  Ds2  v072
 BYTE   W06
 BYTE   Cn1  v127
 BYTE   N16  Ds2  v072
 BYTE   W06
 BYTE   Dn1  v127
 BYTE   W12
 BYTE   N04  Ds2  v056
 BYTE   W05
Label_9_014AF71A:
 BYTE   N68  Cs2  v112
 BYTE   W01
 BYTE   N11  Cn1  v127
 BYTE   N04  Ds2  v072
 BYTE   W06
 BYTE   Ds2  v056
 BYTE   W06
 BYTE   N11  Cn1  v127
 BYTE   N16  Ds2  v072
 BYTE   W06
 BYTE   N11  Dn1  v127
 BYTE   W06
 BYTE   Cn1
 BYTE   W06
 BYTE   N04  Ds2  v056
 BYTE   W06
 BYTE   N11  Cn1  v127
 BYTE   N04  Ds2  v072
 BYTE   W06
// 017   ----------------------------------------
 BYTE   Ds2  v056
 BYTE   W06
 BYTE   N11  Cn1  v127
 BYTE   N16  Ds2  v072
 BYTE   W06
 BYTE   N11  Dn1  v127
 BYTE   W06
 BYTE   Cn1
 BYTE   W06
 BYTE   N04  Ds2  v056
 BYTE   W05
 BYTE   N68  Cs2  v112
 BYTE   W01
 BYTE   N11  Cn1  v127
 BYTE   N04  Ds2  v072
 BYTE   W06
 BYTE   Ds2  v056
 BYTE   W06
 BYTE   N11  Cn1  v127
 BYTE   N16  Ds2  v072
 BYTE   W06
 BYTE   N11  Dn1  v127
 BYTE   W05
 BYTE   PEND 
Label_9_014AF76E:
 BYTE   W01
 BYTE   N11  Cn1  v127
 BYTE   W06
 BYTE   Ds2  v056
 BYTE   W06
 BYTE   Cn1  v127
 BYTE   W06
 BYTE   N04  Ds2  v072
 BYTE   W06
 BYTE   N11  Cn1  v127
 BYTE   N16  Ds2  v072
 BYTE   W06
 BYTE   N11  Dn1  v127
 BYTE   W12
// 018   ----------------------------------------
 BYTE   N11
 BYTE   N04  Ds2  v056
 BYTE   W05
 BYTE   TIE  Cs2  v112
 BYTE   W01
 BYTE   N11  Cn1  v127
 BYTE   N04  Ds2  v072
 BYTE   W06
 BYTE   Ds2  v056
 BYTE   W06
 BYTE   N11  Cn1  v127
 BYTE   N16  Ds2  v072
 BYTE   W06
 BYTE   N11  Dn1  v127
 BYTE   W06
 BYTE   Cn1
 BYTE   W06
 BYTE   N04  Ds2  v056
 BYTE   W06
 BYTE   N11  Cn1  v127
 BYTE   N04  Ds2  v072
 BYTE   W06
 BYTE   Ds2  v056
 BYTE   W05
 BYTE   PEND 
Label_9_014AF7B7:
 BYTE   W01
 BYTE   N11  Cn1  v127
 BYTE   N16  Ds2  v072
 BYTE   W06
 BYTE   N11  Dn1  v127
 BYTE   W06
 BYTE   Cn1
 BYTE   W06
 BYTE   N04  Ds2  v056
 BYTE   W06
 BYTE   N11  Cn1  v127
 BYTE   N04  Ds2  v072
 BYTE   W06
 BYTE   Ds2  v056
 BYTE   W06
 BYTE   N11  Cn1  v127
 BYTE   N16  Ds2  v072
 BYTE   W06
// 019   ----------------------------------------
 BYTE   N11  Dn1  v127
 BYTE   W06
 BYTE   Cn1
 BYTE   W06
 BYTE   Ds2  v056
 BYTE   W06
 BYTE   Cn1  v127
 BYTE   W06
 BYTE   N04  Ds2  v072
 BYTE   W06
 BYTE   N11  Cn1  v127
 BYTE   N16  Ds2  v072
 BYTE   W04
 BYTE   PEND 
 BYTE   EOT
 BYTE   Cs2
 BYTE   W02
 BYTE   N04  Dn1  v127
 BYTE   W06
 BYTE   N04
 BYTE   W06
 BYTE   N04
 BYTE   N04  Ds2  v056
 BYTE   W05
 BYTE   TIE  Cs2  v112
 BYTE   W01
 BYTE   N11  Cn1  v127
 BYTE   N04  Ds2  v072
 BYTE   W06
 BYTE   Ds2  v056
 BYTE   W06
 BYTE   N11  Cn1  v127
 BYTE   N16  Ds2  v072
 BYTE   W06
 BYTE   N11  Dn1  v127
 BYTE   W06
 BYTE   Cn1
 BYTE   W06
 BYTE   N16  Ds2  v056
 BYTE   W06
 BYTE   N11  Cn1  v127
 BYTE   W12
// 020   ----------------------------------------
 BYTE   N11
 BYTE   N16  Ds2  v072
 BYTE   W06
 BYTE   N11  Dn1  v127
 BYTE   W06
 BYTE   Cn1
 BYTE   W06
 BYTE   N04  Ds2  v056
 BYTE   W06
 BYTE   N11  Cn1  v127
 BYTE   N04  Ds2  v072
 BYTE   W06
 BYTE   Ds2  v056
 BYTE   W06
 BYTE   N11  Cn1  v127
 BYTE   N16  Ds2  v072
 BYTE   W06
 BYTE   N11  Dn1  v127
 BYTE   W05
Label_9_014AF847:
 BYTE   W01
 BYTE   N11  Cn1  v127
 BYTE   W06
 BYTE   Ds2  v056
 BYTE   W06
 BYTE   Cn1  v127
 BYTE   W06
 BYTE   N04  Ds2  v072
 BYTE   W06
 BYTE   N11  Cn1  v127
 BYTE   N16  Ds2  v072
 BYTE   W04
 BYTE   PEND 
 BYTE   EOT
 BYTE   Cs2
 BYTE   W02
 BYTE   N11  Dn1  v127
 BYTE   W06
 BYTE   Cn1
 BYTE   W06
 BYTE   N04  Ds2  v056
 BYTE   W06
// 021   ----------------------------------------
 BYTE   N11  Cn1  v127
 BYTE   N04  Ds2  v072
 BYTE   W06
 BYTE   Ds2  v056
 BYTE   W06
 BYTE   N11  Cn1  v127
 BYTE   N16  Ds2  v072
 BYTE   W06
 BYTE   N11  Dn1  v127
 BYTE   W06
 BYTE   Cn1
 BYTE   W06
 BYTE   N04  Ds2  v056
 BYTE   W06
 BYTE   N11  Cn1  v127
 BYTE   N04  Ds2  v072
 BYTE   W06
 BYTE   Ds2  v056
 BYTE   W05
 BYTE   W01
 BYTE   N11  Cn1  v127
 BYTE   N16  Ds2  v072
 BYTE   W06
 BYTE   N11  Dn1  v127
 BYTE   W06
 BYTE   Cn1
 BYTE   W06
 BYTE   N04  Ds2  v056
 BYTE   W06
 BYTE   N11  Cn1  v127
 BYTE   N04  Ds2  v072
 BYTE   W06
 BYTE   Ds2  v056
 BYTE   W06
 BYTE   N11  Cn1  v127
 BYTE   N16  Ds2  v072
 BYTE   W06
 BYTE   N11  Dn1  v127
 BYTE   W06
// 022   ----------------------------------------
 BYTE   Cn1
 BYTE   W06
 BYTE   Ds2  v056
 BYTE   W06
 BYTE   Cn1  v127
 BYTE   W06
 BYTE   N04  Ds2  v072
 BYTE   W06
 BYTE   N11  Cn1  v127
 BYTE   N16  Ds2  v072
 BYTE   W06
 BYTE   N04  Dn1  v127
 BYTE   W06
 BYTE   N04
 BYTE   W06
 BYTE   N04
 BYTE   N04  Ds2  v056
 BYTE   W05
// 023   ----------------------------------------
 BYTE   PATT
  POIN2 Label_9_014AF71A
// 024   ----------------------------------------
 BYTE   PATT
  POIN2 Label_9_014AF76E
// 025   ----------------------------------------
 BYTE   W01
 BYTE   N11  Cn1  v127
 BYTE   N16  Ds2  v072
 BYTE   W06
 BYTE   N11  Dn1  v127
 BYTE   W06
 BYTE   Cn1
 BYTE   W06
 BYTE   N04  Ds2  v056
 BYTE   W06
 BYTE   N11  Cn1  v127
 BYTE   N04  Ds2  v072
 BYTE   W06
 BYTE   Ds2  v056
 BYTE   W06
 BYTE   N11  Cn1  v127
 BYTE   N16  Ds2  v072
 BYTE   W06
 BYTE   N11  Dn1  v127
 BYTE   W06
 BYTE   Cn1
 BYTE   W06
 BYTE   Ds2  v056
 BYTE   W06
 BYTE   Cn1  v127
 BYTE   W06
 BYTE   N04  Ds2  v072
 BYTE   W06
 BYTE   N11  Cn1  v127
 BYTE   N11  Ds2  v072
 BYTE   W04
 BYTE   EOT
 BYTE   Cs2
 BYTE   W02
 BYTE   N04  Dn1  v127
 BYTE   W06
 BYTE   N04
 BYTE   N04  Ds2  v056
 BYTE   W06
 BYTE   Dn1  v127
 BYTE   N04  Ds2  v072
 BYTE   W05
// 026   ----------------------------------------
 BYTE   PATT
  POIN2 Label_9_014AF49C
// 027   ----------------------------------------
 BYTE   PATT
  POIN2 Label_9_014AF4E5
// 028   ----------------------------------------
 BYTE   EOT
 BYTE   Cs2
 BYTE   W02
 BYTE   N11  Dn1  v127
 BYTE   W06
 BYTE   Cn1
 BYTE   N04  Ds2  v056
 BYTE   W06
 BYTE   Ds2  v072
 BYTE   W06
 BYTE   N11  Cn1  v127
 BYTE   N11  Ds2  v072
 BYTE   W12
 BYTE   Cn1  v127
 BYTE   N11  Ds2  v056
 BYTE   W06
 BYTE   Dn1  v127
 BYTE   W06
 BYTE   Cn1
 BYTE   N04  Ds2  v072
 BYTE   W06
 BYTE   Ds2  v056
 BYTE   W06
 BYTE   N11  Cn1  v127
 BYTE   N04  Ds2  v072
 BYTE   W06
 BYTE   Ds2  v056
 BYTE   W05
// 029   ----------------------------------------
 BYTE   PATT
  POIN2 Label_9_014AF450
// 030   ----------------------------------------
 BYTE   PATT
  POIN2 Label_9_014AF49C
// 031   ----------------------------------------
 BYTE   PATT
  POIN2 Label_9_014AF4E5
// 032   ----------------------------------------
 BYTE   EOT
 BYTE   Cs2
 BYTE   W02
 BYTE   N11  Dn1  v127
 BYTE   W06
 BYTE   N04  Ds2  v056
 BYTE   W06
 BYTE   N11  Dn1  v127
 BYTE   N04  Ds2  v072
 BYTE   W06
 BYTE   N11  Cn1  v127
 BYTE   N11  Ds2  v072
 BYTE   W12
 BYTE   Cn1  v127
 BYTE   N11  Ds2  v056
 BYTE   W06
 BYTE   Dn1  v127
 BYTE   W06
 BYTE   Cn1
 BYTE   N04  Ds2  v072
 BYTE   W06
 BYTE   Ds2  v056
 BYTE   W06
 BYTE   N11  Cn1  v127
 BYTE   N04  Ds2  v072
 BYTE   W06
 BYTE   Ds2  v056
 BYTE   W05
// 033   ----------------------------------------
 BYTE   PATT
  POIN2 Label_9_014AF450
// 034   ----------------------------------------
 BYTE   PATT
  POIN2 Label_9_014AF49C
// 035   ----------------------------------------
 BYTE   PATT
  POIN2 Label_9_014AF4E5
// 036   ----------------------------------------
 BYTE   EOT
 BYTE   Cs2
 BYTE   W02
 BYTE   N11  Dn1  v127
 BYTE   W06
 BYTE   Cn1
 BYTE   N04  Ds2  v056
 BYTE   W06
 BYTE   Ds2  v072
 BYTE   W06
 BYTE   N11  Cn1  v127
 BYTE   N11  Ds2  v072
 BYTE   W12
 BYTE   Cn1  v127
 BYTE   N11  Ds2  v056
 BYTE   W06
 BYTE   Dn1  v127
 BYTE   W06
 BYTE   Cn1
 BYTE   N04  Ds2  v072
 BYTE   W06
 BYTE   Ds2  v056
 BYTE   W06
 BYTE   N11  Cn1  v127
 BYTE   N04  Ds2  v072
 BYTE   W06
 BYTE   Ds2  v056
 BYTE   W05
// 037   ----------------------------------------
 BYTE   PATT
  POIN2 Label_9_014AF576
// 038   ----------------------------------------
 BYTE   PATT
  POIN2 Label_9_014AF49C
// 039   ----------------------------------------
 BYTE   PATT
  POIN2 Label_9_014AF4E5
// 040   ----------------------------------------
 BYTE   EOT
 BYTE   Cs2
 BYTE   W02
 BYTE   N11  Dn1  v127
 BYTE   W06
 BYTE   N04  Ds2  v056
 BYTE   W06
 BYTE   N11  Dn1  v127
 BYTE   N04  Ds2  v072
 BYTE   W05
 BYTE   N68  Cs2  v112
 BYTE   W01
 BYTE   N11  Cn1  v127
 BYTE   N11  Ds2  v072
 BYTE   W12
 BYTE   Cn1  v127
 BYTE   N11  Ds2  v056
 BYTE   W06
 BYTE   Dn1  v127
 BYTE   W06
 BYTE   Cn1
 BYTE   N04  Ds2  v072
 BYTE   W06
 BYTE   Ds2  v056
 BYTE   W06
 BYTE   N11  Cn1  v127
 BYTE   N04  Ds2  v072
 BYTE   W06
 BYTE   Ds2  v056
 BYTE   W05
 BYTE   W01
 BYTE   N11  Cn1  v127
 BYTE   N11  Ds2  v072
 BYTE   W06
 BYTE   Dn1  v127
 BYTE   W06
 BYTE   Cn1
 BYTE   N04  Ds2  v056
 BYTE   W06
 BYTE   Ds2  v072
 BYTE   W05
 BYTE   N68  Cs2  v112
 BYTE   W01
 BYTE   N11  Cn1  v127
 BYTE   N11  Ds2  v072
 BYTE   W12
// 041   ----------------------------------------
 BYTE   Cn1  v127
 BYTE   N11  Ds2  v056
 BYTE   W06
 BYTE   Dn1  v127
 BYTE   W06
 BYTE   Cn1
 BYTE   N04  Ds2  v072
 BYTE   W06
 BYTE   Ds2  v056
 BYTE   W06
 BYTE   N11  Cn1  v127
 BYTE   N04  Ds2  v072
 BYTE   W06
 BYTE   Ds2  v056
 BYTE   W06
 BYTE   N11  Cn1  v127
 BYTE   N16  Ds2  v056
 BYTE   W06
 BYTE   N04  Dn1  v127
 BYTE   W06
 BYTE   N04
 BYTE   W06
 BYTE   N04
 BYTE   N16  Ds2  v056
 BYTE   W05
 BYTE   N32  Cs2  v112
 BYTE   W01
 BYTE   N04  Cn1  v127
 BYTE   W06
 BYTE   N04
 BYTE   W06
 BYTE   N04
 BYTE   N16  Ds2  v056
 BYTE   W06
 BYTE   Cn1  v127
 BYTE   W12
 BYTE   Ds2  v056
 BYTE   W05
 BYTE   N32  Cs2  v112
 BYTE   W01
// 042   ----------------------------------------
 BYTE   N16  Cn1  v127
 BYTE   W12
 BYTE   Ds2  v056
 BYTE   W06
 BYTE   N04  Cn1  v127
 BYTE   W06
 BYTE   N11  Dn1
 BYTE   W06
 BYTE   N04  Cn1
 BYTE   N16  Ds2  v056
 BYTE   W05
 BYTE   N32  Cs2  v112
 BYTE   W01
 BYTE   N04  Cn1  v127
 BYTE   W06
 BYTE   N04
 BYTE   W06
 BYTE   N04
 BYTE   N16  Ds2  v056
 BYTE   W06
 BYTE   Dn1  v127
 BYTE   W05
 BYTE   W07
 BYTE   Ds2  v056
 BYTE   W05
 BYTE   N32  Cs2  v112
 BYTE   W01
 BYTE   N16  Cn1  v127
 BYTE   W12
 BYTE   Ds2  v056
 BYTE   W06
 BYTE   N04  Cn1  v127
 BYTE   W06
// 043   ----------------------------------------
 BYTE   N11  Dn1
 BYTE   W06
 BYTE   N04  Cn1
 BYTE   N16  Ds2  v056
 BYTE   W05
 BYTE   N68  Cs2  v112
 BYTE   W01
 BYTE   N11  Cn1  v127
 BYTE   W12
 BYTE   N11
 BYTE   N16  Ds2  v056
 BYTE   W06
 BYTE   N11  Dn1  v127
 BYTE   W06
 BYTE   Cn1
 BYTE   W06
 BYTE   N16  Ds2  v056
 BYTE   W06
 BYTE   N11  Cn1  v127
 BYTE   W11
Label_9_014AFAF1:
 BYTE   W01
 BYTE   N11  Cn1  v127
 BYTE   N16  Ds2  v056
 BYTE   W06
 BYTE   N11  Dn1  v127
 BYTE   W06
 BYTE   Cn1
 BYTE   W06
 BYTE   N16  Ds2  v056
 BYTE   W05
 BYTE   N68  Cs2  v112
 BYTE   W01
 BYTE   N11  Cn1  v127
 BYTE   W12
// 044   ----------------------------------------
 BYTE   N11
 BYTE   N16  Ds2  v056
 BYTE   W06
 BYTE   N11  Dn1  v127
 BYTE   W06
 BYTE   Cn1
 BYTE   W06
 BYTE   N16  Ds2  v056
 BYTE   W06
 BYTE   N11  Cn1  v127
 BYTE   W12
 BYTE   N11
 BYTE   N16  Ds2  v056
 BYTE   W06
 BYTE   N04  Dn1  v127
 BYTE   W06
 BYTE   N04
 BYTE   W06
 BYTE   N04
 BYTE   N16  Ds2  v056
 BYTE   W05
 BYTE   PEND 
 BYTE   N32  Cs2  v112
 BYTE   W01
 BYTE   N16  Cn1  v127
 BYTE   W12
 BYTE   Ds2  v056
 BYTE   W06
 BYTE   Cn1  v127
 BYTE   W12
 BYTE   Ds2  v056
 BYTE   W05
 BYTE   N32  Cs2  v112
 BYTE   W01
// 045   ----------------------------------------
 BYTE   N16  Cn1  v127
 BYTE   W12
 BYTE   Ds2  v056
 BYTE   W06
 BYTE   Cn1  v127
 BYTE   W12
 BYTE   Ds2  v056
 BYTE   W05
 BYTE   N32  Cs2  v112
 BYTE   W01
 BYTE   N16  Cn1  v127
 BYTE   W12
 BYTE   Ds2  v056
 BYTE   W06
 BYTE   Cn1  v127
 BYTE   W05
 BYTE   W07
 BYTE   Ds2  v056
 BYTE   W05
 BYTE   N32  Cs2  v112
 BYTE   W01
 BYTE   N11  Cn1  v127
 BYTE   W06
 BYTE   N04  Dn1
 BYTE   W06
 BYTE   N04
 BYTE   N16  Ds2  v056
 BYTE   W06
 BYTE   N04  Dn1  v127
 BYTE   W06
// 046   ----------------------------------------
 BYTE   N04
 BYTE   W06
 BYTE   N04
 BYTE   N16  Ds2  v056
 BYTE   W05
 BYTE   N68  Cs2  v112
 BYTE   W01
 BYTE   N11  Cn1  v127
 BYTE   W12
 BYTE   N11
 BYTE   N16  Ds2  v056
 BYTE   W06
 BYTE   N11  Dn1  v127
 BYTE   W06
 BYTE   Cn1
 BYTE   W06
 BYTE   N16  Ds2  v056
 BYTE   W06
 BYTE   N11  Cn1  v127
 BYTE   W11
// 047   ----------------------------------------
 BYTE   PATT
  POIN2 Label_9_014AFAF1
// 048   ----------------------------------------
 BYTE   N32  Cs2  v112
 BYTE   W01
 BYTE   N11  Cn1  v127
 BYTE   W12
 BYTE   N11
 BYTE   N16  Ds2  v056
 BYTE   W06
 BYTE   N11  Dn1  v127
 BYTE   W06
 BYTE   Cn1
 BYTE   W06
 BYTE   N16  Ds2  v056
 BYTE   W05
 BYTE   N32  Cs2  v112
 BYTE   W01
 BYTE   N11  Cn1  v127
 BYTE   W12
 BYTE   N11
 BYTE   N16  Ds2  v056
 BYTE   W06
 BYTE   N11  Dn1  v127
 BYTE   W06
 BYTE   Cn1
 BYTE   W06
 BYTE   N16  Ds2  v056
 BYTE   W05
 BYTE   N32  Cs2  v112
 BYTE   W01
 BYTE   N11  Cn1  v127
 BYTE   W12
 BYTE   N11
 BYTE   N16  Ds2  v056
 BYTE   W06
 BYTE   N11  Dn1  v127
 BYTE   W05
// 049   ----------------------------------------
 BYTE   W01
 BYTE   Cn1
 BYTE   W06
 BYTE   N16  Ds2  v056
 BYTE   W05
 BYTE   N32  Cs2  v112
 BYTE   W01
 BYTE   N11  Cn1  v127
 BYTE   W12
 BYTE   N11
 BYTE   N04  Ds2  v072
 BYTE   W06
 BYTE   Dn1  v127
 BYTE   N04  Ds2  v072
 BYTE   W06
 BYTE   Dn1  v127
 BYTE   N04  Ds2  v072
 BYTE   W06
 BYTE   Dn1  v127
 BYTE   N04  Ds2  v056
 BYTE   W05
 BYTE   TIE  Cs2  v112
 BYTE   W01
 BYTE   N16  Cn1  v127
 BYTE   N04  Ds2  v072
 BYTE   W06
 BYTE   Ds2  v056
 BYTE   W06
 BYTE   N16  Ds2  v072
 BYTE   W06
 BYTE   Dn1  v127
 BYTE   W12
 BYTE   Ds2  v056
 BYTE   W06
 BYTE   N04  Cn1  v127
 BYTE   W06
 BYTE   N04
 BYTE   W05
// 050   ----------------------------------------
 BYTE   W01
 BYTE   N04
 BYTE   N16  Ds2  v072
 BYTE   W06
 BYTE   Dn1  v127
 BYTE   W12
 BYTE   N04  Ds2  v056
 BYTE   W06
 BYTE   N11  Cn1  v127
 BYTE   N04  Ds2  v072
 BYTE   W06
 BYTE   Ds2  v056
 BYTE   W06
 BYTE   Cn1  v127
 BYTE   N16  Ds2  v072
 BYTE   W06
 BYTE   Dn1  v127
 BYTE   W12
 BYTE   N11  Ds2  v056
 BYTE   W06
 BYTE   N04  Cn1  v127
 BYTE   W06
 BYTE   N04
 BYTE   N04  Ds2  v072
 BYTE   W06
 BYTE   Cn1  v127
 BYTE   N16  Ds2  v072
 BYTE   W04
 BYTE   EOT
 BYTE   Cs2
 BYTE   W02
 BYTE   N16  Dn1  v127
 BYTE   W12
 BYTE   N04  Ds2  v056
 BYTE   W05
// 051   ----------------------------------------
 BYTE   W01
 BYTE   Cn1  v127
 BYTE   N04  Ds2  v072
 BYTE   W06
 BYTE   Cn1  v127
 BYTE   N04  Ds2  v056
 BYTE   W06
 BYTE   Cn1  v127
 BYTE   N16  Ds2  v072
 BYTE   W06
 BYTE   Dn1  v127
 BYTE   W12
 BYTE   N04  Ds2  v056
 BYTE   W06
 BYTE   N11  Cn1  v127
 BYTE   N04  Ds2  v072
 BYTE   W06
 BYTE   Ds2  v056
 BYTE   W06
 BYTE   Cn1  v127
 BYTE   N16  Ds2  v072
 BYTE   W06
 BYTE   Dn1  v127
 BYTE   W12
 BYTE   N04  Ds2  v056
 BYTE   W06
 BYTE   N11  Cn1  v127
 BYTE   N04  Ds2  v072
 BYTE   W06
 BYTE   Ds2  v056
 BYTE   W06
 BYTE   Cn1  v127
 BYTE   N16  Ds2  v072
 BYTE   W06
 BYTE   Dn1  v127
 BYTE   W05
// 052   ----------------------------------------
 BYTE   W07
 BYTE   N11  Ds2  v056
 BYTE   W06
 BYTE   N04  Cn1  v127
 BYTE   W06
 BYTE   N04
 BYTE   N04  Ds2  v072
 BYTE   W06
 BYTE   Cn1  v127
 BYTE   N16  Ds2  v072
 BYTE   W06
 BYTE   Dn1  v127
 BYTE   W12
 BYTE   N04  Ds2  v056
 BYTE   W05
 BYTE   N68  Cs2  v112
 BYTE   W01
 BYTE   N11  Cn1  v127
 BYTE   N04  Ds2  v072
 BYTE   W06
 BYTE   Ds2  v056
 BYTE   W06
 BYTE   N11  Cn1  v127
 BYTE   N16  Ds2  v072
 BYTE   W06
 BYTE   N11  Dn1  v127
 BYTE   W06
 BYTE   Cn1
 BYTE   W06
 BYTE   N04  Ds2  v056
 BYTE   W06
 BYTE   N11  Cn1  v127
 BYTE   N04  Ds2  v072
 BYTE   W06
 BYTE   Ds2  v056
 BYTE   W05
// 053   ----------------------------------------
Label_9_014AFCE7:
 BYTE   W01
 BYTE   N11  Cn1  v127
 BYTE   N16  Ds2  v072
 BYTE   W06
 BYTE   N11  Dn1  v127
 BYTE   W06
 BYTE   Cn1
 BYTE   W06
 BYTE   N04  Ds2  v056
 BYTE   W05
 BYTE   N68  Cs2  v112
 BYTE   W01
 BYTE   N11  Cn1  v127
 BYTE   N04  Ds2  v072
 BYTE   W06
 BYTE   Ds2  v056
 BYTE   W06
 BYTE   N11  Cn1  v127
 BYTE   N16  Ds2  v072
 BYTE   W06
 BYTE   N11  Dn1  v127
 BYTE   W06
 BYTE   Cn1
 BYTE   W06
 BYTE   Ds2  v056
 BYTE   W06
 BYTE   Cn1  v127
 BYTE   W06
 BYTE   N04  Ds2  v072
 BYTE   W06
 BYTE   N11  Cn1  v127
 BYTE   N16  Ds2  v072
 BYTE   W06
 BYTE   N11  Dn1  v127
 BYTE   W12
 BYTE   N11
 BYTE   N04  Ds2  v056
 BYTE   W05
 BYTE   PEND 
// 054   ----------------------------------------
Label_9_014AFD2F:
 BYTE   TIE  Cs2  v112
 BYTE   W01
 BYTE   N11  Cn1  v127
 BYTE   N04  Ds2  v072
 BYTE   W06
 BYTE   Ds2  v056
 BYTE   W06
 BYTE   N11  Cn1  v127
 BYTE   N16  Ds2  v072
 BYTE   W06
 BYTE   N11  Dn1  v127
 BYTE   W06
 BYTE   Cn1
 BYTE   W06
 BYTE   N04  Ds2  v056
 BYTE   W06
 BYTE   N11  Cn1  v127
 BYTE   N04  Ds2  v072
 BYTE   W06
 BYTE   Ds2  v056
 BYTE   W06
 BYTE   N11  Cn1  v127
 BYTE   N16  Ds2  v072
 BYTE   W06
 BYTE   N11  Dn1  v127
 BYTE   W06
 BYTE   Cn1
 BYTE   W06
 BYTE   N04  Ds2  v056
 BYTE   W06
 BYTE   N11  Cn1  v127
 BYTE   N04  Ds2  v072
 BYTE   W06
 BYTE   Ds2  v056
 BYTE   W06
 BYTE   N11  Cn1  v127
 BYTE   N16  Ds2  v072
 BYTE   W06
 BYTE   N11  Dn1  v127
 BYTE   W05
 BYTE   PEND 
// 055   ----------------------------------------
 BYTE   PATT
  POIN2 Label_9_014AF847
// 056   ----------------------------------------
 BYTE   EOT
 BYTE   Cs2
 BYTE   W02
 BYTE   N04  Dn1  v127
 BYTE   W06
 BYTE   N04
 BYTE   W06
 BYTE   N04
 BYTE   N04  Ds2  v056
 BYTE   W05
 BYTE   TIE  Cs2  v112
 BYTE   W01
 BYTE   N11  Cn1  v127
 BYTE   N04  Ds2  v072
 BYTE   W06
 BYTE   Ds2  v056
 BYTE   W06
 BYTE   N11  Cn1  v127
 BYTE   N16  Ds2  v072
 BYTE   W06
 BYTE   N11  Dn1  v127
 BYTE   W06
 BYTE   Cn1
 BYTE   W06
 BYTE   N16  Ds2  v056
 BYTE   W06
 BYTE   N11  Cn1  v127
 BYTE   W11
// 057   ----------------------------------------
 BYTE   PATT
  POIN2 Label_9_014AF7B7
// 058   ----------------------------------------
 BYTE   EOT
 BYTE   Cs2
 BYTE   W02
 BYTE   N11  Dn1  v127
 BYTE   W06
 BYTE   Cn1
 BYTE   W06
 BYTE   N04  Ds2  v056
 BYTE   W05
 BYTE   W01
 BYTE   N11  Cn1  v127
 BYTE   N04  Ds2  v072
 BYTE   W06
 BYTE   Ds2  v056
 BYTE   W06
 BYTE   N11  Cn1  v127
 BYTE   N16  Ds2  v072
 BYTE   W06
 BYTE   N11  Dn1  v127
 BYTE   W06
 BYTE   Cn1
 BYTE   W06
 BYTE   N04  Ds2  v056
 BYTE   W06
 BYTE   N11  Cn1  v127
 BYTE   N04  Ds2  v072
 BYTE   W06
 BYTE   Ds2  v056
 BYTE   W06
 BYTE   N11  Cn1  v127
 BYTE   N16  Ds2  v072
 BYTE   W06
 BYTE   N11  Dn1  v127
 BYTE   W06
 BYTE   Cn1
 BYTE   W06
 BYTE   N04  Ds2  v056
 BYTE   W06
 BYTE   N11  Cn1  v127
 BYTE   N04  Ds2  v072
 BYTE   W06
// 059   ----------------------------------------
 BYTE   Ds2  v056
 BYTE   W06
 BYTE   N11  Cn1  v127
 BYTE   N16  Ds2  v072
 BYTE   W06
 BYTE   N11  Dn1  v127
 BYTE   W05
 BYTE   W01
 BYTE   Cn1
 BYTE   W06
 BYTE   Ds2  v056
 BYTE   W06
 BYTE   Cn1  v127
 BYTE   W06
 BYTE   N04  Ds2  v072
 BYTE   W06
 BYTE   N11  Cn1  v127
 BYTE   N16  Ds2  v072
 BYTE   W06
 BYTE   N04  Dn1  v127
 BYTE   W06
 BYTE   N04
 BYTE   W06
 BYTE   N04
 BYTE   N04  Ds2  v056
 BYTE   W05
 BYTE   N68  Cs2  v112
 BYTE   W01
 BYTE   N11  Cn1  v127
 BYTE   N04  Ds2  v072
 BYTE   W06
 BYTE   Ds2  v056
 BYTE   W06
 BYTE   N11  Cn1  v127
 BYTE   N16  Ds2  v072
 BYTE   W06
 BYTE   N11  Dn1  v127
 BYTE   W06
 BYTE   Cn1
 BYTE   W06
// 060   ----------------------------------------
 BYTE   N04  Ds2  v056
 BYTE   W06
 BYTE   N11  Cn1  v127
 BYTE   N04  Ds2  v072
 BYTE   W06
 BYTE   Ds2  v056
 BYTE   W05
// 061   ----------------------------------------
 BYTE   PATT
  POIN2 Label_9_014AFCE7
// 062   ----------------------------------------
 BYTE   PATT
  POIN2 Label_9_014AFD2F
// 063   ----------------------------------------
 BYTE   W01
 BYTE   N11  Cn1  v127
 BYTE   W06
 BYTE   Ds2  v056
 BYTE   W06
 BYTE   Cn1  v127
 BYTE   W06
 BYTE   N04  Ds2  v072
 BYTE   W06
 BYTE   N11  Cn1  v127
 BYTE   W04
 BYTE   EOT
 BYTE   Cs2
 BYTE   W02
 BYTE   N04  Dn1
 BYTE   W06
 BYTE   N04
 BYTE   W06
 BYTE   N04
 BYTE   W04
 BYTE   GoTo
  POIN2 Label_9_014AF3B8
 BYTE   FINE

//**************** Track 11 (Midi-Chn.10) ****************//

songE9_011:
// 000   ----------------------------------------
 BYTE   KEYSH   songE9_key+0
Label_10_014AFE8A:
 BYTE   VOICE   29
 BYTE   VOL   22*songE9_mvl/mxv
 BYTE   PAN   c_v-30
 BYTE   BEND   c_v+0
 BYTE   W01
 BYTE   N11  An1  v127
 BYTE   W12
 BYTE   N04
 BYTE   W06
 BYTE   An2
 BYTE   W06
 BYTE   N11  An1
 BYTE   W12
 BYTE   N04
 BYTE   W06
 BYTE   N04
 BYTE   W06
 BYTE   N04
 BYTE   W06
 BYTE   An2
 BYTE   W06
 BYTE   N11  An1
 BYTE   W12
 BYTE   N11
 BYTE   W12
 BYTE   N04
 BYTE   W06
 BYTE   An2
 BYTE   W05
// 001   ----------------------------------------
Label_10_014AFEAF:
 BYTE   W01
 BYTE   N11  An1  v127
 BYTE   W12
 BYTE   N11
 BYTE   W12
 BYTE   N04
 BYTE   W06
 BYTE   An2
 BYTE   W06
 BYTE   N11  An1
 BYTE   W12
 BYTE   N11
 BYTE   W12
 BYTE   N04
 BYTE   W06
 BYTE   An2
 BYTE   W06
 BYTE   N11  An1
 BYTE   W12
 BYTE   N04
 BYTE   W06
 BYTE   N04
 BYTE   W05
 BYTE   PEND 
// 002   ----------------------------------------
Label_10_014AFECB:
 BYTE   W01
 BYTE   N04  An1  v127
 BYTE   W06
 BYTE   An2
 BYTE   W06
 BYTE   N11  An1
 BYTE   W12
 BYTE   N11
 BYTE   W12
 BYTE   N04
 BYTE   W06
 BYTE   An2
 BYTE   W06
 BYTE   N11  An1
 BYTE   W12
 BYTE   N11
 BYTE   W12
 BYTE   N04
 BYTE   W06
 BYTE   An2
 BYTE   W06
 BYTE   N11  An1
 BYTE   W11
 BYTE   PEND 
// 003   ----------------------------------------
 BYTE   W01
 BYTE   Fn1
 BYTE   W12
 BYTE   N04
 BYTE   W06
 BYTE   Fn2  v116
 BYTE   W06
 BYTE   N11  Fn1  v127
 BYTE   W12
 BYTE   N04
 BYTE   W06
 BYTE   Fn2  v116
 BYTE   W06
 BYTE   Fn1  v127
 BYTE   W06
 BYTE   Fn2  v116
 BYTE   W06
 BYTE   N11  Fn1  v127
 BYTE   W12
 BYTE   N11
 BYTE   W12
 BYTE   N04
 BYTE   W06
 BYTE   Fn2
 BYTE   W05
// 004   ----------------------------------------
Label_10_014AFF09:
 BYTE   W01
 BYTE   N11  Fn1  v127
 BYTE   W12
 BYTE   N11
 BYTE   W12
 BYTE   N04
 BYTE   W06
 BYTE   Fn2
 BYTE   W06
 BYTE   N11  Fn1
 BYTE   W12
 BYTE   Dn1
 BYTE   W12
 BYTE   N04
 BYTE   W06
 BYTE   Dn2
 BYTE   W06
 BYTE   N11  Dn1
 BYTE   W12
 BYTE   N11
 BYTE   W11
 BYTE   PEND 
// 005   ----------------------------------------
Label_10_014AFF23:
 BYTE   W01
 BYTE   N04  Dn1  v127
 BYTE   W06
 BYTE   Dn2
 BYTE   W06
 BYTE   N11  Dn1
 BYTE   W12
 BYTE   En1
 BYTE   W12
 BYTE   N04
 BYTE   W06
 BYTE   En2
 BYTE   W06
 BYTE   N11  En1
 BYTE   W12
 BYTE   N11
 BYTE   W12
 BYTE   N04
 BYTE   W06
 BYTE   En2
 BYTE   W06
 BYTE   N11  En1
 BYTE   W11
 BYTE   PEND 
// 006   ----------------------------------------
Label_10_014AFF40:
 BYTE   W01
 BYTE   N11  An1  v127
 BYTE   W12
 BYTE   N04
 BYTE   W06
 BYTE   An2
 BYTE   W06
 BYTE   N11  An1
 BYTE   W12
 BYTE   N11
 BYTE   W12
 BYTE   N04
 BYTE   W06
 BYTE   An2
 BYTE   W06
 BYTE   N11  An1
 BYTE   W12
 BYTE   Gn1
 BYTE   W12
 BYTE   N04
 BYTE   W06
 BYTE   Gn2
 BYTE   W05
 BYTE   PEND 
// 007   ----------------------------------------
Label_10_014AFF5C:
 BYTE   W01
 BYTE   N11  Gn1  v127
 BYTE   W12
 BYTE   En1
 BYTE   W12
 BYTE   N04
 BYTE   W06
 BYTE   En2
 BYTE   W06
 BYTE   N11  En1
 BYTE   W12
 BYTE   Fn1
 BYTE   W12
 BYTE   N04
 BYTE   W06
 BYTE   Fn2
 BYTE   W06
 BYTE   N11  Fn1
 BYTE   W12
 BYTE   N11
 BYTE   W11
 BYTE   PEND 
// 008   ----------------------------------------
Label_10_014AFF76:
 BYTE   W01
 BYTE   N04  Fn1  v127
 BYTE   W06
 BYTE   Fn2
 BYTE   W06
 BYTE   N11  Fn1
 BYTE   W12
 BYTE   Dn1
 BYTE   W12
 BYTE   N04
 BYTE   W06
 BYTE   Dn2
 BYTE   W06
 BYTE   N11  Dn1
 BYTE   W12
 BYTE   En1
 BYTE   W12
 BYTE   N04
 BYTE   W06
 BYTE   En2
 BYTE   W06
 BYTE   N11  En1
 BYTE   W11
 BYTE   PEND 
// 009   ----------------------------------------
Label_10_014AFF93:
 BYTE   W01
 BYTE   N11  Fn1  v127
 BYTE   W12
 BYTE   N04
 BYTE   W06
 BYTE   Fn2
 BYTE   W06
 BYTE   N11  Fn1
 BYTE   W12
 BYTE   N11
 BYTE   W12
 BYTE   N04
 BYTE   W06
 BYTE   Fn2
 BYTE   W06
 BYTE   N11  Fn1
 BYTE   W12
 BYTE   Dn1
 BYTE   W12
 BYTE   N04
 BYTE   W06
 BYTE   Dn2
 BYTE   W05
 BYTE   PEND 
// 010   ----------------------------------------
Label_10_014AFFAF:
 BYTE   W01
 BYTE   N11  Dn1  v127
 BYTE   W12
 BYTE   N11
 BYTE   W12
 BYTE   N04
 BYTE   W06
 BYTE   Dn2
 BYTE   W06
 BYTE   N11  Dn1
 BYTE   W12
 BYTE   En1
 BYTE   W12
 BYTE   N04
 BYTE   W06
 BYTE   En2
 BYTE   W06
 BYTE   N11  En1
 BYTE   W12
 BYTE   N11
 BYTE   W11
 BYTE   PEND 
// 011   ----------------------------------------
Label_10_014AFFC9:
 BYTE   W01
 BYTE   N04  En1  v127
 BYTE   W06
 BYTE   En2
 BYTE   W06
 BYTE   N11  En1
 BYTE   W12
 BYTE   N04
 BYTE   W06
 BYTE   En2
 BYTE   W06
 BYTE   En1
 BYTE   W06
 BYTE   An2
 BYTE   W06
 BYTE   Gs2
 BYTE   W06
 BYTE   En2
 BYTE   W06
 BYTE   Dn2
 BYTE   W06
 BYTE   Cn2
 BYTE   W06
 BYTE   Bn1
 BYTE   W06
 BYTE   An1
 BYTE   W06
 BYTE   Gs1
 BYTE   W06
 BYTE   En1
 BYTE   W05
 BYTE   PEND 
// 012   ----------------------------------------
Label_10_014AFFEC:
 BYTE   W01
 BYTE   N11  Fs1  v127
 BYTE   W12
 BYTE   N04
 BYTE   W06
 BYTE   Fs2
 BYTE   W06
 BYTE   N11  Fs1
 BYTE   W12
 BYTE   N11
 BYTE   W12
 BYTE   N04
 BYTE   W06
 BYTE   Fs2
 BYTE   W06
 BYTE   N11  Fs1
 BYTE   W12
 BYTE   En1
 BYTE   W12
 BYTE   N04
 BYTE   W06
 BYTE   En2
 BYTE   W05
 BYTE   PEND 
// 013   ----------------------------------------
Label_10_014B0008:
 BYTE   W01
 BYTE   N11  En1  v127
 BYTE   W12
 BYTE   N11
 BYTE   W12
 BYTE   N04
 BYTE   W06
 BYTE   En2
 BYTE   W06
 BYTE   N11  En1
 BYTE   W12
 BYTE   Bn1
 BYTE   W12
 BYTE   N04
 BYTE   W06
 BYTE   Bn2
 BYTE   W06
 BYTE   N11  Bn1
 BYTE   W12
 BYTE   N11
 BYTE   W11
 BYTE   PEND 
// 014   ----------------------------------------
Label_10_014B0022:
 BYTE   W01
 BYTE   N04  Bn1  v127
 BYTE   W06
 BYTE   Bn2
 BYTE   W06
 BYTE   N11  Bn1
 BYTE   W12
 BYTE   En1
 BYTE   W12
 BYTE   N04
 BYTE   W06
 BYTE   En2
 BYTE   W06
 BYTE   N11  En1
 BYTE   W12
 BYTE   N11
 BYTE   W12
 BYTE   N04
 BYTE   W06
 BYTE   En2
 BYTE   W06
 BYTE   N11  En1
 BYTE   W11
 BYTE   PEND 
// 015   ----------------------------------------
Label_10_014B003F:
 BYTE   W01
 BYTE   N11  Dn1  v127
 BYTE   W12
 BYTE   N04
 BYTE   W06
 BYTE   Dn2
 BYTE   W06
 BYTE   N11  Dn1
 BYTE   W12
 BYTE   N11
 BYTE   W12
 BYTE   N04
 BYTE   W06
 BYTE   Dn2
 BYTE   W06
 BYTE   N11  Dn1
 BYTE   W12
 BYTE   Cn2
 BYTE   W12
 BYTE   N04
 BYTE   W06
 BYTE   Gn1
 BYTE   W05
 BYTE   PEND 
// 016   ----------------------------------------
Label_10_014B005B:
 BYTE   W01
 BYTE   N11  Cn2  v127
 BYTE   W12
 BYTE   N11
 BYTE   W12
 BYTE   N04
 BYTE   W06
 BYTE   Cn3
 BYTE   W06
 BYTE   N11  Cn2
 BYTE   W12
 BYTE   Bn1
 BYTE   W12
 BYTE   N04
 BYTE   W06
 BYTE   Bn2
 BYTE   W06
 BYTE   N11  Bn1
 BYTE   W12
 BYTE   N11
 BYTE   W11
 BYTE   PEND 
// 017   ----------------------------------------
Label_10_014B0075:
 BYTE   W01
 BYTE   N04  Bn1  v127
 BYTE   W06
 BYTE   Bn2
 BYTE   W06
 BYTE   N11  Bn1
 BYTE   W12
 BYTE   N11
 BYTE   W12
 BYTE   N04
 BYTE   W06
 BYTE   Bn2
 BYTE   W06
 BYTE   N11  Bn1
 BYTE   W12
 BYTE   N11
 BYTE   W12
 BYTE   N04
 BYTE   W06
 BYTE   Bn2
 BYTE   W06
 BYTE   N11  Bn1
 BYTE   W11
 BYTE   PEND 
// 018   ----------------------------------------
 BYTE   PATT
  POIN2 Label_10_014AFFEC
// 019   ----------------------------------------
 BYTE   PATT
  POIN2 Label_10_014B0008
// 020   ----------------------------------------
 BYTE   PATT
  POIN2 Label_10_014B0022
// 021   ----------------------------------------
 BYTE   PATT
  POIN2 Label_10_014B003F
// 022   ----------------------------------------
 BYTE   PATT
  POIN2 Label_10_014B005B
// 023   ----------------------------------------
 BYTE   PATT
  POIN2 Label_10_014B0075
// 024   ----------------------------------------
 BYTE   W01
 BYTE   N11  An1  v127
 BYTE   W12
 BYTE   N04
 BYTE   W06
 BYTE   An2
 BYTE   W06
 BYTE   N11  An1
 BYTE   W12
 BYTE   N04
 BYTE   W06
 BYTE   N04
 BYTE   W06
 BYTE   N04
 BYTE   W06
 BYTE   An2
 BYTE   W06
 BYTE   N11  An1
 BYTE   W12
 BYTE   N11
 BYTE   W12
 BYTE   N04
 BYTE   W06
 BYTE   An2
 BYTE   W05
// 025   ----------------------------------------
 BYTE   PATT
  POIN2 Label_10_014AFEAF
// 026   ----------------------------------------
 BYTE   PATT
  POIN2 Label_10_014AFECB
// 027   ----------------------------------------
 BYTE   W01
 BYTE   N11  Fn1  v127
 BYTE   W12
 BYTE   N04
 BYTE   W06
 BYTE   Fn2
 BYTE   W06
 BYTE   N11  Fn1
 BYTE   W12
 BYTE   N04
 BYTE   W06
 BYTE   Fn2
 BYTE   W06
 BYTE   Fn1
 BYTE   W06
 BYTE   Fn2
 BYTE   W06
 BYTE   N11  Fn1
 BYTE   W12
 BYTE   N11
 BYTE   W12
 BYTE   N04
 BYTE   W06
 BYTE   Fn2
 BYTE   W05
// 028   ----------------------------------------
 BYTE   PATT
  POIN2 Label_10_014AFF09
// 029   ----------------------------------------
 BYTE   PATT
  POIN2 Label_10_014AFF23
// 030   ----------------------------------------
 BYTE   PATT
  POIN2 Label_10_014AFF40
// 031   ----------------------------------------
 BYTE   PATT
  POIN2 Label_10_014AFF5C
// 032   ----------------------------------------
 BYTE   PATT
  POIN2 Label_10_014AFF76
// 033   ----------------------------------------
 BYTE   PATT
  POIN2 Label_10_014AFF93
// 034   ----------------------------------------
 BYTE   PATT
  POIN2 Label_10_014AFFAF
// 035   ----------------------------------------
 BYTE   PATT
  POIN2 Label_10_014AFFC9
// 036   ----------------------------------------
 BYTE   W01
 BYTE   N11  An1  v127
 BYTE   W12
 BYTE   N04
 BYTE   W06
 BYTE   An2
 BYTE   W06
 BYTE   En2
 BYTE   W06
 BYTE   An1
 BYTE   W06
 BYTE   N11  Gs1
 BYTE   W12
 BYTE   N04
 BYTE   W06
 BYTE   Gs2
 BYTE   W06
 BYTE   Gs1
 BYTE   W06
 BYTE   Gs2
 BYTE   W06
 BYTE   N11  An1
 BYTE   W12
 BYTE   N04
 BYTE   W06
 BYTE   An2
 BYTE   W05
// 037   ----------------------------------------
 BYTE   W01
 BYTE   En2
 BYTE   W06
 BYTE   An2
 BYTE   W06
 BYTE   N11  Dn1
 BYTE   W12
 BYTE   N04
 BYTE   W06
 BYTE   Dn2
 BYTE   W06
 BYTE   An1
 BYTE   W06
 BYTE   Dn2
 BYTE   W06
 BYTE   N11  Ds1
 BYTE   W12
 BYTE   N04
 BYTE   W06
 BYTE   Ds2
 BYTE   W06
 BYTE   Bn1
 BYTE   W06
 BYTE   Ds2
 BYTE   W06
 BYTE   N11  En1
 BYTE   W11
// 038   ----------------------------------------
 BYTE   W01
 BYTE   N04
 BYTE   W06
 BYTE   En2
 BYTE   W06
 BYTE   Bn1
 BYTE   W06
 BYTE   En2
 BYTE   W06
 BYTE   N11  Fn1
 BYTE   W12
 BYTE   N04
 BYTE   W06
 BYTE   Fn2
 BYTE   W06
 BYTE   Dn2
 BYTE   W06
 BYTE   Bn1
 BYTE   W06
 BYTE   N11  Fs1
 BYTE   W12
 BYTE   N04
 BYTE   W06
 BYTE   Fs2
 BYTE   W06
 BYTE   Cs2
 BYTE   W06
 BYTE   Fs2
 BYTE   W05
// 039   ----------------------------------------
 BYTE   W01
 BYTE   N11  Fn1
 BYTE   W12
 BYTE   N04
 BYTE   W06
 BYTE   Fn2
 BYTE   W06
 BYTE   Cs2
 BYTE   W06
 BYTE   Fn2
 BYTE   W06
 BYTE   N11  Fs1
 BYTE   W12
 BYTE   N04
 BYTE   W06
 BYTE   Fs2
 BYTE   W06
 BYTE   Cs2
 BYTE   W06
 BYTE   Fs2
 BYTE   W06
 BYTE   N11  Gs1
 BYTE   W12
 BYTE   N04
 BYTE   W06
 BYTE   Gs2
 BYTE   W05
// 040   ----------------------------------------
 BYTE   W01
 BYTE   En2
 BYTE   W06
 BYTE   Gs2
 BYTE   W06
 BYTE   N11  An1
 BYTE   W12
 BYTE   N04
 BYTE   W06
 BYTE   An2
 BYTE   W06
 BYTE   En2
 BYTE   W06
 BYTE   An2
 BYTE   W06
 BYTE   N11  As1
 BYTE   W12
 BYTE   N04
 BYTE   W06
 BYTE   As2
 BYTE   W06
 BYTE   As1
 BYTE   W06
 BYTE   As2
 BYTE   W06
 BYTE   N11  Bn1
 BYTE   W11
// 041   ----------------------------------------
 BYTE   W01
 BYTE   N04
 BYTE   W06
 BYTE   Bn2
 BYTE   W06
 BYTE   Fs2
 BYTE   W06
 BYTE   Bn2
 BYTE   W06
 BYTE   N11  An1
 BYTE   W12
 BYTE   N04
 BYTE   W06
 BYTE   An2
 BYTE   W06
 BYTE   An1
 BYTE   W06
 BYTE   N04
 BYTE   W06
 BYTE   N11  Dn2
 BYTE   W12
 BYTE   N04
 BYTE   W06
 BYTE   Dn3
 BYTE   W06
 BYTE   An2
 BYTE   W06
 BYTE   Dn2
 BYTE   W05
// 042   ----------------------------------------
 BYTE   W01
 BYTE   N11  En1
 BYTE   W12
 BYTE   N04
 BYTE   W06
 BYTE   En2
 BYTE   W06
 BYTE   En1
 BYTE   W06
 BYTE   N04
 BYTE   W06
 BYTE   N11
 BYTE   W12
 BYTE   N04
 BYTE   W06
 BYTE   En2
 BYTE   W06
 BYTE   En1
 BYTE   W06
 BYTE   N04
 BYTE   W06
 BYTE   N11
 BYTE   W12
 BYTE   N04
 BYTE   W06
 BYTE   En2
 BYTE   W05
// 043   ----------------------------------------
 BYTE   W01
 BYTE   En1
 BYTE   W06
 BYTE   N04
 BYTE   W06
 BYTE   N11
 BYTE   W12
 BYTE   N04
 BYTE   W06
 BYTE   En2
 BYTE   W06
 BYTE   En1
 BYTE   W06
 BYTE   N04
 BYTE   W06
 BYTE   N11  Fs1
 BYTE   W12
 BYTE   N04
 BYTE   W06
 BYTE   Fs2
 BYTE   W06
 BYTE   N11  Fs1
 BYTE   W12
 BYTE   N11
 BYTE   W11
// 044   ----------------------------------------
Label_10_014B020A:
 BYTE   W01
 BYTE   N04  Fs1  v127
 BYTE   W06
 BYTE   Fs2
 BYTE   W06
 BYTE   N11  Fs1
 BYTE   W12
 BYTE   En1
 BYTE   W12
 BYTE   N04
 BYTE   W06
 BYTE   En2
 BYTE   W06
 BYTE   N11  En1
 BYTE   W12
 BYTE   N11
 BYTE   W12
 BYTE   N04
 BYTE   W06
 BYTE   En2
 BYTE   W06
 BYTE   N11  En1
 BYTE   W11
 BYTE   PEND 
// 045   ----------------------------------------
Label_10_014B0227:
 BYTE   W01
 BYTE   N11  Bn1  v127
 BYTE   W12
 BYTE   N04
 BYTE   W06
 BYTE   Bn2
 BYTE   W06
 BYTE   N11  Bn1
 BYTE   W12
 BYTE   N11
 BYTE   W12
 BYTE   N04
 BYTE   W06
 BYTE   Bn2
 BYTE   W06
 BYTE   N11  Bn1
 BYTE   W12
 BYTE   En1
 BYTE   W12
 BYTE   N04
 BYTE   W06
 BYTE   En2
 BYTE   W05
 BYTE   PEND 
// 046   ----------------------------------------
Label_10_014B0243:
 BYTE   W01
 BYTE   N11  En1  v127
 BYTE   W12
 BYTE   N11
 BYTE   W12
 BYTE   N04
 BYTE   W06
 BYTE   En2
 BYTE   W06
 BYTE   N11  En1
 BYTE   W12
 BYTE   Dn1
 BYTE   W12
 BYTE   N04
 BYTE   W06
 BYTE   Dn2
 BYTE   W06
 BYTE   N11  Dn1
 BYTE   W12
 BYTE   N11
 BYTE   W11
 BYTE   PEND 
// 047   ----------------------------------------
Label_10_014B025D:
 BYTE   W01
 BYTE   N04  Dn1  v127
 BYTE   W06
 BYTE   Dn2
 BYTE   W06
 BYTE   N11  Dn1
 BYTE   W12
 BYTE   Cn2
 BYTE   W12
 BYTE   N04
 BYTE   W06
 BYTE   Gn1
 BYTE   W06
 BYTE   N11  Cn2
 BYTE   W12
 BYTE   N11
 BYTE   W12
 BYTE   N04
 BYTE   W06
 BYTE   Cn3
 BYTE   W06
 BYTE   N11  Cn2
 BYTE   W11
 BYTE   PEND 
// 048   ----------------------------------------
Label_10_014B027A:
 BYTE   W01
 BYTE   N11  Bn1  v127
 BYTE   W12
 BYTE   N04
 BYTE   W06
 BYTE   Bn2
 BYTE   W06
 BYTE   N11  Bn1
 BYTE   W12
 BYTE   N11
 BYTE   W12
 BYTE   N04
 BYTE   W06
 BYTE   Bn2
 BYTE   W06
 BYTE   N11  Bn1
 BYTE   W12
 BYTE   N11
 BYTE   W12
 BYTE   N04
 BYTE   W06
 BYTE   Bn2
 BYTE   W05
 BYTE   PEND 
// 049   ----------------------------------------
 BYTE   W01
 BYTE   N11  Bn1
 BYTE   W12
 BYTE   N11
 BYTE   W12
 BYTE   N04
 BYTE   W06
 BYTE   Bn2
 BYTE   W06
 BYTE   N11  Bn1
 BYTE   W12
 BYTE   Fs1
 BYTE   W12
 BYTE   N04
 BYTE   W06
 BYTE   Fs2
 BYTE   W06
 BYTE   N11  Fs1
 BYTE   W12
 BYTE   N11
 BYTE   W11
// 050   ----------------------------------------
 BYTE   PATT
  POIN2 Label_10_014B020A
// 051   ----------------------------------------
 BYTE   PATT
  POIN2 Label_10_014B0227
// 052   ----------------------------------------
 BYTE   PATT
  POIN2 Label_10_014B0243
// 053   ----------------------------------------
 BYTE   PATT
  POIN2 Label_10_014B025D
// 054   ----------------------------------------
 BYTE   PATT
  POIN2 Label_10_014B027A
// 055   ----------------------------------------
 BYTE   W01
 BYTE   N11  Bn1  v127
 BYTE   W12
 BYTE   N11
 BYTE   W12
 BYTE   N04
 BYTE   W06
 BYTE   Bn2
 BYTE   W06
 BYTE   N10  Bn1
 BYTE   W10
 BYTE   GoTo
  POIN2 Label_10_014AFE8A
 BYTE   FINE

//**************** Track 12 (Midi-Chn.11) ****************//

songE9_012:
// 000   ----------------------------------------
 BYTE   KEYSH   songE9_key+0
Label_11_014B02DD:
 BYTE   VOICE   18
 BYTE   VOL   14*songE9_mvl/mxv
 BYTE   PAN   c_v-20
 BYTE   BEND   c_v-2
 BYTE   W11
 BYTE   N28  An4  v127
 BYTE   W30
 BYTE   N36  En5
 BYTE   W42
 BYTE   N04  Dn5
 BYTE   W06
 BYTE   Cn5
 BYTE   W06
 BYTE   Bn4
 BYTE   W01
// 001   ----------------------------------------
Label_11_014B02F4:
 BYTE   W05
 BYTE   N04  An4  v127
 BYTE   W06
 BYTE   Bn4
 BYTE   W06
 BYTE   Cn5
 BYTE   W06
 BYTE   Dn5
 BYTE   W06
 BYTE   Cn5
 BYTE   W06
 BYTE   Bn4
 BYTE   W06
 BYTE   Gs4
 BYTE   W06
 BYTE   An4
 BYTE   W06
 BYTE   Bn4
 BYTE   W06
 BYTE   N28  An4
 BYTE   W30
 BYTE   N36  En5
 BYTE   W07
 BYTE   PEND 
// 002   ----------------------------------------
Label_11_014B0310:
 BYTE   W32
 BYTE   W03
 BYTE   N16  Fn5  v127
 BYTE   W18
 BYTE   Dn5
 BYTE   W18
 BYTE   En5
 BYTE   W18
 BYTE   N04  Gs4
 BYTE   W06
 BYTE   An4
 BYTE   W01
 BYTE   PEND 
// 003   ----------------------------------------
Label_11_014B0320:
 BYTE   W05
 BYTE   N04  Bn4  v127
 BYTE   W06
 BYTE   N32  Cn5
 BYTE   W36
 BYTE   N11  Bn4
 BYTE   W12
 BYTE   Cn5
 BYTE   W12
 BYTE   Dn5
 BYTE   W12
 BYTE   N32  En5
 BYTE   W13
 BYTE   PEND 
// 004   ----------------------------------------
Label_11_014B0333:
 BYTE   W23
 BYTE   N11  An4  v127
 BYTE   W12
 BYTE   Bn4
 BYTE   W12
 BYTE   Cn5
 BYTE   W12
 BYTE   N04  Dn5
 BYTE   W06
 BYTE   Cn5
 BYTE   W06
 BYTE   Dn5
 BYTE   W06
 BYTE   Bn4
 BYTE   W06
 BYTE   Dn5
 BYTE   W06
 BYTE   An4
 BYTE   W06
 BYTE   Dn5
 BYTE   W01
 BYTE   PEND 
// 005   ----------------------------------------
Label_11_014B034C:
 BYTE   W05
 BYTE   N04  Gs4  v127
 BYTE   W06
 BYTE   An4
 BYTE   W06
 BYTE   Bn4
 BYTE   W06
 BYTE   Cn5
 BYTE   W06
 BYTE   Dn5
 BYTE   W06
 BYTE   N32  En5
 BYTE   W36
 BYTE   Gs4
 BYTE   W24
 BYTE   W01
 BYTE   PEND 
// 006   ----------------------------------------
Label_11_014B0360:
 BYTE   W11
 BYTE   N28  An4  v127
 BYTE   W30
 BYTE   N36  En5
 BYTE   W42
 BYTE   N04  Dn5
 BYTE   W06
 BYTE   Cn5
 BYTE   W06
 BYTE   Bn4
 BYTE   W01
 BYTE   PEND 
// 007   ----------------------------------------
 BYTE   PATT
  POIN2 Label_11_014B02F4
// 008   ----------------------------------------
 BYTE   PATT
  POIN2 Label_11_014B0310
// 009   ----------------------------------------
Label_11_014B037A:
 BYTE   W05
 BYTE   N04  Bn4  v127
 BYTE   W06
 BYTE   N32  Cn5
 BYTE   W36
 BYTE   N11
 BYTE   W12
 BYTE   Dn5
 BYTE   W12
 BYTE   En5
 BYTE   W12
 BYTE   N32  Fn5
 BYTE   W13
 BYTE   PEND 
// 010   ----------------------------------------
Label_11_014B038C:
 BYTE   W23
 BYTE   N11  Fn5  v127
 BYTE   W12
 BYTE   En5
 BYTE   W12
 BYTE   Dn5
 BYTE   W12
 BYTE   TIE  En5
 BYTE   W36
 BYTE   W01
 BYTE   PEND 
// 011   ----------------------------------------
 BYTE   W96
// 012   ----------------------------------------
 BYTE   W09
 BYTE   EOT
 BYTE   W84
 BYTE   W03
// 013   ----------------------------------------
 BYTE   W96
// 014   ----------------------------------------
 BYTE   W96
// 015   ----------------------------------------
 BYTE   W96
// 016   ----------------------------------------
 BYTE   W96
// 017   ----------------------------------------
 BYTE   W96
// 018   ----------------------------------------
 BYTE   W96
// 019   ----------------------------------------
 BYTE   W96
// 020   ----------------------------------------
 BYTE   W96
// 021   ----------------------------------------
 BYTE   W96
// 022   ----------------------------------------
 BYTE   W96
// 023   ----------------------------------------
 BYTE   W96
// 024   ----------------------------------------
 BYTE   PATT
  POIN2 Label_11_014B0360
// 025   ----------------------------------------
 BYTE   PATT
  POIN2 Label_11_014B02F4
// 026   ----------------------------------------
 BYTE   PATT
  POIN2 Label_11_014B0310
// 027   ----------------------------------------
 BYTE   PATT
  POIN2 Label_11_014B0320
// 028   ----------------------------------------
 BYTE   PATT
  POIN2 Label_11_014B0333
// 029   ----------------------------------------
 BYTE   PATT
  POIN2 Label_11_014B034C
// 030   ----------------------------------------
 BYTE   PATT
  POIN2 Label_11_014B0360
// 031   ----------------------------------------
 BYTE   PATT
  POIN2 Label_11_014B02F4
// 032   ----------------------------------------
 BYTE   PATT
  POIN2 Label_11_014B0310
// 033   ----------------------------------------
 BYTE   PATT
  POIN2 Label_11_014B037A
// 034   ----------------------------------------
 BYTE   PATT
  POIN2 Label_11_014B038C
// 035   ----------------------------------------
 BYTE   W96
// 036   ----------------------------------------
 BYTE   W09
 BYTE   EOT
 BYTE   En5
 BYTE   W84
 BYTE   W03
// 037   ----------------------------------------
 BYTE   W96
// 038   ----------------------------------------
 BYTE   W96
// 039   ----------------------------------------
 BYTE   W96
// 040   ----------------------------------------
 BYTE   W96
// 041   ----------------------------------------
 BYTE   W96
// 042   ----------------------------------------
 BYTE   W96
// 043   ----------------------------------------
 BYTE   W96
// 044   ----------------------------------------
 BYTE   W96
// 045   ----------------------------------------
 BYTE   W96
// 046   ----------------------------------------
 BYTE   W96
// 047   ----------------------------------------
 BYTE   W96
// 048   ----------------------------------------
 BYTE   W96
// 049   ----------------------------------------
 BYTE   W96
// 050   ----------------------------------------
 BYTE   W96
// 051   ----------------------------------------
 BYTE   W96
// 052   ----------------------------------------
 BYTE   W96
// 053   ----------------------------------------
 BYTE   W96
// 054   ----------------------------------------
 BYTE   W96
// 055   ----------------------------------------
 BYTE   W44
 BYTE   W03
 BYTE   GoTo
  POIN2 Label_11_014B02DD
 BYTE   FINE

//**************** Track 13 (Midi-Chn.12) ****************//

songE9_013:
// 000   ----------------------------------------
 BYTE   KEYSH   songE9_key+0
Label_12_014B0403:
 BYTE   VOICE   65
 BYTE   VOL   14*songE9_mvl/mxv
 BYTE   PAN   c_v-4
 BYTE   BEND   c_v-1
 BYTE   W96
// 001   ----------------------------------------
 BYTE   W96
// 002   ----------------------------------------
 BYTE   W96
// 003   ----------------------------------------
 BYTE   W96
// 004   ----------------------------------------
 BYTE   W96
// 005   ----------------------------------------
 BYTE   W96
// 006   ----------------------------------------
 BYTE   W96
// 007   ----------------------------------------
 BYTE   W96
// 008   ----------------------------------------
 BYTE   W96
// 009   ----------------------------------------
 BYTE   W96
// 010   ----------------------------------------
 BYTE   W96
// 011   ----------------------------------------
 BYTE   W96
// 012   ----------------------------------------
Label_12_014B0417:
 BYTE   W11
 BYTE   N05  Gs3  v127
 BYTE   W06
 BYTE   An3
 BYTE   W06
 BYTE   Bn3
 BYTE   W06
 BYTE   N44  Cs4
 BYTE   W54
 BYTE   N32
 BYTE   W13
 BYTE   PEND 
// 013   ----------------------------------------
 BYTE   W23
 BYTE   Bn3
 BYTE   W36
 BYTE   N32
 BYTE   W36
 BYTE   N11  Fs3
 BYTE   W01
// 014   ----------------------------------------
Label_12_014B042E:
 BYTE   W11
 BYTE   N11  Gs3  v127
 BYTE   W12
 BYTE   An3
 BYTE   W12
 BYTE   N32  Bn3
 BYTE   W36
 BYTE   N28  En4
 BYTE   W24
 BYTE   W01
 BYTE   PEND 
// 015   ----------------------------------------
 BYTE   W11
 BYTE   N32
 BYTE   W36
 BYTE   N28  Dn4
 BYTE   W36
 BYTE   N28
 BYTE   W13
// 016   ----------------------------------------
 BYTE   W23
 BYTE   N11  Cn4
 BYTE   W12
 BYTE   Bn3
 BYTE   W12
 BYTE   An3
 BYTE   W12
 BYTE   TIE  Bn3
 BYTE   W36
 BYTE   W01
// 017   ----------------------------------------
 BYTE   W92
 BYTE   W02
 BYTE   EOT
 BYTE   W02
// 018   ----------------------------------------
 BYTE   PATT
  POIN2 Label_12_014B0417
// 019   ----------------------------------------
 BYTE   W23
 BYTE   N28  Bn3  v127
 BYTE   W36
 BYTE   N28
 BYTE   W36
 BYTE   N11  Fs3
 BYTE   W01
// 020   ----------------------------------------
 BYTE   PATT
  POIN2 Label_12_014B042E
// 021   ----------------------------------------
 BYTE   W11
 BYTE   N28  En4  v127
 BYTE   W36
 BYTE   Dn4
 BYTE   W36
 BYTE   N28
 BYTE   W13
// 022   ----------------------------------------
 BYTE   W23
 BYTE   N11  Cn4
 BYTE   W12
 BYTE   Bn3
 BYTE   W12
 BYTE   An3
 BYTE   W12
 BYTE   N68  Bn3
 BYTE   W36
 BYTE   W01
// 023   ----------------------------------------
 BYTE   W32
 BYTE   W03
 BYTE   Ds3
 BYTE   W60
 BYTE   W01
// 024   ----------------------------------------
 BYTE   W96
// 025   ----------------------------------------
 BYTE   W96
// 026   ----------------------------------------
 BYTE   W96
// 027   ----------------------------------------
 BYTE   W96
// 028   ----------------------------------------
 BYTE   W96
// 029   ----------------------------------------
 BYTE   W96
// 030   ----------------------------------------
 BYTE   W96
// 031   ----------------------------------------
 BYTE   W96
// 032   ----------------------------------------
 BYTE   W96
// 033   ----------------------------------------
 BYTE   W96
// 034   ----------------------------------------
 BYTE   W96
// 035   ----------------------------------------
 BYTE   W96
// 036   ----------------------------------------
 BYTE   W96
// 037   ----------------------------------------
 BYTE   W96
// 038   ----------------------------------------
 BYTE   W96
// 039   ----------------------------------------
 BYTE   W96
// 040   ----------------------------------------
 BYTE   W96
// 041   ----------------------------------------
 BYTE   W96
// 042   ----------------------------------------
 BYTE   W96
// 043   ----------------------------------------
 BYTE   W56
 BYTE   W03
 BYTE   N05  Gs3
 BYTE   W06
 BYTE   An3
 BYTE   W06
 BYTE   Bn3
 BYTE   W06
 BYTE   N44  Cs4
 BYTE   W19
// 044   ----------------------------------------
 BYTE   W32
 BYTE   W03
 BYTE   N32
 BYTE   W36
 BYTE   Bn3
 BYTE   W24
 BYTE   W01
// 045   ----------------------------------------
 BYTE   W11
 BYTE   N32
 BYTE   W36
 BYTE   N11  Fs3
 BYTE   W12
 BYTE   Gs3
 BYTE   W12
 BYTE   An3
 BYTE   W12
 BYTE   N32  Bn3
 BYTE   W13
// 046   ----------------------------------------
 BYTE   W23
 BYTE   N28  En4
 BYTE   W36
 BYTE   N32
 BYTE   W36
 BYTE   N28  Dn4
 BYTE   W01
// 047   ----------------------------------------
Label_12_014B04BF:
 BYTE   W32
 BYTE   W03
 BYTE   N28  Dn4  v127
 BYTE   W36
 BYTE   N11  Cn4
 BYTE   W12
 BYTE   Bn3
 BYTE   W12
 BYTE   An3
 BYTE   W01
 BYTE   PEND 
// 048   ----------------------------------------
 BYTE   W11
 BYTE   TIE  Bn3
 BYTE   W84
 BYTE   W01
// 049   ----------------------------------------
 BYTE   W44
 BYTE   W02
 BYTE   EOT
 BYTE   W13
 BYTE   N05  Gs3
 BYTE   W06
 BYTE   An3
 BYTE   W06
 BYTE   Bn3
 BYTE   W06
 BYTE   N44  Cs4
 BYTE   W19
// 050   ----------------------------------------
 BYTE   W32
 BYTE   W03
 BYTE   N32
 BYTE   W36
 BYTE   N28  Bn3
 BYTE   W24
 BYTE   W01
// 051   ----------------------------------------
 BYTE   W11
 BYTE   N28
 BYTE   W36
 BYTE   N11  Fs3
 BYTE   W12
 BYTE   Gs3
 BYTE   W12
 BYTE   An3
 BYTE   W12
 BYTE   N32  Bn3
 BYTE   W13
// 052   ----------------------------------------
 BYTE   W23
 BYTE   N28  En4
 BYTE   W36
 BYTE   N28
 BYTE   W36
 BYTE   Dn4
 BYTE   W01
// 053   ----------------------------------------
 BYTE   PATT
  POIN2 Label_12_014B04BF
// 054   ----------------------------------------
 BYTE   W11
 BYTE   N68  Bn3  v127
 BYTE   W72
 BYTE   N56  Ds3
 BYTE   W13
// 055   ----------------------------------------
 BYTE   W44
 BYTE   W03
 BYTE   GoTo
  POIN2 Label_12_014B0403
 BYTE   FINE

//******************************************************//
	ALIGN 4

songE9:
	BYTE	13	// NumTrks
	BYTE	0	// NumBlks
	BYTE	songE9_pri	// Priority
	BYTE	songE9_rev	// Reverb.
    
	POIN2	songE9_grp
    
	POIN2	songE9_001
	POIN2	songE9_002
	POIN2	songE9_003
	POIN2	songE9_004
	POIN2	songE9_005
	POIN2	songE9_006
	POIN2	songE9_007
	POIN2	songE9_008
	POIN2	songE9_009
	POIN2	songE9_010
	POIN2	songE9_011
	POIN2	songE9_012
	POIN2	songE9_013

	
