//Event file generated from Sappy .s format.
	#include "MPlayDef.event"

	#define	songAD_grp  voicegroup001
	#define	songAD_pri  0
	#define	songAD_rev  0
	#define	songAD_mvl  127
	#define	songAD_key  0
	#define	songAD_tbs  1
	#define	songAD_exg  0
	#define	songAD_cmp  1

	// .rodata
	//	songAD
	ALIGN 4


//**************** Track 1 (Midi-Chn.0) ****************//

songAD_001:
// 000   ----------------------------------------
 BYTE   KEYSH   songAD_key+0
 BYTE   TEMPO   150*songAD_tbs/2
 BYTE   VOICE   40
 BYTE   VOL   25*songAD_mvl/mxv
 BYTE   PAN   c_v-14
 BYTE   W96
// 001   ----------------------------------------
 BYTE   W96
// 002   ----------------------------------------
 BYTE   W96
// 003   ----------------------------------------
 BYTE   W96
// 004   ----------------------------------------
 BYTE   W96
// 005   ----------------------------------------
 BYTE   W96
// 006   ----------------------------------------
Label_0_0127BF90:
 BYTE   W96
// 007   ----------------------------------------
 BYTE   W96
// 008   ----------------------------------------
 BYTE   W96
// 009   ----------------------------------------
 BYTE   W96
// 010   ----------------------------------------
 BYTE   W96
// 011   ----------------------------------------
 BYTE   W96
// 012   ----------------------------------------
 BYTE   W96
// 013   ----------------------------------------
 BYTE   W96
// 014   ----------------------------------------
 BYTE   W96
// 015   ----------------------------------------
 BYTE   W96
// 016   ----------------------------------------
 BYTE   W96
// 017   ----------------------------------------
 BYTE   W96
// 018   ----------------------------------------
 BYTE   W96
// 019   ----------------------------------------
 BYTE   W96
// 020   ----------------------------------------
 BYTE   W96
// 021   ----------------------------------------
 BYTE   W96
// 022   ----------------------------------------
 BYTE   W96
// 023   ----------------------------------------
 BYTE   W96
// 024   ----------------------------------------
 BYTE   W96
// 025   ----------------------------------------
 BYTE   W96
// 026   ----------------------------------------
 BYTE   W96
// 027   ----------------------------------------
 BYTE   W96
// 028   ----------------------------------------
 BYTE   W96
// 029   ----------------------------------------
 BYTE   W96
// 030   ----------------------------------------
 BYTE   W96
// 031   ----------------------------------------
 BYTE   W96
// 032   ----------------------------------------
 BYTE   W12
 BYTE   N72  Dn4  v120
 BYTE   W72
 BYTE   N12  En4
 BYTE   W12
// 033   ----------------------------------------
 BYTE   Fn4
 BYTE   W12
 BYTE   N36  Gn4
 BYTE   W36
 BYTE   Fn4
 BYTE   W36
 BYTE   N24  En4
 BYTE   W12
// 034   ----------------------------------------
 BYTE   W12
 BYTE   TIE  Dn4
 BYTE   W72
 BYTE   W01
 BYTE   W01
 BYTE   W01
 BYTE   W01
 BYTE   W01
 BYTE   W01
 BYTE   W01
 BYTE   W01
 BYTE   W01
 BYTE   W01
 BYTE   W01
 BYTE   W01
// 035   ----------------------------------------
 BYTE   W01
 BYTE   W01
 BYTE   W01
 BYTE   W01
 BYTE   W01
 BYTE   W01
 BYTE   W01
 BYTE   W01
 BYTE   W01
 BYTE   W01
 BYTE   W01
 BYTE   W01
 BYTE   TEMPO   148*songAD_tbs/2
 BYTE   W01
 BYTE   W01
 BYTE   W01
 BYTE   W01
 BYTE   W01
 BYTE   W01
 BYTE   W01
 BYTE   W01
 BYTE   W01
 BYTE   TEMPO   146*songAD_tbs/2
 BYTE   W01
 BYTE   TEMPO   144*songAD_tbs/2
 BYTE   W01
 BYTE   W01
 BYTE   W01
 BYTE   W01
 BYTE   W01
 BYTE   W01
 BYTE   W01
 BYTE   W01
 BYTE   W01
 BYTE   TEMPO   142*songAD_tbs/2
 BYTE   W01
 BYTE   W01
 BYTE   W01
 BYTE   W01
 BYTE   W01
 BYTE   W01
 BYTE   W01
 BYTE   W01
 BYTE   W01
 BYTE   TEMPO   140*songAD_tbs/2
 BYTE   W01
 BYTE   TEMPO   138*songAD_tbs/2
 BYTE   W01
 BYTE   W01
 BYTE   W01
 BYTE   W01
 BYTE   W01
 BYTE   W01
 BYTE   W01
 BYTE   W01
 BYTE   TEMPO   136*songAD_tbs/2
 BYTE   W01
 BYTE   TEMPO   136*songAD_tbs/2
 BYTE   W01
 BYTE   W01
 BYTE   W01
 BYTE   W01
 BYTE   W01
 BYTE   W01
 BYTE   W01
 BYTE   W01
 BYTE   TEMPO   134*songAD_tbs/2
 BYTE   W01
 BYTE   TEMPO   134*songAD_tbs/2
 BYTE   W01
 BYTE   EOT
 BYTE   W06
 BYTE   TEMPO   132*songAD_tbs/2
 BYTE   W01
 BYTE   TEMPO   130*songAD_tbs/2
 BYTE   W08
 BYTE   TEMPO   128*songAD_tbs/2
 BYTE   W01
 BYTE   TEMPO   128*songAD_tbs/2
 BYTE   W07
 BYTE   TEMPO   126*songAD_tbs/2
 BYTE   W01
 BYTE   TEMPO   126*songAD_tbs/2
 BYTE   W07
 BYTE   TEMPO   124*songAD_tbs/2
 BYTE   W01
 BYTE   TEMPO   122*songAD_tbs/2
 BYTE   W04
// 036   ----------------------------------------
 BYTE   W03
 BYTE   TEMPO   122*songAD_tbs/2
 BYTE   W01
 BYTE   TEMPO   120*songAD_tbs/2
 BYTE   W07
 BYTE   TEMPO   120*songAD_tbs/2
 BYTE   W01
 BYTE   TEMPO   120*songAD_tbs/2
 BYTE   W84
// 037   ----------------------------------------
 BYTE   W96
// 038   ----------------------------------------
 BYTE   W96
// 039   ----------------------------------------
 BYTE   W96
// 040   ----------------------------------------
 BYTE   W96
// 041   ----------------------------------------
 BYTE   W96
// 042   ----------------------------------------
 BYTE   W12
 BYTE   TEMPO   150*songAD_tbs/2
 BYTE   W84
// 043   ----------------------------------------
 BYTE   W96
// 044   ----------------------------------------
 BYTE   W96
// 045   ----------------------------------------
 BYTE   W96
// 046   ----------------------------------------
 BYTE   W96
// 047   ----------------------------------------
 BYTE   W96
// 048   ----------------------------------------
 BYTE   W96
// 049   ----------------------------------------
 BYTE   W96
// 050   ----------------------------------------
 BYTE   W96
// 051   ----------------------------------------
 BYTE   W96
// 052   ----------------------------------------
 BYTE   W96
// 053   ----------------------------------------
 BYTE   W96
// 054   ----------------------------------------
 BYTE   W96
// 055   ----------------------------------------
 BYTE   W96
// 056   ----------------------------------------
 BYTE   W96
// 057   ----------------------------------------
 BYTE   W96
// 058   ----------------------------------------
 BYTE   W96
// 059   ----------------------------------------
 BYTE   W96
// 060   ----------------------------------------
 BYTE   W12
 BYTE   GoTo
  POIN2 Label_0_0127BF90
 BYTE   FINE

//**************** Track 2 (Midi-Chn.1) ****************//

songAD_002:
// 000   ----------------------------------------
 BYTE   KEYSH   songAD_key+0
 BYTE   VOICE   49
 BYTE   VOL   29*songAD_mvl/mxv
 BYTE   PAN   c_v-14
 BYTE   VOL   35*songAD_mvl/mxv
 BYTE   PAN   c_v-6
 BYTE   W12
 BYTE   W84
// 001   ----------------------------------------
 BYTE   W96
// 002   ----------------------------------------
 BYTE   W96
// 003   ----------------------------------------
 BYTE   W96
// 004   ----------------------------------------
 BYTE   W12
 BYTE   W84
// 005   ----------------------------------------
 BYTE   W96
// 006   ----------------------------------------
Label_1_0127C078:
 BYTE   W96
// 007   ----------------------------------------
 BYTE   W96
// 008   ----------------------------------------
 BYTE   W12
 BYTE   W48
 BYTE   N48  An2  v120
 BYTE   W36
// 009   ----------------------------------------
 BYTE   W12
 BYTE   An2  v112
 BYTE   N48  Dn3  v120
 BYTE   W48
 BYTE   N96  Dn3  v112
 BYTE   N96  An3  v120
 BYTE   W36
// 010   ----------------------------------------
 BYTE   W60
 BYTE   N24  Ds3  v112
 BYTE   N24  Gn3  v120
 BYTE   W24
 BYTE   Dn3  v112
 BYTE   N24  Fn3  v120
 BYTE   W12
// 011   ----------------------------------------
 BYTE   W12
 BYTE   N48  Cn3  v112
 BYTE   N48  Ds3  v120
 BYTE   W48
 BYTE   N24  Dn3  v112
 BYTE   N24  Fn3  v120
 BYTE   W24
 BYTE   Ds3  v112
 BYTE   N24  Gn3  v120
 BYTE   W12
// 012   ----------------------------------------
 BYTE   W12
 BYTE   N48  Dn3  v112
 BYTE   N48  An3  v120
 BYTE   W48
 BYTE   TIE  An2  v112
 BYTE   TIE  Dn3  v120
 BYTE   W36
// 013   ----------------------------------------
 BYTE   W96
// 014   ----------------------------------------
 BYTE   W12
 BYTE   EOT
 BYTE   An2  v062
 BYTE   W48
 BYTE   N24  Ds3  v112
 BYTE   N24  Gn3  v120
 BYTE   W24
 BYTE   Ds3  v112
 BYTE   N24  An3  v120
 BYTE   W12
// 015   ----------------------------------------
 BYTE   W12
 BYTE   N48  Cn3  v112
 BYTE   N48  Ds3  v120
 BYTE   W48
 BYTE   N24  An2  v112
 BYTE   N24  Dn3  v120
 BYTE   W24
 BYTE   An2  v112
 BYTE   N24  Cn3  v120
 BYTE   W12
// 016   ----------------------------------------
Label_1_0127C0E8:
 BYTE   W12
 BYTE   N72  An2  v112
 BYTE   N72  Dn3  v120
 BYTE   W72
 BYTE   N12  An2  v112
 BYTE   N12  En3  v120
 BYTE   W12
 BYTE   PEND 
// 017   ----------------------------------------
 BYTE   Dn3  v112
 BYTE   N12  Fn3  v120
 BYTE   W12
 BYTE   N36  Dn3  v112
 BYTE   N36  Gn3  v120
 BYTE   W36
 BYTE   Dn3  v112
 BYTE   N36  Fn3  v120
 BYTE   W36
 BYTE   N24  As2  v112
 BYTE   N24  En3  v120
 BYTE   W12
// 018   ----------------------------------------
 BYTE   PATT
  POIN2 Label_1_0127C0E8
// 019   ----------------------------------------
 BYTE   N12  Dn3  v112
 BYTE   N12  Fn3  v120
 BYTE   W12
 BYTE   N36  Dn3  v112
 BYTE   N36  Gn3  v120
 BYTE   W36
 BYTE   Dn3  v112
 BYTE   N36  An3  v120
 BYTE   W36
 BYTE   N24  Dn3  v112
 BYTE   N24  Fn3  v120
 BYTE   N06  As3
 BYTE   N06  Dn4
 BYTE   W06
 BYTE   Cn4
 BYTE   N06  Ds4
 BYTE   W06
// 020   ----------------------------------------
 BYTE   Dn4
 BYTE   N06  Fn4
 BYTE   W06
 BYTE   Ds4
 BYTE   N06  Gn4
 BYTE   W06
 BYTE   N96  Ds4
 BYTE   N96  Gs4
 BYTE   W84
// 021   ----------------------------------------
Label_1_0127C147:
 BYTE   W12
 BYTE   N96  Ds4  v120
 BYTE   N48  As4
 BYTE   W48
 BYTE   Cn5
 BYTE   W36
 BYTE   PEND 
// 022   ----------------------------------------
Label_1_0127C151:
 BYTE   W12
 BYTE   N96  Dn4  v120
 BYTE   N96  Gn4
 BYTE   W84
 BYTE   PEND 
// 023   ----------------------------------------
 BYTE   W12
 BYTE   N96
 BYTE   N48  Dn5
 BYTE   W48
 BYTE   As4
 BYTE   W36
// 024   ----------------------------------------
 BYTE   W12
 BYTE   N96  Ds4
 BYTE   N96  Gs4
 BYTE   W84
// 025   ----------------------------------------
 BYTE   PATT
  POIN2 Label_1_0127C147
// 026   ----------------------------------------
 BYTE   PATT
  POIN2 Label_1_0127C151
// 027   ----------------------------------------
 BYTE   W12
 BYTE   N96  Gn4  v120
 BYTE   N48  As4
 BYTE   W48
 BYTE   Dn5
 BYTE   W36
// 028   ----------------------------------------
 BYTE   W12
 BYTE   N96  An4  v112
 BYTE   N96  Dn5
 BYTE   W84
// 029   ----------------------------------------
 BYTE   W12
 BYTE   Dn4  v108
 BYTE   N96  Gn4
 BYTE   W84
// 030   ----------------------------------------
 BYTE   W12
 BYTE   An3  v100
 BYTE   N96  Dn4
 BYTE   W24
 BYTE   W01
 BYTE   W01
 BYTE   W01
 BYTE   W01
 BYTE   W01
 BYTE   W01
 BYTE   W01
 BYTE   W01
 BYTE   W01
 BYTE   W01
 BYTE   W01
 BYTE   W01
 BYTE   W01
 BYTE   W01
 BYTE   W01
 BYTE   W01
 BYTE   W01
 BYTE   W01
 BYTE   W01
 BYTE   W01
 BYTE   W01
 BYTE   W01
 BYTE   W01
 BYTE   W01
 BYTE   W01
 BYTE   W01
 BYTE   W01
 BYTE   W01
 BYTE   W01
 BYTE   W01
 BYTE   W01
 BYTE   W01
 BYTE   W01
 BYTE   W01
 BYTE   W01
 BYTE   W01
 BYTE   W01
 BYTE   W01
 BYTE   W01
 BYTE   W01
 BYTE   W01
 BYTE   W01
 BYTE   W01
 BYTE   W01
 BYTE   W01
 BYTE   W01
 BYTE   W01
 BYTE   W01
 BYTE   W01
 BYTE   W01
 BYTE   W01
 BYTE   W01
 BYTE   W01
 BYTE   W01
 BYTE   W01
 BYTE   W01
 BYTE   W01
 BYTE   W01
 BYTE   W01
 BYTE   W01
// 031   ----------------------------------------
 BYTE   W01
 BYTE   W01
 BYTE   W01
 BYTE   W01
 BYTE   W01
 BYTE   W01
 BYTE   W01
 BYTE   W01
 BYTE   W01
 BYTE   W01
 BYTE   W01
 BYTE   W01
 BYTE   W84
// 032   ----------------------------------------
 BYTE   W12
 BYTE   W84
// 033   ----------------------------------------
 BYTE   W96
// 034   ----------------------------------------
 BYTE   W96
// 035   ----------------------------------------
 BYTE   W96
// 036   ----------------------------------------
 BYTE   W96
// 037   ----------------------------------------
 BYTE   W36
 BYTE   N24  An2  v096
 BYTE   N24  Cs3
 BYTE   W24
 BYTE   N48  Cs3  v100
 BYTE   N24  An3
 BYTE   W24
 BYTE   Gn3  v108
 BYTE   W12
// 038   ----------------------------------------
 BYTE   W12
 BYTE   N96  Dn3  v112
 BYTE   N96  Fs3
 BYTE   W84
// 039   ----------------------------------------
 BYTE   W12
 BYTE   Dn3  v116
 BYTE   N96  Gn3
 BYTE   W84
// 040   ----------------------------------------
 BYTE   W12
 BYTE   Fs3
 BYTE   N96  As3
 BYTE   W84
// 041   ----------------------------------------
 BYTE   W12
 BYTE   Fs3
 BYTE   N96  Bn3
 BYTE   W84
// 042   ----------------------------------------
 BYTE   W60
 BYTE   N48  As2
 BYTE   W36
// 043   ----------------------------------------
 BYTE   W12
 BYTE   N48
 BYTE   N48  Cs3
 BYTE   W48
 BYTE   N96  En3
 BYTE   N96  Gn3
 BYTE   W36
// 044   ----------------------------------------
 BYTE   W60
 BYTE   N24  Cs3
 BYTE   N24  Fs3
 BYTE   W24
 BYTE   Cs3
 BYTE   N24  En3
 BYTE   W12
// 045   ----------------------------------------
 BYTE   W12
 BYTE   N48  As2
 BYTE   N48  Dn3
 BYTE   W48
 BYTE   N24  As2
 BYTE   N24  En3
 BYTE   W24
 BYTE   As2
 BYTE   N24  Fs3
 BYTE   W12
// 046   ----------------------------------------
 BYTE   W12
 BYTE   N48  As2
 BYTE   N48  Fs3
 BYTE   W48
 BYTE   TIE  Fs2
 BYTE   TIE  As2
 BYTE   W36
// 047   ----------------------------------------
 BYTE   W96
// 048   ----------------------------------------
 BYTE   W12
 BYTE   EOT
 BYTE   Fs2  v058
 BYTE   W48
 BYTE   N24  En3
 BYTE   N24  Gs3
 BYTE   W24
 BYTE   En3
 BYTE   N24  As3
 BYTE   W12
// 049   ----------------------------------------
 BYTE   W12
 BYTE   N48  Gs3
 BYTE   N48  Cn4
 BYTE   W48
 BYTE   N24  Gs3
 BYTE   N24  Dn4
 BYTE   W24
 BYTE   Gs3
 BYTE   N24  En4
 BYTE   W12
// 050   ----------------------------------------
 BYTE   W12
 BYTE   N72  Cs4
 BYTE   N72  Fn4
 BYTE   W72
 BYTE   N24  Bn3
 BYTE   N24  Ds4
 BYTE   W12
// 051   ----------------------------------------
 BYTE   W12
 BYTE   N96  Cs4
 BYTE   N96  Fn4
 BYTE   W84
// 052   ----------------------------------------
 BYTE   W12
 BYTE   N48  Bn3
 BYTE   N48  Ds4
 BYTE   W48
 BYTE   Fn3
 BYTE   N48  An3
 BYTE   W36
// 053   ----------------------------------------
 BYTE   W12
 BYTE   N96  Fn3
 BYTE   N96  Bn3
 BYTE   W84
// 054   ----------------------------------------
 BYTE   W60
 BYTE   N24  Fn3
 BYTE   N24  An3
 BYTE   W24
 BYTE   Ds3
 BYTE   N24  Gn3
 BYTE   W12
// 055   ----------------------------------------
 BYTE   W12
 BYTE   N48  Cs3
 BYTE   N48  Fn3
 BYTE   W48
 BYTE   N24  Ds3
 BYTE   N24  Gn3
 BYTE   W24
 BYTE   Fn3
 BYTE   N24  An3
 BYTE   W12
// 056   ----------------------------------------
 BYTE   W12
 BYTE   N96  An2
 BYTE   N96  Dn3
 BYTE   W84
// 057   ----------------------------------------
 BYTE   W12
 BYTE   TIE  Fn3
 BYTE   TIE  An3
 BYTE   W84
// 058   ----------------------------------------
 BYTE   W12
 BYTE   W01
 BYTE   W01
 BYTE   W01
 BYTE   W01
 BYTE   W01
 BYTE   W01
 BYTE   W01
 BYTE   W01
 BYTE   W01
 BYTE   W01
 BYTE   W01
 BYTE   W01
 BYTE   W01
 BYTE   W01
 BYTE   W01
 BYTE   W01
 BYTE   W01
 BYTE   W01
 BYTE   W01
 BYTE   W01
 BYTE   W01
 BYTE   W01
 BYTE   W01
 BYTE   W01
 BYTE   W01
 BYTE   W01
 BYTE   W01
 BYTE   W01
 BYTE   W01
 BYTE   W01
 BYTE   W01
 BYTE   W01
 BYTE   W01
 BYTE   W01
 BYTE   W01
 BYTE   W01
 BYTE   W01
 BYTE   W01
 BYTE   W01
 BYTE   W01
 BYTE   W01
 BYTE   W01
 BYTE   W01
 BYTE   W01
 BYTE   W01
 BYTE   W01
 BYTE   W01
 BYTE   W01
 BYTE   W01
 BYTE   W01
 BYTE   W01
 BYTE   W01
 BYTE   W01
 BYTE   W01
 BYTE   W01
 BYTE   W01
 BYTE   W01
 BYTE   W01
 BYTE   W01
 BYTE   W01
 BYTE   W01
 BYTE   W01
 BYTE   W01
 BYTE   W01
 BYTE   W01
 BYTE   W01
 BYTE   W01
 BYTE   W01
 BYTE   W01
 BYTE   W01
 BYTE   W01
 BYTE   W01
 BYTE   W01
 BYTE   W01
 BYTE   W01
 BYTE   W01
 BYTE   W01
 BYTE   W01
 BYTE   W01
 BYTE   W01
 BYTE   W01
 BYTE   W01
 BYTE   W01
 BYTE   W01
// 059   ----------------------------------------
 BYTE   W01
 BYTE   W01
 BYTE   W01
 BYTE   W01
 BYTE   W01
 BYTE   W01
 BYTE   W01
 BYTE   W01
 BYTE   W01
 BYTE   W01
 BYTE   W01
 BYTE   W01
 BYTE   EOT
 BYTE   Fn3  v069
 BYTE   W84
// 060   ----------------------------------------
 BYTE   W12
 BYTE   GoTo
  POIN2 Label_1_0127C078
 BYTE   FINE

//**************** Track 3 (Midi-Chn.2) ****************//

songAD_003:
// 000   ----------------------------------------
 BYTE   KEYSH   songAD_key+0
 BYTE   VOICE   52
 BYTE   VOL   35*songAD_mvl/mxv
 BYTE   PAN   c_v-10
 BYTE   W12
 BYTE   TIE  Dn2  v112
 BYTE   W84
// 001   ----------------------------------------
 BYTE   W96
// 002   ----------------------------------------
 BYTE   W12
 BYTE   EOT
 BYTE   N96  Cs2
 BYTE   W84
// 003   ----------------------------------------
 BYTE   W12
 BYTE   An1
 BYTE   W84
// 004   ----------------------------------------
 BYTE   W12
 BYTE   TIE  Dn2
 BYTE   W84
// 005   ----------------------------------------
 BYTE   W96
// 006   ----------------------------------------
Label_2_0127C31F:
 BYTE   W12
 BYTE   EOT
 BYTE   Dn2
 BYTE   W84
// 007   ----------------------------------------
 BYTE   W96
// 008   ----------------------------------------
 BYTE   W96
// 009   ----------------------------------------
 BYTE   W96
// 010   ----------------------------------------
 BYTE   W96
// 011   ----------------------------------------
 BYTE   W96
// 012   ----------------------------------------
 BYTE   W96
// 013   ----------------------------------------
 BYTE   W96
// 014   ----------------------------------------
 BYTE   W96
// 015   ----------------------------------------
 BYTE   W96
// 016   ----------------------------------------
 BYTE   W96
// 017   ----------------------------------------
 BYTE   W96
// 018   ----------------------------------------
 BYTE   W96
// 019   ----------------------------------------
 BYTE   W96
// 020   ----------------------------------------
 BYTE   W96
// 021   ----------------------------------------
 BYTE   W96
// 022   ----------------------------------------
 BYTE   W96
// 023   ----------------------------------------
 BYTE   W96
// 024   ----------------------------------------
 BYTE   W96
// 025   ----------------------------------------
 BYTE   W96
// 026   ----------------------------------------
 BYTE   W96
// 027   ----------------------------------------
 BYTE   W96
// 028   ----------------------------------------
 BYTE   W96
// 029   ----------------------------------------
 BYTE   W96
// 030   ----------------------------------------
 BYTE   W96
// 031   ----------------------------------------
 BYTE   W96
// 032   ----------------------------------------
 BYTE   W96
// 033   ----------------------------------------
 BYTE   W96
// 034   ----------------------------------------
 BYTE   W96
// 035   ----------------------------------------
 BYTE   W96
// 036   ----------------------------------------
 BYTE   W96
// 037   ----------------------------------------
 BYTE   W96
// 038   ----------------------------------------
 BYTE   W96
// 039   ----------------------------------------
 BYTE   W96
// 040   ----------------------------------------
 BYTE   W96
// 041   ----------------------------------------
 BYTE   W96
// 042   ----------------------------------------
 BYTE   W12
 BYTE   TIE  Cs2  v120
 BYTE   W84
// 043   ----------------------------------------
 BYTE   W96
// 044   ----------------------------------------
 BYTE   W96
// 045   ----------------------------------------
 BYTE   W96
// 046   ----------------------------------------
 BYTE   W12
 BYTE   EOT
 BYTE   TIE
 BYTE   W84
// 047   ----------------------------------------
 BYTE   W96
// 048   ----------------------------------------
 BYTE   W96
// 049   ----------------------------------------
 BYTE   W96
// 050   ----------------------------------------
 BYTE   W12
 BYTE   EOT
 BYTE   TIE  Fn2
 BYTE   W84
// 051   ----------------------------------------
 BYTE   W96
// 052   ----------------------------------------
 BYTE   W12
 BYTE   EOT
 BYTE   TIE  En1
 BYTE   W84
// 053   ----------------------------------------
 BYTE   W96
// 054   ----------------------------------------
 BYTE   W96
// 055   ----------------------------------------
 BYTE   W96
// 056   ----------------------------------------
 BYTE   W12
 BYTE   EOT
 BYTE   TIE  Dn2  v112
 BYTE   W84
// 057   ----------------------------------------
 BYTE   W96
// 058   ----------------------------------------
 BYTE   W12
 BYTE   EOT
 BYTE   W84
// 059   ----------------------------------------
 BYTE   W96
// 060   ----------------------------------------
 BYTE   W12
 BYTE   GoTo
  POIN2 Label_2_0127C31F
 BYTE   FINE

//**************** Track 4 (Midi-Chn.3) ****************//

songAD_004:
// 000   ----------------------------------------
 BYTE   KEYSH   songAD_key+0
 BYTE   VOICE   48
 BYTE   VOL   29*songAD_mvl/mxv
 BYTE   PAN   c_v-14
 BYTE   W96
// 001   ----------------------------------------
 BYTE   W96
// 002   ----------------------------------------
 BYTE   W96
// 003   ----------------------------------------
 BYTE   W96
// 004   ----------------------------------------
 BYTE   W96
// 005   ----------------------------------------
 BYTE   W96
// 006   ----------------------------------------
Label_3_0127C386:
 BYTE   W96
// 007   ----------------------------------------
 BYTE   W96
// 008   ----------------------------------------
 BYTE   W96
// 009   ----------------------------------------
 BYTE   W96
// 010   ----------------------------------------
 BYTE   W96
// 011   ----------------------------------------
 BYTE   W96
// 012   ----------------------------------------
 BYTE   W96
// 013   ----------------------------------------
 BYTE   W96
// 014   ----------------------------------------
 BYTE   W96
// 015   ----------------------------------------
 BYTE   W96
// 016   ----------------------------------------
 BYTE   W96
// 017   ----------------------------------------
 BYTE   W96
// 018   ----------------------------------------
 BYTE   W96
// 019   ----------------------------------------
 BYTE   W96
// 020   ----------------------------------------
 BYTE   W12
 BYTE   N06  Ds3  v127
 BYTE   N06  Gn3
 BYTE   W24
 BYTE   Ds3  v108
 BYTE   N06  Gn3
 BYTE   W12
 BYTE   Ds3  v127
 BYTE   N06  Gn3
 BYTE   W24
 BYTE   Ds3  v108
 BYTE   N06  Gn3
 BYTE   W12
 BYTE   Ds3  v116
 BYTE   N06  Gn3
 BYTE   W12
// 021   ----------------------------------------
Label_3_0127C3AF:
 BYTE   N06  Ds3  v108
 BYTE   N06  Gn3
 BYTE   W12
 BYTE   Ds3  v127
 BYTE   N06  Gn3
 BYTE   W12
 BYTE   Ds3  v108
 BYTE   N06  Gn3
 BYTE   W12
 BYTE   Ds3
 BYTE   N06  Gn3
 BYTE   W12
 BYTE   Ds3  v127
 BYTE   N06  Gn3
 BYTE   W24
 BYTE   Ds3  v108
 BYTE   N06  Gn3
 BYTE   W12
 BYTE   Ds3  v116
 BYTE   N06  Gn3
 BYTE   W12
 BYTE   PEND 
// 022   ----------------------------------------
Label_3_0127C3D3:
 BYTE   N06  Ds3  v116
 BYTE   N06  Gn3
 BYTE   W12
 BYTE   Dn3  v127
 BYTE   N06  Gn3
 BYTE   W24
 BYTE   Dn3  v108
 BYTE   N06  Gn3
 BYTE   W12
 BYTE   Dn3  v127
 BYTE   N06  Gn3
 BYTE   W24
 BYTE   Dn3  v108
 BYTE   N06  Gn3
 BYTE   W12
 BYTE   Dn3  v116
 BYTE   N06  Gn3
 BYTE   W12
 BYTE   PEND 
// 023   ----------------------------------------
Label_3_0127C3F3:
 BYTE   N06  Dn3  v108
 BYTE   N06  Gn3
 BYTE   W12
 BYTE   Dn3  v127
 BYTE   N06  Gn3
 BYTE   W12
 BYTE   Dn3  v108
 BYTE   N06  Gn3
 BYTE   W12
 BYTE   Dn3
 BYTE   N06  Gn3
 BYTE   W12
 BYTE   Dn3  v127
 BYTE   N06  Gn3
 BYTE   W24
 BYTE   Dn3  v108
 BYTE   N06  Gn3
 BYTE   W12
 BYTE   Dn3  v116
 BYTE   N06  Gn3
 BYTE   W12
 BYTE   PEND 
// 024   ----------------------------------------
 BYTE   Dn3
 BYTE   N06  Gn3
 BYTE   W12
 BYTE   Ds3  v127
 BYTE   N06  Gn3
 BYTE   W24
 BYTE   Ds3  v108
 BYTE   N06  Gn3
 BYTE   W12
 BYTE   Ds3  v127
 BYTE   N06  Gn3
 BYTE   W24
 BYTE   Ds3  v108
 BYTE   N06  Gn3
 BYTE   W12
 BYTE   Ds3  v116
 BYTE   N06  Gn3
 BYTE   W12
// 025   ----------------------------------------
 BYTE   PATT
  POIN2 Label_3_0127C3AF
// 026   ----------------------------------------
 BYTE   PATT
  POIN2 Label_3_0127C3D3
// 027   ----------------------------------------
 BYTE   PATT
  POIN2 Label_3_0127C3F3
// 028   ----------------------------------------
 BYTE   N06  Dn3  v116
 BYTE   N06  Gn3
 BYTE   W12
 BYTE   Fn3  v127
 BYTE   N06  An3
 BYTE   W24
 BYTE   Fn3  v108
 BYTE   N06  An3
 BYTE   W12
 BYTE   Fn3  v127
 BYTE   N06  An3
 BYTE   W24
 BYTE   Fn3  v108
 BYTE   N06  An3
 BYTE   W12
 BYTE   Fn3  v116
 BYTE   N06  An3
 BYTE   W12
// 029   ----------------------------------------
Label_3_0127C462:
 BYTE   N06  Fn3  v108
 BYTE   N06  An3
 BYTE   W12
 BYTE   Gn3  v127
 BYTE   N06  As3
 BYTE   W12
 BYTE   Gn3  v108
 BYTE   N06  As3
 BYTE   W12
 BYTE   Gn3
 BYTE   N06  As3
 BYTE   W12
 BYTE   Gn3  v127
 BYTE   N06  As3
 BYTE   W24
 BYTE   Gn3  v108
 BYTE   N06  As3
 BYTE   W12
 BYTE   Gn3  v116
 BYTE   N06  As3
 BYTE   W12
 BYTE   PEND 
// 030   ----------------------------------------
Label_3_0127C486:
 BYTE   N06  Gn3  v116
 BYTE   N06  As3
 BYTE   W12
 BYTE   Fn3  v127
 BYTE   N06  An3
 BYTE   W24
 BYTE   Fn3  v108
 BYTE   N06  An3
 BYTE   W12
 BYTE   Fn3  v127
 BYTE   N06  An3
 BYTE   W24
 BYTE   Fn3  v108
 BYTE   N06  An3
 BYTE   W12
 BYTE   Fn3  v116
 BYTE   N06  An3
 BYTE   W12
 BYTE   PEND 
// 031   ----------------------------------------
 BYTE   PATT
  POIN2 Label_3_0127C462
// 032   ----------------------------------------
 BYTE   PATT
  POIN2 Label_3_0127C486
// 033   ----------------------------------------
 BYTE   PATT
  POIN2 Label_3_0127C462
// 034   ----------------------------------------
 BYTE   PATT
  POIN2 Label_3_0127C486
// 035   ----------------------------------------
 BYTE   PATT
  POIN2 Label_3_0127C462
// 036   ----------------------------------------
 BYTE   N06  Gn3  v116
 BYTE   N06  As3
 BYTE   W96
// 037   ----------------------------------------
 BYTE   W96
// 038   ----------------------------------------
 BYTE   W96
// 039   ----------------------------------------
 BYTE   W96
// 040   ----------------------------------------
 BYTE   W96
// 041   ----------------------------------------
 BYTE   W96
// 042   ----------------------------------------
 BYTE   W96
// 043   ----------------------------------------
 BYTE   W96
// 044   ----------------------------------------
 BYTE   W96
// 045   ----------------------------------------
 BYTE   W96
// 046   ----------------------------------------
 BYTE   W96
// 047   ----------------------------------------
 BYTE   W96
// 048   ----------------------------------------
 BYTE   W96
// 049   ----------------------------------------
 BYTE   W96
// 050   ----------------------------------------
 BYTE   W96
// 051   ----------------------------------------
 BYTE   W96
// 052   ----------------------------------------
 BYTE   W96
// 053   ----------------------------------------
 BYTE   W96
// 054   ----------------------------------------
 BYTE   W96
// 055   ----------------------------------------
 BYTE   W96
// 056   ----------------------------------------
 BYTE   W96
// 057   ----------------------------------------
 BYTE   W96
// 058   ----------------------------------------
 BYTE   W96
// 059   ----------------------------------------
 BYTE   W96
// 060   ----------------------------------------
 BYTE   W12
 BYTE   GoTo
  POIN2 Label_3_0127C386
 BYTE   FINE

//**************** Track 5 (Midi-Chn.4) ****************//

songAD_005:
// 000   ----------------------------------------
 BYTE   KEYSH   songAD_key+0
 BYTE   VOICE   60
 BYTE   VOL   41*songAD_mvl/mxv
 BYTE   PAN   c_v+0
 BYTE   W96
// 001   ----------------------------------------
 BYTE   W96
// 002   ----------------------------------------
 BYTE   W96
// 003   ----------------------------------------
 BYTE   W96
// 004   ----------------------------------------
 BYTE   W96
// 005   ----------------------------------------
 BYTE   W96
// 006   ----------------------------------------
Label_4_0127C4F2:
 BYTE   W96
// 007   ----------------------------------------
 BYTE   W96
// 008   ----------------------------------------
 BYTE   W96
// 009   ----------------------------------------
 BYTE   W96
// 010   ----------------------------------------
 BYTE   W96
// 011   ----------------------------------------
 BYTE   W96
// 012   ----------------------------------------
 BYTE   W96
// 013   ----------------------------------------
 BYTE   W96
// 014   ----------------------------------------
 BYTE   W96
// 015   ----------------------------------------
 BYTE   W96
// 016   ----------------------------------------
 BYTE   W96
// 017   ----------------------------------------
 BYTE   W96
// 018   ----------------------------------------
 BYTE   W96
// 019   ----------------------------------------
 BYTE   W96
// 020   ----------------------------------------
Label_4_0127C500:
 BYTE   W60
 BYTE   N48  Ds2  v108
 BYTE   N48  Gs2  v120
 BYTE   W36
 BYTE   PEND 
// 021   ----------------------------------------
Label_4_0127C509:
 BYTE   W12
 BYTE   N48  Gs2  v112
 BYTE   N48  Ds3  v120
 BYTE   W48
 BYTE   Cn3  v116
 BYTE   N48  Gs3  v120
 BYTE   W36
 BYTE   PEND 
// 022   ----------------------------------------
Label_4_0127C518:
 BYTE   W12
 BYTE   N96  As2  v116
 BYTE   N96  Gn3  v120
 BYTE   W84
 BYTE   PEND 
// 023   ----------------------------------------
Label_4_0127C521:
 BYTE   W12
 BYTE   N48  Gn2  v112
 BYTE   N48  Dn3  v120
 BYTE   W48
 BYTE   As2  v108
 BYTE   N48  Gn3  v120
 BYTE   W36
 BYTE   PEND 
// 024   ----------------------------------------
 BYTE   PATT
  POIN2 Label_4_0127C500
// 025   ----------------------------------------
 BYTE   PATT
  POIN2 Label_4_0127C509
// 026   ----------------------------------------
 BYTE   PATT
  POIN2 Label_4_0127C518
// 027   ----------------------------------------
 BYTE   PATT
  POIN2 Label_4_0127C521
// 028   ----------------------------------------
 BYTE   W96
// 029   ----------------------------------------
 BYTE   W96
// 030   ----------------------------------------
 BYTE   W96
// 031   ----------------------------------------
 BYTE   W96
// 032   ----------------------------------------
 BYTE   W96
// 033   ----------------------------------------
 BYTE   W96
// 034   ----------------------------------------
 BYTE   W96
// 035   ----------------------------------------
 BYTE   W96
// 036   ----------------------------------------
 BYTE   W96
// 037   ----------------------------------------
 BYTE   W96
// 038   ----------------------------------------
 BYTE   W36
 BYTE   N24  Dn2  v124
 BYTE   W24
 BYTE   An2
 BYTE   W24
 BYTE   As2
 BYTE   W12
// 039   ----------------------------------------
 BYTE   W12
 BYTE   N96  Gn2
 BYTE   W84
// 040   ----------------------------------------
 BYTE   W36
 BYTE   N24  Fs2  v120
 BYTE   W24
 BYTE   Cs3
 BYTE   W24
 BYTE   As2
 BYTE   W12
// 041   ----------------------------------------
 BYTE   W12
 BYTE   N96  Bn2
 BYTE   W84
// 042   ----------------------------------------
 BYTE   W96
// 043   ----------------------------------------
 BYTE   W96
// 044   ----------------------------------------
 BYTE   W96
// 045   ----------------------------------------
 BYTE   W96
// 046   ----------------------------------------
 BYTE   W96
// 047   ----------------------------------------
 BYTE   W96
// 048   ----------------------------------------
 BYTE   W96
// 049   ----------------------------------------
 BYTE   W96
// 050   ----------------------------------------
 BYTE   W96
// 051   ----------------------------------------
 BYTE   W96
// 052   ----------------------------------------
 BYTE   W96
// 053   ----------------------------------------
 BYTE   W96
// 054   ----------------------------------------
 BYTE   W96
// 055   ----------------------------------------
 BYTE   W96
// 056   ----------------------------------------
 BYTE   W96
// 057   ----------------------------------------
 BYTE   W96
// 058   ----------------------------------------
 BYTE   W96
// 059   ----------------------------------------
 BYTE   W96
// 060   ----------------------------------------
 BYTE   W12
 BYTE   GoTo
  POIN2 Label_4_0127C4F2
 BYTE   FINE

//**************** Track 6 (Midi-Chn.5) ****************//

songAD_006:
// 000   ----------------------------------------
 BYTE   KEYSH   songAD_key+0
 BYTE   VOICE   52
 BYTE   VOL   25*songAD_mvl/mxv
 BYTE   PAN   c_v+10
 BYTE   W12
 BYTE   TIE  Dn3  v127
 BYTE   TIE  An3
 BYTE   W84
// 001   ----------------------------------------
 BYTE   W96
// 002   ----------------------------------------
 BYTE   W12
 BYTE   EOT
 BYTE   Dn3  v069
 BYTE   TIE  Cs3
 BYTE   TIE  An3
 BYTE   W84
// 003   ----------------------------------------
 BYTE   W96
// 004   ----------------------------------------
 BYTE   W12
 BYTE   EOT
 BYTE   Cs3  v069
 BYTE   TIE  Dn3
 BYTE   TIE  An3
 BYTE   W84
// 005   ----------------------------------------
Label_5_0127C5A7:
 BYTE   W12
 BYTE   W01
 BYTE   W01
 BYTE   W02
 BYTE   W01
 BYTE   W01
 BYTE   W02
 BYTE   W01
 BYTE   W01
 BYTE   W01
 BYTE   W02
 BYTE   W01
 BYTE   W01
 BYTE   W02
 BYTE   W01
 BYTE   W01
 BYTE   W03
 BYTE   W01
 BYTE   W01
 BYTE   W02
 BYTE   W01
 BYTE   W01
 BYTE   W02
 BYTE   W01
 BYTE   W01
 BYTE   W02
 BYTE   W01
 BYTE   W01
 BYTE   W02
 BYTE   W01
 BYTE   W01
 BYTE   W03
 BYTE   W01
 BYTE   W01
 BYTE   W02
 BYTE   W01
 BYTE   W02
 BYTE   W01
 BYTE   W01
 BYTE   W01
 BYTE   W02
 BYTE   W01
 BYTE   W01
 BYTE   W02
 BYTE   W01
 BYTE   W01
 BYTE   W03
 BYTE   W01
 BYTE   W01
 BYTE   W02
 BYTE   W01
 BYTE   W01
 BYTE   W02
 BYTE   W01
 BYTE   W01
 BYTE   W01
 BYTE   W02
 BYTE   W01
 BYTE   W01
 BYTE   W02
 BYTE   W01
 BYTE   W01
 BYTE   W01
 BYTE   PEND 
// 006   ----------------------------------------
Label_5_0127C5E7:
 BYTE   W02
 BYTE   W01
 BYTE   W01
 BYTE   W02
 BYTE   W01
 BYTE   W01
 BYTE   W02
 BYTE   W01
 BYTE   W01
 BYTE   PEND 
 BYTE   EOT
 BYTE   Dn3  v069
 BYTE   W84
// 007   ----------------------------------------
 BYTE   W12
 BYTE   W84
// 008   ----------------------------------------
 BYTE   W96
// 009   ----------------------------------------
 BYTE   W96
// 010   ----------------------------------------
 BYTE   W96
// 011   ----------------------------------------
 BYTE   W96
// 012   ----------------------------------------
 BYTE   W96
// 013   ----------------------------------------
 BYTE   W96
// 014   ----------------------------------------
 BYTE   W96
// 015   ----------------------------------------
 BYTE   W96
// 016   ----------------------------------------
 BYTE   W96
// 017   ----------------------------------------
 BYTE   W96
// 018   ----------------------------------------
 BYTE   W96
// 019   ----------------------------------------
 BYTE   W96
// 020   ----------------------------------------
 BYTE   W12
 BYTE   TIE  Cn3  v120
 BYTE   TIE  Gs3
 BYTE   W84
// 021   ----------------------------------------
 BYTE   W96
// 022   ----------------------------------------
 BYTE   W12
 BYTE   EOT
 BYTE   Cn3  v068
 BYTE   TIE  As2
 BYTE   TIE  Gn3
 BYTE   W84
// 023   ----------------------------------------
 BYTE   W96
// 024   ----------------------------------------
 BYTE   W12
 BYTE   EOT
 BYTE   As2  v067
 BYTE   TIE  Cn3
 BYTE   TIE  Gs3
 BYTE   W84
// 025   ----------------------------------------
 BYTE   W96
// 026   ----------------------------------------
 BYTE   W12
 BYTE   EOT
 BYTE   Cn3  v068
 BYTE   TIE  As2
 BYTE   TIE  Gn3
 BYTE   W84
// 027   ----------------------------------------
 BYTE   W96
// 028   ----------------------------------------
 BYTE   W12
 BYTE   EOT
 BYTE   As2  v067
 BYTE   W84
// 029   ----------------------------------------
 BYTE   W96
// 030   ----------------------------------------
 BYTE   W96
// 031   ----------------------------------------
 BYTE   W96
// 032   ----------------------------------------
 BYTE   W96
// 033   ----------------------------------------
 BYTE   W96
// 034   ----------------------------------------
 BYTE   W96
// 035   ----------------------------------------
 BYTE   W96
// 036   ----------------------------------------
 BYTE   W12
 BYTE   N96  Dn3  v127
 BYTE   N96  An3
 BYTE   W84
// 037   ----------------------------------------
 BYTE   W12
 BYTE   En3
 BYTE   N96  As3
 BYTE   W84
// 038   ----------------------------------------
 BYTE   W12
 BYTE   An3
 BYTE   N96  Cn4
 BYTE   W84
// 039   ----------------------------------------
 BYTE   W12
 BYTE   As3
 BYTE   N96  Dn4
 BYTE   W84
// 040   ----------------------------------------
 BYTE   W12
 BYTE   As3
 BYTE   N96  En4
 BYTE   W84
// 041   ----------------------------------------
 BYTE   W12
 BYTE   Bn3
 BYTE   N96  Fs4
 BYTE   W84
// 042   ----------------------------------------
 BYTE   W12
 BYTE   TIE  As3  v120
 BYTE   TIE  Fs4
 BYTE   W84
// 043   ----------------------------------------
 BYTE   W96
// 044   ----------------------------------------
 BYTE   W96
// 045   ----------------------------------------
 BYTE   W96
// 046   ----------------------------------------
 BYTE   W12
 BYTE   EOT
 BYTE   As3  v078
 BYTE   TIE  As3
 BYTE   TIE  Fs4
 BYTE   W84
// 047   ----------------------------------------
 BYTE   W96
// 048   ----------------------------------------
 BYTE   W96
// 049   ----------------------------------------
 BYTE   W96
// 050   ----------------------------------------
 BYTE   W12
 BYTE   EOT
 BYTE   As3  v078
 BYTE   TIE  An3
 BYTE   TIE  Fn4
 BYTE   W84
// 051   ----------------------------------------
 BYTE   W96
// 052   ----------------------------------------
 BYTE   W12
 BYTE   EOT
 BYTE   An3  v077
 BYTE   TIE  Gn3
 BYTE   TIE  Ds4
 BYTE   W84
// 053   ----------------------------------------
 BYTE   W96
// 054   ----------------------------------------
 BYTE   W96
// 055   ----------------------------------------
 BYTE   W96
// 056   ----------------------------------------
 BYTE   W12
 BYTE   EOT
 BYTE   Gn3  v075
 BYTE   TIE  An3  v127
 BYTE   TIE  Dn4
 BYTE   W84
// 057   ----------------------------------------
 BYTE   PATT
  POIN2 Label_5_0127C5A7
// 058   ----------------------------------------
 BYTE   PATT
  POIN2 Label_5_0127C5E7
// 059   ----------------------------------------
 BYTE   EOT
 BYTE   An3  v074
 BYTE   W84
 BYTE   W12
// 060   ----------------------------------------
 BYTE   W84
 BYTE   W12
// 061   ----------------------------------------
 BYTE   GoTo
  POIN2 Label_5_0127C5E7
 BYTE   FINE

//**************** Track 7 (Midi-Chn.6) ****************//

songAD_007:
// 000   ----------------------------------------
 BYTE   KEYSH   songAD_key+0
 BYTE   VOICE   47
 BYTE   VOL   38*songAD_mvl/mxv
 BYTE   PAN   c_v+0
 BYTE   N04  Dn1  v100
 BYTE   W04
 BYTE   Dn1  v112
 BYTE   W04
 BYTE   Dn1  v120
 BYTE   W04
 BYTE   N12  Dn1  v127
 BYTE   W84
// 001   ----------------------------------------
 BYTE   W96
// 002   ----------------------------------------
 BYTE   W96
// 003   ----------------------------------------
 BYTE   W96
// 004   ----------------------------------------
 BYTE   N04  Dn1  v100
 BYTE   W04
 BYTE   Dn1  v112
 BYTE   W04
 BYTE   Dn1  v120
 BYTE   W04
 BYTE   N12  Dn1  v127
 BYTE   W36
 BYTE   N24  Dn1  v100
 BYTE   W48
// 005   ----------------------------------------
Label_6_0127C6CF:
 BYTE   W12
 BYTE   N12  Dn1  v112
 BYTE   W12
 BYTE   Dn1  v100
 BYTE   W24
 BYTE   N24  Dn1  v108
 BYTE   W48
 BYTE   PEND 
// 006   ----------------------------------------
Label_6_0127C6DC:
 BYTE   N06  Dn1  v092
 BYTE   W06
 BYTE   Dn1  v100
 BYTE   W06
 BYTE   N12  Dn1  v120
 BYTE   W36
 BYTE   N24  Dn1  v100
 BYTE   W48
 BYTE   PEND 
// 007   ----------------------------------------
 BYTE   PATT
  POIN2 Label_6_0127C6CF
// 008   ----------------------------------------
 BYTE   PATT
  POIN2 Label_6_0127C6DC
// 009   ----------------------------------------
 BYTE   PATT
  POIN2 Label_6_0127C6CF
// 010   ----------------------------------------
 BYTE   PATT
  POIN2 Label_6_0127C6DC
// 011   ----------------------------------------
 BYTE   PATT
  POIN2 Label_6_0127C6CF
// 012   ----------------------------------------
 BYTE   PATT
  POIN2 Label_6_0127C6DC
// 013   ----------------------------------------
 BYTE   PATT
  POIN2 Label_6_0127C6CF
// 014   ----------------------------------------
 BYTE   PATT
  POIN2 Label_6_0127C6DC
// 015   ----------------------------------------
 BYTE   PATT
  POIN2 Label_6_0127C6CF
// 016   ----------------------------------------
 BYTE   PATT
  POIN2 Label_6_0127C6DC
// 017   ----------------------------------------
Label_6_0127C71E:
 BYTE   W12
 BYTE   N12  Gn1  v112
 BYTE   W12
 BYTE   Gn1  v100
 BYTE   W24
 BYTE   N24  Gn1  v108
 BYTE   W48
 BYTE   PEND 
// 018   ----------------------------------------
Label_6_0127C72B:
 BYTE   N06  Gn1  v092
 BYTE   W06
 BYTE   Gn1  v100
 BYTE   W06
 BYTE   N12  Dn1  v120
 BYTE   W36
 BYTE   N24  Dn1  v100
 BYTE   W48
 BYTE   PEND 
// 019   ----------------------------------------
Label_6_0127C73B:
 BYTE   W12
 BYTE   N24  Gn1  v120
 BYTE   W24
 BYTE   N12  Dn1  v092
 BYTE   W12
 BYTE   N24  Gn1  v120
 BYTE   W12
 BYTE   N12  Dn1  v092
 BYTE   W24
 BYTE   Gn1  v120
 BYTE   W12
 BYTE   PEND 
// 020   ----------------------------------------
 BYTE   Dn1  v092
 BYTE   W12
 BYTE   Gs1  v120
 BYTE   W36
 BYTE   N24  Gs1  v100
 BYTE   W48
// 021   ----------------------------------------
Label_6_0127C75A:
 BYTE   W12
 BYTE   N12  Gs1  v112
 BYTE   W12
 BYTE   Gs1  v100
 BYTE   W24
 BYTE   N24  Gs1  v108
 BYTE   W48
 BYTE   PEND 
// 022   ----------------------------------------
Label_6_0127C767:
 BYTE   N06  Gs1  v092
 BYTE   W06
 BYTE   Gs1  v100
 BYTE   W06
 BYTE   N12  Gn1  v120
 BYTE   W36
 BYTE   N24  Gn1  v100
 BYTE   W48
 BYTE   PEND 
// 023   ----------------------------------------
 BYTE   PATT
  POIN2 Label_6_0127C71E
// 024   ----------------------------------------
 BYTE   N06  Gn1  v092
 BYTE   W06
 BYTE   Gn1  v100
 BYTE   W06
 BYTE   N12  Gs1  v120
 BYTE   W36
 BYTE   N24  Gs1  v100
 BYTE   W48
// 025   ----------------------------------------
 BYTE   PATT
  POIN2 Label_6_0127C75A
// 026   ----------------------------------------
 BYTE   PATT
  POIN2 Label_6_0127C767
// 027   ----------------------------------------
 BYTE   PATT
  POIN2 Label_6_0127C71E
// 028   ----------------------------------------
 BYTE   PATT
  POIN2 Label_6_0127C72B
// 029   ----------------------------------------
 BYTE   PATT
  POIN2 Label_6_0127C71E
// 030   ----------------------------------------
 BYTE   PATT
  POIN2 Label_6_0127C72B
// 031   ----------------------------------------
 BYTE   PATT
  POIN2 Label_6_0127C73B
// 032   ----------------------------------------
 BYTE   N12  Dn1  v092
 BYTE   W12
 BYTE   Dn1  v120
 BYTE   W36
 BYTE   N24  Dn1  v100
 BYTE   W48
// 033   ----------------------------------------
 BYTE   PATT
  POIN2 Label_6_0127C71E
// 034   ----------------------------------------
 BYTE   PATT
  POIN2 Label_6_0127C72B
// 035   ----------------------------------------
 BYTE   PATT
  POIN2 Label_6_0127C71E
// 036   ----------------------------------------
 BYTE   N06  Gn1  v092
 BYTE   W06
 BYTE   Gn1  v100
 BYTE   W06
 BYTE   N24  Dn1  v127
 BYTE   W84
// 037   ----------------------------------------
 BYTE   W96
// 038   ----------------------------------------
 BYTE   W96
// 039   ----------------------------------------
 BYTE   W96
// 040   ----------------------------------------
 BYTE   W96
// 041   ----------------------------------------
 BYTE   W96
// 042   ----------------------------------------
 BYTE   W12
 BYTE   N12  Fs1
 BYTE   W36
 BYTE   N24  Fs1  v100
 BYTE   W48
// 043   ----------------------------------------
Label_6_0127C7E0:
 BYTE   W12
 BYTE   N12  Fs1  v112
 BYTE   W12
 BYTE   Fs1  v100
 BYTE   W24
 BYTE   N24  Fs1  v108
 BYTE   W48
 BYTE   PEND 
// 044   ----------------------------------------
Label_6_0127C7ED:
 BYTE   N06  Fs1  v092
 BYTE   W06
 BYTE   Fs1  v100
 BYTE   W06
 BYTE   N12  Fs1  v120
 BYTE   W36
 BYTE   N24  Fs1  v100
 BYTE   W48
 BYTE   PEND 
// 045   ----------------------------------------
 BYTE   PATT
  POIN2 Label_6_0127C7E0
// 046   ----------------------------------------
 BYTE   N06  Fs1  v092
 BYTE   W06
 BYTE   Fs1  v100
 BYTE   W06
 BYTE   N12  Fs1  v127
 BYTE   W36
 BYTE   N24  Fs1  v100
 BYTE   W48
// 047   ----------------------------------------
 BYTE   PATT
  POIN2 Label_6_0127C7E0
// 048   ----------------------------------------
 BYTE   PATT
  POIN2 Label_6_0127C7ED
// 049   ----------------------------------------
 BYTE   PATT
  POIN2 Label_6_0127C7E0
// 050   ----------------------------------------
 BYTE   N06  Fs1  v092
 BYTE   W06
 BYTE   Fs1  v100
 BYTE   W06
 BYTE   N12  Fn1  v112
 BYTE   W12
 BYTE   Fn1  v100
 BYTE   W24
 BYTE   N24  Fn1  v108
 BYTE   W48
// 051   ----------------------------------------
 BYTE   N06  Fn1  v092
 BYTE   W06
 BYTE   Fn1  v100
 BYTE   W06
 BYTE   N12  Fn1  v127
 BYTE   W36
 BYTE   N24  Fn1  v100
 BYTE   W48
// 052   ----------------------------------------
Label_6_0127C841:
 BYTE   W12
 BYTE   N12  Ds1  v112
 BYTE   W12
 BYTE   Ds1  v100
 BYTE   W24
 BYTE   N24  Ds1  v108
 BYTE   W48
 BYTE   PEND 
// 053   ----------------------------------------
Label_6_0127C84E:
 BYTE   N06  Ds1  v092
 BYTE   W06
 BYTE   Ds1  v100
 BYTE   W06
 BYTE   N12  Ds1  v127
 BYTE   W36
 BYTE   N24  Ds1  v100
 BYTE   W48
 BYTE   PEND 
// 054   ----------------------------------------
 BYTE   PATT
  POIN2 Label_6_0127C841
// 055   ----------------------------------------
 BYTE   PATT
  POIN2 Label_6_0127C84E
// 056   ----------------------------------------
 BYTE   W12
 BYTE   N12  Dn1  v127
 BYTE   W36
 BYTE   N24  Dn1  v100
 BYTE   W48
// 057   ----------------------------------------
 BYTE   PATT
  POIN2 Label_6_0127C6CF
// 058   ----------------------------------------
 BYTE   PATT
  POIN2 Label_6_0127C6DC
// 059   ----------------------------------------
 BYTE   PATT
  POIN2 Label_6_0127C6CF
// 060   ----------------------------------------
 BYTE   N06  Dn1  v092
 BYTE   W06
 BYTE   Dn1  v100
 BYTE   W06
 BYTE   GoTo
  POIN2 Label_6_0127C6DC
 BYTE   FINE

//**************** Track 8 (Midi-Chn.7) ****************//

songAD_008:
// 000   ----------------------------------------
 BYTE   KEYSH   songAD_key+0
 BYTE   VOICE   1
 BYTE   VOL   29*songAD_mvl/mxv
 BYTE   PAN   c_v+4
 BYTE   W36
 BYTE   N24  An2  v120
 BYTE   N24  Dn3
 BYTE   N24  An3
 BYTE   W24
 BYTE   En3
 BYTE   N24  An3
 BYTE   N24  En4
 BYTE   W24
 BYTE   Dn3
 BYTE   N24  An3
 BYTE   N24  Dn4
 BYTE   W12
// 001   ----------------------------------------
 BYTE   W12
 BYTE   Fn3
 BYTE   N24  An3
 BYTE   N24  Fn4
 BYTE   W24
 BYTE   En3
 BYTE   N24  An3
 BYTE   N24  En4
 BYTE   W24
 BYTE   An3
 BYTE   N24  Dn4
 BYTE   N24  An4
 BYTE   W24
 BYTE   Gn3
 BYTE   N24  Dn4
 BYTE   N24  Gn4
 BYTE   W12
// 002   ----------------------------------------
 BYTE   W12
 BYTE   As3
 BYTE   N24  Cs4
 BYTE   N24  As4
 BYTE   W24
 BYTE   An3
 BYTE   N24  Cs4
 BYTE   N24  An4
 BYTE   W24
 BYTE   As3
 BYTE   N24  Cs4
 BYTE   N24  As4
 BYTE   W24
 BYTE   Gn3
 BYTE   N24  Cs4
 BYTE   N24  Gn4
 BYTE   W12
// 003   ----------------------------------------
 BYTE   W12
 BYTE   N96  En3
 BYTE   N96  Gn3
 BYTE   N96  En4
 BYTE   W84
// 004   ----------------------------------------
 BYTE   W96
// 005   ----------------------------------------
 BYTE   W96
// 006   ----------------------------------------
Label_7_0127C8E9:
 BYTE   W96
// 007   ----------------------------------------
 BYTE   W96
// 008   ----------------------------------------
 BYTE   W96
// 009   ----------------------------------------
 BYTE   W96
// 010   ----------------------------------------
 BYTE   W96
// 011   ----------------------------------------
 BYTE   W96
// 012   ----------------------------------------
 BYTE   W96
// 013   ----------------------------------------
 BYTE   W96
// 014   ----------------------------------------
 BYTE   W96
// 015   ----------------------------------------
 BYTE   W96
// 016   ----------------------------------------
 BYTE   W96
// 017   ----------------------------------------
 BYTE   W96
// 018   ----------------------------------------
 BYTE   W96
// 019   ----------------------------------------
 BYTE   W96
// 020   ----------------------------------------
 BYTE   W12
 BYTE   N36  As3  v127
 BYTE   N36  Dn4
 BYTE   N36  As4
 BYTE   W36
 BYTE   N06  Gs3
 BYTE   N06  Dn4
 BYTE   N06  Gs4
 BYTE   W06
 BYTE   Gn3
 BYTE   N06  Gn4
 BYTE   W06
 BYTE   N48  Gs3
 BYTE   N48  Dn4
 BYTE   N48  Gs4
 BYTE   W36
// 021   ----------------------------------------
 BYTE   W36
 BYTE   N24  Ds3
 BYTE   N24  Gs3
 BYTE   N24  Ds4
 BYTE   W24
 BYTE   Gs3
 BYTE   N24  Ds4
 BYTE   N24  Gs4
 BYTE   W24
 BYTE   As3
 BYTE   N24  Ds4
 BYTE   N24  As4
 BYTE   W12
// 022   ----------------------------------------
 BYTE   W12
 BYTE   N36  Cn4
 BYTE   N36  Gn4
 BYTE   N36  Cn5
 BYTE   W36
 BYTE   N48  Dn4
 BYTE   N48  Gn4
 BYTE   N48  Dn5
 BYTE   W48
// 023   ----------------------------------------
 BYTE   W60
 BYTE   N24  Dn4
 BYTE   N24  Gn4
 BYTE   N24  Dn5
 BYTE   W24
 BYTE   Ds4
 BYTE   N24  Gn4
 BYTE   N24  Ds5
 BYTE   W12
// 024   ----------------------------------------
 BYTE   W12
 BYTE   N36  Fn4
 BYTE   N36  Cn5
 BYTE   N36  Fn5
 BYTE   W36
 BYTE   N06  Ds4
 BYTE   N06  Gs4
 BYTE   N06  Ds5
 BYTE   W06
 BYTE   Dn4
 BYTE   N06  Dn5
 BYTE   W06
 BYTE   N48  Ds4
 BYTE   N48  Gs4
 BYTE   N48  Ds5
 BYTE   W36
// 025   ----------------------------------------
 BYTE   W36
 BYTE   N24  Ds4
 BYTE   N24  Gs4
 BYTE   N24  Ds5
 BYTE   W24
 BYTE   Fn4
 BYTE   N24  Gs4
 BYTE   N24  Fn5
 BYTE   W24
 BYTE   Gn4
 BYTE   N24  Cn5
 BYTE   N24  Gn5
 BYTE   W12
// 026   ----------------------------------------
 BYTE   W12
 BYTE   N36  Dn4
 BYTE   N36  Gn4
 BYTE   N36  Dn5
 BYTE   W36
 BYTE   N48  Gn4
 BYTE   N48  Dn5
 BYTE   N48  Gn5
 BYTE   W48
// 027   ----------------------------------------
 BYTE   W96
// 028   ----------------------------------------
Label_7_0127C981:
 BYTE   W10
 BYTE   N72  Dn3  v120
 BYTE   W02
 BYTE   An3  v112
 BYTE   W03
 BYTE   N68  Dn4  v127
 BYTE   W68
 BYTE   W01
 BYTE   N12  An3  v120
 BYTE   N12  En4  v127
 BYTE   W12
 BYTE   PEND 
// 029   ----------------------------------------
Label_7_0127C996:
 BYTE   N12  Dn4  v120
 BYTE   N12  Fn4  v127
 BYTE   W12
 BYTE   N36  Dn4  v120
 BYTE   N36  Gn4  v127
 BYTE   W36
 BYTE   Dn4  v120
 BYTE   N36  Fn4  v127
 BYTE   W36
 BYTE   N24  As3  v120
 BYTE   N24  En4  v127
 BYTE   W12
 BYTE   PEND 
// 030   ----------------------------------------
 BYTE   W12
 BYTE   N72  An3  v120
 BYTE   N72  Dn4  v127
 BYTE   W72
 BYTE   N12  An3  v120
 BYTE   N12  En4  v127
 BYTE   W12
// 031   ----------------------------------------
 BYTE   Dn4  v120
 BYTE   N12  Fn4  v127
 BYTE   W12
 BYTE   N36  Dn4  v120
 BYTE   N36  Gn4  v127
 BYTE   W36
 BYTE   Dn4  v120
 BYTE   N36  An4  v127
 BYTE   W36
 BYTE   N24  Dn4  v120
 BYTE   N24  Fn4  v127
 BYTE   W12
// 032   ----------------------------------------
 BYTE   PATT
  POIN2 Label_7_0127C981
// 033   ----------------------------------------
 BYTE   PATT
  POIN2 Label_7_0127C996
// 034   ----------------------------------------
 BYTE   W12
 BYTE   N96  An3  v120
 BYTE   N96  Dn4  v127
 BYTE   W84
// 035   ----------------------------------------
 BYTE   W96
// 036   ----------------------------------------
 BYTE   W12
 BYTE   N24  An3  v124
 BYTE   N24  Dn4
 BYTE   N24  An4
 BYTE   W24
 BYTE   Dn3
 BYTE   N24  An3
 BYTE   N24  Dn4
 BYTE   W24
 BYTE   En3
 BYTE   N24  An3
 BYTE   N24  En4
 BYTE   W24
 BYTE   Fn3
 BYTE   N24  An3
 BYTE   N24  Fn4
 BYTE   W12
// 037   ----------------------------------------
 BYTE   W12
 BYTE   En3
 BYTE   N24  An3
 BYTE   N24  En4
 BYTE   W24
 BYTE   Cs3
 BYTE   N24  An3
 BYTE   N24  Cs4
 BYTE   W24
 BYTE   An3
 BYTE   N24  Cs4
 BYTE   N24  An4
 BYTE   W24
 BYTE   Gn3
 BYTE   N24  Gn4
 BYTE   W12
// 038   ----------------------------------------
 BYTE   W12
 BYTE   Fs3
 BYTE   N24  An3
 BYTE   N24  Fs4
 BYTE   W24
 BYTE   An3
 BYTE   N24  Cn4
 BYTE   N24  An4
 BYTE   W24
 BYTE   Dn4
 BYTE   N24  Fs4
 BYTE   N24  Dn5
 BYTE   W24
 BYTE   Ds4
 BYTE   N24  Fs4
 BYTE   N24  Ds5
 BYTE   W12
// 039   ----------------------------------------
 BYTE   W12
 BYTE   Dn4
 BYTE   N24  Gn4
 BYTE   N24  Dn5
 BYTE   W24
 BYTE   Cn4
 BYTE   N24  Gn4
 BYTE   N24  Cn5
 BYTE   W24
 BYTE   As3
 BYTE   N24  Dn4
 BYTE   N24  As4
 BYTE   W24
 BYTE   Gn3
 BYTE   N24  Gn4
 BYTE   W12
// 040   ----------------------------------------
 BYTE   W12
 BYTE   Cs4
 BYTE   N24  Fs4
 BYTE   N24  Cs5
 BYTE   W24
 BYTE   As3
 BYTE   N24  Fs4
 BYTE   N24  As4
 BYTE   W24
 BYTE   Cs4
 BYTE   N24  Fs4
 BYTE   N24  Cs5
 BYTE   W24
 BYTE   Gn4
 BYTE   N24  As4
 BYTE   N24  Gn5
 BYTE   W12
// 041   ----------------------------------------
 BYTE   W12
 BYTE   Fs4
 BYTE   N24  Bn4
 BYTE   N24  Fs5
 BYTE   W24
 BYTE   En4
 BYTE   N24  Bn4
 BYTE   N24  En5
 BYTE   W24
 BYTE   Dn4
 BYTE   N24  Fs4
 BYTE   N24  Dn5
 BYTE   W24
 BYTE   Bn3
 BYTE   N24  Bn4
 BYTE   W12
// 042   ----------------------------------------
 BYTE   W96
// 043   ----------------------------------------
 BYTE   W96
// 044   ----------------------------------------
 BYTE   W96
// 045   ----------------------------------------
 BYTE   W96
// 046   ----------------------------------------
 BYTE   W96
// 047   ----------------------------------------
 BYTE   W60
 BYTE   N48  Gn3  v112
 BYTE   N48  Bn3  v120
 BYTE   W36
// 048   ----------------------------------------
 BYTE   W12
 BYTE   TIE  Fs3  v112
 BYTE   TIE  As3  v120
 BYTE   W84
// 049   ----------------------------------------
 BYTE   W60
 BYTE   EOT
 BYTE   Fs3  v070
 BYTE   W36
// 050   ----------------------------------------
 BYTE   W96
// 051   ----------------------------------------
 BYTE   W96
// 052   ----------------------------------------
 BYTE   W96
// 053   ----------------------------------------
 BYTE   W96
// 054   ----------------------------------------
 BYTE   W96
// 055   ----------------------------------------
 BYTE   W96
// 056   ----------------------------------------
 BYTE   W96
// 057   ----------------------------------------
 BYTE   W96
// 058   ----------------------------------------
 BYTE   W96
// 059   ----------------------------------------
 BYTE   W96
// 060   ----------------------------------------
 BYTE   W12
 BYTE   GoTo
  POIN2 Label_7_0127C8E9
 BYTE   FINE

//**************** Track 9 (Midi-Chn.8) ****************//

songAD_009:
// 000   ----------------------------------------
 BYTE   KEYSH   songAD_key+0
 BYTE   VOICE   1
 BYTE   VOL   29*songAD_mvl/mxv
 BYTE   PAN   c_v-4
 BYTE   W12
 BYTE   TIE  Dn1  v120
 BYTE   TIE  Dn2
 BYTE   W84
// 001   ----------------------------------------
 BYTE   W96
// 002   ----------------------------------------
 BYTE   W12
 BYTE   EOT
 BYTE   Dn1  v050
 BYTE   N96  Cs1
 BYTE   N96  Cs2
 BYTE   W84
// 003   ----------------------------------------
 BYTE   W12
 BYTE   An0
 BYTE   N96  An1
 BYTE   W84
// 004   ----------------------------------------
 BYTE   W96
// 005   ----------------------------------------
 BYTE   W96
// 006   ----------------------------------------
Label_8_0127CACC:
 BYTE   W96
// 007   ----------------------------------------
 BYTE   W96
// 008   ----------------------------------------
 BYTE   W96
// 009   ----------------------------------------
 BYTE   W96
// 010   ----------------------------------------
 BYTE   W96
// 011   ----------------------------------------
 BYTE   W96
// 012   ----------------------------------------
 BYTE   W96
// 013   ----------------------------------------
 BYTE   W96
// 014   ----------------------------------------
 BYTE   W96
// 015   ----------------------------------------
 BYTE   W96
// 016   ----------------------------------------
 BYTE   W96
// 017   ----------------------------------------
 BYTE   W96
// 018   ----------------------------------------
 BYTE   W96
// 019   ----------------------------------------
 BYTE   W96
// 020   ----------------------------------------
 BYTE   W96
// 021   ----------------------------------------
 BYTE   W96
// 022   ----------------------------------------
 BYTE   W96
// 023   ----------------------------------------
 BYTE   W96
// 024   ----------------------------------------
 BYTE   W96
// 025   ----------------------------------------
 BYTE   W96
// 026   ----------------------------------------
 BYTE   W96
// 027   ----------------------------------------
 BYTE   W96
// 028   ----------------------------------------
 BYTE   W96
// 029   ----------------------------------------
 BYTE   W96
// 030   ----------------------------------------
 BYTE   W96
// 031   ----------------------------------------
 BYTE   W96
// 032   ----------------------------------------
 BYTE   W96
// 033   ----------------------------------------
 BYTE   W96
// 034   ----------------------------------------
 BYTE   W96
// 035   ----------------------------------------
 BYTE   W96
// 036   ----------------------------------------
 BYTE   W12
 BYTE   N96  Dn0  v127
 BYTE   N96  Dn1
 BYTE   W84
// 037   ----------------------------------------
 BYTE   W12
 BYTE   Cs0
 BYTE   N96  Cs1
 BYTE   W84
// 038   ----------------------------------------
 BYTE   W12
 BYTE   Cn1
 BYTE   N96  Cn2
 BYTE   W84
// 039   ----------------------------------------
 BYTE   W12
 BYTE   As0
 BYTE   N96  As1
 BYTE   W84
// 040   ----------------------------------------
 BYTE   W12
 BYTE   En1
 BYTE   N96  En2
 BYTE   W84
// 041   ----------------------------------------
 BYTE   W12
 BYTE   Dn1
 BYTE   N96  Dn2
 BYTE   W84
// 042   ----------------------------------------
 BYTE   W96
// 043   ----------------------------------------
 BYTE   W96
// 044   ----------------------------------------
 BYTE   W96
// 045   ----------------------------------------
 BYTE   W96
// 046   ----------------------------------------
 BYTE   W96
// 047   ----------------------------------------
 BYTE   W96
// 048   ----------------------------------------
 BYTE   W96
// 049   ----------------------------------------
 BYTE   W96
// 050   ----------------------------------------
 BYTE   W96
// 051   ----------------------------------------
 BYTE   W96
// 052   ----------------------------------------
 BYTE   W96
// 053   ----------------------------------------
 BYTE   W96
// 054   ----------------------------------------
 BYTE   W96
// 055   ----------------------------------------
 BYTE   W96
// 056   ----------------------------------------
 BYTE   W96
// 057   ----------------------------------------
 BYTE   W96
// 058   ----------------------------------------
 BYTE   W96
// 059   ----------------------------------------
 BYTE   W96
// 060   ----------------------------------------
 BYTE   W12
 BYTE   GoTo
  POIN2 Label_8_0127CACC
 BYTE   FINE

//**************** Track 10 (Midi-Chn.9) ****************//

songAD_010:
// 000   ----------------------------------------
 BYTE   KEYSH   songAD_key+0
 BYTE   VOICE   127
 BYTE   VOL   32*songAD_mvl/mxv
 BYTE   PAN   c_v+0
 BYTE   W12
 BYTE   N96  Cs2  v112
 BYTE   N24  An2
 BYTE   W84
// 001   ----------------------------------------
 BYTE   W96
// 002   ----------------------------------------
 BYTE   W96
// 003   ----------------------------------------
 BYTE   W96
// 004   ----------------------------------------
 BYTE   W12
 BYTE   N12  Dn1  v092
 BYTE   W12
 BYTE   N06  Dn1  v072
 BYTE   W06
 BYTE   Dn1  v080
 BYTE   W06
 BYTE   N12  Dn1  v092
 BYTE   W12
 BYTE   N06  Dn1  v072
 BYTE   W06
 BYTE   Dn1  v080
 BYTE   W06
 BYTE   N12  Dn1  v092
 BYTE   W12
 BYTE   N06  Dn1  v072
 BYTE   W06
 BYTE   Dn1  v080
 BYTE   W06
 BYTE   Dn1  v092
 BYTE   W06
 BYTE   Dn1  v072
 BYTE   W06
// 005   ----------------------------------------
Label_9_0127CB5E:
 BYTE   N12  Dn1  v080
 BYTE   W12
 BYTE   Dn1  v092
 BYTE   W12
 BYTE   N06  Dn1  v072
 BYTE   W06
 BYTE   Dn1  v080
 BYTE   W06
 BYTE   N12  Dn1  v092
 BYTE   W12
 BYTE   N06  Dn1  v072
 BYTE   W06
 BYTE   Dn1  v080
 BYTE   W06
 BYTE   N12  Dn1  v092
 BYTE   W12
 BYTE   N06  Dn1  v072
 BYTE   W06
 BYTE   Dn1  v080
 BYTE   W06
 BYTE   Dn1  v092
 BYTE   W06
 BYTE   N03  Dn1  v072
 BYTE   W03
 BYTE   Dn1  v060
 BYTE   W03
 BYTE   PEND 
// 006   ----------------------------------------
Label_9_0127CB8D:
 BYTE   N06  Dn1  v072
 BYTE   W06
 BYTE   Dn1  v080
 BYTE   W06
 BYTE   N12  Dn1  v092
 BYTE   W12
 BYTE   N06  Dn1  v072
 BYTE   W06
 BYTE   Dn1  v080
 BYTE   W06
 BYTE   N12  Dn1  v092
 BYTE   W12
 BYTE   N06  Dn1  v072
 BYTE   W06
 BYTE   Dn1  v080
 BYTE   W06
 BYTE   N12  Dn1  v092
 BYTE   W12
 BYTE   N06  Dn1  v072
 BYTE   W06
 BYTE   Dn1  v080
 BYTE   W06
 BYTE   Dn1  v092
 BYTE   W06
 BYTE   Dn1  v072
 BYTE   W06
 BYTE   PEND 
// 007   ----------------------------------------
 BYTE   PATT
  POIN2 Label_9_0127CB5E
// 008   ----------------------------------------
 BYTE   PATT
  POIN2 Label_9_0127CB8D
// 009   ----------------------------------------
 BYTE   PATT
  POIN2 Label_9_0127CB5E
// 010   ----------------------------------------
 BYTE   PATT
  POIN2 Label_9_0127CB8D
// 011   ----------------------------------------
 BYTE   PATT
  POIN2 Label_9_0127CB5E
// 012   ----------------------------------------
 BYTE   PATT
  POIN2 Label_9_0127CB8D
// 013   ----------------------------------------
 BYTE   PATT
  POIN2 Label_9_0127CB5E
// 014   ----------------------------------------
 BYTE   PATT
  POIN2 Label_9_0127CB8D
// 015   ----------------------------------------
 BYTE   PATT
  POIN2 Label_9_0127CB5E
// 016   ----------------------------------------
 BYTE   PATT
  POIN2 Label_9_0127CB8D
// 017   ----------------------------------------
 BYTE   PATT
  POIN2 Label_9_0127CB5E
// 018   ----------------------------------------
Label_9_0127CBF3:
 BYTE   N06  Dn1  v072
 BYTE   W06
 BYTE   Dn1  v080
 BYTE   W06
 BYTE   N12  Dn1  v092
 BYTE   N96  Ds2  v120
 BYTE   W12
 BYTE   N06  Dn1  v072
 BYTE   W06
 BYTE   Dn1  v080
 BYTE   W06
 BYTE   N12  Dn1  v092
 BYTE   W12
 BYTE   N06  Dn1  v072
 BYTE   W06
 BYTE   Dn1  v080
 BYTE   W06
 BYTE   N12  Dn1  v092
 BYTE   W12
 BYTE   N06  Dn1  v072
 BYTE   W06
 BYTE   Dn1  v080
 BYTE   W06
 BYTE   Dn1  v092
 BYTE   W06
 BYTE   Dn1  v072
 BYTE   W06
 BYTE   PEND 
// 019   ----------------------------------------
Label_9_0127CC25:
 BYTE   N12  Dn1  v080
 BYTE   W12
 BYTE   N01  Dn1  v112
 BYTE   W01
 BYTE   N10  Dn1  v092
 BYTE   TIE  Ds2  v120
 BYTE   W11
 BYTE   N06  Dn1  v072
 BYTE   W06
 BYTE   Dn1  v060
 BYTE   W06
 BYTE   N12  Dn1  v080
 BYTE   W12
 BYTE   Dn1  v100
 BYTE   W12
 BYTE   N06  Dn1  v072
 BYTE   W06
 BYTE   Dn1  v060
 BYTE   W06
 BYTE   N12  Dn1  v080
 BYTE   W12
 BYTE   N01  Dn1  v100
 BYTE   W01
 BYTE   N05  Dn1  v080
 BYTE   W05
 BYTE   N06  Dn1  v072
 BYTE   W06
 BYTE   PEND 
// 020   ----------------------------------------
 BYTE   N12  Dn1  v080
 BYTE   W12
 BYTE   Dn1  v092
 BYTE   N72  Cs2  v112
 BYTE   W12
 BYTE   N06  Dn1  v072
 BYTE   W06
 BYTE   Dn1  v080
 BYTE   W06
 BYTE   N12  Dn1  v092
 BYTE   W12
 BYTE   N06  Dn1  v072
 BYTE   W06
 BYTE   Dn1  v080
 BYTE   W05
 BYTE   EOT
 BYTE   Ds2
 BYTE   W01
 BYTE   N12  Dn1  v092
 BYTE   W12
 BYTE   N06  Dn1  v072
 BYTE   W06
 BYTE   Dn1  v080
 BYTE   W06
 BYTE   Dn1  v092
 BYTE   W06
 BYTE   Dn1  v072
 BYTE   W06
// 021   ----------------------------------------
 BYTE   PATT
  POIN2 Label_9_0127CB5E
// 022   ----------------------------------------
 BYTE   PATT
  POIN2 Label_9_0127CB8D
// 023   ----------------------------------------
 BYTE   PATT
  POIN2 Label_9_0127CB5E
// 024   ----------------------------------------
 BYTE   N06  Dn1  v072
 BYTE   W06
 BYTE   Dn1  v080
 BYTE   W06
 BYTE   N12  Dn1  v092
 BYTE   N72  Cs2  v112
 BYTE   W12
 BYTE   N06  Dn1  v072
 BYTE   W06
 BYTE   Dn1  v080
 BYTE   W06
 BYTE   N12  Dn1  v092
 BYTE   W12
 BYTE   N06  Dn1  v072
 BYTE   W06
 BYTE   Dn1  v080
 BYTE   W06
 BYTE   N12  Dn1  v092
 BYTE   W12
 BYTE   N06  Dn1  v072
 BYTE   W06
 BYTE   Dn1  v080
 BYTE   W06
 BYTE   Dn1  v092
 BYTE   W06
 BYTE   Dn1  v072
 BYTE   W06
// 025   ----------------------------------------
 BYTE   PATT
  POIN2 Label_9_0127CB5E
// 026   ----------------------------------------
 BYTE   PATT
  POIN2 Label_9_0127CB8D
// 027   ----------------------------------------
 BYTE   PATT
  POIN2 Label_9_0127CB5E
// 028   ----------------------------------------
 BYTE   PATT
  POIN2 Label_9_0127CB8D
// 029   ----------------------------------------
 BYTE   PATT
  POIN2 Label_9_0127CB5E
// 030   ----------------------------------------
 BYTE   PATT
  POIN2 Label_9_0127CB8D
// 031   ----------------------------------------
 BYTE   N12  Dn1  v080
 BYTE   W12
 BYTE   N01  Dn1  v112
 BYTE   W01
 BYTE   N10  Dn1  v092
 BYTE   W11
 BYTE   N06  Dn1  v072
 BYTE   W06
 BYTE   Dn1  v060
 BYTE   W06
 BYTE   N12  Dn1  v080
 BYTE   W12
 BYTE   Dn1  v100
 BYTE   W12
 BYTE   N06  Dn1  v072
 BYTE   W06
 BYTE   Dn1  v060
 BYTE   W06
 BYTE   N12  Dn1  v080
 BYTE   W12
 BYTE   N01  Dn1  v100
 BYTE   W01
 BYTE   N05  Dn1  v080
 BYTE   W05
 BYTE   N06  Dn1  v072
 BYTE   W06
// 032   ----------------------------------------
Label_9_0127CD19:
 BYTE   N12  Dn1  v080
 BYTE   W12
 BYTE   Dn1  v092
 BYTE   W12
 BYTE   N06  Dn1  v072
 BYTE   W06
 BYTE   Dn1  v080
 BYTE   W06
 BYTE   N12  Dn1  v092
 BYTE   W12
 BYTE   N06  Dn1  v072
 BYTE   W06
 BYTE   Dn1  v080
 BYTE   W06
 BYTE   N12  Dn1  v092
 BYTE   W12
 BYTE   N06  Dn1  v072
 BYTE   W06
 BYTE   Dn1  v080
 BYTE   W06
 BYTE   Dn1  v092
 BYTE   W06
 BYTE   Dn1  v072
 BYTE   W06
 BYTE   PEND 
// 033   ----------------------------------------
 BYTE   PATT
  POIN2 Label_9_0127CB5E
// 034   ----------------------------------------
 BYTE   PATT
  POIN2 Label_9_0127CBF3
// 035   ----------------------------------------
 BYTE   PATT
  POIN2 Label_9_0127CC25
// 036   ----------------------------------------
 BYTE   N12  Dn1  v080
 BYTE   W12
 BYTE   N96  Cs2  v112
 BYTE   N24  An2
 BYTE   W44
 BYTE   W03
 BYTE   EOT
 BYTE   Ds2
 BYTE   W36
 BYTE   W01
// 037   ----------------------------------------
 BYTE   W96
// 038   ----------------------------------------
 BYTE   W96
// 039   ----------------------------------------
 BYTE   W96
// 040   ----------------------------------------
 BYTE   W12
 BYTE   TIE  Ds2  v120
 BYTE   W84
// 041   ----------------------------------------
 BYTE   W96
// 042   ----------------------------------------
 BYTE   W12
 BYTE   N12  Dn1  v092
 BYTE   N96  Cs2
 BYTE   N24  An2
 BYTE   W12
 BYTE   N06  Dn1  v072
 BYTE   W06
 BYTE   Dn1  v080
 BYTE   W06
 BYTE   N12  Dn1  v092
 BYTE   W12
 BYTE   N06  Dn1  v072
 BYTE   W06
 BYTE   Dn1  v080
 BYTE   W06
 BYTE   EOT
 BYTE   Ds2
 BYTE   N12  Dn1  v092
 BYTE   W12
 BYTE   N06  Dn1  v072
 BYTE   W06
 BYTE   Dn1  v080
 BYTE   W06
 BYTE   Dn1  v092
 BYTE   W06
 BYTE   Dn1  v072
 BYTE   W06
// 043   ----------------------------------------
 BYTE   PATT
  POIN2 Label_9_0127CB5E
// 044   ----------------------------------------
 BYTE   PATT
  POIN2 Label_9_0127CB8D
// 045   ----------------------------------------
 BYTE   PATT
  POIN2 Label_9_0127CB5E
// 046   ----------------------------------------
 BYTE   PATT
  POIN2 Label_9_0127CB8D
// 047   ----------------------------------------
 BYTE   PATT
  POIN2 Label_9_0127CB5E
// 048   ----------------------------------------
 BYTE   PATT
  POIN2 Label_9_0127CB8D
// 049   ----------------------------------------
 BYTE   PATT
  POIN2 Label_9_0127CB5E
// 050   ----------------------------------------
 BYTE   N06  Dn1  v072
 BYTE   W06
 BYTE   Dn1  v080
 BYTE   W06
 BYTE   N12  Dn1  v092
 BYTE   W12
 BYTE   N06  Dn1  v072
 BYTE   W06
 BYTE   Dn1  v080
 BYTE   W06
 BYTE   N12  Dn1  v092
 BYTE   W12
 BYTE   N06  Dn1  v072
 BYTE   W06
 BYTE   Dn1  v080
 BYTE   W06
 BYTE   N12  Dn1  v092
 BYTE   W12
 BYTE   N06  Dn1  v072
 BYTE   W06
 BYTE   Dn1  v080
 BYTE   W06
 BYTE   Dn1  v092
 BYTE   W06
 BYTE   N03  Dn1  v072
 BYTE   W03
 BYTE   Dn1  v060
 BYTE   W03
// 051   ----------------------------------------
 BYTE   PATT
  POIN2 Label_9_0127CB8D
// 052   ----------------------------------------
 BYTE   PATT
  POIN2 Label_9_0127CB5E
// 053   ----------------------------------------
 BYTE   PATT
  POIN2 Label_9_0127CB8D
// 054   ----------------------------------------
 BYTE   PATT
  POIN2 Label_9_0127CB5E
// 055   ----------------------------------------
 BYTE   PATT
  POIN2 Label_9_0127CB8D
// 056   ----------------------------------------
 BYTE   PATT
  POIN2 Label_9_0127CD19
// 057   ----------------------------------------
 BYTE   PATT
  POIN2 Label_9_0127CB5E
// 058   ----------------------------------------
 BYTE   PATT
  POIN2 Label_9_0127CB8D
// 059   ----------------------------------------
 BYTE   PATT
  POIN2 Label_9_0127CB5E
// 060   ----------------------------------------
 BYTE   N06  Dn1  v072
 BYTE   W06
 BYTE   Dn1  v080
 BYTE   W06
 BYTE   GoTo
  POIN2 Label_9_0127CB8D
 BYTE   FINE

//**************** Track 11 (Midi-Chn.10) ****************//

songAD_011:
// 000   ----------------------------------------
 BYTE   KEYSH   songAD_key+0
 BYTE   VOICE   48
 BYTE   VOL   35*songAD_mvl/mxv
 BYTE   PAN   c_v+6
 BYTE   W96
// 001   ----------------------------------------
 BYTE   W96
// 002   ----------------------------------------
 BYTE   W96
// 003   ----------------------------------------
 BYTE   W96
// 004   ----------------------------------------
 BYTE   W12
 BYTE   N12  Dn1  v112
 BYTE   N12  Dn2
 BYTE   W12
 BYTE   Dn1  v120
 BYTE   N12  Dn2
 BYTE   W24
 BYTE   Dn1  v112
 BYTE   N12  Dn2
 BYTE   W24
 BYTE   Dn1
 BYTE   N12  Dn2
 BYTE   W24
// 005   ----------------------------------------
Label_10_0127CE49:
 BYTE   N12  Dn1  v116
 BYTE   N12  Dn2
 BYTE   W12
 BYTE   Dn1  v112
 BYTE   N12  Dn2
 BYTE   W12
 BYTE   Dn1  v120
 BYTE   N12  Dn2
 BYTE   W24
 BYTE   Dn1  v112
 BYTE   N12  Dn2
 BYTE   W24
 BYTE   Dn1
 BYTE   N12  Dn2
 BYTE   W24
 BYTE   PEND 
// 006   ----------------------------------------
Label_10_0127CE63:
// 007   ----------------------------------------
 BYTE   PATT
  POIN2 Label_10_0127CE49
// 008   ----------------------------------------
 BYTE   PATT
  POIN2 Label_10_0127CE49
// 009   ----------------------------------------
 BYTE   PATT
  POIN2 Label_10_0127CE49
// 010   ----------------------------------------
 BYTE   PATT
  POIN2 Label_10_0127CE49
// 011   ----------------------------------------
 BYTE   PATT
  POIN2 Label_10_0127CE49
// 012   ----------------------------------------
 BYTE   PATT
  POIN2 Label_10_0127CE49
// 013   ----------------------------------------
 BYTE   PATT
  POIN2 Label_10_0127CE49
// 014   ----------------------------------------
 BYTE   PATT
  POIN2 Label_10_0127CE49
// 015   ----------------------------------------
 BYTE   PATT
  POIN2 Label_10_0127CE49
// 016   ----------------------------------------
 BYTE   PATT
  POIN2 Label_10_0127CE49
// 017   ----------------------------------------
 BYTE   PATT
  POIN2 Label_10_0127CE49
// 018   ----------------------------------------
Label_10_0127CE9A:
 BYTE   N12  Dn1  v116
 BYTE   N12  Dn2
 BYTE   W12
 BYTE   Gn1  v112
 BYTE   N12  Gn2
 BYTE   W12
 BYTE   Gn1  v120
 BYTE   N12  Gn2
 BYTE   W24
 BYTE   Gn1  v112
 BYTE   N12  Gn2
 BYTE   W24
 BYTE   Gn1
 BYTE   N12  Gn2
 BYTE   W24
 BYTE   PEND 
// 019   ----------------------------------------
Label_10_0127CEB4:
 BYTE   N12  Gn1  v116
 BYTE   N12  Gn2
 BYTE   W12
 BYTE   Dn1  v112
 BYTE   N12  Dn2
 BYTE   W12
 BYTE   Dn1  v120
 BYTE   N12  Dn2
 BYTE   W24
 BYTE   Dn1  v112
 BYTE   N12  Dn2
 BYTE   W24
 BYTE   Dn1
 BYTE   N12  Dn2
 BYTE   W24
 BYTE   PEND 
// 020   ----------------------------------------
 BYTE   PATT
  POIN2 Label_10_0127CE9A
// 021   ----------------------------------------
Label_10_0127CED3:
 BYTE   N12  Gn1  v116
 BYTE   N12  Gn2
 BYTE   W12
 BYTE   Gs1  v112
 BYTE   N12  Gs2
 BYTE   W12
 BYTE   Gs1  v120
 BYTE   N12  Gs2
 BYTE   W24
 BYTE   Gs1  v112
 BYTE   N12  Gs2
 BYTE   W24
 BYTE   Gs1
 BYTE   N12  Gs2
 BYTE   W24
 BYTE   PEND 
// 022   ----------------------------------------
Label_10_0127CEED:
 BYTE   N12  Gs1  v116
 BYTE   N12  Gs2
 BYTE   W12
 BYTE   Gs1  v112
 BYTE   N12  Gs2
 BYTE   W12
 BYTE   Gs1  v120
 BYTE   N12  Gs2
 BYTE   W24
 BYTE   Gs1  v112
 BYTE   N12  Gs2
 BYTE   W24
 BYTE   Gs1
 BYTE   N12  Gs2
 BYTE   W24
 BYTE   PEND 
// 023   ----------------------------------------
Label_10_0127CF07:
 BYTE   N12  Gs1  v116
 BYTE   N12  Gs2
 BYTE   W12
 BYTE   Gn1  v112
 BYTE   N12  Gn2
 BYTE   W12
 BYTE   Gn1  v120
 BYTE   N12  Gn2
 BYTE   W24
 BYTE   Gn1  v112
 BYTE   N12  Gn2
 BYTE   W24
 BYTE   Gn1
 BYTE   N12  Gn2
 BYTE   W24
 BYTE   PEND 
// 024   ----------------------------------------
Label_10_0127CF21:
 BYTE   N12  Gn1  v116
 BYTE   N12  Gn2
 BYTE   W12
 BYTE   Gn1  v112
 BYTE   N12  Gn2
 BYTE   W12
 BYTE   Gn1  v120
 BYTE   N12  Gn2
 BYTE   W24
 BYTE   Gn1  v112
 BYTE   N12  Gn2
 BYTE   W24
 BYTE   Gn1
 BYTE   N12  Gn2
 BYTE   W24
 BYTE   PEND 
// 025   ----------------------------------------
 BYTE   PATT
  POIN2 Label_10_0127CED3
// 026   ----------------------------------------
 BYTE   PATT
  POIN2 Label_10_0127CEED
// 027   ----------------------------------------
 BYTE   PATT
  POIN2 Label_10_0127CF07
// 028   ----------------------------------------
 BYTE   PATT
  POIN2 Label_10_0127CF21
// 029   ----------------------------------------
 BYTE   PATT
  POIN2 Label_10_0127CEB4
// 030   ----------------------------------------
 BYTE   PATT
  POIN2 Label_10_0127CE9A
// 031   ----------------------------------------
 BYTE   PATT
  POIN2 Label_10_0127CEB4
// 032   ----------------------------------------
 BYTE   PATT
  POIN2 Label_10_0127CE9A
// 033   ----------------------------------------
 BYTE   PATT
  POIN2 Label_10_0127CEB4
// 034   ----------------------------------------
 BYTE   PATT
  POIN2 Label_10_0127CE9A
// 035   ----------------------------------------
 BYTE   PATT
  POIN2 Label_10_0127CEB4
// 036   ----------------------------------------
 BYTE   PATT
  POIN2 Label_10_0127CE9A
// 037   ----------------------------------------
 BYTE   N12  Gn1  v116
 BYTE   N12  Gn2
 BYTE   W96
// 038   ----------------------------------------
 BYTE   W96
// 039   ----------------------------------------
 BYTE   W96
// 040   ----------------------------------------
 BYTE   W96
// 041   ----------------------------------------
 BYTE   W96
// 042   ----------------------------------------
 BYTE   W96
// 043   ----------------------------------------
 BYTE   W12
 BYTE   Fs1  v112
 BYTE   N12  Fs2
 BYTE   W12
 BYTE   Fs1  v120
 BYTE   N12  Fs2
 BYTE   W24
 BYTE   Fs1  v112
 BYTE   N12  Fs2
 BYTE   W24
 BYTE   Fs1
 BYTE   N12  Fs2
 BYTE   W24
// 044   ----------------------------------------
Label_10_0127CF96:
 BYTE   N12  Fs1  v116
 BYTE   N12  Fs2
 BYTE   W12
 BYTE   Fs1  v112
 BYTE   N12  Fs2
 BYTE   W12
 BYTE   Fs1  v120
 BYTE   N12  Fs2
 BYTE   W24
 BYTE   Fs1  v112
 BYTE   N12  Fs2
 BYTE   W24
 BYTE   Fs1
 BYTE   N12  Fs2
 BYTE   W24
 BYTE   PEND 
// 045   ----------------------------------------
 BYTE   PATT
  POIN2 Label_10_0127CF96
// 046   ----------------------------------------
 BYTE   PATT
  POIN2 Label_10_0127CF96
// 047   ----------------------------------------
 BYTE   PATT
  POIN2 Label_10_0127CF96
// 048   ----------------------------------------
 BYTE   PATT
  POIN2 Label_10_0127CF96
// 049   ----------------------------------------
 BYTE   PATT
  POIN2 Label_10_0127CF96
// 050   ----------------------------------------
 BYTE   PATT
  POIN2 Label_10_0127CF96
// 051   ----------------------------------------
 BYTE   N12  Fs1  v116
 BYTE   N12  Fs2
 BYTE   W12
 BYTE   Fn1  v112
 BYTE   N12  Fn2
 BYTE   W12
 BYTE   Fn1  v120
 BYTE   N12  Fn2
 BYTE   W24
 BYTE   Fn1  v112
 BYTE   N12  Fn2
 BYTE   W24
 BYTE   Fn1
 BYTE   N12  Fn2
 BYTE   W24
// 052   ----------------------------------------
 BYTE   Fn1  v116
 BYTE   N12  Fn2
 BYTE   W12
 BYTE   Fn1  v112
 BYTE   N12  Fn2
 BYTE   W12
 BYTE   Fn1  v120
 BYTE   N12  Fn2
 BYTE   W24
 BYTE   Fn1  v112
 BYTE   N12  Fn2
 BYTE   W24
 BYTE   Fn1
 BYTE   N12  Fn2
 BYTE   W24
// 053   ----------------------------------------
 BYTE   Fn1  v116
 BYTE   N12  Fn2
 BYTE   W12
 BYTE   Ds1  v112
 BYTE   N12  Ds2
 BYTE   W12
 BYTE   Ds1  v120
 BYTE   N12  Ds2
 BYTE   W24
 BYTE   Ds1  v112
 BYTE   N12  Ds2
 BYTE   W24
 BYTE   Ds1
 BYTE   N12  Ds2
 BYTE   W24
// 054   ----------------------------------------
Label_10_0127D017:
 BYTE   N12  Ds1  v116
 BYTE   N12  Ds2
 BYTE   W12
 BYTE   Ds1  v112
 BYTE   N12  Ds2
 BYTE   W12
 BYTE   Ds1  v120
 BYTE   N12  Ds2
 BYTE   W24
 BYTE   Ds1  v112
 BYTE   N12  Ds2
 BYTE   W24
 BYTE   Ds1
 BYTE   N12  Ds2
 BYTE   W24
 BYTE   PEND 
// 055   ----------------------------------------
 BYTE   PATT
  POIN2 Label_10_0127D017
// 056   ----------------------------------------
 BYTE   PATT
  POIN2 Label_10_0127D017
// 057   ----------------------------------------
 BYTE   N12  Ds1  v116
 BYTE   N12  Ds2
 BYTE   W12
 BYTE   Dn1  v112
 BYTE   N12  Dn2
 BYTE   W12
 BYTE   Dn1  v120
 BYTE   N12  Dn2
 BYTE   W24
 BYTE   Dn1  v112
 BYTE   N12  Dn2
 BYTE   W24
 BYTE   Dn1
 BYTE   N12  Dn2
 BYTE   W24
// 058   ----------------------------------------
 BYTE   PATT
  POIN2 Label_10_0127CE49
// 059   ----------------------------------------
 BYTE   PATT
  POIN2 Label_10_0127CE49
// 060   ----------------------------------------
 BYTE   PATT
  POIN2 Label_10_0127CE49
// 061   ----------------------------------------
 BYTE   N12  Dn1  v116
 BYTE   N12  Dn2
 BYTE   W12
 BYTE   GoTo
  POIN2 Label_10_0127CE63
 BYTE   FINE

//**************** Track 12 (Midi-Chn.11) ****************//

songAD_012:
// 000   ----------------------------------------
 BYTE   KEYSH   songAD_key+0
 BYTE   VOICE   19
 BYTE   VOL   22*songAD_mvl/mxv
 BYTE   PAN   c_v+10
 BYTE   W96
// 001   ----------------------------------------
 BYTE   W96
// 002   ----------------------------------------
 BYTE   W96
// 003   ----------------------------------------
 BYTE   W96
// 004   ----------------------------------------
Label_11_0127D07C:
 BYTE   W12
 BYTE   N08  An2  v112
 BYTE   N08  Dn3  v120
 BYTE   W12
 BYTE   Dn3  v112
 BYTE   N08  An3  v120
 BYTE   W12
 BYTE   An3  v112
 BYTE   N08  Dn4  v120
 BYTE   W12
 BYTE   Dn3  v112
 BYTE   N08  An3  v120
 BYTE   W12
 BYTE   An3  v112
 BYTE   N08  Dn4  v120
 BYTE   W12
 BYTE   Dn3  v112
 BYTE   N08  An3  v120
 BYTE   W12
 BYTE   An2  v112
 BYTE   N08  Dn3  v120
 BYTE   W12
 BYTE   PEND 
// 005   ----------------------------------------
Label_11_0127D0A9:
 BYTE   N08  Dn3  v112
 BYTE   N08  An3  v120
 BYTE   W12
 BYTE   An2  v112
 BYTE   N08  Dn3  v120
 BYTE   W12
 BYTE   Dn3  v112
 BYTE   N08  An3  v120
 BYTE   W12
 BYTE   An3  v112
 BYTE   N08  Dn4  v120
 BYTE   W12
 BYTE   Dn3  v112
 BYTE   N08  An3  v120
 BYTE   W12
 BYTE   An3  v112
 BYTE   N08  Dn4  v120
 BYTE   W12
 BYTE   Dn3  v112
 BYTE   N08  An3  v120
 BYTE   W12
 BYTE   An2  v112
 BYTE   N08  Dn3  v120
 BYTE   W12
 BYTE   PEND 
// 006   ----------------------------------------
Label_11_0127D0DB:
// 007   ----------------------------------------
 BYTE   PATT
  POIN2 Label_11_0127D0A9
// 008   ----------------------------------------
 BYTE   PATT
  POIN2 Label_11_0127D0A9
// 009   ----------------------------------------
 BYTE   PATT
  POIN2 Label_11_0127D0A9
// 010   ----------------------------------------
 BYTE   PATT
  POIN2 Label_11_0127D0A9
// 011   ----------------------------------------
Label_11_0127D0EF:
 BYTE   N08  Dn3  v112
 BYTE   N08  An3  v120
 BYTE   W12
 BYTE   An2  v112
 BYTE   N08  Ds3  v120
 BYTE   W12
 BYTE   Ds3  v112
 BYTE   N08  An3  v120
 BYTE   W12
 BYTE   An3  v112
 BYTE   N08  Ds4  v120
 BYTE   W12
 BYTE   Ds3  v112
 BYTE   N08  An3  v120
 BYTE   W12
 BYTE   An3  v112
 BYTE   N08  Ds4  v120
 BYTE   W12
 BYTE   Ds3  v112
 BYTE   N08  An3  v120
 BYTE   W12
 BYTE   An2  v112
 BYTE   N08  Ds3  v120
 BYTE   W12
 BYTE   PEND 
// 012   ----------------------------------------
Label_11_0127D121:
 BYTE   N08  Ds3  v112
 BYTE   N08  An3  v120
 BYTE   W12
 BYTE   An2  v112
 BYTE   N08  Ds3  v120
 BYTE   W12
 BYTE   Ds3  v112
 BYTE   N08  An3  v120
 BYTE   W12
 BYTE   An3  v112
 BYTE   N08  Ds4  v120
 BYTE   W12
 BYTE   Ds3  v112
 BYTE   N08  An3  v120
 BYTE   W12
 BYTE   An3  v112
 BYTE   N08  Ds4  v120
 BYTE   W12
 BYTE   Ds3  v112
 BYTE   N08  An3  v120
 BYTE   W12
 BYTE   An2  v112
 BYTE   N08  Ds3  v120
 BYTE   W12
 BYTE   PEND 
// 013   ----------------------------------------
Label_11_0127D153:
 BYTE   N08  Ds3  v112
 BYTE   N08  An3  v120
 BYTE   W12
 BYTE   An2  v112
 BYTE   N08  Dn3  v120
 BYTE   W12
 BYTE   Dn3  v112
 BYTE   N08  An3  v120
 BYTE   W12
 BYTE   An3  v112
 BYTE   N08  Dn4  v120
 BYTE   W12
 BYTE   Dn3  v112
 BYTE   N08  An3  v120
 BYTE   W12
 BYTE   An3  v112
 BYTE   N08  Dn4  v120
 BYTE   W12
 BYTE   Dn3  v112
 BYTE   N08  An3  v120
 BYTE   W12
 BYTE   An2  v112
 BYTE   N08  Dn3  v120
 BYTE   W12
 BYTE   PEND 
// 014   ----------------------------------------
 BYTE   PATT
  POIN2 Label_11_0127D0A9
// 015   ----------------------------------------
 BYTE   PATT
  POIN2 Label_11_0127D0EF
// 016   ----------------------------------------
 BYTE   PATT
  POIN2 Label_11_0127D121
// 017   ----------------------------------------
 BYTE   PATT
  POIN2 Label_11_0127D153
// 018   ----------------------------------------
Label_11_0127D199:
 BYTE   N08  Dn3  v112
 BYTE   N08  An3  v120
 BYTE   W12
 BYTE   Gn2  v112
 BYTE   N08  Dn3  v120
 BYTE   W12
 BYTE   Dn3  v112
 BYTE   N08  Gn3  v120
 BYTE   W12
 BYTE   Gn3  v112
 BYTE   N08  Dn4  v120
 BYTE   W12
 BYTE   Dn3  v112
 BYTE   N08  Gn3  v120
 BYTE   W12
 BYTE   Gn3  v112
 BYTE   N08  Dn4  v120
 BYTE   W12
 BYTE   Dn3  v112
 BYTE   N08  Gn3  v120
 BYTE   W12
 BYTE   Gn2  v112
 BYTE   N08  Dn3  v120
 BYTE   W12
 BYTE   PEND 
// 019   ----------------------------------------
Label_11_0127D1CB:
 BYTE   N08  Dn3  v112
 BYTE   N08  Gn3  v120
 BYTE   W12
 BYTE   An2  v112
 BYTE   N08  Dn3  v120
 BYTE   W12
 BYTE   Dn3  v112
 BYTE   N08  An3  v120
 BYTE   W12
 BYTE   An3  v112
 BYTE   N08  Dn4  v120
 BYTE   W12
 BYTE   Dn3  v112
 BYTE   N08  An3  v120
 BYTE   W12
 BYTE   An3  v112
 BYTE   N08  Dn4  v120
 BYTE   W12
 BYTE   Dn3  v112
 BYTE   N08  An3  v120
 BYTE   W12
 BYTE   An2  v112
 BYTE   N08  Dn3  v120
 BYTE   W12
 BYTE   PEND 
// 020   ----------------------------------------
 BYTE   PATT
  POIN2 Label_11_0127D199
// 021   ----------------------------------------
 BYTE   N08  Dn3  v112
 BYTE   N08  Gn3  v120
 BYTE   W96
// 022   ----------------------------------------
 BYTE   W96
// 023   ----------------------------------------
 BYTE   W96
// 024   ----------------------------------------
 BYTE   W96
// 025   ----------------------------------------
 BYTE   W96
// 026   ----------------------------------------
 BYTE   W96
// 027   ----------------------------------------
 BYTE   W96
// 028   ----------------------------------------
 BYTE   W96
// 029   ----------------------------------------
 BYTE   PATT
  POIN2 Label_11_0127D07C
// 030   ----------------------------------------
 BYTE   PATT
  POIN2 Label_11_0127D199
// 031   ----------------------------------------
 BYTE   PATT
  POIN2 Label_11_0127D1CB
// 032   ----------------------------------------
 BYTE   PATT
  POIN2 Label_11_0127D199
// 033   ----------------------------------------
 BYTE   PATT
  POIN2 Label_11_0127D1CB
// 034   ----------------------------------------
 BYTE   PATT
  POIN2 Label_11_0127D199
// 035   ----------------------------------------
 BYTE   PATT
  POIN2 Label_11_0127D1CB
// 036   ----------------------------------------
 BYTE   PATT
  POIN2 Label_11_0127D199
// 037   ----------------------------------------
 BYTE   N08  Dn3  v112
 BYTE   N08  Gn3  v120
 BYTE   W12
 BYTE   N96  Dn2  v124
 BYTE   N96  Dn3
 BYTE   N96  An3
 BYTE   W84
// 038   ----------------------------------------
 BYTE   W12
 BYTE   Cs2
 BYTE   N96  Cs3
 BYTE   N96  Gn3
 BYTE   W84
// 039   ----------------------------------------
 BYTE   W12
 BYTE   Cn2
 BYTE   N96  Cn3
 BYTE   N72  Fs3
 BYTE   W72
 BYTE   N12  Gn3
 BYTE   W12
// 040   ----------------------------------------
 BYTE   An3
 BYTE   W12
 BYTE   N96  As1
 BYTE   N96  Dn3
 BYTE   N96  As3
 BYTE   W84
// 041   ----------------------------------------
 BYTE   W12
 BYTE   En2
 BYTE   N96  En3
 BYTE   N72  As3
 BYTE   W72
 BYTE   N12  Bn3
 BYTE   W12
// 042   ----------------------------------------
 BYTE   Cs4
 BYTE   W12
 BYTE   N96  Dn2
 BYTE   N96  Fs3
 BYTE   N96  Dn4
 BYTE   W84
// 043   ----------------------------------------
 BYTE   W12
 BYTE   N08  As2  v120
 BYTE   N08  Cs3  v124
 BYTE   W12
 BYTE   Cs3  v120
 BYTE   N08  Fs3  v124
 BYTE   W12
 BYTE   Fs3  v120
 BYTE   N08  As3  v124
 BYTE   W12
 BYTE   Cs3  v120
 BYTE   N08  Fs3  v124
 BYTE   W12
 BYTE   Fs3  v120
 BYTE   N08  As3  v124
 BYTE   W12
 BYTE   Cs3  v120
 BYTE   N08  Fs3  v124
 BYTE   W12
 BYTE   As2  v120
 BYTE   N08  Cs3  v124
 BYTE   W12
// 044   ----------------------------------------
Label_11_0127D2A0:
 BYTE   N08  Cs3  v120
 BYTE   N08  Fs3  v124
 BYTE   W12
 BYTE   As2  v120
 BYTE   N08  Cs3  v124
 BYTE   W12
 BYTE   Cs3  v120
 BYTE   N08  Fs3  v124
 BYTE   W12
 BYTE   Fs3  v120
 BYTE   N08  As3  v124
 BYTE   W12
 BYTE   Cs3  v120
 BYTE   N08  Fs3  v124
 BYTE   W12
 BYTE   Fs3  v120
 BYTE   N08  As3  v124
 BYTE   W12
 BYTE   Cs3  v120
 BYTE   N08  Fs3  v124
 BYTE   W12
 BYTE   As2  v120
 BYTE   N08  Cs3  v124
 BYTE   W12
 BYTE   PEND 
// 045   ----------------------------------------
 BYTE   PATT
  POIN2 Label_11_0127D2A0
// 046   ----------------------------------------
 BYTE   PATT
  POIN2 Label_11_0127D2A0
// 047   ----------------------------------------
 BYTE   PATT
  POIN2 Label_11_0127D2A0
// 048   ----------------------------------------
 BYTE   PATT
  POIN2 Label_11_0127D2A0
// 049   ----------------------------------------
 BYTE   PATT
  POIN2 Label_11_0127D2A0
// 050   ----------------------------------------
 BYTE   PATT
  POIN2 Label_11_0127D2A0
// 051   ----------------------------------------
 BYTE   N08  Cs3  v120
 BYTE   N08  Fs3  v124
 BYTE   W12
 BYTE   An2  v120
 BYTE   N08  Cs3  v124
 BYTE   W12
 BYTE   Cs3  v120
 BYTE   N08  Fn3  v124
 BYTE   W12
 BYTE   Gn3  v120
 BYTE   N08  Bn3  v124
 BYTE   W12
 BYTE   Cs3  v120
 BYTE   N08  Fn3  v124
 BYTE   W12
 BYTE   Gn3  v120
 BYTE   N08  Bn3  v124
 BYTE   W12
 BYTE   Cs3  v120
 BYTE   N08  Fn3  v124
 BYTE   W12
 BYTE   An2  v120
 BYTE   N08  Cs3  v124
 BYTE   W12
// 052   ----------------------------------------
Label_11_0127D321:
 BYTE   N08  Cs3  v120
 BYTE   N08  Fn3  v124
 BYTE   W12
 BYTE   An2  v120
 BYTE   N08  Cs3  v124
 BYTE   W12
 BYTE   Cs3  v120
 BYTE   N08  Fn3  v124
 BYTE   W12
 BYTE   Gn3  v120
 BYTE   N08  Bn3  v124
 BYTE   W12
 BYTE   Cs3  v120
 BYTE   N08  Fn3  v124
 BYTE   W12
 BYTE   Gn3  v120
 BYTE   N08  Bn3  v124
 BYTE   W12
 BYTE   Cs3  v120
 BYTE   N08  Fn3  v124
 BYTE   W12
 BYTE   An2  v120
 BYTE   N08  Cs3  v124
 BYTE   W12
 BYTE   PEND 
// 053   ----------------------------------------
 BYTE   PATT
  POIN2 Label_11_0127D321
// 054   ----------------------------------------
 BYTE   PATT
  POIN2 Label_11_0127D321
// 055   ----------------------------------------
 BYTE   PATT
  POIN2 Label_11_0127D321
// 056   ----------------------------------------
 BYTE   PATT
  POIN2 Label_11_0127D321
// 057   ----------------------------------------
 BYTE   N08  Cs3  v120
 BYTE   N08  Fn3  v124
 BYTE   W12
 BYTE   An2  v112
 BYTE   N08  Dn3  v120
 BYTE   W12
 BYTE   Dn3  v112
 BYTE   N08  An3  v120
 BYTE   W12
 BYTE   An3  v112
 BYTE   N08  Dn4  v120
 BYTE   W12
 BYTE   Dn3  v112
 BYTE   N08  An3  v120
 BYTE   W12
 BYTE   An3  v112
 BYTE   N08  Dn4  v120
 BYTE   W12
 BYTE   Dn3  v112
 BYTE   N08  An3  v120
 BYTE   W12
 BYTE   An2  v112
 BYTE   N08  Dn3  v120
 BYTE   W12
// 058   ----------------------------------------
 BYTE   PATT
  POIN2 Label_11_0127D0A9
// 059   ----------------------------------------
 BYTE   PATT
  POIN2 Label_11_0127D0A9
// 060   ----------------------------------------
 BYTE   PATT
  POIN2 Label_11_0127D0A9
// 061   ----------------------------------------
 BYTE   N08  Dn3  v112
 BYTE   N08  An3  v120
 BYTE   W12
 BYTE   GoTo
  POIN2 Label_11_0127D0DB
 BYTE   FINE

//**************** Track 13 (Midi-Chn.12) ****************//

songAD_013:
// 000   ----------------------------------------
 BYTE   KEYSH   songAD_key+0
 BYTE   VOICE   71
 BYTE   VOL   25*songAD_mvl/mxv
 BYTE   PAN   c_v+0
 BYTE   W96
// 001   ----------------------------------------
 BYTE   W96
// 002   ----------------------------------------
 BYTE   W96
// 003   ----------------------------------------
 BYTE   W96
// 004   ----------------------------------------
Label_12_0127D3C0:
 BYTE   W12
 BYTE   N03  Dn3  v112
 BYTE   N03  Fn3
 BYTE   W12
 BYTE   Dn3  v092
 BYTE   N03  Fn3
 BYTE   W12
 BYTE   Dn3
 BYTE   N03  Fn3
 BYTE   W12
 BYTE   N04  Dn3  v112
 BYTE   N04  Fn3
 BYTE   W24
 BYTE   N03  Dn3  v100
 BYTE   N03  Fn3
 BYTE   W12
 BYTE   Dn3  v092
 BYTE   N03  Fn3
 BYTE   W12
 BYTE   PEND 
// 005   ----------------------------------------
Label_12_0127D3E2:
 BYTE   N03  Dn3  v092
 BYTE   N03  Fn3
 BYTE   W12
 BYTE   Dn3  v112
 BYTE   N03  Fn3
 BYTE   W12
 BYTE   Dn3  v092
 BYTE   N03  Fn3
 BYTE   W12
 BYTE   Dn3
 BYTE   N03  Fn3
 BYTE   W12
 BYTE   N04  Dn3  v112
 BYTE   N04  Fn3
 BYTE   W12
 BYTE   N03  Dn3  v092
 BYTE   N03  Fn3
 BYTE   W12
 BYTE   Dn3
 BYTE   N03  Fn3
 BYTE   W12
 BYTE   Dn3  v100
 BYTE   N03  Fn3
 BYTE   W12
 BYTE   PEND 
// 006   ----------------------------------------
Label_12_0127D40C:
 BYTE   N03  Dn3  v112
 BYTE   N03  Fn3
 BYTE   W12
 BYTE   Dn3
 BYTE   N03  Fn3
 BYTE   W12
 BYTE   Dn3  v092
 BYTE   N03  Fn3
 BYTE   W12
 BYTE   Dn3
 BYTE   N03  Fn3
 BYTE   W12
 BYTE   N04  Dn3  v112
 BYTE   N04  Fn3
 BYTE   W24
 BYTE   N03  Dn3  v100
 BYTE   N03  Fn3
 BYTE   W12
 BYTE   Dn3  v092
 BYTE   N03  Fn3
 BYTE   W12
 BYTE   PEND 
// 007   ----------------------------------------
 BYTE   PATT
  POIN2 Label_12_0127D3E2
// 008   ----------------------------------------
 BYTE   PATT
  POIN2 Label_12_0127D40C
// 009   ----------------------------------------
 BYTE   PATT
  POIN2 Label_12_0127D3E2
// 010   ----------------------------------------
Label_12_0127D440:
 BYTE   N03  Dn3  v112
 BYTE   N03  Fn3
 BYTE   W12
 BYTE   Ds3
 BYTE   N03  Gn3
 BYTE   W12
 BYTE   Ds3  v092
 BYTE   N03  Gn3
 BYTE   W12
 BYTE   Ds3
 BYTE   N03  Gn3
 BYTE   W12
 BYTE   N04  Ds3  v112
 BYTE   N04  Gn3
 BYTE   W24
 BYTE   N03  Ds3  v100
 BYTE   N03  Gn3
 BYTE   W12
 BYTE   Ds3  v092
 BYTE   N03  Gn3
 BYTE   W12
 BYTE   PEND 
// 011   ----------------------------------------
Label_12_0127D465:
 BYTE   N03  Ds3  v092
 BYTE   N03  Gn3
 BYTE   W12
 BYTE   Ds3  v112
 BYTE   N03  Gn3
 BYTE   W12
 BYTE   Ds3  v092
 BYTE   N03  Gn3
 BYTE   W12
 BYTE   Ds3
 BYTE   N03  Gn3
 BYTE   W12
 BYTE   N04  Ds3  v112
 BYTE   N04  Gn3
 BYTE   W12
 BYTE   N03  Ds3  v092
 BYTE   N03  Gn3
 BYTE   W12
 BYTE   Ds3
 BYTE   N03  Gn3
 BYTE   W12
 BYTE   Ds3  v100
 BYTE   N03  Gn3
 BYTE   W12
 BYTE   PEND 
// 012   ----------------------------------------
 BYTE   Ds3  v112
 BYTE   N03  Gn3
 BYTE   W12
 BYTE   Dn3
 BYTE   N03  Fn3
 BYTE   W12
 BYTE   Dn3  v092
 BYTE   N03  Fn3
 BYTE   W12
 BYTE   Dn3
 BYTE   N03  Fn3
 BYTE   W12
 BYTE   N04  Dn3  v112
 BYTE   N04  Fn3
 BYTE   W24
 BYTE   N03  Dn3  v100
 BYTE   N03  Fn3
 BYTE   W12
 BYTE   Dn3  v092
 BYTE   N03  Fn3
 BYTE   W12
// 013   ----------------------------------------
 BYTE   PATT
  POIN2 Label_12_0127D3E2
// 014   ----------------------------------------
 BYTE   PATT
  POIN2 Label_12_0127D440
// 015   ----------------------------------------
 BYTE   PATT
  POIN2 Label_12_0127D465
// 016   ----------------------------------------
 BYTE   N03  Ds3  v112
 BYTE   N03  Gn3
 BYTE   W12
 BYTE   Fn3
 BYTE   N03  An3
 BYTE   W12
 BYTE   Fn3  v092
 BYTE   N03  An3
 BYTE   W12
 BYTE   Fn3
 BYTE   N03  An3
 BYTE   W12
 BYTE   N04  Fn3  v112
 BYTE   N04  An3
 BYTE   W24
 BYTE   N03  Fn3  v100
 BYTE   N03  An3
 BYTE   W12
 BYTE   Fn3  v092
 BYTE   N03  An3
 BYTE   W12
// 017   ----------------------------------------
Label_12_0127D4E5:
 BYTE   N03  Fn3  v092
 BYTE   N03  An3
 BYTE   W12
 BYTE   Gn3  v112
 BYTE   N03  As3
 BYTE   W12
 BYTE   Gn3  v092
 BYTE   N03  As3
 BYTE   W12
 BYTE   Gn3
 BYTE   N03  As3
 BYTE   W12
 BYTE   N04  Gn3  v112
 BYTE   N04  As3
 BYTE   W12
 BYTE   N03  Gn3  v092
 BYTE   N03  As3
 BYTE   W12
 BYTE   Gn3
 BYTE   N03  As3
 BYTE   W12
 BYTE   Gn3  v100
 BYTE   N03  As3
 BYTE   W12
 BYTE   PEND 
// 018   ----------------------------------------
Label_12_0127D50F:
 BYTE   N03  Gn3  v112
 BYTE   N03  As3
 BYTE   W12
 BYTE   Fn3
 BYTE   N03  An3
 BYTE   W12
 BYTE   Fn3  v092
 BYTE   N03  An3
 BYTE   W12
 BYTE   Fn3
 BYTE   N03  An3
 BYTE   W12
 BYTE   N04  Fn3  v112
 BYTE   N04  An3
 BYTE   W24
 BYTE   N03  Fn3  v100
 BYTE   N03  An3
 BYTE   W12
 BYTE   Fn3  v092
 BYTE   N03  An3
 BYTE   W12
 BYTE   PEND 
// 019   ----------------------------------------
Label_12_0127D534:
 BYTE   N03  Fn3  v092
 BYTE   N03  An3
 BYTE   W12
 BYTE   Gn3  v116
 BYTE   N03  As3
 BYTE   W12
 BYTE   Gn3  v080
 BYTE   N03  As3
 BYTE   W12
 BYTE   Gn3
 BYTE   N03  As3
 BYTE   W12
 BYTE   N04  Gn3  v116
 BYTE   N04  As3
 BYTE   W12
 BYTE   N03  Gn3  v080
 BYTE   N03  As3
 BYTE   W12
 BYTE   Gn3
 BYTE   N03  As3
 BYTE   W12
 BYTE   Gn3  v108
 BYTE   N03  As3
 BYTE   W12
 BYTE   PEND 
// 020   ----------------------------------------
 BYTE   Gn3  v112
 BYTE   N03  As3
 BYTE   W96
// 021   ----------------------------------------
 BYTE   W96
// 022   ----------------------------------------
 BYTE   W96
// 023   ----------------------------------------
 BYTE   W96
// 024   ----------------------------------------
 BYTE   W96
// 025   ----------------------------------------
 BYTE   W96
// 026   ----------------------------------------
 BYTE   W96
// 027   ----------------------------------------
 BYTE   W96
// 028   ----------------------------------------
 BYTE   W12
 BYTE   Fn3
 BYTE   N03  An3
 BYTE   W12
 BYTE   Fn3  v092
 BYTE   N03  An3
 BYTE   W12
 BYTE   Fn3
 BYTE   N03  An3
 BYTE   W12
 BYTE   N04  Fn3  v112
 BYTE   N04  An3
 BYTE   W24
 BYTE   N03  Fn3  v100
 BYTE   N03  An3
 BYTE   W12
 BYTE   Fn3  v092
 BYTE   N03  An3
 BYTE   W12
// 029   ----------------------------------------
 BYTE   PATT
  POIN2 Label_12_0127D4E5
// 030   ----------------------------------------
 BYTE   PATT
  POIN2 Label_12_0127D50F
// 031   ----------------------------------------
 BYTE   PATT
  POIN2 Label_12_0127D534
// 032   ----------------------------------------
 BYTE   PATT
  POIN2 Label_12_0127D50F
// 033   ----------------------------------------
 BYTE   PATT
  POIN2 Label_12_0127D4E5
// 034   ----------------------------------------
 BYTE   PATT
  POIN2 Label_12_0127D50F
// 035   ----------------------------------------
 BYTE   PATT
  POIN2 Label_12_0127D4E5
// 036   ----------------------------------------
 BYTE   N03  Gn3  v112
 BYTE   N03  As3
 BYTE   W96
// 037   ----------------------------------------
 BYTE   W96
// 038   ----------------------------------------
 BYTE   W96
// 039   ----------------------------------------
 BYTE   W96
// 040   ----------------------------------------
 BYTE   W96
// 041   ----------------------------------------
 BYTE   W96
// 042   ----------------------------------------
 BYTE   W96
// 043   ----------------------------------------
 BYTE   W96
// 044   ----------------------------------------
 BYTE   W96
// 045   ----------------------------------------
 BYTE   W96
// 046   ----------------------------------------
 BYTE   W96
// 047   ----------------------------------------
 BYTE   W96
// 048   ----------------------------------------
 BYTE   W96
// 049   ----------------------------------------
 BYTE   W96
// 050   ----------------------------------------
 BYTE   W96
// 051   ----------------------------------------
 BYTE   W96
// 052   ----------------------------------------
 BYTE   W96
// 053   ----------------------------------------
 BYTE   W96
// 054   ----------------------------------------
 BYTE   W96
// 055   ----------------------------------------
 BYTE   W96
// 056   ----------------------------------------
 BYTE   PATT
  POIN2 Label_12_0127D3C0
// 057   ----------------------------------------
 BYTE   PATT
  POIN2 Label_12_0127D3E2
// 058   ----------------------------------------
 BYTE   PATT
  POIN2 Label_12_0127D40C
// 059   ----------------------------------------
 BYTE   PATT
  POIN2 Label_12_0127D3E2
// 060   ----------------------------------------
 BYTE   N03  Dn3  v112
 BYTE   N03  Fn3
 BYTE   W12
 BYTE   GoTo
  POIN2 Label_12_0127D40C
 BYTE   FINE

//**************** Track 14 (Midi-Chn.13) ****************//

songAD_014:
// 000   ----------------------------------------
 BYTE   KEYSH   songAD_key+0
 BYTE   VOICE   14
 BYTE   VOL   38*songAD_mvl/mxv
 BYTE   PAN   c_v-4
 BYTE   W96
// 001   ----------------------------------------
 BYTE   W96
// 002   ----------------------------------------
 BYTE   W96
// 003   ----------------------------------------
 BYTE   W96
// 004   ----------------------------------------
 BYTE   W96
// 005   ----------------------------------------
 BYTE   W96
// 006   ----------------------------------------
Label_13_0127D5F6:
 BYTE   W96
// 007   ----------------------------------------
 BYTE   W96
// 008   ----------------------------------------
 BYTE   W96
// 009   ----------------------------------------
 BYTE   W96
// 010   ----------------------------------------
 BYTE   W96
// 011   ----------------------------------------
 BYTE   W96
// 012   ----------------------------------------
 BYTE   W96
// 013   ----------------------------------------
 BYTE   W96
// 014   ----------------------------------------
 BYTE   W96
// 015   ----------------------------------------
 BYTE   W96
// 016   ----------------------------------------
 BYTE   W96
// 017   ----------------------------------------
 BYTE   W96
// 018   ----------------------------------------
 BYTE   W96
// 019   ----------------------------------------
 BYTE   W96
// 020   ----------------------------------------
 BYTE   W96
// 021   ----------------------------------------
 BYTE   W96
// 022   ----------------------------------------
 BYTE   W96
// 023   ----------------------------------------
 BYTE   W96
// 024   ----------------------------------------
 BYTE   W96
// 025   ----------------------------------------
 BYTE   W96
// 026   ----------------------------------------
 BYTE   W96
// 027   ----------------------------------------
 BYTE   W96
// 028   ----------------------------------------
 BYTE   W96
// 029   ----------------------------------------
 BYTE   W96
// 030   ----------------------------------------
 BYTE   W96
// 031   ----------------------------------------
 BYTE   W96
// 032   ----------------------------------------
 BYTE   W96
// 033   ----------------------------------------
 BYTE   W96
// 034   ----------------------------------------
 BYTE   W96
// 035   ----------------------------------------
 BYTE   W96
// 036   ----------------------------------------
 BYTE   W12
 BYTE   N96  Dn3  v120
 BYTE   W02
 BYTE   An3  v127
 BYTE   W80
 BYTE   W02
// 037   ----------------------------------------
 BYTE   W96
// 038   ----------------------------------------
 BYTE   W12
 BYTE   Cn3  v124
 BYTE   W02
 BYTE   Fs3  v127
 BYTE   W80
 BYTE   W02
// 039   ----------------------------------------
 BYTE   W12
 BYTE   As2  v124
 BYTE   W02
 BYTE   Gn3  v127
 BYTE   W80
 BYTE   W02
// 040   ----------------------------------------
 BYTE   W12
 BYTE   As2  v124
 BYTE   W02
 BYTE   En3  v127
 BYTE   W80
 BYTE   W02
// 041   ----------------------------------------
 BYTE   W12
 BYTE   Bn2  v124
 BYTE   W02
 BYTE   Fs3  v127
 BYTE   W80
 BYTE   W02
// 042   ----------------------------------------
 BYTE   W96
// 043   ----------------------------------------
 BYTE   W96
// 044   ----------------------------------------
 BYTE   W96
// 045   ----------------------------------------
 BYTE   W96
// 046   ----------------------------------------
 BYTE   W96
// 047   ----------------------------------------
 BYTE   W96
// 048   ----------------------------------------
 BYTE   W96
// 049   ----------------------------------------
 BYTE   W96
// 050   ----------------------------------------
 BYTE   W96
// 051   ----------------------------------------
 BYTE   W96
// 052   ----------------------------------------
 BYTE   W96
// 053   ----------------------------------------
 BYTE   W96
// 054   ----------------------------------------
 BYTE   W96
// 055   ----------------------------------------
 BYTE   W96
// 056   ----------------------------------------
 BYTE   W96
// 057   ----------------------------------------
 BYTE   W96
// 058   ----------------------------------------
 BYTE   W96
// 059   ----------------------------------------
 BYTE   W96
// 060   ----------------------------------------
 BYTE   W12
 BYTE   GoTo
  POIN2 Label_13_0127D5F6
 BYTE   FINE

//**************** Track 15 (Midi-Chn.14) ****************//

songAD_015:
// 000   ----------------------------------------
 BYTE   KEYSH   songAD_key+0
 BYTE   VOICE   46
 BYTE   VOL   25*songAD_mvl/mxv
 BYTE   PAN   c_v-44
 BYTE   W96
// 001   ----------------------------------------
 BYTE   W96
// 002   ----------------------------------------
 BYTE   W96
// 003   ----------------------------------------
 BYTE   W96
// 004   ----------------------------------------
 BYTE   W96
// 005   ----------------------------------------
 BYTE   W96
// 006   ----------------------------------------
Label_14_0127D666:
 BYTE   W96
// 007   ----------------------------------------
 BYTE   W96
// 008   ----------------------------------------
 BYTE   W96
// 009   ----------------------------------------
 BYTE   W96
// 010   ----------------------------------------
 BYTE   W96
// 011   ----------------------------------------
 BYTE   W96
// 012   ----------------------------------------
 BYTE   W96
// 013   ----------------------------------------
 BYTE   W96
// 014   ----------------------------------------
 BYTE   W96
// 015   ----------------------------------------
 BYTE   W96
// 016   ----------------------------------------
 BYTE   W96
// 017   ----------------------------------------
 BYTE   W96
// 018   ----------------------------------------
 BYTE   W96
// 019   ----------------------------------------
Label_14_0127D673:
 BYTE   W84
 BYTE   N04  Gn1  v116
 BYTE   W04
 BYTE   Dn2
 BYTE   W04
 BYTE   Gn2
 BYTE   W04
 BYTE   PEND 
// 020   ----------------------------------------
Label_14_0127D67D:
 BYTE   N04  An2  v112
 BYTE   W04
 BYTE   As2
 BYTE   W04
 BYTE   Dn3
 BYTE   W04
 BYTE   Gs1  v116
 BYTE   W04
 BYTE   Ds2
 BYTE   W04
 BYTE   Gs2  v112
 BYTE   W04
 BYTE   As2
 BYTE   W04
 BYTE   Cn3
 BYTE   W04
 BYTE   Ds3
 BYTE   W04
 BYTE   Gs2
 BYTE   W04
 BYTE   Ds3
 BYTE   W04
 BYTE   Gs3
 BYTE   W04
 BYTE   As3  v108
 BYTE   W04
 BYTE   Cn4
 BYTE   W04
 BYTE   Ds4
 BYTE   W04
 BYTE   Gs3  v100
 BYTE   W04
 BYTE   Ds4
 BYTE   W04
 BYTE   Gs4
 BYTE   W04
 BYTE   As4
 BYTE   W04
 BYTE   Cn5
 BYTE   W04
 BYTE   Ds5
 BYTE   W04
 BYTE   Gs5
 BYTE   W12
 BYTE   PEND 
// 021   ----------------------------------------
 BYTE   W96
// 022   ----------------------------------------
 BYTE   W96
// 023   ----------------------------------------
 BYTE   PATT
  POIN2 Label_14_0127D673
// 024   ----------------------------------------
 BYTE   PATT
  POIN2 Label_14_0127D67D
// 025   ----------------------------------------
 BYTE   W96
// 026   ----------------------------------------
 BYTE   W96
// 027   ----------------------------------------
 BYTE   PATT
  POIN2 Label_14_0127D673
// 028   ----------------------------------------
 BYTE   N04  An2  v112
 BYTE   W04
 BYTE   As2
 BYTE   W04
 BYTE   Dn3
 BYTE   W04
 BYTE   Dn1  v116
 BYTE   W04
 BYTE   An1
 BYTE   W04
 BYTE   Dn2  v112
 BYTE   W04
 BYTE   En2
 BYTE   W04
 BYTE   Fn2
 BYTE   W04
 BYTE   An2
 BYTE   W04
 BYTE   Dn2
 BYTE   W04
 BYTE   An2
 BYTE   W04
 BYTE   Dn3
 BYTE   W04
 BYTE   En3  v108
 BYTE   W04
 BYTE   Fn3
 BYTE   W04
 BYTE   An3
 BYTE   W04
 BYTE   Dn3  v100
 BYTE   W04
 BYTE   An3
 BYTE   W04
 BYTE   Dn4
 BYTE   W04
 BYTE   En4
 BYTE   W04
 BYTE   Fn4
 BYTE   W04
 BYTE   An4
 BYTE   W04
 BYTE   Dn5
 BYTE   W12
// 029   ----------------------------------------
 BYTE   W96
// 030   ----------------------------------------
Label_14_0127D6F6:
 BYTE   W12
 BYTE   N04  Dn1  v116
 BYTE   W04
 BYTE   An1
 BYTE   W04
 BYTE   Dn2  v112
 BYTE   W04
 BYTE   En2
 BYTE   W04
 BYTE   Fn2
 BYTE   W04
 BYTE   An2
 BYTE   W04
 BYTE   Dn2
 BYTE   W04
 BYTE   An2
 BYTE   W04
 BYTE   Dn3
 BYTE   W04
 BYTE   En3  v108
 BYTE   W04
 BYTE   Fn3
 BYTE   W04
 BYTE   An3
 BYTE   W04
 BYTE   Dn3  v100
 BYTE   W04
 BYTE   An3
 BYTE   W04
 BYTE   Dn4
 BYTE   W04
 BYTE   En4
 BYTE   W04
 BYTE   Fn4
 BYTE   W04
 BYTE   An4
 BYTE   W04
 BYTE   Dn5
 BYTE   W12
 BYTE   PEND 
// 031   ----------------------------------------
 BYTE   W96
// 032   ----------------------------------------
 BYTE   PATT
  POIN2 Label_14_0127D6F6
// 033   ----------------------------------------
 BYTE   W96
// 034   ----------------------------------------
 BYTE   PATT
  POIN2 Label_14_0127D6F6
// 035   ----------------------------------------
 BYTE   W96
// 036   ----------------------------------------
 BYTE   W96
// 037   ----------------------------------------
 BYTE   W96
// 038   ----------------------------------------
 BYTE   W96
// 039   ----------------------------------------
 BYTE   W96
// 040   ----------------------------------------
 BYTE   W96
// 041   ----------------------------------------
 BYTE   W96
// 042   ----------------------------------------
 BYTE   W96
// 043   ----------------------------------------
 BYTE   W96
// 044   ----------------------------------------
 BYTE   W96
// 045   ----------------------------------------
 BYTE   W96
// 046   ----------------------------------------
 BYTE   W96
// 047   ----------------------------------------
 BYTE   W96
// 048   ----------------------------------------
 BYTE   W96
// 049   ----------------------------------------
 BYTE   W96
// 050   ----------------------------------------
 BYTE   W96
// 051   ----------------------------------------
 BYTE   W96
// 052   ----------------------------------------
 BYTE   W96
// 053   ----------------------------------------
 BYTE   W96
// 054   ----------------------------------------
 BYTE   W96
// 055   ----------------------------------------
 BYTE   W96
// 056   ----------------------------------------
 BYTE   W96
// 057   ----------------------------------------
 BYTE   W96
// 058   ----------------------------------------
 BYTE   W96
// 059   ----------------------------------------
 BYTE   W96
// 060   ----------------------------------------
 BYTE   W12
 BYTE   GoTo
  POIN2 Label_14_0127D666
 BYTE   FINE

//******************************************************//
	ALIGN 4

songAD:
	BYTE	15	// NumTrks
	BYTE	0	// NumBlks
	BYTE	songAD_pri	// Priority
	BYTE	songAD_rev	// Reverb.
    
	POIN2	songAD_grp
    
	POIN2	songAD_001
	POIN2	songAD_002
	POIN2	songAD_003
	POIN2	songAD_004
	POIN2	songAD_005
	POIN2	songAD_006
	POIN2	songAD_007
	POIN2	songAD_008
	POIN2	songAD_009
	POIN2	songAD_010
	POIN2	songAD_011
	POIN2	songAD_012
	POIN2	songAD_013
	POIN2	songAD_014
	POIN2	songAD_015

	
