	.include "MPlayDef.s"

	.equ	songAD_grp, voicegroup000
	.equ	songAD_pri, 0
	.equ	songAD_rev, 0
	.equ	songAD_mvl, 127
	.equ	songAD_key, 0
	.equ	songAD_tbs, 1
	.equ	songAD_exg, 0
	.equ	songAD_cmp, 1

	.section .rodata
	.global	songAD
	.align	2


@**************** Track 1 (Midi-Chn.0) ****************@

songAD_001:
@ 000   ----------------------------------------
 .byte   KEYSH , songAD_key+0
 .byte   TEMPO , 150*songAD_tbs/2
 .byte   VOICE , 40
 .byte   VOL , 25*songAD_mvl/mxv
 .byte   PAN , c_v-14
 .byte   W96
@ 001   ----------------------------------------
 .byte   W96
@ 002   ----------------------------------------
 .byte   W96
@ 003   ----------------------------------------
 .byte   W96
@ 004   ----------------------------------------
 .byte   W96
@ 005   ----------------------------------------
 .byte   W96
@ 006   ----------------------------------------
Label_0_0127BF90:
 .byte   W96
@ 007   ----------------------------------------
 .byte   W96
@ 008   ----------------------------------------
 .byte   W96
@ 009   ----------------------------------------
 .byte   W96
@ 010   ----------------------------------------
 .byte   W96
@ 011   ----------------------------------------
 .byte   W96
@ 012   ----------------------------------------
 .byte   W96
@ 013   ----------------------------------------
 .byte   W96
@ 014   ----------------------------------------
 .byte   W96
@ 015   ----------------------------------------
 .byte   W96
@ 016   ----------------------------------------
 .byte   W96
@ 017   ----------------------------------------
 .byte   W96
@ 018   ----------------------------------------
 .byte   W96
@ 019   ----------------------------------------
 .byte   W96
@ 020   ----------------------------------------
 .byte   W96
@ 021   ----------------------------------------
 .byte   W96
@ 022   ----------------------------------------
 .byte   W96
@ 023   ----------------------------------------
 .byte   W96
@ 024   ----------------------------------------
 .byte   W96
@ 025   ----------------------------------------
 .byte   W96
@ 026   ----------------------------------------
 .byte   W96
@ 027   ----------------------------------------
 .byte   W96
@ 028   ----------------------------------------
 .byte   W96
@ 029   ----------------------------------------
 .byte   W96
@ 030   ----------------------------------------
 .byte   W96
@ 031   ----------------------------------------
 .byte   W96
@ 032   ----------------------------------------
 .byte   W12
 .byte   N72 ,Dn4 ,v120
 .byte   W72
 .byte   N12 ,En4
 .byte   W12
@ 033   ----------------------------------------
 .byte   Fn4
 .byte   W12
 .byte   N36 ,Gn4
 .byte   W36
 .byte   Fn4
 .byte   W36
 .byte   N24 ,En4
 .byte   W12
@ 034   ----------------------------------------
 .byte   W12
 .byte   TIE ,Dn4
 .byte   W72
 .byte   W01
 .byte   W01
 .byte   W01
 .byte   W01
 .byte   W01
 .byte   W01
 .byte   W01
 .byte   W01
 .byte   W01
 .byte   W01
 .byte   W01
 .byte   W01
@ 035   ----------------------------------------
 .byte   W01
 .byte   W01
 .byte   W01
 .byte   W01
 .byte   W01
 .byte   W01
 .byte   W01
 .byte   W01
 .byte   W01
 .byte   W01
 .byte   W01
 .byte   W01
 .byte   TEMPO , 148*songAD_tbs/2
 .byte   W01
 .byte   W01
 .byte   W01
 .byte   W01
 .byte   W01
 .byte   W01
 .byte   W01
 .byte   W01
 .byte   W01
 .byte   TEMPO , 146*songAD_tbs/2
 .byte   W01
 .byte   TEMPO , 144*songAD_tbs/2
 .byte   W01
 .byte   W01
 .byte   W01
 .byte   W01
 .byte   W01
 .byte   W01
 .byte   W01
 .byte   W01
 .byte   W01
 .byte   TEMPO , 142*songAD_tbs/2
 .byte   W01
 .byte   W01
 .byte   W01
 .byte   W01
 .byte   W01
 .byte   W01
 .byte   W01
 .byte   W01
 .byte   W01
 .byte   TEMPO , 140*songAD_tbs/2
 .byte   W01
 .byte   TEMPO , 138*songAD_tbs/2
 .byte   W01
 .byte   W01
 .byte   W01
 .byte   W01
 .byte   W01
 .byte   W01
 .byte   W01
 .byte   W01
 .byte   TEMPO , 136*songAD_tbs/2
 .byte   W01
 .byte   TEMPO , 136*songAD_tbs/2
 .byte   W01
 .byte   W01
 .byte   W01
 .byte   W01
 .byte   W01
 .byte   W01
 .byte   W01
 .byte   W01
 .byte   TEMPO , 134*songAD_tbs/2
 .byte   W01
 .byte   TEMPO , 134*songAD_tbs/2
 .byte   W01
 .byte   EOT
 .byte   W06
 .byte   TEMPO , 132*songAD_tbs/2
 .byte   W01
 .byte   TEMPO , 130*songAD_tbs/2
 .byte   W08
 .byte   TEMPO , 128*songAD_tbs/2
 .byte   W01
 .byte   TEMPO , 128*songAD_tbs/2
 .byte   W07
 .byte   TEMPO , 126*songAD_tbs/2
 .byte   W01
 .byte   TEMPO , 126*songAD_tbs/2
 .byte   W07
 .byte   TEMPO , 124*songAD_tbs/2
 .byte   W01
 .byte   TEMPO , 122*songAD_tbs/2
 .byte   W04
@ 036   ----------------------------------------
 .byte   W03
 .byte   TEMPO , 122*songAD_tbs/2
 .byte   W01
 .byte   TEMPO , 120*songAD_tbs/2
 .byte   W07
 .byte   TEMPO , 120*songAD_tbs/2
 .byte   W01
 .byte   TEMPO , 120*songAD_tbs/2
 .byte   W84
@ 037   ----------------------------------------
 .byte   W96
@ 038   ----------------------------------------
 .byte   W96
@ 039   ----------------------------------------
 .byte   W96
@ 040   ----------------------------------------
 .byte   W96
@ 041   ----------------------------------------
 .byte   W96
@ 042   ----------------------------------------
 .byte   W12
 .byte   TEMPO , 150*songAD_tbs/2
 .byte   W84
@ 043   ----------------------------------------
 .byte   W96
@ 044   ----------------------------------------
 .byte   W96
@ 045   ----------------------------------------
 .byte   W96
@ 046   ----------------------------------------
 .byte   W96
@ 047   ----------------------------------------
 .byte   W96
@ 048   ----------------------------------------
 .byte   W96
@ 049   ----------------------------------------
 .byte   W96
@ 050   ----------------------------------------
 .byte   W96
@ 051   ----------------------------------------
 .byte   W96
@ 052   ----------------------------------------
 .byte   W96
@ 053   ----------------------------------------
 .byte   W96
@ 054   ----------------------------------------
 .byte   W96
@ 055   ----------------------------------------
 .byte   W96
@ 056   ----------------------------------------
 .byte   W96
@ 057   ----------------------------------------
 .byte   W96
@ 058   ----------------------------------------
 .byte   W96
@ 059   ----------------------------------------
 .byte   W96
@ 060   ----------------------------------------
 .byte   W12
 .byte   GOTO
  .word Label_0_0127BF90
 .byte   FINE

@**************** Track 2 (Midi-Chn.1) ****************@

songAD_002:
@ 000   ----------------------------------------
 .byte   KEYSH , songAD_key+0
 .byte   VOICE , 49
 .byte   VOL , 29*songAD_mvl/mxv
 .byte   PAN , c_v-14
 .byte   VOL , 35*songAD_mvl/mxv
 .byte   PAN , c_v-6
 .byte   W12
 .byte   W84
@ 001   ----------------------------------------
 .byte   W96
@ 002   ----------------------------------------
 .byte   W96
@ 003   ----------------------------------------
 .byte   W96
@ 004   ----------------------------------------
 .byte   W12
 .byte   W84
@ 005   ----------------------------------------
 .byte   W96
@ 006   ----------------------------------------
Label_1_0127C078:
 .byte   W96
@ 007   ----------------------------------------
 .byte   W96
@ 008   ----------------------------------------
 .byte   W12
 .byte   W48
 .byte   N48 ,An2 ,v120
 .byte   W36
@ 009   ----------------------------------------
 .byte   W12
 .byte   An2 ,v112
 .byte   N48 ,Dn3 ,v120
 .byte   W48
 .byte   N96 ,Dn3 ,v112
 .byte   N96 ,An3 ,v120
 .byte   W36
@ 010   ----------------------------------------
 .byte   W60
 .byte   N24 ,Ds3 ,v112
 .byte   N24 ,Gn3 ,v120
 .byte   W24
 .byte   Dn3 ,v112
 .byte   N24 ,Fn3 ,v120
 .byte   W12
@ 011   ----------------------------------------
 .byte   W12
 .byte   N48 ,Cn3 ,v112
 .byte   N48 ,Ds3 ,v120
 .byte   W48
 .byte   N24 ,Dn3 ,v112
 .byte   N24 ,Fn3 ,v120
 .byte   W24
 .byte   Ds3 ,v112
 .byte   N24 ,Gn3 ,v120
 .byte   W12
@ 012   ----------------------------------------
 .byte   W12
 .byte   N48 ,Dn3 ,v112
 .byte   N48 ,An3 ,v120
 .byte   W48
 .byte   TIE ,An2 ,v112
 .byte   TIE ,Dn3 ,v120
 .byte   W36
@ 013   ----------------------------------------
 .byte   W96
@ 014   ----------------------------------------
 .byte   W12
 .byte   EOT
 .byte   An2 ,v062
 .byte   W48
 .byte   N24 ,Ds3 ,v112
 .byte   N24 ,Gn3 ,v120
 .byte   W24
 .byte   Ds3 ,v112
 .byte   N24 ,An3 ,v120
 .byte   W12
@ 015   ----------------------------------------
 .byte   W12
 .byte   N48 ,Cn3 ,v112
 .byte   N48 ,Ds3 ,v120
 .byte   W48
 .byte   N24 ,An2 ,v112
 .byte   N24 ,Dn3 ,v120
 .byte   W24
 .byte   An2 ,v112
 .byte   N24 ,Cn3 ,v120
 .byte   W12
@ 016   ----------------------------------------
Label_1_0127C0E8:
 .byte   W12
 .byte   N72 ,An2 ,v112
 .byte   N72 ,Dn3 ,v120
 .byte   W72
 .byte   N12 ,An2 ,v112
 .byte   N12 ,En3 ,v120
 .byte   W12
 .byte   PEND 
@ 017   ----------------------------------------
 .byte   Dn3 ,v112
 .byte   N12 ,Fn3 ,v120
 .byte   W12
 .byte   N36 ,Dn3 ,v112
 .byte   N36 ,Gn3 ,v120
 .byte   W36
 .byte   Dn3 ,v112
 .byte   N36 ,Fn3 ,v120
 .byte   W36
 .byte   N24 ,As2 ,v112
 .byte   N24 ,En3 ,v120
 .byte   W12
@ 018   ----------------------------------------
 .byte   PATT
  .word Label_1_0127C0E8
@ 019   ----------------------------------------
 .byte   N12 ,Dn3 ,v112
 .byte   N12 ,Fn3 ,v120
 .byte   W12
 .byte   N36 ,Dn3 ,v112
 .byte   N36 ,Gn3 ,v120
 .byte   W36
 .byte   Dn3 ,v112
 .byte   N36 ,An3 ,v120
 .byte   W36
 .byte   N24 ,Dn3 ,v112
 .byte   N24 ,Fn3 ,v120
 .byte   N06 ,As3
 .byte   N06 ,Dn4
 .byte   W06
 .byte   Cn4
 .byte   N06 ,Ds4
 .byte   W06
@ 020   ----------------------------------------
 .byte   Dn4
 .byte   N06 ,Fn4
 .byte   W06
 .byte   Ds4
 .byte   N06 ,Gn4
 .byte   W06
 .byte   N96 ,Ds4
 .byte   N96 ,Gs4
 .byte   W84
@ 021   ----------------------------------------
Label_1_0127C147:
 .byte   W12
 .byte   N96 ,Ds4 ,v120
 .byte   N48 ,As4
 .byte   W48
 .byte   Cn5
 .byte   W36
 .byte   PEND 
@ 022   ----------------------------------------
Label_1_0127C151:
 .byte   W12
 .byte   N96 ,Dn4 ,v120
 .byte   N96 ,Gn4
 .byte   W84
 .byte   PEND 
@ 023   ----------------------------------------
 .byte   W12
 .byte   N96
 .byte   N48 ,Dn5
 .byte   W48
 .byte   As4
 .byte   W36
@ 024   ----------------------------------------
 .byte   W12
 .byte   N96 ,Ds4
 .byte   N96 ,Gs4
 .byte   W84
@ 025   ----------------------------------------
 .byte   PATT
  .word Label_1_0127C147
@ 026   ----------------------------------------
 .byte   PATT
  .word Label_1_0127C151
@ 027   ----------------------------------------
 .byte   W12
 .byte   N96 ,Gn4 ,v120
 .byte   N48 ,As4
 .byte   W48
 .byte   Dn5
 .byte   W36
@ 028   ----------------------------------------
 .byte   W12
 .byte   N96 ,An4 ,v112
 .byte   N96 ,Dn5
 .byte   W84
@ 029   ----------------------------------------
 .byte   W12
 .byte   Dn4 ,v108
 .byte   N96 ,Gn4
 .byte   W84
@ 030   ----------------------------------------
 .byte   W12
 .byte   An3 ,v100
 .byte   N96 ,Dn4
 .byte   W24
 .byte   W01
 .byte   W01
 .byte   W01
 .byte   W01
 .byte   W01
 .byte   W01
 .byte   W01
 .byte   W01
 .byte   W01
 .byte   W01
 .byte   W01
 .byte   W01
 .byte   W01
 .byte   W01
 .byte   W01
 .byte   W01
 .byte   W01
 .byte   W01
 .byte   W01
 .byte   W01
 .byte   W01
 .byte   W01
 .byte   W01
 .byte   W01
 .byte   W01
 .byte   W01
 .byte   W01
 .byte   W01
 .byte   W01
 .byte   W01
 .byte   W01
 .byte   W01
 .byte   W01
 .byte   W01
 .byte   W01
 .byte   W01
 .byte   W01
 .byte   W01
 .byte   W01
 .byte   W01
 .byte   W01
 .byte   W01
 .byte   W01
 .byte   W01
 .byte   W01
 .byte   W01
 .byte   W01
 .byte   W01
 .byte   W01
 .byte   W01
 .byte   W01
 .byte   W01
 .byte   W01
 .byte   W01
 .byte   W01
 .byte   W01
 .byte   W01
 .byte   W01
 .byte   W01
 .byte   W01
@ 031   ----------------------------------------
 .byte   W01
 .byte   W01
 .byte   W01
 .byte   W01
 .byte   W01
 .byte   W01
 .byte   W01
 .byte   W01
 .byte   W01
 .byte   W01
 .byte   W01
 .byte   W01
 .byte   W84
@ 032   ----------------------------------------
 .byte   W12
 .byte   W84
@ 033   ----------------------------------------
 .byte   W96
@ 034   ----------------------------------------
 .byte   W96
@ 035   ----------------------------------------
 .byte   W96
@ 036   ----------------------------------------
 .byte   W96
@ 037   ----------------------------------------
 .byte   W36
 .byte   N24 ,An2 ,v096
 .byte   N24 ,Cs3
 .byte   W24
 .byte   N48 ,Cs3 ,v100
 .byte   N24 ,An3
 .byte   W24
 .byte   Gn3 ,v108
 .byte   W12
@ 038   ----------------------------------------
 .byte   W12
 .byte   N96 ,Dn3 ,v112
 .byte   N96 ,Fs3
 .byte   W84
@ 039   ----------------------------------------
 .byte   W12
 .byte   Dn3 ,v116
 .byte   N96 ,Gn3
 .byte   W84
@ 040   ----------------------------------------
 .byte   W12
 .byte   Fs3
 .byte   N96 ,As3
 .byte   W84
@ 041   ----------------------------------------
 .byte   W12
 .byte   Fs3
 .byte   N96 ,Bn3
 .byte   W84
@ 042   ----------------------------------------
 .byte   W60
 .byte   N48 ,As2
 .byte   W36
@ 043   ----------------------------------------
 .byte   W12
 .byte   N48
 .byte   N48 ,Cs3
 .byte   W48
 .byte   N96 ,En3
 .byte   N96 ,Gn3
 .byte   W36
@ 044   ----------------------------------------
 .byte   W60
 .byte   N24 ,Cs3
 .byte   N24 ,Fs3
 .byte   W24
 .byte   Cs3
 .byte   N24 ,En3
 .byte   W12
@ 045   ----------------------------------------
 .byte   W12
 .byte   N48 ,As2
 .byte   N48 ,Dn3
 .byte   W48
 .byte   N24 ,As2
 .byte   N24 ,En3
 .byte   W24
 .byte   As2
 .byte   N24 ,Fs3
 .byte   W12
@ 046   ----------------------------------------
 .byte   W12
 .byte   N48 ,As2
 .byte   N48 ,Fs3
 .byte   W48
 .byte   TIE ,Fs2
 .byte   TIE ,As2
 .byte   W36
@ 047   ----------------------------------------
 .byte   W96
@ 048   ----------------------------------------
 .byte   W12
 .byte   EOT
 .byte   Fs2 ,v058
 .byte   W48
 .byte   N24 ,En3
 .byte   N24 ,Gs3
 .byte   W24
 .byte   En3
 .byte   N24 ,As3
 .byte   W12
@ 049   ----------------------------------------
 .byte   W12
 .byte   N48 ,Gs3
 .byte   N48 ,Cn4
 .byte   W48
 .byte   N24 ,Gs3
 .byte   N24 ,Dn4
 .byte   W24
 .byte   Gs3
 .byte   N24 ,En4
 .byte   W12
@ 050   ----------------------------------------
 .byte   W12
 .byte   N72 ,Cs4
 .byte   N72 ,Fn4
 .byte   W72
 .byte   N24 ,Bn3
 .byte   N24 ,Ds4
 .byte   W12
@ 051   ----------------------------------------
 .byte   W12
 .byte   N96 ,Cs4
 .byte   N96 ,Fn4
 .byte   W84
@ 052   ----------------------------------------
 .byte   W12
 .byte   N48 ,Bn3
 .byte   N48 ,Ds4
 .byte   W48
 .byte   Fn3
 .byte   N48 ,An3
 .byte   W36
@ 053   ----------------------------------------
 .byte   W12
 .byte   N96 ,Fn3
 .byte   N96 ,Bn3
 .byte   W84
@ 054   ----------------------------------------
 .byte   W60
 .byte   N24 ,Fn3
 .byte   N24 ,An3
 .byte   W24
 .byte   Ds3
 .byte   N24 ,Gn3
 .byte   W12
@ 055   ----------------------------------------
 .byte   W12
 .byte   N48 ,Cs3
 .byte   N48 ,Fn3
 .byte   W48
 .byte   N24 ,Ds3
 .byte   N24 ,Gn3
 .byte   W24
 .byte   Fn3
 .byte   N24 ,An3
 .byte   W12
@ 056   ----------------------------------------
 .byte   W12
 .byte   N96 ,An2
 .byte   N96 ,Dn3
 .byte   W84
@ 057   ----------------------------------------
 .byte   W12
 .byte   TIE ,Fn3
 .byte   TIE ,An3
 .byte   W84
@ 058   ----------------------------------------
 .byte   W12
 .byte   W01
 .byte   W01
 .byte   W01
 .byte   W01
 .byte   W01
 .byte   W01
 .byte   W01
 .byte   W01
 .byte   W01
 .byte   W01
 .byte   W01
 .byte   W01
 .byte   W01
 .byte   W01
 .byte   W01
 .byte   W01
 .byte   W01
 .byte   W01
 .byte   W01
 .byte   W01
 .byte   W01
 .byte   W01
 .byte   W01
 .byte   W01
 .byte   W01
 .byte   W01
 .byte   W01
 .byte   W01
 .byte   W01
 .byte   W01
 .byte   W01
 .byte   W01
 .byte   W01
 .byte   W01
 .byte   W01
 .byte   W01
 .byte   W01
 .byte   W01
 .byte   W01
 .byte   W01
 .byte   W01
 .byte   W01
 .byte   W01
 .byte   W01
 .byte   W01
 .byte   W01
 .byte   W01
 .byte   W01
 .byte   W01
 .byte   W01
 .byte   W01
 .byte   W01
 .byte   W01
 .byte   W01
 .byte   W01
 .byte   W01
 .byte   W01
 .byte   W01
 .byte   W01
 .byte   W01
 .byte   W01
 .byte   W01
 .byte   W01
 .byte   W01
 .byte   W01
 .byte   W01
 .byte   W01
 .byte   W01
 .byte   W01
 .byte   W01
 .byte   W01
 .byte   W01
 .byte   W01
 .byte   W01
 .byte   W01
 .byte   W01
 .byte   W01
 .byte   W01
 .byte   W01
 .byte   W01
 .byte   W01
 .byte   W01
 .byte   W01
 .byte   W01
@ 059   ----------------------------------------
 .byte   W01
 .byte   W01
 .byte   W01
 .byte   W01
 .byte   W01
 .byte   W01
 .byte   W01
 .byte   W01
 .byte   W01
 .byte   W01
 .byte   W01
 .byte   W01
 .byte   EOT
 .byte   Fn3 ,v069
 .byte   W84
@ 060   ----------------------------------------
 .byte   W12
 .byte   GOTO
  .word Label_1_0127C078
 .byte   FINE

@**************** Track 3 (Midi-Chn.2) ****************@

songAD_003:
@ 000   ----------------------------------------
 .byte   KEYSH , songAD_key+0
 .byte   VOICE , 52
 .byte   VOL , 35*songAD_mvl/mxv
 .byte   PAN , c_v-10
 .byte   W12
 .byte   TIE ,Dn2 ,v112
 .byte   W84
@ 001   ----------------------------------------
 .byte   W96
@ 002   ----------------------------------------
 .byte   W12
 .byte   EOT
 .byte   N96 ,Cs2
 .byte   W84
@ 003   ----------------------------------------
 .byte   W12
 .byte   An1
 .byte   W84
@ 004   ----------------------------------------
 .byte   W12
 .byte   TIE ,Dn2
 .byte   W84
@ 005   ----------------------------------------
 .byte   W96
@ 006   ----------------------------------------
Label_2_0127C31F:
 .byte   W12
 .byte   EOT
 .byte   Dn2
 .byte   W84
@ 007   ----------------------------------------
 .byte   W96
@ 008   ----------------------------------------
 .byte   W96
@ 009   ----------------------------------------
 .byte   W96
@ 010   ----------------------------------------
 .byte   W96
@ 011   ----------------------------------------
 .byte   W96
@ 012   ----------------------------------------
 .byte   W96
@ 013   ----------------------------------------
 .byte   W96
@ 014   ----------------------------------------
 .byte   W96
@ 015   ----------------------------------------
 .byte   W96
@ 016   ----------------------------------------
 .byte   W96
@ 017   ----------------------------------------
 .byte   W96
@ 018   ----------------------------------------
 .byte   W96
@ 019   ----------------------------------------
 .byte   W96
@ 020   ----------------------------------------
 .byte   W96
@ 021   ----------------------------------------
 .byte   W96
@ 022   ----------------------------------------
 .byte   W96
@ 023   ----------------------------------------
 .byte   W96
@ 024   ----------------------------------------
 .byte   W96
@ 025   ----------------------------------------
 .byte   W96
@ 026   ----------------------------------------
 .byte   W96
@ 027   ----------------------------------------
 .byte   W96
@ 028   ----------------------------------------
 .byte   W96
@ 029   ----------------------------------------
 .byte   W96
@ 030   ----------------------------------------
 .byte   W96
@ 031   ----------------------------------------
 .byte   W96
@ 032   ----------------------------------------
 .byte   W96
@ 033   ----------------------------------------
 .byte   W96
@ 034   ----------------------------------------
 .byte   W96
@ 035   ----------------------------------------
 .byte   W96
@ 036   ----------------------------------------
 .byte   W96
@ 037   ----------------------------------------
 .byte   W96
@ 038   ----------------------------------------
 .byte   W96
@ 039   ----------------------------------------
 .byte   W96
@ 040   ----------------------------------------
 .byte   W96
@ 041   ----------------------------------------
 .byte   W96
@ 042   ----------------------------------------
 .byte   W12
 .byte   TIE ,Cs2 ,v120
 .byte   W84
@ 043   ----------------------------------------
 .byte   W96
@ 044   ----------------------------------------
 .byte   W96
@ 045   ----------------------------------------
 .byte   W96
@ 046   ----------------------------------------
 .byte   W12
 .byte   EOT
 .byte   TIE
 .byte   W84
@ 047   ----------------------------------------
 .byte   W96
@ 048   ----------------------------------------
 .byte   W96
@ 049   ----------------------------------------
 .byte   W96
@ 050   ----------------------------------------
 .byte   W12
 .byte   EOT
 .byte   TIE ,Fn2
 .byte   W84
@ 051   ----------------------------------------
 .byte   W96
@ 052   ----------------------------------------
 .byte   W12
 .byte   EOT
 .byte   TIE ,En1
 .byte   W84
@ 053   ----------------------------------------
 .byte   W96
@ 054   ----------------------------------------
 .byte   W96
@ 055   ----------------------------------------
 .byte   W96
@ 056   ----------------------------------------
 .byte   W12
 .byte   EOT
 .byte   TIE ,Dn2 ,v112
 .byte   W84
@ 057   ----------------------------------------
 .byte   W96
@ 058   ----------------------------------------
 .byte   W12
 .byte   EOT
 .byte   W84
@ 059   ----------------------------------------
 .byte   W96
@ 060   ----------------------------------------
 .byte   W12
 .byte   GOTO
  .word Label_2_0127C31F
 .byte   FINE

@**************** Track 4 (Midi-Chn.3) ****************@

songAD_004:
@ 000   ----------------------------------------
 .byte   KEYSH , songAD_key+0
 .byte   VOICE , 48
 .byte   VOL , 29*songAD_mvl/mxv
 .byte   PAN , c_v-14
 .byte   W96
@ 001   ----------------------------------------
 .byte   W96
@ 002   ----------------------------------------
 .byte   W96
@ 003   ----------------------------------------
 .byte   W96
@ 004   ----------------------------------------
 .byte   W96
@ 005   ----------------------------------------
 .byte   W96
@ 006   ----------------------------------------
Label_3_0127C386:
 .byte   W96
@ 007   ----------------------------------------
 .byte   W96
@ 008   ----------------------------------------
 .byte   W96
@ 009   ----------------------------------------
 .byte   W96
@ 010   ----------------------------------------
 .byte   W96
@ 011   ----------------------------------------
 .byte   W96
@ 012   ----------------------------------------
 .byte   W96
@ 013   ----------------------------------------
 .byte   W96
@ 014   ----------------------------------------
 .byte   W96
@ 015   ----------------------------------------
 .byte   W96
@ 016   ----------------------------------------
 .byte   W96
@ 017   ----------------------------------------
 .byte   W96
@ 018   ----------------------------------------
 .byte   W96
@ 019   ----------------------------------------
 .byte   W96
@ 020   ----------------------------------------
 .byte   W12
 .byte   N06 ,Ds3 ,v127
 .byte   N06 ,Gn3
 .byte   W24
 .byte   Ds3 ,v108
 .byte   N06 ,Gn3
 .byte   W12
 .byte   Ds3 ,v127
 .byte   N06 ,Gn3
 .byte   W24
 .byte   Ds3 ,v108
 .byte   N06 ,Gn3
 .byte   W12
 .byte   Ds3 ,v116
 .byte   N06 ,Gn3
 .byte   W12
@ 021   ----------------------------------------
Label_3_0127C3AF:
 .byte   N06 ,Ds3 ,v108
 .byte   N06 ,Gn3
 .byte   W12
 .byte   Ds3 ,v127
 .byte   N06 ,Gn3
 .byte   W12
 .byte   Ds3 ,v108
 .byte   N06 ,Gn3
 .byte   W12
 .byte   Ds3
 .byte   N06 ,Gn3
 .byte   W12
 .byte   Ds3 ,v127
 .byte   N06 ,Gn3
 .byte   W24
 .byte   Ds3 ,v108
 .byte   N06 ,Gn3
 .byte   W12
 .byte   Ds3 ,v116
 .byte   N06 ,Gn3
 .byte   W12
 .byte   PEND 
@ 022   ----------------------------------------
Label_3_0127C3D3:
 .byte   N06 ,Ds3 ,v116
 .byte   N06 ,Gn3
 .byte   W12
 .byte   Dn3 ,v127
 .byte   N06 ,Gn3
 .byte   W24
 .byte   Dn3 ,v108
 .byte   N06 ,Gn3
 .byte   W12
 .byte   Dn3 ,v127
 .byte   N06 ,Gn3
 .byte   W24
 .byte   Dn3 ,v108
 .byte   N06 ,Gn3
 .byte   W12
 .byte   Dn3 ,v116
 .byte   N06 ,Gn3
 .byte   W12
 .byte   PEND 
@ 023   ----------------------------------------
Label_3_0127C3F3:
 .byte   N06 ,Dn3 ,v108
 .byte   N06 ,Gn3
 .byte   W12
 .byte   Dn3 ,v127
 .byte   N06 ,Gn3
 .byte   W12
 .byte   Dn3 ,v108
 .byte   N06 ,Gn3
 .byte   W12
 .byte   Dn3
 .byte   N06 ,Gn3
 .byte   W12
 .byte   Dn3 ,v127
 .byte   N06 ,Gn3
 .byte   W24
 .byte   Dn3 ,v108
 .byte   N06 ,Gn3
 .byte   W12
 .byte   Dn3 ,v116
 .byte   N06 ,Gn3
 .byte   W12
 .byte   PEND 
@ 024   ----------------------------------------
 .byte   Dn3
 .byte   N06 ,Gn3
 .byte   W12
 .byte   Ds3 ,v127
 .byte   N06 ,Gn3
 .byte   W24
 .byte   Ds3 ,v108
 .byte   N06 ,Gn3
 .byte   W12
 .byte   Ds3 ,v127
 .byte   N06 ,Gn3
 .byte   W24
 .byte   Ds3 ,v108
 .byte   N06 ,Gn3
 .byte   W12
 .byte   Ds3 ,v116
 .byte   N06 ,Gn3
 .byte   W12
@ 025   ----------------------------------------
 .byte   PATT
  .word Label_3_0127C3AF
@ 026   ----------------------------------------
 .byte   PATT
  .word Label_3_0127C3D3
@ 027   ----------------------------------------
 .byte   PATT
  .word Label_3_0127C3F3
@ 028   ----------------------------------------
 .byte   N06 ,Dn3 ,v116
 .byte   N06 ,Gn3
 .byte   W12
 .byte   Fn3 ,v127
 .byte   N06 ,An3
 .byte   W24
 .byte   Fn3 ,v108
 .byte   N06 ,An3
 .byte   W12
 .byte   Fn3 ,v127
 .byte   N06 ,An3
 .byte   W24
 .byte   Fn3 ,v108
 .byte   N06 ,An3
 .byte   W12
 .byte   Fn3 ,v116
 .byte   N06 ,An3
 .byte   W12
@ 029   ----------------------------------------
Label_3_0127C462:
 .byte   N06 ,Fn3 ,v108
 .byte   N06 ,An3
 .byte   W12
 .byte   Gn3 ,v127
 .byte   N06 ,As3
 .byte   W12
 .byte   Gn3 ,v108
 .byte   N06 ,As3
 .byte   W12
 .byte   Gn3
 .byte   N06 ,As3
 .byte   W12
 .byte   Gn3 ,v127
 .byte   N06 ,As3
 .byte   W24
 .byte   Gn3 ,v108
 .byte   N06 ,As3
 .byte   W12
 .byte   Gn3 ,v116
 .byte   N06 ,As3
 .byte   W12
 .byte   PEND 
@ 030   ----------------------------------------
Label_3_0127C486:
 .byte   N06 ,Gn3 ,v116
 .byte   N06 ,As3
 .byte   W12
 .byte   Fn3 ,v127
 .byte   N06 ,An3
 .byte   W24
 .byte   Fn3 ,v108
 .byte   N06 ,An3
 .byte   W12
 .byte   Fn3 ,v127
 .byte   N06 ,An3
 .byte   W24
 .byte   Fn3 ,v108
 .byte   N06 ,An3
 .byte   W12
 .byte   Fn3 ,v116
 .byte   N06 ,An3
 .byte   W12
 .byte   PEND 
@ 031   ----------------------------------------
 .byte   PATT
  .word Label_3_0127C462
@ 032   ----------------------------------------
 .byte   PATT
  .word Label_3_0127C486
@ 033   ----------------------------------------
 .byte   PATT
  .word Label_3_0127C462
@ 034   ----------------------------------------
 .byte   PATT
  .word Label_3_0127C486
@ 035   ----------------------------------------
 .byte   PATT
  .word Label_3_0127C462
@ 036   ----------------------------------------
 .byte   N06 ,Gn3 ,v116
 .byte   N06 ,As3
 .byte   W96
@ 037   ----------------------------------------
 .byte   W96
@ 038   ----------------------------------------
 .byte   W96
@ 039   ----------------------------------------
 .byte   W96
@ 040   ----------------------------------------
 .byte   W96
@ 041   ----------------------------------------
 .byte   W96
@ 042   ----------------------------------------
 .byte   W96
@ 043   ----------------------------------------
 .byte   W96
@ 044   ----------------------------------------
 .byte   W96
@ 045   ----------------------------------------
 .byte   W96
@ 046   ----------------------------------------
 .byte   W96
@ 047   ----------------------------------------
 .byte   W96
@ 048   ----------------------------------------
 .byte   W96
@ 049   ----------------------------------------
 .byte   W96
@ 050   ----------------------------------------
 .byte   W96
@ 051   ----------------------------------------
 .byte   W96
@ 052   ----------------------------------------
 .byte   W96
@ 053   ----------------------------------------
 .byte   W96
@ 054   ----------------------------------------
 .byte   W96
@ 055   ----------------------------------------
 .byte   W96
@ 056   ----------------------------------------
 .byte   W96
@ 057   ----------------------------------------
 .byte   W96
@ 058   ----------------------------------------
 .byte   W96
@ 059   ----------------------------------------
 .byte   W96
@ 060   ----------------------------------------
 .byte   W12
 .byte   GOTO
  .word Label_3_0127C386
 .byte   FINE

@**************** Track 5 (Midi-Chn.4) ****************@

songAD_005:
@ 000   ----------------------------------------
 .byte   KEYSH , songAD_key+0
 .byte   VOICE , 60
 .byte   VOL , 41*songAD_mvl/mxv
 .byte   PAN , c_v+0
 .byte   W96
@ 001   ----------------------------------------
 .byte   W96
@ 002   ----------------------------------------
 .byte   W96
@ 003   ----------------------------------------
 .byte   W96
@ 004   ----------------------------------------
 .byte   W96
@ 005   ----------------------------------------
 .byte   W96
@ 006   ----------------------------------------
Label_4_0127C4F2:
 .byte   W96
@ 007   ----------------------------------------
 .byte   W96
@ 008   ----------------------------------------
 .byte   W96
@ 009   ----------------------------------------
 .byte   W96
@ 010   ----------------------------------------
 .byte   W96
@ 011   ----------------------------------------
 .byte   W96
@ 012   ----------------------------------------
 .byte   W96
@ 013   ----------------------------------------
 .byte   W96
@ 014   ----------------------------------------
 .byte   W96
@ 015   ----------------------------------------
 .byte   W96
@ 016   ----------------------------------------
 .byte   W96
@ 017   ----------------------------------------
 .byte   W96
@ 018   ----------------------------------------
 .byte   W96
@ 019   ----------------------------------------
 .byte   W96
@ 020   ----------------------------------------
Label_4_0127C500:
 .byte   W60
 .byte   N48 ,Ds2 ,v108
 .byte   N48 ,Gs2 ,v120
 .byte   W36
 .byte   PEND 
@ 021   ----------------------------------------
Label_4_0127C509:
 .byte   W12
 .byte   N48 ,Gs2 ,v112
 .byte   N48 ,Ds3 ,v120
 .byte   W48
 .byte   Cn3 ,v116
 .byte   N48 ,Gs3 ,v120
 .byte   W36
 .byte   PEND 
@ 022   ----------------------------------------
Label_4_0127C518:
 .byte   W12
 .byte   N96 ,As2 ,v116
 .byte   N96 ,Gn3 ,v120
 .byte   W84
 .byte   PEND 
@ 023   ----------------------------------------
Label_4_0127C521:
 .byte   W12
 .byte   N48 ,Gn2 ,v112
 .byte   N48 ,Dn3 ,v120
 .byte   W48
 .byte   As2 ,v108
 .byte   N48 ,Gn3 ,v120
 .byte   W36
 .byte   PEND 
@ 024   ----------------------------------------
 .byte   PATT
  .word Label_4_0127C500
@ 025   ----------------------------------------
 .byte   PATT
  .word Label_4_0127C509
@ 026   ----------------------------------------
 .byte   PATT
  .word Label_4_0127C518
@ 027   ----------------------------------------
 .byte   PATT
  .word Label_4_0127C521
@ 028   ----------------------------------------
 .byte   W96
@ 029   ----------------------------------------
 .byte   W96
@ 030   ----------------------------------------
 .byte   W96
@ 031   ----------------------------------------
 .byte   W96
@ 032   ----------------------------------------
 .byte   W96
@ 033   ----------------------------------------
 .byte   W96
@ 034   ----------------------------------------
 .byte   W96
@ 035   ----------------------------------------
 .byte   W96
@ 036   ----------------------------------------
 .byte   W96
@ 037   ----------------------------------------
 .byte   W96
@ 038   ----------------------------------------
 .byte   W36
 .byte   N24 ,Dn2 ,v124
 .byte   W24
 .byte   An2
 .byte   W24
 .byte   As2
 .byte   W12
@ 039   ----------------------------------------
 .byte   W12
 .byte   N96 ,Gn2
 .byte   W84
@ 040   ----------------------------------------
 .byte   W36
 .byte   N24 ,Fs2 ,v120
 .byte   W24
 .byte   Cs3
 .byte   W24
 .byte   As2
 .byte   W12
@ 041   ----------------------------------------
 .byte   W12
 .byte   N96 ,Bn2
 .byte   W84
@ 042   ----------------------------------------
 .byte   W96
@ 043   ----------------------------------------
 .byte   W96
@ 044   ----------------------------------------
 .byte   W96
@ 045   ----------------------------------------
 .byte   W96
@ 046   ----------------------------------------
 .byte   W96
@ 047   ----------------------------------------
 .byte   W96
@ 048   ----------------------------------------
 .byte   W96
@ 049   ----------------------------------------
 .byte   W96
@ 050   ----------------------------------------
 .byte   W96
@ 051   ----------------------------------------
 .byte   W96
@ 052   ----------------------------------------
 .byte   W96
@ 053   ----------------------------------------
 .byte   W96
@ 054   ----------------------------------------
 .byte   W96
@ 055   ----------------------------------------
 .byte   W96
@ 056   ----------------------------------------
 .byte   W96
@ 057   ----------------------------------------
 .byte   W96
@ 058   ----------------------------------------
 .byte   W96
@ 059   ----------------------------------------
 .byte   W96
@ 060   ----------------------------------------
 .byte   W12
 .byte   GOTO
  .word Label_4_0127C4F2
 .byte   FINE

@**************** Track 6 (Midi-Chn.5) ****************@

songAD_006:
@ 000   ----------------------------------------
 .byte   KEYSH , songAD_key+0
 .byte   VOICE , 52
 .byte   VOL , 25*songAD_mvl/mxv
 .byte   PAN , c_v+10
 .byte   W12
 .byte   TIE ,Dn3 ,v127
 .byte   TIE ,An3
 .byte   W84
@ 001   ----------------------------------------
 .byte   W96
@ 002   ----------------------------------------
 .byte   W12
 .byte   EOT
 .byte   Dn3 ,v069
 .byte   TIE ,Cs3
 .byte   TIE ,An3
 .byte   W84
@ 003   ----------------------------------------
 .byte   W96
@ 004   ----------------------------------------
 .byte   W12
 .byte   EOT
 .byte   Cs3 ,v069
 .byte   TIE ,Dn3
 .byte   TIE ,An3
 .byte   W84
@ 005   ----------------------------------------
Label_5_0127C5A7:
 .byte   W12
 .byte   W01
 .byte   W01
 .byte   W02
 .byte   W01
 .byte   W01
 .byte   W02
 .byte   W01
 .byte   W01
 .byte   W01
 .byte   W02
 .byte   W01
 .byte   W01
 .byte   W02
 .byte   W01
 .byte   W01
 .byte   W03
 .byte   W01
 .byte   W01
 .byte   W02
 .byte   W01
 .byte   W01
 .byte   W02
 .byte   W01
 .byte   W01
 .byte   W02
 .byte   W01
 .byte   W01
 .byte   W02
 .byte   W01
 .byte   W01
 .byte   W03
 .byte   W01
 .byte   W01
 .byte   W02
 .byte   W01
 .byte   W02
 .byte   W01
 .byte   W01
 .byte   W01
 .byte   W02
 .byte   W01
 .byte   W01
 .byte   W02
 .byte   W01
 .byte   W01
 .byte   W03
 .byte   W01
 .byte   W01
 .byte   W02
 .byte   W01
 .byte   W01
 .byte   W02
 .byte   W01
 .byte   W01
 .byte   W01
 .byte   W02
 .byte   W01
 .byte   W01
 .byte   W02
 .byte   W01
 .byte   W01
 .byte   W01
 .byte   PEND 
@ 006   ----------------------------------------
Label_5_0127C5E7:
 .byte   W02
 .byte   W01
 .byte   W01
 .byte   W02
 .byte   W01
 .byte   W01
 .byte   W02
 .byte   W01
 .byte   W01
 .byte   PEND 
 .byte   EOT
 .byte   Dn3 ,v069
 .byte   W84
@ 007   ----------------------------------------
 .byte   W12
 .byte   W84
@ 008   ----------------------------------------
 .byte   W96
@ 009   ----------------------------------------
 .byte   W96
@ 010   ----------------------------------------
 .byte   W96
@ 011   ----------------------------------------
 .byte   W96
@ 012   ----------------------------------------
 .byte   W96
@ 013   ----------------------------------------
 .byte   W96
@ 014   ----------------------------------------
 .byte   W96
@ 015   ----------------------------------------
 .byte   W96
@ 016   ----------------------------------------
 .byte   W96
@ 017   ----------------------------------------
 .byte   W96
@ 018   ----------------------------------------
 .byte   W96
@ 019   ----------------------------------------
 .byte   W96
@ 020   ----------------------------------------
 .byte   W12
 .byte   TIE ,Cn3 ,v120
 .byte   TIE ,Gs3
 .byte   W84
@ 021   ----------------------------------------
 .byte   W96
@ 022   ----------------------------------------
 .byte   W12
 .byte   EOT
 .byte   Cn3 ,v068
 .byte   TIE ,As2
 .byte   TIE ,Gn3
 .byte   W84
@ 023   ----------------------------------------
 .byte   W96
@ 024   ----------------------------------------
 .byte   W12
 .byte   EOT
 .byte   As2 ,v067
 .byte   TIE ,Cn3
 .byte   TIE ,Gs3
 .byte   W84
@ 025   ----------------------------------------
 .byte   W96
@ 026   ----------------------------------------
 .byte   W12
 .byte   EOT
 .byte   Cn3 ,v068
 .byte   TIE ,As2
 .byte   TIE ,Gn3
 .byte   W84
@ 027   ----------------------------------------
 .byte   W96
@ 028   ----------------------------------------
 .byte   W12
 .byte   EOT
 .byte   As2 ,v067
 .byte   W84
@ 029   ----------------------------------------
 .byte   W96
@ 030   ----------------------------------------
 .byte   W96
@ 031   ----------------------------------------
 .byte   W96
@ 032   ----------------------------------------
 .byte   W96
@ 033   ----------------------------------------
 .byte   W96
@ 034   ----------------------------------------
 .byte   W96
@ 035   ----------------------------------------
 .byte   W96
@ 036   ----------------------------------------
 .byte   W12
 .byte   N96 ,Dn3 ,v127
 .byte   N96 ,An3
 .byte   W84
@ 037   ----------------------------------------
 .byte   W12
 .byte   En3
 .byte   N96 ,As3
 .byte   W84
@ 038   ----------------------------------------
 .byte   W12
 .byte   An3
 .byte   N96 ,Cn4
 .byte   W84
@ 039   ----------------------------------------
 .byte   W12
 .byte   As3
 .byte   N96 ,Dn4
 .byte   W84
@ 040   ----------------------------------------
 .byte   W12
 .byte   As3
 .byte   N96 ,En4
 .byte   W84
@ 041   ----------------------------------------
 .byte   W12
 .byte   Bn3
 .byte   N96 ,Fs4
 .byte   W84
@ 042   ----------------------------------------
 .byte   W12
 .byte   TIE ,As3 ,v120
 .byte   TIE ,Fs4
 .byte   W84
@ 043   ----------------------------------------
 .byte   W96
@ 044   ----------------------------------------
 .byte   W96
@ 045   ----------------------------------------
 .byte   W96
@ 046   ----------------------------------------
 .byte   W12
 .byte   EOT
 .byte   As3 ,v078
 .byte   TIE ,As3
 .byte   TIE ,Fs4
 .byte   W84
@ 047   ----------------------------------------
 .byte   W96
@ 048   ----------------------------------------
 .byte   W96
@ 049   ----------------------------------------
 .byte   W96
@ 050   ----------------------------------------
 .byte   W12
 .byte   EOT
 .byte   As3 ,v078
 .byte   TIE ,An3
 .byte   TIE ,Fn4
 .byte   W84
@ 051   ----------------------------------------
 .byte   W96
@ 052   ----------------------------------------
 .byte   W12
 .byte   EOT
 .byte   An3 ,v077
 .byte   TIE ,Gn3
 .byte   TIE ,Ds4
 .byte   W84
@ 053   ----------------------------------------
 .byte   W96
@ 054   ----------------------------------------
 .byte   W96
@ 055   ----------------------------------------
 .byte   W96
@ 056   ----------------------------------------
 .byte   W12
 .byte   EOT
 .byte   Gn3 ,v075
 .byte   TIE ,An3 ,v127
 .byte   TIE ,Dn4
 .byte   W84
@ 057   ----------------------------------------
 .byte   PATT
  .word Label_5_0127C5A7
@ 058   ----------------------------------------
 .byte   PATT
  .word Label_5_0127C5E7
@ 059   ----------------------------------------
 .byte   EOT
 .byte   An3 ,v074
 .byte   W84
 .byte   W12
@ 060   ----------------------------------------
 .byte   W84
 .byte   W12
@ 061   ----------------------------------------
 .byte   GOTO
  .word Label_5_0127C5E7
 .byte   FINE

@**************** Track 7 (Midi-Chn.6) ****************@

songAD_007:
@ 000   ----------------------------------------
 .byte   KEYSH , songAD_key+0
 .byte   VOICE , 47
 .byte   VOL , 38*songAD_mvl/mxv
 .byte   PAN , c_v+0
 .byte   N04 ,Dn1 ,v100
 .byte   W04
 .byte   Dn1 ,v112
 .byte   W04
 .byte   Dn1 ,v120
 .byte   W04
 .byte   N12 ,Dn1 ,v127
 .byte   W84
@ 001   ----------------------------------------
 .byte   W96
@ 002   ----------------------------------------
 .byte   W96
@ 003   ----------------------------------------
 .byte   W96
@ 004   ----------------------------------------
 .byte   N04 ,Dn1 ,v100
 .byte   W04
 .byte   Dn1 ,v112
 .byte   W04
 .byte   Dn1 ,v120
 .byte   W04
 .byte   N12 ,Dn1 ,v127
 .byte   W36
 .byte   N24 ,Dn1 ,v100
 .byte   W48
@ 005   ----------------------------------------
Label_6_0127C6CF:
 .byte   W12
 .byte   N12 ,Dn1 ,v112
 .byte   W12
 .byte   Dn1 ,v100
 .byte   W24
 .byte   N24 ,Dn1 ,v108
 .byte   W48
 .byte   PEND 
@ 006   ----------------------------------------
Label_6_0127C6DC:
 .byte   N06 ,Dn1 ,v092
 .byte   W06
 .byte   Dn1 ,v100
 .byte   W06
 .byte   N12 ,Dn1 ,v120
 .byte   W36
 .byte   N24 ,Dn1 ,v100
 .byte   W48
 .byte   PEND 
@ 007   ----------------------------------------
 .byte   PATT
  .word Label_6_0127C6CF
@ 008   ----------------------------------------
 .byte   PATT
  .word Label_6_0127C6DC
@ 009   ----------------------------------------
 .byte   PATT
  .word Label_6_0127C6CF
@ 010   ----------------------------------------
 .byte   PATT
  .word Label_6_0127C6DC
@ 011   ----------------------------------------
 .byte   PATT
  .word Label_6_0127C6CF
@ 012   ----------------------------------------
 .byte   PATT
  .word Label_6_0127C6DC
@ 013   ----------------------------------------
 .byte   PATT
  .word Label_6_0127C6CF
@ 014   ----------------------------------------
 .byte   PATT
  .word Label_6_0127C6DC
@ 015   ----------------------------------------
 .byte   PATT
  .word Label_6_0127C6CF
@ 016   ----------------------------------------
 .byte   PATT
  .word Label_6_0127C6DC
@ 017   ----------------------------------------
Label_6_0127C71E:
 .byte   W12
 .byte   N12 ,Gn1 ,v112
 .byte   W12
 .byte   Gn1 ,v100
 .byte   W24
 .byte   N24 ,Gn1 ,v108
 .byte   W48
 .byte   PEND 
@ 018   ----------------------------------------
Label_6_0127C72B:
 .byte   N06 ,Gn1 ,v092
 .byte   W06
 .byte   Gn1 ,v100
 .byte   W06
 .byte   N12 ,Dn1 ,v120
 .byte   W36
 .byte   N24 ,Dn1 ,v100
 .byte   W48
 .byte   PEND 
@ 019   ----------------------------------------
Label_6_0127C73B:
 .byte   W12
 .byte   N24 ,Gn1 ,v120
 .byte   W24
 .byte   N12 ,Dn1 ,v092
 .byte   W12
 .byte   N24 ,Gn1 ,v120
 .byte   W12
 .byte   N12 ,Dn1 ,v092
 .byte   W24
 .byte   Gn1 ,v120
 .byte   W12
 .byte   PEND 
@ 020   ----------------------------------------
 .byte   Dn1 ,v092
 .byte   W12
 .byte   Gs1 ,v120
 .byte   W36
 .byte   N24 ,Gs1 ,v100
 .byte   W48
@ 021   ----------------------------------------
Label_6_0127C75A:
 .byte   W12
 .byte   N12 ,Gs1 ,v112
 .byte   W12
 .byte   Gs1 ,v100
 .byte   W24
 .byte   N24 ,Gs1 ,v108
 .byte   W48
 .byte   PEND 
@ 022   ----------------------------------------
Label_6_0127C767:
 .byte   N06 ,Gs1 ,v092
 .byte   W06
 .byte   Gs1 ,v100
 .byte   W06
 .byte   N12 ,Gn1 ,v120
 .byte   W36
 .byte   N24 ,Gn1 ,v100
 .byte   W48
 .byte   PEND 
@ 023   ----------------------------------------
 .byte   PATT
  .word Label_6_0127C71E
@ 024   ----------------------------------------
 .byte   N06 ,Gn1 ,v092
 .byte   W06
 .byte   Gn1 ,v100
 .byte   W06
 .byte   N12 ,Gs1 ,v120
 .byte   W36
 .byte   N24 ,Gs1 ,v100
 .byte   W48
@ 025   ----------------------------------------
 .byte   PATT
  .word Label_6_0127C75A
@ 026   ----------------------------------------
 .byte   PATT
  .word Label_6_0127C767
@ 027   ----------------------------------------
 .byte   PATT
  .word Label_6_0127C71E
@ 028   ----------------------------------------
 .byte   PATT
  .word Label_6_0127C72B
@ 029   ----------------------------------------
 .byte   PATT
  .word Label_6_0127C71E
@ 030   ----------------------------------------
 .byte   PATT
  .word Label_6_0127C72B
@ 031   ----------------------------------------
 .byte   PATT
  .word Label_6_0127C73B
@ 032   ----------------------------------------
 .byte   N12 ,Dn1 ,v092
 .byte   W12
 .byte   Dn1 ,v120
 .byte   W36
 .byte   N24 ,Dn1 ,v100
 .byte   W48
@ 033   ----------------------------------------
 .byte   PATT
  .word Label_6_0127C71E
@ 034   ----------------------------------------
 .byte   PATT
  .word Label_6_0127C72B
@ 035   ----------------------------------------
 .byte   PATT
  .word Label_6_0127C71E
@ 036   ----------------------------------------
 .byte   N06 ,Gn1 ,v092
 .byte   W06
 .byte   Gn1 ,v100
 .byte   W06
 .byte   N24 ,Dn1 ,v127
 .byte   W84
@ 037   ----------------------------------------
 .byte   W96
@ 038   ----------------------------------------
 .byte   W96
@ 039   ----------------------------------------
 .byte   W96
@ 040   ----------------------------------------
 .byte   W96
@ 041   ----------------------------------------
 .byte   W96
@ 042   ----------------------------------------
 .byte   W12
 .byte   N12 ,Fs1
 .byte   W36
 .byte   N24 ,Fs1 ,v100
 .byte   W48
@ 043   ----------------------------------------
Label_6_0127C7E0:
 .byte   W12
 .byte   N12 ,Fs1 ,v112
 .byte   W12
 .byte   Fs1 ,v100
 .byte   W24
 .byte   N24 ,Fs1 ,v108
 .byte   W48
 .byte   PEND 
@ 044   ----------------------------------------
Label_6_0127C7ED:
 .byte   N06 ,Fs1 ,v092
 .byte   W06
 .byte   Fs1 ,v100
 .byte   W06
 .byte   N12 ,Fs1 ,v120
 .byte   W36
 .byte   N24 ,Fs1 ,v100
 .byte   W48
 .byte   PEND 
@ 045   ----------------------------------------
 .byte   PATT
  .word Label_6_0127C7E0
@ 046   ----------------------------------------
 .byte   N06 ,Fs1 ,v092
 .byte   W06
 .byte   Fs1 ,v100
 .byte   W06
 .byte   N12 ,Fs1 ,v127
 .byte   W36
 .byte   N24 ,Fs1 ,v100
 .byte   W48
@ 047   ----------------------------------------
 .byte   PATT
  .word Label_6_0127C7E0
@ 048   ----------------------------------------
 .byte   PATT
  .word Label_6_0127C7ED
@ 049   ----------------------------------------
 .byte   PATT
  .word Label_6_0127C7E0
@ 050   ----------------------------------------
 .byte   N06 ,Fs1 ,v092
 .byte   W06
 .byte   Fs1 ,v100
 .byte   W06
 .byte   N12 ,Fn1 ,v112
 .byte   W12
 .byte   Fn1 ,v100
 .byte   W24
 .byte   N24 ,Fn1 ,v108
 .byte   W48
@ 051   ----------------------------------------
 .byte   N06 ,Fn1 ,v092
 .byte   W06
 .byte   Fn1 ,v100
 .byte   W06
 .byte   N12 ,Fn1 ,v127
 .byte   W36
 .byte   N24 ,Fn1 ,v100
 .byte   W48
@ 052   ----------------------------------------
Label_6_0127C841:
 .byte   W12
 .byte   N12 ,Ds1 ,v112
 .byte   W12
 .byte   Ds1 ,v100
 .byte   W24
 .byte   N24 ,Ds1 ,v108
 .byte   W48
 .byte   PEND 
@ 053   ----------------------------------------
Label_6_0127C84E:
 .byte   N06 ,Ds1 ,v092
 .byte   W06
 .byte   Ds1 ,v100
 .byte   W06
 .byte   N12 ,Ds1 ,v127
 .byte   W36
 .byte   N24 ,Ds1 ,v100
 .byte   W48
 .byte   PEND 
@ 054   ----------------------------------------
 .byte   PATT
  .word Label_6_0127C841
@ 055   ----------------------------------------
 .byte   PATT
  .word Label_6_0127C84E
@ 056   ----------------------------------------
 .byte   W12
 .byte   N12 ,Dn1 ,v127
 .byte   W36
 .byte   N24 ,Dn1 ,v100
 .byte   W48
@ 057   ----------------------------------------
 .byte   PATT
  .word Label_6_0127C6CF
@ 058   ----------------------------------------
 .byte   PATT
  .word Label_6_0127C6DC
@ 059   ----------------------------------------
 .byte   PATT
  .word Label_6_0127C6CF
@ 060   ----------------------------------------
 .byte   N06 ,Dn1 ,v092
 .byte   W06
 .byte   Dn1 ,v100
 .byte   W06
 .byte   GOTO
  .word Label_6_0127C6DC
 .byte   FINE

@**************** Track 8 (Midi-Chn.7) ****************@

songAD_008:
@ 000   ----------------------------------------
 .byte   KEYSH , songAD_key+0
 .byte   VOICE , 1
 .byte   VOL , 29*songAD_mvl/mxv
 .byte   PAN , c_v+4
 .byte   W36
 .byte   N24 ,An2 ,v120
 .byte   N24 ,Dn3
 .byte   N24 ,An3
 .byte   W24
 .byte   En3
 .byte   N24 ,An3
 .byte   N24 ,En4
 .byte   W24
 .byte   Dn3
 .byte   N24 ,An3
 .byte   N24 ,Dn4
 .byte   W12
@ 001   ----------------------------------------
 .byte   W12
 .byte   Fn3
 .byte   N24 ,An3
 .byte   N24 ,Fn4
 .byte   W24
 .byte   En3
 .byte   N24 ,An3
 .byte   N24 ,En4
 .byte   W24
 .byte   An3
 .byte   N24 ,Dn4
 .byte   N24 ,An4
 .byte   W24
 .byte   Gn3
 .byte   N24 ,Dn4
 .byte   N24 ,Gn4
 .byte   W12
@ 002   ----------------------------------------
 .byte   W12
 .byte   As3
 .byte   N24 ,Cs4
 .byte   N24 ,As4
 .byte   W24
 .byte   An3
 .byte   N24 ,Cs4
 .byte   N24 ,An4
 .byte   W24
 .byte   As3
 .byte   N24 ,Cs4
 .byte   N24 ,As4
 .byte   W24
 .byte   Gn3
 .byte   N24 ,Cs4
 .byte   N24 ,Gn4
 .byte   W12
@ 003   ----------------------------------------
 .byte   W12
 .byte   N96 ,En3
 .byte   N96 ,Gn3
 .byte   N96 ,En4
 .byte   W84
@ 004   ----------------------------------------
 .byte   W96
@ 005   ----------------------------------------
 .byte   W96
@ 006   ----------------------------------------
Label_7_0127C8E9:
 .byte   W96
@ 007   ----------------------------------------
 .byte   W96
@ 008   ----------------------------------------
 .byte   W96
@ 009   ----------------------------------------
 .byte   W96
@ 010   ----------------------------------------
 .byte   W96
@ 011   ----------------------------------------
 .byte   W96
@ 012   ----------------------------------------
 .byte   W96
@ 013   ----------------------------------------
 .byte   W96
@ 014   ----------------------------------------
 .byte   W96
@ 015   ----------------------------------------
 .byte   W96
@ 016   ----------------------------------------
 .byte   W96
@ 017   ----------------------------------------
 .byte   W96
@ 018   ----------------------------------------
 .byte   W96
@ 019   ----------------------------------------
 .byte   W96
@ 020   ----------------------------------------
 .byte   W12
 .byte   N36 ,As3 ,v127
 .byte   N36 ,Dn4
 .byte   N36 ,As4
 .byte   W36
 .byte   N06 ,Gs3
 .byte   N06 ,Dn4
 .byte   N06 ,Gs4
 .byte   W06
 .byte   Gn3
 .byte   N06 ,Gn4
 .byte   W06
 .byte   N48 ,Gs3
 .byte   N48 ,Dn4
 .byte   N48 ,Gs4
 .byte   W36
@ 021   ----------------------------------------
 .byte   W36
 .byte   N24 ,Ds3
 .byte   N24 ,Gs3
 .byte   N24 ,Ds4
 .byte   W24
 .byte   Gs3
 .byte   N24 ,Ds4
 .byte   N24 ,Gs4
 .byte   W24
 .byte   As3
 .byte   N24 ,Ds4
 .byte   N24 ,As4
 .byte   W12
@ 022   ----------------------------------------
 .byte   W12
 .byte   N36 ,Cn4
 .byte   N36 ,Gn4
 .byte   N36 ,Cn5
 .byte   W36
 .byte   N48 ,Dn4
 .byte   N48 ,Gn4
 .byte   N48 ,Dn5
 .byte   W48
@ 023   ----------------------------------------
 .byte   W60
 .byte   N24 ,Dn4
 .byte   N24 ,Gn4
 .byte   N24 ,Dn5
 .byte   W24
 .byte   Ds4
 .byte   N24 ,Gn4
 .byte   N24 ,Ds5
 .byte   W12
@ 024   ----------------------------------------
 .byte   W12
 .byte   N36 ,Fn4
 .byte   N36 ,Cn5
 .byte   N36 ,Fn5
 .byte   W36
 .byte   N06 ,Ds4
 .byte   N06 ,Gs4
 .byte   N06 ,Ds5
 .byte   W06
 .byte   Dn4
 .byte   N06 ,Dn5
 .byte   W06
 .byte   N48 ,Ds4
 .byte   N48 ,Gs4
 .byte   N48 ,Ds5
 .byte   W36
@ 025   ----------------------------------------
 .byte   W36
 .byte   N24 ,Ds4
 .byte   N24 ,Gs4
 .byte   N24 ,Ds5
 .byte   W24
 .byte   Fn4
 .byte   N24 ,Gs4
 .byte   N24 ,Fn5
 .byte   W24
 .byte   Gn4
 .byte   N24 ,Cn5
 .byte   N24 ,Gn5
 .byte   W12
@ 026   ----------------------------------------
 .byte   W12
 .byte   N36 ,Dn4
 .byte   N36 ,Gn4
 .byte   N36 ,Dn5
 .byte   W36
 .byte   N48 ,Gn4
 .byte   N48 ,Dn5
 .byte   N48 ,Gn5
 .byte   W48
@ 027   ----------------------------------------
 .byte   W96
@ 028   ----------------------------------------
Label_7_0127C981:
 .byte   W10
 .byte   N72 ,Dn3 ,v120
 .byte   W02
 .byte   An3 ,v112
 .byte   W03
 .byte   N68 ,Dn4 ,v127
 .byte   W68
 .byte   W01
 .byte   N12 ,An3 ,v120
 .byte   N12 ,En4 ,v127
 .byte   W12
 .byte   PEND 
@ 029   ----------------------------------------
Label_7_0127C996:
 .byte   N12 ,Dn4 ,v120
 .byte   N12 ,Fn4 ,v127
 .byte   W12
 .byte   N36 ,Dn4 ,v120
 .byte   N36 ,Gn4 ,v127
 .byte   W36
 .byte   Dn4 ,v120
 .byte   N36 ,Fn4 ,v127
 .byte   W36
 .byte   N24 ,As3 ,v120
 .byte   N24 ,En4 ,v127
 .byte   W12
 .byte   PEND 
@ 030   ----------------------------------------
 .byte   W12
 .byte   N72 ,An3 ,v120
 .byte   N72 ,Dn4 ,v127
 .byte   W72
 .byte   N12 ,An3 ,v120
 .byte   N12 ,En4 ,v127
 .byte   W12
@ 031   ----------------------------------------
 .byte   Dn4 ,v120
 .byte   N12 ,Fn4 ,v127
 .byte   W12
 .byte   N36 ,Dn4 ,v120
 .byte   N36 ,Gn4 ,v127
 .byte   W36
 .byte   Dn4 ,v120
 .byte   N36 ,An4 ,v127
 .byte   W36
 .byte   N24 ,Dn4 ,v120
 .byte   N24 ,Fn4 ,v127
 .byte   W12
@ 032   ----------------------------------------
 .byte   PATT
  .word Label_7_0127C981
@ 033   ----------------------------------------
 .byte   PATT
  .word Label_7_0127C996
@ 034   ----------------------------------------
 .byte   W12
 .byte   N96 ,An3 ,v120
 .byte   N96 ,Dn4 ,v127
 .byte   W84
@ 035   ----------------------------------------
 .byte   W96
@ 036   ----------------------------------------
 .byte   W12
 .byte   N24 ,An3 ,v124
 .byte   N24 ,Dn4
 .byte   N24 ,An4
 .byte   W24
 .byte   Dn3
 .byte   N24 ,An3
 .byte   N24 ,Dn4
 .byte   W24
 .byte   En3
 .byte   N24 ,An3
 .byte   N24 ,En4
 .byte   W24
 .byte   Fn3
 .byte   N24 ,An3
 .byte   N24 ,Fn4
 .byte   W12
@ 037   ----------------------------------------
 .byte   W12
 .byte   En3
 .byte   N24 ,An3
 .byte   N24 ,En4
 .byte   W24
 .byte   Cs3
 .byte   N24 ,An3
 .byte   N24 ,Cs4
 .byte   W24
 .byte   An3
 .byte   N24 ,Cs4
 .byte   N24 ,An4
 .byte   W24
 .byte   Gn3
 .byte   N24 ,Gn4
 .byte   W12
@ 038   ----------------------------------------
 .byte   W12
 .byte   Fs3
 .byte   N24 ,An3
 .byte   N24 ,Fs4
 .byte   W24
 .byte   An3
 .byte   N24 ,Cn4
 .byte   N24 ,An4
 .byte   W24
 .byte   Dn4
 .byte   N24 ,Fs4
 .byte   N24 ,Dn5
 .byte   W24
 .byte   Ds4
 .byte   N24 ,Fs4
 .byte   N24 ,Ds5
 .byte   W12
@ 039   ----------------------------------------
 .byte   W12
 .byte   Dn4
 .byte   N24 ,Gn4
 .byte   N24 ,Dn5
 .byte   W24
 .byte   Cn4
 .byte   N24 ,Gn4
 .byte   N24 ,Cn5
 .byte   W24
 .byte   As3
 .byte   N24 ,Dn4
 .byte   N24 ,As4
 .byte   W24
 .byte   Gn3
 .byte   N24 ,Gn4
 .byte   W12
@ 040   ----------------------------------------
 .byte   W12
 .byte   Cs4
 .byte   N24 ,Fs4
 .byte   N24 ,Cs5
 .byte   W24
 .byte   As3
 .byte   N24 ,Fs4
 .byte   N24 ,As4
 .byte   W24
 .byte   Cs4
 .byte   N24 ,Fs4
 .byte   N24 ,Cs5
 .byte   W24
 .byte   Gn4
 .byte   N24 ,As4
 .byte   N24 ,Gn5
 .byte   W12
@ 041   ----------------------------------------
 .byte   W12
 .byte   Fs4
 .byte   N24 ,Bn4
 .byte   N24 ,Fs5
 .byte   W24
 .byte   En4
 .byte   N24 ,Bn4
 .byte   N24 ,En5
 .byte   W24
 .byte   Dn4
 .byte   N24 ,Fs4
 .byte   N24 ,Dn5
 .byte   W24
 .byte   Bn3
 .byte   N24 ,Bn4
 .byte   W12
@ 042   ----------------------------------------
 .byte   W96
@ 043   ----------------------------------------
 .byte   W96
@ 044   ----------------------------------------
 .byte   W96
@ 045   ----------------------------------------
 .byte   W96
@ 046   ----------------------------------------
 .byte   W96
@ 047   ----------------------------------------
 .byte   W60
 .byte   N48 ,Gn3 ,v112
 .byte   N48 ,Bn3 ,v120
 .byte   W36
@ 048   ----------------------------------------
 .byte   W12
 .byte   TIE ,Fs3 ,v112
 .byte   TIE ,As3 ,v120
 .byte   W84
@ 049   ----------------------------------------
 .byte   W60
 .byte   EOT
 .byte   Fs3 ,v070
 .byte   W36
@ 050   ----------------------------------------
 .byte   W96
@ 051   ----------------------------------------
 .byte   W96
@ 052   ----------------------------------------
 .byte   W96
@ 053   ----------------------------------------
 .byte   W96
@ 054   ----------------------------------------
 .byte   W96
@ 055   ----------------------------------------
 .byte   W96
@ 056   ----------------------------------------
 .byte   W96
@ 057   ----------------------------------------
 .byte   W96
@ 058   ----------------------------------------
 .byte   W96
@ 059   ----------------------------------------
 .byte   W96
@ 060   ----------------------------------------
 .byte   W12
 .byte   GOTO
  .word Label_7_0127C8E9
 .byte   FINE

@**************** Track 9 (Midi-Chn.8) ****************@

songAD_009:
@ 000   ----------------------------------------
 .byte   KEYSH , songAD_key+0
 .byte   VOICE , 1
 .byte   VOL , 29*songAD_mvl/mxv
 .byte   PAN , c_v-4
 .byte   W12
 .byte   TIE ,Dn1 ,v120
 .byte   TIE ,Dn2
 .byte   W84
@ 001   ----------------------------------------
 .byte   W96
@ 002   ----------------------------------------
 .byte   W12
 .byte   EOT
 .byte   Dn1 ,v050
 .byte   N96 ,Cs1
 .byte   N96 ,Cs2
 .byte   W84
@ 003   ----------------------------------------
 .byte   W12
 .byte   An0
 .byte   N96 ,An1
 .byte   W84
@ 004   ----------------------------------------
 .byte   W96
@ 005   ----------------------------------------
 .byte   W96
@ 006   ----------------------------------------
Label_8_0127CACC:
 .byte   W96
@ 007   ----------------------------------------
 .byte   W96
@ 008   ----------------------------------------
 .byte   W96
@ 009   ----------------------------------------
 .byte   W96
@ 010   ----------------------------------------
 .byte   W96
@ 011   ----------------------------------------
 .byte   W96
@ 012   ----------------------------------------
 .byte   W96
@ 013   ----------------------------------------
 .byte   W96
@ 014   ----------------------------------------
 .byte   W96
@ 015   ----------------------------------------
 .byte   W96
@ 016   ----------------------------------------
 .byte   W96
@ 017   ----------------------------------------
 .byte   W96
@ 018   ----------------------------------------
 .byte   W96
@ 019   ----------------------------------------
 .byte   W96
@ 020   ----------------------------------------
 .byte   W96
@ 021   ----------------------------------------
 .byte   W96
@ 022   ----------------------------------------
 .byte   W96
@ 023   ----------------------------------------
 .byte   W96
@ 024   ----------------------------------------
 .byte   W96
@ 025   ----------------------------------------
 .byte   W96
@ 026   ----------------------------------------
 .byte   W96
@ 027   ----------------------------------------
 .byte   W96
@ 028   ----------------------------------------
 .byte   W96
@ 029   ----------------------------------------
 .byte   W96
@ 030   ----------------------------------------
 .byte   W96
@ 031   ----------------------------------------
 .byte   W96
@ 032   ----------------------------------------
 .byte   W96
@ 033   ----------------------------------------
 .byte   W96
@ 034   ----------------------------------------
 .byte   W96
@ 035   ----------------------------------------
 .byte   W96
@ 036   ----------------------------------------
 .byte   W12
 .byte   N96 ,Dn0 ,v127
 .byte   N96 ,Dn1
 .byte   W84
@ 037   ----------------------------------------
 .byte   W12
 .byte   Cs0
 .byte   N96 ,Cs1
 .byte   W84
@ 038   ----------------------------------------
 .byte   W12
 .byte   Cn1
 .byte   N96 ,Cn2
 .byte   W84
@ 039   ----------------------------------------
 .byte   W12
 .byte   As0
 .byte   N96 ,As1
 .byte   W84
@ 040   ----------------------------------------
 .byte   W12
 .byte   En1
 .byte   N96 ,En2
 .byte   W84
@ 041   ----------------------------------------
 .byte   W12
 .byte   Dn1
 .byte   N96 ,Dn2
 .byte   W84
@ 042   ----------------------------------------
 .byte   W96
@ 043   ----------------------------------------
 .byte   W96
@ 044   ----------------------------------------
 .byte   W96
@ 045   ----------------------------------------
 .byte   W96
@ 046   ----------------------------------------
 .byte   W96
@ 047   ----------------------------------------
 .byte   W96
@ 048   ----------------------------------------
 .byte   W96
@ 049   ----------------------------------------
 .byte   W96
@ 050   ----------------------------------------
 .byte   W96
@ 051   ----------------------------------------
 .byte   W96
@ 052   ----------------------------------------
 .byte   W96
@ 053   ----------------------------------------
 .byte   W96
@ 054   ----------------------------------------
 .byte   W96
@ 055   ----------------------------------------
 .byte   W96
@ 056   ----------------------------------------
 .byte   W96
@ 057   ----------------------------------------
 .byte   W96
@ 058   ----------------------------------------
 .byte   W96
@ 059   ----------------------------------------
 .byte   W96
@ 060   ----------------------------------------
 .byte   W12
 .byte   GOTO
  .word Label_8_0127CACC
 .byte   FINE

@**************** Track 10 (Midi-Chn.9) ****************@

songAD_010:
@ 000   ----------------------------------------
 .byte   KEYSH , songAD_key+0
 .byte   VOICE , 127
 .byte   VOL , 32*songAD_mvl/mxv
 .byte   PAN , c_v+0
 .byte   W12
 .byte   N96 ,Cs2 ,v112
 .byte   N24 ,An2
 .byte   W84
@ 001   ----------------------------------------
 .byte   W96
@ 002   ----------------------------------------
 .byte   W96
@ 003   ----------------------------------------
 .byte   W96
@ 004   ----------------------------------------
 .byte   W12
 .byte   N12 ,Dn1 ,v092
 .byte   W12
 .byte   N06 ,Dn1 ,v072
 .byte   W06
 .byte   Dn1 ,v080
 .byte   W06
 .byte   N12 ,Dn1 ,v092
 .byte   W12
 .byte   N06 ,Dn1 ,v072
 .byte   W06
 .byte   Dn1 ,v080
 .byte   W06
 .byte   N12 ,Dn1 ,v092
 .byte   W12
 .byte   N06 ,Dn1 ,v072
 .byte   W06
 .byte   Dn1 ,v080
 .byte   W06
 .byte   Dn1 ,v092
 .byte   W06
 .byte   Dn1 ,v072
 .byte   W06
@ 005   ----------------------------------------
Label_9_0127CB5E:
 .byte   N12 ,Dn1 ,v080
 .byte   W12
 .byte   Dn1 ,v092
 .byte   W12
 .byte   N06 ,Dn1 ,v072
 .byte   W06
 .byte   Dn1 ,v080
 .byte   W06
 .byte   N12 ,Dn1 ,v092
 .byte   W12
 .byte   N06 ,Dn1 ,v072
 .byte   W06
 .byte   Dn1 ,v080
 .byte   W06
 .byte   N12 ,Dn1 ,v092
 .byte   W12
 .byte   N06 ,Dn1 ,v072
 .byte   W06
 .byte   Dn1 ,v080
 .byte   W06
 .byte   Dn1 ,v092
 .byte   W06
 .byte   N03 ,Dn1 ,v072
 .byte   W03
 .byte   Dn1 ,v060
 .byte   W03
 .byte   PEND 
@ 006   ----------------------------------------
Label_9_0127CB8D:
 .byte   N06 ,Dn1 ,v072
 .byte   W06
 .byte   Dn1 ,v080
 .byte   W06
 .byte   N12 ,Dn1 ,v092
 .byte   W12
 .byte   N06 ,Dn1 ,v072
 .byte   W06
 .byte   Dn1 ,v080
 .byte   W06
 .byte   N12 ,Dn1 ,v092
 .byte   W12
 .byte   N06 ,Dn1 ,v072
 .byte   W06
 .byte   Dn1 ,v080
 .byte   W06
 .byte   N12 ,Dn1 ,v092
 .byte   W12
 .byte   N06 ,Dn1 ,v072
 .byte   W06
 .byte   Dn1 ,v080
 .byte   W06
 .byte   Dn1 ,v092
 .byte   W06
 .byte   Dn1 ,v072
 .byte   W06
 .byte   PEND 
@ 007   ----------------------------------------
 .byte   PATT
  .word Label_9_0127CB5E
@ 008   ----------------------------------------
 .byte   PATT
  .word Label_9_0127CB8D
@ 009   ----------------------------------------
 .byte   PATT
  .word Label_9_0127CB5E
@ 010   ----------------------------------------
 .byte   PATT
  .word Label_9_0127CB8D
@ 011   ----------------------------------------
 .byte   PATT
  .word Label_9_0127CB5E
@ 012   ----------------------------------------
 .byte   PATT
  .word Label_9_0127CB8D
@ 013   ----------------------------------------
 .byte   PATT
  .word Label_9_0127CB5E
@ 014   ----------------------------------------
 .byte   PATT
  .word Label_9_0127CB8D
@ 015   ----------------------------------------
 .byte   PATT
  .word Label_9_0127CB5E
@ 016   ----------------------------------------
 .byte   PATT
  .word Label_9_0127CB8D
@ 017   ----------------------------------------
 .byte   PATT
  .word Label_9_0127CB5E
@ 018   ----------------------------------------
Label_9_0127CBF3:
 .byte   N06 ,Dn1 ,v072
 .byte   W06
 .byte   Dn1 ,v080
 .byte   W06
 .byte   N12 ,Dn1 ,v092
 .byte   N96 ,Ds2 ,v120
 .byte   W12
 .byte   N06 ,Dn1 ,v072
 .byte   W06
 .byte   Dn1 ,v080
 .byte   W06
 .byte   N12 ,Dn1 ,v092
 .byte   W12
 .byte   N06 ,Dn1 ,v072
 .byte   W06
 .byte   Dn1 ,v080
 .byte   W06
 .byte   N12 ,Dn1 ,v092
 .byte   W12
 .byte   N06 ,Dn1 ,v072
 .byte   W06
 .byte   Dn1 ,v080
 .byte   W06
 .byte   Dn1 ,v092
 .byte   W06
 .byte   Dn1 ,v072
 .byte   W06
 .byte   PEND 
@ 019   ----------------------------------------
Label_9_0127CC25:
 .byte   N12 ,Dn1 ,v080
 .byte   W12
 .byte   N01 ,Dn1 ,v112
 .byte   W01
 .byte   N10 ,Dn1 ,v092
 .byte   TIE ,Ds2 ,v120
 .byte   W11
 .byte   N06 ,Dn1 ,v072
 .byte   W06
 .byte   Dn1 ,v060
 .byte   W06
 .byte   N12 ,Dn1 ,v080
 .byte   W12
 .byte   Dn1 ,v100
 .byte   W12
 .byte   N06 ,Dn1 ,v072
 .byte   W06
 .byte   Dn1 ,v060
 .byte   W06
 .byte   N12 ,Dn1 ,v080
 .byte   W12
 .byte   N01 ,Dn1 ,v100
 .byte   W01
 .byte   N05 ,Dn1 ,v080
 .byte   W05
 .byte   N06 ,Dn1 ,v072
 .byte   W06
 .byte   PEND 
@ 020   ----------------------------------------
 .byte   N12 ,Dn1 ,v080
 .byte   W12
 .byte   Dn1 ,v092
 .byte   N72 ,Cs2 ,v112
 .byte   W12
 .byte   N06 ,Dn1 ,v072
 .byte   W06
 .byte   Dn1 ,v080
 .byte   W06
 .byte   N12 ,Dn1 ,v092
 .byte   W12
 .byte   N06 ,Dn1 ,v072
 .byte   W06
 .byte   Dn1 ,v080
 .byte   W05
 .byte   EOT
 .byte   Ds2
 .byte   W01
 .byte   N12 ,Dn1 ,v092
 .byte   W12
 .byte   N06 ,Dn1 ,v072
 .byte   W06
 .byte   Dn1 ,v080
 .byte   W06
 .byte   Dn1 ,v092
 .byte   W06
 .byte   Dn1 ,v072
 .byte   W06
@ 021   ----------------------------------------
 .byte   PATT
  .word Label_9_0127CB5E
@ 022   ----------------------------------------
 .byte   PATT
  .word Label_9_0127CB8D
@ 023   ----------------------------------------
 .byte   PATT
  .word Label_9_0127CB5E
@ 024   ----------------------------------------
 .byte   N06 ,Dn1 ,v072
 .byte   W06
 .byte   Dn1 ,v080
 .byte   W06
 .byte   N12 ,Dn1 ,v092
 .byte   N72 ,Cs2 ,v112
 .byte   W12
 .byte   N06 ,Dn1 ,v072
 .byte   W06
 .byte   Dn1 ,v080
 .byte   W06
 .byte   N12 ,Dn1 ,v092
 .byte   W12
 .byte   N06 ,Dn1 ,v072
 .byte   W06
 .byte   Dn1 ,v080
 .byte   W06
 .byte   N12 ,Dn1 ,v092
 .byte   W12
 .byte   N06 ,Dn1 ,v072
 .byte   W06
 .byte   Dn1 ,v080
 .byte   W06
 .byte   Dn1 ,v092
 .byte   W06
 .byte   Dn1 ,v072
 .byte   W06
@ 025   ----------------------------------------
 .byte   PATT
  .word Label_9_0127CB5E
@ 026   ----------------------------------------
 .byte   PATT
  .word Label_9_0127CB8D
@ 027   ----------------------------------------
 .byte   PATT
  .word Label_9_0127CB5E
@ 028   ----------------------------------------
 .byte   PATT
  .word Label_9_0127CB8D
@ 029   ----------------------------------------
 .byte   PATT
  .word Label_9_0127CB5E
@ 030   ----------------------------------------
 .byte   PATT
  .word Label_9_0127CB8D
@ 031   ----------------------------------------
 .byte   N12 ,Dn1 ,v080
 .byte   W12
 .byte   N01 ,Dn1 ,v112
 .byte   W01
 .byte   N10 ,Dn1 ,v092
 .byte   W11
 .byte   N06 ,Dn1 ,v072
 .byte   W06
 .byte   Dn1 ,v060
 .byte   W06
 .byte   N12 ,Dn1 ,v080
 .byte   W12
 .byte   Dn1 ,v100
 .byte   W12
 .byte   N06 ,Dn1 ,v072
 .byte   W06
 .byte   Dn1 ,v060
 .byte   W06
 .byte   N12 ,Dn1 ,v080
 .byte   W12
 .byte   N01 ,Dn1 ,v100
 .byte   W01
 .byte   N05 ,Dn1 ,v080
 .byte   W05
 .byte   N06 ,Dn1 ,v072
 .byte   W06
@ 032   ----------------------------------------
Label_9_0127CD19:
 .byte   N12 ,Dn1 ,v080
 .byte   W12
 .byte   Dn1 ,v092
 .byte   W12
 .byte   N06 ,Dn1 ,v072
 .byte   W06
 .byte   Dn1 ,v080
 .byte   W06
 .byte   N12 ,Dn1 ,v092
 .byte   W12
 .byte   N06 ,Dn1 ,v072
 .byte   W06
 .byte   Dn1 ,v080
 .byte   W06
 .byte   N12 ,Dn1 ,v092
 .byte   W12
 .byte   N06 ,Dn1 ,v072
 .byte   W06
 .byte   Dn1 ,v080
 .byte   W06
 .byte   Dn1 ,v092
 .byte   W06
 .byte   Dn1 ,v072
 .byte   W06
 .byte   PEND 
@ 033   ----------------------------------------
 .byte   PATT
  .word Label_9_0127CB5E
@ 034   ----------------------------------------
 .byte   PATT
  .word Label_9_0127CBF3
@ 035   ----------------------------------------
 .byte   PATT
  .word Label_9_0127CC25
@ 036   ----------------------------------------
 .byte   N12 ,Dn1 ,v080
 .byte   W12
 .byte   N96 ,Cs2 ,v112
 .byte   N24 ,An2
 .byte   W44
 .byte   W03
 .byte   EOT
 .byte   Ds2
 .byte   W36
 .byte   W01
@ 037   ----------------------------------------
 .byte   W96
@ 038   ----------------------------------------
 .byte   W96
@ 039   ----------------------------------------
 .byte   W96
@ 040   ----------------------------------------
 .byte   W12
 .byte   TIE ,Ds2 ,v120
 .byte   W84
@ 041   ----------------------------------------
 .byte   W96
@ 042   ----------------------------------------
 .byte   W12
 .byte   N12 ,Dn1 ,v092
 .byte   N96 ,Cs2
 .byte   N24 ,An2
 .byte   W12
 .byte   N06 ,Dn1 ,v072
 .byte   W06
 .byte   Dn1 ,v080
 .byte   W06
 .byte   N12 ,Dn1 ,v092
 .byte   W12
 .byte   N06 ,Dn1 ,v072
 .byte   W06
 .byte   Dn1 ,v080
 .byte   W06
 .byte   EOT
 .byte   Ds2
 .byte   N12 ,Dn1 ,v092
 .byte   W12
 .byte   N06 ,Dn1 ,v072
 .byte   W06
 .byte   Dn1 ,v080
 .byte   W06
 .byte   Dn1 ,v092
 .byte   W06
 .byte   Dn1 ,v072
 .byte   W06
@ 043   ----------------------------------------
 .byte   PATT
  .word Label_9_0127CB5E
@ 044   ----------------------------------------
 .byte   PATT
  .word Label_9_0127CB8D
@ 045   ----------------------------------------
 .byte   PATT
  .word Label_9_0127CB5E
@ 046   ----------------------------------------
 .byte   PATT
  .word Label_9_0127CB8D
@ 047   ----------------------------------------
 .byte   PATT
  .word Label_9_0127CB5E
@ 048   ----------------------------------------
 .byte   PATT
  .word Label_9_0127CB8D
@ 049   ----------------------------------------
 .byte   PATT
  .word Label_9_0127CB5E
@ 050   ----------------------------------------
 .byte   N06 ,Dn1 ,v072
 .byte   W06
 .byte   Dn1 ,v080
 .byte   W06
 .byte   N12 ,Dn1 ,v092
 .byte   W12
 .byte   N06 ,Dn1 ,v072
 .byte   W06
 .byte   Dn1 ,v080
 .byte   W06
 .byte   N12 ,Dn1 ,v092
 .byte   W12
 .byte   N06 ,Dn1 ,v072
 .byte   W06
 .byte   Dn1 ,v080
 .byte   W06
 .byte   N12 ,Dn1 ,v092
 .byte   W12
 .byte   N06 ,Dn1 ,v072
 .byte   W06
 .byte   Dn1 ,v080
 .byte   W06
 .byte   Dn1 ,v092
 .byte   W06
 .byte   N03 ,Dn1 ,v072
 .byte   W03
 .byte   Dn1 ,v060
 .byte   W03
@ 051   ----------------------------------------
 .byte   PATT
  .word Label_9_0127CB8D
@ 052   ----------------------------------------
 .byte   PATT
  .word Label_9_0127CB5E
@ 053   ----------------------------------------
 .byte   PATT
  .word Label_9_0127CB8D
@ 054   ----------------------------------------
 .byte   PATT
  .word Label_9_0127CB5E
@ 055   ----------------------------------------
 .byte   PATT
  .word Label_9_0127CB8D
@ 056   ----------------------------------------
 .byte   PATT
  .word Label_9_0127CD19
@ 057   ----------------------------------------
 .byte   PATT
  .word Label_9_0127CB5E
@ 058   ----------------------------------------
 .byte   PATT
  .word Label_9_0127CB8D
@ 059   ----------------------------------------
 .byte   PATT
  .word Label_9_0127CB5E
@ 060   ----------------------------------------
 .byte   N06 ,Dn1 ,v072
 .byte   W06
 .byte   Dn1 ,v080
 .byte   W06
 .byte   GOTO
  .word Label_9_0127CB8D
 .byte   FINE

@**************** Track 11 (Midi-Chn.10) ****************@

songAD_011:
@ 000   ----------------------------------------
 .byte   KEYSH , songAD_key+0
 .byte   VOICE , 48
 .byte   VOL , 35*songAD_mvl/mxv
 .byte   PAN , c_v+6
 .byte   W96
@ 001   ----------------------------------------
 .byte   W96
@ 002   ----------------------------------------
 .byte   W96
@ 003   ----------------------------------------
 .byte   W96
@ 004   ----------------------------------------
 .byte   W12
 .byte   N12 ,Dn1 ,v112
 .byte   N12 ,Dn2
 .byte   W12
 .byte   Dn1 ,v120
 .byte   N12 ,Dn2
 .byte   W24
 .byte   Dn1 ,v112
 .byte   N12 ,Dn2
 .byte   W24
 .byte   Dn1
 .byte   N12 ,Dn2
 .byte   W24
@ 005   ----------------------------------------
Label_10_0127CE49:
 .byte   N12 ,Dn1 ,v116
 .byte   N12 ,Dn2
 .byte   W12
 .byte   Dn1 ,v112
 .byte   N12 ,Dn2
 .byte   W12
 .byte   Dn1 ,v120
 .byte   N12 ,Dn2
 .byte   W24
 .byte   Dn1 ,v112
 .byte   N12 ,Dn2
 .byte   W24
 .byte   Dn1
 .byte   N12 ,Dn2
 .byte   W24
 .byte   PEND 
@ 006   ----------------------------------------
Label_10_0127CE63:
@ 007   ----------------------------------------
 .byte   PATT
  .word Label_10_0127CE49
@ 008   ----------------------------------------
 .byte   PATT
  .word Label_10_0127CE49
@ 009   ----------------------------------------
 .byte   PATT
  .word Label_10_0127CE49
@ 010   ----------------------------------------
 .byte   PATT
  .word Label_10_0127CE49
@ 011   ----------------------------------------
 .byte   PATT
  .word Label_10_0127CE49
@ 012   ----------------------------------------
 .byte   PATT
  .word Label_10_0127CE49
@ 013   ----------------------------------------
 .byte   PATT
  .word Label_10_0127CE49
@ 014   ----------------------------------------
 .byte   PATT
  .word Label_10_0127CE49
@ 015   ----------------------------------------
 .byte   PATT
  .word Label_10_0127CE49
@ 016   ----------------------------------------
 .byte   PATT
  .word Label_10_0127CE49
@ 017   ----------------------------------------
 .byte   PATT
  .word Label_10_0127CE49
@ 018   ----------------------------------------
Label_10_0127CE9A:
 .byte   N12 ,Dn1 ,v116
 .byte   N12 ,Dn2
 .byte   W12
 .byte   Gn1 ,v112
 .byte   N12 ,Gn2
 .byte   W12
 .byte   Gn1 ,v120
 .byte   N12 ,Gn2
 .byte   W24
 .byte   Gn1 ,v112
 .byte   N12 ,Gn2
 .byte   W24
 .byte   Gn1
 .byte   N12 ,Gn2
 .byte   W24
 .byte   PEND 
@ 019   ----------------------------------------
Label_10_0127CEB4:
 .byte   N12 ,Gn1 ,v116
 .byte   N12 ,Gn2
 .byte   W12
 .byte   Dn1 ,v112
 .byte   N12 ,Dn2
 .byte   W12
 .byte   Dn1 ,v120
 .byte   N12 ,Dn2
 .byte   W24
 .byte   Dn1 ,v112
 .byte   N12 ,Dn2
 .byte   W24
 .byte   Dn1
 .byte   N12 ,Dn2
 .byte   W24
 .byte   PEND 
@ 020   ----------------------------------------
 .byte   PATT
  .word Label_10_0127CE9A
@ 021   ----------------------------------------
Label_10_0127CED3:
 .byte   N12 ,Gn1 ,v116
 .byte   N12 ,Gn2
 .byte   W12
 .byte   Gs1 ,v112
 .byte   N12 ,Gs2
 .byte   W12
 .byte   Gs1 ,v120
 .byte   N12 ,Gs2
 .byte   W24
 .byte   Gs1 ,v112
 .byte   N12 ,Gs2
 .byte   W24
 .byte   Gs1
 .byte   N12 ,Gs2
 .byte   W24
 .byte   PEND 
@ 022   ----------------------------------------
Label_10_0127CEED:
 .byte   N12 ,Gs1 ,v116
 .byte   N12 ,Gs2
 .byte   W12
 .byte   Gs1 ,v112
 .byte   N12 ,Gs2
 .byte   W12
 .byte   Gs1 ,v120
 .byte   N12 ,Gs2
 .byte   W24
 .byte   Gs1 ,v112
 .byte   N12 ,Gs2
 .byte   W24
 .byte   Gs1
 .byte   N12 ,Gs2
 .byte   W24
 .byte   PEND 
@ 023   ----------------------------------------
Label_10_0127CF07:
 .byte   N12 ,Gs1 ,v116
 .byte   N12 ,Gs2
 .byte   W12
 .byte   Gn1 ,v112
 .byte   N12 ,Gn2
 .byte   W12
 .byte   Gn1 ,v120
 .byte   N12 ,Gn2
 .byte   W24
 .byte   Gn1 ,v112
 .byte   N12 ,Gn2
 .byte   W24
 .byte   Gn1
 .byte   N12 ,Gn2
 .byte   W24
 .byte   PEND 
@ 024   ----------------------------------------
Label_10_0127CF21:
 .byte   N12 ,Gn1 ,v116
 .byte   N12 ,Gn2
 .byte   W12
 .byte   Gn1 ,v112
 .byte   N12 ,Gn2
 .byte   W12
 .byte   Gn1 ,v120
 .byte   N12 ,Gn2
 .byte   W24
 .byte   Gn1 ,v112
 .byte   N12 ,Gn2
 .byte   W24
 .byte   Gn1
 .byte   N12 ,Gn2
 .byte   W24
 .byte   PEND 
@ 025   ----------------------------------------
 .byte   PATT
  .word Label_10_0127CED3
@ 026   ----------------------------------------
 .byte   PATT
  .word Label_10_0127CEED
@ 027   ----------------------------------------
 .byte   PATT
  .word Label_10_0127CF07
@ 028   ----------------------------------------
 .byte   PATT
  .word Label_10_0127CF21
@ 029   ----------------------------------------
 .byte   PATT
  .word Label_10_0127CEB4
@ 030   ----------------------------------------
 .byte   PATT
  .word Label_10_0127CE9A
@ 031   ----------------------------------------
 .byte   PATT
  .word Label_10_0127CEB4
@ 032   ----------------------------------------
 .byte   PATT
  .word Label_10_0127CE9A
@ 033   ----------------------------------------
 .byte   PATT
  .word Label_10_0127CEB4
@ 034   ----------------------------------------
 .byte   PATT
  .word Label_10_0127CE9A
@ 035   ----------------------------------------
 .byte   PATT
  .word Label_10_0127CEB4
@ 036   ----------------------------------------
 .byte   PATT
  .word Label_10_0127CE9A
@ 037   ----------------------------------------
 .byte   N12 ,Gn1 ,v116
 .byte   N12 ,Gn2
 .byte   W96
@ 038   ----------------------------------------
 .byte   W96
@ 039   ----------------------------------------
 .byte   W96
@ 040   ----------------------------------------
 .byte   W96
@ 041   ----------------------------------------
 .byte   W96
@ 042   ----------------------------------------
 .byte   W96
@ 043   ----------------------------------------
 .byte   W12
 .byte   Fs1 ,v112
 .byte   N12 ,Fs2
 .byte   W12
 .byte   Fs1 ,v120
 .byte   N12 ,Fs2
 .byte   W24
 .byte   Fs1 ,v112
 .byte   N12 ,Fs2
 .byte   W24
 .byte   Fs1
 .byte   N12 ,Fs2
 .byte   W24
@ 044   ----------------------------------------
Label_10_0127CF96:
 .byte   N12 ,Fs1 ,v116
 .byte   N12 ,Fs2
 .byte   W12
 .byte   Fs1 ,v112
 .byte   N12 ,Fs2
 .byte   W12
 .byte   Fs1 ,v120
 .byte   N12 ,Fs2
 .byte   W24
 .byte   Fs1 ,v112
 .byte   N12 ,Fs2
 .byte   W24
 .byte   Fs1
 .byte   N12 ,Fs2
 .byte   W24
 .byte   PEND 
@ 045   ----------------------------------------
 .byte   PATT
  .word Label_10_0127CF96
@ 046   ----------------------------------------
 .byte   PATT
  .word Label_10_0127CF96
@ 047   ----------------------------------------
 .byte   PATT
  .word Label_10_0127CF96
@ 048   ----------------------------------------
 .byte   PATT
  .word Label_10_0127CF96
@ 049   ----------------------------------------
 .byte   PATT
  .word Label_10_0127CF96
@ 050   ----------------------------------------
 .byte   PATT
  .word Label_10_0127CF96
@ 051   ----------------------------------------
 .byte   N12 ,Fs1 ,v116
 .byte   N12 ,Fs2
 .byte   W12
 .byte   Fn1 ,v112
 .byte   N12 ,Fn2
 .byte   W12
 .byte   Fn1 ,v120
 .byte   N12 ,Fn2
 .byte   W24
 .byte   Fn1 ,v112
 .byte   N12 ,Fn2
 .byte   W24
 .byte   Fn1
 .byte   N12 ,Fn2
 .byte   W24
@ 052   ----------------------------------------
 .byte   Fn1 ,v116
 .byte   N12 ,Fn2
 .byte   W12
 .byte   Fn1 ,v112
 .byte   N12 ,Fn2
 .byte   W12
 .byte   Fn1 ,v120
 .byte   N12 ,Fn2
 .byte   W24
 .byte   Fn1 ,v112
 .byte   N12 ,Fn2
 .byte   W24
 .byte   Fn1
 .byte   N12 ,Fn2
 .byte   W24
@ 053   ----------------------------------------
 .byte   Fn1 ,v116
 .byte   N12 ,Fn2
 .byte   W12
 .byte   Ds1 ,v112
 .byte   N12 ,Ds2
 .byte   W12
 .byte   Ds1 ,v120
 .byte   N12 ,Ds2
 .byte   W24
 .byte   Ds1 ,v112
 .byte   N12 ,Ds2
 .byte   W24
 .byte   Ds1
 .byte   N12 ,Ds2
 .byte   W24
@ 054   ----------------------------------------
Label_10_0127D017:
 .byte   N12 ,Ds1 ,v116
 .byte   N12 ,Ds2
 .byte   W12
 .byte   Ds1 ,v112
 .byte   N12 ,Ds2
 .byte   W12
 .byte   Ds1 ,v120
 .byte   N12 ,Ds2
 .byte   W24
 .byte   Ds1 ,v112
 .byte   N12 ,Ds2
 .byte   W24
 .byte   Ds1
 .byte   N12 ,Ds2
 .byte   W24
 .byte   PEND 
@ 055   ----------------------------------------
 .byte   PATT
  .word Label_10_0127D017
@ 056   ----------------------------------------
 .byte   PATT
  .word Label_10_0127D017
@ 057   ----------------------------------------
 .byte   N12 ,Ds1 ,v116
 .byte   N12 ,Ds2
 .byte   W12
 .byte   Dn1 ,v112
 .byte   N12 ,Dn2
 .byte   W12
 .byte   Dn1 ,v120
 .byte   N12 ,Dn2
 .byte   W24
 .byte   Dn1 ,v112
 .byte   N12 ,Dn2
 .byte   W24
 .byte   Dn1
 .byte   N12 ,Dn2
 .byte   W24
@ 058   ----------------------------------------
 .byte   PATT
  .word Label_10_0127CE49
@ 059   ----------------------------------------
 .byte   PATT
  .word Label_10_0127CE49
@ 060   ----------------------------------------
 .byte   PATT
  .word Label_10_0127CE49
@ 061   ----------------------------------------
 .byte   N12 ,Dn1 ,v116
 .byte   N12 ,Dn2
 .byte   W12
 .byte   GOTO
  .word Label_10_0127CE63
 .byte   FINE

@**************** Track 12 (Midi-Chn.11) ****************@

songAD_012:
@ 000   ----------------------------------------
 .byte   KEYSH , songAD_key+0
 .byte   VOICE , 19
 .byte   VOL , 22*songAD_mvl/mxv
 .byte   PAN , c_v+10
 .byte   W96
@ 001   ----------------------------------------
 .byte   W96
@ 002   ----------------------------------------
 .byte   W96
@ 003   ----------------------------------------
 .byte   W96
@ 004   ----------------------------------------
Label_11_0127D07C:
 .byte   W12
 .byte   N08 ,An2 ,v112
 .byte   N08 ,Dn3 ,v120
 .byte   W12
 .byte   Dn3 ,v112
 .byte   N08 ,An3 ,v120
 .byte   W12
 .byte   An3 ,v112
 .byte   N08 ,Dn4 ,v120
 .byte   W12
 .byte   Dn3 ,v112
 .byte   N08 ,An3 ,v120
 .byte   W12
 .byte   An3 ,v112
 .byte   N08 ,Dn4 ,v120
 .byte   W12
 .byte   Dn3 ,v112
 .byte   N08 ,An3 ,v120
 .byte   W12
 .byte   An2 ,v112
 .byte   N08 ,Dn3 ,v120
 .byte   W12
 .byte   PEND 
@ 005   ----------------------------------------
Label_11_0127D0A9:
 .byte   N08 ,Dn3 ,v112
 .byte   N08 ,An3 ,v120
 .byte   W12
 .byte   An2 ,v112
 .byte   N08 ,Dn3 ,v120
 .byte   W12
 .byte   Dn3 ,v112
 .byte   N08 ,An3 ,v120
 .byte   W12
 .byte   An3 ,v112
 .byte   N08 ,Dn4 ,v120
 .byte   W12
 .byte   Dn3 ,v112
 .byte   N08 ,An3 ,v120
 .byte   W12
 .byte   An3 ,v112
 .byte   N08 ,Dn4 ,v120
 .byte   W12
 .byte   Dn3 ,v112
 .byte   N08 ,An3 ,v120
 .byte   W12
 .byte   An2 ,v112
 .byte   N08 ,Dn3 ,v120
 .byte   W12
 .byte   PEND 
@ 006   ----------------------------------------
Label_11_0127D0DB:
@ 007   ----------------------------------------
 .byte   PATT
  .word Label_11_0127D0A9
@ 008   ----------------------------------------
 .byte   PATT
  .word Label_11_0127D0A9
@ 009   ----------------------------------------
 .byte   PATT
  .word Label_11_0127D0A9
@ 010   ----------------------------------------
 .byte   PATT
  .word Label_11_0127D0A9
@ 011   ----------------------------------------
Label_11_0127D0EF:
 .byte   N08 ,Dn3 ,v112
 .byte   N08 ,An3 ,v120
 .byte   W12
 .byte   An2 ,v112
 .byte   N08 ,Ds3 ,v120
 .byte   W12
 .byte   Ds3 ,v112
 .byte   N08 ,An3 ,v120
 .byte   W12
 .byte   An3 ,v112
 .byte   N08 ,Ds4 ,v120
 .byte   W12
 .byte   Ds3 ,v112
 .byte   N08 ,An3 ,v120
 .byte   W12
 .byte   An3 ,v112
 .byte   N08 ,Ds4 ,v120
 .byte   W12
 .byte   Ds3 ,v112
 .byte   N08 ,An3 ,v120
 .byte   W12
 .byte   An2 ,v112
 .byte   N08 ,Ds3 ,v120
 .byte   W12
 .byte   PEND 
@ 012   ----------------------------------------
Label_11_0127D121:
 .byte   N08 ,Ds3 ,v112
 .byte   N08 ,An3 ,v120
 .byte   W12
 .byte   An2 ,v112
 .byte   N08 ,Ds3 ,v120
 .byte   W12
 .byte   Ds3 ,v112
 .byte   N08 ,An3 ,v120
 .byte   W12
 .byte   An3 ,v112
 .byte   N08 ,Ds4 ,v120
 .byte   W12
 .byte   Ds3 ,v112
 .byte   N08 ,An3 ,v120
 .byte   W12
 .byte   An3 ,v112
 .byte   N08 ,Ds4 ,v120
 .byte   W12
 .byte   Ds3 ,v112
 .byte   N08 ,An3 ,v120
 .byte   W12
 .byte   An2 ,v112
 .byte   N08 ,Ds3 ,v120
 .byte   W12
 .byte   PEND 
@ 013   ----------------------------------------
Label_11_0127D153:
 .byte   N08 ,Ds3 ,v112
 .byte   N08 ,An3 ,v120
 .byte   W12
 .byte   An2 ,v112
 .byte   N08 ,Dn3 ,v120
 .byte   W12
 .byte   Dn3 ,v112
 .byte   N08 ,An3 ,v120
 .byte   W12
 .byte   An3 ,v112
 .byte   N08 ,Dn4 ,v120
 .byte   W12
 .byte   Dn3 ,v112
 .byte   N08 ,An3 ,v120
 .byte   W12
 .byte   An3 ,v112
 .byte   N08 ,Dn4 ,v120
 .byte   W12
 .byte   Dn3 ,v112
 .byte   N08 ,An3 ,v120
 .byte   W12
 .byte   An2 ,v112
 .byte   N08 ,Dn3 ,v120
 .byte   W12
 .byte   PEND 
@ 014   ----------------------------------------
 .byte   PATT
  .word Label_11_0127D0A9
@ 015   ----------------------------------------
 .byte   PATT
  .word Label_11_0127D0EF
@ 016   ----------------------------------------
 .byte   PATT
  .word Label_11_0127D121
@ 017   ----------------------------------------
 .byte   PATT
  .word Label_11_0127D153
@ 018   ----------------------------------------
Label_11_0127D199:
 .byte   N08 ,Dn3 ,v112
 .byte   N08 ,An3 ,v120
 .byte   W12
 .byte   Gn2 ,v112
 .byte   N08 ,Dn3 ,v120
 .byte   W12
 .byte   Dn3 ,v112
 .byte   N08 ,Gn3 ,v120
 .byte   W12
 .byte   Gn3 ,v112
 .byte   N08 ,Dn4 ,v120
 .byte   W12
 .byte   Dn3 ,v112
 .byte   N08 ,Gn3 ,v120
 .byte   W12
 .byte   Gn3 ,v112
 .byte   N08 ,Dn4 ,v120
 .byte   W12
 .byte   Dn3 ,v112
 .byte   N08 ,Gn3 ,v120
 .byte   W12
 .byte   Gn2 ,v112
 .byte   N08 ,Dn3 ,v120
 .byte   W12
 .byte   PEND 
@ 019   ----------------------------------------
Label_11_0127D1CB:
 .byte   N08 ,Dn3 ,v112
 .byte   N08 ,Gn3 ,v120
 .byte   W12
 .byte   An2 ,v112
 .byte   N08 ,Dn3 ,v120
 .byte   W12
 .byte   Dn3 ,v112
 .byte   N08 ,An3 ,v120
 .byte   W12
 .byte   An3 ,v112
 .byte   N08 ,Dn4 ,v120
 .byte   W12
 .byte   Dn3 ,v112
 .byte   N08 ,An3 ,v120
 .byte   W12
 .byte   An3 ,v112
 .byte   N08 ,Dn4 ,v120
 .byte   W12
 .byte   Dn3 ,v112
 .byte   N08 ,An3 ,v120
 .byte   W12
 .byte   An2 ,v112
 .byte   N08 ,Dn3 ,v120
 .byte   W12
 .byte   PEND 
@ 020   ----------------------------------------
 .byte   PATT
  .word Label_11_0127D199
@ 021   ----------------------------------------
 .byte   N08 ,Dn3 ,v112
 .byte   N08 ,Gn3 ,v120
 .byte   W96
@ 022   ----------------------------------------
 .byte   W96
@ 023   ----------------------------------------
 .byte   W96
@ 024   ----------------------------------------
 .byte   W96
@ 025   ----------------------------------------
 .byte   W96
@ 026   ----------------------------------------
 .byte   W96
@ 027   ----------------------------------------
 .byte   W96
@ 028   ----------------------------------------
 .byte   W96
@ 029   ----------------------------------------
 .byte   PATT
  .word Label_11_0127D07C
@ 030   ----------------------------------------
 .byte   PATT
  .word Label_11_0127D199
@ 031   ----------------------------------------
 .byte   PATT
  .word Label_11_0127D1CB
@ 032   ----------------------------------------
 .byte   PATT
  .word Label_11_0127D199
@ 033   ----------------------------------------
 .byte   PATT
  .word Label_11_0127D1CB
@ 034   ----------------------------------------
 .byte   PATT
  .word Label_11_0127D199
@ 035   ----------------------------------------
 .byte   PATT
  .word Label_11_0127D1CB
@ 036   ----------------------------------------
 .byte   PATT
  .word Label_11_0127D199
@ 037   ----------------------------------------
 .byte   N08 ,Dn3 ,v112
 .byte   N08 ,Gn3 ,v120
 .byte   W12
 .byte   N96 ,Dn2 ,v124
 .byte   N96 ,Dn3
 .byte   N96 ,An3
 .byte   W84
@ 038   ----------------------------------------
 .byte   W12
 .byte   Cs2
 .byte   N96 ,Cs3
 .byte   N96 ,Gn3
 .byte   W84
@ 039   ----------------------------------------
 .byte   W12
 .byte   Cn2
 .byte   N96 ,Cn3
 .byte   N72 ,Fs3
 .byte   W72
 .byte   N12 ,Gn3
 .byte   W12
@ 040   ----------------------------------------
 .byte   An3
 .byte   W12
 .byte   N96 ,As1
 .byte   N96 ,Dn3
 .byte   N96 ,As3
 .byte   W84
@ 041   ----------------------------------------
 .byte   W12
 .byte   En2
 .byte   N96 ,En3
 .byte   N72 ,As3
 .byte   W72
 .byte   N12 ,Bn3
 .byte   W12
@ 042   ----------------------------------------
 .byte   Cs4
 .byte   W12
 .byte   N96 ,Dn2
 .byte   N96 ,Fs3
 .byte   N96 ,Dn4
 .byte   W84
@ 043   ----------------------------------------
 .byte   W12
 .byte   N08 ,As2 ,v120
 .byte   N08 ,Cs3 ,v124
 .byte   W12
 .byte   Cs3 ,v120
 .byte   N08 ,Fs3 ,v124
 .byte   W12
 .byte   Fs3 ,v120
 .byte   N08 ,As3 ,v124
 .byte   W12
 .byte   Cs3 ,v120
 .byte   N08 ,Fs3 ,v124
 .byte   W12
 .byte   Fs3 ,v120
 .byte   N08 ,As3 ,v124
 .byte   W12
 .byte   Cs3 ,v120
 .byte   N08 ,Fs3 ,v124
 .byte   W12
 .byte   As2 ,v120
 .byte   N08 ,Cs3 ,v124
 .byte   W12
@ 044   ----------------------------------------
Label_11_0127D2A0:
 .byte   N08 ,Cs3 ,v120
 .byte   N08 ,Fs3 ,v124
 .byte   W12
 .byte   As2 ,v120
 .byte   N08 ,Cs3 ,v124
 .byte   W12
 .byte   Cs3 ,v120
 .byte   N08 ,Fs3 ,v124
 .byte   W12
 .byte   Fs3 ,v120
 .byte   N08 ,As3 ,v124
 .byte   W12
 .byte   Cs3 ,v120
 .byte   N08 ,Fs3 ,v124
 .byte   W12
 .byte   Fs3 ,v120
 .byte   N08 ,As3 ,v124
 .byte   W12
 .byte   Cs3 ,v120
 .byte   N08 ,Fs3 ,v124
 .byte   W12
 .byte   As2 ,v120
 .byte   N08 ,Cs3 ,v124
 .byte   W12
 .byte   PEND 
@ 045   ----------------------------------------
 .byte   PATT
  .word Label_11_0127D2A0
@ 046   ----------------------------------------
 .byte   PATT
  .word Label_11_0127D2A0
@ 047   ----------------------------------------
 .byte   PATT
  .word Label_11_0127D2A0
@ 048   ----------------------------------------
 .byte   PATT
  .word Label_11_0127D2A0
@ 049   ----------------------------------------
 .byte   PATT
  .word Label_11_0127D2A0
@ 050   ----------------------------------------
 .byte   PATT
  .word Label_11_0127D2A0
@ 051   ----------------------------------------
 .byte   N08 ,Cs3 ,v120
 .byte   N08 ,Fs3 ,v124
 .byte   W12
 .byte   An2 ,v120
 .byte   N08 ,Cs3 ,v124
 .byte   W12
 .byte   Cs3 ,v120
 .byte   N08 ,Fn3 ,v124
 .byte   W12
 .byte   Gn3 ,v120
 .byte   N08 ,Bn3 ,v124
 .byte   W12
 .byte   Cs3 ,v120
 .byte   N08 ,Fn3 ,v124
 .byte   W12
 .byte   Gn3 ,v120
 .byte   N08 ,Bn3 ,v124
 .byte   W12
 .byte   Cs3 ,v120
 .byte   N08 ,Fn3 ,v124
 .byte   W12
 .byte   An2 ,v120
 .byte   N08 ,Cs3 ,v124
 .byte   W12
@ 052   ----------------------------------------
Label_11_0127D321:
 .byte   N08 ,Cs3 ,v120
 .byte   N08 ,Fn3 ,v124
 .byte   W12
 .byte   An2 ,v120
 .byte   N08 ,Cs3 ,v124
 .byte   W12
 .byte   Cs3 ,v120
 .byte   N08 ,Fn3 ,v124
 .byte   W12
 .byte   Gn3 ,v120
 .byte   N08 ,Bn3 ,v124
 .byte   W12
 .byte   Cs3 ,v120
 .byte   N08 ,Fn3 ,v124
 .byte   W12
 .byte   Gn3 ,v120
 .byte   N08 ,Bn3 ,v124
 .byte   W12
 .byte   Cs3 ,v120
 .byte   N08 ,Fn3 ,v124
 .byte   W12
 .byte   An2 ,v120
 .byte   N08 ,Cs3 ,v124
 .byte   W12
 .byte   PEND 
@ 053   ----------------------------------------
 .byte   PATT
  .word Label_11_0127D321
@ 054   ----------------------------------------
 .byte   PATT
  .word Label_11_0127D321
@ 055   ----------------------------------------
 .byte   PATT
  .word Label_11_0127D321
@ 056   ----------------------------------------
 .byte   PATT
  .word Label_11_0127D321
@ 057   ----------------------------------------
 .byte   N08 ,Cs3 ,v120
 .byte   N08 ,Fn3 ,v124
 .byte   W12
 .byte   An2 ,v112
 .byte   N08 ,Dn3 ,v120
 .byte   W12
 .byte   Dn3 ,v112
 .byte   N08 ,An3 ,v120
 .byte   W12
 .byte   An3 ,v112
 .byte   N08 ,Dn4 ,v120
 .byte   W12
 .byte   Dn3 ,v112
 .byte   N08 ,An3 ,v120
 .byte   W12
 .byte   An3 ,v112
 .byte   N08 ,Dn4 ,v120
 .byte   W12
 .byte   Dn3 ,v112
 .byte   N08 ,An3 ,v120
 .byte   W12
 .byte   An2 ,v112
 .byte   N08 ,Dn3 ,v120
 .byte   W12
@ 058   ----------------------------------------
 .byte   PATT
  .word Label_11_0127D0A9
@ 059   ----------------------------------------
 .byte   PATT
  .word Label_11_0127D0A9
@ 060   ----------------------------------------
 .byte   PATT
  .word Label_11_0127D0A9
@ 061   ----------------------------------------
 .byte   N08 ,Dn3 ,v112
 .byte   N08 ,An3 ,v120
 .byte   W12
 .byte   GOTO
  .word Label_11_0127D0DB
 .byte   FINE

@**************** Track 13 (Midi-Chn.12) ****************@

songAD_013:
@ 000   ----------------------------------------
 .byte   KEYSH , songAD_key+0
 .byte   VOICE , 71
 .byte   VOL , 25*songAD_mvl/mxv
 .byte   PAN , c_v+0
 .byte   W96
@ 001   ----------------------------------------
 .byte   W96
@ 002   ----------------------------------------
 .byte   W96
@ 003   ----------------------------------------
 .byte   W96
@ 004   ----------------------------------------
Label_12_0127D3C0:
 .byte   W12
 .byte   N03 ,Dn3 ,v112
 .byte   N03 ,Fn3
 .byte   W12
 .byte   Dn3 ,v092
 .byte   N03 ,Fn3
 .byte   W12
 .byte   Dn3
 .byte   N03 ,Fn3
 .byte   W12
 .byte   N04 ,Dn3 ,v112
 .byte   N04 ,Fn3
 .byte   W24
 .byte   N03 ,Dn3 ,v100
 .byte   N03 ,Fn3
 .byte   W12
 .byte   Dn3 ,v092
 .byte   N03 ,Fn3
 .byte   W12
 .byte   PEND 
@ 005   ----------------------------------------
Label_12_0127D3E2:
 .byte   N03 ,Dn3 ,v092
 .byte   N03 ,Fn3
 .byte   W12
 .byte   Dn3 ,v112
 .byte   N03 ,Fn3
 .byte   W12
 .byte   Dn3 ,v092
 .byte   N03 ,Fn3
 .byte   W12
 .byte   Dn3
 .byte   N03 ,Fn3
 .byte   W12
 .byte   N04 ,Dn3 ,v112
 .byte   N04 ,Fn3
 .byte   W12
 .byte   N03 ,Dn3 ,v092
 .byte   N03 ,Fn3
 .byte   W12
 .byte   Dn3
 .byte   N03 ,Fn3
 .byte   W12
 .byte   Dn3 ,v100
 .byte   N03 ,Fn3
 .byte   W12
 .byte   PEND 
@ 006   ----------------------------------------
Label_12_0127D40C:
 .byte   N03 ,Dn3 ,v112
 .byte   N03 ,Fn3
 .byte   W12
 .byte   Dn3
 .byte   N03 ,Fn3
 .byte   W12
 .byte   Dn3 ,v092
 .byte   N03 ,Fn3
 .byte   W12
 .byte   Dn3
 .byte   N03 ,Fn3
 .byte   W12
 .byte   N04 ,Dn3 ,v112
 .byte   N04 ,Fn3
 .byte   W24
 .byte   N03 ,Dn3 ,v100
 .byte   N03 ,Fn3
 .byte   W12
 .byte   Dn3 ,v092
 .byte   N03 ,Fn3
 .byte   W12
 .byte   PEND 
@ 007   ----------------------------------------
 .byte   PATT
  .word Label_12_0127D3E2
@ 008   ----------------------------------------
 .byte   PATT
  .word Label_12_0127D40C
@ 009   ----------------------------------------
 .byte   PATT
  .word Label_12_0127D3E2
@ 010   ----------------------------------------
Label_12_0127D440:
 .byte   N03 ,Dn3 ,v112
 .byte   N03 ,Fn3
 .byte   W12
 .byte   Ds3
 .byte   N03 ,Gn3
 .byte   W12
 .byte   Ds3 ,v092
 .byte   N03 ,Gn3
 .byte   W12
 .byte   Ds3
 .byte   N03 ,Gn3
 .byte   W12
 .byte   N04 ,Ds3 ,v112
 .byte   N04 ,Gn3
 .byte   W24
 .byte   N03 ,Ds3 ,v100
 .byte   N03 ,Gn3
 .byte   W12
 .byte   Ds3 ,v092
 .byte   N03 ,Gn3
 .byte   W12
 .byte   PEND 
@ 011   ----------------------------------------
Label_12_0127D465:
 .byte   N03 ,Ds3 ,v092
 .byte   N03 ,Gn3
 .byte   W12
 .byte   Ds3 ,v112
 .byte   N03 ,Gn3
 .byte   W12
 .byte   Ds3 ,v092
 .byte   N03 ,Gn3
 .byte   W12
 .byte   Ds3
 .byte   N03 ,Gn3
 .byte   W12
 .byte   N04 ,Ds3 ,v112
 .byte   N04 ,Gn3
 .byte   W12
 .byte   N03 ,Ds3 ,v092
 .byte   N03 ,Gn3
 .byte   W12
 .byte   Ds3
 .byte   N03 ,Gn3
 .byte   W12
 .byte   Ds3 ,v100
 .byte   N03 ,Gn3
 .byte   W12
 .byte   PEND 
@ 012   ----------------------------------------
 .byte   Ds3 ,v112
 .byte   N03 ,Gn3
 .byte   W12
 .byte   Dn3
 .byte   N03 ,Fn3
 .byte   W12
 .byte   Dn3 ,v092
 .byte   N03 ,Fn3
 .byte   W12
 .byte   Dn3
 .byte   N03 ,Fn3
 .byte   W12
 .byte   N04 ,Dn3 ,v112
 .byte   N04 ,Fn3
 .byte   W24
 .byte   N03 ,Dn3 ,v100
 .byte   N03 ,Fn3
 .byte   W12
 .byte   Dn3 ,v092
 .byte   N03 ,Fn3
 .byte   W12
@ 013   ----------------------------------------
 .byte   PATT
  .word Label_12_0127D3E2
@ 014   ----------------------------------------
 .byte   PATT
  .word Label_12_0127D440
@ 015   ----------------------------------------
 .byte   PATT
  .word Label_12_0127D465
@ 016   ----------------------------------------
 .byte   N03 ,Ds3 ,v112
 .byte   N03 ,Gn3
 .byte   W12
 .byte   Fn3
 .byte   N03 ,An3
 .byte   W12
 .byte   Fn3 ,v092
 .byte   N03 ,An3
 .byte   W12
 .byte   Fn3
 .byte   N03 ,An3
 .byte   W12
 .byte   N04 ,Fn3 ,v112
 .byte   N04 ,An3
 .byte   W24
 .byte   N03 ,Fn3 ,v100
 .byte   N03 ,An3
 .byte   W12
 .byte   Fn3 ,v092
 .byte   N03 ,An3
 .byte   W12
@ 017   ----------------------------------------
Label_12_0127D4E5:
 .byte   N03 ,Fn3 ,v092
 .byte   N03 ,An3
 .byte   W12
 .byte   Gn3 ,v112
 .byte   N03 ,As3
 .byte   W12
 .byte   Gn3 ,v092
 .byte   N03 ,As3
 .byte   W12
 .byte   Gn3
 .byte   N03 ,As3
 .byte   W12
 .byte   N04 ,Gn3 ,v112
 .byte   N04 ,As3
 .byte   W12
 .byte   N03 ,Gn3 ,v092
 .byte   N03 ,As3
 .byte   W12
 .byte   Gn3
 .byte   N03 ,As3
 .byte   W12
 .byte   Gn3 ,v100
 .byte   N03 ,As3
 .byte   W12
 .byte   PEND 
@ 018   ----------------------------------------
Label_12_0127D50F:
 .byte   N03 ,Gn3 ,v112
 .byte   N03 ,As3
 .byte   W12
 .byte   Fn3
 .byte   N03 ,An3
 .byte   W12
 .byte   Fn3 ,v092
 .byte   N03 ,An3
 .byte   W12
 .byte   Fn3
 .byte   N03 ,An3
 .byte   W12
 .byte   N04 ,Fn3 ,v112
 .byte   N04 ,An3
 .byte   W24
 .byte   N03 ,Fn3 ,v100
 .byte   N03 ,An3
 .byte   W12
 .byte   Fn3 ,v092
 .byte   N03 ,An3
 .byte   W12
 .byte   PEND 
@ 019   ----------------------------------------
Label_12_0127D534:
 .byte   N03 ,Fn3 ,v092
 .byte   N03 ,An3
 .byte   W12
 .byte   Gn3 ,v116
 .byte   N03 ,As3
 .byte   W12
 .byte   Gn3 ,v080
 .byte   N03 ,As3
 .byte   W12
 .byte   Gn3
 .byte   N03 ,As3
 .byte   W12
 .byte   N04 ,Gn3 ,v116
 .byte   N04 ,As3
 .byte   W12
 .byte   N03 ,Gn3 ,v080
 .byte   N03 ,As3
 .byte   W12
 .byte   Gn3
 .byte   N03 ,As3
 .byte   W12
 .byte   Gn3 ,v108
 .byte   N03 ,As3
 .byte   W12
 .byte   PEND 
@ 020   ----------------------------------------
 .byte   Gn3 ,v112
 .byte   N03 ,As3
 .byte   W96
@ 021   ----------------------------------------
 .byte   W96
@ 022   ----------------------------------------
 .byte   W96
@ 023   ----------------------------------------
 .byte   W96
@ 024   ----------------------------------------
 .byte   W96
@ 025   ----------------------------------------
 .byte   W96
@ 026   ----------------------------------------
 .byte   W96
@ 027   ----------------------------------------
 .byte   W96
@ 028   ----------------------------------------
 .byte   W12
 .byte   Fn3
 .byte   N03 ,An3
 .byte   W12
 .byte   Fn3 ,v092
 .byte   N03 ,An3
 .byte   W12
 .byte   Fn3
 .byte   N03 ,An3
 .byte   W12
 .byte   N04 ,Fn3 ,v112
 .byte   N04 ,An3
 .byte   W24
 .byte   N03 ,Fn3 ,v100
 .byte   N03 ,An3
 .byte   W12
 .byte   Fn3 ,v092
 .byte   N03 ,An3
 .byte   W12
@ 029   ----------------------------------------
 .byte   PATT
  .word Label_12_0127D4E5
@ 030   ----------------------------------------
 .byte   PATT
  .word Label_12_0127D50F
@ 031   ----------------------------------------
 .byte   PATT
  .word Label_12_0127D534
@ 032   ----------------------------------------
 .byte   PATT
  .word Label_12_0127D50F
@ 033   ----------------------------------------
 .byte   PATT
  .word Label_12_0127D4E5
@ 034   ----------------------------------------
 .byte   PATT
  .word Label_12_0127D50F
@ 035   ----------------------------------------
 .byte   PATT
  .word Label_12_0127D4E5
@ 036   ----------------------------------------
 .byte   N03 ,Gn3 ,v112
 .byte   N03 ,As3
 .byte   W96
@ 037   ----------------------------------------
 .byte   W96
@ 038   ----------------------------------------
 .byte   W96
@ 039   ----------------------------------------
 .byte   W96
@ 040   ----------------------------------------
 .byte   W96
@ 041   ----------------------------------------
 .byte   W96
@ 042   ----------------------------------------
 .byte   W96
@ 043   ----------------------------------------
 .byte   W96
@ 044   ----------------------------------------
 .byte   W96
@ 045   ----------------------------------------
 .byte   W96
@ 046   ----------------------------------------
 .byte   W96
@ 047   ----------------------------------------
 .byte   W96
@ 048   ----------------------------------------
 .byte   W96
@ 049   ----------------------------------------
 .byte   W96
@ 050   ----------------------------------------
 .byte   W96
@ 051   ----------------------------------------
 .byte   W96
@ 052   ----------------------------------------
 .byte   W96
@ 053   ----------------------------------------
 .byte   W96
@ 054   ----------------------------------------
 .byte   W96
@ 055   ----------------------------------------
 .byte   W96
@ 056   ----------------------------------------
 .byte   PATT
  .word Label_12_0127D3C0
@ 057   ----------------------------------------
 .byte   PATT
  .word Label_12_0127D3E2
@ 058   ----------------------------------------
 .byte   PATT
  .word Label_12_0127D40C
@ 059   ----------------------------------------
 .byte   PATT
  .word Label_12_0127D3E2
@ 060   ----------------------------------------
 .byte   N03 ,Dn3 ,v112
 .byte   N03 ,Fn3
 .byte   W12
 .byte   GOTO
  .word Label_12_0127D40C
 .byte   FINE

@**************** Track 14 (Midi-Chn.13) ****************@

songAD_014:
@ 000   ----------------------------------------
 .byte   KEYSH , songAD_key+0
 .byte   VOICE , 14
 .byte   VOL , 38*songAD_mvl/mxv
 .byte   PAN , c_v-4
 .byte   W96
@ 001   ----------------------------------------
 .byte   W96
@ 002   ----------------------------------------
 .byte   W96
@ 003   ----------------------------------------
 .byte   W96
@ 004   ----------------------------------------
 .byte   W96
@ 005   ----------------------------------------
 .byte   W96
@ 006   ----------------------------------------
Label_13_0127D5F6:
 .byte   W96
@ 007   ----------------------------------------
 .byte   W96
@ 008   ----------------------------------------
 .byte   W96
@ 009   ----------------------------------------
 .byte   W96
@ 010   ----------------------------------------
 .byte   W96
@ 011   ----------------------------------------
 .byte   W96
@ 012   ----------------------------------------
 .byte   W96
@ 013   ----------------------------------------
 .byte   W96
@ 014   ----------------------------------------
 .byte   W96
@ 015   ----------------------------------------
 .byte   W96
@ 016   ----------------------------------------
 .byte   W96
@ 017   ----------------------------------------
 .byte   W96
@ 018   ----------------------------------------
 .byte   W96
@ 019   ----------------------------------------
 .byte   W96
@ 020   ----------------------------------------
 .byte   W96
@ 021   ----------------------------------------
 .byte   W96
@ 022   ----------------------------------------
 .byte   W96
@ 023   ----------------------------------------
 .byte   W96
@ 024   ----------------------------------------
 .byte   W96
@ 025   ----------------------------------------
 .byte   W96
@ 026   ----------------------------------------
 .byte   W96
@ 027   ----------------------------------------
 .byte   W96
@ 028   ----------------------------------------
 .byte   W96
@ 029   ----------------------------------------
 .byte   W96
@ 030   ----------------------------------------
 .byte   W96
@ 031   ----------------------------------------
 .byte   W96
@ 032   ----------------------------------------
 .byte   W96
@ 033   ----------------------------------------
 .byte   W96
@ 034   ----------------------------------------
 .byte   W96
@ 035   ----------------------------------------
 .byte   W96
@ 036   ----------------------------------------
 .byte   W12
 .byte   N96 ,Dn3 ,v120
 .byte   W02
 .byte   An3 ,v127
 .byte   W80
 .byte   W02
@ 037   ----------------------------------------
 .byte   W96
@ 038   ----------------------------------------
 .byte   W12
 .byte   Cn3 ,v124
 .byte   W02
 .byte   Fs3 ,v127
 .byte   W80
 .byte   W02
@ 039   ----------------------------------------
 .byte   W12
 .byte   As2 ,v124
 .byte   W02
 .byte   Gn3 ,v127
 .byte   W80
 .byte   W02
@ 040   ----------------------------------------
 .byte   W12
 .byte   As2 ,v124
 .byte   W02
 .byte   En3 ,v127
 .byte   W80
 .byte   W02
@ 041   ----------------------------------------
 .byte   W12
 .byte   Bn2 ,v124
 .byte   W02
 .byte   Fs3 ,v127
 .byte   W80
 .byte   W02
@ 042   ----------------------------------------
 .byte   W96
@ 043   ----------------------------------------
 .byte   W96
@ 044   ----------------------------------------
 .byte   W96
@ 045   ----------------------------------------
 .byte   W96
@ 046   ----------------------------------------
 .byte   W96
@ 047   ----------------------------------------
 .byte   W96
@ 048   ----------------------------------------
 .byte   W96
@ 049   ----------------------------------------
 .byte   W96
@ 050   ----------------------------------------
 .byte   W96
@ 051   ----------------------------------------
 .byte   W96
@ 052   ----------------------------------------
 .byte   W96
@ 053   ----------------------------------------
 .byte   W96
@ 054   ----------------------------------------
 .byte   W96
@ 055   ----------------------------------------
 .byte   W96
@ 056   ----------------------------------------
 .byte   W96
@ 057   ----------------------------------------
 .byte   W96
@ 058   ----------------------------------------
 .byte   W96
@ 059   ----------------------------------------
 .byte   W96
@ 060   ----------------------------------------
 .byte   W12
 .byte   GOTO
  .word Label_13_0127D5F6
 .byte   FINE

@**************** Track 15 (Midi-Chn.14) ****************@

songAD_015:
@ 000   ----------------------------------------
 .byte   KEYSH , songAD_key+0
 .byte   VOICE , 46
 .byte   VOL , 25*songAD_mvl/mxv
 .byte   PAN , c_v-44
 .byte   W96
@ 001   ----------------------------------------
 .byte   W96
@ 002   ----------------------------------------
 .byte   W96
@ 003   ----------------------------------------
 .byte   W96
@ 004   ----------------------------------------
 .byte   W96
@ 005   ----------------------------------------
 .byte   W96
@ 006   ----------------------------------------
Label_14_0127D666:
 .byte   W96
@ 007   ----------------------------------------
 .byte   W96
@ 008   ----------------------------------------
 .byte   W96
@ 009   ----------------------------------------
 .byte   W96
@ 010   ----------------------------------------
 .byte   W96
@ 011   ----------------------------------------
 .byte   W96
@ 012   ----------------------------------------
 .byte   W96
@ 013   ----------------------------------------
 .byte   W96
@ 014   ----------------------------------------
 .byte   W96
@ 015   ----------------------------------------
 .byte   W96
@ 016   ----------------------------------------
 .byte   W96
@ 017   ----------------------------------------
 .byte   W96
@ 018   ----------------------------------------
 .byte   W96
@ 019   ----------------------------------------
Label_14_0127D673:
 .byte   W84
 .byte   N04 ,Gn1 ,v116
 .byte   W04
 .byte   Dn2
 .byte   W04
 .byte   Gn2
 .byte   W04
 .byte   PEND 
@ 020   ----------------------------------------
Label_14_0127D67D:
 .byte   N04 ,An2 ,v112
 .byte   W04
 .byte   As2
 .byte   W04
 .byte   Dn3
 .byte   W04
 .byte   Gs1 ,v116
 .byte   W04
 .byte   Ds2
 .byte   W04
 .byte   Gs2 ,v112
 .byte   W04
 .byte   As2
 .byte   W04
 .byte   Cn3
 .byte   W04
 .byte   Ds3
 .byte   W04
 .byte   Gs2
 .byte   W04
 .byte   Ds3
 .byte   W04
 .byte   Gs3
 .byte   W04
 .byte   As3 ,v108
 .byte   W04
 .byte   Cn4
 .byte   W04
 .byte   Ds4
 .byte   W04
 .byte   Gs3 ,v100
 .byte   W04
 .byte   Ds4
 .byte   W04
 .byte   Gs4
 .byte   W04
 .byte   As4
 .byte   W04
 .byte   Cn5
 .byte   W04
 .byte   Ds5
 .byte   W04
 .byte   Gs5
 .byte   W12
 .byte   PEND 
@ 021   ----------------------------------------
 .byte   W96
@ 022   ----------------------------------------
 .byte   W96
@ 023   ----------------------------------------
 .byte   PATT
  .word Label_14_0127D673
@ 024   ----------------------------------------
 .byte   PATT
  .word Label_14_0127D67D
@ 025   ----------------------------------------
 .byte   W96
@ 026   ----------------------------------------
 .byte   W96
@ 027   ----------------------------------------
 .byte   PATT
  .word Label_14_0127D673
@ 028   ----------------------------------------
 .byte   N04 ,An2 ,v112
 .byte   W04
 .byte   As2
 .byte   W04
 .byte   Dn3
 .byte   W04
 .byte   Dn1 ,v116
 .byte   W04
 .byte   An1
 .byte   W04
 .byte   Dn2 ,v112
 .byte   W04
 .byte   En2
 .byte   W04
 .byte   Fn2
 .byte   W04
 .byte   An2
 .byte   W04
 .byte   Dn2
 .byte   W04
 .byte   An2
 .byte   W04
 .byte   Dn3
 .byte   W04
 .byte   En3 ,v108
 .byte   W04
 .byte   Fn3
 .byte   W04
 .byte   An3
 .byte   W04
 .byte   Dn3 ,v100
 .byte   W04
 .byte   An3
 .byte   W04
 .byte   Dn4
 .byte   W04
 .byte   En4
 .byte   W04
 .byte   Fn4
 .byte   W04
 .byte   An4
 .byte   W04
 .byte   Dn5
 .byte   W12
@ 029   ----------------------------------------
 .byte   W96
@ 030   ----------------------------------------
Label_14_0127D6F6:
 .byte   W12
 .byte   N04 ,Dn1 ,v116
 .byte   W04
 .byte   An1
 .byte   W04
 .byte   Dn2 ,v112
 .byte   W04
 .byte   En2
 .byte   W04
 .byte   Fn2
 .byte   W04
 .byte   An2
 .byte   W04
 .byte   Dn2
 .byte   W04
 .byte   An2
 .byte   W04
 .byte   Dn3
 .byte   W04
 .byte   En3 ,v108
 .byte   W04
 .byte   Fn3
 .byte   W04
 .byte   An3
 .byte   W04
 .byte   Dn3 ,v100
 .byte   W04
 .byte   An3
 .byte   W04
 .byte   Dn4
 .byte   W04
 .byte   En4
 .byte   W04
 .byte   Fn4
 .byte   W04
 .byte   An4
 .byte   W04
 .byte   Dn5
 .byte   W12
 .byte   PEND 
@ 031   ----------------------------------------
 .byte   W96
@ 032   ----------------------------------------
 .byte   PATT
  .word Label_14_0127D6F6
@ 033   ----------------------------------------
 .byte   W96
@ 034   ----------------------------------------
 .byte   PATT
  .word Label_14_0127D6F6
@ 035   ----------------------------------------
 .byte   W96
@ 036   ----------------------------------------
 .byte   W96
@ 037   ----------------------------------------
 .byte   W96
@ 038   ----------------------------------------
 .byte   W96
@ 039   ----------------------------------------
 .byte   W96
@ 040   ----------------------------------------
 .byte   W96
@ 041   ----------------------------------------
 .byte   W96
@ 042   ----------------------------------------
 .byte   W96
@ 043   ----------------------------------------
 .byte   W96
@ 044   ----------------------------------------
 .byte   W96
@ 045   ----------------------------------------
 .byte   W96
@ 046   ----------------------------------------
 .byte   W96
@ 047   ----------------------------------------
 .byte   W96
@ 048   ----------------------------------------
 .byte   W96
@ 049   ----------------------------------------
 .byte   W96
@ 050   ----------------------------------------
 .byte   W96
@ 051   ----------------------------------------
 .byte   W96
@ 052   ----------------------------------------
 .byte   W96
@ 053   ----------------------------------------
 .byte   W96
@ 054   ----------------------------------------
 .byte   W96
@ 055   ----------------------------------------
 .byte   W96
@ 056   ----------------------------------------
 .byte   W96
@ 057   ----------------------------------------
 .byte   W96
@ 058   ----------------------------------------
 .byte   W96
@ 059   ----------------------------------------
 .byte   W96
@ 060   ----------------------------------------
 .byte   W12
 .byte   GOTO
  .word Label_14_0127D666
 .byte   FINE

@******************************************************@
	.align	2

songAD:
	.byte	15	@ NumTrks
	.byte	0	@ NumBlks
	.byte	songAD_pri	@ Priority
	.byte	songAD_rev	@ Reverb.
    
	.word	songAD_grp
    
	.word	songAD_001
	.word	songAD_002
	.word	songAD_003
	.word	songAD_004
	.word	songAD_005
	.word	songAD_006
	.word	songAD_007
	.word	songAD_008
	.word	songAD_009
	.word	songAD_010
	.word	songAD_011
	.word	songAD_012
	.word	songAD_013
	.word	songAD_014
	.word	songAD_015

	.end
