        .include "MPlayDef.s"

        .equ    RepairedDEnotefix_grp, voicegroup000
        .equ    RepairedDEnotefix_pri, 0
        .equ    RepairedDEnotefix_rev, 0
        .equ    RepairedDEnotefix_key, 0

        .section .rodata
        .global RepairedDEnotefix
        .align  2

@****************** Track 0 (Midi-Chn.0) ******************@

RepairedDEnotefix_0:
        .byte   KEYSH , RepairedDEnotefix_key+0
@ 000   ----------------------------------------
        .byte   TEMPO , 156/2
RepairedDEnotefix_0_LOOP:
        .byte           VOICE , 62
        .byte           VOL   , 32
        .byte           PAN   , c_v+6
        .byte   W96
@ 001   ----------------------------------------
        .byte   W96
@ 002   ----------------------------------------
        .byte   W96
@ 003   ----------------------------------------
        .byte   W96
@ 004   ----------------------------------------
        .byte   W96
@ 005   ----------------------------------------
        .byte   W96
@ 006   ----------------------------------------
        .byte   W48
        .byte           N48   , Fs2 , v108
        .byte   W48
@ 007   ----------------------------------------
        .byte                   Bn2
        .byte   W48
        .byte                   Dn3
        .byte   W48
@ 008   ----------------------------------------
        .byte           TIE   , Cn3
        .byte   W96
@ 009   ----------------------------------------
        .byte   W96
@ 010   ----------------------------------------
        .byte           EOT
        .byte   W96
@ 011   ----------------------------------------
        .byte   W96
@ 012   ----------------------------------------
        .byte           N96   , Bn2 , v127
        .byte   W96
@ 013   ----------------------------------------
        .byte                   En3
        .byte   W96
@ 014   ----------------------------------------
RepairedDEnotefix_0_14:
        .byte   W48
        .byte           N48   , Dn3 , v127
        .byte   W48
        .byte   PEND
@ 015   ----------------------------------------
        .byte                   Fs3
        .byte   W48
        .byte                   An3
        .byte   W48
@ 016   ----------------------------------------
        .byte           N96   , Gn3
        .byte   W96
@ 017   ----------------------------------------
        .byte                   Cn4
        .byte   W96
@ 018   ----------------------------------------
        .byte           N48   , Bn3
        .byte   W48
        .byte           N72   , Fs3
        .byte   W48
@ 019   ----------------------------------------
        .byte   W48
        .byte           N48   , Gn3
        .byte   W48
@ 020   ----------------------------------------
        .byte           N96   , En3
        .byte   W96
@ 021   ----------------------------------------
        .byte           TIE   , Bn3
        .byte   W96
@ 022   ----------------------------------------
        .byte   W24
        .byte           EOT
        .byte   W24
        .byte           N48   , An3
        .byte   W48
@ 023   ----------------------------------------
        .byte                   Gn3
        .byte   W48
        .byte                   Fs3
        .byte   W48
@ 024   ----------------------------------------
        .byte           TIE   , En3
        .byte   W96
@ 025   ----------------------------------------
        .byte   W96
@ 026   ----------------------------------------
        .byte           EOT
        .byte   W96
@ 027   ----------------------------------------
        .byte   W96
@ 028   ----------------------------------------
        .byte           N96   , Bn2
        .byte   W96
@ 029   ----------------------------------------
        .byte                   En3
        .byte           N96   , Bn2 , v108
        .byte   W96
@ 030   ----------------------------------------
        .byte   PATT
         .word  RepairedDEnotefix_0_14
@ 031   ----------------------------------------
        .byte           N48   , Fs3 , v127
        .byte           N48   , Dn3 , v108
        .byte   W48
        .byte                   An3 , v127
        .byte           N48   , Fs3 , v108
        .byte   W48
@ 032   ----------------------------------------
        .byte           N96   , Gn3 , v127
        .byte           N96   , En3 , v108
        .byte   W96
@ 033   ----------------------------------------
        .byte                   Cn4 , v127
        .byte           N96   , Gn3 , v108
        .byte   W96
@ 034   ----------------------------------------
        .byte           N48   , Bn3 , v127
        .byte           N48   , Fs3 , v108
        .byte   W48
        .byte           N72   , Fs3 , v127
        .byte           N72   , Dn3 , v108
        .byte   W48
@ 035   ----------------------------------------
        .byte   W48
        .byte           N48   , Gn3 , v127
        .byte           N48   , En3 , v108
        .byte   W48
@ 036   ----------------------------------------
        .byte           N96   , En3 , v127
        .byte           N96   , Cn3 , v108
        .byte   W96
@ 037   ----------------------------------------
RepairedDEnotefix_0_37:
        .byte           TIE   , Bn3 , v127
        .byte           TIE   , Gn3 , v108
        .byte   W96
        .byte   PEND
@ 038   ----------------------------------------
        .byte   W24
        .byte           EOT
        .byte           EOT   , Bn3
        .byte   W24
        .byte           N48   , An3 , v127
        .byte           N48   , Fn3 , v108
        .byte   W48
@ 039   ----------------------------------------
        .byte                   Dn4 , v127
        .byte           N48   , An3 , v108
        .byte   W48
        .byte                   Cn4 , v127
        .byte           N48   , An3 , v108
        .byte   W48
@ 040   ----------------------------------------
        .byte   PATT
         .word  RepairedDEnotefix_0_37
@ 041   ----------------------------------------
        .byte   W96
@ 042   ----------------------------------------
        .byte           EOT   , Gn3
        .byte                   Bn3
        .byte   W96
@ 043   ----------------------------------------
        .byte   W96
@ 044   ----------------------------------------
        .byte   W96
@ 045   ----------------------------------------
        .byte   W96
@ 046   ----------------------------------------
        .byte   W48
        .byte           N48   , Gn2 , v127
        .byte   W48
@ 047   ----------------------------------------
        .byte                   Bn2
        .byte   W48
        .byte                   Dn3
        .byte           N48   , Bn2 , v108
        .byte   W48
@ 048   ----------------------------------------
        .byte           TIE   , En3 , v127
        .byte           TIE   , Cn3 , v100
        .byte   W96
@ 049   ----------------------------------------
        .byte   W96
@ 050   ----------------------------------------
        .byte           EOT
        .byte           EOT   , En3
        .byte   W96
@ 051   ----------------------------------------
        .byte           VOICE , 0
        .byte           VOL   , 30
        .byte           PAN   , c_v+0
        .byte   W96
@ 052   ----------------------------------------
        .byte           TIE   , En1 , v112
        .byte           TIE   , En0 , v120
        .byte   W96
@ 053   ----------------------------------------
        .byte   W96
@ 054   ----------------------------------------
        .byte           EOT
        .byte           EOT   , En1
        .byte   W96
@ 055   ----------------------------------------
        .byte   W96
@ 056   ----------------------------------------
        .byte   W96
@ 057   ----------------------------------------
        .byte   W96
@ 058   ----------------------------------------
        .byte           VOICE , 60
        .byte           PAN   , c_v+6
        .byte   W96
@ 059   ----------------------------------------
        .byte   W96
@ 060   ----------------------------------------
        .byte           N84   , En2 , v127
        .byte   W96
@ 061   ----------------------------------------
        .byte           N36
        .byte   W36
        .byte                   Fs2
        .byte   W36
        .byte           N24   , Gn2
        .byte           N24   , En2 , v100
        .byte   W24
@ 062   ----------------------------------------
        .byte           N96   , An2 , v127
        .byte           N96   , Fn2 , v100
        .byte   W96
@ 063   ----------------------------------------
        .byte                   Fn2 , v127
        .byte           N96   , Dn2 , v100
        .byte   W96
@ 064   ----------------------------------------
        .byte                   En2 , v127
        .byte           N96   , Bn1 , v100
        .byte   W96
@ 065   ----------------------------------------
        .byte           N36   , Gn2 , v127
        .byte           N36   , En2 , v100
        .byte   W36
        .byte                   Bn2 , v127
        .byte           N36   , Gn2 , v100
        .byte   W36
        .byte           N24   , Gn3 , v127
        .byte           N24   , Bn2 , v100
        .byte   W24
@ 066   ----------------------------------------
        .byte           N96   , Fn3 , v127
        .byte           TIE   , An2 , v100
        .byte   W96
@ 067   ----------------------------------------
        .byte           N96   , Dn3 , v127
        .byte   W96
@ 068   ----------------------------------------
        .byte           EOT   , An2
        .byte           N36   , En3
        .byte           N36   , Bn2 , v112
        .byte   W36
        .byte                   Fs3 , v127
        .byte           N36   , Bn2 , v112
        .byte   W36
        .byte           N24   , Gn3 , v127
        .byte           N24   , Bn2 , v112
        .byte   W24
@ 069   ----------------------------------------
        .byte           TIE   , An3 , v127
        .byte           TIE   , En3 , v112
        .byte   W96
@ 070   ----------------------------------------
        .byte   W24
        .byte           EOT
        .byte           EOT   , An3
        .byte   W12
        .byte           N36   , Bn3 , v127
        .byte           N36   , Fn3 , v112
        .byte   W36
        .byte           N24   , An3 , v127
        .byte           N24   , Fn3 , v112
        .byte   W24
@ 071   ----------------------------------------
        .byte           N36   , Cn4 , v127
        .byte           N36   , An3 , v112
        .byte   W36
        .byte                   Bn3 , v127
        .byte           N36   , Gn3 , v112
        .byte   W36
        .byte           N24   , An3 , v127
        .byte           N24   , Fn3 , v112
        .byte   W24
@ 072   ----------------------------------------
        .byte           N36   , Bn3 , v127
        .byte           N36   , Gn3 , v112
        .byte   W36
        .byte                   Gn3 , v127
        .byte           N36   , En3 , v112
        .byte   W36
        .byte           TIE   , En3 , v127
        .byte           TIE   , Bn2 , v112
        .byte   W24
@ 073   ----------------------------------------
        .byte   W96
@ 074   ----------------------------------------
        .byte   W24
        .byte           EOT
        .byte           EOT   , En3
        .byte   W12
        .byte           N36   , Dn3 , v127
        .byte           N36   , An2 , v112
        .byte   W36
        .byte           N24   , Cn4 , v127
        .byte           N24   , An3 , v112
        .byte   W24
@ 075   ----------------------------------------
        .byte           N36   , An3 , v127
        .byte           N36   , Fn3 , v112
        .byte   W36
        .byte                   Bn3 , v127
        .byte           N36   , Fn3 , v112
        .byte   W36
        .byte           N24   , Cn4 , v127
        .byte           N24   , Fn3 , v112
        .byte   W24
@ 076   ----------------------------------------
        .byte           VOICE , 62
        .byte           VOL   , 32
        .byte   GOTO
         .word  RepairedDEnotefix_0_LOOP
        .byte   FINE

@****************** Track 1 (Midi-Chn.1) ******************@

RepairedDEnotefix_1:
        .byte   KEYSH , RepairedDEnotefix_key+0
@ 000   ----------------------------------------
RepairedDEnotefix_1_LOOP:
        .byte           VOICE , 60
        .byte           VOL   , 30
        .byte           PAN   , c_v+10
        .byte   W96
@ 001   ----------------------------------------
        .byte   W96
@ 002   ----------------------------------------
        .byte   W96
@ 003   ----------------------------------------
        .byte   W96
@ 004   ----------------------------------------
        .byte           N96   , An3 , v100
        .byte           N96   , Fs3
        .byte   W96
@ 005   ----------------------------------------
        .byte                   Bn3
        .byte           N96   , Fs3
        .byte   W96
@ 006   ----------------------------------------
        .byte           TIE
        .byte           TIE   , Dn3
        .byte   W96
@ 007   ----------------------------------------
        .byte   W96
@ 008   ----------------------------------------
        .byte           EOT
        .byte           EOT   , Fs3
        .byte           TIE   , En3
        .byte           TIE   , Cn3
        .byte   W96
@ 009   ----------------------------------------
        .byte   W96
@ 010   ----------------------------------------
        .byte           EOT
        .byte           EOT   , En3
        .byte           TIE   , An3 , v108
        .byte           TIE   , En3
        .byte   W96
@ 011   ----------------------------------------
        .byte   W96
@ 012   ----------------------------------------
        .byte           EOT
        .byte           EOT   , An3
        .byte   W96
@ 013   ----------------------------------------
        .byte   W96
@ 014   ----------------------------------------
        .byte   W96
@ 015   ----------------------------------------
        .byte   W96
@ 016   ----------------------------------------
        .byte   W96
@ 017   ----------------------------------------
        .byte   W96
@ 018   ----------------------------------------
        .byte   W96
@ 019   ----------------------------------------
        .byte   W96
@ 020   ----------------------------------------
        .byte   W96
@ 021   ----------------------------------------
        .byte   W96
@ 022   ----------------------------------------
        .byte   W96
@ 023   ----------------------------------------
        .byte   W96
@ 024   ----------------------------------------
        .byte   W96
@ 025   ----------------------------------------
        .byte   W96
@ 026   ----------------------------------------
        .byte   W96
@ 027   ----------------------------------------
        .byte   W96
@ 028   ----------------------------------------
        .byte   W96
@ 029   ----------------------------------------
        .byte   W96
@ 030   ----------------------------------------
        .byte   W96
@ 031   ----------------------------------------
        .byte   W96
@ 032   ----------------------------------------
        .byte   W96
@ 033   ----------------------------------------
        .byte   W96
@ 034   ----------------------------------------
        .byte   W96
@ 035   ----------------------------------------
        .byte   W96
@ 036   ----------------------------------------
        .byte   W96
@ 037   ----------------------------------------
        .byte   W96
@ 038   ----------------------------------------
        .byte   W96
@ 039   ----------------------------------------
        .byte   W96
@ 040   ----------------------------------------
        .byte   W96
@ 041   ----------------------------------------
        .byte   W96
@ 042   ----------------------------------------
        .byte   W96
@ 043   ----------------------------------------
        .byte   W96
@ 044   ----------------------------------------
        .byte   W96
@ 045   ----------------------------------------
        .byte   W96
@ 046   ----------------------------------------
        .byte   W96
@ 047   ----------------------------------------
        .byte   W96
@ 048   ----------------------------------------
        .byte   W96
@ 049   ----------------------------------------
        .byte   W96
@ 050   ----------------------------------------
        .byte   W96
@ 051   ----------------------------------------
        .byte           VOICE , 19
        .byte           VOL   , 25
        .byte           PAN   , c_v+0
        .byte   W96
@ 052   ----------------------------------------
        .byte           TIE   , En2 , v092
        .byte           TIE   , En1
        .byte   W96
@ 053   ----------------------------------------
        .byte   W96
@ 054   ----------------------------------------
        .byte           EOT
        .byte           EOT   , En2
        .byte           TIE   , Fs2
        .byte           TIE   , Fs1
        .byte   W96
@ 055   ----------------------------------------
        .byte   W96
@ 056   ----------------------------------------
        .byte           EOT
        .byte           EOT   , Fs2
        .byte           TIE   , An2
        .byte           TIE   , An1
        .byte   W96
@ 057   ----------------------------------------
        .byte   W96
@ 058   ----------------------------------------
        .byte           EOT
        .byte           EOT   , An2
        .byte           N96   , Bn2
        .byte           N96   , Bn1
        .byte   W96
@ 059   ----------------------------------------
        .byte                   Bn1
        .byte           N96   , Bn0
        .byte   W96
@ 060   ----------------------------------------
        .byte   W96
@ 061   ----------------------------------------
        .byte   W96
@ 062   ----------------------------------------
        .byte   W96
@ 063   ----------------------------------------
        .byte   W96
@ 064   ----------------------------------------
        .byte   W96
@ 065   ----------------------------------------
        .byte   W96
@ 066   ----------------------------------------
        .byte   W96
@ 067   ----------------------------------------
        .byte   W96
@ 068   ----------------------------------------
        .byte   W96
@ 069   ----------------------------------------
        .byte   W96
@ 070   ----------------------------------------
        .byte   W96
@ 071   ----------------------------------------
        .byte   W96
@ 072   ----------------------------------------
        .byte   W96
@ 073   ----------------------------------------
        .byte   W96
@ 074   ----------------------------------------
        .byte           VOICE , 60
        .byte           VOL   , 30
        .byte           PAN   , c_v+10
        .byte   W96
@ 075   ----------------------------------------
        .byte   W96
@ 076   ----------------------------------------
        .byte   GOTO
         .word  RepairedDEnotefix_1_LOOP
        .byte   FINE

@****************** Track 2 (Midi-Chn.2) ******************@

RepairedDEnotefix_2:
        .byte   KEYSH , RepairedDEnotefix_key+0
@ 000   ----------------------------------------
RepairedDEnotefix_2_LOOP:
        .byte           VOICE , 48
        .byte           PAN   , c_v-7
        .byte   W96
@ 001   ----------------------------------------
        .byte   W96
@ 002   ----------------------------------------
        .byte   W96
@ 003   ----------------------------------------
        .byte   W96
@ 004   ----------------------------------------
        .byte   W96
@ 005   ----------------------------------------
        .byte   W96
@ 006   ----------------------------------------
        .byte   W96
@ 007   ----------------------------------------
        .byte   W96
@ 008   ----------------------------------------
        .byte   W96
@ 009   ----------------------------------------
        .byte   W96
@ 010   ----------------------------------------
        .byte   W96
@ 011   ----------------------------------------
        .byte           VOL   , 25
        .byte   W96
@ 012   ----------------------------------------
        .byte           TIE   , Gn3 , v100
        .byte           TIE   , En3
        .byte           TIE   , Bn2
        .byte   W96
@ 013   ----------------------------------------
        .byte   W96
@ 014   ----------------------------------------
RepairedDEnotefix_2_14:
        .byte           EOT   , Bn2
        .byte                   En3
        .byte                   Gn3
        .byte           TIE   , Fs3 , v100
        .byte           TIE   , Dn3
        .byte           TIE   , Bn2
        .byte   W96
        .byte   PEND
@ 015   ----------------------------------------
        .byte   W96
@ 016   ----------------------------------------
RepairedDEnotefix_2_16:
        .byte           EOT   , Bn2
        .byte                   Dn3
        .byte                   Fs3
        .byte           TIE   , En3 , v100
        .byte           TIE   , Cn3
        .byte           TIE   , Bn2
        .byte   W96
        .byte   PEND
@ 017   ----------------------------------------
        .byte   W96
@ 018   ----------------------------------------
RepairedDEnotefix_2_18:
        .byte           EOT   , Bn2
        .byte                   Cn3
        .byte                   En3
        .byte           TIE   , Fs3 , v100
        .byte           TIE   , Dn3
        .byte           TIE   , Bn2
        .byte   W96
        .byte   PEND
@ 019   ----------------------------------------
        .byte   W96
@ 020   ----------------------------------------
RepairedDEnotefix_2_20:
        .byte           EOT   , Bn2
        .byte                   Dn3
        .byte                   Fs3
        .byte           TIE   , Gn3 , v096
        .byte           TIE   , En3
        .byte           N96   , Dn3 , v108
        .byte   W96
        .byte   PEND
@ 021   ----------------------------------------
        .byte                   Cn3
        .byte   W96
@ 022   ----------------------------------------
        .byte                   Bn2
        .byte   W96
@ 023   ----------------------------------------
        .byte                   Cn3
        .byte   W96
@ 024   ----------------------------------------
        .byte           EOT   , En3
        .byte                   Gn3
        .byte           TIE   , Gn3 , v080
        .byte           TIE   , En3
        .byte           TIE   , Bn2
        .byte   W96
@ 025   ----------------------------------------
        .byte   W96
@ 026   ----------------------------------------
        .byte           EOT
        .byte           EOT   , En3
        .byte                   Gn3
        .byte           N96   , Fs3 , v088
        .byte           TIE   , En3 , v076
        .byte           N96   , Bn2 , v088
        .byte   W96
@ 027   ----------------------------------------
        .byte                   Dn4
        .byte           N96   , Bn3
        .byte   W96
@ 028   ----------------------------------------
        .byte           EOT   , En3
        .byte           TIE   , Gn3 , v100
        .byte           TIE   , En3
        .byte           TIE   , Bn2
        .byte   W96
@ 029   ----------------------------------------
        .byte   W96
@ 030   ----------------------------------------
        .byte   PATT
         .word  RepairedDEnotefix_2_14
@ 031   ----------------------------------------
        .byte   W96
@ 032   ----------------------------------------
        .byte   PATT
         .word  RepairedDEnotefix_2_16
@ 033   ----------------------------------------
        .byte   W96
@ 034   ----------------------------------------
        .byte   PATT
         .word  RepairedDEnotefix_2_18
@ 035   ----------------------------------------
        .byte   W96
@ 036   ----------------------------------------
        .byte   PATT
         .word  RepairedDEnotefix_2_20
@ 037   ----------------------------------------
        .byte           N96   , Cn3 , v108
        .byte   W96
@ 038   ----------------------------------------
        .byte           EOT   , En3
        .byte                   Gn3
        .byte           TIE   , An3 , v096
        .byte           TIE   , Fn3
        .byte           N96   , En3 , v108
        .byte   W96
@ 039   ----------------------------------------
        .byte                   Cn3
        .byte   W96
@ 040   ----------------------------------------
        .byte           EOT   , Fn3
        .byte                   An3
        .byte           TIE   , Gn3 , v100
        .byte           TIE   , En3
        .byte           TIE   , Bn2
        .byte   W96
@ 041   ----------------------------------------
        .byte   W96
@ 042   ----------------------------------------
        .byte           EOT
        .byte           EOT   , En3
        .byte                   Gn3
        .byte           TIE   , Bn2 , v127
        .byte           TIE   , En3 , v100
        .byte           N96   , Fs3 , v127
        .byte   W96
@ 043   ----------------------------------------
        .byte                   Dn4
        .byte           N96   , Bn3
        .byte   W96
@ 044   ----------------------------------------
        .byte           EOT   , En3
        .byte                   Bn2
        .byte           VOL   , 22
        .byte           TIE   , En5 , v100
        .byte           TIE   , Bn4
        .byte   W96
@ 045   ----------------------------------------
        .byte   W96
@ 046   ----------------------------------------
        .byte           EOT
        .byte           EOT   , En5
        .byte           TIE   , Bn4
        .byte           TIE   , Gn4
        .byte   W96
@ 047   ----------------------------------------
        .byte   W96
@ 048   ----------------------------------------
        .byte           EOT
        .byte           EOT   , Bn4
        .byte           TIE   , En5
        .byte           TIE   , Bn4
        .byte   W96
@ 049   ----------------------------------------
        .byte   W96
@ 050   ----------------------------------------
        .byte           EOT
        .byte           EOT   , En5
        .byte           N36   , Bn4
        .byte           N36   , Gn4
        .byte   W36
        .byte                   An4
        .byte           N36   , Fs4
        .byte   W36
        .byte           N24   , Gn4
        .byte           N24   , En4
        .byte   W24
@ 051   ----------------------------------------
        .byte           N36   , An4
        .byte           N36   , Fs4
        .byte   W36
        .byte                   Gn4
        .byte           N36   , En4
        .byte   W36
        .byte           N24   , Fs4
        .byte           N24   , Ds4
        .byte   W24
@ 052   ----------------------------------------
        .byte   W96
@ 053   ----------------------------------------
        .byte   W96
@ 054   ----------------------------------------
        .byte   W96
@ 055   ----------------------------------------
        .byte   W96
@ 056   ----------------------------------------
        .byte   W96
@ 057   ----------------------------------------
        .byte   W96
@ 058   ----------------------------------------
        .byte   W96
@ 059   ----------------------------------------
        .byte   W72
        .byte           N04   , Fs3
        .byte           N04   , Ds3
        .byte   W04
        .byte                   Gn3
        .byte           N04   , En3
        .byte   W04
        .byte                   An3
        .byte           N04   , Fs3
        .byte   W04
        .byte                   Bn3
        .byte           N04   , Gn3
        .byte   W04
        .byte                   Cn4
        .byte           N04   , An3
        .byte   W04
        .byte                   Dn4
        .byte           N04   , Bn3
        .byte   W04
@ 060   ----------------------------------------
        .byte           N36   , En4
        .byte           N36   , Bn3
        .byte   W36
        .byte                   Fs4
        .byte           N36   , Bn3
        .byte   W36
        .byte           N24   , Gn4
        .byte           N24   , Bn3
        .byte   W24
@ 061   ----------------------------------------
        .byte           TIE   , An4
        .byte           TIE   , En4
        .byte   W96
@ 062   ----------------------------------------
        .byte   W24
        .byte           EOT
        .byte           EOT   , An4
        .byte   W12
        .byte           N36   , Bn4
        .byte           N36   , Fn4
        .byte   W36
        .byte           N24   , An4
        .byte           N24   , Fn4
        .byte   W24
@ 063   ----------------------------------------
        .byte           N36   , Cn5
        .byte           N36   , An4
        .byte   W36
        .byte                   Bn4
        .byte           N36   , Gn4
        .byte   W36
        .byte           N24   , An4
        .byte           N24   , Fn4
        .byte   W24
@ 064   ----------------------------------------
        .byte           N36   , Bn4
        .byte           N36   , Gn4
        .byte   W36
        .byte                   Gn4
        .byte           N36   , En4
        .byte   W36
        .byte           TIE
        .byte           TIE   , Bn3
        .byte   W24
@ 065   ----------------------------------------
        .byte   W96
@ 066   ----------------------------------------
        .byte   W24
        .byte           EOT
        .byte           EOT   , En4
        .byte   W12
        .byte           N36   , Dn4
        .byte           N36   , An3
        .byte   W36
        .byte           N24   , Cn5
        .byte           N24   , An4
        .byte   W24
@ 067   ----------------------------------------
        .byte           N36
        .byte           N36   , Fn4
        .byte   W36
        .byte                   Bn4
        .byte           N36   , Fn4
        .byte   W36
        .byte           N24   , Cn5
        .byte           N24   , Fn4
        .byte   W24
@ 068   ----------------------------------------
        .byte           N96   , Bn4
        .byte           N96   , En4
        .byte   W96
@ 069   ----------------------------------------
        .byte                   En4
        .byte           N96   , An3
        .byte   W96
@ 070   ----------------------------------------
        .byte                   Cn4
        .byte           N96   , An3
        .byte   W96
@ 071   ----------------------------------------
        .byte           N36   , En4
        .byte           N36   , Cn4
        .byte   W36
        .byte                   Dn4
        .byte           N36   , Bn3
        .byte   W36
        .byte           N24   , Cn4
        .byte           N24   , An3
        .byte   W24
@ 072   ----------------------------------------
        .byte           N96   , Bn3
        .byte           N96   , Gn3
        .byte   W96
@ 073   ----------------------------------------
        .byte           N36   , En4
        .byte           N36   , Bn3
        .byte   W36
        .byte                   Bn4
        .byte           N36   , En4
        .byte   W36
        .byte           N24   , Gn5
        .byte           N24   , Bn4
        .byte   W24
@ 074   ----------------------------------------
        .byte           N96   , Fn5
        .byte           N96   , An4
        .byte   W96
@ 075   ----------------------------------------
        .byte   W96
@ 076   ----------------------------------------
        .byte           VOL   , 100
        .byte   GOTO
         .word  RepairedDEnotefix_2_LOOP
        .byte   FINE

@****************** Track 3 (Midi-Chn.3) ******************@

RepairedDEnotefix_3:
        .byte   KEYSH , RepairedDEnotefix_key+0
@ 000   ----------------------------------------
RepairedDEnotefix_3_LOOP:
        .byte           VOICE , 49
        .byte           VOL   , 25
        .byte           PAN   , c_v-4
        .byte           TIE   , En2 , v100
        .byte           TIE   , Bn1
        .byte   W96
@ 001   ----------------------------------------
        .byte           N96   , Bn2
        .byte   W96
@ 002   ----------------------------------------
        .byte                   Cn3
        .byte           TIE   , An2 , v080
        .byte   W96
@ 003   ----------------------------------------
        .byte           N96   , Dn3 , v100
        .byte   W96
@ 004   ----------------------------------------
        .byte           EOT   , Bn1
        .byte                   En2
        .byte                   An2
        .byte           N96   , Fs3 , v096
        .byte           N96   , En3
        .byte   W96
@ 005   ----------------------------------------
        .byte                   Fs3
        .byte           N96   , En3
        .byte   W96
@ 006   ----------------------------------------
        .byte           TIE   , Dn3
        .byte           TIE   , Bn2
        .byte   W96
@ 007   ----------------------------------------
        .byte   W96
@ 008   ----------------------------------------
        .byte           EOT
        .byte           EOT   , Dn3
        .byte           TIE   , Cn3
        .byte           TIE   , An2
        .byte   W96
@ 009   ----------------------------------------
        .byte   W96
@ 010   ----------------------------------------
        .byte           EOT
        .byte           EOT   , Cn3
        .byte           TIE   , En3
        .byte           TIE   , Cn3
        .byte   W96
@ 011   ----------------------------------------
        .byte   W96
@ 012   ----------------------------------------
        .byte           EOT
        .byte           EOT   , En3
        .byte   W96
@ 013   ----------------------------------------
        .byte   W96
@ 014   ----------------------------------------
        .byte   W96
@ 015   ----------------------------------------
        .byte   W96
@ 016   ----------------------------------------
        .byte   W96
@ 017   ----------------------------------------
        .byte   W96
@ 018   ----------------------------------------
        .byte   W96
@ 019   ----------------------------------------
        .byte   W96
@ 020   ----------------------------------------
        .byte   W96
@ 021   ----------------------------------------
        .byte   W96
@ 022   ----------------------------------------
        .byte   W96
@ 023   ----------------------------------------
        .byte   W96
@ 024   ----------------------------------------
        .byte   W96
@ 025   ----------------------------------------
        .byte   W96
@ 026   ----------------------------------------
        .byte   W96
@ 027   ----------------------------------------
        .byte   W96
@ 028   ----------------------------------------
        .byte   W96
@ 029   ----------------------------------------
        .byte   W96
@ 030   ----------------------------------------
        .byte   W96
@ 031   ----------------------------------------
        .byte   W96
@ 032   ----------------------------------------
        .byte   W96
@ 033   ----------------------------------------
        .byte   W96
@ 034   ----------------------------------------
        .byte   W96
@ 035   ----------------------------------------
        .byte   W96
@ 036   ----------------------------------------
        .byte   W96
@ 037   ----------------------------------------
        .byte   W96
@ 038   ----------------------------------------
        .byte   W96
@ 039   ----------------------------------------
        .byte   W96
@ 040   ----------------------------------------
        .byte   W96
@ 041   ----------------------------------------
        .byte   W96
@ 042   ----------------------------------------
        .byte   W96
@ 043   ----------------------------------------
        .byte   W96
@ 044   ----------------------------------------
        .byte   W96
@ 045   ----------------------------------------
        .byte   W96
@ 046   ----------------------------------------
        .byte   W96
@ 047   ----------------------------------------
        .byte   W96
@ 048   ----------------------------------------
        .byte   W96
@ 049   ----------------------------------------
        .byte   W96
@ 050   ----------------------------------------
        .byte   W96
@ 051   ----------------------------------------
        .byte           VOICE , 46
        .byte           VOL   , 20
        .byte           PAN   , c_v+0
        .byte   W96
@ 052   ----------------------------------------
        .byte           N24   , En4 , v112
        .byte   W24
        .byte                   Bn3
        .byte   W24
        .byte                   En4
        .byte   W24
        .byte                   Fs4
        .byte   W24
@ 053   ----------------------------------------
        .byte                   Gn4
        .byte   W24
        .byte                   Bn3
        .byte   W24
        .byte                   En4
        .byte   W24
        .byte                   Fs4
        .byte   W24
@ 054   ----------------------------------------
        .byte                   Gn4
        .byte   W24
        .byte                   An4
        .byte   W24
        .byte                   Gn4
        .byte   W24
        .byte                   Fs4
        .byte   W24
@ 055   ----------------------------------------
        .byte                   En4
        .byte   W24
        .byte                   Dn4
        .byte   W24
        .byte                   Cn4
        .byte   W24
        .byte                   Bn3
        .byte   W24
@ 056   ----------------------------------------
        .byte                   Cn5
        .byte   W24
        .byte                   Bn4
        .byte   W24
        .byte                   An4
        .byte   W24
        .byte                   Gn4
        .byte   W24
@ 057   ----------------------------------------
        .byte                   Fs4
        .byte   W24
        .byte                   En4
        .byte   W24
        .byte                   Dn4
        .byte   W24
        .byte                   Cn4
        .byte   W24
@ 058   ----------------------------------------
        .byte                   Bn3
        .byte   W24
        .byte                   Cn4
        .byte   W24
        .byte                   Bn3
        .byte   W24
        .byte                   An3
        .byte   W24
@ 059   ----------------------------------------
        .byte                   Bn3
        .byte   W24
        .byte                   An3
        .byte   W24
        .byte                   Gn3
        .byte   W24
        .byte                   Fs3
        .byte   W24
@ 060   ----------------------------------------
        .byte   W96
@ 061   ----------------------------------------
        .byte   W96
@ 062   ----------------------------------------
        .byte   W96
@ 063   ----------------------------------------
        .byte   W96
@ 064   ----------------------------------------
        .byte   W96
@ 065   ----------------------------------------
        .byte   W96
@ 066   ----------------------------------------
        .byte   W96
@ 067   ----------------------------------------
        .byte   W96
@ 068   ----------------------------------------
        .byte   W96
@ 069   ----------------------------------------
        .byte   W96
@ 070   ----------------------------------------
        .byte   W96
@ 071   ----------------------------------------
        .byte   W96
@ 072   ----------------------------------------
        .byte   W96
@ 073   ----------------------------------------
        .byte   W96
@ 074   ----------------------------------------
        .byte           VOICE , 48
        .byte           VOL   , 25
        .byte           PAN   , c_v-4
        .byte   W96
@ 075   ----------------------------------------
        .byte   W96
@ 076   ----------------------------------------
        .byte           VOICE , 49
        .byte   GOTO
         .word  RepairedDEnotefix_3_LOOP
        .byte   FINE

@****************** Track 4 (Midi-Chn.4) ******************@

RepairedDEnotefix_4:
        .byte   KEYSH , RepairedDEnotefix_key+0
@ 000   ----------------------------------------
RepairedDEnotefix_4_LOOP:
        .byte           VOICE , 42
        .byte           PAN   , c_v-16
        .byte           VOL   , 30
        .byte   W96
@ 001   ----------------------------------------
        .byte   W96
@ 002   ----------------------------------------
        .byte   W96
@ 003   ----------------------------------------
        .byte   W96
@ 004   ----------------------------------------
        .byte   W96
@ 005   ----------------------------------------
        .byte   W96
@ 006   ----------------------------------------
        .byte   W96
@ 007   ----------------------------------------
        .byte   W96
@ 008   ----------------------------------------
        .byte   W96
@ 009   ----------------------------------------
        .byte   W96
@ 010   ----------------------------------------
        .byte   W96
@ 011   ----------------------------------------
        .byte   W96
@ 012   ----------------------------------------
        .byte   W96
@ 013   ----------------------------------------
        .byte   W96
@ 014   ----------------------------------------
        .byte   W96
@ 015   ----------------------------------------
        .byte   W96
@ 016   ----------------------------------------
        .byte   W96
@ 017   ----------------------------------------
        .byte   W96
@ 018   ----------------------------------------
        .byte   W96
@ 019   ----------------------------------------
        .byte   W96
@ 020   ----------------------------------------
        .byte   W96
@ 021   ----------------------------------------
        .byte   W96
@ 022   ----------------------------------------
        .byte   W96
@ 023   ----------------------------------------
        .byte   W96
@ 024   ----------------------------------------
        .byte   W96
@ 025   ----------------------------------------
        .byte   W96
@ 026   ----------------------------------------
        .byte   W96
@ 027   ----------------------------------------
        .byte   W96
@ 028   ----------------------------------------
        .byte   W96
@ 029   ----------------------------------------
        .byte   W96
@ 030   ----------------------------------------
        .byte   W96
@ 031   ----------------------------------------
        .byte   W96
@ 032   ----------------------------------------
        .byte   W96
@ 033   ----------------------------------------
        .byte   W96
@ 034   ----------------------------------------
        .byte   W96
@ 035   ----------------------------------------
        .byte   W96
@ 036   ----------------------------------------
        .byte   W96
@ 037   ----------------------------------------
        .byte   W96
@ 038   ----------------------------------------
        .byte   W96
@ 039   ----------------------------------------
        .byte   W96
@ 040   ----------------------------------------
        .byte   W96
@ 041   ----------------------------------------
        .byte   W96
@ 042   ----------------------------------------
        .byte   W96
@ 043   ----------------------------------------
        .byte           N96   , Cn2 , v108
        .byte   W96
@ 044   ----------------------------------------
RepairedDEnotefix_4_44:
        .byte           N48   , En2 , v108
        .byte   W48
        .byte                   Gn2
        .byte   W48
        .byte   PEND
@ 045   ----------------------------------------
        .byte                   Fs2
        .byte   W48
        .byte                   Gn2
        .byte   W48
@ 046   ----------------------------------------
        .byte           N96   , En2
        .byte   W96
@ 047   ----------------------------------------
        .byte                   Cn2
        .byte   W96
@ 048   ----------------------------------------
        .byte   PATT
         .word  RepairedDEnotefix_4_44
@ 049   ----------------------------------------
        .byte           N36   , Ds2 , v116
        .byte   W36
        .byte                   En2
        .byte   W36
        .byte           N24   , Fs2
        .byte   W24
@ 050   ----------------------------------------
        .byte           N36
        .byte   W36
        .byte                   Gn2
        .byte   W36
        .byte           N24   , An2
        .byte   W24
@ 051   ----------------------------------------
        .byte   W96
@ 052   ----------------------------------------
        .byte   W96
@ 053   ----------------------------------------
        .byte   W96
@ 054   ----------------------------------------
        .byte   W96
@ 055   ----------------------------------------
        .byte   W96
@ 056   ----------------------------------------
        .byte   W96
@ 057   ----------------------------------------
        .byte   W96
@ 058   ----------------------------------------
        .byte   W96
@ 059   ----------------------------------------
        .byte   W96
@ 060   ----------------------------------------
        .byte   W96
@ 061   ----------------------------------------
        .byte   W96
@ 062   ----------------------------------------
        .byte   W96
@ 063   ----------------------------------------
        .byte   W96
@ 064   ----------------------------------------
        .byte   W96
@ 065   ----------------------------------------
        .byte   W96
@ 066   ----------------------------------------
        .byte   W96
@ 067   ----------------------------------------
        .byte   W96
@ 068   ----------------------------------------
        .byte   W96
@ 069   ----------------------------------------
        .byte   W96
@ 070   ----------------------------------------
        .byte   W96
@ 071   ----------------------------------------
        .byte   W96
@ 072   ----------------------------------------
        .byte   W96
@ 073   ----------------------------------------
        .byte   W96
@ 074   ----------------------------------------
        .byte   W96
@ 075   ----------------------------------------
        .byte   W96
@ 076   ----------------------------------------
        .byte   GOTO
         .word  RepairedDEnotefix_4_LOOP
        .byte   FINE

@****************** Track 5 (Midi-Chn.5) ******************@

RepairedDEnotefix_5:
        .byte   KEYSH , RepairedDEnotefix_key+0
@ 000   ----------------------------------------
RepairedDEnotefix_5_LOOP:
        .byte   W96
@ 001   ----------------------------------------
        .byte   W96
@ 002   ----------------------------------------
        .byte   W96
@ 003   ----------------------------------------
        .byte   W96
@ 004   ----------------------------------------
        .byte   W96
@ 005   ----------------------------------------
        .byte   W96
@ 006   ----------------------------------------
        .byte   W96
@ 007   ----------------------------------------
        .byte   W96
@ 008   ----------------------------------------
        .byte   W96
@ 009   ----------------------------------------
        .byte   W96
@ 010   ----------------------------------------
        .byte   W96
@ 011   ----------------------------------------
        .byte   W96
@ 012   ----------------------------------------
        .byte   W96
@ 013   ----------------------------------------
        .byte   W96
@ 014   ----------------------------------------
        .byte   W96
@ 015   ----------------------------------------
        .byte   W96
@ 016   ----------------------------------------
        .byte   W96
@ 017   ----------------------------------------
        .byte   W96
@ 018   ----------------------------------------
        .byte   W96
@ 019   ----------------------------------------
        .byte   W96
@ 020   ----------------------------------------
        .byte   W96
@ 021   ----------------------------------------
        .byte   W96
@ 022   ----------------------------------------
        .byte   W96
@ 023   ----------------------------------------
        .byte   W96
@ 024   ----------------------------------------
        .byte   W96
@ 025   ----------------------------------------
        .byte   W96
@ 026   ----------------------------------------
        .byte   W96
@ 027   ----------------------------------------
        .byte   W96
@ 028   ----------------------------------------
        .byte   W96
@ 029   ----------------------------------------
        .byte   W96
@ 030   ----------------------------------------
        .byte   W96
@ 031   ----------------------------------------
        .byte   W96
@ 032   ----------------------------------------
        .byte   W96
@ 033   ----------------------------------------
        .byte   W96
@ 034   ----------------------------------------
        .byte   W96
@ 035   ----------------------------------------
        .byte   W96
@ 036   ----------------------------------------
        .byte   W96
@ 037   ----------------------------------------
        .byte   W96
@ 038   ----------------------------------------
        .byte   W96
@ 039   ----------------------------------------
        .byte   W96
@ 040   ----------------------------------------
        .byte   W96
@ 041   ----------------------------------------
        .byte   W96
@ 042   ----------------------------------------
        .byte   W96
@ 043   ----------------------------------------
        .byte   W96
@ 044   ----------------------------------------
        .byte   W96
@ 045   ----------------------------------------
        .byte   W96
@ 046   ----------------------------------------
        .byte   W96
@ 047   ----------------------------------------
        .byte   W96
@ 048   ----------------------------------------
        .byte   W96
@ 049   ----------------------------------------
        .byte   W96
@ 050   ----------------------------------------
        .byte   W96
@ 051   ----------------------------------------
        .byte           VOICE , 46
        .byte           VOL   , 25
        .byte   W96
@ 052   ----------------------------------------
        .byte   W18
        .byte           N24   , En4 , v088
        .byte   W24
        .byte                   Bn3
        .byte   W24
        .byte                   En4
        .byte   W24
        .byte                   Fs4
        .byte   W06
@ 053   ----------------------------------------
        .byte   W18
        .byte                   Gn4
        .byte   W24
        .byte                   Bn3
        .byte   W24
        .byte                   En4
        .byte   W24
        .byte                   Fs4
        .byte   W06
@ 054   ----------------------------------------
        .byte   W18
        .byte                   Gn4
        .byte   W24
        .byte                   An4
        .byte   W24
        .byte                   Gn4
        .byte   W24
        .byte                   Fs4
        .byte   W06
@ 055   ----------------------------------------
        .byte   W18
        .byte                   En4
        .byte   W24
        .byte                   Dn4
        .byte   W24
        .byte                   Cn4
        .byte   W24
        .byte                   Bn3
        .byte   W06
@ 056   ----------------------------------------
        .byte   W18
        .byte                   Cn5
        .byte   W24
        .byte                   Bn4
        .byte   W24
        .byte                   An4
        .byte   W24
        .byte                   Gn4
        .byte   W06
@ 057   ----------------------------------------
        .byte   W18
        .byte                   Fs4
        .byte   W24
        .byte                   En4
        .byte   W24
        .byte                   Dn4
        .byte   W24
        .byte                   Cn4
        .byte   W06
@ 058   ----------------------------------------
        .byte   W18
        .byte                   Bn3
        .byte   W24
        .byte                   Cn4
        .byte   W24
        .byte                   Bn3
        .byte   W24
        .byte                   An3
        .byte   W06
@ 059   ----------------------------------------
        .byte   W18
        .byte                   Bn3
        .byte   W24
        .byte                   An3
        .byte   W24
        .byte                   Gn3
        .byte   W24
        .byte                   Fs3
        .byte   W06
@ 060   ----------------------------------------
        .byte   W96
@ 061   ----------------------------------------
        .byte   W96
@ 062   ----------------------------------------
        .byte   W96
@ 063   ----------------------------------------
        .byte   W96
@ 064   ----------------------------------------
        .byte   W96
@ 065   ----------------------------------------
        .byte   W96
@ 066   ----------------------------------------
        .byte   W96
@ 067   ----------------------------------------
        .byte   W96
@ 068   ----------------------------------------
        .byte           VOICE , 68
        .byte   W96
@ 069   ----------------------------------------
        .byte           N36   , En4 , v108
        .byte   W36
        .byte                   Fs4
        .byte   W36
        .byte           N03   , Gn4 , v116
        .byte   W03
        .byte                   Fs4
        .byte   W03
        .byte           N18   , Gn4 , v108
        .byte   W18
@ 070   ----------------------------------------
        .byte           N96   , An4
        .byte   W96
@ 071   ----------------------------------------
        .byte           N36   , Cn5
        .byte   W36
        .byte                   Bn4
        .byte   W36
        .byte           N24   , An4
        .byte   W24
@ 072   ----------------------------------------
        .byte           N36   , Bn4
        .byte   W36
        .byte                   Gn4
        .byte   W36
        .byte           N24   , En4
        .byte   W24
@ 073   ----------------------------------------
        .byte           N36
        .byte   W36
        .byte                   Gn4
        .byte   W36
        .byte           N24   , Bn4
        .byte   W24
@ 074   ----------------------------------------
        .byte           N96   , An4 , v096
        .byte   W96
@ 075   ----------------------------------------
        .byte   W96
@ 076   ----------------------------------------
        .byte           VOICE , 0
        .byte           VOL   , 100
        .byte   GOTO
         .word  RepairedDEnotefix_5_LOOP
        .byte   FINE

@****************** Track 6 (Midi-Chn.6) ******************@

RepairedDEnotefix_6:
        .byte   KEYSH , RepairedDEnotefix_key+0
@ 000   ----------------------------------------
RepairedDEnotefix_6_LOOP:
        .byte           VOICE , 40
        .byte           PAN   , c_v-8
        .byte           VOL   , 32
        .byte           N12   , En1 , v127
        .byte   W12
        .byte                   En1
        .byte   W24
        .byte                   En1
        .byte   W24
        .byte                   En1
        .byte   W24
        .byte                   En1
        .byte   W12
@ 001   ----------------------------------------
RepairedDEnotefix_6_1:
        .byte           N12   , En1 , v127
        .byte   W12
        .byte                   En1
        .byte   W24
        .byte                   En1
        .byte   W24
        .byte                   En1
        .byte   W24
        .byte                   En1
        .byte   W12
        .byte   PEND
@ 002   ----------------------------------------
        .byte   PATT
         .word  RepairedDEnotefix_6_1
@ 003   ----------------------------------------
        .byte   PATT
         .word  RepairedDEnotefix_6_1
@ 004   ----------------------------------------
        .byte   PATT
         .word  RepairedDEnotefix_6_1
@ 005   ----------------------------------------
        .byte   PATT
         .word  RepairedDEnotefix_6_1
@ 006   ----------------------------------------
        .byte   PATT
         .word  RepairedDEnotefix_6_1
@ 007   ----------------------------------------
        .byte   PATT
         .word  RepairedDEnotefix_6_1
@ 008   ----------------------------------------
        .byte   PATT
         .word  RepairedDEnotefix_6_1
@ 009   ----------------------------------------
        .byte   PATT
         .word  RepairedDEnotefix_6_1
@ 010   ----------------------------------------
        .byte   PATT
         .word  RepairedDEnotefix_6_1
@ 011   ----------------------------------------
        .byte   PATT
         .word  RepairedDEnotefix_6_1
@ 012   ----------------------------------------
        .byte   PATT
         .word  RepairedDEnotefix_6_1
@ 013   ----------------------------------------
        .byte   PATT
         .word  RepairedDEnotefix_6_1
@ 014   ----------------------------------------
        .byte   PATT
         .word  RepairedDEnotefix_6_1
@ 015   ----------------------------------------
        .byte   PATT
         .word  RepairedDEnotefix_6_1
@ 016   ----------------------------------------
        .byte   PATT
         .word  RepairedDEnotefix_6_1
@ 017   ----------------------------------------
        .byte   PATT
         .word  RepairedDEnotefix_6_1
@ 018   ----------------------------------------
        .byte   PATT
         .word  RepairedDEnotefix_6_1
@ 019   ----------------------------------------
        .byte   PATT
         .word  RepairedDEnotefix_6_1
@ 020   ----------------------------------------
RepairedDEnotefix_6_20:
        .byte           N12   , Cn1 , v127
        .byte   W12
        .byte                   Cn1
        .byte   W24
        .byte                   Cn1
        .byte   W24
        .byte                   Cn1
        .byte   W24
        .byte                   Cn1
        .byte   W12
        .byte   PEND
@ 021   ----------------------------------------
        .byte   PATT
         .word  RepairedDEnotefix_6_20
@ 022   ----------------------------------------
        .byte   PATT
         .word  RepairedDEnotefix_6_20
@ 023   ----------------------------------------
        .byte   PATT
         .word  RepairedDEnotefix_6_20
@ 024   ----------------------------------------
        .byte   PATT
         .word  RepairedDEnotefix_6_1
@ 025   ----------------------------------------
        .byte   PATT
         .word  RepairedDEnotefix_6_1
@ 026   ----------------------------------------
        .byte   PATT
         .word  RepairedDEnotefix_6_1
@ 027   ----------------------------------------
        .byte   PATT
         .word  RepairedDEnotefix_6_1
@ 028   ----------------------------------------
        .byte   PATT
         .word  RepairedDEnotefix_6_1
@ 029   ----------------------------------------
        .byte   PATT
         .word  RepairedDEnotefix_6_1
@ 030   ----------------------------------------
        .byte   PATT
         .word  RepairedDEnotefix_6_1
@ 031   ----------------------------------------
        .byte   PATT
         .word  RepairedDEnotefix_6_1
@ 032   ----------------------------------------
        .byte   PATT
         .word  RepairedDEnotefix_6_1
@ 033   ----------------------------------------
        .byte   PATT
         .word  RepairedDEnotefix_6_1
@ 034   ----------------------------------------
        .byte   PATT
         .word  RepairedDEnotefix_6_1
@ 035   ----------------------------------------
        .byte   PATT
         .word  RepairedDEnotefix_6_1
@ 036   ----------------------------------------
        .byte   PATT
         .word  RepairedDEnotefix_6_20
@ 037   ----------------------------------------
        .byte   PATT
         .word  RepairedDEnotefix_6_20
@ 038   ----------------------------------------
RepairedDEnotefix_6_38:
        .byte           N12   , Fn1 , v127
        .byte   W12
        .byte                   Fn1
        .byte   W24
        .byte                   Fn1
        .byte   W24
        .byte                   Fn1
        .byte   W24
        .byte                   Fn1
        .byte   W12
        .byte   PEND
@ 039   ----------------------------------------
        .byte   PATT
         .word  RepairedDEnotefix_6_38
@ 040   ----------------------------------------
        .byte   PATT
         .word  RepairedDEnotefix_6_1
@ 041   ----------------------------------------
        .byte   PATT
         .word  RepairedDEnotefix_6_1
@ 042   ----------------------------------------
        .byte   PATT
         .word  RepairedDEnotefix_6_1
@ 043   ----------------------------------------
        .byte   PATT
         .word  RepairedDEnotefix_6_1
@ 044   ----------------------------------------
        .byte   PATT
         .word  RepairedDEnotefix_6_20
@ 045   ----------------------------------------
        .byte   PATT
         .word  RepairedDEnotefix_6_20
@ 046   ----------------------------------------
        .byte   PATT
         .word  RepairedDEnotefix_6_1
@ 047   ----------------------------------------
        .byte   PATT
         .word  RepairedDEnotefix_6_1
@ 048   ----------------------------------------
        .byte   PATT
         .word  RepairedDEnotefix_6_20
@ 049   ----------------------------------------
        .byte   PATT
         .word  RepairedDEnotefix_6_20
@ 050   ----------------------------------------
        .byte           N36   , Bn0 , v127
        .byte   W36
        .byte                   Cs1
        .byte   W36
        .byte           N24   , Ds1
        .byte   W24
@ 051   ----------------------------------------
        .byte           N36
        .byte   W36
        .byte                   En1
        .byte   W36
        .byte           N24   , Fs1
        .byte   W24
@ 052   ----------------------------------------
RepairedDEnotefix_6_52:
        .byte           N12   , En1 , v120
        .byte   W24
        .byte                   En1
        .byte   W72
        .byte   PEND
@ 053   ----------------------------------------
        .byte   PATT
         .word  RepairedDEnotefix_6_52
@ 054   ----------------------------------------
RepairedDEnotefix_6_54:
        .byte           N12   , Fs1 , v120
        .byte   W24
        .byte                   Fs1
        .byte   W72
        .byte   PEND
@ 055   ----------------------------------------
        .byte   PATT
         .word  RepairedDEnotefix_6_54
@ 056   ----------------------------------------
RepairedDEnotefix_6_56:
        .byte           N12   , An0 , v120
        .byte   W24
        .byte                   An0
        .byte   W72
        .byte   PEND
@ 057   ----------------------------------------
        .byte   PATT
         .word  RepairedDEnotefix_6_56
@ 058   ----------------------------------------
RepairedDEnotefix_6_58:
        .byte           N12   , Bn0 , v120
        .byte   W24
        .byte                   Bn0
        .byte   W72
        .byte   PEND
@ 059   ----------------------------------------
        .byte   PATT
         .word  RepairedDEnotefix_6_58
@ 060   ----------------------------------------
        .byte   PATT
         .word  RepairedDEnotefix_6_1
@ 061   ----------------------------------------
        .byte   PATT
         .word  RepairedDEnotefix_6_1
@ 062   ----------------------------------------
        .byte   PATT
         .word  RepairedDEnotefix_6_38
@ 063   ----------------------------------------
RepairedDEnotefix_6_63:
        .byte           N12   , Dn1 , v127
        .byte   W12
        .byte                   Dn1
        .byte   W24
        .byte                   Dn1
        .byte   W24
        .byte                   Dn1
        .byte   W24
        .byte                   Dn1
        .byte   W12
        .byte   PEND
@ 064   ----------------------------------------
        .byte   PATT
         .word  RepairedDEnotefix_6_1
@ 065   ----------------------------------------
        .byte   PATT
         .word  RepairedDEnotefix_6_1
@ 066   ----------------------------------------
        .byte   PATT
         .word  RepairedDEnotefix_6_38
@ 067   ----------------------------------------
        .byte   PATT
         .word  RepairedDEnotefix_6_63
@ 068   ----------------------------------------
        .byte   PATT
         .word  RepairedDEnotefix_6_1
@ 069   ----------------------------------------
        .byte   PATT
         .word  RepairedDEnotefix_6_1
@ 070   ----------------------------------------
        .byte   PATT
         .word  RepairedDEnotefix_6_38
@ 071   ----------------------------------------
        .byte   PATT
         .word  RepairedDEnotefix_6_63
@ 072   ----------------------------------------
        .byte   PATT
         .word  RepairedDEnotefix_6_1
@ 073   ----------------------------------------
        .byte   PATT
         .word  RepairedDEnotefix_6_1
@ 074   ----------------------------------------
        .byte   PATT
         .word  RepairedDEnotefix_6_38
@ 075   ----------------------------------------
        .byte   PATT
         .word  RepairedDEnotefix_6_63
@ 076   ----------------------------------------
        .byte   GOTO
         .word  RepairedDEnotefix_6_LOOP
        .byte   FINE

@****************** Track 7 (Midi-Chn.7) ******************@

RepairedDEnotefix_7:
        .byte   KEYSH , RepairedDEnotefix_key+0
@ 000   ----------------------------------------
RepairedDEnotefix_7_LOOP:
        .byte           VOICE , 52
        .byte           PAN   , c_v-16
        .byte           VOL   , 25
        .byte   W96
@ 001   ----------------------------------------
        .byte   W96
@ 002   ----------------------------------------
        .byte   W96
@ 003   ----------------------------------------
        .byte   W96
@ 004   ----------------------------------------
        .byte   W96
@ 005   ----------------------------------------
        .byte   W96
@ 006   ----------------------------------------
        .byte   W96
@ 007   ----------------------------------------
        .byte   W96
@ 008   ----------------------------------------
        .byte   W96
@ 009   ----------------------------------------
        .byte   W96
@ 010   ----------------------------------------
        .byte   W96
@ 011   ----------------------------------------
        .byte   W96
@ 012   ----------------------------------------
        .byte   W96
@ 013   ----------------------------------------
        .byte   W96
@ 014   ----------------------------------------
        .byte   W96
@ 015   ----------------------------------------
        .byte   W96
@ 016   ----------------------------------------
        .byte   W96
@ 017   ----------------------------------------
        .byte   W96
@ 018   ----------------------------------------
        .byte   W96
@ 019   ----------------------------------------
        .byte   W96
@ 020   ----------------------------------------
        .byte   W96
@ 021   ----------------------------------------
        .byte   W96
@ 022   ----------------------------------------
        .byte   W96
@ 023   ----------------------------------------
        .byte   W96
@ 024   ----------------------------------------
        .byte   W96
@ 025   ----------------------------------------
        .byte   W96
@ 026   ----------------------------------------
        .byte   W96
@ 027   ----------------------------------------
        .byte   W96
@ 028   ----------------------------------------
        .byte   W96
@ 029   ----------------------------------------
        .byte   W96
@ 030   ----------------------------------------
        .byte   W96
@ 031   ----------------------------------------
        .byte   W96
@ 032   ----------------------------------------
        .byte   W96
@ 033   ----------------------------------------
        .byte   W96
@ 034   ----------------------------------------
        .byte   W96
@ 035   ----------------------------------------
        .byte   W96
@ 036   ----------------------------------------
        .byte   W96
@ 037   ----------------------------------------
        .byte   W96
@ 038   ----------------------------------------
        .byte   W96
@ 039   ----------------------------------------
        .byte   W96
@ 040   ----------------------------------------
        .byte   W96
@ 041   ----------------------------------------
        .byte   W96
@ 042   ----------------------------------------
        .byte   W96
@ 043   ----------------------------------------
        .byte   W96
@ 044   ----------------------------------------
        .byte   W96
@ 045   ----------------------------------------
        .byte   W96
@ 046   ----------------------------------------
        .byte   W96
@ 047   ----------------------------------------
        .byte   W96
@ 048   ----------------------------------------
        .byte   W96
@ 049   ----------------------------------------
        .byte   W96
@ 050   ----------------------------------------
        .byte   W96
@ 051   ----------------------------------------
        .byte   W96
@ 052   ----------------------------------------
        .byte           TIE   , Bn4 , v100
        .byte           TIE   , En4 , v092
        .byte           TIE   , En2 , v100
        .byte   W96
@ 053   ----------------------------------------
        .byte   W96
@ 054   ----------------------------------------
        .byte           EOT
        .byte           EOT   , Bn4
        .byte           N96   , Cn5
        .byte           TIE   , Fs2
        .byte   W96
@ 055   ----------------------------------------
        .byte           N96   , An4
        .byte   W96
@ 056   ----------------------------------------
        .byte           EOT   , Fs2
        .byte                   En4
        .byte           TIE   , An4
        .byte           TIE   , Fs4 , v092
        .byte           TIE   , An2 , v100
        .byte   W96
@ 057   ----------------------------------------
        .byte   W96
@ 058   ----------------------------------------
        .byte           EOT
        .byte           EOT   , Fs4
        .byte                   An4
        .byte           N96   , Gn4
        .byte           TIE   , Bn3 , v092
        .byte           N96   , Bn2 , v100
        .byte   W90
        .byte                   Fs4
        .byte   W06
@ 059   ----------------------------------------
        .byte                   Bn1
        .byte   W96
@ 060   ----------------------------------------
        .byte           EOT   , Bn3
        .byte   W96
@ 061   ----------------------------------------
        .byte   W96
@ 062   ----------------------------------------
        .byte   W96
@ 063   ----------------------------------------
        .byte   W96
@ 064   ----------------------------------------
        .byte   W96
@ 065   ----------------------------------------
        .byte   W96
@ 066   ----------------------------------------
        .byte   W96
@ 067   ----------------------------------------
        .byte   W96
@ 068   ----------------------------------------
        .byte   W96
@ 069   ----------------------------------------
        .byte   W96
@ 070   ----------------------------------------
        .byte   W96
@ 071   ----------------------------------------
        .byte   W96
@ 072   ----------------------------------------
        .byte   W96
@ 073   ----------------------------------------
        .byte   W96
@ 074   ----------------------------------------
        .byte   W96
@ 075   ----------------------------------------
        .byte   W96
@ 076   ----------------------------------------
        .byte   GOTO
         .word  RepairedDEnotefix_7_LOOP
        .byte   FINE

@****************** Track 8 (Midi-Chn.8) ******************@

RepairedDEnotefix_8:
        .byte   KEYSH , RepairedDEnotefix_key+0
@ 000   ----------------------------------------
RepairedDEnotefix_8_LOOP:
        .byte           VOICE , 127
        .byte           VOL   , 27
        .byte           N12   , Dn1 , v064
        .byte   W12
        .byte           N06   , Dn1 , v088
        .byte   W06
        .byte                   Dn1 , v076
        .byte   W06
        .byte           N12   , Dn1 , v092
        .byte   W12
        .byte                   Dn1 , v088
        .byte   W12
        .byte           N06   , Dn1 , v080
        .byte   W06
        .byte                   Dn1 , v076
        .byte   W06
        .byte           N12   , Dn1 , v092
        .byte   W12
        .byte           N06   , Dn1 , v088
        .byte   W06
        .byte                   Dn1 , v080
        .byte   W06
        .byte           N12   , Dn1 , v076
        .byte   W12
@ 001   ----------------------------------------
RepairedDEnotefix_8_1:
        .byte           N12   , Dn1 , v092
        .byte   W12
        .byte           N06   , Dn1 , v088
        .byte   W06
        .byte                   Dn1 , v076
        .byte   W06
        .byte           N12   , Dn1 , v092
        .byte   W12
        .byte                   Dn1 , v088
        .byte   W12
        .byte           N06   , Dn1 , v080
        .byte   W06
        .byte                   Dn1 , v076
        .byte   W06
        .byte           N12   , Dn1 , v092
        .byte   W12
        .byte           N06   , Dn1 , v088
        .byte   W06
        .byte                   Dn1 , v080
        .byte   W06
        .byte                   Dn1 , v076
        .byte   W06
        .byte                   Dn1 , v092
        .byte   W06
        .byte   PEND
@ 002   ----------------------------------------
        .byte           N12   , Dn1 , v076
        .byte   W12
        .byte           N06   , Dn1 , v088
        .byte   W06
        .byte                   Dn1 , v076
        .byte   W06
        .byte           N12   , Dn1 , v092
        .byte   W12
        .byte                   Dn1 , v088
        .byte   W12
        .byte           N06   , Dn1 , v080
        .byte   W06
        .byte                   Dn1 , v076
        .byte   W06
        .byte           N12   , Dn1 , v092
        .byte   W12
        .byte           N06   , Dn1 , v088
        .byte   W06
        .byte                   Dn1 , v080
        .byte   W06
        .byte           N12   , Dn1 , v076
        .byte   W12
@ 003   ----------------------------------------
        .byte   PATT
         .word  RepairedDEnotefix_8_1
@ 004   ----------------------------------------
RepairedDEnotefix_8_4:
        .byte           N12   , Dn1 , v096
        .byte   W12
        .byte           N06
        .byte   W06
        .byte                   Dn1
        .byte   W06
        .byte           N12   , Dn1 , v092
        .byte   W12
        .byte                   Dn1 , v080
        .byte   W12
        .byte           N06   , Dn1 , v088
        .byte   W06
        .byte                   Dn1 , v080
        .byte   W06
        .byte           N12   , Dn1 , v096
        .byte   W12
        .byte           N06   , Dn1 , v092
        .byte   W06
        .byte                   Dn1 , v088
        .byte   W06
        .byte           N12   , Dn1 , v080
        .byte   W12
        .byte   PEND
@ 005   ----------------------------------------
RepairedDEnotefix_8_5:
        .byte           N12   , Dn1 , v076
        .byte   W12
        .byte           N06   , Dn1 , v092
        .byte   W06
        .byte                   Dn1 , v088
        .byte   W06
        .byte           N12   , Dn1 , v076
        .byte   W12
        .byte                   Dn1 , v092
        .byte   W12
        .byte           N06   , Dn1 , v088
        .byte   W06
        .byte                   Dn1 , v080
        .byte   W06
        .byte           N12   , Dn1 , v076
        .byte   W12
        .byte           N06   , Dn1 , v092
        .byte   W06
        .byte                   Dn1 , v088
        .byte   W06
        .byte                   Dn1 , v080
        .byte   W06
        .byte                   Dn1 , v076
        .byte   W06
        .byte   PEND
@ 006   ----------------------------------------
RepairedDEnotefix_8_6:
        .byte           N12   , Dn1 , v092
        .byte   W12
        .byte           N06   , Dn1 , v076
        .byte   W06
        .byte                   Dn1 , v088
        .byte   W06
        .byte           N12   , Dn1 , v076
        .byte   W12
        .byte                   Dn1 , v092
        .byte   W12
        .byte           N06   , Dn1 , v088
        .byte   W06
        .byte                   Dn1 , v080
        .byte   W06
        .byte           N12   , Dn1 , v076
        .byte   W12
        .byte           N06   , Dn1 , v092
        .byte   W06
        .byte                   Dn1 , v088
        .byte   W06
        .byte           N12   , Dn1 , v080
        .byte   W12
        .byte   PEND
@ 007   ----------------------------------------
        .byte   PATT
         .word  RepairedDEnotefix_8_5
@ 008   ----------------------------------------
        .byte   PATT
         .word  RepairedDEnotefix_8_6
@ 009   ----------------------------------------
        .byte   PATT
         .word  RepairedDEnotefix_8_5
@ 010   ----------------------------------------
        .byte           N96   , Gn2 , v100
        .byte           N12   , Dn1 , v092
        .byte   W12
        .byte           N06   , Dn1 , v076
        .byte   W06
        .byte                   Dn1 , v088
        .byte   W06
        .byte           N12   , Dn1 , v076
        .byte   W12
        .byte                   Dn1 , v092
        .byte   W12
        .byte           N06   , Dn1 , v088
        .byte   W06
        .byte                   Dn1 , v080
        .byte   W06
        .byte           N12   , Dn1 , v076
        .byte   W12
        .byte           N06   , Dn1 , v092
        .byte   W06
        .byte                   Dn1 , v088
        .byte   W06
        .byte           N12   , Dn1 , v080
        .byte   W12
@ 011   ----------------------------------------
        .byte           N96   , An2 , v127
        .byte           N12   , Dn1 , v076
        .byte   W12
        .byte           N06   , Dn1 , v092
        .byte   W06
        .byte                   Dn1 , v088
        .byte   W06
        .byte           N12   , Dn1 , v076
        .byte   W12
        .byte                   Dn1 , v092
        .byte   W12
        .byte           N06   , Dn1 , v088
        .byte   W06
        .byte                   Dn1 , v080
        .byte   W06
        .byte                   Dn1 , v076
        .byte   W06
        .byte                   Dn1 , v092
        .byte   W06
        .byte                   Dn1 , v088
        .byte   W06
        .byte                   Dn1 , v080
        .byte   W06
        .byte                   Dn1 , v076
        .byte   W06
        .byte                   Dn1 , v092
        .byte   W06
@ 012   ----------------------------------------
        .byte           N96   , Cs2 , v127
        .byte           N12   , Dn1 , v096
        .byte   W12
        .byte           N06
        .byte   W06
        .byte                   Dn1
        .byte   W06
        .byte           N12   , Dn1 , v092
        .byte   W12
        .byte                   Dn1 , v080
        .byte   W12
        .byte           N06   , Dn1 , v088
        .byte   W06
        .byte                   Dn1 , v080
        .byte   W06
        .byte           N12   , Dn1 , v096
        .byte   W12
        .byte           N06   , Dn1 , v092
        .byte   W06
        .byte                   Dn1 , v088
        .byte   W06
        .byte           N12   , Dn1 , v080
        .byte   W12
@ 013   ----------------------------------------
        .byte   PATT
         .word  RepairedDEnotefix_8_5
@ 014   ----------------------------------------
        .byte   PATT
         .word  RepairedDEnotefix_8_6
@ 015   ----------------------------------------
        .byte   PATT
         .word  RepairedDEnotefix_8_5
@ 016   ----------------------------------------
        .byte   PATT
         .word  RepairedDEnotefix_8_6
@ 017   ----------------------------------------
        .byte   PATT
         .word  RepairedDEnotefix_8_5
@ 018   ----------------------------------------
        .byte   PATT
         .word  RepairedDEnotefix_8_6
@ 019   ----------------------------------------
        .byte   PATT
         .word  RepairedDEnotefix_8_5
@ 020   ----------------------------------------
        .byte           N12   , Dn1 , v092
        .byte   W12
        .byte           N06
        .byte   W06
        .byte                   Dn1 , v080
        .byte   W06
        .byte           N12   , Dn1 , v072
        .byte   W12
        .byte                   Dn1 , v076
        .byte   W12
        .byte           N06   , Dn1 , v080
        .byte   W06
        .byte                   Dn1 , v072
        .byte   W06
        .byte           N12   , Dn1 , v068
        .byte   W12
        .byte           N06   , Dn1 , v060
        .byte   W06
        .byte                   Dn1 , v052
        .byte   W06
        .byte           N12
        .byte   W12
@ 021   ----------------------------------------
        .byte                   Dn1 , v072
        .byte   W12
        .byte           N06
        .byte   W06
        .byte                   Dn1 , v068
        .byte   W06
        .byte           N12   , Dn1 , v060
        .byte   W12
        .byte                   Dn1 , v072
        .byte   W12
        .byte           N06   , Dn1 , v068
        .byte   W06
        .byte                   Dn1 , v060
        .byte   W06
        .byte           N12   , Dn1 , v068
        .byte   W12
        .byte           N06   , Dn1 , v072
        .byte   W06
        .byte                   Dn1
        .byte   W06
        .byte                   Dn1 , v068
        .byte   W06
        .byte                   Dn1 , v072
        .byte   W06
@ 022   ----------------------------------------
        .byte           TIE   , An2 , v127
        .byte           N12   , Dn1 , v068
        .byte   W12
        .byte           N06   , Dn1 , v060
        .byte   W06
        .byte                   Dn1 , v052
        .byte   W06
        .byte           N12
        .byte   W12
        .byte                   Dn1 , v072
        .byte   W12
        .byte           N06
        .byte   W06
        .byte                   Dn1 , v068
        .byte   W06
        .byte           N12   , Dn1 , v060
        .byte   W12
        .byte           N06   , Dn1 , v072
        .byte   W06
        .byte                   Dn1 , v068
        .byte   W06
        .byte           N12   , Dn1 , v060
        .byte   W12
@ 023   ----------------------------------------
        .byte                   Dn1 , v068
        .byte   W12
        .byte           N06   , Dn1 , v072
        .byte   W06
        .byte                   Dn1
        .byte   W06
        .byte           N12   , Dn1 , v068
        .byte   W12
        .byte                   Dn1 , v072
        .byte   W12
        .byte           N06   , Dn1 , v068
        .byte   W06
        .byte                   Dn1 , v060
        .byte   W06
        .byte                   Dn1 , v052
        .byte   W06
        .byte                   Dn1
        .byte   W06
        .byte                   Dn1 , v072
        .byte   W06
        .byte                   Dn1
        .byte   W06
        .byte                   Dn1 , v068
        .byte   W06
        .byte                   Dn1 , v060
        .byte   W06
@ 024   ----------------------------------------
        .byte           EOT   , An2
        .byte           N96   , Cs2 , v127
        .byte           N12   , Dn1 , v072
        .byte   W12
        .byte           N06   , Dn1 , v068
        .byte   W06
        .byte                   Dn1 , v060
        .byte   W06
        .byte           N12   , Dn1 , v068
        .byte   W12
        .byte                   Dn1 , v072
        .byte   W12
        .byte           N06
        .byte   W06
        .byte                   Dn1 , v068
        .byte   W06
        .byte           N12   , Dn1 , v072
        .byte   W12
        .byte           N06   , Dn1 , v068
        .byte   W06
        .byte                   Dn1 , v060
        .byte   W06
        .byte           N12   , Dn1 , v052
        .byte   W12
@ 025   ----------------------------------------
        .byte                   Dn1
        .byte   W12
        .byte           N06   , Dn1 , v072
        .byte   W06
        .byte                   Dn1
        .byte   W06
        .byte           N12   , Dn1 , v068
        .byte   W12
        .byte                   Dn1 , v060
        .byte   W12
        .byte           N06   , Dn1 , v072
        .byte   W06
        .byte                   Dn1 , v068
        .byte   W06
        .byte           N12   , Dn1 , v060
        .byte   W12
        .byte           N06   , Dn1 , v068
        .byte   W06
        .byte                   Dn1 , v072
        .byte   W06
        .byte                   Dn1 , v096
        .byte   W06
        .byte                   Dn1
        .byte   W06
@ 026   ----------------------------------------
RepairedDEnotefix_8_26:
        .byte           N12   , Dn1 , v096
        .byte   W12
        .byte           N06   , Dn1 , v092
        .byte   W06
        .byte                   Dn1 , v080
        .byte   W06
        .byte           N12   , Dn1 , v088
        .byte   W12
        .byte                   Dn1 , v080
        .byte   W12
        .byte           N06   , Dn1 , v096
        .byte   W06
        .byte                   Dn1 , v092
        .byte   W06
        .byte           N12   , Dn1 , v088
        .byte   W12
        .byte           N06   , Dn1 , v080
        .byte   W06
        .byte                   Dn1 , v076
        .byte   W06
        .byte           N12   , Dn1 , v092
        .byte   W12
        .byte   PEND
@ 027   ----------------------------------------
RepairedDEnotefix_8_27:
        .byte           N12   , Dn1 , v088
        .byte   W12
        .byte           N06   , Dn1 , v076
        .byte   W06
        .byte                   Dn1 , v092
        .byte   W06
        .byte           N12   , Dn1 , v088
        .byte   W12
        .byte                   Dn1 , v080
        .byte   W12
        .byte           N06   , Dn1 , v076
        .byte   W06
        .byte                   Dn1 , v092
        .byte   W06
        .byte                   Dn1 , v088
        .byte   W06
        .byte                   Dn1 , v080
        .byte   W06
        .byte                   Dn1 , v076
        .byte   W06
        .byte                   Dn1 , v092
        .byte   W06
        .byte                   Dn1 , v076
        .byte   W06
        .byte                   Dn1 , v088
        .byte   W06
        .byte   PEND
@ 028   ----------------------------------------
        .byte           N96   , Cs2 , v127
        .byte           N12   , Dn1 , v076
        .byte   W12
        .byte           N06   , Dn1 , v092
        .byte   W06
        .byte                   Dn1 , v088
        .byte   W06
        .byte           N12   , Dn1 , v080
        .byte   W12
        .byte                   Dn1 , v076
        .byte   W12
        .byte           N06   , Dn1 , v092
        .byte   W06
        .byte                   Dn1 , v088
        .byte   W06
        .byte           N12   , Dn1 , v080
        .byte   W12
        .byte           N06   , Dn1 , v076
        .byte   W06
        .byte                   Dn1 , v092
        .byte   W06
        .byte           N12   , Dn1 , v088
        .byte   W12
@ 029   ----------------------------------------
RepairedDEnotefix_8_29:
        .byte           N12   , Dn1 , v076
        .byte   W12
        .byte           N06   , Dn1 , v092
        .byte   W06
        .byte                   Dn1 , v088
        .byte   W06
        .byte           N12   , Dn1 , v080
        .byte   W12
        .byte                   Dn1 , v076
        .byte   W12
        .byte           N06   , Dn1 , v092
        .byte   W06
        .byte                   Dn1 , v088
        .byte   W06
        .byte           N12   , Dn1 , v080
        .byte   W12
        .byte           N06   , Dn1 , v076
        .byte   W06
        .byte                   Dn1 , v092
        .byte   W06
        .byte                   Dn1 , v076
        .byte   W06
        .byte                   Dn1 , v088
        .byte   W06
        .byte   PEND
@ 030   ----------------------------------------
RepairedDEnotefix_8_30:
        .byte           N12   , Dn1 , v076
        .byte   W12
        .byte           N06   , Dn1 , v092
        .byte   W06
        .byte                   Dn1 , v088
        .byte   W06
        .byte           N12   , Dn1 , v080
        .byte   W12
        .byte                   Dn1 , v076
        .byte   W12
        .byte           N06   , Dn1 , v092
        .byte   W06
        .byte                   Dn1 , v088
        .byte   W06
        .byte           N12   , Dn1 , v080
        .byte   W12
        .byte           N06   , Dn1 , v076
        .byte   W06
        .byte                   Dn1 , v092
        .byte   W06
        .byte           N12   , Dn1 , v088
        .byte   W12
        .byte   PEND
@ 031   ----------------------------------------
        .byte   PATT
         .word  RepairedDEnotefix_8_29
@ 032   ----------------------------------------
        .byte   PATT
         .word  RepairedDEnotefix_8_30
@ 033   ----------------------------------------
        .byte           N12   , Dn1 , v076
        .byte   W12
        .byte           N06   , Dn1 , v092
        .byte   W06
        .byte                   Dn1 , v088
        .byte   W06
        .byte           N12   , Dn1 , v080
        .byte   W12
        .byte                   Dn1 , v076
        .byte   W12
        .byte           N06   , Dn1 , v092
        .byte   W06
        .byte                   Dn1 , v088
        .byte   W06
        .byte           N12   , Dn1 , v080
        .byte   W12
        .byte           N06   , Dn1 , v076
        .byte   W06
        .byte                   Dn1 , v096
        .byte   W06
        .byte                   Dn1
        .byte   W06
        .byte                   Dn1
        .byte   W06
@ 034   ----------------------------------------
        .byte   PATT
         .word  RepairedDEnotefix_8_26
@ 035   ----------------------------------------
RepairedDEnotefix_8_35:
        .byte           N12   , Dn1 , v088
        .byte   W12
        .byte           N06   , Dn1 , v076
        .byte   W06
        .byte                   Dn1 , v092
        .byte   W06
        .byte           N12   , Dn1 , v088
        .byte   W12
        .byte                   Dn1 , v080
        .byte   W12
        .byte           N06   , Dn1 , v076
        .byte   W06
        .byte                   Dn1 , v092
        .byte   W06
        .byte           N12   , Dn1 , v088
        .byte   W12
        .byte           N06   , Dn1 , v080
        .byte   W06
        .byte                   Dn1 , v076
        .byte   W06
        .byte                   Dn1 , v092
        .byte   W06
        .byte                   Dn1 , v076
        .byte   W06
        .byte   PEND
@ 036   ----------------------------------------
        .byte           N12   , Dn1 , v088
        .byte   W12
        .byte           N06   , Dn1 , v076
        .byte   W06
        .byte                   Dn1 , v092
        .byte   W06
        .byte           N12   , Dn1 , v088
        .byte   W12
        .byte                   Dn1 , v080
        .byte   W12
        .byte           N06   , Dn1 , v076
        .byte   W06
        .byte                   Dn1 , v092
        .byte   W06
        .byte           N12   , Dn1 , v088
        .byte   W12
        .byte           N06   , Dn1 , v080
        .byte   W06
        .byte                   Dn1 , v076
        .byte   W06
        .byte           N12   , Dn1 , v092
        .byte   W12
@ 037   ----------------------------------------
        .byte   PATT
         .word  RepairedDEnotefix_8_35
@ 038   ----------------------------------------
RepairedDEnotefix_8_38:
        .byte           TIE   , An2 , v127
        .byte           N12   , Dn1 , v088
        .byte   W12
        .byte           N06   , Dn1 , v076
        .byte   W06
        .byte                   Dn1 , v092
        .byte   W06
        .byte           N12   , Dn1 , v088
        .byte   W12
        .byte                   Dn1 , v080
        .byte   W12
        .byte           N06   , Dn1 , v076
        .byte   W06
        .byte                   Dn1 , v092
        .byte   W06
        .byte           N12   , Dn1 , v088
        .byte   W12
        .byte           N06   , Dn1 , v080
        .byte   W06
        .byte                   Dn1 , v076
        .byte   W06
        .byte           N12   , Dn1 , v092
        .byte   W12
        .byte   PEND
@ 039   ----------------------------------------
        .byte   PATT
         .word  RepairedDEnotefix_8_35
@ 040   ----------------------------------------
        .byte           EOT   , An2
        .byte           N96   , Cs2 , v127
        .byte           N12   , Dn1 , v088
        .byte   W12
        .byte           N06   , Dn1 , v076
        .byte   W06
        .byte                   Dn1 , v092
        .byte   W06
        .byte           N12   , Dn1 , v088
        .byte   W12
        .byte                   Dn1 , v080
        .byte   W12
        .byte           N06   , Dn1 , v076
        .byte   W06
        .byte                   Dn1 , v092
        .byte   W06
        .byte           N12   , Dn1 , v088
        .byte   W12
        .byte           N06   , Dn1 , v080
        .byte   W06
        .byte                   Dn1 , v076
        .byte   W06
        .byte           N12   , Dn1 , v092
        .byte   W12
@ 041   ----------------------------------------
        .byte   PATT
         .word  RepairedDEnotefix_8_35
@ 042   ----------------------------------------
        .byte   PATT
         .word  RepairedDEnotefix_8_38
@ 043   ----------------------------------------
        .byte   PATT
         .word  RepairedDEnotefix_8_27
@ 044   ----------------------------------------
        .byte           EOT   , An2
        .byte           N96   , Cs2 , v127
        .byte           N12   , Dn1 , v076
        .byte   W12
        .byte           N06   , Dn1 , v092
        .byte   W06
        .byte                   Dn1 , v088
        .byte   W06
        .byte           N12   , Dn1 , v080
        .byte   W12
        .byte                   Dn1 , v076
        .byte   W12
        .byte           N06   , Dn1 , v092
        .byte   W06
        .byte                   Dn1 , v088
        .byte   W06
        .byte           N12   , Dn1 , v080
        .byte   W12
        .byte           N06   , Dn1 , v076
        .byte   W06
        .byte                   Dn1 , v092
        .byte   W06
        .byte           N12   , Dn1 , v088
        .byte   W12
@ 045   ----------------------------------------
        .byte   PATT
         .word  RepairedDEnotefix_8_29
@ 046   ----------------------------------------
        .byte   PATT
         .word  RepairedDEnotefix_8_30
@ 047   ----------------------------------------
        .byte   PATT
         .word  RepairedDEnotefix_8_29
@ 048   ----------------------------------------
        .byte   PATT
         .word  RepairedDEnotefix_8_30
@ 049   ----------------------------------------
        .byte           N12   , Dn1 , v076
        .byte   W12
        .byte           N06   , Dn1 , v092
        .byte   W06
        .byte                   Dn1 , v088
        .byte   W06
        .byte           N12   , Dn1 , v080
        .byte   W12
        .byte                   Dn1 , v076
        .byte   W12
        .byte           N06   , Dn1 , v092
        .byte   W06
        .byte                   Dn1 , v088
        .byte   W06
        .byte           N12   , Dn1 , v080
        .byte   W12
        .byte           N06   , Dn1 , v076
        .byte   W06
        .byte                   Dn1 , v092
        .byte   W06
        .byte                   Dn1 , v096
        .byte   W06
        .byte                   Dn1
        .byte   W06
@ 050   ----------------------------------------
        .byte           TIE   , An2 , v127
        .byte           N12   , Dn1 , v096
        .byte   W12
        .byte           N06   , Dn1 , v092
        .byte   W06
        .byte                   Dn1 , v080
        .byte   W06
        .byte           N12   , Dn1 , v088
        .byte   W12
        .byte                   Dn1 , v080
        .byte   W12
        .byte           N06   , Dn1 , v096
        .byte   W06
        .byte                   Dn1 , v092
        .byte   W06
        .byte           N12   , Dn1 , v088
        .byte   W12
        .byte           N06   , Dn1 , v080
        .byte   W06
        .byte                   Dn1 , v076
        .byte   W06
        .byte           N12   , Dn1 , v092
        .byte   W12
@ 051   ----------------------------------------
        .byte   PATT
         .word  RepairedDEnotefix_8_27
@ 052   ----------------------------------------
        .byte           EOT   , An2
        .byte           N96   , Cs2 , v127
        .byte           N24   , Ds1
        .byte           N01   , Dn1 , v076
        .byte   W01
        .byte           N11   , Dn1 , v092
        .byte   W23
        .byte           N24   , Ds1 , v112
        .byte           N12   , Dn1 , v088
        .byte   W12
        .byte                   Dn1 , v080
        .byte   W12
        .byte                   Dn1 , v076
        .byte   W12
        .byte                   Dn1 , v092
        .byte   W12
        .byte                   Dn1 , v088
        .byte   W12
        .byte                   Dn1 , v080
        .byte   W12
@ 053   ----------------------------------------
        .byte                   Dn1 , v076
        .byte   W12
        .byte           N01   , Dn1 , v092
        .byte   W01
        .byte           N11   , Dn1 , v088
        .byte   W11
        .byte           N12   , Dn1 , v076
        .byte   W12
        .byte                   Dn1 , v092
        .byte   W12
        .byte                   Dn1 , v088
        .byte   W24
        .byte                   Dn1 , v080
        .byte   W12
        .byte                   Dn1 , v076
        .byte   W12
@ 054   ----------------------------------------
        .byte           N24   , Ds1 , v127
        .byte           N01   , Dn1 , v092
        .byte   W01
        .byte           N11   , Dn1 , v088
        .byte   W23
        .byte           N24   , Ds1 , v112
        .byte           N12   , Dn1 , v080
        .byte   W12
        .byte                   Dn1 , v076
        .byte   W12
        .byte                   Dn1 , v092
        .byte   W12
        .byte                   Dn1 , v096
        .byte   W12
        .byte                   Dn1
        .byte   W12
        .byte                   Dn1
        .byte   W12
@ 055   ----------------------------------------
        .byte                   Dn1 , v092
        .byte   W12
        .byte           N01   , Dn1 , v080
        .byte   W01
        .byte           N11   , Dn1 , v088
        .byte   W11
        .byte           N12   , Dn1 , v080
        .byte   W12
        .byte                   Dn1 , v096
        .byte   W12
        .byte                   Dn1 , v092
        .byte   W24
        .byte                   Dn1 , v088
        .byte   W12
        .byte                   Dn1 , v080
        .byte   W12
@ 056   ----------------------------------------
        .byte           N24   , Ds1 , v127
        .byte           N01   , Dn1 , v076
        .byte   W01
        .byte           N11   , Dn1 , v092
        .byte   W23
        .byte           N24   , Ds1 , v112
        .byte           N12   , Dn1 , v088
        .byte   W12
        .byte                   Dn1 , v076
        .byte   W12
        .byte                   Dn1 , v092
        .byte   W12
        .byte                   Dn1 , v088
        .byte   W12
        .byte                   Dn1 , v080
        .byte   W12
        .byte                   Dn1 , v076
        .byte   W12
@ 057   ----------------------------------------
        .byte                   Dn1 , v092
        .byte   W12
        .byte           N01   , Dn1 , v088
        .byte   W01
        .byte           N11   , Dn1 , v080
        .byte   W11
        .byte           N12   , Dn1 , v076
        .byte   W12
        .byte                   Dn1 , v092
        .byte   W12
        .byte                   Dn1 , v076
        .byte   W24
        .byte                   Dn1 , v088
        .byte   W12
        .byte                   Dn1 , v076
        .byte   W12
@ 058   ----------------------------------------
        .byte           TIE   , An2 , v127
        .byte           N24   , Ds1
        .byte           N01   , Dn1 , v092
        .byte   W01
        .byte           N11   , Dn1 , v088
        .byte   W23
        .byte           N24   , Ds1 , v112
        .byte           N12   , Dn1 , v080
        .byte   W12
        .byte                   Dn1 , v076
        .byte   W12
        .byte                   Dn1 , v092
        .byte   W12
        .byte                   Dn1 , v088
        .byte   W12
        .byte                   Dn1 , v080
        .byte   W12
        .byte                   Dn1 , v076
        .byte   W12
@ 059   ----------------------------------------
        .byte           N24   , Ds1 , v127
        .byte           N12   , Dn1 , v092
        .byte   W12
        .byte           N01   , Dn1 , v088
        .byte   W01
        .byte           N11   , Dn1 , v076
        .byte   W11
        .byte           N24   , Ds1 , v120
        .byte           N12   , Dn1 , v092
        .byte   W12
        .byte                   Dn1 , v088
        .byte   W12
        .byte                   Dn1 , v080
        .byte   W24
        .byte           N06   , Dn1 , v076
        .byte   W06
        .byte           N03   , Dn1 , v092
        .byte   W03
        .byte                   Dn1 , v088
        .byte   W03
        .byte           N06   , Dn1 , v080
        .byte   W06
        .byte                   Dn1 , v076
        .byte   W06
@ 060   ----------------------------------------
        .byte           EOT   , An2
        .byte           N96   , Cs2 , v127
        .byte           N24   , Ds1
        .byte           N12   , Dn1 , v092
        .byte   W12
        .byte           N06   , Dn1 , v076
        .byte   W06
        .byte                   Dn1 , v088
        .byte   W06
        .byte           N12   , Dn1 , v076
        .byte   W12
        .byte                   Dn1 , v092
        .byte   W12
        .byte           N06   , Dn1 , v088
        .byte   W06
        .byte                   Dn1 , v080
        .byte   W06
        .byte           N12   , Dn1 , v076
        .byte   W12
        .byte           N06   , Dn1 , v092
        .byte   W06
        .byte                   Dn1 , v088
        .byte   W06
        .byte           N12   , Dn1 , v080
        .byte   W12
@ 061   ----------------------------------------
        .byte   PATT
         .word  RepairedDEnotefix_8_5
@ 062   ----------------------------------------
        .byte   PATT
         .word  RepairedDEnotefix_8_6
@ 063   ----------------------------------------
        .byte   PATT
         .word  RepairedDEnotefix_8_5
@ 064   ----------------------------------------
        .byte   PATT
         .word  RepairedDEnotefix_8_6
@ 065   ----------------------------------------
        .byte   PATT
         .word  RepairedDEnotefix_8_5
@ 066   ----------------------------------------
        .byte   PATT
         .word  RepairedDEnotefix_8_6
@ 067   ----------------------------------------
        .byte           N12   , Dn1 , v076
        .byte   W12
        .byte           N06   , Dn1 , v092
        .byte   W06
        .byte                   Dn1 , v088
        .byte   W06
        .byte           N12   , Dn1 , v076
        .byte   W12
        .byte                   Dn1 , v092
        .byte   W12
        .byte           N06   , Dn1 , v088
        .byte   W06
        .byte                   Dn1 , v080
        .byte   W06
        .byte                   Dn1 , v076
        .byte   W06
        .byte                   Dn1 , v092
        .byte   W06
        .byte                   Dn1 , v088
        .byte   W06
        .byte                   Dn1 , v080
        .byte   W06
        .byte                   Dn1 , v076
        .byte   W06
        .byte                   Dn1 , v096
        .byte   W06
@ 068   ----------------------------------------
        .byte   PATT
         .word  RepairedDEnotefix_8_4
@ 069   ----------------------------------------
        .byte   PATT
         .word  RepairedDEnotefix_8_5
@ 070   ----------------------------------------
        .byte   PATT
         .word  RepairedDEnotefix_8_6
@ 071   ----------------------------------------
        .byte   PATT
         .word  RepairedDEnotefix_8_5
@ 072   ----------------------------------------
        .byte   PATT
         .word  RepairedDEnotefix_8_6
@ 073   ----------------------------------------
        .byte   PATT
         .word  RepairedDEnotefix_8_5
@ 074   ----------------------------------------
        .byte           TIE   , An2 , v127
        .byte           N12   , Dn1 , v092
        .byte   W12
        .byte           N06   , Dn1 , v076
        .byte   W06
        .byte                   Dn1 , v088
        .byte   W06
        .byte           N12   , Dn1 , v076
        .byte   W12
        .byte                   Dn1 , v092
        .byte   W12
        .byte           N06   , Dn1 , v088
        .byte   W06
        .byte                   Dn1 , v080
        .byte   W06
        .byte           N12   , Dn1 , v076
        .byte   W12
        .byte           N06   , Dn1 , v092
        .byte   W06
        .byte                   Dn1 , v088
        .byte   W06
        .byte           N12   , Dn1 , v080
        .byte   W12
@ 075   ----------------------------------------
        .byte                   Dn1 , v076
        .byte   W12
        .byte           N06   , Dn1 , v092
        .byte   W06
        .byte                   Dn1 , v088
        .byte   W06
        .byte           N12   , Dn1 , v076
        .byte   W12
        .byte                   Dn1 , v092
        .byte   W12
        .byte           N06   , Dn1 , v088
        .byte   W06
        .byte                   Dn1 , v080
        .byte   W06
        .byte                   Dn1 , v076
        .byte   W06
        .byte                   Dn1 , v092
        .byte   W06
        .byte                   Dn1 , v088
        .byte   W06
        .byte                   Dn1 , v080
        .byte   W06
        .byte                   Dn1 , v076
        .byte   W06
        .byte                   Dn1 , v092
        .byte   W06
@ 076   ----------------------------------------
        .byte           EOT   , An2
        .byte   GOTO
         .word  RepairedDEnotefix_8_LOOP
        .byte   FINE

@***************** Track 9 (Midi-Chn.10) ******************@

RepairedDEnotefix_9:
        .byte   KEYSH , RepairedDEnotefix_key+0
@ 000   ----------------------------------------
RepairedDEnotefix_9_LOOP:
        .byte           VOICE , 61
        .byte           PAN   , c_v+12
        .byte           VOL   , 27
        .byte   W96
@ 001   ----------------------------------------
        .byte   W96
@ 002   ----------------------------------------
        .byte   W96
@ 003   ----------------------------------------
        .byte   W96
@ 004   ----------------------------------------
        .byte   W96
@ 005   ----------------------------------------
        .byte   W96
@ 006   ----------------------------------------
        .byte   W96
@ 007   ----------------------------------------
        .byte   W96
@ 008   ----------------------------------------
        .byte   W96
@ 009   ----------------------------------------
        .byte   W96
@ 010   ----------------------------------------
        .byte   W96
@ 011   ----------------------------------------
        .byte   W96
@ 012   ----------------------------------------
        .byte   W96
@ 013   ----------------------------------------
        .byte   W96
@ 014   ----------------------------------------
        .byte   W96
@ 015   ----------------------------------------
        .byte   W96
@ 016   ----------------------------------------
        .byte   W96
@ 017   ----------------------------------------
        .byte   W96
@ 018   ----------------------------------------
        .byte   W96
@ 019   ----------------------------------------
        .byte   W96
@ 020   ----------------------------------------
        .byte   W96
@ 021   ----------------------------------------
        .byte   W96
@ 022   ----------------------------------------
        .byte   W96
@ 023   ----------------------------------------
        .byte   W96
@ 024   ----------------------------------------
        .byte   W96
@ 025   ----------------------------------------
        .byte   W96
@ 026   ----------------------------------------
        .byte   W96
@ 027   ----------------------------------------
        .byte   W96
@ 028   ----------------------------------------
        .byte   W96
@ 029   ----------------------------------------
        .byte   W96
@ 030   ----------------------------------------
        .byte   W96
@ 031   ----------------------------------------
        .byte   W96
@ 032   ----------------------------------------
        .byte   W96
@ 033   ----------------------------------------
        .byte   W96
@ 034   ----------------------------------------
        .byte   W96
@ 035   ----------------------------------------
        .byte   W96
@ 036   ----------------------------------------
        .byte   W96
@ 037   ----------------------------------------
        .byte   W96
@ 038   ----------------------------------------
        .byte   W96
@ 039   ----------------------------------------
        .byte   W96
@ 040   ----------------------------------------
        .byte   W96
@ 041   ----------------------------------------
        .byte   W96
@ 042   ----------------------------------------
        .byte   W96
@ 043   ----------------------------------------
        .byte   W96
@ 044   ----------------------------------------
RepairedDEnotefix_9_44:
        .byte           N08   , En4 , v120
        .byte           N08   , Cn4 , v100
        .byte   W18
        .byte                   En4 , v120
        .byte           N08   , Cn4 , v108
        .byte   W18
        .byte           N06   , En4 , v120
        .byte           N06   , Cn4 , v100
        .byte   W06
        .byte                   Fs4 , v116
        .byte           N06   , Dn4 , v096
        .byte   W06
        .byte           N60   , Gn4 , v116
        .byte           N60   , En4 , v096
        .byte   W48
        .byte   PEND
@ 045   ----------------------------------------
        .byte   W16
        .byte           N16   , An4 , v116
        .byte           N16   , Fs4 , v096
        .byte   W16
        .byte                   Gn4 , v116
        .byte           N16   , En4 , v096
        .byte   W16
        .byte                   Fs4 , v116
        .byte           N16   , Dn4 , v096
        .byte   W16
        .byte                   En4 , v116
        .byte           N16   , Cn4 , v096
        .byte   W16
        .byte                   Dn4 , v116
        .byte           N16   , Bn3 , v096
        .byte   W16
@ 046   ----------------------------------------
        .byte           N36   , Bn3 , v116
        .byte           N36   , Fs3 , v096
        .byte   W36
        .byte           TIE   , En4 , v116
        .byte           TIE   , Gn3 , v096
        .byte   W60
@ 047   ----------------------------------------
        .byte   W84
        .byte           EOT
        .byte           EOT   , En4
        .byte   W12
@ 048   ----------------------------------------
        .byte   PATT
         .word  RepairedDEnotefix_9_44
@ 049   ----------------------------------------
        .byte   W16
        .byte           N16   , An4 , v116
        .byte           N16   , Fs4 , v096
        .byte   W16
        .byte                   Gn4 , v116
        .byte           N16   , En4 , v096
        .byte   W16
        .byte                   Bn4 , v116
        .byte           N16   , Gn4 , v096
        .byte   W16
        .byte                   An4 , v116
        .byte           N16   , Fs4 , v096
        .byte   W16
        .byte                   Gn4 , v116
        .byte           N16   , En4 , v096
        .byte   W16
@ 050   ----------------------------------------
        .byte           N36   , Bn4 , v116
        .byte           N36   , Gn4 , v096
        .byte   W36
        .byte                   An4 , v116
        .byte           N36   , Fs4 , v096
        .byte   W36
        .byte           N24   , Gn4 , v116
        .byte           N24   , En4 , v096
        .byte   W24
@ 051   ----------------------------------------
        .byte           N36   , An4 , v116
        .byte           N36   , Fs4 , v096
        .byte   W36
        .byte                   Gn4 , v116
        .byte           N36   , En4 , v096
        .byte   W36
        .byte           N24   , Fs4 , v116
        .byte           N24   , Ds4 , v096
        .byte   W24
@ 052   ----------------------------------------
        .byte   W96
@ 053   ----------------------------------------
        .byte   W96
@ 054   ----------------------------------------
        .byte   W96
@ 055   ----------------------------------------
        .byte   W96
@ 056   ----------------------------------------
        .byte   W96
@ 057   ----------------------------------------
        .byte   W96
@ 058   ----------------------------------------
        .byte   W96
@ 059   ----------------------------------------
        .byte   W96
@ 060   ----------------------------------------
        .byte   W96
@ 061   ----------------------------------------
        .byte   W96
@ 062   ----------------------------------------
        .byte   W96
@ 063   ----------------------------------------
        .byte   W96
@ 064   ----------------------------------------
        .byte   W96
@ 065   ----------------------------------------
        .byte   W96
@ 066   ----------------------------------------
        .byte   W96
@ 067   ----------------------------------------
        .byte   W96
@ 068   ----------------------------------------
        .byte   W96
@ 069   ----------------------------------------
        .byte   W96
@ 070   ----------------------------------------
        .byte   W96
@ 071   ----------------------------------------
        .byte   W96
@ 072   ----------------------------------------
        .byte   W96
@ 073   ----------------------------------------
        .byte   W96
@ 074   ----------------------------------------
        .byte   W96
@ 075   ----------------------------------------
        .byte   W96
@ 076   ----------------------------------------
        .byte   GOTO
         .word  RepairedDEnotefix_9_LOOP
        .byte   FINE

@***************** Track 10 (Midi-Chn.11) *****************@

RepairedDEnotefix_10:
        .byte   KEYSH , RepairedDEnotefix_key+0
@ 000   ----------------------------------------
RepairedDEnotefix_10_LOOP:
        .byte           VOICE , 47
        .byte           VOL   , 32
        .byte   W96
@ 001   ----------------------------------------
        .byte   W96
@ 002   ----------------------------------------
        .byte   W96
@ 003   ----------------------------------------
        .byte   W96
@ 004   ----------------------------------------
        .byte   W96
@ 005   ----------------------------------------
        .byte   W96
@ 006   ----------------------------------------
RepairedDEnotefix_10_6:
        .byte           N12   , En1 , v112
        .byte   W36
        .byte                   En1 , v100
        .byte   W60
        .byte   PEND
@ 007   ----------------------------------------
        .byte                   En1 , v112
        .byte   W36
        .byte                   En1 , v120
        .byte   W36
        .byte                   En1 , v112
        .byte   W24
@ 008   ----------------------------------------
        .byte   PATT
         .word  RepairedDEnotefix_10_6
@ 009   ----------------------------------------
RepairedDEnotefix_10_9:
        .byte           N12   , En1 , v112
        .byte   W36
        .byte                   En1 , v120
        .byte   W36
        .byte                   En1 , v112
        .byte   W12
        .byte                   En1
        .byte   W12
        .byte   PEND
@ 010   ----------------------------------------
        .byte   PATT
         .word  RepairedDEnotefix_10_6
@ 011   ----------------------------------------
RepairedDEnotefix_10_11:
        .byte           N12   , En1 , v112
        .byte   W12
        .byte                   En1 , v100
        .byte   W24
        .byte                   En1
        .byte   W36
        .byte                   En1 , v092
        .byte   W12
        .byte                   En1 , v100
        .byte   W12
        .byte   PEND
@ 012   ----------------------------------------
        .byte   PATT
         .word  RepairedDEnotefix_10_6
@ 013   ----------------------------------------
        .byte   PATT
         .word  RepairedDEnotefix_10_9
@ 014   ----------------------------------------
        .byte   PATT
         .word  RepairedDEnotefix_10_6
@ 015   ----------------------------------------
        .byte   PATT
         .word  RepairedDEnotefix_10_11
@ 016   ----------------------------------------
        .byte   PATT
         .word  RepairedDEnotefix_10_6
@ 017   ----------------------------------------
        .byte   PATT
         .word  RepairedDEnotefix_10_9
@ 018   ----------------------------------------
        .byte   PATT
         .word  RepairedDEnotefix_10_6
@ 019   ----------------------------------------
        .byte   PATT
         .word  RepairedDEnotefix_10_11
@ 020   ----------------------------------------
RepairedDEnotefix_10_20:
        .byte           N12   , Cn2 , v112
        .byte   W36
        .byte                   Cn2 , v100
        .byte   W60
        .byte   PEND
@ 021   ----------------------------------------
RepairedDEnotefix_10_21:
        .byte           N12   , Cn2 , v112
        .byte   W36
        .byte                   Cn2 , v120
        .byte   W36
        .byte                   Cn2 , v112
        .byte   W12
        .byte                   Cn2
        .byte   W12
        .byte   PEND
@ 022   ----------------------------------------
        .byte   PATT
         .word  RepairedDEnotefix_10_20
@ 023   ----------------------------------------
        .byte           N12   , Cn2 , v112
        .byte   W12
        .byte                   Cn2 , v100
        .byte   W24
        .byte                   Cn2
        .byte   W12
        .byte                   Cn2
        .byte   W24
        .byte                   Cn2 , v092
        .byte   W12
        .byte           N04   , Cn2 , v100
        .byte   W04
        .byte                   Cn2 , v108
        .byte   W04
        .byte                   Cn2 , v112
        .byte   W04
@ 024   ----------------------------------------
        .byte   PATT
         .word  RepairedDEnotefix_10_6
@ 025   ----------------------------------------
        .byte   PATT
         .word  RepairedDEnotefix_10_9
@ 026   ----------------------------------------
        .byte   PATT
         .word  RepairedDEnotefix_10_6
@ 027   ----------------------------------------
        .byte   PATT
         .word  RepairedDEnotefix_10_11
@ 028   ----------------------------------------
        .byte   PATT
         .word  RepairedDEnotefix_10_6
@ 029   ----------------------------------------
        .byte   PATT
         .word  RepairedDEnotefix_10_9
@ 030   ----------------------------------------
        .byte   PATT
         .word  RepairedDEnotefix_10_6
@ 031   ----------------------------------------
        .byte   PATT
         .word  RepairedDEnotefix_10_11
@ 032   ----------------------------------------
        .byte   PATT
         .word  RepairedDEnotefix_10_6
@ 033   ----------------------------------------
        .byte   PATT
         .word  RepairedDEnotefix_10_9
@ 034   ----------------------------------------
        .byte   PATT
         .word  RepairedDEnotefix_10_6
@ 035   ----------------------------------------
        .byte   PATT
         .word  RepairedDEnotefix_10_11
@ 036   ----------------------------------------
        .byte   PATT
         .word  RepairedDEnotefix_10_20
@ 037   ----------------------------------------
        .byte   PATT
         .word  RepairedDEnotefix_10_21
@ 038   ----------------------------------------
        .byte           N12   , Fn1 , v112
        .byte   W36
        .byte                   Fn1 , v100
        .byte   W60
@ 039   ----------------------------------------
        .byte                   Fn1 , v112
        .byte   W12
        .byte                   Fn1 , v100
        .byte   W24
        .byte                   Fn1
        .byte   W12
        .byte                   Fn1
        .byte   W24
        .byte                   Fn1 , v092
        .byte   W12
        .byte           N04   , Fn1 , v100
        .byte   W04
        .byte                   Fn1 , v108
        .byte   W04
        .byte                   Fn1 , v112
        .byte   W04
@ 040   ----------------------------------------
        .byte   PATT
         .word  RepairedDEnotefix_10_6
@ 041   ----------------------------------------
        .byte   PATT
         .word  RepairedDEnotefix_10_9
@ 042   ----------------------------------------
        .byte   PATT
         .word  RepairedDEnotefix_10_6
@ 043   ----------------------------------------
        .byte   PATT
         .word  RepairedDEnotefix_10_11
@ 044   ----------------------------------------
RepairedDEnotefix_10_44:
        .byte           N24   , Cn2 , v120
        .byte   W24
        .byte           N12   , Cn2 , v100
        .byte   W12
        .byte           N24   , Gn1 , v112
        .byte   W24
        .byte           N12   , Gn1 , v092
        .byte   W12
        .byte           N24   , Cn2 , v112
        .byte   W24
        .byte   PEND
@ 045   ----------------------------------------
        .byte                   Gn1 , v120
        .byte   W24
        .byte           N12   , Gn1 , v100
        .byte   W12
        .byte           N24   , Cn2 , v112
        .byte   W24
        .byte           N12   , Cn2 , v092
        .byte   W12
        .byte                   Gn1 , v112
        .byte   W12
        .byte                   Cn2
        .byte   W12
@ 046   ----------------------------------------
RepairedDEnotefix_10_46:
        .byte           N24   , En1 , v120
        .byte   W24
        .byte           N12   , En1 , v100
        .byte   W12
        .byte           N24   , Bn1 , v112
        .byte   W24
        .byte           N12   , Bn1 , v092
        .byte   W12
        .byte           N24   , En1 , v112
        .byte   W24
        .byte   PEND
@ 047   ----------------------------------------
RepairedDEnotefix_10_47:
        .byte           N24   , Bn1 , v120
        .byte   W24
        .byte           N12   , Bn1 , v100
        .byte   W12
        .byte           N24   , En1 , v112
        .byte   W24
        .byte           N12   , En1 , v092
        .byte   W12
        .byte                   Bn1 , v112
        .byte   W12
        .byte                   En1
        .byte   W12
        .byte   PEND
@ 048   ----------------------------------------
        .byte   PATT
         .word  RepairedDEnotefix_10_44
@ 049   ----------------------------------------
        .byte           N24   , Gn1 , v120
        .byte   W24
        .byte           N12   , Gn1 , v100
        .byte   W12
        .byte           N24   , Cn2 , v112
        .byte   W24
        .byte           N12   , Cn2 , v092
        .byte   W12
        .byte                   Gn1 , v112
        .byte   W12
        .byte           N04   , Fs1
        .byte   W04
        .byte                   Fs1
        .byte   W04
        .byte                   Fs1 , v120
        .byte   W04
@ 050   ----------------------------------------
RepairedDEnotefix_10_50:
        .byte           N12   , Bn1 , v127
        .byte   W12
        .byte           N06   , Fs1 , v092
        .byte   W06
        .byte                   Fs1 , v108
        .byte   W06
        .byte           N12   , Fs1 , v120
        .byte   W12
        .byte                   Bn1 , v127
        .byte   W12
        .byte           N06   , Fs1 , v092
        .byte   W06
        .byte                   Fs1 , v108
        .byte   W06
        .byte           N12   , Fs1 , v120
        .byte   W12
        .byte           N06   , Bn1 , v127
        .byte   W06
        .byte                   Fs1 , v100
        .byte   W06
        .byte           N12   , Fs1 , v120
        .byte   W12
        .byte   PEND
@ 051   ----------------------------------------
        .byte   PATT
         .word  RepairedDEnotefix_10_50
@ 052   ----------------------------------------
        .byte           N24   , En1 , v120
        .byte   W96
@ 053   ----------------------------------------
        .byte   W96
@ 054   ----------------------------------------
        .byte   W96
@ 055   ----------------------------------------
        .byte   W96
@ 056   ----------------------------------------
        .byte   W96
@ 057   ----------------------------------------
        .byte   W96
@ 058   ----------------------------------------
        .byte   W96
@ 059   ----------------------------------------
        .byte           N06   , Bn1 , v032
        .byte   W06
        .byte           N03
        .byte   W03
        .byte                   Bn1
        .byte   W03
        .byte                   Bn1
        .byte   W03
        .byte                   Bn1
        .byte   W03
        .byte                   Bn1
        .byte   W03
        .byte                   Bn1
        .byte   W03
        .byte                   Bn1
        .byte   W03
        .byte                   Bn1 , v036
        .byte   W03
        .byte                   Bn1
        .byte   W03
        .byte                   Bn1
        .byte   W03
        .byte                   Bn1
        .byte   W03
        .byte                   Bn1 , v040
        .byte   W03
        .byte                   Bn1
        .byte   W03
        .byte                   Bn1 , v048
        .byte   W03
        .byte           N06
        .byte   W06
        .byte           N03   , Bn1 , v052
        .byte   W03
        .byte                   Bn1
        .byte   W03
        .byte                   Bn1 , v056
        .byte   W03
        .byte                   Bn1 , v060
        .byte   W03
        .byte                   Bn1 , v068
        .byte   W03
        .byte                   Bn1 , v072
        .byte   W03
        .byte                   Bn1 , v076
        .byte   W03
        .byte                   Bn1 , v080
        .byte   W03
        .byte                   Bn1 , v088
        .byte   W03
        .byte                   Bn1 , v092
        .byte   W03
        .byte                   Bn1 , v096
        .byte   W03
        .byte                   Bn1 , v100
        .byte   W03
        .byte                   Bn1 , v108
        .byte   W03
        .byte                   Bn1 , v112
        .byte   W03
@ 060   ----------------------------------------
        .byte   PATT
         .word  RepairedDEnotefix_10_46
@ 061   ----------------------------------------
        .byte   PATT
         .word  RepairedDEnotefix_10_47
@ 062   ----------------------------------------
RepairedDEnotefix_10_62:
        .byte           N24   , Fn1 , v120
        .byte   W24
        .byte           N12   , Fn1 , v100
        .byte   W12
        .byte           N24   , Cn2 , v112
        .byte   W24
        .byte           N12   , Cn2 , v092
        .byte   W12
        .byte           N24   , Fn1 , v112
        .byte   W24
        .byte   PEND
@ 063   ----------------------------------------
RepairedDEnotefix_10_63:
        .byte           N24   , An1 , v120
        .byte   W24
        .byte           N12   , An1 , v100
        .byte   W12
        .byte           N24   , Dn1 , v112
        .byte   W24
        .byte           N12   , Dn1 , v092
        .byte   W12
        .byte                   An1 , v112
        .byte   W12
        .byte                   Dn1
        .byte   W12
        .byte   PEND
@ 064   ----------------------------------------
        .byte   PATT
         .word  RepairedDEnotefix_10_46
@ 065   ----------------------------------------
        .byte   PATT
         .word  RepairedDEnotefix_10_47
@ 066   ----------------------------------------
        .byte   PATT
         .word  RepairedDEnotefix_10_62
@ 067   ----------------------------------------
        .byte   PATT
         .word  RepairedDEnotefix_10_63
@ 068   ----------------------------------------
        .byte   PATT
         .word  RepairedDEnotefix_10_46
@ 069   ----------------------------------------
        .byte   PATT
         .word  RepairedDEnotefix_10_47
@ 070   ----------------------------------------
        .byte   PATT
         .word  RepairedDEnotefix_10_62
@ 071   ----------------------------------------
        .byte   PATT
         .word  RepairedDEnotefix_10_63
@ 072   ----------------------------------------
        .byte   PATT
         .word  RepairedDEnotefix_10_46
@ 073   ----------------------------------------
        .byte   PATT
         .word  RepairedDEnotefix_10_47
@ 074   ----------------------------------------
        .byte   PATT
         .word  RepairedDEnotefix_10_62
@ 075   ----------------------------------------
        .byte   PATT
         .word  RepairedDEnotefix_10_63
@ 076   ----------------------------------------
        .byte   GOTO
         .word  RepairedDEnotefix_10_LOOP
        .byte   FINE

@***************** Track 11 (Midi-Chn.12) *****************@

RepairedDEnotefix_11:
        .byte   KEYSH , RepairedDEnotefix_key+0
@ 000   ----------------------------------------
RepairedDEnotefix_11_LOOP:
        .byte           VOICE , 111
        .byte           VOL   , 29
        .byte           PAN   , c_v+63
        .byte           N96   , Cn4 , v080
        .byte   W96
@ 001   ----------------------------------------
        .byte                   Cn4
        .byte   W96
@ 002   ----------------------------------------
        .byte                   Cn4
        .byte   W96
@ 003   ----------------------------------------
        .byte                   Dn4
        .byte   W96
@ 004   ----------------------------------------
        .byte                   Cn4
        .byte   W96
@ 005   ----------------------------------------
        .byte                   Cn4
        .byte   W96
@ 006   ----------------------------------------
        .byte                   Cn4
        .byte   W96
@ 007   ----------------------------------------
        .byte                   Dn4
        .byte   W96
@ 008   ----------------------------------------
        .byte                   Cn4
        .byte   W96
@ 009   ----------------------------------------
        .byte                   Cn4
        .byte   W96
@ 010   ----------------------------------------
        .byte                   Cn4
        .byte   W96
@ 011   ----------------------------------------
        .byte                   Dn4
        .byte   W96
@ 012   ----------------------------------------
        .byte                   Cn4
        .byte   W96
@ 013   ----------------------------------------
        .byte                   Cn4
        .byte   W96
@ 014   ----------------------------------------
        .byte                   Cn4
        .byte   W96
@ 015   ----------------------------------------
        .byte                   Dn4
        .byte   W96
@ 016   ----------------------------------------
        .byte                   Cn4
        .byte   W96
@ 017   ----------------------------------------
        .byte                   Cn4
        .byte   W96
@ 018   ----------------------------------------
        .byte                   Cn4
        .byte   W96
@ 019   ----------------------------------------
        .byte                   Dn4
        .byte   W96
@ 020   ----------------------------------------
        .byte                   Cn4
        .byte   W96
@ 021   ----------------------------------------
        .byte                   Cn4
        .byte   W96
@ 022   ----------------------------------------
        .byte                   Cn4
        .byte   W96
@ 023   ----------------------------------------
        .byte                   Dn4
        .byte   W96
@ 024   ----------------------------------------
        .byte                   Cn4
        .byte   W96
@ 025   ----------------------------------------
        .byte                   Cn4
        .byte   W96
@ 026   ----------------------------------------
        .byte                   Cn4
        .byte   W96
@ 027   ----------------------------------------
        .byte                   Dn4
        .byte   W96
@ 028   ----------------------------------------
        .byte                   Cn4
        .byte   W96
@ 029   ----------------------------------------
        .byte                   Cn4
        .byte   W96
@ 030   ----------------------------------------
        .byte                   Cn4
        .byte   W96
@ 031   ----------------------------------------
        .byte                   Dn4
        .byte   W96
@ 032   ----------------------------------------
        .byte                   Cn4
        .byte   W96
@ 033   ----------------------------------------
        .byte                   Cn4
        .byte   W96
@ 034   ----------------------------------------
        .byte                   Cn4
        .byte   W96
@ 035   ----------------------------------------
        .byte                   Dn4
        .byte   W96
@ 036   ----------------------------------------
        .byte                   Cn4
        .byte   W96
@ 037   ----------------------------------------
        .byte                   Cn4
        .byte   W96
@ 038   ----------------------------------------
        .byte                   Cn4
        .byte   W96
@ 039   ----------------------------------------
        .byte                   Dn4
        .byte   W96
@ 040   ----------------------------------------
        .byte                   Cn4
        .byte   W96
@ 041   ----------------------------------------
        .byte                   Cn4
        .byte   W96
@ 042   ----------------------------------------
        .byte                   Cn4
        .byte   W96
@ 043   ----------------------------------------
        .byte                   Dn4
        .byte   W96
@ 044   ----------------------------------------
        .byte                   Cn4
        .byte   W96
@ 045   ----------------------------------------
        .byte                   Cn4
        .byte   W96
@ 046   ----------------------------------------
        .byte                   Cn4
        .byte   W96
@ 047   ----------------------------------------
        .byte                   Dn4
        .byte   W96
@ 048   ----------------------------------------
        .byte                   Cn4
        .byte   W96
@ 049   ----------------------------------------
        .byte                   Cn4
        .byte   W96
@ 050   ----------------------------------------
        .byte                   Cn4
        .byte   W96
@ 051   ----------------------------------------
        .byte                   Dn4
        .byte   W96
@ 052   ----------------------------------------
        .byte   W96
@ 053   ----------------------------------------
        .byte   W96
@ 054   ----------------------------------------
        .byte   W96
@ 055   ----------------------------------------
        .byte   W96
@ 056   ----------------------------------------
        .byte   W96
@ 057   ----------------------------------------
        .byte   W96
@ 058   ----------------------------------------
        .byte           VOL   , 18
        .byte           N96   , Cn4
        .byte   W03
        .byte           VOL   , 19
        .byte   W15
        .byte                   20
        .byte   W15
        .byte                   21
        .byte   W15
        .byte                   22
        .byte   W14
        .byte                   23
        .byte   W15
        .byte                   24
        .byte   W15
        .byte                   25
        .byte   W04
@ 059   ----------------------------------------
        .byte           N96
        .byte   W11
        .byte           VOL   , 26
        .byte   W14
        .byte                   27
        .byte   W15
        .byte                   28
        .byte   W15
        .byte                   29
        .byte   W15
        .byte                   30
        .byte   W14
        .byte                   31
        .byte   W12
@ 060   ----------------------------------------
        .byte                   32
        .byte           N96
        .byte   W96
@ 061   ----------------------------------------
        .byte                   Cn4
        .byte   W96
@ 062   ----------------------------------------
        .byte                   Cn4
        .byte   W96
@ 063   ----------------------------------------
        .byte                   Dn4
        .byte   W96
@ 064   ----------------------------------------
        .byte                   Cn4
        .byte   W96
@ 065   ----------------------------------------
        .byte                   Cn4
        .byte   W96
@ 066   ----------------------------------------
        .byte                   Cn4
        .byte   W96
@ 067   ----------------------------------------
        .byte                   Dn4
        .byte   W96
@ 068   ----------------------------------------
        .byte                   Cn4
        .byte   W96
@ 069   ----------------------------------------
        .byte                   Cn4
        .byte   W96
@ 070   ----------------------------------------
        .byte                   Cn4
        .byte   W96
@ 071   ----------------------------------------
        .byte                   Dn4
        .byte   W96
@ 072   ----------------------------------------
        .byte                   Cn4
        .byte   W96
@ 073   ----------------------------------------
        .byte                   Cn4
        .byte   W96
@ 074   ----------------------------------------
        .byte                   Cn4
        .byte   W96
@ 075   ----------------------------------------
        .byte                   Dn4
        .byte   W96
@ 076   ----------------------------------------
        .byte           VOL   , 29
        .byte   GOTO
         .word  RepairedDEnotefix_11_LOOP
        .byte   FINE

@***************** Track 12 (Midi-Chn.13) *****************@

RepairedDEnotefix_12:
        .byte   KEYSH , RepairedDEnotefix_key+0
@ 000   ----------------------------------------
RepairedDEnotefix_12_LOOP:
        .byte           VOICE , 111
        .byte           VOL   , 29
        .byte           PAN   , c_v-64
        .byte           N96   , Cn3 , v080
        .byte   W96
@ 001   ----------------------------------------
        .byte                   Cn3
        .byte   W96
@ 002   ----------------------------------------
        .byte                   Cn3
        .byte   W96
@ 003   ----------------------------------------
        .byte                   Dn3
        .byte   W96
@ 004   ----------------------------------------
        .byte                   Cn3
        .byte   W96
@ 005   ----------------------------------------
        .byte                   Cn3
        .byte   W96
@ 006   ----------------------------------------
        .byte                   Cn3
        .byte   W96
@ 007   ----------------------------------------
        .byte                   Dn3
        .byte   W96
@ 008   ----------------------------------------
        .byte                   Cn3
        .byte   W96
@ 009   ----------------------------------------
        .byte                   Cn3
        .byte   W96
@ 010   ----------------------------------------
        .byte                   Cn3
        .byte   W96
@ 011   ----------------------------------------
        .byte                   Dn3
        .byte   W96
@ 012   ----------------------------------------
        .byte                   Cn3
        .byte   W96
@ 013   ----------------------------------------
        .byte                   Cn3
        .byte   W96
@ 014   ----------------------------------------
        .byte                   Cn3
        .byte   W96
@ 015   ----------------------------------------
        .byte                   Dn3
        .byte   W96
@ 016   ----------------------------------------
        .byte                   Cn3
        .byte   W96
@ 017   ----------------------------------------
        .byte                   Cn3
        .byte   W96
@ 018   ----------------------------------------
        .byte                   Cn3
        .byte   W96
@ 019   ----------------------------------------
        .byte                   Dn3
        .byte   W96
@ 020   ----------------------------------------
        .byte                   Cn3
        .byte   W96
@ 021   ----------------------------------------
        .byte                   Cn3
        .byte   W96
@ 022   ----------------------------------------
        .byte                   Cn3
        .byte   W96
@ 023   ----------------------------------------
        .byte                   Dn3
        .byte   W96
@ 024   ----------------------------------------
        .byte                   Cn3
        .byte   W96
@ 025   ----------------------------------------
        .byte                   Cn3
        .byte   W96
@ 026   ----------------------------------------
        .byte                   Cn3
        .byte   W96
@ 027   ----------------------------------------
        .byte                   Dn3
        .byte   W96
@ 028   ----------------------------------------
        .byte                   Cn3
        .byte   W96
@ 029   ----------------------------------------
        .byte                   Cn3
        .byte   W96
@ 030   ----------------------------------------
        .byte                   Cn3
        .byte   W96
@ 031   ----------------------------------------
        .byte                   Dn3
        .byte   W96
@ 032   ----------------------------------------
        .byte                   Cn3
        .byte   W96
@ 033   ----------------------------------------
        .byte                   Cn3
        .byte   W96
@ 034   ----------------------------------------
        .byte                   Cn3
        .byte   W96
@ 035   ----------------------------------------
        .byte                   Dn3
        .byte   W96
@ 036   ----------------------------------------
        .byte                   Cn3
        .byte   W96
@ 037   ----------------------------------------
        .byte                   Cn3
        .byte   W96
@ 038   ----------------------------------------
        .byte                   Cn3
        .byte   W96
@ 039   ----------------------------------------
        .byte                   Dn3
        .byte   W96
@ 040   ----------------------------------------
        .byte                   Cn3
        .byte   W96
@ 041   ----------------------------------------
        .byte                   Cn3
        .byte   W96
@ 042   ----------------------------------------
        .byte                   Cn3
        .byte   W96
@ 043   ----------------------------------------
        .byte                   Dn3
        .byte   W96
@ 044   ----------------------------------------
        .byte                   Cn3
        .byte   W96
@ 045   ----------------------------------------
        .byte                   Cn3
        .byte   W96
@ 046   ----------------------------------------
        .byte                   Cn3
        .byte   W96
@ 047   ----------------------------------------
        .byte                   Dn3
        .byte   W96
@ 048   ----------------------------------------
        .byte                   Cn3
        .byte   W96
@ 049   ----------------------------------------
        .byte                   Cn3
        .byte   W96
@ 050   ----------------------------------------
        .byte                   Cn3
        .byte   W96
@ 051   ----------------------------------------
        .byte                   Dn3
        .byte   W96
@ 052   ----------------------------------------
        .byte   W96
@ 053   ----------------------------------------
        .byte   W96
@ 054   ----------------------------------------
        .byte   W96
@ 055   ----------------------------------------
        .byte   W96
@ 056   ----------------------------------------
        .byte   W96
@ 057   ----------------------------------------
        .byte   W96
@ 058   ----------------------------------------
        .byte           VOL   , 18
        .byte           N96   , Cn3
        .byte   W03
        .byte           VOL   , 19
        .byte   W15
        .byte                   20
        .byte   W15
        .byte                   21
        .byte   W15
        .byte                   22
        .byte   W14
        .byte                   23
        .byte   W15
        .byte                   24
        .byte   W15
        .byte                   25
        .byte   W04
@ 059   ----------------------------------------
        .byte           N96
        .byte   W11
        .byte           VOL   , 26
        .byte   W14
        .byte                   27
        .byte   W15
        .byte                   28
        .byte   W15
        .byte                   29
        .byte   W15
        .byte                   30
        .byte   W14
        .byte                   31
        .byte   W12
@ 060   ----------------------------------------
        .byte                   32
        .byte           N96
        .byte   W96
@ 061   ----------------------------------------
        .byte                   Cn3
        .byte   W96
@ 062   ----------------------------------------
        .byte                   Cn3
        .byte   W96
@ 063   ----------------------------------------
        .byte                   Dn3
        .byte   W96
@ 064   ----------------------------------------
        .byte                   Cn3
        .byte   W96
@ 065   ----------------------------------------
        .byte                   Cn3
        .byte   W96
@ 066   ----------------------------------------
        .byte                   Cn3
        .byte   W96
@ 067   ----------------------------------------
        .byte                   Dn3
        .byte   W96
@ 068   ----------------------------------------
        .byte                   Cn3
        .byte   W96
@ 069   ----------------------------------------
        .byte                   Cn3
        .byte   W96
@ 070   ----------------------------------------
        .byte                   Cn3
        .byte   W96
@ 071   ----------------------------------------
        .byte                   Dn3
        .byte   W96
@ 072   ----------------------------------------
        .byte                   Cn3
        .byte   W96
@ 073   ----------------------------------------
        .byte                   Cn3
        .byte   W96
@ 074   ----------------------------------------
        .byte                   Cn3
        .byte   W96
@ 075   ----------------------------------------
        .byte                   Dn3
        .byte   W96
@ 076   ----------------------------------------
        .byte           VOL   , 29
        .byte   GOTO
         .word  RepairedDEnotefix_12_LOOP
        .byte   FINE

@***************** Track 13 (Midi-Chn.14) *****************@

RepairedDEnotefix_13:
        .byte   KEYSH , RepairedDEnotefix_key+0
@ 000   ----------------------------------------
RepairedDEnotefix_13_LOOP:
        .byte           VOICE , 57
        .byte           PAN   , c_v+6
        .byte           VOL   , 25
        .byte   W96
@ 001   ----------------------------------------
        .byte   W96
@ 002   ----------------------------------------
        .byte   W96
@ 003   ----------------------------------------
        .byte   W96
@ 004   ----------------------------------------
        .byte   W96
@ 005   ----------------------------------------
        .byte   W96
@ 006   ----------------------------------------
        .byte   W48
        .byte           N48   , Fs2 , v100
        .byte   W48
@ 007   ----------------------------------------
        .byte                   Bn2
        .byte   W48
        .byte                   Dn3
        .byte           N48   , Bn2 , v088
        .byte   W48
@ 008   ----------------------------------------
        .byte           TIE   , Cn3 , v100
        .byte           TIE   , An2 , v088
        .byte   W96
@ 009   ----------------------------------------
        .byte   W92
        .byte   W02
        .byte           EOT
        .byte           EOT   , Cn3
        .byte   W02
@ 010   ----------------------------------------
        .byte           TIE   , An3 , v112
        .byte           TIE   , En3 , v100
        .byte   W96
@ 011   ----------------------------------------
        .byte   W48
        .byte           EOT
        .byte           EOT   , An3
        .byte           N48   , Bn3 , v112
        .byte           N48   , En3 , v100
        .byte   W48
@ 012   ----------------------------------------
        .byte           TIE   , Gn3
        .byte           TIE   , En3 , v092
        .byte   W96
@ 013   ----------------------------------------
        .byte   W96
@ 014   ----------------------------------------
        .byte           EOT
        .byte           EOT   , Gn3
        .byte   W96
@ 015   ----------------------------------------
        .byte   W96
@ 016   ----------------------------------------
        .byte   W96
@ 017   ----------------------------------------
        .byte   W96
@ 018   ----------------------------------------
        .byte   W96
@ 019   ----------------------------------------
        .byte   W96
@ 020   ----------------------------------------
        .byte   W96
@ 021   ----------------------------------------
        .byte   W96
@ 022   ----------------------------------------
        .byte   W96
@ 023   ----------------------------------------
        .byte   W96
@ 024   ----------------------------------------
        .byte   W96
@ 025   ----------------------------------------
        .byte   W96
@ 026   ----------------------------------------
        .byte   W96
@ 027   ----------------------------------------
        .byte   W96
@ 028   ----------------------------------------
        .byte   W96
@ 029   ----------------------------------------
        .byte   W48
        .byte           N48   , Bn1 , v116
        .byte           N48   , Gn1 , v108
        .byte   W48
@ 030   ----------------------------------------
        .byte           TIE   , Dn2 , v112
        .byte           TIE   , An1 , v100
        .byte   W96
@ 031   ----------------------------------------
        .byte   W48
        .byte           EOT
        .byte           EOT   , Dn2
        .byte   W48
@ 032   ----------------------------------------
        .byte   W48
        .byte           N48   , En2 , v120
        .byte   W48
@ 033   ----------------------------------------
        .byte                   Gn2
        .byte           N48   , En2 , v112
        .byte   W48
        .byte                   Cn3 , v120
        .byte           N48   , Gn2 , v112
        .byte   W48
@ 034   ----------------------------------------
        .byte           TIE   , Dn3 , v120
        .byte           TIE   , Fs2 , v112
        .byte   W96
@ 035   ----------------------------------------
        .byte   W48
        .byte           EOT
        .byte           EOT   , Dn3
        .byte   W48
@ 036   ----------------------------------------
        .byte           TIE   , Cn3
        .byte           TIE   , Gn2 , v100
        .byte   W96
@ 037   ----------------------------------------
        .byte   W96
@ 038   ----------------------------------------
        .byte           EOT
        .byte           TIE   , Fn2
        .byte   W96
@ 039   ----------------------------------------
        .byte   W96
@ 040   ----------------------------------------
        .byte           EOT
        .byte           EOT   , Cn3
        .byte           TIE   , Bn2 , v112
        .byte           TIE   , En2 , v100
        .byte   W96
@ 041   ----------------------------------------
        .byte   W96
@ 042   ----------------------------------------
        .byte   W96
@ 043   ----------------------------------------
        .byte   W96
@ 044   ----------------------------------------
        .byte           EOT
        .byte           EOT   , Bn2
        .byte           N08   , En3
        .byte           N08   , Cn3 , v080
        .byte   W18
        .byte                   En3 , v100
        .byte           N08   , Cn3 , v088
        .byte   W18
        .byte           N06   , En3 , v100
        .byte           N06   , Cn3 , v080
        .byte   W06
        .byte                   Fs3 , v096
        .byte           N06   , Dn3 , v076
        .byte   W06
        .byte           N60   , Gn3 , v096
        .byte           N60   , En3 , v076
        .byte   W48
@ 045   ----------------------------------------
        .byte   W16
        .byte           N16   , An2 , v088
        .byte   W16
        .byte                   Gn2
        .byte   W16
        .byte                   Fs2
        .byte   W16
        .byte                   En2
        .byte   W16
        .byte                   Dn2
        .byte   W16
@ 046   ----------------------------------------
        .byte           N36   , Bn1 , v096
        .byte   W36
        .byte           TIE   , En2
        .byte   W60
@ 047   ----------------------------------------
        .byte   W84
        .byte           EOT
        .byte   W12
@ 048   ----------------------------------------
        .byte           N08   , En3 , v100
        .byte           N08   , Cn3 , v080
        .byte   W18
        .byte                   En3 , v100
        .byte           N08   , Cn3 , v088
        .byte   W18
        .byte           N06   , En3 , v100
        .byte           N06   , Cn3 , v080
        .byte   W06
        .byte                   Fs3 , v096
        .byte           N06   , Dn3 , v076
        .byte   W06
        .byte           N60   , Gn3 , v096
        .byte           N60   , En3 , v076
        .byte   W48
@ 049   ----------------------------------------
        .byte   W16
        .byte           N16   , An2 , v096
        .byte   W16
        .byte                   Gn2
        .byte   W16
        .byte                   Bn2
        .byte   W16
        .byte                   An2
        .byte   W16
        .byte                   Gn2
        .byte   W16
@ 050   ----------------------------------------
        .byte           N36   , Ds2 , v092
        .byte           N36   , Bn1 , v100
        .byte   W36
        .byte                   En2 , v080
        .byte           N36   , Cs2 , v092
        .byte   W36
        .byte           N24   , Fs2 , v080
        .byte           N24   , Ds2 , v092
        .byte   W24
@ 051   ----------------------------------------
        .byte           N36   , Fs2 , v080
        .byte           N36   , Ds2 , v092
        .byte   W36
        .byte                   Gn2
        .byte           N36   , En2 , v100
        .byte   W36
        .byte           N24   , An2
        .byte           N24   , Fs2 , v112
        .byte   W24
@ 052   ----------------------------------------
        .byte   W96
@ 053   ----------------------------------------
        .byte   W96
@ 054   ----------------------------------------
        .byte   W96
@ 055   ----------------------------------------
        .byte   W96
@ 056   ----------------------------------------
        .byte   W96
@ 057   ----------------------------------------
        .byte   W96
@ 058   ----------------------------------------
        .byte   W96
@ 059   ----------------------------------------
        .byte   W96
@ 060   ----------------------------------------
        .byte   W96
@ 061   ----------------------------------------
        .byte   W96
@ 062   ----------------------------------------
        .byte   W96
@ 063   ----------------------------------------
        .byte   W96
@ 064   ----------------------------------------
        .byte   W96
@ 065   ----------------------------------------
        .byte   W96
@ 066   ----------------------------------------
        .byte   W96
@ 067   ----------------------------------------
        .byte   W96
@ 068   ----------------------------------------
        .byte   W96
@ 069   ----------------------------------------
        .byte   W96
@ 070   ----------------------------------------
        .byte   W96
@ 071   ----------------------------------------
        .byte   W96
@ 072   ----------------------------------------
        .byte   W96
@ 073   ----------------------------------------
        .byte   W96
@ 074   ----------------------------------------
        .byte   W96
@ 075   ----------------------------------------
        .byte   W96
@ 076   ----------------------------------------
        .byte   GOTO
         .word  RepairedDEnotefix_13_LOOP
        .byte   FINE


@********************** End of Song ***********************@

        .align  2
RepairedDEnotefix:
        .byte   14                      @ Num Tracks
        .byte   0                       @ Unknown
        .byte   RepairedDEnotefix_pri   @ Priority
        .byte   RepairedDEnotefix_rev   @ Reverb

        .word   RepairedDEnotefix_grp  

        .word   RepairedDEnotefix_0
        .word   RepairedDEnotefix_1
        .word   RepairedDEnotefix_2
        .word   RepairedDEnotefix_3
        .word   RepairedDEnotefix_4
        .word   RepairedDEnotefix_5
        .word   RepairedDEnotefix_6
        .word   RepairedDEnotefix_7
        .word   RepairedDEnotefix_8
        .word   RepairedDEnotefix_9
        .word   RepairedDEnotefix_10
        .word   RepairedDEnotefix_11
        .word   RepairedDEnotefix_12
        .word   RepairedDEnotefix_13

        .end
