	.include "MPlayDef.s"

	.equ	RepairedDE_grp, voicegroup000
	.equ	RepairedDE_pri, 0
	.equ	RepairedDE_rev, 0
	.equ	RepairedDE_mvl, 108
	.equ	RepairedDE_key, 0
	.equ	RepairedDE_tbs, 1
	.equ	RepairedDE_exg, 0
	.equ	RepairedDE_cmp, 1

	.section .rodata
	.global	RepairedDE
	.align	2

@**************** Track 1 (Midi-Chn.1) ****************@

RepairedDE_1:
	.byte	KEYSH , RepairedDE_key+0
RepairedDE_1_B1:
@ 000   ----------------------------------------
	.byte	TEMPO , 156*RepairedDE_tbs/2
	.byte		VOICE , 62
	.byte		VOL   , 32*RepairedDE_mvl/mxv
	.byte		PAN   , c_v+6
	.byte	W96
@ 001   ----------------------------------------
	.byte	W96
@ 002   ----------------------------------------
	.byte	W96
@ 003   ----------------------------------------
	.byte	W96
@ 004   ----------------------------------------
	.byte	W96
@ 005   ----------------------------------------
	.byte	W96
@ 006   ----------------------------------------
	.byte	W48
	.byte		N48   , Fs2 , v108
	.byte	W48
@ 007   ----------------------------------------
	.byte		        Bn2 
	.byte	W48
	.byte		        Dn3 
	.byte	W48
@ 008   ----------------------------------------
	.byte		TIE   , Cn3 
	.byte	W96
@ 009   ----------------------------------------
	.byte	W96
	.byte		EOT   
@ 010   ----------------------------------------
	.byte	W96
@ 011   ----------------------------------------
	.byte	W96
@ 012   ----------------------------------------
	.byte		N96   , Bn2 , v127
	.byte	W96
@ 013   ----------------------------------------
	.byte		        En3 
	.byte	W96
@ 014   ----------------------------------------
	.byte	W48
	.byte		N48   , Dn3 
	.byte	W48
@ 015   ----------------------------------------
	.byte		        Fs3 
	.byte	W48
	.byte		        An3 
	.byte	W48
@ 016   ----------------------------------------
	.byte		N96   , Gn3 
	.byte	W96
@ 017   ----------------------------------------
	.byte		        Cn4 
	.byte	W96
@ 018   ----------------------------------------
	.byte		N48   , Bn3 
	.byte	W48
	.byte		N72   , Fs3 
	.byte	W48
@ 019   ----------------------------------------
	.byte	W48
	.byte		N48   , Gn3 
	.byte	W48
@ 020   ----------------------------------------
	.byte		N96   , En3 
	.byte	W96
@ 021   ----------------------------------------
	.byte		TIE   , Bn3 
	.byte	W96
@ 022   ----------------------------------------
	.byte	W24
	.byte		EOT   
	.byte	W24
	.byte		N48   , An3 
	.byte	W48
@ 023   ----------------------------------------
	.byte		        Gn3 
	.byte	W48
	.byte		        Fs3 
	.byte	W48
@ 024   ----------------------------------------
	.byte		TIE   , En3 
	.byte	W96
@ 025   ----------------------------------------
	.byte	W96
	.byte		EOT   
@ 026   ----------------------------------------
	.byte	W96
@ 027   ----------------------------------------
	.byte	W96
@ 028   ----------------------------------------
	.byte		N96   , Bn2 
	.byte	W96
@ 029   ----------------------------------------
	.byte		        Bn2 , v108
	.byte		N96   , En3 , v127
	.byte	W96
@ 030   ----------------------------------------
	.byte	W48
	.byte		N48   , Dn3 
	.byte	W48
@ 031   ----------------------------------------
	.byte		        Dn3 , v108
	.byte		N48   , Fs3 , v127
	.byte	W48
	.byte		        Fs3 , v108
	.byte		N48   , An3 , v127
	.byte	W48
@ 032   ----------------------------------------
	.byte		N96   , En3 , v108
	.byte		N96   , Gn3 , v127
	.byte	W96
@ 033   ----------------------------------------
	.byte		        Gn3 , v108
	.byte		N96   , Cn4 , v127
	.byte	W96
@ 034   ----------------------------------------
	.byte		N48   , Fs3 , v108
	.byte		N48   , Bn3 , v127
	.byte	W48
	.byte		N72   , Dn3 , v108
	.byte		N72   , Fs3 , v127
	.byte	W48
@ 035   ----------------------------------------
	.byte	W48
	.byte		N48   , En3 , v108
	.byte		N48   , Gn3 , v127
	.byte	W48
@ 036   ----------------------------------------
	.byte		N96   , Cn3 , v108
	.byte		N96   , En3 , v127
	.byte	W96
@ 037   ----------------------------------------
RepairedDE_1_037:
	.byte		TIE   , Gn3 , v108
	.byte		TIE   , Bn3 , v127
	.byte	W96
	.byte	PEND
@ 038   ----------------------------------------
	.byte	W24
	.byte		EOT   , Gn3 
	.byte		        Bn3 
	.byte	W24
	.byte		N48   , Fn3 , v108
	.byte		N48   , An3 , v127
	.byte	W48
@ 039   ----------------------------------------
	.byte		        An3 , v108
	.byte		N48   , Dn4 , v127
	.byte	W48
	.byte		        An3 , v108
	.byte		N48   , Cn4 , v127
	.byte	W48
@ 040   ----------------------------------------
	.byte	PATT
	 .word	RepairedDE_1_037
@ 041   ----------------------------------------
	.byte	W96
	.byte		EOT   , Gn3 
	.byte		        Bn3 
@ 042   ----------------------------------------
	.byte	W96
@ 043   ----------------------------------------
	.byte	W96
@ 044   ----------------------------------------
	.byte	W96
@ 045   ----------------------------------------
	.byte	W96
@ 046   ----------------------------------------
	.byte	W48
	.byte		N48   , Gn2 , v127
	.byte	W48
@ 047   ----------------------------------------
	.byte		        Bn2 
	.byte	W48
	.byte		        Bn2 , v108
	.byte		N48   , Dn3 , v127
	.byte	W48
@ 048   ----------------------------------------
	.byte		TIE   , Cn3 , v100
	.byte		TIE   , En3 , v127
	.byte	W96
@ 049   ----------------------------------------
	.byte	W96
	.byte		EOT   , Cn3 
	.byte		        En3 
@ 050   ----------------------------------------
	.byte	W96
@ 051   ----------------------------------------
	.byte		VOICE , 0
	.byte		VOL   , 30*RepairedDE_mvl/mxv
	.byte		PAN   , c_v+0
	.byte	W96
@ 052   ----------------------------------------
	.byte		TIE   , En0 , v120
	.byte		TIE   , En1 , v112
	.byte	W96
@ 053   ----------------------------------------
	.byte	W96
	.byte		EOT   , En0 
	.byte		        En1 
@ 054   ----------------------------------------
	.byte	W96
@ 055   ----------------------------------------
	.byte	W96
@ 056   ----------------------------------------
	.byte	W96
@ 057   ----------------------------------------
	.byte	W96
@ 058   ----------------------------------------
	.byte		VOICE , 60
	.byte		PAN   , c_v+6
	.byte	W96
@ 059   ----------------------------------------
	.byte	W96
@ 060   ----------------------------------------
	.byte		N84   , En2 , v127
	.byte	W96
@ 061   ----------------------------------------
	.byte		N36   
	.byte	W36
	.byte		        Fs2 
	.byte	W36
	.byte		N24   , En2 , v100
	.byte		N24   , Gn2 , v127
	.byte	W24
@ 062   ----------------------------------------
	.byte		N96   , Fn2 , v100
	.byte		N96   , An2 , v127
	.byte	W96
@ 063   ----------------------------------------
	.byte		        Dn2 , v100
	.byte		N96   , Fn2 , v127
	.byte	W96
@ 064   ----------------------------------------
	.byte		        Bn1 , v100
	.byte		N96   , En2 , v127
	.byte	W96
@ 065   ----------------------------------------
	.byte		N36   , En2 , v100
	.byte		N36   , Gn2 , v127
	.byte	W36
	.byte		        Gn2 , v100
	.byte		N36   , Bn2 , v127
	.byte	W36
	.byte		N24   , Bn2 , v100
	.byte		N24   , Gn3 , v127
	.byte	W24
@ 066   ----------------------------------------
	.byte		TIE   , An2 , v100
	.byte		N96   , Fn3 , v127
	.byte	W96
@ 067   ----------------------------------------
	.byte		        Dn3 
	.byte	W96
	.byte		EOT   , An2 
@ 068   ----------------------------------------
	.byte		N36   , Bn2 , v112
	.byte		N36   , En3 , v127
	.byte	W36
	.byte		        Bn2 , v112
	.byte		N36   , Fs3 , v127
	.byte	W36
	.byte		N24   , Bn2 , v112
	.byte		N24   , Gn3 , v127
	.byte	W24
@ 069   ----------------------------------------
	.byte		TIE   , En3 , v112
	.byte		TIE   , An3 , v127
	.byte	W96
@ 070   ----------------------------------------
	.byte	W24
	.byte		EOT   , En3 
	.byte		        An3 
	.byte	W12
	.byte		N36   , Fn3 , v112
	.byte		N36   , Bn3 , v127
	.byte	W36
	.byte		N24   , Fn3 , v112
	.byte		N24   , An3 , v127
	.byte	W24
@ 071   ----------------------------------------
	.byte		N36   , An3 , v112
	.byte		N36   , Cn4 , v127
	.byte	W36
	.byte		        Gn3 , v112
	.byte		N36   , Bn3 , v127
	.byte	W36
	.byte		N24   , Fn3 , v112
	.byte		N24   , An3 , v127
	.byte	W24
@ 072   ----------------------------------------
	.byte		N36   , Gn3 , v112
	.byte		N36   , Bn3 , v127
	.byte	W36
	.byte		        En3 , v112
	.byte		N36   , Gn3 , v127
	.byte	W36
	.byte		TIE   , Bn2 , v112
	.byte		TIE   , En3 , v127
	.byte	W24
@ 073   ----------------------------------------
	.byte	W96
@ 074   ----------------------------------------
	.byte	W24
	.byte		EOT   , Bn2 
	.byte		        En3 
	.byte	W12
	.byte		N36   , An2 , v112
	.byte		N36   , Dn3 , v127
	.byte	W36
	.byte		N24   , An3 , v112
	.byte		N24   , Cn4 , v127
	.byte	W24
@ 075   ----------------------------------------
	.byte		N36   , Fn3 , v112
	.byte		N36   , An3 , v127
	.byte	W36
	.byte		        Fn3 , v112
	.byte		N36   , Bn3 , v127
	.byte	W36
	.byte		N24   , Fn3 , v112
	.byte		N24   , Cn4 , v127
	.byte	W24
	.byte	GOTO
	 .word	RepairedDE_1_B1
RepairedDE_1_B2:
@ 076   ----------------------------------------
	.byte	TEMPO , 156*RepairedDE_tbs/2
	.byte		VOICE , 60
	.byte		VOL   , 32*RepairedDE_mvl/mxv
	.byte	FINE

@**************** Track 2 (Midi-Chn.2) ****************@

RepairedDE_2:
	.byte	KEYSH , RepairedDE_key+0
RepairedDE_2_B1:
@ 000   ----------------------------------------
RepairedDE_2_000:
	.byte		VOICE , 60
	.byte		VOL   , 30*RepairedDE_mvl/mxv
	.byte		PAN   , c_v+10
	.byte	W96
	.byte	PEND
@ 001   ----------------------------------------
	.byte	W96
@ 002   ----------------------------------------
	.byte	W96
@ 003   ----------------------------------------
	.byte	W96
@ 004   ----------------------------------------
	.byte		N96   , Fs3 , v100
	.byte		N96   , An3 
	.byte	W96
@ 005   ----------------------------------------
	.byte		        Fs3 
	.byte		N96   , Bn3 
	.byte	W96
@ 006   ----------------------------------------
	.byte		TIE   , Dn3 
	.byte		TIE   , Fs3 
	.byte	W96
@ 007   ----------------------------------------
	.byte	W96
	.byte		EOT   , Dn3 
	.byte		        Fs3 
@ 008   ----------------------------------------
	.byte		TIE   , Cn3 
	.byte		TIE   , En3 
	.byte	W96
@ 009   ----------------------------------------
	.byte	W96
	.byte		EOT   , Cn3 
	.byte		        En3 
@ 010   ----------------------------------------
	.byte		TIE   
	.byte		TIE   , An3 
	.byte	W96
@ 011   ----------------------------------------
	.byte	W96
	.byte		EOT   , En3 
	.byte		        An3 
@ 012   ----------------------------------------
	.byte	W96
@ 013   ----------------------------------------
	.byte	W96
@ 014   ----------------------------------------
	.byte	W96
@ 015   ----------------------------------------
	.byte	W96
@ 016   ----------------------------------------
	.byte	W96
@ 017   ----------------------------------------
	.byte	W96
@ 018   ----------------------------------------
	.byte	W96
@ 019   ----------------------------------------
	.byte	W96
@ 020   ----------------------------------------
	.byte	W96
@ 021   ----------------------------------------
	.byte	W96
@ 022   ----------------------------------------
	.byte	W96
@ 023   ----------------------------------------
	.byte	W96
@ 024   ----------------------------------------
	.byte	W96
@ 025   ----------------------------------------
	.byte	W96
@ 026   ----------------------------------------
	.byte	W96
@ 027   ----------------------------------------
	.byte	W96
@ 028   ----------------------------------------
	.byte	W96
@ 029   ----------------------------------------
	.byte	W96
@ 030   ----------------------------------------
	.byte	W96
@ 031   ----------------------------------------
	.byte	W96
@ 032   ----------------------------------------
	.byte	W96
@ 033   ----------------------------------------
	.byte	W96
@ 034   ----------------------------------------
	.byte	W96
@ 035   ----------------------------------------
	.byte	W96
@ 036   ----------------------------------------
	.byte	W96
@ 037   ----------------------------------------
	.byte	W96
@ 038   ----------------------------------------
	.byte	W96
@ 039   ----------------------------------------
	.byte	W96
@ 040   ----------------------------------------
	.byte	W96
@ 041   ----------------------------------------
	.byte	W96
@ 042   ----------------------------------------
	.byte	W96
@ 043   ----------------------------------------
	.byte	W96
@ 044   ----------------------------------------
	.byte	W96
@ 045   ----------------------------------------
	.byte	W96
@ 046   ----------------------------------------
	.byte	W96
@ 047   ----------------------------------------
	.byte	W96
@ 048   ----------------------------------------
	.byte	W96
@ 049   ----------------------------------------
	.byte	W96
@ 050   ----------------------------------------
	.byte	W96
@ 051   ----------------------------------------
	.byte		VOICE , 19
	.byte		VOL   , 25*RepairedDE_mvl/mxv
	.byte		PAN   , c_v+0
	.byte	W96
@ 052   ----------------------------------------
	.byte		TIE   , En1 , v092
	.byte		TIE   , En2 
	.byte	W96
@ 053   ----------------------------------------
	.byte	W96
	.byte		EOT   , En1 
	.byte		        En2 
@ 054   ----------------------------------------
	.byte		TIE   , Fs1 
	.byte		TIE   , Fs2 
	.byte	W96
@ 055   ----------------------------------------
	.byte	W96
	.byte		EOT   , Fs1 
	.byte		        Fs2 
@ 056   ----------------------------------------
	.byte		TIE   , An1 
	.byte		TIE   , An2 
	.byte	W96
@ 057   ----------------------------------------
	.byte	W96
	.byte		EOT   , An1 
	.byte		        An2 
@ 058   ----------------------------------------
	.byte		N96   , Bn1 
	.byte		N96   , Bn2 
	.byte	W96
@ 059   ----------------------------------------
	.byte		        Bn0 
	.byte		N96   , Bn1 
	.byte	W96
@ 060   ----------------------------------------
	.byte	W96
@ 061   ----------------------------------------
	.byte	W96
@ 062   ----------------------------------------
	.byte	W96
@ 063   ----------------------------------------
	.byte	W96
@ 064   ----------------------------------------
	.byte	W96
@ 065   ----------------------------------------
	.byte	W96
@ 066   ----------------------------------------
	.byte	W96
@ 067   ----------------------------------------
	.byte	W96
@ 068   ----------------------------------------
	.byte	W96
@ 069   ----------------------------------------
	.byte	W96
@ 070   ----------------------------------------
	.byte	W96
@ 071   ----------------------------------------
	.byte	W96
@ 072   ----------------------------------------
	.byte	W96
@ 073   ----------------------------------------
	.byte	W96
@ 074   ----------------------------------------
	.byte	PATT
	 .word	RepairedDE_2_000
@ 075   ----------------------------------------
	.byte	W96
	.byte	GOTO
	 .word	RepairedDE_2_B1
RepairedDE_2_B2:
@ 076   ----------------------------------------
	.byte		VOICE , 60
	.byte	FINE

@**************** Track 3 (Midi-Chn.3) ****************@

RepairedDE_3:
	.byte	KEYSH , RepairedDE_key+0
RepairedDE_3_B1:
@ 000   ----------------------------------------
	.byte		VOICE , 48
	.byte		PAN   , c_v-7
	.byte	W96
@ 001   ----------------------------------------
	.byte	W96
@ 002   ----------------------------------------
	.byte	W96
@ 003   ----------------------------------------
	.byte	W96
@ 004   ----------------------------------------
	.byte	W96
@ 005   ----------------------------------------
	.byte	W96
@ 006   ----------------------------------------
	.byte	W96
@ 007   ----------------------------------------
	.byte	W96
@ 008   ----------------------------------------
	.byte	W96
@ 009   ----------------------------------------
	.byte	W96
@ 010   ----------------------------------------
	.byte	W96
@ 011   ----------------------------------------
	.byte		VOL   , 25*RepairedDE_mvl/mxv
	.byte	W96
@ 012   ----------------------------------------
RepairedDE_3_012:
	.byte		TIE   , Bn2 , v100
	.byte		TIE   , En3 
	.byte		TIE   , Gn3 
	.byte	W96
	.byte	PEND
@ 013   ----------------------------------------
	.byte	W96
	.byte		EOT   , Bn2 
	.byte		        En3 
	.byte		        Gn3 
@ 014   ----------------------------------------
RepairedDE_3_014:
	.byte		TIE   , Bn2 , v100
	.byte		TIE   , Dn3 
	.byte		TIE   , Fs3 
	.byte	W96
	.byte	PEND
@ 015   ----------------------------------------
	.byte	W96
	.byte		EOT   , Bn2 
	.byte		        Dn3 
	.byte		        Fs3 
@ 016   ----------------------------------------
RepairedDE_3_016:
	.byte		TIE   , Bn2 , v100
	.byte		TIE   , Cn3 
	.byte		TIE   , En3 
	.byte	W96
	.byte	PEND
@ 017   ----------------------------------------
	.byte	W96
	.byte		EOT   , Bn2 
	.byte		        Cn3 
	.byte		        En3 
@ 018   ----------------------------------------
	.byte	PATT
	 .word	RepairedDE_3_014
@ 019   ----------------------------------------
	.byte	W96
	.byte		EOT   , Bn2 
	.byte		        Dn3 
	.byte		        Fs3 
@ 020   ----------------------------------------
RepairedDE_3_020:
	.byte		N96   , Dn3 , v108
	.byte		TIE   , En3 , v096
	.byte		TIE   , Gn3 
	.byte	W96
	.byte	PEND
@ 021   ----------------------------------------
	.byte		N96   , Cn3 , v108
	.byte	W96
@ 022   ----------------------------------------
	.byte		        Bn2 
	.byte	W96
@ 023   ----------------------------------------
	.byte		        Cn3 
	.byte	W96
	.byte		EOT   , En3 
	.byte		        Gn3 
@ 024   ----------------------------------------
	.byte		TIE   , Bn2 , v080
	.byte		TIE   , En3 
	.byte		TIE   , Gn3 
	.byte	W96
@ 025   ----------------------------------------
	.byte	W96
	.byte		EOT   , Bn2 
	.byte		        En3 
	.byte		        Gn3 
@ 026   ----------------------------------------
	.byte		N96   , Bn2 , v088
	.byte		TIE   , En3 , v076
	.byte		N96   , Fs3 , v088
	.byte	W96
@ 027   ----------------------------------------
	.byte		        Bn3 
	.byte		N96   , Dn4 
	.byte	W96
	.byte		EOT   , En3 
@ 028   ----------------------------------------
	.byte	PATT
	 .word	RepairedDE_3_012
@ 029   ----------------------------------------
	.byte	W96
	.byte		EOT   , Bn2 
	.byte		        En3 
	.byte		        Gn3 
@ 030   ----------------------------------------
	.byte	PATT
	 .word	RepairedDE_3_014
@ 031   ----------------------------------------
	.byte	W96
	.byte		EOT   , Bn2 
	.byte		        Dn3 
	.byte		        Fs3 
@ 032   ----------------------------------------
	.byte	PATT
	 .word	RepairedDE_3_016
@ 033   ----------------------------------------
	.byte	W96
	.byte		EOT   , Bn2 
	.byte		        Cn3 
	.byte		        En3 
@ 034   ----------------------------------------
	.byte	PATT
	 .word	RepairedDE_3_014
@ 035   ----------------------------------------
	.byte	W96
	.byte		EOT   , Bn2 
	.byte		        Dn3 
	.byte		        Fs3 
@ 036   ----------------------------------------
	.byte	PATT
	 .word	RepairedDE_3_020
@ 037   ----------------------------------------
	.byte		N96   , Cn3 , v108
	.byte	W96
	.byte		EOT   , En3 
	.byte		        Gn3 
@ 038   ----------------------------------------
	.byte		N96   , En3 
	.byte		TIE   , Fn3 , v096
	.byte		TIE   , An3 
	.byte	W96
@ 039   ----------------------------------------
	.byte		N96   , Cn3 , v108
	.byte	W96
	.byte		EOT   , Fn3 
	.byte		        An3 
@ 040   ----------------------------------------
	.byte	PATT
	 .word	RepairedDE_3_012
@ 041   ----------------------------------------
	.byte	W96
	.byte		EOT   , Bn2 
	.byte		        En3 
	.byte		        Gn3 
@ 042   ----------------------------------------
	.byte		TIE   , Bn2 , v127
	.byte		TIE   , En3 , v116
	.byte		N96   , Fs3 , v127
	.byte	W96
@ 043   ----------------------------------------
	.byte		        Bn3 
	.byte		N96   , Dn4 
	.byte	W96
	.byte		EOT   , Bn2 
	.byte		        En3 
@ 044   ----------------------------------------
	.byte		VOL   , 22*RepairedDE_mvl/mxv
	.byte		TIE   , Bn4 , v100
	.byte		TIE   , En5 
	.byte	W96
@ 045   ----------------------------------------
	.byte	W96
	.byte		EOT   , Bn4 
	.byte		        En5 
@ 046   ----------------------------------------
	.byte		TIE   , Gn4 
	.byte		TIE   , Bn4 
	.byte	W96
@ 047   ----------------------------------------
	.byte	W96
	.byte		EOT   , Gn4 
	.byte		        Bn4 
@ 048   ----------------------------------------
	.byte		TIE   
	.byte		TIE   , En5 
	.byte	W96
@ 049   ----------------------------------------
	.byte	W96
	.byte		EOT   , Bn4 
	.byte		        En5 
@ 050   ----------------------------------------
	.byte		N36   , Gn4 
	.byte		N36   , Bn4 
	.byte	W36
	.byte		        Fs4 
	.byte		N36   , An4 
	.byte	W36
	.byte		N24   , En4 
	.byte		N24   , Gn4 
	.byte	W24
@ 051   ----------------------------------------
	.byte		N36   , Fs4 
	.byte		N36   , An4 
	.byte	W36
	.byte		        En4 
	.byte		N36   , Gn4 
	.byte	W36
	.byte		N24   , Ds4 
	.byte		N24   , Fs4 
	.byte	W24
@ 052   ----------------------------------------
	.byte	W96
@ 053   ----------------------------------------
	.byte	W96
@ 054   ----------------------------------------
	.byte	W96
@ 055   ----------------------------------------
	.byte	W96
@ 056   ----------------------------------------
	.byte	W96
@ 057   ----------------------------------------
	.byte	W96
@ 058   ----------------------------------------
	.byte	W96
@ 059   ----------------------------------------
	.byte	W72
	.byte		N04   , Ds3 
	.byte		N04   , Fs3 
	.byte	W04
	.byte		        En3 
	.byte		N04   , Gn3 
	.byte	W04
	.byte		        Fs3 
	.byte		N04   , An3 
	.byte	W04
	.byte		        Gn3 
	.byte		N04   , Bn3 
	.byte	W04
	.byte		        An3 
	.byte		N04   , Cn4 
	.byte	W04
	.byte		        Bn3 
	.byte		N04   , Dn4 
	.byte	W04
@ 060   ----------------------------------------
	.byte		N36   , Bn3 
	.byte		N36   , En4 
	.byte	W36
	.byte		        Bn3 
	.byte		N36   , Fs4 
	.byte	W36
	.byte		N24   , Bn3 
	.byte		N24   , Gn4 
	.byte	W24
@ 061   ----------------------------------------
	.byte		TIE   , En4 
	.byte		TIE   , An4 
	.byte	W96
@ 062   ----------------------------------------
	.byte	W24
	.byte		EOT   , En4 
	.byte		        An4 
	.byte	W12
	.byte		N36   , Fn4 
	.byte		N36   , Bn4 
	.byte	W36
	.byte		N24   , Fn4 
	.byte		N24   , An4 
	.byte	W24
@ 063   ----------------------------------------
	.byte		N36   
	.byte		N36   , Cn5 
	.byte	W36
	.byte		        Gn4 
	.byte		N36   , Bn4 
	.byte	W36
	.byte		N24   , Fn4 
	.byte		N24   , An4 
	.byte	W24
@ 064   ----------------------------------------
	.byte		N36   , Gn4 
	.byte		N36   , Bn4 
	.byte	W36
	.byte		        En4 
	.byte		N36   , Gn4 
	.byte	W36
	.byte		TIE   , Bn3 
	.byte		TIE   , En4 
	.byte	W24
@ 065   ----------------------------------------
	.byte	W96
@ 066   ----------------------------------------
	.byte	W24
	.byte		EOT   , Bn3 
	.byte		        En4 
	.byte	W12
	.byte		N36   , An3 
	.byte		N36   , Dn4 
	.byte	W36
	.byte		N24   , An4 
	.byte		N24   , Cn5 
	.byte	W24
@ 067   ----------------------------------------
	.byte		N36   , Fn4 
	.byte		N36   , An4 
	.byte	W36
	.byte		        Fn4 
	.byte		N36   , Bn4 
	.byte	W36
	.byte		N24   , Fn4 
	.byte		N24   , Cn5 
	.byte	W24
@ 068   ----------------------------------------
	.byte		N96   , En4 
	.byte		N96   , Bn4 
	.byte	W96
@ 069   ----------------------------------------
	.byte		        An3 
	.byte		N96   , En4 
	.byte	W96
@ 070   ----------------------------------------
	.byte		        An3 
	.byte		N96   , Cn4 
	.byte	W96
@ 071   ----------------------------------------
	.byte		N36   
	.byte		N36   , En4 
	.byte	W36
	.byte		        Bn3 
	.byte		N36   , Dn4 
	.byte	W36
	.byte		N24   , An3 
	.byte		N24   , Cn4 
	.byte	W24
@ 072   ----------------------------------------
	.byte		N96   , Gn3 
	.byte		N96   , Bn3 
	.byte	W96
@ 073   ----------------------------------------
	.byte		N36   
	.byte		N36   , En4 
	.byte	W36
	.byte		N36   
	.byte		N36   , Bn4 
	.byte	W36
	.byte		N24   
	.byte		N24   , Gn5 
	.byte	W24
@ 074   ----------------------------------------
	.byte		N96   , An4 
	.byte		N96   , Fn5 
	.byte	W96
@ 075   ----------------------------------------
	.byte	W96
	.byte	GOTO
	 .word	RepairedDE_3_B1
RepairedDE_3_B2:
@ 076   ----------------------------------------
	.byte		VOICE , 48
	.byte	FINE

@**************** Track 4 (Midi-Chn.4) ****************@

RepairedDE_4:
	.byte	KEYSH , RepairedDE_key+0
RepairedDE_4_B1:
@ 000   ----------------------------------------
	.byte		VOICE , 49
	.byte		VOL   , 25*RepairedDE_mvl/mxv
	.byte		PAN   , c_v-4
	.byte		TIE   , Bn1 , v100
	.byte		TIE   , En2 
	.byte	W96
@ 001   ----------------------------------------
	.byte		N96   , Bn2 
	.byte	W96
@ 002   ----------------------------------------
	.byte		TIE   , An2 , v080
	.byte		N96   , Cn3 , v100
	.byte	W96
@ 003   ----------------------------------------
	.byte		        Dn3 
	.byte	W96
	.byte		EOT   , Bn1 
	.byte		        En2 
	.byte		        An2 
@ 004   ----------------------------------------
	.byte		N96   , En3 , v096
	.byte		N96   , Fs3 
	.byte	W96
@ 005   ----------------------------------------
	.byte		        En3 
	.byte		N96   , Fs3 
	.byte	W96
@ 006   ----------------------------------------
	.byte		TIE   , Bn2 
	.byte		TIE   , Dn3 
	.byte	W96
@ 007   ----------------------------------------
	.byte	W96
	.byte		EOT   , Bn2 
	.byte		        Dn3 
@ 008   ----------------------------------------
	.byte		TIE   , An2 
	.byte		TIE   , Cn3 
	.byte	W96
@ 009   ----------------------------------------
	.byte	W96
	.byte		EOT   , An2 
	.byte		        Cn3 
@ 010   ----------------------------------------
	.byte		TIE   
	.byte		TIE   , En3 
	.byte	W96
@ 011   ----------------------------------------
	.byte	W96
	.byte		EOT   , Cn3 
	.byte		        En3 
@ 012   ----------------------------------------
	.byte	W96
@ 013   ----------------------------------------
	.byte	W96
@ 014   ----------------------------------------
	.byte	W96
@ 015   ----------------------------------------
	.byte	W96
@ 016   ----------------------------------------
	.byte	W96
@ 017   ----------------------------------------
	.byte	W96
@ 018   ----------------------------------------
	.byte	W96
@ 019   ----------------------------------------
	.byte	W96
@ 020   ----------------------------------------
	.byte	W96
@ 021   ----------------------------------------
	.byte	W96
@ 022   ----------------------------------------
	.byte	W96
@ 023   ----------------------------------------
	.byte	W96
@ 024   ----------------------------------------
	.byte	W96
@ 025   ----------------------------------------
	.byte	W96
@ 026   ----------------------------------------
	.byte	W96
@ 027   ----------------------------------------
	.byte	W96
@ 028   ----------------------------------------
	.byte	W96
@ 029   ----------------------------------------
	.byte	W96
@ 030   ----------------------------------------
	.byte	W96
@ 031   ----------------------------------------
	.byte	W96
@ 032   ----------------------------------------
	.byte	W96
@ 033   ----------------------------------------
	.byte	W96
@ 034   ----------------------------------------
	.byte	W96
@ 035   ----------------------------------------
	.byte	W96
@ 036   ----------------------------------------
	.byte	W96
@ 037   ----------------------------------------
	.byte	W96
@ 038   ----------------------------------------
	.byte	W96
@ 039   ----------------------------------------
	.byte	W96
@ 040   ----------------------------------------
	.byte	W96
@ 041   ----------------------------------------
	.byte	W96
@ 042   ----------------------------------------
	.byte	W96
@ 043   ----------------------------------------
	.byte	W96
@ 044   ----------------------------------------
	.byte	W96
@ 045   ----------------------------------------
	.byte	W96
@ 046   ----------------------------------------
	.byte	W96
@ 047   ----------------------------------------
	.byte	W96
@ 048   ----------------------------------------
	.byte	W96
@ 049   ----------------------------------------
	.byte	W96
@ 050   ----------------------------------------
	.byte	W96
@ 051   ----------------------------------------
	.byte		VOICE , 46
	.byte		VOL   , 20*RepairedDE_mvl/mxv
	.byte		PAN   , c_v+0
	.byte	W96
@ 052   ----------------------------------------
	.byte		N24   , En4 , v112
	.byte	W24
	.byte		        Bn3 
	.byte	W24
	.byte		        En4 
	.byte	W24
	.byte		        Fs4 
	.byte	W24
@ 053   ----------------------------------------
	.byte		        Gn4 
	.byte	W24
	.byte		        Bn3 
	.byte	W24
	.byte		        En4 
	.byte	W24
	.byte		        Fs4 
	.byte	W24
@ 054   ----------------------------------------
	.byte		        Gn4 
	.byte	W24
	.byte		        An4 
	.byte	W24
	.byte		        Gn4 
	.byte	W24
	.byte		        Fs4 
	.byte	W24
@ 055   ----------------------------------------
	.byte		        En4 
	.byte	W24
	.byte		        Dn4 
	.byte	W24
	.byte		        Cn4 
	.byte	W24
	.byte		        Bn3 
	.byte	W24
@ 056   ----------------------------------------
	.byte		        Cn5 
	.byte	W24
	.byte		        Bn4 
	.byte	W24
	.byte		        An4 
	.byte	W24
	.byte		        Gn4 
	.byte	W24
@ 057   ----------------------------------------
	.byte		        Fs4 
	.byte	W24
	.byte		        En4 
	.byte	W24
	.byte		        Dn4 
	.byte	W24
	.byte		        Cn4 
	.byte	W24
@ 058   ----------------------------------------
	.byte		        Bn3 
	.byte	W24
	.byte		        Cn4 
	.byte	W24
	.byte		        Bn3 
	.byte	W24
	.byte		        An3 
	.byte	W24
@ 059   ----------------------------------------
	.byte		        Bn3 
	.byte	W24
	.byte		        An3 
	.byte	W24
	.byte		        Gn3 
	.byte	W24
	.byte		        Fs3 
	.byte	W24
@ 060   ----------------------------------------
	.byte	W96
@ 061   ----------------------------------------
	.byte	W96
@ 062   ----------------------------------------
	.byte	W96
@ 063   ----------------------------------------
	.byte	W96
@ 064   ----------------------------------------
	.byte	W96
@ 065   ----------------------------------------
	.byte	W96
@ 066   ----------------------------------------
	.byte	W96
@ 067   ----------------------------------------
	.byte	W96
@ 068   ----------------------------------------
	.byte	W96
@ 069   ----------------------------------------
	.byte	W96
@ 070   ----------------------------------------
	.byte	W96
@ 071   ----------------------------------------
	.byte	W96
@ 072   ----------------------------------------
	.byte	W96
@ 073   ----------------------------------------
	.byte	W96
@ 074   ----------------------------------------
	.byte		VOICE , 48
	.byte		VOL   , 25*RepairedDE_mvl/mxv
	.byte		PAN   , c_v-4
	.byte	W96
@ 075   ----------------------------------------
	.byte	W96
	.byte	GOTO
	 .word	RepairedDE_4_B1
RepairedDE_4_B2:
@ 076   ----------------------------------------
	.byte		VOICE , 48
	.byte	FINE

@**************** Track 5 (Midi-Chn.5) ****************@

RepairedDE_5:
	.byte	KEYSH , RepairedDE_key+0
RepairedDE_5_B1:
@ 000   ----------------------------------------
	.byte		VOICE , 42
	.byte		PAN   , c_v-16
	.byte		VOL   , 30*RepairedDE_mvl/mxv
	.byte	W96
@ 001   ----------------------------------------
	.byte	W96
@ 002   ----------------------------------------
	.byte	W96
@ 003   ----------------------------------------
	.byte	W96
@ 004   ----------------------------------------
	.byte	W96
@ 005   ----------------------------------------
	.byte	W96
@ 006   ----------------------------------------
	.byte	W96
@ 007   ----------------------------------------
	.byte	W96
@ 008   ----------------------------------------
	.byte	W96
@ 009   ----------------------------------------
	.byte	W96
@ 010   ----------------------------------------
	.byte	W96
@ 011   ----------------------------------------
	.byte	W96
@ 012   ----------------------------------------
	.byte	W96
@ 013   ----------------------------------------
	.byte	W96
@ 014   ----------------------------------------
	.byte	W96
@ 015   ----------------------------------------
	.byte	W96
@ 016   ----------------------------------------
	.byte	W96
@ 017   ----------------------------------------
	.byte	W96
@ 018   ----------------------------------------
	.byte	W96
@ 019   ----------------------------------------
	.byte	W96
@ 020   ----------------------------------------
	.byte	W96
@ 021   ----------------------------------------
	.byte	W96
@ 022   ----------------------------------------
	.byte	W96
@ 023   ----------------------------------------
	.byte	W96
@ 024   ----------------------------------------
	.byte	W96
@ 025   ----------------------------------------
	.byte	W96
@ 026   ----------------------------------------
	.byte	W96
@ 027   ----------------------------------------
	.byte	W96
@ 028   ----------------------------------------
	.byte	W96
@ 029   ----------------------------------------
	.byte	W96
@ 030   ----------------------------------------
	.byte	W96
@ 031   ----------------------------------------
	.byte	W96
@ 032   ----------------------------------------
	.byte	W96
@ 033   ----------------------------------------
	.byte	W96
@ 034   ----------------------------------------
	.byte	W96
@ 035   ----------------------------------------
	.byte	W96
@ 036   ----------------------------------------
	.byte	W96
@ 037   ----------------------------------------
	.byte	W96
@ 038   ----------------------------------------
	.byte	W96
@ 039   ----------------------------------------
	.byte	W96
@ 040   ----------------------------------------
	.byte	W96
@ 041   ----------------------------------------
	.byte	W96
@ 042   ----------------------------------------
	.byte	W96
@ 043   ----------------------------------------
	.byte		N96   , Cn2 , v108
	.byte	W96
@ 044   ----------------------------------------
RepairedDE_5_044:
	.byte		N48   , En2 , v108
	.byte	W48
	.byte		        Gn2 
	.byte	W48
	.byte	PEND
@ 045   ----------------------------------------
	.byte		        Fs2 
	.byte	W48
	.byte		        Gn2 
	.byte	W48
@ 046   ----------------------------------------
	.byte		N96   , En2 
	.byte	W96
@ 047   ----------------------------------------
	.byte		        Cn2 
	.byte	W96
@ 048   ----------------------------------------
	.byte	PATT
	 .word	RepairedDE_5_044
@ 049   ----------------------------------------
	.byte		N36   , Ds2 , v116
	.byte	W36
	.byte		        En2 
	.byte	W36
	.byte		N24   , Fs2 
	.byte	W24
@ 050   ----------------------------------------
	.byte		N36   
	.byte	W36
	.byte		        Gn2 
	.byte	W36
	.byte		N24   , An2 
	.byte	W24
@ 051   ----------------------------------------
	.byte	W96
@ 052   ----------------------------------------
	.byte	W96
@ 053   ----------------------------------------
	.byte	W96
@ 054   ----------------------------------------
	.byte	W96
@ 055   ----------------------------------------
	.byte	W96
@ 056   ----------------------------------------
	.byte	W96
@ 057   ----------------------------------------
	.byte	W96
@ 058   ----------------------------------------
	.byte	W96
@ 059   ----------------------------------------
	.byte	W96
@ 060   ----------------------------------------
	.byte	W96
@ 061   ----------------------------------------
	.byte	W96
@ 062   ----------------------------------------
	.byte	W96
@ 063   ----------------------------------------
	.byte	W96
@ 064   ----------------------------------------
	.byte	W96
@ 065   ----------------------------------------
	.byte	W96
@ 066   ----------------------------------------
	.byte	W96
@ 067   ----------------------------------------
	.byte	W96
@ 068   ----------------------------------------
	.byte	W96
@ 069   ----------------------------------------
	.byte	W96
@ 070   ----------------------------------------
	.byte	W96
@ 071   ----------------------------------------
	.byte	W96
@ 072   ----------------------------------------
	.byte	W96
@ 073   ----------------------------------------
	.byte	W96
@ 074   ----------------------------------------
	.byte	W96
@ 075   ----------------------------------------
	.byte	W96
	.byte	GOTO
	 .word	RepairedDE_5_B1
RepairedDE_5_B2:
@ 076   ----------------------------------------
	.byte		VOICE , 42
	.byte	FINE

@**************** Track 6 (Midi-Chn.6) ****************@

RepairedDE_6:
	.byte	KEYSH , RepairedDE_key+0
RepairedDE_6_B1:
@ 000   ----------------------------------------
	.byte	W96
@ 001   ----------------------------------------
	.byte	W96
@ 002   ----------------------------------------
	.byte	W96
@ 003   ----------------------------------------
	.byte	W96
@ 004   ----------------------------------------
	.byte	W96
@ 005   ----------------------------------------
	.byte	W96
@ 006   ----------------------------------------
	.byte	W96
@ 007   ----------------------------------------
	.byte	W96
@ 008   ----------------------------------------
	.byte	W96
@ 009   ----------------------------------------
	.byte	W96
@ 010   ----------------------------------------
	.byte	W96
@ 011   ----------------------------------------
	.byte	W96
@ 012   ----------------------------------------
	.byte	W96
@ 013   ----------------------------------------
	.byte	W96
@ 014   ----------------------------------------
	.byte	W96
@ 015   ----------------------------------------
	.byte	W96
@ 016   ----------------------------------------
	.byte	W96
@ 017   ----------------------------------------
	.byte	W96
@ 018   ----------------------------------------
	.byte	W96
@ 019   ----------------------------------------
	.byte	W96
@ 020   ----------------------------------------
	.byte	W96
@ 021   ----------------------------------------
	.byte	W96
@ 022   ----------------------------------------
	.byte	W96
@ 023   ----------------------------------------
	.byte	W96
@ 024   ----------------------------------------
	.byte	W96
@ 025   ----------------------------------------
	.byte	W96
@ 026   ----------------------------------------
	.byte	W96
@ 027   ----------------------------------------
	.byte	W96
@ 028   ----------------------------------------
	.byte	W96
@ 029   ----------------------------------------
	.byte	W96
@ 030   ----------------------------------------
	.byte	W96
@ 031   ----------------------------------------
	.byte	W96
@ 032   ----------------------------------------
	.byte	W96
@ 033   ----------------------------------------
	.byte	W96
@ 034   ----------------------------------------
	.byte	W96
@ 035   ----------------------------------------
	.byte	W96
@ 036   ----------------------------------------
	.byte	W96
@ 037   ----------------------------------------
	.byte	W96
@ 038   ----------------------------------------
	.byte	W96
@ 039   ----------------------------------------
	.byte	W96
@ 040   ----------------------------------------
	.byte	W96
@ 041   ----------------------------------------
	.byte	W96
@ 042   ----------------------------------------
	.byte	W96
@ 043   ----------------------------------------
	.byte	W96
@ 044   ----------------------------------------
	.byte	W96
@ 045   ----------------------------------------
	.byte	W96
@ 046   ----------------------------------------
	.byte	W96
@ 047   ----------------------------------------
	.byte	W96
@ 048   ----------------------------------------
	.byte	W96
@ 049   ----------------------------------------
	.byte	W96
@ 050   ----------------------------------------
	.byte	W96
@ 051   ----------------------------------------
	.byte		VOICE , 46
	.byte		VOL   , 25*RepairedDE_mvl/mxv
	.byte		PAN   , c_v+0
	.byte	W96
@ 052   ----------------------------------------
	.byte	W18
	.byte		N24   , En4 , v088
	.byte	W24
	.byte		        Bn3 
	.byte	W24
	.byte		        En4 
	.byte	W24
	.byte		        Fs4 
	.byte	W06
@ 053   ----------------------------------------
	.byte	W18
	.byte		        Gn4 
	.byte	W24
	.byte		        Bn3 
	.byte	W24
	.byte		        En4 
	.byte	W24
	.byte		        Fs4 
	.byte	W06
@ 054   ----------------------------------------
	.byte	W18
	.byte		        Gn4 
	.byte	W24
	.byte		        An4 
	.byte	W24
	.byte		        Gn4 
	.byte	W24
	.byte		        Fs4 
	.byte	W06
@ 055   ----------------------------------------
	.byte	W18
	.byte		        En4 
	.byte	W24
	.byte		        Dn4 
	.byte	W24
	.byte		        Cn4 
	.byte	W24
	.byte		        Bn3 
	.byte	W06
@ 056   ----------------------------------------
	.byte	W18
	.byte		        Cn5 
	.byte	W24
	.byte		        Bn4 
	.byte	W24
	.byte		        An4 
	.byte	W24
	.byte		        Gn4 
	.byte	W06
@ 057   ----------------------------------------
	.byte	W18
	.byte		        Fs4 
	.byte	W24
	.byte		        En4 
	.byte	W24
	.byte		        Dn4 
	.byte	W24
	.byte		        Cn4 
	.byte	W06
@ 058   ----------------------------------------
	.byte	W18
	.byte		        Bn3 
	.byte	W24
	.byte		        Cn4 
	.byte	W24
	.byte		        Bn3 
	.byte	W24
	.byte		        An3 
	.byte	W06
@ 059   ----------------------------------------
	.byte	W18
	.byte		        Bn3 
	.byte	W24
	.byte		        An3 
	.byte	W24
	.byte		        Gn3 
	.byte	W24
	.byte		        Fs3 
	.byte	W06
@ 060   ----------------------------------------
	.byte	W96
@ 061   ----------------------------------------
	.byte	W96
@ 062   ----------------------------------------
	.byte	W96
@ 063   ----------------------------------------
	.byte	W96
@ 064   ----------------------------------------
	.byte	W96
@ 065   ----------------------------------------
	.byte	W96
@ 066   ----------------------------------------
	.byte	W96
@ 067   ----------------------------------------
	.byte	W96
@ 068   ----------------------------------------
	.byte		VOICE , 68
	.byte	W96
@ 069   ----------------------------------------
	.byte		N36   , En4 , v108
	.byte	W36
	.byte		        Fs4 
	.byte	W36
	.byte		N03   , Gn4 , v116
	.byte	W03
	.byte		        Fs4 
	.byte	W03
	.byte		N18   , Gn4 , v108
	.byte	W18
@ 070   ----------------------------------------
	.byte		N96   , An4 
	.byte	W96
@ 071   ----------------------------------------
	.byte		N36   , Cn5 
	.byte	W36
	.byte		        Bn4 
	.byte	W36
	.byte		N24   , An4 
	.byte	W24
@ 072   ----------------------------------------
	.byte		N36   , Bn4 
	.byte	W36
	.byte		        Gn4 
	.byte	W36
	.byte		N24   , En4 
	.byte	W24
@ 073   ----------------------------------------
	.byte		N36   
	.byte	W36
	.byte		        Gn4 
	.byte	W36
	.byte		N24   , Bn4 
	.byte	W24
@ 074   ----------------------------------------
	.byte		N96   , An4 , v096
	.byte	W96
@ 075   ----------------------------------------
	.byte	W96
	.byte	GOTO
	 .word	RepairedDE_6_B1
RepairedDE_6_B2:
@ 076   ----------------------------------------
	.byte	FINE

@**************** Track 7 (Midi-Chn.7) ****************@

RepairedDE_7:
	.byte	KEYSH , RepairedDE_key+0
RepairedDE_7_B1:
@ 000   ----------------------------------------
	.byte		VOICE , 40
	.byte		PAN   , c_v-8
	.byte		VOL   , 32*RepairedDE_mvl/mxv
	.byte		N12   , En1 , v127
	.byte	W12
	.byte		N12   
	.byte	W24
	.byte		N12   
	.byte	W24
	.byte		N12   
	.byte	W24
	.byte		N12   
	.byte	W12
@ 001   ----------------------------------------
RepairedDE_7_001:
	.byte		N12   , En1 , v127
	.byte	W12
	.byte		N12   
	.byte	W24
	.byte		N12   
	.byte	W24
	.byte		N12   
	.byte	W24
	.byte		N12   
	.byte	W12
	.byte	PEND
@ 002   ----------------------------------------
	.byte	PATT
	 .word	RepairedDE_7_001
@ 003   ----------------------------------------
	.byte	PATT
	 .word	RepairedDE_7_001
@ 004   ----------------------------------------
	.byte	PATT
	 .word	RepairedDE_7_001
@ 005   ----------------------------------------
	.byte	PATT
	 .word	RepairedDE_7_001
@ 006   ----------------------------------------
	.byte	PATT
	 .word	RepairedDE_7_001
@ 007   ----------------------------------------
	.byte	PATT
	 .word	RepairedDE_7_001
@ 008   ----------------------------------------
	.byte	PATT
	 .word	RepairedDE_7_001
@ 009   ----------------------------------------
	.byte	PATT
	 .word	RepairedDE_7_001
@ 010   ----------------------------------------
	.byte	PATT
	 .word	RepairedDE_7_001
@ 011   ----------------------------------------
	.byte	PATT
	 .word	RepairedDE_7_001
@ 012   ----------------------------------------
	.byte	PATT
	 .word	RepairedDE_7_001
@ 013   ----------------------------------------
	.byte	PATT
	 .word	RepairedDE_7_001
@ 014   ----------------------------------------
	.byte	PATT
	 .word	RepairedDE_7_001
@ 015   ----------------------------------------
	.byte	PATT
	 .word	RepairedDE_7_001
@ 016   ----------------------------------------
	.byte	PATT
	 .word	RepairedDE_7_001
@ 017   ----------------------------------------
	.byte	PATT
	 .word	RepairedDE_7_001
@ 018   ----------------------------------------
	.byte	PATT
	 .word	RepairedDE_7_001
@ 019   ----------------------------------------
	.byte	PATT
	 .word	RepairedDE_7_001
@ 020   ----------------------------------------
RepairedDE_7_020:
	.byte		N12   , Cn1 , v127
	.byte	W12
	.byte		N12   
	.byte	W24
	.byte		N12   
	.byte	W24
	.byte		N12   
	.byte	W24
	.byte		N12   
	.byte	W12
	.byte	PEND
@ 021   ----------------------------------------
	.byte	PATT
	 .word	RepairedDE_7_020
@ 022   ----------------------------------------
	.byte	PATT
	 .word	RepairedDE_7_020
@ 023   ----------------------------------------
	.byte	PATT
	 .word	RepairedDE_7_020
@ 024   ----------------------------------------
	.byte	PATT
	 .word	RepairedDE_7_001
@ 025   ----------------------------------------
	.byte	PATT
	 .word	RepairedDE_7_001
@ 026   ----------------------------------------
	.byte	PATT
	 .word	RepairedDE_7_001
@ 027   ----------------------------------------
	.byte	PATT
	 .word	RepairedDE_7_001
@ 028   ----------------------------------------
	.byte	PATT
	 .word	RepairedDE_7_001
@ 029   ----------------------------------------
	.byte	PATT
	 .word	RepairedDE_7_001
@ 030   ----------------------------------------
	.byte	PATT
	 .word	RepairedDE_7_001
@ 031   ----------------------------------------
	.byte	PATT
	 .word	RepairedDE_7_001
@ 032   ----------------------------------------
	.byte	PATT
	 .word	RepairedDE_7_001
@ 033   ----------------------------------------
	.byte	PATT
	 .word	RepairedDE_7_001
@ 034   ----------------------------------------
	.byte	PATT
	 .word	RepairedDE_7_001
@ 035   ----------------------------------------
	.byte	PATT
	 .word	RepairedDE_7_001
@ 036   ----------------------------------------
	.byte	PATT
	 .word	RepairedDE_7_020
@ 037   ----------------------------------------
	.byte	PATT
	 .word	RepairedDE_7_020
@ 038   ----------------------------------------
RepairedDE_7_038:
	.byte		N12   , Fn1 , v127
	.byte	W12
	.byte		N12   
	.byte	W24
	.byte		N12   
	.byte	W24
	.byte		N12   
	.byte	W24
	.byte		N12   
	.byte	W12
	.byte	PEND
@ 039   ----------------------------------------
	.byte	PATT
	 .word	RepairedDE_7_038
@ 040   ----------------------------------------
	.byte	PATT
	 .word	RepairedDE_7_001
@ 041   ----------------------------------------
	.byte	PATT
	 .word	RepairedDE_7_001
@ 042   ----------------------------------------
	.byte	PATT
	 .word	RepairedDE_7_001
@ 043   ----------------------------------------
	.byte	PATT
	 .word	RepairedDE_7_001
@ 044   ----------------------------------------
	.byte	PATT
	 .word	RepairedDE_7_020
@ 045   ----------------------------------------
	.byte	PATT
	 .word	RepairedDE_7_020
@ 046   ----------------------------------------
	.byte	PATT
	 .word	RepairedDE_7_001
@ 047   ----------------------------------------
	.byte	PATT
	 .word	RepairedDE_7_001
@ 048   ----------------------------------------
	.byte	PATT
	 .word	RepairedDE_7_020
@ 049   ----------------------------------------
	.byte	PATT
	 .word	RepairedDE_7_020
@ 050   ----------------------------------------
	.byte		N36   , Bn0 , v127
	.byte	W36
	.byte		        Cs1 
	.byte	W36
	.byte		N24   , Ds1 
	.byte	W24
@ 051   ----------------------------------------
	.byte		N36   
	.byte	W36
	.byte		        En1 
	.byte	W36
	.byte		N24   , Fs1 
	.byte	W24
@ 052   ----------------------------------------
RepairedDE_7_052:
	.byte		N12   , En1 , v120
	.byte	W24
	.byte		N12   
	.byte	W72
	.byte	PEND
@ 053   ----------------------------------------
	.byte	PATT
	 .word	RepairedDE_7_052
@ 054   ----------------------------------------
RepairedDE_7_054:
	.byte		N12   , Fs1 , v120
	.byte	W24
	.byte		N12   
	.byte	W72
	.byte	PEND
@ 055   ----------------------------------------
	.byte	PATT
	 .word	RepairedDE_7_054
@ 056   ----------------------------------------
RepairedDE_7_056:
	.byte		N12   , An0 , v120
	.byte	W24
	.byte		N12   
	.byte	W72
	.byte	PEND
@ 057   ----------------------------------------
	.byte	PATT
	 .word	RepairedDE_7_056
@ 058   ----------------------------------------
RepairedDE_7_058:
	.byte		N12   , Bn0 , v120
	.byte	W24
	.byte		N12   
	.byte	W72
	.byte	PEND
@ 059   ----------------------------------------
	.byte	PATT
	 .word	RepairedDE_7_058
@ 060   ----------------------------------------
	.byte	PATT
	 .word	RepairedDE_7_001
@ 061   ----------------------------------------
	.byte	PATT
	 .word	RepairedDE_7_001
@ 062   ----------------------------------------
	.byte	PATT
	 .word	RepairedDE_7_038
@ 063   ----------------------------------------
RepairedDE_7_063:
	.byte		N12   , Dn1 , v127
	.byte	W12
	.byte		N12   
	.byte	W24
	.byte		N12   
	.byte	W24
	.byte		N12   
	.byte	W24
	.byte		N12   
	.byte	W12
	.byte	PEND
@ 064   ----------------------------------------
	.byte	PATT
	 .word	RepairedDE_7_001
@ 065   ----------------------------------------
	.byte	PATT
	 .word	RepairedDE_7_001
@ 066   ----------------------------------------
	.byte	PATT
	 .word	RepairedDE_7_038
@ 067   ----------------------------------------
	.byte	PATT
	 .word	RepairedDE_7_063
@ 068   ----------------------------------------
	.byte	PATT
	 .word	RepairedDE_7_001
@ 069   ----------------------------------------
	.byte	PATT
	 .word	RepairedDE_7_001
@ 070   ----------------------------------------
	.byte	PATT
	 .word	RepairedDE_7_038
@ 071   ----------------------------------------
	.byte	PATT
	 .word	RepairedDE_7_063
@ 072   ----------------------------------------
	.byte	PATT
	 .word	RepairedDE_7_001
@ 073   ----------------------------------------
	.byte	PATT
	 .word	RepairedDE_7_001
@ 074   ----------------------------------------
	.byte	PATT
	 .word	RepairedDE_7_038
@ 075   ----------------------------------------
	.byte	PATT
	 .word	RepairedDE_7_063
	.byte	GOTO
	 .word	RepairedDE_7_B1
RepairedDE_7_B2:
@ 076   ----------------------------------------
	.byte		VOICE , 40
	.byte	FINE

@**************** Track 8 (Midi-Chn.8) ****************@

RepairedDE_8:
	.byte	KEYSH , RepairedDE_key+0
RepairedDE_8_B1:
@ 000   ----------------------------------------
	.byte		VOICE , 52
	.byte		PAN   , c_v-16
	.byte		VOL   , 25*RepairedDE_mvl/mxv
	.byte	W96
@ 001   ----------------------------------------
	.byte	W96
@ 002   ----------------------------------------
	.byte	W96
@ 003   ----------------------------------------
	.byte	W96
@ 004   ----------------------------------------
	.byte	W96
@ 005   ----------------------------------------
	.byte	W96
@ 006   ----------------------------------------
	.byte	W96
@ 007   ----------------------------------------
	.byte	W96
@ 008   ----------------------------------------
	.byte	W96
@ 009   ----------------------------------------
	.byte	W96
@ 010   ----------------------------------------
	.byte	W96
@ 011   ----------------------------------------
	.byte	W96
@ 012   ----------------------------------------
	.byte	W96
@ 013   ----------------------------------------
	.byte	W96
@ 014   ----------------------------------------
	.byte	W96
@ 015   ----------------------------------------
	.byte	W96
@ 016   ----------------------------------------
	.byte	W96
@ 017   ----------------------------------------
	.byte	W96
@ 018   ----------------------------------------
	.byte	W96
@ 019   ----------------------------------------
	.byte	W96
@ 020   ----------------------------------------
	.byte	W96
@ 021   ----------------------------------------
	.byte	W96
@ 022   ----------------------------------------
	.byte	W96
@ 023   ----------------------------------------
	.byte	W96
@ 024   ----------------------------------------
	.byte	W96
@ 025   ----------------------------------------
	.byte	W96
@ 026   ----------------------------------------
	.byte	W96
@ 027   ----------------------------------------
	.byte	W96
@ 028   ----------------------------------------
	.byte	W96
@ 029   ----------------------------------------
	.byte	W96
@ 030   ----------------------------------------
	.byte	W96
@ 031   ----------------------------------------
	.byte	W96
@ 032   ----------------------------------------
	.byte	W96
@ 033   ----------------------------------------
	.byte	W96
@ 034   ----------------------------------------
	.byte	W96
@ 035   ----------------------------------------
	.byte	W96
@ 036   ----------------------------------------
	.byte	W96
@ 037   ----------------------------------------
	.byte	W96
@ 038   ----------------------------------------
	.byte	W96
@ 039   ----------------------------------------
	.byte	W96
@ 040   ----------------------------------------
	.byte	W96
@ 041   ----------------------------------------
	.byte	W96
@ 042   ----------------------------------------
	.byte	W96
@ 043   ----------------------------------------
	.byte	W96
@ 044   ----------------------------------------
	.byte	W96
@ 045   ----------------------------------------
	.byte	W96
@ 046   ----------------------------------------
	.byte	W96
@ 047   ----------------------------------------
	.byte	W96
@ 048   ----------------------------------------
	.byte	W96
@ 049   ----------------------------------------
	.byte	W96
@ 050   ----------------------------------------
	.byte	W96
@ 051   ----------------------------------------
	.byte	W96
@ 052   ----------------------------------------
	.byte		TIE   , En2 , v100
	.byte		TIE   , En4 , v092
	.byte		TIE   , Bn4 , v100
	.byte	W96
@ 053   ----------------------------------------
	.byte	W96
	.byte		EOT   , En2 
	.byte		        Bn4 
@ 054   ----------------------------------------
	.byte		TIE   , Fs2 
	.byte		N96   , Cn5 
	.byte	W96
@ 055   ----------------------------------------
	.byte		        An4 
	.byte	W96
	.byte		EOT   , Fs2 
	.byte		        En4 
@ 056   ----------------------------------------
	.byte		TIE   , An2 
	.byte		TIE   , Fs4 , v092
	.byte		TIE   , An4 , v100
	.byte	W96
@ 057   ----------------------------------------
	.byte	W96
	.byte		EOT   , An2 
	.byte		        Fs4 
	.byte		        An4 
@ 058   ----------------------------------------
	.byte		N96   , Bn2 
	.byte		TIE   , Bn3 , v092
	.byte		N96   , Gn4 , v100
	.byte	W90
	.byte		        Fs4 
	.byte	W06
@ 059   ----------------------------------------
	.byte		        Bn1 
	.byte	W96
	.byte		EOT   , Bn3 
@ 060   ----------------------------------------
	.byte	W96
@ 061   ----------------------------------------
	.byte	W96
@ 062   ----------------------------------------
	.byte	W96
@ 063   ----------------------------------------
	.byte	W96
@ 064   ----------------------------------------
	.byte	W96
@ 065   ----------------------------------------
	.byte	W96
@ 066   ----------------------------------------
	.byte	W96
@ 067   ----------------------------------------
	.byte	W96
@ 068   ----------------------------------------
	.byte	W96
@ 069   ----------------------------------------
	.byte	W96
@ 070   ----------------------------------------
	.byte	W96
@ 071   ----------------------------------------
	.byte	W96
@ 072   ----------------------------------------
	.byte	W96
@ 073   ----------------------------------------
	.byte	W96
@ 074   ----------------------------------------
	.byte	W96
@ 075   ----------------------------------------
	.byte	W96
	.byte	GOTO
	 .word	RepairedDE_8_B1
RepairedDE_8_B2:
@ 076   ----------------------------------------
	.byte		VOICE , 52
	.byte	FINE

@**************** Track 9 (Midi-Chn.9) ****************@

RepairedDE_9:
	.byte	KEYSH , RepairedDE_key+0
RepairedDE_9_B1:
@ 000   ----------------------------------------
	.byte		VOICE , 127
	.byte		VOL   , 27*RepairedDE_mvl/mxv
	.byte		PAN   , c_v+0
	.byte		N12   , Dn1 , v064
	.byte	W12
	.byte		N06   , Dn1 , v088
	.byte	W06
	.byte		        Dn1 , v076
	.byte	W06
	.byte		N12   , Dn1 , v092
	.byte	W12
	.byte		        Dn1 , v088
	.byte	W12
	.byte		N06   , Dn1 , v080
	.byte	W06
	.byte		        Dn1 , v076
	.byte	W06
	.byte		N12   , Dn1 , v092
	.byte	W12
	.byte		N06   , Dn1 , v088
	.byte	W06
	.byte		        Dn1 , v080
	.byte	W06
	.byte		N12   , Dn1 , v076
	.byte	W12
@ 001   ----------------------------------------
RepairedDE_9_001:
	.byte		N12   , Dn1 , v092
	.byte	W12
	.byte		N06   , Dn1 , v088
	.byte	W06
	.byte		        Dn1 , v076
	.byte	W06
	.byte		N12   , Dn1 , v092
	.byte	W12
	.byte		        Dn1 , v088
	.byte	W12
	.byte		N06   , Dn1 , v080
	.byte	W06
	.byte		        Dn1 , v076
	.byte	W06
	.byte		N12   , Dn1 , v092
	.byte	W12
	.byte		N06   , Dn1 , v088
	.byte	W06
	.byte		        Dn1 , v080
	.byte	W06
	.byte		        Dn1 , v076
	.byte	W06
	.byte		        Dn1 , v092
	.byte	W06
	.byte	PEND
@ 002   ----------------------------------------
	.byte		N12   , Dn1 , v076
	.byte	W12
	.byte		N06   , Dn1 , v088
	.byte	W06
	.byte		        Dn1 , v076
	.byte	W06
	.byte		N12   , Dn1 , v092
	.byte	W12
	.byte		        Dn1 , v088
	.byte	W12
	.byte		N06   , Dn1 , v080
	.byte	W06
	.byte		        Dn1 , v076
	.byte	W06
	.byte		N12   , Dn1 , v092
	.byte	W12
	.byte		N06   , Dn1 , v088
	.byte	W06
	.byte		        Dn1 , v080
	.byte	W06
	.byte		N12   , Dn1 , v076
	.byte	W12
@ 003   ----------------------------------------
	.byte	PATT
	 .word	RepairedDE_9_001
@ 004   ----------------------------------------
RepairedDE_9_004:
	.byte		N12   , Dn1 , v096
	.byte	W12
	.byte		N06   
	.byte	W06
	.byte		N06   
	.byte	W06
	.byte		N12   , Dn1 , v092
	.byte	W12
	.byte		        Dn1 , v080
	.byte	W12
	.byte		N06   , Dn1 , v088
	.byte	W06
	.byte		        Dn1 , v080
	.byte	W06
	.byte		N12   , Dn1 , v096
	.byte	W12
	.byte		N06   , Dn1 , v092
	.byte	W06
	.byte		        Dn1 , v088
	.byte	W06
	.byte		N12   , Dn1 , v080
	.byte	W12
	.byte	PEND
@ 005   ----------------------------------------
RepairedDE_9_005:
	.byte		N12   , Dn1 , v076
	.byte	W12
	.byte		N06   , Dn1 , v092
	.byte	W06
	.byte		        Dn1 , v088
	.byte	W06
	.byte		N12   , Dn1 , v076
	.byte	W12
	.byte		        Dn1 , v092
	.byte	W12
	.byte		N06   , Dn1 , v088
	.byte	W06
	.byte		        Dn1 , v080
	.byte	W06
	.byte		N12   , Dn1 , v076
	.byte	W12
	.byte		N06   , Dn1 , v092
	.byte	W06
	.byte		        Dn1 , v088
	.byte	W06
	.byte		        Dn1 , v080
	.byte	W06
	.byte		        Dn1 , v076
	.byte	W06
	.byte	PEND
@ 006   ----------------------------------------
RepairedDE_9_006:
	.byte		N12   , Dn1 , v092
	.byte	W12
	.byte		N06   , Dn1 , v076
	.byte	W06
	.byte		        Dn1 , v088
	.byte	W06
	.byte		N12   , Dn1 , v076
	.byte	W12
	.byte		        Dn1 , v092
	.byte	W12
	.byte		N06   , Dn1 , v088
	.byte	W06
	.byte		        Dn1 , v080
	.byte	W06
	.byte		N12   , Dn1 , v076
	.byte	W12
	.byte		N06   , Dn1 , v092
	.byte	W06
	.byte		        Dn1 , v088
	.byte	W06
	.byte		N12   , Dn1 , v080
	.byte	W12
	.byte	PEND
@ 007   ----------------------------------------
	.byte	PATT
	 .word	RepairedDE_9_005
@ 008   ----------------------------------------
	.byte	PATT
	 .word	RepairedDE_9_006
@ 009   ----------------------------------------
	.byte	PATT
	 .word	RepairedDE_9_005
@ 010   ----------------------------------------
	.byte		N12   , Dn1 , v092
	.byte		N96   , Gn2 , v100
	.byte	W12
	.byte		N06   , Dn1 , v076
	.byte	W06
	.byte		        Dn1 , v088
	.byte	W06
	.byte		N12   , Dn1 , v076
	.byte	W12
	.byte		        Dn1 , v092
	.byte	W12
	.byte		N06   , Dn1 , v088
	.byte	W06
	.byte		        Dn1 , v080
	.byte	W06
	.byte		N12   , Dn1 , v076
	.byte	W12
	.byte		N06   , Dn1 , v092
	.byte	W06
	.byte		        Dn1 , v088
	.byte	W06
	.byte		N12   , Dn1 , v080
	.byte	W12
@ 011   ----------------------------------------
	.byte		        Dn1 , v076
	.byte		N96   , An2 , v127
	.byte	W12
	.byte		N06   , Dn1 , v092
	.byte	W06
	.byte		        Dn1 , v088
	.byte	W06
	.byte		N12   , Dn1 , v076
	.byte	W12
	.byte		        Dn1 , v092
	.byte	W12
	.byte		N06   , Dn1 , v088
	.byte	W06
	.byte		        Dn1 , v080
	.byte	W06
	.byte		        Dn1 , v076
	.byte	W06
	.byte		        Dn1 , v092
	.byte	W06
	.byte		        Dn1 , v088
	.byte	W06
	.byte		        Dn1 , v080
	.byte	W06
	.byte		        Dn1 , v076
	.byte	W06
	.byte		        Dn1 , v092
	.byte	W06
@ 012   ----------------------------------------
	.byte		N12   , Dn1 , v096
	.byte		N96   , Cs2 , v127
	.byte	W12
	.byte		N06   , Dn1 , v096
	.byte	W06
	.byte		N06   
	.byte	W06
	.byte		N12   , Dn1 , v092
	.byte	W12
	.byte		        Dn1 , v080
	.byte	W12
	.byte		N06   , Dn1 , v088
	.byte	W06
	.byte		        Dn1 , v080
	.byte	W06
	.byte		N12   , Dn1 , v096
	.byte	W12
	.byte		N06   , Dn1 , v092
	.byte	W06
	.byte		        Dn1 , v088
	.byte	W06
	.byte		N12   , Dn1 , v080
	.byte	W12
@ 013   ----------------------------------------
	.byte	PATT
	 .word	RepairedDE_9_005
@ 014   ----------------------------------------
	.byte	PATT
	 .word	RepairedDE_9_006
@ 015   ----------------------------------------
	.byte	PATT
	 .word	RepairedDE_9_005
@ 016   ----------------------------------------
	.byte	PATT
	 .word	RepairedDE_9_006
@ 017   ----------------------------------------
	.byte	PATT
	 .word	RepairedDE_9_005
@ 018   ----------------------------------------
	.byte	PATT
	 .word	RepairedDE_9_006
@ 019   ----------------------------------------
	.byte	PATT
	 .word	RepairedDE_9_005
@ 020   ----------------------------------------
	.byte		N12   , Dn1 , v092
	.byte	W12
	.byte		N06   
	.byte	W06
	.byte		        Dn1 , v080
	.byte	W06
	.byte		N12   , Dn1 , v072
	.byte	W12
	.byte		        Dn1 , v076
	.byte	W12
	.byte		N06   , Dn1 , v080
	.byte	W06
	.byte		        Dn1 , v072
	.byte	W06
	.byte		N12   , Dn1 , v068
	.byte	W12
	.byte		N06   , Dn1 , v060
	.byte	W06
	.byte		        Dn1 , v052
	.byte	W06
	.byte		N12   
	.byte	W12
@ 021   ----------------------------------------
	.byte		        Dn1 , v072
	.byte	W12
	.byte		N06   
	.byte	W06
	.byte		        Dn1 , v068
	.byte	W06
	.byte		N12   , Dn1 , v060
	.byte	W12
	.byte		        Dn1 , v072
	.byte	W12
	.byte		N06   , Dn1 , v068
	.byte	W06
	.byte		        Dn1 , v060
	.byte	W06
	.byte		N12   , Dn1 , v068
	.byte	W12
	.byte		N06   , Dn1 , v072
	.byte	W06
	.byte		N06   
	.byte	W06
	.byte		        Dn1 , v068
	.byte	W06
	.byte		        Dn1 , v072
	.byte	W06
@ 022   ----------------------------------------
	.byte		N12   , Dn1 , v068
	.byte		TIE   , An2 , v127
	.byte	W12
	.byte		N06   , Dn1 , v060
	.byte	W06
	.byte		        Dn1 , v052
	.byte	W06
	.byte		N12   
	.byte	W12
	.byte		        Dn1 , v072
	.byte	W12
	.byte		N06   
	.byte	W06
	.byte		        Dn1 , v068
	.byte	W06
	.byte		N12   , Dn1 , v060
	.byte	W12
	.byte		N06   , Dn1 , v072
	.byte	W06
	.byte		        Dn1 , v068
	.byte	W06
	.byte		N12   , Dn1 , v060
	.byte	W12
@ 023   ----------------------------------------
	.byte		        Dn1 , v068
	.byte	W12
	.byte		N06   , Dn1 , v072
	.byte	W06
	.byte		N06   
	.byte	W06
	.byte		N12   , Dn1 , v068
	.byte	W12
	.byte		        Dn1 , v072
	.byte	W12
	.byte		N06   , Dn1 , v068
	.byte	W06
	.byte		        Dn1 , v060
	.byte	W06
	.byte		        Dn1 , v052
	.byte	W06
	.byte		N06   
	.byte	W06
	.byte		        Dn1 , v072
	.byte	W06
	.byte		N06   
	.byte	W06
	.byte		        Dn1 , v068
	.byte	W06
	.byte		        Dn1 , v060
	.byte	W06
	.byte		EOT   , An2 
@ 024   ----------------------------------------
	.byte		N12   , Dn1 , v072
	.byte		N96   , Cs2 , v127
	.byte	W12
	.byte		N06   , Dn1 , v068
	.byte	W06
	.byte		        Dn1 , v060
	.byte	W06
	.byte		N12   , Dn1 , v068
	.byte	W12
	.byte		        Dn1 , v072
	.byte	W12
	.byte		N06   
	.byte	W06
	.byte		        Dn1 , v068
	.byte	W06
	.byte		N12   , Dn1 , v072
	.byte	W12
	.byte		N06   , Dn1 , v068
	.byte	W06
	.byte		        Dn1 , v060
	.byte	W06
	.byte		N12   , Dn1 , v052
	.byte	W12
@ 025   ----------------------------------------
	.byte		N12   
	.byte	W12
	.byte		N06   , Dn1 , v072
	.byte	W06
	.byte		N06   
	.byte	W06
	.byte		N12   , Dn1 , v068
	.byte	W12
	.byte		        Dn1 , v060
	.byte	W12
	.byte		N06   , Dn1 , v072
	.byte	W06
	.byte		        Dn1 , v068
	.byte	W06
	.byte		N12   , Dn1 , v060
	.byte	W12
	.byte		N06   , Dn1 , v068
	.byte	W06
	.byte		        Dn1 , v072
	.byte	W06
	.byte		        Dn1 , v096
	.byte	W06
	.byte		N06   
	.byte	W06
@ 026   ----------------------------------------
RepairedDE_9_026:
	.byte		N12   , Dn1 , v096
	.byte	W12
	.byte		N06   , Dn1 , v092
	.byte	W06
	.byte		        Dn1 , v080
	.byte	W06
	.byte		N12   , Dn1 , v088
	.byte	W12
	.byte		        Dn1 , v080
	.byte	W12
	.byte		N06   , Dn1 , v096
	.byte	W06
	.byte		        Dn1 , v092
	.byte	W06
	.byte		N12   , Dn1 , v088
	.byte	W12
	.byte		N06   , Dn1 , v080
	.byte	W06
	.byte		        Dn1 , v076
	.byte	W06
	.byte		N12   , Dn1 , v092
	.byte	W12
	.byte	PEND
@ 027   ----------------------------------------
RepairedDE_9_027:
	.byte		N12   , Dn1 , v088
	.byte	W12
	.byte		N06   , Dn1 , v076
	.byte	W06
	.byte		        Dn1 , v092
	.byte	W06
	.byte		N12   , Dn1 , v088
	.byte	W12
	.byte		        Dn1 , v080
	.byte	W12
	.byte		N06   , Dn1 , v076
	.byte	W06
	.byte		        Dn1 , v092
	.byte	W06
	.byte		        Dn1 , v088
	.byte	W06
	.byte		        Dn1 , v080
	.byte	W06
	.byte		        Dn1 , v076
	.byte	W06
	.byte		        Dn1 , v092
	.byte	W06
	.byte		        Dn1 , v076
	.byte	W06
	.byte		        Dn1 , v088
	.byte	W06
	.byte	PEND
@ 028   ----------------------------------------
RepairedDE_9_028:
	.byte		N12   , Dn1 , v076
	.byte		N96   , Cs2 , v127
	.byte	W12
	.byte		N06   , Dn1 , v092
	.byte	W06
	.byte		        Dn1 , v088
	.byte	W06
	.byte		N12   , Dn1 , v080
	.byte	W12
	.byte		        Dn1 , v076
	.byte	W12
	.byte		N06   , Dn1 , v092
	.byte	W06
	.byte		        Dn1 , v088
	.byte	W06
	.byte		N12   , Dn1 , v080
	.byte	W12
	.byte		N06   , Dn1 , v076
	.byte	W06
	.byte		        Dn1 , v092
	.byte	W06
	.byte		N12   , Dn1 , v088
	.byte	W12
	.byte	PEND
@ 029   ----------------------------------------
RepairedDE_9_029:
	.byte		N12   , Dn1 , v076
	.byte	W12
	.byte		N06   , Dn1 , v092
	.byte	W06
	.byte		        Dn1 , v088
	.byte	W06
	.byte		N12   , Dn1 , v080
	.byte	W12
	.byte		        Dn1 , v076
	.byte	W12
	.byte		N06   , Dn1 , v092
	.byte	W06
	.byte		        Dn1 , v088
	.byte	W06
	.byte		N12   , Dn1 , v080
	.byte	W12
	.byte		N06   , Dn1 , v076
	.byte	W06
	.byte		        Dn1 , v092
	.byte	W06
	.byte		        Dn1 , v076
	.byte	W06
	.byte		        Dn1 , v088
	.byte	W06
	.byte	PEND
@ 030   ----------------------------------------
RepairedDE_9_030:
	.byte		N12   , Dn1 , v076
	.byte	W12
	.byte		N06   , Dn1 , v092
	.byte	W06
	.byte		        Dn1 , v088
	.byte	W06
	.byte		N12   , Dn1 , v080
	.byte	W12
	.byte		        Dn1 , v076
	.byte	W12
	.byte		N06   , Dn1 , v092
	.byte	W06
	.byte		        Dn1 , v088
	.byte	W06
	.byte		N12   , Dn1 , v080
	.byte	W12
	.byte		N06   , Dn1 , v076
	.byte	W06
	.byte		        Dn1 , v092
	.byte	W06
	.byte		N12   , Dn1 , v088
	.byte	W12
	.byte	PEND
@ 031   ----------------------------------------
	.byte	PATT
	 .word	RepairedDE_9_029
@ 032   ----------------------------------------
	.byte	PATT
	 .word	RepairedDE_9_030
@ 033   ----------------------------------------
	.byte		N12   , Dn1 , v076
	.byte	W12
	.byte		N06   , Dn1 , v092
	.byte	W06
	.byte		        Dn1 , v088
	.byte	W06
	.byte		N12   , Dn1 , v080
	.byte	W12
	.byte		        Dn1 , v076
	.byte	W12
	.byte		N06   , Dn1 , v092
	.byte	W06
	.byte		        Dn1 , v088
	.byte	W06
	.byte		N12   , Dn1 , v080
	.byte	W12
	.byte		N06   , Dn1 , v076
	.byte	W06
	.byte		        Dn1 , v096
	.byte	W06
	.byte		N06   
	.byte	W06
	.byte		N06   
	.byte	W06
@ 034   ----------------------------------------
	.byte	PATT
	 .word	RepairedDE_9_026
@ 035   ----------------------------------------
RepairedDE_9_035:
	.byte		N12   , Dn1 , v088
	.byte	W12
	.byte		N06   , Dn1 , v076
	.byte	W06
	.byte		        Dn1 , v092
	.byte	W06
	.byte		N12   , Dn1 , v088
	.byte	W12
	.byte		        Dn1 , v080
	.byte	W12
	.byte		N06   , Dn1 , v076
	.byte	W06
	.byte		        Dn1 , v092
	.byte	W06
	.byte		N12   , Dn1 , v088
	.byte	W12
	.byte		N06   , Dn1 , v080
	.byte	W06
	.byte		        Dn1 , v076
	.byte	W06
	.byte		        Dn1 , v092
	.byte	W06
	.byte		        Dn1 , v076
	.byte	W06
	.byte	PEND
@ 036   ----------------------------------------
	.byte		N12   , Dn1 , v088
	.byte	W12
	.byte		N06   , Dn1 , v076
	.byte	W06
	.byte		        Dn1 , v092
	.byte	W06
	.byte		N12   , Dn1 , v088
	.byte	W12
	.byte		        Dn1 , v080
	.byte	W12
	.byte		N06   , Dn1 , v076
	.byte	W06
	.byte		        Dn1 , v092
	.byte	W06
	.byte		N12   , Dn1 , v088
	.byte	W12
	.byte		N06   , Dn1 , v080
	.byte	W06
	.byte		        Dn1 , v076
	.byte	W06
	.byte		N12   , Dn1 , v092
	.byte	W12
@ 037   ----------------------------------------
	.byte	PATT
	 .word	RepairedDE_9_035
@ 038   ----------------------------------------
RepairedDE_9_038:
	.byte		N12   , Dn1 , v088
	.byte		TIE   , An2 , v127
	.byte	W12
	.byte		N06   , Dn1 , v076
	.byte	W06
	.byte		        Dn1 , v092
	.byte	W06
	.byte		N12   , Dn1 , v088
	.byte	W12
	.byte		        Dn1 , v080
	.byte	W12
	.byte		N06   , Dn1 , v076
	.byte	W06
	.byte		        Dn1 , v092
	.byte	W06
	.byte		N12   , Dn1 , v088
	.byte	W12
	.byte		N06   , Dn1 , v080
	.byte	W06
	.byte		        Dn1 , v076
	.byte	W06
	.byte		N12   , Dn1 , v092
	.byte	W12
	.byte	PEND
@ 039   ----------------------------------------
	.byte	PATT
	 .word	RepairedDE_9_035
	.byte		EOT   , An2 
@ 040   ----------------------------------------
	.byte		N12   , Dn1 , v088
	.byte		N96   , Cs2 , v127
	.byte	W12
	.byte		N06   , Dn1 , v076
	.byte	W06
	.byte		        Dn1 , v092
	.byte	W06
	.byte		N12   , Dn1 , v088
	.byte	W12
	.byte		        Dn1 , v080
	.byte	W12
	.byte		N06   , Dn1 , v076
	.byte	W06
	.byte		        Dn1 , v092
	.byte	W06
	.byte		N12   , Dn1 , v088
	.byte	W12
	.byte		N06   , Dn1 , v080
	.byte	W06
	.byte		        Dn1 , v076
	.byte	W06
	.byte		N12   , Dn1 , v092
	.byte	W12
@ 041   ----------------------------------------
	.byte	PATT
	 .word	RepairedDE_9_035
@ 042   ----------------------------------------
	.byte	PATT
	 .word	RepairedDE_9_038
@ 043   ----------------------------------------
	.byte	PATT
	 .word	RepairedDE_9_027
	.byte		EOT   , An2 
@ 044   ----------------------------------------
	.byte	PATT
	 .word	RepairedDE_9_028
@ 045   ----------------------------------------
	.byte	PATT
	 .word	RepairedDE_9_029
@ 046   ----------------------------------------
	.byte	PATT
	 .word	RepairedDE_9_030
@ 047   ----------------------------------------
	.byte	PATT
	 .word	RepairedDE_9_029
@ 048   ----------------------------------------
	.byte	PATT
	 .word	RepairedDE_9_030
@ 049   ----------------------------------------
	.byte		N12   , Dn1 , v076
	.byte	W12
	.byte		N06   , Dn1 , v092
	.byte	W06
	.byte		        Dn1 , v088
	.byte	W06
	.byte		N12   , Dn1 , v080
	.byte	W12
	.byte		        Dn1 , v076
	.byte	W12
	.byte		N06   , Dn1 , v092
	.byte	W06
	.byte		        Dn1 , v088
	.byte	W06
	.byte		N12   , Dn1 , v080
	.byte	W12
	.byte		N06   , Dn1 , v076
	.byte	W06
	.byte		        Dn1 , v092
	.byte	W06
	.byte		        Dn1 , v096
	.byte	W06
	.byte		N06   
	.byte	W06
@ 050   ----------------------------------------
	.byte		N12   
	.byte		TIE   , An2 , v127
	.byte	W12
	.byte		N06   , Dn1 , v092
	.byte	W06
	.byte		        Dn1 , v080
	.byte	W06
	.byte		N12   , Dn1 , v088
	.byte	W12
	.byte		        Dn1 , v080
	.byte	W12
	.byte		N06   , Dn1 , v096
	.byte	W06
	.byte		        Dn1 , v092
	.byte	W06
	.byte		N12   , Dn1 , v088
	.byte	W12
	.byte		N06   , Dn1 , v080
	.byte	W06
	.byte		        Dn1 , v076
	.byte	W06
	.byte		N12   , Dn1 , v092
	.byte	W12
@ 051   ----------------------------------------
	.byte	PATT
	 .word	RepairedDE_9_027
	.byte		EOT   , An2 
@ 052   ----------------------------------------
	.byte		N01   , Dn1 , v076
	.byte		N24   , Ds1 , v127
	.byte		N96   , Cs2 
	.byte	W01
	.byte		N11   , Dn1 , v092
	.byte	W23
	.byte		N12   , Dn1 , v088
	.byte		N24   , Ds1 , v112
	.byte	W12
	.byte		N12   , Dn1 , v080
	.byte	W12
	.byte		        Dn1 , v076
	.byte	W12
	.byte		        Dn1 , v092
	.byte	W12
	.byte		        Dn1 , v088
	.byte	W12
	.byte		        Dn1 , v080
	.byte	W12
@ 053   ----------------------------------------
	.byte		        Dn1 , v076
	.byte	W12
	.byte		N01   , Dn1 , v092
	.byte	W01
	.byte		N11   , Dn1 , v088
	.byte	W11
	.byte		N12   , Dn1 , v076
	.byte	W12
	.byte		        Dn1 , v092
	.byte	W12
	.byte		        Dn1 , v088
	.byte	W24
	.byte		        Dn1 , v080
	.byte	W12
	.byte		        Dn1 , v076
	.byte	W12
@ 054   ----------------------------------------
	.byte		N01   , Dn1 , v092
	.byte		N24   , Ds1 , v127
	.byte	W01
	.byte		N11   , Dn1 , v088
	.byte	W23
	.byte		N12   , Dn1 , v080
	.byte		N24   , Ds1 , v112
	.byte	W12
	.byte		N12   , Dn1 , v076
	.byte	W12
	.byte		        Dn1 , v092
	.byte	W12
	.byte		        Dn1 , v096
	.byte	W12
	.byte		N12   
	.byte	W12
	.byte		N12   
	.byte	W12
@ 055   ----------------------------------------
	.byte		        Dn1 , v092
	.byte	W12
	.byte		N01   , Dn1 , v080
	.byte	W01
	.byte		N11   , Dn1 , v088
	.byte	W11
	.byte		N12   , Dn1 , v080
	.byte	W12
	.byte		        Dn1 , v096
	.byte	W12
	.byte		        Dn1 , v092
	.byte	W24
	.byte		        Dn1 , v088
	.byte	W12
	.byte		        Dn1 , v080
	.byte	W12
@ 056   ----------------------------------------
	.byte		N01   , Dn1 , v076
	.byte		N24   , Ds1 , v127
	.byte	W01
	.byte		N11   , Dn1 , v092
	.byte	W23
	.byte		N12   , Dn1 , v088
	.byte		N24   , Ds1 , v112
	.byte	W12
	.byte		N12   , Dn1 , v076
	.byte	W12
	.byte		        Dn1 , v092
	.byte	W12
	.byte		        Dn1 , v088
	.byte	W12
	.byte		        Dn1 , v080
	.byte	W12
	.byte		        Dn1 , v076
	.byte	W12
@ 057   ----------------------------------------
	.byte		        Dn1 , v092
	.byte	W12
	.byte		N01   , Dn1 , v088
	.byte	W01
	.byte		N11   , Dn1 , v080
	.byte	W11
	.byte		N12   , Dn1 , v076
	.byte	W12
	.byte		        Dn1 , v092
	.byte	W12
	.byte		        Dn1 , v076
	.byte	W24
	.byte		        Dn1 , v088
	.byte	W12
	.byte		        Dn1 , v076
	.byte	W12
@ 058   ----------------------------------------
	.byte		N01   , Dn1 , v092
	.byte		N24   , Ds1 , v127
	.byte		TIE   , An2 
	.byte	W01
	.byte		N11   , Dn1 , v088
	.byte	W23
	.byte		N12   , Dn1 , v080
	.byte		N24   , Ds1 , v112
	.byte	W12
	.byte		N12   , Dn1 , v076
	.byte	W12
	.byte		        Dn1 , v092
	.byte	W12
	.byte		        Dn1 , v088
	.byte	W12
	.byte		        Dn1 , v080
	.byte	W12
	.byte		        Dn1 , v076
	.byte	W12
@ 059   ----------------------------------------
	.byte		        Dn1 , v092
	.byte		N24   , Ds1 , v127
	.byte	W12
	.byte		N01   , Dn1 , v088
	.byte	W01
	.byte		N11   , Dn1 , v076
	.byte	W11
	.byte		N12   , Dn1 , v092
	.byte		N24   , Ds1 , v120
	.byte	W12
	.byte		N12   , Dn1 , v088
	.byte	W12
	.byte		        Dn1 , v080
	.byte	W24
	.byte		N06   , Dn1 , v076
	.byte	W06
	.byte		N03   , Dn1 , v092
	.byte	W03
	.byte		        Dn1 , v088
	.byte	W03
	.byte		N06   , Dn1 , v080
	.byte	W06
	.byte		        Dn1 , v076
	.byte	W06
	.byte		EOT   , An2 
@ 060   ----------------------------------------
	.byte		N12   , Dn1 , v092
	.byte		N24   , Ds1 , v127
	.byte		N96   , Cs2 
	.byte	W12
	.byte		N06   , Dn1 , v076
	.byte	W06
	.byte		        Dn1 , v088
	.byte	W06
	.byte		N12   , Dn1 , v076
	.byte	W12
	.byte		        Dn1 , v092
	.byte	W12
	.byte		N06   , Dn1 , v088
	.byte	W06
	.byte		        Dn1 , v080
	.byte	W06
	.byte		N12   , Dn1 , v076
	.byte	W12
	.byte		N06   , Dn1 , v092
	.byte	W06
	.byte		        Dn1 , v088
	.byte	W06
	.byte		N12   , Dn1 , v080
	.byte	W12
@ 061   ----------------------------------------
	.byte	PATT
	 .word	RepairedDE_9_005
@ 062   ----------------------------------------
	.byte	PATT
	 .word	RepairedDE_9_006
@ 063   ----------------------------------------
	.byte	PATT
	 .word	RepairedDE_9_005
@ 064   ----------------------------------------
	.byte	PATT
	 .word	RepairedDE_9_006
@ 065   ----------------------------------------
	.byte	PATT
	 .word	RepairedDE_9_005
@ 066   ----------------------------------------
	.byte	PATT
	 .word	RepairedDE_9_006
@ 067   ----------------------------------------
	.byte		N12   , Dn1 , v076
	.byte	W12
	.byte		N06   , Dn1 , v092
	.byte	W06
	.byte		        Dn1 , v088
	.byte	W06
	.byte		N12   , Dn1 , v076
	.byte	W12
	.byte		        Dn1 , v092
	.byte	W12
	.byte		N06   , Dn1 , v088
	.byte	W06
	.byte		        Dn1 , v080
	.byte	W06
	.byte		        Dn1 , v076
	.byte	W06
	.byte		        Dn1 , v092
	.byte	W06
	.byte		        Dn1 , v088
	.byte	W06
	.byte		        Dn1 , v080
	.byte	W06
	.byte		        Dn1 , v076
	.byte	W06
	.byte		        Dn1 , v096
	.byte	W06
@ 068   ----------------------------------------
	.byte	PATT
	 .word	RepairedDE_9_004
@ 069   ----------------------------------------
	.byte	PATT
	 .word	RepairedDE_9_005
@ 070   ----------------------------------------
	.byte	PATT
	 .word	RepairedDE_9_006
@ 071   ----------------------------------------
	.byte	PATT
	 .word	RepairedDE_9_005
@ 072   ----------------------------------------
	.byte	PATT
	 .word	RepairedDE_9_006
@ 073   ----------------------------------------
	.byte	PATT
	 .word	RepairedDE_9_005
@ 074   ----------------------------------------
	.byte		N12   , Dn1 , v092
	.byte		TIE   , An2 , v127
	.byte	W12
	.byte		N06   , Dn1 , v076
	.byte	W06
	.byte		        Dn1 , v088
	.byte	W06
	.byte		N12   , Dn1 , v076
	.byte	W12
	.byte		        Dn1 , v092
	.byte	W12
	.byte		N06   , Dn1 , v088
	.byte	W06
	.byte		        Dn1 , v080
	.byte	W06
	.byte		N12   , Dn1 , v076
	.byte	W12
	.byte		N06   , Dn1 , v092
	.byte	W06
	.byte		        Dn1 , v088
	.byte	W06
	.byte		N12   , Dn1 , v080
	.byte	W12
@ 075   ----------------------------------------
	.byte		        Dn1 , v076
	.byte	W12
	.byte		N06   , Dn1 , v092
	.byte	W06
	.byte		        Dn1 , v088
	.byte	W06
	.byte		N12   , Dn1 , v076
	.byte	W12
	.byte		        Dn1 , v092
	.byte	W12
	.byte		N06   , Dn1 , v088
	.byte	W06
	.byte		        Dn1 , v080
	.byte	W06
	.byte		        Dn1 , v076
	.byte	W06
	.byte		        Dn1 , v092
	.byte	W06
	.byte		        Dn1 , v088
	.byte	W06
	.byte		        Dn1 , v080
	.byte	W06
	.byte		        Dn1 , v076
	.byte	W06
	.byte		        Dn1 , v092
	.byte	W06
	.byte		EOT   , An2 
	.byte	GOTO
	 .word	RepairedDE_9_B1
RepairedDE_9_B2:
@ 076   ----------------------------------------
	.byte		VOICE , 127
	.byte	FINE

@**************** Track 10 (Midi-Chn.11) ****************@

RepairedDE_10:
	.byte	KEYSH , RepairedDE_key+0
RepairedDE_10_B1:
@ 000   ----------------------------------------
	.byte		VOICE , 61
	.byte		PAN   , c_v+12
	.byte		VOL   , 27*RepairedDE_mvl/mxv
	.byte	W96
@ 001   ----------------------------------------
	.byte	W96
@ 002   ----------------------------------------
	.byte	W96
@ 003   ----------------------------------------
	.byte	W96
@ 004   ----------------------------------------
	.byte	W96
@ 005   ----------------------------------------
	.byte	W96
@ 006   ----------------------------------------
	.byte	W96
@ 007   ----------------------------------------
	.byte	W96
@ 008   ----------------------------------------
	.byte	W96
@ 009   ----------------------------------------
	.byte	W96
@ 010   ----------------------------------------
	.byte	W96
@ 011   ----------------------------------------
	.byte	W96
@ 012   ----------------------------------------
	.byte	W96
@ 013   ----------------------------------------
	.byte	W96
@ 014   ----------------------------------------
	.byte	W96
@ 015   ----------------------------------------
	.byte	W96
@ 016   ----------------------------------------
	.byte	W96
@ 017   ----------------------------------------
	.byte	W96
@ 018   ----------------------------------------
	.byte	W96
@ 019   ----------------------------------------
	.byte	W96
@ 020   ----------------------------------------
	.byte	W96
@ 021   ----------------------------------------
	.byte	W96
@ 022   ----------------------------------------
	.byte	W96
@ 023   ----------------------------------------
	.byte	W96
@ 024   ----------------------------------------
	.byte	W96
@ 025   ----------------------------------------
	.byte	W96
@ 026   ----------------------------------------
	.byte	W96
@ 027   ----------------------------------------
	.byte	W96
@ 028   ----------------------------------------
	.byte	W96
@ 029   ----------------------------------------
	.byte	W96
@ 030   ----------------------------------------
	.byte	W96
@ 031   ----------------------------------------
	.byte	W96
@ 032   ----------------------------------------
	.byte	W96
@ 033   ----------------------------------------
	.byte	W96
@ 034   ----------------------------------------
	.byte	W96
@ 035   ----------------------------------------
	.byte	W96
@ 036   ----------------------------------------
	.byte	W96
@ 037   ----------------------------------------
	.byte	W96
@ 038   ----------------------------------------
	.byte	W96
@ 039   ----------------------------------------
	.byte	W96
@ 040   ----------------------------------------
	.byte	W96
@ 041   ----------------------------------------
	.byte	W96
@ 042   ----------------------------------------
	.byte	W96
@ 043   ----------------------------------------
	.byte	W96
@ 044   ----------------------------------------
RepairedDE_10_044:
	.byte		N08   , Cn4 , v100
	.byte		N08   , En4 , v120
	.byte	W18
	.byte		        Cn4 , v108
	.byte		N08   , En4 , v120
	.byte	W18
	.byte		N06   , Cn4 , v100
	.byte		N06   , En4 , v120
	.byte	W06
	.byte		        Dn4 , v096
	.byte		N06   , Fs4 , v116
	.byte	W06
	.byte		N60   , En4 , v096
	.byte		N60   , Gn4 , v116
	.byte	W48
	.byte	PEND
@ 045   ----------------------------------------
	.byte	W16
	.byte		N16   , Fs4 , v096
	.byte		N16   , An4 , v116
	.byte	W16
	.byte		        En4 , v096
	.byte		N16   , Gn4 , v116
	.byte	W16
	.byte		        Dn4 , v096
	.byte		N16   , Fs4 , v116
	.byte	W16
	.byte		        Cn4 , v096
	.byte		N16   , En4 , v116
	.byte	W16
	.byte		        Bn3 , v096
	.byte		N16   , Dn4 , v116
	.byte	W16
@ 046   ----------------------------------------
	.byte		N36   , Fs3 , v096
	.byte		N36   , Bn3 , v116
	.byte	W36
	.byte		TIE   , Gn3 , v096
	.byte		TIE   , En4 , v116
	.byte	W60
@ 047   ----------------------------------------
	.byte	W84
	.byte		EOT   , Gn3 
	.byte		        En4 
	.byte	W12
@ 048   ----------------------------------------
	.byte	PATT
	 .word	RepairedDE_10_044
@ 049   ----------------------------------------
	.byte	W16
	.byte		N16   , Fs4 , v096
	.byte		N16   , An4 , v116
	.byte	W16
	.byte		        En4 , v096
	.byte		N16   , Gn4 , v116
	.byte	W16
	.byte		        Gn4 , v096
	.byte		N16   , Bn4 , v116
	.byte	W16
	.byte		        Fs4 , v096
	.byte		N16   , An4 , v116
	.byte	W16
	.byte		        En4 , v096
	.byte		N16   , Gn4 , v116
	.byte	W16
@ 050   ----------------------------------------
	.byte		N36   , Gn4 , v096
	.byte		N36   , Bn4 , v116
	.byte	W36
	.byte		        Fs4 , v096
	.byte		N36   , An4 , v116
	.byte	W36
	.byte		N24   , En4 , v096
	.byte		N24   , Gn4 , v116
	.byte	W24
@ 051   ----------------------------------------
	.byte		N36   , Fs4 , v096
	.byte		N36   , An4 , v116
	.byte	W36
	.byte		        En4 , v096
	.byte		N36   , Gn4 , v116
	.byte	W36
	.byte		N24   , Ds4 , v096
	.byte		N24   , Fs4 , v116
	.byte	W24
@ 052   ----------------------------------------
	.byte	W96
@ 053   ----------------------------------------
	.byte	W96
@ 054   ----------------------------------------
	.byte	W96
@ 055   ----------------------------------------
	.byte	W96
@ 056   ----------------------------------------
	.byte	W96
@ 057   ----------------------------------------
	.byte	W96
@ 058   ----------------------------------------
	.byte	W96
@ 059   ----------------------------------------
	.byte	W96
@ 060   ----------------------------------------
	.byte	W96
@ 061   ----------------------------------------
	.byte	W96
@ 062   ----------------------------------------
	.byte	W96
@ 063   ----------------------------------------
	.byte	W96
@ 064   ----------------------------------------
	.byte	W96
@ 065   ----------------------------------------
	.byte	W96
@ 066   ----------------------------------------
	.byte	W96
@ 067   ----------------------------------------
	.byte	W96
@ 068   ----------------------------------------
	.byte	W96
@ 069   ----------------------------------------
	.byte	W96
@ 070   ----------------------------------------
	.byte	W96
@ 071   ----------------------------------------
	.byte	W96
@ 072   ----------------------------------------
	.byte	W96
@ 073   ----------------------------------------
	.byte	W96
@ 074   ----------------------------------------
	.byte	W96
@ 075   ----------------------------------------
	.byte	W96
	.byte	GOTO
	 .word	RepairedDE_10_B1
RepairedDE_10_B2:
@ 076   ----------------------------------------
	.byte		VOICE , 56
	.byte	FINE

@**************** Track 11 (Midi-Chn.12) ****************@

RepairedDE_11:
	.byte	KEYSH , RepairedDE_key+0
RepairedDE_11_B1:
@ 000   ----------------------------------------
	.byte		VOICE , 47
	.byte		PAN   , c_v+0
	.byte		VOL   , 32*RepairedDE_mvl/mxv
	.byte	W96
@ 001   ----------------------------------------
	.byte	W96
@ 002   ----------------------------------------
	.byte	W96
@ 003   ----------------------------------------
	.byte	W96
@ 004   ----------------------------------------
	.byte	W96
@ 005   ----------------------------------------
	.byte	W96
@ 006   ----------------------------------------
RepairedDE_11_006:
	.byte		N12   , En1 , v112
	.byte	W36
	.byte		        En1 , v100
	.byte	W60
	.byte	PEND
@ 007   ----------------------------------------
	.byte		        En1 , v112
	.byte	W36
	.byte		        En1 , v120
	.byte	W36
	.byte		        En1 , v112
	.byte	W24
@ 008   ----------------------------------------
	.byte	PATT
	 .word	RepairedDE_11_006
@ 009   ----------------------------------------
RepairedDE_11_009:
	.byte		N12   , En1 , v112
	.byte	W36
	.byte		        En1 , v120
	.byte	W36
	.byte		        En1 , v112
	.byte	W12
	.byte		N12   
	.byte	W12
	.byte	PEND
@ 010   ----------------------------------------
	.byte	PATT
	 .word	RepairedDE_11_006
@ 011   ----------------------------------------
RepairedDE_11_011:
	.byte		N12   , En1 , v112
	.byte	W12
	.byte		        En1 , v100
	.byte	W24
	.byte		N12   
	.byte	W36
	.byte		        En1 , v092
	.byte	W12
	.byte		        En1 , v100
	.byte	W12
	.byte	PEND
@ 012   ----------------------------------------
	.byte	PATT
	 .word	RepairedDE_11_006
@ 013   ----------------------------------------
	.byte	PATT
	 .word	RepairedDE_11_009
@ 014   ----------------------------------------
	.byte	PATT
	 .word	RepairedDE_11_006
@ 015   ----------------------------------------
	.byte	PATT
	 .word	RepairedDE_11_011
@ 016   ----------------------------------------
	.byte	PATT
	 .word	RepairedDE_11_006
@ 017   ----------------------------------------
	.byte	PATT
	 .word	RepairedDE_11_009
@ 018   ----------------------------------------
	.byte	PATT
	 .word	RepairedDE_11_006
@ 019   ----------------------------------------
	.byte	PATT
	 .word	RepairedDE_11_011
@ 020   ----------------------------------------
RepairedDE_11_020:
	.byte		N12   , Cn2 , v112
	.byte	W36
	.byte		        Cn2 , v100
	.byte	W60
	.byte	PEND
@ 021   ----------------------------------------
RepairedDE_11_021:
	.byte		N12   , Cn2 , v112
	.byte	W36
	.byte		        Cn2 , v120
	.byte	W36
	.byte		        Cn2 , v112
	.byte	W12
	.byte		N12   
	.byte	W12
	.byte	PEND
@ 022   ----------------------------------------
	.byte	PATT
	 .word	RepairedDE_11_020
@ 023   ----------------------------------------
	.byte		N12   , Cn2 , v112
	.byte	W12
	.byte		        Cn2 , v100
	.byte	W24
	.byte		N12   
	.byte	W12
	.byte		N12   
	.byte	W24
	.byte		        Cn2 , v092
	.byte	W12
	.byte		N04   , Cn2 , v100
	.byte	W04
	.byte		        Cn2 , v108
	.byte	W04
	.byte		        Cn2 , v112
	.byte	W04
@ 024   ----------------------------------------
	.byte	PATT
	 .word	RepairedDE_11_006
@ 025   ----------------------------------------
	.byte	PATT
	 .word	RepairedDE_11_009
@ 026   ----------------------------------------
	.byte	PATT
	 .word	RepairedDE_11_006
@ 027   ----------------------------------------
	.byte	PATT
	 .word	RepairedDE_11_011
@ 028   ----------------------------------------
	.byte	PATT
	 .word	RepairedDE_11_006
@ 029   ----------------------------------------
	.byte	PATT
	 .word	RepairedDE_11_009
@ 030   ----------------------------------------
	.byte	PATT
	 .word	RepairedDE_11_006
@ 031   ----------------------------------------
	.byte	PATT
	 .word	RepairedDE_11_011
@ 032   ----------------------------------------
	.byte	PATT
	 .word	RepairedDE_11_006
@ 033   ----------------------------------------
	.byte	PATT
	 .word	RepairedDE_11_009
@ 034   ----------------------------------------
	.byte	PATT
	 .word	RepairedDE_11_006
@ 035   ----------------------------------------
	.byte	PATT
	 .word	RepairedDE_11_011
@ 036   ----------------------------------------
	.byte	PATT
	 .word	RepairedDE_11_020
@ 037   ----------------------------------------
	.byte	PATT
	 .word	RepairedDE_11_021
@ 038   ----------------------------------------
	.byte		N12   , Fn1 , v112
	.byte	W36
	.byte		        Fn1 , v100
	.byte	W60
@ 039   ----------------------------------------
	.byte		        Fn1 , v112
	.byte	W12
	.byte		        Fn1 , v100
	.byte	W24
	.byte		N12   
	.byte	W12
	.byte		N12   
	.byte	W24
	.byte		        Fn1 , v092
	.byte	W12
	.byte		N04   , Fn1 , v100
	.byte	W04
	.byte		        Fn1 , v108
	.byte	W04
	.byte		        Fn1 , v112
	.byte	W04
@ 040   ----------------------------------------
	.byte	PATT
	 .word	RepairedDE_11_006
@ 041   ----------------------------------------
	.byte	PATT
	 .word	RepairedDE_11_009
@ 042   ----------------------------------------
	.byte	PATT
	 .word	RepairedDE_11_006
@ 043   ----------------------------------------
	.byte	PATT
	 .word	RepairedDE_11_011
@ 044   ----------------------------------------
RepairedDE_11_044:
	.byte		N24   , Cn2 , v120
	.byte	W24
	.byte		N12   , Cn2 , v100
	.byte	W12
	.byte		N24   , Gn1 , v112
	.byte	W24
	.byte		N12   , Gn1 , v092
	.byte	W12
	.byte		N24   , Cn2 , v112
	.byte	W24
	.byte	PEND
@ 045   ----------------------------------------
	.byte		        Gn1 , v120
	.byte	W24
	.byte		N12   , Gn1 , v100
	.byte	W12
	.byte		N24   , Cn2 , v112
	.byte	W24
	.byte		N12   , Cn2 , v092
	.byte	W12
	.byte		        Gn1 , v112
	.byte	W12
	.byte		        Cn2 
	.byte	W12
@ 046   ----------------------------------------
RepairedDE_11_046:
	.byte		N24   , En1 , v120
	.byte	W24
	.byte		N12   , En1 , v100
	.byte	W12
	.byte		N24   , Bn1 , v112
	.byte	W24
	.byte		N12   , Bn1 , v092
	.byte	W12
	.byte		N24   , En1 , v112
	.byte	W24
	.byte	PEND
@ 047   ----------------------------------------
RepairedDE_11_047:
	.byte		N24   , Bn1 , v120
	.byte	W24
	.byte		N12   , Bn1 , v100
	.byte	W12
	.byte		N24   , En1 , v112
	.byte	W24
	.byte		N12   , En1 , v092
	.byte	W12
	.byte		        Bn1 , v112
	.byte	W12
	.byte		        En1 
	.byte	W12
	.byte	PEND
@ 048   ----------------------------------------
	.byte	PATT
	 .word	RepairedDE_11_044
@ 049   ----------------------------------------
	.byte		N24   , Gn1 , v120
	.byte	W24
	.byte		N12   , Gn1 , v100
	.byte	W12
	.byte		N24   , Cn2 , v112
	.byte	W24
	.byte		N12   , Cn2 , v092
	.byte	W12
	.byte		        Gn1 , v112
	.byte	W12
	.byte		N04   , Fs1 
	.byte	W04
	.byte		N04   
	.byte	W04
	.byte		        Fs1 , v120
	.byte	W04
@ 050   ----------------------------------------
RepairedDE_11_050:
	.byte		N12   , Bn1 , v127
	.byte	W12
	.byte		N06   , Fs1 , v092
	.byte	W06
	.byte		        Fs1 , v108
	.byte	W06
	.byte		N12   , Fs1 , v120
	.byte	W12
	.byte		        Bn1 , v127
	.byte	W12
	.byte		N06   , Fs1 , v092
	.byte	W06
	.byte		        Fs1 , v108
	.byte	W06
	.byte		N12   , Fs1 , v120
	.byte	W12
	.byte		N06   , Bn1 , v127
	.byte	W06
	.byte		        Fs1 , v100
	.byte	W06
	.byte		N12   , Fs1 , v120
	.byte	W12
	.byte	PEND
@ 051   ----------------------------------------
	.byte	PATT
	 .word	RepairedDE_11_050
@ 052   ----------------------------------------
	.byte		N24   , En1 , v120
	.byte	W96
@ 053   ----------------------------------------
	.byte	W96
@ 054   ----------------------------------------
	.byte	W96
@ 055   ----------------------------------------
	.byte	W96
@ 056   ----------------------------------------
	.byte	W96
@ 057   ----------------------------------------
	.byte	W96
@ 058   ----------------------------------------
	.byte	W96
@ 059   ----------------------------------------
	.byte		N06   , Bn1 , v032
	.byte	W06
	.byte		N03   
	.byte	W03
	.byte		N03   
	.byte	W03
	.byte		N03   
	.byte	W03
	.byte		N03   
	.byte	W03
	.byte		N03   
	.byte	W03
	.byte		N03   
	.byte	W03
	.byte		N03   
	.byte	W03
	.byte		        Bn1 , v036
	.byte	W03
	.byte		N03   
	.byte	W03
	.byte		N03   
	.byte	W03
	.byte		N03   
	.byte	W03
	.byte		        Bn1 , v040
	.byte	W03
	.byte		N03   
	.byte	W03
	.byte		        Bn1 , v048
	.byte	W03
	.byte		N06   
	.byte	W06
	.byte		N03   , Bn1 , v052
	.byte	W03
	.byte		N03   
	.byte	W03
	.byte		        Bn1 , v056
	.byte	W03
	.byte		        Bn1 , v060
	.byte	W03
	.byte		        Bn1 , v068
	.byte	W03
	.byte		        Bn1 , v072
	.byte	W03
	.byte		        Bn1 , v076
	.byte	W03
	.byte		        Bn1 , v080
	.byte	W03
	.byte		        Bn1 , v088
	.byte	W03
	.byte		        Bn1 , v092
	.byte	W03
	.byte		        Bn1 , v096
	.byte	W03
	.byte		        Bn1 , v100
	.byte	W03
	.byte		        Bn1 , v108
	.byte	W03
	.byte		        Bn1 , v112
	.byte	W03
@ 060   ----------------------------------------
	.byte	PATT
	 .word	RepairedDE_11_046
@ 061   ----------------------------------------
	.byte	PATT
	 .word	RepairedDE_11_047
@ 062   ----------------------------------------
RepairedDE_11_062:
	.byte		N24   , Fn1 , v120
	.byte	W24
	.byte		N12   , Fn1 , v100
	.byte	W12
	.byte		N24   , Cn2 , v112
	.byte	W24
	.byte		N12   , Cn2 , v092
	.byte	W12
	.byte		N24   , Fn1 , v112
	.byte	W24
	.byte	PEND
@ 063   ----------------------------------------
RepairedDE_11_063:
	.byte		N24   , An1 , v120
	.byte	W24
	.byte		N12   , An1 , v100
	.byte	W12
	.byte		N24   , Dn1 , v112
	.byte	W24
	.byte		N12   , Dn1 , v092
	.byte	W12
	.byte		        An1 , v112
	.byte	W12
	.byte		        Dn1 
	.byte	W12
	.byte	PEND
@ 064   ----------------------------------------
	.byte	PATT
	 .word	RepairedDE_11_046
@ 065   ----------------------------------------
	.byte	PATT
	 .word	RepairedDE_11_047
@ 066   ----------------------------------------
	.byte	PATT
	 .word	RepairedDE_11_062
@ 067   ----------------------------------------
	.byte	PATT
	 .word	RepairedDE_11_063
@ 068   ----------------------------------------
	.byte	PATT
	 .word	RepairedDE_11_046
@ 069   ----------------------------------------
	.byte	PATT
	 .word	RepairedDE_11_047
@ 070   ----------------------------------------
	.byte	PATT
	 .word	RepairedDE_11_062
@ 071   ----------------------------------------
	.byte	PATT
	 .word	RepairedDE_11_063
@ 072   ----------------------------------------
	.byte	PATT
	 .word	RepairedDE_11_046
@ 073   ----------------------------------------
	.byte	PATT
	 .word	RepairedDE_11_047
@ 074   ----------------------------------------
	.byte	PATT
	 .word	RepairedDE_11_062
@ 075   ----------------------------------------
	.byte	PATT
	 .word	RepairedDE_11_063
	.byte	GOTO
	 .word	RepairedDE_11_B1
RepairedDE_11_B2:
@ 076   ----------------------------------------
	.byte		VOICE , 47
	.byte	FINE

@**************** Track 12 (Midi-Chn.13) ****************@

RepairedDE_12:
	.byte	KEYSH , RepairedDE_key+0
RepairedDE_12_B1:
@ 000   ----------------------------------------
	.byte		VOICE , 111
	.byte		VOL   , 29*RepairedDE_mvl/mxv
	.byte		PAN   , c_v+63
	.byte		N96   , Cn4 , v080
	.byte	W96
@ 001   ----------------------------------------
	.byte		N96   
	.byte	W96
@ 002   ----------------------------------------
	.byte		N96   
	.byte	W96
@ 003   ----------------------------------------
	.byte		        Dn4 
	.byte	W96
@ 004   ----------------------------------------
	.byte		        Cn4 
	.byte	W96
@ 005   ----------------------------------------
	.byte		N96   
	.byte	W96
@ 006   ----------------------------------------
	.byte		N96   
	.byte	W96
@ 007   ----------------------------------------
	.byte		        Dn4 
	.byte	W96
@ 008   ----------------------------------------
	.byte		        Cn4 
	.byte	W96
@ 009   ----------------------------------------
	.byte		N96   
	.byte	W96
@ 010   ----------------------------------------
	.byte		N96   
	.byte	W96
@ 011   ----------------------------------------
	.byte		        Dn4 
	.byte	W96
@ 012   ----------------------------------------
	.byte		        Cn4 
	.byte	W96
@ 013   ----------------------------------------
	.byte		N96   
	.byte	W96
@ 014   ----------------------------------------
	.byte		N96   
	.byte	W96
@ 015   ----------------------------------------
	.byte		        Dn4 
	.byte	W96
@ 016   ----------------------------------------
	.byte		        Cn4 
	.byte	W96
@ 017   ----------------------------------------
	.byte		N96   
	.byte	W96
@ 018   ----------------------------------------
	.byte		N96   
	.byte	W96
@ 019   ----------------------------------------
	.byte		        Dn4 
	.byte	W96
@ 020   ----------------------------------------
	.byte		        Cn4 
	.byte	W96
@ 021   ----------------------------------------
	.byte		N96   
	.byte	W96
@ 022   ----------------------------------------
	.byte		N96   
	.byte	W96
@ 023   ----------------------------------------
	.byte		        Dn4 
	.byte	W96
@ 024   ----------------------------------------
	.byte		        Cn4 
	.byte	W96
@ 025   ----------------------------------------
	.byte		N96   
	.byte	W96
@ 026   ----------------------------------------
	.byte		N96   
	.byte	W96
@ 027   ----------------------------------------
	.byte		        Dn4 
	.byte	W96
@ 028   ----------------------------------------
	.byte		        Cn4 
	.byte	W96
@ 029   ----------------------------------------
	.byte		N96   
	.byte	W96
@ 030   ----------------------------------------
	.byte		N96   
	.byte	W96
@ 031   ----------------------------------------
	.byte		        Dn4 
	.byte	W96
@ 032   ----------------------------------------
	.byte		        Cn4 
	.byte	W96
@ 033   ----------------------------------------
	.byte		N96   
	.byte	W96
@ 034   ----------------------------------------
	.byte		N96   
	.byte	W96
@ 035   ----------------------------------------
	.byte		        Dn4 
	.byte	W96
@ 036   ----------------------------------------
	.byte		        Cn4 
	.byte	W96
@ 037   ----------------------------------------
	.byte		N96   
	.byte	W96
@ 038   ----------------------------------------
	.byte		N96   
	.byte	W96
@ 039   ----------------------------------------
	.byte		        Dn4 
	.byte	W96
@ 040   ----------------------------------------
	.byte		        Cn4 
	.byte	W96
@ 041   ----------------------------------------
	.byte		N96   
	.byte	W96
@ 042   ----------------------------------------
	.byte		N96   
	.byte	W96
@ 043   ----------------------------------------
	.byte		        Dn4 
	.byte	W96
@ 044   ----------------------------------------
	.byte		        Cn4 
	.byte	W96
@ 045   ----------------------------------------
	.byte		N96   
	.byte	W96
@ 046   ----------------------------------------
	.byte		N96   
	.byte	W96
@ 047   ----------------------------------------
	.byte		        Dn4 
	.byte	W96
@ 048   ----------------------------------------
	.byte		        Cn4 
	.byte	W96
@ 049   ----------------------------------------
	.byte		N96   
	.byte	W96
@ 050   ----------------------------------------
	.byte		N96   
	.byte	W96
@ 051   ----------------------------------------
	.byte		        Dn4 
	.byte	W96
@ 052   ----------------------------------------
	.byte	W96
@ 053   ----------------------------------------
	.byte	W96
@ 054   ----------------------------------------
	.byte	W96
@ 055   ----------------------------------------
	.byte	W96
@ 056   ----------------------------------------
	.byte	W96
@ 057   ----------------------------------------
	.byte	W96
@ 058   ----------------------------------------
	.byte		VOL   , 18*RepairedDE_mvl/mxv
	.byte		N96   , Cn4 
	.byte	W03
	.byte		VOL   , 19*RepairedDE_mvl/mxv
	.byte	W15
	.byte		        20*RepairedDE_mvl/mxv
	.byte	W15
	.byte		        21*RepairedDE_mvl/mxv
	.byte	W15
	.byte		        22*RepairedDE_mvl/mxv
	.byte	W14
	.byte		        23*RepairedDE_mvl/mxv
	.byte	W15
	.byte		        24*RepairedDE_mvl/mxv
	.byte	W15
	.byte		        25*RepairedDE_mvl/mxv
	.byte	W04
@ 059   ----------------------------------------
	.byte		N96   
	.byte	W11
	.byte		VOL   , 26*RepairedDE_mvl/mxv
	.byte	W14
	.byte		        27*RepairedDE_mvl/mxv
	.byte	W15
	.byte		        28*RepairedDE_mvl/mxv
	.byte	W15
	.byte		        29*RepairedDE_mvl/mxv
	.byte	W15
	.byte		        30*RepairedDE_mvl/mxv
	.byte	W14
	.byte		        31*RepairedDE_mvl/mxv
	.byte	W12
@ 060   ----------------------------------------
	.byte		        32*RepairedDE_mvl/mxv
	.byte		N96   
	.byte	W96
@ 061   ----------------------------------------
	.byte		N96   
	.byte	W96
@ 062   ----------------------------------------
	.byte		N96   
	.byte	W96
@ 063   ----------------------------------------
	.byte		        Dn4 
	.byte	W96
@ 064   ----------------------------------------
	.byte		        Cn4 
	.byte	W96
@ 065   ----------------------------------------
	.byte		N96   
	.byte	W96
@ 066   ----------------------------------------
	.byte		N96   
	.byte	W96
@ 067   ----------------------------------------
	.byte		        Dn4 
	.byte	W96
@ 068   ----------------------------------------
	.byte		        Cn4 
	.byte	W96
@ 069   ----------------------------------------
	.byte		N96   
	.byte	W96
@ 070   ----------------------------------------
	.byte		N96   
	.byte	W96
@ 071   ----------------------------------------
	.byte		        Dn4 
	.byte	W96
@ 072   ----------------------------------------
	.byte		        Cn4 
	.byte	W96
@ 073   ----------------------------------------
	.byte		N96   
	.byte	W96
@ 074   ----------------------------------------
	.byte		N96   
	.byte	W96
@ 075   ----------------------------------------
	.byte		        Dn4 
	.byte	W96
	.byte	GOTO
	 .word	RepairedDE_12_B1
RepairedDE_12_B2:
@ 076   ----------------------------------------
	.byte		VOICE , 111
	.byte		VOL   , 29*RepairedDE_mvl/mxv
	.byte	FINE

@**************** Track 13 (Midi-Chn.14) ****************@

RepairedDE_13:
	.byte	KEYSH , RepairedDE_key+0
RepairedDE_13_B1:
@ 000   ----------------------------------------
	.byte		VOICE , 111
	.byte		VOL   , 29*RepairedDE_mvl/mxv
	.byte		PAN   , c_v-64
	.byte		N96   , Cn3 , v080
	.byte	W96
@ 001   ----------------------------------------
	.byte		N96   
	.byte	W96
@ 002   ----------------------------------------
	.byte		N96   
	.byte	W96
@ 003   ----------------------------------------
	.byte		        Dn3 
	.byte	W96
@ 004   ----------------------------------------
	.byte		        Cn3 
	.byte	W96
@ 005   ----------------------------------------
	.byte		N96   
	.byte	W96
@ 006   ----------------------------------------
	.byte		N96   
	.byte	W96
@ 007   ----------------------------------------
	.byte		        Dn3 
	.byte	W96
@ 008   ----------------------------------------
	.byte		        Cn3 
	.byte	W96
@ 009   ----------------------------------------
	.byte		N96   
	.byte	W96
@ 010   ----------------------------------------
	.byte		N96   
	.byte	W96
@ 011   ----------------------------------------
	.byte		        Dn3 
	.byte	W96
@ 012   ----------------------------------------
	.byte		        Cn3 
	.byte	W96
@ 013   ----------------------------------------
	.byte		N96   
	.byte	W96
@ 014   ----------------------------------------
	.byte		N96   
	.byte	W96
@ 015   ----------------------------------------
	.byte		        Dn3 
	.byte	W96
@ 016   ----------------------------------------
	.byte		        Cn3 
	.byte	W96
@ 017   ----------------------------------------
	.byte		N96   
	.byte	W96
@ 018   ----------------------------------------
	.byte		N96   
	.byte	W96
@ 019   ----------------------------------------
	.byte		        Dn3 
	.byte	W96
@ 020   ----------------------------------------
	.byte		        Cn3 
	.byte	W96
@ 021   ----------------------------------------
	.byte		N96   
	.byte	W96
@ 022   ----------------------------------------
	.byte		N96   
	.byte	W96
@ 023   ----------------------------------------
	.byte		        Dn3 
	.byte	W96
@ 024   ----------------------------------------
	.byte		        Cn3 
	.byte	W96
@ 025   ----------------------------------------
	.byte		N96   
	.byte	W96
@ 026   ----------------------------------------
	.byte		N96   
	.byte	W96
@ 027   ----------------------------------------
	.byte		        Dn3 
	.byte	W96
@ 028   ----------------------------------------
	.byte		        Cn3 
	.byte	W96
@ 029   ----------------------------------------
	.byte		N96   
	.byte	W96
@ 030   ----------------------------------------
	.byte		N96   
	.byte	W96
@ 031   ----------------------------------------
	.byte		        Dn3 
	.byte	W96
@ 032   ----------------------------------------
	.byte		        Cn3 
	.byte	W96
@ 033   ----------------------------------------
	.byte		N96   
	.byte	W96
@ 034   ----------------------------------------
	.byte		N96   
	.byte	W96
@ 035   ----------------------------------------
	.byte		        Dn3 
	.byte	W96
@ 036   ----------------------------------------
	.byte		        Cn3 
	.byte	W96
@ 037   ----------------------------------------
	.byte		N96   
	.byte	W96
@ 038   ----------------------------------------
	.byte		N96   
	.byte	W96
@ 039   ----------------------------------------
	.byte		        Dn3 
	.byte	W96
@ 040   ----------------------------------------
	.byte		        Cn3 
	.byte	W96
@ 041   ----------------------------------------
	.byte		N96   
	.byte	W96
@ 042   ----------------------------------------
	.byte		N96   
	.byte	W96
@ 043   ----------------------------------------
	.byte		        Dn3 
	.byte	W96
@ 044   ----------------------------------------
	.byte		        Cn3 
	.byte	W96
@ 045   ----------------------------------------
	.byte		N96   
	.byte	W96
@ 046   ----------------------------------------
	.byte		N96   
	.byte	W96
@ 047   ----------------------------------------
	.byte		        Dn3 
	.byte	W96
@ 048   ----------------------------------------
	.byte		        Cn3 
	.byte	W96
@ 049   ----------------------------------------
	.byte		N96   
	.byte	W96
@ 050   ----------------------------------------
	.byte		N96   
	.byte	W96
@ 051   ----------------------------------------
	.byte		        Dn3 
	.byte	W96
@ 052   ----------------------------------------
	.byte	W96
@ 053   ----------------------------------------
	.byte	W96
@ 054   ----------------------------------------
	.byte	W96
@ 055   ----------------------------------------
	.byte	W96
@ 056   ----------------------------------------
	.byte	W96
@ 057   ----------------------------------------
	.byte	W96
@ 058   ----------------------------------------
	.byte		VOL   , 18*RepairedDE_mvl/mxv
	.byte		N96   , Cn3 
	.byte	W03
	.byte		VOL   , 19*RepairedDE_mvl/mxv
	.byte	W15
	.byte		        20*RepairedDE_mvl/mxv
	.byte	W15
	.byte		        21*RepairedDE_mvl/mxv
	.byte	W15
	.byte		        22*RepairedDE_mvl/mxv
	.byte	W14
	.byte		        23*RepairedDE_mvl/mxv
	.byte	W15
	.byte		        24*RepairedDE_mvl/mxv
	.byte	W15
	.byte		        25*RepairedDE_mvl/mxv
	.byte	W04
@ 059   ----------------------------------------
	.byte		N96   
	.byte	W11
	.byte		VOL   , 26*RepairedDE_mvl/mxv
	.byte	W14
	.byte		        27*RepairedDE_mvl/mxv
	.byte	W15
	.byte		        28*RepairedDE_mvl/mxv
	.byte	W15
	.byte		        29*RepairedDE_mvl/mxv
	.byte	W15
	.byte		        30*RepairedDE_mvl/mxv
	.byte	W14
	.byte		        31*RepairedDE_mvl/mxv
	.byte	W12
@ 060   ----------------------------------------
	.byte		        32*RepairedDE_mvl/mxv
	.byte		N96   
	.byte	W96
@ 061   ----------------------------------------
	.byte		N96   
	.byte	W96
@ 062   ----------------------------------------
	.byte		N96   
	.byte	W96
@ 063   ----------------------------------------
	.byte		        Dn3 
	.byte	W96
@ 064   ----------------------------------------
	.byte		        Cn3 
	.byte	W96
@ 065   ----------------------------------------
	.byte		N96   
	.byte	W96
@ 066   ----------------------------------------
	.byte		N96   
	.byte	W96
@ 067   ----------------------------------------
	.byte		        Dn3 
	.byte	W96
@ 068   ----------------------------------------
	.byte		        Cn3 
	.byte	W96
@ 069   ----------------------------------------
	.byte		N96   
	.byte	W96
@ 070   ----------------------------------------
	.byte		N96   
	.byte	W96
@ 071   ----------------------------------------
	.byte		        Dn3 
	.byte	W96
@ 072   ----------------------------------------
	.byte		        Cn3 
	.byte	W96
@ 073   ----------------------------------------
	.byte		N96   
	.byte	W96
@ 074   ----------------------------------------
	.byte		N96   
	.byte	W96
@ 075   ----------------------------------------
	.byte		        Dn3 
	.byte	W96
	.byte	GOTO
	 .word	RepairedDE_13_B1
RepairedDE_13_B2:
@ 076   ----------------------------------------
	.byte		VOICE , 111
	.byte		VOL   , 29*RepairedDE_mvl/mxv
	.byte	FINE

@**************** Track 14 (Midi-Chn.15) ****************@

RepairedDE_14:
	.byte	KEYSH , RepairedDE_key+0
RepairedDE_14_B1:
@ 000   ----------------------------------------
	.byte		VOICE , 57
	.byte		PAN   , c_v+6
	.byte		VOL   , 25*RepairedDE_mvl/mxv
	.byte	W96
@ 001   ----------------------------------------
	.byte	W96
@ 002   ----------------------------------------
	.byte	W96
@ 003   ----------------------------------------
	.byte	W96
@ 004   ----------------------------------------
	.byte	W96
@ 005   ----------------------------------------
	.byte	W96
@ 006   ----------------------------------------
	.byte	W48
	.byte		N48   , Fs2 , v100
	.byte	W48
@ 007   ----------------------------------------
	.byte		        Bn2 
	.byte	W48
	.byte		        Bn2 , v088
	.byte		N48   , Dn3 , v100
	.byte	W48
@ 008   ----------------------------------------
	.byte		TIE   , An2 , v088
	.byte		TIE   , Cn3 , v100
	.byte	W96
@ 009   ----------------------------------------
	.byte	W92
	.byte	W02
	.byte		EOT   , An2 
	.byte		        Cn3 
	.byte	W02
@ 010   ----------------------------------------
	.byte		TIE   , En3 
	.byte		TIE   , An3 , v112
	.byte	W96
@ 011   ----------------------------------------
	.byte	W48
	.byte		EOT   , En3 
	.byte		        An3 
	.byte		N48   , En3 , v100
	.byte		N48   , Bn3 , v112
	.byte	W48
@ 012   ----------------------------------------
	.byte		TIE   , En3 , v092
	.byte		TIE   , Gn3 , v100
	.byte	W96
@ 013   ----------------------------------------
	.byte	W96
	.byte		EOT   , En3 
	.byte		        Gn3 
@ 014   ----------------------------------------
	.byte	W96
@ 015   ----------------------------------------
	.byte	W96
@ 016   ----------------------------------------
	.byte	W96
@ 017   ----------------------------------------
	.byte	W96
@ 018   ----------------------------------------
	.byte	W96
@ 019   ----------------------------------------
	.byte	W96
@ 020   ----------------------------------------
	.byte	W96
@ 021   ----------------------------------------
	.byte	W96
@ 022   ----------------------------------------
	.byte	W96
@ 023   ----------------------------------------
	.byte	W96
@ 024   ----------------------------------------
	.byte	W96
@ 025   ----------------------------------------
	.byte	W96
@ 026   ----------------------------------------
	.byte	W96
@ 027   ----------------------------------------
	.byte	W96
@ 028   ----------------------------------------
	.byte	W96
@ 029   ----------------------------------------
	.byte	W48
	.byte		N48   , Gn1 , v108
	.byte		N48   , Bn1 , v116
	.byte	W48
@ 030   ----------------------------------------
	.byte		TIE   , An1 , v100
	.byte		TIE   , Dn2 , v112
	.byte	W96
@ 031   ----------------------------------------
	.byte	W48
	.byte		EOT   , An1 
	.byte		        Dn2 
	.byte	W48
@ 032   ----------------------------------------
	.byte	W48
	.byte		N48   , En2 , v120
	.byte	W48
@ 033   ----------------------------------------
	.byte		        En2 , v112
	.byte		N48   , Gn2 , v120
	.byte	W48
	.byte		        Gn2 , v112
	.byte		N48   , Cn3 , v120
	.byte	W48
@ 034   ----------------------------------------
	.byte		TIE   , Fs2 , v112
	.byte		TIE   , Dn3 , v120
	.byte	W96
@ 035   ----------------------------------------
	.byte	W48
	.byte		EOT   , Fs2 
	.byte		        Dn3 
	.byte	W48
@ 036   ----------------------------------------
	.byte		TIE   , Gn2 , v100
	.byte		TIE   , Cn3 , v112
	.byte	W96
@ 037   ----------------------------------------
	.byte	W96
	.byte		EOT   , Gn2 
@ 038   ----------------------------------------
	.byte		TIE   , Fn2 , v100
	.byte	W96
@ 039   ----------------------------------------
	.byte	W96
	.byte		EOT   
	.byte		EOT   , Cn3 
@ 040   ----------------------------------------
	.byte		TIE   , En2 
	.byte		TIE   , Bn2 , v112
	.byte	W96
@ 041   ----------------------------------------
	.byte	W96
@ 042   ----------------------------------------
	.byte	W96
@ 043   ----------------------------------------
	.byte	W96
	.byte		EOT   , En2 
	.byte		        Bn2 
@ 044   ----------------------------------------
RepairedDE_14_044:
	.byte		N08   , Cn3 , v080
	.byte		N08   , En3 , v100
	.byte	W18
	.byte		        Cn3 , v088
	.byte		N08   , En3 , v100
	.byte	W18
	.byte		N06   , Cn3 , v080
	.byte		N06   , En3 , v100
	.byte	W06
	.byte		        Dn3 , v076
	.byte		N06   , Fs3 , v096
	.byte	W06
	.byte		N60   , En3 , v076
	.byte		N60   , Gn3 , v096
	.byte	W48
	.byte	PEND
@ 045   ----------------------------------------
	.byte	W16
	.byte		N16   , An2 , v088
	.byte	W16
	.byte		        Gn2 
	.byte	W16
	.byte		        Fs2 
	.byte	W16
	.byte		        En2 
	.byte	W16
	.byte		        Dn2 
	.byte	W16
@ 046   ----------------------------------------
	.byte		N36   , Bn1 , v096
	.byte	W36
	.byte		TIE   , En2 
	.byte	W60
@ 047   ----------------------------------------
	.byte	W84
	.byte		EOT   
	.byte	W12
@ 048   ----------------------------------------
	.byte	PATT
	 .word	RepairedDE_14_044
@ 049   ----------------------------------------
	.byte	W16
	.byte		N16   , An2 , v096
	.byte	W16
	.byte		        Gn2 
	.byte	W16
	.byte		        Bn2 
	.byte	W16
	.byte		        An2 
	.byte	W16
	.byte		        Gn2 
	.byte	W16
@ 050   ----------------------------------------
	.byte		N36   , Bn1 , v100
	.byte		N36   , Ds2 , v092
	.byte	W36
	.byte		        Cs2 
	.byte		N36   , En2 , v080
	.byte	W36
	.byte		N24   , Ds2 , v092
	.byte		N24   , Fs2 , v080
	.byte	W24
@ 051   ----------------------------------------
	.byte		N36   , Ds2 , v092
	.byte		N36   , Fs2 , v080
	.byte	W36
	.byte		        En2 , v100
	.byte		N36   , Gn2 , v092
	.byte	W36
	.byte		N24   , Fs2 , v112
	.byte		N24   , An2 , v100
	.byte	W24
@ 052   ----------------------------------------
	.byte	W96
@ 053   ----------------------------------------
	.byte	W96
@ 054   ----------------------------------------
	.byte	W96
@ 055   ----------------------------------------
	.byte	W96
@ 056   ----------------------------------------
	.byte	W96
@ 057   ----------------------------------------
	.byte	W96
@ 058   ----------------------------------------
	.byte	W96
@ 059   ----------------------------------------
	.byte	W96
@ 060   ----------------------------------------
	.byte	W96
@ 061   ----------------------------------------
	.byte	W96
@ 062   ----------------------------------------
	.byte	W96
@ 063   ----------------------------------------
	.byte	W96
@ 064   ----------------------------------------
	.byte	W96
@ 065   ----------------------------------------
	.byte	W96
@ 066   ----------------------------------------
	.byte	W96
@ 067   ----------------------------------------
	.byte	W96
@ 068   ----------------------------------------
	.byte	W96
@ 069   ----------------------------------------
	.byte	W96
@ 070   ----------------------------------------
	.byte	W96
@ 071   ----------------------------------------
	.byte	W96
@ 072   ----------------------------------------
	.byte	W96
@ 073   ----------------------------------------
	.byte	W96
@ 074   ----------------------------------------
	.byte	W96
@ 075   ----------------------------------------
	.byte	W96
	.byte	GOTO
	 .word	RepairedDE_14_B1
RepairedDE_14_B2:
@ 076   ----------------------------------------
	.byte		VOICE , 57
	.byte	FINE

@******************************************************@
	.align	2

RepairedDE:
	.byte	14	@ NumTrks
	.byte	0	@ NumBlks
	.byte	RepairedDE_pri	@ Priority
	.byte	RepairedDE_rev	@ Reverb.

	.word	RepairedDE_grp

	.word	RepairedDE_1
	.word	RepairedDE_2
	.word	RepairedDE_3
	.word	RepairedDE_4
	.word	RepairedDE_5
	.word	RepairedDE_6
	.word	RepairedDE_7
	.word	RepairedDE_8
	.word	RepairedDE_9
	.word	RepairedDE_10
	.word	RepairedDE_11
	.word	RepairedDE_12
	.word	RepairedDE_13
	.word	RepairedDE_14

	.end
