//Event file generated from Sappy .s format.
        #include "MPlayDef.event"

        #define    RepairedDEnotefix_grp  voicegroup000
        #define    RepairedDEnotefix_pri  0
        #define    RepairedDEnotefix_rev  192
        #define    RepairedDEnotefix_key  0

        // .rodata
        // RepairedDEnotefix
        ALIGN  4

//****************** Track 0 (Midi-Chn.0) ******************//

RepairedDEnotefix_0:
        BYTE   KEYSH   RepairedDEnotefix_key+0
// 000   ----------------------------------------
        BYTE   TEMPO   156/2
RepairedDEnotefix_0_LOOP:
        BYTE           VOICE   62
        BYTE           VOL     31
        BYTE           PAN     c_v+6
        BYTE   W96
// 001   ----------------------------------------
        BYTE   W96
// 002   ----------------------------------------
        BYTE   W96
// 003   ----------------------------------------
        BYTE   W96
// 004   ----------------------------------------
        BYTE   W96
// 005   ----------------------------------------
        BYTE   W96
// 006   ----------------------------------------
        BYTE   W48
        BYTE           N48     Fs2   v108
        BYTE   W48
// 007   ----------------------------------------
        BYTE                   Bn2
        BYTE   W48
        BYTE                   Dn3
        BYTE   W48
// 008   ----------------------------------------
        BYTE           TIE     Cn3
        BYTE   W96
// 009   ----------------------------------------
        BYTE   W96
// 010   ----------------------------------------
        BYTE           EOT
        BYTE   W96
// 011   ----------------------------------------
        BYTE   W96
// 012   ----------------------------------------
        BYTE           N96     Bn2   v127
        BYTE   W96
// 013   ----------------------------------------
        BYTE                   En3
        BYTE   W96
// 014   ----------------------------------------
RepairedDEnotefix_0_14:
        BYTE   W48
        BYTE           N48     Dn3   v127
        BYTE   W48
        BYTE   PEND
// 015   ----------------------------------------
        BYTE                   Fs3
        BYTE   W48
        BYTE                   An3
        BYTE   W48
// 016   ----------------------------------------
        BYTE           N96     Gn3
        BYTE   W96
// 017   ----------------------------------------
        BYTE                   Cn4
        BYTE   W96
// 018   ----------------------------------------
        BYTE           N48     Bn3
        BYTE   W48
        BYTE           N72     Fs3
        BYTE   W48
// 019   ----------------------------------------
        BYTE   W48
        BYTE           N48     Gn3
        BYTE   W48
// 020   ----------------------------------------
        BYTE           N96     En3
        BYTE   W96
// 021   ----------------------------------------
        BYTE           TIE     Bn3
        BYTE   W96
// 022   ----------------------------------------
        BYTE   W24
        BYTE           EOT
        BYTE   W24
        BYTE           N48     An3
        BYTE   W48
// 023   ----------------------------------------
        BYTE                   Gn3
        BYTE   W48
        BYTE                   Fs3
        BYTE   W48
// 024   ----------------------------------------
        BYTE           TIE     En3
        BYTE   W96
// 025   ----------------------------------------
        BYTE   W96
// 026   ----------------------------------------
        BYTE           EOT
        BYTE   W96
// 027   ----------------------------------------
        BYTE   W96
// 028   ----------------------------------------
        BYTE           N96     Bn2
        BYTE   W96
// 029   ----------------------------------------
        BYTE                   En3
        BYTE           N96     Bn2   v108
        BYTE   W96
// 030   ----------------------------------------
        BYTE   PATT
         POIN2  RepairedDEnotefix_0_14
// 031   ----------------------------------------
        BYTE           N48     Fs3   v127
        BYTE           N48     Dn3   v108
        BYTE   W48
        BYTE                   An3   v127
        BYTE           N48     Fs3   v108
        BYTE   W48
// 032   ----------------------------------------
        BYTE           N96     Gn3   v127
        BYTE           N96     En3   v108
        BYTE   W96
// 033   ----------------------------------------
        BYTE                   Cn4   v127
        BYTE           N96     Gn3   v108
        BYTE   W96
// 034   ----------------------------------------
        BYTE           N48     Bn3   v127
        BYTE           N48     Fs3   v108
        BYTE   W48
        BYTE           N72     Fs3   v127
        BYTE           N72     Dn3   v108
        BYTE   W48
// 035   ----------------------------------------
        BYTE   W48
        BYTE           N48     Gn3   v127
        BYTE           N48     En3   v108
        BYTE   W48
// 036   ----------------------------------------
        BYTE           N96     En3   v127
        BYTE           N96     Cn3   v108
        BYTE   W96
// 037   ----------------------------------------
RepairedDEnotefix_0_37:
        BYTE           TIE     Bn3   v127
        BYTE           TIE     Gn3   v108
        BYTE   W96
        BYTE   PEND
// 038   ----------------------------------------
        BYTE   W24
        BYTE           EOT
        BYTE           EOT     Bn3
        BYTE   W24
        BYTE           N48     An3   v127
        BYTE           N48     Fn3   v108
        BYTE   W48
// 039   ----------------------------------------
        BYTE                   Dn4   v127
        BYTE           N48     An3   v108
        BYTE   W48
        BYTE                   Cn4   v127
        BYTE           N48     An3   v108
        BYTE   W48
// 040   ----------------------------------------
        BYTE   PATT
         POIN2  RepairedDEnotefix_0_37
// 041   ----------------------------------------
        BYTE   W96
// 042   ----------------------------------------
        BYTE           EOT     Gn3
        BYTE                   Bn3
        BYTE   W96
// 043   ----------------------------------------
        BYTE   W96
// 044   ----------------------------------------
        BYTE   W96
// 045   ----------------------------------------
        BYTE   W96
// 046   ----------------------------------------
        BYTE   W48
        BYTE           N48     Gn2   v127
        BYTE   W48
// 047   ----------------------------------------
        BYTE                   Bn2
        BYTE   W48
        BYTE                   Dn3
        BYTE           N48     Bn2   v108
        BYTE   W48
// 048   ----------------------------------------
        BYTE           TIE     En3   v127
        BYTE           TIE     Cn3   v100
        BYTE   W96
// 049   ----------------------------------------
        BYTE   W96
// 050   ----------------------------------------
        BYTE           EOT
        BYTE           EOT     En3
        BYTE   W96
// 051   ----------------------------------------
        BYTE           VOICE   0
        BYTE           VOL     28
        BYTE           PAN     c_v+0
        BYTE   W96
// 052   ----------------------------------------
        BYTE           TIE     En1   v112
        BYTE           TIE     En0   v120
        BYTE   W96
// 053   ----------------------------------------
        BYTE   W96
// 054   ----------------------------------------
        BYTE           EOT
        BYTE           EOT     En1
        BYTE   W96
// 055   ----------------------------------------
        BYTE   W96
// 056   ----------------------------------------
        BYTE   W96
// 057   ----------------------------------------
        BYTE   W96
// 058   ----------------------------------------
        BYTE           VOICE   60
        BYTE           PAN     c_v+6
        BYTE   W96
// 059   ----------------------------------------
        BYTE   W96
// 060   ----------------------------------------
        BYTE           N84     En2   v127
        BYTE   W96
// 061   ----------------------------------------
        BYTE           N36
        BYTE   W36
        BYTE                   Fs2
        BYTE   W36
        BYTE           N24     Gn2
        BYTE           N24     En2   v100
        BYTE   W24
// 062   ----------------------------------------
        BYTE           N96     An2   v127
        BYTE           N96     Fn2   v100
        BYTE   W96
// 063   ----------------------------------------
        BYTE                   Fn2   v127
        BYTE           N96     Dn2   v100
        BYTE   W96
// 064   ----------------------------------------
        BYTE                   En2   v127
        BYTE           N96     Bn1   v100
        BYTE   W96
// 065   ----------------------------------------
        BYTE           N36     Gn2   v127
        BYTE           N36     En2   v100
        BYTE   W36
        BYTE                   Bn2   v127
        BYTE           N36     Gn2   v100
        BYTE   W36
        BYTE           N24     Gn3   v127
        BYTE           N24     Bn2   v100
        BYTE   W24
// 066   ----------------------------------------
        BYTE           N96     Fn3   v127
        BYTE           TIE     An2   v100
        BYTE   W96
// 067   ----------------------------------------
        BYTE           N96     Dn3   v127
        BYTE   W96
// 068   ----------------------------------------
        BYTE           EOT     An2
        BYTE           N36     En3
        BYTE           N36     Bn2   v112
        BYTE   W36
        BYTE                   Fs3   v127
        BYTE           N36     Bn2   v112
        BYTE   W36
        BYTE           N24     Gn3   v127
        BYTE           N24     Bn2   v112
        BYTE   W24
// 069   ----------------------------------------
        BYTE           TIE     An3   v127
        BYTE           TIE     En3   v112
        BYTE   W96
// 070   ----------------------------------------
        BYTE   W24
        BYTE           EOT
        BYTE           EOT     An3
        BYTE   W12
        BYTE           N36     Bn3   v127
        BYTE           N36     Fn3   v112
        BYTE   W36
        BYTE           N24     An3   v127
        BYTE           N24     Fn3   v112
        BYTE   W24
// 071   ----------------------------------------
        BYTE           N36     Cn4   v127
        BYTE           N36     An3   v112
        BYTE   W36
        BYTE                   Bn3   v127
        BYTE           N36     Gn3   v112
        BYTE   W36
        BYTE           N24     An3   v127
        BYTE           N24     Fn3   v112
        BYTE   W24
// 072   ----------------------------------------
        BYTE           N36     Bn3   v127
        BYTE           N36     Gn3   v112
        BYTE   W36
        BYTE                   Gn3   v127
        BYTE           N36     En3   v112
        BYTE   W36
        BYTE           TIE     En3   v127
        BYTE           TIE     Bn2   v112
        BYTE   W24
// 073   ----------------------------------------
        BYTE   W96
// 074   ----------------------------------------
        BYTE   W24
        BYTE           EOT
        BYTE           EOT     En3
        BYTE   W12
        BYTE           N36     Dn3   v127
        BYTE           N36     An2   v112
        BYTE   W36
        BYTE           N24     Cn4   v127
        BYTE           N24     An3   v112
        BYTE   W24
// 075   ----------------------------------------
        BYTE           N36     An3   v127
        BYTE           N36     Fn3   v112
        BYTE   W36
        BYTE                   Bn3   v127
        BYTE           N36     Fn3   v112
        BYTE   W36
        BYTE           N24     Cn4   v127
        BYTE           N24     Fn3   v112
        BYTE   W24
// 076   ----------------------------------------
        BYTE           VOICE   62
        BYTE           VOL     30
        BYTE   GoTo
         POIN2  RepairedDEnotefix_0_LOOP
        BYTE   FINE

//****************** Track 1 (Midi-Chn.1) ******************//

RepairedDEnotefix_1:
        BYTE   KEYSH   RepairedDEnotefix_key+0
// 000   ----------------------------------------
RepairedDEnotefix_1_LOOP:
        BYTE           VOICE   60
        BYTE           VOL     28
        BYTE           PAN     c_v+10
        BYTE   W96
// 001   ----------------------------------------
        BYTE   W96
// 002   ----------------------------------------
        BYTE   W96
// 003   ----------------------------------------
        BYTE   W96
// 004   ----------------------------------------
        BYTE           N96     An3   v100
        BYTE           N96     Fs3
        BYTE   W96
// 005   ----------------------------------------
        BYTE                   Bn3
        BYTE           N96     Fs3
        BYTE   W96
// 006   ----------------------------------------
        BYTE           TIE
        BYTE           TIE     Dn3
        BYTE   W96
// 007   ----------------------------------------
        BYTE   W96
// 008   ----------------------------------------
        BYTE           EOT
        BYTE           EOT     Fs3
        BYTE           TIE     En3
        BYTE           TIE     Cn3
        BYTE   W96
// 009   ----------------------------------------
        BYTE   W96
// 010   ----------------------------------------
        BYTE           EOT
        BYTE           EOT     En3
        BYTE           TIE     An3   v108
        BYTE           TIE     En3
        BYTE   W96
// 011   ----------------------------------------
        BYTE   W96
// 012   ----------------------------------------
        BYTE           EOT
        BYTE           EOT     An3
        BYTE   W96
// 013   ----------------------------------------
        BYTE   W96
// 014   ----------------------------------------
        BYTE   W96
// 015   ----------------------------------------
        BYTE   W96
// 016   ----------------------------------------
        BYTE   W96
// 017   ----------------------------------------
        BYTE   W96
// 018   ----------------------------------------
        BYTE   W96
// 019   ----------------------------------------
        BYTE   W96
// 020   ----------------------------------------
        BYTE   W96
// 021   ----------------------------------------
        BYTE   W96
// 022   ----------------------------------------
        BYTE   W96
// 023   ----------------------------------------
        BYTE   W96
// 024   ----------------------------------------
        BYTE   W96
// 025   ----------------------------------------
        BYTE   W96
// 026   ----------------------------------------
        BYTE   W96
// 027   ----------------------------------------
        BYTE   W96
// 028   ----------------------------------------
        BYTE   W96
// 029   ----------------------------------------
        BYTE   W96
// 030   ----------------------------------------
        BYTE   W96
// 031   ----------------------------------------
        BYTE   W96
// 032   ----------------------------------------
        BYTE   W96
// 033   ----------------------------------------
        BYTE   W96
// 034   ----------------------------------------
        BYTE   W96
// 035   ----------------------------------------
        BYTE   W96
// 036   ----------------------------------------
        BYTE   W96
// 037   ----------------------------------------
        BYTE   W96
// 038   ----------------------------------------
        BYTE   W96
// 039   ----------------------------------------
        BYTE   W96
// 040   ----------------------------------------
        BYTE   W96
// 041   ----------------------------------------
        BYTE   W96
// 042   ----------------------------------------
        BYTE   W96
// 043   ----------------------------------------
        BYTE   W96
// 044   ----------------------------------------
        BYTE   W96
// 045   ----------------------------------------
        BYTE   W96
// 046   ----------------------------------------
        BYTE   W96
// 047   ----------------------------------------
        BYTE   W96
// 048   ----------------------------------------
        BYTE   W96
// 049   ----------------------------------------
        BYTE   W96
// 050   ----------------------------------------
        BYTE   W96
// 051   ----------------------------------------
        BYTE           VOICE   19
        BYTE           VOL     23
        BYTE           PAN     c_v+0
        BYTE   W96
// 052   ----------------------------------------
        BYTE           TIE     En2   v092
        BYTE           TIE     En1
        BYTE   W96
// 053   ----------------------------------------
        BYTE   W96
// 054   ----------------------------------------
        BYTE           EOT
        BYTE           EOT     En2
        BYTE           TIE     Fs2
        BYTE           TIE     Fs1
        BYTE   W96
// 055   ----------------------------------------
        BYTE   W96
// 056   ----------------------------------------
        BYTE           EOT
        BYTE           EOT     Fs2
        BYTE           TIE     An2
        BYTE           TIE     An1
        BYTE   W96
// 057   ----------------------------------------
        BYTE   W96
// 058   ----------------------------------------
        BYTE           EOT
        BYTE           EOT     An2
        BYTE           N96     Bn2
        BYTE           N96     Bn1
        BYTE   W96
// 059   ----------------------------------------
        BYTE                   Bn1
        BYTE           N96     Bn0
        BYTE   W96
// 060   ----------------------------------------
        BYTE   W96
// 061   ----------------------------------------
        BYTE   W96
// 062   ----------------------------------------
        BYTE   W96
// 063   ----------------------------------------
        BYTE   W96
// 064   ----------------------------------------
        BYTE   W96
// 065   ----------------------------------------
        BYTE   W96
// 066   ----------------------------------------
        BYTE   W96
// 067   ----------------------------------------
        BYTE   W96
// 068   ----------------------------------------
        BYTE   W96
// 069   ----------------------------------------
        BYTE   W96
// 070   ----------------------------------------
        BYTE   W96
// 071   ----------------------------------------
        BYTE   W96
// 072   ----------------------------------------
        BYTE   W96
// 073   ----------------------------------------
        BYTE   W96
// 074   ----------------------------------------
        BYTE           VOICE   60
        BYTE           VOL     28
        BYTE           PAN     c_v+10
        BYTE   W96
// 075   ----------------------------------------
        BYTE   W96
// 076   ----------------------------------------
        BYTE   GoTo
         POIN2  RepairedDEnotefix_1_LOOP
        BYTE   FINE

//****************** Track 2 (Midi-Chn.2) ******************//

RepairedDEnotefix_2:
        BYTE   KEYSH   RepairedDEnotefix_key+0
// 000   ----------------------------------------
RepairedDEnotefix_2_LOOP:
        BYTE           VOICE   48
        BYTE           PAN     c_v-7
        BYTE   W96
// 001   ----------------------------------------
        BYTE   W96
// 002   ----------------------------------------
        BYTE   W96
// 003   ----------------------------------------
        BYTE   W96
// 004   ----------------------------------------
        BYTE   W96
// 005   ----------------------------------------
        BYTE   W96
// 006   ----------------------------------------
        BYTE   W96
// 007   ----------------------------------------
        BYTE   W96
// 008   ----------------------------------------
        BYTE   W96
// 009   ----------------------------------------
        BYTE   W96
// 010   ----------------------------------------
        BYTE   W96
// 011   ----------------------------------------
        BYTE           VOL     23
        BYTE   W96
// 012   ----------------------------------------
        BYTE           TIE     Gn3   v100
        BYTE           TIE     En3
        BYTE           TIE     Bn2
        BYTE   W96
// 013   ----------------------------------------
        BYTE   W96
// 014   ----------------------------------------
RepairedDEnotefix_2_14:
        BYTE           EOT     Bn2
        BYTE                   En3
        BYTE                   Gn3
        BYTE           TIE     Fs3   v100
        BYTE           TIE     Dn3
        BYTE           TIE     Bn2
        BYTE   W96
        BYTE   PEND
// 015   ----------------------------------------
        BYTE   W96
// 016   ----------------------------------------
RepairedDEnotefix_2_16:
        BYTE           EOT     Bn2
        BYTE                   Dn3
        BYTE                   Fs3
        BYTE           TIE     En3   v100
        BYTE           TIE     Cn3
        BYTE           TIE     Bn2
        BYTE   W96
        BYTE   PEND
// 017   ----------------------------------------
        BYTE   W96
// 018   ----------------------------------------
RepairedDEnotefix_2_18:
        BYTE           EOT     Bn2
        BYTE                   Cn3
        BYTE                   En3
        BYTE           TIE     Fs3   v100
        BYTE           TIE     Dn3
        BYTE           TIE     Bn2
        BYTE   W96
        BYTE   PEND
// 019   ----------------------------------------
        BYTE   W96
// 020   ----------------------------------------
RepairedDEnotefix_2_20:
        BYTE           EOT     Bn2
        BYTE                   Dn3
        BYTE                   Fs3
        BYTE           TIE     Gn3   v096
        BYTE           TIE     En3
        BYTE           N96     Dn3   v108
        BYTE   W96
        BYTE   PEND
// 021   ----------------------------------------
        BYTE                   Cn3
        BYTE   W96
// 022   ----------------------------------------
        BYTE                   Bn2
        BYTE   W96
// 023   ----------------------------------------
        BYTE                   Cn3
        BYTE   W96
// 024   ----------------------------------------
        BYTE           EOT     En3
        BYTE                   Gn3
        BYTE           TIE     Gn3   v080
        BYTE           TIE     En3
        BYTE           TIE     Bn2
        BYTE   W96
// 025   ----------------------------------------
        BYTE   W96
// 026   ----------------------------------------
        BYTE           EOT
        BYTE           EOT     En3
        BYTE                   Gn3
        BYTE           N96     Fs3   v088
        BYTE           TIE     En3   v076
        BYTE           N96     Bn2   v088
        BYTE   W96
// 027   ----------------------------------------
        BYTE                   Dn4
        BYTE           N96     Bn3
        BYTE   W96
// 028   ----------------------------------------
        BYTE           EOT     En3
        BYTE           TIE     Gn3   v100
        BYTE           TIE     En3
        BYTE           TIE     Bn2
        BYTE   W96
// 029   ----------------------------------------
        BYTE   W96
// 030   ----------------------------------------
        BYTE   PATT
         POIN2  RepairedDEnotefix_2_14
// 031   ----------------------------------------
        BYTE   W96
// 032   ----------------------------------------
        BYTE   PATT
         POIN2  RepairedDEnotefix_2_16
// 033   ----------------------------------------
        BYTE   W96
// 034   ----------------------------------------
        BYTE   PATT
         POIN2  RepairedDEnotefix_2_18
// 035   ----------------------------------------
        BYTE   W96
// 036   ----------------------------------------
        BYTE   PATT
         POIN2  RepairedDEnotefix_2_20
// 037   ----------------------------------------
        BYTE           N96     Cn3   v108
        BYTE   W96
// 038   ----------------------------------------
        BYTE           EOT     En3
        BYTE                   Gn3
        BYTE           TIE     An3   v096
        BYTE           TIE     Fn3
        BYTE           N96     En3   v108
        BYTE   W96
// 039   ----------------------------------------
        BYTE                   Cn3
        BYTE   W96
// 040   ----------------------------------------
        BYTE           EOT     Fn3
        BYTE                   An3
        BYTE           TIE     Gn3   v100
        BYTE           TIE     En3
        BYTE           TIE     Bn2
        BYTE   W96
// 041   ----------------------------------------
        BYTE   W96
// 042   ----------------------------------------
        BYTE           EOT
        BYTE           EOT     En3
        BYTE                   Gn3
        BYTE           TIE     Bn2   v127
        BYTE           TIE     En3   v100
        BYTE           N96     Fs3   v127
        BYTE   W96
// 043   ----------------------------------------
        BYTE                   Dn4
        BYTE           N96     Bn3
        BYTE   W96
// 044   ----------------------------------------
        BYTE           EOT     En3
        BYTE                   Bn2
        BYTE           VOL     20
        BYTE           TIE     En5   v100
        BYTE           TIE     Bn4
        BYTE   W96
// 045   ----------------------------------------
        BYTE   W96
// 046   ----------------------------------------
        BYTE           EOT
        BYTE           EOT     En5
        BYTE           TIE     Bn4
        BYTE           TIE     Gn4
        BYTE   W96
// 047   ----------------------------------------
        BYTE   W96
// 048   ----------------------------------------
        BYTE           EOT
        BYTE           EOT     Bn4
        BYTE           TIE     En5
        BYTE           TIE     Bn4
        BYTE   W96
// 049   ----------------------------------------
        BYTE   W96
// 050   ----------------------------------------
        BYTE           EOT
        BYTE           EOT     En5
        BYTE           N36     Bn4
        BYTE           N36     Gn4
        BYTE   W36
        BYTE                   An4
        BYTE           N36     Fs4
        BYTE   W36
        BYTE           N24     Gn4
        BYTE           N24     En4
        BYTE   W24
// 051   ----------------------------------------
        BYTE           N36     An4
        BYTE           N36     Fs4
        BYTE   W36
        BYTE                   Gn4
        BYTE           N36     En4
        BYTE   W36
        BYTE           N24     Fs4
        BYTE           N24     Ds4
        BYTE   W24
// 052   ----------------------------------------
        BYTE   W96
// 053   ----------------------------------------
        BYTE   W96
// 054   ----------------------------------------
        BYTE   W96
// 055   ----------------------------------------
        BYTE   W96
// 056   ----------------------------------------
        BYTE   W96
// 057   ----------------------------------------
        BYTE   W96
// 058   ----------------------------------------
        BYTE   W96
// 059   ----------------------------------------
        BYTE   W72
        BYTE           N04     Fs3
        BYTE           N04     Ds3
        BYTE   W04
        BYTE                   Gn3
        BYTE           N04     En3
        BYTE   W04
        BYTE                   An3
        BYTE           N04     Fs3
        BYTE   W04
        BYTE                   Bn3
        BYTE           N04     Gn3
        BYTE   W04
        BYTE                   Cn4
        BYTE           N04     An3
        BYTE   W04
        BYTE                   Dn4
        BYTE           N04     Bn3
        BYTE   W04
// 060   ----------------------------------------
        BYTE           N36     En4
        BYTE           N36     Bn3
        BYTE   W36
        BYTE                   Fs4
        BYTE           N36     Bn3
        BYTE   W36
        BYTE           N24     Gn4
        BYTE           N24     Bn3
        BYTE   W24
// 061   ----------------------------------------
        BYTE           TIE     An4
        BYTE           TIE     En4
        BYTE   W96
// 062   ----------------------------------------
        BYTE   W24
        BYTE           EOT
        BYTE           EOT     An4
        BYTE   W12
        BYTE           N36     Bn4
        BYTE           N36     Fn4
        BYTE   W36
        BYTE           N24     An4
        BYTE           N24     Fn4
        BYTE   W24
// 063   ----------------------------------------
        BYTE           N36     Cn5
        BYTE           N36     An4
        BYTE   W36
        BYTE                   Bn4
        BYTE           N36     Gn4
        BYTE   W36
        BYTE           N24     An4
        BYTE           N24     Fn4
        BYTE   W24
// 064   ----------------------------------------
        BYTE           N36     Bn4
        BYTE           N36     Gn4
        BYTE   W36
        BYTE                   Gn4
        BYTE           N36     En4
        BYTE   W36
        BYTE           TIE
        BYTE           TIE     Bn3
        BYTE   W24
// 065   ----------------------------------------
        BYTE   W96
// 066   ----------------------------------------
        BYTE   W24
        BYTE           EOT
        BYTE           EOT     En4
        BYTE   W12
        BYTE           N36     Dn4
        BYTE           N36     An3
        BYTE   W36
        BYTE           N24     Cn5
        BYTE           N24     An4
        BYTE   W24
// 067   ----------------------------------------
        BYTE           N36
        BYTE           N36     Fn4
        BYTE   W36
        BYTE                   Bn4
        BYTE           N36     Fn4
        BYTE   W36
        BYTE           N24     Cn5
        BYTE           N24     Fn4
        BYTE   W24
// 068   ----------------------------------------
        BYTE           N96     Bn4
        BYTE           N96     En4
        BYTE   W96
// 069   ----------------------------------------
        BYTE                   En4
        BYTE           N96     An3
        BYTE   W96
// 070   ----------------------------------------
        BYTE                   Cn4
        BYTE           N96     An3
        BYTE   W96
// 071   ----------------------------------------
        BYTE           N36     En4
        BYTE           N36     Cn4
        BYTE   W36
        BYTE                   Dn4
        BYTE           N36     Bn3
        BYTE   W36
        BYTE           N24     Cn4
        BYTE           N24     An3
        BYTE   W24
// 072   ----------------------------------------
        BYTE           N96     Bn3
        BYTE           N96     Gn3
        BYTE   W96
// 073   ----------------------------------------
        BYTE           N36     En4
        BYTE           N36     Bn3
        BYTE   W36
        BYTE                   Bn4
        BYTE           N36     En4
        BYTE   W36
        BYTE           N24     Gn5
        BYTE           N24     Bn4
        BYTE   W24
// 074   ----------------------------------------
        BYTE           N96     Fn5
        BYTE           N96     An4
        BYTE   W96
// 075   ----------------------------------------
        BYTE   W96
// 076   ----------------------------------------
        BYTE           VOL     95
        BYTE   GoTo
         POIN2  RepairedDEnotefix_2_LOOP
        BYTE   FINE

//****************** Track 3 (Midi-Chn.3) ******************//

RepairedDEnotefix_3:
        BYTE   KEYSH   RepairedDEnotefix_key+0
// 000   ----------------------------------------
RepairedDEnotefix_3_LOOP:
        BYTE           VOICE   49
        BYTE           VOL     23
        BYTE           PAN     c_v-4
        BYTE           TIE     En2   v100
        BYTE           TIE     Bn1
        BYTE   W96
// 001   ----------------------------------------
        BYTE           N96     Bn2
        BYTE   W96
// 002   ----------------------------------------
        BYTE                   Cn3
        BYTE           TIE     An2   v080
        BYTE   W96
// 003   ----------------------------------------
        BYTE           N96     Dn3   v100
        BYTE   W96
// 004   ----------------------------------------
        BYTE           EOT     Bn1
        BYTE                   En2
        BYTE                   An2
        BYTE           N96     Fs3   v096
        BYTE           N96     En3
        BYTE   W96
// 005   ----------------------------------------
        BYTE                   Fs3
        BYTE           N96     En3
        BYTE   W96
// 006   ----------------------------------------
        BYTE           TIE     Dn3
        BYTE           TIE     Bn2
        BYTE   W96
// 007   ----------------------------------------
        BYTE   W96
// 008   ----------------------------------------
        BYTE           EOT
        BYTE           EOT     Dn3
        BYTE           TIE     Cn3
        BYTE           TIE     An2
        BYTE   W96
// 009   ----------------------------------------
        BYTE   W96
// 010   ----------------------------------------
        BYTE           EOT
        BYTE           EOT     Cn3
        BYTE           TIE     En3
        BYTE           TIE     Cn3
        BYTE   W96
// 011   ----------------------------------------
        BYTE   W96
// 012   ----------------------------------------
        BYTE           EOT
        BYTE           EOT     En3
        BYTE   W96
// 013   ----------------------------------------
        BYTE   W96
// 014   ----------------------------------------
        BYTE   W96
// 015   ----------------------------------------
        BYTE   W96
// 016   ----------------------------------------
        BYTE   W96
// 017   ----------------------------------------
        BYTE   W96
// 018   ----------------------------------------
        BYTE   W96
// 019   ----------------------------------------
        BYTE   W96
// 020   ----------------------------------------
        BYTE   W96
// 021   ----------------------------------------
        BYTE   W96
// 022   ----------------------------------------
        BYTE   W96
// 023   ----------------------------------------
        BYTE   W96
// 024   ----------------------------------------
        BYTE   W96
// 025   ----------------------------------------
        BYTE   W96
// 026   ----------------------------------------
        BYTE   W96
// 027   ----------------------------------------
        BYTE   W96
// 028   ----------------------------------------
        BYTE   W96
// 029   ----------------------------------------
        BYTE   W96
// 030   ----------------------------------------
        BYTE   W96
// 031   ----------------------------------------
        BYTE   W96
// 032   ----------------------------------------
        BYTE   W96
// 033   ----------------------------------------
        BYTE   W96
// 034   ----------------------------------------
        BYTE   W96
// 035   ----------------------------------------
        BYTE   W96
// 036   ----------------------------------------
        BYTE   W96
// 037   ----------------------------------------
        BYTE   W96
// 038   ----------------------------------------
        BYTE   W96
// 039   ----------------------------------------
        BYTE   W96
// 040   ----------------------------------------
        BYTE   W96
// 041   ----------------------------------------
        BYTE   W96
// 042   ----------------------------------------
        BYTE   W96
// 043   ----------------------------------------
        BYTE   W96
// 044   ----------------------------------------
        BYTE   W96
// 045   ----------------------------------------
        BYTE   W96
// 046   ----------------------------------------
        BYTE   W96
// 047   ----------------------------------------
        BYTE   W96
// 048   ----------------------------------------
        BYTE   W96
// 049   ----------------------------------------
        BYTE   W96
// 050   ----------------------------------------
        BYTE   W96
// 051   ----------------------------------------
        BYTE           VOICE   46
        BYTE           VOL     18
        BYTE           PAN     c_v+0
        BYTE   W96
// 052   ----------------------------------------
        BYTE           N24     En4   v112
        BYTE   W24
        BYTE                   Bn3
        BYTE   W24
        BYTE                   En4
        BYTE   W24
        BYTE                   Fs4
        BYTE   W24
// 053   ----------------------------------------
        BYTE                   Gn4
        BYTE   W24
        BYTE                   Bn3
        BYTE   W24
        BYTE                   En4
        BYTE   W24
        BYTE                   Fs4
        BYTE   W24
// 054   ----------------------------------------
        BYTE                   Gn4
        BYTE   W24
        BYTE                   An4
        BYTE   W24
        BYTE                   Gn4
        BYTE   W24
        BYTE                   Fs4
        BYTE   W24
// 055   ----------------------------------------
        BYTE                   En4
        BYTE   W24
        BYTE                   Dn4
        BYTE   W24
        BYTE                   Cn4
        BYTE   W24
        BYTE                   Bn3
        BYTE   W24
// 056   ----------------------------------------
        BYTE                   Cn5
        BYTE   W24
        BYTE                   Bn4
        BYTE   W24
        BYTE                   An4
        BYTE   W24
        BYTE                   Gn4
        BYTE   W24
// 057   ----------------------------------------
        BYTE                   Fs4
        BYTE   W24
        BYTE                   En4
        BYTE   W24
        BYTE                   Dn4
        BYTE   W24
        BYTE                   Cn4
        BYTE   W24
// 058   ----------------------------------------
        BYTE                   Bn3
        BYTE   W24
        BYTE                   Cn4
        BYTE   W24
        BYTE                   Bn3
        BYTE   W24
        BYTE                   An3
        BYTE   W24
// 059   ----------------------------------------
        BYTE                   Bn3
        BYTE   W24
        BYTE                   An3
        BYTE   W24
        BYTE                   Gn3
        BYTE   W24
        BYTE                   Fs3
        BYTE   W24
// 060   ----------------------------------------
        BYTE   W96
// 061   ----------------------------------------
        BYTE   W96
// 062   ----------------------------------------
        BYTE   W96
// 063   ----------------------------------------
        BYTE   W96
// 064   ----------------------------------------
        BYTE   W96
// 065   ----------------------------------------
        BYTE   W96
// 066   ----------------------------------------
        BYTE   W96
// 067   ----------------------------------------
        BYTE   W96
// 068   ----------------------------------------
        BYTE   W96
// 069   ----------------------------------------
        BYTE   W96
// 070   ----------------------------------------
        BYTE   W96
// 071   ----------------------------------------
        BYTE   W96
// 072   ----------------------------------------
        BYTE   W96
// 073   ----------------------------------------
        BYTE   W96
// 074   ----------------------------------------
        BYTE           VOICE   48
        BYTE           VOL     24
        BYTE           PAN     c_v-4
        BYTE   W96
// 075   ----------------------------------------
        BYTE   W96
// 076   ----------------------------------------
        BYTE           VOICE   49
        BYTE   GoTo
         POIN2  RepairedDEnotefix_3_LOOP
        BYTE   FINE

//****************** Track 4 (Midi-Chn.4) ******************//

RepairedDEnotefix_4:
        BYTE   KEYSH   RepairedDEnotefix_key+0
// 000   ----------------------------------------
RepairedDEnotefix_4_LOOP:
        BYTE           VOICE   42
        BYTE           PAN     c_v-16
        BYTE           VOL     28
        BYTE   W96
// 001   ----------------------------------------
        BYTE   W96
// 002   ----------------------------------------
        BYTE   W96
// 003   ----------------------------------------
        BYTE   W96
// 004   ----------------------------------------
        BYTE   W96
// 005   ----------------------------------------
        BYTE   W96
// 006   ----------------------------------------
        BYTE   W96
// 007   ----------------------------------------
        BYTE   W96
// 008   ----------------------------------------
        BYTE   W96
// 009   ----------------------------------------
        BYTE   W96
// 010   ----------------------------------------
        BYTE   W96
// 011   ----------------------------------------
        BYTE   W96
// 012   ----------------------------------------
        BYTE   W96
// 013   ----------------------------------------
        BYTE   W96
// 014   ----------------------------------------
        BYTE   W96
// 015   ----------------------------------------
        BYTE   W96
// 016   ----------------------------------------
        BYTE   W96
// 017   ----------------------------------------
        BYTE   W96
// 018   ----------------------------------------
        BYTE   W96
// 019   ----------------------------------------
        BYTE   W96
// 020   ----------------------------------------
        BYTE   W96
// 021   ----------------------------------------
        BYTE   W96
// 022   ----------------------------------------
        BYTE   W96
// 023   ----------------------------------------
        BYTE   W96
// 024   ----------------------------------------
        BYTE   W96
// 025   ----------------------------------------
        BYTE   W96
// 026   ----------------------------------------
        BYTE   W96
// 027   ----------------------------------------
        BYTE   W96
// 028   ----------------------------------------
        BYTE   W96
// 029   ----------------------------------------
        BYTE   W96
// 030   ----------------------------------------
        BYTE   W96
// 031   ----------------------------------------
        BYTE   W96
// 032   ----------------------------------------
        BYTE   W96
// 033   ----------------------------------------
        BYTE   W96
// 034   ----------------------------------------
        BYTE   W96
// 035   ----------------------------------------
        BYTE   W96
// 036   ----------------------------------------
        BYTE   W96
// 037   ----------------------------------------
        BYTE   W96
// 038   ----------------------------------------
        BYTE   W96
// 039   ----------------------------------------
        BYTE   W96
// 040   ----------------------------------------
        BYTE   W96
// 041   ----------------------------------------
        BYTE   W96
// 042   ----------------------------------------
        BYTE   W96
// 043   ----------------------------------------
        BYTE           N96     Cn2   v108
        BYTE   W96
// 044   ----------------------------------------
RepairedDEnotefix_4_44:
        BYTE           N48     En2   v108
        BYTE   W48
        BYTE                   Gn2
        BYTE   W48
        BYTE   PEND
// 045   ----------------------------------------
        BYTE                   Fs2
        BYTE   W48
        BYTE                   Gn2
        BYTE   W48
// 046   ----------------------------------------
        BYTE           N96     En2
        BYTE   W96
// 047   ----------------------------------------
        BYTE                   Cn2
        BYTE   W96
// 048   ----------------------------------------
        BYTE   PATT
         POIN2  RepairedDEnotefix_4_44
// 049   ----------------------------------------
        BYTE           N36     Ds2   v116
        BYTE   W36
        BYTE                   En2
        BYTE   W36
        BYTE           N24     Fs2
        BYTE   W24
// 050   ----------------------------------------
        BYTE           N36
        BYTE   W36
        BYTE                   Gn2
        BYTE   W36
        BYTE           N24     An2
        BYTE   W24
// 051   ----------------------------------------
        BYTE   W96
// 052   ----------------------------------------
        BYTE   W96
// 053   ----------------------------------------
        BYTE   W96
// 054   ----------------------------------------
        BYTE   W96
// 055   ----------------------------------------
        BYTE   W96
// 056   ----------------------------------------
        BYTE   W96
// 057   ----------------------------------------
        BYTE   W96
// 058   ----------------------------------------
        BYTE   W96
// 059   ----------------------------------------
        BYTE   W96
// 060   ----------------------------------------
        BYTE   W96
// 061   ----------------------------------------
        BYTE   W96
// 062   ----------------------------------------
        BYTE   W96
// 063   ----------------------------------------
        BYTE   W96
// 064   ----------------------------------------
        BYTE   W96
// 065   ----------------------------------------
        BYTE   W96
// 066   ----------------------------------------
        BYTE   W96
// 067   ----------------------------------------
        BYTE   W96
// 068   ----------------------------------------
        BYTE   W96
// 069   ----------------------------------------
        BYTE   W96
// 070   ----------------------------------------
        BYTE   W96
// 071   ----------------------------------------
        BYTE   W96
// 072   ----------------------------------------
        BYTE   W96
// 073   ----------------------------------------
        BYTE   W96
// 074   ----------------------------------------
        BYTE   W96
// 075   ----------------------------------------
        BYTE   W96
// 076   ----------------------------------------
        BYTE   GoTo
         POIN2  RepairedDEnotefix_4_LOOP
        BYTE   FINE

//****************** Track 5 (Midi-Chn.5) ******************//

RepairedDEnotefix_5:
        BYTE   KEYSH   RepairedDEnotefix_key+0
// 000   ----------------------------------------
RepairedDEnotefix_5_LOOP:
        BYTE   W96
// 001   ----------------------------------------
        BYTE   W96
// 002   ----------------------------------------
        BYTE   W96
// 003   ----------------------------------------
        BYTE   W96
// 004   ----------------------------------------
        BYTE   W96
// 005   ----------------------------------------
        BYTE   W96
// 006   ----------------------------------------
        BYTE   W96
// 007   ----------------------------------------
        BYTE   W96
// 008   ----------------------------------------
        BYTE   W96
// 009   ----------------------------------------
        BYTE   W96
// 010   ----------------------------------------
        BYTE   W96
// 011   ----------------------------------------
        BYTE   W96
// 012   ----------------------------------------
        BYTE   W96
// 013   ----------------------------------------
        BYTE   W96
// 014   ----------------------------------------
        BYTE   W96
// 015   ----------------------------------------
        BYTE   W96
// 016   ----------------------------------------
        BYTE   W96
// 017   ----------------------------------------
        BYTE   W96
// 018   ----------------------------------------
        BYTE   W96
// 019   ----------------------------------------
        BYTE   W96
// 020   ----------------------------------------
        BYTE   W96
// 021   ----------------------------------------
        BYTE   W96
// 022   ----------------------------------------
        BYTE   W96
// 023   ----------------------------------------
        BYTE   W96
// 024   ----------------------------------------
        BYTE   W96
// 025   ----------------------------------------
        BYTE   W96
// 026   ----------------------------------------
        BYTE   W96
// 027   ----------------------------------------
        BYTE   W96
// 028   ----------------------------------------
        BYTE   W96
// 029   ----------------------------------------
        BYTE   W96
// 030   ----------------------------------------
        BYTE   W96
// 031   ----------------------------------------
        BYTE   W96
// 032   ----------------------------------------
        BYTE   W96
// 033   ----------------------------------------
        BYTE   W96
// 034   ----------------------------------------
        BYTE   W96
// 035   ----------------------------------------
        BYTE   W96
// 036   ----------------------------------------
        BYTE   W96
// 037   ----------------------------------------
        BYTE   W96
// 038   ----------------------------------------
        BYTE   W96
// 039   ----------------------------------------
        BYTE   W96
// 040   ----------------------------------------
        BYTE   W96
// 041   ----------------------------------------
        BYTE   W96
// 042   ----------------------------------------
        BYTE   W96
// 043   ----------------------------------------
        BYTE   W96
// 044   ----------------------------------------
        BYTE   W96
// 045   ----------------------------------------
        BYTE   W96
// 046   ----------------------------------------
        BYTE   W96
// 047   ----------------------------------------
        BYTE   W96
// 048   ----------------------------------------
        BYTE   W96
// 049   ----------------------------------------
        BYTE   W96
// 050   ----------------------------------------
        BYTE   W96
// 051   ----------------------------------------
        BYTE           VOICE   46
        BYTE           VOL     23
        BYTE   W96
// 052   ----------------------------------------
        BYTE   W18
        BYTE           N24     En4   v088
        BYTE   W24
        BYTE                   Bn3
        BYTE   W24
        BYTE                   En4
        BYTE   W24
        BYTE                   Fs4
        BYTE   W06
// 053   ----------------------------------------
        BYTE   W18
        BYTE                   Gn4
        BYTE   W24
        BYTE                   Bn3
        BYTE   W24
        BYTE                   En4
        BYTE   W24
        BYTE                   Fs4
        BYTE   W06
// 054   ----------------------------------------
        BYTE   W18
        BYTE                   Gn4
        BYTE   W24
        BYTE                   An4
        BYTE   W24
        BYTE                   Gn4
        BYTE   W24
        BYTE                   Fs4
        BYTE   W06
// 055   ----------------------------------------
        BYTE   W18
        BYTE                   En4
        BYTE   W24
        BYTE                   Dn4
        BYTE   W24
        BYTE                   Cn4
        BYTE   W24
        BYTE                   Bn3
        BYTE   W06
// 056   ----------------------------------------
        BYTE   W18
        BYTE                   Cn5
        BYTE   W24
        BYTE                   Bn4
        BYTE   W24
        BYTE                   An4
        BYTE   W24
        BYTE                   Gn4
        BYTE   W06
// 057   ----------------------------------------
        BYTE   W18
        BYTE                   Fs4
        BYTE   W24
        BYTE                   En4
        BYTE   W24
        BYTE                   Dn4
        BYTE   W24
        BYTE                   Cn4
        BYTE   W06
// 058   ----------------------------------------
        BYTE   W18
        BYTE                   Bn3
        BYTE   W24
        BYTE                   Cn4
        BYTE   W24
        BYTE                   Bn3
        BYTE   W24
        BYTE                   An3
        BYTE   W06
// 059   ----------------------------------------
        BYTE   W18
        BYTE                   Bn3
        BYTE   W24
        BYTE                   An3
        BYTE   W24
        BYTE                   Gn3
        BYTE   W24
        BYTE                   Fs3
        BYTE   W06
// 060   ----------------------------------------
        BYTE   W96
// 061   ----------------------------------------
        BYTE   W96
// 062   ----------------------------------------
        BYTE   W96
// 063   ----------------------------------------
        BYTE   W96
// 064   ----------------------------------------
        BYTE   W96
// 065   ----------------------------------------
        BYTE   W96
// 066   ----------------------------------------
        BYTE   W96
// 067   ----------------------------------------
        BYTE   W96
// 068   ----------------------------------------
        BYTE           VOICE   68
        BYTE   W96
// 069   ----------------------------------------
        BYTE           N36     En4   v108
        BYTE   W36
        BYTE                   Fs4
        BYTE   W36
        BYTE           N03     Gn4   v116
        BYTE   W03
        BYTE                   Fs4
        BYTE   W03
        BYTE           N18     Gn4   v108
        BYTE   W18
// 070   ----------------------------------------
        BYTE           N96     An4
        BYTE   W96
// 071   ----------------------------------------
        BYTE           N36     Cn5
        BYTE   W36
        BYTE                   Bn4
        BYTE   W36
        BYTE           N24     An4
        BYTE   W24
// 072   ----------------------------------------
        BYTE           N36     Bn4
        BYTE   W36
        BYTE                   Gn4
        BYTE   W36
        BYTE           N24     En4
        BYTE   W24
// 073   ----------------------------------------
        BYTE           N36
        BYTE   W36
        BYTE                   Gn4
        BYTE   W36
        BYTE           N24     Bn4
        BYTE   W24
// 074   ----------------------------------------
        BYTE           N96     An4   v096
        BYTE   W96
// 075   ----------------------------------------
        BYTE   W96
// 076   ----------------------------------------
        BYTE           VOICE   0
        BYTE           VOL     95
        BYTE   GoTo
         POIN2  RepairedDEnotefix_5_LOOP
        BYTE   FINE

//****************** Track 6 (Midi-Chn.6) ******************//

RepairedDEnotefix_6:
        BYTE   KEYSH   RepairedDEnotefix_key+0
// 000   ----------------------------------------
RepairedDEnotefix_6_LOOP:
        BYTE           VOICE   40
        BYTE           PAN     c_v-8
        BYTE           VOL     30
        BYTE           N12     En1   v127
        BYTE   W12
        BYTE                   En1
        BYTE   W24
        BYTE                   En1
        BYTE   W24
        BYTE                   En1
        BYTE   W24
        BYTE                   En1
        BYTE   W12
// 001   ----------------------------------------
RepairedDEnotefix_6_1:
        BYTE           N12     En1   v127
        BYTE   W12
        BYTE                   En1
        BYTE   W24
        BYTE                   En1
        BYTE   W24
        BYTE                   En1
        BYTE   W24
        BYTE                   En1
        BYTE   W12
        BYTE   PEND
// 002   ----------------------------------------
        BYTE   PATT
         POIN2  RepairedDEnotefix_6_1
// 003   ----------------------------------------
        BYTE   PATT
         POIN2  RepairedDEnotefix_6_1
// 004   ----------------------------------------
        BYTE   PATT
         POIN2  RepairedDEnotefix_6_1
// 005   ----------------------------------------
        BYTE   PATT
         POIN2  RepairedDEnotefix_6_1
// 006   ----------------------------------------
        BYTE   PATT
         POIN2  RepairedDEnotefix_6_1
// 007   ----------------------------------------
        BYTE   PATT
         POIN2  RepairedDEnotefix_6_1
// 008   ----------------------------------------
        BYTE   PATT
         POIN2  RepairedDEnotefix_6_1
// 009   ----------------------------------------
        BYTE   PATT
         POIN2  RepairedDEnotefix_6_1
// 010   ----------------------------------------
        BYTE   PATT
         POIN2  RepairedDEnotefix_6_1
// 011   ----------------------------------------
        BYTE   PATT
         POIN2  RepairedDEnotefix_6_1
// 012   ----------------------------------------
        BYTE   PATT
         POIN2  RepairedDEnotefix_6_1
// 013   ----------------------------------------
        BYTE   PATT
         POIN2  RepairedDEnotefix_6_1
// 014   ----------------------------------------
        BYTE   PATT
         POIN2  RepairedDEnotefix_6_1
// 015   ----------------------------------------
        BYTE   PATT
         POIN2  RepairedDEnotefix_6_1
// 016   ----------------------------------------
        BYTE   PATT
         POIN2  RepairedDEnotefix_6_1
// 017   ----------------------------------------
        BYTE   PATT
         POIN2  RepairedDEnotefix_6_1
// 018   ----------------------------------------
        BYTE   PATT
         POIN2  RepairedDEnotefix_6_1
// 019   ----------------------------------------
        BYTE   PATT
         POIN2  RepairedDEnotefix_6_1
// 020   ----------------------------------------
RepairedDEnotefix_6_20:
        BYTE           N12     Cn1   v127
        BYTE   W12
        BYTE                   Cn1
        BYTE   W24
        BYTE                   Cn1
        BYTE   W24
        BYTE                   Cn1
        BYTE   W24
        BYTE                   Cn1
        BYTE   W12
        BYTE   PEND
// 021   ----------------------------------------
        BYTE   PATT
         POIN2  RepairedDEnotefix_6_20
// 022   ----------------------------------------
        BYTE   PATT
         POIN2  RepairedDEnotefix_6_20
// 023   ----------------------------------------
        BYTE   PATT
         POIN2  RepairedDEnotefix_6_20
// 024   ----------------------------------------
        BYTE   PATT
         POIN2  RepairedDEnotefix_6_1
// 025   ----------------------------------------
        BYTE   PATT
         POIN2  RepairedDEnotefix_6_1
// 026   ----------------------------------------
        BYTE   PATT
         POIN2  RepairedDEnotefix_6_1
// 027   ----------------------------------------
        BYTE   PATT
         POIN2  RepairedDEnotefix_6_1
// 028   ----------------------------------------
        BYTE   PATT
         POIN2  RepairedDEnotefix_6_1
// 029   ----------------------------------------
        BYTE   PATT
         POIN2  RepairedDEnotefix_6_1
// 030   ----------------------------------------
        BYTE   PATT
         POIN2  RepairedDEnotefix_6_1
// 031   ----------------------------------------
        BYTE   PATT
         POIN2  RepairedDEnotefix_6_1
// 032   ----------------------------------------
        BYTE   PATT
         POIN2  RepairedDEnotefix_6_1
// 033   ----------------------------------------
        BYTE   PATT
         POIN2  RepairedDEnotefix_6_1
// 034   ----------------------------------------
        BYTE   PATT
         POIN2  RepairedDEnotefix_6_1
// 035   ----------------------------------------
        BYTE   PATT
         POIN2  RepairedDEnotefix_6_1
// 036   ----------------------------------------
        BYTE   PATT
         POIN2  RepairedDEnotefix_6_20
// 037   ----------------------------------------
        BYTE   PATT
         POIN2  RepairedDEnotefix_6_20
// 038   ----------------------------------------
RepairedDEnotefix_6_38:
        BYTE           N12     Fn1   v127
        BYTE   W12
        BYTE                   Fn1
        BYTE   W24
        BYTE                   Fn1
        BYTE   W24
        BYTE                   Fn1
        BYTE   W24
        BYTE                   Fn1
        BYTE   W12
        BYTE   PEND
// 039   ----------------------------------------
        BYTE   PATT
         POIN2  RepairedDEnotefix_6_38
// 040   ----------------------------------------
        BYTE   PATT
         POIN2  RepairedDEnotefix_6_1
// 041   ----------------------------------------
        BYTE   PATT
         POIN2  RepairedDEnotefix_6_1
// 042   ----------------------------------------
        BYTE   PATT
         POIN2  RepairedDEnotefix_6_1
// 043   ----------------------------------------
        BYTE   PATT
         POIN2  RepairedDEnotefix_6_1
// 044   ----------------------------------------
        BYTE   PATT
         POIN2  RepairedDEnotefix_6_20
// 045   ----------------------------------------
        BYTE   PATT
         POIN2  RepairedDEnotefix_6_20
// 046   ----------------------------------------
        BYTE   PATT
         POIN2  RepairedDEnotefix_6_1
// 047   ----------------------------------------
        BYTE   PATT
         POIN2  RepairedDEnotefix_6_1
// 048   ----------------------------------------
        BYTE   PATT
         POIN2  RepairedDEnotefix_6_20
// 049   ----------------------------------------
        BYTE   PATT
         POIN2  RepairedDEnotefix_6_20
// 050   ----------------------------------------
        BYTE           N36     Bn0   v127
        BYTE   W36
        BYTE                   Cs1
        BYTE   W36
        BYTE           N24     Ds1
        BYTE   W24
// 051   ----------------------------------------
        BYTE           N36
        BYTE   W36
        BYTE                   En1
        BYTE   W36
        BYTE           N24     Fs1
        BYTE   W24
// 052   ----------------------------------------
RepairedDEnotefix_6_52:
        BYTE           N12     En1   v120
        BYTE   W24
        BYTE                   En1
        BYTE   W72
        BYTE   PEND
// 053   ----------------------------------------
        BYTE   PATT
         POIN2  RepairedDEnotefix_6_52
// 054   ----------------------------------------
RepairedDEnotefix_6_54:
        BYTE           N12     Fs1   v120
        BYTE   W24
        BYTE                   Fs1
        BYTE   W72
        BYTE   PEND
// 055   ----------------------------------------
        BYTE   PATT
         POIN2  RepairedDEnotefix_6_54
// 056   ----------------------------------------
RepairedDEnotefix_6_56:
        BYTE           N12     An0   v120
        BYTE   W24
        BYTE                   An0
        BYTE   W72
        BYTE   PEND
// 057   ----------------------------------------
        BYTE   PATT
         POIN2  RepairedDEnotefix_6_56
// 058   ----------------------------------------
RepairedDEnotefix_6_58:
        BYTE           N12     Bn0   v120
        BYTE   W24
        BYTE                   Bn0
        BYTE   W72
        BYTE   PEND
// 059   ----------------------------------------
        BYTE   PATT
         POIN2  RepairedDEnotefix_6_58
// 060   ----------------------------------------
        BYTE   PATT
         POIN2  RepairedDEnotefix_6_1
// 061   ----------------------------------------
        BYTE   PATT
         POIN2  RepairedDEnotefix_6_1
// 062   ----------------------------------------
        BYTE   PATT
         POIN2  RepairedDEnotefix_6_38
// 063   ----------------------------------------
RepairedDEnotefix_6_63:
        BYTE           N12     Dn1   v127
        BYTE   W12
        BYTE                   Dn1
        BYTE   W24
        BYTE                   Dn1
        BYTE   W24
        BYTE                   Dn1
        BYTE   W24
        BYTE                   Dn1
        BYTE   W12
        BYTE   PEND
// 064   ----------------------------------------
        BYTE   PATT
         POIN2  RepairedDEnotefix_6_1
// 065   ----------------------------------------
        BYTE   PATT
         POIN2  RepairedDEnotefix_6_1
// 066   ----------------------------------------
        BYTE   PATT
         POIN2  RepairedDEnotefix_6_38
// 067   ----------------------------------------
        BYTE   PATT
         POIN2  RepairedDEnotefix_6_63
// 068   ----------------------------------------
        BYTE   PATT
         POIN2  RepairedDEnotefix_6_1
// 069   ----------------------------------------
        BYTE   PATT
         POIN2  RepairedDEnotefix_6_1
// 070   ----------------------------------------
        BYTE   PATT
         POIN2  RepairedDEnotefix_6_38
// 071   ----------------------------------------
        BYTE   PATT
         POIN2  RepairedDEnotefix_6_63
// 072   ----------------------------------------
        BYTE   PATT
         POIN2  RepairedDEnotefix_6_1
// 073   ----------------------------------------
        BYTE   PATT
         POIN2  RepairedDEnotefix_6_1
// 074   ----------------------------------------
        BYTE   PATT
         POIN2  RepairedDEnotefix_6_38
// 075   ----------------------------------------
        BYTE   PATT
         POIN2  RepairedDEnotefix_6_63
// 076   ----------------------------------------
        BYTE   GoTo
         POIN2  RepairedDEnotefix_6_LOOP
        BYTE   FINE

//****************** Track 7 (Midi-Chn.7) ******************//

RepairedDEnotefix_7:
        BYTE   KEYSH   RepairedDEnotefix_key+0
// 000   ----------------------------------------
RepairedDEnotefix_7_LOOP:
        BYTE           VOICE   52
        BYTE           PAN     c_v-16
        BYTE           VOL     25
        BYTE   W96
// 001   ----------------------------------------
        BYTE   W96
// 002   ----------------------------------------
        BYTE   W96
// 003   ----------------------------------------
        BYTE   W96
// 004   ----------------------------------------
        BYTE   W96
// 005   ----------------------------------------
        BYTE   W96
// 006   ----------------------------------------
        BYTE   W96
// 007   ----------------------------------------
        BYTE   W96
// 008   ----------------------------------------
        BYTE   W96
// 009   ----------------------------------------
        BYTE   W96
// 010   ----------------------------------------
        BYTE   W96
// 011   ----------------------------------------
        BYTE   W96
// 012   ----------------------------------------
        BYTE   W96
// 013   ----------------------------------------
        BYTE   W96
// 014   ----------------------------------------
        BYTE   W96
// 015   ----------------------------------------
        BYTE   W96
// 016   ----------------------------------------
        BYTE   W96
// 017   ----------------------------------------
        BYTE   W96
// 018   ----------------------------------------
        BYTE   W96
// 019   ----------------------------------------
        BYTE   W96
// 020   ----------------------------------------
        BYTE   W96
// 021   ----------------------------------------
        BYTE   W96
// 022   ----------------------------------------
        BYTE   W96
// 023   ----------------------------------------
        BYTE   W96
// 024   ----------------------------------------
        BYTE   W96
// 025   ----------------------------------------
        BYTE   W96
// 026   ----------------------------------------
        BYTE   W96
// 027   ----------------------------------------
        BYTE   W96
// 028   ----------------------------------------
        BYTE   W96
// 029   ----------------------------------------
        BYTE   W96
// 030   ----------------------------------------
        BYTE   W96
// 031   ----------------------------------------
        BYTE   W96
// 032   ----------------------------------------
        BYTE   W96
// 033   ----------------------------------------
        BYTE   W96
// 034   ----------------------------------------
        BYTE   W96
// 035   ----------------------------------------
        BYTE   W96
// 036   ----------------------------------------
        BYTE   W96
// 037   ----------------------------------------
        BYTE   W96
// 038   ----------------------------------------
        BYTE   W96
// 039   ----------------------------------------
        BYTE   W96
// 040   ----------------------------------------
        BYTE   W96
// 041   ----------------------------------------
        BYTE   W96
// 042   ----------------------------------------
        BYTE   W96
// 043   ----------------------------------------
        BYTE   W96
// 044   ----------------------------------------
        BYTE   W96
// 045   ----------------------------------------
        BYTE   W96
// 046   ----------------------------------------
        BYTE   W96
// 047   ----------------------------------------
        BYTE   W96
// 048   ----------------------------------------
        BYTE   W96
// 049   ----------------------------------------
        BYTE   W96
// 050   ----------------------------------------
        BYTE   W96
// 051   ----------------------------------------
        BYTE   W96
// 052   ----------------------------------------
        BYTE           TIE     Bn4   v100
        BYTE           TIE     En4   v092
        BYTE           TIE     En2   v100
        BYTE   W96
// 053   ----------------------------------------
        BYTE   W96
// 054   ----------------------------------------
        BYTE           EOT
        BYTE           EOT     Bn4
        BYTE           N96     Cn5
        BYTE           TIE     Fs2
        BYTE   W96
// 055   ----------------------------------------
        BYTE           N96     An4
        BYTE   W96
// 056   ----------------------------------------
        BYTE           EOT     Fs2
        BYTE                   En4
        BYTE           TIE     An4
        BYTE           TIE     Fs4   v092
        BYTE           TIE     An2   v100
        BYTE   W96
// 057   ----------------------------------------
        BYTE   W96
// 058   ----------------------------------------
        BYTE           EOT
        BYTE           EOT     Fs4
        BYTE                   An4
        BYTE           N96     Gn4
        BYTE           TIE     Bn3   v092
        BYTE           N96     Bn2   v100
        BYTE   W90
        BYTE                   Fs4
        BYTE   W06
// 059   ----------------------------------------
        BYTE                   Bn1
        BYTE   W96
// 060   ----------------------------------------
        BYTE           EOT     Bn3
        BYTE   W96
// 061   ----------------------------------------
        BYTE   W96
// 062   ----------------------------------------
        BYTE   W96
// 063   ----------------------------------------
        BYTE   W96
// 064   ----------------------------------------
        BYTE   W96
// 065   ----------------------------------------
        BYTE   W96
// 066   ----------------------------------------
        BYTE   W96
// 067   ----------------------------------------
        BYTE   W96
// 068   ----------------------------------------
        BYTE   W96
// 069   ----------------------------------------
        BYTE   W96
// 070   ----------------------------------------
        BYTE   W96
// 071   ----------------------------------------
        BYTE   W96
// 072   ----------------------------------------
        BYTE   W96
// 073   ----------------------------------------
        BYTE   W96
// 074   ----------------------------------------
        BYTE   W96
// 075   ----------------------------------------
        BYTE   W96
// 076   ----------------------------------------
        BYTE   GoTo
         POIN2  RepairedDEnotefix_7_LOOP
        BYTE   FINE

//****************** Track 8 (Midi-Chn.8) ******************//

RepairedDEnotefix_8:
        BYTE   KEYSH   RepairedDEnotefix_key+0
// 000   ----------------------------------------
RepairedDEnotefix_8_LOOP:
        BYTE           VOICE   127
        BYTE           VOL     25
        BYTE           N12     Dn1   v064
        BYTE   W12
        BYTE           N06     Dn1   v088
        BYTE   W06
        BYTE                   Dn1   v076
        BYTE   W06
        BYTE           N12     Dn1   v092
        BYTE   W12
        BYTE                   Dn1   v088
        BYTE   W12
        BYTE           N06     Dn1   v080
        BYTE   W06
        BYTE                   Dn1   v076
        BYTE   W06
        BYTE           N12     Dn1   v092
        BYTE   W12
        BYTE           N06     Dn1   v088
        BYTE   W06
        BYTE                   Dn1   v080
        BYTE   W06
        BYTE           N12     Dn1   v076
        BYTE   W12
// 001   ----------------------------------------
RepairedDEnotefix_8_1:
        BYTE           N12     Dn1   v092
        BYTE   W12
        BYTE           N06     Dn1   v088
        BYTE   W06
        BYTE                   Dn1   v076
        BYTE   W06
        BYTE           N12     Dn1   v092
        BYTE   W12
        BYTE                   Dn1   v088
        BYTE   W12
        BYTE           N06     Dn1   v080
        BYTE   W06
        BYTE                   Dn1   v076
        BYTE   W06
        BYTE           N12     Dn1   v092
        BYTE   W12
        BYTE           N06     Dn1   v088
        BYTE   W06
        BYTE                   Dn1   v080
        BYTE   W06
        BYTE                   Dn1   v076
        BYTE   W06
        BYTE                   Dn1   v092
        BYTE   W06
        BYTE   PEND
// 002   ----------------------------------------
        BYTE           N12     Dn1   v076
        BYTE   W12
        BYTE           N06     Dn1   v088
        BYTE   W06
        BYTE                   Dn1   v076
        BYTE   W06
        BYTE           N12     Dn1   v092
        BYTE   W12
        BYTE                   Dn1   v088
        BYTE   W12
        BYTE           N06     Dn1   v080
        BYTE   W06
        BYTE                   Dn1   v076
        BYTE   W06
        BYTE           N12     Dn1   v092
        BYTE   W12
        BYTE           N06     Dn1   v088
        BYTE   W06
        BYTE                   Dn1   v080
        BYTE   W06
        BYTE           N12     Dn1   v076
        BYTE   W12
// 003   ----------------------------------------
        BYTE   PATT
         POIN2  RepairedDEnotefix_8_1
// 004   ----------------------------------------
RepairedDEnotefix_8_4:
        BYTE           N12     Dn1   v096
        BYTE   W12
        BYTE           N06
        BYTE   W06
        BYTE                   Dn1
        BYTE   W06
        BYTE           N12     Dn1   v092
        BYTE   W12
        BYTE                   Dn1   v080
        BYTE   W12
        BYTE           N06     Dn1   v088
        BYTE   W06
        BYTE                   Dn1   v080
        BYTE   W06
        BYTE           N12     Dn1   v096
        BYTE   W12
        BYTE           N06     Dn1   v092
        BYTE   W06
        BYTE                   Dn1   v088
        BYTE   W06
        BYTE           N12     Dn1   v080
        BYTE   W12
        BYTE   PEND
// 005   ----------------------------------------
RepairedDEnotefix_8_5:
        BYTE           N12     Dn1   v076
        BYTE   W12
        BYTE           N06     Dn1   v092
        BYTE   W06
        BYTE                   Dn1   v088
        BYTE   W06
        BYTE           N12     Dn1   v076
        BYTE   W12
        BYTE                   Dn1   v092
        BYTE   W12
        BYTE           N06     Dn1   v088
        BYTE   W06
        BYTE                   Dn1   v080
        BYTE   W06
        BYTE           N12     Dn1   v076
        BYTE   W12
        BYTE           N06     Dn1   v092
        BYTE   W06
        BYTE                   Dn1   v088
        BYTE   W06
        BYTE                   Dn1   v080
        BYTE   W06
        BYTE                   Dn1   v076
        BYTE   W06
        BYTE   PEND
// 006   ----------------------------------------
RepairedDEnotefix_8_6:
        BYTE           N12     Dn1   v092
        BYTE   W12
        BYTE           N06     Dn1   v076
        BYTE   W06
        BYTE                   Dn1   v088
        BYTE   W06
        BYTE           N12     Dn1   v076
        BYTE   W12
        BYTE                   Dn1   v092
        BYTE   W12
        BYTE           N06     Dn1   v088
        BYTE   W06
        BYTE                   Dn1   v080
        BYTE   W06
        BYTE           N12     Dn1   v076
        BYTE   W12
        BYTE           N06     Dn1   v092
        BYTE   W06
        BYTE                   Dn1   v088
        BYTE   W06
        BYTE           N12     Dn1   v080
        BYTE   W12
        BYTE   PEND
// 007   ----------------------------------------
        BYTE   PATT
         POIN2  RepairedDEnotefix_8_5
// 008   ----------------------------------------
        BYTE   PATT
         POIN2  RepairedDEnotefix_8_6
// 009   ----------------------------------------
        BYTE   PATT
         POIN2  RepairedDEnotefix_8_5
// 010   ----------------------------------------
        BYTE           N96     Gn2   v100
        BYTE           N12     Dn1   v092
        BYTE   W12
        BYTE           N06     Dn1   v076
        BYTE   W06
        BYTE                   Dn1   v088
        BYTE   W06
        BYTE           N12     Dn1   v076
        BYTE   W12
        BYTE                   Dn1   v092
        BYTE   W12
        BYTE           N06     Dn1   v088
        BYTE   W06
        BYTE                   Dn1   v080
        BYTE   W06
        BYTE           N12     Dn1   v076
        BYTE   W12
        BYTE           N06     Dn1   v092
        BYTE   W06
        BYTE                   Dn1   v088
        BYTE   W06
        BYTE           N12     Dn1   v080
        BYTE   W12
// 011   ----------------------------------------
        BYTE           N96     An2   v127
        BYTE           N12     Dn1   v076
        BYTE   W12
        BYTE           N06     Dn1   v092
        BYTE   W06
        BYTE                   Dn1   v088
        BYTE   W06
        BYTE           N12     Dn1   v076
        BYTE   W12
        BYTE                   Dn1   v092
        BYTE   W12
        BYTE           N06     Dn1   v088
        BYTE   W06
        BYTE                   Dn1   v080
        BYTE   W06
        BYTE                   Dn1   v076
        BYTE   W06
        BYTE                   Dn1   v092
        BYTE   W06
        BYTE                   Dn1   v088
        BYTE   W06
        BYTE                   Dn1   v080
        BYTE   W06
        BYTE                   Dn1   v076
        BYTE   W06
        BYTE                   Dn1   v092
        BYTE   W06
// 012   ----------------------------------------
        BYTE           N96     Cs2   v127
        BYTE           N12     Dn1   v096
        BYTE   W12
        BYTE           N06
        BYTE   W06
        BYTE                   Dn1
        BYTE   W06
        BYTE           N12     Dn1   v092
        BYTE   W12
        BYTE                   Dn1   v080
        BYTE   W12
        BYTE           N06     Dn1   v088
        BYTE   W06
        BYTE                   Dn1   v080
        BYTE   W06
        BYTE           N12     Dn1   v096
        BYTE   W12
        BYTE           N06     Dn1   v092
        BYTE   W06
        BYTE                   Dn1   v088
        BYTE   W06
        BYTE           N12     Dn1   v080
        BYTE   W12
// 013   ----------------------------------------
        BYTE   PATT
         POIN2  RepairedDEnotefix_8_5
// 014   ----------------------------------------
        BYTE   PATT
         POIN2  RepairedDEnotefix_8_6
// 015   ----------------------------------------
        BYTE   PATT
         POIN2  RepairedDEnotefix_8_5
// 016   ----------------------------------------
        BYTE   PATT
         POIN2  RepairedDEnotefix_8_6
// 017   ----------------------------------------
        BYTE   PATT
         POIN2  RepairedDEnotefix_8_5
// 018   ----------------------------------------
        BYTE   PATT
         POIN2  RepairedDEnotefix_8_6
// 019   ----------------------------------------
        BYTE   PATT
         POIN2  RepairedDEnotefix_8_5
// 020   ----------------------------------------
        BYTE           N12     Dn1   v092
        BYTE   W12
        BYTE           N06
        BYTE   W06
        BYTE                   Dn1   v080
        BYTE   W06
        BYTE           N12     Dn1   v072
        BYTE   W12
        BYTE                   Dn1   v076
        BYTE   W12
        BYTE           N06     Dn1   v080
        BYTE   W06
        BYTE                   Dn1   v072
        BYTE   W06
        BYTE           N12     Dn1   v068
        BYTE   W12
        BYTE           N06     Dn1   v060
        BYTE   W06
        BYTE                   Dn1   v052
        BYTE   W06
        BYTE           N12
        BYTE   W12
// 021   ----------------------------------------
        BYTE                   Dn1   v072
        BYTE   W12
        BYTE           N06
        BYTE   W06
        BYTE                   Dn1   v068
        BYTE   W06
        BYTE           N12     Dn1   v060
        BYTE   W12
        BYTE                   Dn1   v072
        BYTE   W12
        BYTE           N06     Dn1   v068
        BYTE   W06
        BYTE                   Dn1   v060
        BYTE   W06
        BYTE           N12     Dn1   v068
        BYTE   W12
        BYTE           N06     Dn1   v072
        BYTE   W06
        BYTE                   Dn1
        BYTE   W06
        BYTE                   Dn1   v068
        BYTE   W06
        BYTE                   Dn1   v072
        BYTE   W06
// 022   ----------------------------------------
        BYTE           TIE     An2   v127
        BYTE           N12     Dn1   v068
        BYTE   W12
        BYTE           N06     Dn1   v060
        BYTE   W06
        BYTE                   Dn1   v052
        BYTE   W06
        BYTE           N12
        BYTE   W12
        BYTE                   Dn1   v072
        BYTE   W12
        BYTE           N06
        BYTE   W06
        BYTE                   Dn1   v068
        BYTE   W06
        BYTE           N12     Dn1   v060
        BYTE   W12
        BYTE           N06     Dn1   v072
        BYTE   W06
        BYTE                   Dn1   v068
        BYTE   W06
        BYTE           N12     Dn1   v060
        BYTE   W12
// 023   ----------------------------------------
        BYTE                   Dn1   v068
        BYTE   W12
        BYTE           N06     Dn1   v072
        BYTE   W06
        BYTE                   Dn1
        BYTE   W06
        BYTE           N12     Dn1   v068
        BYTE   W12
        BYTE                   Dn1   v072
        BYTE   W12
        BYTE           N06     Dn1   v068
        BYTE   W06
        BYTE                   Dn1   v060
        BYTE   W06
        BYTE                   Dn1   v052
        BYTE   W06
        BYTE                   Dn1
        BYTE   W06
        BYTE                   Dn1   v072
        BYTE   W06
        BYTE                   Dn1
        BYTE   W06
        BYTE                   Dn1   v068
        BYTE   W06
        BYTE                   Dn1   v060
        BYTE   W06
// 024   ----------------------------------------
        BYTE           EOT     An2
        BYTE           N96     Cs2   v127
        BYTE           N12     Dn1   v072
        BYTE   W12
        BYTE           N06     Dn1   v068
        BYTE   W06
        BYTE                   Dn1   v060
        BYTE   W06
        BYTE           N12     Dn1   v068
        BYTE   W12
        BYTE                   Dn1   v072
        BYTE   W12
        BYTE           N06
        BYTE   W06
        BYTE                   Dn1   v068
        BYTE   W06
        BYTE           N12     Dn1   v072
        BYTE   W12
        BYTE           N06     Dn1   v068
        BYTE   W06
        BYTE                   Dn1   v060
        BYTE   W06
        BYTE           N12     Dn1   v052
        BYTE   W12
// 025   ----------------------------------------
        BYTE                   Dn1
        BYTE   W12
        BYTE           N06     Dn1   v072
        BYTE   W06
        BYTE                   Dn1
        BYTE   W06
        BYTE           N12     Dn1   v068
        BYTE   W12
        BYTE                   Dn1   v060
        BYTE   W12
        BYTE           N06     Dn1   v072
        BYTE   W06
        BYTE                   Dn1   v068
        BYTE   W06
        BYTE           N12     Dn1   v060
        BYTE   W12
        BYTE           N06     Dn1   v068
        BYTE   W06
        BYTE                   Dn1   v072
        BYTE   W06
        BYTE                   Dn1   v096
        BYTE   W06
        BYTE                   Dn1
        BYTE   W06
// 026   ----------------------------------------
RepairedDEnotefix_8_26:
        BYTE           N12     Dn1   v096
        BYTE   W12
        BYTE           N06     Dn1   v092
        BYTE   W06
        BYTE                   Dn1   v080
        BYTE   W06
        BYTE           N12     Dn1   v088
        BYTE   W12
        BYTE                   Dn1   v080
        BYTE   W12
        BYTE           N06     Dn1   v096
        BYTE   W06
        BYTE                   Dn1   v092
        BYTE   W06
        BYTE           N12     Dn1   v088
        BYTE   W12
        BYTE           N06     Dn1   v080
        BYTE   W06
        BYTE                   Dn1   v076
        BYTE   W06
        BYTE           N12     Dn1   v092
        BYTE   W12
        BYTE   PEND
// 027   ----------------------------------------
RepairedDEnotefix_8_27:
        BYTE           N12     Dn1   v088
        BYTE   W12
        BYTE           N06     Dn1   v076
        BYTE   W06
        BYTE                   Dn1   v092
        BYTE   W06
        BYTE           N12     Dn1   v088
        BYTE   W12
        BYTE                   Dn1   v080
        BYTE   W12
        BYTE           N06     Dn1   v076
        BYTE   W06
        BYTE                   Dn1   v092
        BYTE   W06
        BYTE                   Dn1   v088
        BYTE   W06
        BYTE                   Dn1   v080
        BYTE   W06
        BYTE                   Dn1   v076
        BYTE   W06
        BYTE                   Dn1   v092
        BYTE   W06
        BYTE                   Dn1   v076
        BYTE   W06
        BYTE                   Dn1   v088
        BYTE   W06
        BYTE   PEND
// 028   ----------------------------------------
        BYTE           N96     Cs2   v127
        BYTE           N12     Dn1   v076
        BYTE   W12
        BYTE           N06     Dn1   v092
        BYTE   W06
        BYTE                   Dn1   v088
        BYTE   W06
        BYTE           N12     Dn1   v080
        BYTE   W12
        BYTE                   Dn1   v076
        BYTE   W12
        BYTE           N06     Dn1   v092
        BYTE   W06
        BYTE                   Dn1   v088
        BYTE   W06
        BYTE           N12     Dn1   v080
        BYTE   W12
        BYTE           N06     Dn1   v076
        BYTE   W06
        BYTE                   Dn1   v092
        BYTE   W06
        BYTE           N12     Dn1   v088
        BYTE   W12
// 029   ----------------------------------------
RepairedDEnotefix_8_29:
        BYTE           N12     Dn1   v076
        BYTE   W12
        BYTE           N06     Dn1   v092
        BYTE   W06
        BYTE                   Dn1   v088
        BYTE   W06
        BYTE           N12     Dn1   v080
        BYTE   W12
        BYTE                   Dn1   v076
        BYTE   W12
        BYTE           N06     Dn1   v092
        BYTE   W06
        BYTE                   Dn1   v088
        BYTE   W06
        BYTE           N12     Dn1   v080
        BYTE   W12
        BYTE           N06     Dn1   v076
        BYTE   W06
        BYTE                   Dn1   v092
        BYTE   W06
        BYTE                   Dn1   v076
        BYTE   W06
        BYTE                   Dn1   v088
        BYTE   W06
        BYTE   PEND
// 030   ----------------------------------------
RepairedDEnotefix_8_30:
        BYTE           N12     Dn1   v076
        BYTE   W12
        BYTE           N06     Dn1   v092
        BYTE   W06
        BYTE                   Dn1   v088
        BYTE   W06
        BYTE           N12     Dn1   v080
        BYTE   W12
        BYTE                   Dn1   v076
        BYTE   W12
        BYTE           N06     Dn1   v092
        BYTE   W06
        BYTE                   Dn1   v088
        BYTE   W06
        BYTE           N12     Dn1   v080
        BYTE   W12
        BYTE           N06     Dn1   v076
        BYTE   W06
        BYTE                   Dn1   v092
        BYTE   W06
        BYTE           N12     Dn1   v088
        BYTE   W12
        BYTE   PEND
// 031   ----------------------------------------
        BYTE   PATT
         POIN2  RepairedDEnotefix_8_29
// 032   ----------------------------------------
        BYTE   PATT
         POIN2  RepairedDEnotefix_8_30
// 033   ----------------------------------------
        BYTE           N12     Dn1   v076
        BYTE   W12
        BYTE           N06     Dn1   v092
        BYTE   W06
        BYTE                   Dn1   v088
        BYTE   W06
        BYTE           N12     Dn1   v080
        BYTE   W12
        BYTE                   Dn1   v076
        BYTE   W12
        BYTE           N06     Dn1   v092
        BYTE   W06
        BYTE                   Dn1   v088
        BYTE   W06
        BYTE           N12     Dn1   v080
        BYTE   W12
        BYTE           N06     Dn1   v076
        BYTE   W06
        BYTE                   Dn1   v096
        BYTE   W06
        BYTE                   Dn1
        BYTE   W06
        BYTE                   Dn1
        BYTE   W06
// 034   ----------------------------------------
        BYTE   PATT
         POIN2  RepairedDEnotefix_8_26
// 035   ----------------------------------------
RepairedDEnotefix_8_35:
        BYTE           N12     Dn1   v088
        BYTE   W12
        BYTE           N06     Dn1   v076
        BYTE   W06
        BYTE                   Dn1   v092
        BYTE   W06
        BYTE           N12     Dn1   v088
        BYTE   W12
        BYTE                   Dn1   v080
        BYTE   W12
        BYTE           N06     Dn1   v076
        BYTE   W06
        BYTE                   Dn1   v092
        BYTE   W06
        BYTE           N12     Dn1   v088
        BYTE   W12
        BYTE           N06     Dn1   v080
        BYTE   W06
        BYTE                   Dn1   v076
        BYTE   W06
        BYTE                   Dn1   v092
        BYTE   W06
        BYTE                   Dn1   v076
        BYTE   W06
        BYTE   PEND
// 036   ----------------------------------------
        BYTE           N12     Dn1   v088
        BYTE   W12
        BYTE           N06     Dn1   v076
        BYTE   W06
        BYTE                   Dn1   v092
        BYTE   W06
        BYTE           N12     Dn1   v088
        BYTE   W12
        BYTE                   Dn1   v080
        BYTE   W12
        BYTE           N06     Dn1   v076
        BYTE   W06
        BYTE                   Dn1   v092
        BYTE   W06
        BYTE           N12     Dn1   v088
        BYTE   W12
        BYTE           N06     Dn1   v080
        BYTE   W06
        BYTE                   Dn1   v076
        BYTE   W06
        BYTE           N12     Dn1   v092
        BYTE   W12
// 037   ----------------------------------------
        BYTE   PATT
         POIN2  RepairedDEnotefix_8_35
// 038   ----------------------------------------
RepairedDEnotefix_8_38:
        BYTE           TIE     An2   v127
        BYTE           N12     Dn1   v088
        BYTE   W12
        BYTE           N06     Dn1   v076
        BYTE   W06
        BYTE                   Dn1   v092
        BYTE   W06
        BYTE           N12     Dn1   v088
        BYTE   W12
        BYTE                   Dn1   v080
        BYTE   W12
        BYTE           N06     Dn1   v076
        BYTE   W06
        BYTE                   Dn1   v092
        BYTE   W06
        BYTE           N12     Dn1   v088
        BYTE   W12
        BYTE           N06     Dn1   v080
        BYTE   W06
        BYTE                   Dn1   v076
        BYTE   W06
        BYTE           N12     Dn1   v092
        BYTE   W12
        BYTE   PEND
// 039   ----------------------------------------
        BYTE   PATT
         POIN2  RepairedDEnotefix_8_35
// 040   ----------------------------------------
        BYTE           EOT     An2
        BYTE           N96     Cs2   v127
        BYTE           N12     Dn1   v088
        BYTE   W12
        BYTE           N06     Dn1   v076
        BYTE   W06
        BYTE                   Dn1   v092
        BYTE   W06
        BYTE           N12     Dn1   v088
        BYTE   W12
        BYTE                   Dn1   v080
        BYTE   W12
        BYTE           N06     Dn1   v076
        BYTE   W06
        BYTE                   Dn1   v092
        BYTE   W06
        BYTE           N12     Dn1   v088
        BYTE   W12
        BYTE           N06     Dn1   v080
        BYTE   W06
        BYTE                   Dn1   v076
        BYTE   W06
        BYTE           N12     Dn1   v092
        BYTE   W12
// 041   ----------------------------------------
        BYTE   PATT
         POIN2  RepairedDEnotefix_8_35
// 042   ----------------------------------------
        BYTE   PATT
         POIN2  RepairedDEnotefix_8_38
// 043   ----------------------------------------
        BYTE   PATT
         POIN2  RepairedDEnotefix_8_27
// 044   ----------------------------------------
        BYTE           EOT     An2
        BYTE           N96     Cs2   v127
        BYTE           N12     Dn1   v076
        BYTE   W12
        BYTE           N06     Dn1   v092
        BYTE   W06
        BYTE                   Dn1   v088
        BYTE   W06
        BYTE           N12     Dn1   v080
        BYTE   W12
        BYTE                   Dn1   v076
        BYTE   W12
        BYTE           N06     Dn1   v092
        BYTE   W06
        BYTE                   Dn1   v088
        BYTE   W06
        BYTE           N12     Dn1   v080
        BYTE   W12
        BYTE           N06     Dn1   v076
        BYTE   W06
        BYTE                   Dn1   v092
        BYTE   W06
        BYTE           N12     Dn1   v088
        BYTE   W12
// 045   ----------------------------------------
        BYTE   PATT
         POIN2  RepairedDEnotefix_8_29
// 046   ----------------------------------------
        BYTE   PATT
         POIN2  RepairedDEnotefix_8_30
// 047   ----------------------------------------
        BYTE   PATT
         POIN2  RepairedDEnotefix_8_29
// 048   ----------------------------------------
        BYTE   PATT
         POIN2  RepairedDEnotefix_8_30
// 049   ----------------------------------------
        BYTE           N12     Dn1   v076
        BYTE   W12
        BYTE           N06     Dn1   v092
        BYTE   W06
        BYTE                   Dn1   v088
        BYTE   W06
        BYTE           N12     Dn1   v080
        BYTE   W12
        BYTE                   Dn1   v076
        BYTE   W12
        BYTE           N06     Dn1   v092
        BYTE   W06
        BYTE                   Dn1   v088
        BYTE   W06
        BYTE           N12     Dn1   v080
        BYTE   W12
        BYTE           N06     Dn1   v076
        BYTE   W06
        BYTE                   Dn1   v092
        BYTE   W06
        BYTE                   Dn1   v096
        BYTE   W06
        BYTE                   Dn1
        BYTE   W06
// 050   ----------------------------------------
        BYTE           TIE     An2   v127
        BYTE           N12     Dn1   v096
        BYTE   W12
        BYTE           N06     Dn1   v092
        BYTE   W06
        BYTE                   Dn1   v080
        BYTE   W06
        BYTE           N12     Dn1   v088
        BYTE   W12
        BYTE                   Dn1   v080
        BYTE   W12
        BYTE           N06     Dn1   v096
        BYTE   W06
        BYTE                   Dn1   v092
        BYTE   W06
        BYTE           N12     Dn1   v088
        BYTE   W12
        BYTE           N06     Dn1   v080
        BYTE   W06
        BYTE                   Dn1   v076
        BYTE   W06
        BYTE           N12     Dn1   v092
        BYTE   W12
// 051   ----------------------------------------
        BYTE   PATT
         POIN2  RepairedDEnotefix_8_27
// 052   ----------------------------------------
        BYTE           EOT     An2
        BYTE           N96     Cs2   v127
        BYTE           N24     Ds1
        BYTE           N01     Dn1   v076
        BYTE   W01
        BYTE           N11     Dn1   v092
        BYTE   W23
        BYTE           N24     Ds1   v112
        BYTE           N12     Dn1   v088
        BYTE   W12
        BYTE                   Dn1   v080
        BYTE   W12
        BYTE                   Dn1   v076
        BYTE   W12
        BYTE                   Dn1   v092
        BYTE   W12
        BYTE                   Dn1   v088
        BYTE   W12
        BYTE                   Dn1   v080
        BYTE   W12
// 053   ----------------------------------------
        BYTE                   Dn1   v076
        BYTE   W12
        BYTE           N01     Dn1   v092
        BYTE   W01
        BYTE           N11     Dn1   v088
        BYTE   W11
        BYTE           N12     Dn1   v076
        BYTE   W12
        BYTE                   Dn1   v092
        BYTE   W12
        BYTE                   Dn1   v088
        BYTE   W24
        BYTE                   Dn1   v080
        BYTE   W12
        BYTE                   Dn1   v076
        BYTE   W12
// 054   ----------------------------------------
        BYTE           N24     Ds1   v127
        BYTE           N01     Dn1   v092
        BYTE   W01
        BYTE           N11     Dn1   v088
        BYTE   W23
        BYTE           N24     Ds1   v112
        BYTE           N12     Dn1   v080
        BYTE   W12
        BYTE                   Dn1   v076
        BYTE   W12
        BYTE                   Dn1   v092
        BYTE   W12
        BYTE                   Dn1   v096
        BYTE   W12
        BYTE                   Dn1
        BYTE   W12
        BYTE                   Dn1
        BYTE   W12
// 055   ----------------------------------------
        BYTE                   Dn1   v092
        BYTE   W12
        BYTE           N01     Dn1   v080
        BYTE   W01
        BYTE           N11     Dn1   v088
        BYTE   W11
        BYTE           N12     Dn1   v080
        BYTE   W12
        BYTE                   Dn1   v096
        BYTE   W12
        BYTE                   Dn1   v092
        BYTE   W24
        BYTE                   Dn1   v088
        BYTE   W12
        BYTE                   Dn1   v080
        BYTE   W12
// 056   ----------------------------------------
        BYTE           N24     Ds1   v127
        BYTE           N01     Dn1   v076
        BYTE   W01
        BYTE           N11     Dn1   v092
        BYTE   W23
        BYTE           N24     Ds1   v112
        BYTE           N12     Dn1   v088
        BYTE   W12
        BYTE                   Dn1   v076
        BYTE   W12
        BYTE                   Dn1   v092
        BYTE   W12
        BYTE                   Dn1   v088
        BYTE   W12
        BYTE                   Dn1   v080
        BYTE   W12
        BYTE                   Dn1   v076
        BYTE   W12
// 057   ----------------------------------------
        BYTE                   Dn1   v092
        BYTE   W12
        BYTE           N01     Dn1   v088
        BYTE   W01
        BYTE           N11     Dn1   v080
        BYTE   W11
        BYTE           N12     Dn1   v076
        BYTE   W12
        BYTE                   Dn1   v092
        BYTE   W12
        BYTE                   Dn1   v076
        BYTE   W24
        BYTE                   Dn1   v088
        BYTE   W12
        BYTE                   Dn1   v076
        BYTE   W12
// 058   ----------------------------------------
        BYTE           TIE     An2   v127
        BYTE           N24     Ds1
        BYTE           N01     Dn1   v092
        BYTE   W01
        BYTE           N11     Dn1   v088
        BYTE   W23
        BYTE           N24     Ds1   v112
        BYTE           N12     Dn1   v080
        BYTE   W12
        BYTE                   Dn1   v076
        BYTE   W12
        BYTE                   Dn1   v092
        BYTE   W12
        BYTE                   Dn1   v088
        BYTE   W12
        BYTE                   Dn1   v080
        BYTE   W12
        BYTE                   Dn1   v076
        BYTE   W12
// 059   ----------------------------------------
        BYTE           N24     Ds1   v127
        BYTE           N12     Dn1   v092
        BYTE   W12
        BYTE           N01     Dn1   v088
        BYTE   W01
        BYTE           N11     Dn1   v076
        BYTE   W11
        BYTE           N24     Ds1   v120
        BYTE           N12     Dn1   v092
        BYTE   W12
        BYTE                   Dn1   v088
        BYTE   W12
        BYTE                   Dn1   v080
        BYTE   W24
        BYTE           N06     Dn1   v076
        BYTE   W06
        BYTE           N03     Dn1   v092
        BYTE   W03
        BYTE                   Dn1   v088
        BYTE   W03
        BYTE           N06     Dn1   v080
        BYTE   W06
        BYTE                   Dn1   v076
        BYTE   W06
// 060   ----------------------------------------
        BYTE           EOT     An2
        BYTE           N96     Cs2   v127
        BYTE           N24     Ds1
        BYTE           N12     Dn1   v092
        BYTE   W12
        BYTE           N06     Dn1   v076
        BYTE   W06
        BYTE                   Dn1   v088
        BYTE   W06
        BYTE           N12     Dn1   v076
        BYTE   W12
        BYTE                   Dn1   v092
        BYTE   W12
        BYTE           N06     Dn1   v088
        BYTE   W06
        BYTE                   Dn1   v080
        BYTE   W06
        BYTE           N12     Dn1   v076
        BYTE   W12
        BYTE           N06     Dn1   v092
        BYTE   W06
        BYTE                   Dn1   v088
        BYTE   W06
        BYTE           N12     Dn1   v080
        BYTE   W12
// 061   ----------------------------------------
        BYTE   PATT
         POIN2  RepairedDEnotefix_8_5
// 062   ----------------------------------------
        BYTE   PATT
         POIN2  RepairedDEnotefix_8_6
// 063   ----------------------------------------
        BYTE   PATT
         POIN2  RepairedDEnotefix_8_5
// 064   ----------------------------------------
        BYTE   PATT
         POIN2  RepairedDEnotefix_8_6
// 065   ----------------------------------------
        BYTE   PATT
         POIN2  RepairedDEnotefix_8_5
// 066   ----------------------------------------
        BYTE   PATT
         POIN2  RepairedDEnotefix_8_6
// 067   ----------------------------------------
        BYTE           N12     Dn1   v076
        BYTE   W12
        BYTE           N06     Dn1   v092
        BYTE   W06
        BYTE                   Dn1   v088
        BYTE   W06
        BYTE           N12     Dn1   v076
        BYTE   W12
        BYTE                   Dn1   v092
        BYTE   W12
        BYTE           N06     Dn1   v088
        BYTE   W06
        BYTE                   Dn1   v080
        BYTE   W06
        BYTE                   Dn1   v076
        BYTE   W06
        BYTE                   Dn1   v092
        BYTE   W06
        BYTE                   Dn1   v088
        BYTE   W06
        BYTE                   Dn1   v080
        BYTE   W06
        BYTE                   Dn1   v076
        BYTE   W06
        BYTE                   Dn1   v096
        BYTE   W06
// 068   ----------------------------------------
        BYTE   PATT
         POIN2  RepairedDEnotefix_8_4
// 069   ----------------------------------------
        BYTE   PATT
         POIN2  RepairedDEnotefix_8_5
// 070   ----------------------------------------
        BYTE   PATT
         POIN2  RepairedDEnotefix_8_6
// 071   ----------------------------------------
        BYTE   PATT
         POIN2  RepairedDEnotefix_8_5
// 072   ----------------------------------------
        BYTE   PATT
         POIN2  RepairedDEnotefix_8_6
// 073   ----------------------------------------
        BYTE   PATT
         POIN2  RepairedDEnotefix_8_5
// 074   ----------------------------------------
        BYTE           TIE     An2   v127
        BYTE           N12     Dn1   v092
        BYTE   W12
        BYTE           N06     Dn1   v076
        BYTE   W06
        BYTE                   Dn1   v088
        BYTE   W06
        BYTE           N12     Dn1   v076
        BYTE   W12
        BYTE                   Dn1   v092
        BYTE   W12
        BYTE           N06     Dn1   v088
        BYTE   W06
        BYTE                   Dn1   v080
        BYTE   W06
        BYTE           N12     Dn1   v076
        BYTE   W12
        BYTE           N06     Dn1   v092
        BYTE   W06
        BYTE                   Dn1   v088
        BYTE   W06
        BYTE           N12     Dn1   v080
        BYTE   W12
// 075   ----------------------------------------
        BYTE                   Dn1   v076
        BYTE   W12
        BYTE           N06     Dn1   v092
        BYTE   W06
        BYTE                   Dn1   v088
        BYTE   W06
        BYTE           N12     Dn1   v076
        BYTE   W12
        BYTE                   Dn1   v092
        BYTE   W12
        BYTE           N06     Dn1   v088
        BYTE   W06
        BYTE                   Dn1   v080
        BYTE   W06
        BYTE                   Dn1   v076
        BYTE   W06
        BYTE                   Dn1   v092
        BYTE   W06
        BYTE                   Dn1   v088
        BYTE   W06
        BYTE                   Dn1   v080
        BYTE   W06
        BYTE                   Dn1   v076
        BYTE   W06
        BYTE                   Dn1   v092
        BYTE   W06
// 076   ----------------------------------------
        BYTE           EOT     An2
        BYTE   GoTo
         POIN2  RepairedDEnotefix_8_LOOP
        BYTE   FINE

//***************** Track 9 (Midi-Chn.10) ******************//

RepairedDEnotefix_9:
        BYTE   KEYSH   RepairedDEnotefix_key+0
// 000   ----------------------------------------
RepairedDEnotefix_9_LOOP:
        BYTE           VOICE   61
        BYTE           PAN     c_v+12
        BYTE           VOL     26
        BYTE   W96
// 001   ----------------------------------------
        BYTE   W96
// 002   ----------------------------------------
        BYTE   W96
// 003   ----------------------------------------
        BYTE   W96
// 004   ----------------------------------------
        BYTE   W96
// 005   ----------------------------------------
        BYTE   W96
// 006   ----------------------------------------
        BYTE   W96
// 007   ----------------------------------------
        BYTE   W96
// 008   ----------------------------------------
        BYTE   W96
// 009   ----------------------------------------
        BYTE   W96
// 010   ----------------------------------------
        BYTE   W96
// 011   ----------------------------------------
        BYTE   W96
// 012   ----------------------------------------
        BYTE   W96
// 013   ----------------------------------------
        BYTE   W96
// 014   ----------------------------------------
        BYTE   W96
// 015   ----------------------------------------
        BYTE   W96
// 016   ----------------------------------------
        BYTE   W96
// 017   ----------------------------------------
        BYTE   W96
// 018   ----------------------------------------
        BYTE   W96
// 019   ----------------------------------------
        BYTE   W96
// 020   ----------------------------------------
        BYTE   W96
// 021   ----------------------------------------
        BYTE   W96
// 022   ----------------------------------------
        BYTE   W96
// 023   ----------------------------------------
        BYTE   W96
// 024   ----------------------------------------
        BYTE   W96
// 025   ----------------------------------------
        BYTE   W96
// 026   ----------------------------------------
        BYTE   W96
// 027   ----------------------------------------
        BYTE   W96
// 028   ----------------------------------------
        BYTE   W96
// 029   ----------------------------------------
        BYTE   W96
// 030   ----------------------------------------
        BYTE   W96
// 031   ----------------------------------------
        BYTE   W96
// 032   ----------------------------------------
        BYTE   W96
// 033   ----------------------------------------
        BYTE   W96
// 034   ----------------------------------------
        BYTE   W96
// 035   ----------------------------------------
        BYTE   W96
// 036   ----------------------------------------
        BYTE   W96
// 037   ----------------------------------------
        BYTE   W96
// 038   ----------------------------------------
        BYTE   W96
// 039   ----------------------------------------
        BYTE   W96
// 040   ----------------------------------------
        BYTE   W96
// 041   ----------------------------------------
        BYTE   W96
// 042   ----------------------------------------
        BYTE   W96
// 043   ----------------------------------------
        BYTE   W96
// 044   ----------------------------------------
RepairedDEnotefix_9_44:
        BYTE           N08     En4   v120
        BYTE           N08     Cn4   v100
        BYTE   W18
        BYTE                   En4   v120
        BYTE           N08     Cn4   v108
        BYTE   W18
        BYTE           N06     En4   v120
        BYTE           N06     Cn4   v100
        BYTE   W06
        BYTE                   Fs4   v116
        BYTE           N06     Dn4   v096
        BYTE   W06
        BYTE           N60     Gn4   v116
        BYTE           N60     En4   v096
        BYTE   W48
        BYTE   PEND
// 045   ----------------------------------------
        BYTE   W16
        BYTE           N16     An4   v116
        BYTE           N16     Fs4   v096
        BYTE   W16
        BYTE                   Gn4   v116
        BYTE           N16     En4   v096
        BYTE   W16
        BYTE                   Fs4   v116
        BYTE           N16     Dn4   v096
        BYTE   W16
        BYTE                   En4   v116
        BYTE           N16     Cn4   v096
        BYTE   W16
        BYTE                   Dn4   v116
        BYTE           N16     Bn3   v096
        BYTE   W16
// 046   ----------------------------------------
        BYTE           N36     Bn3   v116
        BYTE           N36     Fs3   v096
        BYTE   W36
        BYTE           TIE     En4   v116
        BYTE           TIE     Gn3   v096
        BYTE   W60
// 047   ----------------------------------------
        BYTE   W84
        BYTE           EOT
        BYTE           EOT     En4
        BYTE   W12
// 048   ----------------------------------------
        BYTE   PATT
         POIN2  RepairedDEnotefix_9_44
// 049   ----------------------------------------
        BYTE   W16
        BYTE           N16     An4   v116
        BYTE           N16     Fs4   v096
        BYTE   W16
        BYTE                   Gn4   v116
        BYTE           N16     En4   v096
        BYTE   W16
        BYTE                   Bn4   v116
        BYTE           N16     Gn4   v096
        BYTE   W16
        BYTE                   An4   v116
        BYTE           N16     Fs4   v096
        BYTE   W16
        BYTE                   Gn4   v116
        BYTE           N16     En4   v096
        BYTE   W16
// 050   ----------------------------------------
        BYTE           N36     Bn4   v116
        BYTE           N36     Gn4   v096
        BYTE   W36
        BYTE                   An4   v116
        BYTE           N36     Fs4   v096
        BYTE   W36
        BYTE           N24     Gn4   v116
        BYTE           N24     En4   v096
        BYTE   W24
// 051   ----------------------------------------
        BYTE           N36     An4   v116
        BYTE           N36     Fs4   v096
        BYTE   W36
        BYTE                   Gn4   v116
        BYTE           N36     En4   v096
        BYTE   W36
        BYTE           N24     Fs4   v116
        BYTE           N24     Ds4   v096
        BYTE   W24
// 052   ----------------------------------------
        BYTE   W96
// 053   ----------------------------------------
        BYTE   W96
// 054   ----------------------------------------
        BYTE   W96
// 055   ----------------------------------------
        BYTE   W96
// 056   ----------------------------------------
        BYTE   W96
// 057   ----------------------------------------
        BYTE   W96
// 058   ----------------------------------------
        BYTE   W96
// 059   ----------------------------------------
        BYTE   W96
// 060   ----------------------------------------
        BYTE   W96
// 061   ----------------------------------------
        BYTE   W96
// 062   ----------------------------------------
        BYTE   W96
// 063   ----------------------------------------
        BYTE   W96
// 064   ----------------------------------------
        BYTE   W96
// 065   ----------------------------------------
        BYTE   W96
// 066   ----------------------------------------
        BYTE   W96
// 067   ----------------------------------------
        BYTE   W96
// 068   ----------------------------------------
        BYTE   W96
// 069   ----------------------------------------
        BYTE   W96
// 070   ----------------------------------------
        BYTE   W96
// 071   ----------------------------------------
        BYTE   W96
// 072   ----------------------------------------
        BYTE   W96
// 073   ----------------------------------------
        BYTE   W96
// 074   ----------------------------------------
        BYTE   W96
// 075   ----------------------------------------
        BYTE   W96
// 076   ----------------------------------------
        BYTE   GoTo
         POIN2  RepairedDEnotefix_9_LOOP
        BYTE   FINE

//***************** Track 10 (Midi-Chn.11) *****************//

RepairedDEnotefix_10:
        BYTE   KEYSH   RepairedDEnotefix_key+0
// 000   ----------------------------------------
RepairedDEnotefix_10_LOOP:
        BYTE           VOICE   47
        BYTE           VOL     30
        BYTE   W96
// 001   ----------------------------------------
        BYTE   W96
// 002   ----------------------------------------
        BYTE   W96
// 003   ----------------------------------------
        BYTE   W96
// 004   ----------------------------------------
        BYTE   W96
// 005   ----------------------------------------
        BYTE   W96
// 006   ----------------------------------------
RepairedDEnotefix_10_6:
        BYTE           N12     En1   v112
        BYTE   W36
        BYTE                   En1   v100
        BYTE   W60
        BYTE   PEND
// 007   ----------------------------------------
        BYTE                   En1   v112
        BYTE   W36
        BYTE                   En1   v120
        BYTE   W36
        BYTE                   En1   v112
        BYTE   W24
// 008   ----------------------------------------
        BYTE   PATT
         POIN2  RepairedDEnotefix_10_6
// 009   ----------------------------------------
RepairedDEnotefix_10_9:
        BYTE           N12     En1   v112
        BYTE   W36
        BYTE                   En1   v120
        BYTE   W36
        BYTE                   En1   v112
        BYTE   W12
        BYTE                   En1
        BYTE   W12
        BYTE   PEND
// 010   ----------------------------------------
        BYTE   PATT
         POIN2  RepairedDEnotefix_10_6
// 011   ----------------------------------------
RepairedDEnotefix_10_11:
        BYTE           N12     En1   v112
        BYTE   W12
        BYTE                   En1   v100
        BYTE   W24
        BYTE                   En1
        BYTE   W36
        BYTE                   En1   v092
        BYTE   W12
        BYTE                   En1   v100
        BYTE   W12
        BYTE   PEND
// 012   ----------------------------------------
        BYTE   PATT
         POIN2  RepairedDEnotefix_10_6
// 013   ----------------------------------------
        BYTE   PATT
         POIN2  RepairedDEnotefix_10_9
// 014   ----------------------------------------
        BYTE   PATT
         POIN2  RepairedDEnotefix_10_6
// 015   ----------------------------------------
        BYTE   PATT
         POIN2  RepairedDEnotefix_10_11
// 016   ----------------------------------------
        BYTE   PATT
         POIN2  RepairedDEnotefix_10_6
// 017   ----------------------------------------
        BYTE   PATT
         POIN2  RepairedDEnotefix_10_9
// 018   ----------------------------------------
        BYTE   PATT
         POIN2  RepairedDEnotefix_10_6
// 019   ----------------------------------------
        BYTE   PATT
         POIN2  RepairedDEnotefix_10_11
// 020   ----------------------------------------
RepairedDEnotefix_10_20:
        BYTE           N12     Cn2   v112
        BYTE   W36
        BYTE                   Cn2   v100
        BYTE   W60
        BYTE   PEND
// 021   ----------------------------------------
RepairedDEnotefix_10_21:
        BYTE           N12     Cn2   v112
        BYTE   W36
        BYTE                   Cn2   v120
        BYTE   W36
        BYTE                   Cn2   v112
        BYTE   W12
        BYTE                   Cn2
        BYTE   W12
        BYTE   PEND
// 022   ----------------------------------------
        BYTE   PATT
         POIN2  RepairedDEnotefix_10_20
// 023   ----------------------------------------
        BYTE           N12     Cn2   v112
        BYTE   W12
        BYTE                   Cn2   v100
        BYTE   W24
        BYTE                   Cn2
        BYTE   W12
        BYTE                   Cn2
        BYTE   W24
        BYTE                   Cn2   v092
        BYTE   W12
        BYTE           N04     Cn2   v100
        BYTE   W04
        BYTE                   Cn2   v108
        BYTE   W04
        BYTE                   Cn2   v112
        BYTE   W04
// 024   ----------------------------------------
        BYTE   PATT
         POIN2  RepairedDEnotefix_10_6
// 025   ----------------------------------------
        BYTE   PATT
         POIN2  RepairedDEnotefix_10_9
// 026   ----------------------------------------
        BYTE   PATT
         POIN2  RepairedDEnotefix_10_6
// 027   ----------------------------------------
        BYTE   PATT
         POIN2  RepairedDEnotefix_10_11
// 028   ----------------------------------------
        BYTE   PATT
         POIN2  RepairedDEnotefix_10_6
// 029   ----------------------------------------
        BYTE   PATT
         POIN2  RepairedDEnotefix_10_9
// 030   ----------------------------------------
        BYTE   PATT
         POIN2  RepairedDEnotefix_10_6
// 031   ----------------------------------------
        BYTE   PATT
         POIN2  RepairedDEnotefix_10_11
// 032   ----------------------------------------
        BYTE   PATT
         POIN2  RepairedDEnotefix_10_6
// 033   ----------------------------------------
        BYTE   PATT
         POIN2  RepairedDEnotefix_10_9
// 034   ----------------------------------------
        BYTE   PATT
         POIN2  RepairedDEnotefix_10_6
// 035   ----------------------------------------
        BYTE   PATT
         POIN2  RepairedDEnotefix_10_11
// 036   ----------------------------------------
        BYTE   PATT
         POIN2  RepairedDEnotefix_10_20
// 037   ----------------------------------------
        BYTE   PATT
         POIN2  RepairedDEnotefix_10_21
// 038   ----------------------------------------
        BYTE           N12     Fn1   v112
        BYTE   W36
        BYTE                   Fn1   v100
        BYTE   W60
// 039   ----------------------------------------
        BYTE                   Fn1   v112
        BYTE   W12
        BYTE                   Fn1   v100
        BYTE   W24
        BYTE                   Fn1
        BYTE   W12
        BYTE                   Fn1
        BYTE   W24
        BYTE                   Fn1   v092
        BYTE   W12
        BYTE           N04     Fn1   v100
        BYTE   W04
        BYTE                   Fn1   v108
        BYTE   W04
        BYTE                   Fn1   v112
        BYTE   W04
// 040   ----------------------------------------
        BYTE   PATT
         POIN2  RepairedDEnotefix_10_6
// 041   ----------------------------------------
        BYTE   PATT
         POIN2  RepairedDEnotefix_10_9
// 042   ----------------------------------------
        BYTE   PATT
         POIN2  RepairedDEnotefix_10_6
// 043   ----------------------------------------
        BYTE   PATT
         POIN2  RepairedDEnotefix_10_11
// 044   ----------------------------------------
RepairedDEnotefix_10_44:
        BYTE           N24     Cn2   v120
        BYTE   W24
        BYTE           N12     Cn2   v100
        BYTE   W12
        BYTE           N24     Gn1   v112
        BYTE   W24
        BYTE           N12     Gn1   v092
        BYTE   W12
        BYTE           N24     Cn2   v112
        BYTE   W24
        BYTE   PEND
// 045   ----------------------------------------
        BYTE                   Gn1   v120
        BYTE   W24
        BYTE           N12     Gn1   v100
        BYTE   W12
        BYTE           N24     Cn2   v112
        BYTE   W24
        BYTE           N12     Cn2   v092
        BYTE   W12
        BYTE                   Gn1   v112
        BYTE   W12
        BYTE                   Cn2
        BYTE   W12
// 046   ----------------------------------------
RepairedDEnotefix_10_46:
        BYTE           N24     En1   v120
        BYTE   W24
        BYTE           N12     En1   v100
        BYTE   W12
        BYTE           N24     Bn1   v112
        BYTE   W24
        BYTE           N12     Bn1   v092
        BYTE   W12
        BYTE           N24     En1   v112
        BYTE   W24
        BYTE   PEND
// 047   ----------------------------------------
RepairedDEnotefix_10_47:
        BYTE           N24     Bn1   v120
        BYTE   W24
        BYTE           N12     Bn1   v100
        BYTE   W12
        BYTE           N24     En1   v112
        BYTE   W24
        BYTE           N12     En1   v092
        BYTE   W12
        BYTE                   Bn1   v112
        BYTE   W12
        BYTE                   En1
        BYTE   W12
        BYTE   PEND
// 048   ----------------------------------------
        BYTE   PATT
         POIN2  RepairedDEnotefix_10_44
// 049   ----------------------------------------
        BYTE           N24     Gn1   v120
        BYTE   W24
        BYTE           N12     Gn1   v100
        BYTE   W12
        BYTE           N24     Cn2   v112
        BYTE   W24
        BYTE           N12     Cn2   v092
        BYTE   W12
        BYTE                   Gn1   v112
        BYTE   W12
        BYTE           N04     Fs1
        BYTE   W04
        BYTE                   Fs1
        BYTE   W04
        BYTE                   Fs1   v120
        BYTE   W04
// 050   ----------------------------------------
RepairedDEnotefix_10_50:
        BYTE           N12     Bn1   v127
        BYTE   W12
        BYTE           N06     Fs1   v092
        BYTE   W06
        BYTE                   Fs1   v108
        BYTE   W06
        BYTE           N12     Fs1   v120
        BYTE   W12
        BYTE                   Bn1   v127
        BYTE   W12
        BYTE           N06     Fs1   v092
        BYTE   W06
        BYTE                   Fs1   v108
        BYTE   W06
        BYTE           N12     Fs1   v120
        BYTE   W12
        BYTE           N06     Bn1   v127
        BYTE   W06
        BYTE                   Fs1   v100
        BYTE   W06
        BYTE           N12     Fs1   v120
        BYTE   W12
        BYTE   PEND
// 051   ----------------------------------------
        BYTE   PATT
         POIN2  RepairedDEnotefix_10_50
// 052   ----------------------------------------
        BYTE           N24     En1   v120
        BYTE   W96
// 053   ----------------------------------------
        BYTE   W96
// 054   ----------------------------------------
        BYTE   W96
// 055   ----------------------------------------
        BYTE   W96
// 056   ----------------------------------------
        BYTE   W96
// 057   ----------------------------------------
        BYTE   W96
// 058   ----------------------------------------
        BYTE   W96
// 059   ----------------------------------------
        BYTE           N06     Bn1   v032
        BYTE   W06
        BYTE           N03
        BYTE   W03
        BYTE                   Bn1
        BYTE   W03
        BYTE                   Bn1
        BYTE   W03
        BYTE                   Bn1
        BYTE   W03
        BYTE                   Bn1
        BYTE   W03
        BYTE                   Bn1
        BYTE   W03
        BYTE                   Bn1
        BYTE   W03
        BYTE                   Bn1   v036
        BYTE   W03
        BYTE                   Bn1
        BYTE   W03
        BYTE                   Bn1
        BYTE   W03
        BYTE                   Bn1
        BYTE   W03
        BYTE                   Bn1   v040
        BYTE   W03
        BYTE                   Bn1
        BYTE   W03
        BYTE                   Bn1   v048
        BYTE   W03
        BYTE           N06
        BYTE   W06
        BYTE           N03     Bn1   v052
        BYTE   W03
        BYTE                   Bn1
        BYTE   W03
        BYTE                   Bn1   v056
        BYTE   W03
        BYTE                   Bn1   v060
        BYTE   W03
        BYTE                   Bn1   v068
        BYTE   W03
        BYTE                   Bn1   v072
        BYTE   W03
        BYTE                   Bn1   v076
        BYTE   W03
        BYTE                   Bn1   v080
        BYTE   W03
        BYTE                   Bn1   v088
        BYTE   W03
        BYTE                   Bn1   v092
        BYTE   W03
        BYTE                   Bn1   v096
        BYTE   W03
        BYTE                   Bn1   v100
        BYTE   W03
        BYTE                   Bn1   v108
        BYTE   W03
        BYTE                   Bn1   v112
        BYTE   W03
// 060   ----------------------------------------
        BYTE   PATT
         POIN2  RepairedDEnotefix_10_46
// 061   ----------------------------------------
        BYTE   PATT
         POIN2  RepairedDEnotefix_10_47
// 062   ----------------------------------------
RepairedDEnotefix_10_62:
        BYTE           N24     Fn1   v120
        BYTE   W24
        BYTE           N12     Fn1   v100
        BYTE   W12
        BYTE           N24     Cn2   v112
        BYTE   W24
        BYTE           N12     Cn2   v092
        BYTE   W12
        BYTE           N24     Fn1   v112
        BYTE   W24
        BYTE   PEND
// 063   ----------------------------------------
RepairedDEnotefix_10_63:
        BYTE           N24     An1   v120
        BYTE   W24
        BYTE           N12     An1   v100
        BYTE   W12
        BYTE           N24     Dn1   v112
        BYTE   W24
        BYTE           N12     Dn1   v092
        BYTE   W12
        BYTE                   An1   v112
        BYTE   W12
        BYTE                   Dn1
        BYTE   W12
        BYTE   PEND
// 064   ----------------------------------------
        BYTE   PATT
         POIN2  RepairedDEnotefix_10_46
// 065   ----------------------------------------
        BYTE   PATT
         POIN2  RepairedDEnotefix_10_47
// 066   ----------------------------------------
        BYTE   PATT
         POIN2  RepairedDEnotefix_10_62
// 067   ----------------------------------------
        BYTE   PATT
         POIN2  RepairedDEnotefix_10_63
// 068   ----------------------------------------
        BYTE   PATT
         POIN2  RepairedDEnotefix_10_46
// 069   ----------------------------------------
        BYTE   PATT
         POIN2  RepairedDEnotefix_10_47
// 070   ----------------------------------------
        BYTE   PATT
         POIN2  RepairedDEnotefix_10_62
// 071   ----------------------------------------
        BYTE   PATT
         POIN2  RepairedDEnotefix_10_63
// 072   ----------------------------------------
        BYTE   PATT
         POIN2  RepairedDEnotefix_10_46
// 073   ----------------------------------------
        BYTE   PATT
         POIN2  RepairedDEnotefix_10_47
// 074   ----------------------------------------
        BYTE   PATT
         POIN2  RepairedDEnotefix_10_62
// 075   ----------------------------------------
        BYTE   PATT
         POIN2  RepairedDEnotefix_10_63
// 076   ----------------------------------------
        BYTE   GoTo
         POIN2  RepairedDEnotefix_10_LOOP
        BYTE   FINE

//***************** Track 11 (Midi-Chn.12) *****************//

RepairedDEnotefix_11:
        BYTE   KEYSH   RepairedDEnotefix_key+0
// 000   ----------------------------------------
RepairedDEnotefix_11_LOOP:
        BYTE           VOICE   111
        BYTE           VOL     27
        BYTE           PAN     c_v+63
        BYTE           N96     Cn4   v080
        BYTE   W96
// 001   ----------------------------------------
        BYTE                   Cn4
        BYTE   W96
// 002   ----------------------------------------
        BYTE                   Cn4
        BYTE   W96
// 003   ----------------------------------------
        BYTE                   Dn4
        BYTE   W96
// 004   ----------------------------------------
        BYTE                   Cn4
        BYTE   W96
// 005   ----------------------------------------
        BYTE                   Cn4
        BYTE   W96
// 006   ----------------------------------------
        BYTE                   Cn4
        BYTE   W96
// 007   ----------------------------------------
        BYTE                   Dn4
        BYTE   W96
// 008   ----------------------------------------
        BYTE                   Cn4
        BYTE   W96
// 009   ----------------------------------------
        BYTE                   Cn4
        BYTE   W96
// 010   ----------------------------------------
        BYTE                   Cn4
        BYTE   W96
// 011   ----------------------------------------
        BYTE                   Dn4
        BYTE   W96
// 012   ----------------------------------------
        BYTE                   Cn4
        BYTE   W96
// 013   ----------------------------------------
        BYTE                   Cn4
        BYTE   W96
// 014   ----------------------------------------
        BYTE                   Cn4
        BYTE   W96
// 015   ----------------------------------------
        BYTE                   Dn4
        BYTE   W96
// 016   ----------------------------------------
        BYTE                   Cn4
        BYTE   W96
// 017   ----------------------------------------
        BYTE                   Cn4
        BYTE   W96
// 018   ----------------------------------------
        BYTE                   Cn4
        BYTE   W96
// 019   ----------------------------------------
        BYTE                   Dn4
        BYTE   W96
// 020   ----------------------------------------
        BYTE                   Cn4
        BYTE   W96
// 021   ----------------------------------------
        BYTE                   Cn4
        BYTE   W96
// 022   ----------------------------------------
        BYTE                   Cn4
        BYTE   W96
// 023   ----------------------------------------
        BYTE                   Dn4
        BYTE   W96
// 024   ----------------------------------------
        BYTE                   Cn4
        BYTE   W96
// 025   ----------------------------------------
        BYTE                   Cn4
        BYTE   W96
// 026   ----------------------------------------
        BYTE                   Cn4
        BYTE   W96
// 027   ----------------------------------------
        BYTE                   Dn4
        BYTE   W96
// 028   ----------------------------------------
        BYTE                   Cn4
        BYTE   W96
// 029   ----------------------------------------
        BYTE                   Cn4
        BYTE   W96
// 030   ----------------------------------------
        BYTE                   Cn4
        BYTE   W96
// 031   ----------------------------------------
        BYTE                   Dn4
        BYTE   W96
// 032   ----------------------------------------
        BYTE                   Cn4
        BYTE   W96
// 033   ----------------------------------------
        BYTE                   Cn4
        BYTE   W96
// 034   ----------------------------------------
        BYTE                   Cn4
        BYTE   W96
// 035   ----------------------------------------
        BYTE                   Dn4
        BYTE   W96
// 036   ----------------------------------------
        BYTE                   Cn4
        BYTE   W96
// 037   ----------------------------------------
        BYTE                   Cn4
        BYTE   W96
// 038   ----------------------------------------
        BYTE                   Cn4
        BYTE   W96
// 039   ----------------------------------------
        BYTE                   Dn4
        BYTE   W96
// 040   ----------------------------------------
        BYTE                   Cn4
        BYTE   W96
// 041   ----------------------------------------
        BYTE                   Cn4
        BYTE   W96
// 042   ----------------------------------------
        BYTE                   Cn4
        BYTE   W96
// 043   ----------------------------------------
        BYTE                   Dn4
        BYTE   W96
// 044   ----------------------------------------
        BYTE                   Cn4
        BYTE   W96
// 045   ----------------------------------------
        BYTE                   Cn4
        BYTE   W96
// 046   ----------------------------------------
        BYTE                   Cn4
        BYTE   W96
// 047   ----------------------------------------
        BYTE                   Dn4
        BYTE   W96
// 048   ----------------------------------------
        BYTE                   Cn4
        BYTE   W96
// 049   ----------------------------------------
        BYTE                   Cn4
        BYTE   W96
// 050   ----------------------------------------
        BYTE                   Cn4
        BYTE   W96
// 051   ----------------------------------------
        BYTE                   Dn4
        BYTE   W96
// 052   ----------------------------------------
        BYTE   W96
// 053   ----------------------------------------
        BYTE   W96
// 054   ----------------------------------------
        BYTE   W96
// 055   ----------------------------------------
        BYTE   W96
// 056   ----------------------------------------
        BYTE   W96
// 057   ----------------------------------------
        BYTE   W96
// 058   ----------------------------------------
        BYTE           VOL     16
        BYTE           N96     Cn4
        BYTE   W03
        BYTE           VOL     17
        BYTE   W15
        BYTE                   20
        BYTE   W15
        BYTE                   21
        BYTE   W15
        BYTE                   22
        BYTE   W14
        BYTE                   23
        BYTE   W15
        BYTE                   24
        BYTE   W15
        BYTE                   25
        BYTE   W04
// 059   ----------------------------------------
        BYTE           N96
        BYTE   W11
        BYTE           VOL     24
        BYTE   W14
        BYTE                   27
        BYTE   W15
        BYTE                   28
        BYTE   W15
        BYTE                   29
        BYTE   W15
        BYTE                   30
        BYTE   W14
        BYTE                   31
        BYTE   W12
// 060   ----------------------------------------
        BYTE                   32
        BYTE           N96
        BYTE   W96
// 061   ----------------------------------------
        BYTE                   Cn4
        BYTE   W96
// 062   ----------------------------------------
        BYTE                   Cn4
        BYTE   W96
// 063   ----------------------------------------
        BYTE                   Dn4
        BYTE   W96
// 064   ----------------------------------------
        BYTE                   Cn4
        BYTE   W96
// 065   ----------------------------------------
        BYTE                   Cn4
        BYTE   W96
// 066   ----------------------------------------
        BYTE                   Cn4
        BYTE   W96
// 067   ----------------------------------------
        BYTE                   Dn4
        BYTE   W96
// 068   ----------------------------------------
        BYTE                   Cn4
        BYTE   W96
// 069   ----------------------------------------
        BYTE                   Cn4
        BYTE   W96
// 070   ----------------------------------------
        BYTE                   Cn4
        BYTE   W96
// 071   ----------------------------------------
        BYTE                   Dn4
        BYTE   W96
// 072   ----------------------------------------
        BYTE                   Cn4
        BYTE   W96
// 073   ----------------------------------------
        BYTE                   Cn4
        BYTE   W96
// 074   ----------------------------------------
        BYTE                   Cn4
        BYTE   W96
// 075   ----------------------------------------
        BYTE                   Dn4
        BYTE   W96
// 076   ----------------------------------------
        BYTE           VOL     27
        BYTE   GoTo
         POIN2  RepairedDEnotefix_11_LOOP
        BYTE   FINE

//***************** Track 12 (Midi-Chn.13) *****************//

RepairedDEnotefix_12:
        BYTE   KEYSH   RepairedDEnotefix_key+0
// 000   ----------------------------------------
RepairedDEnotefix_12_LOOP:
        BYTE           VOICE   111
        BYTE           VOL     27
        BYTE           PAN     c_v-64
        BYTE           N96     Cn3   v080
        BYTE   W96
// 001   ----------------------------------------
        BYTE                   Cn3
        BYTE   W96
// 002   ----------------------------------------
        BYTE                   Cn3
        BYTE   W96
// 003   ----------------------------------------
        BYTE                   Dn3
        BYTE   W96
// 004   ----------------------------------------
        BYTE                   Cn3
        BYTE   W96
// 005   ----------------------------------------
        BYTE                   Cn3
        BYTE   W96
// 006   ----------------------------------------
        BYTE                   Cn3
        BYTE   W96
// 007   ----------------------------------------
        BYTE                   Dn3
        BYTE   W96
// 008   ----------------------------------------
        BYTE                   Cn3
        BYTE   W96
// 009   ----------------------------------------
        BYTE                   Cn3
        BYTE   W96
// 010   ----------------------------------------
        BYTE                   Cn3
        BYTE   W96
// 011   ----------------------------------------
        BYTE                   Dn3
        BYTE   W96
// 012   ----------------------------------------
        BYTE                   Cn3
        BYTE   W96
// 013   ----------------------------------------
        BYTE                   Cn3
        BYTE   W96
// 014   ----------------------------------------
        BYTE                   Cn3
        BYTE   W96
// 015   ----------------------------------------
        BYTE                   Dn3
        BYTE   W96
// 016   ----------------------------------------
        BYTE                   Cn3
        BYTE   W96
// 017   ----------------------------------------
        BYTE                   Cn3
        BYTE   W96
// 018   ----------------------------------------
        BYTE                   Cn3
        BYTE   W96
// 019   ----------------------------------------
        BYTE                   Dn3
        BYTE   W96
// 020   ----------------------------------------
        BYTE                   Cn3
        BYTE   W96
// 021   ----------------------------------------
        BYTE                   Cn3
        BYTE   W96
// 022   ----------------------------------------
        BYTE                   Cn3
        BYTE   W96
// 023   ----------------------------------------
        BYTE                   Dn3
        BYTE   W96
// 024   ----------------------------------------
        BYTE                   Cn3
        BYTE   W96
// 025   ----------------------------------------
        BYTE                   Cn3
        BYTE   W96
// 026   ----------------------------------------
        BYTE                   Cn3
        BYTE   W96
// 027   ----------------------------------------
        BYTE                   Dn3
        BYTE   W96
// 028   ----------------------------------------
        BYTE                   Cn3
        BYTE   W96
// 029   ----------------------------------------
        BYTE                   Cn3
        BYTE   W96
// 030   ----------------------------------------
        BYTE                   Cn3
        BYTE   W96
// 031   ----------------------------------------
        BYTE                   Dn3
        BYTE   W96
// 032   ----------------------------------------
        BYTE                   Cn3
        BYTE   W96
// 033   ----------------------------------------
        BYTE                   Cn3
        BYTE   W96
// 034   ----------------------------------------
        BYTE                   Cn3
        BYTE   W96
// 035   ----------------------------------------
        BYTE                   Dn3
        BYTE   W96
// 036   ----------------------------------------
        BYTE                   Cn3
        BYTE   W96
// 037   ----------------------------------------
        BYTE                   Cn3
        BYTE   W96
// 038   ----------------------------------------
        BYTE                   Cn3
        BYTE   W96
// 039   ----------------------------------------
        BYTE                   Dn3
        BYTE   W96
// 040   ----------------------------------------
        BYTE                   Cn3
        BYTE   W96
// 041   ----------------------------------------
        BYTE                   Cn3
        BYTE   W96
// 042   ----------------------------------------
        BYTE                   Cn3
        BYTE   W96
// 043   ----------------------------------------
        BYTE                   Dn3
        BYTE   W96
// 044   ----------------------------------------
        BYTE                   Cn3
        BYTE   W96
// 045   ----------------------------------------
        BYTE                   Cn3
        BYTE   W96
// 046   ----------------------------------------
        BYTE                   Cn3
        BYTE   W96
// 047   ----------------------------------------
        BYTE                   Dn3
        BYTE   W96
// 048   ----------------------------------------
        BYTE                   Cn3
        BYTE   W96
// 049   ----------------------------------------
        BYTE                   Cn3
        BYTE   W96
// 050   ----------------------------------------
        BYTE                   Cn3
        BYTE   W96
// 051   ----------------------------------------
        BYTE                   Dn3
        BYTE   W96
// 052   ----------------------------------------
        BYTE   W96
// 053   ----------------------------------------
        BYTE   W96
// 054   ----------------------------------------
        BYTE   W96
// 055   ----------------------------------------
        BYTE   W96
// 056   ----------------------------------------
        BYTE   W96
// 057   ----------------------------------------
        BYTE   W96
// 058   ----------------------------------------
        BYTE           VOL     16
        BYTE           N96     Cn3
        BYTE   W03
        BYTE           VOL     17
        BYTE   W15
        BYTE                   20
        BYTE   W15
        BYTE                   21
        BYTE   W15
        BYTE                   22
        BYTE   W14
        BYTE                   23
        BYTE   W15
        BYTE                   24
        BYTE   W15
        BYTE                   25
        BYTE   W04
// 059   ----------------------------------------
        BYTE           N96
        BYTE   W11
        BYTE           VOL     24
        BYTE   W14
        BYTE                   27
        BYTE   W15
        BYTE                   28
        BYTE   W15
        BYTE                   29
        BYTE   W15
        BYTE                   30
        BYTE   W14
        BYTE                   31
        BYTE   W12
// 060   ----------------------------------------
        BYTE                   32
        BYTE           N96
        BYTE   W96
// 061   ----------------------------------------
        BYTE                   Cn3
        BYTE   W96
// 062   ----------------------------------------
        BYTE                   Cn3
        BYTE   W96
// 063   ----------------------------------------
        BYTE                   Dn3
        BYTE   W96
// 064   ----------------------------------------
        BYTE                   Cn3
        BYTE   W96
// 065   ----------------------------------------
        BYTE                   Cn3
        BYTE   W96
// 066   ----------------------------------------
        BYTE                   Cn3
        BYTE   W96
// 067   ----------------------------------------
        BYTE                   Dn3
        BYTE   W96
// 068   ----------------------------------------
        BYTE                   Cn3
        BYTE   W96
// 069   ----------------------------------------
        BYTE                   Cn3
        BYTE   W96
// 070   ----------------------------------------
        BYTE                   Cn3
        BYTE   W96
// 071   ----------------------------------------
        BYTE                   Dn3
        BYTE   W96
// 072   ----------------------------------------
        BYTE                   Cn3
        BYTE   W96
// 073   ----------------------------------------
        BYTE                   Cn3
        BYTE   W96
// 074   ----------------------------------------
        BYTE                   Cn3
        BYTE   W96
// 075   ----------------------------------------
        BYTE                   Dn3
        BYTE   W96
// 076   ----------------------------------------
        BYTE           VOL     27
        BYTE   GoTo
         POIN2  RepairedDEnotefix_12_LOOP
        BYTE   FINE

//***************** Track 13 (Midi-Chn.14) *****************//

RepairedDEnotefix_13:
        BYTE   KEYSH   RepairedDEnotefix_key+0
// 000   ----------------------------------------
RepairedDEnotefix_13_LOOP:
        BYTE           VOICE   57
        BYTE           PAN     c_v+6
        BYTE           VOL     23
        BYTE   W96
// 001   ----------------------------------------
        BYTE   W96
// 002   ----------------------------------------
        BYTE   W96
// 003   ----------------------------------------
        BYTE   W96
// 004   ----------------------------------------
        BYTE   W96
// 005   ----------------------------------------
        BYTE   W96
// 006   ----------------------------------------
        BYTE   W48
        BYTE           N48     Fs2   v100
        BYTE   W48
// 007   ----------------------------------------
        BYTE                   Bn2
        BYTE   W48
        BYTE                   Dn3
        BYTE           N48     Bn2   v088
        BYTE   W48
// 008   ----------------------------------------
        BYTE           TIE     Cn3   v100
        BYTE           TIE     An2   v088
        BYTE   W96
// 009   ----------------------------------------
        BYTE   W92
        BYTE   W02
        BYTE           EOT
        BYTE           EOT     Cn3
        BYTE   W02
// 010   ----------------------------------------
        BYTE           TIE     An3   v112
        BYTE           TIE     En3   v100
        BYTE   W96
// 011   ----------------------------------------
        BYTE   W48
        BYTE           EOT
        BYTE           EOT     An3
        BYTE           N48     Bn3   v112
        BYTE           N48     En3   v100
        BYTE   W48
// 012   ----------------------------------------
        BYTE           TIE     Gn3
        BYTE           TIE     En3   v092
        BYTE   W96
// 013   ----------------------------------------
        BYTE   W96
// 014   ----------------------------------------
        BYTE           EOT
        BYTE           EOT     Gn3
        BYTE   W96
// 015   ----------------------------------------
        BYTE   W96
// 016   ----------------------------------------
        BYTE   W96
// 017   ----------------------------------------
        BYTE   W96
// 018   ----------------------------------------
        BYTE   W96
// 019   ----------------------------------------
        BYTE   W96
// 020   ----------------------------------------
        BYTE   W96
// 021   ----------------------------------------
        BYTE   W96
// 022   ----------------------------------------
        BYTE   W96
// 023   ----------------------------------------
        BYTE   W96
// 024   ----------------------------------------
        BYTE   W96
// 025   ----------------------------------------
        BYTE   W96
// 026   ----------------------------------------
        BYTE   W96
// 027   ----------------------------------------
        BYTE   W96
// 028   ----------------------------------------
        BYTE   W96
// 029   ----------------------------------------
        BYTE   W48
        BYTE           N48     Bn1   v116
        BYTE           N48     Gn1   v108
        BYTE   W48
// 030   ----------------------------------------
        BYTE           TIE     Dn2   v112
        BYTE           TIE     An1   v100
        BYTE   W96
// 031   ----------------------------------------
        BYTE   W48
        BYTE           EOT
        BYTE           EOT     Dn2
        BYTE   W48
// 032   ----------------------------------------
        BYTE   W48
        BYTE           N48     En2   v120
        BYTE   W48
// 033   ----------------------------------------
        BYTE                   Gn2
        BYTE           N48     En2   v112
        BYTE   W48
        BYTE                   Cn3   v120
        BYTE           N48     Gn2   v112
        BYTE   W48
// 034   ----------------------------------------
        BYTE           TIE     Dn3   v120
        BYTE           TIE     Fs2   v112
        BYTE   W96
// 035   ----------------------------------------
        BYTE   W48
        BYTE           EOT
        BYTE           EOT     Dn3
        BYTE   W48
// 036   ----------------------------------------
        BYTE           TIE     Cn3
        BYTE           TIE     Gn2   v100
        BYTE   W96
// 037   ----------------------------------------
        BYTE   W96
// 038   ----------------------------------------
        BYTE           EOT
        BYTE           TIE     Fn2
        BYTE   W96
// 039   ----------------------------------------
        BYTE   W96
// 040   ----------------------------------------
        BYTE           EOT
        BYTE           EOT     Cn3
        BYTE           TIE     Bn2   v112
        BYTE           TIE     En2   v100
        BYTE   W96
// 041   ----------------------------------------
        BYTE   W96
// 042   ----------------------------------------
        BYTE   W96
// 043   ----------------------------------------
        BYTE   W96
// 044   ----------------------------------------
        BYTE           EOT
        BYTE           EOT     Bn2
        BYTE           N08     En3
        BYTE           N08     Cn3   v080
        BYTE   W18
        BYTE                   En3   v100
        BYTE           N08     Cn3   v088
        BYTE   W18
        BYTE           N06     En3   v100
        BYTE           N06     Cn3   v080
        BYTE   W06
        BYTE                   Fs3   v096
        BYTE           N06     Dn3   v076
        BYTE   W06
        BYTE           N60     Gn3   v096
        BYTE           N60     En3   v076
        BYTE   W48
// 045   ----------------------------------------
        BYTE   W16
        BYTE           N16     An2   v088
        BYTE   W16
        BYTE                   Gn2
        BYTE   W16
        BYTE                   Fs2
        BYTE   W16
        BYTE                   En2
        BYTE   W16
        BYTE                   Dn2
        BYTE   W16
// 046   ----------------------------------------
        BYTE           N36     Bn1   v096
        BYTE   W36
        BYTE           TIE     En2
        BYTE   W60
// 047   ----------------------------------------
        BYTE   W84
        BYTE           EOT
        BYTE   W12
// 048   ----------------------------------------
        BYTE           N08     En3   v100
        BYTE           N08     Cn3   v080
        BYTE   W18
        BYTE                   En3   v100
        BYTE           N08     Cn3   v088
        BYTE   W18
        BYTE           N06     En3   v100
        BYTE           N06     Cn3   v080
        BYTE   W06
        BYTE                   Fs3   v096
        BYTE           N06     Dn3   v076
        BYTE   W06
        BYTE           N60     Gn3   v096
        BYTE           N60     En3   v076
        BYTE   W48
// 049   ----------------------------------------
        BYTE   W16
        BYTE           N16     An2   v096
        BYTE   W16
        BYTE                   Gn2
        BYTE   W16
        BYTE                   Bn2
        BYTE   W16
        BYTE                   An2
        BYTE   W16
        BYTE                   Gn2
        BYTE   W16
// 050   ----------------------------------------
        BYTE           N36     Ds2   v092
        BYTE           N36     Bn1   v100
        BYTE   W36
        BYTE                   En2   v080
        BYTE           N36     Cs2   v092
        BYTE   W36
        BYTE           N24     Fs2   v080
        BYTE           N24     Ds2   v092
        BYTE   W24
// 051   ----------------------------------------
        BYTE           N36     Fs2   v080
        BYTE           N36     Ds2   v092
        BYTE   W36
        BYTE                   Gn2
        BYTE           N36     En2   v100
        BYTE   W36
        BYTE           N24     An2
        BYTE           N24     Fs2   v112
        BYTE   W24
// 052   ----------------------------------------
        BYTE   W96
// 053   ----------------------------------------
        BYTE   W96
// 054   ----------------------------------------
        BYTE   W96
// 055   ----------------------------------------
        BYTE   W96
// 056   ----------------------------------------
        BYTE   W96
// 057   ----------------------------------------
        BYTE   W96
// 058   ----------------------------------------
        BYTE   W96
// 059   ----------------------------------------
        BYTE   W96
// 060   ----------------------------------------
        BYTE   W96
// 061   ----------------------------------------
        BYTE   W96
// 062   ----------------------------------------
        BYTE   W96
// 063   ----------------------------------------
        BYTE   W96
// 064   ----------------------------------------
        BYTE   W96
// 065   ----------------------------------------
        BYTE   W96
// 066   ----------------------------------------
        BYTE   W96
// 067   ----------------------------------------
        BYTE   W96
// 068   ----------------------------------------
        BYTE   W96
// 069   ----------------------------------------
        BYTE   W96
// 070   ----------------------------------------
        BYTE   W96
// 071   ----------------------------------------
        BYTE   W96
// 072   ----------------------------------------
        BYTE   W96
// 073   ----------------------------------------
        BYTE   W96
// 074   ----------------------------------------
        BYTE   W96
// 075   ----------------------------------------
        BYTE   W96
// 076   ----------------------------------------
        BYTE   GoTo
         POIN2  RepairedDEnotefix_13_LOOP
        BYTE   FINE


//********************** End of Song ***********************//

        ALIGN  4
RepairedDEnotefix:
        BYTE   14                      // Num Tracks
        BYTE   0                       // Unknown
        BYTE   RepairedDEnotefix_pri   // Priority
        BYTE   RepairedDEnotefix_rev   // Reverb

        POIN2   RepairedDEnotefix_grp  

        POIN2   RepairedDEnotefix_0
        POIN2   RepairedDEnotefix_1
        POIN2   RepairedDEnotefix_2
        POIN2   RepairedDEnotefix_3
        POIN2   RepairedDEnotefix_4
        POIN2   RepairedDEnotefix_5
        POIN2   RepairedDEnotefix_6
        POIN2   RepairedDEnotefix_7
        POIN2   RepairedDEnotefix_8
        POIN2   RepairedDEnotefix_9
        POIN2   RepairedDEnotefix_10
        POIN2   RepairedDEnotefix_11
        POIN2   RepairedDEnotefix_12
        POIN2   RepairedDEnotefix_13

        
