//Event file generated from Sappy .s format.
	#include "MPlayDef.event"

	#define	song33_grp  voicegroup001
	#define	song33_pri  0
	#define	song33_rev  0
	#define	song33_mvl  127
	#define	song33_key  0
	#define	song33_tbs  1
	#define	song33_exg  0
	#define	song33_cmp  1

	// .rodata
	//	song33
	ALIGN 4


//**************** Track 1 (Midi-Chn.0) ****************//

song33_001:
// 000   ----------------------------------------
 BYTE   KEYSH   song33_key+0
 BYTE   TEMPO   184*song33_tbs/2
 BYTE   VOICE   57
 BYTE   VOL   64*song33_mvl/mxv
 BYTE   PAN   c_v+0
 BYTE   En3  v064
 BYTE   En3
 BYTE   BEND   c_v+0
 BYTE   W48
Label_0_013A51B0:
 BYTE   N11  Gs3  v100
 BYTE   W12
 BYTE   N05  Ds3
 BYTE   W12
 BYTE   Bn3
 BYTE   W12
 BYTE   Ds3
 BYTE   W12
// 001   ----------------------------------------
 BYTE   As3
 BYTE   W12
 BYTE   Ds3
 BYTE   W12
 BYTE   Bn3
 BYTE   W12
 BYTE   Ds3
 BYTE   W12
 BYTE   Bn3
 BYTE   W18
 BYTE   Cs4
 BYTE   W18
 BYTE   Ds4
 BYTE   W12
// 002   ----------------------------------------
 BYTE   Cs4
 BYTE   W12
 BYTE   Bn3
 BYTE   W12
 BYTE   As3
 BYTE   W12
 BYTE   Fs3
 BYTE   W12
 BYTE   N11  Bn3
 BYTE   W12
 BYTE   N05  Bn2
 BYTE   W12
 BYTE   As3
 BYTE   W12
 BYTE   Bn2
 BYTE   W12
// 003   ----------------------------------------
 BYTE   Gs3
 BYTE   W12
 BYTE   Bn2
 BYTE   W12
 BYTE   Fs3
 BYTE   W12
 BYTE   Bn2
 BYTE   W12
 BYTE   Ds3
 BYTE   W18
 BYTE   Fs3
 BYTE   N05  As3
 BYTE   W18
 BYTE   Fs3
 BYTE   N05  As3
 BYTE   W12
// 004   ----------------------------------------
 BYTE   Ds3
 BYTE   N05  Gs3
 BYTE   W12
 BYTE   Cs3
 BYTE   N05  Fs3
 BYTE   W12
 BYTE   Gs2
 BYTE   N05  Ds3
 BYTE   W12
 BYTE   Fs2
 BYTE   N05  Cs3
 BYTE   W12
 BYTE   N92  Bn2
 BYTE   W48
// 005   ----------------------------------------
 BYTE   W48
 BYTE   As2
 BYTE   W48
// 006   ----------------------------------------
 BYTE   W48
 BYTE   N11  Gs2
 BYTE   W12
 BYTE   N05  Cs3
 BYTE   W06
 BYTE   Ds3
 BYTE   W06
 BYTE   Gs3
 BYTE   W12
 BYTE   Fs3
 BYTE   W06
 BYTE   Ds3
 BYTE   W06
// 007   ----------------------------------------
 BYTE   Bn3
 BYTE   W12
 BYTE   Gs3
 BYTE   W06
 BYTE   Fs3
 BYTE   W06
 BYTE   Ds4
 BYTE   W12
 BYTE   Cs4
 BYTE   W06
 BYTE   Bn3
 BYTE   W06
 BYTE   Gs3
 BYTE   W06
 BYTE   Fs3
 BYTE   W06
 BYTE   Bn3
 BYTE   W06
 BYTE   Gs3
 BYTE   W06
 BYTE   Cs4
 BYTE   W06
 BYTE   As3
 BYTE   W06
 BYTE   Ds4
 BYTE   W06
 BYTE   Cs4
 BYTE   W06
// 008   ----------------------------------------
 BYTE   Gs4
 BYTE   W06
 BYTE   Ds4
 BYTE   W06
 BYTE   Fs4
 BYTE   W06
 BYTE   Cs4
 BYTE   W06
 BYTE   Ds4
 BYTE   W06
 BYTE   Gs3
 BYTE   W06
 BYTE   Cs4
 BYTE   W06
 BYTE   Fs3
 BYTE   W54
// 009   ----------------------------------------
 BYTE   W48
 BYTE   GoTo
  POIN2 Label_0_013A51B0
// 010   ----------------------------------------
 BYTE   VOICE   57
 BYTE   PAN   c_v+0
 BYTE   En3  v064
 BYTE   BEND   c_v+0
 BYTE   FINE

//**************** Track 2 (Midi-Chn.1) ****************//

song33_002:
// 000   ----------------------------------------
 BYTE   KEYSH   song33_key+0
 BYTE   VOICE   50
 BYTE   VOL   50*song33_mvl/mxv
 BYTE   PAN   c_v-14
 BYTE   BEND   c_v+0
 BYTE   W48
Label_1_013A525B:
 BYTE   W12
 BYTE   N05  Gs2  v100
 BYTE   N05  Gs3
 BYTE   W12
 BYTE   Gs2
 BYTE   N05  Gs3
 BYTE   W12
 BYTE   Gs2
 BYTE   N05  Gs3
 BYTE   W12
// 001   ----------------------------------------
 BYTE   W12
 BYTE   Gs2
 BYTE   N05  Gs3
 BYTE   W24
 BYTE   Gs2
 BYTE   N05  Gs3
 BYTE   W24
 BYTE   Gs2
 BYTE   N05  Gs3
 BYTE   W12
 BYTE   Gs2
 BYTE   N05  Gs3
 BYTE   W24
// 002   ----------------------------------------
 BYTE   Gs2
 BYTE   N05  Gs3
 BYTE   W18
 BYTE   Gs2
 BYTE   N05  Gs3
 BYTE   W18
 BYTE   Gs2
 BYTE   N05  Gs3
 BYTE   W24
 BYTE   Fs2
 BYTE   N05  Fs3
 BYTE   W12
 BYTE   Fs2
 BYTE   N05  Fs3
 BYTE   W12
 BYTE   Fs2
 BYTE   N05  Fs3
 BYTE   W12
// 003   ----------------------------------------
 BYTE   W12
 BYTE   Fs2
 BYTE   N05  Fs3
 BYTE   W24
 BYTE   Fs2
 BYTE   N05  Fs3
 BYTE   W24
 BYTE   Fs2
 BYTE   N05  Fs3
 BYTE   W12
 BYTE   Fs2
 BYTE   N05  Fs3
 BYTE   W24
// 004   ----------------------------------------
 BYTE   Fs2
 BYTE   N05  Fs3
 BYTE   W24
 BYTE   Fs2
 BYTE   N05  Fs3
 BYTE   W36
 BYTE   En2
 BYTE   N05  En3
 BYTE   W12
 BYTE   En2
 BYTE   N05  En3
 BYTE   W12
 BYTE   En2
 BYTE   N05  En3
 BYTE   W12
// 005   ----------------------------------------
 BYTE   W24
 BYTE   En2
 BYTE   N05  En3
 BYTE   W36
 BYTE   Fs2
 BYTE   N05  Fs3
 BYTE   W12
 BYTE   Fs2
 BYTE   N05  Fs3
 BYTE   W12
 BYTE   Fs2
 BYTE   N05  Fs3
 BYTE   W12
// 006   ----------------------------------------
 BYTE   W24
 BYTE   Fs2
 BYTE   N05  Fs3
 BYTE   W24
 BYTE   Gs2
 BYTE   N05  Gs3
 BYTE   W24
 BYTE   Gs2
 BYTE   N05  Gs3
 BYTE   W24
// 007   ----------------------------------------
 BYTE   Gs2
 BYTE   N05  Gs3
 BYTE   W24
 BYTE   Gs2
 BYTE   N05  Gs3
 BYTE   W12
 BYTE   As2
 BYTE   N05  As3
 BYTE   W06
 BYTE   Bn2
 BYTE   N05  Bn3
 BYTE   W06
 BYTE   Gs2
 BYTE   N05  Gs3
 BYTE   W48
// 008   ----------------------------------------
 BYTE   Gs2
 BYTE   N05  Gs3
 BYTE   W96
// 009   ----------------------------------------
 BYTE   W48
 BYTE   GoTo
  POIN2 Label_1_013A525B
// 010   ----------------------------------------
 BYTE   VOICE   50
 BYTE   BEND   c_v+0
 BYTE   FINE

//**************** Track 3 (Midi-Chn.2) ****************//

song33_003:
// 000   ----------------------------------------
 BYTE   KEYSH   song33_key+0
 BYTE   VOICE   47
 BYTE   VOL   63*song33_mvl/mxv
 BYTE   PAN   c_v+14
 BYTE   BEND   c_v+0
 BYTE   W48
Label_2_013A46DB:
 BYTE   W12
 BYTE   N05  Gs1  v100
 BYTE   N05  Gs2
 BYTE   W12
 BYTE   Gs1
 BYTE   N05  Gs2
 BYTE   W12
 BYTE   Gs1
 BYTE   N05  Gs2
 BYTE   W12
// 001   ----------------------------------------
 BYTE   W12
 BYTE   Gs1
 BYTE   N05  Gs2
 BYTE   W24
 BYTE   Gs1
 BYTE   N05  Gs2
 BYTE   W24
 BYTE   Gs1
 BYTE   N05  Gs2
 BYTE   W12
 BYTE   Gs1
 BYTE   N05  Gs2
 BYTE   W24
// 002   ----------------------------------------
 BYTE   Gs1
 BYTE   N05  Gs2
 BYTE   W18
 BYTE   Gs1
 BYTE   N05  Gs2
 BYTE   W18
 BYTE   Gs1
 BYTE   N05  Gs2
 BYTE   W24
 BYTE   Fs1
 BYTE   N05  Fs2
 BYTE   W12
 BYTE   Fs1
 BYTE   N05  Fs2
 BYTE   W12
 BYTE   Fs1
 BYTE   N05  Fs2
 BYTE   W12
// 003   ----------------------------------------
 BYTE   W12
 BYTE   Fs1
 BYTE   N05  Fs2
 BYTE   W24
 BYTE   Fs1
 BYTE   N05  Fs2
 BYTE   W24
 BYTE   Fs1
 BYTE   N05  Fs2
 BYTE   W12
 BYTE   Fs1
 BYTE   N05  Fs2
 BYTE   W24
// 004   ----------------------------------------
 BYTE   Fs1
 BYTE   N05  Fs2
 BYTE   W24
 BYTE   Fs1
 BYTE   N05  Fs2
 BYTE   W36
 BYTE   En1
 BYTE   N05  En2
 BYTE   W12
 BYTE   En1
 BYTE   N05  En2
 BYTE   W12
 BYTE   En1
 BYTE   N05  En2
 BYTE   W12
// 005   ----------------------------------------
 BYTE   W24
 BYTE   En1
 BYTE   N05  En2
 BYTE   W36
 BYTE   Fs1
 BYTE   N05  Fs2
 BYTE   W12
 BYTE   Fs1
 BYTE   N05  Fs2
 BYTE   W12
 BYTE   Fs1
 BYTE   N05  Fs2
 BYTE   W12
// 006   ----------------------------------------
 BYTE   W24
 BYTE   Fs1
 BYTE   N05  Fs2
 BYTE   W24
 BYTE   Gs1
 BYTE   N05  Gs2
 BYTE   W24
 BYTE   Gs1
 BYTE   N05  Gs2
 BYTE   W24
// 007   ----------------------------------------
 BYTE   Gs1
 BYTE   N05  Gs2
 BYTE   W24
 BYTE   Gs1
 BYTE   N05  Gs2
 BYTE   W12
 BYTE   As1
 BYTE   N05  As2
 BYTE   W12
 BYTE   Gs1
 BYTE   N05  Gs2
 BYTE   W48
// 008   ----------------------------------------
 BYTE   Gs1
 BYTE   N05  Gs2
 BYTE   W96
// 009   ----------------------------------------
 BYTE   W48
 BYTE   GoTo
  POIN2 Label_2_013A46DB
// 010   ----------------------------------------
 BYTE   VOICE   47
 BYTE   BEND   c_v+0
 BYTE   FINE

//**************** Track 4 (Midi-Chn.3) ****************//

song33_004:
// 000   ----------------------------------------
 BYTE   KEYSH   song33_key+0
 BYTE   VOICE   124
 BYTE   VOL   64*song33_mvl/mxv
 BYTE   PAN   c_v+0
 BYTE   En3  v064
 BYTE   En3
 BYTE   BEND   c_v+0
 BYTE   W48
Label_3_013A619A:
 BYTE   N05  Cn1  v100
 BYTE   W24
 BYTE   N05
 BYTE   W24
// 001   ----------------------------------------
Label_3_013A61A0:
 BYTE   N05  Cn1  v100
 BYTE   W24
 BYTE   N05
 BYTE   W24
 BYTE   N05
 BYTE   W24
 BYTE   N05
 BYTE   W24
 BYTE   PEND 
// 002   ----------------------------------------
 BYTE   N05
 BYTE   W24
 BYTE   N05
 BYTE   W06
 BYTE   N05
 BYTE   W06
 BYTE   N05
 BYTE   W12
 BYTE   N05
 BYTE   W24
 BYTE   N05
 BYTE   W24
// 003   ----------------------------------------
 BYTE   PATT
  POIN2 Label_3_013A61A0
// 004   ----------------------------------------
 BYTE   N05  Cn1  v100
 BYTE   W24
 BYTE   N05
 BYTE   W06
 BYTE   N05
 BYTE   W06
 BYTE   N05
 BYTE   W12
 BYTE   N05
 BYTE   W36
 BYTE   N05
 BYTE   W12
// 005   ----------------------------------------
 BYTE   W24
 BYTE   N05
 BYTE   W24
 BYTE   N05
 BYTE   W36
 BYTE   N05
 BYTE   W12
// 006   ----------------------------------------
 BYTE   W24
 BYTE   N05
 BYTE   W24
 BYTE   N05
 BYTE   W24
 BYTE   N05
 BYTE   W24
// 007   ----------------------------------------
 BYTE   PATT
  POIN2 Label_3_013A61A0
// 008   ----------------------------------------
 BYTE   N05  Cn1  v100
 BYTE   W24
 BYTE   N05
 BYTE   W06
 BYTE   N05
 BYTE   W06
 BYTE   N05
 BYTE   W06
 BYTE   N05
 BYTE   W54
// 009   ----------------------------------------
 BYTE   W48
 BYTE   GoTo
  POIN2 Label_3_013A619A
// 010   ----------------------------------------
 BYTE   VOICE   124
 BYTE   PAN   c_v+0
 BYTE   En3  v064
 BYTE   BEND   c_v+0
 BYTE   FINE

//**************** Track 5 (Midi-Chn.4) ****************//

song33_005:
// 000   ----------------------------------------
 BYTE   KEYSH   song33_key+0
 BYTE   VOICE   127
 BYTE   VOL   64*song33_mvl/mxv
 BYTE   PAN   c_v+0
 BYTE   En3  v064
 BYTE   En3
 BYTE   BEND   c_v+0
 BYTE   N05  Dn1  v100
 BYTE   N05  Dn2
 BYTE   W12
 BYTE   Dn1
 BYTE   N05  Dn2
 BYTE   W12
 BYTE   Dn1
 BYTE   N05  An1
 BYTE   W06
 BYTE   Dn1
 BYTE   N05  An1
 BYTE   W06
 BYTE   Dn1
 BYTE   N05  Fn1
 BYTE   W06
 BYTE   Dn1
 BYTE   N05  Fn1
 BYTE   W06
Label_4_013A4BF7:
 BYTE   N05  Gs1  v100
 BYTE   W12
 BYTE   Dn1
 BYTE   N05  Gs1
 BYTE   W06
 BYTE   Dn1
 BYTE   W06
 BYTE   N11  En1
 BYTE   N05  Gs1
 BYTE   W12
 BYTE   N05
 BYTE   N23  As1
 BYTE   N23  Cs2
 BYTE   W12
// 001   ----------------------------------------
 BYTE   N05  Gs1
 BYTE   W12
 BYTE   N11  En1
 BYTE   N05  Gs1
 BYTE   W12
 BYTE   Dn1
 BYTE   N05  Gs1
 BYTE   W06
 BYTE   Dn1
 BYTE   W06
 BYTE   N05
 BYTE   N05  Gs1
 BYTE   W06
 BYTE   Dn1
 BYTE   W06
 BYTE   N23
 BYTE   N05  Gs1
 BYTE   W12
 BYTE   N05
 BYTE   W12
 BYTE   N23  Dn1
 BYTE   N05  Gs1
 BYTE   W12
 BYTE   N05
 BYTE   W12
// 002   ----------------------------------------
 BYTE   N05
 BYTE   N23  As1
 BYTE   N23  Cs2
 BYTE   W12
 BYTE   N05  Gs1
 BYTE   W12
 BYTE   Dn1
 BYTE   N05  Gs1
 BYTE   W12
 BYTE   Dn1
 BYTE   N05  Gs1
 BYTE   W06
 BYTE   Dn1
 BYTE   W06
 BYTE   Gs1
 BYTE   W12
 BYTE   N11  Ds1
 BYTE   N05  Gs1
 BYTE   W12
 BYTE   Dn1
 BYTE   N05  Gs1
 BYTE   W12
 BYTE   N05
 BYTE   N23  As1
 BYTE   N23  Cs2
 BYTE   W12
// 003   ----------------------------------------
 BYTE   N05  Gs1
 BYTE   W12
 BYTE   Dn1
 BYTE   N05  Gs1
 BYTE   W12
 BYTE   En1
 BYTE   N05  Gs1
 BYTE   W12
 BYTE   Dn1
 BYTE   N05  Gs1
 BYTE   W12
 BYTE   N11  Ds1
 BYTE   N05  Gs1
 BYTE   W12
 BYTE   Dn1
 BYTE   N05  Gs1
 BYTE   W06
 BYTE   Ds1
 BYTE   W06
 BYTE   Gs1
 BYTE   W12
 BYTE   Dn1
 BYTE   N05  Gs1
 BYTE   W06
 BYTE   Dn1
 BYTE   W06
// 004   ----------------------------------------
 BYTE   Gs1
 BYTE   N23  As1
 BYTE   N23  Cs2
 BYTE   W12
 BYTE   N05  Dn1
 BYTE   N05  Gs1
 BYTE   W12
 BYTE   En1
 BYTE   N05  Gs1
 BYTE   W06
 BYTE   Dn1
 BYTE   W06
 BYTE   N05
 BYTE   N05  Gs1
 BYTE   W12
 BYTE   Dn1
 BYTE   N05  Gs1
 BYTE   W12
 BYTE   N05
 BYTE   W06
 BYTE   Dn1
 BYTE   W06
 BYTE   Gs1
 BYTE   W12
 BYTE   Dn1
 BYTE   N05  Gs1
 BYTE   W12
// 005   ----------------------------------------
 BYTE   Dn1
 BYTE   N05  Gs1
 BYTE   W12
 BYTE   N05
 BYTE   W06
 BYTE   Dn1
 BYTE   W06
 BYTE   Gs1
 BYTE   W12
 BYTE   Dn1
 BYTE   N05  Gs1
 BYTE   W12
 BYTE   Dn1
 BYTE   N05  Gs1
 BYTE   W12
 BYTE   Dn1
 BYTE   N05  Gs1
 BYTE   W12
 BYTE   Dn1
 BYTE   N05  Gs1
 BYTE   W12
 BYTE   Dn1
 BYTE   N05  Gs1
 BYTE   W12
// 006   ----------------------------------------
 BYTE   Dn1
 BYTE   N05  Gs1
 BYTE   W12
 BYTE   N05
 BYTE   W06
 BYTE   Dn1
 BYTE   W06
 BYTE   Gs1
 BYTE   W12
 BYTE   Dn1
 BYTE   N05  Gs1
 BYTE   W12
 BYTE   N11  Ds1
 BYTE   N05  Gs1
 BYTE   W12
 BYTE   N05
 BYTE   N23  As1
 BYTE   N23  Cs2
 BYTE   W12
 BYTE   N05  Gs1
 BYTE   W12
 BYTE   Dn1
 BYTE   N05  Gs1
 BYTE   W06
 BYTE   Ds1
 BYTE   W06
// 007   ----------------------------------------
 BYTE   Dn1
 BYTE   N05  Gs1
 BYTE   W06
 BYTE   En1
 BYTE   W06
 BYTE   Dn1
 BYTE   N05  Gs1
 BYTE   W06
 BYTE   Fn1
 BYTE   W06
 BYTE   N05
 BYTE   N05  Gs1
 BYTE   W06
 BYTE   Dn1
 BYTE   W06
 BYTE   Fn1
 BYTE   N05  Gs1
 BYTE   W06
 BYTE   Bn1
 BYTE   W06
 BYTE   Dn1
 BYTE   N05  Fn1
 BYTE   N05  Gs1
 BYTE   N23  As1
 BYTE   N23  Cs2
 BYTE   W06
 BYTE   N05  Dn1
 BYTE   N05  Fn1
 BYTE   W06
 BYTE   Dn1
 BYTE   N05  Gs1
 BYTE   N05  An1
 BYTE   W06
 BYTE   Dn1
 BYTE   N05  Cn2
 BYTE   W06
 BYTE   N11  Ds1
 BYTE   N05  Gs1
 BYTE   W12
 BYTE   Dn1
 BYTE   N05  Gs1
 BYTE   W06
 BYTE   Dn1
 BYTE   W06
// 008   ----------------------------------------
 BYTE   N05
 BYTE   N05  Gs1
 BYTE   N11  Ds2
 BYTE   W06
 BYTE   N05  Cn2
 BYTE   W06
 BYTE   Cn1
 BYTE   N05  Dn1
 BYTE   N05  Gs1
 BYTE   W06
 BYTE   Cn2
 BYTE   W06
 BYTE   Cn1
 BYTE   N05  Dn1
 BYTE   N05  Gs1
 BYTE   W06
 BYTE   An1
 BYTE   W06
 BYTE   Cn1
 BYTE   N05  Dn1
 BYTE   N05  Gs1
 BYTE   W06
 BYTE   Fn1
 BYTE   W06
 BYTE   Dn1
 BYTE   N05  Cn2
 BYTE   W12
 BYTE   Cn1
 BYTE   N05  An1
 BYTE   W06
 BYTE   Dn1
 BYTE   N05  Cn2
 BYTE   W12
 BYTE   Cn1
 BYTE   N05  An1
 BYTE   W06
 BYTE   Dn1
 BYTE   N05  Cn2
 BYTE   W12
// 009   ----------------------------------------
 BYTE   Cn1
 BYTE   N05  An1
 BYTE   W06
 BYTE   Dn1
 BYTE   N05  Cn2
 BYTE   W12
 BYTE   Cn1
 BYTE   N05  An1
 BYTE   W06
 BYTE   Dn1
 BYTE   N05  Cn2
 BYTE   W12
 BYTE   Dn1
 BYTE   N05  An1
 BYTE   W06
 BYTE   Dn1
 BYTE   N05  Fn1
 BYTE   W06
 BYTE   GoTo
  POIN2 Label_4_013A4BF7
// 010   ----------------------------------------
 BYTE   PAN   c_v+0
 BYTE   En3  v064
 BYTE   BEND   c_v+0
 BYTE   FINE

//**************** Track 6 (Midi-Chn.5) ****************//

song33_006:
// 000   ----------------------------------------
 BYTE   KEYSH   song33_key+0
 BYTE   VOICE   36
 BYTE   VOL   70*song33_mvl/mxv
 BYTE   PAN   c_v+0
 BYTE   En3  v064
 BYTE   En3
 BYTE   BEND   c_v+0
 BYTE   W48
Label_5_013A4786:
 BYTE   N05  Gs2  v100
 BYTE   W24
 BYTE   Ds2
 BYTE   W24
// 001   ----------------------------------------
 BYTE   Cs2
 BYTE   W24
 BYTE   Fs2
 BYTE   W24
 BYTE   Cs2
 BYTE   W18
 BYTE   N05
 BYTE   W18
 BYTE   Fs2
 BYTE   W12
// 002   ----------------------------------------
 BYTE   Ds2
 BYTE   W12
 BYTE   Cs2
 BYTE   W12
 BYTE   Gs1
 BYTE   W12
 BYTE   Fs1
 BYTE   W12
 BYTE   Ds1
 BYTE   W24
 BYTE   Fs1
 BYTE   W24
// 003   ----------------------------------------
 BYTE   Gs1
 BYTE   W24
 BYTE   As1
 BYTE   W24
 BYTE   Bn1
 BYTE   W12
 BYTE   Cs2
 BYTE   W06
 BYTE   Ds2
 BYTE   W06
 BYTE   Cs2
 BYTE   W12
 BYTE   Ds2
 BYTE   W06
 BYTE   Fs2
 BYTE   W06
// 004   ----------------------------------------
 BYTE   Cs2
 BYTE   W12
 BYTE   Bn1
 BYTE   W12
 BYTE   Fs1
 BYTE   W12
 BYTE   Ds1
 BYTE   W12
 BYTE   Bn1
 BYTE   W06
 BYTE   N05
 BYTE   W06
 BYTE   N05
 BYTE   W06
 BYTE   N05
 BYTE   W06
 BYTE   N05
 BYTE   W12
 BYTE   N05
 BYTE   W06
 BYTE   N05
 BYTE   W06
// 005   ----------------------------------------
 BYTE   N05
 BYTE   W12
 BYTE   N05
 BYTE   W12
 BYTE   N05
 BYTE   W12
 BYTE   N05
 BYTE   W06
 BYTE   N05
 BYTE   W06
 BYTE   As1
 BYTE   W12
 BYTE   N05
 BYTE   W12
 BYTE   N05
 BYTE   W06
 BYTE   N05
 BYTE   W06
 BYTE   N05
 BYTE   W12
// 006   ----------------------------------------
 BYTE   N05
 BYTE   W12
 BYTE   N05
 BYTE   W12
 BYTE   N05
 BYTE   W12
 BYTE   N05
 BYTE   W12
 BYTE   Gs1
 BYTE   W12
 BYTE   N05
 BYTE   W06
 BYTE   N05
 BYTE   W06
 BYTE   N05
 BYTE   W12
 BYTE   N05
 BYTE   W06
 BYTE   N05
 BYTE   W06
// 007   ----------------------------------------
 BYTE   N05
 BYTE   W12
 BYTE   N05
 BYTE   W06
 BYTE   N05
 BYTE   W06
 BYTE   N05
 BYTE   W06
 BYTE   As1
 BYTE   W06
 BYTE   Bn1
 BYTE   W06
 BYTE   Cs2
 BYTE   W06
 BYTE   Ds1
 BYTE   W12
 BYTE   Fs1
 BYTE   W12
 BYTE   Gs1
 BYTE   W12
 BYTE   As1
 BYTE   W12
// 008   ----------------------------------------
 BYTE   Bn1
 BYTE   W12
 BYTE   Cs2
 BYTE   W12
 BYTE   Ds2
 BYTE   W12
 BYTE   Cs2
 BYTE   W12
 BYTE   Gs2
 BYTE   W12
 BYTE   Gs1
 BYTE   W06
 BYTE   Gs2
 BYTE   W12
 BYTE   Gs1
 BYTE   W06
 BYTE   Gs2
 BYTE   W12
// 009   ----------------------------------------
 BYTE   Gs1
 BYTE   W06
 BYTE   Gs2
 BYTE   W12
 BYTE   Gs1
 BYTE   W06
 BYTE   Gs2
 BYTE   W12
 BYTE   Gs1
 BYTE   W06
 BYTE   N05
 BYTE   W06
 BYTE   GoTo
  POIN2 Label_5_013A4786
// 010   ----------------------------------------
 BYTE   VOICE   36
 BYTE   PAN   c_v+0
 BYTE   En3  v064
 BYTE   BEND   c_v+0
 BYTE   FINE

//******************************************************//
	ALIGN 4

song33:
	BYTE	6	// NumTrks
	BYTE	0	// NumBlks
	BYTE	song33_pri	// Priority
	BYTE	song33_rev	// Reverb.
    
	POIN2	song33_grp
    
	POIN2	song33_001
	POIN2	song33_002
	POIN2	song33_003
	POIN2	song33_004
	POIN2	song33_005
	POIN2	song33_006

	
