//Event file generated from Sappy .s format.
	#include "MPlayDef.event"

	#define	SetUp_grp  voicegroup000
	#define	SetUp_pri  0
	#define	SetUp_rev  192
	#define	SetUp_mvl  127
	#define	SetUp_key  0
	#define	SetUp_tbs  1
	#define	SetUp_exg  0
	#define	SetUp_cmp  1

	// .rodata
	//	SetUp
	ALIGN 4


//**************** Track 1 (Midi-Chn.0) ****************//

SetUp_001:
//  #01 //000   ----------------------------------------
 BYTE   KEYSH   SetUp_key+0
Label_0192B98A:
 BYTE   TEMPO   148*SetUp_tbs/2
 BYTE   VOICE   1
 BYTE   VOL   19*SetUp_mvl/mxv
 BYTE   PAN   c_v-4
 BYTE   W12
 BYTE   N06  Dn1  v120
 BYTE   N06  Dn2
 BYTE   W12
 BYTE   N12  Dn1
 BYTE   N12  Dn2
 BYTE   W24
 BYTE   N06  Dn1  v112
 BYTE   N06  Dn2
 BYTE   W12
 BYTE   N12  Dn1  v116
 BYTE   N12  Dn2
 BYTE   W24
 BYTE   N06  Dn1  v112
 BYTE   N06  Dn2
 BYTE   W12
//  #01 //001   ----------------------------------------
Label_0192B9B0:
 BYTE   W12
 BYTE   N06  Dn1  v120
 BYTE   N06  Dn2
 BYTE   W24
 BYTE   N18  Dn1  v116
 BYTE   N18  Dn2
 BYTE   W24
 BYTE   N06  Dn1  v120
 BYTE   N06  Dn2
 BYTE   W12
 BYTE   N12  Dn1
 BYTE   N12  Dn2
 BYTE   W24
 BYTE   PEND 
//  #01 //002   ----------------------------------------
Label_0192B9C9:
 BYTE   N06  Dn1  v112
 BYTE   N06  Dn2
 BYTE   W12
 BYTE   N12  Dn1  v116
 BYTE   N12  Dn2
 BYTE   W24
 BYTE   N06  Dn1  v112
 BYTE   N06  Dn2
 BYTE   W24
 BYTE   Dn1  v120
 BYTE   N06  Dn2
 BYTE   W24
 BYTE   N18  Dn1  v116
 BYTE   N18  Dn2
 BYTE   W12
 BYTE   PEND 
//  #01 //003   ----------------------------------------
Label_0192B9E7:
 BYTE   W12
 BYTE   N12  Dn1  v120
 BYTE   N12  Dn2
 BYTE   W48
 BYTE   Dn1
 BYTE   N12  Dn2
 BYTE   W36
 BYTE   PEND 
//  #01 //004   ----------------------------------------
Label_0192B9F3:
 BYTE   W12
 BYTE   N12  Dn1  v120
 BYTE   N12  Dn2
 BYTE   W24
 BYTE   Dn1
 BYTE   N12  Dn2
 BYTE   W24
 BYTE   Dn1
 BYTE   N12  Dn2
 BYTE   W36
 BYTE   PEND 
//  #01 //005   ----------------------------------------
Label_0192BA03:
 BYTE   W12
 BYTE   N12  Dn1  v120
 BYTE   N12  Dn2
 BYTE   W48
 BYTE   Dn1
 BYTE   N12  Dn2
 BYTE   W24
 BYTE   Dn1
 BYTE   N12  Dn2
 BYTE   W12
 BYTE   PEND 
//  #01 //006   ----------------------------------------
 BYTE   PATT
  POIN2 Label_0192B9E7
//  #01 //007   ----------------------------------------
 BYTE   PATT
  POIN2 Label_0192B9F3
//  #01 //008   ----------------------------------------
 BYTE   PATT
  POIN2 Label_0192BA03
//  #01 //009   ----------------------------------------
 BYTE   W12
 BYTE   N12  As0  v120
 BYTE   N12  As1
 BYTE   W48
 BYTE   As0
 BYTE   N12  As1
 BYTE   W36
//  #01 //010   ----------------------------------------
 BYTE   W12
 BYTE   Cn1
 BYTE   N12  Cn2
 BYTE   W24
 BYTE   Cn1
 BYTE   N12  Cn2
 BYTE   W24
 BYTE   An0
 BYTE   N12  An1
 BYTE   W36
//  #01 //011   ----------------------------------------
 BYTE   W12
 BYTE   An0
 BYTE   N12  An1
 BYTE   W48
 BYTE   As0
 BYTE   N12  As1
 BYTE   W24
 BYTE   As0
 BYTE   N12  As1
 BYTE   W12
//  #01 //012   ----------------------------------------
 BYTE   W12
 BYTE   Gn0
 BYTE   N12  Gn1
 BYTE   W48
 BYTE   Gn0
 BYTE   N12  Gn1
 BYTE   W36
//  #01 //013   ----------------------------------------
 BYTE   W12
 BYTE   An0
 BYTE   N12  An1
 BYTE   W24
 BYTE   An0
 BYTE   N12  An1
 BYTE   W24
 BYTE   Dn1
 BYTE   N12  Dn2
 BYTE   W36
//  #01 //014   ----------------------------------------
 BYTE   PATT
  POIN2 Label_0192BA03
//  #01 //015   ----------------------------------------
 BYTE   PATT
  POIN2 Label_0192B9E7
//  #01 //016   ----------------------------------------
 BYTE   W12
 BYTE   N12  Dn1  v120
 BYTE   N12  Dn2
 BYTE   W24
 BYTE   Dn1
 BYTE   N12  Dn2
 BYTE   W24
 BYTE   N06  Dn1
 BYTE   N06  Dn2
 BYTE   W12
 BYTE   N12  Dn1
 BYTE   N12  Dn2
 BYTE   W24
//  #01 //017   ----------------------------------------
 BYTE   PATT
  POIN2 Label_0192B9C9
//  #01 //018   ----------------------------------------
Label_0192BA81:
 BYTE   W12
 BYTE   N06  Dn1  v120
 BYTE   N06  Dn2
 BYTE   W12
 BYTE   N12  Dn1
 BYTE   N12  Dn2
 BYTE   W24
 BYTE   N06  Dn1  v112
 BYTE   N06  Dn2
 BYTE   W12
 BYTE   N12  Dn1  v116
 BYTE   N12  Dn2
 BYTE   W24
 BYTE   N06  Dn1  v112
 BYTE   N06  Dn2
 BYTE   W12
 BYTE   PEND 
//  #01 //019   ----------------------------------------
 BYTE   PATT
  POIN2 Label_0192B9B0
//  #01 //020   ----------------------------------------
 BYTE   PATT
  POIN2 Label_0192B9C9
//  #01 //021   ----------------------------------------
 BYTE   PATT
  POIN2 Label_0192BA81
//  #01 //022   ----------------------------------------
 BYTE   W12
 BYTE   N06  Dn1  v120
 BYTE   N06  Dn2
 BYTE   W24
 BYTE   N18  Dn1  v116
 BYTE   N18  Dn2
 BYTE   W24
 BYTE   N06  As0  v120
 BYTE   N06  As1
 BYTE   W12
 BYTE   N12  As0
 BYTE   N12  As1
 BYTE   W24
//  #01 //023   ----------------------------------------
 BYTE   N06  As0  v112
 BYTE   N06  As1
 BYTE   W12
 BYTE   N12  As0  v116
 BYTE   N12  As1
 BYTE   W24
 BYTE   N06  As0  v112
 BYTE   N06  As1
 BYTE   W24
 BYTE   Cn1  v120
 BYTE   N06  Cn2
 BYTE   W24
 BYTE   N18  Cn1  v116
 BYTE   N18  Cn2
 BYTE   W12
//  #01 //024   ----------------------------------------
 BYTE   W12
 BYTE   N06  An0  v120
 BYTE   N06  An1
 BYTE   W12
 BYTE   N12  An0
 BYTE   N12  An1
 BYTE   W24
 BYTE   N06  An0  v112
 BYTE   N06  An1
 BYTE   W12
 BYTE   N12  An0  v116
 BYTE   N12  An1
 BYTE   W24
 BYTE   N06  An0  v112
 BYTE   N06  An1
 BYTE   W12
//  #01 //025   ----------------------------------------
 BYTE   W12
 BYTE   As0  v120
 BYTE   N06  As1
 BYTE   W24
 BYTE   N18  As0  v116
 BYTE   N18  As1
 BYTE   W24
 BYTE   N06  Gn0  v120
 BYTE   N06  Gn1
 BYTE   W12
 BYTE   N12  Gn0
 BYTE   N12  Gn1
 BYTE   W24
//  #01 //026   ----------------------------------------
 BYTE   N06  Gn0  v112
 BYTE   N06  Gn1
 BYTE   W12
 BYTE   N12  Gn0  v116
 BYTE   N12  Gn1
 BYTE   W24
 BYTE   N06  Dn1  v112
 BYTE   N06  Dn2
 BYTE   W24
 BYTE   An0  v120
 BYTE   N06  An1
 BYTE   W24
 BYTE   N18  An0  v116
 BYTE   N18  An1
 BYTE   W12
//  #01 //027   ----------------------------------------
 BYTE   PATT
  POIN2 Label_0192BA81
//  #01 //028   ----------------------------------------
 BYTE   PATT
  POIN2 Label_0192B9B0
//  #01 //029   ----------------------------------------
 BYTE   PATT
  POIN2 Label_0192B9C9
//  #01 //030   ----------------------------------------
Label_0192BB45:
 BYTE   W12
 BYTE   N06  As0  v120
 BYTE   N06  As1
 BYTE   W12
 BYTE   N12  As0
 BYTE   N12  As1
 BYTE   W24
 BYTE   N06  As0  v112
 BYTE   N06  As1
 BYTE   W12
 BYTE   N12  As0  v116
 BYTE   N12  As1
 BYTE   W24
 BYTE   N06  As0  v112
 BYTE   N06  As1
 BYTE   W12
 BYTE   PEND 
//  #01 //031   ----------------------------------------
Label_0192BB64:
 BYTE   W12
 BYTE   N06  As0  v120
 BYTE   N06  As1
 BYTE   W24
 BYTE   N18  As0  v116
 BYTE   N18  As1
 BYTE   W24
 BYTE   N06  Cn1  v120
 BYTE   N06  Cn2
 BYTE   W12
 BYTE   N12  Cn1
 BYTE   N12  Cn2
 BYTE   W24
 BYTE   PEND 
//  #01 //032   ----------------------------------------
Label_0192BB7D:
 BYTE   N06  Cn1  v112
 BYTE   N06  Cn2
 BYTE   W12
 BYTE   N12  Cn1  v116
 BYTE   N12  Cn2
 BYTE   W24
 BYTE   N06  Cn1  v112
 BYTE   N06  Cn2
 BYTE   W24
 BYTE   Cn1  v120
 BYTE   N06  Cn2
 BYTE   W24
 BYTE   N18  Cn1  v116
 BYTE   N18  Cn2
 BYTE   W12
 BYTE   PEND 
//  #01 //033   ----------------------------------------
 BYTE   W12
 BYTE   N06  Cs1  v120
 BYTE   N06  Cs2
 BYTE   W12
 BYTE   N12  Cs1
 BYTE   N12  Cs2
 BYTE   W24
 BYTE   N06  Cs1  v112
 BYTE   N06  Cs2
 BYTE   W12
 BYTE   N12  Cs1  v116
 BYTE   N12  Cs2
 BYTE   W24
 BYTE   N06  Cs1  v112
 BYTE   N06  Cs2
 BYTE   W12
//  #01 //034   ----------------------------------------
 BYTE   W12
 BYTE   Cs1  v120
 BYTE   N06  Cs2
 BYTE   W24
 BYTE   N18  Cs1  v116
 BYTE   N18  Cs2
 BYTE   W24
 BYTE   N06  Dn1  v120
 BYTE   N06  Dn2
 BYTE   W12
 BYTE   N12  Dn1
 BYTE   N12  Dn2
 BYTE   W24
//  #01 //035   ----------------------------------------
 BYTE   PATT
  POIN2 Label_0192B9C9
//  #01 //036   ----------------------------------------
 BYTE   PATT
  POIN2 Label_0192BB45
//  #01 //037   ----------------------------------------
 BYTE   PATT
  POIN2 Label_0192BB64
//  #01 //038   ----------------------------------------
 BYTE   PATT
  POIN2 Label_0192BB7D
//  #01 //039   ----------------------------------------
 BYTE   PATT
  POIN2 Label_0192BA81
//  #01 //040   ----------------------------------------
 BYTE   PATT
  POIN2 Label_0192B9B0
//  #01 //041   ----------------------------------------
 BYTE   PATT
  POIN2 Label_0192B9C9
//  #01 //042   ----------------------------------------
 BYTE   W12
 BYTE   GoTo
  POIN2 Label_0192B98A
 BYTE   FINE

//**************** Track 2 (Midi-Chn.1) ****************//

SetUp_002:
//  #02 //000   ----------------------------------------
 BYTE   KEYSH   SetUp_key+0
Label_0192B276:
 BYTE   VOICE   49
 BYTE   VOL   31*SetUp_mvl/mxv
 BYTE   PAN   c_v+16
 BYTE   W12
 BYTE   N06  Dn1  v112
 BYTE   N06  Dn2
 BYTE   W12
 BYTE   N12  Dn1
 BYTE   N12  Dn2
 BYTE   W24
 BYTE   N06  Dn1  v100
 BYTE   N06  Dn2
 BYTE   W12
 BYTE   N12  Dn1  v108
 BYTE   N12  Dn2
 BYTE   W24
 BYTE   N06  Dn1  v100
 BYTE   N06  Dn2
 BYTE   W12
//  #02 //001   ----------------------------------------
Label_0192B29A:
 BYTE   W12
 BYTE   N06  Dn1  v112
 BYTE   N06  Dn2
 BYTE   W24
 BYTE   N18  Dn1  v108
 BYTE   N18  Dn2
 BYTE   W24
 BYTE   N06  Dn1  v112
 BYTE   N06  Dn2
 BYTE   W12
 BYTE   N12  Dn1
 BYTE   N12  Dn2
 BYTE   W24
 BYTE   PEND 
//  #02 //002   ----------------------------------------
Label_0192B2B3:
 BYTE   N06  Dn1  v100
 BYTE   N06  Dn2
 BYTE   W12
 BYTE   N12  Dn1  v108
 BYTE   N12  Dn2
 BYTE   W24
 BYTE   N06  Dn1  v100
 BYTE   N06  Dn2
 BYTE   W24
 BYTE   Dn1  v112
 BYTE   N06  Dn2
 BYTE   W24
 BYTE   N18  Dn1  v108
 BYTE   N18  Dn2
 BYTE   W12
 BYTE   PEND 
//  #02 //003   ----------------------------------------
Label_0192B2D1:
 BYTE   W12
 BYTE   N12  Dn1  v112
 BYTE   N12  Dn2
 BYTE   W48
 BYTE   Dn1
 BYTE   N12  Dn2
 BYTE   W36
 BYTE   PEND 
//  #02 //004   ----------------------------------------
Label_0192B2DD:
 BYTE   W12
 BYTE   N12  Dn1  v112
 BYTE   N12  Dn2
 BYTE   W24
 BYTE   Dn1
 BYTE   N12  Dn2
 BYTE   W24
 BYTE   Dn1
 BYTE   N12  Dn2
 BYTE   W36
 BYTE   PEND 
//  #02 //005   ----------------------------------------
Label_0192B2ED:
 BYTE   W12
 BYTE   N12  Dn1  v112
 BYTE   N12  Dn2
 BYTE   W48
 BYTE   Dn1
 BYTE   N12  Dn2
 BYTE   W24
 BYTE   Dn1
 BYTE   N12  Dn2
 BYTE   W12
 BYTE   PEND 
//  #02 //006   ----------------------------------------
 BYTE   PATT
  POIN2 Label_0192B2D1
//  #02 //007   ----------------------------------------
 BYTE   PATT
  POIN2 Label_0192B2DD
//  #02 //008   ----------------------------------------
 BYTE   PATT
  POIN2 Label_0192B2ED
//  #02 //009   ----------------------------------------
 BYTE   W12
 BYTE   N12  As0  v112
 BYTE   N12  As1
 BYTE   W48
 BYTE   As0
 BYTE   N12  As1
 BYTE   W36
//  #02 //010   ----------------------------------------
 BYTE   W12
 BYTE   Cn1
 BYTE   N12  Cn2
 BYTE   W24
 BYTE   Cn1
 BYTE   N12  Cn2
 BYTE   W24
 BYTE   An0
 BYTE   N12  An1
 BYTE   W36
//  #02 //011   ----------------------------------------
 BYTE   W12
 BYTE   An0
 BYTE   N12  An1
 BYTE   W48
 BYTE   As0
 BYTE   N12  As1
 BYTE   W24
 BYTE   As0
 BYTE   N12  As1
 BYTE   W12
//  #02 //012   ----------------------------------------
 BYTE   W12
 BYTE   Gn0
 BYTE   N12  Gn1
 BYTE   W48
 BYTE   Gn0
 BYTE   N12  Gn1
 BYTE   W36
//  #02 //013   ----------------------------------------
 BYTE   W12
 BYTE   An0
 BYTE   N12  An1
 BYTE   W24
 BYTE   An0
 BYTE   N12  An1
 BYTE   W24
 BYTE   Dn1
 BYTE   N12  Dn2
 BYTE   W36
//  #02 //014   ----------------------------------------
 BYTE   PATT
  POIN2 Label_0192B2ED
//  #02 //015   ----------------------------------------
 BYTE   PATT
  POIN2 Label_0192B2D1
//  #02 //016   ----------------------------------------
 BYTE   W12
 BYTE   N12  Dn1  v112
 BYTE   N12  Dn2
 BYTE   W24
 BYTE   Dn1
 BYTE   N12  Dn2
 BYTE   W24
 BYTE   N06  Dn1
 BYTE   N06  Dn2
 BYTE   W12
 BYTE   N12  Dn1
 BYTE   N12  Dn2
 BYTE   W24
//  #02 //017   ----------------------------------------
 BYTE   PATT
  POIN2 Label_0192B2B3
//  #02 //018   ----------------------------------------
Label_0192B36B:
 BYTE   W12
 BYTE   N06  Dn1  v112
 BYTE   N06  Dn2
 BYTE   W12
 BYTE   N12  Dn1
 BYTE   N12  Dn2
 BYTE   W24
 BYTE   N06  Dn1  v100
 BYTE   N06  Dn2
 BYTE   W12
 BYTE   N12  Dn1  v108
 BYTE   N12  Dn2
 BYTE   W24
 BYTE   N06  Dn1  v100
 BYTE   N06  Dn2
 BYTE   W12
 BYTE   PEND 
//  #02 //019   ----------------------------------------
 BYTE   PATT
  POIN2 Label_0192B29A
//  #02 //020   ----------------------------------------
 BYTE   PATT
  POIN2 Label_0192B2B3
//  #02 //021   ----------------------------------------
 BYTE   PATT
  POIN2 Label_0192B36B
//  #02 //022   ----------------------------------------
 BYTE   W12
 BYTE   N06  Dn1  v112
 BYTE   N06  Dn2
 BYTE   W24
 BYTE   N18  Dn1  v108
 BYTE   N18  Dn2
 BYTE   W24
 BYTE   N06  As0  v112
 BYTE   N06  As1
 BYTE   W12
 BYTE   N12  As0
 BYTE   N12  As1
 BYTE   W24
//  #02 //023   ----------------------------------------
 BYTE   N06  As0  v100
 BYTE   N06  As1
 BYTE   W12
 BYTE   N12  As0  v108
 BYTE   N12  As1
 BYTE   W24
 BYTE   N06  As0  v100
 BYTE   N06  As1
 BYTE   W24
 BYTE   Cn1  v112
 BYTE   N06  Cn2
 BYTE   W24
 BYTE   N18  Cn1  v108
 BYTE   N18  Cn2
 BYTE   W12
//  #02 //024   ----------------------------------------
 BYTE   W12
 BYTE   N06  An0  v112
 BYTE   N06  An1
 BYTE   W12
 BYTE   N12  An0
 BYTE   N12  An1
 BYTE   W24
 BYTE   N06  An0  v100
 BYTE   N06  An1
 BYTE   W12
 BYTE   N12  An0  v108
 BYTE   N12  An1
 BYTE   W24
 BYTE   N06  An0  v100
 BYTE   N06  An1
 BYTE   W12
//  #02 //025   ----------------------------------------
 BYTE   W12
 BYTE   As0  v112
 BYTE   N06  As1
 BYTE   W24
 BYTE   N18  As0  v108
 BYTE   N18  As1
 BYTE   W24
 BYTE   N06  Gn0  v112
 BYTE   N06  Gn1
 BYTE   W12
 BYTE   N12  Gn0
 BYTE   N12  Gn1
 BYTE   W24
//  #02 //026   ----------------------------------------
 BYTE   N06  Gn0  v100
 BYTE   N06  Gn1
 BYTE   W12
 BYTE   N12  Gn0  v108
 BYTE   N12  Gn1
 BYTE   W24
 BYTE   N06  Dn1  v100
 BYTE   N06  Dn2
 BYTE   W24
 BYTE   An0  v112
 BYTE   N06  An1
 BYTE   W24
 BYTE   N18  An0  v108
 BYTE   N18  An1
 BYTE   W12
//  #02 //027   ----------------------------------------
 BYTE   PATT
  POIN2 Label_0192B36B
//  #02 //028   ----------------------------------------
 BYTE   PATT
  POIN2 Label_0192B29A
//  #02 //029   ----------------------------------------
 BYTE   PATT
  POIN2 Label_0192B2B3
//  #02 //030   ----------------------------------------
Label_0192B42F:
 BYTE   W12
 BYTE   N06  As0  v112
 BYTE   N06  As1
 BYTE   W12
 BYTE   N12  As0
 BYTE   N12  As1
 BYTE   W24
 BYTE   N06  As0  v100
 BYTE   N06  As1
 BYTE   W12
 BYTE   N12  As0  v108
 BYTE   N12  As1
 BYTE   W24
 BYTE   N06  As0  v100
 BYTE   N06  As1
 BYTE   W12
 BYTE   PEND 
//  #02 //031   ----------------------------------------
Label_0192B44E:
 BYTE   W12
 BYTE   N06  As0  v112
 BYTE   N06  As1
 BYTE   W24
 BYTE   N18  As0  v108
 BYTE   N18  As1
 BYTE   W24
 BYTE   N06  Cn1  v112
 BYTE   N06  Cn2
 BYTE   W12
 BYTE   N12  Cn1
 BYTE   N12  Cn2
 BYTE   W24
 BYTE   PEND 
//  #02 //032   ----------------------------------------
Label_0192B467:
 BYTE   N06  Cn1  v100
 BYTE   N06  Cn2
 BYTE   W12
 BYTE   N12  Cn1  v108
 BYTE   N12  Cn2
 BYTE   W24
 BYTE   N06  Cn1  v100
 BYTE   N06  Cn2
 BYTE   W24
 BYTE   Cn1  v112
 BYTE   N06  Cn2
 BYTE   W24
 BYTE   N18  Cn1  v108
 BYTE   N18  Cn2
 BYTE   W12
 BYTE   PEND 
//  #02 //033   ----------------------------------------
 BYTE   W12
 BYTE   N06  Cs1  v112
 BYTE   N06  Cs2
 BYTE   W12
 BYTE   N12  Cs1
 BYTE   N12  Cs2
 BYTE   W24
 BYTE   N06  Cs1  v100
 BYTE   N06  Cs2
 BYTE   W12
 BYTE   N12  Cs1  v108
 BYTE   N12  Cs2
 BYTE   W24
 BYTE   N06  Cs1  v100
 BYTE   N06  Cs2
 BYTE   W12
//  #02 //034   ----------------------------------------
 BYTE   W12
 BYTE   Cs1  v112
 BYTE   N06  Cs2
 BYTE   W24
 BYTE   N18  Cs1  v108
 BYTE   N18  Cs2
 BYTE   W24
 BYTE   N06  Dn1  v112
 BYTE   N06  Dn2
 BYTE   W12
 BYTE   N12  Dn1
 BYTE   N12  Dn2
 BYTE   W24
//  #02 //035   ----------------------------------------
 BYTE   PATT
  POIN2 Label_0192B2B3
//  #02 //036   ----------------------------------------
 BYTE   PATT
  POIN2 Label_0192B42F
//  #02 //037   ----------------------------------------
 BYTE   PATT
  POIN2 Label_0192B44E
//  #02 //038   ----------------------------------------
 BYTE   PATT
  POIN2 Label_0192B467
//  #02 //039   ----------------------------------------
 BYTE   PATT
  POIN2 Label_0192B36B
//  #02 //040   ----------------------------------------
 BYTE   PATT
  POIN2 Label_0192B29A
//  #02 //041   ----------------------------------------
 BYTE   PATT
  POIN2 Label_0192B2B3
//  #02 //042   ----------------------------------------
 BYTE   W12
 BYTE   GoTo
  POIN2 Label_0192B276
 BYTE   FINE

//**************** Track 3 (Midi-Chn.2) ****************//

SetUp_003:
//  #03 //000   ----------------------------------------
 BYTE   KEYSH   SetUp_key+0
Label_019B2282:
 BYTE   VOICE   60
 BYTE   VOL   36*SetUp_mvl/mxv
 BYTE   PAN   c_v+2
 BYTE   W12
 BYTE   W84
//  #03 //001   ----------------------------------------
 BYTE   W96
//  #03 //002   ----------------------------------------
 BYTE   W96
//  #03 //003   ----------------------------------------
 BYTE   W96
//  #03 //004   ----------------------------------------
 BYTE   W60
 BYTE   N06  Dn2  v120
 BYTE   W12
 BYTE   N24  An2
 BYTE   W24
//  #03 //005   ----------------------------------------
 BYTE   N06
 BYTE   W12
 BYTE   N12  Cn3
 BYTE   W12
 BYTE   N06  Bn2
 BYTE   W12
 BYTE   N12  An2
 BYTE   W12
 BYTE   N06  Bn2
 BYTE   W12
 BYTE   N12  Gn2
 BYTE   W24
 BYTE   N24
 BYTE   W12
//  #03 //006   ----------------------------------------
 BYTE   W12
 BYTE   TIE  An2
 BYTE   W72
 BYTE   W01
 BYTE   W01
 BYTE   W01
 BYTE   W01
 BYTE   W01
 BYTE   W01
 BYTE   W01
 BYTE   W01
 BYTE   W01
 BYTE   W01
 BYTE   W01
 BYTE   W01
//  #03 //007   ----------------------------------------
 BYTE   W01
 BYTE   W01
 BYTE   W01
 BYTE   W01
 BYTE   W01
 BYTE   W01
 BYTE   W01
 BYTE   W01
 BYTE   W01
 BYTE   W01
 BYTE   W01
 BYTE   W01
 BYTE   W01
 BYTE   W01
 BYTE   W01
 BYTE   W01
 BYTE   W01
 BYTE   W01
 BYTE   W01
 BYTE   W01
 BYTE   W01
 BYTE   W01
 BYTE   W01
 BYTE   W01
 BYTE   W01
 BYTE   W01
 BYTE   W01
 BYTE   W01
 BYTE   W01
 BYTE   W01
 BYTE   W01
 BYTE   W01
 BYTE   W01
 BYTE   W01
 BYTE   W01
 BYTE   W01
 BYTE   W01
 BYTE   W01
 BYTE   W01
 BYTE   W01
 BYTE   W01
 BYTE   W01
 BYTE   W01
 BYTE   W01
 BYTE   W01
 BYTE   W01
 BYTE   W01
 BYTE   W01
 BYTE   EOT
 BYTE   W01
 BYTE   W01
 BYTE   W01
 BYTE   W01
 BYTE   W01
 BYTE   W01
 BYTE   W01
 BYTE   W01
 BYTE   W01
 BYTE   W01
 BYTE   W01
 BYTE   W01
 BYTE   N06  Dn2
 BYTE   W12
 BYTE   N24  An2
 BYTE   W24
//  #03 //008   ----------------------------------------
Label_019B22FB:
 BYTE   N06  Gn2  v120
 BYTE   W12
 BYTE   N12  Fn2
 BYTE   W12
 BYTE   N06  En2
 BYTE   W12
 BYTE   N12  Dn2
 BYTE   W12
 BYTE   N06  En2
 BYTE   W12
 BYTE   N12  Cn2
 BYTE   W24
 BYTE   N24
 BYTE   W12
 BYTE   PEND 
//  #03 //009   ----------------------------------------
 BYTE   W12
 BYTE   N96  An2  v100
 BYTE   W84
//  #03 //010   ----------------------------------------
 BYTE   W12
 BYTE   N48  En2
 BYTE   W48
 BYTE   N96
 BYTE   W36
//  #03 //011   ----------------------------------------
 BYTE   W60
 BYTE   N48  Fn2
 BYTE   W36
//  #03 //012   ----------------------------------------
 BYTE   W12
 BYTE   N72  An2
 BYTE   W72
 BYTE   En2
 BYTE   W12
//  #03 //013   ----------------------------------------
 BYTE   W60
 BYTE   N06  Dn2  v120
 BYTE   W12
 BYTE   N24  An2
 BYTE   W24
//  #03 //014   ----------------------------------------
 BYTE   PATT
  POIN2 Label_019B22FB
//  #03 //015   ----------------------------------------
 BYTE   W12
 BYTE   N06  Dn2  v120
 BYTE   W12
 BYTE   N24  An2
 BYTE   W24
 BYTE   N06
 BYTE   W12
 BYTE   N12  Cn3
 BYTE   W12
 BYTE   N06  Bn2
 BYTE   W12
 BYTE   N12  An2
 BYTE   W12
//  #03 //016   ----------------------------------------
 BYTE   N06  Bn2
 BYTE   W12
 BYTE   N12  Gn2
 BYTE   W24
 BYTE   N24
 BYTE   W24
 BYTE   N12  An2
 BYTE   W36
//  #03 //017   ----------------------------------------
 BYTE   W96
//  #03 //018   ----------------------------------------
 BYTE   W12
 BYTE   N06  Dn2  v112
 BYTE   W12
 BYTE   N24  An2
 BYTE   W24
 BYTE   N06
 BYTE   W12
 BYTE   N12  Cn3
 BYTE   W12
 BYTE   N06  Bn2
 BYTE   W12
 BYTE   N12  An2
 BYTE   W12
//  #03 //019   ----------------------------------------
 BYTE   N06  Bn2
 BYTE   W12
 BYTE   N12  Gn2
 BYTE   W24
 BYTE   N24
 BYTE   W24
 BYTE   TIE  An2
 BYTE   W36
//  #03 //020   ----------------------------------------
 BYTE   W36
 BYTE   W01
 BYTE   W01
 BYTE   W01
 BYTE   W01
 BYTE   W01
 BYTE   W01
 BYTE   W01
 BYTE   W01
 BYTE   W01
 BYTE   W01
 BYTE   W01
 BYTE   W01
 BYTE   W01
 BYTE   W01
 BYTE   W01
 BYTE   W01
 BYTE   W01
 BYTE   W01
 BYTE   W01
 BYTE   W01
 BYTE   W01
 BYTE   W01
 BYTE   W01
 BYTE   W01
 BYTE   W01
 BYTE   W01
 BYTE   W01
 BYTE   W01
 BYTE   W01
 BYTE   W01
 BYTE   W01
 BYTE   W01
 BYTE   W01
 BYTE   W01
 BYTE   W01
 BYTE   W01
 BYTE   W01
 BYTE   W01
 BYTE   W01
 BYTE   W01
 BYTE   W01
 BYTE   W01
 BYTE   W01
 BYTE   W01
 BYTE   W01
 BYTE   W01
 BYTE   W01
 BYTE   W01
 BYTE   W01
 BYTE   W01
 BYTE   W01
 BYTE   W01
 BYTE   W01
 BYTE   W01
 BYTE   W01
 BYTE   W01
 BYTE   W01
 BYTE   W01
 BYTE   W01
 BYTE   W01
//  #03 //021   ----------------------------------------
 BYTE   EOT
 BYTE   W01
 BYTE   W01
 BYTE   W01
 BYTE   W01
 BYTE   W01
 BYTE   W01
 BYTE   W01
 BYTE   W01
 BYTE   W01
 BYTE   W01
 BYTE   W01
 BYTE   W01
 BYTE   N06  Dn2
 BYTE   W12
 BYTE   N24  An2
 BYTE   W24
 BYTE   N06  Gn2
 BYTE   W12
 BYTE   N12  Fn2
 BYTE   W12
 BYTE   N06  En2
 BYTE   W12
 BYTE   N12  Dn2  v120
 BYTE   W12
//  #03 //022   ----------------------------------------
 BYTE   N06  En2
 BYTE   W12
 BYTE   N12  Cn2
 BYTE   W24
 BYTE   N24
 BYTE   W24
 BYTE   N96  An2  v072
 BYTE   W36
//  #03 //023   ----------------------------------------
 BYTE   W60
 BYTE   N48  En2
 BYTE   W36
//  #03 //024   ----------------------------------------
 BYTE   W12
 BYTE   N96
 BYTE   W84
//  #03 //025   ----------------------------------------
 BYTE   W12
 BYTE   N48  Fn2
 BYTE   W48
 BYTE   N72  An2
 BYTE   W36
//  #03 //026   ----------------------------------------
 BYTE   W36
 BYTE   En2
 BYTE   W60
//  #03 //027   ----------------------------------------
 BYTE   W12
 BYTE   N06  Dn2  v112
 BYTE   W12
 BYTE   N24  An2
 BYTE   W24
 BYTE   N06  Gn2
 BYTE   W12
 BYTE   N12  Fn2
 BYTE   W12
 BYTE   N06  En2
 BYTE   W12
 BYTE   N12  Dn2
 BYTE   W12
//  #03 //028   ----------------------------------------
 BYTE   N06  En2
 BYTE   W12
 BYTE   N12  Cn2
 BYTE   W24
 BYTE   N24
 BYTE   W24
 BYTE   N06  Dn2
 BYTE   W12
 BYTE   N24  An2
 BYTE   W24
//  #03 //029   ----------------------------------------
 BYTE   N06
 BYTE   W12
 BYTE   N12  Cn3
 BYTE   W12
 BYTE   N06  Bn2
 BYTE   W12
 BYTE   N12  An2
 BYTE   W12
 BYTE   N06  Bn2
 BYTE   W12
 BYTE   N12  Gn2
 BYTE   W24
 BYTE   N24
 BYTE   W12
//  #03 //030   ----------------------------------------
 BYTE   W12
 BYTE   N36  An2  v120
 BYTE   W36
 BYTE   N06  Dn3
 BYTE   W12
 BYTE   N42
 BYTE   W36
//  #03 //031   ----------------------------------------
 BYTE   W12
 BYTE   N24  En3
 BYTE   W24
 BYTE   Fn3
 BYTE   W24
 BYTE   N12  En3
 BYTE   W12
 BYTE   Cn3
 BYTE   W12
 BYTE   N66  An2
 BYTE   W12
//  #03 //032   ----------------------------------------
 BYTE   W60
 BYTE   N24  En3
 BYTE   W24
 BYTE   Fn3
 BYTE   W12
//  #03 //033   ----------------------------------------
 BYTE   W12
 BYTE   N12  Gn3
 BYTE   W12
 BYTE   Fn3
 BYTE   W12
 BYTE   En3
 BYTE   W12
 BYTE   Fn3
 BYTE   W12
 BYTE   N42  En3
 BYTE   W36
//  #03 //034   ----------------------------------------
 BYTE   W12
 BYTE   N24
 BYTE   W24
 BYTE   Fn3
 BYTE   W24
 BYTE   N48  An1  v112
 BYTE   W36
//  #03 //035   ----------------------------------------
 BYTE   W12
 BYTE   N24  Dn2
 BYTE   W24
 BYTE   N48  An1
 BYTE   N48  En2
 BYTE   W48
 BYTE   N24
 BYTE   N24  An2
 BYTE   W12
//  #03 //036   ----------------------------------------
 BYTE   W12
 BYTE   TIE  Dn2
 BYTE   N36  An2  v127
 BYTE   W36
 BYTE   N06  Dn3
 BYTE   W12
 BYTE   N42  Dn3  v120
 BYTE   W36
//  #03 //037   ----------------------------------------
 BYTE   W12
 BYTE   N24  En3
 BYTE   W24
 BYTE   Fn3
 BYTE   W24
 BYTE   EOT
 BYTE   Dn2
 BYTE   N12  En3
 BYTE   W12
 BYTE   Fn3
 BYTE   W12
 BYTE   N66  Gn3
 BYTE   W12
//  #03 //038   ----------------------------------------
 BYTE   W60
 BYTE   N24  Fn3
 BYTE   W24
 BYTE   En3
 BYTE   W12
//  #03 //039   ----------------------------------------
 BYTE   W12
 BYTE   TIE  Dn3
 BYTE   W84
//  #03 //040   ----------------------------------------
 BYTE   W60
 BYTE   W01
 BYTE   W01
 BYTE   W01
 BYTE   W01
 BYTE   W01
 BYTE   W01
 BYTE   W01
 BYTE   W01
 BYTE   W01
 BYTE   W01
 BYTE   W01
 BYTE   W01
 BYTE   W01
 BYTE   W01
 BYTE   W01
 BYTE   W01
 BYTE   W01
 BYTE   W01
 BYTE   W01
 BYTE   W01
 BYTE   W01
 BYTE   W01
 BYTE   W01
 BYTE   W01
 BYTE   W01
 BYTE   W01
 BYTE   W01
 BYTE   W01
 BYTE   W01
 BYTE   W01
 BYTE   W01
 BYTE   W01
 BYTE   W01
 BYTE   W01
 BYTE   W01
 BYTE   W01
//  #03 //041   ----------------------------------------
 BYTE   W01
 BYTE   W01
 BYTE   W01
 BYTE   W01
 BYTE   W01
 BYTE   W01
 BYTE   W01
 BYTE   W01
 BYTE   W01
 BYTE   W01
 BYTE   W01
 BYTE   W01
 BYTE   W01
 BYTE   W01
 BYTE   W01
 BYTE   W01
 BYTE   W01
 BYTE   W01
 BYTE   W01
 BYTE   W01
 BYTE   W01
 BYTE   W01
 BYTE   W01
 BYTE   W01
 BYTE   W01
 BYTE   W01
 BYTE   W01
 BYTE   W01
 BYTE   W01
 BYTE   W01
 BYTE   W01
 BYTE   W01
 BYTE   W01
 BYTE   W01
 BYTE   W01
 BYTE   W01
 BYTE   EOT
 BYTE   W60
//  #03 //042   ----------------------------------------
 BYTE   W12
 BYTE   GoTo
  POIN2 Label_019B2282
 BYTE   FINE

//**************** Track 4 (Midi-Chn.3) ****************//

SetUp_004:
//  #04 //000   ----------------------------------------
 BYTE   KEYSH   SetUp_key+0
Label_0192A8B2:
 BYTE   VOICE   55
 BYTE   VOL   32*SetUp_mvl/mxv
 BYTE   PAN   c_v+0
 BYTE   W96
//  #04 //001   ----------------------------------------
 BYTE   W96
//  #04 //002   ----------------------------------------
 BYTE   W96
//  #04 //003   ----------------------------------------
 BYTE   W96
//  #04 //004   ----------------------------------------
 BYTE   W96
//  #04 //005   ----------------------------------------
 BYTE   W96
//  #04 //006   ----------------------------------------
 BYTE   W96
//  #04 //007   ----------------------------------------
 BYTE   W96
//  #04 //008   ----------------------------------------
 BYTE   W96
//  #04 //009   ----------------------------------------
 BYTE   W12
 BYTE   N96  Fn2  v112
 BYTE   N96  An2  v120
 BYTE   W84
//  #04 //010   ----------------------------------------
 BYTE   W12
 BYTE   N48  Cn2  v112
 BYTE   N48  En2  v120
 BYTE   W48
 BYTE   N96  Cn2  v112
 BYTE   N96  En2  v120
 BYTE   W36
//  #04 //011   ----------------------------------------
 BYTE   W60
 BYTE   N48  Dn2  v112
 BYTE   N48  Fn2  v120
 BYTE   W36
//  #04 //012   ----------------------------------------
 BYTE   W12
 BYTE   N72  Fn2  v112
 BYTE   N72  An2  v120
 BYTE   W72
 BYTE   Cn2  v112
 BYTE   N72  En2  v120
 BYTE   W12
//  #04 //013   ----------------------------------------
 BYTE   W96
//  #04 //014   ----------------------------------------
 BYTE   W96
//  #04 //015   ----------------------------------------
 BYTE   W96
//  #04 //016   ----------------------------------------
 BYTE   W96
//  #04 //017   ----------------------------------------
 BYTE   W96
//  #04 //018   ----------------------------------------
 BYTE   W96
//  #04 //019   ----------------------------------------
 BYTE   W96
//  #04 //020   ----------------------------------------
 BYTE   W96
//  #04 //021   ----------------------------------------
 BYTE   W96
//  #04 //022   ----------------------------------------
 BYTE   W60
 BYTE   N96  Fn2  v112
 BYTE   N96  An2  v120
 BYTE   W36
//  #04 //023   ----------------------------------------
 BYTE   W60
 BYTE   N48  Cn2  v112
 BYTE   N48  En2  v120
 BYTE   W36
//  #04 //024   ----------------------------------------
 BYTE   W12
 BYTE   N96  Cn2  v112
 BYTE   N96  En2  v120
 BYTE   W84
//  #04 //025   ----------------------------------------
 BYTE   W12
 BYTE   N48  Dn2  v112
 BYTE   N48  Fn2  v120
 BYTE   W48
 BYTE   N72  Fn2  v112
 BYTE   N72  An2  v120
 BYTE   W36
//  #04 //026   ----------------------------------------
 BYTE   W36
 BYTE   Cn2  v112
 BYTE   N72  En2  v120
 BYTE   W60
//  #04 //027   ----------------------------------------
 BYTE   W96
//  #04 //028   ----------------------------------------
 BYTE   W96
//  #04 //029   ----------------------------------------
 BYTE   W96
//  #04 //030   ----------------------------------------
 BYTE   W96
//  #04 //031   ----------------------------------------
 BYTE   W96
//  #04 //032   ----------------------------------------
 BYTE   W96
//  #04 //033   ----------------------------------------
 BYTE   W96
//  #04 //034   ----------------------------------------
 BYTE   W96
//  #04 //035   ----------------------------------------
 BYTE   W96
//  #04 //036   ----------------------------------------
 BYTE   W96
//  #04 //037   ----------------------------------------
 BYTE   W96
//  #04 //038   ----------------------------------------
 BYTE   W96
//  #04 //039   ----------------------------------------
 BYTE   W96
//  #04 //040   ----------------------------------------
 BYTE   W96
//  #04 //041   ----------------------------------------
 BYTE   W96
//  #04 //042   ----------------------------------------
 BYTE   W12
 BYTE   GoTo
  POIN2 Label_0192A8B2
 BYTE   FINE

//**************** Track 5 (Midi-Chn.4) ****************//

SetUp_005:
//  #05 //000   ----------------------------------------
 BYTE   KEYSH   SetUp_key+0
Label_0192AAFA:
 BYTE   VOICE   61
 BYTE   VOL   25*SetUp_mvl/mxv
 BYTE   PAN   c_v-2
 BYTE   W96
//  #05 //001   ----------------------------------------
 BYTE   W96
//  #05 //002   ----------------------------------------
 BYTE   W96
//  #05 //003   ----------------------------------------
Label_0192AB03:
 BYTE   W12
 BYTE   N04  Fn2  v108
 BYTE   N04  An2
 BYTE   W12
 BYTE   N12  Fn2  v116
 BYTE   N12  An2
 BYTE   W24
 BYTE   N04  Fn2  v108
 BYTE   N04  An2
 BYTE   W36
 BYTE   Fn2
 BYTE   N04  An2
 BYTE   W12
 BYTE   PEND 
//  #05 //004   ----------------------------------------
Label_0192AB1B:
 BYTE   W12
 BYTE   N06  Fn2  v112
 BYTE   N06  An2
 BYTE   W24
 BYTE   N08  Fn2  v116
 BYTE   N08  An2
 BYTE   W24
 BYTE   N21  Fn2
 BYTE   N21  An2
 BYTE   W36
 BYTE   PEND 
//  #05 //005   ----------------------------------------
Label_0192AB2E:
 BYTE   N04  Fn2  v108
 BYTE   N04  An2
 BYTE   W36
 BYTE   Fn2
 BYTE   N04  An2
 BYTE   W24
 BYTE   N06  Gn2  v116
 BYTE   N06  Bn2
 BYTE   W24
 BYTE   N08  Gn2
 BYTE   N08  Bn2
 BYTE   W12
 BYTE   PEND 
//  #05 //006   ----------------------------------------
 BYTE   PATT
  POIN2 Label_0192AB03
//  #05 //007   ----------------------------------------
 BYTE   PATT
  POIN2 Label_0192AB1B
//  #05 //008   ----------------------------------------
 BYTE   PATT
  POIN2 Label_0192AB2E
//  #05 //009   ----------------------------------------
 BYTE   W12
 BYTE   N04  Fn2  v108
 BYTE   N04  An2
 BYTE   W12
 BYTE   N12  Fn2  v116
 BYTE   N12  An2
 BYTE   W24
 BYTE   N04  Fn2  v108
 BYTE   N04  An2
 BYTE   W48
//  #05 //010   ----------------------------------------
 BYTE   W12
 BYTE   N06  En2  v112
 BYTE   N06  Gn2
 BYTE   W24
 BYTE   N08  En2  v116
 BYTE   N08  Gn2
 BYTE   W24
 BYTE   N21  En2
 BYTE   N21  An2
 BYTE   W36
//  #05 //011   ----------------------------------------
 BYTE   N04  En2  v108
 BYTE   N04  An2
 BYTE   W60
 BYTE   N06  Fn2  v116
 BYTE   N06  An2
 BYTE   W24
 BYTE   N08  Fn2
 BYTE   N08  An2
 BYTE   W12
//  #05 //012   ----------------------------------------
 BYTE   W12
 BYTE   N04  Fn2  v108
 BYTE   N04  An2
 BYTE   W12
 BYTE   N12  Fn2  v116
 BYTE   N12  An2
 BYTE   W24
 BYTE   N04  Fn2  v108
 BYTE   N04  An2
 BYTE   W36
 BYTE   En2
 BYTE   N04  Gn2
 BYTE   W12
//  #05 //013   ----------------------------------------
 BYTE   W12
 BYTE   N06  En2  v112
 BYTE   N06  Gn2
 BYTE   W24
 BYTE   N08  En2  v116
 BYTE   N08  Gn2
 BYTE   W24
 BYTE   N21  Fn2
 BYTE   N21  An2
 BYTE   W36
//  #05 //014   ----------------------------------------
 BYTE   PATT
  POIN2 Label_0192AB2E
//  #05 //015   ----------------------------------------
Label_0192ABB7:
 BYTE   W12
 BYTE   N21  Fn2  v116
 BYTE   N21  An2
 BYTE   W36
 BYTE   N04  Fn2  v108
 BYTE   N04  An2
 BYTE   W36
 BYTE   Fn2
 BYTE   N04  An2
 BYTE   W12
 BYTE   PEND 
//  #05 //016   ----------------------------------------
Label_0192ABC9:
 BYTE   W12
 BYTE   N06  Gn2  v116
 BYTE   N06  Bn2
 BYTE   W24
 BYTE   N08  Gn2
 BYTE   N08  Bn2
 BYTE   W24
 BYTE   N04  Fn2  v108
 BYTE   N04  An2
 BYTE   W12
 BYTE   N12  Fn2  v116
 BYTE   N12  An2
 BYTE   W24
 BYTE   PEND 
//  #05 //017   ----------------------------------------
Label_0192ABE2:
 BYTE   N04  Fn2  v108
 BYTE   N04  An2
 BYTE   W36
 BYTE   Fn2
 BYTE   N04  An2
 BYTE   W24
 BYTE   N06  Fn2  v112
 BYTE   N06  An2
 BYTE   W24
 BYTE   N08  Fn2  v116
 BYTE   N08  An2
 BYTE   W12
 BYTE   PEND 
//  #05 //018   ----------------------------------------
 BYTE   PATT
  POIN2 Label_0192ABB7
//  #05 //019   ----------------------------------------
 BYTE   PATT
  POIN2 Label_0192ABC9
//  #05 //020   ----------------------------------------
 BYTE   PATT
  POIN2 Label_0192ABE2
//  #05 //021   ----------------------------------------
 BYTE   PATT
  POIN2 Label_0192ABB7
//  #05 //022   ----------------------------------------
 BYTE   PATT
  POIN2 Label_0192ABC9
//  #05 //023   ----------------------------------------
 BYTE   N04  Fn2  v108
 BYTE   N04  An2
 BYTE   W60
 BYTE   N06  En2  v112
 BYTE   N06  Gn2
 BYTE   W24
 BYTE   N08  En2  v116
 BYTE   N08  Gn2
 BYTE   W12
//  #05 //024   ----------------------------------------
 BYTE   W12
 BYTE   N21  En2
 BYTE   N21  An2
 BYTE   W36
 BYTE   N04  En2  v108
 BYTE   N04  An2
 BYTE   W48
//  #05 //025   ----------------------------------------
 BYTE   W12
 BYTE   N06  Fn2  v116
 BYTE   N06  An2
 BYTE   W24
 BYTE   N08  Fn2
 BYTE   N08  An2
 BYTE   W24
 BYTE   N04  Fn2  v108
 BYTE   N04  An2
 BYTE   W12
 BYTE   N12  Fn2  v116
 BYTE   N12  An2
 BYTE   W24
//  #05 //026   ----------------------------------------
 BYTE   N04  Fn2  v108
 BYTE   N04  An2
 BYTE   W36
 BYTE   En2
 BYTE   N04  Gn2
 BYTE   W24
 BYTE   N06  En2  v112
 BYTE   N06  Gn2
 BYTE   W24
 BYTE   N08  En2  v116
 BYTE   N08  Gn2
 BYTE   W12
//  #05 //027   ----------------------------------------
 BYTE   PATT
  POIN2 Label_0192ABB7
//  #05 //028   ----------------------------------------
 BYTE   W12
 BYTE   N06  Gn2  v116
 BYTE   N06  Bn2
 BYTE   W24
 BYTE   N08  Gn2
 BYTE   N08  Bn2
 BYTE   W24
 BYTE   N21  Fn2
 BYTE   N21  An2
 BYTE   W36
//  #05 //029   ----------------------------------------
 BYTE   PATT
  POIN2 Label_0192AB2E
//  #05 //030   ----------------------------------------
 BYTE   W96
//  #05 //031   ----------------------------------------
 BYTE   W96
//  #05 //032   ----------------------------------------
 BYTE   W96
//  #05 //033   ----------------------------------------
 BYTE   W96
//  #05 //034   ----------------------------------------
 BYTE   W96
//  #05 //035   ----------------------------------------
 BYTE   W96
//  #05 //036   ----------------------------------------
 BYTE   W96
//  #05 //037   ----------------------------------------
 BYTE   W96
//  #05 //038   ----------------------------------------
 BYTE   W96
//  #05 //039   ----------------------------------------
 BYTE   W96
//  #05 //040   ----------------------------------------
 BYTE   W96
//  #05 //041   ----------------------------------------
 BYTE   W96
//  #05 //042   ----------------------------------------
 BYTE   W12
 BYTE   GoTo
  POIN2 Label_0192AAFA
 BYTE   FINE

//**************** Track 6 (Midi-Chn.5) ****************//

SetUp_006:
//  #06 //000   ----------------------------------------
 BYTE   KEYSH   SetUp_key+0
Label_0192B00A:
 BYTE   VOICE   71
 BYTE   VOL   31*SetUp_mvl/mxv
 BYTE   PAN   c_v+1
 BYTE   W96
//  #06 //001   ----------------------------------------
 BYTE   W96
//  #06 //002   ----------------------------------------
 BYTE   W96
//  #06 //003   ----------------------------------------
 BYTE   W96
//  #06 //004   ----------------------------------------
 BYTE   W96
//  #06 //005   ----------------------------------------
 BYTE   W96
//  #06 //006   ----------------------------------------
 BYTE   W96
//  #06 //007   ----------------------------------------
 BYTE   W96
//  #06 //008   ----------------------------------------
 BYTE   W96
//  #06 //009   ----------------------------------------
 BYTE   W96
//  #06 //010   ----------------------------------------
 BYTE   W96
//  #06 //011   ----------------------------------------
 BYTE   W96
//  #06 //012   ----------------------------------------
 BYTE   W96
//  #06 //013   ----------------------------------------
 BYTE   W96
//  #06 //014   ----------------------------------------
 BYTE   W96
//  #06 //015   ----------------------------------------
 BYTE   W96
//  #06 //016   ----------------------------------------
 BYTE   W60
 BYTE   N06  Dn3  v112
 BYTE   W12
 BYTE   N24  An3
 BYTE   W24
//  #06 //017   ----------------------------------------
 BYTE   N06  Gn3  v100
 BYTE   W12
 BYTE   N12  Fn3  v112
 BYTE   W12
 BYTE   N06  En3  v100
 BYTE   W12
 BYTE   N12  Dn3
 BYTE   W12
 BYTE   N06  En3
 BYTE   W12
 BYTE   N12  Cn3  v108
 BYTE   W24
 BYTE   N24  Cn3  v112
 BYTE   W12
//  #06 //018   ----------------------------------------
 BYTE   W12
 BYTE   TIE  Dn3  v108
 BYTE   W84
//  #06 //019   ----------------------------------------
 BYTE   W36
 BYTE   EOT
 BYTE   W24
 BYTE   N06  Dn3  v112
 BYTE   W12
 BYTE   N22  An3
 BYTE   W24
//  #06 //020   ----------------------------------------
 BYTE   N06  An3  v100
 BYTE   W12
 BYTE   N12  Cn4  v112
 BYTE   W12
 BYTE   N06  Bn3  v100
 BYTE   W12
 BYTE   N12  An3
 BYTE   W12
 BYTE   N06  Bn3
 BYTE   W12
 BYTE   N12  Gn3  v108
 BYTE   W24
 BYTE   N24  Gn3  v112
 BYTE   W12
//  #06 //021   ----------------------------------------
 BYTE   W12
 BYTE   TIE  An3  v108
 BYTE   W84
//  #06 //022   ----------------------------------------
 BYTE   W36
 BYTE   EOT
 BYTE   W24
 BYTE   N12  Dn4
 BYTE   W24
 BYTE   N12
 BYTE   W12
//  #06 //023   ----------------------------------------
 BYTE   W12
 BYTE   N12
 BYTE   W12
 BYTE   En4
 BYTE   W12
 BYTE   Fn4
 BYTE   W12
 BYTE   En4
 BYTE   W24
 BYTE   N24
 BYTE   W24
//  #06 //024   ----------------------------------------
 BYTE   W12
 BYTE   N12
 BYTE   W24
 BYTE   N12
 BYTE   W24
 BYTE   N12
 BYTE   W12
 BYTE   Fn4
 BYTE   W12
 BYTE   Gn4
 BYTE   W12
//  #06 //025   ----------------------------------------
 BYTE   Fn4
 BYTE   W24
 BYTE   N24
 BYTE   W36
 BYTE   An4
 BYTE   W24
 BYTE   N06  Dn4
 BYTE   W12
//  #06 //026   ----------------------------------------
 BYTE   N24
 BYTE   W24
 BYTE   N12  An4
 BYTE   W12
 BYTE   N24  Gn4
 BYTE   W24
 BYTE   Fn4
 BYTE   W24
 BYTE   En4
 BYTE   W12
//  #06 //027   ----------------------------------------
 BYTE   W12
 BYTE   TIE  Dn4
 BYTE   W84
//  #06 //028   ----------------------------------------
 BYTE   W36
 BYTE   EOT
 BYTE   W60
//  #06 //029   ----------------------------------------
 BYTE   W96
//  #06 //030   ----------------------------------------
 BYTE   W96
//  #06 //031   ----------------------------------------
 BYTE   W96
//  #06 //032   ----------------------------------------
 BYTE   W96
//  #06 //033   ----------------------------------------
 BYTE   W96
//  #06 //034   ----------------------------------------
 BYTE   W96
//  #06 //035   ----------------------------------------
 BYTE   W96
//  #06 //036   ----------------------------------------
 BYTE   W96
//  #06 //037   ----------------------------------------
 BYTE   W96
//  #06 //038   ----------------------------------------
 BYTE   W96
//  #06 //039   ----------------------------------------
 BYTE   W96
//  #06 //040   ----------------------------------------
 BYTE   W96
//  #06 //041   ----------------------------------------
 BYTE   W96
//  #06 //042   ----------------------------------------
 BYTE   W12
 BYTE   GoTo
  POIN2 Label_0192B00A
 BYTE   FINE

//**************** Track 7 (Midi-Chn.6) ****************//

SetUp_007:
//  #07 //000   ----------------------------------------
 BYTE   KEYSH   SetUp_key+0
Label_0192B6BA:
 BYTE   VOICE   56
 BYTE   VOL   31*SetUp_mvl/mxv
 BYTE   PAN   c_v-3
 BYTE   W96
//  #07 //001   ----------------------------------------
 BYTE   W96
//  #07 //002   ----------------------------------------
 BYTE   W96
//  #07 //003   ----------------------------------------
 BYTE   W96
//  #07 //004   ----------------------------------------
 BYTE   W96
//  #07 //005   ----------------------------------------
 BYTE   W96
//  #07 //006   ----------------------------------------
 BYTE   W96
//  #07 //007   ----------------------------------------
 BYTE   W96
//  #07 //008   ----------------------------------------
 BYTE   W96
//  #07 //009   ----------------------------------------
 BYTE   W96
//  #07 //010   ----------------------------------------
 BYTE   W96
//  #07 //011   ----------------------------------------
 BYTE   W96
//  #07 //012   ----------------------------------------
 BYTE   W96
//  #07 //013   ----------------------------------------
 BYTE   W96
//  #07 //014   ----------------------------------------
 BYTE   W96
//  #07 //015   ----------------------------------------
 BYTE   W12
 BYTE   N06  An3  v096
 BYTE   N06  Dn4  v100
 BYTE   W12
 BYTE   N24  Dn4  v096
 BYTE   N24  An4  v100
 BYTE   W24
 BYTE   N06  Dn4  v096
 BYTE   N06  An4  v100
 BYTE   W12
 BYTE   N12  An4  v096
 BYTE   N12  Cn5  v100
 BYTE   W12
 BYTE   N06  Gn4  v096
 BYTE   N06  Bn4  v100
 BYTE   W12
 BYTE   N12  Fn4  v096
 BYTE   N12  An4  v100
 BYTE   W12
//  #07 //016   ----------------------------------------
 BYTE   N06  Gn4  v096
 BYTE   N06  Bn4  v100
 BYTE   W12
 BYTE   N12  Dn4  v096
 BYTE   N12  Gn4  v100
 BYTE   W24
 BYTE   N24  Dn4  v096
 BYTE   N24  Gn4  v100
 BYTE   W24
 BYTE   N12  Dn4  v088
 BYTE   N12  An4  v092
 BYTE   W36
//  #07 //017   ----------------------------------------
 BYTE   W96
//  #07 //018   ----------------------------------------
 BYTE   W96
//  #07 //019   ----------------------------------------
 BYTE   W96
//  #07 //020   ----------------------------------------
 BYTE   W96
//  #07 //021   ----------------------------------------
 BYTE   W96
//  #07 //022   ----------------------------------------
 BYTE   W96
//  #07 //023   ----------------------------------------
 BYTE   W96
//  #07 //024   ----------------------------------------
 BYTE   W96
//  #07 //025   ----------------------------------------
 BYTE   W96
//  #07 //026   ----------------------------------------
 BYTE   W96
//  #07 //027   ----------------------------------------
 BYTE   W96
//  #07 //028   ----------------------------------------
 BYTE   W60
 BYTE   N06  An3  v096
 BYTE   N06  Dn4  v100
 BYTE   W12
 BYTE   N24  Dn4  v096
 BYTE   N24  An4  v100
 BYTE   W24
//  #07 //029   ----------------------------------------
 BYTE   N06  Dn4  v096
 BYTE   N06  An4  v100
 BYTE   W12
 BYTE   N12  An4  v096
 BYTE   N12  Cn5  v100
 BYTE   W12
 BYTE   N06  Gn4  v096
 BYTE   N06  Bn4  v100
 BYTE   W12
 BYTE   N12  Fn4  v096
 BYTE   N12  An4  v100
 BYTE   W12
 BYTE   N06  Gn4  v096
 BYTE   N06  Bn4  v100
 BYTE   W12
 BYTE   N12  Dn4  v096
 BYTE   N12  Gn4  v100
 BYTE   W24
 BYTE   N24  Dn4  v096
 BYTE   N24  Gn4  v100
 BYTE   W12
//  #07 //030   ----------------------------------------
 BYTE   W12
 BYTE   N12  Dn4  v088
 BYTE   N12  An4  v092
 BYTE   W84
//  #07 //031   ----------------------------------------
 BYTE   W96
//  #07 //032   ----------------------------------------
 BYTE   W60
 BYTE   N24  Cn4
 BYTE   N24  En4  v100
 BYTE   W24
 BYTE   Dn4  v092
 BYTE   N24  Fn4  v100
 BYTE   W12
//  #07 //033   ----------------------------------------
 BYTE   W12
 BYTE   N12  En4  v092
 BYTE   N12  Gn4  v100
 BYTE   W12
 BYTE   Dn4  v092
 BYTE   N12  Fn4  v100
 BYTE   W12
 BYTE   Cs4  v092
 BYTE   N12  En4  v100
 BYTE   W12
 BYTE   Dn4  v092
 BYTE   N12  Fn4  v100
 BYTE   W12
 BYTE   N42  Cs4  v092
 BYTE   N42  En4  v100
 BYTE   W36
//  #07 //034   ----------------------------------------
 BYTE   W12
 BYTE   N24  Cs4  v092
 BYTE   N24  En4  v100
 BYTE   W24
 BYTE   Dn4  v092
 BYTE   N24  Fn4  v100
 BYTE   W24
 BYTE   N12  An3  v092
 BYTE   N12  En4  v100
 BYTE   W12
 BYTE   An3  v092
 BYTE   N12  Dn4  v100
 BYTE   W12
 BYTE   N96  Fn3  v092
 BYTE   N96  An3  v100
 BYTE   W12
//  #07 //035   ----------------------------------------
 BYTE   W96
//  #07 //036   ----------------------------------------
 BYTE   W96
//  #07 //037   ----------------------------------------
 BYTE   W96
//  #07 //038   ----------------------------------------
 BYTE   W96
//  #07 //039   ----------------------------------------
 BYTE   W96
//  #07 //040   ----------------------------------------
 BYTE   W96
//  #07 //041   ----------------------------------------
 BYTE   W96
//  #07 //042   ----------------------------------------
 BYTE   W12
 BYTE   GoTo
  POIN2 Label_0192B6BA
 BYTE   FINE

//**************** Track 8 (Midi-Chn.7) ****************//

SetUp_008:
//  #08 //000   ----------------------------------------
 BYTE   KEYSH   SetUp_key+0
Label_019B24DE:
 BYTE   VOICE   1
 BYTE   VOL   19*SetUp_mvl/mxv
 BYTE   PAN   c_v-34
 BYTE   W96
//  #08 //001   ----------------------------------------
 BYTE   W96
//  #08 //002   ----------------------------------------
 BYTE   W96
//  #08 //003   ----------------------------------------
 BYTE   W96
//  #08 //004   ----------------------------------------
Label_019B24E8:
 BYTE   W60
 BYTE   N12  An3  v096
 BYTE   N12  Dn4  v108
 BYTE   W12
 BYTE   N06  Fn4  v096
 BYTE   N06  An4  v108
 BYTE   W06
 BYTE   En4  v096
 BYTE   N06  Gn4  v108
 BYTE   W06
 BYTE   N12  Fn4  v096
 BYTE   N12  An4  v108
 BYTE   W12
 BYTE   PEND 
//  #08 //005   ----------------------------------------
Label_019B2505:
 BYTE   N12  An3  v096
 BYTE   N12  Dn4  v108
 BYTE   W12
 BYTE   N06  Fn4  v096
 BYTE   N06  An4  v108
 BYTE   W06
 BYTE   En4  v096
 BYTE   N06  Gn4  v108
 BYTE   W06
 BYTE   N12  Fn4  v096
 BYTE   N12  An4  v108
 BYTE   W12
 BYTE   An4  v096
 BYTE   N12  Cn5  v108
 BYTE   W12
 BYTE   Gn4  v096
 BYTE   N12  Bn4  v108
 BYTE   W12
 BYTE   Fn4  v096
 BYTE   N12  An4  v108
 BYTE   W12
 BYTE   Gn4  v096
 BYTE   N12  Bn4  v108
 BYTE   W12
 BYTE   En4  v096
 BYTE   N12  Gn4  v108
 BYTE   W12
 BYTE   PEND 
//  #08 //006   ----------------------------------------
 BYTE   En4  v096
 BYTE   N12  Gn4  v108
 BYTE   W12
 BYTE   N03  An4  v092
 BYTE   W03
 BYTE   Dn4
 BYTE   W03
 BYTE   An4
 BYTE   W03
 BYTE   Dn4
 BYTE   W03
 BYTE   An4
 BYTE   W03
 BYTE   Dn4
 BYTE   W03
 BYTE   An4
 BYTE   W03
 BYTE   Dn4
 BYTE   W03
 BYTE   An4  v096
 BYTE   W03
 BYTE   Dn4
 BYTE   W03
 BYTE   An4
 BYTE   W03
 BYTE   Dn4
 BYTE   W03
 BYTE   An4  v100
 BYTE   W03
 BYTE   Dn4
 BYTE   W03
 BYTE   An4
 BYTE   W03
 BYTE   Dn4
 BYTE   W03
 BYTE   An4  v096
 BYTE   W03
 BYTE   Dn4
 BYTE   W03
 BYTE   An4  v092
 BYTE   W03
 BYTE   Dn4
 BYTE   W03
 BYTE   An4
 BYTE   W03
 BYTE   Dn4
 BYTE   W03
 BYTE   An4  v088
 BYTE   W03
 BYTE   Dn4
 BYTE   W15
//  #08 //007   ----------------------------------------
 BYTE   PATT
  POIN2 Label_019B24E8
//  #08 //008   ----------------------------------------
 BYTE   PATT
  POIN2 Label_019B2505
//  #08 //009   ----------------------------------------
 BYTE   N12  En4  v096
 BYTE   N12  Gn4  v108
 BYTE   W12
 BYTE   N03  Fn4  v092
 BYTE   W03
 BYTE   Dn4
 BYTE   W03
 BYTE   Fn4
 BYTE   W03
 BYTE   Dn4
 BYTE   W03
 BYTE   Fn4
 BYTE   W03
 BYTE   Dn4
 BYTE   W03
 BYTE   Fn4
 BYTE   W03
 BYTE   Dn4
 BYTE   W03
 BYTE   Fn4  v096
 BYTE   W03
 BYTE   Dn4
 BYTE   W03
 BYTE   Fn4
 BYTE   W03
 BYTE   Dn4
 BYTE   W03
 BYTE   Fn4  v100
 BYTE   W03
 BYTE   Dn4
 BYTE   W03
 BYTE   Fn4
 BYTE   W03
 BYTE   Dn4
 BYTE   W03
 BYTE   Fn4  v096
 BYTE   W03
 BYTE   Dn4
 BYTE   W03
 BYTE   Fn4  v092
 BYTE   W03
 BYTE   Dn4
 BYTE   W03
 BYTE   Fn4
 BYTE   W03
 BYTE   Dn4
 BYTE   W03
 BYTE   Fn4  v088
 BYTE   W03
 BYTE   Dn4
 BYTE   W15
//  #08 //010   ----------------------------------------
 BYTE   W96
//  #08 //011   ----------------------------------------
 BYTE   W96
//  #08 //012   ----------------------------------------
 BYTE   W96
//  #08 //013   ----------------------------------------
 BYTE   W96
//  #08 //014   ----------------------------------------
 BYTE   W96
//  #08 //015   ----------------------------------------
 BYTE   W96
//  #08 //016   ----------------------------------------
 BYTE   W96
//  #08 //017   ----------------------------------------
 BYTE   W96
//  #08 //018   ----------------------------------------
Label_019B25CC:
 BYTE   W12
 BYTE   N12  An3  v092
 BYTE   N12  Dn4  v100
 BYTE   W12
 BYTE   N06  Fn4  v092
 BYTE   N06  An4  v100
 BYTE   W06
 BYTE   En4  v092
 BYTE   N06  Gn4  v100
 BYTE   W06
 BYTE   N12  Fn4  v092
 BYTE   N12  An4  v100
 BYTE   W12
 BYTE   An3  v092
 BYTE   N12  Dn4  v100
 BYTE   W12
 BYTE   N06  Fn4  v092
 BYTE   N06  An4  v100
 BYTE   W06
 BYTE   En4  v092
 BYTE   N06  Gn4  v100
 BYTE   W06
 BYTE   N12  Fn4  v092
 BYTE   N12  An4  v100
 BYTE   W12
 BYTE   An4  v092
 BYTE   N12  Cn5  v100
 BYTE   W12
 BYTE   PEND 
//  #08 //019   ----------------------------------------
 BYTE   Gn4  v092
 BYTE   N12  Bn4  v100
 BYTE   W12
 BYTE   Fn4  v092
 BYTE   N12  An4  v100
 BYTE   W12
 BYTE   Gn4  v092
 BYTE   N12  Bn4  v100
 BYTE   W12
 BYTE   En4  v092
 BYTE   N12  Gn4  v100
 BYTE   W12
 BYTE   En4  v092
 BYTE   N12  Gn4  v100
 BYTE   W12
 BYTE   N03  An4  v088
 BYTE   W03
 BYTE   Dn4
 BYTE   W03
 BYTE   An4
 BYTE   W03
 BYTE   Dn4
 BYTE   W03
 BYTE   An4
 BYTE   W03
 BYTE   Dn4
 BYTE   W03
 BYTE   An4
 BYTE   W03
 BYTE   Dn4
 BYTE   W03
 BYTE   An4  v092
 BYTE   W03
 BYTE   Dn4
 BYTE   W03
 BYTE   An4
 BYTE   W03
 BYTE   Dn4
 BYTE   W03
//  #08 //020   ----------------------------------------
 BYTE   An4
 BYTE   W03
 BYTE   Dn4
 BYTE   W03
 BYTE   An4
 BYTE   W03
 BYTE   Dn4
 BYTE   W03
 BYTE   An4
 BYTE   W03
 BYTE   Dn4
 BYTE   W03
 BYTE   An4  v088
 BYTE   W03
 BYTE   Dn4
 BYTE   W03
 BYTE   An4
 BYTE   W03
 BYTE   Dn4
 BYTE   W03
 BYTE   An4  v084
 BYTE   W03
 BYTE   Dn4  v080
 BYTE   W60
 BYTE   W03
//  #08 //021   ----------------------------------------
 BYTE   PATT
  POIN2 Label_019B25CC
//  #08 //022   ----------------------------------------
 BYTE   N12  Gn4  v092
 BYTE   N12  Bn4  v100
 BYTE   W12
 BYTE   Fn4  v092
 BYTE   N12  An4  v100
 BYTE   W12
 BYTE   Gn4  v092
 BYTE   N12  Bn4  v100
 BYTE   W12
 BYTE   En4  v092
 BYTE   N12  Gn4  v100
 BYTE   W12
 BYTE   En4  v092
 BYTE   N12  Gn4  v100
 BYTE   W12
 BYTE   N03  Fn4  v088
 BYTE   W03
 BYTE   Dn4
 BYTE   W03
 BYTE   Fn4
 BYTE   W03
 BYTE   Dn4
 BYTE   W03
 BYTE   Fn4
 BYTE   W03
 BYTE   Dn4
 BYTE   W03
 BYTE   Fn4
 BYTE   W03
 BYTE   Dn4
 BYTE   W03
 BYTE   Fn4  v092
 BYTE   W03
 BYTE   Dn4
 BYTE   W03
 BYTE   Fn4
 BYTE   W03
 BYTE   Dn4
 BYTE   W03
//  #08 //023   ----------------------------------------
 BYTE   Fn4
 BYTE   W03
 BYTE   Dn4
 BYTE   W03
 BYTE   Fn4
 BYTE   W03
 BYTE   Dn4
 BYTE   W03
 BYTE   Fn4
 BYTE   W03
 BYTE   Dn4
 BYTE   W03
 BYTE   Fn4  v088
 BYTE   W03
 BYTE   Dn4
 BYTE   W03
 BYTE   Fn4
 BYTE   W03
 BYTE   Dn4
 BYTE   W03
 BYTE   Fn4  v084
 BYTE   W03
 BYTE   Dn4  v080
 BYTE   W60
 BYTE   W03
//  #08 //024   ----------------------------------------
 BYTE   W96
//  #08 //025   ----------------------------------------
 BYTE   W96
//  #08 //026   ----------------------------------------
 BYTE   W96
//  #08 //027   ----------------------------------------
 BYTE   W96
//  #08 //028   ----------------------------------------
 BYTE   W96
//  #08 //029   ----------------------------------------
 BYTE   W96
//  #08 //030   ----------------------------------------
 BYTE   W96
//  #08 //031   ----------------------------------------
 BYTE   W96
//  #08 //032   ----------------------------------------
 BYTE   W96
//  #08 //033   ----------------------------------------
 BYTE   W96
//  #08 //034   ----------------------------------------
 BYTE   PATT
  POIN2 Label_019B24E8
//  #08 //035   ----------------------------------------
 BYTE   N12  An3  v096
 BYTE   N12  Dn4  v108
 BYTE   W12
 BYTE   N06  Fn4  v096
 BYTE   N06  An4  v108
 BYTE   W06
 BYTE   En4  v096
 BYTE   N06  Gn4  v108
 BYTE   W06
 BYTE   N12  Fn4  v096
 BYTE   N12  An4  v108
 BYTE   W12
 BYTE   Fn4  v096
 BYTE   N12  An4  v108
 BYTE   W12
 BYTE   En4  v096
 BYTE   N12  Gn4  v108
 BYTE   W12
 BYTE   Dn4  v096
 BYTE   N12  Fn4  v108
 BYTE   W12
 BYTE   En4  v096
 BYTE   N12  Gn4  v108
 BYTE   W12
 BYTE   An3  v096
 BYTE   N12  En4  v108
 BYTE   W12
//  #08 //036   ----------------------------------------
 BYTE   An3  v096
 BYTE   N12  En4  v108
 BYTE   W12
 BYTE   N03  Fn4  v092
 BYTE   W03
 BYTE   Dn4
 BYTE   W03
 BYTE   Fn4
 BYTE   W03
 BYTE   Dn4
 BYTE   W03
 BYTE   Fn4
 BYTE   W03
 BYTE   Dn4
 BYTE   W03
 BYTE   Fn4
 BYTE   W03
 BYTE   Dn4
 BYTE   W03
 BYTE   Fn4  v096
 BYTE   W03
 BYTE   Dn4
 BYTE   W03
 BYTE   Fn4
 BYTE   W03
 BYTE   Dn4
 BYTE   W03
 BYTE   Fn4  v100
 BYTE   W03
 BYTE   Dn4
 BYTE   W03
 BYTE   Fn4
 BYTE   W03
 BYTE   Dn4
 BYTE   W03
 BYTE   Fn4  v096
 BYTE   W03
 BYTE   Dn4
 BYTE   W03
 BYTE   Fn4  v092
 BYTE   W03
 BYTE   Dn4
 BYTE   W03
 BYTE   Fn4
 BYTE   W03
 BYTE   Dn4
 BYTE   W03
 BYTE   Fn4  v088
 BYTE   W03
 BYTE   Dn4
 BYTE   W15
//  #08 //037   ----------------------------------------
 BYTE   W96
//  #08 //038   ----------------------------------------
 BYTE   W96
//  #08 //039   ----------------------------------------
 BYTE   W12
 BYTE   N12  An3  v096
 BYTE   N12  Dn4  v108
 BYTE   W12
 BYTE   N06  Fs4  v096
 BYTE   N06  An4  v108
 BYTE   W06
 BYTE   En4  v096
 BYTE   N06  Gn4  v108
 BYTE   W06
 BYTE   N12  Fs4  v096
 BYTE   N12  An4  v108
 BYTE   W12
 BYTE   An3  v096
 BYTE   N12  Dn4  v108
 BYTE   W12
 BYTE   N06  Fs4  v096
 BYTE   N06  An4  v108
 BYTE   W06
 BYTE   En4  v096
 BYTE   N06  Gn4  v108
 BYTE   W06
 BYTE   N12  Fs4  v096
 BYTE   N12  An4  v108
 BYTE   W12
 BYTE   An4  v096
 BYTE   N12  Cn5  v108
 BYTE   W12
//  #08 //040   ----------------------------------------
 BYTE   Gn4  v096
 BYTE   N12  Bn4  v108
 BYTE   W12
 BYTE   Fs4  v096
 BYTE   N12  An4  v108
 BYTE   W12
 BYTE   Gn4  v096
 BYTE   N12  Bn4  v108
 BYTE   W12
 BYTE   En4  v096
 BYTE   N12  Gn4  v108
 BYTE   W12
 BYTE   En4  v096
 BYTE   N12  Gn4  v108
 BYTE   W12
 BYTE   An3  v096
 BYTE   N12  Dn4  v108
 BYTE   W12
 BYTE   N06  Fs4  v096
 BYTE   N06  An4  v108
 BYTE   W06
 BYTE   En4  v096
 BYTE   N06  Gn4  v108
 BYTE   W06
 BYTE   N12  Fs4  v096
 BYTE   N12  An4  v108
 BYTE   W12
//  #08 //041   ----------------------------------------
 BYTE   An3  v096
 BYTE   N12  Dn4  v108
 BYTE   W12
 BYTE   N06  Fs4  v096
 BYTE   N06  An4  v108
 BYTE   W06
 BYTE   En4  v096
 BYTE   N06  Gn4  v108
 BYTE   W06
 BYTE   N12  Fs4  v096
 BYTE   N12  An4  v108
 BYTE   W12
 BYTE   N03  An4  v092
 BYTE   W03
 BYTE   Dn4
 BYTE   W03
 BYTE   An4
 BYTE   W03
 BYTE   Dn4
 BYTE   W03
 BYTE   An4
 BYTE   W03
 BYTE   Dn4
 BYTE   W03
 BYTE   An4
 BYTE   W03
 BYTE   Dn4
 BYTE   W03
 BYTE   An4  v096
 BYTE   W03
 BYTE   Dn4
 BYTE   W03
 BYTE   An4
 BYTE   W03
 BYTE   Dn4
 BYTE   W03
 BYTE   An4  v100
 BYTE   W03
 BYTE   Dn4
 BYTE   W03
 BYTE   An4
 BYTE   W03
 BYTE   Dn4
 BYTE   W03
 BYTE   An4  v096
 BYTE   W03
 BYTE   Dn4
 BYTE   W03
 BYTE   An4  v092
 BYTE   W03
 BYTE   Dn4
 BYTE   W03
//  #08 //042   ----------------------------------------
 BYTE   An4
 BYTE   W03
 BYTE   Dn4
 BYTE   W03
 BYTE   An4  v088
 BYTE   W03
 BYTE   Dn4
 BYTE   W03
 BYTE   GoTo
  POIN2 Label_019B24DE
 BYTE   FINE

//**************** Track 9 (Midi-Chn.8) ****************//

SetUp_009:
//  #09 //000   ----------------------------------------
 BYTE   KEYSH   SetUp_key+0
Label_0192ACE2:
 BYTE   VOICE   41
 BYTE   VOL   32*SetUp_mvl/mxv
 BYTE   PAN   c_v-14
 BYTE   W12
 BYTE   TIE  Dn3  v096
 BYTE   TIE  Fn3
 BYTE   W84
//  #09 //001   ----------------------------------------
 BYTE   W60
 BYTE   EOT
 BYTE   Dn3  v065
 BYTE   TIE  En3
 BYTE   TIE  Gn3
 BYTE   W36
//  #09 //002   ----------------------------------------
 BYTE   W96
//  #09 //003   ----------------------------------------
 BYTE   W06
 BYTE   EOT
 BYTE   En3  v067
 BYTE   W06
 BYTE   N06  Dn3  v116
 BYTE   W12
 BYTE   N24  An3
 BYTE   W24
 BYTE   N06  Gn3  v108
 BYTE   W12
 BYTE   N12  Fn3  v116
 BYTE   W12
 BYTE   N06  En3  v108
 BYTE   W12
 BYTE   N12  Dn3
 BYTE   W12
//  #09 //004   ----------------------------------------
 BYTE   N06  En3
 BYTE   W12
 BYTE   N12  Cn3  v112
 BYTE   W24
 BYTE   N24  Cn3  v116
 BYTE   W24
 BYTE   TIE  Dn3  v112
 BYTE   W36
//  #09 //005   ----------------------------------------
 BYTE   W84
 BYTE   EOT
 BYTE   W12
//  #09 //006   ----------------------------------------
 BYTE   W12
 BYTE   N06  Dn3  v116
 BYTE   W12
 BYTE   N22  An3
 BYTE   W24
 BYTE   N06  An3  v108
 BYTE   W12
 BYTE   N12  Cn4  v116
 BYTE   W12
 BYTE   N06  Bn3  v108
 BYTE   W12
 BYTE   N12  An3
 BYTE   W12
//  #09 //007   ----------------------------------------
 BYTE   N06  Bn3
 BYTE   W12
 BYTE   N12  Gn3  v112
 BYTE   W24
 BYTE   N24  Gn3  v116
 BYTE   W24
 BYTE   TIE  An3  v112
 BYTE   W36
//  #09 //008   ----------------------------------------
 BYTE   W84
 BYTE   EOT
 BYTE   W12
//  #09 //009   ----------------------------------------
 BYTE   W12
 BYTE   N12  Dn4  v108
 BYTE   W24
 BYTE   N12
 BYTE   W24
 BYTE   N12
 BYTE   W12
 BYTE   En4
 BYTE   W12
 BYTE   Fn4
 BYTE   W12
//  #09 //010   ----------------------------------------
 BYTE   En4
 BYTE   W24
 BYTE   N24
 BYTE   W36
 BYTE   N12
 BYTE   W24
 BYTE   N12
 BYTE   W12
//  #09 //011   ----------------------------------------
 BYTE   W12
 BYTE   N12
 BYTE   W12
 BYTE   Fn4
 BYTE   W12
 BYTE   Gn4
 BYTE   W12
 BYTE   Fn4
 BYTE   W24
 BYTE   N24
 BYTE   W24
//  #09 //012   ----------------------------------------
 BYTE   W12
 BYTE   An4
 BYTE   W24
 BYTE   N06  Dn4
 BYTE   W12
 BYTE   N24
 BYTE   W24
 BYTE   N12  An4
 BYTE   W12
 BYTE   N24  Gn4
 BYTE   W12
//  #09 //013   ----------------------------------------
 BYTE   W12
 BYTE   Fn4
 BYTE   W24
 BYTE   En4
 BYTE   W24
 BYTE   TIE  Dn4
 BYTE   W36
//  #09 //014   ----------------------------------------
 BYTE   W84
 BYTE   EOT
 BYTE   W12
//  #09 //015   ----------------------------------------
 BYTE   W12
 BYTE   TIE  An3  v080
 BYTE   W84
//  #09 //016   ----------------------------------------
 BYTE   W60
 BYTE   EOT
 BYTE   W36
//  #09 //017   ----------------------------------------
 BYTE   W96
//  #09 //018   ----------------------------------------
 BYTE   W96
//  #09 //019   ----------------------------------------
 BYTE   W96
//  #09 //020   ----------------------------------------
 BYTE   W96
//  #09 //021   ----------------------------------------
 BYTE   W96
//  #09 //022   ----------------------------------------
 BYTE   W60
 BYTE   N12  Dn4  v108
 BYTE   W24
 BYTE   N12
 BYTE   W12
//  #09 //023   ----------------------------------------
 BYTE   W12
 BYTE   N12
 BYTE   W12
 BYTE   En4
 BYTE   W12
 BYTE   Fn4
 BYTE   W12
 BYTE   En4
 BYTE   W24
 BYTE   N24
 BYTE   W24
//  #09 //024   ----------------------------------------
 BYTE   W12
 BYTE   N12
 BYTE   W24
 BYTE   N12
 BYTE   W24
 BYTE   N12
 BYTE   W12
 BYTE   Fn4
 BYTE   W12
 BYTE   Gn4
 BYTE   W12
//  #09 //025   ----------------------------------------
 BYTE   Fn4
 BYTE   W24
 BYTE   N24
 BYTE   W36
 BYTE   An4
 BYTE   W24
 BYTE   N06  Dn4
 BYTE   W12
//  #09 //026   ----------------------------------------
 BYTE   N24
 BYTE   W24
 BYTE   N12  An4
 BYTE   W12
 BYTE   N24  Gn4
 BYTE   W24
 BYTE   Fn4
 BYTE   W24
 BYTE   En4
 BYTE   W12
//  #09 //027   ----------------------------------------
 BYTE   W12
 BYTE   TIE  Dn4
 BYTE   W84
//  #09 //028   ----------------------------------------
 BYTE   W36
 BYTE   EOT
 BYTE   W24
 BYTE   TIE  An3  v080
 BYTE   W36
//  #09 //029   ----------------------------------------
 BYTE   W96
//  #09 //030   ----------------------------------------
 BYTE   W12
 BYTE   EOT
 BYTE   W84
//  #09 //031   ----------------------------------------
 BYTE   W96
//  #09 //032   ----------------------------------------
 BYTE   W96
//  #09 //033   ----------------------------------------
 BYTE   W96
//  #09 //034   ----------------------------------------
 BYTE   W96
//  #09 //035   ----------------------------------------
 BYTE   W96
//  #09 //036   ----------------------------------------
 BYTE   W12
 BYTE   N36  Fn3  v092
 BYTE   N36  An3  v100
 BYTE   W36
 BYTE   N06  An3  v092
 BYTE   N06  Dn4  v100
 BYTE   W12
 BYTE   N42  An3  v092
 BYTE   N42  Dn4  v100
 BYTE   W36
//  #09 //037   ----------------------------------------
 BYTE   W12
 BYTE   N24  Cn4  v092
 BYTE   N24  En4  v100
 BYTE   W24
 BYTE   Dn4  v092
 BYTE   N24  Fn4  v100
 BYTE   W24
 BYTE   N12  Cn4  v092
 BYTE   N12  En4  v100
 BYTE   W12
 BYTE   Dn4  v092
 BYTE   N12  Fn4  v100
 BYTE   W12
 BYTE   N66  En4  v092
 BYTE   N66  Gn4  v100
 BYTE   W12
//  #09 //038   ----------------------------------------
 BYTE   W60
 BYTE   N24  Dn4  v092
 BYTE   N24  Fn4  v100
 BYTE   W24
 BYTE   Gn3  v092
 BYTE   N24  En4  v100
 BYTE   W12
//  #09 //039   ----------------------------------------
 BYTE   W12
 BYTE   TIE  Fs3  v092
 BYTE   TIE  Dn4  v100
 BYTE   W84
//  #09 //040   ----------------------------------------
 BYTE   W96
//  #09 //041   ----------------------------------------
 BYTE   W96
//  #09 //042   ----------------------------------------
 BYTE   W06
 BYTE   EOT
 BYTE   Fs3  v074
 BYTE   W06
 BYTE   GoTo
  POIN2 Label_0192ACE2
 BYTE   FINE

//**************** Track 10 (Midi-Chn.9) ****************//

SetUp_010:
//  #10 //000   ----------------------------------------
 BYTE   KEYSH   SetUp_key+0
Label_019B280E:
 BYTE   VOICE   127
 BYTE   VOL   25*SetUp_mvl/mxv
 BYTE   PAN   c_v+0
 BYTE   W12
 BYTE   N12  Dn1  v096
 BYTE   N72  Cs2  v100
 BYTE   W12
 BYTE   N06  Dn1  v080
 BYTE   W06
 BYTE   Dn1  v088
 BYTE   W06
 BYTE   N12  Dn1  v096
 BYTE   W12
 BYTE   N12
 BYTE   W12
 BYTE   N06  Dn1  v080
 BYTE   W06
 BYTE   Dn1  v088
 BYTE   W06
 BYTE   N12  Dn1  v096
 BYTE   W12
 BYTE   N12
 BYTE   W12
//  #10 //001   ----------------------------------------
 BYTE   N06  Dn1  v080
 BYTE   W06
 BYTE   Dn1  v088
 BYTE   W06
 BYTE   Dn1  v096
 BYTE   W06
 BYTE   Dn1  v092
 BYTE   W06
 BYTE   Dn1  v080
 BYTE   W06
 BYTE   Dn1  v088
 BYTE   W06
 BYTE   N12  Dn1  v092
 BYTE   W12
 BYTE   Dn1  v080
 BYTE   W12
 BYTE   Dn1  v096
 BYTE   W12
 BYTE   N06  Dn1  v080
 BYTE   W06
 BYTE   Dn1  v088
 BYTE   W06
 BYTE   N12  Dn1  v096
 BYTE   TIE  Ds2  v112
 BYTE   W12
//  #10 //002   ----------------------------------------
Label_019B2861:
 BYTE   N12  Dn1  v096
 BYTE   W12
 BYTE   N06  Dn1  v080
 BYTE   W06
 BYTE   Dn1  v088
 BYTE   W06
 BYTE   N12  Dn1  v096
 BYTE   W12
 BYTE   N12
 BYTE   W12
 BYTE   N06  Dn1  v080
 BYTE   W06
 BYTE   Dn1  v088
 BYTE   W06
 BYTE   Dn1  v096
 BYTE   W06
 BYTE   Dn1  v092
 BYTE   W06
 BYTE   Dn1  v080
 BYTE   W06
 BYTE   Dn1  v088
 BYTE   W06
 BYTE   Dn1  v092
 BYTE   W06
 BYTE   Dn1  v088
 BYTE   W06
 BYTE   PEND 
//  #10 //003   ----------------------------------------
Label_019B288C:
 BYTE   N06  Dn1  v096
 BYTE   W06
 BYTE   Dn1  v100
 BYTE   W06
 BYTE   PEND 
 BYTE   EOT
 BYTE   Ds2
 BYTE   N12  Dn1  v096
 BYTE   N72  Cs2  v100
 BYTE   W12
 BYTE   N06  Dn1  v080
 BYTE   W06
 BYTE   Dn1  v088
 BYTE   W06
 BYTE   N12  Dn1  v096
 BYTE   W12
 BYTE   N12
 BYTE   W12
 BYTE   N06  Dn1  v080
 BYTE   W06
 BYTE   Dn1  v088
 BYTE   W06
 BYTE   N12  Dn1  v096
 BYTE   W12
 BYTE   N12
 BYTE   W12
//  #10 //004   ----------------------------------------
Label_019B28B7:
 BYTE   N06  Dn1  v080
 BYTE   W06
 BYTE   Dn1  v088
 BYTE   W06
 BYTE   Dn1  v096
 BYTE   W06
 BYTE   Dn1  v092
 BYTE   W06
 BYTE   Dn1  v080
 BYTE   W06
 BYTE   Dn1  v088
 BYTE   W06
 BYTE   N12  Dn1  v092
 BYTE   W12
 BYTE   Dn1  v080
 BYTE   W12
 BYTE   Dn1  v096
 BYTE   W12
 BYTE   N06  Dn1  v080
 BYTE   W06
 BYTE   Dn1  v088
 BYTE   W06
 BYTE   N12  Dn1  v096
 BYTE   W12
 BYTE   PEND 
//  #10 //005   ----------------------------------------
 BYTE   PATT
  POIN2 Label_019B2861
//  #10 //006   ----------------------------------------
Label_019B28E5:
 BYTE   N06  Dn1  v096
 BYTE   W06
 BYTE   Dn1  v100
 BYTE   W06
 BYTE   N12  Dn1  v096
 BYTE   W12
 BYTE   N06  Dn1  v080
 BYTE   W06
 BYTE   Dn1  v088
 BYTE   W06
 BYTE   N12  Dn1  v096
 BYTE   W12
 BYTE   N12
 BYTE   W12
 BYTE   N06  Dn1  v080
 BYTE   W06
 BYTE   Dn1  v088
 BYTE   W06
 BYTE   N12  Dn1  v096
 BYTE   W12
 BYTE   N12
 BYTE   W12
 BYTE   PEND 
//  #10 //007   ----------------------------------------
 BYTE   PATT
  POIN2 Label_019B28B7
//  #10 //008   ----------------------------------------
 BYTE   PATT
  POIN2 Label_019B2861
//  #10 //009   ----------------------------------------
 BYTE   PATT
  POIN2 Label_019B28E5
//  #10 //010   ----------------------------------------
 BYTE   PATT
  POIN2 Label_019B28B7
//  #10 //011   ----------------------------------------
 BYTE   PATT
  POIN2 Label_019B2861
//  #10 //012   ----------------------------------------
 BYTE   PATT
  POIN2 Label_019B28E5
//  #10 //013   ----------------------------------------
 BYTE   PATT
  POIN2 Label_019B28B7
//  #10 //014   ----------------------------------------
 BYTE   PATT
  POIN2 Label_019B2861
//  #10 //015   ----------------------------------------
 BYTE   N06  Dn1  v096
 BYTE   W06
 BYTE   Dn1  v100
 BYTE   W06
 BYTE   N12  Dn1  v096
 BYTE   W12
 BYTE   N06  Dn1  v080
 BYTE   W06
 BYTE   Dn1  v088
 BYTE   W06
 BYTE   N12  Dn1  v096
 BYTE   TIE  Ds2  v092
 BYTE   W12
 BYTE   N12  Dn1  v096
 BYTE   W12
 BYTE   N06  Dn1  v080
 BYTE   W06
 BYTE   Dn1  v088
 BYTE   W06
 BYTE   N12  Dn1  v096
 BYTE   W12
 BYTE   N12
 BYTE   W12
//  #10 //016   ----------------------------------------
 BYTE   N06  Dn1  v080
 BYTE   W06
 BYTE   Dn1  v088
 BYTE   W06
 BYTE   Dn1  v096
 BYTE   W06
 BYTE   Dn1  v092
 BYTE   W06
 BYTE   Dn1  v080
 BYTE   W06
 BYTE   Dn1  v088
 BYTE   W06
 BYTE   N12  Dn1  v092
 BYTE   W12
 BYTE   Dn1  v080
 BYTE   W12
 BYTE   EOT
 BYTE   Ds2
 BYTE   N12  Dn1  v096
 BYTE   N72  Cs2  v092
 BYTE   W36
//  #10 //017   ----------------------------------------
 BYTE   W96
//  #10 //018   ----------------------------------------
 BYTE   W96
//  #10 //019   ----------------------------------------
 BYTE   W96
//  #10 //020   ----------------------------------------
 BYTE   W96
//  #10 //021   ----------------------------------------
 BYTE   W96
//  #10 //022   ----------------------------------------
 BYTE   W96
//  #10 //023   ----------------------------------------
 BYTE   W96
//  #10 //024   ----------------------------------------
 BYTE   W96
//  #10 //025   ----------------------------------------
 BYTE   W96
//  #10 //026   ----------------------------------------
 BYTE   W84
 BYTE   N06  Dn1
 BYTE   W06
 BYTE   N03  Dn1  v088
 BYTE   W03
 BYTE   Dn1  v080
 BYTE   W03
//  #10 //027   ----------------------------------------
 BYTE   PATT
  POIN2 Label_019B28E5
//  #10 //028   ----------------------------------------
Label_019B2999:
 BYTE   N06  Dn1  v080
 BYTE   W06
 BYTE   Dn1  v088
 BYTE   W06
 BYTE   Dn1  v096
 BYTE   W06
 BYTE   Dn1  v092
 BYTE   W06
 BYTE   Dn1  v080
 BYTE   W06
 BYTE   Dn1  v088
 BYTE   W06
 BYTE   Dn1  v092
 BYTE   W06
 BYTE   Dn1  v088
 BYTE   W06
 BYTE   Dn1  v096
 BYTE   W06
 BYTE   Dn1  v100
 BYTE   W06
 BYTE   N12  Dn1  v096
 BYTE   W12
 BYTE   N06  Dn1  v080
 BYTE   W06
 BYTE   Dn1  v088
 BYTE   W06
 BYTE   N12  Dn1  v096
 BYTE   TIE  Ds2  v112
 BYTE   W12
 BYTE   PEND 
//  #10 //029   ----------------------------------------
Label_019B29CB:
 BYTE   N12  Dn1  v096
 BYTE   W12
 BYTE   N06  Dn1  v080
 BYTE   W06
 BYTE   Dn1  v088
 BYTE   W06
 BYTE   N12  Dn1  v096
 BYTE   W12
 BYTE   N12
 BYTE   W12
 BYTE   N06  Dn1  v080
 BYTE   W06
 BYTE   Dn1  v088
 BYTE   W06
 BYTE   Dn1  v096
 BYTE   W06
 BYTE   Dn1  v092
 BYTE   W06
 BYTE   Dn1  v080
 BYTE   W06
 BYTE   Dn1  v088
 BYTE   W06
 BYTE   Dn1  v096
 BYTE   W06
 BYTE   Dn1  v092
 BYTE   W06
 BYTE   PEND 
//  #10 //030   ----------------------------------------
Label_019B29F6:
 BYTE   N06  Dn1  v100
 BYTE   W06
 BYTE   Dn1  v108
 BYTE   W06
 BYTE   PEND 
 BYTE   EOT
 BYTE   Ds2
 BYTE   N12  Dn1
 BYTE   N72  Cs2  v100
 BYTE   W12
 BYTE   N06  Dn1  v080
 BYTE   W06
 BYTE   Dn1  v088
 BYTE   W06
 BYTE   N12  Dn1  v096
 BYTE   W12
 BYTE   N12
 BYTE   W12
 BYTE   N06  Dn1  v080
 BYTE   W06
 BYTE   Dn1  v088
 BYTE   W06
 BYTE   N12  Dn1  v096
 BYTE   W12
 BYTE   N12
 BYTE   W12
//  #10 //031   ----------------------------------------
Label_019B2A20:
 BYTE   N06  Dn1  v080
 BYTE   W06
 BYTE   Dn1  v088
 BYTE   W06
 BYTE   Dn1  v096
 BYTE   W06
 BYTE   Dn1  v092
 BYTE   W06
 BYTE   Dn1  v080
 BYTE   W06
 BYTE   Dn1  v088
 BYTE   W06
 BYTE   Dn1  v092
 BYTE   W06
 BYTE   Dn1  v088
 BYTE   W06
 BYTE   Dn1  v096
 BYTE   W06
 BYTE   Dn1  v100
 BYTE   W06
 BYTE   N12  Dn1  v096
 BYTE   W12
 BYTE   N06  Dn1  v080
 BYTE   W06
 BYTE   Dn1  v088
 BYTE   W06
 BYTE   N12  Dn1  v096
 BYTE   W12
 BYTE   PEND 
//  #10 //032   ----------------------------------------
 BYTE   PATT
  POIN2 Label_019B2861
//  #10 //033   ----------------------------------------
 BYTE   PATT
  POIN2 Label_019B28E5
//  #10 //034   ----------------------------------------
 BYTE   PATT
  POIN2 Label_019B2A20
//  #10 //035   ----------------------------------------
 BYTE   PATT
  POIN2 Label_019B2861
//  #10 //036   ----------------------------------------
 BYTE   N06  Dn1  v096
 BYTE   W06
 BYTE   Dn1  v100
 BYTE   W06
 BYTE   N12  Dn1  v096
 BYTE   N72  Cs2  v100
 BYTE   W12
 BYTE   N06  Dn1  v080
 BYTE   W06
 BYTE   Dn1  v088
 BYTE   W06
 BYTE   N12  Dn1  v096
 BYTE   W12
 BYTE   N12
 BYTE   W12
 BYTE   N06  Dn1  v080
 BYTE   W06
 BYTE   Dn1  v088
 BYTE   W06
 BYTE   N12  Dn1  v096
 BYTE   W12
 BYTE   N12
 BYTE   W12
//  #10 //037   ----------------------------------------
 BYTE   PATT
  POIN2 Label_019B2999
//  #10 //038   ----------------------------------------
 BYTE   PATT
  POIN2 Label_019B2861
//  #10 //039   ----------------------------------------
 BYTE   PATT
  POIN2 Label_019B288C
//  #10 //040   ----------------------------------------
 BYTE   EOT
 BYTE   Ds2
 BYTE   N12  Dn1  v096
 BYTE   N72  Cs2  v100
 BYTE   W12
 BYTE   N06  Dn1  v080
 BYTE   W06
 BYTE   Dn1  v088
 BYTE   W06
 BYTE   N12  Dn1  v096
 BYTE   W12
 BYTE   N12
 BYTE   W12
 BYTE   N06  Dn1  v080
 BYTE   W06
 BYTE   Dn1  v088
 BYTE   W06
 BYTE   N12  Dn1  v096
 BYTE   W12
 BYTE   N12
 BYTE   W12
//  #10 //041   ----------------------------------------
 BYTE   PATT
  POIN2 Label_019B2A20
//  #10 //042   ----------------------------------------
 BYTE   PATT
  POIN2 Label_019B29CB
//  #10 //043   ----------------------------------------
 BYTE   PATT
  POIN2 Label_019B29F6
//  #10 //044   ----------------------------------------
 BYTE   GoTo
  POIN2 Label_019B280E
 BYTE   FINE

//**************** Track 11 (Midi-Chn.10) ****************//

SetUp_011:
//  #11 //000   ----------------------------------------
 BYTE   KEYSH   SetUp_key+0
Label_019B2AD6:
 BYTE   VOICE   45
 BYTE   VOL   31*SetUp_mvl/mxv
 BYTE   PAN   c_v+0
 BYTE   W96
//  #11 //001   ----------------------------------------
 BYTE   W96
//  #11 //002   ----------------------------------------
 BYTE   W96
//  #11 //003   ----------------------------------------
Label_019B2ADF:
 BYTE   W24
 BYTE   N12  Dn1  v100
 BYTE   W12
 BYTE   An1
 BYTE   W12
 BYTE   En2
 BYTE   W12
 BYTE   An2
 BYTE   W36
 BYTE   PEND 
//  #11 //004   ----------------------------------------
Label_019B2AEB:
 BYTE   W72
 BYTE   N12  Dn1  v100
 BYTE   W12
 BYTE   An1
 BYTE   W12
 BYTE   PEND 
//  #11 //005   ----------------------------------------
Label_019B2AF3:
 BYTE   N12  En2  v100
 BYTE   W12
 BYTE   Fn2
 BYTE   W12
 BYTE   Cn3
 BYTE   W72
 BYTE   PEND 
//  #11 //006   ----------------------------------------
 BYTE   PATT
  POIN2 Label_019B2ADF
//  #11 //007   ----------------------------------------
 BYTE   PATT
  POIN2 Label_019B2AEB
//  #11 //008   ----------------------------------------
 BYTE   PATT
  POIN2 Label_019B2AF3
//  #11 //009   ----------------------------------------
 BYTE   W24
 BYTE   N12  As0  v100
 BYTE   W12
 BYTE   Fn1
 BYTE   W12
 BYTE   Cn2
 BYTE   W12
 BYTE   Fn2
 BYTE   W36
//  #11 //010   ----------------------------------------
 BYTE   W72
 BYTE   An0
 BYTE   W12
 BYTE   En1
 BYTE   W12
//  #11 //011   ----------------------------------------
 BYTE   Bn1
 BYTE   W12
 BYTE   Cn2
 BYTE   W12
 BYTE   Gn2
 BYTE   W72
//  #11 //012   ----------------------------------------
 BYTE   W24
 BYTE   Gn0
 BYTE   W12
 BYTE   Dn1
 BYTE   W12
 BYTE   An1
 BYTE   W12
 BYTE   Dn2
 BYTE   W36
//  #11 //013   ----------------------------------------
 BYTE   PATT
  POIN2 Label_019B2AEB
//  #11 //014   ----------------------------------------
Label_019B2B2F:
 BYTE   N12  En2  v100
 BYTE   W12
 BYTE   An2
 BYTE   W84
 BYTE   PEND 
//  #11 //015   ----------------------------------------
Label_019B2B36:
 BYTE   W24
 BYTE   N12  Dn1  v100
 BYTE   W12
 BYTE   An1
 BYTE   W12
 BYTE   En2
 BYTE   W12
 BYTE   Fn2
 BYTE   W12
 BYTE   Cn3
 BYTE   W24
 BYTE   PEND 
//  #11 //016   ----------------------------------------
 BYTE   PATT
  POIN2 Label_019B2AEB
//  #11 //017   ----------------------------------------
 BYTE   PATT
  POIN2 Label_019B2B2F
//  #11 //018   ----------------------------------------
 BYTE   PATT
  POIN2 Label_019B2B36
//  #11 //019   ----------------------------------------
 BYTE   PATT
  POIN2 Label_019B2AEB
//  #11 //020   ----------------------------------------
 BYTE   PATT
  POIN2 Label_019B2B2F
//  #11 //021   ----------------------------------------
 BYTE   PATT
  POIN2 Label_019B2B36
//  #11 //022   ----------------------------------------
 BYTE   W72
 BYTE   N12  As0  v100
 BYTE   W12
 BYTE   Fn1
 BYTE   W12
//  #11 //023   ----------------------------------------
 BYTE   Cn2
 BYTE   W12
 BYTE   Fn2
 BYTE   W84
//  #11 //024   ----------------------------------------
 BYTE   W24
 BYTE   An0
 BYTE   W12
 BYTE   En1
 BYTE   W12
 BYTE   Bn1
 BYTE   W12
 BYTE   Cn2
 BYTE   W12
 BYTE   Gn2
 BYTE   W24
//  #11 //025   ----------------------------------------
 BYTE   W72
 BYTE   Gn0
 BYTE   W12
 BYTE   Dn1
 BYTE   W12
//  #11 //026   ----------------------------------------
 BYTE   An1
 BYTE   W12
 BYTE   Dn2
 BYTE   W84
//  #11 //027   ----------------------------------------
 BYTE   PATT
  POIN2 Label_019B2ADF
//  #11 //028   ----------------------------------------
 BYTE   PATT
  POIN2 Label_019B2AEB
//  #11 //029   ----------------------------------------
 BYTE   PATT
  POIN2 Label_019B2AF3
//  #11 //030   ----------------------------------------
 BYTE   W96
//  #11 //031   ----------------------------------------
 BYTE   W96
//  #11 //032   ----------------------------------------
 BYTE   W96
//  #11 //033   ----------------------------------------
 BYTE   W96
//  #11 //034   ----------------------------------------
 BYTE   W96
//  #11 //035   ----------------------------------------
 BYTE   W96
//  #11 //036   ----------------------------------------
 BYTE   W96
//  #11 //037   ----------------------------------------
 BYTE   W96
//  #11 //038   ----------------------------------------
 BYTE   W96
//  #11 //039   ----------------------------------------
 BYTE   W96
//  #11 //040   ----------------------------------------
 BYTE   W96
//  #11 //041   ----------------------------------------
 BYTE   W96
//  #11 //042   ----------------------------------------
 BYTE   W12
 BYTE   GoTo
  POIN2 Label_019B2AD6
 BYTE   FINE

//**************** Track 12 (Midi-Chn.11) ****************//

SetUp_012:
//  #12 //000   ----------------------------------------
 BYTE   KEYSH   SetUp_key+0
Label_019B2BA6:
 BYTE   VOICE   47
 BYTE   VOL   34*SetUp_mvl/mxv
 BYTE   PAN   c_v-6
 BYTE   N04  An1  v100
 BYTE   W04
 BYTE   An1  v092
 BYTE   W04
 BYTE   An1  v108
 BYTE   W04
 BYTE   N24  Dn2  v120
 BYTE   W84
//  #12 //001   ----------------------------------------
 BYTE   W12
 BYTE   N12  Dn2  v112
 BYTE   W24
 BYTE   Dn2  v120
 BYTE   W12
 BYTE   An1
 BYTE   W12
 BYTE   Dn2
 BYTE   W12
 BYTE   N06  An1
 BYTE   W06
 BYTE   An1  v100
 BYTE   W06
 BYTE   N12  Dn2  v120
 BYTE   W12
//  #12 //002   ----------------------------------------
 BYTE   W60
 BYTE   N12
 BYTE   W24
 BYTE   N12
 BYTE   W12
//  #12 //003   ----------------------------------------
 BYTE   An1
 BYTE   W12
 BYTE   N24  Dn2  v112
 BYTE   W24
 BYTE   N12
 BYTE   W12
 BYTE   An1
 BYTE   W12
 BYTE   N24  Dn2
 BYTE   W24
 BYTE   Dn2  v092
 BYTE   W12
//  #12 //004   ----------------------------------------
Label_019B2BE5:
 BYTE   W12
 BYTE   N24  Dn2  v112
 BYTE   W24
 BYTE   N24
 BYTE   W24
 BYTE   N24
 BYTE   W24
 BYTE   N12
 BYTE   W12
 BYTE   PEND 
//  #12 //005   ----------------------------------------
Label_019B2BF1:
 BYTE   N12  An1  v112
 BYTE   W12
 BYTE   N24  Dn2
 BYTE   W24
 BYTE   Dn2  v092
 BYTE   W24
 BYTE   Dn2  v112
 BYTE   W24
 BYTE   N24
 BYTE   W12
 BYTE   PEND 
//  #12 //006   ----------------------------------------
Label_019B2C01:
 BYTE   W12
 BYTE   N24  Dn2  v112
 BYTE   W24
 BYTE   N12
 BYTE   W12
 BYTE   An1
 BYTE   W12
 BYTE   N24  Dn2
 BYTE   W24
 BYTE   Dn2  v092
 BYTE   W12
 BYTE   PEND 
//  #12 //007   ----------------------------------------
 BYTE   PATT
  POIN2 Label_019B2BE5
//  #12 //008   ----------------------------------------
 BYTE   PATT
  POIN2 Label_019B2BF1
//  #12 //009   ----------------------------------------
 BYTE   W12
 BYTE   N24  As1  v112
 BYTE   W24
 BYTE   N12
 BYTE   W12
 BYTE   Fn1
 BYTE   W12
 BYTE   N24  As1
 BYTE   W24
 BYTE   Cn2  v092
 BYTE   W12
//  #12 //010   ----------------------------------------
 BYTE   W12
 BYTE   Cn2  v112
 BYTE   W24
 BYTE   N24
 BYTE   W24
 BYTE   An1
 BYTE   W24
 BYTE   N12
 BYTE   W12
//  #12 //011   ----------------------------------------
 BYTE   En2
 BYTE   W12
 BYTE   N24  An1
 BYTE   W24
 BYTE   As1  v092
 BYTE   W24
 BYTE   As1  v112
 BYTE   W24
 BYTE   N24
 BYTE   W12
//  #12 //012   ----------------------------------------
 BYTE   W12
 BYTE   Gn1
 BYTE   W24
 BYTE   N12
 BYTE   W12
 BYTE   Dn2
 BYTE   W12
 BYTE   N24  Gn1
 BYTE   W24
 BYTE   An1  v092
 BYTE   W12
//  #12 //013   ----------------------------------------
 BYTE   W12
 BYTE   An1  v112
 BYTE   W24
 BYTE   N24
 BYTE   W24
 BYTE   Dn2
 BYTE   W24
 BYTE   N12
 BYTE   W12
//  #12 //014   ----------------------------------------
 BYTE   PATT
  POIN2 Label_019B2BF1
//  #12 //015   ----------------------------------------
 BYTE   PATT
  POIN2 Label_019B2C01
//  #12 //016   ----------------------------------------
 BYTE   W12
 BYTE   N24  Dn2  v112
 BYTE   W24
 BYTE   N24
 BYTE   W24
 BYTE   Dn2  v120
 BYTE   W36
//  #12 //017   ----------------------------------------
Label_019B2C6C:
 BYTE   W60
 BYTE   N12  Dn2  v112
 BYTE   W24
 BYTE   N12
 BYTE   W12
 BYTE   PEND 
//  #12 //018   ----------------------------------------
Label_019B2C74:
 BYTE   N12  An1  v112
 BYTE   W12
 BYTE   Dn2  v120
 BYTE   W12
 BYTE   N06  An1
 BYTE   W06
 BYTE   An1  v100
 BYTE   W06
 BYTE   N12  Dn2  v112
 BYTE   W60
 BYTE   PEND 
//  #12 //019   ----------------------------------------
 BYTE   W12
 BYTE   N12
 BYTE   W24
 BYTE   N12
 BYTE   W12
 BYTE   An1
 BYTE   W12
 BYTE   N24  Dn2  v120
 BYTE   W36
//  #12 //020   ----------------------------------------
 BYTE   PATT
  POIN2 Label_019B2C6C
//  #12 //021   ----------------------------------------
 BYTE   PATT
  POIN2 Label_019B2C74
//  #12 //022   ----------------------------------------
 BYTE   W12
 BYTE   N12  Dn2  v112
 BYTE   W24
 BYTE   N12
 BYTE   W12
 BYTE   An1
 BYTE   W12
 BYTE   N24  As1  v120
 BYTE   W36
//  #12 //023   ----------------------------------------
 BYTE   W60
 BYTE   N12  Cn2  v112
 BYTE   W24
 BYTE   N12
 BYTE   W12
//  #12 //024   ----------------------------------------
 BYTE   Gn1
 BYTE   W12
 BYTE   An1  v120
 BYTE   W12
 BYTE   N06
 BYTE   W06
 BYTE   En1  v100
 BYTE   W06
 BYTE   N12  An1  v112
 BYTE   W60
//  #12 //025   ----------------------------------------
 BYTE   W12
 BYTE   As1
 BYTE   W24
 BYTE   N12
 BYTE   W12
 BYTE   Fn1
 BYTE   W12
 BYTE   N24  Gn1  v120
 BYTE   W36
//  #12 //026   ----------------------------------------
 BYTE   W60
 BYTE   N12  An1  v112
 BYTE   W24
 BYTE   N12
 BYTE   W12
//  #12 //027   ----------------------------------------
 BYTE   En1
 BYTE   W12
 BYTE   N24  Dn2
 BYTE   W24
 BYTE   N12
 BYTE   W12
 BYTE   An1
 BYTE   W12
 BYTE   N24  Dn2
 BYTE   W24
 BYTE   Dn2  v092
 BYTE   W12
//  #12 //028   ----------------------------------------
 BYTE   PATT
  POIN2 Label_019B2BE5
//  #12 //029   ----------------------------------------
 BYTE   PATT
  POIN2 Label_019B2BF1
//  #12 //030   ----------------------------------------
Label_019B2CE8:
 BYTE   W12
 BYTE   N24  As1  v112
 BYTE   W24
 BYTE   N12
 BYTE   W12
 BYTE   Fn1
 BYTE   W12
 BYTE   N24  As1
 BYTE   W24
 BYTE   As1  v092
 BYTE   W12
 BYTE   PEND 
//  #12 //031   ----------------------------------------
Label_019B2CF8:
 BYTE   W12
 BYTE   N24  As1  v112
 BYTE   W24
 BYTE   N24
 BYTE   W24
 BYTE   Cn2
 BYTE   W24
 BYTE   N12
 BYTE   W12
 BYTE   PEND 
//  #12 //032   ----------------------------------------
Label_019B2D04:
 BYTE   N12  Gn1  v112
 BYTE   W12
 BYTE   N24  Cn2
 BYTE   W24
 BYTE   Cn2  v092
 BYTE   W24
 BYTE   Cn2  v112
 BYTE   W24
 BYTE   N24
 BYTE   W12
 BYTE   PEND 
//  #12 //033   ----------------------------------------
 BYTE   W12
 BYTE   Cs2
 BYTE   W24
 BYTE   N12
 BYTE   W12
 BYTE   Gn1
 BYTE   W12
 BYTE   N24  Cs2
 BYTE   W24
 BYTE   Cs2  v092
 BYTE   W12
//  #12 //034   ----------------------------------------
 BYTE   W12
 BYTE   Cs2  v112
 BYTE   W24
 BYTE   N24
 BYTE   W24
 BYTE   Dn2
 BYTE   W24
 BYTE   N12
 BYTE   W12
//  #12 //035   ----------------------------------------
 BYTE   PATT
  POIN2 Label_019B2BF1
//  #12 //036   ----------------------------------------
 BYTE   PATT
  POIN2 Label_019B2CE8
//  #12 //037   ----------------------------------------
 BYTE   PATT
  POIN2 Label_019B2CF8
//  #12 //038   ----------------------------------------
 BYTE   PATT
  POIN2 Label_019B2D04
//  #12 //039   ----------------------------------------
 BYTE   PATT
  POIN2 Label_019B2C01
//  #12 //040   ----------------------------------------
 BYTE   PATT
  POIN2 Label_019B2BE5
//  #12 //041   ----------------------------------------
 BYTE   PATT
  POIN2 Label_019B2BF1
//  #12 //042   ----------------------------------------
 BYTE   W12
 BYTE   GoTo
  POIN2 Label_019B2BA6
 BYTE   FINE

//**************** Track 13 (Midi-Chn.12) ****************//

SetUp_013:
//  #13 //000   ----------------------------------------
 BYTE   KEYSH   SetUp_key+0
Label_019B2D5A:
 BYTE   VOICE   71
 BYTE   VOL   11*SetUp_mvl/mxv
 BYTE   PAN   c_v+56
 BYTE   BEND   c_v+1
 BYTE   W96
//  #13 //001   ----------------------------------------
 BYTE   W96
//  #13 //002   ----------------------------------------
 BYTE   W96
//  #13 //003   ----------------------------------------
 BYTE   W96
//  #13 //004   ----------------------------------------
 BYTE   W96
//  #13 //005   ----------------------------------------
 BYTE   W96
//  #13 //006   ----------------------------------------
 BYTE   W96
//  #13 //007   ----------------------------------------
 BYTE   W96
//  #13 //008   ----------------------------------------
 BYTE   W96
//  #13 //009   ----------------------------------------
 BYTE   W96
//  #13 //010   ----------------------------------------
 BYTE   W96
//  #13 //011   ----------------------------------------
 BYTE   W96
//  #13 //012   ----------------------------------------
 BYTE   W96
//  #13 //013   ----------------------------------------
 BYTE   W96
//  #13 //014   ----------------------------------------
 BYTE   W96
//  #13 //015   ----------------------------------------
 BYTE   W96
//  #13 //016   ----------------------------------------
 BYTE   W68
 BYTE   W01
 BYTE   N06  Dn3  v112
 BYTE   W12
 BYTE   N24  An3
 BYTE   W15
//  #13 //017   ----------------------------------------
 BYTE   W09
 BYTE   N06  Gn3  v100
 BYTE   W12
 BYTE   N12  Fn3  v112
 BYTE   W12
 BYTE   N06  En3  v100
 BYTE   W12
 BYTE   N12  Dn3
 BYTE   W12
 BYTE   N06  En3
 BYTE   W12
 BYTE   N12  Cn3  v108
 BYTE   W24
 BYTE   N24  Cn3  v112
 BYTE   W03
//  #13 //018   ----------------------------------------
 BYTE   W21
 BYTE   TIE  Dn3  v108
 BYTE   W72
 BYTE   W03
//  #13 //019   ----------------------------------------
 BYTE   W44
 BYTE   W01
 BYTE   EOT
 BYTE   W24
 BYTE   N06  Dn3  v112
 BYTE   W12
 BYTE   N22  An3
 BYTE   W15
//  #13 //020   ----------------------------------------
 BYTE   W09
 BYTE   N06  An3  v100
 BYTE   W12
 BYTE   N12  Cn4  v112
 BYTE   W12
 BYTE   N06  Bn3  v100
 BYTE   W12
 BYTE   N12  An3
 BYTE   W12
 BYTE   N06  Bn3
 BYTE   W12
 BYTE   N12  Gn3  v108
 BYTE   W24
 BYTE   N24  Gn3  v112
 BYTE   W03
//  #13 //021   ----------------------------------------
 BYTE   W21
 BYTE   TIE  An3  v108
 BYTE   W72
 BYTE   W03
//  #13 //022   ----------------------------------------
 BYTE   W44
 BYTE   W01
 BYTE   EOT
 BYTE   W48
 BYTE   W03
//  #13 //023   ----------------------------------------
 BYTE   W96
//  #13 //024   ----------------------------------------
 BYTE   W96
//  #13 //025   ----------------------------------------
 BYTE   W96
//  #13 //026   ----------------------------------------
 BYTE   W96
//  #13 //027   ----------------------------------------
 BYTE   W96
//  #13 //028   ----------------------------------------
 BYTE   W96
//  #13 //029   ----------------------------------------
 BYTE   W96
//  #13 //030   ----------------------------------------
 BYTE   W96
//  #13 //031   ----------------------------------------
 BYTE   W96
//  #13 //032   ----------------------------------------
 BYTE   W96
//  #13 //033   ----------------------------------------
 BYTE   W96
//  #13 //034   ----------------------------------------
 BYTE   W96
//  #13 //035   ----------------------------------------
 BYTE   W96
//  #13 //036   ----------------------------------------
 BYTE   W96
//  #13 //037   ----------------------------------------
 BYTE   W96
//  #13 //038   ----------------------------------------
 BYTE   W96
//  #13 //039   ----------------------------------------
 BYTE   W96
//  #13 //040   ----------------------------------------
 BYTE   W96
//  #13 //041   ----------------------------------------
 BYTE   W96
//  #13 //042   ----------------------------------------
 BYTE   W12
 BYTE   GoTo
  POIN2 Label_019B2D5A
 BYTE   FINE

//**************** Track 14 (Midi-Chn.13) ****************//

SetUp_014:
//  #14 //000   ----------------------------------------
 BYTE   KEYSH   SetUp_key+0
Label_019B2DEA:
 BYTE   VOICE   48
 BYTE   VOL   32*SetUp_mvl/mxv
 BYTE   PAN   c_v-4
 BYTE   W96
//  #14 //001   ----------------------------------------
 BYTE   W96
//  #14 //002   ----------------------------------------
 BYTE   W96
//  #14 //003   ----------------------------------------
 BYTE   W12
 BYTE   N06  An2  v112
 BYTE   W12
 BYTE   N24  Dn3
 BYTE   W24
 BYTE   N06  Dn3  v100
 BYTE   W12
 BYTE   N12  Dn3  v112
 BYTE   W12
 BYTE   N06  An2  v100
 BYTE   W12
 BYTE   N12
 BYTE   W12
//  #14 //004   ----------------------------------------
 BYTE   N06
 BYTE   W12
 BYTE   N12  An2  v108
 BYTE   W24
 BYTE   N24  An2  v112
 BYTE   W24
 BYTE   TIE  An2  v108
 BYTE   W36
//  #14 //005   ----------------------------------------
 BYTE   W84
 BYTE   EOT
 BYTE   W12
//  #14 //006   ----------------------------------------
 BYTE   W12
 BYTE   N06  An2  v112
 BYTE   W12
 BYTE   N22  Dn3
 BYTE   W24
 BYTE   N06  Dn3  v100
 BYTE   W12
 BYTE   N12  An3  v112
 BYTE   W12
 BYTE   N06  Gn3  v100
 BYTE   W12
 BYTE   N12  Fn3
 BYTE   W12
//  #14 //007   ----------------------------------------
 BYTE   N06  Gn3
 BYTE   W12
 BYTE   N12  Dn3  v108
 BYTE   W24
 BYTE   N24  Dn3  v112
 BYTE   W24
 BYTE   TIE  Dn3  v108
 BYTE   W36
//  #14 //008   ----------------------------------------
 BYTE   W84
 BYTE   EOT
 BYTE   W12
//  #14 //009   ----------------------------------------
 BYTE   W12
 BYTE   N12  As3  v092
 BYTE   W24
 BYTE   N12
 BYTE   W24
 BYTE   N12
 BYTE   W12
 BYTE   Cn4
 BYTE   W12
 BYTE   Dn4
 BYTE   W12
//  #14 //010   ----------------------------------------
 BYTE   Cn4
 BYTE   W24
 BYTE   N24
 BYTE   W36
 BYTE   N12
 BYTE   W24
 BYTE   N12
 BYTE   W12
//  #14 //011   ----------------------------------------
 BYTE   W12
 BYTE   N12
 BYTE   W12
 BYTE   Dn4
 BYTE   W12
 BYTE   En4
 BYTE   W12
 BYTE   Dn4
 BYTE   W24
 BYTE   N24
 BYTE   W24
//  #14 //012   ----------------------------------------
 BYTE   W12
 BYTE   N24
 BYTE   W24
 BYTE   N06  An3
 BYTE   W12
 BYTE   N24
 BYTE   W24
 BYTE   N12  Dn4
 BYTE   W12
 BYTE   N24  En4
 BYTE   W12
//  #14 //013   ----------------------------------------
 BYTE   W12
 BYTE   Dn4
 BYTE   W24
 BYTE   Gn3
 BYTE   W24
 BYTE   TIE  Fn3
 BYTE   W36
//  #14 //014   ----------------------------------------
 BYTE   W84
 BYTE   EOT
 BYTE   W12
//  #14 //015   ----------------------------------------
 BYTE   W12
 BYTE   TIE  Dn3  v080
 BYTE   W84
//  #14 //016   ----------------------------------------
 BYTE   W60
 BYTE   EOT
 BYTE   W36
//  #14 //017   ----------------------------------------
 BYTE   W96
//  #14 //018   ----------------------------------------
 BYTE   W96
//  #14 //019   ----------------------------------------
 BYTE   W96
//  #14 //020   ----------------------------------------
 BYTE   W96
//  #14 //021   ----------------------------------------
 BYTE   W96
//  #14 //022   ----------------------------------------
 BYTE   W60
 BYTE   N12  As3  v092
 BYTE   W24
 BYTE   N12
 BYTE   W12
//  #14 //023   ----------------------------------------
 BYTE   W12
 BYTE   N12
 BYTE   W12
 BYTE   Cn4
 BYTE   W12
 BYTE   Dn4
 BYTE   W12
 BYTE   Cn4
 BYTE   W24
 BYTE   N24
 BYTE   W24
//  #14 //024   ----------------------------------------
 BYTE   W12
 BYTE   N12
 BYTE   W24
 BYTE   N12
 BYTE   W24
 BYTE   N12
 BYTE   W12
 BYTE   Dn4
 BYTE   W12
 BYTE   En4
 BYTE   W12
//  #14 //025   ----------------------------------------
 BYTE   Dn4
 BYTE   W24
 BYTE   N24
 BYTE   W36
 BYTE   N24
 BYTE   W24
 BYTE   N06  An3
 BYTE   W12
//  #14 //026   ----------------------------------------
 BYTE   N24
 BYTE   W24
 BYTE   N12  Dn4
 BYTE   W12
 BYTE   N24  En4
 BYTE   W24
 BYTE   Dn4
 BYTE   W24
 BYTE   Gn3
 BYTE   W12
//  #14 //027   ----------------------------------------
 BYTE   W12
 BYTE   TIE  Fn3
 BYTE   W84
//  #14 //028   ----------------------------------------
 BYTE   W36
 BYTE   EOT
 BYTE   W24
 BYTE   TIE  Dn3  v080
 BYTE   W36
//  #14 //029   ----------------------------------------
 BYTE   W96
//  #14 //030   ----------------------------------------
 BYTE   W12
 BYTE   EOT
 BYTE   TIE  Dn3  v100
 BYTE   TIE  Fn3
 BYTE   W84
//  #14 //031   ----------------------------------------
 BYTE   W60
 BYTE   EOT
 BYTE   Dn3  v065
 BYTE   TIE  En3  v092
 BYTE   TIE  Gn3
 BYTE   W36
//  #14 //032   ----------------------------------------
 BYTE   W96
//  #14 //033   ----------------------------------------
 BYTE   W12
 BYTE   EOT
 BYTE   En3  v067
 BYTE   TIE  En3
 BYTE   TIE  Gn3
 BYTE   W84
//  #14 //034   ----------------------------------------
 BYTE   W60
 BYTE   EOT
 BYTE   En3  v067
 BYTE   TIE  Fn3
 BYTE   TIE  An3
 BYTE   W36
//  #14 //035   ----------------------------------------
 BYTE   W96
//  #14 //036   ----------------------------------------
 BYTE   W12
 BYTE   EOT
 BYTE   Fn3  v069
 BYTE   TIE  An2  v100
 BYTE   TIE  Dn3
 BYTE   W84
//  #14 //037   ----------------------------------------
 BYTE   W60
 BYTE   EOT
 BYTE   An2  v062
 BYTE   TIE  Cn3  v092
 BYTE   TIE  En3
 BYTE   W36
//  #14 //038   ----------------------------------------
 BYTE   W96
//  #14 //039   ----------------------------------------
 BYTE   W12
 BYTE   EOT
 BYTE   Cn3  v064
 BYTE   TIE  An2  v100
 BYTE   TIE  Dn3
 BYTE   W84
//  #14 //040   ----------------------------------------
 BYTE   W96
//  #14 //041   ----------------------------------------
 BYTE   W96
//  #14 //042   ----------------------------------------
 BYTE   W06
 BYTE   EOT
 BYTE   An2  v062
 BYTE   W06
 BYTE   GoTo
  POIN2 Label_019B2DEA
 BYTE   FINE

//******************************************************//
	ALIGN 4

SetUp:
	BYTE	14	// NumTrks
	BYTE	0	// NumBlks
	BYTE	SetUp_pri	// Priority
	BYTE	SetUp_rev	// Reverb.
    
	POIN2	SetUp_grp
    
	POIN2	SetUp_001
	POIN2	SetUp_002
	POIN2	SetUp_003
	POIN2	SetUp_004
	POIN2	SetUp_005
	POIN2	SetUp_006
	POIN2	SetUp_007
	POIN2	SetUp_008
	POIN2	SetUp_009
	POIN2	SetUp_010
	POIN2	SetUp_011
	POIN2	SetUp_012
	POIN2	SetUp_013
	POIN2	SetUp_014

	
