//Event file generated from Sappy .s format.
	#include "MPlayDef.event"

	#define	SilverWillMoment_grp  voicegroup001
	#define	SilverWillMoment_pri  0
	#define	SilverWillMoment_rev  208 //0xD0
	#define	SilverWillMoment_mvl  127
	#define	SilverWillMoment_key  0
	#define	SilverWillMoment_tbs  1
	#define	SilverWillMoment_exg  0
	#define	SilverWillMoment_cmp  1

	// .rodata
	//	SilverWillMoment
	ALIGN 4


//**************** Track 1 (Midi-Chn.0) ****************//

SilverWillMoment_001:
// 000   ----------------------------------------
 BYTE   KEYSH   SilverWillMoment_key+0
Label_0_01476BE2:
 BYTE   TEMPO   140*SilverWillMoment_tbs/2
 BYTE   VOICE   49
 BYTE   VOL   24*SilverWillMoment_mvl/mxv
 BYTE   PAN   c_v+0
 BYTE   VOL   0*SilverWillMoment_mvl/mxv
 BYTE   BEND   c_v+0
 BYTE   TIE  Cs1  v096
 BYTE   TIE  Gs1
 BYTE   TIE  Cs2
 BYTE   W06
 BYTE   VOL   0*SilverWillMoment_mvl/mxv
 BYTE   W06
 BYTE   VOL   0*SilverWillMoment_mvl/mxv
 BYTE   W06
 BYTE   VOL   0*SilverWillMoment_mvl/mxv
 BYTE   W06
 BYTE   VOL   3*SilverWillMoment_mvl/mxv
 BYTE   W06
 BYTE   VOL   7*SilverWillMoment_mvl/mxv
 BYTE   W06
 BYTE   VOL   11*SilverWillMoment_mvl/mxv
 BYTE   W06
 BYTE   VOL   15*SilverWillMoment_mvl/mxv
 BYTE   W06
 BYTE   VOL   19*SilverWillMoment_mvl/mxv
 BYTE   W06
 BYTE   VOL   23*SilverWillMoment_mvl/mxv
 BYTE   W06
 BYTE   VOL   27*SilverWillMoment_mvl/mxv
 BYTE   W06
 BYTE   VOL   31*SilverWillMoment_mvl/mxv
 BYTE   W06
 BYTE   VOL   35*SilverWillMoment_mvl/mxv
 BYTE   W24
// 001   ----------------------------------------
 BYTE   W96
// 002   ----------------------------------------
 BYTE   EOT
 BYTE   Cs1  v044
 BYTE   Cs2
 BYTE   W96
// 003   ----------------------------------------
 BYTE   W96
// 004   ----------------------------------------
 BYTE   W96
// 005   ----------------------------------------
 BYTE   W96
// 006   ----------------------------------------
 BYTE   W96
// 007   ----------------------------------------
 BYTE   W96
// 008   ----------------------------------------
 BYTE   W96
// 009   ----------------------------------------
 BYTE   W96
// 010   ----------------------------------------
 BYTE   W96
// 011   ----------------------------------------
 BYTE   W96
// 012   ----------------------------------------
 BYTE   W96
// 013   ----------------------------------------
 BYTE   W96
// 014   ----------------------------------------
 BYTE   W96
// 015   ----------------------------------------
 BYTE   W96
// 016   ----------------------------------------
 BYTE   W96
// 017   ----------------------------------------
 BYTE   W96
// 018   ----------------------------------------
 BYTE   W96
// 019   ----------------------------------------
 BYTE   W96
// 020   ----------------------------------------
 BYTE   W96
// 021   ----------------------------------------
 BYTE   W96
// 022   ----------------------------------------
 BYTE   W96
// 023   ----------------------------------------
 BYTE   W96
// 024   ----------------------------------------
 BYTE   W96
// 025   ----------------------------------------
 BYTE   W96
// 026   ----------------------------------------
 BYTE   W96
// 027   ----------------------------------------
 BYTE   W96
// 028   ----------------------------------------
 BYTE   W96
// 029   ----------------------------------------
 BYTE   W96
// 030   ----------------------------------------
 BYTE   W96
// 031   ----------------------------------------
 BYTE   W96
// 032   ----------------------------------------
 BYTE   W96
// 033   ----------------------------------------
 BYTE   W96
// 034   ----------------------------------------
 BYTE   W96
// 035   ----------------------------------------
 BYTE   W96
// 036   ----------------------------------------
 BYTE   W96
// 037   ----------------------------------------
 BYTE   W96
// 038   ----------------------------------------
 BYTE   W96
// 039   ----------------------------------------
 BYTE   W96
// 040   ----------------------------------------
 BYTE   W96
// 041   ----------------------------------------
 BYTE   W96
// 042   ----------------------------------------
 BYTE   W96
// 043   ----------------------------------------
 BYTE   W96
// 044   ----------------------------------------
 BYTE   W96
// 045   ----------------------------------------
 BYTE   W96
// 046   ----------------------------------------
 BYTE   W96
// 047   ----------------------------------------
 BYTE   W96
// 048   ----------------------------------------
 BYTE   W96
// 049   ----------------------------------------
 BYTE   W96
// 050   ----------------------------------------
 BYTE   W96
// 051   ----------------------------------------
 BYTE   W96
// 052   ----------------------------------------
 BYTE   W96
// 053   ----------------------------------------
 BYTE   W96
// 054   ----------------------------------------
 BYTE   W96
// 055   ----------------------------------------
 BYTE   W96
// 056   ----------------------------------------
 BYTE   W96
// 057   ----------------------------------------
 BYTE   W96
// 058   ----------------------------------------
 BYTE   W96
// 059   ----------------------------------------
 BYTE   W96
// 060   ----------------------------------------
 BYTE   W96
// 061   ----------------------------------------
 BYTE   W96
// 062   ----------------------------------------
 BYTE   W96
// 063   ----------------------------------------
 BYTE   W96
// 064   ----------------------------------------
 BYTE   W96
// 065   ----------------------------------------
 BYTE   W96
// 066   ----------------------------------------
 BYTE   W96
// 067   ----------------------------------------
 BYTE   W96
// 068   ----------------------------------------
 BYTE   GoTo
  POIN2 Label_0_01476BE2
 BYTE   FINE

//**************** Track 2 (Midi-Chn.1) ****************//

SilverWillMoment_002:
// 000   ----------------------------------------
 BYTE   KEYSH   SilverWillMoment_key+0
Label_1_01476C5E:
 BYTE   VOICE   30
 BYTE   VOL   28*SilverWillMoment_mvl/mxv
 BYTE   PAN   c_v+0
 BYTE   BEND   c_v+0
 BYTE   TIE  Fs1  v096
 BYTE   W96
// 001   ----------------------------------------
 BYTE   W96
// 002   ----------------------------------------
 BYTE   EOT
 BYTE   N96  Fs2  v127
 BYTE   W96
// 003   ----------------------------------------
 BYTE   W96
// 004   ----------------------------------------
 BYTE   N96
 BYTE   W96
// 005   ----------------------------------------
 BYTE   W96
// 006   ----------------------------------------
 BYTE   N96
 BYTE   W96
// 007   ----------------------------------------
 BYTE   W96
// 008   ----------------------------------------
 BYTE   Fs2  v096
 BYTE   W96
// 009   ----------------------------------------
 BYTE   W90
 BYTE   BEND   c_v-16
 BYTE   TIE  Cs3
 BYTE   W02
 BYTE   BEND   c_v-11
 BYTE   W02
 BYTE   BEND   c_v-5
 BYTE   W02
// 010   ----------------------------------------
 BYTE   BEND   c_v+0
 BYTE   W96
// 011   ----------------------------------------
 BYTE   EOT
 BYTE   W96
// 012   ----------------------------------------
 BYTE   W96
// 013   ----------------------------------------
 BYTE   W96
// 014   ----------------------------------------
 BYTE   W96
// 015   ----------------------------------------
 BYTE   W96
// 016   ----------------------------------------
 BYTE   W96
// 017   ----------------------------------------
 BYTE   W90
 BYTE   BEND   c_v-16
 BYTE   N48  Cs3  v112
 BYTE   W02
 BYTE   BEND   c_v-11
 BYTE   W02
 BYTE   BEND   c_v-5
 BYTE   W02
// 018   ----------------------------------------
 BYTE   BEND   c_v+0
 BYTE   N48  Fs3  v096
 BYTE   W42
 BYTE   BEND   c_v-16
 BYTE   N48  Cs3  v112
 BYTE   W02
 BYTE   BEND   c_v-11
 BYTE   W02
 BYTE   BEND   c_v-5
 BYTE   W02
 BYTE   BEND   c_v+0
 BYTE   N48  Fs3  v096
 BYTE   W42
 BYTE   BEND   c_v-16
 BYTE   N06  Cs3  v112
 BYTE   W02
 BYTE   BEND   c_v-11
 BYTE   W02
 BYTE   BEND   c_v-5
 BYTE   W02
// 019   ----------------------------------------
 BYTE   BEND   c_v+0
 BYTE   N48  Fs3  v096
 BYTE   W96
// 020   ----------------------------------------
 BYTE   W96
// 021   ----------------------------------------
 BYTE   W96
// 022   ----------------------------------------
 BYTE   N06  En3  v112
 BYTE   W06
 BYTE   Gs3
 BYTE   W06
 BYTE   N48  Bn3
 BYTE   W84
// 023   ----------------------------------------
 BYTE   N06  En3  v096
 BYTE   W06
 BYTE   Gs3
 BYTE   W06
 BYTE   N36  An3
 BYTE   W36
 BYTE   N06  Cs3
 BYTE   W06
 BYTE   Fn3
 BYTE   W06
 BYTE   N36  Gs3
 BYTE   W36
// 024   ----------------------------------------
 BYTE   N06  Fs2
 BYTE   W06
 BYTE   Cs3
 BYTE   W06
 BYTE   N24  Fs3
 BYTE   W36
 BYTE   N48
 BYTE   W48
// 025   ----------------------------------------
 BYTE   W96
// 026   ----------------------------------------
 BYTE   W96
// 027   ----------------------------------------
 BYTE   W96
// 028   ----------------------------------------
 BYTE   W96
// 029   ----------------------------------------
 BYTE   W96
// 030   ----------------------------------------
 BYTE   W96
// 031   ----------------------------------------
 BYTE   W96
// 032   ----------------------------------------
 BYTE   W96
// 033   ----------------------------------------
 BYTE   W96
// 034   ----------------------------------------
 BYTE   W96
// 035   ----------------------------------------
 BYTE   W96
// 036   ----------------------------------------
 BYTE   W96
// 037   ----------------------------------------
 BYTE   W96
// 038   ----------------------------------------
 BYTE   W96
// 039   ----------------------------------------
 BYTE   W96
// 040   ----------------------------------------
 BYTE   W96
// 041   ----------------------------------------
 BYTE   W96
// 042   ----------------------------------------
 BYTE   W96
// 043   ----------------------------------------
 BYTE   W96
// 044   ----------------------------------------
 BYTE   W96
// 045   ----------------------------------------
 BYTE   W96
// 046   ----------------------------------------
 BYTE   W96
// 047   ----------------------------------------
 BYTE   W96
// 048   ----------------------------------------
 BYTE   W96
// 049   ----------------------------------------
 BYTE   W96
// 050   ----------------------------------------
 BYTE   W96
// 051   ----------------------------------------
 BYTE   W96
// 052   ----------------------------------------
 BYTE   W96
// 053   ----------------------------------------
 BYTE   W96
// 054   ----------------------------------------
 BYTE   W96
// 055   ----------------------------------------
 BYTE   W96
// 056   ----------------------------------------
 BYTE   W96
// 057   ----------------------------------------
 BYTE   W96
// 058   ----------------------------------------
 BYTE   W96
// 059   ----------------------------------------
 BYTE   W96
// 060   ----------------------------------------
 BYTE   W96
// 061   ----------------------------------------
 BYTE   W96
// 062   ----------------------------------------
 BYTE   W96
// 063   ----------------------------------------
 BYTE   W96
// 064   ----------------------------------------
 BYTE   W96
// 065   ----------------------------------------
 BYTE   W96
// 066   ----------------------------------------
 BYTE   N96  En1
 BYTE   W96
// 067   ----------------------------------------
 BYTE   N96
 BYTE   W96
// 068   ----------------------------------------
 BYTE   GoTo
  POIN2 Label_1_01476C5E
 BYTE   FINE

//**************** Track 3 (Midi-Chn.2) ****************//

SilverWillMoment_003:
// 000   ----------------------------------------
 BYTE   KEYSH   SilverWillMoment_key+0
Label_2_01476D1B:
 BYTE   VOICE   61
 BYTE   VOL   33*SilverWillMoment_mvl/mxv
 BYTE   PAN   c_v+0
 BYTE   BEND   c_v+0
 BYTE   W96
// 001   ----------------------------------------
 BYTE   W96
// 002   ----------------------------------------
Label_2_01476D25:
 BYTE   N09  Fs3  v096
 BYTE   N09  Cs4
 BYTE   N09  Fs4
 BYTE   W12
 BYTE   Fs3
 BYTE   N09  Cs4
 BYTE   N09  Fs4
 BYTE   W12
 BYTE   Fs3
 BYTE   N09  Cs4
 BYTE   N09  Fs4
 BYTE   W12
 BYTE   En3
 BYTE   N09  Gs3
 BYTE   N09  Cs4
 BYTE   N09  En4
 BYTE   W12
 BYTE   En3
 BYTE   N09  Gs3
 BYTE   N09  Cs4
 BYTE   N09  En4
 BYTE   W12
 BYTE   En3
 BYTE   N09  Gs3
 BYTE   N09  Cs4
 BYTE   N09  En4
 BYTE   W12
 BYTE   En3
 BYTE   N09  Gs3
 BYTE   N09  Cs4
 BYTE   N09  En4
 BYTE   W12
 BYTE   Ds3
 BYTE   N09  Bn3
 BYTE   N09  Ds4
 BYTE   W12
 BYTE   PEND 
// 003   ----------------------------------------
Label_2_01476D60:
 BYTE   N09  Ds3  v096
 BYTE   N09  Bn3
 BYTE   N09  Ds4
 BYTE   W12
 BYTE   Ds3
 BYTE   N09  Bn3
 BYTE   N09  Ds4
 BYTE   W12
 BYTE   Ds3
 BYTE   N09  Bn3
 BYTE   N09  Ds4
 BYTE   W12
 BYTE   En3
 BYTE   N09  Gs3
 BYTE   N09  Cs4
 BYTE   N09  En4
 BYTE   W12
 BYTE   En3
 BYTE   N09  Gs3
 BYTE   N09  Cs4
 BYTE   N09  En4
 BYTE   W12
 BYTE   En3
 BYTE   N09  Gs3
 BYTE   N09  Cs4
 BYTE   N09  En4
 BYTE   W12
 BYTE   En3
 BYTE   N09  Gs3
 BYTE   N09  Cs4
 BYTE   N09  En4
 BYTE   W12
 BYTE   Fs3
 BYTE   N09  Cs4
 BYTE   N09  Fs4
 BYTE   W12
 BYTE   PEND 
// 004   ----------------------------------------
 BYTE   PATT
  POIN2 Label_2_01476D25
// 005   ----------------------------------------
 BYTE   PATT
  POIN2 Label_2_01476D60
// 006   ----------------------------------------
 BYTE   PATT
  POIN2 Label_2_01476D25
// 007   ----------------------------------------
 BYTE   PATT
  POIN2 Label_2_01476D60
// 008   ----------------------------------------
 BYTE   PATT
  POIN2 Label_2_01476D25
// 009   ----------------------------------------
 BYTE   W96
// 010   ----------------------------------------
 BYTE   W96
// 011   ----------------------------------------
 BYTE   W96
// 012   ----------------------------------------
 BYTE   W96
// 013   ----------------------------------------
 BYTE   W96
// 014   ----------------------------------------
 BYTE   W96
// 015   ----------------------------------------
 BYTE   W96
// 016   ----------------------------------------
 BYTE   W96
// 017   ----------------------------------------
 BYTE   W96
// 018   ----------------------------------------
 BYTE   W96
// 019   ----------------------------------------
 BYTE   W96
// 020   ----------------------------------------
 BYTE   W96
// 021   ----------------------------------------
 BYTE   W96
// 022   ----------------------------------------
 BYTE   W96
// 023   ----------------------------------------
 BYTE   W96
// 024   ----------------------------------------
 BYTE   W96
// 025   ----------------------------------------
 BYTE   W96
// 026   ----------------------------------------
 BYTE   W96
// 027   ----------------------------------------
 BYTE   W96
// 028   ----------------------------------------
 BYTE   W96
// 029   ----------------------------------------
 BYTE   W96
// 030   ----------------------------------------
 BYTE   W96
// 031   ----------------------------------------
 BYTE   W96
// 032   ----------------------------------------
 BYTE   W96
// 033   ----------------------------------------
 BYTE   W96
// 034   ----------------------------------------
 BYTE   W96
// 035   ----------------------------------------
 BYTE   W96
// 036   ----------------------------------------
 BYTE   W96
// 037   ----------------------------------------
 BYTE   W96
// 038   ----------------------------------------
 BYTE   W96
// 039   ----------------------------------------
 BYTE   W96
// 040   ----------------------------------------
 BYTE   W96
// 041   ----------------------------------------
 BYTE   W96
// 042   ----------------------------------------
 BYTE   W96
// 043   ----------------------------------------
 BYTE   W96
// 044   ----------------------------------------
 BYTE   W96
// 045   ----------------------------------------
 BYTE   W96
// 046   ----------------------------------------
 BYTE   W96
// 047   ----------------------------------------
 BYTE   W96
// 048   ----------------------------------------
 BYTE   W96
// 049   ----------------------------------------
 BYTE   W96
// 050   ----------------------------------------
 BYTE   W96
// 051   ----------------------------------------
 BYTE   W96
// 052   ----------------------------------------
 BYTE   W96
// 053   ----------------------------------------
 BYTE   W96
// 054   ----------------------------------------
 BYTE   W96
// 055   ----------------------------------------
 BYTE   W96
// 056   ----------------------------------------
 BYTE   W96
// 057   ----------------------------------------
 BYTE   W96
// 058   ----------------------------------------
 BYTE   W96
// 059   ----------------------------------------
 BYTE   W96
// 060   ----------------------------------------
 BYTE   W96
// 061   ----------------------------------------
 BYTE   W96
// 062   ----------------------------------------
 BYTE   W96
// 063   ----------------------------------------
 BYTE   W96
// 064   ----------------------------------------
 BYTE   W96
// 065   ----------------------------------------
 BYTE   W96
// 066   ----------------------------------------
 BYTE   W96
// 067   ----------------------------------------
 BYTE   W96
// 068   ----------------------------------------
 BYTE   GoTo
  POIN2 Label_2_01476D1B
 BYTE   FINE

//**************** Track 4 (Midi-Chn.3) ****************//

SilverWillMoment_004:
// 000   ----------------------------------------
 BYTE   KEYSH   SilverWillMoment_key+0
Label_3_01476DF7:
 BYTE   VOICE   80
 BYTE   VOL   24*SilverWillMoment_mvl/mxv
 BYTE   PAN   c_v-24
 BYTE   BEND   c_v+0
 BYTE   W96
// 001   ----------------------------------------
 BYTE   W96
// 002   ----------------------------------------
Label_3_01476E01:
 BYTE   N06  Gs3  v096
 BYTE   W06
 BYTE   Cs4
 BYTE   W06
 BYTE   En4
 BYTE   W06
 BYTE   Cs4
 BYTE   W06
 BYTE   Gs3
 BYTE   W06
 BYTE   Cs4
 BYTE   W06
 BYTE   En4
 BYTE   W06
 BYTE   Cs4
 BYTE   W06
 BYTE   Gs3
 BYTE   W06
 BYTE   Cs4
 BYTE   W06
 BYTE   En4
 BYTE   W06
 BYTE   Cs4
 BYTE   W06
 BYTE   Gs3
 BYTE   W06
 BYTE   Cs4
 BYTE   W06
 BYTE   En4
 BYTE   W06
 BYTE   Cs4
 BYTE   W06
 BYTE   PEND 
// 003   ----------------------------------------
Label_3_01476E24:
 BYTE   N06  Gs3  v096
 BYTE   W06
 BYTE   Cs4
 BYTE   W06
 BYTE   Gs4
 BYTE   W06
 BYTE   En4
 BYTE   W06
 BYTE   Gs3
 BYTE   W06
 BYTE   Cs4
 BYTE   W06
 BYTE   Fs4
 BYTE   W06
 BYTE   En4
 BYTE   W06
 BYTE   Gs3
 BYTE   W06
 BYTE   Cs4
 BYTE   W06
 BYTE   Gs3
 BYTE   W06
 BYTE   Cs4
 BYTE   W06
 BYTE   Gs4
 BYTE   W06
 BYTE   En4
 BYTE   W06
 BYTE   Gs3
 BYTE   W06
 BYTE   Cs4
 BYTE   W06
 BYTE   PEND 
// 004   ----------------------------------------
 BYTE   PATT
  POIN2 Label_3_01476E01
// 005   ----------------------------------------
 BYTE   PATT
  POIN2 Label_3_01476E24
// 006   ----------------------------------------
 BYTE   PATT
  POIN2 Label_3_01476E01
// 007   ----------------------------------------
 BYTE   PATT
  POIN2 Label_3_01476E24
// 008   ----------------------------------------
 BYTE   PATT
  POIN2 Label_3_01476E01
// 009   ----------------------------------------
 BYTE   PATT
  POIN2 Label_3_01476E24
// 010   ----------------------------------------
 BYTE   W96
// 011   ----------------------------------------
 BYTE   W96
// 012   ----------------------------------------
 BYTE   W96
// 013   ----------------------------------------
 BYTE   W96
// 014   ----------------------------------------
 BYTE   W96
// 015   ----------------------------------------
 BYTE   W96
// 016   ----------------------------------------
 BYTE   W96
// 017   ----------------------------------------
 BYTE   W96
// 018   ----------------------------------------
 BYTE   W96
// 019   ----------------------------------------
 BYTE   W96
// 020   ----------------------------------------
 BYTE   W96
// 021   ----------------------------------------
 BYTE   W96
// 022   ----------------------------------------
 BYTE   W96
// 023   ----------------------------------------
 BYTE   W96
// 024   ----------------------------------------
 BYTE   W96
// 025   ----------------------------------------
 BYTE   W60
 BYTE   VOICE   91
 BYTE   N12  Ds4  v080
 BYTE   W12
 BYTE   En4
 BYTE   W12
 BYTE   Gs4
 BYTE   W12
// 026   ----------------------------------------
 BYTE   N60  Bn4
 BYTE   W60
 BYTE   N12  Cs5
 BYTE   W12
 BYTE   Bn4
 BYTE   W12
 BYTE   En4
 BYTE   W12
// 027   ----------------------------------------
 BYTE   N48  Gs4
 BYTE   W48
 BYTE   N12
 BYTE   W12
 BYTE   Fs4
 BYTE   W12
 BYTE   N24  En4
 BYTE   W24
// 028   ----------------------------------------
 BYTE   N60  Fs4
 BYTE   W60
 BYTE   N12  Bn4  v096
 BYTE   W12
 BYTE   Fs4
 BYTE   W12
 BYTE   Ds4
 BYTE   W12
// 029   ----------------------------------------
 BYTE   N48  En4  v080
 BYTE   W48
 BYTE   N12  Cs4  v096
 BYTE   W12
 BYTE   Ds4
 BYTE   W12
 BYTE   En4
 BYTE   W12
 BYTE   Gs4
 BYTE   W12
// 030   ----------------------------------------
 BYTE   N48  Cs5  v080
 BYTE   W96
// 031   ----------------------------------------
 BYTE   Ds5  v096
 BYTE   W48
 BYTE   N24  As4
 BYTE   W24
 BYTE   Cs5  v080
 BYTE   W24
// 032   ----------------------------------------
 BYTE   N60  Cs5  v096
 BYTE   W60
 BYTE   N12  Cn5
 BYTE   W12
 BYTE   Cs5  v080
 BYTE   W12
 BYTE   TIE  Ds5
 BYTE   W12
// 033   ----------------------------------------
 BYTE   W96
// 034   ----------------------------------------
 BYTE   EOT
 BYTE   VOICE   80
 BYTE   W96
// 035   ----------------------------------------
 BYTE   W96
// 036   ----------------------------------------
 BYTE   W96
// 037   ----------------------------------------
 BYTE   W96
// 038   ----------------------------------------
 BYTE   W96
// 039   ----------------------------------------
 BYTE   W96
// 040   ----------------------------------------
 BYTE   W96
// 041   ----------------------------------------
 BYTE   W96
// 042   ----------------------------------------
 BYTE   W96
// 043   ----------------------------------------
 BYTE   W96
// 044   ----------------------------------------
 BYTE   W96
// 045   ----------------------------------------
 BYTE   W96
// 046   ----------------------------------------
 BYTE   W96
// 047   ----------------------------------------
 BYTE   W96
// 048   ----------------------------------------
 BYTE   W96
// 049   ----------------------------------------
 BYTE   W96
// 050   ----------------------------------------
 BYTE   W96
// 051   ----------------------------------------
 BYTE   W96
// 052   ----------------------------------------
 BYTE   W96
// 053   ----------------------------------------
 BYTE   W96
// 054   ----------------------------------------
 BYTE   W96
// 055   ----------------------------------------
 BYTE   W96
// 056   ----------------------------------------
 BYTE   W96
// 057   ----------------------------------------
 BYTE   W96
// 058   ----------------------------------------
 BYTE   W96
// 059   ----------------------------------------
 BYTE   W96
// 060   ----------------------------------------
 BYTE   W96
// 061   ----------------------------------------
 BYTE   W96
// 062   ----------------------------------------
 BYTE   W96
// 063   ----------------------------------------
 BYTE   W96
// 064   ----------------------------------------
 BYTE   W96
// 065   ----------------------------------------
 BYTE   W96
// 066   ----------------------------------------
 BYTE   W96
// 067   ----------------------------------------
 BYTE   W96
// 068   ----------------------------------------
 BYTE   GoTo
  POIN2 Label_3_01476DF7
 BYTE   FINE

//**************** Track 5 (Midi-Chn.4) ****************//

SilverWillMoment_005:
// 000   ----------------------------------------
 BYTE   KEYSH   SilverWillMoment_key+0
Label_4_01476EF4:
 BYTE   VOICE   80
 BYTE   VOL   24*SilverWillMoment_mvl/mxv
 BYTE   PAN   c_v-24
 BYTE   BEND   c_v+0
 BYTE   W96
// 001   ----------------------------------------
 BYTE   W96
// 002   ----------------------------------------
Label_4_01476EFE:
 BYTE   W06
 BYTE   N06  Gs3  v080
 BYTE   W06
 BYTE   Cs4
 BYTE   W06
 BYTE   En4
 BYTE   W06
 BYTE   Cs4
 BYTE   W06
 BYTE   Gs3
 BYTE   W06
 BYTE   Cs4
 BYTE   W06
 BYTE   En4
 BYTE   W06
 BYTE   Cs4
 BYTE   W06
 BYTE   Gs3
 BYTE   W06
 BYTE   Cs4
 BYTE   W06
 BYTE   En4
 BYTE   W06
 BYTE   Cs4
 BYTE   W06
 BYTE   Gs3
 BYTE   W06
 BYTE   Cs4
 BYTE   W06
 BYTE   En4
 BYTE   W06
 BYTE   PEND 
// 003   ----------------------------------------
Label_4_01476F20:
 BYTE   N06  Cs4  v080
 BYTE   W06
 BYTE   Gs3
 BYTE   W06
 BYTE   Cs4
 BYTE   W06
 BYTE   Gs4
 BYTE   W06
 BYTE   En4
 BYTE   W06
 BYTE   Gs3
 BYTE   W06
 BYTE   Cs4
 BYTE   W06
 BYTE   Fs4
 BYTE   W06
 BYTE   En4
 BYTE   W06
 BYTE   Gs3
 BYTE   W06
 BYTE   Cs4
 BYTE   W06
 BYTE   Gs3
 BYTE   W06
 BYTE   Cs4
 BYTE   W06
 BYTE   Gs4
 BYTE   W06
 BYTE   En4
 BYTE   W06
 BYTE   Gs3
 BYTE   W06
 BYTE   PEND 
// 004   ----------------------------------------
 BYTE   PATT
  POIN2 Label_4_01476EFE
// 005   ----------------------------------------
 BYTE   PATT
  POIN2 Label_4_01476F20
// 006   ----------------------------------------
 BYTE   PATT
  POIN2 Label_4_01476EFE
// 007   ----------------------------------------
 BYTE   PATT
  POIN2 Label_4_01476F20
// 008   ----------------------------------------
 BYTE   N06  Cs4  v080
 BYTE   W06
 BYTE   Gs3
 BYTE   W06
 BYTE   Cs4
 BYTE   W06
 BYTE   En4
 BYTE   W06
 BYTE   Cs4
 BYTE   W06
 BYTE   Gs3
 BYTE   W06
 BYTE   Cs4
 BYTE   W06
 BYTE   En4
 BYTE   W06
 BYTE   Cs4
 BYTE   W06
 BYTE   Gs3
 BYTE   W06
 BYTE   Cs4
 BYTE   W06
 BYTE   En4
 BYTE   W06
 BYTE   Cs4
 BYTE   W06
 BYTE   Gs3
 BYTE   W06
 BYTE   Cs4
 BYTE   W06
 BYTE   En4
 BYTE   W06
// 009   ----------------------------------------
 BYTE   PATT
  POIN2 Label_4_01476F20
// 010   ----------------------------------------
 BYTE   W96
// 011   ----------------------------------------
 BYTE   W96
// 012   ----------------------------------------
 BYTE   W96
// 013   ----------------------------------------
 BYTE   W96
// 014   ----------------------------------------
 BYTE   W96
// 015   ----------------------------------------
 BYTE   W96
// 016   ----------------------------------------
 BYTE   W96
// 017   ----------------------------------------
 BYTE   W96
// 018   ----------------------------------------
 BYTE   W96
// 019   ----------------------------------------
 BYTE   W96
// 020   ----------------------------------------
 BYTE   W96
// 021   ----------------------------------------
 BYTE   W96
// 022   ----------------------------------------
 BYTE   W96
// 023   ----------------------------------------
 BYTE   W96
// 024   ----------------------------------------
 BYTE   W96
// 025   ----------------------------------------
 BYTE   W72
 BYTE   VOICE   91
 BYTE   N12  Ds4  v064
 BYTE   W12
 BYTE   En4
 BYTE   W12
// 026   ----------------------------------------
 BYTE   Gs4
 BYTE   W12
 BYTE   N60  Bn4
 BYTE   W60
 BYTE   N12  Cs5
 BYTE   W12
 BYTE   Bn4
 BYTE   W12
// 027   ----------------------------------------
 BYTE   En4
 BYTE   W12
 BYTE   N48  Gs4
 BYTE   W48
 BYTE   N12
 BYTE   W12
 BYTE   Fs4
 BYTE   W12
 BYTE   En4
 BYTE   W12
// 028   ----------------------------------------
 BYTE   N12
 BYTE   W12
 BYTE   N60  Fs4
 BYTE   W60
 BYTE   N12  Bn4
 BYTE   W12
 BYTE   Fs4
 BYTE   W12
// 029   ----------------------------------------
 BYTE   Ds4
 BYTE   W12
 BYTE   N48  En4
 BYTE   W48
 BYTE   N12  Cs4
 BYTE   W12
 BYTE   Ds4
 BYTE   W12
 BYTE   En4
 BYTE   W12
// 030   ----------------------------------------
 BYTE   Gs4
 BYTE   W12
 BYTE   N48  Cs5
 BYTE   W84
// 031   ----------------------------------------
 BYTE   W12
 BYTE   Ds5
 BYTE   W48
 BYTE   N24  As4
 BYTE   W24
 BYTE   Cs5
 BYTE   W12
// 032   ----------------------------------------
 BYTE   W12
 BYTE   N60
 BYTE   W60
 BYTE   N12  Cn5
 BYTE   W12
 BYTE   Cs5
 BYTE   W12
// 033   ----------------------------------------
 BYTE   TIE  Ds5
 BYTE   W96
// 034   ----------------------------------------
 BYTE   W12
 BYTE   EOT
 BYTE   VOICE   80
 BYTE   W84
// 035   ----------------------------------------
 BYTE   W96
// 036   ----------------------------------------
 BYTE   W96
// 037   ----------------------------------------
 BYTE   W96
// 038   ----------------------------------------
 BYTE   W96
// 039   ----------------------------------------
 BYTE   W96
// 040   ----------------------------------------
 BYTE   W96
// 041   ----------------------------------------
 BYTE   W96
// 042   ----------------------------------------
 BYTE   W96
// 043   ----------------------------------------
 BYTE   W96
// 044   ----------------------------------------
 BYTE   W96
// 045   ----------------------------------------
 BYTE   W96
// 046   ----------------------------------------
 BYTE   W96
// 047   ----------------------------------------
 BYTE   W96
// 048   ----------------------------------------
 BYTE   W96
// 049   ----------------------------------------
 BYTE   W96
// 050   ----------------------------------------
 BYTE   W96
// 051   ----------------------------------------
 BYTE   W96
// 052   ----------------------------------------
 BYTE   W96
// 053   ----------------------------------------
 BYTE   W96
// 054   ----------------------------------------
 BYTE   W96
// 055   ----------------------------------------
 BYTE   W96
// 056   ----------------------------------------
 BYTE   W96
// 057   ----------------------------------------
 BYTE   W96
// 058   ----------------------------------------
 BYTE   W96
// 059   ----------------------------------------
 BYTE   W96
// 060   ----------------------------------------
 BYTE   W96
// 061   ----------------------------------------
 BYTE   W96
// 062   ----------------------------------------
 BYTE   W96
// 063   ----------------------------------------
 BYTE   W96
// 064   ----------------------------------------
 BYTE   W96
// 065   ----------------------------------------
 BYTE   W96
// 066   ----------------------------------------
 BYTE   W96
// 067   ----------------------------------------
 BYTE   W96
// 068   ----------------------------------------
 BYTE   GoTo
  POIN2 Label_4_01476EF4
 BYTE   FINE

//**************** Track 6 (Midi-Chn.5) ****************//

SilverWillMoment_006:
// 000   ----------------------------------------
 BYTE   KEYSH   SilverWillMoment_key+0
Label_5_01477007:
 BYTE   VOICE   41
 BYTE   VOL   33*SilverWillMoment_mvl/mxv
 BYTE   PAN   c_v+16
 BYTE   BEND   c_v+0
 BYTE   W96
// 001   ----------------------------------------
 BYTE   W96
// 002   ----------------------------------------
 BYTE   W96
// 003   ----------------------------------------
 BYTE   W96
// 004   ----------------------------------------
 BYTE   W96
// 005   ----------------------------------------
 BYTE   W96
// 006   ----------------------------------------
 BYTE   W96
// 007   ----------------------------------------
 BYTE   W96
// 008   ----------------------------------------
 BYTE   W96
// 009   ----------------------------------------
 BYTE   N06  Gs4  v096
 BYTE   W06
 BYTE   Bn4
 BYTE   W06
 BYTE   Fs4
 BYTE   W06
 BYTE   Bn4
 BYTE   W06
 BYTE   Gs4
 BYTE   W06
 BYTE   Bn4
 BYTE   W06
 BYTE   Fs4
 BYTE   W06
 BYTE   Bn4
 BYTE   W06
 BYTE   Gs4
 BYTE   W06
 BYTE   Bn4
 BYTE   W06
 BYTE   Fs4
 BYTE   W06
 BYTE   Bn4
 BYTE   W06
 BYTE   Gs4
 BYTE   W06
 BYTE   Bn4
 BYTE   W06
 BYTE   Fs4
 BYTE   W06
 BYTE   Bn4
 BYTE   W06
// 010   ----------------------------------------
Label_5_0147703A:
 BYTE   N28  Cs4  v096
 BYTE   W36
 BYTE   N06  Gs3
 BYTE   W12
 BYTE   N28  Ds4
 BYTE   W36
 BYTE   N06  Gs3
 BYTE   W12
 BYTE   PEND 
// 011   ----------------------------------------
Label_5_01477048:
 BYTE   N18  En4  v096
 BYTE   W18
 BYTE   Fs4
 BYTE   W18
 BYTE   N12  Gs4
 BYTE   W12
 BYTE   N18  Fs4
 BYTE   W18
 BYTE   En4
 BYTE   W18
 BYTE   N12  Ds4
 BYTE   W12
 BYTE   PEND 
// 012   ----------------------------------------
Label_5_0147705A:
 BYTE   N18  Cs4  v096
 BYTE   W18
 BYTE   N30  Gs4
 BYTE   W42
 BYTE   N12  Bn4
 BYTE   W12
 BYTE   N06  An4
 BYTE   W12
 BYTE   N42  Gs4
 BYTE   W12
 BYTE   PEND 
// 013   ----------------------------------------
Label_5_0147706B:
 BYTE   W48
 BYTE   N12  Gs4  v096
 BYTE   W12
 BYTE   N06  Fs4
 BYTE   W12
 BYTE   N18  En4
 BYTE   W24
 BYTE   PEND 
// 014   ----------------------------------------
Label_5_01477077:
 BYTE   N30  Fs4  v096
 BYTE   W36
 BYTE   N06  En4
 BYTE   W12
 BYTE   N28  Ds4
 BYTE   W36
 BYTE   N06  Cs4
 BYTE   W06
 BYTE   Ds4
 BYTE   W06
 BYTE   PEND 
// 015   ----------------------------------------
Label_5_01477087:
 BYTE   N18  En4  v096
 BYTE   W18
 BYTE   Ds4
 BYTE   W18
 BYTE   N12  Cs4
 BYTE   W12
 BYTE   N18  Ds4
 BYTE   W18
 BYTE   Gs3
 BYTE   W18
 BYTE   N06  Bn3
 BYTE   W12
 BYTE   PEND 
// 016   ----------------------------------------
Label_5_01477099:
 BYTE   N36  Bn3  v096
 BYTE   W36
 BYTE   N06  Cs4
 BYTE   W12
 BYTE   N48
 BYTE   W48
 BYTE   PEND 
// 017   ----------------------------------------
 BYTE   W96
// 018   ----------------------------------------
 BYTE   PATT
  POIN2 Label_5_0147703A
// 019   ----------------------------------------
 BYTE   PATT
  POIN2 Label_5_01477048
// 020   ----------------------------------------
 BYTE   PATT
  POIN2 Label_5_0147705A
// 021   ----------------------------------------
 BYTE   PATT
  POIN2 Label_5_0147706B
// 022   ----------------------------------------
 BYTE   PATT
  POIN2 Label_5_01477077
// 023   ----------------------------------------
 BYTE   PATT
  POIN2 Label_5_01477087
// 024   ----------------------------------------
 BYTE   PATT
  POIN2 Label_5_01477099
// 025   ----------------------------------------
 BYTE   W96
// 026   ----------------------------------------
 BYTE   W96
// 027   ----------------------------------------
 BYTE   W96
// 028   ----------------------------------------
 BYTE   W96
// 029   ----------------------------------------
 BYTE   W96
// 030   ----------------------------------------
 BYTE   W96
// 031   ----------------------------------------
 BYTE   W96
// 032   ----------------------------------------
 BYTE   W96
// 033   ----------------------------------------
 BYTE   W60
 BYTE   N06  As3  v096
 BYTE   W12
 BYTE   N12  Fn4
 BYTE   W12
 BYTE   Fs4
 BYTE   W12
// 034   ----------------------------------------
Label_5_014770D9:
 BYTE   N24  Fn4  v096
 BYTE   W24
 BYTE   N06  Ds4
 BYTE   W12
 BYTE   N24  As3
 BYTE   W24
 BYTE   N06  Gs3
 BYTE   W12
 BYTE   Fs3
 BYTE   W12
 BYTE   N60  As3
 BYTE   W12
 BYTE   PEND 
// 035   ----------------------------------------
Label_5_014770EC:
 BYTE   W60
 BYTE   N06  As3  v096
 BYTE   W12
 BYTE   N12  Fn4
 BYTE   W12
 BYTE   N06  Fs4
 BYTE   W12
 BYTE   PEND 
// 036   ----------------------------------------
Label_5_014770F8:
 BYTE   N24  Fn4  v096
 BYTE   W24
 BYTE   N12  Ds4
 BYTE   W12
 BYTE   N19  As3
 BYTE   W24
 BYTE   N12  Gs3
 BYTE   W12
 BYTE   N06  As3
 BYTE   W12
 BYTE   N60  Ds3
 BYTE   W12
 BYTE   PEND 
// 037   ----------------------------------------
Label_5_0147710C:
 BYTE   W60
 BYTE   N12  Ds3  v096
 BYTE   W12
 BYTE   Fs3
 BYTE   W12
 BYTE   N06  Gs3
 BYTE   W12
 BYTE   PEND 
// 038   ----------------------------------------
Label_5_01477117:
 BYTE   N36  As3  v096
 BYTE   W36
 BYTE   N06  Gs3
 BYTE   W12
 BYTE   N36
 BYTE   W36
 BYTE   N06  Fs3
 BYTE   W06
 BYTE   Gs3
 BYTE   W06
 BYTE   PEND 
// 039   ----------------------------------------
Label_5_01477126:
 BYTE   N18  As3  v096
 BYTE   W18
 BYTE   Bn3
 BYTE   W18
 BYTE   N12  As3
 BYTE   W12
 BYTE   N24  Gs3
 BYTE   W24
 BYTE   Fn3
 BYTE   W24
 BYTE   PEND 
// 040   ----------------------------------------
Label_5_01477135:
 BYTE   N36  Gs3  v096
 BYTE   W36
 BYTE   N06  Fs3
 BYTE   W12
 BYTE   N48  As3
 BYTE   W48
 BYTE   PEND 
// 041   ----------------------------------------
 BYTE   PATT
  POIN2 Label_5_014770EC
// 042   ----------------------------------------
 BYTE   PATT
  POIN2 Label_5_014770D9
// 043   ----------------------------------------
Label_5_0147714A:
 BYTE   W60
 BYTE   N12  As3  v096
 BYTE   W12
 BYTE   Fn4
 BYTE   W12
 BYTE   N06  Fs4
 BYTE   W12
 BYTE   PEND 
// 044   ----------------------------------------
Label_5_01477155:
 BYTE   N24  Gs4  v096
 BYTE   W24
 BYTE   N06  Fs4
 BYTE   W12
 BYTE   N24  Fn4
 BYTE   W24
 BYTE   N06  Fs4
 BYTE   W12
 BYTE   Gs4
 BYTE   W12
 BYTE   N60  As4
 BYTE   W12
 BYTE   PEND 
// 045   ----------------------------------------
Label_5_01477168:
 BYTE   W60
 BYTE   N12  Ds4  v096
 BYTE   W12
 BYTE   Fs4
 BYTE   W12
 BYTE   N08  Gs4
 BYTE   W12
 BYTE   PEND 
// 046   ----------------------------------------
Label_5_01477173:
 BYTE   N36  As4  v096
 BYTE   W36
 BYTE   N06  Gs4
 BYTE   W12
 BYTE   N28
 BYTE   W36
 BYTE   N06  Fs4
 BYTE   W06
 BYTE   Gs4
 BYTE   W06
 BYTE   PEND 
// 047   ----------------------------------------
Label_5_01477182:
 BYTE   N18  As4  v096
 BYTE   W18
 BYTE   Bn4
 BYTE   W18
 BYTE   N12  As4
 BYTE   W12
 BYTE   N24  Gs4
 BYTE   W24
 BYTE   Fn4
 BYTE   W24
 BYTE   PEND 
// 048   ----------------------------------------
Label_5_01477191:
 BYTE   N36  Fn4  v096
 BYTE   W36
 BYTE   N12  Fs4
 BYTE   W12
 BYTE   N48  Ds4
 BYTE   W48
 BYTE   PEND 
// 049   ----------------------------------------
 BYTE   PATT
  POIN2 Label_5_0147714A
// 050   ----------------------------------------
 BYTE   PATT
  POIN2 Label_5_014770D9
// 051   ----------------------------------------
 BYTE   PATT
  POIN2 Label_5_014770EC
// 052   ----------------------------------------
 BYTE   PATT
  POIN2 Label_5_014770F8
// 053   ----------------------------------------
 BYTE   PATT
  POIN2 Label_5_0147710C
// 054   ----------------------------------------
 BYTE   PATT
  POIN2 Label_5_01477117
// 055   ----------------------------------------
 BYTE   PATT
  POIN2 Label_5_01477126
// 056   ----------------------------------------
 BYTE   PATT
  POIN2 Label_5_01477135
// 057   ----------------------------------------
 BYTE   PATT
  POIN2 Label_5_014770EC
// 058   ----------------------------------------
 BYTE   PATT
  POIN2 Label_5_014770D9
// 059   ----------------------------------------
 BYTE   PATT
  POIN2 Label_5_0147714A
// 060   ----------------------------------------
 BYTE   PATT
  POIN2 Label_5_01477155
// 061   ----------------------------------------
 BYTE   PATT
  POIN2 Label_5_01477168
// 062   ----------------------------------------
 BYTE   PATT
  POIN2 Label_5_01477173
// 063   ----------------------------------------
 BYTE   PATT
  POIN2 Label_5_01477182
// 064   ----------------------------------------
 BYTE   PATT
  POIN2 Label_5_01477191
// 065   ----------------------------------------
 BYTE   W96
// 066   ----------------------------------------
 BYTE   W96
// 067   ----------------------------------------
 BYTE   W96
// 068   ----------------------------------------
 BYTE   GoTo
  POIN2 Label_5_01477007
 BYTE   FINE

//**************** Track 7 (Midi-Chn.6) ****************//

SilverWillMoment_007:
// 000   ----------------------------------------
 BYTE   KEYSH   SilverWillMoment_key+0
Label_6_014771F7:
 BYTE   VOICE   40
 BYTE   VOL   24*SilverWillMoment_mvl/mxv
 BYTE   PAN   c_v-24
 BYTE   BEND   c_v+0
 BYTE   W96
// 001   ----------------------------------------
 BYTE   W96
// 002   ----------------------------------------
 BYTE   W96
// 003   ----------------------------------------
 BYTE   W96
// 004   ----------------------------------------
 BYTE   W96
// 005   ----------------------------------------
 BYTE   W96
// 006   ----------------------------------------
 BYTE   W96
// 007   ----------------------------------------
 BYTE   W96
// 008   ----------------------------------------
 BYTE   W96
// 009   ----------------------------------------
 BYTE   W96
// 010   ----------------------------------------
 BYTE   W96
// 011   ----------------------------------------
 BYTE   W96
// 012   ----------------------------------------
 BYTE   W96
// 013   ----------------------------------------
 BYTE   W96
// 014   ----------------------------------------
 BYTE   W96
// 015   ----------------------------------------
 BYTE   W96
// 016   ----------------------------------------
 BYTE   W96
// 017   ----------------------------------------
 BYTE   W96
// 018   ----------------------------------------
 BYTE   W96
// 019   ----------------------------------------
 BYTE   N18  Cs4  v096
 BYTE   W18
 BYTE   Ds4
 BYTE   W18
 BYTE   N12  En4
 BYTE   W12
 BYTE   N18  Ds4
 BYTE   W18
 BYTE   Cs4
 BYTE   W18
 BYTE   N12  Bn3
 BYTE   W12
// 020   ----------------------------------------
 BYTE   N18  Cs4
 BYTE   W18
 BYTE   N30
 BYTE   W42
 BYTE   N12  En4
 BYTE   W12
 BYTE   N06  Ds4
 BYTE   W12
 BYTE   N42  Cs4
 BYTE   W12
// 021   ----------------------------------------
 BYTE   W48
 BYTE   N12  En4
 BYTE   W12
 BYTE   N06  Ds4
 BYTE   W12
 BYTE   N18  Cs4
 BYTE   W24
// 022   ----------------------------------------
 BYTE   N36  Ds4
 BYTE   W36
 BYTE   N12  Cs4
 BYTE   W12
 BYTE   N36  Bn3
 BYTE   W36
 BYTE   N06  Gs3
 BYTE   W06
 BYTE   Cn4
 BYTE   W06
// 023   ----------------------------------------
 BYTE   N18  Cs4
 BYTE   W18
 BYTE   Bn3
 BYTE   W18
 BYTE   N12  Gs3
 BYTE   W12
 BYTE   N18  Bn3
 BYTE   W18
 BYTE   Gs3
 BYTE   W18
 BYTE   N06
 BYTE   W12
// 024   ----------------------------------------
 BYTE   N36  Fs3
 BYTE   W36
 BYTE   N12  Gs3
 BYTE   W12
 BYTE   N48
 BYTE   W48
// 025   ----------------------------------------
 BYTE   W96
// 026   ----------------------------------------
 BYTE   W96
// 027   ----------------------------------------
 BYTE   W96
// 028   ----------------------------------------
 BYTE   W96
// 029   ----------------------------------------
 BYTE   W96
// 030   ----------------------------------------
 BYTE   W96
// 031   ----------------------------------------
 BYTE   W96
// 032   ----------------------------------------
 BYTE   W96
// 033   ----------------------------------------
 BYTE   W96
// 034   ----------------------------------------
 BYTE   W96
// 035   ----------------------------------------
 BYTE   W96
// 036   ----------------------------------------
 BYTE   W96
// 037   ----------------------------------------
 BYTE   W96
// 038   ----------------------------------------
 BYTE   W96
// 039   ----------------------------------------
 BYTE   W96
// 040   ----------------------------------------
 BYTE   W96
// 041   ----------------------------------------
Label_6_01477270:
 BYTE   W60
 BYTE   N06  As3  v096
 BYTE   W12
 BYTE   N12  Fn4
 BYTE   W12
 BYTE   N06  Fs4
 BYTE   W12
 BYTE   PEND 
// 042   ----------------------------------------
Label_6_0147727C:
 BYTE   N24  Fn4  v096
 BYTE   W24
 BYTE   N12  Ds4
 BYTE   W12
 BYTE   N24  As3
 BYTE   W24
 BYTE   N12  Gs3
 BYTE   W12
 BYTE   Fs3
 BYTE   W12
 BYTE   N60  As3
 BYTE   W12
 BYTE   PEND 
// 043   ----------------------------------------
Label_6_0147728F:
 BYTE   W60
 BYTE   N12  As3  v096
 BYTE   W12
 BYTE   Fn4
 BYTE   W12
 BYTE   N06  Fs4
 BYTE   W12
 BYTE   PEND 
// 044   ----------------------------------------
 BYTE   W96
// 045   ----------------------------------------
 BYTE   W96
// 046   ----------------------------------------
 BYTE   W96
// 047   ----------------------------------------
 BYTE   W96
// 048   ----------------------------------------
 BYTE   W96
// 049   ----------------------------------------
 BYTE   W96
// 050   ----------------------------------------
 BYTE   W96
// 051   ----------------------------------------
 BYTE   W96
// 052   ----------------------------------------
 BYTE   W96
// 053   ----------------------------------------
 BYTE   W96
// 054   ----------------------------------------
 BYTE   W96
// 055   ----------------------------------------
 BYTE   W96
// 056   ----------------------------------------
 BYTE   W96
// 057   ----------------------------------------
 BYTE   PATT
  POIN2 Label_6_01477270
// 058   ----------------------------------------
 BYTE   PATT
  POIN2 Label_6_0147727C
// 059   ----------------------------------------
 BYTE   PATT
  POIN2 Label_6_0147728F
// 060   ----------------------------------------
 BYTE   W96
// 061   ----------------------------------------
 BYTE   W96
// 062   ----------------------------------------
 BYTE   W96
// 063   ----------------------------------------
 BYTE   W96
// 064   ----------------------------------------
 BYTE   W96
// 065   ----------------------------------------
 BYTE   W96
// 066   ----------------------------------------
 BYTE   W96
// 067   ----------------------------------------
 BYTE   W96
// 068   ----------------------------------------
 BYTE   GoTo
  POIN2 Label_6_014771F7
 BYTE   FINE

//**************** Track 8 (Midi-Chn.7) ****************//

SilverWillMoment_008:
// 000   ----------------------------------------
 BYTE   KEYSH   SilverWillMoment_key+0
Label_7_014772C6:
 BYTE   VOICE   38
 BYTE   VOL   33*SilverWillMoment_mvl/mxv
 BYTE   PAN   c_v+0
 BYTE   BEND   c_v+0
 BYTE   W96
// 001   ----------------------------------------
 BYTE   W96
// 002   ----------------------------------------
Label_7_014772D0:
 BYTE   N24  Cs1  v096
 BYTE   W24
 BYTE   N12  Fs1
 BYTE   W12
 BYTE   Gs1
 BYTE   W12
 BYTE   N24  Cs1
 BYTE   W24
 BYTE   N12  Fs1
 BYTE   W12
 BYTE   Gs1
 BYTE   W12
 BYTE   PEND 
// 003   ----------------------------------------
 BYTE   PATT
  POIN2 Label_7_014772D0
// 004   ----------------------------------------
 BYTE   PATT
  POIN2 Label_7_014772D0
// 005   ----------------------------------------
 BYTE   PATT
  POIN2 Label_7_014772D0
// 006   ----------------------------------------
 BYTE   PATT
  POIN2 Label_7_014772D0
// 007   ----------------------------------------
 BYTE   PATT
  POIN2 Label_7_014772D0
// 008   ----------------------------------------
 BYTE   PATT
  POIN2 Label_7_014772D0
// 009   ----------------------------------------
 BYTE   PATT
  POIN2 Label_7_014772D0
// 010   ----------------------------------------
 BYTE   PATT
  POIN2 Label_7_014772D0
// 011   ----------------------------------------
 BYTE   PATT
  POIN2 Label_7_014772D0
// 012   ----------------------------------------
Label_7_0147730F:
 BYTE   N24  Bn0  v096
 BYTE   W24
 BYTE   N12  En1
 BYTE   W12
 BYTE   Fs1
 BYTE   W12
 BYTE   N24  Bn0
 BYTE   W24
 BYTE   N12  En1
 BYTE   W12
 BYTE   Fs1
 BYTE   W12
 BYTE   PEND 
// 013   ----------------------------------------
Label_7_01477321:
 BYTE   N24  Bn0  v096
 BYTE   W24
 BYTE   N12  En1
 BYTE   W12
 BYTE   Fs1
 BYTE   W12
 BYTE   N24  Bn0
 BYTE   W24
 BYTE   Fs1
 BYTE   W24
 BYTE   PEND 
// 014   ----------------------------------------
Label_7_01477330:
 BYTE   N24  An0  v096
 BYTE   W24
 BYTE   N12  Cs1
 BYTE   W12
 BYTE   En1
 BYTE   W12
 BYTE   N24  An0
 BYTE   W24
 BYTE   N12  Cs1
 BYTE   W12
 BYTE   En1
 BYTE   W12
 BYTE   PEND 
// 015   ----------------------------------------
 BYTE   PATT
  POIN2 Label_7_01477330
// 016   ----------------------------------------
 BYTE   PATT
  POIN2 Label_7_0147730F
// 017   ----------------------------------------
 BYTE   N24  Cs1  v096
 BYTE   W24
 BYTE   N12  Fs1
 BYTE   W12
 BYTE   Gs1
 BYTE   W12
 BYTE   N06  Cn1
 BYTE   W06
 BYTE   Ds1
 BYTE   W06
 BYTE   Fs1
 BYTE   W06
 BYTE   As1
 BYTE   W06
 BYTE   Cn2
 BYTE   W06
 BYTE   Ds2
 BYTE   W06
 BYTE   Fs2
 BYTE   W06
 BYTE   Gs2
 BYTE   W06
// 018   ----------------------------------------
 BYTE   PATT
  POIN2 Label_7_014772D0
// 019   ----------------------------------------
 BYTE   PATT
  POIN2 Label_7_014772D0
// 020   ----------------------------------------
 BYTE   PATT
  POIN2 Label_7_0147730F
// 021   ----------------------------------------
 BYTE   PATT
  POIN2 Label_7_01477321
// 022   ----------------------------------------
 BYTE   PATT
  POIN2 Label_7_01477330
// 023   ----------------------------------------
 BYTE   PATT
  POIN2 Label_7_01477330
// 024   ----------------------------------------
 BYTE   PATT
  POIN2 Label_7_0147730F
// 025   ----------------------------------------
 BYTE   PATT
  POIN2 Label_7_014772D0
// 026   ----------------------------------------
 BYTE   N18  En0  v096
 BYTE   W18
 BYTE   N18
 BYTE   W18
 BYTE   N48
 BYTE   W48
 BYTE   N12  Bn0
 BYTE   W12
// 027   ----------------------------------------
 BYTE   N18  Gs0
 BYTE   W18
 BYTE   N18
 BYTE   W18
 BYTE   N24
 BYTE   W24
 BYTE   N12  Gs1
 BYTE   W12
 BYTE   En1
 BYTE   W12
 BYTE   Bn0
 BYTE   W12
// 028   ----------------------------------------
 BYTE   N12
 BYTE   W12
 BYTE   N12
 BYTE   W12
 BYTE   N12
 BYTE   W12
 BYTE   N12
 BYTE   W60
// 029   ----------------------------------------
 BYTE   Cs1
 BYTE   W12
 BYTE   N12
 BYTE   W12
 BYTE   N12
 BYTE   W12
 BYTE   N06  Gs1
 BYTE   W06
 BYTE   En1
 BYTE   W06
 BYTE   N12  Cs1
 BYTE   W12
 BYTE   N06  Gs1  v064
 BYTE   W06
 BYTE   En1
 BYTE   W06
 BYTE   N12  Cs1
 BYTE   W24
// 030   ----------------------------------------
 BYTE   Cs1  v096
 BYTE   W12
 BYTE   N12
 BYTE   W12
 BYTE   N12
 BYTE   W12
 BYTE   N12
 BYTE   W48
 BYTE   N06  Gs1
 BYTE   W06
 BYTE   Cs1
 BYTE   W06
// 031   ----------------------------------------
 BYTE   N12  Ds1
 BYTE   W12
 BYTE   N24
 BYTE   W24
 BYTE   N06  Ds2
 BYTE   W06
 BYTE   As1
 BYTE   W06
 BYTE   N12  Ds1
 BYTE   W12
 BYTE   Ds2
 BYTE   W12
 BYTE   As1
 BYTE   W12
 BYTE   Ds1
 BYTE   W12
// 032   ----------------------------------------
 BYTE   N24  Gs1
 BYTE   W24
 BYTE   N12  Ds1
 BYTE   W12
 BYTE   N12
 BYTE   W12
 BYTE   N24
 BYTE   W24
 BYTE   N12  Gs1
 BYTE   W12
 BYTE   Cs1
 BYTE   W12
// 033   ----------------------------------------
 BYTE   N24  Ds1
 BYTE   W24
 BYTE   As1
 BYTE   W24
 BYTE   N03  Ds2  v076
 BYTE   W03
 BYTE   N03
 BYTE   W03
 BYTE   As1
 BYTE   W03
 BYTE   N03
 BYTE   W03
 BYTE   Ds1
 BYTE   W03
 BYTE   N03
 BYTE   W03
 BYTE   N03
 BYTE   W03
 BYTE   N03
 BYTE   W03
 BYTE   Ds2  v052
 BYTE   W03
 BYTE   N03
 BYTE   W03
 BYTE   As1
 BYTE   W03
 BYTE   N03
 BYTE   W03
 BYTE   Ds1
 BYTE   W03
 BYTE   N03
 BYTE   W03
 BYTE   N03
 BYTE   W03
 BYTE   N03
 BYTE   W03
// 034   ----------------------------------------
Label_7_0147741E:
 BYTE   N24  Ds1  v096
 BYTE   W24
 BYTE   N12  As1
 BYTE   W12
 BYTE   N24  Fn2
 BYTE   W24
 BYTE   N12  Ds2
 BYTE   W12
 BYTE   Fs1
 BYTE   W12
 BYTE   Fn1
 BYTE   W12
 BYTE   PEND 
// 035   ----------------------------------------
Label_7_01477430:
 BYTE   N24  Ds1  v096
 BYTE   W24
 BYTE   N12  Gs1
 BYTE   W12
 BYTE   As1
 BYTE   W24
 BYTE   Ds1
 BYTE   W12
 BYTE   Gs1
 BYTE   W12
 BYTE   As1
 BYTE   W12
 BYTE   PEND 
// 036   ----------------------------------------
Label_7_01477440:
 BYTE   N24  Ds1  v096
 BYTE   W24
 BYTE   N12  As1
 BYTE   W12
 BYTE   N24  Ds2
 BYTE   W24
 BYTE   N12  Cs2
 BYTE   W12
 BYTE   As1
 BYTE   W12
 BYTE   Gs1
 BYTE   W12
 BYTE   PEND 
// 037   ----------------------------------------
Label_7_01477452:
 BYTE   N24  Ds1  v096
 BYTE   W24
 BYTE   N12  Gs1
 BYTE   W12
 BYTE   As1
 BYTE   W24
 BYTE   N12
 BYTE   W12
 BYTE   Gs1
 BYTE   W12
 BYTE   As1
 BYTE   W12
 BYTE   PEND 
// 038   ----------------------------------------
Label_7_01477462:
 BYTE   N24  Cs1  v096
 BYTE   W24
 BYTE   N12  Gs1
 BYTE   W12
 BYTE   N24  Cs2
 BYTE   W24
 BYTE   N12  Gs1
 BYTE   W12
 BYTE   Cs1
 BYTE   W24
 BYTE   PEND 
// 039   ----------------------------------------
Label_7_01477472:
 BYTE   N18  Cs1  v096
 BYTE   W18
 BYTE   Gs1
 BYTE   W18
 BYTE   N12  As1
 BYTE   W12
 BYTE   Cs1
 BYTE   W12
 BYTE   Fn1
 BYTE   W12
 BYTE   Gs1
 BYTE   W12
 BYTE   As1
 BYTE   W12
 BYTE   PEND 
// 040   ----------------------------------------
 BYTE   PATT
  POIN2 Label_7_0147741E
// 041   ----------------------------------------
Label_7_01477489:
 BYTE   N24  As0  v096
 BYTE   W24
 BYTE   N12  Fs1  v052
 BYTE   W12
 BYTE   N24  As0  v096
 BYTE   W24
 BYTE   N12
 BYTE   W12
 BYTE   Ds1
 BYTE   W12
 BYTE   As1
 BYTE   W12
 BYTE   PEND 
// 042   ----------------------------------------
 BYTE   PATT
  POIN2 Label_7_0147741E
// 043   ----------------------------------------
 BYTE   PATT
  POIN2 Label_7_01477430
// 044   ----------------------------------------
Label_7_014774A6:
 BYTE   N24  Cs1  v096
 BYTE   W24
 BYTE   N12  Gs1
 BYTE   W12
 BYTE   N24  Cs2
 BYTE   W24
 BYTE   N12  Gs1
 BYTE   W12
 BYTE   Fn1
 BYTE   W12
 BYTE   Ds1
 BYTE   W12
 BYTE   PEND 
// 045   ----------------------------------------
Label_7_014774B8:
 BYTE   N24  Cs1  v096
 BYTE   W24
 BYTE   N12  Gs1
 BYTE   W12
 BYTE   Cs2
 BYTE   W24
 BYTE   Gs1
 BYTE   W12
 BYTE   Fn1
 BYTE   W12
 BYTE   Ds1
 BYTE   W12
 BYTE   PEND 
// 046   ----------------------------------------
Label_7_014774C8:
 BYTE   N24  Cs1  v096
 BYTE   W24
 BYTE   N12  Gs1
 BYTE   W12
 BYTE   N24  Cs2
 BYTE   W24
 BYTE   N12  Gs1
 BYTE   W12
 BYTE   Fn1
 BYTE   W24
 BYTE   PEND 
// 047   ----------------------------------------
Label_7_014774D8:
 BYTE   N24  Cs1  v096
 BYTE   W24
 BYTE   N12  Gs1
 BYTE   W12
 BYTE   N24  Cs2
 BYTE   W24
 BYTE   N12  Gs1
 BYTE   W12
 BYTE   Cs2
 BYTE   W12
 BYTE   Cs1
 BYTE   W12
 BYTE   PEND 
// 048   ----------------------------------------
 BYTE   PATT
  POIN2 Label_7_0147741E
// 049   ----------------------------------------
 BYTE   PATT
  POIN2 Label_7_0147741E
// 050   ----------------------------------------
 BYTE   PATT
  POIN2 Label_7_0147741E
// 051   ----------------------------------------
 BYTE   PATT
  POIN2 Label_7_01477430
// 052   ----------------------------------------
 BYTE   PATT
  POIN2 Label_7_01477440
// 053   ----------------------------------------
 BYTE   PATT
  POIN2 Label_7_01477452
// 054   ----------------------------------------
 BYTE   PATT
  POIN2 Label_7_01477462
// 055   ----------------------------------------
 BYTE   PATT
  POIN2 Label_7_01477472
// 056   ----------------------------------------
 BYTE   PATT
  POIN2 Label_7_0147741E
// 057   ----------------------------------------
 BYTE   PATT
  POIN2 Label_7_01477489
// 058   ----------------------------------------
 BYTE   PATT
  POIN2 Label_7_0147741E
// 059   ----------------------------------------
 BYTE   PATT
  POIN2 Label_7_01477430
// 060   ----------------------------------------
 BYTE   PATT
  POIN2 Label_7_014774A6
// 061   ----------------------------------------
 BYTE   PATT
  POIN2 Label_7_014774B8
// 062   ----------------------------------------
 BYTE   PATT
  POIN2 Label_7_014774C8
// 063   ----------------------------------------
 BYTE   PATT
  POIN2 Label_7_014774D8
// 064   ----------------------------------------
 BYTE   PATT
  POIN2 Label_7_0147741E
// 065   ----------------------------------------
 BYTE   PATT
  POIN2 Label_7_0147741E
// 066   ----------------------------------------
 BYTE   N96  En1  v096
 BYTE   W96
// 067   ----------------------------------------
 BYTE   N96
 BYTE   W96
// 068   ----------------------------------------
 BYTE   GoTo
  POIN2 Label_7_014772C6
 BYTE   FINE

//**************** Track 9 (Midi-Chn.8) ****************//

SilverWillMoment_009:
// 000   ----------------------------------------
 BYTE   KEYSH   SilverWillMoment_key+0
Label_8_01477552:
 BYTE   VOICE   0
 BYTE   VOL   24*SilverWillMoment_mvl/mxv
 BYTE   PAN   c_v+32
 BYTE   BEND   c_v+0
 BYTE   W96
// 001   ----------------------------------------
 BYTE   W96
// 002   ----------------------------------------
Label_8_0147755C:
 BYTE   N09  Cs3  v096
 BYTE   W12
 BYTE   Gs3
 BYTE   W12
 BYTE   Cs3
 BYTE   W12
 BYTE   N09
 BYTE   W12
 BYTE   N09
 BYTE   W12
 BYTE   Gs3
 BYTE   W12
 BYTE   Cs3
 BYTE   W12
 BYTE   Gs3
 BYTE   W12
 BYTE   PEND 
// 003   ----------------------------------------
Label_8_0147756F:
 BYTE   N09  Gs3  v096
 BYTE   W12
 BYTE   N09
 BYTE   W12
 BYTE   N09
 BYTE   W12
 BYTE   Cs3
 BYTE   W12
 BYTE   N09
 BYTE   W12
 BYTE   Gs3
 BYTE   W12
 BYTE   Cs3
 BYTE   W12
 BYTE   N09
 BYTE   W12
 BYTE   PEND 
// 004   ----------------------------------------
 BYTE   PATT
  POIN2 Label_8_0147755C
// 005   ----------------------------------------
 BYTE   PATT
  POIN2 Label_8_0147756F
// 006   ----------------------------------------
 BYTE   PATT
  POIN2 Label_8_0147755C
// 007   ----------------------------------------
 BYTE   PATT
  POIN2 Label_8_0147756F
// 008   ----------------------------------------
 BYTE   PATT
  POIN2 Label_8_0147755C
// 009   ----------------------------------------
 BYTE   N09  Cs3  v096
 BYTE   N09  Gs3  v080
 BYTE   W12
 BYTE   Gs3  v096
 BYTE   N09  Cs4  v064
 BYTE   W12
 BYTE   Ds3  v096
 BYTE   N09  Gs3  v080
 BYTE   W12
 BYTE   Cs3  v096
 BYTE   N09  Gs3  v080
 BYTE   W12
 BYTE   Cs3  v096
 BYTE   N09  Gs3  v080
 BYTE   W12
 BYTE   Gs3  v096
 BYTE   N09  Cs4  v064
 BYTE   W12
 BYTE   Ds3  v096
 BYTE   N09  Gs3  v080
 BYTE   W12
 BYTE   Cs3  v096
 BYTE   N09  Gs3  v080
 BYTE   W12
// 010   ----------------------------------------
Label_8_014775CC:
 BYTE   N09  Gs3  v080
 BYTE   N09  Cs4
 BYTE   W12
 BYTE   Gs3
 BYTE   W12
 BYTE   N09
 BYTE   N09  Cs4
 BYTE   W12
 BYTE   Gs3
 BYTE   N09  Cs4
 BYTE   W12
 BYTE   Cs3
 BYTE   N09  Gs3
 BYTE   W12
 BYTE   Cs3
 BYTE   N09  Gs3
 BYTE   W12
 BYTE   Cs3
 BYTE   N09  Gs3
 BYTE   W12
 BYTE   Cs3
 BYTE   N09  Gs3
 BYTE   W12
 BYTE   PEND 
// 011   ----------------------------------------
 BYTE   PATT
  POIN2 Label_8_014775CC
// 012   ----------------------------------------
Label_8_014775F2:
 BYTE   N09  Gs3  v080
 BYTE   N09  Cs4
 BYTE   W12
 BYTE   Gs3
 BYTE   N09  Cs4
 BYTE   W12
 BYTE   Gs3
 BYTE   N09  Cs4
 BYTE   W12
 BYTE   Fs3
 BYTE   N09  Bn3
 BYTE   W12
 BYTE   Fs3
 BYTE   N09  Bn3
 BYTE   W12
 BYTE   Fs3
 BYTE   N09  Bn3
 BYTE   W12
 BYTE   Fs3
 BYTE   N09  Bn3
 BYTE   W12
 BYTE   Ds3
 BYTE   N09  Gs3
 BYTE   W12
 BYTE   PEND 
// 013   ----------------------------------------
Label_8_01477615:
 BYTE   N09  Ds3  v080
 BYTE   N09  Gs3
 BYTE   W12
 BYTE   Ds3
 BYTE   N09  Gs3
 BYTE   W12
 BYTE   Ds3
 BYTE   N09  Gs3
 BYTE   W12
 BYTE   Ds3
 BYTE   N09  Gs3
 BYTE   W12
 BYTE   Ds3
 BYTE   N09  Gs3
 BYTE   W12
 BYTE   Ds3
 BYTE   N09  Gs3
 BYTE   W12
 BYTE   Ds3
 BYTE   N09  Gs3
 BYTE   W12
 BYTE   Ds3
 BYTE   N09  Gs3
 BYTE   W12
 BYTE   PEND 
// 014   ----------------------------------------
Label_8_01477638:
 BYTE   N09  Cs4  v080
 BYTE   N09  Fs4
 BYTE   W12
 BYTE   Cs4
 BYTE   N09  Fs4
 BYTE   W12
 BYTE   Cs4
 BYTE   N09  Fs4
 BYTE   W12
 BYTE   Cs4
 BYTE   N09  Fs4
 BYTE   W12
 BYTE   Cs4
 BYTE   N09  Ds4  v096
 BYTE   W12
 BYTE   Cs4  v080
 BYTE   N09  Ds4
 BYTE   W12
 BYTE   Cs4
 BYTE   N09  Ds4
 BYTE   W12
 BYTE   Cs4  v096
 BYTE   N09  Ds4  v080
 BYTE   W12
 BYTE   PEND 
// 015   ----------------------------------------
Label_8_0147765F:
 BYTE   N09  Fs3  v096
 BYTE   N09  An3
 BYTE   W12
 BYTE   Fs3
 BYTE   N09  An3
 BYTE   W12
 BYTE   Fs3
 BYTE   N09  An3
 BYTE   W12
 BYTE   Fs3
 BYTE   N09  An3
 BYTE   W12
 BYTE   Fs3
 BYTE   N09  Bn3
 BYTE   W12
 BYTE   Fs3
 BYTE   N09  Bn3
 BYTE   W12
 BYTE   Fs3
 BYTE   N09  Bn3
 BYTE   W12
 BYTE   Fs3
 BYTE   N09  Bn3
 BYTE   W12
 BYTE   PEND 
// 016   ----------------------------------------
Label_8_01477682:
 BYTE   N09  Cs3  v096
 BYTE   N09  Gs3
 BYTE   W12
 BYTE   N09
 BYTE   N09  Cs4
 BYTE   W12
 BYTE   Cs3
 BYTE   N09  Gs3
 BYTE   W12
 BYTE   N09
 BYTE   N09  Cs4
 BYTE   W12
 BYTE   Cs3
 BYTE   N09  Gs3
 BYTE   W12
 BYTE   N09
 BYTE   N09  Cs4
 BYTE   W12
 BYTE   Cs3
 BYTE   N09  Gs3
 BYTE   W12
 BYTE   N09
 BYTE   N09  Cs4
 BYTE   W12
 BYTE   PEND 
// 017   ----------------------------------------
 BYTE   Gs3
 BYTE   N09  Fs4
 BYTE   W12
 BYTE   Gs3
 BYTE   N09  Cs4
 BYTE   N09  Fs4
 BYTE   W12
 BYTE   Gs3
 BYTE   N09  Cs4
 BYTE   N09  Fs4  v112
 BYTE   W12
 BYTE   Gs3  v096
 BYTE   N09  Cn4
 BYTE   W12
 BYTE   Gs3
 BYTE   N09  Cn4
 BYTE   W12
 BYTE   Gs3
 BYTE   N09  Cn4
 BYTE   W12
 BYTE   Gs3
 BYTE   N09  Cn4
 BYTE   W12
 BYTE   Gs3
 BYTE   N09  Cn4
 BYTE   W12
// 018   ----------------------------------------
 BYTE   PATT
  POIN2 Label_8_014775CC
// 019   ----------------------------------------
 BYTE   PATT
  POIN2 Label_8_014775CC
// 020   ----------------------------------------
 BYTE   PATT
  POIN2 Label_8_014775F2
// 021   ----------------------------------------
 BYTE   PATT
  POIN2 Label_8_01477615
// 022   ----------------------------------------
 BYTE   PATT
  POIN2 Label_8_01477638
// 023   ----------------------------------------
 BYTE   PATT
  POIN2 Label_8_0147765F
// 024   ----------------------------------------
 BYTE   PATT
  POIN2 Label_8_01477682
// 025   ----------------------------------------
 BYTE   N09  Gs3  v096
 BYTE   N09  Cs4
 BYTE   W12
 BYTE   Gs3
 BYTE   N09  Cs4
 BYTE   W12
 BYTE   Gs3
 BYTE   N09  Cs4
 BYTE   W12
 BYTE   Gs2
 BYTE   N09  Cs3
 BYTE   W12
 BYTE   Gs2
 BYTE   N09  Cs3
 BYTE   W12
 BYTE   Gs2
 BYTE   N09  Cs3
 BYTE   W12
 BYTE   Gs2
 BYTE   N09  Cs3
 BYTE   W12
 BYTE   Gs2
 BYTE   N09  Cs3
 BYTE   W12
// 026   ----------------------------------------
 BYTE   En3
 BYTE   N09  Bn3
 BYTE   W12
 BYTE   En3
 BYTE   N09  Bn3
 BYTE   W12
 BYTE   En3
 BYTE   N09  Bn3
 BYTE   W12
 BYTE   En3
 BYTE   N09  Bn3
 BYTE   W60
// 027   ----------------------------------------
Label_8_01477720:
 BYTE   N09  Cs3  v096
 BYTE   N09  Gs3
 BYTE   W12
 BYTE   Cs3
 BYTE   N09  Gs3
 BYTE   W12
 BYTE   Cs3
 BYTE   N09  Gs3
 BYTE   W12
 BYTE   Cs3
 BYTE   N09  Gs3
 BYTE   W60
 BYTE   PEND 
// 028   ----------------------------------------
 BYTE   Fs3
 BYTE   N09  Bn3
 BYTE   W12
 BYTE   Fs3
 BYTE   N09  Bn3
 BYTE   W12
 BYTE   Fs3
 BYTE   N09  Bn3
 BYTE   W12
 BYTE   Fs3
 BYTE   N09  Bn3
 BYTE   W60
// 029   ----------------------------------------
 BYTE   PATT
  POIN2 Label_8_01477720
// 030   ----------------------------------------
 BYTE   N09  Cs4  v096
 BYTE   N09  Gs4
 BYTE   W12
 BYTE   Cs4
 BYTE   N09  Gs4
 BYTE   W12
 BYTE   Cs4
 BYTE   N09  Gs4
 BYTE   W12
 BYTE   Cs4
 BYTE   N09  Gs4
 BYTE   W60
// 031   ----------------------------------------
 BYTE   As3
 BYTE   N09  Ds4
 BYTE   W12
 BYTE   As3
 BYTE   N09  Ds4
 BYTE   W12
 BYTE   As3
 BYTE   N09  Ds4
 BYTE   W12
 BYTE   As3
 BYTE   N09  Ds4
 BYTE   W60
// 032   ----------------------------------------
 BYTE   Gs3
 BYTE   N09  Cs4
 BYTE   W12
 BYTE   Gs3
 BYTE   N09  Cs4
 BYTE   W12
 BYTE   Gs3
 BYTE   N09  Cs4
 BYTE   W12
 BYTE   Gs3
 BYTE   N09  Cs4
 BYTE   W12
 BYTE   Gs3
 BYTE   N09  Cs4
 BYTE   W12
 BYTE   Gs3
 BYTE   N09  Cs4
 BYTE   W12
 BYTE   Gs3
 BYTE   N09  Cs4
 BYTE   W12
 BYTE   Gs3
 BYTE   N09  Cs4
 BYTE   W12
// 033   ----------------------------------------
 BYTE   As3
 BYTE   N09  Ds4
 BYTE   W12
 BYTE   As3
 BYTE   N09  Ds4
 BYTE   W12
 BYTE   As3
 BYTE   N09  Ds4
 BYTE   W12
 BYTE   As3
 BYTE   N09  Ds4
 BYTE   W12
 BYTE   As3
 BYTE   N09  Ds4
 BYTE   W12
 BYTE   As3
 BYTE   N09  Ds4
 BYTE   W12
 BYTE   As3
 BYTE   N09  Ds4
 BYTE   W12
 BYTE   As3
 BYTE   N09  Ds4
 BYTE   W12
// 034   ----------------------------------------
 BYTE   VOL   28*SilverWillMoment_mvl/mxv
 BYTE   N19  Fn3  v080
 BYTE   N19  As3
 BYTE   W24
 BYTE   N09  Fn3
 BYTE   N09  As3
 BYTE   W12
 BYTE   N19  Fn3
 BYTE   N19  As3
 BYTE   W24
 BYTE   N09  Fn3
 BYTE   N09  As3
 BYTE   W12
 BYTE   Fn3
 BYTE   N09  As3
 BYTE   W12
 BYTE   Fn3
 BYTE   N09  As3
 BYTE   W12
// 035   ----------------------------------------
Label_8_014777C9:
 BYTE   N09  Fn3  v080
 BYTE   N09  As3
 BYTE   W12
 BYTE   Fn3
 BYTE   N09  As3
 BYTE   W12
 BYTE   Fn3
 BYTE   N09  As3
 BYTE   W12
 BYTE   Fn3
 BYTE   N09  As3
 BYTE   W12
 BYTE   Fn3
 BYTE   N09  As3
 BYTE   W12
 BYTE   Fn3
 BYTE   N09  As3
 BYTE   W12
 BYTE   Fn3
 BYTE   N09  As3
 BYTE   W12
 BYTE   Fn3
 BYTE   N09  As3
 BYTE   W12
 BYTE   PEND 
// 036   ----------------------------------------
Label_8_014777EC:
 BYTE   N19  Fn3  v080
 BYTE   N19  As3
 BYTE   W24
 BYTE   N09  Fn3
 BYTE   N09  As3
 BYTE   W12
 BYTE   N19  Fn3
 BYTE   N19  As3
 BYTE   W24
 BYTE   N09  Fn3
 BYTE   N09  As3
 BYTE   W12
 BYTE   Fn3
 BYTE   N09  As3
 BYTE   W12
 BYTE   Fn3
 BYTE   N09  As3
 BYTE   W12
 BYTE   PEND 
// 037   ----------------------------------------
 BYTE   PATT
  POIN2 Label_8_014777EC
// 038   ----------------------------------------
Label_8_0147780F:
 BYTE   N09  Fn3  v080
 BYTE   N09  As3
 BYTE   W12
 BYTE   Fn3
 BYTE   N09  As3
 BYTE   W12
 BYTE   Fn3
 BYTE   N09  As3
 BYTE   W12
 BYTE   Ds3
 BYTE   N09  Gs3
 BYTE   W12
 BYTE   Ds3
 BYTE   N09  Gs3
 BYTE   W12
 BYTE   Ds3
 BYTE   N09  Gs3
 BYTE   W12
 BYTE   Ds3
 BYTE   N09  Gs3
 BYTE   W12
 BYTE   Ds3
 BYTE   N09  Gs3
 BYTE   W12
 BYTE   PEND 
// 039   ----------------------------------------
Label_8_01477832:
 BYTE   N09  Fn3  v080
 BYTE   N09  As3
 BYTE   W12
 BYTE   Fn3
 BYTE   N09  As3
 BYTE   W12
 BYTE   Fn3
 BYTE   N09  As3
 BYTE   W12
 BYTE   Fn3
 BYTE   N09  As3
 BYTE   W12
 BYTE   Cs3
 BYTE   N09  Gs3
 BYTE   W12
 BYTE   Cs3
 BYTE   N09  Gs3
 BYTE   W12
 BYTE   Cs3
 BYTE   N09  Gs3
 BYTE   W12
 BYTE   Cs3
 BYTE   N09  Gs3
 BYTE   W12
 BYTE   PEND 
// 040   ----------------------------------------
Label_8_01477855:
 BYTE   N09  Ds3  v080
 BYTE   N09  As3
 BYTE   W12
 BYTE   Ds3
 BYTE   N09  As3
 BYTE   W12
 BYTE   Ds3
 BYTE   N09  As3
 BYTE   W12
 BYTE   Ds3
 BYTE   N09  Gs3
 BYTE   W12
 BYTE   Ds3
 BYTE   N09  Gs3
 BYTE   W12
 BYTE   Ds3
 BYTE   N09  Gs3
 BYTE   W12
 BYTE   Ds3
 BYTE   N09  Gs3
 BYTE   W12
 BYTE   Ds3
 BYTE   N09  Fs3
 BYTE   W12
 BYTE   PEND 
// 041   ----------------------------------------
 BYTE   Gs3  v096
 BYTE   N09  Cn4
 BYTE   W12
 BYTE   Gs3
 BYTE   N09  Cn4
 BYTE   W12
 BYTE   Gs3
 BYTE   N09  Cn4
 BYTE   W12
 BYTE   Gs3
 BYTE   N09  Cn4
 BYTE   W12
 BYTE   As3
 BYTE   N09  Dn4
 BYTE   W12
 BYTE   As3
 BYTE   N09  Dn4
 BYTE   W12
 BYTE   As3
 BYTE   N09  Dn4
 BYTE   W12
 BYTE   As3
 BYTE   N09  Dn4
 BYTE   W12
// 042   ----------------------------------------
 BYTE   PATT
  POIN2 Label_8_014777EC
// 043   ----------------------------------------
 BYTE   PATT
  POIN2 Label_8_014777C9
// 044   ----------------------------------------
 BYTE   N09  Fn3  v080
 BYTE   N09  As3
 BYTE   W12
 BYTE   Fn3
 BYTE   N09  As3
 BYTE   W12
 BYTE   Fn3
 BYTE   N09  As3
 BYTE   W12
 BYTE   Fn3
 BYTE   N09  As3
 BYTE   W12
 BYTE   Fn3
 BYTE   N09  As3
 BYTE   W12
 BYTE   Fn3
 BYTE   N09  As3
 BYTE   W12
 BYTE   As3  v096
 BYTE   N09  Ds4
 BYTE   W12
 BYTE   As3  v080
 BYTE   N09  Ds4  v096
 BYTE   W12
// 045   ----------------------------------------
 BYTE   Fn3  v080
 BYTE   N09  As3
 BYTE   W12
 BYTE   Fn3
 BYTE   N09  As3
 BYTE   W12
 BYTE   N09
 BYTE   N09  Ds4  v096
 BYTE   W12
 BYTE   As3  v080
 BYTE   N09  Ds4  v096
 BYTE   W12
 BYTE   Fn3  v080
 BYTE   N09  As3
 BYTE   W12
 BYTE   Fn3
 BYTE   N09  As3
 BYTE   W12
 BYTE   Fn3
 BYTE   N09  As3
 BYTE   W12
 BYTE   Fn3
 BYTE   N09  As3
 BYTE   W12
// 046   ----------------------------------------
Label_8_014778ED:
 BYTE   N09  Fn3  v080
 BYTE   N09  Gs3
 BYTE   W12
 BYTE   Fn3
 BYTE   N09  Gs3
 BYTE   W12
 BYTE   Fn3
 BYTE   N09  Gs3
 BYTE   W12
 BYTE   Fn3
 BYTE   N09  Gs3
 BYTE   W12
 BYTE   Fn3
 BYTE   N09  Gs3
 BYTE   W12
 BYTE   Fn3
 BYTE   N09  Gs3
 BYTE   W12
 BYTE   N09
 BYTE   N09  Cs4
 BYTE   W12
 BYTE   Gs3
 BYTE   N09  Cs4
 BYTE   W12
 BYTE   PEND 
// 047   ----------------------------------------
Label_8_01477910:
 BYTE   N09  Fn3  v080
 BYTE   N09  Gs3
 BYTE   W12
 BYTE   Fn3
 BYTE   N09  Gs3
 BYTE   W12
 BYTE   N09
 BYTE   N09  Cs4
 BYTE   W12
 BYTE   Gs3
 BYTE   N09  Cs4
 BYTE   W12
 BYTE   Fn3
 BYTE   N09  Gs3
 BYTE   W12
 BYTE   Fn3
 BYTE   N09  Gs3
 BYTE   W12
 BYTE   N09
 BYTE   N09  Cs4
 BYTE   W12
 BYTE   Gs3
 BYTE   N09  Cs4
 BYTE   W12
 BYTE   PEND 
// 048   ----------------------------------------
Label_8_01477933:
 BYTE   N09  As3  v080
 BYTE   N09  Ds4
 BYTE   W12
 BYTE   As3
 BYTE   N09  Ds4
 BYTE   W12
 BYTE   As3
 BYTE   W12
 BYTE   Fn3
 BYTE   N09  As3
 BYTE   W12
 BYTE   Ds3
 BYTE   N09  As3
 BYTE   W12
 BYTE   Ds3
 BYTE   N09  As3
 BYTE   W12
 BYTE   Ds3
 BYTE   N09  As3
 BYTE   W12
 BYTE   Ds3
 BYTE   N09  As3
 BYTE   W12
 BYTE   PEND 
// 049   ----------------------------------------
Label_8_01477954:
 BYTE   N09  Ds3  v080
 BYTE   N09  Fn3
 BYTE   W12
 BYTE   Ds3
 BYTE   N09  Fn3
 BYTE   W12
 BYTE   Ds3
 BYTE   N09  Fn3
 BYTE   W12
 BYTE   As2
 BYTE   N09  Ds3
 BYTE   W12
 BYTE   As2
 BYTE   N09  Ds3
 BYTE   W12
 BYTE   As2
 BYTE   N09  Ds3
 BYTE   W12
 BYTE   As2
 BYTE   N09  Ds3
 BYTE   W12
 BYTE   As2
 BYTE   N09  Ds3
 BYTE   W12
 BYTE   PEND 
// 050   ----------------------------------------
 BYTE   PATT
  POIN2 Label_8_014777EC
// 051   ----------------------------------------
 BYTE   PATT
  POIN2 Label_8_014777C9
// 052   ----------------------------------------
 BYTE   PATT
  POIN2 Label_8_014777EC
// 053   ----------------------------------------
 BYTE   PATT
  POIN2 Label_8_014777EC
// 054   ----------------------------------------
 BYTE   PATT
  POIN2 Label_8_0147780F
// 055   ----------------------------------------
 BYTE   PATT
  POIN2 Label_8_01477832
// 056   ----------------------------------------
 BYTE   PATT
  POIN2 Label_8_01477855
// 057   ----------------------------------------
 BYTE   N09  Gs3  v080
 BYTE   N09  Cn4
 BYTE   W12
 BYTE   Gs3
 BYTE   N09  Cn4
 BYTE   W12
 BYTE   Gs3
 BYTE   N09  Cn4
 BYTE   W12
 BYTE   Gs3
 BYTE   N09  Cn4
 BYTE   W12
 BYTE   As3
 BYTE   N09  Dn4
 BYTE   W12
 BYTE   As3
 BYTE   N09  Dn4
 BYTE   W12
 BYTE   As3
 BYTE   N09  Dn4
 BYTE   W12
 BYTE   As3
 BYTE   N09  Dn4
 BYTE   W12
// 058   ----------------------------------------
 BYTE   PATT
  POIN2 Label_8_014777EC
// 059   ----------------------------------------
 BYTE   PATT
  POIN2 Label_8_014777C9
// 060   ----------------------------------------
 BYTE   N09  Fn3  v080
 BYTE   N09  As3
 BYTE   W12
 BYTE   Fn3
 BYTE   N09  As3
 BYTE   W12
 BYTE   Fn3
 BYTE   N09  As3
 BYTE   W12
 BYTE   Fn3
 BYTE   N09  As3
 BYTE   W12
 BYTE   Fn3
 BYTE   N09  As3
 BYTE   W12
 BYTE   Fn3
 BYTE   N09  As3
 BYTE   W12
 BYTE   N09
 BYTE   N09  Ds4
 BYTE   W12
 BYTE   As3
 BYTE   N09  Ds4
 BYTE   W12
// 061   ----------------------------------------
 BYTE   Fn3
 BYTE   N09  As3
 BYTE   W12
 BYTE   Fn3
 BYTE   N09  As3
 BYTE   W12
 BYTE   N09
 BYTE   N09  Ds4
 BYTE   W12
 BYTE   As3
 BYTE   N09  Ds4
 BYTE   W12
 BYTE   Fn3
 BYTE   N09  As3
 BYTE   W12
 BYTE   Fn3
 BYTE   N09  As3
 BYTE   W12
 BYTE   Fn3
 BYTE   N09  As3
 BYTE   W12
 BYTE   Fn3
 BYTE   N09  As3
 BYTE   W12
// 062   ----------------------------------------
 BYTE   PATT
  POIN2 Label_8_014778ED
// 063   ----------------------------------------
 BYTE   PATT
  POIN2 Label_8_01477910
// 064   ----------------------------------------
 BYTE   PATT
  POIN2 Label_8_01477933
// 065   ----------------------------------------
 BYTE   PATT
  POIN2 Label_8_01477954
// 066   ----------------------------------------
 BYTE   VOL   24*SilverWillMoment_mvl/mxv
 BYTE   N09  Fn3  v080
 BYTE   N09  As3
 BYTE   W12
 BYTE   Fn3
 BYTE   N09  As3
 BYTE   W12
 BYTE   Fn3
 BYTE   N09  As3
 BYTE   W12
 BYTE   N12  Cs3  v096
 BYTE   N12  Ds3  v080
 BYTE   N09  Gs3
 BYTE   W12
 BYTE   N12  Cs3
 BYTE   N09  Ds3
 BYTE   N09  Gs3
 BYTE   W12
 BYTE   N12  Cs3
 BYTE   N09  Ds3
 BYTE   N09  Gs3
 BYTE   W12
 BYTE   N12  Cs3
 BYTE   N09  Ds3
 BYTE   N09  Gs3
 BYTE   W12
 BYTE   N12  Cs3  v096
 BYTE   N09  Ds3  v080
 BYTE   N09  Gs3
 BYTE   W12
// 067   ----------------------------------------
 BYTE   Fn3
 BYTE   N09  As3
 BYTE   W12
 BYTE   Fn3
 BYTE   N09  As3
 BYTE   W12
 BYTE   Fn3
 BYTE   N09  As3
 BYTE   W12
 BYTE   N12  Cs3  v096
 BYTE   N09  Ds3  v080
 BYTE   N09  Gs3
 BYTE   W12
 BYTE   N12  Cs3  v096
 BYTE   N09  Ds3  v080
 BYTE   N09  Gs3
 BYTE   W12
 BYTE   N12  Cs3  v096
 BYTE   N09  Ds3  v080
 BYTE   N09  Gs3
 BYTE   W12
 BYTE   N12  Cs3  v096
 BYTE   N09  Ds3  v080
 BYTE   N09  Gs3
 BYTE   W12
 BYTE   N12  Cs3  v096
 BYTE   N09  Ds3  v080
 BYTE   N09  Gs3
 BYTE   W12
// 068   ----------------------------------------
 BYTE   GoTo
  POIN2 Label_8_01477552
 BYTE   FINE

//**************** Track 10 (Midi-Chn.9) ****************//

SilverWillMoment_010:
// 000   ----------------------------------------
 BYTE   KEYSH   SilverWillMoment_key+0
Label_9_01477A94:
 BYTE   VOICE   124
 BYTE   VOL   24*SilverWillMoment_mvl/mxv
 BYTE   PAN   c_v+0
 BYTE   BEND   c_v+0
 BYTE   N05  Fs2  v064
 BYTE   W18
 BYTE   Fs2  v032
 BYTE   W06
 BYTE   Fs2  v064
 BYTE   W06
 BYTE   Fs2  v032
 BYTE   W06
 BYTE   Fs2  v064
 BYTE   W06
 BYTE   Fs2  v032
 BYTE   W06
 BYTE   Fs2  v080
 BYTE   W06
 BYTE   Fs2  v032
 BYTE   W12
 BYTE   N05
 BYTE   W06
 BYTE   Fs2  v080
 BYTE   W06
 BYTE   Fs2  v032
 BYTE   W06
 BYTE   Fs2  v080
 BYTE   W06
 BYTE   Fs2  v032
 BYTE   W06
// 001   ----------------------------------------
 BYTE   Fs2  v080
 BYTE   W06
 BYTE   Fs2  v032
 BYTE   W06
 BYTE   Fs2  v080
 BYTE   W06
 BYTE   Fs2  v032
 BYTE   W06
 BYTE   Fs2  v080
 BYTE   W06
 BYTE   Fs2  v032
 BYTE   W06
 BYTE   Fs2  v080
 BYTE   W06
 BYTE   Fs2  v032
 BYTE   W06
 BYTE   Dn1  v096
 BYTE   N05  En1
 BYTE   N05  Fs2  v080
 BYTE   W12
 BYTE   Dn1  v096
 BYTE   N05  En1
 BYTE   W12
 BYTE   Fs2  v080
 BYTE   W06
 BYTE   Dn1  v096
 BYTE   N05  En1
 BYTE   W06
 BYTE   Dn1
 BYTE   N05  En1
 BYTE   W12
// 002   ----------------------------------------
Label_9_01477AF4:
 BYTE   N05  Cn1  v080
 BYTE   N05  Fs2  v096
 BYTE   W06
 BYTE   N05
 BYTE   W06
 BYTE   N05
 BYTE   W06
 BYTE   N05
 BYTE   W06
 BYTE   Dn1
 BYTE   N05  En1
 BYTE   N05  Fs1
 BYTE   W06
 BYTE   N05
 BYTE   W06
 BYTE   N05
 BYTE   W06
 BYTE   N05
 BYTE   W06
 BYTE   Cn1  v080
 BYTE   N05  Fs2  v096
 BYTE   W06
 BYTE   N05
 BYTE   W06
 BYTE   N05
 BYTE   W06
 BYTE   N05
 BYTE   W06
 BYTE   Dn1  v080
 BYTE   N05  En1
 BYTE   N05  Fs1  v096
 BYTE   W06
 BYTE   N05
 BYTE   W06
 BYTE   N05
 BYTE   W06
 BYTE   N05
 BYTE   W06
 BYTE   PEND 
// 003   ----------------------------------------
Label_9_01477B28:
 BYTE   N05  Fs2  v096
 BYTE   W06
 BYTE   N05
 BYTE   W06
 BYTE   N05
 BYTE   W06
 BYTE   N05
 BYTE   W06
 BYTE   Dn1
 BYTE   N05  En1  v127
 BYTE   N05  Fs1  v096
 BYTE   W06
 BYTE   N05
 BYTE   W06
 BYTE   N05
 BYTE   W06
 BYTE   N05
 BYTE   W06
 BYTE   Cn1  v080
 BYTE   N05  Fs2  v096
 BYTE   W06
 BYTE   N05
 BYTE   W06
 BYTE   N05
 BYTE   W06
 BYTE   N05
 BYTE   W06
 BYTE   Dn1
 BYTE   N05  En1
 BYTE   N05  Fs1  v080
 BYTE   W06
 BYTE   Fs1  v096
 BYTE   W06
 BYTE   N05
 BYTE   W06
 BYTE   N05
 BYTE   W06
 BYTE   PEND 
// 004   ----------------------------------------
 BYTE   PATT
  POIN2 Label_9_01477AF4
// 005   ----------------------------------------
 BYTE   PATT
  POIN2 Label_9_01477B28
// 006   ----------------------------------------
 BYTE   PATT
  POIN2 Label_9_01477AF4
// 007   ----------------------------------------
 BYTE   PATT
  POIN2 Label_9_01477B28
// 008   ----------------------------------------
 BYTE   N05  Cn1  v080
 BYTE   N05  Fs2  v096
 BYTE   W06
 BYTE   N05
 BYTE   W06
 BYTE   N05
 BYTE   W06
 BYTE   N05
 BYTE   W06
 BYTE   Dn1
 BYTE   N05  En1
 BYTE   N05  Fs1
 BYTE   W06
 BYTE   N05
 BYTE   W06
 BYTE   N05
 BYTE   W06
 BYTE   N05
 BYTE   W06
 BYTE   Cn1  v080
 BYTE   N05  Fs2  v096
 BYTE   W06
 BYTE   N05
 BYTE   W06
 BYTE   N05
 BYTE   W06
 BYTE   N05
 BYTE   W06
 BYTE   Dn1  v080
 BYTE   N05  En1
 BYTE   N05  Fs1  v096
 BYTE   W06
 BYTE   Cn1  v064
 BYTE   N05  Fs1  v096
 BYTE   W06
 BYTE   Dn1  v080
 BYTE   N05  En1
 BYTE   N05  Fs1  v096
 BYTE   W06
 BYTE   Dn1  v080
 BYTE   N05  En1
 BYTE   N05  Fs1  v096
 BYTE   W06
// 009   ----------------------------------------
 BYTE   Cn1
 BYTE   N05  En1
 BYTE   N05  Fs1
 BYTE   N05  Fs2
 BYTE   W12
 BYTE   Dn1  v064
 BYTE   N05  En1
 BYTE   W12
 BYTE   Cn1  v096
 BYTE   N05  En1  v064
 BYTE   N05  Fs1  v096
 BYTE   N05  Fs2
 BYTE   W12
 BYTE   Dn1  v064
 BYTE   N05  En1  v096
 BYTE   W12
 BYTE   Cn1  v064
 BYTE   N05  En1
 BYTE   N05  Fs1  v096
 BYTE   N05  Fs2
 BYTE   W06
 BYTE   Dn1  v064
 BYTE   N05  En1
 BYTE   W06
 BYTE   Cn1  v096
 BYTE   N05  En1  v064
 BYTE   W12
 BYTE   N06  Cn1  v096
 BYTE   N06  Dn1
 BYTE   N10  Fs1
 BYTE   N10  Fs2
 BYTE   W12
 BYTE   N05  Dn1  v064
 BYTE   N05  En1
 BYTE   W12
// 010   ----------------------------------------
Label_9_01477BF5:
 BYTE   N05  Cn1  v080
 BYTE   N05  Fs1  v096
 BYTE   W12
 BYTE   Fs2
 BYTE   W06
 BYTE   N05
 BYTE   W06
 BYTE   Dn1
 BYTE   N05  En1
 BYTE   N05  Fs2
 BYTE   W06
 BYTE   N05
 BYTE   W06
 BYTE   N05
 BYTE   W12
 BYTE   Cn1  v080
 BYTE   N05  Fs1  v096
 BYTE   W12
 BYTE   Fs2
 BYTE   W06
 BYTE   N05
 BYTE   W06
 BYTE   Dn1  v080
 BYTE   N05  En1
 BYTE   N05  Fs2  v096
 BYTE   W06
 BYTE   N05
 BYTE   W06
 BYTE   N05
 BYTE   W12
 BYTE   PEND 
// 011   ----------------------------------------
 BYTE   PATT
  POIN2 Label_9_01477BF5
// 012   ----------------------------------------
 BYTE   PATT
  POIN2 Label_9_01477BF5
// 013   ----------------------------------------
Label_9_01477C2B:
 BYTE   N05  Cn1  v080
 BYTE   N05  Fs1  v096
 BYTE   W12
 BYTE   Fs2
 BYTE   W06
 BYTE   N05
 BYTE   W06
 BYTE   Dn1
 BYTE   N05  En1
 BYTE   N05  Fs2
 BYTE   W06
 BYTE   N05
 BYTE   W06
 BYTE   N05
 BYTE   W12
 BYTE   Cn1  v080
 BYTE   N05  Fs1  v096
 BYTE   W06
 BYTE   Dn1
 BYTE   N05  En1
 BYTE   W06
 BYTE   Cn1
 BYTE   N05  Fs2
 BYTE   W06
 BYTE   N05
 BYTE   W06
 BYTE   N05
 BYTE   W06
 BYTE   N05
 BYTE   W06
 BYTE   Dn1
 BYTE   N05  En1
 BYTE   N05  Fs2
 BYTE   W12
 BYTE   PEND 
// 014   ----------------------------------------
 BYTE   PATT
  POIN2 Label_9_01477BF5
// 015   ----------------------------------------
 BYTE   PATT
  POIN2 Label_9_01477BF5
// 016   ----------------------------------------
Label_9_01477C65:
 BYTE   N05  Cn1  v080
 BYTE   N05  Fs1  v096
 BYTE   W12
 BYTE   Fs2
 BYTE   W06
 BYTE   N05
 BYTE   W06
 BYTE   Dn1
 BYTE   N05  En1
 BYTE   N05  Fs2
 BYTE   W06
 BYTE   N05
 BYTE   W06
 BYTE   N05
 BYTE   W12
 BYTE   Cn1  v080
 BYTE   N05  Fs1  v096
 BYTE   W12
 BYTE   Fs2
 BYTE   W06
 BYTE   N05
 BYTE   W06
 BYTE   Dn1  v080
 BYTE   N05  En1
 BYTE   N05  Fs2  v096
 BYTE   W06
 BYTE   N05
 BYTE   W06
 BYTE   Dn1
 BYTE   N05  En1
 BYTE   N05  Fs2
 BYTE   W06
 BYTE   Dn1
 BYTE   N05  En1
 BYTE   W06
 BYTE   PEND 
// 017   ----------------------------------------
 BYTE   Cn1  v080
 BYTE   N05  Fs1  v096
 BYTE   W12
 BYTE   Dn1
 BYTE   N05  En1
 BYTE   N05  Fs2
 BYTE   W06
 BYTE   N05
 BYTE   W06
 BYTE   Cn1
 BYTE   N05  Fs2
 BYTE   W06
 BYTE   N05
 BYTE   W06
 BYTE   Dn1
 BYTE   N05  En1
 BYTE   N05  Fs2
 BYTE   W12
 BYTE   Cn1  v080
 BYTE   N05  Fs1  v096
 BYTE   W06
 BYTE   En1
 BYTE   W06
 BYTE   Dn1
 BYTE   N05  En1
 BYTE   N05  Fs2
 BYTE   W06
 BYTE   N05
 BYTE   W06
 BYTE   Cn1
 BYTE   N05  Fs2
 BYTE   W06
 BYTE   N05
 BYTE   W06
 BYTE   En1  v052
 BYTE   N05  Fs2  v096
 BYTE   W06
 BYTE   Dn1
 BYTE   N05  En1
 BYTE   W06
// 018   ----------------------------------------
 BYTE   PATT
  POIN2 Label_9_01477BF5
// 019   ----------------------------------------
 BYTE   PATT
  POIN2 Label_9_01477BF5
// 020   ----------------------------------------
 BYTE   PATT
  POIN2 Label_9_01477BF5
// 021   ----------------------------------------
 BYTE   PATT
  POIN2 Label_9_01477C2B
// 022   ----------------------------------------
 BYTE   PATT
  POIN2 Label_9_01477BF5
// 023   ----------------------------------------
 BYTE   PATT
  POIN2 Label_9_01477BF5
// 024   ----------------------------------------
 BYTE   PATT
  POIN2 Label_9_01477C65
// 025   ----------------------------------------
 BYTE   N05  Cn1  v096
 BYTE   N05  Fs1
 BYTE   W12
 BYTE   Dn1
 BYTE   N05  En1
 BYTE   N05  Fs2
 BYTE   W06
 BYTE   N05
 BYTE   W06
 BYTE   Cn1
 BYTE   N05  Fs2
 BYTE   W06
 BYTE   N05
 BYTE   W06
 BYTE   Dn1
 BYTE   N05  En1
 BYTE   N05  Fs2
 BYTE   W12
 BYTE   Cn1
 BYTE   N05  Fs1
 BYTE   W06
 BYTE   Fs2
 BYTE   W06
 BYTE   Dn1
 BYTE   N05  En1
 BYTE   N05  Fs2
 BYTE   W06
 BYTE   N05
 BYTE   W06
 BYTE   Dn1  v112
 BYTE   N05  En1
 BYTE   N05  Fs2  v096
 BYTE   W06
 BYTE   N05
 BYTE   W06
 BYTE   Dn1  v112
 BYTE   N05  En1
 BYTE   N05  Fs2  v096
 BYTE   W06
 BYTE   Dn1
 BYTE   N05  En1
 BYTE   W06
// 026   ----------------------------------------
Label_9_01477D34:
 BYTE   N05  Bn0  v096
 BYTE   N05  Dn1
 BYTE   N05  En1
 BYTE   N05  As1
 BYTE   W18
 BYTE   Bn0
 BYTE   N05  Dn1
 BYTE   N05  En1
 BYTE   N05  As1
 BYTE   W18
 BYTE   Bn0
 BYTE   N05  Dn1
 BYTE   N05  En1
 BYTE   N05  As1
 BYTE   W36
 BYTE   N10  Dn1  v112
 BYTE   N10  Ds1
 BYTE   N10  En1
 BYTE   W12
 BYTE   N05  Cn1  v096
 BYTE   N05  En1
 BYTE   W12
 BYTE   PEND 
// 027   ----------------------------------------
 BYTE   PATT
  POIN2 Label_9_01477D34
// 028   ----------------------------------------
 BYTE   PATT
  POIN2 Label_9_01477D34
// 029   ----------------------------------------
 BYTE   PATT
  POIN2 Label_9_01477D34
// 030   ----------------------------------------
 BYTE   PATT
  POIN2 Label_9_01477D34
// 031   ----------------------------------------
 BYTE   PATT
  POIN2 Label_9_01477D34
// 032   ----------------------------------------
 BYTE   N05  Bn0  v096
 BYTE   N05  Dn1
 BYTE   N05  En1
 BYTE   W12
 BYTE   Cn1
 BYTE   N05  Fn2
 BYTE   W06
 BYTE   Bn0
 BYTE   N05  Dn1
 BYTE   N05  En1
 BYTE   W12
 BYTE   Cn1
 BYTE   N05  Fn2
 BYTE   W06
 BYTE   Bn0
 BYTE   N05  Dn1
 BYTE   N05  En1
 BYTE   W06
 BYTE   Fn2
 BYTE   W06
 BYTE   Bn0
 BYTE   N05  Dn1
 BYTE   N05  En1
 BYTE   W12
 BYTE   Cn1
 BYTE   N05  Fn2
 BYTE   W06
 BYTE   Bn0
 BYTE   N05  Dn1
 BYTE   N05  En1
 BYTE   W12
 BYTE   Cn1
 BYTE   N05  Fn2
 BYTE   W06
 BYTE   Bn0
 BYTE   N05  Dn1
 BYTE   N05  En1
 BYTE   W06
 BYTE   Fn2
 BYTE   W06
// 033   ----------------------------------------
 BYTE   Bn0
 BYTE   N05  Dn1
 BYTE   N05  En1
 BYTE   N05  An2
 BYTE   W12
 BYTE   Cn1
 BYTE   N05  Fn2
 BYTE   W12
 BYTE   Bn0
 BYTE   N05  Dn1
 BYTE   N05  En1
 BYTE   N05  An2
 BYTE   W12
 BYTE   Cn1
 BYTE   N05  Fn2
 BYTE   W12
 BYTE   N01  En1
 BYTE   N01  Bn1  v076
 BYTE   N01  An2  v096
 BYTE   W02
 BYTE   En1
 BYTE   N01  Bn1  v076
 BYTE   W02
 BYTE   En1  v096
 BYTE   N01  An1  v076
 BYTE   W02
 BYTE   N01
 BYTE   W02
 BYTE   Gn1
 BYTE   W02
 BYTE   N01
 BYTE   W02
 BYTE   N05  Bn0  v096
 BYTE   N05  Fn2
 BYTE   W12
 BYTE   Dn1
 BYTE   N05  En1
 BYTE   W12
 BYTE   Dn1
 BYTE   N05  En1
 BYTE   W06
 BYTE   Dn1
 BYTE   N05  En1
 BYTE   W06
// 034   ----------------------------------------
Label_9_01477DF4:
 BYTE   N05  Cn1  v096
 BYTE   N05  As1
 BYTE   N05  Fn2
 BYTE   W12
 BYTE   Fs1
 BYTE   W12
 BYTE   Dn1
 BYTE   N05  En1
 BYTE   W12
 BYTE   Fs1
 BYTE   W12
 BYTE   Cn1
 BYTE   N05  As1
 BYTE   N05  Fn2
 BYTE   W12
 BYTE   Fs1
 BYTE   W12
 BYTE   Dn1
 BYTE   N05  En1
 BYTE   W12
 BYTE   Fs1
 BYTE   W12
 BYTE   PEND 
// 035   ----------------------------------------
 BYTE   PATT
  POIN2 Label_9_01477DF4
// 036   ----------------------------------------
 BYTE   PATT
  POIN2 Label_9_01477DF4
// 037   ----------------------------------------
Label_9_01477E1D:
 BYTE   N05  Cn1  v080
 BYTE   N05  As1  v096
 BYTE   N05  Fn2
 BYTE   W12
 BYTE   Fs1
 BYTE   W12
 BYTE   Dn1
 BYTE   N05  En1
 BYTE   W12
 BYTE   Fs1
 BYTE   W12
 BYTE   Cn1  v080
 BYTE   N05  As1  v096
 BYTE   N05  Fn2
 BYTE   W06
 BYTE   Dn1
 BYTE   N05  En1
 BYTE   W06
 BYTE   Cn1
 BYTE   W24
 BYTE   Dn1
 BYTE   N05  En1
 BYTE   N05  As1
 BYTE   W12
 BYTE   PEND 
// 038   ----------------------------------------
 BYTE   PATT
  POIN2 Label_9_01477DF4
// 039   ----------------------------------------
 BYTE   PATT
  POIN2 Label_9_01477DF4
// 040   ----------------------------------------
Label_9_01477E4D:
 BYTE   N05  Cn1  v096
 BYTE   N05  As1
 BYTE   N05  Ds2
 BYTE   W12
 BYTE   Fs1
 BYTE   W12
 BYTE   Dn1
 BYTE   N05  En1
 BYTE   W12
 BYTE   Fs1
 BYTE   W12
 BYTE   Cn1
 BYTE   N05  As1
 BYTE   N05  Ds2
 BYTE   W12
 BYTE   Fs1
 BYTE   W12
 BYTE   Dn1  v080
 BYTE   N05  En1
 BYTE   W06
 BYTE   Cn1  v064
 BYTE   W06
 BYTE   Dn1  v080
 BYTE   N05  En1
 BYTE   W06
 BYTE   Dn1
 BYTE   N05  En1
 BYTE   W06
 BYTE   PEND 
// 041   ----------------------------------------
Label_9_01477E77:
 BYTE   N05  Cn1  v096
 BYTE   N05  En1
 BYTE   N05  Fn2
 BYTE   N05  Fs2
 BYTE   W12
 BYTE   Dn1  v064
 BYTE   N05  En1
 BYTE   W12
 BYTE   Cn1  v096
 BYTE   N05  En1  v064
 BYTE   N05  Fn2  v096
 BYTE   N05  Fs2
 BYTE   W12
 BYTE   Dn1  v064
 BYTE   N05  En1  v096
 BYTE   W12
 BYTE   Cn1  v064
 BYTE   N05  En1
 BYTE   N05  Fn2  v096
 BYTE   N05  Fs2
 BYTE   W06
 BYTE   Dn1  v064
 BYTE   N05  En1
 BYTE   W06
 BYTE   Cn1  v096
 BYTE   N05  En1  v064
 BYTE   W12
 BYTE   N06  Cn1  v096
 BYTE   N06  Dn1
 BYTE   N10  En1
 BYTE   N06  Fn2
 BYTE   N06  Fs2
 BYTE   W12
 BYTE   N05  Dn1
 BYTE   N05  En1
 BYTE   N05  Fn2
 BYTE   W06
 BYTE   Dn1
 BYTE   N05  En1
 BYTE   W06
 BYTE   PEND 
// 042   ----------------------------------------
 BYTE   PATT
  POIN2 Label_9_01477DF4
// 043   ----------------------------------------
 BYTE   PATT
  POIN2 Label_9_01477DF4
// 044   ----------------------------------------
 BYTE   PATT
  POIN2 Label_9_01477DF4
// 045   ----------------------------------------
 BYTE   PATT
  POIN2 Label_9_01477E1D
// 046   ----------------------------------------
 BYTE   PATT
  POIN2 Label_9_01477DF4
// 047   ----------------------------------------
 BYTE   PATT
  POIN2 Label_9_01477E1D
// 048   ----------------------------------------
 BYTE   PATT
  POIN2 Label_9_01477E4D
// 049   ----------------------------------------
 BYTE   PATT
  POIN2 Label_9_01477E77
// 050   ----------------------------------------
 BYTE   PATT
  POIN2 Label_9_01477DF4
// 051   ----------------------------------------
 BYTE   PATT
  POIN2 Label_9_01477DF4
// 052   ----------------------------------------
 BYTE   PATT
  POIN2 Label_9_01477DF4
// 053   ----------------------------------------
 BYTE   PATT
  POIN2 Label_9_01477E1D
// 054   ----------------------------------------
 BYTE   PATT
  POIN2 Label_9_01477DF4
// 055   ----------------------------------------
 BYTE   PATT
  POIN2 Label_9_01477DF4
// 056   ----------------------------------------
 BYTE   PATT
  POIN2 Label_9_01477E4D
// 057   ----------------------------------------
 BYTE   PATT
  POIN2 Label_9_01477E77
// 058   ----------------------------------------
 BYTE   PATT
  POIN2 Label_9_01477DF4
// 059   ----------------------------------------
 BYTE   PATT
  POIN2 Label_9_01477DF4
// 060   ----------------------------------------
 BYTE   PATT
  POIN2 Label_9_01477DF4
// 061   ----------------------------------------
 BYTE   PATT
  POIN2 Label_9_01477E1D
// 062   ----------------------------------------
 BYTE   PATT
  POIN2 Label_9_01477DF4
// 063   ----------------------------------------
 BYTE   PATT
  POIN2 Label_9_01477E1D
// 064   ----------------------------------------
 BYTE   PATT
  POIN2 Label_9_01477E4D
// 065   ----------------------------------------
 BYTE   N05  Cn1  v096
 BYTE   N05  Dn1
 BYTE   N05  En1
 BYTE   N05  Fn2
 BYTE   N05  Fs2
 BYTE   W12
 BYTE   Dn1
 BYTE   N05  En1
 BYTE   W06
 BYTE   Dn1
 BYTE   W06
 BYTE   Cn1
 BYTE   N05  En1
 BYTE   N05  Fn2
 BYTE   N05  Fs2
 BYTE   W12
 BYTE   Dn1
 BYTE   N05  En1
 BYTE   W12
 BYTE   Cn1
 BYTE   N05  Dn1
 BYTE   N05  En1
 BYTE   N05  Fn2
 BYTE   N05  Fs2
 BYTE   W06
 BYTE   Dn1
 BYTE   N05  En1
 BYTE   W06
 BYTE   Cn1
 BYTE   N05  Dn1
 BYTE   N05  En1
 BYTE   W12
 BYTE   N06  Cn1
 BYTE   N06  Dn1
 BYTE   N10  En1
 BYTE   N06  Fn2
 BYTE   N06  Fs2
 BYTE   W12
 BYTE   N05  Dn1
 BYTE   N05  En1
 BYTE   N05  Fn2
 BYTE   W06
 BYTE   Dn1
 BYTE   N05  En1
 BYTE   W06
// 066   ----------------------------------------
 BYTE   En0
 BYTE   N05  Fs1  v127
 BYTE   N12  As1  v096
 BYTE   W06
 BYTE   N05  Gs1  v127
 BYTE   W06
 BYTE   Fs1
 BYTE   W06
 BYTE   En0  v096
 BYTE   N05  Gs1  v127
 BYTE   N12  As1  v096
 BYTE   W06
 BYTE   N05  Fs1  v127
 BYTE   W06
 BYTE   Gs1
 BYTE   W06
 BYTE   En0  v096
 BYTE   N05  Fs1  v127
 BYTE   N12  As1  v096
 BYTE   W06
 BYTE   N05  Gs1  v127
 BYTE   W06
 BYTE   En0  v096
 BYTE   N05  Fs1  v127
 BYTE   N12  As1  v096
 BYTE   W06
 BYTE   N05  Gs1  v127
 BYTE   W06
 BYTE   Fs1
 BYTE   W06
 BYTE   En0  v096
 BYTE   N05  Gs1  v127
 BYTE   N05  As1  v096
 BYTE   W06
 BYTE   Fs1  v127
 BYTE   W06
 BYTE   Gs1
 BYTE   W06
 BYTE   En0  v096
 BYTE   N05  Fs1  v127
 BYTE   N05  As1  v096
 BYTE   W06
 BYTE   Gs1  v127
 BYTE   W06
// 067   ----------------------------------------
 BYTE   En0
 BYTE   N05  Fs1
 BYTE   N05  As1  v096
 BYTE   W06
 BYTE   Gs1  v127
 BYTE   W06
 BYTE   En0
 BYTE   N05  Fs1
 BYTE   N12  As1  v096
 BYTE   W06
 BYTE   N05  Gs1  v127
 BYTE   W06
 BYTE   En0
 BYTE   N05  Fs1
 BYTE   N12  As1  v096
 BYTE   W06
 BYTE   N05  Gs1  v127
 BYTE   W06
 BYTE   En0
 BYTE   N05  Fs1
 BYTE   N12  As1  v096
 BYTE   W06
 BYTE   N05  Gs1
 BYTE   W06
 BYTE   En0  v112
 BYTE   N05  Dn1
 BYTE   N05  En1
 BYTE   N05  Fs1
 BYTE   N12  As1
 BYTE   W06
 BYTE   N05  Dn1
 BYTE   N05  En1
 BYTE   N05  Gs1
 BYTE   W06
 BYTE   En0
 BYTE   N05  Fs1
 BYTE   N12  As1
 BYTE   W06
 BYTE   N05  Gs1
 BYTE   W06
 BYTE   En0
 BYTE   N05  Dn1
 BYTE   N05  En1
 BYTE   N05  Fs1
 BYTE   N12  As1
 BYTE   W06
 BYTE   N05  Gs1  v096
 BYTE   W06
 BYTE   En0
 BYTE   N05  Dn1  v080
 BYTE   N05  Fs1  v096
 BYTE   N12  As1
 BYTE   W06
 BYTE   N05  Gs1
 BYTE   W06
// 068   ----------------------------------------
 BYTE   GoTo
  POIN2 Label_9_01477A94
 BYTE   FINE

//**************** Track 11 (Midi-Chn.10) ****************//

SilverWillMoment_011:
// 000   ----------------------------------------
 BYTE   KEYSH   SilverWillMoment_key+0
Label_10_0147803A:
 BYTE   VOICE   1
 BYTE   VOL   38*SilverWillMoment_mvl/mxv
 BYTE   PAN   c_v+0
 BYTE   BEND   c_v+0
 BYTE   W96
// 001   ----------------------------------------
 BYTE   W96
// 002   ----------------------------------------
 BYTE   W96
// 003   ----------------------------------------
 BYTE   W96
// 004   ----------------------------------------
 BYTE   W96
// 005   ----------------------------------------
 BYTE   W96
// 006   ----------------------------------------
 BYTE   W96
// 007   ----------------------------------------
 BYTE   W96
// 008   ----------------------------------------
 BYTE   W96
// 009   ----------------------------------------
 BYTE   W96
// 010   ----------------------------------------
 BYTE   W96
// 011   ----------------------------------------
 BYTE   W96
// 012   ----------------------------------------
 BYTE   W96
// 013   ----------------------------------------
 BYTE   W96
// 014   ----------------------------------------
 BYTE   W96
// 015   ----------------------------------------
 BYTE   W96
// 016   ----------------------------------------
 BYTE   W96
// 017   ----------------------------------------
 BYTE   W96
// 018   ----------------------------------------
 BYTE   W96
// 019   ----------------------------------------
 BYTE   W96
// 020   ----------------------------------------
 BYTE   W96
// 021   ----------------------------------------
 BYTE   W96
// 022   ----------------------------------------
 BYTE   W96
// 023   ----------------------------------------
 BYTE   W96
// 024   ----------------------------------------
 BYTE   W96
// 025   ----------------------------------------
 BYTE   W48
 BYTE   N12  Cs4  v112
 BYTE   W12
 BYTE   Ds4
 BYTE   W12
 BYTE   En4
 BYTE   W12
 BYTE   Gs4
 BYTE   W12
// 026   ----------------------------------------
 BYTE   N60  Bn4
 BYTE   W60
 BYTE   N12  Cs5
 BYTE   W12
 BYTE   Bn4
 BYTE   W12
 BYTE   En4
 BYTE   W12
// 027   ----------------------------------------
 BYTE   N48  Gs4
 BYTE   W48
 BYTE   N12
 BYTE   W12
 BYTE   Fs4
 BYTE   W12
 BYTE   N24  En4
 BYTE   W24
// 028   ----------------------------------------
 BYTE   N60  Fs4
 BYTE   W60
 BYTE   N12  Bn4
 BYTE   W12
 BYTE   Fs4
 BYTE   W12
 BYTE   Ds4
 BYTE   W12
// 029   ----------------------------------------
 BYTE   N48  En4
 BYTE   W48
 BYTE   N12  Cs4
 BYTE   W12
 BYTE   Ds4
 BYTE   W12
 BYTE   En4
 BYTE   W12
 BYTE   Gs4
 BYTE   W12
// 030   ----------------------------------------
 BYTE   N48  Cs5  v080
 BYTE   W96
// 031   ----------------------------------------
 BYTE   Ds5
 BYTE   W48
 BYTE   N24  As4
 BYTE   W24
 BYTE   Cs5
 BYTE   W24
// 032   ----------------------------------------
 BYTE   N60
 BYTE   W60
 BYTE   N12  Cn5
 BYTE   W12
 BYTE   Cs5
 BYTE   W12
 BYTE   TIE  Ds5
 BYTE   W12
// 033   ----------------------------------------
 BYTE   W96
// 034   ----------------------------------------
 BYTE   EOT
 BYTE   W96
// 035   ----------------------------------------
 BYTE   W96
// 036   ----------------------------------------
 BYTE   W96
// 037   ----------------------------------------
 BYTE   W96
// 038   ----------------------------------------
 BYTE   W96
// 039   ----------------------------------------
 BYTE   W96
// 040   ----------------------------------------
 BYTE   W96
// 041   ----------------------------------------
 BYTE   W96
// 042   ----------------------------------------
 BYTE   W96
// 043   ----------------------------------------
 BYTE   W96
// 044   ----------------------------------------
 BYTE   W96
// 045   ----------------------------------------
 BYTE   W96
// 046   ----------------------------------------
 BYTE   W96
// 047   ----------------------------------------
 BYTE   W96
// 048   ----------------------------------------
 BYTE   W96
// 049   ----------------------------------------
Label_10_014780B6:
 BYTE   W60
 BYTE   N12  As3  v112
 BYTE   W12
 BYTE   Fn4
 BYTE   W12
 BYTE   Fs4
 BYTE   W12
 BYTE   PEND 
// 050   ----------------------------------------
Label_10_014780C0:
 BYTE   N24  Fn4  v112
 BYTE   W24
 BYTE   N12  Ds4
 BYTE   W12
 BYTE   N24  As3
 BYTE   W24
 BYTE   N12  Gs3
 BYTE   W12
 BYTE   Fs3
 BYTE   W12
 BYTE   N60  As3
 BYTE   W12
 BYTE   PEND 
// 051   ----------------------------------------
 BYTE   PATT
  POIN2 Label_10_014780B6
// 052   ----------------------------------------
 BYTE   N24  Fn4  v112
 BYTE   W24
 BYTE   N12  Ds4
 BYTE   W12
 BYTE   N24  As3
 BYTE   W24
 BYTE   N12  Gs3
 BYTE   W12
 BYTE   As3
 BYTE   W12
 BYTE   N60  Ds3
 BYTE   W12
// 053   ----------------------------------------
 BYTE   W60
 BYTE   N12
 BYTE   W12
 BYTE   Fs3
 BYTE   W12
 BYTE   Gs3
 BYTE   W12
// 054   ----------------------------------------
 BYTE   N36  As3
 BYTE   W36
 BYTE   N12  Gs3
 BYTE   W12
 BYTE   N36
 BYTE   W36
 BYTE   N06  Fs3
 BYTE   W06
 BYTE   Gs3
 BYTE   W06
// 055   ----------------------------------------
 BYTE   N18  As3
 BYTE   W18
 BYTE   Bn3
 BYTE   W18
 BYTE   N12  As3
 BYTE   W12
 BYTE   N24  Gs3
 BYTE   W24
 BYTE   Fn3
 BYTE   W24
// 056   ----------------------------------------
 BYTE   N36  Gs3
 BYTE   W36
 BYTE   N12  Fs3
 BYTE   W12
 BYTE   N48  As3
 BYTE   W48
// 057   ----------------------------------------
 BYTE   PATT
  POIN2 Label_10_014780B6
// 058   ----------------------------------------
 BYTE   PATT
  POIN2 Label_10_014780C0
// 059   ----------------------------------------
 BYTE   PATT
  POIN2 Label_10_014780B6
// 060   ----------------------------------------
 BYTE   N24  Gs4  v112
 BYTE   W24
 BYTE   N12  Fs4
 BYTE   W12
 BYTE   N24  Fn4
 BYTE   W24
 BYTE   N12  Fs4
 BYTE   W12
 BYTE   Gs4
 BYTE   W12
 BYTE   N60  As4
 BYTE   W12
// 061   ----------------------------------------
 BYTE   W60
 BYTE   N12  Ds4
 BYTE   W12
 BYTE   Fs4
 BYTE   W12
 BYTE   Gs4
 BYTE   W12
// 062   ----------------------------------------
 BYTE   N36  As4
 BYTE   W36
 BYTE   N12  Gs4
 BYTE   W12
 BYTE   N36
 BYTE   W36
 BYTE   N06  Fs4
 BYTE   W06
 BYTE   Gs4
 BYTE   W06
// 063   ----------------------------------------
 BYTE   N18  As4
 BYTE   W18
 BYTE   Bn4
 BYTE   W18
 BYTE   N12  As4
 BYTE   W12
 BYTE   N24  Gs4
 BYTE   W24
 BYTE   Fn4
 BYTE   W24
// 064   ----------------------------------------
 BYTE   N36
 BYTE   W36
 BYTE   N12  Fs4
 BYTE   W12
 BYTE   N48  Ds4
 BYTE   W48
// 065   ----------------------------------------
 BYTE   W96
// 066   ----------------------------------------
 BYTE   W96
// 067   ----------------------------------------
 BYTE   W96
// 068   ----------------------------------------
 BYTE   GoTo
  POIN2 Label_10_0147803A
 BYTE   FINE

//**************** Track 12 (Midi-Chn.11) ****************//

SilverWillMoment_012:
// 000   ----------------------------------------
 BYTE   KEYSH   SilverWillMoment_key+0
Label_11_0147816A:
 BYTE   VOICE   50
 BYTE   VOL   24*SilverWillMoment_mvl/mxv
 BYTE   PAN   c_v+0
 BYTE   BEND   c_v+0
 BYTE   W96
// 001   ----------------------------------------
 BYTE   W96
// 002   ----------------------------------------
 BYTE   W96
// 003   ----------------------------------------
 BYTE   W96
// 004   ----------------------------------------
 BYTE   W96
// 005   ----------------------------------------
 BYTE   W96
// 006   ----------------------------------------
 BYTE   W96
// 007   ----------------------------------------
 BYTE   W96
// 008   ----------------------------------------
 BYTE   W96
// 009   ----------------------------------------
 BYTE   W96
// 010   ----------------------------------------
 BYTE   W96
// 011   ----------------------------------------
 BYTE   W96
// 012   ----------------------------------------
 BYTE   W96
// 013   ----------------------------------------
 BYTE   W96
// 014   ----------------------------------------
 BYTE   W96
// 015   ----------------------------------------
 BYTE   W96
// 016   ----------------------------------------
 BYTE   W96
// 017   ----------------------------------------
 BYTE   W96
// 018   ----------------------------------------
 BYTE   W96
// 019   ----------------------------------------
 BYTE   W96
// 020   ----------------------------------------
 BYTE   W96
// 021   ----------------------------------------
 BYTE   W96
// 022   ----------------------------------------
 BYTE   W96
// 023   ----------------------------------------
 BYTE   W96
// 024   ----------------------------------------
 BYTE   W96
// 025   ----------------------------------------
 BYTE   W96
// 026   ----------------------------------------
 BYTE   N48  Bn2  v080
 BYTE   N48  En3
 BYTE   N48  Bn3
 BYTE   W96
// 027   ----------------------------------------
 BYTE   Cs3  v096
 BYTE   N48  En3
 BYTE   N48  Gs3
 BYTE   W96
// 028   ----------------------------------------
 BYTE   Fs2
 BYTE   N48  Bn2
 BYTE   N48  En3
 BYTE   W96
// 029   ----------------------------------------
 BYTE   Fs2
 BYTE   N48  Bn2
 BYTE   N48  En3
 BYTE   W48
 BYTE   Cs2
 BYTE   N48  Gs2
 BYTE   N48  Cs3
 BYTE   W48
// 030   ----------------------------------------
 BYTE   En3
 BYTE   N48  Gs3
 BYTE   N48  Cs4
 BYTE   W96
// 031   ----------------------------------------
 BYTE   As3
 BYTE   N48  Ds4
 BYTE   W96
// 032   ----------------------------------------
 BYTE   N96  Cs3  v080
 BYTE   N96  Fn3
 BYTE   N96  Gs3
 BYTE   N96  Cs4
 BYTE   W96
// 033   ----------------------------------------
 BYTE   Ds3
 BYTE   N96  Gn3
 BYTE   N96  As3
 BYTE   N96  Ds4
 BYTE   W96
// 034   ----------------------------------------
 BYTE   W96
// 035   ----------------------------------------
 BYTE   W96
// 036   ----------------------------------------
 BYTE   W96
// 037   ----------------------------------------
 BYTE   W96
// 038   ----------------------------------------
 BYTE   W96
// 039   ----------------------------------------
 BYTE   W96
// 040   ----------------------------------------
 BYTE   W96
// 041   ----------------------------------------
 BYTE   W96
// 042   ----------------------------------------
 BYTE   W96
// 043   ----------------------------------------
 BYTE   W96
// 044   ----------------------------------------
 BYTE   W96
// 045   ----------------------------------------
 BYTE   W96
// 046   ----------------------------------------
 BYTE   W96
// 047   ----------------------------------------
 BYTE   W96
// 048   ----------------------------------------
 BYTE   W96
// 049   ----------------------------------------
 BYTE   W96
// 050   ----------------------------------------
 BYTE   W96
// 051   ----------------------------------------
 BYTE   W96
// 052   ----------------------------------------
 BYTE   W96
// 053   ----------------------------------------
 BYTE   W96
// 054   ----------------------------------------
 BYTE   W96
// 055   ----------------------------------------
 BYTE   W96
// 056   ----------------------------------------
 BYTE   W96
// 057   ----------------------------------------
 BYTE   W96
// 058   ----------------------------------------
 BYTE   W96
// 059   ----------------------------------------
 BYTE   W96
// 060   ----------------------------------------
 BYTE   W96
// 061   ----------------------------------------
 BYTE   W96
// 062   ----------------------------------------
 BYTE   W96
// 063   ----------------------------------------
 BYTE   W96
// 064   ----------------------------------------
 BYTE   W96
// 065   ----------------------------------------
 BYTE   W96
// 066   ----------------------------------------
 BYTE   W96
// 067   ----------------------------------------
 BYTE   W96
// 068   ----------------------------------------
 BYTE   GoTo
  POIN2 Label_11_0147816A
 BYTE   FINE

//******************************************************//
	ALIGN 4

SilverWillMoment:
	BYTE	12	// NumTrks
	BYTE	0	// NumBlks
	BYTE	SilverWillMoment_pri	// Priority
	BYTE	SilverWillMoment_rev	// Reverb.
    
	POIN2	SilverWillMoment_grp
    
	POIN2	SilverWillMoment_001
	POIN2	SilverWillMoment_002
	POIN2	SilverWillMoment_003
	POIN2	SilverWillMoment_004
	POIN2	SilverWillMoment_005
	POIN2	SilverWillMoment_006
	POIN2	SilverWillMoment_007
	POIN2	SilverWillMoment_008
	POIN2	SilverWillMoment_009
	POIN2	SilverWillMoment_010
	POIN2	SilverWillMoment_011
	POIN2	SilverWillMoment_012

	
