	.include "MPlayDef.s"

	.equ	songC6_grp, voicegroup000
	.equ	songC6_pri, 0
	.equ	songC6_rev, 0
	.equ	songC6_mvl, 127
	.equ	songC6_key, 0
	.equ	songC6_tbs, 1
	.equ	songC6_exg, 0
	.equ	songC6_cmp, 1

	.section .rodata
	.global	songC6
	.align	2


@**************** Track 1 (Midi-Chn.0) ****************@

songC6_001:
@ 000   ----------------------------------------
 .byte   KEYSH , songC6_key+0
Label_0_01476216:
 .byte   TEMPO , 142*songC6_tbs/2
 .byte   VOICE , 63
 .byte   VOL , 29*songC6_mvl/mxv
 .byte   PAN , c_v-7
 .byte   W96
@ 001   ----------------------------------------
 .byte   W96
@ 002   ----------------------------------------
 .byte   W96
@ 003   ----------------------------------------
 .byte   W96
@ 004   ----------------------------------------
 .byte   W96
@ 005   ----------------------------------------
 .byte   W96
@ 006   ----------------------------------------
 .byte   W96
@ 007   ----------------------------------------
 .byte   W96
@ 008   ----------------------------------------
 .byte   W96
@ 009   ----------------------------------------
 .byte   W96
@ 010   ----------------------------------------
 .byte   W96
@ 011   ----------------------------------------
 .byte   W96
@ 012   ----------------------------------------
 .byte   W96
@ 013   ----------------------------------------
 .byte   W96
@ 014   ----------------------------------------
 .byte   W96
@ 015   ----------------------------------------
Label_0_0147622D:
 .byte   W48
 .byte   N06 ,Fs4 ,v080
 .byte   W12
 .byte   N06
 .byte   W12
 .byte   N06
 .byte   W12
 .byte   En4
 .byte   W12
 .byte   PEND 
@ 016   ----------------------------------------
Label_0_01476239:
 .byte   N06 ,En4 ,v080
 .byte   W12
 .byte   N06
 .byte   W12
 .byte   N06
 .byte   W12
 .byte   Ds4
 .byte   W12
 .byte   N06
 .byte   W12
 .byte   N06
 .byte   W12
 .byte   N06
 .byte   W12
 .byte   En4
 .byte   W12
 .byte   PEND 
@ 017   ----------------------------------------
Label_0_0147624C:
 .byte   N06 ,En4 ,v080
 .byte   W12
 .byte   N06
 .byte   W12
 .byte   N06
 .byte   W12
 .byte   Fs4
 .byte   W12
 .byte   N06
 .byte   W12
 .byte   N06
 .byte   W12
 .byte   N06
 .byte   W12
 .byte   En4
 .byte   W12
 .byte   PEND 
@ 018   ----------------------------------------
 .byte   PATT
  .word Label_0_01476239
@ 019   ----------------------------------------
 .byte   PATT
  .word Label_0_0147624C
@ 020   ----------------------------------------
 .byte   PATT
  .word Label_0_01476239
@ 021   ----------------------------------------
 .byte   PATT
  .word Label_0_0147624C
@ 022   ----------------------------------------
Label_0_01476273:
 .byte   N06 ,En4 ,v080
 .byte   W12
 .byte   N06
 .byte   W12
 .byte   N06
 .byte   W12
 .byte   Ds4
 .byte   W60
 .byte   PEND 
@ 023   ----------------------------------------
 .byte   W96
@ 024   ----------------------------------------
 .byte   W96
@ 025   ----------------------------------------
 .byte   W96
@ 026   ----------------------------------------
 .byte   W96
@ 027   ----------------------------------------
 .byte   W96
@ 028   ----------------------------------------
 .byte   W96
@ 029   ----------------------------------------
 .byte   W96
@ 030   ----------------------------------------
 .byte   W96
@ 031   ----------------------------------------
 .byte   W96
@ 032   ----------------------------------------
 .byte   W96
@ 033   ----------------------------------------
 .byte   W96
@ 034   ----------------------------------------
 .byte   W96
@ 035   ----------------------------------------
 .byte   W96
@ 036   ----------------------------------------
 .byte   W96
@ 037   ----------------------------------------
 .byte   W96
@ 038   ----------------------------------------
 .byte   W96
@ 039   ----------------------------------------
 .byte   W96
@ 040   ----------------------------------------
 .byte   W96
@ 041   ----------------------------------------
 .byte   W96
@ 042   ----------------------------------------
 .byte   W96
@ 043   ----------------------------------------
 .byte   W96
@ 044   ----------------------------------------
 .byte   W96
@ 045   ----------------------------------------
 .byte   W96
@ 046   ----------------------------------------
 .byte   W96
@ 047   ----------------------------------------
 .byte   W96
@ 048   ----------------------------------------
 .byte   W96
@ 049   ----------------------------------------
 .byte   W96
@ 050   ----------------------------------------
 .byte   W96
@ 051   ----------------------------------------
 .byte   W96
@ 052   ----------------------------------------
 .byte   W96
@ 053   ----------------------------------------
 .byte   W96
@ 054   ----------------------------------------
 .byte   W96
@ 055   ----------------------------------------
 .byte   W96
@ 056   ----------------------------------------
 .byte   W96
@ 057   ----------------------------------------
 .byte   W96
@ 058   ----------------------------------------
 .byte   W96
@ 059   ----------------------------------------
 .byte   W96
@ 060   ----------------------------------------
 .byte   W96
@ 061   ----------------------------------------
 .byte   W96
@ 062   ----------------------------------------
 .byte   W96
@ 063   ----------------------------------------
 .byte   W96
@ 064   ----------------------------------------
 .byte   W96
@ 065   ----------------------------------------
 .byte   W96
@ 066   ----------------------------------------
 .byte   W96
@ 067   ----------------------------------------
 .byte   W96
@ 068   ----------------------------------------
 .byte   W96
@ 069   ----------------------------------------
 .byte   W96
@ 070   ----------------------------------------
 .byte   W96
@ 071   ----------------------------------------
 .byte   W96
@ 072   ----------------------------------------
 .byte   W96
@ 073   ----------------------------------------
 .byte   W96
@ 074   ----------------------------------------
 .byte   W96
@ 075   ----------------------------------------
 .byte   W96
@ 076   ----------------------------------------
 .byte   W96
@ 077   ----------------------------------------
 .byte   W96
@ 078   ----------------------------------------
 .byte   W96
@ 079   ----------------------------------------
 .byte   W96
@ 080   ----------------------------------------
 .byte   W96
@ 081   ----------------------------------------
 .byte   PATT
  .word Label_0_0147622D
@ 082   ----------------------------------------
 .byte   PATT
  .word Label_0_01476239
@ 083   ----------------------------------------
 .byte   PATT
  .word Label_0_0147624C
@ 084   ----------------------------------------
 .byte   PATT
  .word Label_0_01476239
@ 085   ----------------------------------------
 .byte   PATT
  .word Label_0_0147624C
@ 086   ----------------------------------------
 .byte   PATT
  .word Label_0_01476239
@ 087   ----------------------------------------
 .byte   PATT
  .word Label_0_0147624C
@ 088   ----------------------------------------
 .byte   PATT
  .word Label_0_01476239
@ 089   ----------------------------------------
 .byte   PATT
  .word Label_0_0147624C
@ 090   ----------------------------------------
 .byte   PATT
  .word Label_0_01476239
@ 091   ----------------------------------------
 .byte   PATT
  .word Label_0_0147624C
@ 092   ----------------------------------------
 .byte   PATT
  .word Label_0_01476239
@ 093   ----------------------------------------
 .byte   PATT
  .word Label_0_0147624C
@ 094   ----------------------------------------
 .byte   PATT
  .word Label_0_01476239
@ 095   ----------------------------------------
 .byte   PATT
  .word Label_0_0147624C
@ 096   ----------------------------------------
 .byte   PATT
  .word Label_0_01476273
@ 097   ----------------------------------------
 .byte   W96
@ 098   ----------------------------------------
 .byte   W96
@ 099   ----------------------------------------
 .byte   W96
@ 100   ----------------------------------------
 .byte   W96
@ 101   ----------------------------------------
 .byte   W96
@ 102   ----------------------------------------
 .byte   W96
@ 103   ----------------------------------------
 .byte   W96
@ 104   ----------------------------------------
 .byte   W96
@ 105   ----------------------------------------
 .byte   W96
@ 106   ----------------------------------------
 .byte   W96
@ 107   ----------------------------------------
 .byte   W96
@ 108   ----------------------------------------
 .byte   W96
@ 109   ----------------------------------------
 .byte   W96
@ 110   ----------------------------------------
 .byte   W96
@ 111   ----------------------------------------
 .byte   W96
@ 112   ----------------------------------------
 .byte   W96
@ 113   ----------------------------------------
 .byte   W96
@ 114   ----------------------------------------
 .byte   W96
@ 115   ----------------------------------------
 .byte   W96
@ 116   ----------------------------------------
 .byte   W96
@ 117   ----------------------------------------
 .byte   W96
@ 118   ----------------------------------------
 .byte   W96
@ 119   ----------------------------------------
 .byte   W96
@ 120   ----------------------------------------
 .byte   W96
@ 121   ----------------------------------------
 .byte   W96
@ 122   ----------------------------------------
 .byte   W96
@ 123   ----------------------------------------
 .byte   W96
@ 124   ----------------------------------------
 .byte   W96
@ 125   ----------------------------------------
 .byte   W96
@ 126   ----------------------------------------
 .byte   W96
@ 127   ----------------------------------------
 .byte   W96
@ 128   ----------------------------------------
 .byte   W96
@ 129   ----------------------------------------
 .byte   W96
@ 130   ----------------------------------------
 .byte   W96
@ 131   ----------------------------------------
 .byte   W96
@ 132   ----------------------------------------
 .byte   W96
@ 133   ----------------------------------------
 .byte   W96
@ 134   ----------------------------------------
 .byte   W96
@ 135   ----------------------------------------
 .byte   W96
@ 136   ----------------------------------------
 .byte   W96
@ 137   ----------------------------------------
 .byte   W96
@ 138   ----------------------------------------
 .byte   W96
@ 139   ----------------------------------------
 .byte   W96
@ 140   ----------------------------------------
 .byte   W96
@ 141   ----------------------------------------
 .byte   W96
@ 142   ----------------------------------------
 .byte   W96
@ 143   ----------------------------------------
 .byte   W96
@ 144   ----------------------------------------
 .byte   W96
@ 145   ----------------------------------------
 .byte   W96
@ 146   ----------------------------------------
 .byte   W96
@ 147   ----------------------------------------
 .byte   W96
@ 148   ----------------------------------------
 .byte   W96
@ 149   ----------------------------------------
 .byte   W96
@ 150   ----------------------------------------
 .byte   W96
@ 151   ----------------------------------------
 .byte   W96
@ 152   ----------------------------------------
 .byte   W96
@ 153   ----------------------------------------
 .byte   W96
@ 154   ----------------------------------------
 .byte   W96
@ 155   ----------------------------------------
 .byte   W96
@ 156   ----------------------------------------
 .byte   W96
@ 157   ----------------------------------------
 .byte   W96
@ 158   ----------------------------------------
 .byte   W96
@ 159   ----------------------------------------
 .byte   W96
@ 160   ----------------------------------------
 .byte   W96
@ 161   ----------------------------------------
 .byte   W96
@ 162   ----------------------------------------
 .byte   W96
@ 163   ----------------------------------------
 .byte   W96
@ 164   ----------------------------------------
 .byte   W96
@ 165   ----------------------------------------
 .byte   W96
@ 166   ----------------------------------------
 .byte   W96
@ 167   ----------------------------------------
 .byte   W96
@ 168   ----------------------------------------
 .byte   W96
@ 169   ----------------------------------------
 .byte   W96
@ 170   ----------------------------------------
 .byte   W96
@ 171   ----------------------------------------
 .byte   W96
@ 172   ----------------------------------------
 .byte   W96
@ 173   ----------------------------------------
 .byte   W96
@ 174   ----------------------------------------
 .byte   W96
@ 175   ----------------------------------------
 .byte   W96
@ 176   ----------------------------------------
 .byte   W96
@ 177   ----------------------------------------
 .byte   W96
@ 178   ----------------------------------------
 .byte   W96
@ 179   ----------------------------------------
 .byte   W96
@ 180   ----------------------------------------
 .byte   W96
@ 181   ----------------------------------------
 .byte   W96
@ 182   ----------------------------------------
 .byte   W96
@ 183   ----------------------------------------
 .byte   W96
@ 184   ----------------------------------------
 .byte   W96
@ 185   ----------------------------------------
 .byte   W96
@ 186   ----------------------------------------
 .byte   W96
@ 187   ----------------------------------------
 .byte   W96
@ 188   ----------------------------------------
 .byte   W48
 .byte   N06 ,Gs4 ,v080
 .byte   W12
 .byte   N06
 .byte   W12
 .byte   N06
 .byte   W12
 .byte   Fs4
 .byte   W12
@ 189   ----------------------------------------
Label_0_0147636E:
 .byte   N06 ,Fs4 ,v080
 .byte   W12
 .byte   N06
 .byte   W12
 .byte   N06
 .byte   W12
 .byte   Fn4
 .byte   W12
 .byte   N06
 .byte   W12
 .byte   N06
 .byte   W12
 .byte   N06
 .byte   W12
 .byte   Fs4
 .byte   W12
 .byte   PEND 
@ 190   ----------------------------------------
Label_0_01476381:
 .byte   N06 ,Fs4 ,v080
 .byte   W12
 .byte   N06
 .byte   W12
 .byte   N06
 .byte   W12
 .byte   Gs4
 .byte   W12
 .byte   N06
 .byte   W12
 .byte   N06
 .byte   W12
 .byte   N06
 .byte   W12
 .byte   Fs4
 .byte   W12
 .byte   PEND 
@ 191   ----------------------------------------
 .byte   PATT
  .word Label_0_0147636E
@ 192   ----------------------------------------
 .byte   PATT
  .word Label_0_01476381
@ 193   ----------------------------------------
 .byte   PATT
  .word Label_0_0147636E
@ 194   ----------------------------------------
 .byte   PATT
  .word Label_0_01476381
@ 195   ----------------------------------------
 .byte   PATT
  .word Label_0_0147636E
@ 196   ----------------------------------------
 .byte   PATT
  .word Label_0_01476381
@ 197   ----------------------------------------
 .byte   PATT
  .word Label_0_0147636E
@ 198   ----------------------------------------
 .byte   PATT
  .word Label_0_01476381
@ 199   ----------------------------------------
 .byte   PATT
  .word Label_0_0147636E
@ 200   ----------------------------------------
 .byte   PATT
  .word Label_0_01476381
@ 201   ----------------------------------------
 .byte   PATT
  .word Label_0_0147636E
@ 202   ----------------------------------------
 .byte   PATT
  .word Label_0_01476381
@ 203   ----------------------------------------
 .byte   N06 ,Fs4 ,v080
 .byte   W12
 .byte   N06
 .byte   W12
 .byte   N06
 .byte   W12
 .byte   Fn4
 .byte   W60
@ 204   ----------------------------------------
 .byte   W48
 .byte   GOTO
  .word Label_0_01476216
 .byte   FINE

@**************** Track 2 (Midi-Chn.1) ****************@

songC6_002:
@ 000   ----------------------------------------
 .byte   KEYSH , songC6_key+0
Label_1_014AD612:
 .byte   VOICE , 2
 .byte   VOL , 17*songC6_mvl/mxv
 .byte   PAN , c_v-13
 .byte   W24
 .byte   N06 ,En3 ,v092
 .byte   N06 ,Gs3
 .byte   W48
 .byte   En3
 .byte   N06 ,Gs3
 .byte   W24
@ 001   ----------------------------------------
Label_1_014AD623:
 .byte   W24
 .byte   N06 ,En3 ,v092
 .byte   N06 ,Gs3
 .byte   W48
 .byte   En3
 .byte   N06 ,Gs3
 .byte   W24
 .byte   PEND 
@ 002   ----------------------------------------
 .byte   PATT
  .word Label_1_014AD623
@ 003   ----------------------------------------
 .byte   PATT
  .word Label_1_014AD623
@ 004   ----------------------------------------
 .byte   PATT
  .word Label_1_014AD623
@ 005   ----------------------------------------
 .byte   PATT
  .word Label_1_014AD623
@ 006   ----------------------------------------
 .byte   PATT
  .word Label_1_014AD623
@ 007   ----------------------------------------
 .byte   W24
 .byte   N06 ,En3 ,v096
 .byte   N06 ,Gs3
 .byte   W48
 .byte   En3
 .byte   N06 ,Gs3
 .byte   W24
@ 008   ----------------------------------------
Label_1_014AD653:
 .byte   W24
 .byte   N06 ,En3 ,v100
 .byte   N06 ,Gs3
 .byte   W48
 .byte   En3
 .byte   N06 ,Gs3
 .byte   W24
 .byte   PEND 
@ 009   ----------------------------------------
 .byte   PATT
  .word Label_1_014AD653
@ 010   ----------------------------------------
 .byte   PATT
  .word Label_1_014AD653
@ 011   ----------------------------------------
 .byte   PATT
  .word Label_1_014AD653
@ 012   ----------------------------------------
 .byte   PATT
  .word Label_1_014AD653
@ 013   ----------------------------------------
 .byte   PATT
  .word Label_1_014AD653
@ 014   ----------------------------------------
 .byte   W24
 .byte   N06 ,En3 ,v100
 .byte   N06 ,Gs3
 .byte   W72
@ 015   ----------------------------------------
Label_1_014AD67F:
 .byte   W60
 .byte   N12 ,En3 ,v112
 .byte   N12 ,Gs3
 .byte   W24
 .byte   En3
 .byte   N12 ,Gs3
 .byte   W12
 .byte   PEND 
@ 016   ----------------------------------------
Label_1_014AD68B:
 .byte   W12
 .byte   N12 ,En3 ,v112
 .byte   N12 ,Gs3
 .byte   W24
 .byte   En3
 .byte   N12 ,Gs3
 .byte   W24
 .byte   En3
 .byte   N12 ,Gs3
 .byte   W24
 .byte   En3
 .byte   N12 ,Gs3
 .byte   W12
 .byte   PEND 
@ 017   ----------------------------------------
 .byte   PATT
  .word Label_1_014AD68B
@ 018   ----------------------------------------
 .byte   PATT
  .word Label_1_014AD68B
@ 019   ----------------------------------------
 .byte   PATT
  .word Label_1_014AD68B
@ 020   ----------------------------------------
 .byte   PATT
  .word Label_1_014AD68B
@ 021   ----------------------------------------
 .byte   PATT
  .word Label_1_014AD68B
@ 022   ----------------------------------------
 .byte   PATT
  .word Label_1_014AD68B
@ 023   ----------------------------------------
 .byte   PATT
  .word Label_1_014AD68B
@ 024   ----------------------------------------
 .byte   PATT
  .word Label_1_014AD68B
@ 025   ----------------------------------------
 .byte   PATT
  .word Label_1_014AD68B
@ 026   ----------------------------------------
 .byte   PATT
  .word Label_1_014AD68B
@ 027   ----------------------------------------
Label_1_014AD6D1:
 .byte   W12
 .byte   N12 ,En3 ,v112
 .byte   N12 ,Gs3
 .byte   W24
 .byte   En3
 .byte   N12 ,Gs3
 .byte   W24
 .byte   En3
 .byte   N12 ,Fs3
 .byte   W24
 .byte   En3
 .byte   N12 ,Fs3
 .byte   W12
 .byte   PEND 
@ 028   ----------------------------------------
Label_1_014AD6E5:
 .byte   W12
 .byte   N12 ,En3 ,v112
 .byte   N12 ,Fs3
 .byte   W24
 .byte   En3
 .byte   N12 ,Fs3
 .byte   W24
 .byte   En3
 .byte   N12 ,Fs3
 .byte   W24
 .byte   En3
 .byte   N12 ,Fs3
 .byte   W12
 .byte   PEND 
@ 029   ----------------------------------------
Label_1_014AD6F9:
 .byte   W12
 .byte   N12 ,En3 ,v112
 .byte   N12 ,Fs3
 .byte   W24
 .byte   En3
 .byte   N12 ,Fs3
 .byte   W24
 .byte   En3
 .byte   N12 ,Gs3
 .byte   W24
 .byte   En3
 .byte   N12 ,Gs3
 .byte   W12
 .byte   PEND 
@ 030   ----------------------------------------
 .byte   PATT
  .word Label_1_014AD68B
@ 031   ----------------------------------------
 .byte   PATT
  .word Label_1_014AD68B
@ 032   ----------------------------------------
 .byte   PATT
  .word Label_1_014AD68B
@ 033   ----------------------------------------
 .byte   PATT
  .word Label_1_014AD68B
@ 034   ----------------------------------------
 .byte   PATT
  .word Label_1_014AD68B
@ 035   ----------------------------------------
 .byte   PATT
  .word Label_1_014AD6D1
@ 036   ----------------------------------------
 .byte   PATT
  .word Label_1_014AD6E5
@ 037   ----------------------------------------
 .byte   PATT
  .word Label_1_014AD6F9
@ 038   ----------------------------------------
 .byte   PATT
  .word Label_1_014AD68B
@ 039   ----------------------------------------
Label_1_014AD73A:
 .byte   W12
 .byte   N12 ,En3 ,v112
 .byte   N12 ,Gs3
 .byte   W24
 .byte   En3
 .byte   N12 ,Gs3
 .byte   W60
 .byte   PEND 
@ 040   ----------------------------------------
 .byte   W24
 .byte   En3
 .byte   N12 ,Gs3
 .byte   W72
@ 041   ----------------------------------------
 .byte   W24
 .byte   En3
 .byte   N12 ,Gs3
 .byte   W72
@ 042   ----------------------------------------
Label_1_014AD750:
 .byte   W24
 .byte   N12 ,Fs3 ,v112
 .byte   N12 ,Gs3
 .byte   W60
 .byte   N12
 .byte   N12 ,Cs4
 .byte   W12
 .byte   PEND 
@ 043   ----------------------------------------
Label_1_014AD75C:
 .byte   W36
 .byte   N12 ,Fs3 ,v112
 .byte   N12 ,Bn3
 .byte   W60
 .byte   PEND 
@ 044   ----------------------------------------
Label_1_014AD764:
 .byte   W24
 .byte   N12 ,Fn3 ,v112
 .byte   N12 ,As3
 .byte   W60
 .byte   Fs3
 .byte   N12 ,As3
 .byte   W12
 .byte   PEND 
@ 045   ----------------------------------------
Label_1_014AD770:
 .byte   W36
 .byte   N12 ,Ds3 ,v112
 .byte   N12 ,Fs3
 .byte   W12
 .byte   N18 ,Ds3
 .byte   N18 ,Gs3
 .byte   W24
 .byte   N06 ,Cs3
 .byte   N06 ,Ds3
 .byte   W06
 .byte   Cs3
 .byte   N06 ,Ds3
 .byte   W06
 .byte   N12
 .byte   N12 ,Gs3
 .byte   W12
 .byte   PEND 
@ 046   ----------------------------------------
Label_1_014AD78A:
 .byte   N18 ,Ds3 ,v112
 .byte   N18 ,Gs3
 .byte   W24
 .byte   N06 ,Cs3
 .byte   N06 ,Ds3
 .byte   W06
 .byte   Cs3
 .byte   N06 ,Ds3
 .byte   W06
 .byte   N12
 .byte   N12 ,Gs3
 .byte   W12
 .byte   N18 ,Fn3
 .byte   N18 ,As3
 .byte   W24
 .byte   N06 ,Ds3
 .byte   N06 ,Fn3
 .byte   W06
 .byte   Ds3
 .byte   N06 ,Fn3
 .byte   W06
 .byte   N12
 .byte   N12 ,As3
 .byte   W12
 .byte   PEND 
@ 047   ----------------------------------------
 .byte   N18 ,Fn3
 .byte   N18 ,As3
 .byte   W24
 .byte   N06 ,Ds3
 .byte   N06 ,Fn3
 .byte   W06
 .byte   Ds3
 .byte   N06 ,Fn3
 .byte   W06
 .byte   N12
 .byte   N12 ,As3
 .byte   W24
 .byte   Fs3
 .byte   N12 ,As3
 .byte   W24
 .byte   Fs3
 .byte   N12 ,As3
 .byte   W12
@ 048   ----------------------------------------
Label_1_014AD7CA:
 .byte   W12
 .byte   N12 ,Fs3 ,v112
 .byte   N12 ,As3
 .byte   W24
 .byte   Fs3
 .byte   N12 ,As3
 .byte   W24
 .byte   Fs3
 .byte   N12 ,As3
 .byte   W24
 .byte   Fs3
 .byte   N12 ,As3
 .byte   W12
 .byte   PEND 
@ 049   ----------------------------------------
Label_1_014AD7DE:
 .byte   W12
 .byte   N12 ,Fs3 ,v112
 .byte   N12 ,As3
 .byte   W24
 .byte   Fs3
 .byte   N12 ,As3
 .byte   W24
 .byte   Fn3
 .byte   N12 ,As3
 .byte   W24
 .byte   Fn3
 .byte   N12 ,As3
 .byte   W12
 .byte   PEND 
@ 050   ----------------------------------------
Label_1_014AD7F2:
 .byte   W12
 .byte   N12 ,Fn3 ,v112
 .byte   N12 ,As3
 .byte   W24
 .byte   Fn3
 .byte   N12 ,As3
 .byte   W24
 .byte   Fn3
 .byte   N12 ,As3
 .byte   W24
 .byte   Fn3
 .byte   N12 ,As3
 .byte   W12
 .byte   PEND 
@ 051   ----------------------------------------
Label_1_014AD806:
 .byte   W12
 .byte   N12 ,Fn3 ,v112
 .byte   N12 ,As3
 .byte   W24
 .byte   Fn3
 .byte   N12 ,As3
 .byte   W24
 .byte   Fs3
 .byte   N12 ,As3
 .byte   W24
 .byte   Fs3
 .byte   N12 ,As3
 .byte   W12
 .byte   PEND 
@ 052   ----------------------------------------
 .byte   PATT
  .word Label_1_014AD7CA
@ 053   ----------------------------------------
 .byte   W12
 .byte   N12 ,Fs3 ,v112
 .byte   N12 ,As3
 .byte   W24
 .byte   Fs3
 .byte   N12 ,As3
 .byte   W24
 .byte   Gs3
 .byte   N12 ,Bn3
 .byte   W24
 .byte   Gs3
 .byte   N12 ,Bn3
 .byte   W12
@ 054   ----------------------------------------
 .byte   W12
 .byte   Gs3
 .byte   N12 ,Bn3
 .byte   W24
 .byte   Gs3
 .byte   N12 ,Bn3
 .byte   W24
 .byte   Fs3
 .byte   N12 ,As3
 .byte   W24
 .byte   Fs3
 .byte   N12 ,As3
 .byte   W12
@ 055   ----------------------------------------
 .byte   PATT
  .word Label_1_014AD806
@ 056   ----------------------------------------
 .byte   PATT
  .word Label_1_014AD7CA
@ 057   ----------------------------------------
 .byte   PATT
  .word Label_1_014AD7DE
@ 058   ----------------------------------------
 .byte   PATT
  .word Label_1_014AD7F2
@ 059   ----------------------------------------
 .byte   PATT
  .word Label_1_014AD806
@ 060   ----------------------------------------
 .byte   PATT
  .word Label_1_014AD7CA
@ 061   ----------------------------------------
 .byte   W12
 .byte   N12 ,Fn3 ,v112
 .byte   N12 ,As3
 .byte   W24
 .byte   Fn3
 .byte   N12 ,As3
 .byte   W24
 .byte   Gs3
 .byte   N12 ,Bn3
 .byte   W24
 .byte   Gs3
 .byte   N12 ,Bn3
 .byte   W12
@ 062   ----------------------------------------
 .byte   W12
 .byte   Gs3
 .byte   N12 ,Bn3
 .byte   W24
 .byte   N06 ,Gs3
 .byte   N06 ,Bn3
 .byte   W06
 .byte   Gs3
 .byte   N06 ,Bn3
 .byte   W06
 .byte   N12 ,Fs3
 .byte   N12 ,As3
 .byte   W12
 .byte   Fs3
 .byte   N12 ,As3
 .byte   W12
 .byte   Fs3
 .byte   N12 ,As3
 .byte   W24
@ 063   ----------------------------------------
Label_1_014AD88F:
 .byte   N06 ,Ds3 ,v112
 .byte   N06 ,Fs3
 .byte   W12
 .byte   N12 ,Ds3
 .byte   N12 ,Fs3
 .byte   W12
 .byte   Fn3
 .byte   N12 ,Gs3
 .byte   W24
 .byte   Fs3
 .byte   N12 ,As3
 .byte   W12
 .byte   Fs3
 .byte   N12 ,As3
 .byte   W12
 .byte   Fs3
 .byte   N12 ,As3
 .byte   W24
 .byte   PEND 
@ 064   ----------------------------------------
 .byte   PATT
  .word Label_1_014AD88F
@ 065   ----------------------------------------
 .byte   PATT
  .word Label_1_014AD88F
@ 066   ----------------------------------------
 .byte   PATT
  .word Label_1_014AD88F
@ 067   ----------------------------------------
 .byte   PATT
  .word Label_1_014AD88F
@ 068   ----------------------------------------
 .byte   PATT
  .word Label_1_014AD88F
@ 069   ----------------------------------------
 .byte   PATT
  .word Label_1_014AD88F
@ 070   ----------------------------------------
 .byte   PATT
  .word Label_1_014AD88F
@ 071   ----------------------------------------
 .byte   PATT
  .word Label_1_014AD88F
@ 072   ----------------------------------------
 .byte   PATT
  .word Label_1_014AD88F
@ 073   ----------------------------------------
 .byte   PATT
  .word Label_1_014AD88F
@ 074   ----------------------------------------
 .byte   PATT
  .word Label_1_014AD88F
@ 075   ----------------------------------------
 .byte   PATT
  .word Label_1_014AD88F
@ 076   ----------------------------------------
 .byte   PATT
  .word Label_1_014AD88F
@ 077   ----------------------------------------
 .byte   PATT
  .word Label_1_014AD88F
@ 078   ----------------------------------------
 .byte   PATT
  .word Label_1_014AD88F
@ 079   ----------------------------------------
 .byte   N06 ,Ds3 ,v112
 .byte   N06 ,Fs3
 .byte   W12
 .byte   N12 ,Ds3
 .byte   N12 ,Fs3
 .byte   W12
 .byte   Fn3
 .byte   N12 ,Gs3
 .byte   W36
 .byte   Fs3 ,v127
 .byte   N12 ,As3
 .byte   N12 ,Dn4
 .byte   W18
 .byte   N18 ,Fs3
 .byte   N18 ,As3
 .byte   N18 ,Dn4
 .byte   W18
@ 080   ----------------------------------------
 .byte   W12
 .byte   N12 ,Fs3
 .byte   N12 ,As3
 .byte   N12 ,Dn4
 .byte   W18
 .byte   N18 ,Fs3
 .byte   N18 ,As3
 .byte   N18 ,Dn4
 .byte   W30
 .byte   N12 ,Fs3
 .byte   N12 ,As3
 .byte   N12 ,Cs4
 .byte   W18
 .byte   N18 ,Fs3
 .byte   N18 ,As3
 .byte   N18 ,Cs4
 .byte   W18
@ 081   ----------------------------------------
 .byte   W12
 .byte   N12 ,Fs3
 .byte   N12 ,As3
 .byte   N12 ,Cs4
 .byte   W18
 .byte   N18 ,Fs3
 .byte   N18 ,As3
 .byte   N18 ,Cs4
 .byte   W66
@ 082   ----------------------------------------
 .byte   W96
@ 083   ----------------------------------------
 .byte   W96
@ 084   ----------------------------------------
 .byte   W96
@ 085   ----------------------------------------
 .byte   W96
@ 086   ----------------------------------------
 .byte   W96
@ 087   ----------------------------------------
 .byte   W96
@ 088   ----------------------------------------
 .byte   W96
@ 089   ----------------------------------------
 .byte   PATT
  .word Label_1_014AD67F
@ 090   ----------------------------------------
 .byte   PATT
  .word Label_1_014AD68B
@ 091   ----------------------------------------
 .byte   PATT
  .word Label_1_014AD68B
@ 092   ----------------------------------------
 .byte   PATT
  .word Label_1_014AD68B
@ 093   ----------------------------------------
 .byte   PATT
  .word Label_1_014AD68B
@ 094   ----------------------------------------
 .byte   PATT
  .word Label_1_014AD68B
@ 095   ----------------------------------------
 .byte   PATT
  .word Label_1_014AD68B
@ 096   ----------------------------------------
 .byte   PATT
  .word Label_1_014AD68B
@ 097   ----------------------------------------
 .byte   PATT
  .word Label_1_014AD68B
@ 098   ----------------------------------------
 .byte   PATT
  .word Label_1_014AD68B
@ 099   ----------------------------------------
 .byte   PATT
  .word Label_1_014AD68B
@ 100   ----------------------------------------
 .byte   PATT
  .word Label_1_014AD68B
@ 101   ----------------------------------------
 .byte   PATT
  .word Label_1_014AD6D1
@ 102   ----------------------------------------
 .byte   PATT
  .word Label_1_014AD6E5
@ 103   ----------------------------------------
 .byte   PATT
  .word Label_1_014AD6F9
@ 104   ----------------------------------------
 .byte   PATT
  .word Label_1_014AD68B
@ 105   ----------------------------------------
 .byte   PATT
  .word Label_1_014AD68B
@ 106   ----------------------------------------
 .byte   PATT
  .word Label_1_014AD68B
@ 107   ----------------------------------------
 .byte   PATT
  .word Label_1_014AD68B
@ 108   ----------------------------------------
 .byte   PATT
  .word Label_1_014AD68B
@ 109   ----------------------------------------
 .byte   PATT
  .word Label_1_014AD6D1
@ 110   ----------------------------------------
 .byte   PATT
  .word Label_1_014AD6E5
@ 111   ----------------------------------------
 .byte   PATT
  .word Label_1_014AD6F9
@ 112   ----------------------------------------
 .byte   PATT
  .word Label_1_014AD68B
@ 113   ----------------------------------------
 .byte   PATT
  .word Label_1_014AD73A
@ 114   ----------------------------------------
 .byte   W24
 .byte   N12 ,En3 ,v112
 .byte   N12 ,Gs3
 .byte   W72
@ 115   ----------------------------------------
 .byte   W24
 .byte   En3
 .byte   N12 ,Gs3
 .byte   W72
@ 116   ----------------------------------------
 .byte   PATT
  .word Label_1_014AD750
@ 117   ----------------------------------------
 .byte   PATT
  .word Label_1_014AD75C
@ 118   ----------------------------------------
 .byte   PATT
  .word Label_1_014AD764
@ 119   ----------------------------------------
 .byte   PATT
  .word Label_1_014AD770
@ 120   ----------------------------------------
 .byte   PATT
  .word Label_1_014AD78A
@ 121   ----------------------------------------
 .byte   N18 ,Fn3 ,v112
 .byte   N18 ,As3
 .byte   W24
 .byte   N06 ,Ds3
 .byte   N06 ,Fn3
 .byte   W06
 .byte   Ds3
 .byte   N06 ,Fn3
 .byte   W06
 .byte   N12
 .byte   N12 ,As3
 .byte   W12
 .byte   N18 ,Gn3
 .byte   N18 ,Cn4
 .byte   W24
 .byte   N06 ,Fn3
 .byte   N06 ,Gn3
 .byte   W06
 .byte   Fn3
 .byte   N06 ,Gn3
 .byte   W06
 .byte   N12
 .byte   N12 ,Cn4
 .byte   W12
@ 122   ----------------------------------------
 .byte   N18 ,Gn3
 .byte   N18 ,Cn4
 .byte   W24
 .byte   N06 ,Fn3
 .byte   N06 ,Gn3
 .byte   W06
 .byte   Fn3
 .byte   N06 ,Gn3
 .byte   W06
 .byte   N12
 .byte   N12 ,Cn4
 .byte   W24
 .byte   Gs3
 .byte   N12 ,Cn4
 .byte   W24
 .byte   Gs3
 .byte   N12 ,Cn4
 .byte   W12
@ 123   ----------------------------------------
Label_1_014ADA27:
 .byte   W12
 .byte   N12 ,Gs3 ,v112
 .byte   N12 ,Cn4
 .byte   W24
 .byte   Gs3
 .byte   N12 ,Cn4
 .byte   W24
 .byte   Gs3
 .byte   N12 ,Cn4
 .byte   W24
 .byte   Gs3
 .byte   N12 ,Cn4
 .byte   W12
 .byte   PEND 
@ 124   ----------------------------------------
Label_1_014ADA3B:
 .byte   W12
 .byte   N12 ,Gs3 ,v112
 .byte   N12 ,Cn4
 .byte   W24
 .byte   Gs3
 .byte   N12 ,Cn4
 .byte   W24
 .byte   Gn3
 .byte   N12 ,Cn4
 .byte   W24
 .byte   Gn3
 .byte   N12 ,Cn4
 .byte   W12
 .byte   PEND 
@ 125   ----------------------------------------
Label_1_014ADA4F:
 .byte   W12
 .byte   N12 ,Gn3 ,v112
 .byte   N12 ,Cn4
 .byte   W24
 .byte   Gn3
 .byte   N12 ,Cn4
 .byte   W24
 .byte   Gn3
 .byte   N12 ,Cn4
 .byte   W24
 .byte   Gn3
 .byte   N12 ,Cn4
 .byte   W12
 .byte   PEND 
@ 126   ----------------------------------------
Label_1_014ADA63:
 .byte   W12
 .byte   N12 ,Gn3 ,v112
 .byte   N12 ,Cn4
 .byte   W24
 .byte   Gn3
 .byte   N12 ,Cn4
 .byte   W24
 .byte   Gs3
 .byte   N12 ,Cn4
 .byte   W24
 .byte   Gs3
 .byte   N12 ,Cn4
 .byte   W12
 .byte   PEND 
@ 127   ----------------------------------------
 .byte   PATT
  .word Label_1_014ADA27
@ 128   ----------------------------------------
 .byte   W12
 .byte   N12 ,Gs3 ,v112
 .byte   N12 ,Cn4
 .byte   W24
 .byte   Gs3
 .byte   N12 ,Cn4
 .byte   W24
 .byte   As3
 .byte   N12 ,Cs4
 .byte   W24
 .byte   As3
 .byte   N12 ,Cs4
 .byte   W12
@ 129   ----------------------------------------
 .byte   W12
 .byte   As3
 .byte   N12 ,Cs4
 .byte   W24
 .byte   As3
 .byte   N12 ,Cs4
 .byte   W24
 .byte   Gs3
 .byte   N12 ,Cn4
 .byte   W24
 .byte   Gs3
 .byte   N12 ,Cn4
 .byte   W12
@ 130   ----------------------------------------
 .byte   PATT
  .word Label_1_014ADA63
@ 131   ----------------------------------------
 .byte   PATT
  .word Label_1_014ADA27
@ 132   ----------------------------------------
 .byte   PATT
  .word Label_1_014ADA3B
@ 133   ----------------------------------------
 .byte   PATT
  .word Label_1_014ADA4F
@ 134   ----------------------------------------
 .byte   PATT
  .word Label_1_014ADA63
@ 135   ----------------------------------------
 .byte   PATT
  .word Label_1_014ADA27
@ 136   ----------------------------------------
 .byte   W12
 .byte   N12 ,Gn3 ,v112
 .byte   N12 ,Cn4
 .byte   W24
 .byte   Gn3
 .byte   N12 ,Cn4
 .byte   W24
 .byte   As3
 .byte   N12 ,Cs4
 .byte   W24
 .byte   As3
 .byte   N12 ,Cs4
 .byte   W12
@ 137   ----------------------------------------
 .byte   W12
 .byte   As3
 .byte   N12 ,Cs4
 .byte   W24
 .byte   N06 ,As3
 .byte   N06 ,Cs4
 .byte   W06
 .byte   As3
 .byte   N06 ,Cs4
 .byte   W06
 .byte   N12 ,Gs3
 .byte   N12 ,Cn4
 .byte   W12
 .byte   Gs3
 .byte   N12 ,Cn4
 .byte   W12
 .byte   Gs3
 .byte   N12 ,Cn4
 .byte   W24
@ 138   ----------------------------------------
Label_1_014ADAEC:
 .byte   N06 ,Fn3 ,v112
 .byte   N06 ,Gs3
 .byte   W12
 .byte   N12 ,Fn3
 .byte   N12 ,Gs3
 .byte   W12
 .byte   Gn3
 .byte   N12 ,As3
 .byte   W24
 .byte   Gs3
 .byte   N12 ,Cn4
 .byte   W12
 .byte   Gs3
 .byte   N12 ,Cn4
 .byte   W12
 .byte   Gs3
 .byte   N12 ,Cn4
 .byte   W24
 .byte   PEND 
@ 139   ----------------------------------------
 .byte   PATT
  .word Label_1_014ADAEC
@ 140   ----------------------------------------
 .byte   PATT
  .word Label_1_014ADAEC
@ 141   ----------------------------------------
 .byte   PATT
  .word Label_1_014ADAEC
@ 142   ----------------------------------------
 .byte   PATT
  .word Label_1_014ADAEC
@ 143   ----------------------------------------
 .byte   PATT
  .word Label_1_014ADAEC
@ 144   ----------------------------------------
 .byte   PATT
  .word Label_1_014ADAEC
@ 145   ----------------------------------------
 .byte   PATT
  .word Label_1_014ADAEC
@ 146   ----------------------------------------
 .byte   PATT
  .word Label_1_014ADAEC
@ 147   ----------------------------------------
 .byte   PATT
  .word Label_1_014ADAEC
@ 148   ----------------------------------------
 .byte   PATT
  .word Label_1_014ADAEC
@ 149   ----------------------------------------
 .byte   PATT
  .word Label_1_014ADAEC
@ 150   ----------------------------------------
 .byte   PATT
  .word Label_1_014ADAEC
@ 151   ----------------------------------------
 .byte   PATT
  .word Label_1_014ADAEC
@ 152   ----------------------------------------
 .byte   PATT
  .word Label_1_014ADAEC
@ 153   ----------------------------------------
 .byte   PATT
  .word Label_1_014ADAEC
@ 154   ----------------------------------------
 .byte   N06 ,Fn3 ,v112
 .byte   N06 ,Gs3
 .byte   W12
 .byte   N12 ,Fn3
 .byte   N12 ,Gs3
 .byte   W12
 .byte   Gn3
 .byte   N12 ,As3
 .byte   W72
@ 155   ----------------------------------------
 .byte   W96
@ 156   ----------------------------------------
 .byte   W96
@ 157   ----------------------------------------
 .byte   W96
@ 158   ----------------------------------------
 .byte   W96
@ 159   ----------------------------------------
 .byte   W96
@ 160   ----------------------------------------
 .byte   W96
@ 161   ----------------------------------------
 .byte   W96
@ 162   ----------------------------------------
 .byte   W96
@ 163   ----------------------------------------
 .byte   W96
@ 164   ----------------------------------------
 .byte   W96
@ 165   ----------------------------------------
 .byte   W96
@ 166   ----------------------------------------
 .byte   W96
@ 167   ----------------------------------------
 .byte   W96
@ 168   ----------------------------------------
 .byte   W96
@ 169   ----------------------------------------
 .byte   W48
 .byte   N18 ,Gn3
 .byte   N18 ,Cn4
 .byte   W24
 .byte   N06 ,Fn3
 .byte   N06 ,Gn3
 .byte   W06
 .byte   Fn3
 .byte   N06 ,Gn3
 .byte   W06
 .byte   N12
 .byte   N12 ,Cn4
 .byte   W12
@ 170   ----------------------------------------
 .byte   N18 ,Gn3
 .byte   N18 ,Cn4
 .byte   W24
 .byte   N06 ,Fn3
 .byte   N06 ,Gn3
 .byte   W06
 .byte   Fn3
 .byte   N06 ,Gn3
 .byte   W06
 .byte   N12
 .byte   N12 ,Cn4
 .byte   W12
 .byte   Gs3
 .byte   N12 ,Cn4
 .byte   W12
 .byte   Gs3
 .byte   N12 ,Cn4
 .byte   W12
 .byte   Gs3
 .byte   N12 ,Cn4
 .byte   W24
@ 171   ----------------------------------------
 .byte   PATT
  .word Label_1_014ADAEC
@ 172   ----------------------------------------
 .byte   PATT
  .word Label_1_014ADAEC
@ 173   ----------------------------------------
 .byte   PATT
  .word Label_1_014ADAEC
@ 174   ----------------------------------------
 .byte   PATT
  .word Label_1_014ADAEC
@ 175   ----------------------------------------
 .byte   PATT
  .word Label_1_014ADAEC
@ 176   ----------------------------------------
 .byte   PATT
  .word Label_1_014ADAEC
@ 177   ----------------------------------------
 .byte   PATT
  .word Label_1_014ADAEC
@ 178   ----------------------------------------
 .byte   PATT
  .word Label_1_014ADAEC
@ 179   ----------------------------------------
 .byte   PATT
  .word Label_1_014ADAEC
@ 180   ----------------------------------------
 .byte   PATT
  .word Label_1_014ADAEC
@ 181   ----------------------------------------
 .byte   PATT
  .word Label_1_014ADAEC
@ 182   ----------------------------------------
 .byte   PATT
  .word Label_1_014ADAEC
@ 183   ----------------------------------------
 .byte   PATT
  .word Label_1_014ADAEC
@ 184   ----------------------------------------
 .byte   PATT
  .word Label_1_014ADAEC
@ 185   ----------------------------------------
 .byte   PATT
  .word Label_1_014ADAEC
@ 186   ----------------------------------------
 .byte   N06 ,Fn3 ,v112
 .byte   N06 ,Gs3
 .byte   W12
 .byte   N12 ,Fn3
 .byte   N12 ,Gs3
 .byte   W12
 .byte   Gn3
 .byte   N12 ,As3
 .byte   W36
 .byte   Gs3 ,v127
 .byte   N12 ,Cn4
 .byte   N12 ,En4
 .byte   W18
 .byte   N18 ,Gs3
 .byte   N18 ,Cn4
 .byte   N18 ,En4
 .byte   W18
@ 187   ----------------------------------------
 .byte   W12
 .byte   N12 ,Gs3
 .byte   N12 ,Cn4
 .byte   N12 ,En4
 .byte   W18
 .byte   N18 ,Gs3
 .byte   N18 ,Cn4
 .byte   N18 ,En4
 .byte   W30
 .byte   N12 ,Gs3
 .byte   N12 ,Cn4
 .byte   N12 ,Ds4
 .byte   W18
 .byte   N18 ,Gs3
 .byte   N18 ,Cn4
 .byte   N18 ,Ds4
 .byte   W18
@ 188   ----------------------------------------
 .byte   W12
 .byte   N12 ,Gs3
 .byte   N12 ,Cn4
 .byte   N12 ,Ds4
 .byte   W18
 .byte   N18 ,Gs3
 .byte   N18 ,Cn4
 .byte   N18 ,Ds4
 .byte   W66
@ 189   ----------------------------------------
 .byte   W96
@ 190   ----------------------------------------
 .byte   W96
@ 191   ----------------------------------------
 .byte   W96
@ 192   ----------------------------------------
 .byte   W96
@ 193   ----------------------------------------
 .byte   W96
@ 194   ----------------------------------------
 .byte   W96
@ 195   ----------------------------------------
 .byte   W96
@ 196   ----------------------------------------
 .byte   W96
@ 197   ----------------------------------------
 .byte   W96
@ 198   ----------------------------------------
 .byte   W96
@ 199   ----------------------------------------
 .byte   W96
@ 200   ----------------------------------------
 .byte   W96
@ 201   ----------------------------------------
 .byte   W96
@ 202   ----------------------------------------
 .byte   W96
@ 203   ----------------------------------------
 .byte   W96
@ 204   ----------------------------------------
 .byte   W48
 .byte   GOTO
  .word Label_1_014AD612
 .byte   FINE

@**************** Track 3 (Midi-Chn.2) ****************@

songC6_003:
@ 000   ----------------------------------------
 .byte   KEYSH , songC6_key+0
Label_2_01476406:
 .byte   VOICE , 1
 .byte   VOL , 30*songC6_mvl/mxv
 .byte   PAN , c_v+12
 .byte   W96
@ 001   ----------------------------------------
 .byte   W96
@ 002   ----------------------------------------
 .byte   W96
@ 003   ----------------------------------------
 .byte   W96
@ 004   ----------------------------------------
 .byte   W96
@ 005   ----------------------------------------
 .byte   W96
@ 006   ----------------------------------------
 .byte   W96
@ 007   ----------------------------------------
 .byte   W96
@ 008   ----------------------------------------
 .byte   W96
@ 009   ----------------------------------------
 .byte   W96
@ 010   ----------------------------------------
 .byte   W96
@ 011   ----------------------------------------
 .byte   W96
@ 012   ----------------------------------------
 .byte   W96
@ 013   ----------------------------------------
 .byte   W96
@ 014   ----------------------------------------
 .byte   W96
@ 015   ----------------------------------------
 .byte   W96
@ 016   ----------------------------------------
 .byte   W96
@ 017   ----------------------------------------
 .byte   W96
@ 018   ----------------------------------------
 .byte   W96
@ 019   ----------------------------------------
 .byte   W96
@ 020   ----------------------------------------
 .byte   W96
@ 021   ----------------------------------------
 .byte   W96
@ 022   ----------------------------------------
 .byte   W96
@ 023   ----------------------------------------
 .byte   W96
@ 024   ----------------------------------------
 .byte   W96
@ 025   ----------------------------------------
 .byte   W96
@ 026   ----------------------------------------
 .byte   W96
@ 027   ----------------------------------------
 .byte   W96
@ 028   ----------------------------------------
 .byte   W96
@ 029   ----------------------------------------
 .byte   W96
@ 030   ----------------------------------------
 .byte   W96
@ 031   ----------------------------------------
 .byte   W96
@ 032   ----------------------------------------
 .byte   W96
@ 033   ----------------------------------------
 .byte   W96
@ 034   ----------------------------------------
 .byte   W96
@ 035   ----------------------------------------
 .byte   W96
@ 036   ----------------------------------------
 .byte   W96
@ 037   ----------------------------------------
 .byte   W96
@ 038   ----------------------------------------
 .byte   W96
@ 039   ----------------------------------------
Label_2_01476433:
 .byte   N11 ,Bn3 ,v092
 .byte   N11 ,Bn4
 .byte   W12
 .byte   En4
 .byte   N11 ,En5
 .byte   W12
 .byte   Fs4
 .byte   N11 ,Fs5
 .byte   W12
 .byte   Gs4
 .byte   N11 ,Gs5
 .byte   W12
 .byte   N32 ,Bn4
 .byte   N32 ,Bn5
 .byte   W48
 .byte   PEND 
@ 040   ----------------------------------------
Label_2_0147644B:
 .byte   W12
 .byte   N11 ,Cs5 ,v092
 .byte   N11 ,Cs6
 .byte   W12
 .byte   Bn4
 .byte   N11 ,Bn5
 .byte   W12
 .byte   En4
 .byte   N11 ,En5
 .byte   W12
 .byte   N32 ,Gs4
 .byte   N32 ,Gs5
 .byte   W48
 .byte   PEND 
@ 041   ----------------------------------------
Label_2_01476460:
 .byte   N11 ,Gs4 ,v092
 .byte   N11 ,Gs5
 .byte   W12
 .byte   Fs4
 .byte   N11 ,Fs5
 .byte   W12
 .byte   En4
 .byte   N11 ,En5
 .byte   W24
 .byte   N32 ,Fs4
 .byte   N32 ,Fs5
 .byte   W48
 .byte   PEND 
@ 042   ----------------------------------------
Label_2_01476474:
 .byte   W12
 .byte   N11 ,Bn4 ,v092
 .byte   N11 ,Bn5
 .byte   W12
 .byte   Fs4
 .byte   N11 ,Fs5
 .byte   W12
 .byte   Ds4
 .byte   N11 ,Ds5
 .byte   W12
 .byte   N32 ,En4
 .byte   N32 ,En5
 .byte   W48
 .byte   PEND 
@ 043   ----------------------------------------
Label_2_01476489:
 .byte   N11 ,Cs4 ,v092
 .byte   N11 ,Cs5
 .byte   W12
 .byte   Ds4
 .byte   N11 ,Ds5
 .byte   W12
 .byte   En4
 .byte   N11 ,En5
 .byte   W12
 .byte   Gs4
 .byte   N11 ,Gs5
 .byte   W12
 .byte   N44 ,Cs5
 .byte   N44 ,Cs6
 .byte   W48
 .byte   PEND 
@ 044   ----------------------------------------
Label_2_014764A1:
 .byte   W48
 .byte   N32 ,Ds5 ,v092
 .byte   N32 ,Ds6
 .byte   W48
 .byte   PEND 
@ 045   ----------------------------------------
Label_2_014764A9:
 .byte   N11 ,As4 ,v092
 .byte   N11 ,As5
 .byte   W24
 .byte   Cs5
 .byte   N11 ,Cs6
 .byte   W24
 .byte   N32 ,Cs5
 .byte   N32 ,Cs6
 .byte   W48
 .byte   PEND 
@ 046   ----------------------------------------
Label_2_014764B9:
 .byte   W12
 .byte   N11 ,Cn5 ,v092
 .byte   N11 ,Cn6
 .byte   W12
 .byte   Cs5
 .byte   N11 ,Cs6
 .byte   W12
 .byte   N44 ,Ds5
 .byte   N44 ,Ds6
 .byte   W60
 .byte   PEND 
@ 047   ----------------------------------------
 .byte   W96
@ 048   ----------------------------------------
 .byte   W96
@ 049   ----------------------------------------
 .byte   W96
@ 050   ----------------------------------------
 .byte   W96
@ 051   ----------------------------------------
 .byte   W96
@ 052   ----------------------------------------
 .byte   W96
@ 053   ----------------------------------------
 .byte   W96
@ 054   ----------------------------------------
 .byte   W96
@ 055   ----------------------------------------
 .byte   W96
@ 056   ----------------------------------------
 .byte   W96
@ 057   ----------------------------------------
 .byte   W96
@ 058   ----------------------------------------
 .byte   W96
@ 059   ----------------------------------------
 .byte   W96
@ 060   ----------------------------------------
 .byte   W96
@ 061   ----------------------------------------
 .byte   W96
@ 062   ----------------------------------------
 .byte   W96
@ 063   ----------------------------------------
 .byte   W96
@ 064   ----------------------------------------
 .byte   W96
@ 065   ----------------------------------------
 .byte   W96
@ 066   ----------------------------------------
 .byte   W96
@ 067   ----------------------------------------
 .byte   W96
@ 068   ----------------------------------------
 .byte   W96
@ 069   ----------------------------------------
 .byte   W96
@ 070   ----------------------------------------
 .byte   W96
@ 071   ----------------------------------------
 .byte   W96
@ 072   ----------------------------------------
 .byte   W96
@ 073   ----------------------------------------
 .byte   W96
@ 074   ----------------------------------------
 .byte   W96
@ 075   ----------------------------------------
 .byte   W96
@ 076   ----------------------------------------
 .byte   W96
@ 077   ----------------------------------------
 .byte   W96
@ 078   ----------------------------------------
 .byte   W96
@ 079   ----------------------------------------
 .byte   W96
@ 080   ----------------------------------------
 .byte   W96
@ 081   ----------------------------------------
 .byte   W96
@ 082   ----------------------------------------
 .byte   W96
@ 083   ----------------------------------------
 .byte   W96
@ 084   ----------------------------------------
 .byte   W96
@ 085   ----------------------------------------
 .byte   W96
@ 086   ----------------------------------------
 .byte   W96
@ 087   ----------------------------------------
 .byte   W96
@ 088   ----------------------------------------
 .byte   W96
@ 089   ----------------------------------------
 .byte   W96
@ 090   ----------------------------------------
 .byte   W96
@ 091   ----------------------------------------
 .byte   W96
@ 092   ----------------------------------------
 .byte   W96
@ 093   ----------------------------------------
 .byte   W96
@ 094   ----------------------------------------
 .byte   W96
@ 095   ----------------------------------------
 .byte   W96
@ 096   ----------------------------------------
 .byte   W48
 .byte   N05 ,Fs5 ,v072
 .byte   W06
 .byte   Bn5
 .byte   W06
 .byte   Fn5 ,v076
 .byte   W06
 .byte   Bn5
 .byte   W06
 .byte   Fn5
 .byte   W06
 .byte   As5 ,v080
 .byte   W06
 .byte   En5
 .byte   W06
 .byte   As5
 .byte   W06
@ 097   ----------------------------------------
 .byte   En5 ,v084
 .byte   W06
 .byte   An5
 .byte   W06
 .byte   Ds5
 .byte   W06
 .byte   An5 ,v088
 .byte   W06
 .byte   Ds5
 .byte   W06
 .byte   Gs5
 .byte   W06
 .byte   Dn5 ,v092
 .byte   W06
 .byte   Gs5
 .byte   W54
@ 098   ----------------------------------------
 .byte   W96
@ 099   ----------------------------------------
 .byte   W96
@ 100   ----------------------------------------
 .byte   W96
@ 101   ----------------------------------------
 .byte   W96
@ 102   ----------------------------------------
 .byte   W96
@ 103   ----------------------------------------
 .byte   W96
@ 104   ----------------------------------------
 .byte   W96
@ 105   ----------------------------------------
 .byte   W96
@ 106   ----------------------------------------
 .byte   W96
@ 107   ----------------------------------------
 .byte   W96
@ 108   ----------------------------------------
 .byte   W96
@ 109   ----------------------------------------
 .byte   W96
@ 110   ----------------------------------------
 .byte   W96
@ 111   ----------------------------------------
 .byte   W96
@ 112   ----------------------------------------
 .byte   W96
@ 113   ----------------------------------------
 .byte   PATT
  .word Label_2_01476433
@ 114   ----------------------------------------
 .byte   PATT
  .word Label_2_0147644B
@ 115   ----------------------------------------
 .byte   PATT
  .word Label_2_01476460
@ 116   ----------------------------------------
 .byte   PATT
  .word Label_2_01476474
@ 117   ----------------------------------------
 .byte   PATT
  .word Label_2_01476489
@ 118   ----------------------------------------
 .byte   PATT
  .word Label_2_014764A1
@ 119   ----------------------------------------
 .byte   PATT
  .word Label_2_014764A9
@ 120   ----------------------------------------
 .byte   PATT
  .word Label_2_014764B9
@ 121   ----------------------------------------
 .byte   W48
 .byte   N44 ,En5 ,v092
 .byte   N44 ,En6
 .byte   W48
@ 122   ----------------------------------------
 .byte   W96
@ 123   ----------------------------------------
 .byte   W96
@ 124   ----------------------------------------
 .byte   W96
@ 125   ----------------------------------------
 .byte   W96
@ 126   ----------------------------------------
 .byte   W96
@ 127   ----------------------------------------
 .byte   W96
@ 128   ----------------------------------------
 .byte   W96
@ 129   ----------------------------------------
 .byte   W96
@ 130   ----------------------------------------
 .byte   W96
@ 131   ----------------------------------------
 .byte   W96
@ 132   ----------------------------------------
 .byte   W96
@ 133   ----------------------------------------
 .byte   W96
@ 134   ----------------------------------------
 .byte   W96
@ 135   ----------------------------------------
 .byte   W96
@ 136   ----------------------------------------
 .byte   W96
@ 137   ----------------------------------------
 .byte   W96
@ 138   ----------------------------------------
 .byte   W96
@ 139   ----------------------------------------
 .byte   W96
@ 140   ----------------------------------------
 .byte   W96
@ 141   ----------------------------------------
 .byte   W96
@ 142   ----------------------------------------
 .byte   W96
@ 143   ----------------------------------------
 .byte   W96
@ 144   ----------------------------------------
 .byte   W96
@ 145   ----------------------------------------
 .byte   W96
@ 146   ----------------------------------------
 .byte   W96
@ 147   ----------------------------------------
 .byte   W96
@ 148   ----------------------------------------
 .byte   W96
@ 149   ----------------------------------------
 .byte   W96
@ 150   ----------------------------------------
 .byte   W96
@ 151   ----------------------------------------
 .byte   W96
@ 152   ----------------------------------------
 .byte   W96
@ 153   ----------------------------------------
 .byte   W96
@ 154   ----------------------------------------
 .byte   W96
@ 155   ----------------------------------------
 .byte   W96
@ 156   ----------------------------------------
 .byte   W96
@ 157   ----------------------------------------
 .byte   W96
@ 158   ----------------------------------------
 .byte   W96
@ 159   ----------------------------------------
 .byte   W96
@ 160   ----------------------------------------
 .byte   W96
@ 161   ----------------------------------------
 .byte   W96
@ 162   ----------------------------------------
 .byte   W96
@ 163   ----------------------------------------
 .byte   W96
@ 164   ----------------------------------------
 .byte   W96
@ 165   ----------------------------------------
 .byte   W96
@ 166   ----------------------------------------
 .byte   W96
@ 167   ----------------------------------------
 .byte   W96
@ 168   ----------------------------------------
 .byte   W96
@ 169   ----------------------------------------
 .byte   W96
@ 170   ----------------------------------------
 .byte   W96
@ 171   ----------------------------------------
 .byte   W96
@ 172   ----------------------------------------
 .byte   W96
@ 173   ----------------------------------------
 .byte   W96
@ 174   ----------------------------------------
 .byte   W96
@ 175   ----------------------------------------
 .byte   W96
@ 176   ----------------------------------------
 .byte   W96
@ 177   ----------------------------------------
 .byte   W96
@ 178   ----------------------------------------
 .byte   W96
@ 179   ----------------------------------------
 .byte   W96
@ 180   ----------------------------------------
 .byte   W96
@ 181   ----------------------------------------
 .byte   W96
@ 182   ----------------------------------------
 .byte   W96
@ 183   ----------------------------------------
 .byte   W96
@ 184   ----------------------------------------
 .byte   W96
@ 185   ----------------------------------------
 .byte   W96
@ 186   ----------------------------------------
 .byte   W96
@ 187   ----------------------------------------
 .byte   W96
@ 188   ----------------------------------------
 .byte   W96
@ 189   ----------------------------------------
 .byte   W96
@ 190   ----------------------------------------
 .byte   W96
@ 191   ----------------------------------------
 .byte   W96
@ 192   ----------------------------------------
 .byte   W96
@ 193   ----------------------------------------
 .byte   W96
@ 194   ----------------------------------------
 .byte   W96
@ 195   ----------------------------------------
 .byte   W96
@ 196   ----------------------------------------
 .byte   W96
@ 197   ----------------------------------------
 .byte   W96
@ 198   ----------------------------------------
 .byte   W96
@ 199   ----------------------------------------
 .byte   W96
@ 200   ----------------------------------------
 .byte   W96
@ 201   ----------------------------------------
 .byte   W96
@ 202   ----------------------------------------
 .byte   W96
@ 203   ----------------------------------------
 .byte   W96
@ 204   ----------------------------------------
 .byte   W48
 .byte   GOTO
  .word Label_2_01476406
 .byte   FINE

@**************** Track 4 (Midi-Chn.3) ****************@

songC6_004:
@ 000   ----------------------------------------
 .byte   KEYSH , songC6_key+0
Label_3_01476762:
 .byte   VOICE , 34
 .byte   PAN , c_v+0
 .byte   VOL , 32*songC6_mvl/mxv
 .byte   W96
@ 001   ----------------------------------------
 .byte   W96
@ 002   ----------------------------------------
 .byte   W96
@ 003   ----------------------------------------
 .byte   W96
@ 004   ----------------------------------------
 .byte   W96
@ 005   ----------------------------------------
 .byte   W96
@ 006   ----------------------------------------
 .byte   W96
@ 007   ----------------------------------------
 .byte   W96
@ 008   ----------------------------------------
 .byte   W96
@ 009   ----------------------------------------
 .byte   W96
@ 010   ----------------------------------------
 .byte   W96
@ 011   ----------------------------------------
 .byte   W96
@ 012   ----------------------------------------
 .byte   W96
@ 013   ----------------------------------------
 .byte   W96
@ 014   ----------------------------------------
 .byte   W48
 .byte   N05 ,Gs0 ,v068
 .byte   W12
 .byte   N05
 .byte   W12
 .byte   N05
 .byte   W24
@ 015   ----------------------------------------
 .byte   N05
 .byte   W12
 .byte   N05
 .byte   W12
 .byte   Gs0 ,v076
 .byte   W12
 .byte   Gs0 ,v080
 .byte   W12
 .byte   N11 ,Cs1
 .byte   W24
 .byte   Fs1
 .byte   W12
 .byte   Gs1
 .byte   W12
@ 016   ----------------------------------------
Label_3_01476790:
 .byte   N11 ,Cs1 ,v080
 .byte   W24
 .byte   Fs1
 .byte   W12
 .byte   Gs1
 .byte   W12
 .byte   Cs1
 .byte   W24
 .byte   Fs1
 .byte   W12
 .byte   Gs1
 .byte   W12
 .byte   PEND 
@ 017   ----------------------------------------
Label_3_0147679F:
 .byte   N11 ,Cs1 ,v080
 .byte   W24
 .byte   Fs1
 .byte   W12
 .byte   Gs1
 .byte   W12
 .byte   An0
 .byte   W24
 .byte   Ds1
 .byte   W12
 .byte   En1
 .byte   W12
 .byte   PEND 
@ 018   ----------------------------------------
Label_3_014767AE:
 .byte   N11 ,An0 ,v080
 .byte   W24
 .byte   Ds1
 .byte   W12
 .byte   En1
 .byte   W12
 .byte   An0
 .byte   W24
 .byte   Ds1
 .byte   W12
 .byte   En1
 .byte   W12
 .byte   PEND 
@ 019   ----------------------------------------
Label_3_014767BD:
 .byte   N11 ,An0 ,v080
 .byte   W24
 .byte   Fs1
 .byte   W12
 .byte   Gs1
 .byte   W12
 .byte   Cs1
 .byte   W24
 .byte   Fs1
 .byte   W12
 .byte   Gs1
 .byte   W12
 .byte   PEND 
@ 020   ----------------------------------------
 .byte   PATT
  .word Label_3_01476790
@ 021   ----------------------------------------
 .byte   PATT
  .word Label_3_0147679F
@ 022   ----------------------------------------
 .byte   PATT
  .word Label_3_014767AE
@ 023   ----------------------------------------
 .byte   PATT
  .word Label_3_014767BD
@ 024   ----------------------------------------
 .byte   PATT
  .word Label_3_01476790
@ 025   ----------------------------------------
 .byte   PATT
  .word Label_3_0147679F
@ 026   ----------------------------------------
 .byte   PATT
  .word Label_3_014767AE
@ 027   ----------------------------------------
Label_3_014767EF:
 .byte   N11 ,An0 ,v080
 .byte   W24
 .byte   Ds1
 .byte   W12
 .byte   En1
 .byte   W12
 .byte   Gs0
 .byte   W24
 .byte   Ds1
 .byte   W12
 .byte   En1
 .byte   W12
 .byte   PEND 
@ 028   ----------------------------------------
Label_3_014767FE:
 .byte   N23 ,Gs1 ,v080
 .byte   W24
 .byte   Ds1
 .byte   W24
 .byte   N11 ,Gs0
 .byte   W24
 .byte   Ds1
 .byte   W12
 .byte   En1
 .byte   W12
 .byte   PEND 
@ 029   ----------------------------------------
Label_3_0147680C:
 .byte   N23 ,Ds1 ,v080
 .byte   W24
 .byte   Bn0
 .byte   W24
 .byte   N11 ,An0
 .byte   W24
 .byte   Ds1
 .byte   W12
 .byte   En1
 .byte   W12
 .byte   PEND 
@ 030   ----------------------------------------
 .byte   PATT
  .word Label_3_014767EF
@ 031   ----------------------------------------
Label_3_0147681F:
 .byte   N11 ,Gs0 ,v080
 .byte   W12
 .byte   N05 ,Bn0
 .byte   W06
 .byte   Cs1
 .byte   W06
 .byte   N11 ,Ds1
 .byte   W12
 .byte   N05 ,Gs1
 .byte   W06
 .byte   Gs0
 .byte   W06
 .byte   N11 ,Cs1
 .byte   W24
 .byte   Fs1
 .byte   W12
 .byte   Gs1
 .byte   W12
 .byte   PEND 
@ 032   ----------------------------------------
 .byte   PATT
  .word Label_3_01476790
@ 033   ----------------------------------------
 .byte   PATT
  .word Label_3_0147679F
@ 034   ----------------------------------------
 .byte   PATT
  .word Label_3_014767AE
@ 035   ----------------------------------------
 .byte   PATT
  .word Label_3_014767EF
@ 036   ----------------------------------------
 .byte   PATT
  .word Label_3_014767FE
@ 037   ----------------------------------------
Label_3_01476851:
 .byte   N23 ,Ds1 ,v080
 .byte   W24
 .byte   Bn0
 .byte   W24
 .byte   N11 ,Cs1
 .byte   W24
 .byte   Fs1
 .byte   W12
 .byte   Gs1
 .byte   W12
 .byte   PEND 
@ 038   ----------------------------------------
Label_3_0147685F:
 .byte   N11 ,Cs1 ,v080
 .byte   W24
 .byte   Fs1
 .byte   W12
 .byte   Gs1
 .byte   W12
 .byte   Cs1
 .byte   W24
 .byte   Ds1
 .byte   W12
 .byte   En1
 .byte   W12
 .byte   PEND 
@ 039   ----------------------------------------
Label_3_0147686E:
 .byte   N23 ,Gs0 ,v080
 .byte   W24
 .byte   N11 ,Fs1
 .byte   W12
 .byte   Gs1
 .byte   W12
 .byte   En1
 .byte   W18
 .byte   N05
 .byte   W06
 .byte   N11 ,Bn0
 .byte   W12
 .byte   N05 ,En1
 .byte   W06
 .byte   N05
 .byte   W06
 .byte   PEND 
@ 040   ----------------------------------------
Label_3_01476884:
 .byte   W48
 .byte   N11 ,An1 ,v080
 .byte   W18
 .byte   N05
 .byte   W06
 .byte   N11 ,En1
 .byte   W12
 .byte   N05 ,An1
 .byte   W06
 .byte   N05
 .byte   W06
 .byte   PEND 
@ 041   ----------------------------------------
Label_3_01476894:
 .byte   W48
 .byte   N11 ,Gs1 ,v080
 .byte   W18
 .byte   N05
 .byte   W06
 .byte   N11 ,Gs0
 .byte   W12
 .byte   N05 ,Gs1
 .byte   W06
 .byte   N05
 .byte   W06
 .byte   PEND 
@ 042   ----------------------------------------
Label_3_014768A4:
 .byte   W48
 .byte   N11 ,Cs2 ,v080
 .byte   W18
 .byte   N05
 .byte   W06
 .byte   Cs1
 .byte   W06
 .byte   Gs1
 .byte   W06
 .byte   N11 ,Cs2
 .byte   W12
 .byte   PEND 
@ 043   ----------------------------------------
Label_3_014768B3:
 .byte   N05 ,Bn1 ,v080
 .byte   W18
 .byte   N05
 .byte   W06
 .byte   Cs1
 .byte   W06
 .byte   Fs1
 .byte   W06
 .byte   N11 ,Bn1
 .byte   W12
 .byte   As1
 .byte   W18
 .byte   N05
 .byte   W06
 .byte   N11 ,Fn1
 .byte   W12
 .byte   N05 ,As1
 .byte   W06
 .byte   N05
 .byte   W06
 .byte   PEND 
@ 044   ----------------------------------------
Label_3_014768CD:
 .byte   W48
 .byte   N11 ,Ds2 ,v080
 .byte   W18
 .byte   N05
 .byte   W06
 .byte   N11 ,As1
 .byte   W12
 .byte   N05 ,Ds2
 .byte   W06
 .byte   N05
 .byte   W06
 .byte   PEND 
@ 045   ----------------------------------------
Label_3_014768DD:
 .byte   W12
 .byte   N05 ,Ds2 ,v080
 .byte   W12
 .byte   Cs2
 .byte   W12
 .byte   As1
 .byte   W12
 .byte   N17 ,Gs1
 .byte   W18
 .byte   N05
 .byte   W06
 .byte   Ds1
 .byte   W06
 .byte   Fs1
 .byte   W06
 .byte   Gs1
 .byte   W06
 .byte   Ds1
 .byte   W06
 .byte   PEND 
@ 046   ----------------------------------------
Label_3_014768F4:
 .byte   N17 ,Gs1 ,v080
 .byte   W18
 .byte   N05
 .byte   W06
 .byte   Ds1
 .byte   W06
 .byte   Fs1
 .byte   W06
 .byte   Gs1
 .byte   W06
 .byte   Ds1
 .byte   W06
 .byte   N17 ,As1
 .byte   W18
 .byte   N05
 .byte   W06
 .byte   Fn1
 .byte   W06
 .byte   Gs1
 .byte   W06
 .byte   As1
 .byte   W06
 .byte   Gs1
 .byte   W06
 .byte   PEND 
@ 047   ----------------------------------------
 .byte   N17 ,As1
 .byte   W18
 .byte   N05
 .byte   W06
 .byte   Fn1
 .byte   W06
 .byte   As1
 .byte   W06
 .byte   Ds2
 .byte   W06
 .byte   As1
 .byte   W06
 .byte   N17 ,Ds1
 .byte   W18
 .byte   As1
 .byte   W18
 .byte   N11 ,Fn2
 .byte   W12
@ 048   ----------------------------------------
Label_3_01476925:
 .byte   N23 ,Ds2 ,v080
 .byte   W24
 .byte   N11 ,As1
 .byte   W12
 .byte   Fs1
 .byte   W12
 .byte   N17 ,Ds1
 .byte   W18
 .byte   As1
 .byte   W18
 .byte   N11 ,Dn2
 .byte   W12
 .byte   PEND 
@ 049   ----------------------------------------
Label_3_01476937:
 .byte   N23 ,Ds2 ,v080
 .byte   W24
 .byte   N11 ,As1
 .byte   W12
 .byte   Fs1
 .byte   W12
 .byte   N17 ,Bn0
 .byte   W18
 .byte   Fs1
 .byte   W18
 .byte   N11 ,Cs2
 .byte   W12
 .byte   PEND 
@ 050   ----------------------------------------
Label_3_01476949:
 .byte   N23 ,Bn1 ,v080
 .byte   W24
 .byte   N11 ,As1
 .byte   W12
 .byte   Fs1
 .byte   W12
 .byte   N17 ,Bn0
 .byte   W18
 .byte   Fs1
 .byte   W18
 .byte   N23 ,Bn1
 .byte   W12
 .byte   PEND 
@ 051   ----------------------------------------
Label_3_0147695B:
 .byte   W12
 .byte   N11 ,As1 ,v080
 .byte   W12
 .byte   Fs1
 .byte   W12
 .byte   Ds1
 .byte   W12
 .byte   N17 ,Gs0
 .byte   W18
 .byte   Ds1
 .byte   W18
 .byte   N11 ,As1
 .byte   W12
 .byte   PEND 
@ 052   ----------------------------------------
Label_3_0147696D:
 .byte   N23 ,Gs1 ,v080
 .byte   W24
 .byte   N11 ,Ds1
 .byte   W12
 .byte   Bn0
 .byte   W12
 .byte   N17 ,Gs0
 .byte   W18
 .byte   Ds1
 .byte   W18
 .byte   N11 ,Fs1
 .byte   W12
 .byte   PEND 
@ 053   ----------------------------------------
Label_3_0147697F:
 .byte   N23 ,Gs1 ,v080
 .byte   W24
 .byte   N11 ,Fn1
 .byte   W12
 .byte   Cs1
 .byte   W12
 .byte   N17 ,Ds1
 .byte   W18
 .byte   As0
 .byte   W18
 .byte   N11 ,Fn1
 .byte   W12
 .byte   PEND 
@ 054   ----------------------------------------
Label_3_01476991:
 .byte   N23 ,Ds1 ,v080
 .byte   W24
 .byte   N11 ,As0
 .byte   W12
 .byte   Fs0
 .byte   W12
 .byte   N17 ,Gs0
 .byte   W18
 .byte   Bn0
 .byte   W18
 .byte   N11 ,Dn1
 .byte   W12
 .byte   PEND 
@ 055   ----------------------------------------
Label_3_014769A3:
 .byte   N23 ,As0 ,v080
 .byte   W24
 .byte   N11 ,Fn1
 .byte   W12
 .byte   As0
 .byte   W12
 .byte   N17 ,Ds1
 .byte   W18
 .byte   As1
 .byte   W18
 .byte   N11 ,Fn2
 .byte   W12
 .byte   PEND 
@ 056   ----------------------------------------
 .byte   PATT
  .word Label_3_01476925
@ 057   ----------------------------------------
 .byte   PATT
  .word Label_3_01476937
@ 058   ----------------------------------------
 .byte   PATT
  .word Label_3_01476949
@ 059   ----------------------------------------
 .byte   PATT
  .word Label_3_0147695B
@ 060   ----------------------------------------
 .byte   PATT
  .word Label_3_0147696D
@ 061   ----------------------------------------
 .byte   PATT
  .word Label_3_0147697F
@ 062   ----------------------------------------
Label_3_014769D3:
 .byte   N23 ,Ds1 ,v080
 .byte   W24
 .byte   N11 ,As0
 .byte   W12
 .byte   Fs0
 .byte   W12
 .byte   N17 ,Ds1
 .byte   W18
 .byte   As0
 .byte   W18
 .byte   N11 ,Fn1
 .byte   W12
 .byte   PEND 
@ 063   ----------------------------------------
 .byte   N23 ,Ds1
 .byte   W24
 .byte   N11 ,As0
 .byte   W12
 .byte   Fs0
 .byte   W12
 .byte   N17 ,Ds1
 .byte   W18
 .byte   As1
 .byte   W18
 .byte   N11 ,Fn2
 .byte   W12
@ 064   ----------------------------------------
 .byte   PATT
  .word Label_3_01476925
@ 065   ----------------------------------------
 .byte   PATT
  .word Label_3_01476937
@ 066   ----------------------------------------
 .byte   PATT
  .word Label_3_01476949
@ 067   ----------------------------------------
 .byte   PATT
  .word Label_3_0147695B
@ 068   ----------------------------------------
 .byte   PATT
  .word Label_3_0147696D
@ 069   ----------------------------------------
 .byte   PATT
  .word Label_3_0147697F
@ 070   ----------------------------------------
 .byte   PATT
  .word Label_3_01476991
@ 071   ----------------------------------------
 .byte   PATT
  .word Label_3_014769A3
@ 072   ----------------------------------------
 .byte   PATT
  .word Label_3_01476925
@ 073   ----------------------------------------
 .byte   PATT
  .word Label_3_01476937
@ 074   ----------------------------------------
 .byte   PATT
  .word Label_3_01476949
@ 075   ----------------------------------------
 .byte   PATT
  .word Label_3_0147695B
@ 076   ----------------------------------------
 .byte   PATT
  .word Label_3_0147696D
@ 077   ----------------------------------------
 .byte   PATT
  .word Label_3_0147697F
@ 078   ----------------------------------------
 .byte   PATT
  .word Label_3_014769D3
@ 079   ----------------------------------------
 .byte   N23 ,Ds1 ,v080
 .byte   W24
 .byte   N11 ,As0
 .byte   W12
 .byte   Fs0
 .byte   W12
 .byte   N92 ,Dn0
 .byte   W48
@ 080   ----------------------------------------
 .byte   W48
 .byte   Cs0
 .byte   W48
@ 081   ----------------------------------------
 .byte   W48
 .byte   N11
 .byte   W48
@ 082   ----------------------------------------
Label_3_01476A52:
 .byte   N11 ,Cs0 ,v080
 .byte   W48
 .byte   N11
 .byte   W48
 .byte   PEND 
@ 083   ----------------------------------------
 .byte   PATT
  .word Label_3_01476A52
@ 084   ----------------------------------------
 .byte   PATT
  .word Label_3_01476A52
@ 085   ----------------------------------------
 .byte   PATT
  .word Label_3_01476A52
@ 086   ----------------------------------------
 .byte   PATT
  .word Label_3_01476A52
@ 087   ----------------------------------------
 .byte   PATT
  .word Label_3_01476A52
@ 088   ----------------------------------------
 .byte   PATT
  .word Label_3_01476A52
@ 089   ----------------------------------------
 .byte   N11 ,Gs0 ,v080
 .byte   W24
 .byte   N23 ,Gs1
 .byte   W24
 .byte   N11 ,Cs1
 .byte   W24
 .byte   Fs1
 .byte   W12
 .byte   Gs1
 .byte   W12
@ 090   ----------------------------------------
 .byte   PATT
  .word Label_3_01476790
@ 091   ----------------------------------------
 .byte   PATT
  .word Label_3_0147679F
@ 092   ----------------------------------------
 .byte   PATT
  .word Label_3_014767AE
@ 093   ----------------------------------------
 .byte   PATT
  .word Label_3_014767BD
@ 094   ----------------------------------------
 .byte   PATT
  .word Label_3_01476790
@ 095   ----------------------------------------
 .byte   PATT
  .word Label_3_0147679F
@ 096   ----------------------------------------
 .byte   PATT
  .word Label_3_014767AE
@ 097   ----------------------------------------
 .byte   PATT
  .word Label_3_014767BD
@ 098   ----------------------------------------
 .byte   PATT
  .word Label_3_01476790
@ 099   ----------------------------------------
 .byte   PATT
  .word Label_3_0147679F
@ 100   ----------------------------------------
 .byte   PATT
  .word Label_3_014767AE
@ 101   ----------------------------------------
 .byte   PATT
  .word Label_3_014767EF
@ 102   ----------------------------------------
 .byte   PATT
  .word Label_3_014767FE
@ 103   ----------------------------------------
 .byte   PATT
  .word Label_3_0147680C
@ 104   ----------------------------------------
 .byte   PATT
  .word Label_3_014767EF
@ 105   ----------------------------------------
 .byte   PATT
  .word Label_3_0147681F
@ 106   ----------------------------------------
 .byte   PATT
  .word Label_3_01476790
@ 107   ----------------------------------------
 .byte   PATT
  .word Label_3_0147679F
@ 108   ----------------------------------------
 .byte   PATT
  .word Label_3_014767AE
@ 109   ----------------------------------------
 .byte   PATT
  .word Label_3_014767EF
@ 110   ----------------------------------------
 .byte   PATT
  .word Label_3_014767FE
@ 111   ----------------------------------------
 .byte   PATT
  .word Label_3_01476851
@ 112   ----------------------------------------
 .byte   PATT
  .word Label_3_0147685F
@ 113   ----------------------------------------
 .byte   PATT
  .word Label_3_0147686E
@ 114   ----------------------------------------
 .byte   PATT
  .word Label_3_01476884
@ 115   ----------------------------------------
 .byte   PATT
  .word Label_3_01476894
@ 116   ----------------------------------------
 .byte   PATT
  .word Label_3_014768A4
@ 117   ----------------------------------------
 .byte   PATT
  .word Label_3_014768B3
@ 118   ----------------------------------------
 .byte   PATT
  .word Label_3_014768CD
@ 119   ----------------------------------------
 .byte   PATT
  .word Label_3_014768DD
@ 120   ----------------------------------------
 .byte   PATT
  .word Label_3_014768F4
@ 121   ----------------------------------------
 .byte   N17 ,As1 ,v080
 .byte   W18
 .byte   N05
 .byte   W06
 .byte   Fn1
 .byte   W06
 .byte   As1
 .byte   W06
 .byte   Ds2
 .byte   W06
 .byte   As1
 .byte   W06
 .byte   N17 ,Cn2
 .byte   W18
 .byte   N05
 .byte   W06
 .byte   Gn1
 .byte   W06
 .byte   As1
 .byte   W06
 .byte   Cn2
 .byte   W06
 .byte   As1
 .byte   W06
@ 122   ----------------------------------------
 .byte   N17 ,Cn2
 .byte   W18
 .byte   N05
 .byte   W06
 .byte   Gn1
 .byte   W06
 .byte   Cn2
 .byte   W06
 .byte   Fn2
 .byte   W06
 .byte   Cn2
 .byte   W06
 .byte   N17 ,Fn1
 .byte   W18
 .byte   Cn2
 .byte   W18
 .byte   N11 ,Gn2
 .byte   W12
@ 123   ----------------------------------------
Label_3_01476B50:
 .byte   N23 ,Fn2 ,v080
 .byte   W24
 .byte   N11 ,Cn2
 .byte   W12
 .byte   Gs1
 .byte   W12
 .byte   N17 ,Fn1
 .byte   W18
 .byte   Cn2
 .byte   W18
 .byte   N11 ,En2
 .byte   W12
 .byte   PEND 
@ 124   ----------------------------------------
Label_3_01476B62:
 .byte   N23 ,Fn2 ,v080
 .byte   W24
 .byte   N11 ,Cn2
 .byte   W12
 .byte   Gs1
 .byte   W12
 .byte   N17 ,Cs1
 .byte   W18
 .byte   Gs1
 .byte   W18
 .byte   N11 ,Ds2
 .byte   W12
 .byte   PEND 
@ 125   ----------------------------------------
Label_3_01476B74:
 .byte   N23 ,Cs2 ,v080
 .byte   W24
 .byte   N11 ,Cn2
 .byte   W12
 .byte   Gs1
 .byte   W12
 .byte   N17 ,Cs1
 .byte   W18
 .byte   Gs1
 .byte   W18
 .byte   N23 ,Cs2
 .byte   W12
 .byte   PEND 
@ 126   ----------------------------------------
Label_3_01476B86:
 .byte   W12
 .byte   N11 ,Cn2 ,v080
 .byte   W12
 .byte   Gs1
 .byte   W12
 .byte   Fn1
 .byte   W12
 .byte   N17 ,As0
 .byte   W18
 .byte   Fn1
 .byte   W18
 .byte   N11 ,Cn2
 .byte   W12
 .byte   PEND 
@ 127   ----------------------------------------
Label_3_01476B98:
 .byte   N23 ,As1 ,v080
 .byte   W24
 .byte   N11 ,Fn1
 .byte   W12
 .byte   Cs1
 .byte   W12
 .byte   N17 ,As0
 .byte   W18
 .byte   Fn1
 .byte   W18
 .byte   N11 ,Gs1
 .byte   W12
 .byte   PEND 
@ 128   ----------------------------------------
Label_3_01476BAA:
 .byte   N23 ,As1 ,v080
 .byte   W24
 .byte   N11 ,Gn1
 .byte   W12
 .byte   Ds1
 .byte   W12
 .byte   N17 ,Fn1
 .byte   W18
 .byte   Cn1
 .byte   W18
 .byte   N11 ,Gn1
 .byte   W12
 .byte   PEND 
@ 129   ----------------------------------------
Label_3_01476BBC:
 .byte   N23 ,Fn1 ,v080
 .byte   W24
 .byte   N11 ,Cn1
 .byte   W12
 .byte   Gs0
 .byte   W12
 .byte   N17 ,As0
 .byte   W18
 .byte   Cs1
 .byte   W18
 .byte   N11 ,En1
 .byte   W12
 .byte   PEND 
@ 130   ----------------------------------------
Label_3_01476BCE:
 .byte   N23 ,Cn1 ,v080
 .byte   W24
 .byte   N11 ,Gn1
 .byte   W12
 .byte   Cn1
 .byte   W12
 .byte   N17 ,Fn1
 .byte   W18
 .byte   Cn2
 .byte   W18
 .byte   N11 ,Gn2
 .byte   W12
 .byte   PEND 
@ 131   ----------------------------------------
 .byte   PATT
  .word Label_3_01476B50
@ 132   ----------------------------------------
 .byte   PATT
  .word Label_3_01476B62
@ 133   ----------------------------------------
 .byte   PATT
  .word Label_3_01476B74
@ 134   ----------------------------------------
 .byte   PATT
  .word Label_3_01476B86
@ 135   ----------------------------------------
 .byte   PATT
  .word Label_3_01476B98
@ 136   ----------------------------------------
 .byte   PATT
  .word Label_3_01476BAA
@ 137   ----------------------------------------
Label_3_01476BFE:
 .byte   N23 ,Fn1 ,v080
 .byte   W24
 .byte   N11 ,Cn1
 .byte   W12
 .byte   Gs0
 .byte   W12
 .byte   N17 ,Fn1
 .byte   W18
 .byte   Cn1
 .byte   W18
 .byte   N11 ,Gn1
 .byte   W12
 .byte   PEND 
@ 138   ----------------------------------------
 .byte   N23 ,Fn1
 .byte   W24
 .byte   N11 ,Cn1
 .byte   W12
 .byte   Gs0
 .byte   W12
 .byte   N17 ,Fn1
 .byte   W18
 .byte   Cn2
 .byte   W18
 .byte   N11 ,Gn2
 .byte   W12
@ 139   ----------------------------------------
 .byte   PATT
  .word Label_3_01476B50
@ 140   ----------------------------------------
 .byte   PATT
  .word Label_3_01476B62
@ 141   ----------------------------------------
 .byte   PATT
  .word Label_3_01476B74
@ 142   ----------------------------------------
 .byte   PATT
  .word Label_3_01476B86
@ 143   ----------------------------------------
 .byte   PATT
  .word Label_3_01476B98
@ 144   ----------------------------------------
 .byte   PATT
  .word Label_3_01476BAA
@ 145   ----------------------------------------
 .byte   PATT
  .word Label_3_01476BBC
@ 146   ----------------------------------------
 .byte   PATT
  .word Label_3_01476BCE
@ 147   ----------------------------------------
 .byte   PATT
  .word Label_3_01476B50
@ 148   ----------------------------------------
 .byte   PATT
  .word Label_3_01476B62
@ 149   ----------------------------------------
 .byte   PATT
  .word Label_3_01476B74
@ 150   ----------------------------------------
 .byte   PATT
  .word Label_3_01476B86
@ 151   ----------------------------------------
 .byte   PATT
  .word Label_3_01476B98
@ 152   ----------------------------------------
 .byte   PATT
  .word Label_3_01476BAA
@ 153   ----------------------------------------
 .byte   PATT
  .word Label_3_01476BFE
@ 154   ----------------------------------------
 .byte   N23 ,Fn1 ,v080
 .byte   W24
 .byte   N11 ,Cn1
 .byte   W12
 .byte   Gs0
 .byte   W60
@ 155   ----------------------------------------
 .byte   W96
@ 156   ----------------------------------------
 .byte   W96
@ 157   ----------------------------------------
 .byte   W96
@ 158   ----------------------------------------
 .byte   W96
@ 159   ----------------------------------------
 .byte   W96
@ 160   ----------------------------------------
 .byte   W96
@ 161   ----------------------------------------
 .byte   W96
@ 162   ----------------------------------------
 .byte   W96
@ 163   ----------------------------------------
 .byte   W96
@ 164   ----------------------------------------
 .byte   W96
@ 165   ----------------------------------------
 .byte   W96
@ 166   ----------------------------------------
 .byte   W96
@ 167   ----------------------------------------
 .byte   W96
@ 168   ----------------------------------------
 .byte   W96
@ 169   ----------------------------------------
 .byte   W96
@ 170   ----------------------------------------
 .byte   W48
 .byte   N17 ,Fn1
 .byte   W18
 .byte   Cn2
 .byte   W18
 .byte   N11 ,Gn2
 .byte   W12
@ 171   ----------------------------------------
 .byte   PATT
  .word Label_3_01476B50
@ 172   ----------------------------------------
 .byte   PATT
  .word Label_3_01476B62
@ 173   ----------------------------------------
 .byte   PATT
  .word Label_3_01476B74
@ 174   ----------------------------------------
 .byte   PATT
  .word Label_3_01476B86
@ 175   ----------------------------------------
 .byte   PATT
  .word Label_3_01476B98
@ 176   ----------------------------------------
 .byte   PATT
  .word Label_3_01476BAA
@ 177   ----------------------------------------
 .byte   PATT
  .word Label_3_01476BBC
@ 178   ----------------------------------------
 .byte   PATT
  .word Label_3_01476BCE
@ 179   ----------------------------------------
 .byte   PATT
  .word Label_3_01476B50
@ 180   ----------------------------------------
 .byte   PATT
  .word Label_3_01476B62
@ 181   ----------------------------------------
 .byte   PATT
  .word Label_3_01476B74
@ 182   ----------------------------------------
 .byte   PATT
  .word Label_3_01476B86
@ 183   ----------------------------------------
 .byte   PATT
  .word Label_3_01476B98
@ 184   ----------------------------------------
 .byte   PATT
  .word Label_3_01476BAA
@ 185   ----------------------------------------
 .byte   PATT
  .word Label_3_01476BFE
@ 186   ----------------------------------------
 .byte   N23 ,Fn1 ,v080
 .byte   W24
 .byte   N11 ,Cn1
 .byte   W12
 .byte   Gs0
 .byte   W12
 .byte   N92 ,En0
 .byte   W48
@ 187   ----------------------------------------
 .byte   W48
 .byte   Ds0
 .byte   W48
@ 188   ----------------------------------------
 .byte   W96
@ 189   ----------------------------------------
 .byte   W96
@ 190   ----------------------------------------
 .byte   W96
@ 191   ----------------------------------------
 .byte   W96
@ 192   ----------------------------------------
 .byte   W96
@ 193   ----------------------------------------
 .byte   W96
@ 194   ----------------------------------------
 .byte   W96
@ 195   ----------------------------------------
 .byte   W96
@ 196   ----------------------------------------
 .byte   W96
@ 197   ----------------------------------------
 .byte   W96
@ 198   ----------------------------------------
 .byte   W96
@ 199   ----------------------------------------
 .byte   W96
@ 200   ----------------------------------------
 .byte   W96
@ 201   ----------------------------------------
 .byte   W96
@ 202   ----------------------------------------
 .byte   W96
@ 203   ----------------------------------------
 .byte   W96
@ 204   ----------------------------------------
 .byte   W48
 .byte   GOTO
  .word Label_3_01476762
 .byte   FINE

@**************** Track 5 (Midi-Chn.4) ****************@

songC6_005:
@ 000   ----------------------------------------
 .byte   KEYSH , songC6_key+0
Label_4_014ADC4E:
 .byte   VOICE , 94
 .byte   PAN , c_v-13
 .byte   VOL , 16*songC6_mvl/mxv
 .byte   TIE ,Bn1 ,v052
 .byte   TIE ,Bn2
 .byte   TIE ,En3
 .byte   TIE ,Gs3
 .byte   TIE ,Bn3
 .byte   W01
 .byte   VOL , 16*songC6_mvl/mxv
 .byte   W02
 .byte   VOL , 17*songC6_mvl/mxv
 .byte   W01
 .byte   VOL , 17*songC6_mvl/mxv
 .byte   W02
 .byte   VOL , 18*songC6_mvl/mxv
 .byte   W01
 .byte   VOL , 18*songC6_mvl/mxv
 .byte   W02
 .byte   VOL , 19*songC6_mvl/mxv
 .byte   W01
 .byte   VOL , 19*songC6_mvl/mxv
 .byte   W02
 .byte   VOL , 20*songC6_mvl/mxv
 .byte   W01
 .byte   VOL , 20*songC6_mvl/mxv
 .byte   W02
 .byte   VOL , 21*songC6_mvl/mxv
 .byte   W01
 .byte   VOL , 22*songC6_mvl/mxv
 .byte   W02
 .byte   VOL , 22*songC6_mvl/mxv
 .byte   W01
 .byte   VOL , 23*songC6_mvl/mxv
 .byte   W02
 .byte   VOL , 23*songC6_mvl/mxv
 .byte   W01
 .byte   VOL , 24*songC6_mvl/mxv
 .byte   W02
 .byte   VOL , 24*songC6_mvl/mxv
 .byte   W01
 .byte   VOL , 25*songC6_mvl/mxv
 .byte   W02
 .byte   VOL , 25*songC6_mvl/mxv
 .byte   W01
 .byte   VOL , 26*songC6_mvl/mxv
 .byte   W02
 .byte   VOL , 26*songC6_mvl/mxv
 .byte   W01
 .byte   VOL , 27*songC6_mvl/mxv
 .byte   W02
 .byte   VOL , 27*songC6_mvl/mxv
 .byte   W01
 .byte   VOL , 28*songC6_mvl/mxv
 .byte   W02
 .byte   VOL , 28*songC6_mvl/mxv
 .byte   W01
 .byte   VOL , 29*songC6_mvl/mxv
 .byte   W02
 .byte   VOL , 29*songC6_mvl/mxv
 .byte   W01
 .byte   VOL , 30*songC6_mvl/mxv
 .byte   W02
 .byte   VOL , 30*songC6_mvl/mxv
 .byte   W01
 .byte   VOL , 31*songC6_mvl/mxv
 .byte   W02
 .byte   VOL , 32*songC6_mvl/mxv
 .byte   W48
 .byte   W03
@ 001   ----------------------------------------
 .byte   W96
@ 002   ----------------------------------------
 .byte   W44
 .byte   W03
 .byte   EOT
 .byte   Bn1 ,v059
 .byte   W01
 .byte   TIE ,Cs2
 .byte   TIE ,Cs3
 .byte   W48
@ 003   ----------------------------------------
 .byte   W96
@ 004   ----------------------------------------
 .byte   W44
 .byte   W03
 .byte   EOT
 .byte   Cs2 ,v061
 .byte   W01
 .byte   TIE ,Cs2
 .byte   TIE ,Cs3
 .byte   W48
@ 005   ----------------------------------------
 .byte   W96
@ 006   ----------------------------------------
 .byte   W96
@ 007   ----------------------------------------
 .byte   W44
 .byte   W03
 .byte   EOT
 .byte   Cs2 ,v061
 .byte   Bn3
 .byte   W01
 .byte   TIE ,En2
 .byte   TIE ,Gs2
 .byte   TIE ,Bn3
 .byte   W48
@ 008   ----------------------------------------
 .byte   W92
 .byte   W03
 .byte   EOT
 .byte   Gs3 ,v071
 .byte   W01
@ 009   ----------------------------------------
 .byte   N44 ,As3
 .byte   N44 ,Cs4
 .byte   W48
 .byte   TIE ,Gs3
 .byte   TIE ,Bn3
 .byte   W48
@ 010   ----------------------------------------
 .byte   W96
@ 011   ----------------------------------------
 .byte   W44
 .byte   W03
 .byte   EOT
 .byte   Gs3 ,v071
 .byte   W01
 .byte   TIE ,Gs3
 .byte   TIE ,Bn3
 .byte   W48
@ 012   ----------------------------------------
 .byte   W92
 .byte   W03
 .byte   EOT
 .byte   Gs3 ,v071
 .byte   W01
@ 013   ----------------------------------------
 .byte   N44
 .byte   N44 ,Ds4
 .byte   W48
 .byte   N92 ,Gs3
 .byte   N92 ,Bn3
 .byte   W48
@ 014   ----------------------------------------
 .byte   W44
 .byte   W03
 .byte   EOT
 .byte   En2 ,v056
 .byte   En3
 .byte   W01
 .byte   N92 ,Cs3
 .byte   N92 ,En3
 .byte   N92 ,En4
 .byte   N92 ,Gs4
 .byte   W48
@ 015   ----------------------------------------
Label_4_014ADD01:
 .byte   W48
 .byte   N92 ,Ds3 ,v052
 .byte   N92 ,Gs3
 .byte   N92 ,Bn3
 .byte   N92 ,Ds4
 .byte   N92 ,Ds5
 .byte   W48
 .byte   PEND 
@ 016   ----------------------------------------
Label_4_014ADD0F:
 .byte   W48
 .byte   N92 ,Cs3 ,v052
 .byte   N92 ,En3
 .byte   N92 ,Gs3
 .byte   N92 ,Cs4
 .byte   N92 ,Cs5
 .byte   W48
 .byte   PEND 
@ 017   ----------------------------------------
Label_4_014ADD1D:
 .byte   W48
 .byte   N92 ,En3 ,v052
 .byte   N92 ,Gs3
 .byte   N92 ,Cs4
 .byte   N92 ,En4
 .byte   N92 ,En5
 .byte   W48
 .byte   PEND 
@ 018   ----------------------------------------
Label_4_014ADD2B:
 .byte   W48
 .byte   N92 ,Ds3 ,v052
 .byte   N92 ,Fs3
 .byte   N92 ,Bn3
 .byte   N92 ,Ds4
 .byte   N92 ,Ds5
 .byte   W48
 .byte   PEND 
@ 019   ----------------------------------------
Label_4_014ADD39:
 .byte   W48
 .byte   TIE ,Fs3 ,v052
 .byte   TIE ,Gs3
 .byte   TIE ,Cs4
 .byte   TIE ,Fs4
 .byte   TIE ,Fs5
 .byte   W48
 .byte   PEND 
@ 020   ----------------------------------------
 .byte   W96
@ 021   ----------------------------------------
 .byte   W96
@ 022   ----------------------------------------
 .byte   VOL , 32*songC6_mvl/mxv
 .byte   W01
 .byte   VOL , 31*songC6_mvl/mxv
 .byte   W02
 .byte   VOL , 31*songC6_mvl/mxv
 .byte   W01
 .byte   VOL , 31*songC6_mvl/mxv
 .byte   W02
 .byte   VOL , 30*songC6_mvl/mxv
 .byte   W01
 .byte   VOL , 30*songC6_mvl/mxv
 .byte   W02
 .byte   VOL , 29*songC6_mvl/mxv
 .byte   W01
 .byte   VOL , 29*songC6_mvl/mxv
 .byte   W02
 .byte   VOL , 29*songC6_mvl/mxv
 .byte   W01
 .byte   VOL , 28*songC6_mvl/mxv
 .byte   W02
 .byte   VOL , 28*songC6_mvl/mxv
 .byte   W01
 .byte   VOL , 28*songC6_mvl/mxv
 .byte   W02
 .byte   VOL , 27*songC6_mvl/mxv
 .byte   W01
 .byte   VOL , 27*songC6_mvl/mxv
 .byte   W02
 .byte   VOL , 27*songC6_mvl/mxv
 .byte   W01
 .byte   VOL , 26*songC6_mvl/mxv
 .byte   W02
 .byte   VOL , 26*songC6_mvl/mxv
 .byte   W01
 .byte   VOL , 26*songC6_mvl/mxv
 .byte   W02
 .byte   VOL , 25*songC6_mvl/mxv
 .byte   W01
 .byte   VOL , 25*songC6_mvl/mxv
 .byte   W02
 .byte   VOL , 24*songC6_mvl/mxv
 .byte   W01
 .byte   VOL , 24*songC6_mvl/mxv
 .byte   W02
 .byte   VOL , 24*songC6_mvl/mxv
 .byte   W01
 .byte   VOL , 23*songC6_mvl/mxv
 .byte   W02
 .byte   VOL , 23*songC6_mvl/mxv
 .byte   W01
 .byte   VOL , 23*songC6_mvl/mxv
 .byte   W02
 .byte   VOL , 22*songC6_mvl/mxv
 .byte   W01
 .byte   VOL , 22*songC6_mvl/mxv
 .byte   W02
 .byte   VOL , 22*songC6_mvl/mxv
 .byte   W01
 .byte   VOL , 21*songC6_mvl/mxv
 .byte   W02
 .byte   VOL , 21*songC6_mvl/mxv
 .byte   W01
 .byte   VOL , 20*songC6_mvl/mxv
 .byte   W02
 .byte   VOL , 20*songC6_mvl/mxv
 .byte   W01
 .byte   VOL , 20*songC6_mvl/mxv
 .byte   W02
 .byte   VOL , 19*songC6_mvl/mxv
 .byte   W01
 .byte   VOL , 19*songC6_mvl/mxv
 .byte   W02
 .byte   VOL , 18*songC6_mvl/mxv
 .byte   W01
 .byte   VOL , 18*songC6_mvl/mxv
 .byte   W02
 .byte   VOL , 18*songC6_mvl/mxv
 .byte   W01
 .byte   VOL , 17*songC6_mvl/mxv
 .byte   W02
 .byte   VOL , 17*songC6_mvl/mxv
 .byte   W01
 .byte   VOL , 17*songC6_mvl/mxv
 .byte   W02
 .byte   VOL , 16*songC6_mvl/mxv
 .byte   W01
 .byte   VOL , 16*songC6_mvl/mxv
 .byte   W02
 .byte   VOL , 16*songC6_mvl/mxv
 .byte   W01
 .byte   VOL , 15*songC6_mvl/mxv
 .byte   W02
 .byte   VOL , 15*songC6_mvl/mxv
 .byte   W01
 .byte   VOL , 15*songC6_mvl/mxv
 .byte   W02
 .byte   VOL , 14*songC6_mvl/mxv
 .byte   W01
 .byte   VOL , 14*songC6_mvl/mxv
 .byte   W02
 .byte   VOL , 13*songC6_mvl/mxv
 .byte   W01
 .byte   VOL , 13*songC6_mvl/mxv
 .byte   W02
 .byte   VOL , 13*songC6_mvl/mxv
 .byte   W01
 .byte   VOL , 12*songC6_mvl/mxv
 .byte   W02
 .byte   VOL , 12*songC6_mvl/mxv
 .byte   W01
 .byte   VOL , 12*songC6_mvl/mxv
 .byte   W02
 .byte   VOL , 11*songC6_mvl/mxv
 .byte   W01
 .byte   VOL , 11*songC6_mvl/mxv
 .byte   W02
 .byte   VOL , 11*songC6_mvl/mxv
 .byte   W01
 .byte   VOL , 10*songC6_mvl/mxv
 .byte   W02
 .byte   VOL , 10*songC6_mvl/mxv
 .byte   W01
 .byte   VOL , 10*songC6_mvl/mxv
 .byte   W02
 .byte   VOL , 9*songC6_mvl/mxv
 .byte   W01
 .byte   VOL , 9*songC6_mvl/mxv
 .byte   W02
@ 023   ----------------------------------------
 .byte   VOL , 8*songC6_mvl/mxv
 .byte   W01
 .byte   VOL , 8*songC6_mvl/mxv
 .byte   W02
 .byte   VOL , 8*songC6_mvl/mxv
 .byte   W01
 .byte   VOL , 7*songC6_mvl/mxv
 .byte   W02
 .byte   VOL , 7*songC6_mvl/mxv
 .byte   W01
 .byte   VOL , 7*songC6_mvl/mxv
 .byte   W02
 .byte   VOL , 6*songC6_mvl/mxv
 .byte   W01
 .byte   VOL , 6*songC6_mvl/mxv
 .byte   W02
 .byte   VOL , 6*songC6_mvl/mxv
 .byte   W01
 .byte   VOL , 5*songC6_mvl/mxv
 .byte   W02
 .byte   VOL , 5*songC6_mvl/mxv
 .byte   W01
 .byte   VOL , 5*songC6_mvl/mxv
 .byte   W02
 .byte   VOL , 4*songC6_mvl/mxv
 .byte   W01
 .byte   VOL , 4*songC6_mvl/mxv
 .byte   W02
 .byte   VOL , 3*songC6_mvl/mxv
 .byte   W01
 .byte   VOL , 3*songC6_mvl/mxv
 .byte   W01
 .byte   EOT
 .byte   Fs3 ,v068
 .byte   Cs4 ,v078
 .byte   Fs5
 .byte   W01
 .byte   VOL , 3*songC6_mvl/mxv
 .byte   W01
 .byte   VOL , 2*songC6_mvl/mxv
 .byte   W02
 .byte   VOL , 2*songC6_mvl/mxv
 .byte   W01
 .byte   VOL , 2*songC6_mvl/mxv
 .byte   W02
 .byte   VOL , 1*songC6_mvl/mxv
 .byte   W01
 .byte   VOL , 1*songC6_mvl/mxv
 .byte   W02
 .byte   VOL , 1*songC6_mvl/mxv
 .byte   W01
 .byte   VOL , 0*songC6_mvl/mxv
 .byte   W02
 .byte   VOL , 0*songC6_mvl/mxv
 .byte   W04
 .byte   VOL , 0*songC6_mvl/mxv
 .byte   W08
 .byte   N92 ,Gs2 ,v060
 .byte   N92 ,Cs3
 .byte   N92 ,En3
 .byte   W01
 .byte   VOL , 32*songC6_mvl/mxv
 .byte   W44
 .byte   W03
@ 024   ----------------------------------------
Label_4_014ADE12:
 .byte   W48
 .byte   N92 ,Bn2 ,v060
 .byte   N44 ,Cs3
 .byte   N44 ,En3
 .byte   W48
 .byte   PEND 
@ 025   ----------------------------------------
Label_4_014ADE1C:
 .byte   N44 ,Ds3 ,v060
 .byte   N44 ,Fs3
 .byte   W48
 .byte   TIE ,Bn2
 .byte   TIE ,En3
 .byte   TIE ,Gs3
 .byte   W48
 .byte   PEND 
@ 026   ----------------------------------------
 .byte   W92
 .byte   W03
 .byte   EOT
 .byte   Bn2
 .byte   W01
@ 027   ----------------------------------------
Label_4_014ADE2F:
 .byte   N44 ,Cs3 ,v060
 .byte   W44
 .byte   W03
 .byte   PEND 
 .byte   EOT
 .byte   En3 ,v068
 .byte   W01
 .byte   N44 ,Ds3
 .byte   N44 ,Fs3
 .byte   N44 ,Bn3
 .byte   W48
@ 028   ----------------------------------------
Label_4_014ADE40:
 .byte   N44 ,Bn2 ,v060
 .byte   N44 ,Ds3
 .byte   N44 ,Fs3
 .byte   W48
 .byte   N92 ,Bn2
 .byte   N92 ,Ds3
 .byte   N92 ,Fs3
 .byte   W48
 .byte   PEND 
@ 029   ----------------------------------------
Label_4_014ADE50:
 .byte   W48
 .byte   N92 ,Cs3 ,v060
 .byte   N92 ,En3
 .byte   N92 ,Fs3
 .byte   W48
 .byte   PEND 
@ 030   ----------------------------------------
Label_4_014ADE5A:
 .byte   W48
 .byte   N92 ,Bn2 ,v060
 .byte   N92 ,Ds3
 .byte   N92 ,Fs3
 .byte   W48
 .byte   PEND 
@ 031   ----------------------------------------
Label_4_014ADE64:
 .byte   W48
 .byte   N92 ,Gs2 ,v060
 .byte   N92 ,Cs3
 .byte   N92 ,En3
 .byte   W48
 .byte   PEND 
@ 032   ----------------------------------------
 .byte   PATT
  .word Label_4_014ADE12
@ 033   ----------------------------------------
 .byte   N44 ,Ds3 ,v060
 .byte   N44 ,Fs3
 .byte   W48
 .byte   TIE ,Cs3
 .byte   TIE ,En3
 .byte   TIE ,Gs3
 .byte   W48
@ 034   ----------------------------------------
 .byte   W96
@ 035   ----------------------------------------
 .byte   W44
 .byte   W03
 .byte   EOT
 .byte   En3 ,v068
 .byte   W01
 .byte   N44 ,Ds3
 .byte   N44 ,Fs3
 .byte   N44 ,Bn3
 .byte   W01
 .byte   EOT
 .byte   Cs3
 .byte   W44
 .byte   W03
@ 036   ----------------------------------------
 .byte   N44 ,Bn2
 .byte   N44 ,Ds3
 .byte   N44 ,Fs3
 .byte   W48
 .byte   N92 ,Fs2
 .byte   N92 ,Bn2
 .byte   N92 ,Ds3
 .byte   W48
@ 037   ----------------------------------------
 .byte   W48
 .byte   Bn2
 .byte   N92 ,Ds3
 .byte   W01
 .byte   Fs2
 .byte   W44
 .byte   W03
@ 038   ----------------------------------------
 .byte   W48
 .byte   Cs3
 .byte   N92 ,En3
 .byte   W01
 .byte   Gs2
 .byte   W44
 .byte   W03
@ 039   ----------------------------------------
Label_4_014ADEB0:
 .byte   W48
 .byte   N92 ,Gs3 ,v060
 .byte   N92 ,Bn3
 .byte   N92 ,Ds4
 .byte   W48
 .byte   PEND 
@ 040   ----------------------------------------
Label_4_014ADEBA:
 .byte   W48
 .byte   N92 ,An3 ,v060
 .byte   N92 ,Cs4
 .byte   N92 ,En4
 .byte   W48
 .byte   PEND 
@ 041   ----------------------------------------
Label_4_014ADEC4:
 .byte   W48
 .byte   N92 ,Fs3 ,v060
 .byte   N92 ,Bn3
 .byte   N92 ,Ds4
 .byte   W48
 .byte   PEND 
@ 042   ----------------------------------------
Label_4_014ADECE:
 .byte   W48
 .byte   N44 ,En3 ,v060
 .byte   N44 ,Gs3
 .byte   N44 ,Cs4
 .byte   W48
 .byte   PEND 
@ 043   ----------------------------------------
Label_4_014ADED8:
 .byte   N44 ,Ds3 ,v060
 .byte   N44 ,Fs3
 .byte   N44 ,Bn3
 .byte   W48
 .byte   N92 ,Ds3
 .byte   N92 ,Fn3
 .byte   N92 ,As3
 .byte   W48
 .byte   PEND 
@ 044   ----------------------------------------
Label_4_014ADEE8:
 .byte   W48
 .byte   N44 ,Fn3 ,v060
 .byte   N44 ,As3
 .byte   N44 ,Ds4
 .byte   W48
 .byte   PEND 
@ 045   ----------------------------------------
 .byte   Cs3
 .byte   N44 ,Fn3
 .byte   N44 ,As3
 .byte   W48
 .byte   N92 ,Cs3
 .byte   N92 ,Fs3
 .byte   N92 ,As3
 .byte   N92 ,Cs4
 .byte   W48
@ 046   ----------------------------------------
 .byte   W48
 .byte   As3
 .byte   N92 ,Ds4
 .byte   N92 ,Fn4
 .byte   W48
@ 047   ----------------------------------------
 .byte   W48
 .byte   TIE ,As2
 .byte   N44 ,Fs3
 .byte   N44 ,As3
 .byte   N44 ,Ds4
 .byte   W48
@ 048   ----------------------------------------
Label_4_014ADF12:
 .byte   N44 ,Fn3 ,v060
 .byte   N44 ,As3
 .byte   N44 ,Cs4
 .byte   W48
 .byte   Fs3
 .byte   N44 ,As3
 .byte   N44 ,Ds4
 .byte   W48
 .byte   PEND 
@ 049   ----------------------------------------
Label_4_014ADF21:
 .byte   N44 ,Fs3 ,v060
 .byte   N44 ,As3
 .byte   N44 ,Ds4
 .byte   W44
 .byte   W03
 .byte   PEND 
 .byte   EOT
 .byte   As2
 .byte   W01
 .byte   TIE ,Fs2
 .byte   N44 ,Fs3
 .byte   N44 ,Bn3
 .byte   N44 ,Ds4
 .byte   W48
@ 050   ----------------------------------------
Label_4_014ADF37:
 .byte   N44 ,Gs3 ,v060
 .byte   N44 ,Cs4
 .byte   N44 ,Fn4
 .byte   W48
 .byte   N92 ,As3
 .byte   N92 ,Ds4
 .byte   N92 ,Fs4
 .byte   W48
 .byte   PEND 
@ 051   ----------------------------------------
 .byte   W44
 .byte   W03
 .byte   EOT
 .byte   Fs2
 .byte   W01
 .byte   N44 ,As2
 .byte   N44 ,Fs3
 .byte   N44 ,As3
 .byte   N44 ,Ds4
 .byte   W48
@ 052   ----------------------------------------
Label_4_014ADF55:
 .byte   N44 ,Gs2 ,v060
 .byte   N44 ,Fn3
 .byte   N44 ,Gs3
 .byte   N44 ,Cs4
 .byte   W48
 .byte   Fs2
 .byte   N44 ,Fs3
 .byte   N44 ,Bn3
 .byte   N44 ,Ds4
 .byte   W48
 .byte   PEND 
@ 053   ----------------------------------------
Label_4_014ADF68:
 .byte   N44 ,Gs2 ,v060
 .byte   N44 ,Fs3
 .byte   N44 ,Bn3
 .byte   N44 ,Cs4
 .byte   W48
 .byte   As2
 .byte   N44 ,Fs3
 .byte   N44 ,As3
 .byte   N44 ,Ds4
 .byte   W48
 .byte   PEND 
@ 054   ----------------------------------------
Label_4_014ADF7B:
 .byte   N44 ,Gs2 ,v060
 .byte   N44 ,Gs3
 .byte   N44 ,Cs4
 .byte   N44 ,Fn4
 .byte   W48
 .byte   Fs2
 .byte   N44 ,Fs3
 .byte   N44 ,Bn3
 .byte   N44 ,Ds4
 .byte   W48
 .byte   PEND 
@ 055   ----------------------------------------
Label_4_014ADF8E:
 .byte   N44 ,Fn2 ,v060
 .byte   N44 ,Fn3
 .byte   N44 ,As3
 .byte   N44 ,Dn4
 .byte   W48
 .byte   TIE ,As2
 .byte   N44 ,Fs3
 .byte   N44 ,As3
 .byte   N44 ,Ds4
 .byte   W48
 .byte   PEND 
@ 056   ----------------------------------------
 .byte   PATT
  .word Label_4_014ADF12
@ 057   ----------------------------------------
 .byte   PATT
  .word Label_4_014ADF21
@ 058   ----------------------------------------
 .byte   EOT
 .byte   As2
 .byte   W01
 .byte   TIE ,Fs2 ,v060
 .byte   N44 ,Fs3
 .byte   N44 ,Bn3
 .byte   N44 ,Ds4
 .byte   W48
@ 059   ----------------------------------------
 .byte   PATT
  .word Label_4_014ADF37
@ 060   ----------------------------------------
 .byte   W44
 .byte   W03
 .byte   EOT
 .byte   Fs2
 .byte   W01
 .byte   N44 ,As2 ,v060
 .byte   N44 ,Fs3
 .byte   N44 ,As3
 .byte   N44 ,Ds4
 .byte   W48
@ 061   ----------------------------------------
Label_4_014ADFCD:
 .byte   N44 ,Gs2 ,v060
 .byte   N44 ,Fs3
 .byte   N44 ,As3
 .byte   N44 ,Cs4
 .byte   W48
 .byte   Fs2
 .byte   N44 ,Fn3
 .byte   N44 ,Bn3
 .byte   N44 ,Ds4
 .byte   W48
 .byte   PEND 
@ 062   ----------------------------------------
 .byte   Gs2
 .byte   N44 ,Fn3
 .byte   N44 ,As3
 .byte   N44 ,Cs4
 .byte   W48
 .byte   As2
 .byte   N44 ,Fn3
 .byte   N44 ,Gs3
 .byte   N44 ,Cs4
 .byte   W48
@ 063   ----------------------------------------
 .byte   Gs2
 .byte   N44 ,Fn3
 .byte   N44 ,Gs3
 .byte   N44 ,Cs4
 .byte   W48
 .byte   Fs2
 .byte   N92 ,Fs3
 .byte   N92 ,As3
 .byte   N92 ,Ds4
 .byte   W48
@ 064   ----------------------------------------
 .byte   N44 ,Gs2
 .byte   W48
 .byte   TIE ,As2
 .byte   N44 ,Fs3
 .byte   N44 ,As3
 .byte   N44 ,Ds4
 .byte   W48
@ 065   ----------------------------------------
 .byte   PATT
  .word Label_4_014ADF12
@ 066   ----------------------------------------
 .byte   PATT
  .word Label_4_014ADF21
@ 067   ----------------------------------------
 .byte   EOT
 .byte   As2
 .byte   W01
 .byte   TIE ,Fs2 ,v060
 .byte   N44 ,Fs3
 .byte   N44 ,Bn3
 .byte   N44 ,Ds4
 .byte   W48
@ 068   ----------------------------------------
 .byte   PATT
  .word Label_4_014ADF37
@ 069   ----------------------------------------
 .byte   W44
 .byte   W03
 .byte   EOT
 .byte   Fs2
 .byte   W01
 .byte   N44 ,As2 ,v060
 .byte   N44 ,Fs3
 .byte   N44 ,As3
 .byte   N44 ,Ds4
 .byte   W48
@ 070   ----------------------------------------
 .byte   PATT
  .word Label_4_014ADF55
@ 071   ----------------------------------------
 .byte   PATT
  .word Label_4_014ADF68
@ 072   ----------------------------------------
 .byte   PATT
  .word Label_4_014ADF7B
@ 073   ----------------------------------------
 .byte   PATT
  .word Label_4_014ADF8E
@ 074   ----------------------------------------
 .byte   PATT
  .word Label_4_014ADF12
@ 075   ----------------------------------------
 .byte   PATT
  .word Label_4_014ADF21
@ 076   ----------------------------------------
 .byte   EOT
 .byte   As2
 .byte   W01
 .byte   TIE ,Fs2 ,v060
 .byte   N44 ,Fs3
 .byte   N44 ,Bn3
 .byte   N44 ,Ds4
 .byte   W48
@ 077   ----------------------------------------
 .byte   PATT
  .word Label_4_014ADF37
@ 078   ----------------------------------------
 .byte   W44
 .byte   W03
 .byte   EOT
 .byte   Fs2
 .byte   W01
 .byte   N44 ,As2 ,v060
 .byte   N44 ,Fs3
 .byte   N44 ,As3
 .byte   N44 ,Ds4
 .byte   W48
@ 079   ----------------------------------------
 .byte   PATT
  .word Label_4_014ADFCD
@ 080   ----------------------------------------
 .byte   N44 ,Fn2 ,v060
 .byte   N44 ,Fn3
 .byte   N44 ,As3
 .byte   N44 ,Cs4
 .byte   W48
 .byte   Fn2
 .byte   N44 ,Fn3
 .byte   N44 ,Gs3
 .byte   N44 ,Cs4
 .byte   W48
@ 081   ----------------------------------------
 .byte   Fs2
 .byte   N44 ,Fn3
 .byte   N44 ,Gs3
 .byte   N44 ,Cs4
 .byte   W48
 .byte   Gs2
 .byte   N44 ,Gs3
 .byte   N44 ,Bn3
 .byte   N44 ,Fn4
 .byte   W48
@ 082   ----------------------------------------
 .byte   Fs2
 .byte   N44 ,Fs3
 .byte   N44 ,As3
 .byte   N44 ,Ds4
 .byte   W48
 .byte   N92 ,Dn3
 .byte   N92 ,Fs3
 .byte   N92 ,As3
 .byte   N92 ,Dn4
 .byte   N92 ,Dn5
 .byte   W48
@ 083   ----------------------------------------
 .byte   W48
 .byte   Cs3
 .byte   N92 ,Fs3
 .byte   N92 ,An3
 .byte   N92 ,Cs4
 .byte   N92 ,Cs5
 .byte   W48
@ 084   ----------------------------------------
 .byte   W48
 .byte   N44 ,Bn2 ,v040
 .byte   N44 ,Ds3
 .byte   N92 ,Ds4
 .byte   W48
@ 085   ----------------------------------------
 .byte   N44 ,Gs2
 .byte   N44 ,Cs3
 .byte   W48
 .byte   N44
 .byte   N44 ,En3
 .byte   N92 ,Cs4
 .byte   W48
@ 086   ----------------------------------------
 .byte   N44 ,Bn2
 .byte   N44 ,Ds3
 .byte   W48
 .byte   N44
 .byte   N44 ,Fs3
 .byte   N92 ,En4
 .byte   W48
@ 087   ----------------------------------------
 .byte   N44 ,Cs3
 .byte   N44 ,En3
 .byte   W48
 .byte   Bn2
 .byte   N44 ,Ds3
 .byte   N92 ,Ds4
 .byte   W48
@ 088   ----------------------------------------
 .byte   N44 ,Cs3
 .byte   N44 ,En3
 .byte   W48
 .byte   Bn2
 .byte   N44 ,Ds3
 .byte   N92 ,Fs4
 .byte   W48
@ 089   ----------------------------------------
 .byte   N44 ,Gs2
 .byte   N44 ,Cs3
 .byte   W48
 .byte   N44
 .byte   N44 ,En3
 .byte   N92 ,En4
 .byte   W48
@ 090   ----------------------------------------
 .byte   N44 ,Bn2
 .byte   N44 ,Ds3
 .byte   W48
 .byte   N44
 .byte   N44 ,Fs3
 .byte   N92 ,Ds4
 .byte   W48
@ 091   ----------------------------------------
 .byte   N44 ,En3
 .byte   N44 ,Gs3
 .byte   W48
 .byte   N92 ,Fs3
 .byte   N92 ,Bn3
 .byte   N92 ,En4
 .byte   W48
@ 092   ----------------------------------------
 .byte   PATT
  .word Label_4_014ADD01
@ 093   ----------------------------------------
 .byte   PATT
  .word Label_4_014ADD0F
@ 094   ----------------------------------------
 .byte   PATT
  .word Label_4_014ADD1D
@ 095   ----------------------------------------
 .byte   PATT
  .word Label_4_014ADD2B
@ 096   ----------------------------------------
 .byte   PATT
  .word Label_4_014ADD39
@ 097   ----------------------------------------
 .byte   W92
 .byte   W02
 .byte   VOL , 32*songC6_mvl/mxv
 .byte   W02
@ 098   ----------------------------------------
 .byte   VOL , 31*songC6_mvl/mxv
 .byte   W01
 .byte   VOL , 32*songC6_mvl/mxv
 .byte   W02
 .byte   VOL , 31*songC6_mvl/mxv
 .byte   W03
 .byte   VOL , 31*songC6_mvl/mxv
 .byte   W01
 .byte   VOL , 31*songC6_mvl/mxv
 .byte   W03
 .byte   VOL , 30*songC6_mvl/mxv
 .byte   W02
 .byte   VOL , 30*songC6_mvl/mxv
 .byte   W03
 .byte   VOL , 30*songC6_mvl/mxv
 .byte   W01
 .byte   VOL , 29*songC6_mvl/mxv
 .byte   W03
 .byte   VOL , 29*songC6_mvl/mxv
 .byte   W03
 .byte   VOL , 29*songC6_mvl/mxv
 .byte   W02
 .byte   VOL , 28*songC6_mvl/mxv
 .byte   W03
 .byte   VOL , 28*songC6_mvl/mxv
 .byte   W01
 .byte   VOL , 28*songC6_mvl/mxv
 .byte   W03
 .byte   VOL , 27*songC6_mvl/mxv
 .byte   W02
 .byte   VOL , 27*songC6_mvl/mxv
 .byte   W03
 .byte   VOL , 27*songC6_mvl/mxv
 .byte   W03
 .byte   VOL , 26*songC6_mvl/mxv
 .byte   W01
 .byte   VOL , 26*songC6_mvl/mxv
 .byte   W03
 .byte   VOL , 26*songC6_mvl/mxv
 .byte   W02
 .byte   VOL , 25*songC6_mvl/mxv
 .byte   W03
 .byte   VOL , 25*songC6_mvl/mxv
 .byte   W01
 .byte   VOL , 25*songC6_mvl/mxv
 .byte   W03
 .byte   VOL , 24*songC6_mvl/mxv
 .byte   W03
 .byte   VOL , 24*songC6_mvl/mxv
 .byte   W02
 .byte   VOL , 24*songC6_mvl/mxv
 .byte   W03
 .byte   VOL , 23*songC6_mvl/mxv
 .byte   W01
 .byte   VOL , 23*songC6_mvl/mxv
 .byte   W03
 .byte   VOL , 23*songC6_mvl/mxv
 .byte   W02
 .byte   VOL , 22*songC6_mvl/mxv
 .byte   W03
 .byte   VOL , 22*songC6_mvl/mxv
 .byte   W03
 .byte   VOL , 22*songC6_mvl/mxv
 .byte   W01
 .byte   VOL , 21*songC6_mvl/mxv
 .byte   W03
 .byte   VOL , 21*songC6_mvl/mxv
 .byte   W02
 .byte   VOL , 20*songC6_mvl/mxv
 .byte   W03
 .byte   VOL , 20*songC6_mvl/mxv
 .byte   W01
 .byte   VOL , 20*songC6_mvl/mxv
 .byte   W03
 .byte   VOL , 19*songC6_mvl/mxv
 .byte   W03
 .byte   VOL , 19*songC6_mvl/mxv
 .byte   W02
 .byte   VOL , 19*songC6_mvl/mxv
 .byte   W03
 .byte   VOL , 18*songC6_mvl/mxv
 .byte   W01
 .byte   VOL , 18*songC6_mvl/mxv
 .byte   W02
@ 099   ----------------------------------------
 .byte   W01
 .byte   VOL , 18*songC6_mvl/mxv
 .byte   W02
 .byte   VOL , 17*songC6_mvl/mxv
 .byte   W03
 .byte   VOL , 17*songC6_mvl/mxv
 .byte   W03
 .byte   VOL , 17*songC6_mvl/mxv
 .byte   W01
 .byte   VOL , 16*songC6_mvl/mxv
 .byte   W03
 .byte   VOL , 16*songC6_mvl/mxv
 .byte   W02
 .byte   VOL , 16*songC6_mvl/mxv
 .byte   W03
 .byte   VOL , 15*songC6_mvl/mxv
 .byte   W01
 .byte   VOL , 15*songC6_mvl/mxv
 .byte   W03
 .byte   VOL , 15*songC6_mvl/mxv
 .byte   W03
 .byte   VOL , 14*songC6_mvl/mxv
 .byte   W02
 .byte   VOL , 14*songC6_mvl/mxv
 .byte   W03
 .byte   VOL , 14*songC6_mvl/mxv
 .byte   W01
 .byte   VOL , 13*songC6_mvl/mxv
 .byte   W03
 .byte   VOL , 13*songC6_mvl/mxv
 .byte   W02
 .byte   VOL , 13*songC6_mvl/mxv
 .byte   W03
 .byte   VOL , 12*songC6_mvl/mxv
 .byte   W03
 .byte   VOL , 12*songC6_mvl/mxv
 .byte   W01
 .byte   VOL , 12*songC6_mvl/mxv
 .byte   W03
 .byte   VOL , 11*songC6_mvl/mxv
 .byte   W02
 .byte   VOL , 11*songC6_mvl/mxv
 .byte   W03
 .byte   VOL , 11*songC6_mvl/mxv
 .byte   W01
 .byte   VOL , 10*songC6_mvl/mxv
 .byte   W03
 .byte   VOL , 10*songC6_mvl/mxv
 .byte   W03
 .byte   VOL , 10*songC6_mvl/mxv
 .byte   W02
 .byte   VOL , 9*songC6_mvl/mxv
 .byte   W03
 .byte   VOL , 9*songC6_mvl/mxv
 .byte   W01
 .byte   VOL , 9*songC6_mvl/mxv
 .byte   W03
 .byte   VOL , 8*songC6_mvl/mxv
 .byte   W02
 .byte   VOL , 8*songC6_mvl/mxv
 .byte   W03
 .byte   VOL , 8*songC6_mvl/mxv
 .byte   W03
 .byte   VOL , 7*songC6_mvl/mxv
 .byte   W01
 .byte   VOL , 7*songC6_mvl/mxv
 .byte   W03
 .byte   VOL , 7*songC6_mvl/mxv
 .byte   W02
 .byte   VOL , 6*songC6_mvl/mxv
 .byte   W03
 .byte   VOL , 6*songC6_mvl/mxv
 .byte   W01
 .byte   VOL , 6*songC6_mvl/mxv
 .byte   W03
 .byte   VOL , 5*songC6_mvl/mxv
 .byte   W03
 .byte   VOL , 5*songC6_mvl/mxv
 .byte   W02
 .byte   VOL , 5*songC6_mvl/mxv
 .byte   W02
 .byte   EOT
 .byte   Fs3 ,v068
 .byte   Cs4 ,v078
 .byte   Fs5
 .byte   W01
@ 100   ----------------------------------------
 .byte   VOL , 4*songC6_mvl/mxv
 .byte   W01
 .byte   VOL , 4*songC6_mvl/mxv
 .byte   W03
 .byte   VOL , 4*songC6_mvl/mxv
 .byte   W02
 .byte   VOL , 3*songC6_mvl/mxv
 .byte   W03
 .byte   VOL , 3*songC6_mvl/mxv
 .byte   W03
 .byte   VOL , 3*songC6_mvl/mxv
 .byte   W01
 .byte   VOL , 2*songC6_mvl/mxv
 .byte   W03
 .byte   VOL , 2*songC6_mvl/mxv
 .byte   W02
 .byte   VOL , 2*songC6_mvl/mxv
 .byte   W03
 .byte   VOL , 1*songC6_mvl/mxv
 .byte   W01
 .byte   VOL , 1*songC6_mvl/mxv
 .byte   W03
 .byte   VOL , 1*songC6_mvl/mxv
 .byte   W02
 .byte   VOL , 0*songC6_mvl/mxv
 .byte   W03
 .byte   VOL , 0*songC6_mvl/mxv
 .byte   W18
 .byte   VOL , 32*songC6_mvl/mxv
 .byte   N92 ,Gs2 ,v060
 .byte   N92 ,Cs3
 .byte   N92 ,En3
 .byte   W48
@ 101   ----------------------------------------
 .byte   PATT
  .word Label_4_014ADE12
@ 102   ----------------------------------------
 .byte   PATT
  .word Label_4_014ADE1C
@ 103   ----------------------------------------
 .byte   W92
 .byte   W03
 .byte   EOT
 .byte   Bn2
 .byte   W01
@ 104   ----------------------------------------
 .byte   PATT
  .word Label_4_014ADE2F
@ 105   ----------------------------------------
 .byte   EOT
 .byte   En3 ,v068
 .byte   W01
 .byte   N44 ,Ds3 ,v060
 .byte   N44 ,Fs3
 .byte   N44 ,Bn3
 .byte   W48
@ 106   ----------------------------------------
 .byte   PATT
  .word Label_4_014ADE40
@ 107   ----------------------------------------
 .byte   PATT
  .word Label_4_014ADE50
@ 108   ----------------------------------------
 .byte   PATT
  .word Label_4_014ADE5A
@ 109   ----------------------------------------
 .byte   PATT
  .word Label_4_014ADE64
@ 110   ----------------------------------------
 .byte   PATT
  .word Label_4_014ADE12
@ 111   ----------------------------------------
 .byte   PATT
  .word Label_4_014ADE1C
@ 112   ----------------------------------------
 .byte   W92
 .byte   W03
 .byte   EOT
 .byte   Bn2
 .byte   W01
@ 113   ----------------------------------------
 .byte   PATT
  .word Label_4_014ADE2F
@ 114   ----------------------------------------
 .byte   EOT
 .byte   En3 ,v068
 .byte   W01
 .byte   N44 ,Ds3 ,v060
 .byte   N44 ,Fs3
 .byte   N44 ,Bn3
 .byte   W48
@ 115   ----------------------------------------
 .byte   PATT
  .word Label_4_014ADE40
@ 116   ----------------------------------------
 .byte   PATT
  .word Label_4_014ADE5A
@ 117   ----------------------------------------
 .byte   PATT
  .word Label_4_014ADE64
@ 118   ----------------------------------------
 .byte   PATT
  .word Label_4_014ADEB0
@ 119   ----------------------------------------
 .byte   PATT
  .word Label_4_014ADEBA
@ 120   ----------------------------------------
 .byte   PATT
  .word Label_4_014ADEC4
@ 121   ----------------------------------------
 .byte   PATT
  .word Label_4_014ADECE
@ 122   ----------------------------------------
 .byte   PATT
  .word Label_4_014ADED8
@ 123   ----------------------------------------
 .byte   PATT
  .word Label_4_014ADEE8
@ 124   ----------------------------------------
 .byte   N44 ,Cs3 ,v060
 .byte   N44 ,Ds3
 .byte   N44 ,As3
 .byte   W48
 .byte   N92 ,Cs3
 .byte   N92 ,Fs3
 .byte   N92 ,As3
 .byte   N92 ,Cs4
 .byte   W48
@ 125   ----------------------------------------
 .byte   W48
 .byte   Fn3
 .byte   N92 ,As3
 .byte   N92 ,Ds4
 .byte   W48
@ 126   ----------------------------------------
 .byte   W48
 .byte   Gn3
 .byte   N92 ,Cn4
 .byte   N92 ,Fn4
 .byte   W48
@ 127   ----------------------------------------
 .byte   W48
 .byte   TIE ,Cn3
 .byte   N44 ,Gs3
 .byte   N44 ,Cn4
 .byte   N44 ,Fn4
 .byte   W48
@ 128   ----------------------------------------
Label_4_014AE2AC:
 .byte   N44 ,Gn3 ,v060
 .byte   N44 ,Cn4
 .byte   N44 ,Ds4
 .byte   W48
 .byte   Gs3
 .byte   N44 ,Cn4
 .byte   N44 ,Fn4
 .byte   W48
 .byte   PEND 
@ 129   ----------------------------------------
Label_4_014AE2BB:
 .byte   N44 ,Gs3 ,v060
 .byte   N44 ,Cn4
 .byte   N44 ,Fn4
 .byte   W44
 .byte   W03
 .byte   PEND 
 .byte   EOT
 .byte   Cn3
 .byte   W01
 .byte   TIE ,Gs2
 .byte   N44 ,Gs3
 .byte   N44 ,Cs4
 .byte   N44 ,Fn4
 .byte   W48
@ 130   ----------------------------------------
Label_4_014AE2D1:
 .byte   N44 ,As3 ,v060
 .byte   N44 ,Ds4
 .byte   N44 ,Gn4
 .byte   W48
 .byte   N92 ,Cn4
 .byte   N92 ,Fn4
 .byte   N92 ,Gs4
 .byte   W48
 .byte   PEND 
@ 131   ----------------------------------------
 .byte   W44
 .byte   W03
 .byte   EOT
 .byte   Gs2
 .byte   W01
 .byte   N44 ,Cn3
 .byte   N44 ,Gs3
 .byte   N44 ,Cn4
 .byte   N44 ,Fn4
 .byte   W48
@ 132   ----------------------------------------
Label_4_014AE2EF:
 .byte   N44 ,As2 ,v060
 .byte   N44 ,Gn3
 .byte   N44 ,As3
 .byte   N44 ,Ds4
 .byte   W48
 .byte   Gs2
 .byte   N44 ,Gs3
 .byte   N44 ,Cs4
 .byte   N44 ,Fn4
 .byte   W48
 .byte   PEND 
@ 133   ----------------------------------------
Label_4_014AE302:
 .byte   N44 ,As2 ,v060
 .byte   N44 ,Gs3
 .byte   N44 ,Cs4
 .byte   N44 ,Ds4
 .byte   W48
 .byte   Cn3
 .byte   N44 ,Gs3
 .byte   N44 ,Cn4
 .byte   N44 ,Fn4
 .byte   W48
 .byte   PEND 
@ 134   ----------------------------------------
Label_4_014AE315:
 .byte   N44 ,As2 ,v060
 .byte   N44 ,As3
 .byte   N44 ,Ds4
 .byte   N44 ,Gn4
 .byte   W48
 .byte   Gs2
 .byte   N44 ,Gs3
 .byte   N44 ,Cs4
 .byte   N44 ,Fn4
 .byte   W48
 .byte   PEND 
@ 135   ----------------------------------------
Label_4_014AE328:
 .byte   N44 ,Gn2 ,v060
 .byte   N44 ,Gn3
 .byte   N44 ,Cn4
 .byte   N44 ,En4
 .byte   W48
 .byte   TIE ,Cn3
 .byte   N44 ,Gs3
 .byte   N44 ,Cn4
 .byte   N44 ,Fn4
 .byte   W48
 .byte   PEND 
@ 136   ----------------------------------------
 .byte   PATT
  .word Label_4_014AE2AC
@ 137   ----------------------------------------
 .byte   PATT
  .word Label_4_014AE2BB
@ 138   ----------------------------------------
 .byte   EOT
 .byte   Cn3
 .byte   W01
 .byte   TIE ,Gs2 ,v060
 .byte   N44 ,Gs3
 .byte   N44 ,Cs4
 .byte   N44 ,Fn4
 .byte   W48
@ 139   ----------------------------------------
 .byte   PATT
  .word Label_4_014AE2D1
@ 140   ----------------------------------------
 .byte   W44
 .byte   W03
 .byte   EOT
 .byte   Gs2
 .byte   W01
 .byte   N44 ,Cn3 ,v060
 .byte   N44 ,Gs3
 .byte   N44 ,Cn4
 .byte   N44 ,Fn4
 .byte   W48
@ 141   ----------------------------------------
Label_4_014AE367:
 .byte   N44 ,As2 ,v060
 .byte   N44 ,Gs3
 .byte   N44 ,Cn4
 .byte   N44 ,Ds4
 .byte   W48
 .byte   Gs2
 .byte   N44 ,Gn3
 .byte   N44 ,Cs4
 .byte   N44 ,Fn4
 .byte   W48
 .byte   PEND 
@ 142   ----------------------------------------
 .byte   As2
 .byte   N44 ,Gn3
 .byte   N44 ,Cn4
 .byte   N44 ,Ds4
 .byte   W48
 .byte   Cn3
 .byte   N44 ,Gn3
 .byte   N44 ,As3
 .byte   N44 ,Ds4
 .byte   W48
@ 143   ----------------------------------------
 .byte   As2
 .byte   N44 ,Gn3
 .byte   N44 ,As3
 .byte   N44 ,Ds4
 .byte   W48
 .byte   Gs2
 .byte   N92 ,Gs3
 .byte   N92 ,Cn4
 .byte   N92 ,Fn4
 .byte   W48
@ 144   ----------------------------------------
 .byte   N44 ,As2
 .byte   W48
 .byte   TIE ,Cn3
 .byte   N44 ,Gs3
 .byte   N44 ,Cn4
 .byte   N44 ,Fn4
 .byte   W48
@ 145   ----------------------------------------
 .byte   PATT
  .word Label_4_014AE2AC
@ 146   ----------------------------------------
 .byte   PATT
  .word Label_4_014AE2BB
@ 147   ----------------------------------------
 .byte   EOT
 .byte   Cn3
 .byte   W01
 .byte   TIE ,Gs2 ,v060
 .byte   N44 ,Gs3
 .byte   N44 ,Cs4
 .byte   N44 ,Fn4
 .byte   W48
@ 148   ----------------------------------------
 .byte   PATT
  .word Label_4_014AE2D1
@ 149   ----------------------------------------
 .byte   W44
 .byte   W03
 .byte   EOT
 .byte   Gs2
 .byte   W01
 .byte   N44 ,Cn3 ,v060
 .byte   N44 ,Gs3
 .byte   N44 ,Cn4
 .byte   N44 ,Fn4
 .byte   W48
@ 150   ----------------------------------------
 .byte   PATT
  .word Label_4_014AE2EF
@ 151   ----------------------------------------
 .byte   PATT
  .word Label_4_014AE302
@ 152   ----------------------------------------
 .byte   PATT
  .word Label_4_014AE315
@ 153   ----------------------------------------
 .byte   PATT
  .word Label_4_014AE328
@ 154   ----------------------------------------
 .byte   PATT
  .word Label_4_014AE2AC
@ 155   ----------------------------------------
 .byte   PATT
  .word Label_4_014AE2BB
@ 156   ----------------------------------------
 .byte   EOT
 .byte   Cn3
 .byte   W01
 .byte   TIE ,Gs2 ,v060
 .byte   N44 ,Gs3
 .byte   N44 ,Cs4
 .byte   N44 ,Fn4
 .byte   W48
@ 157   ----------------------------------------
 .byte   PATT
  .word Label_4_014AE2D1
@ 158   ----------------------------------------
 .byte   W44
 .byte   W03
 .byte   EOT
 .byte   Gs2
 .byte   W01
 .byte   N44 ,Cn3 ,v060
 .byte   N44 ,Gs3
 .byte   N44 ,Cn4
 .byte   N44 ,Fn4
 .byte   W48
@ 159   ----------------------------------------
 .byte   PATT
  .word Label_4_014AE367
@ 160   ----------------------------------------
 .byte   N44 ,Gn2 ,v060
 .byte   N44 ,Gn3
 .byte   N44 ,Cn4
 .byte   N44 ,Ds4
 .byte   W48
 .byte   Gn2
 .byte   N44 ,Gn3
 .byte   N44 ,As3
 .byte   N44 ,Ds4
 .byte   W48
@ 161   ----------------------------------------
 .byte   Gs2
 .byte   N44 ,Gn3
 .byte   N44 ,As3
 .byte   N44 ,Ds4
 .byte   W48
 .byte   As2
 .byte   N92 ,Gs3
 .byte   N92 ,Cn4
 .byte   N92 ,Fn4
 .byte   W48
@ 162   ----------------------------------------
 .byte   N44 ,Gs2
 .byte   W96
@ 163   ----------------------------------------
 .byte   W96
@ 164   ----------------------------------------
 .byte   W96
@ 165   ----------------------------------------
 .byte   W96
@ 166   ----------------------------------------
 .byte   W96
@ 167   ----------------------------------------
 .byte   W96
@ 168   ----------------------------------------
 .byte   W96
@ 169   ----------------------------------------
 .byte   W96
@ 170   ----------------------------------------
 .byte   W96
@ 171   ----------------------------------------
 .byte   W96
@ 172   ----------------------------------------
 .byte   W96
@ 173   ----------------------------------------
 .byte   W96
@ 174   ----------------------------------------
 .byte   W96
@ 175   ----------------------------------------
 .byte   W96
@ 176   ----------------------------------------
 .byte   W96
@ 177   ----------------------------------------
 .byte   W48
 .byte   N92 ,Cn4
 .byte   N92 ,Fn4
 .byte   W48
@ 178   ----------------------------------------
Label_4_014AE44E:
 .byte   W48
 .byte   N44 ,Gs3 ,v060
 .byte   N44 ,Cn4
 .byte   N44 ,Fn4
 .byte   W48
 .byte   PEND 
@ 179   ----------------------------------------
 .byte   PATT
  .word Label_4_014AE2AC
@ 180   ----------------------------------------
Label_4_014AE45D:
 .byte   N44 ,Gs3 ,v060
 .byte   N44 ,Cn4
 .byte   N44 ,Fn4
 .byte   W48
 .byte   Gs3
 .byte   N44 ,Cs4
 .byte   N44 ,Fn4
 .byte   W48
 .byte   PEND 
@ 181   ----------------------------------------
 .byte   PATT
  .word Label_4_014AE2D1
@ 182   ----------------------------------------
 .byte   PATT
  .word Label_4_014AE44E
@ 183   ----------------------------------------
 .byte   N44 ,Gn3 ,v060
 .byte   N44 ,As3
 .byte   N44 ,Ds4
 .byte   W48
 .byte   Gs3
 .byte   N44 ,Cs4
 .byte   N44 ,Fn4
 .byte   W48
@ 184   ----------------------------------------
 .byte   Gs3
 .byte   N44 ,Cs4
 .byte   N44 ,Ds4
 .byte   W48
 .byte   Gs3
 .byte   N44 ,Cn4
 .byte   N44 ,Fn4
 .byte   W48
@ 185   ----------------------------------------
 .byte   As3
 .byte   N44 ,Ds4
 .byte   N44 ,Gn4
 .byte   W48
 .byte   Gs3
 .byte   N44 ,Cs4
 .byte   N44 ,Fn4
 .byte   W48
@ 186   ----------------------------------------
 .byte   Gn3
 .byte   N44 ,Cn4
 .byte   N44 ,En4
 .byte   W48
 .byte   Gs3
 .byte   N44 ,Cn4
 .byte   N44 ,Fn4
 .byte   W48
@ 187   ----------------------------------------
 .byte   PATT
  .word Label_4_014AE2AC
@ 188   ----------------------------------------
 .byte   PATT
  .word Label_4_014AE45D
@ 189   ----------------------------------------
 .byte   PATT
  .word Label_4_014AE2D1
@ 190   ----------------------------------------
 .byte   PATT
  .word Label_4_014AE44E
@ 191   ----------------------------------------
 .byte   N44 ,Gs3 ,v060
 .byte   N44 ,Cn4
 .byte   N44 ,Ds4
 .byte   W48
 .byte   Gn3
 .byte   N44 ,Cs4
 .byte   N44 ,Fn4
 .byte   W48
@ 192   ----------------------------------------
 .byte   Gn3
 .byte   N44 ,Cn4
 .byte   N44 ,Ds4
 .byte   W48
 .byte   Gn3
 .byte   N44 ,As3
 .byte   N44 ,Ds4
 .byte   W48
@ 193   ----------------------------------------
 .byte   Gn3
 .byte   N44 ,As3
 .byte   N44 ,Ds4
 .byte   W48
 .byte   N92 ,Gs3
 .byte   N92 ,Cn4
 .byte   N92 ,Fn4
 .byte   W48
@ 194   ----------------------------------------
 .byte   W48
 .byte   En3
 .byte   N92 ,Gn3
 .byte   N92 ,Cn4
 .byte   N92 ,En4
 .byte   N92 ,En5
 .byte   W48
@ 195   ----------------------------------------
 .byte   W48
 .byte   Ds3
 .byte   N92 ,Fs3
 .byte   N92 ,Bn3
 .byte   N92 ,Ds4
 .byte   N92 ,Ds5
 .byte   W48
@ 196   ----------------------------------------
 .byte   W48
 .byte   Fn3 ,v040
 .byte   N92 ,As3
 .byte   N92 ,Cs4
 .byte   N92 ,Fn4
 .byte   N92 ,Fn5
 .byte   W48
@ 197   ----------------------------------------
 .byte   W48
 .byte   Ds3
 .byte   N92 ,Fs3
 .byte   N92 ,As3
 .byte   N92 ,Ds4
 .byte   N92 ,Ds5
 .byte   W48
@ 198   ----------------------------------------
 .byte   W48
 .byte   Fs3
 .byte   N92 ,As3
 .byte   N92 ,Cs4
 .byte   N92 ,Fs4
 .byte   N92 ,Fs5
 .byte   W48
@ 199   ----------------------------------------
 .byte   W48
 .byte   Fn3
 .byte   N92 ,Gs3
 .byte   N92 ,Cs4
 .byte   N92 ,Fn4
 .byte   N92 ,Fn5
 .byte   W48
@ 200   ----------------------------------------
 .byte   W48
 .byte   TIE ,Gs3
 .byte   TIE ,Cs4
 .byte   TIE ,Fn4
 .byte   TIE ,Gs4
 .byte   TIE ,Gs5
 .byte   W48
@ 201   ----------------------------------------
 .byte   W96
@ 202   ----------------------------------------
 .byte   W96
@ 203   ----------------------------------------
 .byte   W48
 .byte   W01
 .byte   VOL , 31*songC6_mvl/mxv
 .byte   W02
 .byte   VOL , 31*songC6_mvl/mxv
 .byte   W03
 .byte   VOL , 31*songC6_mvl/mxv
 .byte   W03
 .byte   VOL , 30*songC6_mvl/mxv
 .byte   W03
 .byte   VOL , 30*songC6_mvl/mxv
 .byte   W03
 .byte   VOL , 30*songC6_mvl/mxv
 .byte   W01
 .byte   VOL , 29*songC6_mvl/mxv
 .byte   W03
 .byte   VOL , 29*songC6_mvl/mxv
 .byte   W03
 .byte   VOL , 29*songC6_mvl/mxv
 .byte   W03
 .byte   VOL , 28*songC6_mvl/mxv
 .byte   W02
 .byte   VOL , 28*songC6_mvl/mxv
 .byte   W03
 .byte   VOL , 28*songC6_mvl/mxv
 .byte   W03
 .byte   VOL , 27*songC6_mvl/mxv
 .byte   W03
 .byte   VOL , 27*songC6_mvl/mxv
 .byte   W03
 .byte   VOL , 27*songC6_mvl/mxv
 .byte   W01
 .byte   VOL , 26*songC6_mvl/mxv
 .byte   W03
 .byte   VOL , 26*songC6_mvl/mxv
 .byte   W03
 .byte   VOL , 26*songC6_mvl/mxv
 .byte   W02
@ 204   ----------------------------------------
 .byte   W01
 .byte   VOL , 25*songC6_mvl/mxv
 .byte   W03
 .byte   VOL , 25*songC6_mvl/mxv
 .byte   W02
 .byte   VOL , 25*songC6_mvl/mxv
 .byte   W03
 .byte   VOL , 24*songC6_mvl/mxv
 .byte   W03
 .byte   VOL , 24*songC6_mvl/mxv
 .byte   W03
 .byte   VOL , 24*songC6_mvl/mxv
 .byte   W03
 .byte   VOL , 23*songC6_mvl/mxv
 .byte   W01
 .byte   VOL , 23*songC6_mvl/mxv
 .byte   W03
 .byte   VOL , 23*songC6_mvl/mxv
 .byte   W03
 .byte   VOL , 22*songC6_mvl/mxv
 .byte   W03
 .byte   VOL , 22*songC6_mvl/mxv
 .byte   W02
 .byte   VOL , 22*songC6_mvl/mxv
 .byte   W03
 .byte   VOL , 21*songC6_mvl/mxv
 .byte   W03
 .byte   VOL , 21*songC6_mvl/mxv
 .byte   W03
 .byte   VOL , 20*songC6_mvl/mxv
 .byte   W03
 .byte   VOL , 20*songC6_mvl/mxv
 .byte   W01
 .byte   VOL , 20*songC6_mvl/mxv
 .byte   W03
 .byte   VOL , 19*songC6_mvl/mxv
 .byte   W03
 .byte   VOL , 19*songC6_mvl/mxv
 .byte   W03
 .byte   VOL , 19*songC6_mvl/mxv
 .byte   W03
 .byte   VOL , 18*songC6_mvl/mxv
 .byte   W02
 .byte   VOL , 18*songC6_mvl/mxv
 .byte   W03
 .byte   VOL , 18*songC6_mvl/mxv
 .byte   W03
 .byte   VOL , 17*songC6_mvl/mxv
 .byte   W03
 .byte   VOL , 17*songC6_mvl/mxv
 .byte   W03
 .byte   VOL , 17*songC6_mvl/mxv
 .byte   W01
 .byte   VOL , 16*songC6_mvl/mxv
 .byte   W03
 .byte   VOL , 16*songC6_mvl/mxv
 .byte   W03
 .byte   VOL , 16*songC6_mvl/mxv
 .byte   W03
 .byte   VOL , 15*songC6_mvl/mxv
 .byte   W02
 .byte   VOL , 15*songC6_mvl/mxv
 .byte   W03
 .byte   VOL , 15*songC6_mvl/mxv
 .byte   W03
 .byte   VOL , 14*songC6_mvl/mxv
 .byte   W03
 .byte   VOL , 14*songC6_mvl/mxv
 .byte   W03
 .byte   VOL , 14*songC6_mvl/mxv
 .byte   W01
 .byte   VOL , 13*songC6_mvl/mxv
 .byte   W02
@ 205   ----------------------------------------
 .byte   W01
 .byte   VOL , 13*songC6_mvl/mxv
 .byte   W03
 .byte   VOL , 13*songC6_mvl/mxv
 .byte   W03
 .byte   VOL , 12*songC6_mvl/mxv
 .byte   W03
 .byte   VOL , 12*songC6_mvl/mxv
 .byte   W02
 .byte   VOL , 12*songC6_mvl/mxv
 .byte   W03
 .byte   VOL , 11*songC6_mvl/mxv
 .byte   W03
 .byte   VOL , 11*songC6_mvl/mxv
 .byte   W03
 .byte   VOL , 11*songC6_mvl/mxv
 .byte   W01
 .byte   VOL , 10*songC6_mvl/mxv
 .byte   W03
 .byte   VOL , 10*songC6_mvl/mxv
 .byte   W03
 .byte   VOL , 10*songC6_mvl/mxv
 .byte   W03
 .byte   VOL , 9*songC6_mvl/mxv
 .byte   W03
 .byte   VOL , 9*songC6_mvl/mxv
 .byte   W02
 .byte   VOL , 9*songC6_mvl/mxv
 .byte   W03
 .byte   VOL , 8*songC6_mvl/mxv
 .byte   W03
 .byte   VOL , 8*songC6_mvl/mxv
 .byte   W03
 .byte   VOL , 8*songC6_mvl/mxv
 .byte   W02
 .byte   EOT
 .byte   Gs3 ,v073
 .byte   Fn4 ,v080
 .byte   Gs5
 .byte   W01
 .byte   VOL , 7*songC6_mvl/mxv
 .byte   W01
 .byte   VOL , 7*songC6_mvl/mxv
 .byte   W03
 .byte   VOL , 7*songC6_mvl/mxv
 .byte   W03
 .byte   VOL , 6*songC6_mvl/mxv
 .byte   W03
 .byte   VOL , 6*songC6_mvl/mxv
 .byte   W03
 .byte   VOL , 6*songC6_mvl/mxv
 .byte   W02
 .byte   VOL , 5*songC6_mvl/mxv
 .byte   W03
 .byte   VOL , 5*songC6_mvl/mxv
 .byte   W03
 .byte   VOL , 5*songC6_mvl/mxv
 .byte   W03
 .byte   VOL , 4*songC6_mvl/mxv
 .byte   W01
 .byte   VOL , 4*songC6_mvl/mxv
 .byte   W03
 .byte   VOL , 4*songC6_mvl/mxv
 .byte   W03
 .byte   VOL , 3*songC6_mvl/mxv
 .byte   W03
 .byte   VOL , 3*songC6_mvl/mxv
 .byte   W03
 .byte   VOL , 3*songC6_mvl/mxv
 .byte   W02
 .byte   VOL , 2*songC6_mvl/mxv
 .byte   W03
 .byte   VOL , 2*songC6_mvl/mxv
 .byte   W03
 .byte   VOL , 2*songC6_mvl/mxv
 .byte   W03
@ 206   ----------------------------------------
 .byte   VOL , 1*songC6_mvl/mxv
 .byte   W03
 .byte   VOL , 1*songC6_mvl/mxv
 .byte   W01
 .byte   VOL , 1*songC6_mvl/mxv
 .byte   W03
 .byte   VOL , 0*songC6_mvl/mxv
 .byte   W03
 .byte   VOL , 0*songC6_mvl/mxv
 .byte   W03
 .byte   VOL , 0*songC6_mvl/mxv
 .byte   W80
 .byte   W03
@ 207   ----------------------------------------
 .byte   W96
@ 208   ----------------------------------------
 .byte   W96
@ 209   ----------------------------------------
 .byte   W96
@ 210   ----------------------------------------
 .byte   W96
@ 211   ----------------------------------------
 .byte   W96
@ 212   ----------------------------------------
 .byte   W48
 .byte   GOTO
  .word Label_4_014ADC4E
 .byte   FINE

@**************** Track 6 (Midi-Chn.5) ****************@

songC6_006:
@ 000   ----------------------------------------
 .byte   KEYSH , songC6_key+0
Label_5_014AE60E:
 .byte   VOICE , 42
 .byte   PAN , c_v+2
 .byte   VOL , 38*songC6_mvl/mxv
 .byte   W96
@ 001   ----------------------------------------
 .byte   W96
@ 002   ----------------------------------------
 .byte   W96
@ 003   ----------------------------------------
 .byte   W96
@ 004   ----------------------------------------
 .byte   W96
@ 005   ----------------------------------------
 .byte   W96
@ 006   ----------------------------------------
 .byte   W96
@ 007   ----------------------------------------
 .byte   W96
@ 008   ----------------------------------------
 .byte   W96
@ 009   ----------------------------------------
 .byte   W96
@ 010   ----------------------------------------
 .byte   W96
@ 011   ----------------------------------------
 .byte   W96
@ 012   ----------------------------------------
 .byte   W96
@ 013   ----------------------------------------
 .byte   W96
@ 014   ----------------------------------------
 .byte   W96
@ 015   ----------------------------------------
 .byte   W96
@ 016   ----------------------------------------
 .byte   W96
@ 017   ----------------------------------------
 .byte   W96
@ 018   ----------------------------------------
 .byte   W96
@ 019   ----------------------------------------
 .byte   W96
@ 020   ----------------------------------------
 .byte   W96
@ 021   ----------------------------------------
 .byte   W96
@ 022   ----------------------------------------
 .byte   W96
@ 023   ----------------------------------------
 .byte   W96
@ 024   ----------------------------------------
 .byte   W96
@ 025   ----------------------------------------
 .byte   W96
@ 026   ----------------------------------------
 .byte   W96
@ 027   ----------------------------------------
 .byte   W96
@ 028   ----------------------------------------
 .byte   W96
@ 029   ----------------------------------------
 .byte   W96
@ 030   ----------------------------------------
 .byte   W96
@ 031   ----------------------------------------
 .byte   W48
 .byte   N23 ,En3 ,v084
 .byte   W13
 .byte   VOL , 38*songC6_mvl/mxv
 .byte   W03
 .byte   VOL , 38*songC6_mvl/mxv
 .byte   W02
 .byte   VOL , 37*songC6_mvl/mxv
 .byte   W01
 .byte   VOL , 37*songC6_mvl/mxv
 .byte   W02
 .byte   VOL , 37*songC6_mvl/mxv
 .byte   W01
 .byte   VOL , 36*songC6_mvl/mxv
 .byte   W02
 .byte   VOL , 36*songC6_mvl/mxv
 .byte   W01
 .byte   VOL , 36*songC6_mvl/mxv
 .byte   W02
 .byte   VOL , 35*songC6_mvl/mxv
 .byte   W01
 .byte   VOL , 35*songC6_mvl/mxv
 .byte   W02
 .byte   VOL , 35*songC6_mvl/mxv
 .byte   W01
 .byte   VOL , 34*songC6_mvl/mxv
 .byte   W02
 .byte   VOL , 33*songC6_mvl/mxv
 .byte   W03
 .byte   VOL , 38*songC6_mvl/mxv
 .byte   N04 ,Cs3 ,v080
 .byte   W12
@ 032   ----------------------------------------
 .byte   N23 ,Fs3
 .byte   W07
 .byte   VOL , 38*songC6_mvl/mxv
 .byte   W03
 .byte   VOL , 37*songC6_mvl/mxv
 .byte   W02
 .byte   VOL , 37*songC6_mvl/mxv
 .byte   W01
 .byte   VOL , 36*songC6_mvl/mxv
 .byte   W02
 .byte   VOL , 36*songC6_mvl/mxv
 .byte   W01
 .byte   VOL , 36*songC6_mvl/mxv
 .byte   W02
 .byte   VOL , 35*songC6_mvl/mxv
 .byte   W01
 .byte   VOL , 35*songC6_mvl/mxv
 .byte   W02
 .byte   VOL , 34*songC6_mvl/mxv
 .byte   W01
 .byte   VOL , 34*songC6_mvl/mxv
 .byte   W02
 .byte   VOL , 33*songC6_mvl/mxv
 .byte   W01
 .byte   VOL , 33*songC6_mvl/mxv
 .byte   W02
 .byte   VOL , 33*songC6_mvl/mxv
 .byte   W01
 .byte   VOL , 32*songC6_mvl/mxv
 .byte   W03
 .byte   VOL , 31*songC6_mvl/mxv
 .byte   W02
 .byte   VOL , 31*songC6_mvl/mxv
 .byte   W01
 .byte   VOL , 30*songC6_mvl/mxv
 .byte   W02
 .byte   VOL , 39*songC6_mvl/mxv
 .byte   N04 ,Gs3
 .byte   W12
 .byte   N17
 .byte   W18
 .byte   An3
 .byte   W18
 .byte   N11 ,Bn3
 .byte   W12
@ 033   ----------------------------------------
 .byte   N17 ,An3
 .byte   W18
 .byte   Gs3
 .byte   W18
 .byte   N11 ,Fs3
 .byte   W12
 .byte   N17 ,En3
 .byte   W18
 .byte   VOL , 33*songC6_mvl/mxv
 .byte   N32 ,Cs4
 .byte   W03
 .byte   VOL , 33*songC6_mvl/mxv
 .byte   W01
 .byte   VOL , 34*songC6_mvl/mxv
 .byte   W02
 .byte   VOL , 34*songC6_mvl/mxv
 .byte   W01
 .byte   VOL , 35*songC6_mvl/mxv
 .byte   W02
 .byte   VOL , 35*songC6_mvl/mxv
 .byte   W01
 .byte   VOL , 35*songC6_mvl/mxv
 .byte   W02
 .byte   VOL , 36*songC6_mvl/mxv
 .byte   W01
 .byte   VOL , 36*songC6_mvl/mxv
 .byte   W02
 .byte   VOL , 37*songC6_mvl/mxv
 .byte   W01
 .byte   VOL , 38*songC6_mvl/mxv
 .byte   W03
 .byte   VOL , 38*songC6_mvl/mxv
 .byte   W02
 .byte   VOL , 38*songC6_mvl/mxv
 .byte   W09
@ 034   ----------------------------------------
 .byte   W12
 .byte   N11 ,En4
 .byte   W12
 .byte   N04 ,Ds4
 .byte   W12
 .byte   VOL , 32*songC6_mvl/mxv
 .byte   N56 ,Cs4
 .byte   W01
 .byte   VOL , 33*songC6_mvl/mxv
 .byte   W03
 .byte   VOL , 33*songC6_mvl/mxv
 .byte   W02
 .byte   VOL , 33*songC6_mvl/mxv
 .byte   W01
 .byte   VOL , 34*songC6_mvl/mxv
 .byte   W03
 .byte   VOL , 34*songC6_mvl/mxv
 .byte   W02
 .byte   VOL , 35*songC6_mvl/mxv
 .byte   W01
 .byte   VOL , 35*songC6_mvl/mxv
 .byte   W02
 .byte   VOL , 36*songC6_mvl/mxv
 .byte   W01
 .byte   VOL , 36*songC6_mvl/mxv
 .byte   W02
 .byte   VOL , 36*songC6_mvl/mxv
 .byte   W03
 .byte   VOL , 37*songC6_mvl/mxv
 .byte   W01
 .byte   VOL , 37*songC6_mvl/mxv
 .byte   W06
 .byte   VOL , 37*songC6_mvl/mxv
 .byte   W02
 .byte   VOL , 38*songC6_mvl/mxv
 .byte   W10
 .byte   VOL , 37*songC6_mvl/mxv
 .byte   W02
 .byte   VOL , 36*songC6_mvl/mxv
 .byte   W01
 .byte   VOL , 36*songC6_mvl/mxv
 .byte   W02
 .byte   VOL , 35*songC6_mvl/mxv
 .byte   W01
 .byte   VOL , 35*songC6_mvl/mxv
 .byte   W02
 .byte   VOL , 33*songC6_mvl/mxv
 .byte   W01
 .byte   VOL , 32*songC6_mvl/mxv
 .byte   W02
 .byte   VOL , 31*songC6_mvl/mxv
 .byte   W01
 .byte   VOL , 30*songC6_mvl/mxv
 .byte   W02
 .byte   VOL , 28*songC6_mvl/mxv
 .byte   W01
 .byte   VOL , 27*songC6_mvl/mxv
 .byte   W02
 .byte   VOL , 26*songC6_mvl/mxv
 .byte   W01
 .byte   VOL , 22*songC6_mvl/mxv
 .byte   W02
@ 035   ----------------------------------------
 .byte   VOL , 38*songC6_mvl/mxv
 .byte   N11
 .byte   W12
 .byte   Bn3
 .byte   W12
 .byte   N17 ,An3
 .byte   W06
 .byte   VOL , 38*songC6_mvl/mxv
 .byte   W01
 .byte   VOL , 36*songC6_mvl/mxv
 .byte   W02
 .byte   VOL , 36*songC6_mvl/mxv
 .byte   W01
 .byte   VOL , 35*songC6_mvl/mxv
 .byte   W02
 .byte   VOL , 34*songC6_mvl/mxv
 .byte   W01
 .byte   VOL , 33*songC6_mvl/mxv
 .byte   W02
 .byte   VOL , 33*songC6_mvl/mxv
 .byte   W01
 .byte   VOL , 31*songC6_mvl/mxv
 .byte   W02
 .byte   VOL , 30*songC6_mvl/mxv
 .byte   W01
 .byte   VOL , 29*songC6_mvl/mxv
 .byte   W05
 .byte   VOL , 33*songC6_mvl/mxv
 .byte   N32 ,Bn3 ,v072
 .byte   W01
 .byte   VOL , 33*songC6_mvl/mxv
 .byte   W02
 .byte   VOL , 34*songC6_mvl/mxv
 .byte   W01
 .byte   VOL , 34*songC6_mvl/mxv
 .byte   W02
 .byte   VOL , 35*songC6_mvl/mxv
 .byte   W01
 .byte   VOL , 35*songC6_mvl/mxv
 .byte   W02
 .byte   VOL , 36*songC6_mvl/mxv
 .byte   W01
 .byte   VOL , 36*songC6_mvl/mxv
 .byte   W02
 .byte   VOL , 36*songC6_mvl/mxv
 .byte   W01
 .byte   VOL , 37*songC6_mvl/mxv
 .byte   W02
 .byte   VOL , 37*songC6_mvl/mxv
 .byte   W01
 .byte   VOL , 38*songC6_mvl/mxv
 .byte   W03
 .byte   VOL , 38*songC6_mvl/mxv
 .byte   W02
 .byte   VOL , 38*songC6_mvl/mxv
 .byte   W15
 .byte   N11 ,Gs3 ,v080
 .byte   W12
@ 036   ----------------------------------------
 .byte   N32 ,Fs3 ,v072
 .byte   W07
 .byte   VOL , 38*songC6_mvl/mxv
 .byte   W02
 .byte   VOL , 37*songC6_mvl/mxv
 .byte   W01
 .byte   VOL , 36*songC6_mvl/mxv
 .byte   W02
 .byte   VOL , 36*songC6_mvl/mxv
 .byte   W01
 .byte   VOL , 35*songC6_mvl/mxv
 .byte   W02
 .byte   VOL , 34*songC6_mvl/mxv
 .byte   W01
 .byte   VOL , 34*songC6_mvl/mxv
 .byte   W02
 .byte   VOL , 33*songC6_mvl/mxv
 .byte   W01
 .byte   VOL , 32*songC6_mvl/mxv
 .byte   W02
 .byte   VOL , 31*songC6_mvl/mxv
 .byte   W01
 .byte   VOL , 29*songC6_mvl/mxv
 .byte   W02
 .byte   VOL , 28*songC6_mvl/mxv
 .byte   W01
 .byte   VOL , 27*songC6_mvl/mxv
 .byte   W02
 .byte   VOL , 26*songC6_mvl/mxv
 .byte   W01
 .byte   VOL , 24*songC6_mvl/mxv
 .byte   W02
 .byte   VOL , 19*songC6_mvl/mxv
 .byte   W01
 .byte   VOL , 17*songC6_mvl/mxv
 .byte   W02
 .byte   VOL , 16*songC6_mvl/mxv
 .byte   W01
 .byte   VOL , 15*songC6_mvl/mxv
 .byte   W02
 .byte   VOL , 38*songC6_mvl/mxv
 .byte   N04 ,En3 ,v080
 .byte   W06
 .byte   Fs3
 .byte   W06
 .byte   N17 ,Gs3
 .byte   W18
 .byte   Fs3 ,v068
 .byte   W18
 .byte   N04 ,En3 ,v080
 .byte   W12
@ 037   ----------------------------------------
 .byte   N17 ,Fs3 ,v072
 .byte   W18
 .byte   Bn2 ,v064
 .byte   W18
 .byte   N04 ,Ds3 ,v080
 .byte   W12
 .byte   N32 ,Ds3 ,v072
 .byte   W06
 .byte   VOL , 38*songC6_mvl/mxv
 .byte   W03
 .byte   VOL , 38*songC6_mvl/mxv
 .byte   W06
 .byte   VOL , 37*songC6_mvl/mxv
 .byte   W03
 .byte   VOL , 37*songC6_mvl/mxv
 .byte   W04
 .byte   VOL , 37*songC6_mvl/mxv
 .byte   W02
 .byte   VOL , 36*songC6_mvl/mxv
 .byte   W03
 .byte   VOL , 36*songC6_mvl/mxv
 .byte   W01
 .byte   VOL , 35*songC6_mvl/mxv
 .byte   W02
 .byte   VOL , 35*songC6_mvl/mxv
 .byte   W01
 .byte   VOL , 35*songC6_mvl/mxv
 .byte   W02
 .byte   VOL , 34*songC6_mvl/mxv
 .byte   W01
 .byte   VOL , 34*songC6_mvl/mxv
 .byte   W02
 .byte   VOL , 38*songC6_mvl/mxv
 .byte   N08 ,En3 ,v080
 .byte   W12
@ 038   ----------------------------------------
 .byte   VOL , 31*songC6_mvl/mxv
 .byte   N92 ,Cs3 ,v072
 .byte   W03
 .byte   VOL , 31*songC6_mvl/mxv
 .byte   W01
 .byte   VOL , 32*songC6_mvl/mxv
 .byte   W02
 .byte   VOL , 32*songC6_mvl/mxv
 .byte   W01
 .byte   VOL , 33*songC6_mvl/mxv
 .byte   W03
 .byte   VOL , 33*songC6_mvl/mxv
 .byte   W02
 .byte   VOL , 34*songC6_mvl/mxv
 .byte   W01
 .byte   VOL , 34*songC6_mvl/mxv
 .byte   W02
 .byte   VOL , 34*songC6_mvl/mxv
 .byte   W01
 .byte   VOL , 35*songC6_mvl/mxv
 .byte   W02
 .byte   VOL , 35*songC6_mvl/mxv
 .byte   W03
 .byte   VOL , 36*songC6_mvl/mxv
 .byte   W01
 .byte   VOL , 36*songC6_mvl/mxv
 .byte   W05
 .byte   VOL , 36*songC6_mvl/mxv
 .byte   W06
 .byte   VOL , 37*songC6_mvl/mxv
 .byte   W19
 .byte   VOL , 36*songC6_mvl/mxv
 .byte   W05
 .byte   VOL , 36*songC6_mvl/mxv
 .byte   W03
 .byte   VOL , 36*songC6_mvl/mxv
 .byte   W03
 .byte   VOL , 35*songC6_mvl/mxv
 .byte   W01
 .byte   VOL , 35*songC6_mvl/mxv
 .byte   W02
 .byte   VOL , 35*songC6_mvl/mxv
 .byte   W01
 .byte   VOL , 34*songC6_mvl/mxv
 .byte   W02
 .byte   VOL , 34*songC6_mvl/mxv
 .byte   W01
 .byte   VOL , 33*songC6_mvl/mxv
 .byte   W02
 .byte   VOL , 33*songC6_mvl/mxv
 .byte   W01
 .byte   VOL , 33*songC6_mvl/mxv
 .byte   W02
 .byte   VOL , 32*songC6_mvl/mxv
 .byte   W01
 .byte   VOL , 31*songC6_mvl/mxv
 .byte   W02
 .byte   VOL , 31*songC6_mvl/mxv
 .byte   W01
 .byte   VOL , 30*songC6_mvl/mxv
 .byte   W02
 .byte   VOL , 30*songC6_mvl/mxv
 .byte   W01
 .byte   VOL , 29*songC6_mvl/mxv
 .byte   W02
 .byte   VOL , 28*songC6_mvl/mxv
 .byte   W01
 .byte   VOL , 27*songC6_mvl/mxv
 .byte   W02
 .byte   VOL , 26*songC6_mvl/mxv
 .byte   W01
 .byte   VOL , 25*songC6_mvl/mxv
 .byte   W02
 .byte   VOL , 24*songC6_mvl/mxv
 .byte   W01
 .byte   VOL , 23*songC6_mvl/mxv
 .byte   W02
 .byte   VOL , 20*songC6_mvl/mxv
 .byte   W01
 .byte   VOL , 20*songC6_mvl/mxv
 .byte   W02
@ 039   ----------------------------------------
 .byte   VOL , 17*songC6_mvl/mxv
 .byte   W01
 .byte   VOL , 16*songC6_mvl/mxv
 .byte   W02
 .byte   VOL , 14*songC6_mvl/mxv
 .byte   W01
 .byte   VOL , 12*songC6_mvl/mxv
 .byte   W02
 .byte   VOL , 10*songC6_mvl/mxv
 .byte   W01
 .byte   VOL , 7*songC6_mvl/mxv
 .byte   W02
 .byte   VOL , 5*songC6_mvl/mxv
 .byte   W01
 .byte   VOL , 0*songC6_mvl/mxv
 .byte   W08
 .byte   VOL , 0*songC6_mvl/mxv
 .byte   W01
 .byte   VOL , 1*songC6_mvl/mxv
 .byte   W02
 .byte   VOL , 1*songC6_mvl/mxv
 .byte   W01
 .byte   VOL , 2*songC6_mvl/mxv
 .byte   W02
 .byte   VOL , 38*songC6_mvl/mxv
 .byte   W72
@ 040   ----------------------------------------
 .byte   W96
@ 041   ----------------------------------------
 .byte   W96
@ 042   ----------------------------------------
 .byte   W96
@ 043   ----------------------------------------
 .byte   W96
@ 044   ----------------------------------------
 .byte   W96
@ 045   ----------------------------------------
 .byte   W96
@ 046   ----------------------------------------
 .byte   W96
@ 047   ----------------------------------------
 .byte   W96
@ 048   ----------------------------------------
 .byte   W96
@ 049   ----------------------------------------
 .byte   W96
@ 050   ----------------------------------------
 .byte   W96
@ 051   ----------------------------------------
 .byte   W96
@ 052   ----------------------------------------
 .byte   W96
@ 053   ----------------------------------------
 .byte   W96
@ 054   ----------------------------------------
 .byte   W96
@ 055   ----------------------------------------
 .byte   W96
@ 056   ----------------------------------------
 .byte   W96
@ 057   ----------------------------------------
 .byte   W96
@ 058   ----------------------------------------
Label_5_014AE820:
 .byte   W48
 .byte   VOL , 35*songC6_mvl/mxv
 .byte   W01
 .byte   VOL , 36*songC6_mvl/mxv
 .byte   W02
 .byte   VOL , 36*songC6_mvl/mxv
 .byte   W01
 .byte   VOL , 36*songC6_mvl/mxv
 .byte   W02
 .byte   VOL , 37*songC6_mvl/mxv
 .byte   W01
 .byte   VOL , 37*songC6_mvl/mxv
 .byte   W02
 .byte   VOL , 37*songC6_mvl/mxv
 .byte   W03
 .byte   VOL , 38*songC6_mvl/mxv
 .byte   W15
 .byte   VOL , 37*songC6_mvl/mxv
 .byte   W01
 .byte   VOL , 37*songC6_mvl/mxv
 .byte   W02
 .byte   VOL , 36*songC6_mvl/mxv
 .byte   W01
 .byte   VOL , 36*songC6_mvl/mxv
 .byte   W02
 .byte   VOL , 35*songC6_mvl/mxv
 .byte   W01
 .byte   VOL , 35*songC6_mvl/mxv
 .byte   W02
 .byte   VOL , 34*songC6_mvl/mxv
 .byte   W01
 .byte   VOL , 33*songC6_mvl/mxv
 .byte   W02
 .byte   VOL , 33*songC6_mvl/mxv
 .byte   W01
 .byte   VOL , 32*songC6_mvl/mxv
 .byte   W02
 .byte   VOL , 31*songC6_mvl/mxv
 .byte   W01
 .byte   VOL , 30*songC6_mvl/mxv
 .byte   W02
 .byte   VOL , 29*songC6_mvl/mxv
 .byte   W01
 .byte   VOL , 27*songC6_mvl/mxv
 .byte   W02
 .byte   PEND 
@ 059   ----------------------------------------
Label_5_014AE84F:
 .byte   VOL , 25*songC6_mvl/mxv
 .byte   W01
 .byte   VOL , 23*songC6_mvl/mxv
 .byte   W02
 .byte   VOL , 20*songC6_mvl/mxv
 .byte   W01
 .byte   VOL , 19*songC6_mvl/mxv
 .byte   W02
 .byte   VOL , 13*songC6_mvl/mxv
 .byte   W01
 .byte   VOL , 9*songC6_mvl/mxv
 .byte   W02
 .byte   VOL , 3*songC6_mvl/mxv
 .byte   W01
 .byte   VOL , 38*songC6_mvl/mxv
 .byte   W02
 .byte   N11 ,As3 ,v076
 .byte   W12
 .byte   Ds4 ,v072
 .byte   W12
 .byte   Fn4 ,v068
 .byte   W12
 .byte   N32 ,Fs4
 .byte   W36
 .byte   N05 ,Fn4 ,v072
 .byte   W12
 .byte   PEND 
@ 060   ----------------------------------------
Label_5_014AE872:
 .byte   N28 ,Fn4 ,v072
 .byte   W07
 .byte   VOL , 38*songC6_mvl/mxv
 .byte   W03
 .byte   VOL , 37*songC6_mvl/mxv
 .byte   W02
 .byte   VOL , 36*songC6_mvl/mxv
 .byte   W01
 .byte   VOL , 36*songC6_mvl/mxv
 .byte   W02
 .byte   VOL , 36*songC6_mvl/mxv
 .byte   W01
 .byte   VOL , 35*songC6_mvl/mxv
 .byte   W02
 .byte   VOL , 35*songC6_mvl/mxv
 .byte   W01
 .byte   VOL , 34*songC6_mvl/mxv
 .byte   W02
 .byte   VOL , 33*songC6_mvl/mxv
 .byte   W01
 .byte   VOL , 33*songC6_mvl/mxv
 .byte   W02
 .byte   VOL , 32*songC6_mvl/mxv
 .byte   W01
 .byte   VOL , 31*songC6_mvl/mxv
 .byte   W02
 .byte   VOL , 30*songC6_mvl/mxv
 .byte   W01
 .byte   VOL , 29*songC6_mvl/mxv
 .byte   W02
 .byte   VOL , 28*songC6_mvl/mxv
 .byte   W01
 .byte   VOL , 24*songC6_mvl/mxv
 .byte   W02
 .byte   VOL , 22*songC6_mvl/mxv
 .byte   W01
 .byte   VOL , 23*songC6_mvl/mxv
 .byte   W02
 .byte   VOL , 38*songC6_mvl/mxv
 .byte   N05 ,Cs4
 .byte   W06
 .byte   Ds4
 .byte   W06
 .byte   N17 ,Fn4 ,v076
 .byte   W18
 .byte   Fs4
 .byte   W18
 .byte   N11 ,Fn4
 .byte   W12
 .byte   PEND 
@ 061   ----------------------------------------
Label_5_014AE8AB:
 .byte   N23 ,Ds4 ,v076
 .byte   W24
 .byte   N17 ,Cs4 ,v072
 .byte   W24
 .byte   N32
 .byte   W12
 .byte   VOL , 38*songC6_mvl/mxv
 .byte   W01
 .byte   VOL , 37*songC6_mvl/mxv
 .byte   W03
 .byte   VOL , 36*songC6_mvl/mxv
 .byte   W02
 .byte   VOL , 36*songC6_mvl/mxv
 .byte   W01
 .byte   VOL , 35*songC6_mvl/mxv
 .byte   W02
 .byte   VOL , 35*songC6_mvl/mxv
 .byte   W01
 .byte   VOL , 34*songC6_mvl/mxv
 .byte   W02
 .byte   VOL , 34*songC6_mvl/mxv
 .byte   W01
 .byte   VOL , 33*songC6_mvl/mxv
 .byte   W02
 .byte   VOL , 33*songC6_mvl/mxv
 .byte   W01
 .byte   VOL , 32*songC6_mvl/mxv
 .byte   W02
 .byte   VOL , 32*songC6_mvl/mxv
 .byte   W01
 .byte   VOL , 31*songC6_mvl/mxv
 .byte   W02
 .byte   VOL , 31*songC6_mvl/mxv
 .byte   W01
 .byte   VOL , 30*songC6_mvl/mxv
 .byte   W02
 .byte   VOL , 38*songC6_mvl/mxv
 .byte   N11 ,Ds4
 .byte   W12
 .byte   PEND 
@ 062   ----------------------------------------
Label_5_014AE8D9:
 .byte   VOL , 29*songC6_mvl/mxv
 .byte   N92 ,As3 ,v072
 .byte   W01
 .byte   VOL , 29*songC6_mvl/mxv
 .byte   W02
 .byte   VOL , 30*songC6_mvl/mxv
 .byte   W01
 .byte   VOL , 30*songC6_mvl/mxv
 .byte   W02
 .byte   VOL , 31*songC6_mvl/mxv
 .byte   W01
 .byte   VOL , 32*songC6_mvl/mxv
 .byte   W02
 .byte   VOL , 33*songC6_mvl/mxv
 .byte   W01
 .byte   VOL , 34*songC6_mvl/mxv
 .byte   W02
 .byte   VOL , 34*songC6_mvl/mxv
 .byte   W01
 .byte   VOL , 34*songC6_mvl/mxv
 .byte   W02
 .byte   VOL , 35*songC6_mvl/mxv
 .byte   W01
 .byte   VOL , 35*songC6_mvl/mxv
 .byte   W02
 .byte   VOL , 36*songC6_mvl/mxv
 .byte   W03
 .byte   VOL , 36*songC6_mvl/mxv
 .byte   W01
 .byte   VOL , 37*songC6_mvl/mxv
 .byte   W03
 .byte   VOL , 37*songC6_mvl/mxv
 .byte   W06
 .byte   VOL , 37*songC6_mvl/mxv
 .byte   W03
 .byte   VOL , 38*songC6_mvl/mxv
 .byte   W18
 .byte   VOL , 37*songC6_mvl/mxv
 .byte   W03
 .byte   VOL , 37*songC6_mvl/mxv
 .byte   W05
 .byte   VOL , 36*songC6_mvl/mxv
 .byte   W01
 .byte   VOL , 36*songC6_mvl/mxv
 .byte   W02
 .byte   VOL , 36*songC6_mvl/mxv
 .byte   W03
 .byte   VOL , 35*songC6_mvl/mxv
 .byte   W01
 .byte   VOL , 35*songC6_mvl/mxv
 .byte   W02
 .byte   VOL , 34*songC6_mvl/mxv
 .byte   W01
 .byte   VOL , 34*songC6_mvl/mxv
 .byte   W02
 .byte   VOL , 33*songC6_mvl/mxv
 .byte   W01
 .byte   VOL , 33*songC6_mvl/mxv
 .byte   W02
 .byte   VOL , 32*songC6_mvl/mxv
 .byte   W01
 .byte   VOL , 32*songC6_mvl/mxv
 .byte   W02
 .byte   VOL , 31*songC6_mvl/mxv
 .byte   W01
 .byte   VOL , 30*songC6_mvl/mxv
 .byte   W02
 .byte   VOL , 29*songC6_mvl/mxv
 .byte   W01
 .byte   VOL , 29*songC6_mvl/mxv
 .byte   W02
 .byte   VOL , 28*songC6_mvl/mxv
 .byte   W01
 .byte   VOL , 27*songC6_mvl/mxv
 .byte   W02
 .byte   VOL , 26*songC6_mvl/mxv
 .byte   W01
 .byte   VOL , 25*songC6_mvl/mxv
 .byte   W02
 .byte   VOL , 24*songC6_mvl/mxv
 .byte   W01
 .byte   VOL , 23*songC6_mvl/mxv
 .byte   W02
 .byte   VOL , 22*songC6_mvl/mxv
 .byte   W01
 .byte   VOL , 21*songC6_mvl/mxv
 .byte   W02
 .byte   PEND 
@ 063   ----------------------------------------
Label_5_014AE935:
 .byte   VOL , 20*songC6_mvl/mxv
 .byte   W01
 .byte   VOL , 19*songC6_mvl/mxv
 .byte   W02
 .byte   VOL , 17*songC6_mvl/mxv
 .byte   W01
 .byte   VOL , 16*songC6_mvl/mxv
 .byte   W02
 .byte   VOL , 15*songC6_mvl/mxv
 .byte   W01
 .byte   VOL , 14*songC6_mvl/mxv
 .byte   W02
 .byte   VOL , 12*songC6_mvl/mxv
 .byte   W01
 .byte   VOL , 12*songC6_mvl/mxv
 .byte   W02
 .byte   VOL , 38*songC6_mvl/mxv
 .byte   W84
 .byte   PEND 
@ 064   ----------------------------------------
 .byte   W96
@ 065   ----------------------------------------
 .byte   W96
@ 066   ----------------------------------------
 .byte   W96
@ 067   ----------------------------------------
 .byte   W96
@ 068   ----------------------------------------
 .byte   W96
@ 069   ----------------------------------------
 .byte   W96
@ 070   ----------------------------------------
 .byte   W96
@ 071   ----------------------------------------
 .byte   W96
@ 072   ----------------------------------------
 .byte   W96
@ 073   ----------------------------------------
 .byte   W96
@ 074   ----------------------------------------
 .byte   PATT
  .word Label_5_014AE820
@ 075   ----------------------------------------
 .byte   PATT
  .word Label_5_014AE84F
@ 076   ----------------------------------------
 .byte   PATT
  .word Label_5_014AE872
@ 077   ----------------------------------------
 .byte   PATT
  .word Label_5_014AE8AB
@ 078   ----------------------------------------
 .byte   PATT
  .word Label_5_014AE8D9
@ 079   ----------------------------------------
 .byte   PATT
  .word Label_5_014AE935
@ 080   ----------------------------------------
 .byte   W96
@ 081   ----------------------------------------
 .byte   W96
@ 082   ----------------------------------------
 .byte   W96
@ 083   ----------------------------------------
 .byte   W96
@ 084   ----------------------------------------
 .byte   W96
@ 085   ----------------------------------------
 .byte   W96
@ 086   ----------------------------------------
 .byte   W96
@ 087   ----------------------------------------
 .byte   W96
@ 088   ----------------------------------------
 .byte   W96
@ 089   ----------------------------------------
 .byte   W96
@ 090   ----------------------------------------
 .byte   W96
@ 091   ----------------------------------------
 .byte   W96
@ 092   ----------------------------------------
 .byte   W96
@ 093   ----------------------------------------
 .byte   W96
@ 094   ----------------------------------------
 .byte   W96
@ 095   ----------------------------------------
 .byte   W96
@ 096   ----------------------------------------
 .byte   W96
@ 097   ----------------------------------------
 .byte   W96
@ 098   ----------------------------------------
 .byte   W96
@ 099   ----------------------------------------
 .byte   W96
@ 100   ----------------------------------------
 .byte   W96
@ 101   ----------------------------------------
 .byte   W48
 .byte   VOL , 26*songC6_mvl/mxv
 .byte   N32 ,Ds4 ,v072
 .byte   W01
 .byte   VOL , 28*songC6_mvl/mxv
 .byte   W02
 .byte   VOL , 29*songC6_mvl/mxv
 .byte   W01
 .byte   VOL , 30*songC6_mvl/mxv
 .byte   W02
 .byte   VOL , 33*songC6_mvl/mxv
 .byte   W01
 .byte   VOL , 34*songC6_mvl/mxv
 .byte   W02
 .byte   VOL , 35*songC6_mvl/mxv
 .byte   W01
 .byte   VOL , 36*songC6_mvl/mxv
 .byte   W02
 .byte   VOL , 36*songC6_mvl/mxv
 .byte   W01
 .byte   VOL , 37*songC6_mvl/mxv
 .byte   W02
 .byte   VOL , 37*songC6_mvl/mxv
 .byte   W01
 .byte   VOL , 37*songC6_mvl/mxv
 .byte   W02
 .byte   VOL , 38*songC6_mvl/mxv
 .byte   W01
 .byte   VOL , 38*songC6_mvl/mxv
 .byte   W17
 .byte   N11 ,Cs4 ,v080
 .byte   W12
@ 102   ----------------------------------------
 .byte   N32 ,Bn3
 .byte   W10
 .byte   VOL , 38*songC6_mvl/mxv
 .byte   W02
 .byte   VOL , 37*songC6_mvl/mxv
 .byte   W01
 .byte   VOL , 37*songC6_mvl/mxv
 .byte   W02
 .byte   VOL , 36*songC6_mvl/mxv
 .byte   W01
 .byte   VOL , 36*songC6_mvl/mxv
 .byte   W02
 .byte   VOL , 35*songC6_mvl/mxv
 .byte   W01
 .byte   VOL , 34*songC6_mvl/mxv
 .byte   W02
 .byte   VOL , 32*songC6_mvl/mxv
 .byte   W01
 .byte   VOL , 32*songC6_mvl/mxv
 .byte   W02
 .byte   VOL , 31*songC6_mvl/mxv
 .byte   W01
 .byte   VOL , 30*songC6_mvl/mxv
 .byte   W02
 .byte   VOL , 29*songC6_mvl/mxv
 .byte   W01
 .byte   VOL , 27*songC6_mvl/mxv
 .byte   W02
 .byte   VOL , 26*songC6_mvl/mxv
 .byte   W01
 .byte   VOL , 23*songC6_mvl/mxv
 .byte   W02
 .byte   VOL , 18*songC6_mvl/mxv
 .byte   W01
 .byte   VOL , 14*songC6_mvl/mxv
 .byte   W02
 .byte   VOL , 38*songC6_mvl/mxv
 .byte   N04 ,Gs3
 .byte   W06
 .byte   An3
 .byte   W06
 .byte   N17 ,Bn3
 .byte   W18
 .byte   An3 ,v068
 .byte   W18
 .byte   N11 ,Fs3 ,v076
 .byte   W12
@ 103   ----------------------------------------
 .byte   N17 ,Gs3 ,v080
 .byte   W18
 .byte   Fs3 ,v060
 .byte   W18
 .byte   N11 ,Ds3 ,v080
 .byte   W12
 .byte   N17 ,En3 ,v060
 .byte   W18
 .byte   N64 ,Cs4 ,v080
 .byte   W01
 .byte   VOL , 38*songC6_mvl/mxv
 .byte   W02
 .byte   VOL , 37*songC6_mvl/mxv
 .byte   W01
 .byte   VOL , 36*songC6_mvl/mxv
 .byte   W02
 .byte   VOL , 33*songC6_mvl/mxv
 .byte   W01
 .byte   VOL , 31*songC6_mvl/mxv
 .byte   W02
 .byte   VOL , 28*songC6_mvl/mxv
 .byte   W03
 .byte   VOL , 28*songC6_mvl/mxv
 .byte   W01
 .byte   VOL , 29*songC6_mvl/mxv
 .byte   W02
 .byte   VOL , 29*songC6_mvl/mxv
 .byte   W01
 .byte   VOL , 30*songC6_mvl/mxv
 .byte   W02
 .byte   VOL , 30*songC6_mvl/mxv
 .byte   W01
 .byte   VOL , 31*songC6_mvl/mxv
 .byte   W02
 .byte   VOL , 31*songC6_mvl/mxv
 .byte   W01
 .byte   VOL , 32*songC6_mvl/mxv
 .byte   W02
 .byte   VOL , 33*songC6_mvl/mxv
 .byte   W01
 .byte   VOL , 33*songC6_mvl/mxv
 .byte   W02
 .byte   VOL , 34*songC6_mvl/mxv
 .byte   W01
 .byte   VOL , 35*songC6_mvl/mxv
 .byte   W02
@ 104   ----------------------------------------
 .byte   W03
 .byte   VOL , 36*songC6_mvl/mxv
 .byte   W03
 .byte   VOL , 36*songC6_mvl/mxv
 .byte   W03
 .byte   VOL , 37*songC6_mvl/mxv
 .byte   W01
 .byte   VOL , 37*songC6_mvl/mxv
 .byte   W02
 .byte   VOL , 37*songC6_mvl/mxv
 .byte   W01
 .byte   VOL , 38*songC6_mvl/mxv
 .byte   W03
 .byte   VOL , 37*songC6_mvl/mxv
 .byte   W02
 .byte   VOL , 38*songC6_mvl/mxv
 .byte   W03
 .byte   VOL , 38*songC6_mvl/mxv
 .byte   W15
 .byte   N05 ,Bn3
 .byte   W06
 .byte   An3
 .byte   W06
 .byte   N92 ,Gs3
 .byte   W21
 .byte   VOL , 37*songC6_mvl/mxv
 .byte   W01
 .byte   VOL , 37*songC6_mvl/mxv
 .byte   W03
 .byte   VOL , 37*songC6_mvl/mxv
 .byte   W03
 .byte   VOL , 36*songC6_mvl/mxv
 .byte   W03
 .byte   VOL , 36*songC6_mvl/mxv
 .byte   W02
 .byte   VOL , 36*songC6_mvl/mxv
 .byte   W03
 .byte   VOL , 35*songC6_mvl/mxv
 .byte   W03
 .byte   VOL , 35*songC6_mvl/mxv
 .byte   W03
 .byte   VOL , 35*songC6_mvl/mxv
 .byte   W03
 .byte   VOL , 34*songC6_mvl/mxv
 .byte   W01
 .byte   VOL , 34*songC6_mvl/mxv
 .byte   W02
@ 105   ----------------------------------------
 .byte   W01
 .byte   VOL , 34*songC6_mvl/mxv
 .byte   W03
 .byte   VOL , 33*songC6_mvl/mxv
 .byte   W03
 .byte   VOL , 33*songC6_mvl/mxv
 .byte   W02
 .byte   VOL , 33*songC6_mvl/mxv
 .byte   W03
 .byte   VOL , 32*songC6_mvl/mxv
 .byte   W03
 .byte   VOL , 32*songC6_mvl/mxv
 .byte   W03
 .byte   VOL , 32*songC6_mvl/mxv
 .byte   W01
 .byte   VOL , 31*songC6_mvl/mxv
 .byte   W03
 .byte   VOL , 31*songC6_mvl/mxv
 .byte   W03
 .byte   VOL , 31*songC6_mvl/mxv
 .byte   W03
 .byte   VOL , 30*songC6_mvl/mxv
 .byte   W02
 .byte   VOL , 30*songC6_mvl/mxv
 .byte   W03
 .byte   VOL , 30*songC6_mvl/mxv
 .byte   W03
 .byte   VOL , 29*songC6_mvl/mxv
 .byte   W03
 .byte   VOL , 29*songC6_mvl/mxv
 .byte   W01
 .byte   VOL , 29*songC6_mvl/mxv
 .byte   W03
 .byte   VOL , 28*songC6_mvl/mxv
 .byte   W03
 .byte   VOL , 28*songC6_mvl/mxv
 .byte   W03
 .byte   VOL , 28*songC6_mvl/mxv
 .byte   W02
 .byte   VOL , 27*songC6_mvl/mxv
 .byte   W03
 .byte   VOL , 27*songC6_mvl/mxv
 .byte   W03
 .byte   VOL , 27*songC6_mvl/mxv
 .byte   W03
 .byte   VOL , 26*songC6_mvl/mxv
 .byte   W01
 .byte   VOL , 26*songC6_mvl/mxv
 .byte   W03
 .byte   VOL , 26*songC6_mvl/mxv
 .byte   W03
 .byte   VOL , 25*songC6_mvl/mxv
 .byte   W03
 .byte   VOL , 25*songC6_mvl/mxv
 .byte   W02
 .byte   VOL , 25*songC6_mvl/mxv
 .byte   W03
 .byte   VOL , 24*songC6_mvl/mxv
 .byte   W04
 .byte   VOL , 24*songC6_mvl/mxv
 .byte   W02
 .byte   VOL , 24*songC6_mvl/mxv
 .byte   W01
 .byte   VOL , 23*songC6_mvl/mxv
 .byte   W02
 .byte   VOL , 23*songC6_mvl/mxv
 .byte   W01
 .byte   VOL , 22*songC6_mvl/mxv
 .byte   W03
 .byte   VOL , 22*songC6_mvl/mxv
 .byte   W02
 .byte   VOL , 21*songC6_mvl/mxv
 .byte   W03
 .byte   VOL , 20*songC6_mvl/mxv
 .byte   W01
 .byte   VOL , 19*songC6_mvl/mxv
 .byte   W02
@ 106   ----------------------------------------
 .byte   VOL , 19*songC6_mvl/mxv
 .byte   W01
 .byte   VOL , 18*songC6_mvl/mxv
 .byte   W03
 .byte   VOL , 17*songC6_mvl/mxv
 .byte   W02
 .byte   VOL , 16*songC6_mvl/mxv
 .byte   W01
 .byte   VOL , 15*songC6_mvl/mxv
 .byte   W02
 .byte   VOL , 14*songC6_mvl/mxv
 .byte   W01
 .byte   VOL , 14*songC6_mvl/mxv
 .byte   W02
 .byte   VOL , 13*songC6_mvl/mxv
 .byte   W01
 .byte   VOL , 12*songC6_mvl/mxv
 .byte   W02
 .byte   VOL , 12*songC6_mvl/mxv
 .byte   W01
 .byte   VOL , 11*songC6_mvl/mxv
 .byte   W02
 .byte   VOL , 10*songC6_mvl/mxv
 .byte   W01
 .byte   VOL , 9*songC6_mvl/mxv
 .byte   W02
 .byte   VOL , 8*songC6_mvl/mxv
 .byte   W01
 .byte   VOL , 7*songC6_mvl/mxv
 .byte   W02
 .byte   VOL , 6*songC6_mvl/mxv
 .byte   W01
 .byte   VOL , 5*songC6_mvl/mxv
 .byte   W02
 .byte   VOL , 4*songC6_mvl/mxv
 .byte   W01
 .byte   VOL , 3*songC6_mvl/mxv
 .byte   W02
 .byte   VOL , 2*songC6_mvl/mxv
 .byte   W01
 .byte   VOL , 1*songC6_mvl/mxv
 .byte   W02
 .byte   VOL , 0*songC6_mvl/mxv
 .byte   W60
 .byte   W03
@ 107   ----------------------------------------
 .byte   W96
@ 108   ----------------------------------------
 .byte   W96
@ 109   ----------------------------------------
 .byte   W42
 .byte   VOL , 38*songC6_mvl/mxv
 .byte   W06
 .byte   N32 ,Bn4 ,v076
 .byte   W36
 .byte   N11 ,An4 ,v064
 .byte   W12
@ 110   ----------------------------------------
 .byte   N32 ,Gs4
 .byte   W04
 .byte   VOL , 38*songC6_mvl/mxv
 .byte   W02
 .byte   VOL , 38*songC6_mvl/mxv
 .byte   W01
 .byte   VOL , 37*songC6_mvl/mxv
 .byte   W03
 .byte   VOL , 36*songC6_mvl/mxv
 .byte   W02
 .byte   VOL , 36*songC6_mvl/mxv
 .byte   W01
 .byte   VOL , 35*songC6_mvl/mxv
 .byte   W02
 .byte   VOL , 35*songC6_mvl/mxv
 .byte   W01
 .byte   VOL , 34*songC6_mvl/mxv
 .byte   W02
 .byte   VOL , 33*songC6_mvl/mxv
 .byte   W01
 .byte   VOL , 33*songC6_mvl/mxv
 .byte   W02
 .byte   VOL , 32*songC6_mvl/mxv
 .byte   W01
 .byte   VOL , 31*songC6_mvl/mxv
 .byte   W02
 .byte   VOL , 30*songC6_mvl/mxv
 .byte   W01
 .byte   VOL , 28*songC6_mvl/mxv
 .byte   W02
 .byte   VOL , 26*songC6_mvl/mxv
 .byte   W01
 .byte   VOL , 22*songC6_mvl/mxv
 .byte   W02
 .byte   VOL , 18*songC6_mvl/mxv
 .byte   W01
 .byte   VOL , 12*songC6_mvl/mxv
 .byte   W02
 .byte   VOL , 7*songC6_mvl/mxv
 .byte   W01
 .byte   VOL , 38*songC6_mvl/mxv
 .byte   W02
 .byte   N04 ,En4 ,v080
 .byte   W06
 .byte   Fs4
 .byte   W06
 .byte   N17 ,Gs4
 .byte   W18
 .byte   Fs4 ,v068
 .byte   W18
 .byte   N11 ,En4 ,v080
 .byte   W12
@ 111   ----------------------------------------
 .byte   N17 ,Ds4 ,v068
 .byte   W18
 .byte   Bn3 ,v080
 .byte   W18
 .byte   N11 ,Gs3 ,v060
 .byte   W12
 .byte   VOL , 29*songC6_mvl/mxv
 .byte   N92 ,Ds4 ,v072
 .byte   W01
 .byte   VOL , 29*songC6_mvl/mxv
 .byte   W02
 .byte   VOL , 30*songC6_mvl/mxv
 .byte   W01
 .byte   VOL , 30*songC6_mvl/mxv
 .byte   W02
 .byte   VOL , 31*songC6_mvl/mxv
 .byte   W01
 .byte   VOL , 31*songC6_mvl/mxv
 .byte   W02
 .byte   VOL , 31*songC6_mvl/mxv
 .byte   W01
 .byte   VOL , 32*songC6_mvl/mxv
 .byte   W02
 .byte   VOL , 32*songC6_mvl/mxv
 .byte   W01
 .byte   VOL , 33*songC6_mvl/mxv
 .byte   W02
 .byte   VOL , 33*songC6_mvl/mxv
 .byte   W01
 .byte   VOL , 33*songC6_mvl/mxv
 .byte   W02
 .byte   VOL , 34*songC6_mvl/mxv
 .byte   W01
 .byte   VOL , 34*songC6_mvl/mxv
 .byte   W02
 .byte   VOL , 35*songC6_mvl/mxv
 .byte   W01
 .byte   VOL , 36*songC6_mvl/mxv
 .byte   W02
 .byte   VOL , 36*songC6_mvl/mxv
 .byte   W03
 .byte   VOL , 37*songC6_mvl/mxv
 .byte   W01
 .byte   VOL , 37*songC6_mvl/mxv
 .byte   W02
 .byte   VOL , 37*songC6_mvl/mxv
 .byte   W01
 .byte   VOL , 38*songC6_mvl/mxv
 .byte   W02
 .byte   VOL , 38*songC6_mvl/mxv
 .byte   W01
 .byte   VOL , 38*songC6_mvl/mxv
 .byte   W14
@ 112   ----------------------------------------
 .byte   W15
 .byte   VOL , 38*songC6_mvl/mxv
 .byte   W04
 .byte   VOL , 37*songC6_mvl/mxv
 .byte   W02
 .byte   VOL , 37*songC6_mvl/mxv
 .byte   W01
 .byte   VOL , 37*songC6_mvl/mxv
 .byte   W02
 .byte   VOL , 36*songC6_mvl/mxv
 .byte   W01
 .byte   VOL , 36*songC6_mvl/mxv
 .byte   W02
 .byte   VOL , 35*songC6_mvl/mxv
 .byte   W01
 .byte   VOL , 35*songC6_mvl/mxv
 .byte   W02
 .byte   VOL , 34*songC6_mvl/mxv
 .byte   W01
 .byte   VOL , 33*songC6_mvl/mxv
 .byte   W02
 .byte   VOL , 33*songC6_mvl/mxv
 .byte   W01
 .byte   VOL , 32*songC6_mvl/mxv
 .byte   W02
 .byte   VOL , 31*songC6_mvl/mxv
 .byte   W01
 .byte   VOL , 31*songC6_mvl/mxv
 .byte   W02
 .byte   VOL , 30*songC6_mvl/mxv
 .byte   W01
 .byte   VOL , 29*songC6_mvl/mxv
 .byte   W02
 .byte   VOL , 28*songC6_mvl/mxv
 .byte   W01
 .byte   VOL , 26*songC6_mvl/mxv
 .byte   W02
 .byte   VOL , 26*songC6_mvl/mxv
 .byte   W01
 .byte   VOL , 25*songC6_mvl/mxv
 .byte   W02
 .byte   N68 ,Cs4 ,v068
 .byte   W01
 .byte   VOL , 25*songC6_mvl/mxv
 .byte   W02
 .byte   VOL , 26*songC6_mvl/mxv
 .byte   W01
 .byte   VOL , 27*songC6_mvl/mxv
 .byte   W02
 .byte   VOL , 28*songC6_mvl/mxv
 .byte   W01
 .byte   VOL , 28*songC6_mvl/mxv
 .byte   W02
 .byte   VOL , 29*songC6_mvl/mxv
 .byte   W01
 .byte   VOL , 30*songC6_mvl/mxv
 .byte   W02
 .byte   VOL , 30*songC6_mvl/mxv
 .byte   W01
 .byte   VOL , 31*songC6_mvl/mxv
 .byte   W02
 .byte   VOL , 31*songC6_mvl/mxv
 .byte   W01
 .byte   VOL , 32*songC6_mvl/mxv
 .byte   W02
 .byte   VOL , 32*songC6_mvl/mxv
 .byte   W01
 .byte   VOL , 33*songC6_mvl/mxv
 .byte   W02
 .byte   VOL , 33*songC6_mvl/mxv
 .byte   W01
 .byte   VOL , 34*songC6_mvl/mxv
 .byte   W02
 .byte   VOL , 34*songC6_mvl/mxv
 .byte   W01
 .byte   VOL , 34*songC6_mvl/mxv
 .byte   W02
 .byte   VOL , 35*songC6_mvl/mxv
 .byte   W15
 .byte   VOL , 34*songC6_mvl/mxv
 .byte   W03
 .byte   VOL , 34*songC6_mvl/mxv
 .byte   W03
@ 113   ----------------------------------------
 .byte   VOL , 33*songC6_mvl/mxv
 .byte   W01
 .byte   VOL , 33*songC6_mvl/mxv
 .byte   W02
 .byte   VOL , 32*songC6_mvl/mxv
 .byte   W01
 .byte   VOL , 32*songC6_mvl/mxv
 .byte   W02
 .byte   VOL , 31*songC6_mvl/mxv
 .byte   W01
 .byte   VOL , 31*songC6_mvl/mxv
 .byte   W02
 .byte   VOL , 30*songC6_mvl/mxv
 .byte   W01
 .byte   VOL , 30*songC6_mvl/mxv
 .byte   W02
 .byte   VOL , 29*songC6_mvl/mxv
 .byte   W01
 .byte   VOL , 28*songC6_mvl/mxv
 .byte   W02
 .byte   VOL , 27*songC6_mvl/mxv
 .byte   W01
 .byte   VOL , 27*songC6_mvl/mxv
 .byte   W02
 .byte   VOL , 26*songC6_mvl/mxv
 .byte   W01
 .byte   VOL , 25*songC6_mvl/mxv
 .byte   W02
 .byte   VOL , 24*songC6_mvl/mxv
 .byte   W01
 .byte   VOL , 23*songC6_mvl/mxv
 .byte   W02
 .byte   VOL , 22*songC6_mvl/mxv
 .byte   W01
 .byte   VOL , 21*songC6_mvl/mxv
 .byte   W02
 .byte   VOL , 20*songC6_mvl/mxv
 .byte   W01
 .byte   VOL , 18*songC6_mvl/mxv
 .byte   W02
 .byte   VOL , 17*songC6_mvl/mxv
 .byte   W01
 .byte   VOL , 16*songC6_mvl/mxv
 .byte   W02
 .byte   VOL , 15*songC6_mvl/mxv
 .byte   W01
 .byte   VOL , 13*songC6_mvl/mxv
 .byte   W02
 .byte   VOL , 12*songC6_mvl/mxv
 .byte   W01
 .byte   VOL , 11*songC6_mvl/mxv
 .byte   W02
 .byte   VOL , 9*songC6_mvl/mxv
 .byte   W01
 .byte   VOL , 8*songC6_mvl/mxv
 .byte   W02
 .byte   VOL , 7*songC6_mvl/mxv
 .byte   W01
 .byte   VOL , 6*songC6_mvl/mxv
 .byte   W02
 .byte   VOL , 5*songC6_mvl/mxv
 .byte   W01
 .byte   VOL , 3*songC6_mvl/mxv
 .byte   W02
 .byte   VOL , 38*songC6_mvl/mxv
 .byte   W48
@ 114   ----------------------------------------
 .byte   W96
@ 115   ----------------------------------------
 .byte   W96
@ 116   ----------------------------------------
 .byte   W96
@ 117   ----------------------------------------
 .byte   W96
@ 118   ----------------------------------------
 .byte   W96
@ 119   ----------------------------------------
 .byte   W96
@ 120   ----------------------------------------
 .byte   W96
@ 121   ----------------------------------------
 .byte   W96
@ 122   ----------------------------------------
 .byte   W96
@ 123   ----------------------------------------
 .byte   W96
@ 124   ----------------------------------------
 .byte   W96
@ 125   ----------------------------------------
 .byte   W96
@ 126   ----------------------------------------
 .byte   W96
@ 127   ----------------------------------------
 .byte   W96
@ 128   ----------------------------------------
 .byte   W96
@ 129   ----------------------------------------
 .byte   W96
@ 130   ----------------------------------------
 .byte   W96
@ 131   ----------------------------------------
 .byte   W96
@ 132   ----------------------------------------
 .byte   W96
@ 133   ----------------------------------------
 .byte   PATT
  .word Label_5_014AE820
@ 134   ----------------------------------------
Label_5_014AEBFD:
 .byte   VOL , 25*songC6_mvl/mxv
 .byte   W01
 .byte   VOL , 23*songC6_mvl/mxv
 .byte   W02
 .byte   VOL , 20*songC6_mvl/mxv
 .byte   W01
 .byte   VOL , 19*songC6_mvl/mxv
 .byte   W02
 .byte   VOL , 13*songC6_mvl/mxv
 .byte   W01
 .byte   VOL , 9*songC6_mvl/mxv
 .byte   W02
 .byte   VOL , 3*songC6_mvl/mxv
 .byte   W01
 .byte   VOL , 38*songC6_mvl/mxv
 .byte   W02
 .byte   N11 ,Cn4 ,v076
 .byte   W12
 .byte   Fn4 ,v072
 .byte   W12
 .byte   Gn4 ,v068
 .byte   W12
 .byte   N32 ,Gs4
 .byte   W36
 .byte   N05 ,Gn4 ,v072
 .byte   W12
 .byte   PEND 
@ 135   ----------------------------------------
Label_5_014AEC20:
 .byte   N28 ,Gn4 ,v072
 .byte   W07
 .byte   VOL , 38*songC6_mvl/mxv
 .byte   W03
 .byte   VOL , 37*songC6_mvl/mxv
 .byte   W02
 .byte   VOL , 36*songC6_mvl/mxv
 .byte   W01
 .byte   VOL , 36*songC6_mvl/mxv
 .byte   W02
 .byte   VOL , 36*songC6_mvl/mxv
 .byte   W01
 .byte   VOL , 35*songC6_mvl/mxv
 .byte   W02
 .byte   VOL , 35*songC6_mvl/mxv
 .byte   W01
 .byte   VOL , 34*songC6_mvl/mxv
 .byte   W02
 .byte   VOL , 33*songC6_mvl/mxv
 .byte   W01
 .byte   VOL , 33*songC6_mvl/mxv
 .byte   W02
 .byte   VOL , 32*songC6_mvl/mxv
 .byte   W01
 .byte   VOL , 31*songC6_mvl/mxv
 .byte   W02
 .byte   VOL , 30*songC6_mvl/mxv
 .byte   W01
 .byte   VOL , 29*songC6_mvl/mxv
 .byte   W02
 .byte   VOL , 28*songC6_mvl/mxv
 .byte   W01
 .byte   VOL , 24*songC6_mvl/mxv
 .byte   W02
 .byte   VOL , 22*songC6_mvl/mxv
 .byte   W01
 .byte   VOL , 23*songC6_mvl/mxv
 .byte   W02
 .byte   VOL , 38*songC6_mvl/mxv
 .byte   N05 ,Ds4
 .byte   W06
 .byte   Fn4
 .byte   W06
 .byte   N17 ,Gn4 ,v076
 .byte   W18
 .byte   Gs4
 .byte   W18
 .byte   N11 ,Gn4
 .byte   W12
 .byte   PEND 
@ 136   ----------------------------------------
Label_5_014AEC59:
 .byte   N23 ,Fn4 ,v076
 .byte   W24
 .byte   N17 ,Ds4 ,v072
 .byte   W24
 .byte   N32
 .byte   W12
 .byte   VOL , 38*songC6_mvl/mxv
 .byte   W01
 .byte   VOL , 37*songC6_mvl/mxv
 .byte   W03
 .byte   VOL , 36*songC6_mvl/mxv
 .byte   W02
 .byte   VOL , 36*songC6_mvl/mxv
 .byte   W01
 .byte   VOL , 35*songC6_mvl/mxv
 .byte   W02
 .byte   VOL , 35*songC6_mvl/mxv
 .byte   W01
 .byte   VOL , 34*songC6_mvl/mxv
 .byte   W02
 .byte   VOL , 34*songC6_mvl/mxv
 .byte   W01
 .byte   VOL , 33*songC6_mvl/mxv
 .byte   W02
 .byte   VOL , 33*songC6_mvl/mxv
 .byte   W01
 .byte   VOL , 32*songC6_mvl/mxv
 .byte   W02
 .byte   VOL , 32*songC6_mvl/mxv
 .byte   W01
 .byte   VOL , 31*songC6_mvl/mxv
 .byte   W02
 .byte   VOL , 31*songC6_mvl/mxv
 .byte   W01
 .byte   VOL , 30*songC6_mvl/mxv
 .byte   W02
 .byte   VOL , 38*songC6_mvl/mxv
 .byte   N11 ,Fn4
 .byte   W12
 .byte   PEND 
@ 137   ----------------------------------------
Label_5_014AEC87:
 .byte   VOL , 29*songC6_mvl/mxv
 .byte   N92 ,Cn4 ,v072
 .byte   W01
 .byte   VOL , 29*songC6_mvl/mxv
 .byte   W02
 .byte   VOL , 30*songC6_mvl/mxv
 .byte   W01
 .byte   VOL , 30*songC6_mvl/mxv
 .byte   W02
 .byte   VOL , 31*songC6_mvl/mxv
 .byte   W01
 .byte   VOL , 32*songC6_mvl/mxv
 .byte   W02
 .byte   VOL , 33*songC6_mvl/mxv
 .byte   W01
 .byte   VOL , 34*songC6_mvl/mxv
 .byte   W02
 .byte   VOL , 34*songC6_mvl/mxv
 .byte   W01
 .byte   VOL , 34*songC6_mvl/mxv
 .byte   W02
 .byte   VOL , 35*songC6_mvl/mxv
 .byte   W01
 .byte   VOL , 35*songC6_mvl/mxv
 .byte   W02
 .byte   VOL , 36*songC6_mvl/mxv
 .byte   W03
 .byte   VOL , 36*songC6_mvl/mxv
 .byte   W01
 .byte   VOL , 37*songC6_mvl/mxv
 .byte   W03
 .byte   VOL , 37*songC6_mvl/mxv
 .byte   W06
 .byte   VOL , 37*songC6_mvl/mxv
 .byte   W03
 .byte   VOL , 38*songC6_mvl/mxv
 .byte   W18
 .byte   VOL , 37*songC6_mvl/mxv
 .byte   W03
 .byte   VOL , 37*songC6_mvl/mxv
 .byte   W05
 .byte   VOL , 36*songC6_mvl/mxv
 .byte   W01
 .byte   VOL , 36*songC6_mvl/mxv
 .byte   W02
 .byte   VOL , 36*songC6_mvl/mxv
 .byte   W03
 .byte   VOL , 35*songC6_mvl/mxv
 .byte   W01
 .byte   VOL , 35*songC6_mvl/mxv
 .byte   W02
 .byte   VOL , 34*songC6_mvl/mxv
 .byte   W01
 .byte   VOL , 34*songC6_mvl/mxv
 .byte   W02
 .byte   VOL , 33*songC6_mvl/mxv
 .byte   W01
 .byte   VOL , 33*songC6_mvl/mxv
 .byte   W02
 .byte   VOL , 32*songC6_mvl/mxv
 .byte   W01
 .byte   VOL , 32*songC6_mvl/mxv
 .byte   W02
 .byte   VOL , 31*songC6_mvl/mxv
 .byte   W01
 .byte   VOL , 30*songC6_mvl/mxv
 .byte   W02
 .byte   VOL , 29*songC6_mvl/mxv
 .byte   W01
 .byte   VOL , 29*songC6_mvl/mxv
 .byte   W02
 .byte   VOL , 28*songC6_mvl/mxv
 .byte   W01
 .byte   VOL , 27*songC6_mvl/mxv
 .byte   W02
 .byte   VOL , 26*songC6_mvl/mxv
 .byte   W01
 .byte   VOL , 25*songC6_mvl/mxv
 .byte   W02
 .byte   VOL , 24*songC6_mvl/mxv
 .byte   W01
 .byte   VOL , 23*songC6_mvl/mxv
 .byte   W02
 .byte   VOL , 22*songC6_mvl/mxv
 .byte   W01
 .byte   VOL , 21*songC6_mvl/mxv
 .byte   W02
 .byte   PEND 
@ 138   ----------------------------------------
 .byte   PATT
  .word Label_5_014AE935
@ 139   ----------------------------------------
 .byte   W96
@ 140   ----------------------------------------
 .byte   W96
@ 141   ----------------------------------------
 .byte   W96
@ 142   ----------------------------------------
 .byte   W96
@ 143   ----------------------------------------
 .byte   W96
@ 144   ----------------------------------------
 .byte   W96
@ 145   ----------------------------------------
 .byte   W96
@ 146   ----------------------------------------
 .byte   W96
@ 147   ----------------------------------------
 .byte   W96
@ 148   ----------------------------------------
 .byte   W96
@ 149   ----------------------------------------
 .byte   PATT
  .word Label_5_014AE820
@ 150   ----------------------------------------
 .byte   PATT
  .word Label_5_014AEBFD
@ 151   ----------------------------------------
 .byte   PATT
  .word Label_5_014AEC20
@ 152   ----------------------------------------
 .byte   PATT
  .word Label_5_014AEC59
@ 153   ----------------------------------------
 .byte   PATT
  .word Label_5_014AEC87
@ 154   ----------------------------------------
 .byte   PATT
  .word Label_5_014AE935
@ 155   ----------------------------------------
 .byte   W96
@ 156   ----------------------------------------
 .byte   W96
@ 157   ----------------------------------------
 .byte   W96
@ 158   ----------------------------------------
 .byte   W96
@ 159   ----------------------------------------
 .byte   W96
@ 160   ----------------------------------------
 .byte   W96
@ 161   ----------------------------------------
 .byte   W96
@ 162   ----------------------------------------
 .byte   W96
@ 163   ----------------------------------------
 .byte   W96
@ 164   ----------------------------------------
 .byte   W96
@ 165   ----------------------------------------
 .byte   W96
@ 166   ----------------------------------------
 .byte   W96
@ 167   ----------------------------------------
 .byte   W96
@ 168   ----------------------------------------
 .byte   W48
 .byte   VOL , 38*songC6_mvl/mxv
 .byte   N32 ,As3 ,v076
 .byte   W10
 .byte   VOL , 38*songC6_mvl/mxv
 .byte   W02
 .byte   VOL , 37*songC6_mvl/mxv
 .byte   W01
 .byte   VOL , 37*songC6_mvl/mxv
 .byte   W02
 .byte   VOL , 36*songC6_mvl/mxv
 .byte   W01
 .byte   VOL , 36*songC6_mvl/mxv
 .byte   W02
 .byte   VOL , 35*songC6_mvl/mxv
 .byte   W01
 .byte   VOL , 34*songC6_mvl/mxv
 .byte   W02
 .byte   VOL , 34*songC6_mvl/mxv
 .byte   W01
 .byte   VOL , 33*songC6_mvl/mxv
 .byte   W02
 .byte   VOL , 32*songC6_mvl/mxv
 .byte   W01
 .byte   VOL , 31*songC6_mvl/mxv
 .byte   W02
 .byte   VOL , 30*songC6_mvl/mxv
 .byte   W01
 .byte   VOL , 29*songC6_mvl/mxv
 .byte   W02
 .byte   VOL , 29*songC6_mvl/mxv
 .byte   W01
 .byte   VOL , 28*songC6_mvl/mxv
 .byte   W02
 .byte   VOL , 27*songC6_mvl/mxv
 .byte   W01
 .byte   VOL , 26*songC6_mvl/mxv
 .byte   W02
 .byte   VOL , 38*songC6_mvl/mxv
 .byte   N11 ,Cn4 ,v080
 .byte   W12
@ 169   ----------------------------------------
 .byte   VOL , 31*songC6_mvl/mxv
 .byte   N92 ,Gs3
 .byte   W01
 .byte   VOL , 31*songC6_mvl/mxv
 .byte   W02
 .byte   VOL , 32*songC6_mvl/mxv
 .byte   W01
 .byte   VOL , 32*songC6_mvl/mxv
 .byte   W02
 .byte   VOL , 32*songC6_mvl/mxv
 .byte   W01
 .byte   VOL , 33*songC6_mvl/mxv
 .byte   W02
 .byte   VOL , 33*songC6_mvl/mxv
 .byte   W01
 .byte   VOL , 33*songC6_mvl/mxv
 .byte   W02
 .byte   VOL , 34*songC6_mvl/mxv
 .byte   W01
 .byte   VOL , 34*songC6_mvl/mxv
 .byte   W02
 .byte   VOL , 35*songC6_mvl/mxv
 .byte   W01
 .byte   VOL , 35*songC6_mvl/mxv
 .byte   W02
 .byte   VOL , 36*songC6_mvl/mxv
 .byte   W01
 .byte   VOL , 36*songC6_mvl/mxv
 .byte   W02
 .byte   VOL , 36*songC6_mvl/mxv
 .byte   W03
 .byte   VOL , 37*songC6_mvl/mxv
 .byte   W04
 .byte   VOL , 37*songC6_mvl/mxv
 .byte   W03
 .byte   VOL , 38*songC6_mvl/mxv
 .byte   W02
 .byte   VOL , 38*songC6_mvl/mxv
 .byte   W09
 .byte   VOL , 38*songC6_mvl/mxv
 .byte   W01
 .byte   VOL , 39*songC6_mvl/mxv
 .byte   W18
 .byte   VOL , 38*songC6_mvl/mxv
 .byte   W03
 .byte   VOL , 38*songC6_mvl/mxv
 .byte   W03
 .byte   VOL , 38*songC6_mvl/mxv
 .byte   W02
 .byte   VOL , 37*songC6_mvl/mxv
 .byte   W03
 .byte   VOL , 37*songC6_mvl/mxv
 .byte   W01
 .byte   VOL , 36*songC6_mvl/mxv
 .byte   W02
 .byte   VOL , 36*songC6_mvl/mxv
 .byte   W03
 .byte   VOL , 35*songC6_mvl/mxv
 .byte   W01
 .byte   VOL , 34*songC6_mvl/mxv
 .byte   W02
 .byte   VOL , 34*songC6_mvl/mxv
 .byte   W01
 .byte   VOL , 34*songC6_mvl/mxv
 .byte   W02
 .byte   VOL , 33*songC6_mvl/mxv
 .byte   W01
 .byte   VOL , 32*songC6_mvl/mxv
 .byte   W02
 .byte   VOL , 32*songC6_mvl/mxv
 .byte   W01
 .byte   VOL , 31*songC6_mvl/mxv
 .byte   W02
 .byte   VOL , 30*songC6_mvl/mxv
 .byte   W01
 .byte   VOL , 29*songC6_mvl/mxv
 .byte   W02
 .byte   VOL , 28*songC6_mvl/mxv
 .byte   W01
 .byte   VOL , 27*songC6_mvl/mxv
 .byte   W02
@ 170   ----------------------------------------
 .byte   VOL , 26*songC6_mvl/mxv
 .byte   W01
 .byte   VOL , 24*songC6_mvl/mxv
 .byte   W02
 .byte   VOL , 22*songC6_mvl/mxv
 .byte   W01
 .byte   VOL , 19*songC6_mvl/mxv
 .byte   W02
 .byte   VOL , 17*songC6_mvl/mxv
 .byte   W01
 .byte   VOL , 15*songC6_mvl/mxv
 .byte   W02
 .byte   VOL , 13*songC6_mvl/mxv
 .byte   W01
 .byte   VOL , 12*songC6_mvl/mxv
 .byte   W02
 .byte   VOL , 38*songC6_mvl/mxv
 .byte   W84
@ 171   ----------------------------------------
 .byte   W12
 .byte   VOL , 38*songC6_mvl/mxv
 .byte   N11 ,Cn3 ,v084
 .byte   W12
 .byte   Fn3 ,v092
 .byte   W12
 .byte   Gs3
 .byte   W12
 .byte   VOL , 32*songC6_mvl/mxv
 .byte   N23 ,Gn3
 .byte   W01
 .byte   VOL , 33*songC6_mvl/mxv
 .byte   W02
 .byte   VOL , 33*songC6_mvl/mxv
 .byte   W01
 .byte   VOL , 34*songC6_mvl/mxv
 .byte   W02
 .byte   VOL , 35*songC6_mvl/mxv
 .byte   W01
 .byte   VOL , 35*songC6_mvl/mxv
 .byte   W02
 .byte   VOL , 36*songC6_mvl/mxv
 .byte   W01
 .byte   VOL , 37*songC6_mvl/mxv
 .byte   W02
 .byte   VOL , 38*songC6_mvl/mxv
 .byte   W01
 .byte   VOL , 38*songC6_mvl/mxv
 .byte   W02
 .byte   VOL , 38*songC6_mvl/mxv
 .byte   W09
 .byte   N07 ,Fn3
 .byte   W12
 .byte   VOL , 31*songC6_mvl/mxv
 .byte   N23 ,Cn3
 .byte   W01
 .byte   VOL , 32*songC6_mvl/mxv
 .byte   W02
 .byte   VOL , 33*songC6_mvl/mxv
 .byte   W01
 .byte   VOL , 33*songC6_mvl/mxv
 .byte   W02
 .byte   VOL , 34*songC6_mvl/mxv
 .byte   W01
 .byte   VOL , 34*songC6_mvl/mxv
 .byte   W02
 .byte   VOL , 35*songC6_mvl/mxv
 .byte   W01
 .byte   VOL , 36*songC6_mvl/mxv
 .byte   W02
@ 172   ----------------------------------------
 .byte   VOL , 36*songC6_mvl/mxv
 .byte   W01
 .byte   VOL , 36*songC6_mvl/mxv
 .byte   W02
 .byte   VOL , 37*songC6_mvl/mxv
 .byte   W01
 .byte   VOL , 37*songC6_mvl/mxv
 .byte   W02
 .byte   VOL , 38*songC6_mvl/mxv
 .byte   W01
 .byte   VOL , 38*songC6_mvl/mxv
 .byte   W05
 .byte   N11 ,As2 ,v084
 .byte   W12
 .byte   Gs2 ,v080
 .byte   W12
 .byte   N64 ,Cn3 ,v092
 .byte   W13
 .byte   VOL , 38*songC6_mvl/mxv
 .byte   W06
 .byte   VOL , 38*songC6_mvl/mxv
 .byte   W03
 .byte   VOL , 37*songC6_mvl/mxv
 .byte   W02
 .byte   VOL , 37*songC6_mvl/mxv
 .byte   W01
 .byte   VOL , 36*songC6_mvl/mxv
 .byte   W03
 .byte   VOL , 36*songC6_mvl/mxv
 .byte   W02
 .byte   VOL , 35*songC6_mvl/mxv
 .byte   W01
 .byte   VOL , 35*songC6_mvl/mxv
 .byte   W03
 .byte   VOL , 34*songC6_mvl/mxv
 .byte   W02
 .byte   VOL , 34*songC6_mvl/mxv
 .byte   W01
 .byte   VOL , 34*songC6_mvl/mxv
 .byte   W02
 .byte   VOL , 33*songC6_mvl/mxv
 .byte   W01
 .byte   VOL , 33*songC6_mvl/mxv
 .byte   W02
 .byte   VOL , 32*songC6_mvl/mxv
 .byte   W01
 .byte   VOL , 31*songC6_mvl/mxv
 .byte   W02
 .byte   VOL , 30*songC6_mvl/mxv
 .byte   W01
 .byte   VOL , 30*songC6_mvl/mxv
 .byte   W02
 .byte   VOL , 29*songC6_mvl/mxv
 .byte   W01
 .byte   VOL , 29*songC6_mvl/mxv
 .byte   W02
 .byte   VOL , 28*songC6_mvl/mxv
 .byte   W01
 .byte   VOL , 27*songC6_mvl/mxv
 .byte   W02
 .byte   VOL , 26*songC6_mvl/mxv
 .byte   W01
 .byte   VOL , 25*songC6_mvl/mxv
 .byte   W02
 .byte   VOL , 25*songC6_mvl/mxv
 .byte   W01
 .byte   VOL , 24*songC6_mvl/mxv
 .byte   W02
@ 173   ----------------------------------------
 .byte   VOL , 23*songC6_mvl/mxv
 .byte   W01
 .byte   VOL , 21*songC6_mvl/mxv
 .byte   W02
 .byte   VOL , 20*songC6_mvl/mxv
 .byte   W01
 .byte   VOL , 19*songC6_mvl/mxv
 .byte   W02
 .byte   VOL , 18*songC6_mvl/mxv
 .byte   W01
 .byte   VOL , 14*songC6_mvl/mxv
 .byte   W02
 .byte   VOL , 13*songC6_mvl/mxv
 .byte   W01
 .byte   VOL , 12*songC6_mvl/mxv
 .byte   W02
 .byte   VOL , 38*songC6_mvl/mxv
 .byte   N11
 .byte   W12
 .byte   Fn3
 .byte   W12
 .byte   Gs3
 .byte   W12
 .byte   N23 ,Gn3
 .byte   W24
 .byte   N07 ,Fn3
 .byte   W12
 .byte   N23 ,Cn3
 .byte   W12
@ 174   ----------------------------------------
 .byte   W12
 .byte   N11 ,As2 ,v076
 .byte   W12
 .byte   Cn3 ,v092
 .byte   W12
 .byte   VOL , 34*songC6_mvl/mxv
 .byte   TIE ,Fn2 ,v064
 .byte   W01
 .byte   VOL , 35*songC6_mvl/mxv
 .byte   W02
 .byte   VOL , 35*songC6_mvl/mxv
 .byte   W03
 .byte   VOL , 36*songC6_mvl/mxv
 .byte   W03
 .byte   VOL , 36*songC6_mvl/mxv
 .byte   W01
 .byte   VOL , 37*songC6_mvl/mxv
 .byte   W02
 .byte   VOL , 37*songC6_mvl/mxv
 .byte   W03
 .byte   VOL , 37*songC6_mvl/mxv
 .byte   W01
 .byte   VOL , 38*songC6_mvl/mxv
 .byte   W14
 .byte   VOL , 37*songC6_mvl/mxv
 .byte   W01
 .byte   VOL , 37*songC6_mvl/mxv
 .byte   W02
 .byte   VOL , 37*songC6_mvl/mxv
 .byte   W01
 .byte   VOL , 36*songC6_mvl/mxv
 .byte   W02
 .byte   VOL , 36*songC6_mvl/mxv
 .byte   W01
 .byte   VOL , 35*songC6_mvl/mxv
 .byte   W02
 .byte   VOL , 34*songC6_mvl/mxv
 .byte   W01
 .byte   VOL , 34*songC6_mvl/mxv
 .byte   W02
 .byte   VOL , 33*songC6_mvl/mxv
 .byte   W01
 .byte   VOL , 33*songC6_mvl/mxv
 .byte   W02
 .byte   VOL , 32*songC6_mvl/mxv
 .byte   W01
 .byte   VOL , 32*songC6_mvl/mxv
 .byte   W02
 .byte   VOL , 31*songC6_mvl/mxv
 .byte   W01
 .byte   VOL , 30*songC6_mvl/mxv
 .byte   W03
 .byte   VOL , 30*songC6_mvl/mxv
 .byte   W02
 .byte   VOL , 29*songC6_mvl/mxv
 .byte   W01
 .byte   VOL , 28*songC6_mvl/mxv
 .byte   W02
 .byte   VOL , 28*songC6_mvl/mxv
 .byte   W01
 .byte   VOL , 27*songC6_mvl/mxv
 .byte   W02
@ 175   ----------------------------------------
 .byte   VOL , 27*songC6_mvl/mxv
 .byte   W01
 .byte   VOL , 26*songC6_mvl/mxv
 .byte   W02
 .byte   VOL , 25*songC6_mvl/mxv
 .byte   W01
 .byte   VOL , 25*songC6_mvl/mxv
 .byte   W02
 .byte   VOL , 24*songC6_mvl/mxv
 .byte   W01
 .byte   VOL , 23*songC6_mvl/mxv
 .byte   W02
 .byte   VOL , 23*songC6_mvl/mxv
 .byte   W01
 .byte   VOL , 22*songC6_mvl/mxv
 .byte   W02
 .byte   VOL , 22*songC6_mvl/mxv
 .byte   W01
 .byte   VOL , 21*songC6_mvl/mxv
 .byte   W02
 .byte   VOL , 20*songC6_mvl/mxv
 .byte   W01
 .byte   VOL , 19*songC6_mvl/mxv
 .byte   W02
 .byte   VOL , 19*songC6_mvl/mxv
 .byte   W01
 .byte   VOL , 18*songC6_mvl/mxv
 .byte   W02
 .byte   VOL , 17*songC6_mvl/mxv
 .byte   W01
 .byte   VOL , 17*songC6_mvl/mxv
 .byte   W02
 .byte   VOL , 16*songC6_mvl/mxv
 .byte   W01
 .byte   VOL , 15*songC6_mvl/mxv
 .byte   W02
 .byte   VOL , 14*songC6_mvl/mxv
 .byte   W01
 .byte   VOL , 14*songC6_mvl/mxv
 .byte   W02
 .byte   VOL , 13*songC6_mvl/mxv
 .byte   W01
 .byte   VOL , 12*songC6_mvl/mxv
 .byte   W02
 .byte   VOL , 12*songC6_mvl/mxv
 .byte   W01
 .byte   VOL , 11*songC6_mvl/mxv
 .byte   W02
 .byte   VOL , 10*songC6_mvl/mxv
 .byte   W01
 .byte   VOL , 9*songC6_mvl/mxv
 .byte   W02
 .byte   VOL , 9*songC6_mvl/mxv
 .byte   W01
 .byte   VOL , 8*songC6_mvl/mxv
 .byte   W02
 .byte   VOL , 7*songC6_mvl/mxv
 .byte   W01
 .byte   VOL , 6*songC6_mvl/mxv
 .byte   W02
 .byte   VOL , 6*songC6_mvl/mxv
 .byte   W01
 .byte   VOL , 5*songC6_mvl/mxv
 .byte   W01
 .byte   EOT
 .byte   W01
 .byte   VOL , 4*songC6_mvl/mxv
 .byte   W01
 .byte   VOL , 3*songC6_mvl/mxv
 .byte   W02
 .byte   VOL , 2*songC6_mvl/mxv
 .byte   W01
 .byte   VOL , 1*songC6_mvl/mxv
 .byte   W02
 .byte   VOL , 0*songC6_mvl/mxv
 .byte   W01
 .byte   VOL , 0*songC6_mvl/mxv
 .byte   W40
 .byte   W01
@ 176   ----------------------------------------
 .byte   W96
@ 177   ----------------------------------------
 .byte   W60
 .byte   W03
 .byte   VOL , 0*songC6_mvl/mxv
 .byte   W32
 .byte   W01
@ 178   ----------------------------------------
 .byte   VOL , 31*songC6_mvl/mxv
 .byte   W01
 .byte   VOL , 31*songC6_mvl/mxv
 .byte   W02
 .byte   VOL , 32*songC6_mvl/mxv
 .byte   W01
 .byte   VOL , 33*songC6_mvl/mxv
 .byte   W02
 .byte   VOL , 34*songC6_mvl/mxv
 .byte   W01
 .byte   VOL , 35*songC6_mvl/mxv
 .byte   W02
 .byte   VOL , 36*songC6_mvl/mxv
 .byte   W01
 .byte   VOL , 36*songC6_mvl/mxv
 .byte   W02
 .byte   VOL , 37*songC6_mvl/mxv
 .byte   W01
 .byte   VOL , 37*songC6_mvl/mxv
 .byte   W02
 .byte   VOL , 38*songC6_mvl/mxv
 .byte   W01
 .byte   VOL , 38*songC6_mvl/mxv
 .byte   W80
@ 179   ----------------------------------------
 .byte   W12
 .byte   N11 ,Cn3 ,v088
 .byte   W12
 .byte   Fn3 ,v092
 .byte   W12
 .byte   Gs3
 .byte   W12
 .byte   N23 ,Gn3
 .byte   W24
 .byte   N05 ,Fn3
 .byte   W12
 .byte   N23 ,Cn3
 .byte   W12
@ 180   ----------------------------------------
 .byte   W12
 .byte   N11 ,As2
 .byte   W12
 .byte   Gs2 ,v080
 .byte   W12
 .byte   VOL , 31*songC6_mvl/mxv
 .byte   N64 ,Cn3 ,v092
 .byte   W03
 .byte   VOL , 32*songC6_mvl/mxv
 .byte   W03
 .byte   VOL , 32*songC6_mvl/mxv
 .byte   W01
 .byte   VOL , 33*songC6_mvl/mxv
 .byte   W02
 .byte   VOL , 33*songC6_mvl/mxv
 .byte   W01
 .byte   VOL , 34*songC6_mvl/mxv
 .byte   W02
 .byte   VOL , 34*songC6_mvl/mxv
 .byte   W01
 .byte   VOL , 35*songC6_mvl/mxv
 .byte   W02
 .byte   VOL , 35*songC6_mvl/mxv
 .byte   W01
 .byte   VOL , 35*songC6_mvl/mxv
 .byte   W02
 .byte   VOL , 36*songC6_mvl/mxv
 .byte   W01
 .byte   VOL , 36*songC6_mvl/mxv
 .byte   W02
 .byte   VOL , 37*songC6_mvl/mxv
 .byte   W01
 .byte   VOL , 37*songC6_mvl/mxv
 .byte   W02
 .byte   VOL , 38*songC6_mvl/mxv
 .byte   W01
 .byte   VOL , 38*songC6_mvl/mxv
 .byte   W03
 .byte   VOL , 39*songC6_mvl/mxv
 .byte   W14
 .byte   VOL , 38*songC6_mvl/mxv
 .byte   W01
 .byte   VOL , 38*songC6_mvl/mxv
 .byte   W02
 .byte   VOL , 38*songC6_mvl/mxv
 .byte   W01
 .byte   VOL , 37*songC6_mvl/mxv
 .byte   W02
 .byte   VOL , 36*songC6_mvl/mxv
 .byte   W01
 .byte   VOL , 36*songC6_mvl/mxv
 .byte   W02
 .byte   VOL , 35*songC6_mvl/mxv
 .byte   W01
 .byte   VOL , 35*songC6_mvl/mxv
 .byte   W02
 .byte   VOL , 33*songC6_mvl/mxv
 .byte   W01
 .byte   VOL , 32*songC6_mvl/mxv
 .byte   W02
 .byte   VOL , 31*songC6_mvl/mxv
 .byte   W01
 .byte   VOL , 30*songC6_mvl/mxv
 .byte   W02
@ 181   ----------------------------------------
 .byte   VOL , 28*songC6_mvl/mxv
 .byte   W01
 .byte   VOL , 26*songC6_mvl/mxv
 .byte   W02
 .byte   VOL , 25*songC6_mvl/mxv
 .byte   W01
 .byte   VOL , 23*songC6_mvl/mxv
 .byte   W02
 .byte   VOL , 21*songC6_mvl/mxv
 .byte   W01
 .byte   VOL , 19*songC6_mvl/mxv
 .byte   W02
 .byte   VOL , 17*songC6_mvl/mxv
 .byte   W01
 .byte   VOL , 14*songC6_mvl/mxv
 .byte   W02
 .byte   VOL , 38*songC6_mvl/mxv
 .byte   N11
 .byte   W12
 .byte   Fn3
 .byte   W12
 .byte   Gs3
 .byte   W12
 .byte   N23 ,As3
 .byte   W06
 .byte   VOL , 38*songC6_mvl/mxv
 .byte   W03
 .byte   VOL , 38*songC6_mvl/mxv
 .byte   W01
 .byte   VOL , 37*songC6_mvl/mxv
 .byte   W02
 .byte   VOL , 37*songC6_mvl/mxv
 .byte   W01
 .byte   VOL , 36*songC6_mvl/mxv
 .byte   W02
 .byte   VOL , 36*songC6_mvl/mxv
 .byte   W01
 .byte   VOL , 35*songC6_mvl/mxv
 .byte   W02
 .byte   VOL , 34*songC6_mvl/mxv
 .byte   W01
 .byte   VOL , 33*songC6_mvl/mxv
 .byte   W02
 .byte   VOL , 33*songC6_mvl/mxv
 .byte   W01
 .byte   VOL , 32*songC6_mvl/mxv
 .byte   W02
 .byte   VOL , 38*songC6_mvl/mxv
 .byte   N05 ,Gs3
 .byte   W12
 .byte   VOL , 38*songC6_mvl/mxv
 .byte   N23 ,Gn3 ,v096
 .byte   W04
 .byte   VOL , 38*songC6_mvl/mxv
 .byte   W02
 .byte   VOL , 37*songC6_mvl/mxv
 .byte   W01
 .byte   VOL , 36*songC6_mvl/mxv
 .byte   W02
 .byte   VOL , 35*songC6_mvl/mxv
 .byte   W01
 .byte   VOL , 35*songC6_mvl/mxv
 .byte   W02
@ 182   ----------------------------------------
 .byte   VOL , 34*songC6_mvl/mxv
 .byte   W01
 .byte   VOL , 33*songC6_mvl/mxv
 .byte   W02
 .byte   VOL , 33*songC6_mvl/mxv
 .byte   W01
 .byte   VOL , 32*songC6_mvl/mxv
 .byte   W02
 .byte   VOL , 31*songC6_mvl/mxv
 .byte   W01
 .byte   VOL , 31*songC6_mvl/mxv
 .byte   W02
 .byte   VOL , 29*songC6_mvl/mxv
 .byte   W01
 .byte   VOL , 29*songC6_mvl/mxv
 .byte   W02
 .byte   VOL , 38*songC6_mvl/mxv
 .byte   N11 ,Gs3
 .byte   W12
 .byte   As3 ,v088
 .byte   W12
 .byte   VOL , 29*songC6_mvl/mxv
 .byte   N44 ,Cn4 ,v092
 .byte   W04
 .byte   VOL , 29*songC6_mvl/mxv
 .byte   W03
 .byte   VOL , 30*songC6_mvl/mxv
 .byte   W02
 .byte   VOL , 30*songC6_mvl/mxv
 .byte   W01
 .byte   VOL , 30*songC6_mvl/mxv
 .byte   W02
 .byte   VOL , 31*songC6_mvl/mxv
 .byte   W01
 .byte   VOL , 31*songC6_mvl/mxv
 .byte   W02
 .byte   VOL , 32*songC6_mvl/mxv
 .byte   W01
 .byte   VOL , 33*songC6_mvl/mxv
 .byte   W02
 .byte   VOL , 34*songC6_mvl/mxv
 .byte   W01
 .byte   VOL , 34*songC6_mvl/mxv
 .byte   W02
 .byte   VOL , 35*songC6_mvl/mxv
 .byte   W01
 .byte   VOL , 35*songC6_mvl/mxv
 .byte   W02
 .byte   VOL , 36*songC6_mvl/mxv
 .byte   W01
 .byte   VOL , 36*songC6_mvl/mxv
 .byte   W02
 .byte   VOL , 37*songC6_mvl/mxv
 .byte   W01
 .byte   VOL , 37*songC6_mvl/mxv
 .byte   W02
 .byte   VOL , 38*songC6_mvl/mxv
 .byte   W01
 .byte   VOL , 38*songC6_mvl/mxv
 .byte   W02
 .byte   VOL , 38*songC6_mvl/mxv
 .byte   W15
 .byte   N05 ,Gn3 ,v076
 .byte   W12
@ 183   ----------------------------------------
 .byte   N28
 .byte   W36
 .byte   N05 ,Fn3 ,v080
 .byte   W06
 .byte   Gn3
 .byte   W06
 .byte   N17 ,Gs3 ,v072
 .byte   W18
 .byte   As3 ,v076
 .byte   W18
 .byte   N11 ,Gs3 ,v072
 .byte   W12
@ 184   ----------------------------------------
 .byte   N23 ,Gn3 ,v076
 .byte   W24
 .byte   N17 ,Ds3 ,v080
 .byte   W24
 .byte   N32
 .byte   W36
 .byte   N11 ,Fn3 ,v076
 .byte   W12
@ 185   ----------------------------------------
 .byte   VOL , 29*songC6_mvl/mxv
 .byte   TIE ,Cn3 ,v064
 .byte   W03
 .byte   VOL , 30*songC6_mvl/mxv
 .byte   W01
 .byte   VOL , 30*songC6_mvl/mxv
 .byte   W03
 .byte   VOL , 31*songC6_mvl/mxv
 .byte   W02
 .byte   VOL , 31*songC6_mvl/mxv
 .byte   W01
 .byte   VOL , 31*songC6_mvl/mxv
 .byte   W02
 .byte   VOL , 32*songC6_mvl/mxv
 .byte   W01
 .byte   VOL , 32*songC6_mvl/mxv
 .byte   W03
 .byte   VOL , 33*songC6_mvl/mxv
 .byte   W02
 .byte   VOL , 33*songC6_mvl/mxv
 .byte   W03
 .byte   VOL , 34*songC6_mvl/mxv
 .byte   W01
 .byte   VOL , 34*songC6_mvl/mxv
 .byte   W03
 .byte   VOL , 35*songC6_mvl/mxv
 .byte   W03
 .byte   VOL , 35*songC6_mvl/mxv
 .byte   W02
 .byte   VOL , 36*songC6_mvl/mxv
 .byte   W01
 .byte   VOL , 36*songC6_mvl/mxv
 .byte   W02
 .byte   VOL , 36*songC6_mvl/mxv
 .byte   W01
 .byte   VOL , 37*songC6_mvl/mxv
 .byte   W02
 .byte   VOL , 37*songC6_mvl/mxv
 .byte   W04
 .byte   VOL , 37*songC6_mvl/mxv
 .byte   W23
 .byte   VOL , 37*songC6_mvl/mxv
 .byte   W04
 .byte   VOL , 37*songC6_mvl/mxv
 .byte   W03
 .byte   VOL , 36*songC6_mvl/mxv
 .byte   W02
 .byte   VOL , 36*songC6_mvl/mxv
 .byte   W01
 .byte   VOL , 36*songC6_mvl/mxv
 .byte   W02
 .byte   VOL , 35*songC6_mvl/mxv
 .byte   W01
 .byte   VOL , 35*songC6_mvl/mxv
 .byte   W02
 .byte   VOL , 35*songC6_mvl/mxv
 .byte   W01
 .byte   VOL , 34*songC6_mvl/mxv
 .byte   W02
 .byte   VOL , 33*songC6_mvl/mxv
 .byte   W01
 .byte   VOL , 33*songC6_mvl/mxv
 .byte   W02
 .byte   VOL , 32*songC6_mvl/mxv
 .byte   W01
 .byte   VOL , 31*songC6_mvl/mxv
 .byte   W02
 .byte   VOL , 31*songC6_mvl/mxv
 .byte   W01
 .byte   VOL , 30*songC6_mvl/mxv
 .byte   W02
 .byte   VOL , 29*songC6_mvl/mxv
 .byte   W01
 .byte   VOL , 28*songC6_mvl/mxv
 .byte   W02
 .byte   VOL , 27*songC6_mvl/mxv
 .byte   W01
 .byte   VOL , 27*songC6_mvl/mxv
 .byte   W02
@ 186   ----------------------------------------
 .byte   VOL , 25*songC6_mvl/mxv
 .byte   W01
 .byte   VOL , 25*songC6_mvl/mxv
 .byte   W02
 .byte   VOL , 24*songC6_mvl/mxv
 .byte   W01
 .byte   VOL , 23*songC6_mvl/mxv
 .byte   W02
 .byte   VOL , 22*songC6_mvl/mxv
 .byte   W01
 .byte   VOL , 20*songC6_mvl/mxv
 .byte   W02
 .byte   VOL , 19*songC6_mvl/mxv
 .byte   W01
 .byte   VOL , 17*songC6_mvl/mxv
 .byte   W02
 .byte   VOL , 16*songC6_mvl/mxv
 .byte   W01
 .byte   VOL , 15*songC6_mvl/mxv
 .byte   W02
 .byte   VOL , 13*songC6_mvl/mxv
 .byte   W01
 .byte   VOL , 12*songC6_mvl/mxv
 .byte   W02
 .byte   VOL , 11*songC6_mvl/mxv
 .byte   W01
 .byte   VOL , 9*songC6_mvl/mxv
 .byte   W02
 .byte   VOL , 8*songC6_mvl/mxv
 .byte   W01
 .byte   VOL , 6*songC6_mvl/mxv
 .byte   W02
 .byte   VOL , 5*songC6_mvl/mxv
 .byte   W01
 .byte   VOL , 4*songC6_mvl/mxv
 .byte   W02
 .byte   VOL , 2*songC6_mvl/mxv
 .byte   W01
 .byte   VOL , 0*songC6_mvl/mxv
 .byte   W01
 .byte   EOT
 .byte   W01
 .byte   VOL , 0*songC6_mvl/mxv
 .byte   W66
@ 187   ----------------------------------------
 .byte   W96
@ 188   ----------------------------------------
 .byte   W96
@ 189   ----------------------------------------
 .byte   W96
@ 190   ----------------------------------------
 .byte   W96
@ 191   ----------------------------------------
 .byte   W96
@ 192   ----------------------------------------
 .byte   W96
@ 193   ----------------------------------------
 .byte   W96
@ 194   ----------------------------------------
 .byte   W96
@ 195   ----------------------------------------
 .byte   W96
@ 196   ----------------------------------------
 .byte   W96
@ 197   ----------------------------------------
 .byte   W96
@ 198   ----------------------------------------
 .byte   W96
@ 199   ----------------------------------------
 .byte   W96
@ 200   ----------------------------------------
 .byte   W96
@ 201   ----------------------------------------
 .byte   W96
@ 202   ----------------------------------------
 .byte   W96
@ 203   ----------------------------------------
 .byte   W96
@ 204   ----------------------------------------
 .byte   W48
 .byte   GOTO
  .word Label_5_014AE60E
 .byte   FINE

@**************** Track 7 (Midi-Chn.6) ****************@

songC6_007:
@ 000   ----------------------------------------
 .byte   KEYSH , songC6_key+0
Label_6_014AF0AE:
 .byte   VOICE , 110
 .byte   PAN , c_v+17
 .byte   VOL , 38*songC6_mvl/mxv
 .byte   W36
 .byte   VOL , 38*songC6_mvl/mxv
 .byte   W01
 .byte   VOL , 37*songC6_mvl/mxv
 .byte   W02
 .byte   VOL , 37*songC6_mvl/mxv
 .byte   W01
 .byte   VOL , 36*songC6_mvl/mxv
 .byte   W02
 .byte   VOL , 35*songC6_mvl/mxv
 .byte   W01
 .byte   VOL , 34*songC6_mvl/mxv
 .byte   W02
 .byte   VOL , 33*songC6_mvl/mxv
 .byte   W01
 .byte   VOL , 33*songC6_mvl/mxv
 .byte   W02
 .byte   VOL , 34*songC6_mvl/mxv
 .byte   N11 ,Bn3 ,v080
 .byte   W01
 .byte   VOL , 34*songC6_mvl/mxv
 .byte   W02
 .byte   VOL , 36*songC6_mvl/mxv
 .byte   W01
 .byte   VOL , 37*songC6_mvl/mxv
 .byte   W02
 .byte   VOL , 38*songC6_mvl/mxv
 .byte   W01
 .byte   VOL , 38*songC6_mvl/mxv
 .byte   W05
 .byte   N11 ,Gs4 ,v092
 .byte   W12
 .byte   An4 ,v072
 .byte   W12
 .byte   N32 ,Bn4 ,v100
 .byte   W07
 .byte   VOL , 38*songC6_mvl/mxv
 .byte   W05
@ 001   ----------------------------------------
 .byte   VOL , 38*songC6_mvl/mxv
 .byte   W01
 .byte   VOL , 37*songC6_mvl/mxv
 .byte   W02
 .byte   VOL , 37*songC6_mvl/mxv
 .byte   W03
 .byte   VOL , 37*songC6_mvl/mxv
 .byte   W01
 .byte   VOL , 36*songC6_mvl/mxv
 .byte   W02
 .byte   VOL , 36*songC6_mvl/mxv
 .byte   W01
 .byte   VOL , 36*songC6_mvl/mxv
 .byte   W02
 .byte   VOL , 35*songC6_mvl/mxv
 .byte   W01
 .byte   VOL , 35*songC6_mvl/mxv
 .byte   W02
 .byte   VOL , 34*songC6_mvl/mxv
 .byte   W01
 .byte   VOL , 34*songC6_mvl/mxv
 .byte   W02
 .byte   VOL , 33*songC6_mvl/mxv
 .byte   W01
 .byte   VOL , 33*songC6_mvl/mxv
 .byte   W02
 .byte   VOL , 32*songC6_mvl/mxv
 .byte   W01
 .byte   VOL , 31*songC6_mvl/mxv
 .byte   W02
 .byte   VOL , 38*songC6_mvl/mxv
 .byte   N11 ,An4 ,v088
 .byte   W12
 .byte   Gs4 ,v064
 .byte   W12
 .byte   VOL , 32*songC6_mvl/mxv
 .byte   TIE ,En4 ,v080
 .byte   W09
 .byte   VOL , 32*songC6_mvl/mxv
 .byte   W03
 .byte   VOL , 32*songC6_mvl/mxv
 .byte   W01
 .byte   VOL , 33*songC6_mvl/mxv
 .byte   W03
 .byte   VOL , 33*songC6_mvl/mxv
 .byte   W02
 .byte   VOL , 34*songC6_mvl/mxv
 .byte   W03
 .byte   VOL , 35*songC6_mvl/mxv
 .byte   W03
 .byte   VOL , 35*songC6_mvl/mxv
 .byte   W03
 .byte   VOL , 36*songC6_mvl/mxv
 .byte   W01
 .byte   VOL , 36*songC6_mvl/mxv
 .byte   W03
 .byte   VOL , 36*songC6_mvl/mxv
 .byte   W02
 .byte   VOL , 37*songC6_mvl/mxv
 .byte   W01
 .byte   VOL , 37*songC6_mvl/mxv
 .byte   W14
@ 002   ----------------------------------------
 .byte   W24
 .byte   W01
 .byte   VOL , 37*songC6_mvl/mxv
 .byte   W03
 .byte   VOL , 36*songC6_mvl/mxv
 .byte   W02
 .byte   VOL , 36*songC6_mvl/mxv
 .byte   W03
 .byte   VOL , 36*songC6_mvl/mxv
 .byte   W03
 .byte   VOL , 35*songC6_mvl/mxv
 .byte   W01
 .byte   VOL , 35*songC6_mvl/mxv
 .byte   W03
 .byte   VOL , 34*songC6_mvl/mxv
 .byte   W03
 .byte   VOL , 34*songC6_mvl/mxv
 .byte   W03
 .byte   VOL , 33*songC6_mvl/mxv
 .byte   W02
 .byte   VOL , 33*songC6_mvl/mxv
 .byte   W01
 .byte   VOL , 33*songC6_mvl/mxv
 .byte   W03
 .byte   VOL , 32*songC6_mvl/mxv
 .byte   W02
 .byte   VOL , 32*songC6_mvl/mxv
 .byte   W01
 .byte   VOL , 31*songC6_mvl/mxv
 .byte   W02
 .byte   VOL , 30*songC6_mvl/mxv
 .byte   W03
 .byte   VOL , 30*songC6_mvl/mxv
 .byte   W01
 .byte   VOL , 29*songC6_mvl/mxv
 .byte   W02
 .byte   VOL , 28*songC6_mvl/mxv
 .byte   W01
 .byte   VOL , 28*songC6_mvl/mxv
 .byte   W02
 .byte   VOL , 27*songC6_mvl/mxv
 .byte   W01
 .byte   VOL , 27*songC6_mvl/mxv
 .byte   W02
 .byte   VOL , 26*songC6_mvl/mxv
 .byte   W01
 .byte   VOL , 26*songC6_mvl/mxv
 .byte   W02
 .byte   VOL , 25*songC6_mvl/mxv
 .byte   W01
 .byte   VOL , 25*songC6_mvl/mxv
 .byte   W02
 .byte   VOL , 24*songC6_mvl/mxv
 .byte   W01
 .byte   VOL , 23*songC6_mvl/mxv
 .byte   W02
 .byte   VOL , 23*songC6_mvl/mxv
 .byte   W01
 .byte   VOL , 22*songC6_mvl/mxv
 .byte   W02
 .byte   VOL , 22*songC6_mvl/mxv
 .byte   W01
 .byte   VOL , 20*songC6_mvl/mxv
 .byte   W02
 .byte   VOL , 19*songC6_mvl/mxv
 .byte   W01
 .byte   VOL , 19*songC6_mvl/mxv
 .byte   W02
 .byte   VOL , 18*songC6_mvl/mxv
 .byte   W01
 .byte   VOL , 17*songC6_mvl/mxv
 .byte   W02
 .byte   VOL , 16*songC6_mvl/mxv
 .byte   W01
 .byte   VOL , 15*songC6_mvl/mxv
 .byte   W02
 .byte   VOL , 14*songC6_mvl/mxv
 .byte   W01
 .byte   VOL , 14*songC6_mvl/mxv
 .byte   W02
@ 003   ----------------------------------------
 .byte   VOL , 13*songC6_mvl/mxv
 .byte   W01
 .byte   VOL , 13*songC6_mvl/mxv
 .byte   W02
 .byte   VOL , 12*songC6_mvl/mxv
 .byte   W01
 .byte   VOL , 11*songC6_mvl/mxv
 .byte   W02
 .byte   VOL , 10*songC6_mvl/mxv
 .byte   W01
 .byte   VOL , 9*songC6_mvl/mxv
 .byte   W02
 .byte   VOL , 9*songC6_mvl/mxv
 .byte   W01
 .byte   VOL , 8*songC6_mvl/mxv
 .byte   W02
 .byte   VOL , 7*songC6_mvl/mxv
 .byte   W01
 .byte   VOL , 6*songC6_mvl/mxv
 .byte   W02
 .byte   VOL , 5*songC6_mvl/mxv
 .byte   W01
 .byte   VOL , 4*songC6_mvl/mxv
 .byte   W02
 .byte   VOL , 3*songC6_mvl/mxv
 .byte   W01
 .byte   VOL , 3*songC6_mvl/mxv
 .byte   W02
 .byte   VOL , 1*songC6_mvl/mxv
 .byte   W01
 .byte   VOL , 0*songC6_mvl/mxv
 .byte   W02
 .byte   VOL , 0*songC6_mvl/mxv
 .byte   W23
 .byte   EOT
 .byte   W44
 .byte   W03
 .byte   VOL , 33*songC6_mvl/mxv
 .byte   W02
@ 004   ----------------------------------------
 .byte   W01
 .byte   VOL , 33*songC6_mvl/mxv
 .byte   W03
 .byte   VOL , 33*songC6_mvl/mxv
 .byte   W02
 .byte   VOL , 34*songC6_mvl/mxv
 .byte   W01
 .byte   VOL , 34*songC6_mvl/mxv
 .byte   W02
 .byte   VOL , 35*songC6_mvl/mxv
 .byte   W03
 .byte   VOL , 35*songC6_mvl/mxv
 .byte   N23 ,Fs3 ,v100
 .byte   W01
 .byte   VOL , 36*songC6_mvl/mxv
 .byte   W02
 .byte   VOL , 36*songC6_mvl/mxv
 .byte   W01
 .byte   VOL , 37*songC6_mvl/mxv
 .byte   W02
 .byte   VOL , 37*songC6_mvl/mxv
 .byte   W01
 .byte   VOL , 38*songC6_mvl/mxv
 .byte   W02
 .byte   VOL , 38*songC6_mvl/mxv
 .byte   W03
 .byte   VOL , 38*songC6_mvl/mxv
 .byte   W12
 .byte   N11 ,En3 ,v088
 .byte   W12
 .byte   N23 ,Ds3 ,v100
 .byte   W07
 .byte   VOL , 38*songC6_mvl/mxv
 .byte   W03
 .byte   VOL , 38*songC6_mvl/mxv
 .byte   W02
 .byte   VOL , 37*songC6_mvl/mxv
 .byte   W01
 .byte   VOL , 37*songC6_mvl/mxv
 .byte   W02
 .byte   VOL , 36*songC6_mvl/mxv
 .byte   W01
 .byte   VOL , 35*songC6_mvl/mxv
 .byte   W02
 .byte   VOL , 35*songC6_mvl/mxv
 .byte   W01
 .byte   VOL , 33*songC6_mvl/mxv
 .byte   W02
 .byte   VOL , 32*songC6_mvl/mxv
 .byte   W01
 .byte   VOL , 30*songC6_mvl/mxv
 .byte   W02
 .byte   VOL , 38*songC6_mvl/mxv
 .byte   N11 ,En3 ,v084
 .byte   W12
 .byte   Fs3 ,v064
 .byte   W12
@ 005   ----------------------------------------
 .byte   N23 ,Gs3 ,v100
 .byte   W07
 .byte   VOL , 38*songC6_mvl/mxv
 .byte   W02
 .byte   VOL , 38*songC6_mvl/mxv
 .byte   W01
 .byte   VOL , 37*songC6_mvl/mxv
 .byte   W02
 .byte   VOL , 37*songC6_mvl/mxv
 .byte   W03
 .byte   VOL , 36*songC6_mvl/mxv
 .byte   W01
 .byte   VOL , 36*songC6_mvl/mxv
 .byte   W02
 .byte   VOL , 35*songC6_mvl/mxv
 .byte   W01
 .byte   VOL , 34*songC6_mvl/mxv
 .byte   W02
 .byte   VOL , 33*songC6_mvl/mxv
 .byte   W01
 .byte   VOL , 32*songC6_mvl/mxv
 .byte   W02
 .byte   VOL , 38*songC6_mvl/mxv
 .byte   N11 ,An3 ,v072
 .byte   W12
 .byte   N23 ,Bn3 ,v088
 .byte   W07
 .byte   VOL , 38*songC6_mvl/mxv
 .byte   W02
 .byte   VOL , 38*songC6_mvl/mxv
 .byte   W01
 .byte   VOL , 37*songC6_mvl/mxv
 .byte   W02
 .byte   VOL , 37*songC6_mvl/mxv
 .byte   W01
 .byte   VOL , 37*songC6_mvl/mxv
 .byte   W02
 .byte   VOL , 36*songC6_mvl/mxv
 .byte   W01
 .byte   VOL , 36*songC6_mvl/mxv
 .byte   W02
 .byte   VOL , 35*songC6_mvl/mxv
 .byte   W01
 .byte   VOL , 34*songC6_mvl/mxv
 .byte   W02
 .byte   VOL , 33*songC6_mvl/mxv
 .byte   W01
 .byte   VOL , 32*songC6_mvl/mxv
 .byte   W02
 .byte   VOL , 38*songC6_mvl/mxv
 .byte   N11 ,Gs3 ,v100
 .byte   W12
 .byte   Bn3 ,v064
 .byte   W12
 .byte   En4 ,v100
 .byte   W12
@ 006   ----------------------------------------
 .byte   N23 ,Fs4 ,v072
 .byte   W24
 .byte   N11 ,En4 ,v092
 .byte   W12
 .byte   N23 ,Ds4 ,v060
 .byte   W24
 .byte   N11 ,Cs4 ,v084
 .byte   W12
 .byte   N23 ,En4 ,v068
 .byte   W04
 .byte   VOL , 38*songC6_mvl/mxv
 .byte   W03
 .byte   VOL , 38*songC6_mvl/mxv
 .byte   W02
 .byte   VOL , 37*songC6_mvl/mxv
 .byte   W01
 .byte   VOL , 37*songC6_mvl/mxv
 .byte   W02
 .byte   VOL , 37*songC6_mvl/mxv
 .byte   W01
 .byte   VOL , 36*songC6_mvl/mxv
 .byte   W02
 .byte   VOL , 36*songC6_mvl/mxv
 .byte   W01
 .byte   VOL , 35*songC6_mvl/mxv
 .byte   W02
 .byte   VOL , 35*songC6_mvl/mxv
 .byte   W01
 .byte   VOL , 34*songC6_mvl/mxv
 .byte   W02
 .byte   VOL , 34*songC6_mvl/mxv
 .byte   W01
 .byte   VOL , 33*songC6_mvl/mxv
 .byte   W02
@ 007   ----------------------------------------
 .byte   VOL , 38*songC6_mvl/mxv
 .byte   N11 ,Fs4 ,v100
 .byte   W12
 .byte   Gs4 ,v084
 .byte   W12
 .byte   N23 ,An4 ,v060
 .byte   W04
 .byte   VOL , 38*songC6_mvl/mxv
 .byte   W02
 .byte   VOL , 38*songC6_mvl/mxv
 .byte   W01
 .byte   VOL , 37*songC6_mvl/mxv
 .byte   W02
 .byte   VOL , 36*songC6_mvl/mxv
 .byte   W01
 .byte   VOL , 36*songC6_mvl/mxv
 .byte   W02
 .byte   VOL , 35*songC6_mvl/mxv
 .byte   W01
 .byte   VOL , 35*songC6_mvl/mxv
 .byte   W02
 .byte   VOL , 34*songC6_mvl/mxv
 .byte   W01
 .byte   VOL , 33*songC6_mvl/mxv
 .byte   W02
 .byte   VOL , 33*songC6_mvl/mxv
 .byte   W01
 .byte   VOL , 32*songC6_mvl/mxv
 .byte   W02
 .byte   VOL , 31*songC6_mvl/mxv
 .byte   W01
 .byte   VOL , 30*songC6_mvl/mxv
 .byte   W02
 .byte   VOL , 36*songC6_mvl/mxv
 .byte   TIE ,Bn4 ,v096
 .byte   W01
 .byte   VOL , 35*songC6_mvl/mxv
 .byte   W03
 .byte   VOL , 34*songC6_mvl/mxv
 .byte   W02
 .byte   VOL , 34*songC6_mvl/mxv
 .byte   W01
 .byte   VOL , 33*songC6_mvl/mxv
 .byte   W02
 .byte   VOL , 32*songC6_mvl/mxv
 .byte   W01
 .byte   VOL , 32*songC6_mvl/mxv
 .byte   W02
 .byte   VOL , 31*songC6_mvl/mxv
 .byte   W01
 .byte   VOL , 31*songC6_mvl/mxv
 .byte   W02
 .byte   VOL , 30*songC6_mvl/mxv
 .byte   W01
 .byte   VOL , 30*songC6_mvl/mxv
 .byte   W02
 .byte   VOL , 29*songC6_mvl/mxv
 .byte   W09
 .byte   VOL , 30*songC6_mvl/mxv
 .byte   W03
 .byte   VOL , 30*songC6_mvl/mxv
 .byte   W01
 .byte   VOL , 30*songC6_mvl/mxv
 .byte   W03
 .byte   VOL , 31*songC6_mvl/mxv
 .byte   W03
 .byte   VOL , 31*songC6_mvl/mxv
 .byte   W02
 .byte   VOL , 31*songC6_mvl/mxv
 .byte   W01
 .byte   VOL , 32*songC6_mvl/mxv
 .byte   W02
 .byte   VOL , 32*songC6_mvl/mxv
 .byte   W01
 .byte   VOL , 33*songC6_mvl/mxv
 .byte   W03
 .byte   VOL , 33*songC6_mvl/mxv
 .byte   W02
@ 008   ----------------------------------------
 .byte   VOL , 33*songC6_mvl/mxv
 .byte   W01
 .byte   VOL , 34*songC6_mvl/mxv
 .byte   W02
 .byte   VOL , 34*songC6_mvl/mxv
 .byte   W01
 .byte   VOL , 35*songC6_mvl/mxv
 .byte   W03
 .byte   VOL , 35*songC6_mvl/mxv
 .byte   W02
 .byte   VOL , 35*songC6_mvl/mxv
 .byte   W01
 .byte   VOL , 36*songC6_mvl/mxv
 .byte   W05
 .byte   VOL , 36*songC6_mvl/mxv
 .byte   W16
 .byte   VOL , 36*songC6_mvl/mxv
 .byte   W09
 .byte   VOL , 35*songC6_mvl/mxv
 .byte   W02
 .byte   VOL , 35*songC6_mvl/mxv
 .byte   W03
 .byte   VOL , 34*songC6_mvl/mxv
 .byte   W03
 .byte   VOL , 34*songC6_mvl/mxv
 .byte   W01
 .byte   VOL , 33*songC6_mvl/mxv
 .byte   W02
 .byte   VOL , 33*songC6_mvl/mxv
 .byte   W01
 .byte   VOL , 33*songC6_mvl/mxv
 .byte   W02
 .byte   VOL , 32*songC6_mvl/mxv
 .byte   W01
 .byte   VOL , 31*songC6_mvl/mxv
 .byte   W02
 .byte   VOL , 31*songC6_mvl/mxv
 .byte   W01
 .byte   VOL , 30*songC6_mvl/mxv
 .byte   W02
 .byte   VOL , 30*songC6_mvl/mxv
 .byte   W01
 .byte   VOL , 29*songC6_mvl/mxv
 .byte   W02
 .byte   VOL , 28*songC6_mvl/mxv
 .byte   W01
 .byte   VOL , 28*songC6_mvl/mxv
 .byte   W02
 .byte   VOL , 27*songC6_mvl/mxv
 .byte   W01
 .byte   VOL , 26*songC6_mvl/mxv
 .byte   W02
 .byte   VOL , 26*songC6_mvl/mxv
 .byte   W01
 .byte   VOL , 25*songC6_mvl/mxv
 .byte   W02
 .byte   VOL , 25*songC6_mvl/mxv
 .byte   W01
 .byte   VOL , 24*songC6_mvl/mxv
 .byte   W02
 .byte   VOL , 23*songC6_mvl/mxv
 .byte   W01
 .byte   VOL , 23*songC6_mvl/mxv
 .byte   W02
 .byte   VOL , 22*songC6_mvl/mxv
 .byte   W01
 .byte   VOL , 21*songC6_mvl/mxv
 .byte   W02
 .byte   VOL , 20*songC6_mvl/mxv
 .byte   W01
 .byte   VOL , 19*songC6_mvl/mxv
 .byte   W02
 .byte   VOL , 18*songC6_mvl/mxv
 .byte   W01
 .byte   VOL , 17*songC6_mvl/mxv
 .byte   W02
 .byte   VOL , 16*songC6_mvl/mxv
 .byte   W01
 .byte   VOL , 15*songC6_mvl/mxv
 .byte   W01
 .byte   EOT
 .byte   W01
 .byte   VOL , 14*songC6_mvl/mxv
 .byte   W01
 .byte   VOL , 13*songC6_mvl/mxv
 .byte   W02
 .byte   VOL , 10*songC6_mvl/mxv
 .byte   W01
 .byte   VOL , 6*songC6_mvl/mxv
 .byte   W02
@ 009   ----------------------------------------
 .byte   VOL , 38*songC6_mvl/mxv
 .byte   N44 ,Cs5 ,v100
 .byte   W16
 .byte   VOL , 38*songC6_mvl/mxv
 .byte   W05
 .byte   VOL , 38*songC6_mvl/mxv
 .byte   W04
 .byte   VOL , 37*songC6_mvl/mxv
 .byte   W02
 .byte   VOL , 37*songC6_mvl/mxv
 .byte   W03
 .byte   VOL , 37*songC6_mvl/mxv
 .byte   W01
 .byte   VOL , 36*songC6_mvl/mxv
 .byte   W02
 .byte   VOL , 36*songC6_mvl/mxv
 .byte   W04
 .byte   VOL , 36*songC6_mvl/mxv
 .byte   W02
 .byte   VOL , 35*songC6_mvl/mxv
 .byte   W01
 .byte   VOL , 35*songC6_mvl/mxv
 .byte   W02
 .byte   VOL , 34*songC6_mvl/mxv
 .byte   W01
 .byte   VOL , 34*songC6_mvl/mxv
 .byte   W02
 .byte   VOL , 34*songC6_mvl/mxv
 .byte   W01
 .byte   VOL , 33*songC6_mvl/mxv
 .byte   W02
 .byte   VOL , 32*songC6_mvl/mxv
 .byte   TIE ,Bn4 ,v088
 .byte   W01
 .byte   VOL , 32*songC6_mvl/mxv
 .byte   W02
 .byte   VOL , 31*songC6_mvl/mxv
 .byte   W01
 .byte   VOL , 31*songC6_mvl/mxv
 .byte   W03
 .byte   VOL , 30*songC6_mvl/mxv
 .byte   W02
 .byte   VOL , 30*songC6_mvl/mxv
 .byte   W01
 .byte   VOL , 29*songC6_mvl/mxv
 .byte   W02
 .byte   VOL , 29*songC6_mvl/mxv
 .byte   W03
 .byte   VOL , 28*songC6_mvl/mxv
 .byte   W03
 .byte   VOL , 29*songC6_mvl/mxv
 .byte   W03
 .byte   VOL , 29*songC6_mvl/mxv
 .byte   W03
 .byte   VOL , 29*songC6_mvl/mxv
 .byte   W01
 .byte   VOL , 30*songC6_mvl/mxv
 .byte   W02
 .byte   VOL , 30*songC6_mvl/mxv
 .byte   W01
 .byte   VOL , 30*songC6_mvl/mxv
 .byte   W03
 .byte   VOL , 31*songC6_mvl/mxv
 .byte   W02
 .byte   VOL , 31*songC6_mvl/mxv
 .byte   W01
 .byte   VOL , 32*songC6_mvl/mxv
 .byte   W02
 .byte   VOL , 32*songC6_mvl/mxv
 .byte   W03
 .byte   VOL , 33*songC6_mvl/mxv
 .byte   W03
 .byte   VOL , 33*songC6_mvl/mxv
 .byte   W01
 .byte   VOL , 34*songC6_mvl/mxv
 .byte   W02
 .byte   VOL , 34*songC6_mvl/mxv
 .byte   W01
 .byte   VOL , 34*songC6_mvl/mxv
 .byte   W02
@ 010   ----------------------------------------
 .byte   W01
 .byte   VOL , 35*songC6_mvl/mxv
 .byte   W03
 .byte   VOL , 35*songC6_mvl/mxv
 .byte   W05
 .byte   VOL , 35*songC6_mvl/mxv
 .byte   W06
 .byte   VOL , 36*songC6_mvl/mxv
 .byte   W18
 .byte   VOL , 35*songC6_mvl/mxv
 .byte   W06
 .byte   VOL , 35*songC6_mvl/mxv
 .byte   W01
 .byte   VOL , 35*songC6_mvl/mxv
 .byte   W03
 .byte   VOL , 34*songC6_mvl/mxv
 .byte   W03
 .byte   VOL , 34*songC6_mvl/mxv
 .byte   W03
 .byte   VOL , 34*songC6_mvl/mxv
 .byte   W02
 .byte   VOL , 33*songC6_mvl/mxv
 .byte   W03
 .byte   VOL , 33*songC6_mvl/mxv
 .byte   W01
 .byte   VOL , 33*songC6_mvl/mxv
 .byte   W02
 .byte   VOL , 32*songC6_mvl/mxv
 .byte   W01
 .byte   VOL , 32*songC6_mvl/mxv
 .byte   W02
 .byte   VOL , 32*songC6_mvl/mxv
 .byte   W01
 .byte   VOL , 31*songC6_mvl/mxv
 .byte   W02
 .byte   VOL , 31*songC6_mvl/mxv
 .byte   W01
 .byte   VOL , 30*songC6_mvl/mxv
 .byte   W02
 .byte   VOL , 30*songC6_mvl/mxv
 .byte   W01
 .byte   VOL , 29*songC6_mvl/mxv
 .byte   W02
 .byte   VOL , 29*songC6_mvl/mxv
 .byte   W01
 .byte   VOL , 28*songC6_mvl/mxv
 .byte   W02
 .byte   VOL , 28*songC6_mvl/mxv
 .byte   W01
 .byte   VOL , 27*songC6_mvl/mxv
 .byte   W02
 .byte   VOL , 26*songC6_mvl/mxv
 .byte   W01
 .byte   VOL , 26*songC6_mvl/mxv
 .byte   W02
 .byte   VOL , 25*songC6_mvl/mxv
 .byte   W01
 .byte   VOL , 25*songC6_mvl/mxv
 .byte   W02
 .byte   VOL , 24*songC6_mvl/mxv
 .byte   W01
 .byte   VOL , 23*songC6_mvl/mxv
 .byte   W02
 .byte   VOL , 23*songC6_mvl/mxv
 .byte   W01
 .byte   VOL , 22*songC6_mvl/mxv
 .byte   W02
 .byte   VOL , 20*songC6_mvl/mxv
 .byte   W01
 .byte   VOL , 19*songC6_mvl/mxv
 .byte   W01
 .byte   EOT
 .byte   W01
 .byte   VOL , 19*songC6_mvl/mxv
 .byte   W01
 .byte   VOL , 17*songC6_mvl/mxv
 .byte   W02
 .byte   VOL , 16*songC6_mvl/mxv
 .byte   W01
 .byte   VOL , 15*songC6_mvl/mxv
 .byte   W02
@ 011   ----------------------------------------
 .byte   VOL , 38*songC6_mvl/mxv
 .byte   N11 ,An4 ,v100
 .byte   W04
 .byte   VOL , 39*songC6_mvl/mxv
 .byte   W08
 .byte   N11 ,Gs4 ,v068
 .byte   W12
 .byte   An4 ,v100
 .byte   W12
 .byte   TIE ,Bn4 ,v088
 .byte   W30
 .byte   W01
 .byte   VOL , 38*songC6_mvl/mxv
 .byte   W21
 .byte   VOL , 38*songC6_mvl/mxv
 .byte   W08
@ 012   ----------------------------------------
 .byte   VOL , 38*songC6_mvl/mxv
 .byte   W06
 .byte   VOL , 37*songC6_mvl/mxv
 .byte   W06
 .byte   VOL , 37*songC6_mvl/mxv
 .byte   W04
 .byte   VOL , 37*songC6_mvl/mxv
 .byte   W03
 .byte   VOL , 36*songC6_mvl/mxv
 .byte   W02
 .byte   VOL , 36*songC6_mvl/mxv
 .byte   W04
 .byte   VOL , 36*songC6_mvl/mxv
 .byte   W05
 .byte   VOL , 35*songC6_mvl/mxv
 .byte   W04
 .byte   VOL , 35*songC6_mvl/mxv
 .byte   W03
 .byte   VOL , 35*songC6_mvl/mxv
 .byte   W03
 .byte   VOL , 34*songC6_mvl/mxv
 .byte   W03
 .byte   VOL , 34*songC6_mvl/mxv
 .byte   W05
 .byte   VOL , 34*songC6_mvl/mxv
 .byte   W01
 .byte   VOL , 33*songC6_mvl/mxv
 .byte   W05
 .byte   VOL , 33*songC6_mvl/mxv
 .byte   W03
 .byte   VOL , 33*songC6_mvl/mxv
 .byte   W04
 .byte   VOL , 32*songC6_mvl/mxv
 .byte   W02
 .byte   VOL , 32*songC6_mvl/mxv
 .byte   W03
 .byte   VOL , 32*songC6_mvl/mxv
 .byte   W01
 .byte   VOL , 31*songC6_mvl/mxv
 .byte   W03
 .byte   VOL , 31*songC6_mvl/mxv
 .byte   W02
 .byte   VOL , 31*songC6_mvl/mxv
 .byte   W03
 .byte   VOL , 30*songC6_mvl/mxv
 .byte   W01
 .byte   VOL , 30*songC6_mvl/mxv
 .byte   W02
 .byte   VOL , 30*songC6_mvl/mxv
 .byte   W03
 .byte   VOL , 29*songC6_mvl/mxv
 .byte   W01
 .byte   VOL , 29*songC6_mvl/mxv
 .byte   W03
 .byte   VOL , 29*songC6_mvl/mxv
 .byte   W02
 .byte   VOL , 28*songC6_mvl/mxv
 .byte   W01
 .byte   VOL , 28*songC6_mvl/mxv
 .byte   W02
 .byte   VOL , 28*songC6_mvl/mxv
 .byte   W03
 .byte   VOL , 27*songC6_mvl/mxv
 .byte   W01
 .byte   EOT
 .byte   W02
@ 013   ----------------------------------------
 .byte   VOL , 29*songC6_mvl/mxv
 .byte   N44 ,Ds5 ,v100
 .byte   W01
 .byte   VOL , 30*songC6_mvl/mxv
 .byte   W02
 .byte   VOL , 30*songC6_mvl/mxv
 .byte   W01
 .byte   VOL , 31*songC6_mvl/mxv
 .byte   W02
 .byte   VOL , 32*songC6_mvl/mxv
 .byte   W01
 .byte   VOL , 33*songC6_mvl/mxv
 .byte   W02
 .byte   VOL , 33*songC6_mvl/mxv
 .byte   W01
 .byte   VOL , 34*songC6_mvl/mxv
 .byte   W02
 .byte   VOL , 35*songC6_mvl/mxv
 .byte   W01
 .byte   VOL , 35*songC6_mvl/mxv
 .byte   W02
 .byte   VOL , 36*songC6_mvl/mxv
 .byte   W01
 .byte   VOL , 36*songC6_mvl/mxv
 .byte   W02
 .byte   VOL , 37*songC6_mvl/mxv
 .byte   W01
 .byte   VOL , 37*songC6_mvl/mxv
 .byte   W02
 .byte   VOL , 37*songC6_mvl/mxv
 .byte   W10
 .byte   VOL , 37*songC6_mvl/mxv
 .byte   W03
 .byte   VOL , 37*songC6_mvl/mxv
 .byte   W02
 .byte   VOL , 36*songC6_mvl/mxv
 .byte   W01
 .byte   VOL , 36*songC6_mvl/mxv
 .byte   W02
 .byte   VOL , 35*songC6_mvl/mxv
 .byte   W01
 .byte   VOL , 34*songC6_mvl/mxv
 .byte   W02
 .byte   VOL , 33*songC6_mvl/mxv
 .byte   W01
 .byte   VOL , 32*songC6_mvl/mxv
 .byte   W02
 .byte   VOL , 30*songC6_mvl/mxv
 .byte   W01
 .byte   VOL , 29*songC6_mvl/mxv
 .byte   W02
 .byte   N92 ,Bn4
 .byte   W01
 .byte   VOL , 30*songC6_mvl/mxv
 .byte   W02
 .byte   VOL , 30*songC6_mvl/mxv
 .byte   W03
 .byte   VOL , 31*songC6_mvl/mxv
 .byte   W03
 .byte   VOL , 31*songC6_mvl/mxv
 .byte   W03
 .byte   VOL , 31*songC6_mvl/mxv
 .byte   W01
 .byte   VOL , 32*songC6_mvl/mxv
 .byte   W03
 .byte   VOL , 32*songC6_mvl/mxv
 .byte   W03
 .byte   VOL , 32*songC6_mvl/mxv
 .byte   W02
 .byte   VOL , 33*songC6_mvl/mxv
 .byte   W01
 .byte   VOL , 33*songC6_mvl/mxv
 .byte   W05
 .byte   VOL , 33*songC6_mvl/mxv
 .byte   W03
 .byte   VOL , 34*songC6_mvl/mxv
 .byte   W01
 .byte   VOL , 34*songC6_mvl/mxv
 .byte   W03
 .byte   VOL , 34*songC6_mvl/mxv
 .byte   W09
 .byte   VOL , 35*songC6_mvl/mxv
 .byte   W05
@ 014   ----------------------------------------
 .byte   W12
 .byte   VOL , 34*songC6_mvl/mxv
 .byte   W03
 .byte   VOL , 34*songC6_mvl/mxv
 .byte   W01
 .byte   VOL , 33*songC6_mvl/mxv
 .byte   W02
 .byte   VOL , 33*songC6_mvl/mxv
 .byte   W01
 .byte   VOL , 33*songC6_mvl/mxv
 .byte   W02
 .byte   VOL , 32*songC6_mvl/mxv
 .byte   W01
 .byte   VOL , 31*songC6_mvl/mxv
 .byte   W02
 .byte   VOL , 31*songC6_mvl/mxv
 .byte   W01
 .byte   VOL , 30*songC6_mvl/mxv
 .byte   W02
 .byte   VOL , 30*songC6_mvl/mxv
 .byte   W01
 .byte   VOL , 29*songC6_mvl/mxv
 .byte   W02
 .byte   VOL , 29*songC6_mvl/mxv
 .byte   W01
 .byte   VOL , 28*songC6_mvl/mxv
 .byte   W02
 .byte   VOL , 27*songC6_mvl/mxv
 .byte   W01
 .byte   VOL , 27*songC6_mvl/mxv
 .byte   W02
 .byte   VOL , 26*songC6_mvl/mxv
 .byte   W01
 .byte   VOL , 25*songC6_mvl/mxv
 .byte   W02
 .byte   VOL , 24*songC6_mvl/mxv
 .byte   W01
 .byte   VOL , 23*songC6_mvl/mxv
 .byte   W02
 .byte   VOL , 22*songC6_mvl/mxv
 .byte   W01
 .byte   VOL , 20*songC6_mvl/mxv
 .byte   W02
 .byte   VOL , 20*songC6_mvl/mxv
 .byte   W01
 .byte   VOL , 19*songC6_mvl/mxv
 .byte   W02
 .byte   VOL , 25*songC6_mvl/mxv
 .byte   TIE ,Gs5 ,v108
 .byte   W01
 .byte   VOL , 25*songC6_mvl/mxv
 .byte   W02
 .byte   VOL , 26*songC6_mvl/mxv
 .byte   W01
 .byte   VOL , 26*songC6_mvl/mxv
 .byte   W02
 .byte   VOL , 26*songC6_mvl/mxv
 .byte   W01
 .byte   VOL , 27*songC6_mvl/mxv
 .byte   W02
 .byte   VOL , 27*songC6_mvl/mxv
 .byte   W01
 .byte   VOL , 27*songC6_mvl/mxv
 .byte   W02
 .byte   VOL , 28*songC6_mvl/mxv
 .byte   W01
 .byte   VOL , 28*songC6_mvl/mxv
 .byte   W03
 .byte   VOL , 29*songC6_mvl/mxv
 .byte   W02
 .byte   VOL , 29*songC6_mvl/mxv
 .byte   W01
 .byte   VOL , 30*songC6_mvl/mxv
 .byte   W02
 .byte   VOL , 30*songC6_mvl/mxv
 .byte   W01
 .byte   VOL , 31*songC6_mvl/mxv
 .byte   W02
 .byte   VOL , 31*songC6_mvl/mxv
 .byte   W01
 .byte   VOL , 32*songC6_mvl/mxv
 .byte   W02
 .byte   VOL , 33*songC6_mvl/mxv
 .byte   W01
 .byte   VOL , 33*songC6_mvl/mxv
 .byte   W02
 .byte   VOL , 33*songC6_mvl/mxv
 .byte   W01
 .byte   VOL , 34*songC6_mvl/mxv
 .byte   W02
 .byte   VOL , 34*songC6_mvl/mxv
 .byte   W01
 .byte   VOL , 35*songC6_mvl/mxv
 .byte   W02
 .byte   VOL , 35*songC6_mvl/mxv
 .byte   W01
 .byte   VOL , 36*songC6_mvl/mxv
 .byte   W05
 .byte   VOL , 36*songC6_mvl/mxv
 .byte   W03
 .byte   VOL , 36*songC6_mvl/mxv
 .byte   W01
 .byte   VOL , 37*songC6_mvl/mxv
 .byte   W02
@ 015   ----------------------------------------
 .byte   W13
 .byte   VOL , 36*songC6_mvl/mxv
 .byte   W05
 .byte   VOL , 36*songC6_mvl/mxv
 .byte   W01
 .byte   VOL , 36*songC6_mvl/mxv
 .byte   W03
 .byte   VOL , 35*songC6_mvl/mxv
 .byte   W03
 .byte   VOL , 35*songC6_mvl/mxv
 .byte   W02
 .byte   VOL , 34*songC6_mvl/mxv
 .byte   W03
 .byte   VOL , 34*songC6_mvl/mxv
 .byte   W01
 .byte   VOL , 33*songC6_mvl/mxv
 .byte   W02
 .byte   VOL , 33*songC6_mvl/mxv
 .byte   W03
 .byte   VOL , 32*songC6_mvl/mxv
 .byte   W01
 .byte   VOL , 32*songC6_mvl/mxv
 .byte   W02
 .byte   VOL , 31*songC6_mvl/mxv
 .byte   W01
 .byte   VOL , 31*songC6_mvl/mxv
 .byte   W02
 .byte   VOL , 30*songC6_mvl/mxv
 .byte   W01
 .byte   VOL , 30*songC6_mvl/mxv
 .byte   W02
 .byte   VOL , 29*songC6_mvl/mxv
 .byte   W01
 .byte   VOL , 28*songC6_mvl/mxv
 .byte   W02
 .byte   VOL , 28*songC6_mvl/mxv
 .byte   W01
 .byte   VOL , 27*songC6_mvl/mxv
 .byte   W02
 .byte   VOL , 26*songC6_mvl/mxv
 .byte   W01
 .byte   VOL , 25*songC6_mvl/mxv
 .byte   W02
 .byte   VOL , 25*songC6_mvl/mxv
 .byte   W01
 .byte   VOL , 24*songC6_mvl/mxv
 .byte   W02
 .byte   VOL , 23*songC6_mvl/mxv
 .byte   W01
 .byte   VOL , 22*songC6_mvl/mxv
 .byte   W02
 .byte   VOL , 22*songC6_mvl/mxv
 .byte   W01
 .byte   EOT
 .byte   VOL , 21*songC6_mvl/mxv
 .byte   W02
 .byte   VOL , 19*songC6_mvl/mxv
 .byte   W01
 .byte   VOL , 19*songC6_mvl/mxv
 .byte   W02
 .byte   VOL , 18*songC6_mvl/mxv
 .byte   W01
 .byte   VOL , 17*songC6_mvl/mxv
 .byte   W02
 .byte   VOL , 16*songC6_mvl/mxv
 .byte   W01
 .byte   VOL , 15*songC6_mvl/mxv
 .byte   W02
 .byte   VOL , 14*songC6_mvl/mxv
 .byte   W01
 .byte   VOL , 13*songC6_mvl/mxv
 .byte   W02
 .byte   VOL , 12*songC6_mvl/mxv
 .byte   W01
 .byte   VOL , 10*songC6_mvl/mxv
 .byte   W02
 .byte   VOL , 9*songC6_mvl/mxv
 .byte   W01
 .byte   VOL , 8*songC6_mvl/mxv
 .byte   W02
 .byte   VOL , 7*songC6_mvl/mxv
 .byte   W01
 .byte   VOL , 5*songC6_mvl/mxv
 .byte   W02
 .byte   VOL , 4*songC6_mvl/mxv
 .byte   W01
 .byte   VOL , 2*songC6_mvl/mxv
 .byte   W02
 .byte   VOL , 0*songC6_mvl/mxv
 .byte   W09
@ 016   ----------------------------------------
 .byte   VOL , 38*songC6_mvl/mxv
 .byte   W96
@ 017   ----------------------------------------
 .byte   W96
@ 018   ----------------------------------------
 .byte   W96
@ 019   ----------------------------------------
 .byte   W96
@ 020   ----------------------------------------
 .byte   W96
@ 021   ----------------------------------------
 .byte   W96
@ 022   ----------------------------------------
 .byte   W96
@ 023   ----------------------------------------
 .byte   W48
 .byte   N23 ,Cs4 ,v100
 .byte   W10
 .byte   VOL , 38*songC6_mvl/mxv
 .byte   W02
 .byte   VOL , 38*songC6_mvl/mxv
 .byte   W03
 .byte   VOL , 38*songC6_mvl/mxv
 .byte   W01
 .byte   VOL , 37*songC6_mvl/mxv
 .byte   W02
 .byte   VOL , 37*songC6_mvl/mxv
 .byte   W01
 .byte   VOL , 36*songC6_mvl/mxv
 .byte   W02
 .byte   VOL , 35*songC6_mvl/mxv
 .byte   W01
 .byte   VOL , 34*songC6_mvl/mxv
 .byte   W03
 .byte   VOL , 34*songC6_mvl/mxv
 .byte   W02
 .byte   VOL , 33*songC6_mvl/mxv
 .byte   W01
 .byte   VOL , 33*songC6_mvl/mxv
 .byte   W02
 .byte   VOL , 32*songC6_mvl/mxv
 .byte   W01
 .byte   VOL , 32*songC6_mvl/mxv
 .byte   W02
 .byte   VOL , 31*songC6_mvl/mxv
 .byte   W01
 .byte   VOL , 30*songC6_mvl/mxv
 .byte   W02
 .byte   VOL , 38*songC6_mvl/mxv
 .byte   N04 ,Gs3
 .byte   W12
@ 024   ----------------------------------------
 .byte   N23 ,Ds4
 .byte   W06
 .byte   VOL , 38*songC6_mvl/mxv
 .byte   W03
 .byte   VOL , 37*songC6_mvl/mxv
 .byte   W01
 .byte   VOL , 37*songC6_mvl/mxv
 .byte   W02
 .byte   VOL , 36*songC6_mvl/mxv
 .byte   W01
 .byte   VOL , 36*songC6_mvl/mxv
 .byte   W02
 .byte   VOL , 35*songC6_mvl/mxv
 .byte   W01
 .byte   VOL , 35*songC6_mvl/mxv
 .byte   W02
 .byte   VOL , 34*songC6_mvl/mxv
 .byte   W01
 .byte   VOL , 34*songC6_mvl/mxv
 .byte   W02
 .byte   VOL , 33*songC6_mvl/mxv
 .byte   W01
 .byte   VOL , 33*songC6_mvl/mxv
 .byte   W02
 .byte   VOL , 32*songC6_mvl/mxv
 .byte   W01
 .byte   VOL , 31*songC6_mvl/mxv
 .byte   W02
 .byte   VOL , 30*songC6_mvl/mxv
 .byte   W01
 .byte   VOL , 29*songC6_mvl/mxv
 .byte   W02
 .byte   VOL , 29*songC6_mvl/mxv
 .byte   W01
 .byte   VOL , 28*songC6_mvl/mxv
 .byte   W05
 .byte   VOL , 38*songC6_mvl/mxv
 .byte   N04 ,Gs3
 .byte   W12
 .byte   N17 ,En4
 .byte   W18
 .byte   Fs4
 .byte   W18
 .byte   N11 ,Gs4
 .byte   W12
@ 025   ----------------------------------------
 .byte   N17 ,Fs4
 .byte   W18
 .byte   En4
 .byte   W18
 .byte   N11 ,Ds4
 .byte   W12
 .byte   N17 ,Cs4
 .byte   W18
 .byte   VOL , 32*songC6_mvl/mxv
 .byte   N32 ,Gs4
 .byte   W01
 .byte   VOL , 33*songC6_mvl/mxv
 .byte   W02
 .byte   VOL , 33*songC6_mvl/mxv
 .byte   W01
 .byte   VOL , 34*songC6_mvl/mxv
 .byte   W02
 .byte   VOL , 35*songC6_mvl/mxv
 .byte   W01
 .byte   VOL , 36*songC6_mvl/mxv
 .byte   W02
 .byte   VOL , 36*songC6_mvl/mxv
 .byte   W01
 .byte   VOL , 36*songC6_mvl/mxv
 .byte   W02
 .byte   VOL , 37*songC6_mvl/mxv
 .byte   W01
 .byte   VOL , 38*songC6_mvl/mxv
 .byte   W03
 .byte   VOL , 38*songC6_mvl/mxv
 .byte   W14
@ 026   ----------------------------------------
 .byte   W12
 .byte   N11 ,Bn4
 .byte   W12
 .byte   N04 ,An4
 .byte   W12
 .byte   N54 ,Gs4
 .byte   W12
 .byte   VOL , 38*songC6_mvl/mxv
 .byte   W04
 .byte   VOL , 38*songC6_mvl/mxv
 .byte   W03
 .byte   VOL , 37*songC6_mvl/mxv
 .byte   W03
 .byte   VOL , 37*songC6_mvl/mxv
 .byte   W05
 .byte   VOL , 37*songC6_mvl/mxv
 .byte   W01
 .byte   VOL , 36*songC6_mvl/mxv
 .byte   W03
 .byte   VOL , 36*songC6_mvl/mxv
 .byte   W02
 .byte   VOL , 36*songC6_mvl/mxv
 .byte   W01
 .byte   VOL , 35*songC6_mvl/mxv
 .byte   W03
 .byte   VOL , 34*songC6_mvl/mxv
 .byte   W02
 .byte   VOL , 34*songC6_mvl/mxv
 .byte   W01
 .byte   VOL , 33*songC6_mvl/mxv
 .byte   W02
 .byte   VOL , 33*songC6_mvl/mxv
 .byte   W01
 .byte   VOL , 32*songC6_mvl/mxv
 .byte   W02
 .byte   VOL , 32*songC6_mvl/mxv
 .byte   W01
 .byte   VOL , 31*songC6_mvl/mxv
 .byte   W02
 .byte   VOL , 30*songC6_mvl/mxv
 .byte   W01
 .byte   VOL , 30*songC6_mvl/mxv
 .byte   W02
 .byte   VOL , 30*songC6_mvl/mxv
 .byte   W01
 .byte   VOL , 29*songC6_mvl/mxv
 .byte   W02
 .byte   VOL , 28*songC6_mvl/mxv
 .byte   W01
 .byte   VOL , 28*songC6_mvl/mxv
 .byte   W02
 .byte   VOL , 27*songC6_mvl/mxv
 .byte   W01
 .byte   VOL , 26*songC6_mvl/mxv
 .byte   W02
@ 027   ----------------------------------------
 .byte   VOL , 38*songC6_mvl/mxv
 .byte   N11
 .byte   W12
 .byte   Fs4
 .byte   W12
 .byte   N17 ,En4
 .byte   W24
 .byte   VOL , 31*songC6_mvl/mxv
 .byte   N32 ,Fs4
 .byte   W01
 .byte   VOL , 31*songC6_mvl/mxv
 .byte   W02
 .byte   VOL , 32*songC6_mvl/mxv
 .byte   W01
 .byte   VOL , 32*songC6_mvl/mxv
 .byte   W02
 .byte   VOL , 33*songC6_mvl/mxv
 .byte   W01
 .byte   VOL , 34*songC6_mvl/mxv
 .byte   W03
 .byte   VOL , 34*songC6_mvl/mxv
 .byte   W02
 .byte   VOL , 35*songC6_mvl/mxv
 .byte   W01
 .byte   VOL , 35*songC6_mvl/mxv
 .byte   W02
 .byte   VOL , 36*songC6_mvl/mxv
 .byte   W01
 .byte   VOL , 37*songC6_mvl/mxv
 .byte   W02
 .byte   VOL , 37*songC6_mvl/mxv
 .byte   W01
 .byte   VOL , 38*songC6_mvl/mxv
 .byte   W02
 .byte   VOL , 38*songC6_mvl/mxv
 .byte   W15
 .byte   N11 ,En4
 .byte   W12
@ 028   ----------------------------------------
 .byte   N28 ,Ds4
 .byte   W10
 .byte   VOL , 38*songC6_mvl/mxv
 .byte   W02
 .byte   VOL , 38*songC6_mvl/mxv
 .byte   W01
 .byte   VOL , 37*songC6_mvl/mxv
 .byte   W02
 .byte   VOL , 36*songC6_mvl/mxv
 .byte   W01
 .byte   VOL , 36*songC6_mvl/mxv
 .byte   W02
 .byte   VOL , 35*songC6_mvl/mxv
 .byte   W01
 .byte   VOL , 34*songC6_mvl/mxv
 .byte   W02
 .byte   VOL , 34*songC6_mvl/mxv
 .byte   W01
 .byte   VOL , 33*songC6_mvl/mxv
 .byte   W02
 .byte   VOL , 32*songC6_mvl/mxv
 .byte   W01
 .byte   VOL , 30*songC6_mvl/mxv
 .byte   W02
 .byte   VOL , 28*songC6_mvl/mxv
 .byte   W01
 .byte   VOL , 26*songC6_mvl/mxv
 .byte   W02
 .byte   VOL , 24*songC6_mvl/mxv
 .byte   W01
 .byte   VOL , 23*songC6_mvl/mxv
 .byte   W02
 .byte   VOL , 23*songC6_mvl/mxv
 .byte   W01
 .byte   VOL , 22*songC6_mvl/mxv
 .byte   W02
 .byte   VOL , 38*songC6_mvl/mxv
 .byte   N04 ,Cs4
 .byte   W06
 .byte   Ds4
 .byte   W06
 .byte   N17 ,En4
 .byte   W18
 .byte   Ds4
 .byte   W18
 .byte   N04 ,Cs4
 .byte   W12
@ 029   ----------------------------------------
 .byte   N17 ,Ds4
 .byte   W18
 .byte   Gs3
 .byte   W18
 .byte   N04 ,Bn3
 .byte   W12
 .byte   N32
 .byte   W18
 .byte   VOL , 38*songC6_mvl/mxv
 .byte   W04
 .byte   VOL , 38*songC6_mvl/mxv
 .byte   W02
 .byte   VOL , 37*songC6_mvl/mxv
 .byte   W03
 .byte   VOL , 36*songC6_mvl/mxv
 .byte   W01
 .byte   VOL , 36*songC6_mvl/mxv
 .byte   W02
 .byte   VOL , 36*songC6_mvl/mxv
 .byte   W01
 .byte   VOL , 35*songC6_mvl/mxv
 .byte   W02
 .byte   VOL , 35*songC6_mvl/mxv
 .byte   W01
 .byte   VOL , 38*songC6_mvl/mxv
 .byte   W02
 .byte   N04 ,Cs4
 .byte   W12
@ 030   ----------------------------------------
 .byte   N40
 .byte   W15
 .byte   VOL , 38*songC6_mvl/mxv
 .byte   W03
 .byte   VOL , 38*songC6_mvl/mxv
 .byte   W01
 .byte   VOL , 37*songC6_mvl/mxv
 .byte   W02
 .byte   VOL , 36*songC6_mvl/mxv
 .byte   W01
 .byte   VOL , 36*songC6_mvl/mxv
 .byte   W02
 .byte   VOL , 35*songC6_mvl/mxv
 .byte   W01
 .byte   VOL , 34*songC6_mvl/mxv
 .byte   W02
 .byte   VOL , 33*songC6_mvl/mxv
 .byte   W01
 .byte   VOL , 33*songC6_mvl/mxv
 .byte   W02
 .byte   VOL , 32*songC6_mvl/mxv
 .byte   W01
 .byte   VOL , 31*songC6_mvl/mxv
 .byte   W02
 .byte   VOL , 29*songC6_mvl/mxv
 .byte   W01
 .byte   VOL , 29*songC6_mvl/mxv
 .byte   W02
 .byte   VOL , 27*songC6_mvl/mxv
 .byte   W01
 .byte   VOL , 26*songC6_mvl/mxv
 .byte   W02
 .byte   VOL , 24*songC6_mvl/mxv
 .byte   W01
 .byte   VOL , 23*songC6_mvl/mxv
 .byte   W02
 .byte   VOL , 20*songC6_mvl/mxv
 .byte   W01
 .byte   VOL , 16*songC6_mvl/mxv
 .byte   W02
 .byte   VOL , 12*songC6_mvl/mxv
 .byte   W01
 .byte   VOL , 7*songC6_mvl/mxv
 .byte   W02
 .byte   VOL , 38*songC6_mvl/mxv
 .byte   W48
@ 031   ----------------------------------------
 .byte   W48
 .byte   N23
 .byte   W13
 .byte   VOL , 38*songC6_mvl/mxv
 .byte   W03
 .byte   VOL , 38*songC6_mvl/mxv
 .byte   W02
 .byte   VOL , 37*songC6_mvl/mxv
 .byte   W01
 .byte   VOL , 37*songC6_mvl/mxv
 .byte   W02
 .byte   VOL , 37*songC6_mvl/mxv
 .byte   W01
 .byte   VOL , 36*songC6_mvl/mxv
 .byte   W02
 .byte   VOL , 36*songC6_mvl/mxv
 .byte   W01
 .byte   VOL , 36*songC6_mvl/mxv
 .byte   W02
 .byte   VOL , 35*songC6_mvl/mxv
 .byte   W01
 .byte   VOL , 35*songC6_mvl/mxv
 .byte   W02
 .byte   VOL , 35*songC6_mvl/mxv
 .byte   W01
 .byte   VOL , 34*songC6_mvl/mxv
 .byte   W02
 .byte   VOL , 33*songC6_mvl/mxv
 .byte   W03
 .byte   VOL , 38*songC6_mvl/mxv
 .byte   N04 ,Gs3
 .byte   W12
@ 032   ----------------------------------------
 .byte   N23 ,Ds4
 .byte   W07
 .byte   VOL , 38*songC6_mvl/mxv
 .byte   W03
 .byte   VOL , 37*songC6_mvl/mxv
 .byte   W02
 .byte   VOL , 37*songC6_mvl/mxv
 .byte   W01
 .byte   VOL , 36*songC6_mvl/mxv
 .byte   W02
 .byte   VOL , 36*songC6_mvl/mxv
 .byte   W01
 .byte   VOL , 36*songC6_mvl/mxv
 .byte   W02
 .byte   VOL , 35*songC6_mvl/mxv
 .byte   W01
 .byte   VOL , 35*songC6_mvl/mxv
 .byte   W02
 .byte   VOL , 34*songC6_mvl/mxv
 .byte   W01
 .byte   VOL , 34*songC6_mvl/mxv
 .byte   W02
 .byte   VOL , 33*songC6_mvl/mxv
 .byte   W01
 .byte   VOL , 33*songC6_mvl/mxv
 .byte   W02
 .byte   VOL , 33*songC6_mvl/mxv
 .byte   W01
 .byte   VOL , 32*songC6_mvl/mxv
 .byte   W03
 .byte   VOL , 31*songC6_mvl/mxv
 .byte   W02
 .byte   VOL , 31*songC6_mvl/mxv
 .byte   W01
 .byte   VOL , 30*songC6_mvl/mxv
 .byte   W02
 .byte   VOL , 39*songC6_mvl/mxv
 .byte   N04 ,Gs3
 .byte   W12
 .byte   N17 ,En4
 .byte   W18
 .byte   Fs4
 .byte   W18
 .byte   N11 ,Gs4
 .byte   W12
@ 033   ----------------------------------------
 .byte   N17 ,Fs4
 .byte   W18
 .byte   En4
 .byte   W18
 .byte   N11 ,Ds4
 .byte   W12
 .byte   N17 ,Cs4
 .byte   W18
 .byte   VOL , 33*songC6_mvl/mxv
 .byte   N32 ,Gs4
 .byte   W03
 .byte   VOL , 33*songC6_mvl/mxv
 .byte   W01
 .byte   VOL , 34*songC6_mvl/mxv
 .byte   W02
 .byte   VOL , 34*songC6_mvl/mxv
 .byte   W01
 .byte   VOL , 35*songC6_mvl/mxv
 .byte   W02
 .byte   VOL , 35*songC6_mvl/mxv
 .byte   W01
 .byte   VOL , 35*songC6_mvl/mxv
 .byte   W02
 .byte   VOL , 36*songC6_mvl/mxv
 .byte   W01
 .byte   VOL , 36*songC6_mvl/mxv
 .byte   W02
 .byte   VOL , 37*songC6_mvl/mxv
 .byte   W01
 .byte   VOL , 38*songC6_mvl/mxv
 .byte   W03
 .byte   VOL , 38*songC6_mvl/mxv
 .byte   W02
 .byte   VOL , 38*songC6_mvl/mxv
 .byte   W09
@ 034   ----------------------------------------
 .byte   W12
 .byte   N11 ,Bn4
 .byte   W12
 .byte   N04 ,An4
 .byte   W12
 .byte   VOL , 32*songC6_mvl/mxv
 .byte   N56 ,Gs4
 .byte   W01
 .byte   VOL , 33*songC6_mvl/mxv
 .byte   W03
 .byte   VOL , 33*songC6_mvl/mxv
 .byte   W02
 .byte   VOL , 33*songC6_mvl/mxv
 .byte   W01
 .byte   VOL , 34*songC6_mvl/mxv
 .byte   W03
 .byte   VOL , 34*songC6_mvl/mxv
 .byte   W02
 .byte   VOL , 35*songC6_mvl/mxv
 .byte   W01
 .byte   VOL , 35*songC6_mvl/mxv
 .byte   W02
 .byte   VOL , 36*songC6_mvl/mxv
 .byte   W01
 .byte   VOL , 36*songC6_mvl/mxv
 .byte   W02
 .byte   VOL , 36*songC6_mvl/mxv
 .byte   W03
 .byte   VOL , 37*songC6_mvl/mxv
 .byte   W01
 .byte   VOL , 37*songC6_mvl/mxv
 .byte   W06
 .byte   VOL , 37*songC6_mvl/mxv
 .byte   W02
 .byte   VOL , 38*songC6_mvl/mxv
 .byte   W10
 .byte   VOL , 37*songC6_mvl/mxv
 .byte   W02
 .byte   VOL , 36*songC6_mvl/mxv
 .byte   W01
 .byte   VOL , 36*songC6_mvl/mxv
 .byte   W02
 .byte   VOL , 35*songC6_mvl/mxv
 .byte   W01
 .byte   VOL , 35*songC6_mvl/mxv
 .byte   W02
 .byte   VOL , 33*songC6_mvl/mxv
 .byte   W01
 .byte   VOL , 32*songC6_mvl/mxv
 .byte   W02
 .byte   VOL , 31*songC6_mvl/mxv
 .byte   W01
 .byte   VOL , 30*songC6_mvl/mxv
 .byte   W02
 .byte   VOL , 28*songC6_mvl/mxv
 .byte   W01
 .byte   VOL , 27*songC6_mvl/mxv
 .byte   W02
 .byte   VOL , 26*songC6_mvl/mxv
 .byte   W01
 .byte   VOL , 22*songC6_mvl/mxv
 .byte   W02
@ 035   ----------------------------------------
 .byte   VOL , 38*songC6_mvl/mxv
 .byte   N11
 .byte   W12
 .byte   Fs4
 .byte   W12
 .byte   N17 ,En4
 .byte   W06
 .byte   VOL , 38*songC6_mvl/mxv
 .byte   W01
 .byte   VOL , 36*songC6_mvl/mxv
 .byte   W02
 .byte   VOL , 36*songC6_mvl/mxv
 .byte   W01
 .byte   VOL , 35*songC6_mvl/mxv
 .byte   W02
 .byte   VOL , 34*songC6_mvl/mxv
 .byte   W01
 .byte   VOL , 33*songC6_mvl/mxv
 .byte   W02
 .byte   VOL , 33*songC6_mvl/mxv
 .byte   W01
 .byte   VOL , 31*songC6_mvl/mxv
 .byte   W02
 .byte   VOL , 30*songC6_mvl/mxv
 .byte   W01
 .byte   VOL , 29*songC6_mvl/mxv
 .byte   W05
 .byte   VOL , 33*songC6_mvl/mxv
 .byte   N32 ,Fs4
 .byte   W01
 .byte   VOL , 33*songC6_mvl/mxv
 .byte   W02
 .byte   VOL , 34*songC6_mvl/mxv
 .byte   W01
 .byte   VOL , 34*songC6_mvl/mxv
 .byte   W02
 .byte   VOL , 35*songC6_mvl/mxv
 .byte   W01
 .byte   VOL , 35*songC6_mvl/mxv
 .byte   W02
 .byte   VOL , 36*songC6_mvl/mxv
 .byte   W01
 .byte   VOL , 36*songC6_mvl/mxv
 .byte   W02
 .byte   VOL , 36*songC6_mvl/mxv
 .byte   W01
 .byte   VOL , 37*songC6_mvl/mxv
 .byte   W02
 .byte   VOL , 37*songC6_mvl/mxv
 .byte   W01
 .byte   VOL , 38*songC6_mvl/mxv
 .byte   W03
 .byte   VOL , 38*songC6_mvl/mxv
 .byte   W02
 .byte   VOL , 38*songC6_mvl/mxv
 .byte   W15
 .byte   N11 ,En4
 .byte   W12
@ 036   ----------------------------------------
 .byte   N32 ,Ds4
 .byte   W07
 .byte   VOL , 38*songC6_mvl/mxv
 .byte   W02
 .byte   VOL , 37*songC6_mvl/mxv
 .byte   W01
 .byte   VOL , 36*songC6_mvl/mxv
 .byte   W02
 .byte   VOL , 36*songC6_mvl/mxv
 .byte   W01
 .byte   VOL , 35*songC6_mvl/mxv
 .byte   W02
 .byte   VOL , 34*songC6_mvl/mxv
 .byte   W01
 .byte   VOL , 34*songC6_mvl/mxv
 .byte   W02
 .byte   VOL , 33*songC6_mvl/mxv
 .byte   W01
 .byte   VOL , 32*songC6_mvl/mxv
 .byte   W02
 .byte   VOL , 31*songC6_mvl/mxv
 .byte   W01
 .byte   VOL , 29*songC6_mvl/mxv
 .byte   W02
 .byte   VOL , 28*songC6_mvl/mxv
 .byte   W01
 .byte   VOL , 27*songC6_mvl/mxv
 .byte   W02
 .byte   VOL , 26*songC6_mvl/mxv
 .byte   W01
 .byte   VOL , 24*songC6_mvl/mxv
 .byte   W02
 .byte   VOL , 19*songC6_mvl/mxv
 .byte   W01
 .byte   VOL , 17*songC6_mvl/mxv
 .byte   W02
 .byte   VOL , 16*songC6_mvl/mxv
 .byte   W01
 .byte   VOL , 15*songC6_mvl/mxv
 .byte   W02
 .byte   VOL , 38*songC6_mvl/mxv
 .byte   N04 ,Cs4
 .byte   W06
 .byte   Ds4
 .byte   W06
 .byte   N17 ,En4
 .byte   W18
 .byte   Ds4
 .byte   W18
 .byte   N04 ,Cs4
 .byte   W12
@ 037   ----------------------------------------
 .byte   N17 ,Ds4
 .byte   W18
 .byte   Gs3
 .byte   W18
 .byte   N04 ,Bn3
 .byte   W12
 .byte   N32
 .byte   W06
 .byte   VOL , 38*songC6_mvl/mxv
 .byte   W03
 .byte   VOL , 38*songC6_mvl/mxv
 .byte   W06
 .byte   VOL , 37*songC6_mvl/mxv
 .byte   W03
 .byte   VOL , 37*songC6_mvl/mxv
 .byte   W04
 .byte   VOL , 37*songC6_mvl/mxv
 .byte   W02
 .byte   VOL , 36*songC6_mvl/mxv
 .byte   W03
 .byte   VOL , 36*songC6_mvl/mxv
 .byte   W01
 .byte   VOL , 35*songC6_mvl/mxv
 .byte   W02
 .byte   VOL , 35*songC6_mvl/mxv
 .byte   W01
 .byte   VOL , 35*songC6_mvl/mxv
 .byte   W02
 .byte   VOL , 34*songC6_mvl/mxv
 .byte   W01
 .byte   VOL , 34*songC6_mvl/mxv
 .byte   W02
 .byte   VOL , 38*songC6_mvl/mxv
 .byte   N08 ,Cs4
 .byte   W12
@ 038   ----------------------------------------
 .byte   VOL , 31*songC6_mvl/mxv
 .byte   N92
 .byte   W03
 .byte   VOL , 31*songC6_mvl/mxv
 .byte   W01
 .byte   VOL , 32*songC6_mvl/mxv
 .byte   W02
 .byte   VOL , 32*songC6_mvl/mxv
 .byte   W01
 .byte   VOL , 33*songC6_mvl/mxv
 .byte   W03
 .byte   VOL , 33*songC6_mvl/mxv
 .byte   W02
 .byte   VOL , 34*songC6_mvl/mxv
 .byte   W01
 .byte   VOL , 34*songC6_mvl/mxv
 .byte   W02
 .byte   VOL , 34*songC6_mvl/mxv
 .byte   W01
 .byte   VOL , 35*songC6_mvl/mxv
 .byte   W02
 .byte   VOL , 35*songC6_mvl/mxv
 .byte   W03
 .byte   VOL , 36*songC6_mvl/mxv
 .byte   W01
 .byte   VOL , 36*songC6_mvl/mxv
 .byte   W05
 .byte   VOL , 36*songC6_mvl/mxv
 .byte   W06
 .byte   VOL , 37*songC6_mvl/mxv
 .byte   W19
 .byte   VOL , 36*songC6_mvl/mxv
 .byte   W05
 .byte   VOL , 36*songC6_mvl/mxv
 .byte   W03
 .byte   VOL , 36*songC6_mvl/mxv
 .byte   W03
 .byte   VOL , 35*songC6_mvl/mxv
 .byte   W01
 .byte   VOL , 35*songC6_mvl/mxv
 .byte   W02
 .byte   VOL , 35*songC6_mvl/mxv
 .byte   W01
 .byte   VOL , 34*songC6_mvl/mxv
 .byte   W02
 .byte   VOL , 34*songC6_mvl/mxv
 .byte   W01
 .byte   VOL , 33*songC6_mvl/mxv
 .byte   W02
 .byte   VOL , 33*songC6_mvl/mxv
 .byte   W01
 .byte   VOL , 33*songC6_mvl/mxv
 .byte   W02
 .byte   VOL , 32*songC6_mvl/mxv
 .byte   W01
 .byte   VOL , 31*songC6_mvl/mxv
 .byte   W02
 .byte   VOL , 31*songC6_mvl/mxv
 .byte   W01
 .byte   VOL , 30*songC6_mvl/mxv
 .byte   W02
 .byte   VOL , 30*songC6_mvl/mxv
 .byte   W01
 .byte   VOL , 29*songC6_mvl/mxv
 .byte   W02
 .byte   VOL , 28*songC6_mvl/mxv
 .byte   W01
 .byte   VOL , 27*songC6_mvl/mxv
 .byte   W02
 .byte   VOL , 26*songC6_mvl/mxv
 .byte   W01
 .byte   VOL , 25*songC6_mvl/mxv
 .byte   W02
 .byte   VOL , 24*songC6_mvl/mxv
 .byte   W01
 .byte   VOL , 23*songC6_mvl/mxv
 .byte   W02
 .byte   VOL , 20*songC6_mvl/mxv
 .byte   W01
 .byte   VOL , 20*songC6_mvl/mxv
 .byte   W02
@ 039   ----------------------------------------
 .byte   VOL , 17*songC6_mvl/mxv
 .byte   W01
 .byte   VOL , 16*songC6_mvl/mxv
 .byte   W02
 .byte   VOL , 14*songC6_mvl/mxv
 .byte   W01
 .byte   VOL , 12*songC6_mvl/mxv
 .byte   W02
 .byte   VOL , 10*songC6_mvl/mxv
 .byte   W01
 .byte   VOL , 7*songC6_mvl/mxv
 .byte   W02
 .byte   VOL , 5*songC6_mvl/mxv
 .byte   W01
 .byte   VOL , 0*songC6_mvl/mxv
 .byte   W08
 .byte   VOL , 0*songC6_mvl/mxv
 .byte   W01
 .byte   VOL , 1*songC6_mvl/mxv
 .byte   W02
 .byte   VOL , 1*songC6_mvl/mxv
 .byte   W01
 .byte   VOL , 2*songC6_mvl/mxv
 .byte   W02
 .byte   VOL , 38*songC6_mvl/mxv
 .byte   W72
@ 040   ----------------------------------------
 .byte   W96
@ 041   ----------------------------------------
 .byte   W96
@ 042   ----------------------------------------
 .byte   W96
@ 043   ----------------------------------------
 .byte   W96
@ 044   ----------------------------------------
 .byte   W96
@ 045   ----------------------------------------
 .byte   W96
@ 046   ----------------------------------------
 .byte   W96
@ 047   ----------------------------------------
 .byte   W12
 .byte   N11 ,As3
 .byte   W12
 .byte   Ds4
 .byte   W12
 .byte   Fs4
 .byte   W12
 .byte   N23 ,Fn4
 .byte   W24
 .byte   N11 ,Ds4
 .byte   W12
 .byte   N23 ,As3
 .byte   W12
@ 048   ----------------------------------------
 .byte   W12
 .byte   N11 ,Gs3
 .byte   W12
 .byte   N05 ,Fs3
 .byte   W12
 .byte   VOL , 30*songC6_mvl/mxv
 .byte   N56 ,As3
 .byte   W01
 .byte   VOL , 30*songC6_mvl/mxv
 .byte   W02
 .byte   VOL , 31*songC6_mvl/mxv
 .byte   W01
 .byte   VOL , 31*songC6_mvl/mxv
 .byte   W02
 .byte   VOL , 32*songC6_mvl/mxv
 .byte   W01
 .byte   VOL , 32*songC6_mvl/mxv
 .byte   W02
 .byte   VOL , 33*songC6_mvl/mxv
 .byte   W01
 .byte   VOL , 34*songC6_mvl/mxv
 .byte   W03
 .byte   VOL , 34*songC6_mvl/mxv
 .byte   W03
 .byte   VOL , 35*songC6_mvl/mxv
 .byte   W02
 .byte   VOL , 35*songC6_mvl/mxv
 .byte   W01
 .byte   VOL , 35*songC6_mvl/mxv
 .byte   W02
 .byte   VOL , 36*songC6_mvl/mxv
 .byte   W01
 .byte   VOL , 36*songC6_mvl/mxv
 .byte   W02
 .byte   VOL , 37*songC6_mvl/mxv
 .byte   W01
 .byte   VOL , 37*songC6_mvl/mxv
 .byte   W02
 .byte   VOL , 37*songC6_mvl/mxv
 .byte   W12
 .byte   VOL , 37*songC6_mvl/mxv
 .byte   W04
 .byte   VOL , 37*songC6_mvl/mxv
 .byte   W03
 .byte   VOL , 36*songC6_mvl/mxv
 .byte   W02
 .byte   VOL , 36*songC6_mvl/mxv
 .byte   W01
 .byte   VOL , 35*songC6_mvl/mxv
 .byte   W03
 .byte   VOL , 35*songC6_mvl/mxv
 .byte   W02
 .byte   VOL , 34*songC6_mvl/mxv
 .byte   W01
 .byte   VOL , 34*songC6_mvl/mxv
 .byte   W02
 .byte   VOL , 33*songC6_mvl/mxv
 .byte   W01
 .byte   VOL , 33*songC6_mvl/mxv
 .byte   W02
@ 049   ----------------------------------------
 .byte   VOL , 32*songC6_mvl/mxv
 .byte   W01
 .byte   VOL , 31*songC6_mvl/mxv
 .byte   W02
 .byte   VOL , 30*songC6_mvl/mxv
 .byte   W01
 .byte   VOL , 30*songC6_mvl/mxv
 .byte   W02
 .byte   VOL , 29*songC6_mvl/mxv
 .byte   W01
 .byte   VOL , 29*songC6_mvl/mxv
 .byte   W02
 .byte   VOL , 28*songC6_mvl/mxv
 .byte   W01
 .byte   VOL , 38*songC6_mvl/mxv
 .byte   W02
 .byte   N11
 .byte   W12
 .byte   Ds4
 .byte   W12
 .byte   Fs4
 .byte   W12
 .byte   N23 ,Fn4
 .byte   W24
 .byte   N11 ,Ds4
 .byte   W12
 .byte   VOL , 32*songC6_mvl/mxv
 .byte   N23 ,As3
 .byte   W01
 .byte   VOL , 33*songC6_mvl/mxv
 .byte   W02
 .byte   VOL , 34*songC6_mvl/mxv
 .byte   W01
 .byte   VOL , 35*songC6_mvl/mxv
 .byte   W02
 .byte   VOL , 35*songC6_mvl/mxv
 .byte   W01
 .byte   VOL , 36*songC6_mvl/mxv
 .byte   W02
 .byte   VOL , 36*songC6_mvl/mxv
 .byte   W01
 .byte   VOL , 37*songC6_mvl/mxv
 .byte   W02
@ 050   ----------------------------------------
 .byte   W01
 .byte   VOL , 38*songC6_mvl/mxv
 .byte   W03
 .byte   VOL , 38*songC6_mvl/mxv
 .byte   W02
 .byte   VOL , 38*songC6_mvl/mxv
 .byte   W06
 .byte   N11 ,Gs3
 .byte   W12
 .byte   As3
 .byte   W12
 .byte   N56 ,Ds3
 .byte   W19
 .byte   VOL , 38*songC6_mvl/mxv
 .byte   W05
 .byte   VOL , 38*songC6_mvl/mxv
 .byte   W03
 .byte   VOL , 37*songC6_mvl/mxv
 .byte   W01
 .byte   VOL , 37*songC6_mvl/mxv
 .byte   W02
 .byte   VOL , 37*songC6_mvl/mxv
 .byte   W01
 .byte   VOL , 36*songC6_mvl/mxv
 .byte   W02
 .byte   VOL , 36*songC6_mvl/mxv
 .byte   W03
 .byte   VOL , 35*songC6_mvl/mxv
 .byte   W01
 .byte   VOL , 35*songC6_mvl/mxv
 .byte   W02
 .byte   VOL , 35*songC6_mvl/mxv
 .byte   W01
 .byte   VOL , 34*songC6_mvl/mxv
 .byte   W02
 .byte   VOL , 34*songC6_mvl/mxv
 .byte   W01
 .byte   VOL , 33*songC6_mvl/mxv
 .byte   W02
 .byte   VOL , 33*songC6_mvl/mxv
 .byte   W01
 .byte   VOL , 33*songC6_mvl/mxv
 .byte   W02
 .byte   VOL , 32*songC6_mvl/mxv
 .byte   W01
 .byte   VOL , 31*songC6_mvl/mxv
 .byte   W02
 .byte   VOL , 31*songC6_mvl/mxv
 .byte   W01
 .byte   VOL , 30*songC6_mvl/mxv
 .byte   W03
 .byte   VOL , 30*songC6_mvl/mxv
 .byte   W02
 .byte   VOL , 29*songC6_mvl/mxv
 .byte   W01
 .byte   VOL , 28*songC6_mvl/mxv
 .byte   W02
@ 051   ----------------------------------------
 .byte   VOL , 28*songC6_mvl/mxv
 .byte   W01
 .byte   VOL , 28*songC6_mvl/mxv
 .byte   W02
 .byte   VOL , 27*songC6_mvl/mxv
 .byte   W01
 .byte   VOL , 27*songC6_mvl/mxv
 .byte   W02
 .byte   VOL , 26*songC6_mvl/mxv
 .byte   W01
 .byte   VOL , 26*songC6_mvl/mxv
 .byte   W02
 .byte   VOL , 25*songC6_mvl/mxv
 .byte   W01
 .byte   VOL , 38*songC6_mvl/mxv
 .byte   W02
 .byte   N11
 .byte   W12
 .byte   Fs3
 .byte   W12
 .byte   Gs3
 .byte   W12
 .byte   N32 ,As3
 .byte   W19
 .byte   VOL , 38*songC6_mvl/mxv
 .byte   W05
 .byte   VOL , 38*songC6_mvl/mxv
 .byte   W03
 .byte   VOL , 37*songC6_mvl/mxv
 .byte   W01
 .byte   VOL , 36*songC6_mvl/mxv
 .byte   W03
 .byte   VOL , 36*songC6_mvl/mxv
 .byte   W02
 .byte   VOL , 35*songC6_mvl/mxv
 .byte   W01
 .byte   VOL , 34*songC6_mvl/mxv
 .byte   W02
 .byte   VOL , 38*songC6_mvl/mxv
 .byte   N05 ,Gs3
 .byte   W12
@ 052   ----------------------------------------
 .byte   N28
 .byte   W10
 .byte   VOL , 38*songC6_mvl/mxv
 .byte   W02
 .byte   VOL , 38*songC6_mvl/mxv
 .byte   W01
 .byte   VOL , 37*songC6_mvl/mxv
 .byte   W02
 .byte   VOL , 37*songC6_mvl/mxv
 .byte   W01
 .byte   VOL , 36*songC6_mvl/mxv
 .byte   W03
 .byte   VOL , 36*songC6_mvl/mxv
 .byte   W02
 .byte   VOL , 35*songC6_mvl/mxv
 .byte   W01
 .byte   VOL , 34*songC6_mvl/mxv
 .byte   W02
 .byte   VOL , 34*songC6_mvl/mxv
 .byte   W01
 .byte   VOL , 33*songC6_mvl/mxv
 .byte   W02
 .byte   VOL , 32*songC6_mvl/mxv
 .byte   W01
 .byte   VOL , 30*songC6_mvl/mxv
 .byte   W02
 .byte   VOL , 29*songC6_mvl/mxv
 .byte   W01
 .byte   VOL , 27*songC6_mvl/mxv
 .byte   W02
 .byte   VOL , 22*songC6_mvl/mxv
 .byte   W01
 .byte   VOL , 16*songC6_mvl/mxv
 .byte   W02
 .byte   VOL , 38*songC6_mvl/mxv
 .byte   N05 ,Fs3
 .byte   W06
 .byte   Gs3
 .byte   W06
 .byte   N17 ,As3
 .byte   W18
 .byte   Bn3
 .byte   W18
 .byte   N11 ,As3
 .byte   W12
@ 053   ----------------------------------------
 .byte   N23 ,Gs3
 .byte   W24
 .byte   Fn3
 .byte   W24
 .byte   VOL , 32*songC6_mvl/mxv
 .byte   N32 ,Gs3
 .byte   W01
 .byte   VOL , 33*songC6_mvl/mxv
 .byte   W02
 .byte   VOL , 33*songC6_mvl/mxv
 .byte   W01
 .byte   VOL , 34*songC6_mvl/mxv
 .byte   W02
 .byte   VOL , 34*songC6_mvl/mxv
 .byte   W01
 .byte   VOL , 35*songC6_mvl/mxv
 .byte   W02
 .byte   VOL , 36*songC6_mvl/mxv
 .byte   W01
 .byte   VOL , 36*songC6_mvl/mxv
 .byte   W02
 .byte   VOL , 37*songC6_mvl/mxv
 .byte   W01
 .byte   VOL , 37*songC6_mvl/mxv
 .byte   W02
 .byte   VOL , 38*songC6_mvl/mxv
 .byte   W01
 .byte   VOL , 38*songC6_mvl/mxv
 .byte   W11
 .byte   VOL , 38*songC6_mvl/mxv
 .byte   W03
 .byte   VOL , 37*songC6_mvl/mxv
 .byte   W03
 .byte   VOL , 37*songC6_mvl/mxv
 .byte   W01
 .byte   VOL , 36*songC6_mvl/mxv
 .byte   W02
 .byte   VOL , 38*songC6_mvl/mxv
 .byte   N11 ,Fs3
 .byte   W12
@ 054   ----------------------------------------
 .byte   VOL , 29*songC6_mvl/mxv
 .byte   N92 ,As3
 .byte   W01
 .byte   VOL , 30*songC6_mvl/mxv
 .byte   W02
 .byte   VOL , 31*songC6_mvl/mxv
 .byte   W01
 .byte   VOL , 32*songC6_mvl/mxv
 .byte   W02
 .byte   VOL , 33*songC6_mvl/mxv
 .byte   W01
 .byte   VOL , 34*songC6_mvl/mxv
 .byte   W02
 .byte   VOL , 34*songC6_mvl/mxv
 .byte   W01
 .byte   VOL , 35*songC6_mvl/mxv
 .byte   W02
 .byte   VOL , 35*songC6_mvl/mxv
 .byte   W01
 .byte   VOL , 36*songC6_mvl/mxv
 .byte   W02
 .byte   VOL , 36*songC6_mvl/mxv
 .byte   W01
 .byte   VOL , 36*songC6_mvl/mxv
 .byte   W02
 .byte   VOL , 37*songC6_mvl/mxv
 .byte   W01
 .byte   VOL , 37*songC6_mvl/mxv
 .byte   W03
 .byte   VOL , 37*songC6_mvl/mxv
 .byte   W02
 .byte   VOL , 38*songC6_mvl/mxv
 .byte   W24
 .byte   W01
 .byte   VOL , 37*songC6_mvl/mxv
 .byte   W02
 .byte   VOL , 37*songC6_mvl/mxv
 .byte   W03
 .byte   VOL , 37*songC6_mvl/mxv
 .byte   W01
 .byte   VOL , 36*songC6_mvl/mxv
 .byte   W03
 .byte   VOL , 36*songC6_mvl/mxv
 .byte   W02
 .byte   VOL , 35*songC6_mvl/mxv
 .byte   W01
 .byte   VOL , 35*songC6_mvl/mxv
 .byte   W03
 .byte   VOL , 34*songC6_mvl/mxv
 .byte   W02
 .byte   VOL , 34*songC6_mvl/mxv
 .byte   W01
 .byte   VOL , 33*songC6_mvl/mxv
 .byte   W02
 .byte   VOL , 32*songC6_mvl/mxv
 .byte   W01
 .byte   VOL , 31*songC6_mvl/mxv
 .byte   W02
 .byte   VOL , 30*songC6_mvl/mxv
 .byte   W01
 .byte   VOL , 30*songC6_mvl/mxv
 .byte   W02
 .byte   VOL , 29*songC6_mvl/mxv
 .byte   W01
 .byte   VOL , 28*songC6_mvl/mxv
 .byte   W02
 .byte   VOL , 27*songC6_mvl/mxv
 .byte   W01
 .byte   VOL , 25*songC6_mvl/mxv
 .byte   W02
 .byte   VOL , 23*songC6_mvl/mxv
 .byte   W01
 .byte   VOL , 22*songC6_mvl/mxv
 .byte   W02
 .byte   VOL , 20*songC6_mvl/mxv
 .byte   W01
 .byte   VOL , 19*songC6_mvl/mxv
 .byte   W02
 .byte   VOL , 18*songC6_mvl/mxv
 .byte   W01
 .byte   VOL , 17*songC6_mvl/mxv
 .byte   W02
 .byte   VOL , 15*songC6_mvl/mxv
 .byte   W01
 .byte   VOL , 13*songC6_mvl/mxv
 .byte   W02
 .byte   VOL , 12*songC6_mvl/mxv
 .byte   W01
 .byte   VOL , 10*songC6_mvl/mxv
 .byte   W02
@ 055   ----------------------------------------
 .byte   VOL , 8*songC6_mvl/mxv
 .byte   W01
 .byte   VOL , 6*songC6_mvl/mxv
 .byte   W02
 .byte   VOL , 4*songC6_mvl/mxv
 .byte   W01
 .byte   VOL , 1*songC6_mvl/mxv
 .byte   W02
 .byte   VOL , 0*songC6_mvl/mxv
 .byte   W06
 .byte   VOL , 38*songC6_mvl/mxv
 .byte   N11
 .byte   W12
 .byte   Ds4
 .byte   W12
 .byte   Fs4
 .byte   W12
 .byte   N23 ,Fn4
 .byte   W24
 .byte   N11 ,Ds4
 .byte   W12
 .byte   N23 ,As3
 .byte   W12
@ 056   ----------------------------------------
 .byte   W12
 .byte   N11 ,Gs3
 .byte   W12
 .byte   N05 ,Fs3
 .byte   W12
 .byte   VOL , 31*songC6_mvl/mxv
 .byte   N64 ,As3
 .byte   W01
 .byte   VOL , 31*songC6_mvl/mxv
 .byte   W02
 .byte   VOL , 32*songC6_mvl/mxv
 .byte   W01
 .byte   VOL , 32*songC6_mvl/mxv
 .byte   W02
 .byte   VOL , 32*songC6_mvl/mxv
 .byte   W01
 .byte   VOL , 33*songC6_mvl/mxv
 .byte   W02
 .byte   VOL , 33*songC6_mvl/mxv
 .byte   W01
 .byte   VOL , 34*songC6_mvl/mxv
 .byte   W03
 .byte   VOL , 35*songC6_mvl/mxv
 .byte   W02
 .byte   VOL , 35*songC6_mvl/mxv
 .byte   W01
 .byte   VOL , 35*songC6_mvl/mxv
 .byte   W02
 .byte   VOL , 36*songC6_mvl/mxv
 .byte   W03
 .byte   VOL , 36*songC6_mvl/mxv
 .byte   W01
 .byte   VOL , 37*songC6_mvl/mxv
 .byte   W02
 .byte   VOL , 37*songC6_mvl/mxv
 .byte   W01
 .byte   VOL , 37*songC6_mvl/mxv
 .byte   W03
 .byte   VOL , 38*songC6_mvl/mxv
 .byte   W12
 .byte   VOL , 37*songC6_mvl/mxv
 .byte   W02
 .byte   VOL , 37*songC6_mvl/mxv
 .byte   W03
 .byte   VOL , 36*songC6_mvl/mxv
 .byte   W01
 .byte   VOL , 36*songC6_mvl/mxv
 .byte   W02
 .byte   VOL , 35*songC6_mvl/mxv
 .byte   W01
 .byte   VOL , 35*songC6_mvl/mxv
 .byte   W02
 .byte   VOL , 34*songC6_mvl/mxv
 .byte   W01
 .byte   VOL , 34*songC6_mvl/mxv
 .byte   W02
 .byte   VOL , 33*songC6_mvl/mxv
 .byte   W01
 .byte   VOL , 32*songC6_mvl/mxv
 .byte   W02
 .byte   VOL , 31*songC6_mvl/mxv
 .byte   W01
 .byte   VOL , 30*songC6_mvl/mxv
 .byte   W02
@ 057   ----------------------------------------
 .byte   VOL , 29*songC6_mvl/mxv
 .byte   W01
 .byte   VOL , 28*songC6_mvl/mxv
 .byte   W02
 .byte   VOL , 27*songC6_mvl/mxv
 .byte   W01
 .byte   VOL , 25*songC6_mvl/mxv
 .byte   W02
 .byte   VOL , 24*songC6_mvl/mxv
 .byte   W01
 .byte   VOL , 23*songC6_mvl/mxv
 .byte   W02
 .byte   VOL , 21*songC6_mvl/mxv
 .byte   W01
 .byte   VOL , 20*songC6_mvl/mxv
 .byte   W02
 .byte   VOL , 38*songC6_mvl/mxv
 .byte   N11
 .byte   W12
 .byte   Ds4
 .byte   W12
 .byte   N05 ,Fs4
 .byte   W12
 .byte   N23 ,Gs4
 .byte   W24
 .byte   N11 ,Fs4
 .byte   W12
 .byte   N23 ,Fn4
 .byte   W12
@ 058   ----------------------------------------
 .byte   W12
 .byte   N11 ,Fs4
 .byte   W12
 .byte   Gs4
 .byte   W12
 .byte   VOL , 29*songC6_mvl/mxv
 .byte   N64 ,As4
 .byte   W01
 .byte   VOL , 30*songC6_mvl/mxv
 .byte   W02
 .byte   VOL , 31*songC6_mvl/mxv
 .byte   W01
 .byte   VOL , 32*songC6_mvl/mxv
 .byte   W02
 .byte   VOL , 33*songC6_mvl/mxv
 .byte   W01
 .byte   VOL , 34*songC6_mvl/mxv
 .byte   W02
 .byte   VOL , 34*songC6_mvl/mxv
 .byte   W01
 .byte   VOL , 35*songC6_mvl/mxv
 .byte   W02
 .byte   VOL , 35*songC6_mvl/mxv
 .byte   W01
 .byte   VOL , 36*songC6_mvl/mxv
 .byte   W02
 .byte   VOL , 36*songC6_mvl/mxv
 .byte   W01
 .byte   VOL , 36*songC6_mvl/mxv
 .byte   W02
 .byte   VOL , 37*songC6_mvl/mxv
 .byte   W01
 .byte   VOL , 37*songC6_mvl/mxv
 .byte   W02
 .byte   VOL , 37*songC6_mvl/mxv
 .byte   W03
 .byte   VOL , 38*songC6_mvl/mxv
 .byte   W15
 .byte   VOL , 37*songC6_mvl/mxv
 .byte   W01
 .byte   VOL , 37*songC6_mvl/mxv
 .byte   W02
 .byte   VOL , 36*songC6_mvl/mxv
 .byte   W01
 .byte   VOL , 36*songC6_mvl/mxv
 .byte   W02
 .byte   VOL , 35*songC6_mvl/mxv
 .byte   W01
 .byte   VOL , 35*songC6_mvl/mxv
 .byte   W02
 .byte   VOL , 34*songC6_mvl/mxv
 .byte   W01
 .byte   VOL , 33*songC6_mvl/mxv
 .byte   W02
 .byte   VOL , 33*songC6_mvl/mxv
 .byte   W01
 .byte   VOL , 32*songC6_mvl/mxv
 .byte   W02
 .byte   VOL , 31*songC6_mvl/mxv
 .byte   W01
 .byte   VOL , 30*songC6_mvl/mxv
 .byte   W02
 .byte   VOL , 29*songC6_mvl/mxv
 .byte   W01
 .byte   VOL , 27*songC6_mvl/mxv
 .byte   W02
@ 059   ----------------------------------------
 .byte   VOL , 25*songC6_mvl/mxv
 .byte   W01
 .byte   VOL , 23*songC6_mvl/mxv
 .byte   W02
 .byte   VOL , 20*songC6_mvl/mxv
 .byte   W01
 .byte   VOL , 19*songC6_mvl/mxv
 .byte   W02
 .byte   VOL , 13*songC6_mvl/mxv
 .byte   W01
 .byte   VOL , 9*songC6_mvl/mxv
 .byte   W02
 .byte   VOL , 3*songC6_mvl/mxv
 .byte   W01
 .byte   VOL , 38*songC6_mvl/mxv
 .byte   W02
 .byte   N11 ,Ds4
 .byte   W12
 .byte   Fs4
 .byte   W12
 .byte   Gs4
 .byte   W12
 .byte   N32 ,As4
 .byte   W36
 .byte   N05 ,Gs4
 .byte   W12
@ 060   ----------------------------------------
 .byte   N28
 .byte   W07
 .byte   VOL , 38*songC6_mvl/mxv
 .byte   W03
 .byte   VOL , 37*songC6_mvl/mxv
 .byte   W02
 .byte   VOL , 36*songC6_mvl/mxv
 .byte   W01
 .byte   VOL , 36*songC6_mvl/mxv
 .byte   W02
 .byte   VOL , 36*songC6_mvl/mxv
 .byte   W01
 .byte   VOL , 35*songC6_mvl/mxv
 .byte   W02
 .byte   VOL , 35*songC6_mvl/mxv
 .byte   W01
 .byte   VOL , 34*songC6_mvl/mxv
 .byte   W02
 .byte   VOL , 33*songC6_mvl/mxv
 .byte   W01
 .byte   VOL , 33*songC6_mvl/mxv
 .byte   W02
 .byte   VOL , 32*songC6_mvl/mxv
 .byte   W01
 .byte   VOL , 31*songC6_mvl/mxv
 .byte   W02
 .byte   VOL , 30*songC6_mvl/mxv
 .byte   W01
 .byte   VOL , 29*songC6_mvl/mxv
 .byte   W02
 .byte   VOL , 28*songC6_mvl/mxv
 .byte   W01
 .byte   VOL , 24*songC6_mvl/mxv
 .byte   W02
 .byte   VOL , 22*songC6_mvl/mxv
 .byte   W01
 .byte   VOL , 23*songC6_mvl/mxv
 .byte   W02
 .byte   VOL , 38*songC6_mvl/mxv
 .byte   N05 ,Fs4
 .byte   W06
 .byte   Gs4
 .byte   W06
 .byte   N17 ,As4
 .byte   W18
 .byte   Bn4
 .byte   W18
 .byte   N11 ,As4
 .byte   W12
@ 061   ----------------------------------------
 .byte   N23 ,Gs4
 .byte   W24
 .byte   N17 ,Fn4
 .byte   W24
 .byte   N32
 .byte   W12
 .byte   VOL , 38*songC6_mvl/mxv
 .byte   W01
 .byte   VOL , 37*songC6_mvl/mxv
 .byte   W03
 .byte   VOL , 36*songC6_mvl/mxv
 .byte   W02
 .byte   VOL , 36*songC6_mvl/mxv
 .byte   W01
 .byte   VOL , 35*songC6_mvl/mxv
 .byte   W02
 .byte   VOL , 35*songC6_mvl/mxv
 .byte   W01
 .byte   VOL , 34*songC6_mvl/mxv
 .byte   W02
 .byte   VOL , 34*songC6_mvl/mxv
 .byte   W01
 .byte   VOL , 33*songC6_mvl/mxv
 .byte   W02
 .byte   VOL , 33*songC6_mvl/mxv
 .byte   W01
 .byte   VOL , 32*songC6_mvl/mxv
 .byte   W02
 .byte   VOL , 32*songC6_mvl/mxv
 .byte   W01
 .byte   VOL , 31*songC6_mvl/mxv
 .byte   W02
 .byte   VOL , 31*songC6_mvl/mxv
 .byte   W01
 .byte   VOL , 30*songC6_mvl/mxv
 .byte   W02
 .byte   VOL , 38*songC6_mvl/mxv
 .byte   N11 ,Fs4
 .byte   W12
@ 062   ----------------------------------------
 .byte   VOL , 29*songC6_mvl/mxv
 .byte   N92 ,Ds4
 .byte   W01
 .byte   VOL , 29*songC6_mvl/mxv
 .byte   W02
 .byte   VOL , 30*songC6_mvl/mxv
 .byte   W01
 .byte   VOL , 30*songC6_mvl/mxv
 .byte   W02
 .byte   VOL , 31*songC6_mvl/mxv
 .byte   W01
 .byte   VOL , 32*songC6_mvl/mxv
 .byte   W02
 .byte   VOL , 33*songC6_mvl/mxv
 .byte   W01
 .byte   VOL , 34*songC6_mvl/mxv
 .byte   W02
 .byte   VOL , 34*songC6_mvl/mxv
 .byte   W01
 .byte   VOL , 34*songC6_mvl/mxv
 .byte   W02
 .byte   VOL , 35*songC6_mvl/mxv
 .byte   W01
 .byte   VOL , 35*songC6_mvl/mxv
 .byte   W02
 .byte   VOL , 36*songC6_mvl/mxv
 .byte   W03
 .byte   VOL , 36*songC6_mvl/mxv
 .byte   W01
 .byte   VOL , 37*songC6_mvl/mxv
 .byte   W03
 .byte   VOL , 37*songC6_mvl/mxv
 .byte   W06
 .byte   VOL , 37*songC6_mvl/mxv
 .byte   W03
 .byte   VOL , 38*songC6_mvl/mxv
 .byte   W18
 .byte   VOL , 37*songC6_mvl/mxv
 .byte   W03
 .byte   VOL , 37*songC6_mvl/mxv
 .byte   W05
 .byte   VOL , 36*songC6_mvl/mxv
 .byte   W01
 .byte   VOL , 36*songC6_mvl/mxv
 .byte   W02
 .byte   VOL , 36*songC6_mvl/mxv
 .byte   W03
 .byte   VOL , 35*songC6_mvl/mxv
 .byte   W01
 .byte   VOL , 35*songC6_mvl/mxv
 .byte   W02
 .byte   VOL , 34*songC6_mvl/mxv
 .byte   W01
 .byte   VOL , 34*songC6_mvl/mxv
 .byte   W02
 .byte   VOL , 33*songC6_mvl/mxv
 .byte   W01
 .byte   VOL , 33*songC6_mvl/mxv
 .byte   W02
 .byte   VOL , 32*songC6_mvl/mxv
 .byte   W01
 .byte   VOL , 32*songC6_mvl/mxv
 .byte   W02
 .byte   VOL , 31*songC6_mvl/mxv
 .byte   W01
 .byte   VOL , 30*songC6_mvl/mxv
 .byte   W02
 .byte   VOL , 29*songC6_mvl/mxv
 .byte   W01
 .byte   VOL , 29*songC6_mvl/mxv
 .byte   W02
 .byte   VOL , 28*songC6_mvl/mxv
 .byte   W01
 .byte   VOL , 27*songC6_mvl/mxv
 .byte   W02
 .byte   VOL , 26*songC6_mvl/mxv
 .byte   W01
 .byte   VOL , 25*songC6_mvl/mxv
 .byte   W02
 .byte   VOL , 24*songC6_mvl/mxv
 .byte   W01
 .byte   VOL , 23*songC6_mvl/mxv
 .byte   W02
 .byte   VOL , 22*songC6_mvl/mxv
 .byte   W01
 .byte   VOL , 21*songC6_mvl/mxv
 .byte   W02
@ 063   ----------------------------------------
 .byte   VOL , 20*songC6_mvl/mxv
 .byte   W01
 .byte   VOL , 19*songC6_mvl/mxv
 .byte   W02
 .byte   VOL , 17*songC6_mvl/mxv
 .byte   W01
 .byte   VOL , 16*songC6_mvl/mxv
 .byte   W02
 .byte   VOL , 15*songC6_mvl/mxv
 .byte   W01
 .byte   VOL , 14*songC6_mvl/mxv
 .byte   W02
 .byte   VOL , 12*songC6_mvl/mxv
 .byte   W01
 .byte   VOL , 12*songC6_mvl/mxv
 .byte   W02
 .byte   VOL , 38*songC6_mvl/mxv
 .byte   N11 ,As3
 .byte   W12
 .byte   Ds4
 .byte   W12
 .byte   Fs4
 .byte   W12
 .byte   VOL , 32*songC6_mvl/mxv
 .byte   N23 ,Fn4
 .byte   W01
 .byte   VOL , 33*songC6_mvl/mxv
 .byte   W02
 .byte   VOL , 33*songC6_mvl/mxv
 .byte   W01
 .byte   VOL , 34*songC6_mvl/mxv
 .byte   W02
 .byte   VOL , 35*songC6_mvl/mxv
 .byte   W01
 .byte   VOL , 35*songC6_mvl/mxv
 .byte   W02
 .byte   VOL , 36*songC6_mvl/mxv
 .byte   W01
 .byte   VOL , 37*songC6_mvl/mxv
 .byte   W02
 .byte   VOL , 38*songC6_mvl/mxv
 .byte   W01
 .byte   VOL , 38*songC6_mvl/mxv
 .byte   W02
 .byte   VOL , 38*songC6_mvl/mxv
 .byte   W09
 .byte   N11 ,Ds4
 .byte   W12
 .byte   VOL , 31*songC6_mvl/mxv
 .byte   N23 ,As3
 .byte   W01
 .byte   VOL , 32*songC6_mvl/mxv
 .byte   W02
 .byte   VOL , 33*songC6_mvl/mxv
 .byte   W01
 .byte   VOL , 33*songC6_mvl/mxv
 .byte   W02
 .byte   VOL , 34*songC6_mvl/mxv
 .byte   W01
 .byte   VOL , 34*songC6_mvl/mxv
 .byte   W02
 .byte   VOL , 35*songC6_mvl/mxv
 .byte   W01
 .byte   VOL , 36*songC6_mvl/mxv
 .byte   W02
@ 064   ----------------------------------------
 .byte   VOL , 36*songC6_mvl/mxv
 .byte   W01
 .byte   VOL , 36*songC6_mvl/mxv
 .byte   W02
 .byte   VOL , 37*songC6_mvl/mxv
 .byte   W01
 .byte   VOL , 37*songC6_mvl/mxv
 .byte   W02
 .byte   VOL , 38*songC6_mvl/mxv
 .byte   W01
 .byte   VOL , 38*songC6_mvl/mxv
 .byte   W05
 .byte   N11 ,Gs3
 .byte   W12
 .byte   Fs3
 .byte   W12
 .byte   N56 ,As3
 .byte   W13
 .byte   VOL , 38*songC6_mvl/mxv
 .byte   W06
 .byte   VOL , 38*songC6_mvl/mxv
 .byte   W03
 .byte   VOL , 37*songC6_mvl/mxv
 .byte   W02
 .byte   VOL , 37*songC6_mvl/mxv
 .byte   W01
 .byte   VOL , 36*songC6_mvl/mxv
 .byte   W03
 .byte   VOL , 36*songC6_mvl/mxv
 .byte   W02
 .byte   VOL , 35*songC6_mvl/mxv
 .byte   W01
 .byte   VOL , 35*songC6_mvl/mxv
 .byte   W03
 .byte   VOL , 34*songC6_mvl/mxv
 .byte   W02
 .byte   VOL , 34*songC6_mvl/mxv
 .byte   W01
 .byte   VOL , 34*songC6_mvl/mxv
 .byte   W02
 .byte   VOL , 33*songC6_mvl/mxv
 .byte   W01
 .byte   VOL , 33*songC6_mvl/mxv
 .byte   W02
 .byte   VOL , 32*songC6_mvl/mxv
 .byte   W01
 .byte   VOL , 31*songC6_mvl/mxv
 .byte   W02
 .byte   VOL , 30*songC6_mvl/mxv
 .byte   W01
 .byte   VOL , 30*songC6_mvl/mxv
 .byte   W02
 .byte   VOL , 29*songC6_mvl/mxv
 .byte   W01
 .byte   VOL , 29*songC6_mvl/mxv
 .byte   W02
 .byte   VOL , 28*songC6_mvl/mxv
 .byte   W01
 .byte   VOL , 27*songC6_mvl/mxv
 .byte   W02
 .byte   VOL , 26*songC6_mvl/mxv
 .byte   W01
 .byte   VOL , 25*songC6_mvl/mxv
 .byte   W02
 .byte   VOL , 25*songC6_mvl/mxv
 .byte   W01
 .byte   VOL , 24*songC6_mvl/mxv
 .byte   W02
@ 065   ----------------------------------------
 .byte   VOL , 23*songC6_mvl/mxv
 .byte   W01
 .byte   VOL , 21*songC6_mvl/mxv
 .byte   W02
 .byte   VOL , 20*songC6_mvl/mxv
 .byte   W01
 .byte   VOL , 19*songC6_mvl/mxv
 .byte   W02
 .byte   VOL , 18*songC6_mvl/mxv
 .byte   W01
 .byte   VOL , 14*songC6_mvl/mxv
 .byte   W02
 .byte   VOL , 13*songC6_mvl/mxv
 .byte   W01
 .byte   VOL , 12*songC6_mvl/mxv
 .byte   W02
 .byte   VOL , 38*songC6_mvl/mxv
 .byte   N11
 .byte   W12
 .byte   Ds4
 .byte   W12
 .byte   Fs4
 .byte   W12
 .byte   N23 ,Fn4
 .byte   W24
 .byte   N11 ,Ds4
 .byte   W12
 .byte   N23 ,As3
 .byte   W12
@ 066   ----------------------------------------
 .byte   W12
 .byte   N11 ,Gs3
 .byte   W12
 .byte   As3
 .byte   W12
 .byte   VOL , 34*songC6_mvl/mxv
 .byte   N56 ,Ds3
 .byte   W01
 .byte   VOL , 35*songC6_mvl/mxv
 .byte   W02
 .byte   VOL , 35*songC6_mvl/mxv
 .byte   W03
 .byte   VOL , 36*songC6_mvl/mxv
 .byte   W03
 .byte   VOL , 36*songC6_mvl/mxv
 .byte   W01
 .byte   VOL , 37*songC6_mvl/mxv
 .byte   W02
 .byte   VOL , 37*songC6_mvl/mxv
 .byte   W03
 .byte   VOL , 37*songC6_mvl/mxv
 .byte   W01
 .byte   VOL , 38*songC6_mvl/mxv
 .byte   W14
 .byte   VOL , 37*songC6_mvl/mxv
 .byte   W01
 .byte   VOL , 37*songC6_mvl/mxv
 .byte   W03
 .byte   VOL , 36*songC6_mvl/mxv
 .byte   W02
 .byte   VOL , 36*songC6_mvl/mxv
 .byte   W03
 .byte   VOL , 35*songC6_mvl/mxv
 .byte   W01
 .byte   VOL , 35*songC6_mvl/mxv
 .byte   W02
 .byte   VOL , 34*songC6_mvl/mxv
 .byte   W01
 .byte   VOL , 34*songC6_mvl/mxv
 .byte   W02
 .byte   VOL , 33*songC6_mvl/mxv
 .byte   W01
 .byte   VOL , 33*songC6_mvl/mxv
 .byte   W02
 .byte   VOL , 32*songC6_mvl/mxv
 .byte   W01
 .byte   VOL , 31*songC6_mvl/mxv
 .byte   W02
 .byte   VOL , 31*songC6_mvl/mxv
 .byte   W01
 .byte   VOL , 30*songC6_mvl/mxv
 .byte   W02
 .byte   VOL , 29*songC6_mvl/mxv
 .byte   W01
 .byte   VOL , 28*songC6_mvl/mxv
 .byte   W02
 .byte   VOL , 27*songC6_mvl/mxv
 .byte   W01
 .byte   VOL , 26*songC6_mvl/mxv
 .byte   W02
@ 067   ----------------------------------------
 .byte   VOL , 24*songC6_mvl/mxv
 .byte   W01
 .byte   VOL , 23*songC6_mvl/mxv
 .byte   W02
 .byte   VOL , 22*songC6_mvl/mxv
 .byte   W01
 .byte   VOL , 20*songC6_mvl/mxv
 .byte   W02
 .byte   VOL , 19*songC6_mvl/mxv
 .byte   W01
 .byte   VOL , 18*songC6_mvl/mxv
 .byte   W02
 .byte   VOL , 17*songC6_mvl/mxv
 .byte   W01
 .byte   VOL , 15*songC6_mvl/mxv
 .byte   W02
 .byte   VOL , 38*songC6_mvl/mxv
 .byte   N11
 .byte   W12
 .byte   Fs3
 .byte   W12
 .byte   Gs3
 .byte   W12
 .byte   N32 ,As3
 .byte   W36
 .byte   N05 ,Gs3
 .byte   W12
@ 068   ----------------------------------------
 .byte   N28
 .byte   W10
 .byte   VOL , 38*songC6_mvl/mxv
 .byte   W05
 .byte   VOL , 37*songC6_mvl/mxv
 .byte   W01
 .byte   VOL , 37*songC6_mvl/mxv
 .byte   W02
 .byte   VOL , 36*songC6_mvl/mxv
 .byte   W01
 .byte   VOL , 36*songC6_mvl/mxv
 .byte   W02
 .byte   VOL , 35*songC6_mvl/mxv
 .byte   W01
 .byte   VOL , 34*songC6_mvl/mxv
 .byte   W02
 .byte   VOL , 34*songC6_mvl/mxv
 .byte   W01
 .byte   VOL , 33*songC6_mvl/mxv
 .byte   W02
 .byte   VOL , 32*songC6_mvl/mxv
 .byte   W01
 .byte   VOL , 31*songC6_mvl/mxv
 .byte   W02
 .byte   VOL , 30*songC6_mvl/mxv
 .byte   W01
 .byte   VOL , 29*songC6_mvl/mxv
 .byte   W02
 .byte   VOL , 27*songC6_mvl/mxv
 .byte   W01
 .byte   VOL , 24*songC6_mvl/mxv
 .byte   W02
 .byte   VOL , 38*songC6_mvl/mxv
 .byte   N05 ,Fs3
 .byte   W06
 .byte   Gs3
 .byte   W06
 .byte   N17 ,As3
 .byte   W18
 .byte   Bn3
 .byte   W18
 .byte   N11 ,As3
 .byte   W12
@ 069   ----------------------------------------
 .byte   N23 ,Gs3
 .byte   W24
 .byte   Fn3
 .byte   W24
 .byte   N32 ,Gs3
 .byte   W15
 .byte   VOL , 38*songC6_mvl/mxv
 .byte   W01
 .byte   VOL , 37*songC6_mvl/mxv
 .byte   W02
 .byte   VOL , 37*songC6_mvl/mxv
 .byte   W01
 .byte   VOL , 37*songC6_mvl/mxv
 .byte   W02
 .byte   VOL , 36*songC6_mvl/mxv
 .byte   W01
 .byte   VOL , 36*songC6_mvl/mxv
 .byte   W02
 .byte   VOL , 36*songC6_mvl/mxv
 .byte   W01
 .byte   VOL , 35*songC6_mvl/mxv
 .byte   W02
 .byte   VOL , 34*songC6_mvl/mxv
 .byte   W01
 .byte   VOL , 34*songC6_mvl/mxv
 .byte   W02
 .byte   VOL , 33*songC6_mvl/mxv
 .byte   W01
 .byte   VOL , 32*songC6_mvl/mxv
 .byte   W02
 .byte   VOL , 31*songC6_mvl/mxv
 .byte   W01
 .byte   VOL , 38*songC6_mvl/mxv
 .byte   W02
 .byte   N11 ,Fs3
 .byte   W12
@ 070   ----------------------------------------
 .byte   VOL , 30*songC6_mvl/mxv
 .byte   N80 ,As3
 .byte   W01
 .byte   VOL , 31*songC6_mvl/mxv
 .byte   W02
 .byte   VOL , 31*songC6_mvl/mxv
 .byte   W03
 .byte   VOL , 32*songC6_mvl/mxv
 .byte   W01
 .byte   VOL , 32*songC6_mvl/mxv
 .byte   W03
 .byte   VOL , 33*songC6_mvl/mxv
 .byte   W02
 .byte   VOL , 33*songC6_mvl/mxv
 .byte   W01
 .byte   VOL , 34*songC6_mvl/mxv
 .byte   W03
 .byte   VOL , 34*songC6_mvl/mxv
 .byte   W02
 .byte   VOL , 34*songC6_mvl/mxv
 .byte   W01
 .byte   VOL , 35*songC6_mvl/mxv
 .byte   W02
 .byte   VOL , 35*songC6_mvl/mxv
 .byte   W01
 .byte   VOL , 36*songC6_mvl/mxv
 .byte   W02
 .byte   VOL , 36*songC6_mvl/mxv
 .byte   W01
 .byte   VOL , 36*songC6_mvl/mxv
 .byte   W03
 .byte   VOL , 37*songC6_mvl/mxv
 .byte   W02
 .byte   VOL , 37*songC6_mvl/mxv
 .byte   W01
 .byte   VOL , 38*songC6_mvl/mxv
 .byte   W03
 .byte   VOL , 38*songC6_mvl/mxv
 .byte   W03
 .byte   VOL , 39*songC6_mvl/mxv
 .byte   W24
 .byte   VOL , 38*songC6_mvl/mxv
 .byte   W02
 .byte   VOL , 38*songC6_mvl/mxv
 .byte   W03
 .byte   VOL , 38*songC6_mvl/mxv
 .byte   W01
 .byte   VOL , 37*songC6_mvl/mxv
 .byte   W02
 .byte   VOL , 37*songC6_mvl/mxv
 .byte   W01
 .byte   VOL , 36*songC6_mvl/mxv
 .byte   W02
 .byte   VOL , 35*songC6_mvl/mxv
 .byte   W01
 .byte   VOL , 33*songC6_mvl/mxv
 .byte   W02
 .byte   VOL , 32*songC6_mvl/mxv
 .byte   W01
 .byte   VOL , 31*songC6_mvl/mxv
 .byte   W02
 .byte   VOL , 30*songC6_mvl/mxv
 .byte   W01
 .byte   VOL , 29*songC6_mvl/mxv
 .byte   W02
 .byte   VOL , 28*songC6_mvl/mxv
 .byte   W01
 .byte   VOL , 28*songC6_mvl/mxv
 .byte   W02
 .byte   VOL , 26*songC6_mvl/mxv
 .byte   W01
 .byte   VOL , 25*songC6_mvl/mxv
 .byte   W02
 .byte   VOL , 24*songC6_mvl/mxv
 .byte   W01
 .byte   VOL , 22*songC6_mvl/mxv
 .byte   W02
 .byte   VOL , 20*songC6_mvl/mxv
 .byte   W01
 .byte   VOL , 19*songC6_mvl/mxv
 .byte   W02
 .byte   VOL , 17*songC6_mvl/mxv
 .byte   W01
 .byte   VOL , 16*songC6_mvl/mxv
 .byte   W02
@ 071   ----------------------------------------
 .byte   VOL , 14*songC6_mvl/mxv
 .byte   W01
 .byte   VOL , 12*songC6_mvl/mxv
 .byte   W02
 .byte   VOL , 9*songC6_mvl/mxv
 .byte   W01
 .byte   VOL , 6*songC6_mvl/mxv
 .byte   W02
 .byte   VOL , 2*songC6_mvl/mxv
 .byte   W01
 .byte   VOL , 0*songC6_mvl/mxv
 .byte   W05
 .byte   VOL , 38*songC6_mvl/mxv
 .byte   N11
 .byte   W12
 .byte   Ds4
 .byte   W12
 .byte   Fs4
 .byte   W12
 .byte   N23 ,Fn4
 .byte   W24
 .byte   N05 ,Ds4
 .byte   W12
 .byte   N23 ,As3
 .byte   W12
@ 072   ----------------------------------------
 .byte   W12
 .byte   N11 ,Gs3
 .byte   W12
 .byte   N05 ,Fs3
 .byte   W12
 .byte   VOL , 31*songC6_mvl/mxv
 .byte   N56 ,As3
 .byte   W03
 .byte   VOL , 32*songC6_mvl/mxv
 .byte   W03
 .byte   VOL , 32*songC6_mvl/mxv
 .byte   W01
 .byte   VOL , 33*songC6_mvl/mxv
 .byte   W02
 .byte   VOL , 33*songC6_mvl/mxv
 .byte   W01
 .byte   VOL , 34*songC6_mvl/mxv
 .byte   W02
 .byte   VOL , 34*songC6_mvl/mxv
 .byte   W01
 .byte   VOL , 35*songC6_mvl/mxv
 .byte   W02
 .byte   VOL , 35*songC6_mvl/mxv
 .byte   W01
 .byte   VOL , 35*songC6_mvl/mxv
 .byte   W02
 .byte   VOL , 36*songC6_mvl/mxv
 .byte   W01
 .byte   VOL , 36*songC6_mvl/mxv
 .byte   W02
 .byte   VOL , 37*songC6_mvl/mxv
 .byte   W01
 .byte   VOL , 37*songC6_mvl/mxv
 .byte   W02
 .byte   VOL , 38*songC6_mvl/mxv
 .byte   W01
 .byte   VOL , 38*songC6_mvl/mxv
 .byte   W03
 .byte   VOL , 39*songC6_mvl/mxv
 .byte   W14
 .byte   VOL , 38*songC6_mvl/mxv
 .byte   W01
 .byte   VOL , 38*songC6_mvl/mxv
 .byte   W02
 .byte   VOL , 38*songC6_mvl/mxv
 .byte   W01
 .byte   VOL , 37*songC6_mvl/mxv
 .byte   W02
 .byte   VOL , 36*songC6_mvl/mxv
 .byte   W01
 .byte   VOL , 36*songC6_mvl/mxv
 .byte   W02
 .byte   VOL , 35*songC6_mvl/mxv
 .byte   W01
 .byte   VOL , 35*songC6_mvl/mxv
 .byte   W02
 .byte   VOL , 33*songC6_mvl/mxv
 .byte   W01
 .byte   VOL , 32*songC6_mvl/mxv
 .byte   W02
 .byte   VOL , 31*songC6_mvl/mxv
 .byte   W01
 .byte   VOL , 30*songC6_mvl/mxv
 .byte   W02
@ 073   ----------------------------------------
 .byte   VOL , 28*songC6_mvl/mxv
 .byte   W01
 .byte   VOL , 26*songC6_mvl/mxv
 .byte   W02
 .byte   VOL , 25*songC6_mvl/mxv
 .byte   W01
 .byte   VOL , 23*songC6_mvl/mxv
 .byte   W02
 .byte   VOL , 21*songC6_mvl/mxv
 .byte   W01
 .byte   VOL , 19*songC6_mvl/mxv
 .byte   W02
 .byte   VOL , 17*songC6_mvl/mxv
 .byte   W01
 .byte   VOL , 14*songC6_mvl/mxv
 .byte   W02
 .byte   VOL , 38*songC6_mvl/mxv
 .byte   N11
 .byte   W12
 .byte   Ds4
 .byte   W12
 .byte   N05 ,Fs4
 .byte   W12
 .byte   N23 ,Gs4
 .byte   W06
 .byte   VOL , 38*songC6_mvl/mxv
 .byte   W03
 .byte   VOL , 38*songC6_mvl/mxv
 .byte   W01
 .byte   VOL , 37*songC6_mvl/mxv
 .byte   W02
 .byte   VOL , 37*songC6_mvl/mxv
 .byte   W01
 .byte   VOL , 36*songC6_mvl/mxv
 .byte   W02
 .byte   VOL , 36*songC6_mvl/mxv
 .byte   W01
 .byte   VOL , 35*songC6_mvl/mxv
 .byte   W02
 .byte   VOL , 34*songC6_mvl/mxv
 .byte   W01
 .byte   VOL , 33*songC6_mvl/mxv
 .byte   W02
 .byte   VOL , 33*songC6_mvl/mxv
 .byte   W01
 .byte   VOL , 32*songC6_mvl/mxv
 .byte   W02
 .byte   VOL , 38*songC6_mvl/mxv
 .byte   N05 ,Fs4
 .byte   W12
 .byte   VOL , 38*songC6_mvl/mxv
 .byte   N23 ,Fn4
 .byte   W04
 .byte   VOL , 38*songC6_mvl/mxv
 .byte   W02
 .byte   VOL , 37*songC6_mvl/mxv
 .byte   W01
 .byte   VOL , 36*songC6_mvl/mxv
 .byte   W02
 .byte   VOL , 35*songC6_mvl/mxv
 .byte   W01
 .byte   VOL , 35*songC6_mvl/mxv
 .byte   W02
@ 074   ----------------------------------------
 .byte   VOL , 34*songC6_mvl/mxv
 .byte   W01
 .byte   VOL , 33*songC6_mvl/mxv
 .byte   W02
 .byte   VOL , 33*songC6_mvl/mxv
 .byte   W01
 .byte   VOL , 32*songC6_mvl/mxv
 .byte   W02
 .byte   VOL , 31*songC6_mvl/mxv
 .byte   W01
 .byte   VOL , 31*songC6_mvl/mxv
 .byte   W02
 .byte   VOL , 29*songC6_mvl/mxv
 .byte   W01
 .byte   VOL , 29*songC6_mvl/mxv
 .byte   W02
 .byte   VOL , 38*songC6_mvl/mxv
 .byte   N11 ,Fs4
 .byte   W12
 .byte   Gs4
 .byte   W12
 .byte   VOL , 29*songC6_mvl/mxv
 .byte   N64 ,As4
 .byte   W03
 .byte   VOL , 29*songC6_mvl/mxv
 .byte   W01
 .byte   VOL , 30*songC6_mvl/mxv
 .byte   W02
 .byte   VOL , 30*songC6_mvl/mxv
 .byte   W01
 .byte   VOL , 31*songC6_mvl/mxv
 .byte   W02
 .byte   VOL , 32*songC6_mvl/mxv
 .byte   W01
 .byte   VOL , 33*songC6_mvl/mxv
 .byte   W02
 .byte   VOL , 33*songC6_mvl/mxv
 .byte   W01
 .byte   VOL , 34*songC6_mvl/mxv
 .byte   W02
 .byte   VOL , 35*songC6_mvl/mxv
 .byte   W01
 .byte   VOL , 36*songC6_mvl/mxv
 .byte   W02
 .byte   VOL , 37*songC6_mvl/mxv
 .byte   W01
 .byte   VOL , 38*songC6_mvl/mxv
 .byte   W02
 .byte   VOL , 38*songC6_mvl/mxv
 .byte   W01
 .byte   VOL , 38*songC6_mvl/mxv
 .byte   W17
 .byte   VOL , 38*songC6_mvl/mxv
 .byte   W01
 .byte   VOL , 37*songC6_mvl/mxv
 .byte   W02
 .byte   VOL , 37*songC6_mvl/mxv
 .byte   W01
 .byte   VOL , 36*songC6_mvl/mxv
 .byte   W02
 .byte   VOL , 36*songC6_mvl/mxv
 .byte   W01
 .byte   VOL , 35*songC6_mvl/mxv
 .byte   W02
 .byte   VOL , 34*songC6_mvl/mxv
 .byte   W01
 .byte   VOL , 33*songC6_mvl/mxv
 .byte   W02
 .byte   VOL , 32*songC6_mvl/mxv
 .byte   W01
 .byte   VOL , 31*songC6_mvl/mxv
 .byte   W02
 .byte   VOL , 30*songC6_mvl/mxv
 .byte   W01
 .byte   VOL , 28*songC6_mvl/mxv
 .byte   W02
 .byte   VOL , 27*songC6_mvl/mxv
 .byte   W01
 .byte   VOL , 24*songC6_mvl/mxv
 .byte   W02
@ 075   ----------------------------------------
 .byte   VOL , 22*songC6_mvl/mxv
 .byte   W01
 .byte   VOL , 20*songC6_mvl/mxv
 .byte   W02
 .byte   VOL , 17*songC6_mvl/mxv
 .byte   W01
 .byte   VOL , 14*songC6_mvl/mxv
 .byte   W02
 .byte   VOL , 12*songC6_mvl/mxv
 .byte   W01
 .byte   VOL , 7*songC6_mvl/mxv
 .byte   W02
 .byte   VOL , 1*songC6_mvl/mxv
 .byte   W01
 .byte   VOL , 38*songC6_mvl/mxv
 .byte   W02
 .byte   N11 ,Ds4
 .byte   W12
 .byte   Fs4
 .byte   W12
 .byte   Gs4
 .byte   W12
 .byte   VOL , 30*songC6_mvl/mxv
 .byte   N32 ,As4
 .byte   W04
 .byte   VOL , 30*songC6_mvl/mxv
 .byte   W02
 .byte   VOL , 31*songC6_mvl/mxv
 .byte   W01
 .byte   VOL , 31*songC6_mvl/mxv
 .byte   W02
 .byte   VOL , 31*songC6_mvl/mxv
 .byte   W01
 .byte   VOL , 32*songC6_mvl/mxv
 .byte   W03
 .byte   VOL , 32*songC6_mvl/mxv
 .byte   W02
 .byte   VOL , 33*songC6_mvl/mxv
 .byte   W03
 .byte   VOL , 33*songC6_mvl/mxv
 .byte   W01
 .byte   VOL , 33*songC6_mvl/mxv
 .byte   W02
 .byte   VOL , 34*songC6_mvl/mxv
 .byte   W03
 .byte   VOL , 35*songC6_mvl/mxv
 .byte   W01
 .byte   VOL , 35*songC6_mvl/mxv
 .byte   W02
 .byte   VOL , 35*songC6_mvl/mxv
 .byte   W01
 .byte   VOL , 36*songC6_mvl/mxv
 .byte   W02
 .byte   VOL , 36*songC6_mvl/mxv
 .byte   W01
 .byte   VOL , 37*songC6_mvl/mxv
 .byte   W03
 .byte   VOL , 38*songC6_mvl/mxv
 .byte   W02
 .byte   VOL , 38*songC6_mvl/mxv
 .byte   N05 ,Gs4
 .byte   W01
 .byte   VOL , 38*songC6_mvl/mxv
 .byte   W11
@ 076   ----------------------------------------
 .byte   VOL , 38*songC6_mvl/mxv
 .byte   N28
 .byte   W07
 .byte   VOL , 38*songC6_mvl/mxv
 .byte   W02
 .byte   VOL , 37*songC6_mvl/mxv
 .byte   W01
 .byte   VOL , 36*songC6_mvl/mxv
 .byte   W02
 .byte   VOL , 36*songC6_mvl/mxv
 .byte   W01
 .byte   VOL , 35*songC6_mvl/mxv
 .byte   W02
 .byte   VOL , 34*songC6_mvl/mxv
 .byte   W01
 .byte   VOL , 34*songC6_mvl/mxv
 .byte   W02
 .byte   VOL , 33*songC6_mvl/mxv
 .byte   W01
 .byte   VOL , 31*songC6_mvl/mxv
 .byte   W02
 .byte   VOL , 30*songC6_mvl/mxv
 .byte   W01
 .byte   VOL , 29*songC6_mvl/mxv
 .byte   W02
 .byte   VOL , 28*songC6_mvl/mxv
 .byte   W01
 .byte   VOL , 27*songC6_mvl/mxv
 .byte   W02
 .byte   VOL , 26*songC6_mvl/mxv
 .byte   W01
 .byte   VOL , 24*songC6_mvl/mxv
 .byte   W02
 .byte   VOL , 22*songC6_mvl/mxv
 .byte   W01
 .byte   VOL , 19*songC6_mvl/mxv
 .byte   W02
 .byte   VOL , 17*songC6_mvl/mxv
 .byte   W01
 .byte   VOL , 14*songC6_mvl/mxv
 .byte   W02
 .byte   VOL , 38*songC6_mvl/mxv
 .byte   N05 ,Fs4
 .byte   W06
 .byte   Gs4
 .byte   W06
 .byte   N17 ,As4
 .byte   W18
 .byte   Bn4
 .byte   W18
 .byte   N11 ,As4
 .byte   W12
@ 077   ----------------------------------------
 .byte   N23 ,Gs4
 .byte   W24
 .byte   N17 ,Fn4
 .byte   W24
 .byte   N32
 .byte   W36
 .byte   N11 ,Fs4
 .byte   W12
@ 078   ----------------------------------------
 .byte   VOL , 29*songC6_mvl/mxv
 .byte   TIE ,Ds4
 .byte   W03
 .byte   VOL , 30*songC6_mvl/mxv
 .byte   W01
 .byte   VOL , 30*songC6_mvl/mxv
 .byte   W03
 .byte   VOL , 31*songC6_mvl/mxv
 .byte   W02
 .byte   VOL , 31*songC6_mvl/mxv
 .byte   W01
 .byte   VOL , 31*songC6_mvl/mxv
 .byte   W02
 .byte   VOL , 32*songC6_mvl/mxv
 .byte   W01
 .byte   VOL , 32*songC6_mvl/mxv
 .byte   W03
 .byte   VOL , 33*songC6_mvl/mxv
 .byte   W02
 .byte   VOL , 33*songC6_mvl/mxv
 .byte   W03
 .byte   VOL , 34*songC6_mvl/mxv
 .byte   W01
 .byte   VOL , 34*songC6_mvl/mxv
 .byte   W03
 .byte   VOL , 35*songC6_mvl/mxv
 .byte   W03
 .byte   VOL , 35*songC6_mvl/mxv
 .byte   W02
 .byte   VOL , 36*songC6_mvl/mxv
 .byte   W01
 .byte   VOL , 36*songC6_mvl/mxv
 .byte   W02
 .byte   VOL , 36*songC6_mvl/mxv
 .byte   W01
 .byte   VOL , 37*songC6_mvl/mxv
 .byte   W02
 .byte   VOL , 37*songC6_mvl/mxv
 .byte   W04
 .byte   VOL , 37*songC6_mvl/mxv
 .byte   W23
 .byte   VOL , 37*songC6_mvl/mxv
 .byte   W04
 .byte   VOL , 37*songC6_mvl/mxv
 .byte   W03
 .byte   VOL , 36*songC6_mvl/mxv
 .byte   W02
 .byte   VOL , 36*songC6_mvl/mxv
 .byte   W01
 .byte   VOL , 36*songC6_mvl/mxv
 .byte   W02
 .byte   VOL , 35*songC6_mvl/mxv
 .byte   W01
 .byte   VOL , 35*songC6_mvl/mxv
 .byte   W02
 .byte   VOL , 35*songC6_mvl/mxv
 .byte   W01
 .byte   VOL , 34*songC6_mvl/mxv
 .byte   W02
 .byte   VOL , 33*songC6_mvl/mxv
 .byte   W01
 .byte   VOL , 33*songC6_mvl/mxv
 .byte   W02
 .byte   VOL , 32*songC6_mvl/mxv
 .byte   W01
 .byte   VOL , 31*songC6_mvl/mxv
 .byte   W02
 .byte   VOL , 31*songC6_mvl/mxv
 .byte   W01
 .byte   VOL , 30*songC6_mvl/mxv
 .byte   W02
 .byte   VOL , 29*songC6_mvl/mxv
 .byte   W01
 .byte   VOL , 28*songC6_mvl/mxv
 .byte   W02
 .byte   VOL , 27*songC6_mvl/mxv
 .byte   W01
 .byte   VOL , 27*songC6_mvl/mxv
 .byte   W02
@ 079   ----------------------------------------
Label_6_014AFF3F:
 .byte   VOL , 25*songC6_mvl/mxv
 .byte   W01
 .byte   VOL , 25*songC6_mvl/mxv
 .byte   W02
 .byte   VOL , 24*songC6_mvl/mxv
 .byte   W01
 .byte   VOL , 23*songC6_mvl/mxv
 .byte   W02
 .byte   VOL , 22*songC6_mvl/mxv
 .byte   W01
 .byte   VOL , 20*songC6_mvl/mxv
 .byte   W02
 .byte   VOL , 19*songC6_mvl/mxv
 .byte   W01
 .byte   VOL , 17*songC6_mvl/mxv
 .byte   W02
 .byte   VOL , 16*songC6_mvl/mxv
 .byte   W01
 .byte   VOL , 15*songC6_mvl/mxv
 .byte   W02
 .byte   VOL , 13*songC6_mvl/mxv
 .byte   W01
 .byte   VOL , 12*songC6_mvl/mxv
 .byte   W02
 .byte   VOL , 11*songC6_mvl/mxv
 .byte   W01
 .byte   VOL , 9*songC6_mvl/mxv
 .byte   W02
 .byte   VOL , 8*songC6_mvl/mxv
 .byte   W01
 .byte   VOL , 6*songC6_mvl/mxv
 .byte   W02
 .byte   VOL , 5*songC6_mvl/mxv
 .byte   W01
 .byte   VOL , 4*songC6_mvl/mxv
 .byte   W02
 .byte   VOL , 2*songC6_mvl/mxv
 .byte   W01
 .byte   VOL , 0*songC6_mvl/mxv
 .byte   W01
 .byte   PEND 
 .byte   EOT
 .byte   Ds4
 .byte   W01
 .byte   VOL , 0*songC6_mvl/mxv
 .byte   W66
@ 080   ----------------------------------------
 .byte   W96
@ 081   ----------------------------------------
 .byte   W96
@ 082   ----------------------------------------
 .byte   W96
@ 083   ----------------------------------------
 .byte   W96
@ 084   ----------------------------------------
 .byte   W96
@ 085   ----------------------------------------
 .byte   W96
@ 086   ----------------------------------------
 .byte   W96
@ 087   ----------------------------------------
 .byte   W96
@ 088   ----------------------------------------
 .byte   W96
@ 089   ----------------------------------------
 .byte   W96
@ 090   ----------------------------------------
 .byte   W96
@ 091   ----------------------------------------
 .byte   W96
@ 092   ----------------------------------------
 .byte   W96
@ 093   ----------------------------------------
 .byte   W96
@ 094   ----------------------------------------
 .byte   W96
@ 095   ----------------------------------------
 .byte   W96
@ 096   ----------------------------------------
 .byte   W96
@ 097   ----------------------------------------
 .byte   W48
 .byte   VOL , 38*songC6_mvl/mxv
 .byte   W24
 .byte   N23 ,Ds5 ,v100
 .byte   W24
@ 098   ----------------------------------------
 .byte   N32 ,Bn4 ,v092
 .byte   W10
 .byte   VOL , 38*songC6_mvl/mxv
 .byte   W02
 .byte   VOL , 37*songC6_mvl/mxv
 .byte   W01
 .byte   VOL , 37*songC6_mvl/mxv
 .byte   W02
 .byte   VOL , 36*songC6_mvl/mxv
 .byte   W01
 .byte   VOL , 35*songC6_mvl/mxv
 .byte   W02
 .byte   VOL , 35*songC6_mvl/mxv
 .byte   W01
 .byte   VOL , 34*songC6_mvl/mxv
 .byte   W02
 .byte   VOL , 33*songC6_mvl/mxv
 .byte   W01
 .byte   VOL , 33*songC6_mvl/mxv
 .byte   W02
 .byte   VOL , 32*songC6_mvl/mxv
 .byte   W01
 .byte   VOL , 30*songC6_mvl/mxv
 .byte   W02
 .byte   VOL , 29*songC6_mvl/mxv
 .byte   W01
 .byte   VOL , 28*songC6_mvl/mxv
 .byte   W02
 .byte   VOL , 26*songC6_mvl/mxv
 .byte   W01
 .byte   VOL , 25*songC6_mvl/mxv
 .byte   W02
 .byte   VOL , 20*songC6_mvl/mxv
 .byte   W01
 .byte   VOL , 17*songC6_mvl/mxv
 .byte   W02
 .byte   VOL , 38*songC6_mvl/mxv
 .byte   N04 ,Gs4 ,v100
 .byte   W06
 .byte   An4 ,v084
 .byte   W06
 .byte   N17 ,Bn4 ,v100
 .byte   W18
 .byte   An4 ,v092
 .byte   W18
 .byte   N11 ,Gs4 ,v112
 .byte   W12
@ 099   ----------------------------------------
 .byte   N17 ,Fs4 ,v084
 .byte   W18
 .byte   En4 ,v108
 .byte   W18
 .byte   N11 ,Ds4 ,v084
 .byte   W12
 .byte   N17 ,Cs4 ,v092
 .byte   W18
 .byte   VOL , 26*songC6_mvl/mxv
 .byte   N40 ,Gs4 ,v100
 .byte   W01
 .byte   VOL , 28*songC6_mvl/mxv
 .byte   W02
 .byte   VOL , 31*songC6_mvl/mxv
 .byte   W01
 .byte   VOL , 33*songC6_mvl/mxv
 .byte   W02
 .byte   VOL , 34*songC6_mvl/mxv
 .byte   W01
 .byte   VOL , 35*songC6_mvl/mxv
 .byte   W02
 .byte   VOL , 36*songC6_mvl/mxv
 .byte   W01
 .byte   VOL , 36*songC6_mvl/mxv
 .byte   W02
 .byte   VOL , 37*songC6_mvl/mxv
 .byte   W01
 .byte   VOL , 38*songC6_mvl/mxv
 .byte   W02
 .byte   VOL , 38*songC6_mvl/mxv
 .byte   W01
 .byte   VOL , 38*songC6_mvl/mxv
 .byte   W09
 .byte   VOL , 38*songC6_mvl/mxv
 .byte   W02
 .byte   VOL , 38*songC6_mvl/mxv
 .byte   W01
 .byte   VOL , 37*songC6_mvl/mxv
 .byte   W02
@ 100   ----------------------------------------
 .byte   VOL , 36*songC6_mvl/mxv
 .byte   W01
 .byte   VOL , 35*songC6_mvl/mxv
 .byte   W02
 .byte   VOL , 34*songC6_mvl/mxv
 .byte   W01
 .byte   VOL , 33*songC6_mvl/mxv
 .byte   W02
 .byte   VOL , 29*songC6_mvl/mxv
 .byte   W01
 .byte   VOL , 26*songC6_mvl/mxv
 .byte   W02
 .byte   VOL , 19*songC6_mvl/mxv
 .byte   W01
 .byte   VOL , 15*songC6_mvl/mxv
 .byte   W02
 .byte   VOL , 38*songC6_mvl/mxv
 .byte   N11 ,Bn4
 .byte   W12
 .byte   N04 ,An4 ,v084
 .byte   W12
 .byte   N23 ,Gs4 ,v100
 .byte   W24
 .byte   N11 ,Fs4
 .byte   W12
 .byte   En4 ,v080
 .byte   W12
 .byte   Ds4 ,v100
 .byte   W12
@ 101   ----------------------------------------
 .byte   Cs4 ,v084
 .byte   W12
 .byte   Ds4 ,v100
 .byte   W12
 .byte   En4 ,v080
 .byte   W12
 .byte   Cs4 ,v100
 .byte   W12
 .byte   VOL , 26*songC6_mvl/mxv
 .byte   N32 ,Fs4
 .byte   W01
 .byte   VOL , 28*songC6_mvl/mxv
 .byte   W02
 .byte   VOL , 29*songC6_mvl/mxv
 .byte   W01
 .byte   VOL , 30*songC6_mvl/mxv
 .byte   W02
 .byte   VOL , 33*songC6_mvl/mxv
 .byte   W01
 .byte   VOL , 34*songC6_mvl/mxv
 .byte   W02
 .byte   VOL , 35*songC6_mvl/mxv
 .byte   W01
 .byte   VOL , 36*songC6_mvl/mxv
 .byte   W02
 .byte   VOL , 36*songC6_mvl/mxv
 .byte   W01
 .byte   VOL , 37*songC6_mvl/mxv
 .byte   W02
 .byte   VOL , 37*songC6_mvl/mxv
 .byte   W01
 .byte   VOL , 37*songC6_mvl/mxv
 .byte   W02
 .byte   VOL , 38*songC6_mvl/mxv
 .byte   W01
 .byte   VOL , 38*songC6_mvl/mxv
 .byte   W17
 .byte   N11 ,En4
 .byte   W12
@ 102   ----------------------------------------
 .byte   N32 ,Ds4 ,v088
 .byte   W10
 .byte   VOL , 38*songC6_mvl/mxv
 .byte   W02
 .byte   VOL , 37*songC6_mvl/mxv
 .byte   W01
 .byte   VOL , 37*songC6_mvl/mxv
 .byte   W02
 .byte   VOL , 36*songC6_mvl/mxv
 .byte   W01
 .byte   VOL , 36*songC6_mvl/mxv
 .byte   W02
 .byte   VOL , 35*songC6_mvl/mxv
 .byte   W01
 .byte   VOL , 34*songC6_mvl/mxv
 .byte   W02
 .byte   VOL , 32*songC6_mvl/mxv
 .byte   W01
 .byte   VOL , 32*songC6_mvl/mxv
 .byte   W02
 .byte   VOL , 31*songC6_mvl/mxv
 .byte   W01
 .byte   VOL , 30*songC6_mvl/mxv
 .byte   W02
 .byte   VOL , 29*songC6_mvl/mxv
 .byte   W01
 .byte   VOL , 27*songC6_mvl/mxv
 .byte   W02
 .byte   VOL , 26*songC6_mvl/mxv
 .byte   W01
 .byte   VOL , 23*songC6_mvl/mxv
 .byte   W02
 .byte   VOL , 18*songC6_mvl/mxv
 .byte   W01
 .byte   VOL , 14*songC6_mvl/mxv
 .byte   W02
 .byte   VOL , 38*songC6_mvl/mxv
 .byte   N04 ,Cs4 ,v096
 .byte   W06
 .byte   Ds4
 .byte   W06
 .byte   N17 ,En4 ,v092
 .byte   W18
 .byte   Ds4 ,v076
 .byte   W18
 .byte   N11 ,Cs4 ,v100
 .byte   W12
@ 103   ----------------------------------------
 .byte   N17 ,Ds4 ,v080
 .byte   W18
 .byte   Bn3 ,v100
 .byte   W18
 .byte   N11 ,An3 ,v080
 .byte   W12
 .byte   N17 ,Gs3 ,v100
 .byte   W18
 .byte   N64 ,Gs4
 .byte   W01
 .byte   VOL , 38*songC6_mvl/mxv
 .byte   W02
 .byte   VOL , 37*songC6_mvl/mxv
 .byte   W01
 .byte   VOL , 36*songC6_mvl/mxv
 .byte   W02
 .byte   VOL , 33*songC6_mvl/mxv
 .byte   W01
 .byte   VOL , 31*songC6_mvl/mxv
 .byte   W02
 .byte   VOL , 28*songC6_mvl/mxv
 .byte   W03
 .byte   VOL , 28*songC6_mvl/mxv
 .byte   W01
 .byte   VOL , 29*songC6_mvl/mxv
 .byte   W02
 .byte   VOL , 29*songC6_mvl/mxv
 .byte   W01
 .byte   VOL , 30*songC6_mvl/mxv
 .byte   W02
 .byte   VOL , 30*songC6_mvl/mxv
 .byte   W01
 .byte   VOL , 31*songC6_mvl/mxv
 .byte   W02
 .byte   VOL , 31*songC6_mvl/mxv
 .byte   W01
 .byte   VOL , 32*songC6_mvl/mxv
 .byte   W02
 .byte   VOL , 33*songC6_mvl/mxv
 .byte   W01
 .byte   VOL , 33*songC6_mvl/mxv
 .byte   W02
 .byte   VOL , 34*songC6_mvl/mxv
 .byte   W01
 .byte   VOL , 35*songC6_mvl/mxv
 .byte   W02
@ 104   ----------------------------------------
 .byte   W03
 .byte   VOL , 36*songC6_mvl/mxv
 .byte   W03
 .byte   VOL , 36*songC6_mvl/mxv
 .byte   W03
 .byte   VOL , 37*songC6_mvl/mxv
 .byte   W01
 .byte   VOL , 37*songC6_mvl/mxv
 .byte   W02
 .byte   VOL , 37*songC6_mvl/mxv
 .byte   W01
 .byte   VOL , 38*songC6_mvl/mxv
 .byte   W03
 .byte   VOL , 37*songC6_mvl/mxv
 .byte   W02
 .byte   VOL , 38*songC6_mvl/mxv
 .byte   W03
 .byte   VOL , 38*songC6_mvl/mxv
 .byte   W15
 .byte   N11 ,An4
 .byte   W12
 .byte   N05 ,Bn4
 .byte   W06
 .byte   An4
 .byte   W06
 .byte   Gs4
 .byte   W06
 .byte   Fs4
 .byte   W06
 .byte   Gs4
 .byte   W06
 .byte   Fs4
 .byte   W06
 .byte   En4
 .byte   W06
 .byte   Ds4
 .byte   W06
@ 105   ----------------------------------------
 .byte   En4
 .byte   W06
 .byte   Ds4
 .byte   W06
 .byte   Cs4
 .byte   W06
 .byte   Bn3
 .byte   W06
 .byte   Cs4
 .byte   W06
 .byte   Bn3
 .byte   W06
 .byte   An3
 .byte   W06
 .byte   Gs3
 .byte   W06
 .byte   N66 ,Cs4
 .byte   W18
 .byte   VOL , 38*songC6_mvl/mxv
 .byte   W03
 .byte   VOL , 38*songC6_mvl/mxv
 .byte   W04
 .byte   VOL , 37*songC6_mvl/mxv
 .byte   W02
 .byte   VOL , 37*songC6_mvl/mxv
 .byte   W03
 .byte   VOL , 37*songC6_mvl/mxv
 .byte   W01
 .byte   VOL , 36*songC6_mvl/mxv
 .byte   W05
 .byte   VOL , 36*songC6_mvl/mxv
 .byte   W04
 .byte   VOL , 35*songC6_mvl/mxv
 .byte   W02
 .byte   VOL , 34*songC6_mvl/mxv
 .byte   W01
 .byte   VOL , 34*songC6_mvl/mxv
 .byte   W02
 .byte   VOL , 34*songC6_mvl/mxv
 .byte   W01
 .byte   VOL , 33*songC6_mvl/mxv
 .byte   W02
@ 106   ----------------------------------------
 .byte   VOL , 33*songC6_mvl/mxv
 .byte   W01
 .byte   VOL , 32*songC6_mvl/mxv
 .byte   W02
 .byte   VOL , 31*songC6_mvl/mxv
 .byte   W01
 .byte   VOL , 31*songC6_mvl/mxv
 .byte   W02
 .byte   VOL , 30*songC6_mvl/mxv
 .byte   W01
 .byte   VOL , 30*songC6_mvl/mxv
 .byte   W02
 .byte   VOL , 29*songC6_mvl/mxv
 .byte   W01
 .byte   VOL , 29*songC6_mvl/mxv
 .byte   W02
 .byte   VOL , 28*songC6_mvl/mxv
 .byte   W01
 .byte   VOL , 27*songC6_mvl/mxv
 .byte   W02
 .byte   VOL , 26*songC6_mvl/mxv
 .byte   W01
 .byte   VOL , 26*songC6_mvl/mxv
 .byte   W02
 .byte   VOL , 24*songC6_mvl/mxv
 .byte   W01
 .byte   VOL , 24*songC6_mvl/mxv
 .byte   W02
 .byte   VOL , 22*songC6_mvl/mxv
 .byte   W01
 .byte   VOL , 22*songC6_mvl/mxv
 .byte   W02
 .byte   VOL , 38*songC6_mvl/mxv
 .byte   N23 ,Gs3
 .byte   W06
 .byte   VOL , 38*songC6_mvl/mxv
 .byte   W01
 .byte   VOL , 38*songC6_mvl/mxv
 .byte   W02
 .byte   VOL , 37*songC6_mvl/mxv
 .byte   W01
 .byte   VOL , 36*songC6_mvl/mxv
 .byte   W02
 .byte   VOL , 36*songC6_mvl/mxv
 .byte   W01
 .byte   VOL , 35*songC6_mvl/mxv
 .byte   W02
 .byte   VOL , 34*songC6_mvl/mxv
 .byte   W01
 .byte   VOL , 33*songC6_mvl/mxv
 .byte   W02
 .byte   VOL , 33*songC6_mvl/mxv
 .byte   W01
 .byte   VOL , 32*songC6_mvl/mxv
 .byte   W02
 .byte   VOL , 31*songC6_mvl/mxv
 .byte   W01
 .byte   VOL , 30*songC6_mvl/mxv
 .byte   W02
 .byte   VOL , 38*songC6_mvl/mxv
 .byte   N23 ,Cs4
 .byte   W24
 .byte   Ds4 ,v084
 .byte   W24
@ 107   ----------------------------------------
 .byte   En4 ,v100
 .byte   W24
 .byte   Fs4 ,v076
 .byte   W24
 .byte   Gs4 ,v100
 .byte   W24
 .byte   VOL , 29*songC6_mvl/mxv
 .byte   N44 ,Cs5
 .byte   W01
 .byte   VOL , 29*songC6_mvl/mxv
 .byte   W02
 .byte   VOL , 29*songC6_mvl/mxv
 .byte   W01
 .byte   VOL , 30*songC6_mvl/mxv
 .byte   W02
 .byte   VOL , 30*songC6_mvl/mxv
 .byte   W01
 .byte   VOL , 31*songC6_mvl/mxv
 .byte   W02
 .byte   VOL , 31*songC6_mvl/mxv
 .byte   W01
 .byte   VOL , 31*songC6_mvl/mxv
 .byte   W02
 .byte   VOL , 32*songC6_mvl/mxv
 .byte   W01
 .byte   VOL , 32*songC6_mvl/mxv
 .byte   W02
 .byte   VOL , 33*songC6_mvl/mxv
 .byte   W01
 .byte   VOL , 33*songC6_mvl/mxv
 .byte   W02
 .byte   VOL , 34*songC6_mvl/mxv
 .byte   W01
 .byte   VOL , 34*songC6_mvl/mxv
 .byte   W02
 .byte   VOL , 35*songC6_mvl/mxv
 .byte   W01
 .byte   VOL , 35*songC6_mvl/mxv
 .byte   W02
@ 108   ----------------------------------------
 .byte   VOL , 36*songC6_mvl/mxv
 .byte   W03
 .byte   VOL , 36*songC6_mvl/mxv
 .byte   W01
 .byte   VOL , 36*songC6_mvl/mxv
 .byte   W03
 .byte   VOL , 37*songC6_mvl/mxv
 .byte   W02
 .byte   VOL , 37*songC6_mvl/mxv
 .byte   W01
 .byte   VOL , 37*songC6_mvl/mxv
 .byte   W02
 .byte   VOL , 38*songC6_mvl/mxv
 .byte   W01
 .byte   VOL , 38*songC6_mvl/mxv
 .byte   W02
 .byte   VOL , 38*songC6_mvl/mxv
 .byte   W09
 .byte   VOL , 34*songC6_mvl/mxv
 .byte   N23 ,Ds5
 .byte   W24
 .byte   VOL , 28*songC6_mvl/mxv
 .byte   N88 ,En5
 .byte   W01
 .byte   VOL , 28*songC6_mvl/mxv
 .byte   W02
 .byte   VOL , 29*songC6_mvl/mxv
 .byte   W01
 .byte   VOL , 29*songC6_mvl/mxv
 .byte   W03
 .byte   VOL , 30*songC6_mvl/mxv
 .byte   W02
 .byte   VOL , 31*songC6_mvl/mxv
 .byte   W03
 .byte   VOL , 31*songC6_mvl/mxv
 .byte   W03
 .byte   VOL , 32*songC6_mvl/mxv
 .byte   W01
 .byte   VOL , 33*songC6_mvl/mxv
 .byte   W02
 .byte   VOL , 33*songC6_mvl/mxv
 .byte   W01
 .byte   VOL , 33*songC6_mvl/mxv
 .byte   W02
 .byte   VOL , 34*songC6_mvl/mxv
 .byte   W03
 .byte   VOL , 34*songC6_mvl/mxv
 .byte   W01
 .byte   VOL , 35*songC6_mvl/mxv
 .byte   W02
 .byte   VOL , 35*songC6_mvl/mxv
 .byte   W01
 .byte   VOL , 36*songC6_mvl/mxv
 .byte   W02
 .byte   VOL , 36*songC6_mvl/mxv
 .byte   W03
 .byte   VOL , 37*songC6_mvl/mxv
 .byte   W01
 .byte   VOL , 37*songC6_mvl/mxv
 .byte   W03
 .byte   VOL , 38*songC6_mvl/mxv
 .byte   W03
 .byte   VOL , 38*songC6_mvl/mxv
 .byte   W08
@ 109   ----------------------------------------
 .byte   W13
 .byte   VOL , 38*songC6_mvl/mxv
 .byte   W05
 .byte   VOL , 37*songC6_mvl/mxv
 .byte   W01
 .byte   VOL , 36*songC6_mvl/mxv
 .byte   W03
 .byte   VOL , 36*songC6_mvl/mxv
 .byte   W02
 .byte   VOL , 35*songC6_mvl/mxv
 .byte   W01
 .byte   VOL , 34*songC6_mvl/mxv
 .byte   W02
 .byte   VOL , 34*songC6_mvl/mxv
 .byte   W01
 .byte   VOL , 33*songC6_mvl/mxv
 .byte   W02
 .byte   VOL , 33*songC6_mvl/mxv
 .byte   W01
 .byte   VOL , 32*songC6_mvl/mxv
 .byte   W02
 .byte   VOL , 31*songC6_mvl/mxv
 .byte   W01
 .byte   VOL , 30*songC6_mvl/mxv
 .byte   W02
 .byte   VOL , 29*songC6_mvl/mxv
 .byte   W01
 .byte   VOL , 28*songC6_mvl/mxv
 .byte   W02
 .byte   VOL , 26*songC6_mvl/mxv
 .byte   W01
 .byte   VOL , 25*songC6_mvl/mxv
 .byte   W02
 .byte   VOL , 23*songC6_mvl/mxv
 .byte   W01
 .byte   VOL , 21*songC6_mvl/mxv
 .byte   W02
 .byte   VOL , 18*songC6_mvl/mxv
 .byte   W01
 .byte   VOL , 16*songC6_mvl/mxv
 .byte   W02
 .byte   VOL , 38*songC6_mvl/mxv
 .byte   N32 ,Ds5
 .byte   W36
 .byte   N11 ,Cs5
 .byte   W12
@ 110   ----------------------------------------
 .byte   N32 ,Bn4
 .byte   W04
 .byte   VOL , 38*songC6_mvl/mxv
 .byte   W02
 .byte   VOL , 38*songC6_mvl/mxv
 .byte   W01
 .byte   VOL , 37*songC6_mvl/mxv
 .byte   W03
 .byte   VOL , 36*songC6_mvl/mxv
 .byte   W02
 .byte   VOL , 36*songC6_mvl/mxv
 .byte   W01
 .byte   VOL , 35*songC6_mvl/mxv
 .byte   W02
 .byte   VOL , 35*songC6_mvl/mxv
 .byte   W01
 .byte   VOL , 34*songC6_mvl/mxv
 .byte   W02
 .byte   VOL , 33*songC6_mvl/mxv
 .byte   W01
 .byte   VOL , 33*songC6_mvl/mxv
 .byte   W02
 .byte   VOL , 32*songC6_mvl/mxv
 .byte   W01
 .byte   VOL , 31*songC6_mvl/mxv
 .byte   W02
 .byte   VOL , 30*songC6_mvl/mxv
 .byte   W01
 .byte   VOL , 28*songC6_mvl/mxv
 .byte   W02
 .byte   VOL , 26*songC6_mvl/mxv
 .byte   W01
 .byte   VOL , 22*songC6_mvl/mxv
 .byte   W02
 .byte   VOL , 18*songC6_mvl/mxv
 .byte   W01
 .byte   VOL , 12*songC6_mvl/mxv
 .byte   W02
 .byte   VOL , 7*songC6_mvl/mxv
 .byte   W01
 .byte   VOL , 38*songC6_mvl/mxv
 .byte   W02
 .byte   N04 ,Gs4
 .byte   W06
 .byte   An4
 .byte   W06
 .byte   N17 ,Bn4
 .byte   W18
 .byte   An4 ,v080
 .byte   W18
 .byte   N11 ,Gs4 ,v100
 .byte   W12
@ 111   ----------------------------------------
 .byte   N17 ,Fs4 ,v080
 .byte   W18
 .byte   Ds4 ,v100
 .byte   W18
 .byte   N11 ,Bn3 ,v080
 .byte   W12
 .byte   VOL , 29*songC6_mvl/mxv
 .byte   N92 ,Fs4 ,v092
 .byte   W01
 .byte   VOL , 29*songC6_mvl/mxv
 .byte   W02
 .byte   VOL , 30*songC6_mvl/mxv
 .byte   W01
 .byte   VOL , 30*songC6_mvl/mxv
 .byte   W02
 .byte   VOL , 31*songC6_mvl/mxv
 .byte   W01
 .byte   VOL , 31*songC6_mvl/mxv
 .byte   W02
 .byte   VOL , 31*songC6_mvl/mxv
 .byte   W01
 .byte   VOL , 32*songC6_mvl/mxv
 .byte   W02
 .byte   VOL , 32*songC6_mvl/mxv
 .byte   W01
 .byte   VOL , 33*songC6_mvl/mxv
 .byte   W02
 .byte   VOL , 33*songC6_mvl/mxv
 .byte   W01
 .byte   VOL , 33*songC6_mvl/mxv
 .byte   W02
 .byte   VOL , 34*songC6_mvl/mxv
 .byte   W01
 .byte   VOL , 34*songC6_mvl/mxv
 .byte   W02
 .byte   VOL , 35*songC6_mvl/mxv
 .byte   W01
 .byte   VOL , 36*songC6_mvl/mxv
 .byte   W02
 .byte   VOL , 36*songC6_mvl/mxv
 .byte   W03
 .byte   VOL , 37*songC6_mvl/mxv
 .byte   W01
 .byte   VOL , 37*songC6_mvl/mxv
 .byte   W02
 .byte   VOL , 37*songC6_mvl/mxv
 .byte   W01
 .byte   VOL , 38*songC6_mvl/mxv
 .byte   W02
 .byte   VOL , 38*songC6_mvl/mxv
 .byte   W01
 .byte   VOL , 38*songC6_mvl/mxv
 .byte   W14
@ 112   ----------------------------------------
 .byte   W15
 .byte   VOL , 38*songC6_mvl/mxv
 .byte   W04
 .byte   VOL , 37*songC6_mvl/mxv
 .byte   W02
 .byte   VOL , 37*songC6_mvl/mxv
 .byte   W01
 .byte   VOL , 37*songC6_mvl/mxv
 .byte   W02
 .byte   VOL , 36*songC6_mvl/mxv
 .byte   W01
 .byte   VOL , 36*songC6_mvl/mxv
 .byte   W02
 .byte   VOL , 35*songC6_mvl/mxv
 .byte   W01
 .byte   VOL , 35*songC6_mvl/mxv
 .byte   W02
 .byte   VOL , 34*songC6_mvl/mxv
 .byte   W01
 .byte   VOL , 33*songC6_mvl/mxv
 .byte   W02
 .byte   VOL , 33*songC6_mvl/mxv
 .byte   W01
 .byte   VOL , 32*songC6_mvl/mxv
 .byte   W02
 .byte   VOL , 31*songC6_mvl/mxv
 .byte   W01
 .byte   VOL , 31*songC6_mvl/mxv
 .byte   W02
 .byte   VOL , 30*songC6_mvl/mxv
 .byte   W01
 .byte   VOL , 29*songC6_mvl/mxv
 .byte   W02
 .byte   VOL , 28*songC6_mvl/mxv
 .byte   W01
 .byte   VOL , 26*songC6_mvl/mxv
 .byte   W02
 .byte   VOL , 26*songC6_mvl/mxv
 .byte   W01
 .byte   VOL , 25*songC6_mvl/mxv
 .byte   W02
 .byte   N68 ,En4
 .byte   W01
 .byte   VOL , 25*songC6_mvl/mxv
 .byte   W02
 .byte   VOL , 26*songC6_mvl/mxv
 .byte   W01
 .byte   VOL , 27*songC6_mvl/mxv
 .byte   W02
 .byte   VOL , 28*songC6_mvl/mxv
 .byte   W01
 .byte   VOL , 28*songC6_mvl/mxv
 .byte   W02
 .byte   VOL , 29*songC6_mvl/mxv
 .byte   W01
 .byte   VOL , 30*songC6_mvl/mxv
 .byte   W02
 .byte   VOL , 30*songC6_mvl/mxv
 .byte   W01
 .byte   VOL , 31*songC6_mvl/mxv
 .byte   W02
 .byte   VOL , 31*songC6_mvl/mxv
 .byte   W01
 .byte   VOL , 32*songC6_mvl/mxv
 .byte   W02
 .byte   VOL , 32*songC6_mvl/mxv
 .byte   W01
 .byte   VOL , 33*songC6_mvl/mxv
 .byte   W02
 .byte   VOL , 33*songC6_mvl/mxv
 .byte   W01
 .byte   VOL , 34*songC6_mvl/mxv
 .byte   W02
 .byte   VOL , 34*songC6_mvl/mxv
 .byte   W01
 .byte   VOL , 34*songC6_mvl/mxv
 .byte   W02
 .byte   VOL , 35*songC6_mvl/mxv
 .byte   W15
 .byte   VOL , 34*songC6_mvl/mxv
 .byte   W03
 .byte   VOL , 34*songC6_mvl/mxv
 .byte   W03
@ 113   ----------------------------------------
 .byte   VOL , 33*songC6_mvl/mxv
 .byte   W01
 .byte   VOL , 33*songC6_mvl/mxv
 .byte   W02
 .byte   VOL , 32*songC6_mvl/mxv
 .byte   W01
 .byte   VOL , 32*songC6_mvl/mxv
 .byte   W02
 .byte   VOL , 31*songC6_mvl/mxv
 .byte   W01
 .byte   VOL , 31*songC6_mvl/mxv
 .byte   W02
 .byte   VOL , 30*songC6_mvl/mxv
 .byte   W01
 .byte   VOL , 30*songC6_mvl/mxv
 .byte   W02
 .byte   VOL , 29*songC6_mvl/mxv
 .byte   W01
 .byte   VOL , 28*songC6_mvl/mxv
 .byte   W02
 .byte   VOL , 27*songC6_mvl/mxv
 .byte   W01
 .byte   VOL , 27*songC6_mvl/mxv
 .byte   W02
 .byte   VOL , 26*songC6_mvl/mxv
 .byte   W01
 .byte   VOL , 25*songC6_mvl/mxv
 .byte   W02
 .byte   VOL , 24*songC6_mvl/mxv
 .byte   W01
 .byte   VOL , 23*songC6_mvl/mxv
 .byte   W02
 .byte   VOL , 22*songC6_mvl/mxv
 .byte   W01
 .byte   VOL , 21*songC6_mvl/mxv
 .byte   W02
 .byte   VOL , 20*songC6_mvl/mxv
 .byte   W01
 .byte   VOL , 18*songC6_mvl/mxv
 .byte   W02
 .byte   VOL , 17*songC6_mvl/mxv
 .byte   W01
 .byte   VOL , 16*songC6_mvl/mxv
 .byte   W02
 .byte   VOL , 15*songC6_mvl/mxv
 .byte   W01
 .byte   VOL , 13*songC6_mvl/mxv
 .byte   W02
 .byte   VOL , 12*songC6_mvl/mxv
 .byte   W01
 .byte   VOL , 11*songC6_mvl/mxv
 .byte   W02
 .byte   VOL , 9*songC6_mvl/mxv
 .byte   W01
 .byte   VOL , 8*songC6_mvl/mxv
 .byte   W02
 .byte   VOL , 7*songC6_mvl/mxv
 .byte   W01
 .byte   VOL , 6*songC6_mvl/mxv
 .byte   W02
 .byte   VOL , 5*songC6_mvl/mxv
 .byte   W01
 .byte   VOL , 3*songC6_mvl/mxv
 .byte   W02
 .byte   VOL , 38*songC6_mvl/mxv
 .byte   W48
@ 114   ----------------------------------------
 .byte   W96
@ 115   ----------------------------------------
 .byte   W96
@ 116   ----------------------------------------
 .byte   W96
@ 117   ----------------------------------------
 .byte   W96
@ 118   ----------------------------------------
 .byte   W96
@ 119   ----------------------------------------
 .byte   W96
@ 120   ----------------------------------------
 .byte   W96
@ 121   ----------------------------------------
 .byte   W96
@ 122   ----------------------------------------
 .byte   W12
 .byte   N11 ,Cn4 ,v100
 .byte   W12
 .byte   Fn4
 .byte   W12
 .byte   Gs4
 .byte   W12
 .byte   N23 ,Gn4
 .byte   W24
 .byte   N11 ,Fn4
 .byte   W12
 .byte   N23 ,Cn4
 .byte   W12
@ 123   ----------------------------------------
 .byte   W12
 .byte   N11 ,As3
 .byte   W12
 .byte   Gs3
 .byte   W12
 .byte   VOL , 30*songC6_mvl/mxv
 .byte   N56 ,Cn4
 .byte   W01
 .byte   VOL , 30*songC6_mvl/mxv
 .byte   W02
 .byte   VOL , 31*songC6_mvl/mxv
 .byte   W01
 .byte   VOL , 31*songC6_mvl/mxv
 .byte   W02
 .byte   VOL , 32*songC6_mvl/mxv
 .byte   W01
 .byte   VOL , 32*songC6_mvl/mxv
 .byte   W02
 .byte   VOL , 33*songC6_mvl/mxv
 .byte   W01
 .byte   VOL , 34*songC6_mvl/mxv
 .byte   W03
 .byte   VOL , 34*songC6_mvl/mxv
 .byte   W03
 .byte   VOL , 35*songC6_mvl/mxv
 .byte   W02
 .byte   VOL , 35*songC6_mvl/mxv
 .byte   W01
 .byte   VOL , 35*songC6_mvl/mxv
 .byte   W02
 .byte   VOL , 36*songC6_mvl/mxv
 .byte   W01
 .byte   VOL , 36*songC6_mvl/mxv
 .byte   W02
 .byte   VOL , 37*songC6_mvl/mxv
 .byte   W01
 .byte   VOL , 37*songC6_mvl/mxv
 .byte   W02
 .byte   VOL , 37*songC6_mvl/mxv
 .byte   W12
 .byte   VOL , 37*songC6_mvl/mxv
 .byte   W04
 .byte   VOL , 37*songC6_mvl/mxv
 .byte   W03
 .byte   VOL , 36*songC6_mvl/mxv
 .byte   W02
 .byte   VOL , 36*songC6_mvl/mxv
 .byte   W01
 .byte   VOL , 35*songC6_mvl/mxv
 .byte   W03
 .byte   VOL , 35*songC6_mvl/mxv
 .byte   W02
 .byte   VOL , 34*songC6_mvl/mxv
 .byte   W01
 .byte   VOL , 34*songC6_mvl/mxv
 .byte   W02
 .byte   VOL , 33*songC6_mvl/mxv
 .byte   W01
 .byte   VOL , 33*songC6_mvl/mxv
 .byte   W02
@ 124   ----------------------------------------
 .byte   VOL , 32*songC6_mvl/mxv
 .byte   W01
 .byte   VOL , 31*songC6_mvl/mxv
 .byte   W02
 .byte   VOL , 30*songC6_mvl/mxv
 .byte   W01
 .byte   VOL , 30*songC6_mvl/mxv
 .byte   W02
 .byte   VOL , 29*songC6_mvl/mxv
 .byte   W01
 .byte   VOL , 29*songC6_mvl/mxv
 .byte   W02
 .byte   VOL , 28*songC6_mvl/mxv
 .byte   W01
 .byte   VOL , 38*songC6_mvl/mxv
 .byte   W02
 .byte   N11
 .byte   W12
 .byte   Fn4
 .byte   W12
 .byte   Gs4
 .byte   W12
 .byte   N23 ,Gn4
 .byte   W24
 .byte   N11 ,Fn4
 .byte   W12
 .byte   VOL , 32*songC6_mvl/mxv
 .byte   N23 ,Cn4
 .byte   W01
 .byte   VOL , 33*songC6_mvl/mxv
 .byte   W02
 .byte   VOL , 34*songC6_mvl/mxv
 .byte   W01
 .byte   VOL , 35*songC6_mvl/mxv
 .byte   W02
 .byte   VOL , 35*songC6_mvl/mxv
 .byte   W01
 .byte   VOL , 36*songC6_mvl/mxv
 .byte   W02
 .byte   VOL , 36*songC6_mvl/mxv
 .byte   W01
 .byte   VOL , 37*songC6_mvl/mxv
 .byte   W02
@ 125   ----------------------------------------
 .byte   W01
 .byte   VOL , 38*songC6_mvl/mxv
 .byte   W03
 .byte   VOL , 38*songC6_mvl/mxv
 .byte   W02
 .byte   VOL , 38*songC6_mvl/mxv
 .byte   W06
 .byte   N11 ,As3
 .byte   W12
 .byte   Cn4
 .byte   W12
 .byte   N56 ,Fn3
 .byte   W19
 .byte   VOL , 38*songC6_mvl/mxv
 .byte   W05
 .byte   VOL , 38*songC6_mvl/mxv
 .byte   W03
 .byte   VOL , 37*songC6_mvl/mxv
 .byte   W01
 .byte   VOL , 37*songC6_mvl/mxv
 .byte   W02
 .byte   VOL , 37*songC6_mvl/mxv
 .byte   W01
 .byte   VOL , 36*songC6_mvl/mxv
 .byte   W02
 .byte   VOL , 36*songC6_mvl/mxv
 .byte   W03
 .byte   VOL , 35*songC6_mvl/mxv
 .byte   W01
 .byte   VOL , 35*songC6_mvl/mxv
 .byte   W02
 .byte   VOL , 35*songC6_mvl/mxv
 .byte   W01
 .byte   VOL , 34*songC6_mvl/mxv
 .byte   W02
 .byte   VOL , 34*songC6_mvl/mxv
 .byte   W01
 .byte   VOL , 33*songC6_mvl/mxv
 .byte   W02
 .byte   VOL , 33*songC6_mvl/mxv
 .byte   W01
 .byte   VOL , 33*songC6_mvl/mxv
 .byte   W02
 .byte   VOL , 32*songC6_mvl/mxv
 .byte   W01
 .byte   VOL , 31*songC6_mvl/mxv
 .byte   W02
 .byte   VOL , 31*songC6_mvl/mxv
 .byte   W01
 .byte   VOL , 30*songC6_mvl/mxv
 .byte   W03
 .byte   VOL , 30*songC6_mvl/mxv
 .byte   W02
 .byte   VOL , 29*songC6_mvl/mxv
 .byte   W01
 .byte   VOL , 28*songC6_mvl/mxv
 .byte   W02
@ 126   ----------------------------------------
 .byte   VOL , 28*songC6_mvl/mxv
 .byte   W01
 .byte   VOL , 28*songC6_mvl/mxv
 .byte   W02
 .byte   VOL , 27*songC6_mvl/mxv
 .byte   W01
 .byte   VOL , 27*songC6_mvl/mxv
 .byte   W02
 .byte   VOL , 26*songC6_mvl/mxv
 .byte   W01
 .byte   VOL , 26*songC6_mvl/mxv
 .byte   W02
 .byte   VOL , 25*songC6_mvl/mxv
 .byte   W01
 .byte   VOL , 38*songC6_mvl/mxv
 .byte   W02
 .byte   N11
 .byte   W12
 .byte   Gs3
 .byte   W12
 .byte   As3
 .byte   W12
 .byte   N32 ,Cn4
 .byte   W19
 .byte   VOL , 38*songC6_mvl/mxv
 .byte   W05
 .byte   VOL , 38*songC6_mvl/mxv
 .byte   W03
 .byte   VOL , 37*songC6_mvl/mxv
 .byte   W01
 .byte   VOL , 36*songC6_mvl/mxv
 .byte   W03
 .byte   VOL , 36*songC6_mvl/mxv
 .byte   W02
 .byte   VOL , 35*songC6_mvl/mxv
 .byte   W01
 .byte   VOL , 34*songC6_mvl/mxv
 .byte   W02
 .byte   VOL , 38*songC6_mvl/mxv
 .byte   N05 ,As3
 .byte   W12
@ 127   ----------------------------------------
 .byte   N28
 .byte   W10
 .byte   VOL , 38*songC6_mvl/mxv
 .byte   W02
 .byte   VOL , 38*songC6_mvl/mxv
 .byte   W01
 .byte   VOL , 37*songC6_mvl/mxv
 .byte   W02
 .byte   VOL , 37*songC6_mvl/mxv
 .byte   W01
 .byte   VOL , 36*songC6_mvl/mxv
 .byte   W03
 .byte   VOL , 36*songC6_mvl/mxv
 .byte   W02
 .byte   VOL , 35*songC6_mvl/mxv
 .byte   W01
 .byte   VOL , 34*songC6_mvl/mxv
 .byte   W02
 .byte   VOL , 34*songC6_mvl/mxv
 .byte   W01
 .byte   VOL , 33*songC6_mvl/mxv
 .byte   W02
 .byte   VOL , 32*songC6_mvl/mxv
 .byte   W01
 .byte   VOL , 30*songC6_mvl/mxv
 .byte   W02
 .byte   VOL , 29*songC6_mvl/mxv
 .byte   W01
 .byte   VOL , 27*songC6_mvl/mxv
 .byte   W02
 .byte   VOL , 22*songC6_mvl/mxv
 .byte   W01
 .byte   VOL , 16*songC6_mvl/mxv
 .byte   W02
 .byte   VOL , 38*songC6_mvl/mxv
 .byte   N05 ,Gs3
 .byte   W06
 .byte   As3
 .byte   W06
 .byte   N17 ,Cn4
 .byte   W18
 .byte   Cs4
 .byte   W18
 .byte   N11 ,Cn4
 .byte   W12
@ 128   ----------------------------------------
 .byte   N23 ,As3
 .byte   W24
 .byte   Gn3
 .byte   W24
 .byte   VOL , 32*songC6_mvl/mxv
 .byte   N32 ,As3
 .byte   W01
 .byte   VOL , 33*songC6_mvl/mxv
 .byte   W02
 .byte   VOL , 33*songC6_mvl/mxv
 .byte   W01
 .byte   VOL , 34*songC6_mvl/mxv
 .byte   W02
 .byte   VOL , 34*songC6_mvl/mxv
 .byte   W01
 .byte   VOL , 35*songC6_mvl/mxv
 .byte   W02
 .byte   VOL , 36*songC6_mvl/mxv
 .byte   W01
 .byte   VOL , 36*songC6_mvl/mxv
 .byte   W02
 .byte   VOL , 37*songC6_mvl/mxv
 .byte   W01
 .byte   VOL , 37*songC6_mvl/mxv
 .byte   W02
 .byte   VOL , 38*songC6_mvl/mxv
 .byte   W01
 .byte   VOL , 38*songC6_mvl/mxv
 .byte   W11
 .byte   VOL , 38*songC6_mvl/mxv
 .byte   W03
 .byte   VOL , 37*songC6_mvl/mxv
 .byte   W03
 .byte   VOL , 37*songC6_mvl/mxv
 .byte   W01
 .byte   VOL , 36*songC6_mvl/mxv
 .byte   W02
 .byte   VOL , 38*songC6_mvl/mxv
 .byte   N11 ,Gs3
 .byte   W12
@ 129   ----------------------------------------
 .byte   VOL , 29*songC6_mvl/mxv
 .byte   N92 ,Cn4
 .byte   W01
 .byte   VOL , 30*songC6_mvl/mxv
 .byte   W02
 .byte   VOL , 31*songC6_mvl/mxv
 .byte   W01
 .byte   VOL , 32*songC6_mvl/mxv
 .byte   W02
 .byte   VOL , 33*songC6_mvl/mxv
 .byte   W01
 .byte   VOL , 34*songC6_mvl/mxv
 .byte   W02
 .byte   VOL , 34*songC6_mvl/mxv
 .byte   W01
 .byte   VOL , 35*songC6_mvl/mxv
 .byte   W02
 .byte   VOL , 35*songC6_mvl/mxv
 .byte   W01
 .byte   VOL , 36*songC6_mvl/mxv
 .byte   W02
 .byte   VOL , 36*songC6_mvl/mxv
 .byte   W01
 .byte   VOL , 36*songC6_mvl/mxv
 .byte   W02
 .byte   VOL , 37*songC6_mvl/mxv
 .byte   W01
 .byte   VOL , 37*songC6_mvl/mxv
 .byte   W03
 .byte   VOL , 37*songC6_mvl/mxv
 .byte   W02
 .byte   VOL , 38*songC6_mvl/mxv
 .byte   W24
 .byte   W01
 .byte   VOL , 37*songC6_mvl/mxv
 .byte   W02
 .byte   VOL , 37*songC6_mvl/mxv
 .byte   W03
 .byte   VOL , 37*songC6_mvl/mxv
 .byte   W01
 .byte   VOL , 36*songC6_mvl/mxv
 .byte   W03
 .byte   VOL , 36*songC6_mvl/mxv
 .byte   W02
 .byte   VOL , 35*songC6_mvl/mxv
 .byte   W01
 .byte   VOL , 35*songC6_mvl/mxv
 .byte   W03
 .byte   VOL , 34*songC6_mvl/mxv
 .byte   W02
 .byte   VOL , 34*songC6_mvl/mxv
 .byte   W01
 .byte   VOL , 33*songC6_mvl/mxv
 .byte   W02
 .byte   VOL , 32*songC6_mvl/mxv
 .byte   W01
 .byte   VOL , 31*songC6_mvl/mxv
 .byte   W02
 .byte   VOL , 30*songC6_mvl/mxv
 .byte   W01
 .byte   VOL , 30*songC6_mvl/mxv
 .byte   W02
 .byte   VOL , 29*songC6_mvl/mxv
 .byte   W01
 .byte   VOL , 28*songC6_mvl/mxv
 .byte   W02
 .byte   VOL , 27*songC6_mvl/mxv
 .byte   W01
 .byte   VOL , 25*songC6_mvl/mxv
 .byte   W02
 .byte   VOL , 23*songC6_mvl/mxv
 .byte   W01
 .byte   VOL , 22*songC6_mvl/mxv
 .byte   W02
 .byte   VOL , 20*songC6_mvl/mxv
 .byte   W01
 .byte   VOL , 19*songC6_mvl/mxv
 .byte   W02
 .byte   VOL , 18*songC6_mvl/mxv
 .byte   W01
 .byte   VOL , 17*songC6_mvl/mxv
 .byte   W02
 .byte   VOL , 15*songC6_mvl/mxv
 .byte   W01
 .byte   VOL , 13*songC6_mvl/mxv
 .byte   W02
 .byte   VOL , 12*songC6_mvl/mxv
 .byte   W01
 .byte   VOL , 10*songC6_mvl/mxv
 .byte   W02
@ 130   ----------------------------------------
 .byte   VOL , 8*songC6_mvl/mxv
 .byte   W01
 .byte   VOL , 6*songC6_mvl/mxv
 .byte   W02
 .byte   VOL , 4*songC6_mvl/mxv
 .byte   W01
 .byte   VOL , 1*songC6_mvl/mxv
 .byte   W02
 .byte   VOL , 0*songC6_mvl/mxv
 .byte   W06
 .byte   VOL , 38*songC6_mvl/mxv
 .byte   N11
 .byte   W12
 .byte   Fn4
 .byte   W12
 .byte   Gs4
 .byte   W12
 .byte   N23 ,Gn4
 .byte   W24
 .byte   N11 ,Fn4
 .byte   W12
 .byte   N23 ,Cn4
 .byte   W12
@ 131   ----------------------------------------
 .byte   W12
 .byte   N11 ,As3
 .byte   W12
 .byte   Gs3
 .byte   W12
 .byte   VOL , 31*songC6_mvl/mxv
 .byte   N56 ,Cn4
 .byte   W01
 .byte   VOL , 31*songC6_mvl/mxv
 .byte   W02
 .byte   VOL , 32*songC6_mvl/mxv
 .byte   W01
 .byte   VOL , 32*songC6_mvl/mxv
 .byte   W02
 .byte   VOL , 32*songC6_mvl/mxv
 .byte   W01
 .byte   VOL , 33*songC6_mvl/mxv
 .byte   W02
 .byte   VOL , 33*songC6_mvl/mxv
 .byte   W01
 .byte   VOL , 34*songC6_mvl/mxv
 .byte   W03
 .byte   VOL , 35*songC6_mvl/mxv
 .byte   W02
 .byte   VOL , 35*songC6_mvl/mxv
 .byte   W01
 .byte   VOL , 35*songC6_mvl/mxv
 .byte   W02
 .byte   VOL , 36*songC6_mvl/mxv
 .byte   W03
 .byte   VOL , 36*songC6_mvl/mxv
 .byte   W01
 .byte   VOL , 37*songC6_mvl/mxv
 .byte   W02
 .byte   VOL , 37*songC6_mvl/mxv
 .byte   W01
 .byte   VOL , 37*songC6_mvl/mxv
 .byte   W03
 .byte   VOL , 38*songC6_mvl/mxv
 .byte   W12
 .byte   VOL , 37*songC6_mvl/mxv
 .byte   W02
 .byte   VOL , 37*songC6_mvl/mxv
 .byte   W03
 .byte   VOL , 36*songC6_mvl/mxv
 .byte   W01
 .byte   VOL , 36*songC6_mvl/mxv
 .byte   W02
 .byte   VOL , 35*songC6_mvl/mxv
 .byte   W01
 .byte   VOL , 35*songC6_mvl/mxv
 .byte   W02
 .byte   VOL , 34*songC6_mvl/mxv
 .byte   W01
 .byte   VOL , 34*songC6_mvl/mxv
 .byte   W02
 .byte   VOL , 33*songC6_mvl/mxv
 .byte   W01
 .byte   VOL , 32*songC6_mvl/mxv
 .byte   W02
 .byte   VOL , 31*songC6_mvl/mxv
 .byte   W01
 .byte   VOL , 30*songC6_mvl/mxv
 .byte   W02
@ 132   ----------------------------------------
 .byte   VOL , 29*songC6_mvl/mxv
 .byte   W01
 .byte   VOL , 28*songC6_mvl/mxv
 .byte   W02
 .byte   VOL , 27*songC6_mvl/mxv
 .byte   W01
 .byte   VOL , 25*songC6_mvl/mxv
 .byte   W02
 .byte   VOL , 24*songC6_mvl/mxv
 .byte   W01
 .byte   VOL , 23*songC6_mvl/mxv
 .byte   W02
 .byte   VOL , 21*songC6_mvl/mxv
 .byte   W01
 .byte   VOL , 20*songC6_mvl/mxv
 .byte   W02
 .byte   VOL , 38*songC6_mvl/mxv
 .byte   N11
 .byte   W12
 .byte   Fn4
 .byte   W12
 .byte   Gs4
 .byte   W12
 .byte   N23 ,As4
 .byte   W24
 .byte   N05 ,Gs4
 .byte   W12
 .byte   N23 ,Gn4
 .byte   W12
@ 133   ----------------------------------------
 .byte   W12
 .byte   N11 ,Gs4
 .byte   W12
 .byte   N05 ,As4
 .byte   W12
 .byte   VOL , 29*songC6_mvl/mxv
 .byte   N64 ,Cn5
 .byte   W01
 .byte   VOL , 30*songC6_mvl/mxv
 .byte   W02
 .byte   VOL , 31*songC6_mvl/mxv
 .byte   W01
 .byte   VOL , 32*songC6_mvl/mxv
 .byte   W02
 .byte   VOL , 33*songC6_mvl/mxv
 .byte   W01
 .byte   VOL , 34*songC6_mvl/mxv
 .byte   W02
 .byte   VOL , 34*songC6_mvl/mxv
 .byte   W01
 .byte   VOL , 35*songC6_mvl/mxv
 .byte   W02
 .byte   VOL , 35*songC6_mvl/mxv
 .byte   W01
 .byte   VOL , 36*songC6_mvl/mxv
 .byte   W02
 .byte   VOL , 36*songC6_mvl/mxv
 .byte   W01
 .byte   VOL , 36*songC6_mvl/mxv
 .byte   W02
 .byte   VOL , 37*songC6_mvl/mxv
 .byte   W01
 .byte   VOL , 37*songC6_mvl/mxv
 .byte   W02
 .byte   VOL , 37*songC6_mvl/mxv
 .byte   W03
 .byte   VOL , 38*songC6_mvl/mxv
 .byte   W15
 .byte   VOL , 37*songC6_mvl/mxv
 .byte   W01
 .byte   VOL , 37*songC6_mvl/mxv
 .byte   W02
 .byte   VOL , 36*songC6_mvl/mxv
 .byte   W01
 .byte   VOL , 36*songC6_mvl/mxv
 .byte   W02
 .byte   VOL , 35*songC6_mvl/mxv
 .byte   W01
 .byte   VOL , 35*songC6_mvl/mxv
 .byte   W02
 .byte   VOL , 34*songC6_mvl/mxv
 .byte   W01
 .byte   VOL , 33*songC6_mvl/mxv
 .byte   W02
 .byte   VOL , 33*songC6_mvl/mxv
 .byte   W01
 .byte   VOL , 32*songC6_mvl/mxv
 .byte   W02
 .byte   VOL , 31*songC6_mvl/mxv
 .byte   W01
 .byte   VOL , 30*songC6_mvl/mxv
 .byte   W02
 .byte   VOL , 29*songC6_mvl/mxv
 .byte   W01
 .byte   VOL , 27*songC6_mvl/mxv
 .byte   W02
@ 134   ----------------------------------------
 .byte   VOL , 25*songC6_mvl/mxv
 .byte   W01
 .byte   VOL , 23*songC6_mvl/mxv
 .byte   W02
 .byte   VOL , 20*songC6_mvl/mxv
 .byte   W01
 .byte   VOL , 19*songC6_mvl/mxv
 .byte   W02
 .byte   VOL , 13*songC6_mvl/mxv
 .byte   W01
 .byte   VOL , 9*songC6_mvl/mxv
 .byte   W02
 .byte   VOL , 3*songC6_mvl/mxv
 .byte   W01
 .byte   VOL , 38*songC6_mvl/mxv
 .byte   W02
 .byte   N11 ,Fn4
 .byte   W12
 .byte   Gs4
 .byte   W12
 .byte   As4
 .byte   W12
 .byte   N32 ,Cn5
 .byte   W36
 .byte   N05 ,As4
 .byte   W12
@ 135   ----------------------------------------
 .byte   N28
 .byte   W07
 .byte   VOL , 38*songC6_mvl/mxv
 .byte   W03
 .byte   VOL , 37*songC6_mvl/mxv
 .byte   W02
 .byte   VOL , 36*songC6_mvl/mxv
 .byte   W01
 .byte   VOL , 36*songC6_mvl/mxv
 .byte   W02
 .byte   VOL , 36*songC6_mvl/mxv
 .byte   W01
 .byte   VOL , 35*songC6_mvl/mxv
 .byte   W02
 .byte   VOL , 35*songC6_mvl/mxv
 .byte   W01
 .byte   VOL , 34*songC6_mvl/mxv
 .byte   W02
 .byte   VOL , 33*songC6_mvl/mxv
 .byte   W01
 .byte   VOL , 33*songC6_mvl/mxv
 .byte   W02
 .byte   VOL , 32*songC6_mvl/mxv
 .byte   W01
 .byte   VOL , 31*songC6_mvl/mxv
 .byte   W02
 .byte   VOL , 30*songC6_mvl/mxv
 .byte   W01
 .byte   VOL , 29*songC6_mvl/mxv
 .byte   W02
 .byte   VOL , 28*songC6_mvl/mxv
 .byte   W01
 .byte   VOL , 24*songC6_mvl/mxv
 .byte   W02
 .byte   VOL , 22*songC6_mvl/mxv
 .byte   W01
 .byte   VOL , 23*songC6_mvl/mxv
 .byte   W02
 .byte   VOL , 38*songC6_mvl/mxv
 .byte   N05 ,Gs4
 .byte   W06
 .byte   As4
 .byte   W06
 .byte   N17 ,Cn5
 .byte   W18
 .byte   Cs5
 .byte   W18
 .byte   N11 ,Cn5
 .byte   W12
@ 136   ----------------------------------------
 .byte   N23 ,As4
 .byte   W24
 .byte   N17 ,Gn4
 .byte   W24
 .byte   N32
 .byte   W12
 .byte   VOL , 38*songC6_mvl/mxv
 .byte   W01
 .byte   VOL , 37*songC6_mvl/mxv
 .byte   W03
 .byte   VOL , 36*songC6_mvl/mxv
 .byte   W02
 .byte   VOL , 36*songC6_mvl/mxv
 .byte   W01
 .byte   VOL , 35*songC6_mvl/mxv
 .byte   W02
 .byte   VOL , 35*songC6_mvl/mxv
 .byte   W01
 .byte   VOL , 34*songC6_mvl/mxv
 .byte   W02
 .byte   VOL , 34*songC6_mvl/mxv
 .byte   W01
 .byte   VOL , 33*songC6_mvl/mxv
 .byte   W02
 .byte   VOL , 33*songC6_mvl/mxv
 .byte   W01
 .byte   VOL , 32*songC6_mvl/mxv
 .byte   W02
 .byte   VOL , 32*songC6_mvl/mxv
 .byte   W01
 .byte   VOL , 31*songC6_mvl/mxv
 .byte   W02
 .byte   VOL , 31*songC6_mvl/mxv
 .byte   W01
 .byte   VOL , 30*songC6_mvl/mxv
 .byte   W02
 .byte   VOL , 38*songC6_mvl/mxv
 .byte   N11 ,Gs4
 .byte   W12
@ 137   ----------------------------------------
 .byte   VOL , 29*songC6_mvl/mxv
 .byte   N92 ,Fn4
 .byte   W01
 .byte   VOL , 29*songC6_mvl/mxv
 .byte   W02
 .byte   VOL , 30*songC6_mvl/mxv
 .byte   W01
 .byte   VOL , 30*songC6_mvl/mxv
 .byte   W02
 .byte   VOL , 31*songC6_mvl/mxv
 .byte   W01
 .byte   VOL , 32*songC6_mvl/mxv
 .byte   W02
 .byte   VOL , 33*songC6_mvl/mxv
 .byte   W01
 .byte   VOL , 34*songC6_mvl/mxv
 .byte   W02
 .byte   VOL , 34*songC6_mvl/mxv
 .byte   W01
 .byte   VOL , 34*songC6_mvl/mxv
 .byte   W02
 .byte   VOL , 35*songC6_mvl/mxv
 .byte   W01
 .byte   VOL , 35*songC6_mvl/mxv
 .byte   W02
 .byte   VOL , 36*songC6_mvl/mxv
 .byte   W03
 .byte   VOL , 36*songC6_mvl/mxv
 .byte   W01
 .byte   VOL , 37*songC6_mvl/mxv
 .byte   W03
 .byte   VOL , 37*songC6_mvl/mxv
 .byte   W06
 .byte   VOL , 37*songC6_mvl/mxv
 .byte   W03
 .byte   VOL , 38*songC6_mvl/mxv
 .byte   W18
 .byte   VOL , 37*songC6_mvl/mxv
 .byte   W03
 .byte   VOL , 37*songC6_mvl/mxv
 .byte   W05
 .byte   VOL , 36*songC6_mvl/mxv
 .byte   W01
 .byte   VOL , 36*songC6_mvl/mxv
 .byte   W02
 .byte   VOL , 36*songC6_mvl/mxv
 .byte   W03
 .byte   VOL , 35*songC6_mvl/mxv
 .byte   W01
 .byte   VOL , 35*songC6_mvl/mxv
 .byte   W02
 .byte   VOL , 34*songC6_mvl/mxv
 .byte   W01
 .byte   VOL , 34*songC6_mvl/mxv
 .byte   W02
 .byte   VOL , 33*songC6_mvl/mxv
 .byte   W01
 .byte   VOL , 33*songC6_mvl/mxv
 .byte   W02
 .byte   VOL , 32*songC6_mvl/mxv
 .byte   W01
 .byte   VOL , 32*songC6_mvl/mxv
 .byte   W02
 .byte   VOL , 31*songC6_mvl/mxv
 .byte   W01
 .byte   VOL , 30*songC6_mvl/mxv
 .byte   W02
 .byte   VOL , 29*songC6_mvl/mxv
 .byte   W01
 .byte   VOL , 29*songC6_mvl/mxv
 .byte   W02
 .byte   VOL , 28*songC6_mvl/mxv
 .byte   W01
 .byte   VOL , 27*songC6_mvl/mxv
 .byte   W02
 .byte   VOL , 26*songC6_mvl/mxv
 .byte   W01
 .byte   VOL , 25*songC6_mvl/mxv
 .byte   W02
 .byte   VOL , 24*songC6_mvl/mxv
 .byte   W01
 .byte   VOL , 23*songC6_mvl/mxv
 .byte   W02
 .byte   VOL , 22*songC6_mvl/mxv
 .byte   W01
 .byte   VOL , 21*songC6_mvl/mxv
 .byte   W02
@ 138   ----------------------------------------
 .byte   VOL , 20*songC6_mvl/mxv
 .byte   W01
 .byte   VOL , 19*songC6_mvl/mxv
 .byte   W02
 .byte   VOL , 17*songC6_mvl/mxv
 .byte   W01
 .byte   VOL , 16*songC6_mvl/mxv
 .byte   W02
 .byte   VOL , 15*songC6_mvl/mxv
 .byte   W01
 .byte   VOL , 14*songC6_mvl/mxv
 .byte   W02
 .byte   VOL , 12*songC6_mvl/mxv
 .byte   W01
 .byte   VOL , 12*songC6_mvl/mxv
 .byte   W02
 .byte   VOL , 38*songC6_mvl/mxv
 .byte   N11 ,Cn4
 .byte   W12
 .byte   Fn4
 .byte   W12
 .byte   Gs4
 .byte   W12
 .byte   VOL , 32*songC6_mvl/mxv
 .byte   N23 ,Gn4
 .byte   W01
 .byte   VOL , 33*songC6_mvl/mxv
 .byte   W02
 .byte   VOL , 33*songC6_mvl/mxv
 .byte   W01
 .byte   VOL , 34*songC6_mvl/mxv
 .byte   W02
 .byte   VOL , 35*songC6_mvl/mxv
 .byte   W01
 .byte   VOL , 35*songC6_mvl/mxv
 .byte   W02
 .byte   VOL , 36*songC6_mvl/mxv
 .byte   W01
 .byte   VOL , 37*songC6_mvl/mxv
 .byte   W02
 .byte   VOL , 38*songC6_mvl/mxv
 .byte   W01
 .byte   VOL , 38*songC6_mvl/mxv
 .byte   W02
 .byte   VOL , 38*songC6_mvl/mxv
 .byte   W09
 .byte   N11 ,Fn4
 .byte   W12
 .byte   VOL , 31*songC6_mvl/mxv
 .byte   N23 ,Cn4
 .byte   W01
 .byte   VOL , 32*songC6_mvl/mxv
 .byte   W02
 .byte   VOL , 33*songC6_mvl/mxv
 .byte   W01
 .byte   VOL , 33*songC6_mvl/mxv
 .byte   W02
 .byte   VOL , 34*songC6_mvl/mxv
 .byte   W01
 .byte   VOL , 34*songC6_mvl/mxv
 .byte   W02
 .byte   VOL , 35*songC6_mvl/mxv
 .byte   W01
 .byte   VOL , 36*songC6_mvl/mxv
 .byte   W02
@ 139   ----------------------------------------
Label_6_014B0691:
 .byte   VOL , 36*songC6_mvl/mxv
 .byte   W01
 .byte   VOL , 36*songC6_mvl/mxv
 .byte   W02
 .byte   VOL , 37*songC6_mvl/mxv
 .byte   W01
 .byte   VOL , 37*songC6_mvl/mxv
 .byte   W02
 .byte   VOL , 38*songC6_mvl/mxv
 .byte   W01
 .byte   VOL , 38*songC6_mvl/mxv
 .byte   W05
 .byte   N11 ,As3 ,v100
 .byte   W12
 .byte   Gs3
 .byte   W12
 .byte   N56 ,Cn4
 .byte   W13
 .byte   VOL , 38*songC6_mvl/mxv
 .byte   W06
 .byte   VOL , 38*songC6_mvl/mxv
 .byte   W03
 .byte   VOL , 37*songC6_mvl/mxv
 .byte   W02
 .byte   VOL , 37*songC6_mvl/mxv
 .byte   W01
 .byte   VOL , 36*songC6_mvl/mxv
 .byte   W03
 .byte   VOL , 36*songC6_mvl/mxv
 .byte   W02
 .byte   VOL , 35*songC6_mvl/mxv
 .byte   W01
 .byte   VOL , 35*songC6_mvl/mxv
 .byte   W03
 .byte   VOL , 34*songC6_mvl/mxv
 .byte   W02
 .byte   VOL , 34*songC6_mvl/mxv
 .byte   W01
 .byte   VOL , 34*songC6_mvl/mxv
 .byte   W02
 .byte   VOL , 33*songC6_mvl/mxv
 .byte   W01
 .byte   VOL , 33*songC6_mvl/mxv
 .byte   W02
 .byte   VOL , 32*songC6_mvl/mxv
 .byte   W01
 .byte   VOL , 31*songC6_mvl/mxv
 .byte   W02
 .byte   VOL , 30*songC6_mvl/mxv
 .byte   W01
 .byte   VOL , 30*songC6_mvl/mxv
 .byte   W02
 .byte   VOL , 29*songC6_mvl/mxv
 .byte   W01
 .byte   VOL , 29*songC6_mvl/mxv
 .byte   W02
 .byte   VOL , 28*songC6_mvl/mxv
 .byte   W01
 .byte   VOL , 27*songC6_mvl/mxv
 .byte   W02
 .byte   VOL , 26*songC6_mvl/mxv
 .byte   W01
 .byte   VOL , 25*songC6_mvl/mxv
 .byte   W02
 .byte   VOL , 25*songC6_mvl/mxv
 .byte   W01
 .byte   VOL , 24*songC6_mvl/mxv
 .byte   W02
 .byte   PEND 
@ 140   ----------------------------------------
 .byte   BnM1
 .byte   W01
 .byte   AnM1
 .byte   W02
 .byte   GsM1
 .byte   W01
 .byte   GnM1
 .byte   W02
 .byte   FsM1
 .byte   W01
 .byte   DnM1
 .byte   W02
 .byte   CsM1
 .byte   W01
 .byte   CnM1
 .byte   W02
 .byte   Dn1
 .byte   N11
 .byte   W12
 .byte   Fn4
 .byte   W12
 .byte   Gs4
 .byte   W12
 .byte   N23 ,Gn4
 .byte   W24
 .byte   N11 ,Fn4
 .byte   W12
 .byte   N23 ,Cn4
 .byte   W12
@ 141   ----------------------------------------
Label_6_014B06FB:
 .byte   W12
 .byte   N11 ,As3 ,v100
 .byte   W12
 .byte   Cn4
 .byte   W12
 .byte   VOL , 34*songC6_mvl/mxv
 .byte   N56 ,Fn3
 .byte   W01
 .byte   VOL , 35*songC6_mvl/mxv
 .byte   W02
 .byte   VOL , 35*songC6_mvl/mxv
 .byte   W03
 .byte   VOL , 36*songC6_mvl/mxv
 .byte   W03
 .byte   VOL , 36*songC6_mvl/mxv
 .byte   W01
 .byte   VOL , 37*songC6_mvl/mxv
 .byte   W02
 .byte   VOL , 37*songC6_mvl/mxv
 .byte   W03
 .byte   VOL , 37*songC6_mvl/mxv
 .byte   W01
 .byte   VOL , 38*songC6_mvl/mxv
 .byte   W14
 .byte   VOL , 37*songC6_mvl/mxv
 .byte   W01
 .byte   VOL , 37*songC6_mvl/mxv
 .byte   W03
 .byte   VOL , 36*songC6_mvl/mxv
 .byte   W02
 .byte   VOL , 36*songC6_mvl/mxv
 .byte   W03
 .byte   VOL , 35*songC6_mvl/mxv
 .byte   W01
 .byte   VOL , 35*songC6_mvl/mxv
 .byte   W02
 .byte   VOL , 34*songC6_mvl/mxv
 .byte   W01
 .byte   VOL , 34*songC6_mvl/mxv
 .byte   W02
 .byte   VOL , 33*songC6_mvl/mxv
 .byte   W01
 .byte   VOL , 33*songC6_mvl/mxv
 .byte   W02
 .byte   VOL , 32*songC6_mvl/mxv
 .byte   W01
 .byte   VOL , 31*songC6_mvl/mxv
 .byte   W02
 .byte   VOL , 31*songC6_mvl/mxv
 .byte   W01
 .byte   VOL , 30*songC6_mvl/mxv
 .byte   W02
 .byte   VOL , 29*songC6_mvl/mxv
 .byte   W01
 .byte   VOL , 28*songC6_mvl/mxv
 .byte   W02
 .byte   VOL , 27*songC6_mvl/mxv
 .byte   W01
 .byte   VOL , 26*songC6_mvl/mxv
 .byte   W02
 .byte   PEND 
@ 142   ----------------------------------------
Label_6_014B073D:
 .byte   VOL , 24*songC6_mvl/mxv
 .byte   W01
 .byte   VOL , 23*songC6_mvl/mxv
 .byte   W02
 .byte   VOL , 22*songC6_mvl/mxv
 .byte   W01
 .byte   VOL , 20*songC6_mvl/mxv
 .byte   W02
 .byte   VOL , 19*songC6_mvl/mxv
 .byte   W01
 .byte   VOL , 18*songC6_mvl/mxv
 .byte   W02
 .byte   VOL , 17*songC6_mvl/mxv
 .byte   W01
 .byte   VOL , 15*songC6_mvl/mxv
 .byte   W02
 .byte   VOL , 38*songC6_mvl/mxv
 .byte   N11 ,Fn3 ,v100
 .byte   W12
 .byte   Gs3
 .byte   W12
 .byte   As3
 .byte   W12
 .byte   N32 ,Cn4
 .byte   W36
 .byte   N05 ,As3
 .byte   W12
 .byte   PEND 
@ 143   ----------------------------------------
Label_6_014B075E:
 .byte   N28 ,As3 ,v100
 .byte   W10
 .byte   VOL , 38*songC6_mvl/mxv
 .byte   W05
 .byte   VOL , 37*songC6_mvl/mxv
 .byte   W01
 .byte   VOL , 37*songC6_mvl/mxv
 .byte   W02
 .byte   VOL , 36*songC6_mvl/mxv
 .byte   W01
 .byte   VOL , 36*songC6_mvl/mxv
 .byte   W02
 .byte   VOL , 35*songC6_mvl/mxv
 .byte   W01
 .byte   VOL , 34*songC6_mvl/mxv
 .byte   W02
 .byte   VOL , 34*songC6_mvl/mxv
 .byte   W01
 .byte   VOL , 33*songC6_mvl/mxv
 .byte   W02
 .byte   VOL , 32*songC6_mvl/mxv
 .byte   W01
 .byte   VOL , 31*songC6_mvl/mxv
 .byte   W02
 .byte   VOL , 30*songC6_mvl/mxv
 .byte   W01
 .byte   VOL , 29*songC6_mvl/mxv
 .byte   W02
 .byte   VOL , 27*songC6_mvl/mxv
 .byte   W01
 .byte   VOL , 24*songC6_mvl/mxv
 .byte   W02
 .byte   VOL , 38*songC6_mvl/mxv
 .byte   N05 ,Gs3
 .byte   W06
 .byte   As3
 .byte   W06
 .byte   N17 ,Cn4
 .byte   W18
 .byte   Cs4
 .byte   W18
 .byte   N11 ,Cn4
 .byte   W12
 .byte   PEND 
@ 144   ----------------------------------------
Label_6_014B0790:
 .byte   N23 ,As3 ,v100
 .byte   W24
 .byte   Gn3
 .byte   W24
 .byte   N32 ,As3
 .byte   W15
 .byte   VOL , 38*songC6_mvl/mxv
 .byte   W01
 .byte   VOL , 37*songC6_mvl/mxv
 .byte   W02
 .byte   VOL , 37*songC6_mvl/mxv
 .byte   W01
 .byte   VOL , 37*songC6_mvl/mxv
 .byte   W02
 .byte   VOL , 36*songC6_mvl/mxv
 .byte   W01
 .byte   VOL , 36*songC6_mvl/mxv
 .byte   W02
 .byte   VOL , 36*songC6_mvl/mxv
 .byte   W01
 .byte   VOL , 35*songC6_mvl/mxv
 .byte   W02
 .byte   VOL , 34*songC6_mvl/mxv
 .byte   W01
 .byte   VOL , 34*songC6_mvl/mxv
 .byte   W02
 .byte   VOL , 33*songC6_mvl/mxv
 .byte   W01
 .byte   VOL , 32*songC6_mvl/mxv
 .byte   W02
 .byte   VOL , 31*songC6_mvl/mxv
 .byte   W01
 .byte   VOL , 38*songC6_mvl/mxv
 .byte   W02
 .byte   N11 ,Gs3
 .byte   W12
 .byte   PEND 
@ 145   ----------------------------------------
 .byte   VOL , 30*songC6_mvl/mxv
 .byte   N80 ,Cn4
 .byte   W01
 .byte   VOL , 31*songC6_mvl/mxv
 .byte   W02
 .byte   VOL , 31*songC6_mvl/mxv
 .byte   W03
 .byte   VOL , 32*songC6_mvl/mxv
 .byte   W01
 .byte   VOL , 32*songC6_mvl/mxv
 .byte   W03
 .byte   VOL , 33*songC6_mvl/mxv
 .byte   W02
 .byte   VOL , 33*songC6_mvl/mxv
 .byte   W01
 .byte   VOL , 34*songC6_mvl/mxv
 .byte   W03
 .byte   VOL , 34*songC6_mvl/mxv
 .byte   W02
 .byte   VOL , 34*songC6_mvl/mxv
 .byte   W01
 .byte   VOL , 35*songC6_mvl/mxv
 .byte   W02
 .byte   VOL , 35*songC6_mvl/mxv
 .byte   W01
 .byte   VOL , 36*songC6_mvl/mxv
 .byte   W02
 .byte   VOL , 36*songC6_mvl/mxv
 .byte   W01
 .byte   VOL , 36*songC6_mvl/mxv
 .byte   W03
 .byte   VOL , 37*songC6_mvl/mxv
 .byte   W02
 .byte   VOL , 37*songC6_mvl/mxv
 .byte   W01
 .byte   VOL , 38*songC6_mvl/mxv
 .byte   W03
 .byte   VOL , 38*songC6_mvl/mxv
 .byte   W03
 .byte   VOL , 39*songC6_mvl/mxv
 .byte   W24
 .byte   VOL , 38*songC6_mvl/mxv
 .byte   W02
 .byte   VOL , 38*songC6_mvl/mxv
 .byte   W03
 .byte   VOL , 38*songC6_mvl/mxv
 .byte   W01
 .byte   VOL , 37*songC6_mvl/mxv
 .byte   W02
 .byte   VOL , 37*songC6_mvl/mxv
 .byte   W01
 .byte   VOL , 36*songC6_mvl/mxv
 .byte   W02
 .byte   VOL , 35*songC6_mvl/mxv
 .byte   W01
 .byte   VOL , 33*songC6_mvl/mxv
 .byte   W02
 .byte   VOL , 32*songC6_mvl/mxv
 .byte   W01
 .byte   VOL , 31*songC6_mvl/mxv
 .byte   W02
 .byte   VOL , 30*songC6_mvl/mxv
 .byte   W01
 .byte   VOL , 29*songC6_mvl/mxv
 .byte   W02
 .byte   VOL , 28*songC6_mvl/mxv
 .byte   W01
 .byte   VOL , 28*songC6_mvl/mxv
 .byte   W02
 .byte   VOL , 26*songC6_mvl/mxv
 .byte   W01
 .byte   VOL , 25*songC6_mvl/mxv
 .byte   W02
 .byte   VOL , 24*songC6_mvl/mxv
 .byte   W01
 .byte   VOL , 22*songC6_mvl/mxv
 .byte   W02
 .byte   VOL , 20*songC6_mvl/mxv
 .byte   W01
 .byte   VOL , 19*songC6_mvl/mxv
 .byte   W02
 .byte   VOL , 17*songC6_mvl/mxv
 .byte   W01
 .byte   VOL , 16*songC6_mvl/mxv
 .byte   W02
@ 146   ----------------------------------------
 .byte   VOL , 14*songC6_mvl/mxv
 .byte   W01
 .byte   VOL , 12*songC6_mvl/mxv
 .byte   W02
 .byte   VOL , 9*songC6_mvl/mxv
 .byte   W01
 .byte   VOL , 6*songC6_mvl/mxv
 .byte   W02
 .byte   VOL , 2*songC6_mvl/mxv
 .byte   W01
 .byte   VOL , 0*songC6_mvl/mxv
 .byte   W05
 .byte   VOL , 38*songC6_mvl/mxv
 .byte   N11
 .byte   W12
 .byte   Fn4
 .byte   W12
 .byte   Gs4
 .byte   W12
 .byte   N23 ,Gn4
 .byte   W24
 .byte   N05 ,Fn4
 .byte   W12
 .byte   N23 ,Cn4
 .byte   W12
@ 147   ----------------------------------------
 .byte   W12
 .byte   N11 ,As3
 .byte   W12
 .byte   Gs3
 .byte   W12
 .byte   VOL , 31*songC6_mvl/mxv
 .byte   N64 ,Cn4
 .byte   W03
 .byte   VOL , 32*songC6_mvl/mxv
 .byte   W03
 .byte   VOL , 32*songC6_mvl/mxv
 .byte   W01
 .byte   VOL , 33*songC6_mvl/mxv
 .byte   W02
 .byte   VOL , 33*songC6_mvl/mxv
 .byte   W01
 .byte   VOL , 34*songC6_mvl/mxv
 .byte   W02
 .byte   VOL , 34*songC6_mvl/mxv
 .byte   W01
 .byte   VOL , 35*songC6_mvl/mxv
 .byte   W02
 .byte   VOL , 35*songC6_mvl/mxv
 .byte   W01
 .byte   VOL , 35*songC6_mvl/mxv
 .byte   W02
 .byte   VOL , 36*songC6_mvl/mxv
 .byte   W01
 .byte   VOL , 36*songC6_mvl/mxv
 .byte   W02
 .byte   VOL , 37*songC6_mvl/mxv
 .byte   W01
 .byte   VOL , 37*songC6_mvl/mxv
 .byte   W02
 .byte   VOL , 38*songC6_mvl/mxv
 .byte   W01
 .byte   VOL , 38*songC6_mvl/mxv
 .byte   W03
 .byte   VOL , 39*songC6_mvl/mxv
 .byte   W14
 .byte   VOL , 38*songC6_mvl/mxv
 .byte   W01
 .byte   VOL , 38*songC6_mvl/mxv
 .byte   W02
 .byte   VOL , 38*songC6_mvl/mxv
 .byte   W01
 .byte   VOL , 37*songC6_mvl/mxv
 .byte   W02
 .byte   VOL , 36*songC6_mvl/mxv
 .byte   W01
 .byte   VOL , 36*songC6_mvl/mxv
 .byte   W02
 .byte   VOL , 35*songC6_mvl/mxv
 .byte   W01
 .byte   VOL , 35*songC6_mvl/mxv
 .byte   W02
 .byte   VOL , 33*songC6_mvl/mxv
 .byte   W01
 .byte   VOL , 32*songC6_mvl/mxv
 .byte   W02
 .byte   VOL , 31*songC6_mvl/mxv
 .byte   W01
 .byte   VOL , 30*songC6_mvl/mxv
 .byte   W02
@ 148   ----------------------------------------
Label_6_014B0872:
 .byte   VOL , 28*songC6_mvl/mxv
 .byte   W01
 .byte   VOL , 26*songC6_mvl/mxv
 .byte   W02
 .byte   VOL , 25*songC6_mvl/mxv
 .byte   W01
 .byte   VOL , 23*songC6_mvl/mxv
 .byte   W02
 .byte   VOL , 21*songC6_mvl/mxv
 .byte   W01
 .byte   VOL , 19*songC6_mvl/mxv
 .byte   W02
 .byte   VOL , 17*songC6_mvl/mxv
 .byte   W01
 .byte   VOL , 14*songC6_mvl/mxv
 .byte   W02
 .byte   VOL , 38*songC6_mvl/mxv
 .byte   N11 ,Cn4 ,v100
 .byte   W12
 .byte   Fn4
 .byte   W12
 .byte   Gs4
 .byte   W12
 .byte   N23 ,As4
 .byte   W06
 .byte   VOL , 38*songC6_mvl/mxv
 .byte   W03
 .byte   VOL , 38*songC6_mvl/mxv
 .byte   W01
 .byte   VOL , 37*songC6_mvl/mxv
 .byte   W02
 .byte   VOL , 37*songC6_mvl/mxv
 .byte   W01
 .byte   VOL , 36*songC6_mvl/mxv
 .byte   W02
 .byte   VOL , 36*songC6_mvl/mxv
 .byte   W01
 .byte   VOL , 35*songC6_mvl/mxv
 .byte   W02
 .byte   VOL , 34*songC6_mvl/mxv
 .byte   W01
 .byte   VOL , 33*songC6_mvl/mxv
 .byte   W02
 .byte   VOL , 33*songC6_mvl/mxv
 .byte   W01
 .byte   VOL , 32*songC6_mvl/mxv
 .byte   W02
 .byte   VOL , 38*songC6_mvl/mxv
 .byte   N05 ,Gs4
 .byte   W12
 .byte   VOL , 38*songC6_mvl/mxv
 .byte   N23 ,Gn4
 .byte   W04
 .byte   VOL , 38*songC6_mvl/mxv
 .byte   W02
 .byte   VOL , 37*songC6_mvl/mxv
 .byte   W01
 .byte   VOL , 36*songC6_mvl/mxv
 .byte   W02
 .byte   VOL , 35*songC6_mvl/mxv
 .byte   W01
 .byte   VOL , 35*songC6_mvl/mxv
 .byte   W02
 .byte   PEND 
@ 149   ----------------------------------------
 .byte   As0
 .byte   W01
 .byte   An0
 .byte   W02
 .byte   An0
 .byte   W01
 .byte   Gs0
 .byte   W02
 .byte   Gn0
 .byte   W01
 .byte   Gn0
 .byte   W02
 .byte   Fn0
 .byte   W01
 .byte   Fn0
 .byte   W02
 .byte   Dn1
 .byte   N11 ,Gs4
 .byte   W12
 .byte   N05 ,As4
 .byte   W12
 .byte   VOL , 29*songC6_mvl/mxv
 .byte   N64 ,Cn5
 .byte   W03
 .byte   VOL , 29*songC6_mvl/mxv
 .byte   W01
 .byte   VOL , 30*songC6_mvl/mxv
 .byte   W02
 .byte   VOL , 30*songC6_mvl/mxv
 .byte   W01
 .byte   VOL , 31*songC6_mvl/mxv
 .byte   W02
 .byte   VOL , 32*songC6_mvl/mxv
 .byte   W01
 .byte   VOL , 33*songC6_mvl/mxv
 .byte   W02
 .byte   VOL , 33*songC6_mvl/mxv
 .byte   W01
 .byte   VOL , 34*songC6_mvl/mxv
 .byte   W02
 .byte   VOL , 35*songC6_mvl/mxv
 .byte   W01
 .byte   VOL , 36*songC6_mvl/mxv
 .byte   W02
 .byte   VOL , 37*songC6_mvl/mxv
 .byte   W01
 .byte   VOL , 38*songC6_mvl/mxv
 .byte   W02
 .byte   VOL , 38*songC6_mvl/mxv
 .byte   W01
 .byte   VOL , 38*songC6_mvl/mxv
 .byte   W17
 .byte   VOL , 38*songC6_mvl/mxv
 .byte   W01
 .byte   VOL , 37*songC6_mvl/mxv
 .byte   W02
 .byte   VOL , 37*songC6_mvl/mxv
 .byte   W01
 .byte   VOL , 36*songC6_mvl/mxv
 .byte   W02
 .byte   VOL , 36*songC6_mvl/mxv
 .byte   W01
 .byte   VOL , 35*songC6_mvl/mxv
 .byte   W02
 .byte   VOL , 34*songC6_mvl/mxv
 .byte   W01
 .byte   VOL , 33*songC6_mvl/mxv
 .byte   W02
 .byte   VOL , 32*songC6_mvl/mxv
 .byte   W01
 .byte   VOL , 31*songC6_mvl/mxv
 .byte   W02
 .byte   VOL , 30*songC6_mvl/mxv
 .byte   W01
 .byte   VOL , 28*songC6_mvl/mxv
 .byte   W02
 .byte   VOL , 27*songC6_mvl/mxv
 .byte   W01
 .byte   VOL , 24*songC6_mvl/mxv
 .byte   W02
@ 150   ----------------------------------------
Label_6_014B0910:
 .byte   VOL , 22*songC6_mvl/mxv
 .byte   W01
 .byte   VOL , 20*songC6_mvl/mxv
 .byte   W02
 .byte   VOL , 17*songC6_mvl/mxv
 .byte   W01
 .byte   VOL , 14*songC6_mvl/mxv
 .byte   W02
 .byte   VOL , 12*songC6_mvl/mxv
 .byte   W01
 .byte   VOL , 7*songC6_mvl/mxv
 .byte   W02
 .byte   VOL , 1*songC6_mvl/mxv
 .byte   W01
 .byte   VOL , 38*songC6_mvl/mxv
 .byte   W02
 .byte   N11 ,Fn4 ,v100
 .byte   W12
 .byte   Gs4
 .byte   W12
 .byte   As4
 .byte   W12
 .byte   VOL , 30*songC6_mvl/mxv
 .byte   N32 ,Cn5
 .byte   W04
 .byte   VOL , 30*songC6_mvl/mxv
 .byte   W02
 .byte   VOL , 31*songC6_mvl/mxv
 .byte   W01
 .byte   VOL , 31*songC6_mvl/mxv
 .byte   W02
 .byte   VOL , 31*songC6_mvl/mxv
 .byte   W01
 .byte   VOL , 32*songC6_mvl/mxv
 .byte   W03
 .byte   VOL , 32*songC6_mvl/mxv
 .byte   W02
 .byte   VOL , 33*songC6_mvl/mxv
 .byte   W03
 .byte   VOL , 33*songC6_mvl/mxv
 .byte   W01
 .byte   VOL , 33*songC6_mvl/mxv
 .byte   W02
 .byte   VOL , 34*songC6_mvl/mxv
 .byte   W03
 .byte   VOL , 35*songC6_mvl/mxv
 .byte   W01
 .byte   VOL , 35*songC6_mvl/mxv
 .byte   W02
 .byte   VOL , 35*songC6_mvl/mxv
 .byte   W01
 .byte   VOL , 36*songC6_mvl/mxv
 .byte   W02
 .byte   VOL , 36*songC6_mvl/mxv
 .byte   W01
 .byte   VOL , 37*songC6_mvl/mxv
 .byte   W03
 .byte   VOL , 38*songC6_mvl/mxv
 .byte   W02
 .byte   VOL , 38*songC6_mvl/mxv
 .byte   N05 ,As4
 .byte   W01
 .byte   VOL , 38*songC6_mvl/mxv
 .byte   W11
 .byte   PEND 
@ 151   ----------------------------------------
Label_6_014B0959:
 .byte   VOL , 38*songC6_mvl/mxv
 .byte   N28 ,As4 ,v100
 .byte   W07
 .byte   VOL , 38*songC6_mvl/mxv
 .byte   W02
 .byte   VOL , 37*songC6_mvl/mxv
 .byte   W01
 .byte   VOL , 36*songC6_mvl/mxv
 .byte   W02
 .byte   VOL , 36*songC6_mvl/mxv
 .byte   W01
 .byte   VOL , 35*songC6_mvl/mxv
 .byte   W02
 .byte   VOL , 34*songC6_mvl/mxv
 .byte   W01
 .byte   VOL , 34*songC6_mvl/mxv
 .byte   W02
 .byte   VOL , 33*songC6_mvl/mxv
 .byte   W01
 .byte   VOL , 31*songC6_mvl/mxv
 .byte   W02
 .byte   VOL , 30*songC6_mvl/mxv
 .byte   W01
 .byte   VOL , 29*songC6_mvl/mxv
 .byte   W02
 .byte   VOL , 28*songC6_mvl/mxv
 .byte   W01
 .byte   VOL , 27*songC6_mvl/mxv
 .byte   W02
 .byte   VOL , 26*songC6_mvl/mxv
 .byte   W01
 .byte   VOL , 24*songC6_mvl/mxv
 .byte   W02
 .byte   VOL , 22*songC6_mvl/mxv
 .byte   W01
 .byte   VOL , 19*songC6_mvl/mxv
 .byte   W02
 .byte   VOL , 17*songC6_mvl/mxv
 .byte   W01
 .byte   VOL , 14*songC6_mvl/mxv
 .byte   W02
 .byte   VOL , 38*songC6_mvl/mxv
 .byte   N05 ,Gs4
 .byte   W06
 .byte   As4
 .byte   W06
 .byte   N17 ,Cn5
 .byte   W18
 .byte   Cs5
 .byte   W18
 .byte   N11 ,Cn5
 .byte   W12
 .byte   PEND 
@ 152   ----------------------------------------
Label_6_014B0995:
 .byte   N23 ,As4 ,v100
 .byte   W24
 .byte   N17 ,Gn4
 .byte   W24
 .byte   N32
 .byte   W36
 .byte   N11 ,Gs4
 .byte   W12
 .byte   PEND 
@ 153   ----------------------------------------
Label_6_014B09A2:
 .byte   VOL , 29*songC6_mvl/mxv
 .byte   TIE ,Fn4 ,v100
 .byte   W03
 .byte   VOL , 30*songC6_mvl/mxv
 .byte   W01
 .byte   VOL , 30*songC6_mvl/mxv
 .byte   W03
 .byte   VOL , 31*songC6_mvl/mxv
 .byte   W02
 .byte   VOL , 31*songC6_mvl/mxv
 .byte   W01
 .byte   VOL , 31*songC6_mvl/mxv
 .byte   W02
 .byte   VOL , 32*songC6_mvl/mxv
 .byte   W01
 .byte   VOL , 32*songC6_mvl/mxv
 .byte   W03
 .byte   VOL , 33*songC6_mvl/mxv
 .byte   W02
 .byte   VOL , 33*songC6_mvl/mxv
 .byte   W03
 .byte   VOL , 34*songC6_mvl/mxv
 .byte   W01
 .byte   VOL , 34*songC6_mvl/mxv
 .byte   W03
 .byte   VOL , 35*songC6_mvl/mxv
 .byte   W03
 .byte   VOL , 35*songC6_mvl/mxv
 .byte   W02
 .byte   VOL , 36*songC6_mvl/mxv
 .byte   W01
 .byte   VOL , 36*songC6_mvl/mxv
 .byte   W02
 .byte   VOL , 36*songC6_mvl/mxv
 .byte   W01
 .byte   VOL , 37*songC6_mvl/mxv
 .byte   W02
 .byte   VOL , 37*songC6_mvl/mxv
 .byte   W04
 .byte   VOL , 37*songC6_mvl/mxv
 .byte   W23
 .byte   VOL , 37*songC6_mvl/mxv
 .byte   W04
 .byte   VOL , 37*songC6_mvl/mxv
 .byte   W03
 .byte   VOL , 36*songC6_mvl/mxv
 .byte   W02
 .byte   VOL , 36*songC6_mvl/mxv
 .byte   W01
 .byte   VOL , 36*songC6_mvl/mxv
 .byte   W02
 .byte   VOL , 35*songC6_mvl/mxv
 .byte   W01
 .byte   VOL , 35*songC6_mvl/mxv
 .byte   W02
 .byte   VOL , 35*songC6_mvl/mxv
 .byte   W01
 .byte   VOL , 34*songC6_mvl/mxv
 .byte   W02
 .byte   VOL , 33*songC6_mvl/mxv
 .byte   W01
 .byte   VOL , 33*songC6_mvl/mxv
 .byte   W02
 .byte   VOL , 32*songC6_mvl/mxv
 .byte   W01
 .byte   VOL , 31*songC6_mvl/mxv
 .byte   W02
 .byte   VOL , 31*songC6_mvl/mxv
 .byte   W01
 .byte   VOL , 30*songC6_mvl/mxv
 .byte   W02
 .byte   VOL , 29*songC6_mvl/mxv
 .byte   W01
 .byte   VOL , 28*songC6_mvl/mxv
 .byte   W02
 .byte   VOL , 27*songC6_mvl/mxv
 .byte   W01
 .byte   VOL , 27*songC6_mvl/mxv
 .byte   W02
 .byte   PEND 
@ 154   ----------------------------------------
 .byte   PATT
  .word Label_6_014AFF3F
@ 155   ----------------------------------------
 .byte   EOT
 .byte   Fn4
 .byte   W01
 .byte   VOL , 0*songC6_mvl/mxv
 .byte   W42
 .byte   VOL , 29*songC6_mvl/mxv
 .byte   N32 ,Fn4 ,v100
 .byte   W01
 .byte   VOL , 30*songC6_mvl/mxv
 .byte   W02
 .byte   VOL , 31*songC6_mvl/mxv
 .byte   W01
 .byte   VOL , 31*songC6_mvl/mxv
 .byte   W02
 .byte   VOL , 32*songC6_mvl/mxv
 .byte   W01
 .byte   VOL , 32*songC6_mvl/mxv
 .byte   W02
 .byte   VOL , 33*songC6_mvl/mxv
 .byte   W01
 .byte   VOL , 34*songC6_mvl/mxv
 .byte   W02
 .byte   VOL , 34*songC6_mvl/mxv
 .byte   W03
 .byte   VOL , 35*songC6_mvl/mxv
 .byte   W01
 .byte   VOL , 35*songC6_mvl/mxv
 .byte   W02
 .byte   VOL , 36*songC6_mvl/mxv
 .byte   W01
 .byte   VOL , 37*songC6_mvl/mxv
 .byte   W02
 .byte   VOL , 37*songC6_mvl/mxv
 .byte   W03
 .byte   VOL , 37*songC6_mvl/mxv
 .byte   W04
 .byte   VOL , 38*songC6_mvl/mxv
 .byte   W02
 .byte   VOL , 38*songC6_mvl/mxv
 .byte   W01
 .byte   VOL , 38*songC6_mvl/mxv
 .byte   W05
 .byte   N11 ,Ds4
 .byte   W12
 .byte   Dn4 ,v084
 .byte   W12
@ 156   ----------------------------------------
 .byte   Cn4 ,v100
 .byte   W12
 .byte   Dn4
 .byte   W12
 .byte   Cn4
 .byte   W12
 .byte   As3 ,v080
 .byte   W12
 .byte   Gs3 ,v068
 .byte   W12
 .byte   As3 ,v100
 .byte   W12
 .byte   Gs3 ,v068
 .byte   W12
 .byte   Gn3 ,v100
 .byte   W12
@ 157   ----------------------------------------
 .byte   Fn3 ,v088
 .byte   W12
 .byte   Cs3 ,v100
 .byte   W12
 .byte   N07 ,Ds3 ,v084
 .byte   W12
 .byte   N05 ,Cs3 ,v100
 .byte   W06
 .byte   Ds3
 .byte   W06
 .byte   Fn3
 .byte   W06
 .byte   Gn3
 .byte   W06
 .byte   Fn3
 .byte   W06
 .byte   Gn3
 .byte   W06
 .byte   Gs3
 .byte   W06
 .byte   As3
 .byte   W06
 .byte   N05
 .byte   W06
 .byte   Cn4
 .byte   W06
@ 158   ----------------------------------------
 .byte   Cs4
 .byte   W06
 .byte   Ds4
 .byte   W06
 .byte   Fn4
 .byte   W06
 .byte   Gn4
 .byte   W06
 .byte   Gs4
 .byte   W06
 .byte   As4
 .byte   W06
 .byte   Cn5
 .byte   W06
 .byte   As4
 .byte   W06
 .byte   Gs4
 .byte   W06
 .byte   Gn4
 .byte   W06
 .byte   Gs4
 .byte   W06
 .byte   Gn4
 .byte   W06
 .byte   Fn4
 .byte   W06
 .byte   Ds4
 .byte   W06
 .byte   Cs4
 .byte   W06
 .byte   Cn4
 .byte   W06
@ 159   ----------------------------------------
 .byte   N10 ,As3
 .byte   W12
 .byte   N05 ,Gn3
 .byte   W06
 .byte   Gs3
 .byte   W06
 .byte   N10 ,As3
 .byte   W12
 .byte   N05 ,Gs3
 .byte   W06
 .byte   As3
 .byte   W06
 .byte   Cn4
 .byte   W12
 .byte   As3
 .byte   W06
 .byte   Cn4
 .byte   W06
 .byte   Cs4
 .byte   W12
 .byte   Cn4
 .byte   W06
 .byte   Cs4
 .byte   W06
@ 160   ----------------------------------------
 .byte   Ds4
 .byte   W06
 .byte   Fn4
 .byte   W06
 .byte   Gn4
 .byte   W06
 .byte   Gs4
 .byte   W06
 .byte   As4
 .byte   W06
 .byte   Cn5
 .byte   W06
 .byte   As4
 .byte   W06
 .byte   Gs4
 .byte   W06
 .byte   As4
 .byte   W06
 .byte   Gs4
 .byte   W06
 .byte   Gn4
 .byte   W06
 .byte   Fn4
 .byte   W06
 .byte   Ds4
 .byte   W06
 .byte   Fn4
 .byte   W06
 .byte   Gn4
 .byte   W06
 .byte   Fn4
 .byte   W06
@ 161   ----------------------------------------
 .byte   N11 ,Gn4
 .byte   W12
 .byte   N05 ,Cn5
 .byte   W06
 .byte   As4
 .byte   W06
 .byte   N11 ,Cn5
 .byte   W12
 .byte   N05 ,Ds5
 .byte   W06
 .byte   Cs5
 .byte   W06
 .byte   Cn5
 .byte   W06
 .byte   As4
 .byte   W06
 .byte   Cn5
 .byte   W06
 .byte   As4
 .byte   W06
 .byte   Gs4
 .byte   W06
 .byte   Gn4
 .byte   W06
 .byte   As4
 .byte   W06
 .byte   Gs4
 .byte   W06
@ 162   ----------------------------------------
 .byte   Gn4
 .byte   W06
 .byte   Fn4
 .byte   W06
 .byte   Gn4
 .byte   W06
 .byte   Fn4
 .byte   W06
 .byte   Ds4
 .byte   W06
 .byte   Cs4
 .byte   W06
 .byte   Fn4
 .byte   W06
 .byte   Ds4
 .byte   W06
 .byte   Cs4
 .byte   W06
 .byte   Cn4
 .byte   W06
 .byte   En4
 .byte   W06
 .byte   Fn4
 .byte   W06
 .byte   Gn4
 .byte   W06
 .byte   Gs4
 .byte   W06
 .byte   Cn5
 .byte   W06
 .byte   As4
 .byte   W06
@ 163   ----------------------------------------
 .byte   Gs4
 .byte   W06
 .byte   Gn4
 .byte   W06
 .byte   N32 ,Fn4
 .byte   W06
 .byte   VOL , 38*songC6_mvl/mxv
 .byte   W01
 .byte   VOL , 37*songC6_mvl/mxv
 .byte   W02
 .byte   VOL , 37*songC6_mvl/mxv
 .byte   W01
 .byte   VOL , 36*songC6_mvl/mxv
 .byte   W02
 .byte   VOL , 36*songC6_mvl/mxv
 .byte   W01
 .byte   VOL , 35*songC6_mvl/mxv
 .byte   W02
 .byte   VOL , 34*songC6_mvl/mxv
 .byte   W01
 .byte   VOL , 34*songC6_mvl/mxv
 .byte   W02
 .byte   VOL , 33*songC6_mvl/mxv
 .byte   W01
 .byte   VOL , 33*songC6_mvl/mxv
 .byte   W02
 .byte   VOL , 32*songC6_mvl/mxv
 .byte   W01
 .byte   VOL , 31*songC6_mvl/mxv
 .byte   W02
 .byte   VOL , 31*songC6_mvl/mxv
 .byte   W01
 .byte   VOL , 30*songC6_mvl/mxv
 .byte   W02
 .byte   VOL , 30*songC6_mvl/mxv
 .byte   W01
 .byte   VOL , 29*songC6_mvl/mxv
 .byte   W02
 .byte   VOL , 28*songC6_mvl/mxv
 .byte   W01
 .byte   VOL , 27*songC6_mvl/mxv
 .byte   W02
 .byte   VOL , 25*songC6_mvl/mxv
 .byte   W01
 .byte   VOL , 24*songC6_mvl/mxv
 .byte   W02
 .byte   VOL , 38*songC6_mvl/mxv
 .byte   N05 ,Gs3
 .byte   W06
 .byte   As3
 .byte   W06
 .byte   N11 ,Cn4
 .byte   W12
 .byte   Cs4
 .byte   W12
 .byte   Ds4
 .byte   W12
@ 164   ----------------------------------------
 .byte   Cs4
 .byte   W12
 .byte   Cn4
 .byte   W12
 .byte   As3
 .byte   W12
 .byte   N32 ,Cn4
 .byte   W06
 .byte   VOL , 38*songC6_mvl/mxv
 .byte   W01
 .byte   VOL , 38*songC6_mvl/mxv
 .byte   W02
 .byte   VOL , 37*songC6_mvl/mxv
 .byte   W01
 .byte   VOL , 36*songC6_mvl/mxv
 .byte   W02
 .byte   VOL , 36*songC6_mvl/mxv
 .byte   W01
 .byte   VOL , 36*songC6_mvl/mxv
 .byte   W02
 .byte   VOL , 35*songC6_mvl/mxv
 .byte   W01
 .byte   VOL , 35*songC6_mvl/mxv
 .byte   W02
 .byte   VOL , 34*songC6_mvl/mxv
 .byte   W01
 .byte   VOL , 34*songC6_mvl/mxv
 .byte   W02
 .byte   VOL , 33*songC6_mvl/mxv
 .byte   W01
 .byte   VOL , 32*songC6_mvl/mxv
 .byte   W02
 .byte   VOL , 32*songC6_mvl/mxv
 .byte   W01
 .byte   VOL , 32*songC6_mvl/mxv
 .byte   W02
 .byte   VOL , 31*songC6_mvl/mxv
 .byte   W01
 .byte   VOL , 30*songC6_mvl/mxv
 .byte   W02
 .byte   VOL , 30*songC6_mvl/mxv
 .byte   W01
 .byte   VOL , 29*songC6_mvl/mxv
 .byte   W02
 .byte   VOL , 29*songC6_mvl/mxv
 .byte   W01
 .byte   VOL , 28*songC6_mvl/mxv
 .byte   W02
 .byte   VOL , 38*songC6_mvl/mxv
 .byte   N11
 .byte   W12
 .byte   Gn4
 .byte   W12
@ 165   ----------------------------------------
 .byte   Gs4
 .byte   W12
 .byte   Gn4
 .byte   W12
 .byte   Fn4
 .byte   W12
 .byte   N32 ,Cn4
 .byte   W24
 .byte   W12
 .byte   N11 ,As3
 .byte   W12
 .byte   Cn4 ,v096
 .byte   W12
@ 166   ----------------------------------------
 .byte   N23 ,Fn3 ,v076
 .byte   W01
 .byte   VOL , 38*songC6_mvl/mxv
 .byte   W02
 .byte   VOL , 38*songC6_mvl/mxv
 .byte   W03
 .byte   VOL , 38*songC6_mvl/mxv
 .byte   W01
 .byte   VOL , 37*songC6_mvl/mxv
 .byte   W02
 .byte   VOL , 37*songC6_mvl/mxv
 .byte   W01
 .byte   VOL , 37*songC6_mvl/mxv
 .byte   W02
 .byte   VOL , 36*songC6_mvl/mxv
 .byte   W01
 .byte   VOL , 35*songC6_mvl/mxv
 .byte   W02
 .byte   VOL , 34*songC6_mvl/mxv
 .byte   W01
 .byte   VOL , 34*songC6_mvl/mxv
 .byte   W03
 .byte   VOL , 33*songC6_mvl/mxv
 .byte   W05
 .byte   N44 ,Fn4 ,v084
 .byte   W03
 .byte   VOL , 34*songC6_mvl/mxv
 .byte   W03
 .byte   VOL , 34*songC6_mvl/mxv
 .byte   W01
 .byte   VOL , 35*songC6_mvl/mxv
 .byte   W02
 .byte   VOL , 36*songC6_mvl/mxv
 .byte   W01
 .byte   VOL , 36*songC6_mvl/mxv
 .byte   W02
 .byte   VOL , 37*songC6_mvl/mxv
 .byte   W01
 .byte   VOL , 38*songC6_mvl/mxv
 .byte   W02
 .byte   VOL , 38*songC6_mvl/mxv
 .byte   W03
 .byte   VOL , 38*songC6_mvl/mxv
 .byte   W04
 .byte   VOL , 38*songC6_mvl/mxv
 .byte   W03
 .byte   VOL , 37*songC6_mvl/mxv
 .byte   W02
 .byte   VOL , 37*songC6_mvl/mxv
 .byte   W01
 .byte   VOL , 37*songC6_mvl/mxv
 .byte   W02
 .byte   VOL , 36*songC6_mvl/mxv
 .byte   W01
 .byte   VOL , 35*songC6_mvl/mxv
 .byte   W03
 .byte   VOL , 34*songC6_mvl/mxv
 .byte   W02
 .byte   VOL , 33*songC6_mvl/mxv
 .byte   W01
 .byte   VOL , 33*songC6_mvl/mxv
 .byte   W02
 .byte   VOL , 32*songC6_mvl/mxv
 .byte   W01
 .byte   VOL , 31*songC6_mvl/mxv
 .byte   W02
 .byte   VOL , 30*songC6_mvl/mxv
 .byte   W01
 .byte   VOL , 29*songC6_mvl/mxv
 .byte   W02
 .byte   VOL , 27*songC6_mvl/mxv
 .byte   W01
 .byte   VOL , 26*songC6_mvl/mxv
 .byte   W02
 .byte   VOL , 38*songC6_mvl/mxv
 .byte   N11 ,Gs4 ,v100
 .byte   W12
 .byte   As4
 .byte   W12
@ 167   ----------------------------------------
 .byte   Cn5
 .byte   W12
 .byte   N05 ,Ds5
 .byte   W06
 .byte   Cn5
 .byte   W06
 .byte   As4
 .byte   W06
 .byte   Gs4
 .byte   W06
 .byte   As4
 .byte   W06
 .byte   Gs4
 .byte   W06
 .byte   As4
 .byte   W06
 .byte   Cn5
 .byte   W06
 .byte   N28 ,As4
 .byte   W06
 .byte   VOL , 38*songC6_mvl/mxv
 .byte   W01
 .byte   VOL , 38*songC6_mvl/mxv
 .byte   W02
 .byte   VOL , 37*songC6_mvl/mxv
 .byte   W01
 .byte   VOL , 37*songC6_mvl/mxv
 .byte   W02
 .byte   VOL , 36*songC6_mvl/mxv
 .byte   W01
 .byte   VOL , 36*songC6_mvl/mxv
 .byte   W02
 .byte   VOL , 36*songC6_mvl/mxv
 .byte   W01
 .byte   VOL , 35*songC6_mvl/mxv
 .byte   W02
 .byte   VOL , 34*songC6_mvl/mxv
 .byte   W01
 .byte   VOL , 33*songC6_mvl/mxv
 .byte   W02
 .byte   VOL , 32*songC6_mvl/mxv
 .byte   W01
 .byte   VOL , 32*songC6_mvl/mxv
 .byte   W02
 .byte   VOL , 31*songC6_mvl/mxv
 .byte   W01
 .byte   VOL , 31*songC6_mvl/mxv
 .byte   W02
 .byte   VOL , 30*songC6_mvl/mxv
 .byte   W01
 .byte   VOL , 29*songC6_mvl/mxv
 .byte   W02
 .byte   VOL , 28*songC6_mvl/mxv
 .byte   W01
 .byte   VOL , 27*songC6_mvl/mxv
 .byte   W02
 .byte   VOL , 26*songC6_mvl/mxv
 .byte   W01
 .byte   VOL , 26*songC6_mvl/mxv
 .byte   W02
@ 168   ----------------------------------------
 .byte   VOL , 38*songC6_mvl/mxv
 .byte   N05 ,Gs4
 .byte   W06
 .byte   As4
 .byte   W06
 .byte   Cn5
 .byte   W06
 .byte   Cs5
 .byte   W06
 .byte   Cn5
 .byte   W06
 .byte   As4
 .byte   W06
 .byte   Gs4
 .byte   W06
 .byte   Gn4
 .byte   W06
 .byte   Fn4
 .byte   W06
 .byte   Ds4
 .byte   W06
 .byte   Gn4
 .byte   W06
 .byte   Gs4
 .byte   W06
 .byte   Gn4
 .byte   W06
 .byte   Fn4
 .byte   W06
 .byte   N23 ,Ds4
 .byte   W01
 .byte   VOL , 38*songC6_mvl/mxv
 .byte   W03
 .byte   VOL , 37*songC6_mvl/mxv
 .byte   W02
 .byte   VOL , 37*songC6_mvl/mxv
 .byte   W01
 .byte   VOL , 36*songC6_mvl/mxv
 .byte   W03
 .byte   VOL , 36*songC6_mvl/mxv
 .byte   W02
@ 169   ----------------------------------------
 .byte   VOL , 34*songC6_mvl/mxv
 .byte   W01
 .byte   VOL , 33*songC6_mvl/mxv
 .byte   W02
 .byte   VOL , 31*songC6_mvl/mxv
 .byte   W01
 .byte   VOL , 29*songC6_mvl/mxv
 .byte   W02
 .byte   VOL , 27*songC6_mvl/mxv
 .byte   W01
 .byte   VOL , 25*songC6_mvl/mxv
 .byte   W02
 .byte   VOL , 22*songC6_mvl/mxv
 .byte   W01
 .byte   VOL , 13*songC6_mvl/mxv
 .byte   W02
 .byte   VOL , 38*songC6_mvl/mxv
 .byte   N32 ,Gn4
 .byte   W10
 .byte   VOL , 38*songC6_mvl/mxv
 .byte   W02
 .byte   VOL , 37*songC6_mvl/mxv
 .byte   W01
 .byte   VOL , 37*songC6_mvl/mxv
 .byte   W02
 .byte   VOL , 36*songC6_mvl/mxv
 .byte   W01
 .byte   VOL , 36*songC6_mvl/mxv
 .byte   W02
 .byte   VOL , 35*songC6_mvl/mxv
 .byte   W01
 .byte   VOL , 34*songC6_mvl/mxv
 .byte   W02
 .byte   VOL , 34*songC6_mvl/mxv
 .byte   W01
 .byte   VOL , 33*songC6_mvl/mxv
 .byte   W02
 .byte   VOL , 32*songC6_mvl/mxv
 .byte   W01
 .byte   VOL , 31*songC6_mvl/mxv
 .byte   W02
 .byte   VOL , 30*songC6_mvl/mxv
 .byte   W01
 .byte   VOL , 29*songC6_mvl/mxv
 .byte   W02
 .byte   VOL , 29*songC6_mvl/mxv
 .byte   W01
 .byte   VOL , 28*songC6_mvl/mxv
 .byte   W02
 .byte   VOL , 27*songC6_mvl/mxv
 .byte   W01
 .byte   VOL , 26*songC6_mvl/mxv
 .byte   W02
 .byte   VOL , 38*songC6_mvl/mxv
 .byte   N11 ,Gs4
 .byte   W12
 .byte   VOL , 31*songC6_mvl/mxv
 .byte   N92 ,Fn4
 .byte   W01
 .byte   VOL , 31*songC6_mvl/mxv
 .byte   W02
 .byte   VOL , 32*songC6_mvl/mxv
 .byte   W01
 .byte   VOL , 32*songC6_mvl/mxv
 .byte   W02
 .byte   VOL , 32*songC6_mvl/mxv
 .byte   W01
 .byte   VOL , 33*songC6_mvl/mxv
 .byte   W02
 .byte   VOL , 33*songC6_mvl/mxv
 .byte   W01
 .byte   VOL , 33*songC6_mvl/mxv
 .byte   W02
 .byte   VOL , 34*songC6_mvl/mxv
 .byte   W01
 .byte   VOL , 34*songC6_mvl/mxv
 .byte   W02
 .byte   VOL , 35*songC6_mvl/mxv
 .byte   W01
 .byte   VOL , 35*songC6_mvl/mxv
 .byte   W02
 .byte   VOL , 36*songC6_mvl/mxv
 .byte   W01
 .byte   VOL , 36*songC6_mvl/mxv
 .byte   W02
 .byte   VOL , 36*songC6_mvl/mxv
 .byte   W03
 .byte   VOL , 37*songC6_mvl/mxv
 .byte   W04
 .byte   VOL , 37*songC6_mvl/mxv
 .byte   W03
 .byte   VOL , 38*songC6_mvl/mxv
 .byte   W02
 .byte   VOL , 38*songC6_mvl/mxv
 .byte   W09
@ 170   ----------------------------------------
 .byte   VOL , 38*songC6_mvl/mxv
 .byte   W01
 .byte   VOL , 39*songC6_mvl/mxv
 .byte   W18
 .byte   VOL , 38*songC6_mvl/mxv
 .byte   W03
 .byte   VOL , 38*songC6_mvl/mxv
 .byte   W03
 .byte   VOL , 38*songC6_mvl/mxv
 .byte   W02
 .byte   VOL , 37*songC6_mvl/mxv
 .byte   W03
 .byte   VOL , 37*songC6_mvl/mxv
 .byte   W01
 .byte   VOL , 36*songC6_mvl/mxv
 .byte   W02
 .byte   VOL , 36*songC6_mvl/mxv
 .byte   W03
 .byte   VOL , 35*songC6_mvl/mxv
 .byte   W01
 .byte   VOL , 34*songC6_mvl/mxv
 .byte   W02
 .byte   VOL , 34*songC6_mvl/mxv
 .byte   W01
 .byte   VOL , 34*songC6_mvl/mxv
 .byte   W02
 .byte   VOL , 33*songC6_mvl/mxv
 .byte   W01
 .byte   VOL , 32*songC6_mvl/mxv
 .byte   W02
 .byte   VOL , 32*songC6_mvl/mxv
 .byte   W01
 .byte   VOL , 31*songC6_mvl/mxv
 .byte   W02
 .byte   VOL , 30*songC6_mvl/mxv
 .byte   W01
 .byte   VOL , 29*songC6_mvl/mxv
 .byte   W02
 .byte   VOL , 28*songC6_mvl/mxv
 .byte   W01
 .byte   VOL , 27*songC6_mvl/mxv
 .byte   W02
 .byte   VOL , 26*songC6_mvl/mxv
 .byte   W01
 .byte   VOL , 24*songC6_mvl/mxv
 .byte   W02
 .byte   VOL , 22*songC6_mvl/mxv
 .byte   W01
 .byte   VOL , 19*songC6_mvl/mxv
 .byte   W02
 .byte   VOL , 17*songC6_mvl/mxv
 .byte   W01
 .byte   VOL , 15*songC6_mvl/mxv
 .byte   W02
 .byte   VOL , 13*songC6_mvl/mxv
 .byte   W01
 .byte   VOL , 12*songC6_mvl/mxv
 .byte   W02
 .byte   VOL , 38*songC6_mvl/mxv
 .byte   N11 ,Cn4
 .byte   W12
 .byte   Fn4
 .byte   W12
 .byte   Gs4
 .byte   W12
@ 171   ----------------------------------------
 .byte   VOL , 32*songC6_mvl/mxv
 .byte   N23 ,Gn4
 .byte   W01
 .byte   VOL , 33*songC6_mvl/mxv
 .byte   W02
 .byte   VOL , 33*songC6_mvl/mxv
 .byte   W01
 .byte   VOL , 34*songC6_mvl/mxv
 .byte   W02
 .byte   VOL , 35*songC6_mvl/mxv
 .byte   W01
 .byte   VOL , 35*songC6_mvl/mxv
 .byte   W02
 .byte   VOL , 36*songC6_mvl/mxv
 .byte   W01
 .byte   VOL , 37*songC6_mvl/mxv
 .byte   W02
 .byte   VOL , 38*songC6_mvl/mxv
 .byte   W01
 .byte   VOL , 38*songC6_mvl/mxv
 .byte   W02
 .byte   VOL , 38*songC6_mvl/mxv
 .byte   W09
 .byte   N07 ,Fn4
 .byte   W12
 .byte   VOL , 31*songC6_mvl/mxv
 .byte   N23 ,Cn4
 .byte   W01
 .byte   VOL , 32*songC6_mvl/mxv
 .byte   W02
 .byte   VOL , 33*songC6_mvl/mxv
 .byte   W01
 .byte   VOL , 33*songC6_mvl/mxv
 .byte   W02
 .byte   VOL , 34*songC6_mvl/mxv
 .byte   W01
 .byte   VOL , 34*songC6_mvl/mxv
 .byte   W02
 .byte   VOL , 35*songC6_mvl/mxv
 .byte   W01
 .byte   VOL , 36*songC6_mvl/mxv
 .byte   W02
@ 172   ----------------------------------------
 .byte   PATT
  .word Label_6_014B0691
@ 173   ----------------------------------------
 .byte   VOL , 23*songC6_mvl/mxv
 .byte   W01
 .byte   VOL , 21*songC6_mvl/mxv
 .byte   W02
 .byte   VOL , 20*songC6_mvl/mxv
 .byte   W01
 .byte   VOL , 19*songC6_mvl/mxv
 .byte   W02
 .byte   VOL , 18*songC6_mvl/mxv
 .byte   W01
 .byte   VOL , 14*songC6_mvl/mxv
 .byte   W02
 .byte   VOL , 13*songC6_mvl/mxv
 .byte   W01
 .byte   VOL , 12*songC6_mvl/mxv
 .byte   W02
 .byte   VOL , 38*songC6_mvl/mxv
 .byte   N11 ,Cn4 ,v100
 .byte   W12
 .byte   Fn4
 .byte   W12
 .byte   Gs4
 .byte   W12
 .byte   N23 ,Gn4
 .byte   W24
 .byte   N07 ,Fn4
 .byte   W12
 .byte   N23 ,Cn4
 .byte   W12
@ 174   ----------------------------------------
 .byte   PATT
  .word Label_6_014B06FB
@ 175   ----------------------------------------
 .byte   PATT
  .word Label_6_014B073D
@ 176   ----------------------------------------
 .byte   PATT
  .word Label_6_014B075E
@ 177   ----------------------------------------
 .byte   PATT
  .word Label_6_014B0790
@ 178   ----------------------------------------
 .byte   VOL , 31*songC6_mvl/mxv
 .byte   N23 ,Cn4 ,v100
 .byte   W01
 .byte   VOL , 31*songC6_mvl/mxv
 .byte   W02
 .byte   VOL , 32*songC6_mvl/mxv
 .byte   W01
 .byte   VOL , 33*songC6_mvl/mxv
 .byte   W02
 .byte   VOL , 34*songC6_mvl/mxv
 .byte   W01
 .byte   VOL , 35*songC6_mvl/mxv
 .byte   W02
 .byte   VOL , 36*songC6_mvl/mxv
 .byte   W01
 .byte   VOL , 36*songC6_mvl/mxv
 .byte   W02
 .byte   VOL , 37*songC6_mvl/mxv
 .byte   W01
 .byte   VOL , 37*songC6_mvl/mxv
 .byte   W02
 .byte   VOL , 38*songC6_mvl/mxv
 .byte   W01
 .byte   VOL , 38*songC6_mvl/mxv
 .byte   W08
 .byte   N23 ,Cn5
 .byte   W24
 .byte   As4
 .byte   W24
 .byte   Gs4
 .byte   W24
@ 179   ----------------------------------------
 .byte   N11 ,Gn4 ,v092
 .byte   W12
 .byte   Cn4 ,v100
 .byte   W12
 .byte   Fn4
 .byte   W12
 .byte   Gs4
 .byte   W12
 .byte   N23 ,Gn4
 .byte   W24
 .byte   N05 ,Fn4
 .byte   W12
 .byte   N23 ,Cn4
 .byte   W12
@ 180   ----------------------------------------
 .byte   W12
 .byte   N11 ,As3
 .byte   W12
 .byte   Gs3
 .byte   W12
 .byte   VOL , 31*songC6_mvl/mxv
 .byte   N56 ,Cn4
 .byte   W03
 .byte   VOL , 32*songC6_mvl/mxv
 .byte   W03
 .byte   VOL , 32*songC6_mvl/mxv
 .byte   W01
 .byte   VOL , 33*songC6_mvl/mxv
 .byte   W02
 .byte   VOL , 33*songC6_mvl/mxv
 .byte   W01
 .byte   VOL , 34*songC6_mvl/mxv
 .byte   W02
 .byte   VOL , 34*songC6_mvl/mxv
 .byte   W01
 .byte   VOL , 35*songC6_mvl/mxv
 .byte   W02
 .byte   VOL , 35*songC6_mvl/mxv
 .byte   W01
 .byte   VOL , 35*songC6_mvl/mxv
 .byte   W02
 .byte   VOL , 36*songC6_mvl/mxv
 .byte   W01
 .byte   VOL , 36*songC6_mvl/mxv
 .byte   W02
 .byte   VOL , 37*songC6_mvl/mxv
 .byte   W01
 .byte   VOL , 37*songC6_mvl/mxv
 .byte   W02
 .byte   VOL , 38*songC6_mvl/mxv
 .byte   W01
 .byte   VOL , 38*songC6_mvl/mxv
 .byte   W03
 .byte   VOL , 39*songC6_mvl/mxv
 .byte   W14
 .byte   VOL , 38*songC6_mvl/mxv
 .byte   W01
 .byte   VOL , 38*songC6_mvl/mxv
 .byte   W02
 .byte   VOL , 38*songC6_mvl/mxv
 .byte   W01
 .byte   VOL , 37*songC6_mvl/mxv
 .byte   W02
 .byte   VOL , 36*songC6_mvl/mxv
 .byte   W01
 .byte   VOL , 36*songC6_mvl/mxv
 .byte   W02
 .byte   VOL , 35*songC6_mvl/mxv
 .byte   W01
 .byte   VOL , 35*songC6_mvl/mxv
 .byte   W02
 .byte   VOL , 33*songC6_mvl/mxv
 .byte   W01
 .byte   VOL , 32*songC6_mvl/mxv
 .byte   W02
 .byte   VOL , 31*songC6_mvl/mxv
 .byte   W01
 .byte   VOL , 30*songC6_mvl/mxv
 .byte   W02
@ 181   ----------------------------------------
 .byte   PATT
  .word Label_6_014B0872
@ 182   ----------------------------------------
 .byte   VOL , 34*songC6_mvl/mxv
 .byte   W01
 .byte   VOL , 33*songC6_mvl/mxv
 .byte   W02
 .byte   VOL , 33*songC6_mvl/mxv
 .byte   W01
 .byte   VOL , 32*songC6_mvl/mxv
 .byte   W02
 .byte   VOL , 31*songC6_mvl/mxv
 .byte   W01
 .byte   VOL , 31*songC6_mvl/mxv
 .byte   W02
 .byte   VOL , 29*songC6_mvl/mxv
 .byte   W01
 .byte   VOL , 29*songC6_mvl/mxv
 .byte   W02
 .byte   VOL , 38*songC6_mvl/mxv
 .byte   N11 ,Gs4 ,v100
 .byte   W12
 .byte   As4
 .byte   W12
 .byte   VOL , 29*songC6_mvl/mxv
 .byte   N56 ,Cn5
 .byte   W03
 .byte   VOL , 29*songC6_mvl/mxv
 .byte   W01
 .byte   VOL , 30*songC6_mvl/mxv
 .byte   W02
 .byte   VOL , 30*songC6_mvl/mxv
 .byte   W01
 .byte   VOL , 31*songC6_mvl/mxv
 .byte   W02
 .byte   VOL , 32*songC6_mvl/mxv
 .byte   W01
 .byte   VOL , 33*songC6_mvl/mxv
 .byte   W02
 .byte   VOL , 33*songC6_mvl/mxv
 .byte   W01
 .byte   VOL , 34*songC6_mvl/mxv
 .byte   W02
 .byte   VOL , 35*songC6_mvl/mxv
 .byte   W01
 .byte   VOL , 36*songC6_mvl/mxv
 .byte   W02
 .byte   VOL , 37*songC6_mvl/mxv
 .byte   W01
 .byte   VOL , 38*songC6_mvl/mxv
 .byte   W02
 .byte   VOL , 38*songC6_mvl/mxv
 .byte   W01
 .byte   VOL , 38*songC6_mvl/mxv
 .byte   W17
 .byte   VOL , 38*songC6_mvl/mxv
 .byte   W01
 .byte   VOL , 37*songC6_mvl/mxv
 .byte   W02
 .byte   VOL , 37*songC6_mvl/mxv
 .byte   W01
 .byte   VOL , 36*songC6_mvl/mxv
 .byte   W02
 .byte   VOL , 36*songC6_mvl/mxv
 .byte   W01
 .byte   VOL , 35*songC6_mvl/mxv
 .byte   W02
 .byte   VOL , 34*songC6_mvl/mxv
 .byte   W01
 .byte   VOL , 33*songC6_mvl/mxv
 .byte   W02
 .byte   VOL , 32*songC6_mvl/mxv
 .byte   W01
 .byte   VOL , 31*songC6_mvl/mxv
 .byte   W02
 .byte   VOL , 30*songC6_mvl/mxv
 .byte   W01
 .byte   VOL , 28*songC6_mvl/mxv
 .byte   W02
 .byte   VOL , 27*songC6_mvl/mxv
 .byte   W01
 .byte   VOL , 24*songC6_mvl/mxv
 .byte   W02
@ 183   ----------------------------------------
 .byte   PATT
  .word Label_6_014B0910
@ 184   ----------------------------------------
 .byte   PATT
  .word Label_6_014B0959
@ 185   ----------------------------------------
 .byte   PATT
  .word Label_6_014B0995
@ 186   ----------------------------------------
 .byte   PATT
  .word Label_6_014B09A2
@ 187   ----------------------------------------
 .byte   PATT
  .word Label_6_014AFF3F
@ 188   ----------------------------------------
 .byte   EOT
 .byte   Fn4
 .byte   W01
 .byte   VOL , 0*songC6_mvl/mxv
 .byte   W66
 .byte   W96
@ 189   ----------------------------------------
 .byte   W96
@ 190   ----------------------------------------
 .byte   W96
@ 191   ----------------------------------------
 .byte   W96
@ 192   ----------------------------------------
 .byte   W96
@ 193   ----------------------------------------
 .byte   W96
@ 194   ----------------------------------------
 .byte   W96
@ 195   ----------------------------------------
 .byte   W96
@ 196   ----------------------------------------
 .byte   W96
@ 197   ----------------------------------------
 .byte   W96
@ 198   ----------------------------------------
 .byte   W96
@ 199   ----------------------------------------
 .byte   W96
@ 200   ----------------------------------------
 .byte   W96
@ 201   ----------------------------------------
 .byte   W96
@ 202   ----------------------------------------
 .byte   W96
@ 203   ----------------------------------------
 .byte   W96
@ 204   ----------------------------------------
 .byte   W96
@ 205   ----------------------------------------
 .byte   W48
 .byte   GOTO
  .word Label_6_014AF0AE
 .byte   FINE

@**************** Track 8 (Midi-Chn.7) ****************@

songC6_008:
@ 000   ----------------------------------------
 .byte   KEYSH , songC6_key+0
Label_7_014B17B2:
 .byte   VOICE , 100
 .byte   VOL , 23*songC6_mvl/mxv
 .byte   PAN , c_v+27
 .byte   W96
@ 001   ----------------------------------------
 .byte   W96
@ 002   ----------------------------------------
 .byte   W96
@ 003   ----------------------------------------
 .byte   W96
@ 004   ----------------------------------------
 .byte   W96
@ 005   ----------------------------------------
 .byte   W96
@ 006   ----------------------------------------
 .byte   W96
@ 007   ----------------------------------------
 .byte   W96
@ 008   ----------------------------------------
 .byte   W96
@ 009   ----------------------------------------
 .byte   W96
@ 010   ----------------------------------------
 .byte   W96
@ 011   ----------------------------------------
 .byte   W96
@ 012   ----------------------------------------
 .byte   W96
@ 013   ----------------------------------------
 .byte   W96
@ 014   ----------------------------------------
 .byte   W96
@ 015   ----------------------------------------
 .byte   W96
@ 016   ----------------------------------------
 .byte   W96
@ 017   ----------------------------------------
 .byte   W96
@ 018   ----------------------------------------
 .byte   W96
@ 019   ----------------------------------------
 .byte   W96
@ 020   ----------------------------------------
 .byte   W96
@ 021   ----------------------------------------
 .byte   W96
@ 022   ----------------------------------------
Label_7_014B17CE:
 .byte   W48
 .byte   N05 ,Fs5 ,v072
 .byte   W06
 .byte   Bn5
 .byte   W06
 .byte   Fn5 ,v076
 .byte   W06
 .byte   Bn5
 .byte   W06
 .byte   Fn5
 .byte   W06
 .byte   As5 ,v080
 .byte   W06
 .byte   En5
 .byte   W06
 .byte   As5
 .byte   W06
 .byte   PEND 
@ 023   ----------------------------------------
Label_7_014B17E4:
 .byte   N05 ,En5 ,v084
 .byte   W06
 .byte   An5
 .byte   W06
 .byte   Ds5
 .byte   W06
 .byte   An5 ,v088
 .byte   W06
 .byte   Ds5
 .byte   W06
 .byte   Gs5
 .byte   W06
 .byte   Dn5 ,v092
 .byte   W06
 .byte   Gs5
 .byte   W54
 .byte   PEND 
@ 024   ----------------------------------------
 .byte   W96
@ 025   ----------------------------------------
 .byte   W96
@ 026   ----------------------------------------
 .byte   W96
@ 027   ----------------------------------------
 .byte   W96
@ 028   ----------------------------------------
 .byte   W96
@ 029   ----------------------------------------
 .byte   W96
@ 030   ----------------------------------------
 .byte   W96
@ 031   ----------------------------------------
 .byte   W96
@ 032   ----------------------------------------
 .byte   W96
@ 033   ----------------------------------------
 .byte   W96
@ 034   ----------------------------------------
 .byte   W96
@ 035   ----------------------------------------
 .byte   W96
@ 036   ----------------------------------------
 .byte   W96
@ 037   ----------------------------------------
 .byte   W96
@ 038   ----------------------------------------
 .byte   W96
@ 039   ----------------------------------------
Label_7_014B1808:
 .byte   N11 ,Bn4 ,v092
 .byte   W12
 .byte   En5
 .byte   W12
 .byte   Fs5
 .byte   W12
 .byte   Gs5
 .byte   W12
 .byte   N32 ,Bn5
 .byte   W48
 .byte   PEND 
@ 040   ----------------------------------------
Label_7_014B1816:
 .byte   W12
 .byte   N11 ,Cs6 ,v092
 .byte   W12
 .byte   Bn5
 .byte   W12
 .byte   En5
 .byte   W12
 .byte   N32 ,Gs5
 .byte   W48
 .byte   PEND 
@ 041   ----------------------------------------
Label_7_014B1823:
 .byte   N11 ,Gs5 ,v092
 .byte   W12
 .byte   Fs5
 .byte   W12
 .byte   En5
 .byte   W24
 .byte   N32 ,Fs5
 .byte   W48
 .byte   PEND 
@ 042   ----------------------------------------
Label_7_014B182F:
 .byte   W12
 .byte   N11 ,Bn5 ,v092
 .byte   W12
 .byte   Fs5
 .byte   W12
 .byte   Ds5
 .byte   W12
 .byte   N32 ,En5
 .byte   W48
 .byte   PEND 
@ 043   ----------------------------------------
Label_7_014B183C:
 .byte   N11 ,Cs5 ,v092
 .byte   W12
 .byte   Ds5
 .byte   W12
 .byte   En5
 .byte   W12
 .byte   Gs5
 .byte   W12
 .byte   N44 ,Cs6
 .byte   W48
 .byte   PEND 
@ 044   ----------------------------------------
 .byte   W48
 .byte   N32 ,Ds6
 .byte   W48
@ 045   ----------------------------------------
Label_7_014B184E:
 .byte   N11 ,As5 ,v092
 .byte   W24
 .byte   Cs6
 .byte   W24
 .byte   N32
 .byte   W48
 .byte   PEND 
@ 046   ----------------------------------------
Label_7_014B1857:
 .byte   W12
 .byte   N11 ,Cn6 ,v092
 .byte   W12
 .byte   Cs6
 .byte   W12
 .byte   N44 ,Ds6
 .byte   W60
 .byte   PEND 
@ 047   ----------------------------------------
 .byte   W96
@ 048   ----------------------------------------
 .byte   W96
@ 049   ----------------------------------------
 .byte   W96
@ 050   ----------------------------------------
 .byte   W96
@ 051   ----------------------------------------
 .byte   W96
@ 052   ----------------------------------------
 .byte   W96
@ 053   ----------------------------------------
 .byte   W96
@ 054   ----------------------------------------
 .byte   W96
@ 055   ----------------------------------------
 .byte   W96
@ 056   ----------------------------------------
 .byte   W96
@ 057   ----------------------------------------
 .byte   W96
@ 058   ----------------------------------------
 .byte   W96
@ 059   ----------------------------------------
 .byte   W96
@ 060   ----------------------------------------
 .byte   W96
@ 061   ----------------------------------------
 .byte   W96
@ 062   ----------------------------------------
 .byte   W96
@ 063   ----------------------------------------
 .byte   W96
@ 064   ----------------------------------------
 .byte   W96
@ 065   ----------------------------------------
 .byte   W96
@ 066   ----------------------------------------
 .byte   W96
@ 067   ----------------------------------------
 .byte   W96
@ 068   ----------------------------------------
 .byte   W96
@ 069   ----------------------------------------
 .byte   W96
@ 070   ----------------------------------------
 .byte   W96
@ 071   ----------------------------------------
 .byte   W96
@ 072   ----------------------------------------
 .byte   W96
@ 073   ----------------------------------------
 .byte   W96
@ 074   ----------------------------------------
 .byte   W96
@ 075   ----------------------------------------
 .byte   W96
@ 076   ----------------------------------------
 .byte   W96
@ 077   ----------------------------------------
 .byte   W96
@ 078   ----------------------------------------
 .byte   W96
@ 079   ----------------------------------------
 .byte   W96
@ 080   ----------------------------------------
 .byte   W96
@ 081   ----------------------------------------
 .byte   W96
@ 082   ----------------------------------------
 .byte   W96
@ 083   ----------------------------------------
 .byte   W96
@ 084   ----------------------------------------
 .byte   W96
@ 085   ----------------------------------------
 .byte   W96
@ 086   ----------------------------------------
 .byte   W96
@ 087   ----------------------------------------
 .byte   W96
@ 088   ----------------------------------------
 .byte   W96
@ 089   ----------------------------------------
 .byte   W96
@ 090   ----------------------------------------
 .byte   W96
@ 091   ----------------------------------------
 .byte   W96
@ 092   ----------------------------------------
 .byte   W96
@ 093   ----------------------------------------
 .byte   W96
@ 094   ----------------------------------------
 .byte   W96
@ 095   ----------------------------------------
 .byte   W96
@ 096   ----------------------------------------
 .byte   PATT
  .word Label_7_014B17CE
@ 097   ----------------------------------------
 .byte   PATT
  .word Label_7_014B17E4
@ 098   ----------------------------------------
 .byte   W96
@ 099   ----------------------------------------
 .byte   W96
@ 100   ----------------------------------------
 .byte   W96
@ 101   ----------------------------------------
 .byte   W96
@ 102   ----------------------------------------
 .byte   W96
@ 103   ----------------------------------------
 .byte   W96
@ 104   ----------------------------------------
 .byte   W96
@ 105   ----------------------------------------
 .byte   W96
@ 106   ----------------------------------------
 .byte   W96
@ 107   ----------------------------------------
 .byte   W96
@ 108   ----------------------------------------
 .byte   W96
@ 109   ----------------------------------------
 .byte   W96
@ 110   ----------------------------------------
 .byte   W96
@ 111   ----------------------------------------
 .byte   W96
@ 112   ----------------------------------------
 .byte   W96
@ 113   ----------------------------------------
 .byte   PATT
  .word Label_7_014B1808
@ 114   ----------------------------------------
 .byte   PATT
  .word Label_7_014B1816
@ 115   ----------------------------------------
 .byte   PATT
  .word Label_7_014B1823
@ 116   ----------------------------------------
 .byte   PATT
  .word Label_7_014B182F
@ 117   ----------------------------------------
 .byte   PATT
  .word Label_7_014B183C
@ 118   ----------------------------------------
 .byte   W48
 .byte   N32 ,Ds6 ,v092
 .byte   W48
@ 119   ----------------------------------------
 .byte   PATT
  .word Label_7_014B184E
@ 120   ----------------------------------------
 .byte   PATT
  .word Label_7_014B1857
@ 121   ----------------------------------------
 .byte   W48
 .byte   N44 ,En6 ,v092
 .byte   W48
@ 122   ----------------------------------------
 .byte   W96
@ 123   ----------------------------------------
 .byte   W96
@ 124   ----------------------------------------
 .byte   W96
@ 125   ----------------------------------------
 .byte   W96
@ 126   ----------------------------------------
 .byte   W96
@ 127   ----------------------------------------
 .byte   W96
@ 128   ----------------------------------------
 .byte   W96
@ 129   ----------------------------------------
 .byte   W96
@ 130   ----------------------------------------
 .byte   W96
@ 131   ----------------------------------------
 .byte   W96
@ 132   ----------------------------------------
 .byte   W96
@ 133   ----------------------------------------
 .byte   W96
@ 134   ----------------------------------------
 .byte   W96
@ 135   ----------------------------------------
 .byte   W96
@ 136   ----------------------------------------
 .byte   W96
@ 137   ----------------------------------------
 .byte   W96
@ 138   ----------------------------------------
 .byte   W96
@ 139   ----------------------------------------
 .byte   W96
@ 140   ----------------------------------------
 .byte   W96
@ 141   ----------------------------------------
 .byte   W96
@ 142   ----------------------------------------
 .byte   W96
@ 143   ----------------------------------------
 .byte   W96
@ 144   ----------------------------------------
 .byte   W96
@ 145   ----------------------------------------
 .byte   W96
@ 146   ----------------------------------------
 .byte   W96
@ 147   ----------------------------------------
 .byte   W96
@ 148   ----------------------------------------
 .byte   W96
@ 149   ----------------------------------------
 .byte   W96
@ 150   ----------------------------------------
 .byte   W96
@ 151   ----------------------------------------
 .byte   W96
@ 152   ----------------------------------------
 .byte   W96
@ 153   ----------------------------------------
 .byte   W96
@ 154   ----------------------------------------
 .byte   W96
@ 155   ----------------------------------------
 .byte   W96
@ 156   ----------------------------------------
 .byte   W96
@ 157   ----------------------------------------
 .byte   W96
@ 158   ----------------------------------------
 .byte   W96
@ 159   ----------------------------------------
 .byte   W96
@ 160   ----------------------------------------
 .byte   W96
@ 161   ----------------------------------------
 .byte   W96
@ 162   ----------------------------------------
 .byte   W96
@ 163   ----------------------------------------
 .byte   W96
@ 164   ----------------------------------------
 .byte   W96
@ 165   ----------------------------------------
 .byte   W96
@ 166   ----------------------------------------
 .byte   W96
@ 167   ----------------------------------------
 .byte   W96
@ 168   ----------------------------------------
 .byte   W96
@ 169   ----------------------------------------
 .byte   W96
@ 170   ----------------------------------------
 .byte   W96
@ 171   ----------------------------------------
 .byte   W96
@ 172   ----------------------------------------
 .byte   W96
@ 173   ----------------------------------------
 .byte   W96
@ 174   ----------------------------------------
 .byte   W96
@ 175   ----------------------------------------
 .byte   W96
@ 176   ----------------------------------------
 .byte   W96
@ 177   ----------------------------------------
 .byte   W96
@ 178   ----------------------------------------
 .byte   W96
@ 179   ----------------------------------------
 .byte   W96
@ 180   ----------------------------------------
 .byte   W96
@ 181   ----------------------------------------
 .byte   W96
@ 182   ----------------------------------------
 .byte   W96
@ 183   ----------------------------------------
 .byte   W96
@ 184   ----------------------------------------
 .byte   W96
@ 185   ----------------------------------------
 .byte   W96
@ 186   ----------------------------------------
 .byte   W96
@ 187   ----------------------------------------
 .byte   W96
@ 188   ----------------------------------------
 .byte   W96
@ 189   ----------------------------------------
 .byte   W96
@ 190   ----------------------------------------
 .byte   W96
@ 191   ----------------------------------------
 .byte   W96
@ 192   ----------------------------------------
 .byte   W96
@ 193   ----------------------------------------
 .byte   W96
@ 194   ----------------------------------------
 .byte   W96
@ 195   ----------------------------------------
 .byte   W96
@ 196   ----------------------------------------
 .byte   W96
@ 197   ----------------------------------------
 .byte   W96
@ 198   ----------------------------------------
 .byte   W96
@ 199   ----------------------------------------
 .byte   W96
@ 200   ----------------------------------------
 .byte   W96
@ 201   ----------------------------------------
 .byte   W96
@ 202   ----------------------------------------
 .byte   W96
@ 203   ----------------------------------------
 .byte   W48
 .byte   N05 ,An5 ,v072
 .byte   W06
 .byte   Cs6
 .byte   W06
 .byte   Gs5 ,v076
 .byte   W06
 .byte   Cs6
 .byte   W06
 .byte   Gs5
 .byte   W06
 .byte   Cn6 ,v080
 .byte   W06
 .byte   Gn5
 .byte   W06
 .byte   Cn6
 .byte   W06
@ 204   ----------------------------------------
 .byte   Gn5 ,v084
 .byte   W06
 .byte   Bn5
 .byte   W06
 .byte   Fs5
 .byte   W06
 .byte   Bn5 ,v088
 .byte   W06
 .byte   Fs5
 .byte   W06
 .byte   As5
 .byte   W06
 .byte   Fn5 ,v092
 .byte   W06
 .byte   As5
 .byte   W06
 .byte   GOTO
  .word Label_7_014B17B2
 .byte   FINE

@**************** Track 9 (Midi-Chn.8) ****************@

songC6_009:
@ 000   ----------------------------------------
 .byte   KEYSH , songC6_key+0
Label_8_014B0E6E:
 .byte   VOICE , 127
 .byte   VOL , 35*songC6_mvl/mxv
 .byte   W36
 .byte   N06 ,Dn1 ,v072
 .byte   W12
 .byte   N06
 .byte   N06 ,Gs1 ,v080
 .byte   W06
 .byte   Fs1
 .byte   W06
 .byte   N06
 .byte   W12
 .byte   Gs1
 .byte   W12
 .byte   Fs1 ,v084
 .byte   W12
@ 001   ----------------------------------------
Label_8_014B0E85:
 .byte   N06 ,Gs1 ,v084
 .byte   W06
 .byte   N06
 .byte   W06
 .byte   Fs1
 .byte   W12
 .byte   Gs1
 .byte   W12
 .byte   Dn1 ,v072
 .byte   N06 ,Fs1 ,v084
 .byte   N06 ,Gs1
 .byte   W12
 .byte   Dn1 ,v072
 .byte   N06 ,Gs1 ,v084
 .byte   W06
 .byte   Fs1
 .byte   W06
 .byte   N06
 .byte   W12
 .byte   Gs1
 .byte   W12
 .byte   Fs1
 .byte   W12
 .byte   PEND 
@ 002   ----------------------------------------
 .byte   PATT
  .word Label_8_014B0E85
@ 003   ----------------------------------------
 .byte   PATT
  .word Label_8_014B0E85
@ 004   ----------------------------------------
 .byte   PATT
  .word Label_8_014B0E85
@ 005   ----------------------------------------
 .byte   PATT
  .word Label_8_014B0E85
@ 006   ----------------------------------------
 .byte   N06 ,Gs1 ,v084
 .byte   W06
 .byte   N06
 .byte   W06
 .byte   Fs1
 .byte   W12
 .byte   Gs1
 .byte   W12
 .byte   Dn1 ,v072
 .byte   N06 ,Fs1 ,v084
 .byte   N06 ,Gs1
 .byte   W12
 .byte   Dn1 ,v072
 .byte   N06 ,Gs1 ,v084
 .byte   W06
 .byte   Fs1
 .byte   W06
 .byte   N06
 .byte   W12
 .byte   Gs1 ,v088
 .byte   W12
 .byte   Fs1
 .byte   W12
@ 007   ----------------------------------------
Label_8_014B0EDB:
 .byte   N06 ,Gs1 ,v088
 .byte   W06
 .byte   N06
 .byte   W06
 .byte   Fs1
 .byte   W12
 .byte   Gs1
 .byte   W12
 .byte   Dn1 ,v072
 .byte   N06 ,Fs1 ,v088
 .byte   N06 ,Gs1
 .byte   W12
 .byte   Dn1 ,v072
 .byte   N06 ,Gs1 ,v088
 .byte   W06
 .byte   Fs1
 .byte   W06
 .byte   N06
 .byte   W12
 .byte   Gs1
 .byte   W12
 .byte   Fs1
 .byte   W12
 .byte   PEND 
@ 008   ----------------------------------------
 .byte   PATT
  .word Label_8_014B0EDB
@ 009   ----------------------------------------
 .byte   PATT
  .word Label_8_014B0EDB
@ 010   ----------------------------------------
 .byte   PATT
  .word Label_8_014B0EDB
@ 011   ----------------------------------------
 .byte   PATT
  .word Label_8_014B0EDB
@ 012   ----------------------------------------
 .byte   N06 ,Gs1 ,v088
 .byte   W06
 .byte   N06
 .byte   W06
 .byte   Fs1
 .byte   W12
 .byte   Gs1
 .byte   W12
 .byte   Dn1 ,v072
 .byte   N06 ,Fs1 ,v088
 .byte   N06 ,Gs1
 .byte   W12
 .byte   Dn1 ,v072
 .byte   N06 ,Gs1 ,v088
 .byte   W06
 .byte   Fs1
 .byte   W06
 .byte   Fs1 ,v092
 .byte   W12
 .byte   Gs1
 .byte   W12
 .byte   Fs1
 .byte   W12
@ 013   ----------------------------------------
 .byte   Gs1
 .byte   W06
 .byte   N06
 .byte   W06
 .byte   Fs1
 .byte   W12
 .byte   Gs1
 .byte   W12
 .byte   Dn1 ,v072
 .byte   N06 ,Fs1 ,v092
 .byte   N06 ,Gs1
 .byte   W12
 .byte   Dn1 ,v072
 .byte   N06 ,Gs1 ,v092
 .byte   W06
 .byte   Fs1
 .byte   W06
 .byte   N06
 .byte   W12
 .byte   Gs1
 .byte   W12
 .byte   Fs1
 .byte   W12
@ 014   ----------------------------------------
 .byte   Gs1
 .byte   W06
 .byte   N06
 .byte   W06
 .byte   Fs1
 .byte   W12
 .byte   Gs1
 .byte   W12
 .byte   Dn1 ,v080
 .byte   N06 ,Fs1 ,v092
 .byte   N06 ,Gs1
 .byte   W12
 .byte   Dn1 ,v080
 .byte   W12
 .byte   N06
 .byte   W12
 .byte   N06
 .byte   W24
@ 015   ----------------------------------------
 .byte   Dn1 ,v060
 .byte   W06
 .byte   Dn1 ,v064
 .byte   W06
 .byte   Dn1 ,v068
 .byte   W06
 .byte   N06
 .byte   W06
 .byte   Dn1 ,v072
 .byte   W06
 .byte   Dn1 ,v076
 .byte   W06
 .byte   N06
 .byte   W06
 .byte   Dn1 ,v080
 .byte   W06
 .byte   N06
 .byte   N06 ,Fs1 ,v100
 .byte   N06 ,An2 ,v064
 .byte   W12
 .byte   As1 ,v100
 .byte   W12
 .byte   Dn1 ,v080
 .byte   N06 ,Fs1 ,v100
 .byte   W12
 .byte   As1
 .byte   W12
@ 016   ----------------------------------------
Label_8_014B0F8F:
 .byte   N06 ,Fs1 ,v100
 .byte   W06
 .byte   Gs1 ,v092
 .byte   W06
 .byte   As1 ,v100
 .byte   W06
 .byte   Gs1
 .byte   W06
 .byte   Dn1 ,v080
 .byte   N06 ,Fs1 ,v100
 .byte   W06
 .byte   Gs1
 .byte   W06
 .byte   As1
 .byte   W12
 .byte   Fs1
 .byte   W12
 .byte   As1
 .byte   W12
 .byte   Dn1 ,v080
 .byte   N06 ,Fs1 ,v100
 .byte   W12
 .byte   As1
 .byte   W12
 .byte   PEND 
@ 017   ----------------------------------------
 .byte   PATT
  .word Label_8_014B0F8F
@ 018   ----------------------------------------
 .byte   PATT
  .word Label_8_014B0F8F
@ 019   ----------------------------------------
 .byte   PATT
  .word Label_8_014B0F8F
@ 020   ----------------------------------------
 .byte   PATT
  .word Label_8_014B0F8F
@ 021   ----------------------------------------
 .byte   PATT
  .word Label_8_014B0F8F
@ 022   ----------------------------------------
Label_8_014B0FCB:
 .byte   N06 ,Fs1 ,v100
 .byte   W06
 .byte   Gs1 ,v092
 .byte   W06
 .byte   As1 ,v100
 .byte   W06
 .byte   Gs1
 .byte   W06
 .byte   Dn1 ,v080
 .byte   N06 ,Fs1 ,v100
 .byte   W06
 .byte   Gs1
 .byte   W06
 .byte   As1
 .byte   W12
 .byte   Fs1
 .byte   W12
 .byte   As1 ,v092
 .byte   W12
 .byte   Dn1 ,v080
 .byte   N06 ,Fs1 ,v100
 .byte   W12
 .byte   As1 ,v092
 .byte   W12
 .byte   PEND 
@ 023   ----------------------------------------
Label_8_014B0FF0:
 .byte   N06 ,Dn1 ,v060
 .byte   N06 ,Fs1 ,v100
 .byte   W06
 .byte   Dn1 ,v064
 .byte   W06
 .byte   Dn1 ,v068
 .byte   N06 ,As1 ,v092
 .byte   W06
 .byte   Dn1 ,v068
 .byte   W06
 .byte   Dn1 ,v072
 .byte   N06 ,Fs1 ,v100
 .byte   W06
 .byte   Dn1 ,v076
 .byte   W06
 .byte   N06
 .byte   N06 ,As1 ,v092
 .byte   W06
 .byte   Dn1 ,v080
 .byte   W06
 .byte   N06
 .byte   N06 ,Fs1 ,v100
 .byte   N06 ,An2 ,v064
 .byte   W12
 .byte   As1 ,v100
 .byte   W12
 .byte   Dn1 ,v080
 .byte   N06 ,Fs1 ,v100
 .byte   W12
 .byte   As1
 .byte   W12
 .byte   PEND 
@ 024   ----------------------------------------
 .byte   PATT
  .word Label_8_014B0F8F
@ 025   ----------------------------------------
 .byte   PATT
  .word Label_8_014B0F8F
@ 026   ----------------------------------------
 .byte   PATT
  .word Label_8_014B0F8F
@ 027   ----------------------------------------
Label_8_014B1037:
 .byte   N06 ,Fs1 ,v100
 .byte   W06
 .byte   Gs1 ,v092
 .byte   W06
 .byte   As1 ,v100
 .byte   W06
 .byte   Gs1
 .byte   W06
 .byte   Dn1 ,v080
 .byte   N06 ,Fs1 ,v100
 .byte   W06
 .byte   Gs1
 .byte   W06
 .byte   As1
 .byte   W12
 .byte   Fs1
 .byte   N06 ,An2 ,v064
 .byte   W12
 .byte   As1 ,v100
 .byte   W12
 .byte   Dn1 ,v080
 .byte   N06 ,Fs1 ,v100
 .byte   W12
 .byte   As1
 .byte   W12
 .byte   PEND 
@ 028   ----------------------------------------
 .byte   PATT
  .word Label_8_014B0F8F
@ 029   ----------------------------------------
 .byte   PATT
  .word Label_8_014B0F8F
@ 030   ----------------------------------------
 .byte   PATT
  .word Label_8_014B0F8F
@ 031   ----------------------------------------
Label_8_014B106D:
 .byte   N06 ,Fs1 ,v100
 .byte   W06
 .byte   Gs1 ,v092
 .byte   W06
 .byte   As1 ,v100
 .byte   W06
 .byte   Gs1
 .byte   W06
 .byte   Dn1 ,v080
 .byte   N06 ,Fs1 ,v100
 .byte   W06
 .byte   Gs1
 .byte   W06
 .byte   As1
 .byte   W06
 .byte   Dn1 ,v080
 .byte   W06
 .byte   Fs1 ,v100
 .byte   N06 ,An2 ,v064
 .byte   W12
 .byte   As1 ,v100
 .byte   W12
 .byte   Dn1 ,v080
 .byte   N06 ,Fs1 ,v100
 .byte   W12
 .byte   As1
 .byte   W12
 .byte   PEND 
@ 032   ----------------------------------------
 .byte   PATT
  .word Label_8_014B0F8F
@ 033   ----------------------------------------
 .byte   PATT
  .word Label_8_014B0F8F
@ 034   ----------------------------------------
 .byte   PATT
  .word Label_8_014B0F8F
@ 035   ----------------------------------------
 .byte   PATT
  .word Label_8_014B1037
@ 036   ----------------------------------------
 .byte   PATT
  .word Label_8_014B1037
@ 037   ----------------------------------------
 .byte   PATT
  .word Label_8_014B1037
@ 038   ----------------------------------------
 .byte   PATT
  .word Label_8_014B0F8F
@ 039   ----------------------------------------
Label_8_014B10BB:
 .byte   N06 ,Dn1 ,v080
 .byte   N06 ,Fs1 ,v100
 .byte   W06
 .byte   Gs1 ,v092
 .byte   W06
 .byte   Dn1 ,v080
 .byte   N06 ,As1 ,v100
 .byte   W06
 .byte   Gs1
 .byte   W06
 .byte   Dn1 ,v080
 .byte   N06 ,Fs1 ,v100
 .byte   W06
 .byte   Dn1 ,v080
 .byte   N06 ,Gs1 ,v100
 .byte   W06
 .byte   As1
 .byte   W06
 .byte   Dn1 ,v080
 .byte   W06
 .byte   Fs1 ,v100
 .byte   N06 ,An2 ,v064
 .byte   W12
 .byte   As1 ,v100
 .byte   W12
 .byte   Cs1
 .byte   N06 ,Fs1
 .byte   W12
 .byte   As1
 .byte   W06
 .byte   Fs1
 .byte   W06
 .byte   PEND 
@ 040   ----------------------------------------
Label_8_014B10F0:
 .byte   N06 ,Gs1 ,v100
 .byte   W06
 .byte   N06
 .byte   W06
 .byte   Cs1
 .byte   N06 ,As1
 .byte   W12
 .byte   Fs1
 .byte   W06
 .byte   N06
 .byte   W06
 .byte   As1
 .byte   W06
 .byte   Fs1
 .byte   W06
 .byte   N06
 .byte   W12
 .byte   As1
 .byte   W12
 .byte   Cs1
 .byte   N06 ,Fs1
 .byte   W12
 .byte   As1
 .byte   W06
 .byte   Fs1
 .byte   W06
 .byte   PEND 
@ 041   ----------------------------------------
Label_8_014B110F:
 .byte   N06 ,Gs1 ,v100
 .byte   W06
 .byte   N06
 .byte   W06
 .byte   Cs1
 .byte   N06 ,As1
 .byte   W12
 .byte   Cs1
 .byte   N06 ,Fs1
 .byte   W06
 .byte   N06
 .byte   W06
 .byte   As1
 .byte   W06
 .byte   Fs1
 .byte   W06
 .byte   N06
 .byte   W12
 .byte   As1
 .byte   W12
 .byte   Cs1
 .byte   N06 ,Fs1
 .byte   W12
 .byte   As1
 .byte   W06
 .byte   Fs1
 .byte   W06
 .byte   PEND 
@ 042   ----------------------------------------
 .byte   PATT
  .word Label_8_014B110F
@ 043   ----------------------------------------
 .byte   N06 ,Gs1 ,v100
 .byte   W06
 .byte   N06
 .byte   W06
 .byte   Cs1
 .byte   N06 ,As1
 .byte   W12
 .byte   Fs1
 .byte   W06
 .byte   N06
 .byte   W06
 .byte   As1
 .byte   W06
 .byte   Fs1
 .byte   W06
 .byte   N06
 .byte   N06 ,An2 ,v064
 .byte   W12
 .byte   As1 ,v100
 .byte   W12
 .byte   Cs1
 .byte   N06 ,Fs1
 .byte   W12
 .byte   As1
 .byte   W06
 .byte   Fs1
 .byte   W06
@ 044   ----------------------------------------
 .byte   PATT
  .word Label_8_014B110F
@ 045   ----------------------------------------
 .byte   PATT
  .word Label_8_014B110F
@ 046   ----------------------------------------
Label_8_014B1161:
 .byte   N06 ,Gs1 ,v100
 .byte   W06
 .byte   N06
 .byte   W06
 .byte   Cs1
 .byte   N06 ,As1
 .byte   W12
 .byte   Fs1
 .byte   W06
 .byte   N06
 .byte   W06
 .byte   As1
 .byte   W06
 .byte   Fs1
 .byte   W06
 .byte   N06
 .byte   W12
 .byte   As1
 .byte   W12
 .byte   Dn1 ,v080
 .byte   N06 ,Fs1 ,v100
 .byte   W12
 .byte   As1
 .byte   W06
 .byte   Fs1
 .byte   W06
 .byte   PEND 
@ 047   ----------------------------------------
 .byte   Dn1 ,v060
 .byte   N06 ,Gs1 ,v100
 .byte   W06
 .byte   Dn1 ,v064
 .byte   N06 ,Gs1 ,v100
 .byte   W06
 .byte   Dn1 ,v068
 .byte   N06 ,As1 ,v100
 .byte   W06
 .byte   Dn1 ,v068
 .byte   W06
 .byte   Dn1 ,v072
 .byte   N06 ,Fs1 ,v100
 .byte   W06
 .byte   Dn1 ,v076
 .byte   N06 ,Fs1 ,v100
 .byte   W06
 .byte   Dn1 ,v076
 .byte   N06 ,As1 ,v100
 .byte   W06
 .byte   Dn1 ,v080
 .byte   N06 ,Fs1 ,v100
 .byte   W06
 .byte   Dn1 ,v080
 .byte   N06 ,Fs1 ,v100
 .byte   N06 ,An2 ,v064
 .byte   W12
 .byte   Fs1 ,v100
 .byte   N06 ,As1
 .byte   W12
 .byte   Dn1 ,v080
 .byte   N06 ,Fs1 ,v100
 .byte   W12
 .byte   N06
 .byte   N06 ,As1
 .byte   W12
@ 048   ----------------------------------------
Label_8_014B11C7:
 .byte   N06 ,Gs1 ,v100
 .byte   W06
 .byte   Gs1 ,v092
 .byte   W06
 .byte   Fs1 ,v100
 .byte   N06 ,As1
 .byte   W12
 .byte   Dn1 ,v080
 .byte   N06 ,Fs1 ,v100
 .byte   W12
 .byte   N06
 .byte   N06 ,As1
 .byte   W12
 .byte   Fs1
 .byte   W12
 .byte   N06
 .byte   N06 ,As1
 .byte   W12
 .byte   Dn1 ,v080
 .byte   N06 ,Fs1 ,v100
 .byte   W12
 .byte   N06
 .byte   N06 ,As1
 .byte   W12
 .byte   PEND 
@ 049   ----------------------------------------
 .byte   PATT
  .word Label_8_014B11C7
@ 050   ----------------------------------------
 .byte   PATT
  .word Label_8_014B11C7
@ 051   ----------------------------------------
Label_8_014B11F8:
 .byte   N06 ,Gs1 ,v100
 .byte   W06
 .byte   Gs1 ,v092
 .byte   W06
 .byte   Fs1 ,v100
 .byte   N06 ,As1
 .byte   W12
 .byte   Dn1 ,v080
 .byte   N06 ,Fs1 ,v100
 .byte   W12
 .byte   N06
 .byte   N06 ,As1
 .byte   W12
 .byte   Fs1
 .byte   N06 ,An2 ,v064
 .byte   W12
 .byte   Fs1 ,v100
 .byte   N06 ,As1
 .byte   W12
 .byte   Dn1 ,v080
 .byte   N06 ,Fs1 ,v100
 .byte   W12
 .byte   N06
 .byte   N06 ,As1
 .byte   W12
 .byte   PEND 
@ 052   ----------------------------------------
 .byte   PATT
  .word Label_8_014B11C7
@ 053   ----------------------------------------
 .byte   PATT
  .word Label_8_014B11F8
@ 054   ----------------------------------------
 .byte   PATT
  .word Label_8_014B11C7
@ 055   ----------------------------------------
Label_8_014B1232:
 .byte   N06 ,Gs1 ,v100
 .byte   W06
 .byte   Gs1 ,v092
 .byte   W06
 .byte   Fs1 ,v100
 .byte   N06 ,As1
 .byte   W12
 .byte   Dn1 ,v080
 .byte   N06 ,Fs1 ,v100
 .byte   W12
 .byte   N06
 .byte   N06 ,As1
 .byte   W06
 .byte   Dn1 ,v080
 .byte   W06
 .byte   Fs1 ,v100
 .byte   N06 ,An2 ,v064
 .byte   W12
 .byte   Fs1 ,v100
 .byte   N06 ,As1
 .byte   W12
 .byte   Dn1 ,v080
 .byte   N06 ,Fs1 ,v100
 .byte   W12
 .byte   N06
 .byte   N06 ,As1
 .byte   W12
 .byte   PEND 
@ 056   ----------------------------------------
 .byte   PATT
  .word Label_8_014B11C7
@ 057   ----------------------------------------
 .byte   PATT
  .word Label_8_014B11C7
@ 058   ----------------------------------------
 .byte   PATT
  .word Label_8_014B11C7
@ 059   ----------------------------------------
 .byte   PATT
  .word Label_8_014B11F8
@ 060   ----------------------------------------
 .byte   PATT
  .word Label_8_014B11C7
@ 061   ----------------------------------------
 .byte   PATT
  .word Label_8_014B11F8
@ 062   ----------------------------------------
 .byte   PATT
  .word Label_8_014B11C7
@ 063   ----------------------------------------
Label_8_014B1284:
 .byte   N06 ,Gs1 ,v100
 .byte   W06
 .byte   Gs1 ,v092
 .byte   W06
 .byte   Dn1 ,v080
 .byte   N06 ,Fs1 ,v100
 .byte   N06 ,As1
 .byte   W12
 .byte   Dn1 ,v080
 .byte   N06 ,Fs1 ,v100
 .byte   W06
 .byte   Dn1 ,v080
 .byte   W06
 .byte   N06
 .byte   N06 ,Fs1 ,v100
 .byte   N06 ,As1
 .byte   W06
 .byte   Dn1 ,v080
 .byte   W06
 .byte   Fs1 ,v100
 .byte   N06 ,An2 ,v064
 .byte   W12
 .byte   Fs1 ,v100
 .byte   N06 ,As1
 .byte   W12
 .byte   Dn1 ,v080
 .byte   N06 ,Fs1 ,v100
 .byte   W12
 .byte   N06
 .byte   N06 ,As1
 .byte   W12
 .byte   PEND 
@ 064   ----------------------------------------
 .byte   PATT
  .word Label_8_014B11C7
@ 065   ----------------------------------------
 .byte   PATT
  .word Label_8_014B11C7
@ 066   ----------------------------------------
 .byte   PATT
  .word Label_8_014B11C7
@ 067   ----------------------------------------
 .byte   PATT
  .word Label_8_014B11F8
@ 068   ----------------------------------------
 .byte   PATT
  .word Label_8_014B11C7
@ 069   ----------------------------------------
 .byte   PATT
  .word Label_8_014B11F8
@ 070   ----------------------------------------
 .byte   PATT
  .word Label_8_014B11C7
@ 071   ----------------------------------------
 .byte   PATT
  .word Label_8_014B1232
@ 072   ----------------------------------------
 .byte   PATT
  .word Label_8_014B11C7
@ 073   ----------------------------------------
 .byte   PATT
  .word Label_8_014B11C7
@ 074   ----------------------------------------
 .byte   PATT
  .word Label_8_014B11C7
@ 075   ----------------------------------------
 .byte   PATT
  .word Label_8_014B11F8
@ 076   ----------------------------------------
 .byte   PATT
  .word Label_8_014B11C7
@ 077   ----------------------------------------
 .byte   PATT
  .word Label_8_014B11F8
@ 078   ----------------------------------------
 .byte   PATT
  .word Label_8_014B11C7
@ 079   ----------------------------------------
 .byte   N06 ,Dn1 ,v080
 .byte   N06 ,Gs1 ,v100
 .byte   W06
 .byte   Dn1 ,v080
 .byte   N06 ,Gs1 ,v092
 .byte   W06
 .byte   Dn1 ,v080
 .byte   N06 ,Fs1 ,v100
 .byte   N06 ,As1
 .byte   W12
 .byte   Dn1 ,v080
 .byte   N06 ,Fs1 ,v100
 .byte   W06
 .byte   Dn1 ,v080
 .byte   W06
 .byte   Fs1 ,v100
 .byte   N06 ,As1
 .byte   W06
 .byte   Dn1 ,v080
 .byte   W06
 .byte   Dn1 ,v100
 .byte   N06 ,Fn2
 .byte   N06 ,Gn2
 .byte   N06 ,An2 ,v064
 .byte   W24
 .byte   Fn2 ,v100
 .byte   N06 ,Gn2
 .byte   W24
@ 080   ----------------------------------------
Label_8_014B133C:
 .byte   N06 ,Fn2 ,v100
 .byte   N06 ,Gn2
 .byte   W24
 .byte   Fn2
 .byte   N06 ,Gn2
 .byte   W24
 .byte   Fn2
 .byte   N06 ,Gn2
 .byte   W24
 .byte   Fn2
 .byte   N06 ,Gn2
 .byte   W24
 .byte   PEND 
@ 081   ----------------------------------------
 .byte   Dn1 ,v080
 .byte   N06 ,Fn2 ,v100
 .byte   N06 ,Gn2
 .byte   W06
 .byte   Dn1 ,v080
 .byte   W06
 .byte   N06
 .byte   W06
 .byte   N06
 .byte   W06
 .byte   N06
 .byte   N06 ,Fn2 ,v100
 .byte   N06 ,Gn2
 .byte   W06
 .byte   Dn1 ,v080
 .byte   W06
 .byte   N06
 .byte   W06
 .byte   N06
 .byte   W06
 .byte   N06
 .byte   N06 ,Fs1 ,v072
 .byte   W12
 .byte   N06
 .byte   W06
 .byte   N06
 .byte   W06
 .byte   As1 ,v080
 .byte   W24
@ 082   ----------------------------------------
Label_8_014B1378:
 .byte   N06 ,Dn1 ,v080
 .byte   N06 ,Fs1 ,v072
 .byte   W12
 .byte   N06
 .byte   W06
 .byte   N06
 .byte   W06
 .byte   As1 ,v080
 .byte   W24
 .byte   Dn1
 .byte   N06 ,Fs1 ,v072
 .byte   W12
 .byte   N06
 .byte   W06
 .byte   N06
 .byte   W06
 .byte   As1 ,v080
 .byte   W24
 .byte   PEND 
@ 083   ----------------------------------------
 .byte   PATT
  .word Label_8_014B1378
@ 084   ----------------------------------------
 .byte   PATT
  .word Label_8_014B1378
@ 085   ----------------------------------------
 .byte   PATT
  .word Label_8_014B1378
@ 086   ----------------------------------------
 .byte   N06 ,Dn1 ,v080
 .byte   N06 ,Fs1 ,v072
 .byte   W12
 .byte   N06
 .byte   W06
 .byte   N06
 .byte   W06
 .byte   As1 ,v080
 .byte   W24
 .byte   Dn1 ,v084
 .byte   N06 ,Fs1 ,v072
 .byte   W12
 .byte   N06
 .byte   W06
 .byte   N06
 .byte   W06
 .byte   As1 ,v080
 .byte   W24
@ 087   ----------------------------------------
 .byte   PATT
  .word Label_8_014B1378
@ 088   ----------------------------------------
 .byte   N06 ,Dn1 ,v080
 .byte   N06 ,Fs1 ,v072
 .byte   W12
 .byte   N06
 .byte   W06
 .byte   N06
 .byte   W06
 .byte   As1 ,v080
 .byte   W24
 .byte   Fs1 ,v072
 .byte   W12
 .byte   N06
 .byte   W06
 .byte   N06
 .byte   W06
 .byte   Cs2 ,v064
 .byte   W24
@ 089   ----------------------------------------
 .byte   Dn1 ,v060
 .byte   N06 ,Fs1 ,v072
 .byte   W06
 .byte   Dn1 ,v064
 .byte   W06
 .byte   Dn1 ,v068
 .byte   N06 ,Fs1 ,v072
 .byte   W06
 .byte   Dn1 ,v068
 .byte   N06 ,Fs1 ,v072
 .byte   W06
 .byte   Dn1
 .byte   W06
 .byte   Dn1 ,v076
 .byte   W06
 .byte   N06
 .byte   W06
 .byte   Dn1 ,v080
 .byte   W06
 .byte   N06
 .byte   N06 ,Fs1 ,v100
 .byte   N06 ,An2 ,v064
 .byte   W12
 .byte   As1 ,v100
 .byte   W12
 .byte   Dn1 ,v080
 .byte   N06 ,Fs1 ,v100
 .byte   W12
 .byte   As1
 .byte   W12
@ 090   ----------------------------------------
 .byte   PATT
  .word Label_8_014B0F8F
@ 091   ----------------------------------------
 .byte   PATT
  .word Label_8_014B0F8F
@ 092   ----------------------------------------
 .byte   PATT
  .word Label_8_014B0F8F
@ 093   ----------------------------------------
 .byte   PATT
  .word Label_8_014B0F8F
@ 094   ----------------------------------------
 .byte   PATT
  .word Label_8_014B0F8F
@ 095   ----------------------------------------
 .byte   PATT
  .word Label_8_014B0F8F
@ 096   ----------------------------------------
 .byte   PATT
  .word Label_8_014B0FCB
@ 097   ----------------------------------------
 .byte   PATT
  .word Label_8_014B0FF0
@ 098   ----------------------------------------
 .byte   PATT
  .word Label_8_014B0F8F
@ 099   ----------------------------------------
 .byte   PATT
  .word Label_8_014B0F8F
@ 100   ----------------------------------------
 .byte   PATT
  .word Label_8_014B0F8F
@ 101   ----------------------------------------
 .byte   PATT
  .word Label_8_014B1037
@ 102   ----------------------------------------
 .byte   PATT
  .word Label_8_014B0F8F
@ 103   ----------------------------------------
 .byte   PATT
  .word Label_8_014B0F8F
@ 104   ----------------------------------------
 .byte   PATT
  .word Label_8_014B0F8F
@ 105   ----------------------------------------
 .byte   PATT
  .word Label_8_014B106D
@ 106   ----------------------------------------
 .byte   PATT
  .word Label_8_014B0F8F
@ 107   ----------------------------------------
 .byte   PATT
  .word Label_8_014B0F8F
@ 108   ----------------------------------------
 .byte   PATT
  .word Label_8_014B0F8F
@ 109   ----------------------------------------
 .byte   PATT
  .word Label_8_014B1037
@ 110   ----------------------------------------
 .byte   PATT
  .word Label_8_014B1037
@ 111   ----------------------------------------
 .byte   PATT
  .word Label_8_014B1037
@ 112   ----------------------------------------
 .byte   PATT
  .word Label_8_014B0F8F
@ 113   ----------------------------------------
 .byte   PATT
  .word Label_8_014B10BB
@ 114   ----------------------------------------
 .byte   PATT
  .word Label_8_014B10F0
@ 115   ----------------------------------------
 .byte   PATT
  .word Label_8_014B110F
@ 116   ----------------------------------------
 .byte   PATT
  .word Label_8_014B110F
@ 117   ----------------------------------------
 .byte   N06 ,Gs1 ,v100
 .byte   W06
 .byte   N06
 .byte   W06
 .byte   Cs1
 .byte   N06 ,As1
 .byte   W12
 .byte   Fs1
 .byte   W06
 .byte   N06
 .byte   W06
 .byte   As1
 .byte   W06
 .byte   Fs1
 .byte   W06
 .byte   N06
 .byte   N06 ,Cs2 ,v064
 .byte   W12
 .byte   As1 ,v100
 .byte   W12
 .byte   Cs1
 .byte   N06 ,Fs1
 .byte   W12
 .byte   As1
 .byte   W06
 .byte   Fs1
 .byte   W06
@ 118   ----------------------------------------
 .byte   PATT
  .word Label_8_014B110F
@ 119   ----------------------------------------
 .byte   PATT
  .word Label_8_014B110F
@ 120   ----------------------------------------
 .byte   PATT
  .word Label_8_014B10F0
@ 121   ----------------------------------------
 .byte   PATT
  .word Label_8_014B1161
@ 122   ----------------------------------------
 .byte   N06 ,Dn1 ,v060
 .byte   N06 ,Gs1 ,v100
 .byte   W06
 .byte   Dn1 ,v064
 .byte   N06 ,Gs1 ,v100
 .byte   W06
 .byte   Dn1 ,v068
 .byte   W06
 .byte   N06
 .byte   W06
 .byte   Dn1 ,v072
 .byte   N06 ,Fs1 ,v100
 .byte   W06
 .byte   Dn1 ,v076
 .byte   N06 ,Fs1 ,v100
 .byte   W06
 .byte   Dn1 ,v076
 .byte   W06
 .byte   Dn1 ,v080
 .byte   N06 ,Fs1 ,v100
 .byte   W06
 .byte   Dn1 ,v080
 .byte   N06 ,Fs1 ,v100
 .byte   N06 ,An2 ,v064
 .byte   W12
 .byte   Fs1 ,v100
 .byte   N06 ,As1
 .byte   W12
 .byte   Dn1 ,v080
 .byte   N06 ,Fs1 ,v100
 .byte   W12
 .byte   N06
 .byte   N06 ,As1
 .byte   W12
@ 123   ----------------------------------------
 .byte   PATT
  .word Label_8_014B11C7
@ 124   ----------------------------------------
 .byte   PATT
  .word Label_8_014B11C7
@ 125   ----------------------------------------
 .byte   PATT
  .word Label_8_014B11C7
@ 126   ----------------------------------------
 .byte   PATT
  .word Label_8_014B11F8
@ 127   ----------------------------------------
 .byte   PATT
  .word Label_8_014B11C7
@ 128   ----------------------------------------
 .byte   PATT
  .word Label_8_014B11F8
@ 129   ----------------------------------------
 .byte   PATT
  .word Label_8_014B11C7
@ 130   ----------------------------------------
 .byte   PATT
  .word Label_8_014B1232
@ 131   ----------------------------------------
 .byte   PATT
  .word Label_8_014B11C7
@ 132   ----------------------------------------
 .byte   PATT
  .word Label_8_014B11C7
@ 133   ----------------------------------------
 .byte   PATT
  .word Label_8_014B11C7
@ 134   ----------------------------------------
 .byte   PATT
  .word Label_8_014B11F8
@ 135   ----------------------------------------
 .byte   PATT
  .word Label_8_014B11C7
@ 136   ----------------------------------------
 .byte   PATT
  .word Label_8_014B11F8
@ 137   ----------------------------------------
 .byte   PATT
  .word Label_8_014B11C7
@ 138   ----------------------------------------
 .byte   PATT
  .word Label_8_014B1284
@ 139   ----------------------------------------
 .byte   PATT
  .word Label_8_014B11C7
@ 140   ----------------------------------------
 .byte   PATT
  .word Label_8_014B11C7
@ 141   ----------------------------------------
 .byte   PATT
  .word Label_8_014B11C7
@ 142   ----------------------------------------
 .byte   PATT
  .word Label_8_014B11F8
@ 143   ----------------------------------------
 .byte   PATT
  .word Label_8_014B11C7
@ 144   ----------------------------------------
 .byte   PATT
  .word Label_8_014B11F8
@ 145   ----------------------------------------
 .byte   PATT
  .word Label_8_014B11C7
@ 146   ----------------------------------------
 .byte   PATT
  .word Label_8_014B1232
@ 147   ----------------------------------------
 .byte   PATT
  .word Label_8_014B11C7
@ 148   ----------------------------------------
 .byte   PATT
  .word Label_8_014B11C7
@ 149   ----------------------------------------
 .byte   PATT
  .word Label_8_014B11C7
@ 150   ----------------------------------------
 .byte   PATT
  .word Label_8_014B11F8
@ 151   ----------------------------------------
 .byte   PATT
  .word Label_8_014B11C7
@ 152   ----------------------------------------
 .byte   PATT
  .word Label_8_014B11F8
@ 153   ----------------------------------------
 .byte   PATT
  .word Label_8_014B11C7
@ 154   ----------------------------------------
 .byte   N06 ,Gs1 ,v100
 .byte   W06
 .byte   Gs1 ,v092
 .byte   W06
 .byte   Fs1 ,v100
 .byte   N06 ,As1
 .byte   W12
 .byte   Dn1 ,v080
 .byte   N06 ,Fs1 ,v100
 .byte   W12
 .byte   N06
 .byte   N06 ,As1
 .byte   W12
 .byte   Cs2 ,v064
 .byte   N06 ,An2
 .byte   W48
@ 155   ----------------------------------------
 .byte   W96
@ 156   ----------------------------------------
 .byte   W96
@ 157   ----------------------------------------
 .byte   W96
@ 158   ----------------------------------------
 .byte   W96
@ 159   ----------------------------------------
 .byte   W96
@ 160   ----------------------------------------
 .byte   W96
@ 161   ----------------------------------------
 .byte   W96
@ 162   ----------------------------------------
 .byte   W48
 .byte   Fs1 ,v100
 .byte   W18
 .byte   Fs1 ,v080
 .byte   W06
 .byte   Fs1 ,v100
 .byte   W18
 .byte   Fs1 ,v080
 .byte   W06
@ 163   ----------------------------------------
Label_8_014B15D2:
 .byte   N06 ,Fs1 ,v100
 .byte   W18
 .byte   Fs1 ,v080
 .byte   W06
 .byte   Fs1 ,v100
 .byte   W18
 .byte   Fs1 ,v080
 .byte   W06
 .byte   Fs1 ,v100
 .byte   W18
 .byte   Fs1 ,v080
 .byte   W06
 .byte   Fs1 ,v100
 .byte   W18
 .byte   Fs1 ,v080
 .byte   W06
 .byte   PEND 
@ 164   ----------------------------------------
 .byte   PATT
  .word Label_8_014B15D2
@ 165   ----------------------------------------
 .byte   PATT
  .word Label_8_014B15D2
@ 166   ----------------------------------------
 .byte   PATT
  .word Label_8_014B15D2
@ 167   ----------------------------------------
 .byte   PATT
  .word Label_8_014B15D2
@ 168   ----------------------------------------
 .byte   PATT
  .word Label_8_014B15D2
@ 169   ----------------------------------------
 .byte   N06 ,Fs1 ,v100
 .byte   W18
 .byte   Fs1 ,v080
 .byte   W06
 .byte   Fs1 ,v100
 .byte   W18
 .byte   Fs1 ,v080
 .byte   W06
 .byte   Dn1
 .byte   N06 ,Fs1 ,v100
 .byte   N06 ,Gs1
 .byte   W12
 .byte   Fs1
 .byte   W06
 .byte   Dn1 ,v080
 .byte   W06
 .byte   Fs1 ,v100
 .byte   W06
 .byte   Gs1
 .byte   W06
 .byte   Dn1 ,v080
 .byte   N06 ,Fs1 ,v100
 .byte   N06 ,As1
 .byte   W06
 .byte   Gs1
 .byte   W06
@ 170   ----------------------------------------
 .byte   Dn1 ,v080
 .byte   N06 ,Fs1 ,v100
 .byte   W06
 .byte   Dn1 ,v080
 .byte   W06
 .byte   N06
 .byte   N06 ,Fs1 ,v100
 .byte   W06
 .byte   Dn1 ,v080
 .byte   W06
 .byte   N06
 .byte   N06 ,Fs1 ,v100
 .byte   W06
 .byte   Dn1 ,v080
 .byte   W06
 .byte   N06
 .byte   N06 ,Fs1 ,v100
 .byte   W06
 .byte   Dn1 ,v080
 .byte   W06
 .byte   N06
 .byte   N06 ,Fs1 ,v100
 .byte   N06 ,An2 ,v064
 .byte   W12
 .byte   Fs1 ,v100
 .byte   N06 ,As1
 .byte   W12
 .byte   Dn1 ,v080
 .byte   N06 ,Fs1 ,v100
 .byte   W12
 .byte   N06
 .byte   N06 ,As1
 .byte   W12
@ 171   ----------------------------------------
 .byte   PATT
  .word Label_8_014B11C7
@ 172   ----------------------------------------
 .byte   PATT
  .word Label_8_014B11C7
@ 173   ----------------------------------------
 .byte   PATT
  .word Label_8_014B11C7
@ 174   ----------------------------------------
 .byte   PATT
  .word Label_8_014B11F8
@ 175   ----------------------------------------
 .byte   PATT
  .word Label_8_014B11C7
@ 176   ----------------------------------------
 .byte   PATT
  .word Label_8_014B11F8
@ 177   ----------------------------------------
 .byte   PATT
  .word Label_8_014B11C7
@ 178   ----------------------------------------
 .byte   PATT
  .word Label_8_014B1232
@ 179   ----------------------------------------
 .byte   PATT
  .word Label_8_014B11C7
@ 180   ----------------------------------------
 .byte   PATT
  .word Label_8_014B11C7
@ 181   ----------------------------------------
 .byte   PATT
  .word Label_8_014B11C7
@ 182   ----------------------------------------
 .byte   PATT
  .word Label_8_014B11F8
@ 183   ----------------------------------------
 .byte   PATT
  .word Label_8_014B11C7
@ 184   ----------------------------------------
 .byte   PATT
  .word Label_8_014B11F8
@ 185   ----------------------------------------
 .byte   PATT
  .word Label_8_014B11C7
@ 186   ----------------------------------------
 .byte   N06 ,Gs1 ,v100
 .byte   W06
 .byte   Gs1 ,v092
 .byte   W06
 .byte   Fs1 ,v100
 .byte   N06 ,As1
 .byte   W12
 .byte   Dn1 ,v080
 .byte   N06 ,Fs1 ,v100
 .byte   W12
 .byte   N06
 .byte   N06 ,As1
 .byte   W12
 .byte   Fn2
 .byte   N06 ,Gn2
 .byte   N06 ,An2 ,v064
 .byte   W24
 .byte   Fn2 ,v100
 .byte   N06 ,Gn2
 .byte   W24
@ 187   ----------------------------------------
 .byte   PATT
  .word Label_8_014B133C
@ 188   ----------------------------------------
 .byte   N06 ,Dn1 ,v080
 .byte   N06 ,Fn2 ,v100
 .byte   N06 ,Gn2
 .byte   W06
 .byte   Dn1 ,v080
 .byte   W06
 .byte   N06
 .byte   W06
 .byte   N06
 .byte   W06
 .byte   N06
 .byte   N06 ,Fn2 ,v100
 .byte   N06 ,Gn2
 .byte   W06
 .byte   Dn1 ,v080
 .byte   W06
 .byte   N06
 .byte   W06
 .byte   N06
 .byte   W06
 .byte   Fs1 ,v072
 .byte   N06 ,Fs2 ,v127
 .byte   W12
 .byte   Fs1 ,v072
 .byte   W06
 .byte   N06
 .byte   W06
 .byte   As1 ,v080
 .byte   W24
@ 189   ----------------------------------------
Label_8_014B1703:
 .byte   N06 ,Fs1 ,v072
 .byte   N06 ,Fs2 ,v127
 .byte   W12
 .byte   Fs1 ,v072
 .byte   W06
 .byte   N06
 .byte   W06
 .byte   As1 ,v080
 .byte   W24
 .byte   Fs1 ,v072
 .byte   N06 ,Fs2 ,v127
 .byte   W12
 .byte   Fs1 ,v072
 .byte   W06
 .byte   N06
 .byte   W06
 .byte   As1 ,v080
 .byte   W24
 .byte   PEND 
@ 190   ----------------------------------------
 .byte   PATT
  .word Label_8_014B1703
@ 191   ----------------------------------------
 .byte   PATT
  .word Label_8_014B1703
@ 192   ----------------------------------------
 .byte   PATT
  .word Label_8_014B1703
@ 193   ----------------------------------------
 .byte   PATT
  .word Label_8_014B1703
@ 194   ----------------------------------------
 .byte   PATT
  .word Label_8_014B1703
@ 195   ----------------------------------------
 .byte   PATT
  .word Label_8_014B1703
@ 196   ----------------------------------------
 .byte   PATT
  .word Label_8_014B1703
@ 197   ----------------------------------------
 .byte   PATT
  .word Label_8_014B1703
@ 198   ----------------------------------------
 .byte   PATT
  .word Label_8_014B1703
@ 199   ----------------------------------------
 .byte   PATT
  .word Label_8_014B1703
@ 200   ----------------------------------------
 .byte   PATT
  .word Label_8_014B1703
@ 201   ----------------------------------------
 .byte   PATT
  .word Label_8_014B1703
@ 202   ----------------------------------------
 .byte   PATT
  .word Label_8_014B1703
@ 203   ----------------------------------------
 .byte   N06 ,Fs1 ,v072
 .byte   N06 ,Fs2 ,v127
 .byte   W12
 .byte   Dn1 ,v080
 .byte   N06 ,Fs1 ,v072
 .byte   W06
 .byte   N06
 .byte   W06
 .byte   As1 ,v080
 .byte   W12
 .byte   Dn1
 .byte   W12
 .byte   Fs1 ,v072
 .byte   W06
 .byte   N06
 .byte   W06
 .byte   Dn1 ,v080
 .byte   N06 ,Cs2 ,v064
 .byte   W12
 .byte   Fs1 ,v072
 .byte   W06
 .byte   N06
 .byte   W06
 .byte   Dn1 ,v080
 .byte   N06 ,Cs2 ,v064
 .byte   W12
@ 204   ----------------------------------------
 .byte   Dn1
 .byte   N06 ,Fs1 ,v072
 .byte   W06
 .byte   Dn1 ,v068
 .byte   W06
 .byte   N06
 .byte   N06 ,Fs1 ,v072
 .byte   W06
 .byte   Dn1
 .byte   N06 ,Fs1
 .byte   W06
 .byte   Dn1 ,v076
 .byte   W06
 .byte   N06
 .byte   W06
 .byte   Dn1 ,v080
 .byte   W06
 .byte   N06
 .byte   W06
 .byte   GOTO
  .word Label_8_014B0E6E
 .byte   FINE

@**************** Track 10 (Midi-Chn.9) ****************@

songC6_010:
@ 000   ----------------------------------------
 .byte   KEYSH , songC6_key+0
Label_9_014B1ABA:
 .byte   VOICE , 100
 .byte   PAN , c_v-28
 .byte   VOL , 27*songC6_mvl/mxv
 .byte   W96
@ 001   ----------------------------------------
 .byte   W96
@ 002   ----------------------------------------
 .byte   W96
@ 003   ----------------------------------------
 .byte   W96
@ 004   ----------------------------------------
 .byte   W96
@ 005   ----------------------------------------
 .byte   W96
@ 006   ----------------------------------------
 .byte   W96
@ 007   ----------------------------------------
 .byte   W96
@ 008   ----------------------------------------
 .byte   W96
@ 009   ----------------------------------------
 .byte   W96
@ 010   ----------------------------------------
 .byte   W96
@ 011   ----------------------------------------
 .byte   W96
@ 012   ----------------------------------------
 .byte   W96
@ 013   ----------------------------------------
 .byte   W96
@ 014   ----------------------------------------
 .byte   W96
@ 015   ----------------------------------------
 .byte   W96
@ 016   ----------------------------------------
 .byte   W96
@ 017   ----------------------------------------
 .byte   W96
@ 018   ----------------------------------------
 .byte   W96
@ 019   ----------------------------------------
 .byte   W96
@ 020   ----------------------------------------
 .byte   W96
@ 021   ----------------------------------------
 .byte   W96
@ 022   ----------------------------------------
Label_9_014B1AD6:
 .byte   W48
 .byte   N92 ,Gs5 ,v072
 .byte   N92 ,Bn5
 .byte   N92 ,Fs6
 .byte   W48
 .byte   PEND 
@ 023   ----------------------------------------
 .byte   W96
@ 024   ----------------------------------------
 .byte   W96
@ 025   ----------------------------------------
 .byte   W96
@ 026   ----------------------------------------
 .byte   W96
@ 027   ----------------------------------------
 .byte   W96
@ 028   ----------------------------------------
 .byte   W96
@ 029   ----------------------------------------
 .byte   W96
@ 030   ----------------------------------------
 .byte   W48
 .byte   N44 ,Cs5
 .byte   N44 ,Gs5
 .byte   N44 ,Cs6
 .byte   W48
@ 031   ----------------------------------------
 .byte   Cn5
 .byte   N44 ,Gs5
 .byte   N44 ,Ds6
 .byte   W96
@ 032   ----------------------------------------
 .byte   W96
@ 033   ----------------------------------------
 .byte   W96
@ 034   ----------------------------------------
 .byte   W96
@ 035   ----------------------------------------
 .byte   W96
@ 036   ----------------------------------------
 .byte   W96
@ 037   ----------------------------------------
 .byte   W96
@ 038   ----------------------------------------
Label_9_014B1AFB:
 .byte   W48
 .byte   N23 ,Gs4 ,v072
 .byte   N23 ,Fs5
 .byte   N23 ,Gs5
 .byte   W24
 .byte   Fs4
 .byte   N23 ,Ds5
 .byte   N23 ,Fs5
 .byte   W24
 .byte   PEND 
@ 039   ----------------------------------------
Label_9_014B1B0B:
 .byte   N23 ,En4 ,v072
 .byte   N23 ,Cs5
 .byte   N23 ,En5
 .byte   W24
 .byte   Ds4
 .byte   N23 ,Bn4
 .byte   N23 ,Ds5
 .byte   W24
 .byte   N92 ,Bn3
 .byte   N92 ,En4
 .byte   W48
 .byte   PEND 
@ 040   ----------------------------------------
Label_9_014B1B1F:
 .byte   W48
 .byte   N92 ,Cs4 ,v072
 .byte   N92 ,Gs4
 .byte   W48
 .byte   PEND 
@ 041   ----------------------------------------
Label_9_014B1B27:
 .byte   W48
 .byte   N92 ,En4 ,v072
 .byte   N92 ,Bn4
 .byte   W48
 .byte   PEND 
@ 042   ----------------------------------------
Label_9_014B1B2F:
 .byte   W48
 .byte   N44 ,Gs4 ,v072
 .byte   N44 ,Cs5
 .byte   W48
 .byte   PEND 
@ 043   ----------------------------------------
Label_9_014B1B37:
 .byte   N44 ,Fs4 ,v072
 .byte   N44 ,Bn4
 .byte   W48
 .byte   N92 ,Fn4
 .byte   N92 ,As4
 .byte   W48
 .byte   PEND 
@ 044   ----------------------------------------
Label_9_014B1B43:
 .byte   W48
 .byte   N92 ,Ds4 ,v072
 .byte   N92 ,As4
 .byte   W48
 .byte   PEND 
@ 045   ----------------------------------------
Label_9_014B1B4B:
 .byte   W48
 .byte   N44 ,Ds4 ,v072
 .byte   N44 ,Gs4
 .byte   W48
 .byte   PEND 
@ 046   ----------------------------------------
Label_9_014B1B53:
 .byte   N44 ,Ds4 ,v072
 .byte   N44 ,Gs4
 .byte   W48
 .byte   Fn4
 .byte   N44 ,As4
 .byte   N23 ,Fn5
 .byte   N23 ,As5
 .byte   W24
 .byte   Ds5
 .byte   W24
 .byte   PEND 
@ 047   ----------------------------------------
 .byte   N44 ,Fn4
 .byte   N44 ,As4
 .byte   N23 ,Fn5
 .byte   W24
 .byte   N23
 .byte   N23 ,As5
 .byte   W24
 .byte   N44 ,As4
 .byte   W48
@ 048   ----------------------------------------
Label_9_014B1B72:
 .byte   N44 ,Gs4 ,v072
 .byte   W48
 .byte   Fs4
 .byte   W48
 .byte   PEND 
@ 049   ----------------------------------------
Label_9_014B1B79:
 .byte   N44 ,Gs4 ,v072
 .byte   W48
 .byte   As4
 .byte   W48
 .byte   PEND 
@ 050   ----------------------------------------
 .byte   PATT
  .word Label_9_014B1B72
@ 051   ----------------------------------------
 .byte   PATT
  .word Label_9_014B1B79
@ 052   ----------------------------------------
 .byte   PATT
  .word Label_9_014B1B72
@ 053   ----------------------------------------
 .byte   PATT
  .word Label_9_014B1B79
@ 054   ----------------------------------------
 .byte   PATT
  .word Label_9_014B1B72
@ 055   ----------------------------------------
 .byte   PATT
  .word Label_9_014B1B79
@ 056   ----------------------------------------
 .byte   PATT
  .word Label_9_014B1B72
@ 057   ----------------------------------------
 .byte   PATT
  .word Label_9_014B1B79
@ 058   ----------------------------------------
 .byte   PATT
  .word Label_9_014B1B72
@ 059   ----------------------------------------
 .byte   PATT
  .word Label_9_014B1B79
@ 060   ----------------------------------------
 .byte   PATT
  .word Label_9_014B1B72
@ 061   ----------------------------------------
 .byte   PATT
  .word Label_9_014B1B79
@ 062   ----------------------------------------
 .byte   PATT
  .word Label_9_014B1B72
@ 063   ----------------------------------------
 .byte   PATT
  .word Label_9_014B1B79
@ 064   ----------------------------------------
 .byte   PATT
  .word Label_9_014B1B72
@ 065   ----------------------------------------
 .byte   PATT
  .word Label_9_014B1B79
@ 066   ----------------------------------------
 .byte   PATT
  .word Label_9_014B1B72
@ 067   ----------------------------------------
 .byte   PATT
  .word Label_9_014B1B79
@ 068   ----------------------------------------
 .byte   PATT
  .word Label_9_014B1B72
@ 069   ----------------------------------------
 .byte   PATT
  .word Label_9_014B1B79
@ 070   ----------------------------------------
 .byte   PATT
  .word Label_9_014B1B72
@ 071   ----------------------------------------
 .byte   PATT
  .word Label_9_014B1B79
@ 072   ----------------------------------------
 .byte   PATT
  .word Label_9_014B1B72
@ 073   ----------------------------------------
 .byte   PATT
  .word Label_9_014B1B79
@ 074   ----------------------------------------
 .byte   PATT
  .word Label_9_014B1B72
@ 075   ----------------------------------------
 .byte   PATT
  .word Label_9_014B1B79
@ 076   ----------------------------------------
 .byte   PATT
  .word Label_9_014B1B72
@ 077   ----------------------------------------
 .byte   PATT
  .word Label_9_014B1B79
@ 078   ----------------------------------------
 .byte   N44 ,Gs4 ,v072
 .byte   W48
 .byte   N44
 .byte   W48
@ 079   ----------------------------------------
 .byte   Fs4
 .byte   W48
 .byte   N92 ,Dn5
 .byte   W48
@ 080   ----------------------------------------
 .byte   W48
 .byte   Cs5
 .byte   W48
@ 081   ----------------------------------------
 .byte   W96
@ 082   ----------------------------------------
 .byte   W96
@ 083   ----------------------------------------
 .byte   W96
@ 084   ----------------------------------------
 .byte   W96
@ 085   ----------------------------------------
 .byte   W96
@ 086   ----------------------------------------
 .byte   W96
@ 087   ----------------------------------------
 .byte   W96
@ 088   ----------------------------------------
 .byte   W96
@ 089   ----------------------------------------
 .byte   W96
@ 090   ----------------------------------------
 .byte   W96
@ 091   ----------------------------------------
 .byte   W96
@ 092   ----------------------------------------
 .byte   W96
@ 093   ----------------------------------------
 .byte   W96
@ 094   ----------------------------------------
 .byte   W96
@ 095   ----------------------------------------
 .byte   W96
@ 096   ----------------------------------------
 .byte   PATT
  .word Label_9_014B1AD6
@ 097   ----------------------------------------
 .byte   W96
@ 098   ----------------------------------------
 .byte   W96
@ 099   ----------------------------------------
 .byte   W96
@ 100   ----------------------------------------
 .byte   W96
@ 101   ----------------------------------------
 .byte   W96
@ 102   ----------------------------------------
 .byte   W96
@ 103   ----------------------------------------
 .byte   W96
@ 104   ----------------------------------------
 .byte   W48
 .byte   N44 ,Cs4 ,v072
 .byte   N44 ,Gs4
 .byte   N44 ,Cs5
 .byte   W48
@ 105   ----------------------------------------
 .byte   Cn4
 .byte   N44 ,Gs4
 .byte   N44 ,Ds5
 .byte   W96
@ 106   ----------------------------------------
 .byte   W96
@ 107   ----------------------------------------
 .byte   W96
@ 108   ----------------------------------------
 .byte   W96
@ 109   ----------------------------------------
 .byte   W96
@ 110   ----------------------------------------
 .byte   W96
@ 111   ----------------------------------------
 .byte   W96
@ 112   ----------------------------------------
 .byte   PATT
  .word Label_9_014B1AFB
@ 113   ----------------------------------------
 .byte   PATT
  .word Label_9_014B1B0B
@ 114   ----------------------------------------
 .byte   PATT
  .word Label_9_014B1B1F
@ 115   ----------------------------------------
 .byte   PATT
  .word Label_9_014B1B27
@ 116   ----------------------------------------
 .byte   PATT
  .word Label_9_014B1B2F
@ 117   ----------------------------------------
 .byte   PATT
  .word Label_9_014B1B37
@ 118   ----------------------------------------
 .byte   PATT
  .word Label_9_014B1B43
@ 119   ----------------------------------------
 .byte   PATT
  .word Label_9_014B1B4B
@ 120   ----------------------------------------
 .byte   PATT
  .word Label_9_014B1B53
@ 121   ----------------------------------------
 .byte   N44 ,Fn4 ,v072
 .byte   N44 ,As4
 .byte   N23 ,Fn5
 .byte   W24
 .byte   N23
 .byte   N23 ,As5
 .byte   W24
 .byte   N44 ,Gn4
 .byte   N44 ,Cn5
 .byte   N23 ,Gn5
 .byte   N23 ,Cn6
 .byte   W24
 .byte   Fn5
 .byte   W24
@ 122   ----------------------------------------
 .byte   N44 ,Gn4
 .byte   N44 ,Cn5
 .byte   N23 ,Gn5
 .byte   W24
 .byte   N23
 .byte   N23 ,Cn6
 .byte   W24
 .byte   N44 ,Cn5
 .byte   W48
@ 123   ----------------------------------------
Label_9_014B1C9C:
 .byte   N44 ,As4 ,v072
 .byte   W48
 .byte   Gs4
 .byte   W48
 .byte   PEND 
@ 124   ----------------------------------------
Label_9_014B1CA3:
 .byte   N44 ,As4 ,v072
 .byte   W48
 .byte   Cn5
 .byte   W48
 .byte   PEND 
@ 125   ----------------------------------------
 .byte   PATT
  .word Label_9_014B1C9C
@ 126   ----------------------------------------
 .byte   PATT
  .word Label_9_014B1CA3
@ 127   ----------------------------------------
 .byte   PATT
  .word Label_9_014B1C9C
@ 128   ----------------------------------------
 .byte   PATT
  .word Label_9_014B1CA3
@ 129   ----------------------------------------
 .byte   PATT
  .word Label_9_014B1C9C
@ 130   ----------------------------------------
 .byte   PATT
  .word Label_9_014B1CA3
@ 131   ----------------------------------------
 .byte   PATT
  .word Label_9_014B1C9C
@ 132   ----------------------------------------
 .byte   PATT
  .word Label_9_014B1CA3
@ 133   ----------------------------------------
 .byte   PATT
  .word Label_9_014B1C9C
@ 134   ----------------------------------------
 .byte   PATT
  .word Label_9_014B1CA3
@ 135   ----------------------------------------
 .byte   PATT
  .word Label_9_014B1C9C
@ 136   ----------------------------------------
 .byte   PATT
  .word Label_9_014B1CA3
@ 137   ----------------------------------------
 .byte   PATT
  .word Label_9_014B1C9C
@ 138   ----------------------------------------
 .byte   PATT
  .word Label_9_014B1CA3
@ 139   ----------------------------------------
 .byte   PATT
  .word Label_9_014B1C9C
@ 140   ----------------------------------------
 .byte   PATT
  .word Label_9_014B1CA3
@ 141   ----------------------------------------
 .byte   PATT
  .word Label_9_014B1C9C
@ 142   ----------------------------------------
 .byte   PATT
  .word Label_9_014B1CA3
@ 143   ----------------------------------------
 .byte   PATT
  .word Label_9_014B1C9C
@ 144   ----------------------------------------
 .byte   PATT
  .word Label_9_014B1CA3
@ 145   ----------------------------------------
 .byte   PATT
  .word Label_9_014B1C9C
@ 146   ----------------------------------------
 .byte   PATT
  .word Label_9_014B1CA3
@ 147   ----------------------------------------
 .byte   PATT
  .word Label_9_014B1C9C
@ 148   ----------------------------------------
 .byte   PATT
  .word Label_9_014B1CA3
@ 149   ----------------------------------------
 .byte   PATT
  .word Label_9_014B1C9C
@ 150   ----------------------------------------
 .byte   PATT
  .word Label_9_014B1CA3
@ 151   ----------------------------------------
 .byte   PATT
  .word Label_9_014B1C9C
@ 152   ----------------------------------------
 .byte   PATT
  .word Label_9_014B1CA3
@ 153   ----------------------------------------
Label_9_014B1D36:
 .byte   N44 ,As4 ,v072
 .byte   W48
 .byte   N44
 .byte   W48
 .byte   PEND 
@ 154   ----------------------------------------
 .byte   Gs4
 .byte   W96
@ 155   ----------------------------------------
 .byte   W96
@ 156   ----------------------------------------
 .byte   W96
@ 157   ----------------------------------------
 .byte   W96
@ 158   ----------------------------------------
 .byte   W96
@ 159   ----------------------------------------
 .byte   W96
@ 160   ----------------------------------------
 .byte   W96
@ 161   ----------------------------------------
 .byte   W96
@ 162   ----------------------------------------
 .byte   W96
@ 163   ----------------------------------------
 .byte   W96
@ 164   ----------------------------------------
 .byte   W96
@ 165   ----------------------------------------
 .byte   W96
@ 166   ----------------------------------------
 .byte   W96
@ 167   ----------------------------------------
 .byte   W96
@ 168   ----------------------------------------
 .byte   W96
@ 169   ----------------------------------------
 .byte   W96
@ 170   ----------------------------------------
 .byte   W48
 .byte   Cn5
 .byte   W48
@ 171   ----------------------------------------
 .byte   PATT
  .word Label_9_014B1C9C
@ 172   ----------------------------------------
 .byte   PATT
  .word Label_9_014B1CA3
@ 173   ----------------------------------------
 .byte   PATT
  .word Label_9_014B1C9C
@ 174   ----------------------------------------
 .byte   PATT
  .word Label_9_014B1CA3
@ 175   ----------------------------------------
 .byte   PATT
  .word Label_9_014B1C9C
@ 176   ----------------------------------------
 .byte   PATT
  .word Label_9_014B1CA3
@ 177   ----------------------------------------
 .byte   PATT
  .word Label_9_014B1C9C
@ 178   ----------------------------------------
 .byte   PATT
  .word Label_9_014B1CA3
@ 179   ----------------------------------------
 .byte   PATT
  .word Label_9_014B1C9C
@ 180   ----------------------------------------
 .byte   PATT
  .word Label_9_014B1CA3
@ 181   ----------------------------------------
 .byte   PATT
  .word Label_9_014B1C9C
@ 182   ----------------------------------------
 .byte   PATT
  .word Label_9_014B1CA3
@ 183   ----------------------------------------
 .byte   PATT
  .word Label_9_014B1C9C
@ 184   ----------------------------------------
 .byte   PATT
  .word Label_9_014B1CA3
@ 185   ----------------------------------------
 .byte   PATT
  .word Label_9_014B1D36
@ 186   ----------------------------------------
 .byte   N44 ,Gs4 ,v072
 .byte   W48
 .byte   N92 ,En5
 .byte   W48
@ 187   ----------------------------------------
 .byte   W48
 .byte   Ds5
 .byte   W48
@ 188   ----------------------------------------
 .byte   W96
@ 189   ----------------------------------------
 .byte   W96
@ 190   ----------------------------------------
 .byte   W96
@ 191   ----------------------------------------
 .byte   W96
@ 192   ----------------------------------------
 .byte   W96
@ 193   ----------------------------------------
 .byte   W96
@ 194   ----------------------------------------
 .byte   W96
@ 195   ----------------------------------------
 .byte   W96
@ 196   ----------------------------------------
 .byte   W96
@ 197   ----------------------------------------
 .byte   W96
@ 198   ----------------------------------------
 .byte   W96
@ 199   ----------------------------------------
 .byte   W96
@ 200   ----------------------------------------
 .byte   W96
@ 201   ----------------------------------------
 .byte   W96
@ 202   ----------------------------------------
 .byte   W96
@ 203   ----------------------------------------
 .byte   W96
@ 204   ----------------------------------------
 .byte   W48
 .byte   GOTO
  .word Label_9_014B1ABA
 .byte   FINE

@**************** Track 11 (Midi-Chn.10) ****************@

songC6_011:
@ 000   ----------------------------------------
 .byte   KEYSH , songC6_key+0
Label_10_014B244A:
 .byte   VOICE , 109
 .byte   MOD 3
 .byte   PAN , c_v-64
 .byte   VOL , 33*songC6_mvl/mxv
 .byte   W96
@ 001   ----------------------------------------
 .byte   W48
 .byte   N11 ,En4 ,v080
 .byte   W12
 .byte   Gs4 ,v084
 .byte   W12
 .byte   VOL , 28*songC6_mvl/mxv
 .byte   N11 ,An4 ,v064
 .byte   W01
 .byte   VOL , 30*songC6_mvl/mxv
 .byte   W02
 .byte   VOL , 30*songC6_mvl/mxv
 .byte   W01
 .byte   VOL , 31*songC6_mvl/mxv
 .byte   W03
 .byte   VOL , 31*songC6_mvl/mxv
 .byte   W02
 .byte   VOL , 32*songC6_mvl/mxv
 .byte   W01
 .byte   VOL , 33*songC6_mvl/mxv
 .byte   W02
 .byte   VOL , 33*songC6_mvl/mxv
 .byte   N32 ,Bn4 ,v088
 .byte   W01
 .byte   VOL , 33*songC6_mvl/mxv
 .byte   W02
 .byte   VOL , 34*songC6_mvl/mxv
 .byte   W01
 .byte   VOL , 34*songC6_mvl/mxv
 .byte   W08
@ 002   ----------------------------------------
 .byte   W07
 .byte   VOL , 33*songC6_mvl/mxv
 .byte   W03
 .byte   VOL , 33*songC6_mvl/mxv
 .byte   W02
 .byte   VOL , 32*songC6_mvl/mxv
 .byte   W01
 .byte   VOL , 31*songC6_mvl/mxv
 .byte   W02
 .byte   VOL , 31*songC6_mvl/mxv
 .byte   W01
 .byte   VOL , 30*songC6_mvl/mxv
 .byte   W02
 .byte   VOL , 29*songC6_mvl/mxv
 .byte   W01
 .byte   VOL , 28*songC6_mvl/mxv
 .byte   W02
 .byte   VOL , 27*songC6_mvl/mxv
 .byte   W01
 .byte   VOL , 24*songC6_mvl/mxv
 .byte   W02
 .byte   VOL , 33*songC6_mvl/mxv
 .byte   N11 ,An4
 .byte   W12
 .byte   Gs4
 .byte   W12
 .byte   En4 ,v084
 .byte   W12
 .byte   Gs3 ,v068
 .byte   W12
 .byte   Bn3 ,v084
 .byte   W12
 .byte   Cs4 ,v060
 .byte   W12
@ 003   ----------------------------------------
 .byte   Ds4 ,v084
 .byte   W12
 .byte   TIE ,En4 ,v080
 .byte   W44
 .byte   W02
 .byte   VOL , 33*songC6_mvl/mxv
 .byte   W06
 .byte   VOL , 33*songC6_mvl/mxv
 .byte   W06
 .byte   VOL , 32*songC6_mvl/mxv
 .byte   W08
 .byte   VOL , 32*songC6_mvl/mxv
 .byte   W07
 .byte   VOL , 32*songC6_mvl/mxv
 .byte   W05
 .byte   VOL , 31*songC6_mvl/mxv
 .byte   W01
 .byte   VOL , 31*songC6_mvl/mxv
 .byte   W05
@ 004   ----------------------------------------
 .byte   VOL , 31*songC6_mvl/mxv
 .byte   W01
 .byte   VOL , 30*songC6_mvl/mxv
 .byte   W03
 .byte   VOL , 30*songC6_mvl/mxv
 .byte   W02
 .byte   VOL , 30*songC6_mvl/mxv
 .byte   W01
 .byte   VOL , 29*songC6_mvl/mxv
 .byte   W03
 .byte   VOL , 29*songC6_mvl/mxv
 .byte   W02
 .byte   VOL , 29*songC6_mvl/mxv
 .byte   W01
 .byte   VOL , 28*songC6_mvl/mxv
 .byte   W02
 .byte   VOL , 28*songC6_mvl/mxv
 .byte   W03
 .byte   VOL , 28*songC6_mvl/mxv
 .byte   W01
 .byte   VOL , 27*songC6_mvl/mxv
 .byte   W03
 .byte   VOL , 27*songC6_mvl/mxv
 .byte   W02
 .byte   VOL , 26*songC6_mvl/mxv
 .byte   W01
 .byte   VOL , 26*songC6_mvl/mxv
 .byte   W03
 .byte   VOL , 25*songC6_mvl/mxv
 .byte   W03
 .byte   VOL , 25*songC6_mvl/mxv
 .byte   W02
 .byte   VOL , 24*songC6_mvl/mxv
 .byte   W01
 .byte   VOL , 24*songC6_mvl/mxv
 .byte   W03
 .byte   VOL , 24*songC6_mvl/mxv
 .byte   W02
 .byte   VOL , 23*songC6_mvl/mxv
 .byte   W01
 .byte   VOL , 23*songC6_mvl/mxv
 .byte   W02
 .byte   VOL , 23*songC6_mvl/mxv
 .byte   W03
 .byte   VOL , 22*songC6_mvl/mxv
 .byte   W01
 .byte   VOL , 22*songC6_mvl/mxv
 .byte   W02
 .byte   VOL , 21*songC6_mvl/mxv
 .byte   W03
 .byte   VOL , 20*songC6_mvl/mxv
 .byte   W03
 .byte   VOL , 20*songC6_mvl/mxv
 .byte   W01
 .byte   VOL , 20*songC6_mvl/mxv
 .byte   W02
 .byte   VOL , 19*songC6_mvl/mxv
 .byte   W03
 .byte   VOL , 18*songC6_mvl/mxv
 .byte   W01
 .byte   VOL , 18*songC6_mvl/mxv
 .byte   W03
 .byte   VOL , 18*songC6_mvl/mxv
 .byte   W02
 .byte   VOL , 17*songC6_mvl/mxv
 .byte   W01
 .byte   VOL , 17*songC6_mvl/mxv
 .byte   W02
 .byte   VOL , 16*songC6_mvl/mxv
 .byte   W03
 .byte   VOL , 15*songC6_mvl/mxv
 .byte   W03
 .byte   VOL , 15*songC6_mvl/mxv
 .byte   W01
 .byte   VOL , 14*songC6_mvl/mxv
 .byte   W02
 .byte   VOL , 14*songC6_mvl/mxv
 .byte   W03
 .byte   VOL , 14*songC6_mvl/mxv
 .byte   W01
 .byte   VOL , 13*songC6_mvl/mxv
 .byte   W02
 .byte   VOL , 13*songC6_mvl/mxv
 .byte   W01
 .byte   VOL , 13*songC6_mvl/mxv
 .byte   W02
 .byte   VOL , 12*songC6_mvl/mxv
 .byte   W03
 .byte   VOL , 12*songC6_mvl/mxv
 .byte   W03
 .byte   VOL , 11*songC6_mvl/mxv
 .byte   W01
 .byte   VOL , 11*songC6_mvl/mxv
 .byte   W01
 .byte   EOT
 .byte   W01
@ 005   ----------------------------------------
 .byte   VOL , 11*songC6_mvl/mxv
 .byte   W01
 .byte   VOL , 10*songC6_mvl/mxv
 .byte   W03
 .byte   VOL , 9*songC6_mvl/mxv
 .byte   W02
 .byte   VOL , 9*songC6_mvl/mxv
 .byte   W03
 .byte   VOL , 9*songC6_mvl/mxv
 .byte   W03
 .byte   VOL , 8*songC6_mvl/mxv
 .byte   W01
 .byte   VOL , 8*songC6_mvl/mxv
 .byte   W02
 .byte   VOL , 8*songC6_mvl/mxv
 .byte   W03
 .byte   VOL , 7*songC6_mvl/mxv
 .byte   W01
 .byte   VOL , 7*songC6_mvl/mxv
 .byte   W02
 .byte   VOL , 6*songC6_mvl/mxv
 .byte   W01
 .byte   VOL , 6*songC6_mvl/mxv
 .byte   W02
 .byte   VOL , 33*songC6_mvl/mxv
 .byte   W36
 .byte   N11 ,En3 ,v076
 .byte   W12
 .byte   Gs3 ,v056
 .byte   W12
 .byte   An3 ,v080
 .byte   W12
@ 006   ----------------------------------------
 .byte   N23 ,Bn3 ,v072
 .byte   W04
 .byte   VOL , 33*songC6_mvl/mxv
 .byte   W05
 .byte   VOL , 32*songC6_mvl/mxv
 .byte   W01
 .byte   VOL , 32*songC6_mvl/mxv
 .byte   W02
 .byte   VOL , 32*songC6_mvl/mxv
 .byte   W01
 .byte   VOL , 31*songC6_mvl/mxv
 .byte   W02
 .byte   VOL , 30*songC6_mvl/mxv
 .byte   W01
 .byte   VOL , 30*songC6_mvl/mxv
 .byte   W02
 .byte   VOL , 28*songC6_mvl/mxv
 .byte   W01
 .byte   VOL , 27*songC6_mvl/mxv
 .byte   W02
 .byte   VOL , 26*songC6_mvl/mxv
 .byte   W01
 .byte   VOL , 24*songC6_mvl/mxv
 .byte   W02
 .byte   VOL , 33*songC6_mvl/mxv
 .byte   N11 ,An3 ,v092
 .byte   W12
 .byte   N23 ,Gs3 ,v068
 .byte   W24
 .byte   N11 ,Fs3 ,v060
 .byte   W12
 .byte   N23 ,An3 ,v080
 .byte   W07
 .byte   VOL , 33*songC6_mvl/mxv
 .byte   W02
 .byte   VOL , 32*songC6_mvl/mxv
 .byte   W01
 .byte   VOL , 32*songC6_mvl/mxv
 .byte   W02
 .byte   VOL , 31*songC6_mvl/mxv
 .byte   W01
 .byte   VOL , 30*songC6_mvl/mxv
 .byte   W02
 .byte   VOL , 29*songC6_mvl/mxv
 .byte   W01
 .byte   VOL , 29*songC6_mvl/mxv
 .byte   W02
 .byte   VOL , 28*songC6_mvl/mxv
 .byte   W01
 .byte   VOL , 27*songC6_mvl/mxv
 .byte   W02
 .byte   VOL , 26*songC6_mvl/mxv
 .byte   W01
 .byte   VOL , 25*songC6_mvl/mxv
 .byte   W02
@ 007   ----------------------------------------
 .byte   VOL , 33*songC6_mvl/mxv
 .byte   N11 ,Bn3
 .byte   W12
 .byte   Cs4 ,v052
 .byte   W12
 .byte   N23 ,Ds4 ,v088
 .byte   W07
 .byte   VOL , 33*songC6_mvl/mxv
 .byte   W02
 .byte   VOL , 32*songC6_mvl/mxv
 .byte   W01
 .byte   VOL , 32*songC6_mvl/mxv
 .byte   W02
 .byte   VOL , 31*songC6_mvl/mxv
 .byte   W03
 .byte   VOL , 30*songC6_mvl/mxv
 .byte   W01
 .byte   VOL , 29*songC6_mvl/mxv
 .byte   W02
 .byte   VOL , 29*songC6_mvl/mxv
 .byte   W01
 .byte   VOL , 28*songC6_mvl/mxv
 .byte   W02
 .byte   VOL , 28*songC6_mvl/mxv
 .byte   W01
 .byte   VOL , 27*songC6_mvl/mxv
 .byte   W02
 .byte   TIE ,En4 ,v076
 .byte   W04
 .byte   VOL , 28*songC6_mvl/mxv
 .byte   W05
 .byte   VOL , 28*songC6_mvl/mxv
 .byte   W03
 .byte   VOL , 28*songC6_mvl/mxv
 .byte   W01
 .byte   VOL , 29*songC6_mvl/mxv
 .byte   W02
 .byte   VOL , 29*songC6_mvl/mxv
 .byte   W03
 .byte   VOL , 30*songC6_mvl/mxv
 .byte   W03
 .byte   VOL , 30*songC6_mvl/mxv
 .byte   W01
 .byte   VOL , 31*songC6_mvl/mxv
 .byte   W03
 .byte   VOL , 31*songC6_mvl/mxv
 .byte   W02
 .byte   VOL , 31*songC6_mvl/mxv
 .byte   W01
 .byte   VOL , 32*songC6_mvl/mxv
 .byte   W02
 .byte   VOL , 32*songC6_mvl/mxv
 .byte   W01
 .byte   VOL , 33*songC6_mvl/mxv
 .byte   W02
 .byte   VOL , 33*songC6_mvl/mxv
 .byte   W03
 .byte   VOL , 33*songC6_mvl/mxv
 .byte   W12
@ 008   ----------------------------------------
 .byte   W28
 .byte   VOL , 33*songC6_mvl/mxv
 .byte   W03
 .byte   VOL , 33*songC6_mvl/mxv
 .byte   W03
 .byte   VOL , 32*songC6_mvl/mxv
 .byte   W02
 .byte   VOL , 32*songC6_mvl/mxv
 .byte   W07
 .byte   VOL , 32*songC6_mvl/mxv
 .byte   W03
 .byte   VOL , 31*songC6_mvl/mxv
 .byte   W03
 .byte   VOL , 31*songC6_mvl/mxv
 .byte   W02
 .byte   VOL , 31*songC6_mvl/mxv
 .byte   W03
 .byte   VOL , 30*songC6_mvl/mxv
 .byte   W03
 .byte   VOL , 30*songC6_mvl/mxv
 .byte   W04
 .byte   VOL , 29*songC6_mvl/mxv
 .byte   W05
 .byte   VOL , 29*songC6_mvl/mxv
 .byte   W01
 .byte   VOL , 29*songC6_mvl/mxv
 .byte   W02
 .byte   VOL , 28*songC6_mvl/mxv
 .byte   W03
 .byte   VOL , 28*songC6_mvl/mxv
 .byte   W01
 .byte   VOL , 28*songC6_mvl/mxv
 .byte   W02
 .byte   VOL , 27*songC6_mvl/mxv
 .byte   W01
 .byte   VOL , 27*songC6_mvl/mxv
 .byte   W02
 .byte   VOL , 27*songC6_mvl/mxv
 .byte   W01
 .byte   VOL , 26*songC6_mvl/mxv
 .byte   W02
 .byte   VOL , 26*songC6_mvl/mxv
 .byte   W01
 .byte   VOL , 25*songC6_mvl/mxv
 .byte   W02
 .byte   VOL , 25*songC6_mvl/mxv
 .byte   W01
 .byte   VOL , 24*songC6_mvl/mxv
 .byte   W02
 .byte   VOL , 24*songC6_mvl/mxv
 .byte   W01
 .byte   VOL , 23*songC6_mvl/mxv
 .byte   W01
 .byte   EOT
 .byte   W01
 .byte   VOL , 23*songC6_mvl/mxv
 .byte   W01
 .byte   VOL , 22*songC6_mvl/mxv
 .byte   W02
 .byte   VOL , 21*songC6_mvl/mxv
 .byte   W01
 .byte   VOL , 20*songC6_mvl/mxv
 .byte   W02
@ 009   ----------------------------------------
 .byte   VOL , 25*songC6_mvl/mxv
 .byte   N44 ,Fs4 ,v084
 .byte   W01
 .byte   VOL , 26*songC6_mvl/mxv
 .byte   W02
 .byte   VOL , 27*songC6_mvl/mxv
 .byte   W01
 .byte   VOL , 28*songC6_mvl/mxv
 .byte   W02
 .byte   VOL , 28*songC6_mvl/mxv
 .byte   W01
 .byte   VOL , 29*songC6_mvl/mxv
 .byte   W02
 .byte   VOL , 30*songC6_mvl/mxv
 .byte   W01
 .byte   VOL , 31*songC6_mvl/mxv
 .byte   W02
 .byte   VOL , 31*songC6_mvl/mxv
 .byte   W03
 .byte   VOL , 31*songC6_mvl/mxv
 .byte   W01
 .byte   VOL , 32*songC6_mvl/mxv
 .byte   W17
 .byte   VOL , 31*songC6_mvl/mxv
 .byte   W01
 .byte   VOL , 31*songC6_mvl/mxv
 .byte   W02
 .byte   VOL , 31*songC6_mvl/mxv
 .byte   W01
 .byte   VOL , 30*songC6_mvl/mxv
 .byte   W02
 .byte   VOL , 29*songC6_mvl/mxv
 .byte   W01
 .byte   VOL , 28*songC6_mvl/mxv
 .byte   W02
 .byte   VOL , 28*songC6_mvl/mxv
 .byte   W01
 .byte   VOL , 27*songC6_mvl/mxv
 .byte   W02
 .byte   VOL , 26*songC6_mvl/mxv
 .byte   W01
 .byte   VOL , 24*songC6_mvl/mxv
 .byte   W02
 .byte   VOL , 23*songC6_mvl/mxv
 .byte   TIE ,En4
 .byte   W01
 .byte   VOL , 24*songC6_mvl/mxv
 .byte   W02
 .byte   VOL , 24*songC6_mvl/mxv
 .byte   W01
 .byte   VOL , 25*songC6_mvl/mxv
 .byte   W02
 .byte   VOL , 25*songC6_mvl/mxv
 .byte   W03
 .byte   VOL , 26*songC6_mvl/mxv
 .byte   W03
 .byte   VOL , 27*songC6_mvl/mxv
 .byte   W03
 .byte   VOL , 27*songC6_mvl/mxv
 .byte   W01
 .byte   VOL , 28*songC6_mvl/mxv
 .byte   W02
 .byte   VOL , 28*songC6_mvl/mxv
 .byte   W03
 .byte   VOL , 28*songC6_mvl/mxv
 .byte   W01
 .byte   VOL , 29*songC6_mvl/mxv
 .byte   W03
 .byte   VOL , 29*songC6_mvl/mxv
 .byte   W03
 .byte   VOL , 29*songC6_mvl/mxv
 .byte   W02
 .byte   VOL , 30*songC6_mvl/mxv
 .byte   W01
 .byte   VOL , 30*songC6_mvl/mxv
 .byte   W03
 .byte   VOL , 31*songC6_mvl/mxv
 .byte   W02
 .byte   VOL , 31*songC6_mvl/mxv
 .byte   W03
 .byte   VOL , 32*songC6_mvl/mxv
 .byte   W01
 .byte   VOL , 32*songC6_mvl/mxv
 .byte   W03
 .byte   VOL , 32*songC6_mvl/mxv
 .byte   W03
 .byte   VOL , 33*songC6_mvl/mxv
 .byte   W02
@ 010   ----------------------------------------
 .byte   W07
 .byte   VOL , 33*songC6_mvl/mxv
 .byte   W40
 .byte   W01
 .byte   VOL , 33*songC6_mvl/mxv
 .byte   W10
 .byte   VOL , 32*songC6_mvl/mxv
 .byte   W03
 .byte   VOL , 32*songC6_mvl/mxv
 .byte   W02
 .byte   VOL , 32*songC6_mvl/mxv
 .byte   W01
 .byte   VOL , 31*songC6_mvl/mxv
 .byte   W02
 .byte   VOL , 31*songC6_mvl/mxv
 .byte   W01
 .byte   VOL , 31*songC6_mvl/mxv
 .byte   W02
 .byte   VOL , 30*songC6_mvl/mxv
 .byte   W01
 .byte   VOL , 30*songC6_mvl/mxv
 .byte   W02
 .byte   VOL , 29*songC6_mvl/mxv
 .byte   W01
 .byte   VOL , 29*songC6_mvl/mxv
 .byte   W02
 .byte   VOL , 28*songC6_mvl/mxv
 .byte   W01
 .byte   VOL , 28*songC6_mvl/mxv
 .byte   W02
 .byte   VOL , 28*songC6_mvl/mxv
 .byte   W01
 .byte   VOL , 27*songC6_mvl/mxv
 .byte   W02
 .byte   VOL , 26*songC6_mvl/mxv
 .byte   W01
 .byte   VOL , 26*songC6_mvl/mxv
 .byte   W02
 .byte   VOL , 25*songC6_mvl/mxv
 .byte   W01
 .byte   VOL , 25*songC6_mvl/mxv
 .byte   W02
 .byte   VOL , 24*songC6_mvl/mxv
 .byte   W01
 .byte   VOL , 23*songC6_mvl/mxv
 .byte   W01
 .byte   EOT
 .byte   W01
 .byte   VOL , 23*songC6_mvl/mxv
 .byte   W01
 .byte   VOL , 23*songC6_mvl/mxv
 .byte   W02
 .byte   VOL , 22*songC6_mvl/mxv
 .byte   W01
 .byte   VOL , 22*songC6_mvl/mxv
 .byte   W02
@ 011   ----------------------------------------
 .byte   VOL , 33*songC6_mvl/mxv
 .byte   N11 ,Ds4 ,v064
 .byte   W12
 .byte   Cs4 ,v080
 .byte   W12
 .byte   Ds4 ,v048
 .byte   W12
 .byte   VOL , 24*songC6_mvl/mxv
 .byte   TIE ,En4 ,v080
 .byte   W01
 .byte   VOL , 24*songC6_mvl/mxv
 .byte   W02
 .byte   VOL , 24*songC6_mvl/mxv
 .byte   W03
 .byte   VOL , 25*songC6_mvl/mxv
 .byte   W01
 .byte   VOL , 25*songC6_mvl/mxv
 .byte   W03
 .byte   VOL , 26*songC6_mvl/mxv
 .byte   W02
 .byte   VOL , 26*songC6_mvl/mxv
 .byte   W01
 .byte   VOL , 27*songC6_mvl/mxv
 .byte   W05
 .byte   VOL , 27*songC6_mvl/mxv
 .byte   W01
 .byte   VOL , 27*songC6_mvl/mxv
 .byte   W02
 .byte   VOL , 28*songC6_mvl/mxv
 .byte   W01
 .byte   VOL , 28*songC6_mvl/mxv
 .byte   W02
 .byte   VOL , 28*songC6_mvl/mxv
 .byte   W01
 .byte   VOL , 29*songC6_mvl/mxv
 .byte   W02
 .byte   VOL , 29*songC6_mvl/mxv
 .byte   W01
 .byte   VOL , 29*songC6_mvl/mxv
 .byte   W03
 .byte   VOL , 30*songC6_mvl/mxv
 .byte   W02
 .byte   VOL , 30*songC6_mvl/mxv
 .byte   W01
 .byte   VOL , 30*songC6_mvl/mxv
 .byte   W02
 .byte   VOL , 31*songC6_mvl/mxv
 .byte   W03
 .byte   VOL , 31*songC6_mvl/mxv
 .byte   W01
 .byte   VOL , 31*songC6_mvl/mxv
 .byte   W02
 .byte   VOL , 32*songC6_mvl/mxv
 .byte   W01
 .byte   VOL , 32*songC6_mvl/mxv
 .byte   W03
 .byte   VOL , 32*songC6_mvl/mxv
 .byte   W03
 .byte   VOL , 33*songC6_mvl/mxv
 .byte   W03
 .byte   VOL , 33*songC6_mvl/mxv
 .byte   W06
 .byte   VOL , 33*songC6_mvl/mxv
 .byte   W02
@ 012   ----------------------------------------
 .byte   W24
 .byte   W03
 .byte   VOL , 33*songC6_mvl/mxv
 .byte   W04
 .byte   VOL , 33*songC6_mvl/mxv
 .byte   W05
 .byte   VOL , 32*songC6_mvl/mxv
 .byte   W01
 .byte   VOL , 32*songC6_mvl/mxv
 .byte   W03
 .byte   VOL , 32*songC6_mvl/mxv
 .byte   W03
 .byte   VOL , 31*songC6_mvl/mxv
 .byte   W02
 .byte   VOL , 31*songC6_mvl/mxv
 .byte   W03
 .byte   VOL , 31*songC6_mvl/mxv
 .byte   W03
 .byte   VOL , 30*songC6_mvl/mxv
 .byte   W01
 .byte   VOL , 30*songC6_mvl/mxv
 .byte   W02
 .byte   VOL , 29*songC6_mvl/mxv
 .byte   W01
 .byte   VOL , 29*songC6_mvl/mxv
 .byte   W02
 .byte   VOL , 29*songC6_mvl/mxv
 .byte   W01
 .byte   VOL , 28*songC6_mvl/mxv
 .byte   W02
 .byte   VOL , 28*songC6_mvl/mxv
 .byte   W01
 .byte   VOL , 28*songC6_mvl/mxv
 .byte   W02
 .byte   VOL , 27*songC6_mvl/mxv
 .byte   W01
 .byte   VOL , 27*songC6_mvl/mxv
 .byte   W02
 .byte   VOL , 27*songC6_mvl/mxv
 .byte   W01
 .byte   VOL , 26*songC6_mvl/mxv
 .byte   W02
 .byte   VOL , 26*songC6_mvl/mxv
 .byte   W01
 .byte   VOL , 26*songC6_mvl/mxv
 .byte   W02
 .byte   VOL , 25*songC6_mvl/mxv
 .byte   W01
 .byte   VOL , 25*songC6_mvl/mxv
 .byte   W02
 .byte   VOL , 24*songC6_mvl/mxv
 .byte   W01
 .byte   VOL , 24*songC6_mvl/mxv
 .byte   W02
 .byte   VOL , 24*songC6_mvl/mxv
 .byte   W01
 .byte   VOL , 23*songC6_mvl/mxv
 .byte   W02
 .byte   VOL , 23*songC6_mvl/mxv
 .byte   W01
 .byte   VOL , 22*songC6_mvl/mxv
 .byte   W02
 .byte   VOL , 22*songC6_mvl/mxv
 .byte   W01
 .byte   VOL , 22*songC6_mvl/mxv
 .byte   W02
 .byte   VOL , 21*songC6_mvl/mxv
 .byte   W01
 .byte   VOL , 21*songC6_mvl/mxv
 .byte   W02
 .byte   VOL , 20*songC6_mvl/mxv
 .byte   W01
 .byte   VOL , 19*songC6_mvl/mxv
 .byte   W02
 .byte   VOL , 19*songC6_mvl/mxv
 .byte   W01
 .byte   EOT
 .byte   VOL , 18*songC6_mvl/mxv
 .byte   W02
@ 013   ----------------------------------------
 .byte   VOL , 24*songC6_mvl/mxv
 .byte   N44 ,Gs4
 .byte   W01
 .byte   VOL , 25*songC6_mvl/mxv
 .byte   W02
 .byte   VOL , 25*songC6_mvl/mxv
 .byte   W01
 .byte   VOL , 26*songC6_mvl/mxv
 .byte   W02
 .byte   VOL , 27*songC6_mvl/mxv
 .byte   W01
 .byte   VOL , 27*songC6_mvl/mxv
 .byte   W02
 .byte   VOL , 28*songC6_mvl/mxv
 .byte   W01
 .byte   VOL , 29*songC6_mvl/mxv
 .byte   W02
 .byte   VOL , 29*songC6_mvl/mxv
 .byte   W01
 .byte   VOL , 30*songC6_mvl/mxv
 .byte   W02
 .byte   VOL , 30*songC6_mvl/mxv
 .byte   W01
 .byte   VOL , 31*songC6_mvl/mxv
 .byte   W02
 .byte   VOL , 32*songC6_mvl/mxv
 .byte   W01
 .byte   VOL , 32*songC6_mvl/mxv
 .byte   W02
 .byte   VOL , 33*songC6_mvl/mxv
 .byte   W12
 .byte   VOL , 32*songC6_mvl/mxv
 .byte   W01
 .byte   VOL , 32*songC6_mvl/mxv
 .byte   W02
 .byte   VOL , 31*songC6_mvl/mxv
 .byte   W03
 .byte   VOL , 31*songC6_mvl/mxv
 .byte   W01
 .byte   VOL , 30*songC6_mvl/mxv
 .byte   W02
 .byte   VOL , 29*songC6_mvl/mxv
 .byte   W01
 .byte   VOL , 29*songC6_mvl/mxv
 .byte   W02
 .byte   VOL , 28*songC6_mvl/mxv
 .byte   W01
 .byte   VOL , 26*songC6_mvl/mxv
 .byte   W02
 .byte   VOL , 23*songC6_mvl/mxv
 .byte   N92 ,En4
 .byte   W01
 .byte   VOL , 24*songC6_mvl/mxv
 .byte   W02
 .byte   VOL , 24*songC6_mvl/mxv
 .byte   W01
 .byte   VOL , 25*songC6_mvl/mxv
 .byte   W02
 .byte   VOL , 25*songC6_mvl/mxv
 .byte   W01
 .byte   VOL , 26*songC6_mvl/mxv
 .byte   W02
 .byte   VOL , 26*songC6_mvl/mxv
 .byte   W01
 .byte   VOL , 27*songC6_mvl/mxv
 .byte   W02
 .byte   VOL , 27*songC6_mvl/mxv
 .byte   W03
 .byte   VOL , 28*songC6_mvl/mxv
 .byte   W01
 .byte   VOL , 28*songC6_mvl/mxv
 .byte   W02
 .byte   VOL , 29*songC6_mvl/mxv
 .byte   W01
 .byte   VOL , 29*songC6_mvl/mxv
 .byte   W02
 .byte   VOL , 30*songC6_mvl/mxv
 .byte   W01
 .byte   VOL , 30*songC6_mvl/mxv
 .byte   W02
 .byte   VOL , 30*songC6_mvl/mxv
 .byte   W01
 .byte   VOL , 31*songC6_mvl/mxv
 .byte   W02
 .byte   VOL , 31*songC6_mvl/mxv
 .byte   W01
 .byte   VOL , 31*songC6_mvl/mxv
 .byte   W02
 .byte   VOL , 32*songC6_mvl/mxv
 .byte   W03
 .byte   VOL , 32*songC6_mvl/mxv
 .byte   W01
 .byte   VOL , 32*songC6_mvl/mxv
 .byte   W02
 .byte   VOL , 33*songC6_mvl/mxv
 .byte   W12
@ 014   ----------------------------------------
 .byte   W06
 .byte   VOL , 32*songC6_mvl/mxv
 .byte   W01
 .byte   VOL , 32*songC6_mvl/mxv
 .byte   W05
 .byte   VOL , 32*songC6_mvl/mxv
 .byte   W01
 .byte   VOL , 31*songC6_mvl/mxv
 .byte   W02
 .byte   VOL , 31*songC6_mvl/mxv
 .byte   W01
 .byte   VOL , 31*songC6_mvl/mxv
 .byte   W02
 .byte   VOL , 30*songC6_mvl/mxv
 .byte   W03
 .byte   VOL , 30*songC6_mvl/mxv
 .byte   W03
 .byte   VOL , 29*songC6_mvl/mxv
 .byte   W01
 .byte   VOL , 29*songC6_mvl/mxv
 .byte   W02
 .byte   VOL , 28*songC6_mvl/mxv
 .byte   W01
 .byte   VOL , 28*songC6_mvl/mxv
 .byte   W02
 .byte   VOL , 28*songC6_mvl/mxv
 .byte   W01
 .byte   VOL , 27*songC6_mvl/mxv
 .byte   W02
 .byte   VOL , 27*songC6_mvl/mxv
 .byte   W01
 .byte   VOL , 26*songC6_mvl/mxv
 .byte   W02
 .byte   VOL , 26*songC6_mvl/mxv
 .byte   W01
 .byte   VOL , 25*songC6_mvl/mxv
 .byte   W02
 .byte   VOL , 24*songC6_mvl/mxv
 .byte   W01
 .byte   VOL , 23*songC6_mvl/mxv
 .byte   W02
 .byte   VOL , 23*songC6_mvl/mxv
 .byte   W01
 .byte   VOL , 22*songC6_mvl/mxv
 .byte   W02
 .byte   VOL , 22*songC6_mvl/mxv
 .byte   W01
 .byte   VOL , 20*songC6_mvl/mxv
 .byte   W02
 .byte   VOL , 23*songC6_mvl/mxv
 .byte   TIE ,Cs5
 .byte   W03
 .byte   VOL , 24*songC6_mvl/mxv
 .byte   W01
 .byte   VOL , 24*songC6_mvl/mxv
 .byte   W05
 .byte   VOL , 25*songC6_mvl/mxv
 .byte   W04
 .byte   VOL , 25*songC6_mvl/mxv
 .byte   W03
 .byte   VOL , 26*songC6_mvl/mxv
 .byte   W02
 .byte   VOL , 26*songC6_mvl/mxv
 .byte   W01
 .byte   VOL , 26*songC6_mvl/mxv
 .byte   W02
 .byte   VOL , 27*songC6_mvl/mxv
 .byte   W03
 .byte   VOL , 27*songC6_mvl/mxv
 .byte   W04
 .byte   VOL , 27*songC6_mvl/mxv
 .byte   W02
 .byte   VOL , 28*songC6_mvl/mxv
 .byte   W06
 .byte   VOL , 28*songC6_mvl/mxv
 .byte   W12
@ 015   ----------------------------------------
 .byte   W09
 .byte   VOL , 28*songC6_mvl/mxv
 .byte   W01
 .byte   VOL , 27*songC6_mvl/mxv
 .byte   W02
 .byte   VOL , 27*songC6_mvl/mxv
 .byte   W01
 .byte   VOL , 27*songC6_mvl/mxv
 .byte   W02
 .byte   VOL , 26*songC6_mvl/mxv
 .byte   W01
 .byte   VOL , 26*songC6_mvl/mxv
 .byte   W02
 .byte   VOL , 25*songC6_mvl/mxv
 .byte   W01
 .byte   VOL , 25*songC6_mvl/mxv
 .byte   W02
 .byte   VOL , 24*songC6_mvl/mxv
 .byte   W01
 .byte   VOL , 24*songC6_mvl/mxv
 .byte   W02
 .byte   VOL , 23*songC6_mvl/mxv
 .byte   W01
 .byte   VOL , 23*songC6_mvl/mxv
 .byte   W02
 .byte   VOL , 22*songC6_mvl/mxv
 .byte   W01
 .byte   VOL , 22*songC6_mvl/mxv
 .byte   W02
 .byte   VOL , 21*songC6_mvl/mxv
 .byte   W01
 .byte   VOL , 20*songC6_mvl/mxv
 .byte   W02
 .byte   VOL , 19*songC6_mvl/mxv
 .byte   W01
 .byte   VOL , 19*songC6_mvl/mxv
 .byte   W02
 .byte   VOL , 18*songC6_mvl/mxv
 .byte   W01
 .byte   VOL , 18*songC6_mvl/mxv
 .byte   W02
 .byte   VOL , 17*songC6_mvl/mxv
 .byte   W01
 .byte   VOL , 17*songC6_mvl/mxv
 .byte   W02
 .byte   VOL , 16*songC6_mvl/mxv
 .byte   W01
 .byte   VOL , 16*songC6_mvl/mxv
 .byte   W02
 .byte   VOL , 15*songC6_mvl/mxv
 .byte   W01
 .byte   VOL , 15*songC6_mvl/mxv
 .byte   W02
 .byte   VOL , 14*songC6_mvl/mxv
 .byte   W01
 .byte   VOL , 13*songC6_mvl/mxv
 .byte   W02
 .byte   VOL , 13*songC6_mvl/mxv
 .byte   W01
 .byte   VOL , 12*songC6_mvl/mxv
 .byte   W02
 .byte   VOL , 11*songC6_mvl/mxv
 .byte   W01
 .byte   VOL , 11*songC6_mvl/mxv
 .byte   W02
 .byte   VOL , 10*songC6_mvl/mxv
 .byte   W01
 .byte   VOL , 9*songC6_mvl/mxv
 .byte   W02
 .byte   VOL , 9*songC6_mvl/mxv
 .byte   W01
 .byte   EOT
 .byte   VOL , 7*songC6_mvl/mxv
 .byte   W02
 .byte   VOL , 6*songC6_mvl/mxv
 .byte   W01
 .byte   VOL , 5*songC6_mvl/mxv
 .byte   W02
 .byte   VOL , 4*songC6_mvl/mxv
 .byte   W01
 .byte   VOL , 2*songC6_mvl/mxv
 .byte   W02
 .byte   VOL , 1*songC6_mvl/mxv
 .byte   W01
 .byte   VOL , 0*songC6_mvl/mxv
 .byte   W24
 .byte   W02
@ 016   ----------------------------------------
 .byte   VOL , 33*songC6_mvl/mxv
 .byte   W96
@ 017   ----------------------------------------
 .byte   W96
@ 018   ----------------------------------------
 .byte   W96
@ 019   ----------------------------------------
 .byte   W96
@ 020   ----------------------------------------
 .byte   W96
@ 021   ----------------------------------------
 .byte   W96
@ 022   ----------------------------------------
 .byte   W96
@ 023   ----------------------------------------
 .byte   W96
@ 024   ----------------------------------------
 .byte   W96
@ 025   ----------------------------------------
 .byte   W96
@ 026   ----------------------------------------
 .byte   W96
@ 027   ----------------------------------------
 .byte   W96
@ 028   ----------------------------------------
 .byte   W96
@ 029   ----------------------------------------
 .byte   W96
@ 030   ----------------------------------------
 .byte   W96
@ 031   ----------------------------------------
 .byte   W96
@ 032   ----------------------------------------
 .byte   W96
@ 033   ----------------------------------------
 .byte   W96
@ 034   ----------------------------------------
 .byte   W96
@ 035   ----------------------------------------
 .byte   W96
@ 036   ----------------------------------------
 .byte   W96
@ 037   ----------------------------------------
 .byte   W96
@ 038   ----------------------------------------
 .byte   W96
@ 039   ----------------------------------------
 .byte   W96
@ 040   ----------------------------------------
 .byte   W96
@ 041   ----------------------------------------
 .byte   W96
@ 042   ----------------------------------------
 .byte   W96
@ 043   ----------------------------------------
 .byte   W96
@ 044   ----------------------------------------
 .byte   W96
@ 045   ----------------------------------------
 .byte   W96
@ 046   ----------------------------------------
 .byte   W96
@ 047   ----------------------------------------
 .byte   W48
 .byte   N92 ,Ds3
 .byte   W48
@ 048   ----------------------------------------
 .byte   W48
 .byte   N44 ,Cn3
 .byte   N44 ,Ds3
 .byte   W48
@ 049   ----------------------------------------
 .byte   Cs3
 .byte   N44 ,Fn3
 .byte   W48
 .byte   Bn2
 .byte   N44 ,Ds3
 .byte   W48
@ 050   ----------------------------------------
 .byte   Cs3
 .byte   N44 ,Fn3
 .byte   W48
 .byte   N92 ,Ds3
 .byte   N92 ,Fs3
 .byte   W48
@ 051   ----------------------------------------
 .byte   W48
 .byte   N44 ,Ds3
 .byte   W48
@ 052   ----------------------------------------
Label_10_014B287A:
 .byte   N44 ,Cs3 ,v080
 .byte   W48
 .byte   Ds3
 .byte   W48
 .byte   PEND 
@ 053   ----------------------------------------
Label_10_014B2881:
 .byte   N23 ,Cs3 ,v080
 .byte   W24
 .byte   Fn3
 .byte   W24
 .byte   N32 ,Cs3
 .byte   N32 ,Fn3
 .byte   W36
 .byte   N11 ,Ds3
 .byte   N11 ,Fs3
 .byte   W12
 .byte   PEND 
@ 054   ----------------------------------------
Label_10_014B2892:
 .byte   N44 ,Ds3 ,v080
 .byte   N44 ,Fs3
 .byte   W48
 .byte   Bn2
 .byte   N44 ,Ds3
 .byte   W48
 .byte   PEND 
@ 055   ----------------------------------------
 .byte   As2
 .byte   N44 ,Dn3
 .byte   W48
 .byte   As2
 .byte   W48
@ 056   ----------------------------------------
 .byte   N44
 .byte   N44 ,Dn3
 .byte   W48
 .byte   As2
 .byte   N44 ,Ds3
 .byte   W48
@ 057   ----------------------------------------
 .byte   As2
 .byte   N44 ,Fn3
 .byte   W48
 .byte   Bn2
 .byte   N44 ,Ds3
 .byte   W48
@ 058   ----------------------------------------
 .byte   Cs3
 .byte   N44 ,Fn3
 .byte   W48
 .byte   Ds3
 .byte   N44 ,Fn3
 .byte   W48
@ 059   ----------------------------------------
 .byte   Ds3
 .byte   N44 ,Fs3
 .byte   W48
 .byte   Ds3
 .byte   W48
@ 060   ----------------------------------------
 .byte   PATT
  .word Label_10_014B287A
@ 061   ----------------------------------------
 .byte   PATT
  .word Label_10_014B2881
@ 062   ----------------------------------------
 .byte   TIE ,Ds3 ,v080
 .byte   TIE ,Fs3
 .byte   W96
@ 063   ----------------------------------------
 .byte   W44
 .byte   W03
 .byte   EOT
 .byte   Ds3 ,v066
 .byte   W01
 .byte   N44
 .byte   N44 ,As3
 .byte   W48
@ 064   ----------------------------------------
Label_10_014B28DB:
 .byte   N44 ,Fn3 ,v080
 .byte   N44 ,Gs3
 .byte   W48
 .byte   Ds3
 .byte   N44 ,Fs3
 .byte   W48
 .byte   PEND 
@ 065   ----------------------------------------
 .byte   Fn3
 .byte   N44 ,Gs3
 .byte   W48
 .byte   Fs3
 .byte   N44 ,As3
 .byte   W48
@ 066   ----------------------------------------
 .byte   PATT
  .word Label_10_014B28DB
@ 067   ----------------------------------------
 .byte   PATT
  .word Label_10_014B28DB
@ 068   ----------------------------------------
 .byte   N44 ,Cs3 ,v080
 .byte   N44 ,Fn3
 .byte   W48
 .byte   N44
 .byte   N44 ,As3
 .byte   W48
@ 069   ----------------------------------------
 .byte   N23 ,Ds3
 .byte   N23 ,Gs3
 .byte   W24
 .byte   Cs3
 .byte   N23 ,Fn3
 .byte   W24
 .byte   N32 ,Cs3
 .byte   N32 ,Fn3
 .byte   W36
 .byte   N11 ,Ds3
 .byte   N11 ,Fs3
 .byte   W12
@ 070   ----------------------------------------
 .byte   PATT
  .word Label_10_014B2892
@ 071   ----------------------------------------
 .byte   N44 ,As2 ,v080
 .byte   N44 ,Dn3
 .byte   W48
 .byte   As2 ,v088
 .byte   W48
@ 072   ----------------------------------------
 .byte   Dn3 ,v092
 .byte   W48
 .byte   Ds3
 .byte   W48
@ 073   ----------------------------------------
 .byte   As2
 .byte   W48
 .byte   Bn2
 .byte   N44 ,Ds3
 .byte   W48
@ 074   ----------------------------------------
 .byte   Cs3 ,v088
 .byte   N44 ,Fn3
 .byte   W48
 .byte   Ds3 ,v092
 .byte   N44 ,Fn3
 .byte   W48
@ 075   ----------------------------------------
 .byte   Ds3
 .byte   N44 ,Fs3
 .byte   W48
 .byte   Ds3 ,v080
 .byte   W48
@ 076   ----------------------------------------
 .byte   PATT
  .word Label_10_014B287A
@ 077   ----------------------------------------
 .byte   PATT
  .word Label_10_014B2881
@ 078   ----------------------------------------
 .byte   N44 ,Ds3 ,v080
 .byte   N44 ,Fs3
 .byte   W48
 .byte   Fn3
 .byte   N44 ,Gs3
 .byte   W48
@ 079   ----------------------------------------
 .byte   Ds3
 .byte   N44 ,Fs3
 .byte   W96
@ 080   ----------------------------------------
 .byte   W96
@ 081   ----------------------------------------
 .byte   W96
@ 082   ----------------------------------------
 .byte   W96
@ 083   ----------------------------------------
 .byte   W96
@ 084   ----------------------------------------
 .byte   W96
@ 085   ----------------------------------------
 .byte   W96
@ 086   ----------------------------------------
 .byte   W96
@ 087   ----------------------------------------
 .byte   W96
@ 088   ----------------------------------------
 .byte   W96
@ 089   ----------------------------------------
 .byte   W96
@ 090   ----------------------------------------
 .byte   W96
@ 091   ----------------------------------------
 .byte   W96
@ 092   ----------------------------------------
 .byte   W96
@ 093   ----------------------------------------
 .byte   W96
@ 094   ----------------------------------------
 .byte   W96
@ 095   ----------------------------------------
 .byte   W96
@ 096   ----------------------------------------
 .byte   W96
@ 097   ----------------------------------------
 .byte   W96
@ 098   ----------------------------------------
 .byte   W96
@ 099   ----------------------------------------
 .byte   W96
@ 100   ----------------------------------------
 .byte   W96
@ 101   ----------------------------------------
 .byte   W48
 .byte   N32 ,Bn3 ,v072
 .byte   W36
 .byte   N11 ,Gs3 ,v080
 .byte   W12
@ 102   ----------------------------------------
 .byte   N30 ,Fs3
 .byte   W36
 .byte   N05 ,En3
 .byte   W06
 .byte   Fs3
 .byte   W06
 .byte   N17 ,Gs3
 .byte   W18
 .byte   Fs3 ,v064
 .byte   W18
 .byte   N11 ,En3 ,v080
 .byte   W12
@ 103   ----------------------------------------
 .byte   N17 ,Ds3 ,v068
 .byte   W18
 .byte   Bn2 ,v080
 .byte   W18
 .byte   N11 ,An2 ,v064
 .byte   W12
 .byte   N17 ,Gs2 ,v080
 .byte   W18
 .byte   N64 ,Gs3
 .byte   W30
@ 104   ----------------------------------------
 .byte   W36
 .byte   N05 ,Fs3
 .byte   W06
 .byte   En3
 .byte   W06
 .byte   N88 ,Ds3
 .byte   W24
 .byte   VOL , 33*songC6_mvl/mxv
 .byte   W03
 .byte   VOL , 32*songC6_mvl/mxv
 .byte   W01
 .byte   VOL , 32*songC6_mvl/mxv
 .byte   W03
 .byte   VOL , 32*songC6_mvl/mxv
 .byte   W02
 .byte   VOL , 31*songC6_mvl/mxv
 .byte   W01
 .byte   VOL , 31*songC6_mvl/mxv
 .byte   W02
 .byte   VOL , 30*songC6_mvl/mxv
 .byte   W01
 .byte   VOL , 30*songC6_mvl/mxv
 .byte   W02
 .byte   VOL , 30*songC6_mvl/mxv
 .byte   W01
 .byte   VOL , 29*songC6_mvl/mxv
 .byte   W02
 .byte   VOL , 29*songC6_mvl/mxv
 .byte   W01
 .byte   VOL , 28*songC6_mvl/mxv
 .byte   W02
 .byte   VOL , 28*songC6_mvl/mxv
 .byte   W01
 .byte   VOL , 27*songC6_mvl/mxv
 .byte   W02
@ 105   ----------------------------------------
 .byte   VOL , 27*songC6_mvl/mxv
 .byte   W01
 .byte   VOL , 26*songC6_mvl/mxv
 .byte   W02
 .byte   VOL , 25*songC6_mvl/mxv
 .byte   W01
 .byte   VOL , 25*songC6_mvl/mxv
 .byte   W02
 .byte   VOL , 24*songC6_mvl/mxv
 .byte   W01
 .byte   VOL , 24*songC6_mvl/mxv
 .byte   W02
 .byte   VOL , 23*songC6_mvl/mxv
 .byte   W01
 .byte   VOL , 22*songC6_mvl/mxv
 .byte   W02
 .byte   VOL , 22*songC6_mvl/mxv
 .byte   W01
 .byte   VOL , 21*songC6_mvl/mxv
 .byte   W02
 .byte   VOL , 20*songC6_mvl/mxv
 .byte   W01
 .byte   VOL , 20*songC6_mvl/mxv
 .byte   W02
 .byte   VOL , 19*songC6_mvl/mxv
 .byte   W01
 .byte   VOL , 18*songC6_mvl/mxv
 .byte   W02
 .byte   VOL , 17*songC6_mvl/mxv
 .byte   W01
 .byte   VOL , 17*songC6_mvl/mxv
 .byte   W02
 .byte   VOL , 16*songC6_mvl/mxv
 .byte   W01
 .byte   VOL , 15*songC6_mvl/mxv
 .byte   W02
 .byte   VOL , 14*songC6_mvl/mxv
 .byte   W01
 .byte   VOL , 14*songC6_mvl/mxv
 .byte   W02
 .byte   VOL , 13*songC6_mvl/mxv
 .byte   W01
 .byte   VOL , 12*songC6_mvl/mxv
 .byte   W02
 .byte   VOL , 11*songC6_mvl/mxv
 .byte   W01
 .byte   VOL , 10*songC6_mvl/mxv
 .byte   W02
 .byte   VOL , 10*songC6_mvl/mxv
 .byte   W01
 .byte   VOL , 9*songC6_mvl/mxv
 .byte   W02
 .byte   VOL , 8*songC6_mvl/mxv
 .byte   W01
 .byte   VOL , 7*songC6_mvl/mxv
 .byte   W02
 .byte   VOL , 6*songC6_mvl/mxv
 .byte   W01
 .byte   VOL , 5*songC6_mvl/mxv
 .byte   W02
 .byte   VOL , 5*songC6_mvl/mxv
 .byte   W01
 .byte   VOL , 3*songC6_mvl/mxv
 .byte   W02
 .byte   VOL , 33*songC6_mvl/mxv
 .byte   N68 ,Cs3
 .byte   N68 ,En3
 .byte   W48
@ 106   ----------------------------------------
 .byte   W24
 .byte   N23 ,Bn2
 .byte   N23 ,Ds3
 .byte   W24
 .byte   N07 ,Gs2
 .byte   N07 ,Cs3
 .byte   W12
 .byte   Bn2
 .byte   N07 ,En3
 .byte   W12
 .byte   Cs3
 .byte   N07 ,Gs3
 .byte   W12
 .byte   Ds3
 .byte   N07 ,Bn3
 .byte   W12
@ 107   ----------------------------------------
 .byte   En3
 .byte   N07 ,Cs4
 .byte   W12
 .byte   Fs3
 .byte   N07 ,En4
 .byte   W12
 .byte   Gs3
 .byte   N07 ,Gs4
 .byte   W12
 .byte   Bn3
 .byte   N07 ,Bn4
 .byte   W12
 .byte   N17 ,Cs3
 .byte   N17 ,Cs4
 .byte   W18
 .byte   N40 ,En3
 .byte   N40 ,En4
 .byte   W30
@ 108   ----------------------------------------
 .byte   W12
 .byte   N11 ,Gs3
 .byte   N11 ,Bn3
 .byte   W12
 .byte   Fs3
 .byte   N11 ,An3
 .byte   W12
 .byte   N44 ,En3
 .byte   N44 ,Gs3
 .byte   W48
 .byte   N05 ,En3
 .byte   N05 ,Gs3
 .byte   W06
 .byte   Fs3
 .byte   N05 ,An3
 .byte   W06
@ 109   ----------------------------------------
 .byte   N11 ,En3
 .byte   N11 ,Gs3
 .byte   W12
 .byte   Ds3
 .byte   N11 ,Fs3
 .byte   W12
 .byte   Cs3
 .byte   N11 ,En3
 .byte   W12
 .byte   Gs2
 .byte   N11 ,Cs3
 .byte   W12
 .byte   N32 ,Fs3
 .byte   N32 ,Bn3
 .byte   W36
 .byte   N11 ,En3
 .byte   N11 ,An3
 .byte   W12
@ 110   ----------------------------------------
 .byte   N32 ,Ds3
 .byte   N32 ,Gs3
 .byte   W36
 .byte   N05 ,Cs3
 .byte   N05 ,Fs3
 .byte   W06
 .byte   Ds3
 .byte   N05 ,Gs3
 .byte   W06
 .byte   N17 ,Fs3
 .byte   N17 ,An3
 .byte   W18
 .byte   En3
 .byte   N17 ,Gs3
 .byte   W18
 .byte   N11 ,Ds3
 .byte   N11 ,Fs3
 .byte   W12
@ 111   ----------------------------------------
 .byte   N17 ,Bn2
 .byte   N17 ,Ds3
 .byte   W18
 .byte   Gs2
 .byte   N17 ,Bn2
 .byte   W18
 .byte   N11 ,Ds2
 .byte   N11 ,Gs2
 .byte   W12
 .byte   N80 ,Bn2
 .byte   N80 ,Ds3
 .byte   W48
@ 112   ----------------------------------------
 .byte   W36
 .byte   N08 ,Cs3
 .byte   N08 ,En3
 .byte   W12
 .byte   N80 ,Cs3
 .byte   N80 ,En3
 .byte   W48
@ 113   ----------------------------------------
 .byte   W96
@ 114   ----------------------------------------
 .byte   W96
@ 115   ----------------------------------------
 .byte   W96
@ 116   ----------------------------------------
 .byte   W96
@ 117   ----------------------------------------
 .byte   W96
@ 118   ----------------------------------------
 .byte   W96
@ 119   ----------------------------------------
 .byte   W96
@ 120   ----------------------------------------
 .byte   W96
@ 121   ----------------------------------------
 .byte   W96
@ 122   ----------------------------------------
 .byte   W48
 .byte   N92 ,Fn3
 .byte   W48
@ 123   ----------------------------------------
 .byte   W48
 .byte   N44 ,Dn3
 .byte   N44 ,Fn3
 .byte   W48
@ 124   ----------------------------------------
 .byte   Ds3
 .byte   N44 ,Gn3
 .byte   W48
 .byte   Cs3
 .byte   N44 ,Fn3
 .byte   W48
@ 125   ----------------------------------------
 .byte   Ds3
 .byte   N44 ,Gn3
 .byte   W48
 .byte   N92 ,Fn3
 .byte   N92 ,Gs3
 .byte   W48
@ 126   ----------------------------------------
 .byte   W48
 .byte   N44 ,Fn3
 .byte   W48
@ 127   ----------------------------------------
Label_10_014B2ACB:
 .byte   N44 ,Ds3 ,v080
 .byte   W48
 .byte   Fn3
 .byte   W48
 .byte   PEND 
@ 128   ----------------------------------------
Label_10_014B2AD2:
 .byte   N23 ,Ds3 ,v080
 .byte   W24
 .byte   Gn3
 .byte   W24
 .byte   N32 ,Ds3
 .byte   N32 ,Gn3
 .byte   W36
 .byte   N11 ,Fn3
 .byte   N11 ,Gs3
 .byte   W12
 .byte   PEND 
@ 129   ----------------------------------------
Label_10_014B2AE3:
 .byte   N44 ,Fn3 ,v080
 .byte   N44 ,Gs3
 .byte   W48
 .byte   Cs3
 .byte   N44 ,Fn3
 .byte   W48
 .byte   PEND 
@ 130   ----------------------------------------
Label_10_014B2AEE:
 .byte   N44 ,Cn3 ,v080
 .byte   N44 ,En3
 .byte   W48
 .byte   Cn3
 .byte   W48
 .byte   PEND 
@ 131   ----------------------------------------
Label_10_014B2AF7:
 .byte   N44 ,Cn3 ,v080
 .byte   N44 ,En3
 .byte   W48
 .byte   Cn3
 .byte   N44 ,Fn3
 .byte   W48
 .byte   PEND 
@ 132   ----------------------------------------
Label_10_014B2B02:
 .byte   N44 ,Cn3 ,v080
 .byte   N44 ,Gn3
 .byte   W48
 .byte   Cs3
 .byte   N44 ,Fn3
 .byte   W48
 .byte   PEND 
@ 133   ----------------------------------------
 .byte   Ds3
 .byte   N44 ,Gn3
 .byte   W48
 .byte   Ds3
 .byte   N44 ,Gn3
 .byte   W48
@ 134   ----------------------------------------
Label_10_014B2B15:
 .byte   N44 ,Fn3 ,v080
 .byte   N44 ,Gs3
 .byte   W48
 .byte   Fn3
 .byte   W48
 .byte   PEND 
@ 135   ----------------------------------------
 .byte   PATT
  .word Label_10_014B2ACB
@ 136   ----------------------------------------
 .byte   PATT
  .word Label_10_014B2AD2
@ 137   ----------------------------------------
 .byte   TIE ,Fn3 ,v080
 .byte   TIE ,Gs3
 .byte   W96
@ 138   ----------------------------------------
 .byte   W44
 .byte   W03
 .byte   EOT
 .byte   Fn3 ,v068
 .byte   W01
 .byte   N44
 .byte   N44 ,Cn4
 .byte   W48
@ 139   ----------------------------------------
Label_10_014B2B38:
 .byte   N44 ,Gn3 ,v080
 .byte   N44 ,As3
 .byte   W48
 .byte   Fn3
 .byte   N44 ,Gs3
 .byte   W48
 .byte   PEND 
@ 140   ----------------------------------------
 .byte   Gn3
 .byte   N44 ,As3
 .byte   W48
 .byte   Gs3
 .byte   N44 ,Cn4
 .byte   W48
@ 141   ----------------------------------------
 .byte   PATT
  .word Label_10_014B2B38
@ 142   ----------------------------------------
 .byte   PATT
  .word Label_10_014B2B38
@ 143   ----------------------------------------
 .byte   N44 ,Ds3 ,v080
 .byte   N44 ,Gn3
 .byte   W48
 .byte   N44
 .byte   N44 ,Cn4
 .byte   W48
@ 144   ----------------------------------------
 .byte   N23 ,Fn3
 .byte   N23 ,As3
 .byte   W24
 .byte   Ds3
 .byte   N23 ,Gn3
 .byte   W24
 .byte   N32 ,Ds3
 .byte   N32 ,Gn3
 .byte   W36
 .byte   N11 ,Fn3
 .byte   N11 ,Gs3
 .byte   W12
@ 145   ----------------------------------------
 .byte   PATT
  .word Label_10_014B2AE3
@ 146   ----------------------------------------
 .byte   PATT
  .word Label_10_014B2AEE
@ 147   ----------------------------------------
 .byte   PATT
  .word Label_10_014B2AF7
@ 148   ----------------------------------------
 .byte   PATT
  .word Label_10_014B2B02
@ 149   ----------------------------------------
 .byte   N44 ,Ds3 ,v080
 .byte   N44 ,Gn3
 .byte   W48
 .byte   Fn3
 .byte   N44 ,Gn3
 .byte   W48
@ 150   ----------------------------------------
 .byte   PATT
  .word Label_10_014B2B15
@ 151   ----------------------------------------
 .byte   PATT
  .word Label_10_014B2ACB
@ 152   ----------------------------------------
 .byte   PATT
  .word Label_10_014B2AD2
@ 153   ----------------------------------------
 .byte   N44 ,Fn3 ,v080
 .byte   N44 ,Gs3
 .byte   W48
 .byte   Gn3
 .byte   N44 ,As3
 .byte   W48
@ 154   ----------------------------------------
 .byte   Fn3
 .byte   N44 ,Gs3
 .byte   W96
@ 155   ----------------------------------------
 .byte   W96
@ 156   ----------------------------------------
 .byte   W48
 .byte   N11 ,Gs2
 .byte   W12
 .byte   N07 ,As2
 .byte   W12
 .byte   N05 ,Gs2
 .byte   W06
 .byte   As2
 .byte   W06
 .byte   Cn3
 .byte   W06
 .byte   Dn3
 .byte   W06
@ 157   ----------------------------------------
 .byte   Cn3
 .byte   W06
 .byte   Dn3
 .byte   W06
 .byte   Ds3
 .byte   W06
 .byte   Fn3
 .byte   W06
 .byte   N05
 .byte   W06
 .byte   Gn3
 .byte   W06
 .byte   Gs3
 .byte   W06
 .byte   As3
 .byte   W06
 .byte   Cn4
 .byte   W06
 .byte   Dn4
 .byte   W06
 .byte   Ds4
 .byte   W06
 .byte   Fn4
 .byte   W06
 .byte   Gn4
 .byte   W06
 .byte   Fn4
 .byte   W06
 .byte   Ds4
 .byte   W06
 .byte   Dn4
 .byte   W06
@ 158   ----------------------------------------
 .byte   Ds4
 .byte   W06
 .byte   Dn4
 .byte   W06
 .byte   Cn4
 .byte   W06
 .byte   As3
 .byte   W06
 .byte   Gs3
 .byte   W06
 .byte   Gn3
 .byte   W06
 .byte   N10 ,Fn3
 .byte   W12
 .byte   N05 ,Dn3
 .byte   W06
 .byte   Ds3
 .byte   W06
 .byte   N10 ,Fn3
 .byte   W12
 .byte   N05 ,Ds3
 .byte   W06
 .byte   Fn3
 .byte   W06
 .byte   Gn3
 .byte   W12
@ 159   ----------------------------------------
 .byte   Fn3
 .byte   W06
 .byte   Gn3
 .byte   W06
 .byte   Gs3
 .byte   W12
 .byte   Gn3
 .byte   W06
 .byte   Gs3
 .byte   W06
 .byte   As3
 .byte   W06
 .byte   Cn4
 .byte   W06
 .byte   Dn4
 .byte   W06
 .byte   Ds4
 .byte   W06
 .byte   Fn4
 .byte   W06
 .byte   Gn4
 .byte   W06
 .byte   Fn4
 .byte   W06
 .byte   Ds4
 .byte   W06
 .byte   Fn4
 .byte   W06
 .byte   Ds4
 .byte   W06
@ 160   ----------------------------------------
 .byte   Dn4
 .byte   W06
 .byte   Cn4
 .byte   W06
 .byte   As3
 .byte   W06
 .byte   Cn4
 .byte   W06
 .byte   Dn4
 .byte   W06
 .byte   Cn4
 .byte   W06
 .byte   N11 ,Dn4
 .byte   W12
 .byte   N05 ,Gn4
 .byte   W06
 .byte   Fn4
 .byte   W06
 .byte   N11 ,Gn4
 .byte   W12
 .byte   N05 ,As4
 .byte   W06
 .byte   Gs4
 .byte   W06
 .byte   Gn4
 .byte   W06
 .byte   Fn4
 .byte   W06
@ 161   ----------------------------------------
 .byte   Gn4
 .byte   W06
 .byte   Fn4
 .byte   W06
 .byte   Ds4
 .byte   W06
 .byte   Dn4
 .byte   W06
 .byte   Fn4
 .byte   W06
 .byte   Ds4
 .byte   W06
 .byte   Dn4
 .byte   W06
 .byte   Cn4
 .byte   W06
 .byte   Dn4
 .byte   W06
 .byte   Cn4
 .byte   W06
 .byte   As3
 .byte   W06
 .byte   Gs3
 .byte   W06
 .byte   Cn4
 .byte   W06
 .byte   As3
 .byte   W06
 .byte   Gs3
 .byte   W06
 .byte   Gn3
 .byte   W06
@ 162   ----------------------------------------
 .byte   As3
 .byte   W06
 .byte   Cn4
 .byte   W06
 .byte   Dn4
 .byte   W06
 .byte   Ds4
 .byte   W06
 .byte   Gn4
 .byte   W06
 .byte   Fn4
 .byte   W06
 .byte   Ds4
 .byte   W06
 .byte   Dn4
 .byte   W06
 .byte   N32 ,Cn4
 .byte   W36
 .byte   N05 ,Ds3
 .byte   W06
 .byte   Fn3
 .byte   W06
@ 163   ----------------------------------------
 .byte   N11 ,Gn3
 .byte   W12
 .byte   Gs3
 .byte   W12
 .byte   As3
 .byte   W12
 .byte   Gs3
 .byte   W12
 .byte   Gn3
 .byte   W12
 .byte   Fn3
 .byte   W12
 .byte   N32 ,Gs3
 .byte   W24
@ 164   ----------------------------------------
 .byte   W12
 .byte   N11
 .byte   W12
 .byte   Cn4
 .byte   W12
 .byte   Cs4
 .byte   W12
 .byte   Cn4
 .byte   W12
 .byte   As3
 .byte   W12
 .byte   N32 ,Gs3
 .byte   W24
@ 165   ----------------------------------------
 .byte   W12
 .byte   N11 ,Fn3
 .byte   W12
 .byte   Gs3
 .byte   W12
 .byte   N23 ,Cs3
 .byte   W24
 .byte   N40 ,Cn4
 .byte   W36
@ 166   ----------------------------------------
 .byte   W12
 .byte   N11 ,Ds4
 .byte   W12
 .byte   Fn4
 .byte   W12
 .byte   Gn4
 .byte   W12
 .byte   N05 ,As4
 .byte   W06
 .byte   Gn4
 .byte   W06
 .byte   Fn4
 .byte   W06
 .byte   Ds4
 .byte   W06
 .byte   Gn4
 .byte   W06
 .byte   Fn4
 .byte   W06
 .byte   Ds4
 .byte   W06
 .byte   Fn4
 .byte   W06
@ 167   ----------------------------------------
 .byte   N23 ,Gn4
 .byte   W36
 .byte   N05 ,Ds4
 .byte   W06
 .byte   Fn4
 .byte   W06
 .byte   Gn4
 .byte   W06
 .byte   Gs4
 .byte   W06
 .byte   Gn4
 .byte   W06
 .byte   Fn4
 .byte   W06
 .byte   Ds4
 .byte   W06
 .byte   Dn4
 .byte   W06
 .byte   Cn4
 .byte   W06
 .byte   As3
 .byte   W06
@ 168   ----------------------------------------
 .byte   Dn4
 .byte   W06
 .byte   Ds4
 .byte   W06
 .byte   Dn4
 .byte   W06
 .byte   Cn4
 .byte   W06
 .byte   N17 ,As3
 .byte   W24
 .byte   N32
 .byte   W36
 .byte   N11 ,Cn4
 .byte   W12
@ 169   ----------------------------------------
 .byte   Gs3
 .byte   W12
 .byte   Gn3
 .byte   W12
 .byte   Ds3
 .byte   W12
 .byte   Cs3
 .byte   W12
 .byte   Cn3
 .byte   W12
 .byte   As2
 .byte   W12
 .byte   Gs2
 .byte   W12
 .byte   As2
 .byte   W12
@ 170   ----------------------------------------
 .byte   N40 ,Cn3
 .byte   W48
 .byte   N44 ,Gs3 ,v088
 .byte   N44 ,Cn4
 .byte   W48
@ 171   ----------------------------------------
Label_10_014B2CF6:
 .byte   N44 ,Gn3 ,v088
 .byte   N44 ,As3
 .byte   W48
 .byte   Fn3
 .byte   N44 ,Gs3
 .byte   W48
 .byte   PEND 
@ 172   ----------------------------------------
 .byte   Gn3
 .byte   N44 ,As3
 .byte   W48
 .byte   Gs3
 .byte   N44 ,Cn4
 .byte   W48
@ 173   ----------------------------------------
 .byte   PATT
  .word Label_10_014B2CF6
@ 174   ----------------------------------------
 .byte   PATT
  .word Label_10_014B2CF6
@ 175   ----------------------------------------
 .byte   N44 ,Ds3 ,v088
 .byte   N44 ,Gn3
 .byte   W48
 .byte   N44
 .byte   N44 ,Cn4
 .byte   W48
@ 176   ----------------------------------------
 .byte   N23 ,Fn3
 .byte   N23 ,As3
 .byte   W24
 .byte   Ds3
 .byte   N23 ,Gn3
 .byte   W24
 .byte   N32 ,Ds3
 .byte   N32 ,Gn3
 .byte   W36
 .byte   N11 ,Fn3
 .byte   N11 ,Gs3
 .byte   W12
@ 177   ----------------------------------------
 .byte   N23 ,Fn3
 .byte   N23 ,Gs3
 .byte   W24
 .byte   As4
 .byte   W24
 .byte   Gs4
 .byte   W24
 .byte   Fn4
 .byte   W24
@ 178   ----------------------------------------
 .byte   En4
 .byte   W24
 .byte   Cn3
 .byte   N23 ,En3
 .byte   W24
 .byte   N44 ,Cn3
 .byte   W48
@ 179   ----------------------------------------
 .byte   N44
 .byte   N44 ,En3
 .byte   W48
 .byte   Cn3
 .byte   N44 ,Fn3
 .byte   W48
@ 180   ----------------------------------------
 .byte   Cn3
 .byte   N44 ,Gn3
 .byte   W48
 .byte   Cs3
 .byte   N44 ,Fn3
 .byte   W48
@ 181   ----------------------------------------
 .byte   Ds3
 .byte   N44 ,Gn3
 .byte   W48
 .byte   Fn3
 .byte   N44 ,Gn3
 .byte   W48
@ 182   ----------------------------------------
 .byte   Fn3
 .byte   N44 ,Gs3
 .byte   W48
 .byte   Fn3
 .byte   W48
@ 183   ----------------------------------------
 .byte   Ds3
 .byte   W48
 .byte   Fn3
 .byte   W48
@ 184   ----------------------------------------
 .byte   N23 ,Ds3
 .byte   W24
 .byte   Gn3
 .byte   W24
 .byte   N32 ,Ds3
 .byte   N32 ,Gn3
 .byte   W36
 .byte   N11 ,Fn3
 .byte   N11 ,Gs3
 .byte   W12
@ 185   ----------------------------------------
 .byte   N44 ,Fn3
 .byte   N44 ,Gs3
 .byte   W48
 .byte   Gn3
 .byte   N44 ,As3
 .byte   W48
@ 186   ----------------------------------------
 .byte   N56 ,Fn3
 .byte   N56 ,Gs3
 .byte   W24
 .byte   W01
 .byte   VOL , 33*songC6_mvl/mxv
 .byte   W02
 .byte   VOL , 33*songC6_mvl/mxv
 .byte   W01
 .byte   VOL , 32*songC6_mvl/mxv
 .byte   W02
 .byte   VOL , 32*songC6_mvl/mxv
 .byte   W01
 .byte   VOL , 31*songC6_mvl/mxv
 .byte   W02
 .byte   VOL , 31*songC6_mvl/mxv
 .byte   W01
 .byte   VOL , 30*songC6_mvl/mxv
 .byte   W02
 .byte   VOL , 30*songC6_mvl/mxv
 .byte   W01
 .byte   VOL , 29*songC6_mvl/mxv
 .byte   W02
 .byte   VOL , 29*songC6_mvl/mxv
 .byte   W01
 .byte   VOL , 28*songC6_mvl/mxv
 .byte   W02
 .byte   VOL , 28*songC6_mvl/mxv
 .byte   W01
 .byte   VOL , 27*songC6_mvl/mxv
 .byte   W02
 .byte   VOL , 26*songC6_mvl/mxv
 .byte   W01
 .byte   VOL , 25*songC6_mvl/mxv
 .byte   W02
 .byte   VOL , 25*songC6_mvl/mxv
 .byte   W01
 .byte   VOL , 24*songC6_mvl/mxv
 .byte   W02
 .byte   VOL , 23*songC6_mvl/mxv
 .byte   W01
 .byte   VOL , 22*songC6_mvl/mxv
 .byte   W02
 .byte   VOL , 21*songC6_mvl/mxv
 .byte   W01
 .byte   VOL , 19*songC6_mvl/mxv
 .byte   W02
 .byte   VOL , 18*songC6_mvl/mxv
 .byte   W01
 .byte   VOL , 17*songC6_mvl/mxv
 .byte   W02
 .byte   VOL , 16*songC6_mvl/mxv
 .byte   W01
 .byte   VOL , 14*songC6_mvl/mxv
 .byte   W02
 .byte   VOL , 11*songC6_mvl/mxv
 .byte   W01
 .byte   VOL , 9*songC6_mvl/mxv
 .byte   W02
 .byte   VOL , 8*songC6_mvl/mxv
 .byte   W01
 .byte   VOL , 0*songC6_mvl/mxv
 .byte   W28
 .byte   W01
@ 187   ----------------------------------------
 .byte   W96
@ 188   ----------------------------------------
 .byte   W96
@ 189   ----------------------------------------
 .byte   W96
@ 190   ----------------------------------------
 .byte   W96
@ 191   ----------------------------------------
 .byte   W96
@ 192   ----------------------------------------
 .byte   W96
@ 193   ----------------------------------------
 .byte   W96
@ 194   ----------------------------------------
 .byte   W96
@ 195   ----------------------------------------
 .byte   W96
@ 196   ----------------------------------------
 .byte   W96
@ 197   ----------------------------------------
 .byte   W96
@ 198   ----------------------------------------
 .byte   W96
@ 199   ----------------------------------------
 .byte   W96
@ 200   ----------------------------------------
 .byte   W96
@ 201   ----------------------------------------
 .byte   W96
@ 202   ----------------------------------------
 .byte   W96
@ 203   ----------------------------------------
 .byte   W96
@ 204   ----------------------------------------
 .byte   W48
 .byte   GOTO
  .word Label_10_014B244A
 .byte   FINE

@**************** Track 12 (Midi-Chn.11) ****************@

songC6_012:
@ 000   ----------------------------------------
 .byte   KEYSH , songC6_key+0
Label_11_014B2EE2:
 .byte   VOICE , 109
 .byte   MOD 3
 .byte   PAN , c_v+63
 .byte   VOL , 33*songC6_mvl/mxv
 .byte   W96
@ 001   ----------------------------------------
 .byte   W48
 .byte   N11 ,Bn3 ,v088
 .byte   W12
 .byte   En3 ,v056
 .byte   W12
 .byte   Fs3 ,v076
 .byte   W12
 .byte   Gs3 ,v080
 .byte   W12
@ 002   ----------------------------------------
 .byte   An3
 .byte   W12
 .byte   N32 ,Bn3 ,v076
 .byte   W07
 .byte   VOL , 33*songC6_mvl/mxv
 .byte   W03
 .byte   VOL , 33*songC6_mvl/mxv
 .byte   W02
 .byte   VOL , 32*songC6_mvl/mxv
 .byte   W03
 .byte   VOL , 32*songC6_mvl/mxv
 .byte   W01
 .byte   VOL , 31*songC6_mvl/mxv
 .byte   W02
 .byte   VOL , 31*songC6_mvl/mxv
 .byte   W01
 .byte   VOL , 30*songC6_mvl/mxv
 .byte   W02
 .byte   VOL , 30*songC6_mvl/mxv
 .byte   W01
 .byte   VOL , 29*songC6_mvl/mxv
 .byte   W02
 .byte   VOL , 29*songC6_mvl/mxv
 .byte   W01
 .byte   VOL , 28*songC6_mvl/mxv
 .byte   W02
 .byte   VOL , 28*songC6_mvl/mxv
 .byte   W01
 .byte   VOL , 27*songC6_mvl/mxv
 .byte   W02
 .byte   VOL , 26*songC6_mvl/mxv
 .byte   W01
 .byte   VOL , 26*songC6_mvl/mxv
 .byte   W02
 .byte   VOL , 25*songC6_mvl/mxv
 .byte   W01
 .byte   VOL , 24*songC6_mvl/mxv
 .byte   W02
 .byte   VOL , 33*songC6_mvl/mxv
 .byte   N11 ,En3 ,v072
 .byte   W12
 .byte   Gs3 ,v056
 .byte   W12
 .byte   An3 ,v084
 .byte   W12
 .byte   Bn3 ,v064
 .byte   W12
@ 003   ----------------------------------------
 .byte   An3 ,v080
 .byte   W12
 .byte   Gs3 ,v056
 .byte   W12
 .byte   Fs3 ,v080
 .byte   W12
 .byte   En3 ,v056
 .byte   W12
 .byte   Bn2 ,v076
 .byte   W12
 .byte   En2 ,v072
 .byte   W12
 .byte   Fs2 ,v068
 .byte   W12
 .byte   Gs2 ,v064
 .byte   W12
@ 004   ----------------------------------------
 .byte   An2 ,v072
 .byte   W12
 .byte   VOL , 28*songC6_mvl/mxv
 .byte   N68 ,Gs2 ,v064
 .byte   W01
 .byte   VOL , 28*songC6_mvl/mxv
 .byte   W02
 .byte   VOL , 29*songC6_mvl/mxv
 .byte   W01
 .byte   VOL , 29*songC6_mvl/mxv
 .byte   W02
 .byte   VOL , 30*songC6_mvl/mxv
 .byte   W01
 .byte   VOL , 30*songC6_mvl/mxv
 .byte   W02
 .byte   VOL , 31*songC6_mvl/mxv
 .byte   W01
 .byte   VOL , 31*songC6_mvl/mxv
 .byte   W02
 .byte   VOL , 32*songC6_mvl/mxv
 .byte   W01
 .byte   VOL , 32*songC6_mvl/mxv
 .byte   W02
 .byte   VOL , 32*songC6_mvl/mxv
 .byte   W01
 .byte   VOL , 33*songC6_mvl/mxv
 .byte   W02
 .byte   VOL , 33*songC6_mvl/mxv
 .byte   W01
 .byte   VOL , 33*songC6_mvl/mxv
 .byte   W06
 .byte   VOL , 33*songC6_mvl/mxv
 .byte   W06
 .byte   VOL , 33*songC6_mvl/mxv
 .byte   W05
 .byte   VOL , 32*songC6_mvl/mxv
 .byte   W03
 .byte   VOL , 32*songC6_mvl/mxv
 .byte   W01
 .byte   VOL , 32*songC6_mvl/mxv
 .byte   W06
 .byte   VOL , 31*songC6_mvl/mxv
 .byte   W02
 .byte   VOL , 31*songC6_mvl/mxv
 .byte   W03
 .byte   VOL , 31*songC6_mvl/mxv
 .byte   W01
 .byte   VOL , 30*songC6_mvl/mxv
 .byte   W02
 .byte   VOL , 30*songC6_mvl/mxv
 .byte   W03
 .byte   VOL , 29*songC6_mvl/mxv
 .byte   W01
 .byte   VOL , 29*songC6_mvl/mxv
 .byte   W02
 .byte   VOL , 28*songC6_mvl/mxv
 .byte   W03
 .byte   VOL , 28*songC6_mvl/mxv
 .byte   W01
 .byte   VOL , 27*songC6_mvl/mxv
 .byte   W02
 .byte   VOL , 27*songC6_mvl/mxv
 .byte   W01
 .byte   VOL , 26*songC6_mvl/mxv
 .byte   W02
 .byte   VOL , 25*songC6_mvl/mxv
 .byte   W01
 .byte   VOL , 24*songC6_mvl/mxv
 .byte   W02
 .byte   VOL , 24*songC6_mvl/mxv
 .byte   N80 ,Bn2 ,v068
 .byte   W01
 .byte   VOL , 25*songC6_mvl/mxv
 .byte   W02
 .byte   VOL , 26*songC6_mvl/mxv
 .byte   W01
 .byte   VOL , 27*songC6_mvl/mxv
 .byte   W02
 .byte   VOL , 27*songC6_mvl/mxv
 .byte   W01
 .byte   VOL , 28*songC6_mvl/mxv
 .byte   W02
 .byte   VOL , 28*songC6_mvl/mxv
 .byte   W01
 .byte   VOL , 28*songC6_mvl/mxv
 .byte   W02
@ 005   ----------------------------------------
 .byte   VOL , 29*songC6_mvl/mxv
 .byte   W01
 .byte   VOL , 29*songC6_mvl/mxv
 .byte   W02
 .byte   VOL , 29*songC6_mvl/mxv
 .byte   W01
 .byte   VOL , 30*songC6_mvl/mxv
 .byte   W02
 .byte   VOL , 30*songC6_mvl/mxv
 .byte   W01
 .byte   VOL , 31*songC6_mvl/mxv
 .byte   W02
 .byte   VOL , 31*songC6_mvl/mxv
 .byte   W01
 .byte   VOL , 32*songC6_mvl/mxv
 .byte   W02
 .byte   VOL , 32*songC6_mvl/mxv
 .byte   W01
 .byte   VOL , 32*songC6_mvl/mxv
 .byte   W03
 .byte   VOL , 33*songC6_mvl/mxv
 .byte   W05
 .byte   VOL , 33*songC6_mvl/mxv
 .byte   W10
 .byte   VOL , 33*songC6_mvl/mxv
 .byte   W09
 .byte   VOL , 32*songC6_mvl/mxv
 .byte   W05
 .byte   VOL , 32*songC6_mvl/mxv
 .byte   W03
 .byte   VOL , 31*songC6_mvl/mxv
 .byte   W04
 .byte   VOL , 31*songC6_mvl/mxv
 .byte   W02
 .byte   VOL , 30*songC6_mvl/mxv
 .byte   W01
 .byte   VOL , 30*songC6_mvl/mxv
 .byte   W02
 .byte   VOL , 30*songC6_mvl/mxv
 .byte   W01
 .byte   VOL , 29*songC6_mvl/mxv
 .byte   W03
 .byte   VOL , 28*songC6_mvl/mxv
 .byte   W02
 .byte   VOL , 28*songC6_mvl/mxv
 .byte   W01
 .byte   VOL , 28*songC6_mvl/mxv
 .byte   W02
 .byte   VOL , 27*songC6_mvl/mxv
 .byte   W01
 .byte   VOL , 27*songC6_mvl/mxv
 .byte   W02
 .byte   VOL , 26*songC6_mvl/mxv
 .byte   W01
 .byte   VOL , 26*songC6_mvl/mxv
 .byte   W02
 .byte   VOL , 32*songC6_mvl/mxv
 .byte   N44 ,Ds3 ,v072
 .byte   W01
 .byte   VOL , 32*songC6_mvl/mxv
 .byte   W02
 .byte   VOL , 33*songC6_mvl/mxv
 .byte   W01
 .byte   VOL , 33*songC6_mvl/mxv
 .byte   W20
@ 006   ----------------------------------------
 .byte   VOL , 33*songC6_mvl/mxv
 .byte   W01
 .byte   VOL , 33*songC6_mvl/mxv
 .byte   W03
 .byte   VOL , 32*songC6_mvl/mxv
 .byte   W03
 .byte   VOL , 32*songC6_mvl/mxv
 .byte   W03
 .byte   VOL , 31*songC6_mvl/mxv
 .byte   W02
 .byte   VOL , 31*songC6_mvl/mxv
 .byte   W01
 .byte   VOL , 31*songC6_mvl/mxv
 .byte   W02
 .byte   VOL , 30*songC6_mvl/mxv
 .byte   W01
 .byte   VOL , 30*songC6_mvl/mxv
 .byte   W02
 .byte   VOL , 29*songC6_mvl/mxv
 .byte   W01
 .byte   VOL , 28*songC6_mvl/mxv
 .byte   W02
 .byte   VOL , 28*songC6_mvl/mxv
 .byte   W01
 .byte   VOL , 27*songC6_mvl/mxv
 .byte   W02
 .byte   VOL , 27*songC6_mvl/mxv
 .byte   N56 ,En3 ,v076
 .byte   W01
 .byte   VOL , 28*songC6_mvl/mxv
 .byte   W02
 .byte   VOL , 28*songC6_mvl/mxv
 .byte   W01
 .byte   VOL , 28*songC6_mvl/mxv
 .byte   W02
 .byte   VOL , 29*songC6_mvl/mxv
 .byte   W01
 .byte   VOL , 29*songC6_mvl/mxv
 .byte   W02
 .byte   VOL , 30*songC6_mvl/mxv
 .byte   W01
 .byte   VOL , 30*songC6_mvl/mxv
 .byte   W02
 .byte   VOL , 30*songC6_mvl/mxv
 .byte   W01
 .byte   VOL , 31*songC6_mvl/mxv
 .byte   W02
 .byte   VOL , 31*songC6_mvl/mxv
 .byte   W03
 .byte   VOL , 31*songC6_mvl/mxv
 .byte   W01
 .byte   VOL , 32*songC6_mvl/mxv
 .byte   W05
 .byte   VOL , 32*songC6_mvl/mxv
 .byte   W15
 .byte   VOL , 32*songC6_mvl/mxv
 .byte   W04
 .byte   VOL , 31*songC6_mvl/mxv
 .byte   W02
 .byte   VOL , 31*songC6_mvl/mxv
 .byte   W01
 .byte   VOL , 30*songC6_mvl/mxv
 .byte   W02
 .byte   VOL , 29*songC6_mvl/mxv
 .byte   W01
 .byte   VOL , 29*songC6_mvl/mxv
 .byte   W02
 .byte   VOL , 28*songC6_mvl/mxv
 .byte   W01
 .byte   VOL , 27*songC6_mvl/mxv
 .byte   W02
 .byte   VOL , 26*songC6_mvl/mxv
 .byte   W01
 .byte   VOL , 26*songC6_mvl/mxv
 .byte   W02
 .byte   VOL , 24*songC6_mvl/mxv
 .byte   W01
 .byte   VOL , 23*songC6_mvl/mxv
 .byte   W02
 .byte   VOL , 33*songC6_mvl/mxv
 .byte   N23 ,An3 ,v060
 .byte   W12
@ 007   ----------------------------------------
 .byte   W12
 .byte   N11 ,Gs3 ,v068
 .byte   W12
 .byte   N23 ,Fs3 ,v076
 .byte   W24
 .byte   VOL , 32*songC6_mvl/mxv
 .byte   TIE ,Gs3
 .byte   W01
 .byte   VOL , 31*songC6_mvl/mxv
 .byte   W02
 .byte   VOL , 31*songC6_mvl/mxv
 .byte   W01
 .byte   VOL , 31*songC6_mvl/mxv
 .byte   W02
 .byte   VOL , 29*songC6_mvl/mxv
 .byte   W03
 .byte   VOL , 29*songC6_mvl/mxv
 .byte   W01
 .byte   VOL , 28*songC6_mvl/mxv
 .byte   W02
 .byte   VOL , 27*songC6_mvl/mxv
 .byte   W01
 .byte   VOL , 27*songC6_mvl/mxv
 .byte   W08
 .byte   VOL , 27*songC6_mvl/mxv
 .byte   W04
 .byte   VOL , 28*songC6_mvl/mxv
 .byte   W05
 .byte   VOL , 28*songC6_mvl/mxv
 .byte   W01
 .byte   VOL , 28*songC6_mvl/mxv
 .byte   W03
 .byte   VOL , 29*songC6_mvl/mxv
 .byte   W02
 .byte   VOL , 29*songC6_mvl/mxv
 .byte   W01
 .byte   VOL , 30*songC6_mvl/mxv
 .byte   W03
 .byte   VOL , 30*songC6_mvl/mxv
 .byte   W02
 .byte   VOL , 31*songC6_mvl/mxv
 .byte   W01
 .byte   VOL , 31*songC6_mvl/mxv
 .byte   W02
 .byte   VOL , 31*songC6_mvl/mxv
 .byte   W01
 .byte   VOL , 32*songC6_mvl/mxv
 .byte   W02
@ 008   ----------------------------------------
 .byte   W01
 .byte   VOL , 32*songC6_mvl/mxv
 .byte   W03
 .byte   VOL , 32*songC6_mvl/mxv
 .byte   W03
 .byte   VOL , 33*songC6_mvl/mxv
 .byte   W03
 .byte   VOL , 33*songC6_mvl/mxv
 .byte   W05
 .byte   VOL , 33*songC6_mvl/mxv
 .byte   W16
 .byte   VOL , 33*songC6_mvl/mxv
 .byte   W02
 .byte   VOL , 33*songC6_mvl/mxv
 .byte   W04
 .byte   VOL , 32*songC6_mvl/mxv
 .byte   W06
 .byte   VOL , 32*songC6_mvl/mxv
 .byte   W03
 .byte   VOL , 32*songC6_mvl/mxv
 .byte   W03
 .byte   VOL , 31*songC6_mvl/mxv
 .byte   W03
 .byte   VOL , 31*songC6_mvl/mxv
 .byte   W03
 .byte   VOL , 30*songC6_mvl/mxv
 .byte   W03
 .byte   VOL , 30*songC6_mvl/mxv
 .byte   W02
 .byte   VOL , 30*songC6_mvl/mxv
 .byte   W01
 .byte   VOL , 29*songC6_mvl/mxv
 .byte   W02
 .byte   VOL , 29*songC6_mvl/mxv
 .byte   W01
 .byte   VOL , 29*songC6_mvl/mxv
 .byte   W02
 .byte   VOL , 28*songC6_mvl/mxv
 .byte   W01
 .byte   VOL , 28*songC6_mvl/mxv
 .byte   W02
 .byte   VOL , 27*songC6_mvl/mxv
 .byte   W01
 .byte   VOL , 26*songC6_mvl/mxv
 .byte   W02
 .byte   VOL , 26*songC6_mvl/mxv
 .byte   W03
 .byte   VOL , 25*songC6_mvl/mxv
 .byte   W01
 .byte   VOL , 24*songC6_mvl/mxv
 .byte   W02
 .byte   VOL , 24*songC6_mvl/mxv
 .byte   W01
 .byte   VOL , 24*songC6_mvl/mxv
 .byte   W02
 .byte   VOL , 23*songC6_mvl/mxv
 .byte   W01
 .byte   VOL , 22*songC6_mvl/mxv
 .byte   W02
 .byte   VOL , 22*songC6_mvl/mxv
 .byte   W01
 .byte   VOL , 21*songC6_mvl/mxv
 .byte   W02
 .byte   VOL , 20*songC6_mvl/mxv
 .byte   W01
 .byte   VOL , 19*songC6_mvl/mxv
 .byte   W02
 .byte   VOL , 18*songC6_mvl/mxv
 .byte   W01
 .byte   VOL , 18*songC6_mvl/mxv
 .byte   W02
 .byte   VOL , 17*songC6_mvl/mxv
 .byte   W01
 .byte   EOT
 .byte   VOL , 16*songC6_mvl/mxv
 .byte   W02
@ 009   ----------------------------------------
 .byte   VOL , 21*songC6_mvl/mxv
 .byte   N44 ,As3 ,v068
 .byte   W01
 .byte   VOL , 22*songC6_mvl/mxv
 .byte   W02
 .byte   VOL , 23*songC6_mvl/mxv
 .byte   W01
 .byte   VOL , 24*songC6_mvl/mxv
 .byte   W02
 .byte   VOL , 25*songC6_mvl/mxv
 .byte   W01
 .byte   VOL , 26*songC6_mvl/mxv
 .byte   W02
 .byte   VOL , 27*songC6_mvl/mxv
 .byte   W01
 .byte   VOL , 27*songC6_mvl/mxv
 .byte   W02
 .byte   VOL , 28*songC6_mvl/mxv
 .byte   W01
 .byte   VOL , 28*songC6_mvl/mxv
 .byte   W02
 .byte   VOL , 29*songC6_mvl/mxv
 .byte   W01
 .byte   VOL , 29*songC6_mvl/mxv
 .byte   W02
 .byte   VOL , 30*songC6_mvl/mxv
 .byte   W01
 .byte   VOL , 31*songC6_mvl/mxv
 .byte   W02
 .byte   VOL , 31*songC6_mvl/mxv
 .byte   W01
 .byte   VOL , 31*songC6_mvl/mxv
 .byte   W02
 .byte   VOL , 32*songC6_mvl/mxv
 .byte   W07
 .byte   VOL , 31*songC6_mvl/mxv
 .byte   W02
 .byte   VOL , 31*songC6_mvl/mxv
 .byte   W01
 .byte   VOL , 31*songC6_mvl/mxv
 .byte   W02
 .byte   VOL , 30*songC6_mvl/mxv
 .byte   W01
 .byte   VOL , 30*songC6_mvl/mxv
 .byte   W02
 .byte   VOL , 28*songC6_mvl/mxv
 .byte   W01
 .byte   VOL , 28*songC6_mvl/mxv
 .byte   W02
 .byte   VOL , 26*songC6_mvl/mxv
 .byte   W01
 .byte   VOL , 25*songC6_mvl/mxv
 .byte   W02
 .byte   VOL , 24*songC6_mvl/mxv
 .byte   W01
 .byte   VOL , 23*songC6_mvl/mxv
 .byte   W02
 .byte   VOL , 24*songC6_mvl/mxv
 .byte   TIE ,Gs3 ,v072
 .byte   W03
 .byte   VOL , 25*songC6_mvl/mxv
 .byte   W03
 .byte   VOL , 25*songC6_mvl/mxv
 .byte   W01
 .byte   VOL , 26*songC6_mvl/mxv
 .byte   W03
 .byte   VOL , 26*songC6_mvl/mxv
 .byte   W03
 .byte   VOL , 27*songC6_mvl/mxv
 .byte   W02
 .byte   VOL , 27*songC6_mvl/mxv
 .byte   W03
 .byte   VOL , 28*songC6_mvl/mxv
 .byte   W03
 .byte   VOL , 28*songC6_mvl/mxv
 .byte   W01
 .byte   VOL , 28*songC6_mvl/mxv
 .byte   W03
 .byte   VOL , 29*songC6_mvl/mxv
 .byte   W03
 .byte   VOL , 29*songC6_mvl/mxv
 .byte   W02
 .byte   VOL , 30*songC6_mvl/mxv
 .byte   W03
 .byte   VOL , 30*songC6_mvl/mxv
 .byte   W04
 .byte   VOL , 31*songC6_mvl/mxv
 .byte   W02
 .byte   VOL , 31*songC6_mvl/mxv
 .byte   W03
 .byte   VOL , 31*songC6_mvl/mxv
 .byte   W01
 .byte   VOL , 32*songC6_mvl/mxv
 .byte   W03
 .byte   VOL , 32*songC6_mvl/mxv
 .byte   W02
@ 010   ----------------------------------------
 .byte   VOL , 32*songC6_mvl/mxv
 .byte   W04
 .byte   VOL , 33*songC6_mvl/mxv
 .byte   W36
 .byte   W03
 .byte   VOL , 32*songC6_mvl/mxv
 .byte   W03
 .byte   VOL , 32*songC6_mvl/mxv
 .byte   W02
 .byte   VOL , 32*songC6_mvl/mxv
 .byte   W03
 .byte   VOL , 31*songC6_mvl/mxv
 .byte   W04
 .byte   VOL , 30*songC6_mvl/mxv
 .byte   W03
 .byte   VOL , 30*songC6_mvl/mxv
 .byte   W03
 .byte   VOL , 29*songC6_mvl/mxv
 .byte   W03
 .byte   VOL , 29*songC6_mvl/mxv
 .byte   W02
 .byte   VOL , 28*songC6_mvl/mxv
 .byte   W03
 .byte   VOL , 28*songC6_mvl/mxv
 .byte   W01
 .byte   VOL , 27*songC6_mvl/mxv
 .byte   W02
 .byte   VOL , 27*songC6_mvl/mxv
 .byte   W01
 .byte   VOL , 27*songC6_mvl/mxv
 .byte   W02
 .byte   VOL , 26*songC6_mvl/mxv
 .byte   W01
 .byte   VOL , 26*songC6_mvl/mxv
 .byte   W02
 .byte   VOL , 25*songC6_mvl/mxv
 .byte   W01
 .byte   VOL , 25*songC6_mvl/mxv
 .byte   W02
 .byte   VOL , 24*songC6_mvl/mxv
 .byte   W01
 .byte   VOL , 24*songC6_mvl/mxv
 .byte   W02
 .byte   VOL , 24*songC6_mvl/mxv
 .byte   W01
 .byte   VOL , 23*songC6_mvl/mxv
 .byte   W02
 .byte   VOL , 23*songC6_mvl/mxv
 .byte   W01
 .byte   VOL , 22*songC6_mvl/mxv
 .byte   W02
 .byte   VOL , 21*songC6_mvl/mxv
 .byte   W01
 .byte   VOL , 20*songC6_mvl/mxv
 .byte   W02
 .byte   VOL , 20*songC6_mvl/mxv
 .byte   W01
 .byte   EOT
 .byte   VOL , 19*songC6_mvl/mxv
 .byte   W02
@ 011   ----------------------------------------
 .byte   VOL , 33*songC6_mvl/mxv
 .byte   N11 ,Fs3 ,v080
 .byte   W12
 .byte   En3 ,v056
 .byte   W12
 .byte   Fs3 ,v076
 .byte   W12
 .byte   VOL , 26*songC6_mvl/mxv
 .byte   TIE ,Gs3
 .byte   W06
 .byte   VOL , 27*songC6_mvl/mxv
 .byte   W04
 .byte   VOL , 27*songC6_mvl/mxv
 .byte   W03
 .byte   VOL , 27*songC6_mvl/mxv
 .byte   W03
 .byte   VOL , 28*songC6_mvl/mxv
 .byte   W02
 .byte   VOL , 28*songC6_mvl/mxv
 .byte   W03
 .byte   VOL , 28*songC6_mvl/mxv
 .byte   W01
 .byte   VOL , 29*songC6_mvl/mxv
 .byte   W02
 .byte   VOL , 29*songC6_mvl/mxv
 .byte   W03
 .byte   VOL , 29*songC6_mvl/mxv
 .byte   W03
 .byte   VOL , 30*songC6_mvl/mxv
 .byte   W03
 .byte   VOL , 30*songC6_mvl/mxv
 .byte   W01
 .byte   VOL , 30*songC6_mvl/mxv
 .byte   W03
 .byte   VOL , 31*songC6_mvl/mxv
 .byte   W03
 .byte   VOL , 31*songC6_mvl/mxv
 .byte   W03
 .byte   VOL , 31*songC6_mvl/mxv
 .byte   W02
 .byte   VOL , 32*songC6_mvl/mxv
 .byte   W04
 .byte   VOL , 32*songC6_mvl/mxv
 .byte   W02
 .byte   VOL , 32*songC6_mvl/mxv
 .byte   W04
 .byte   VOL , 33*songC6_mvl/mxv
 .byte   W05
@ 012   ----------------------------------------
 .byte   W03
 .byte   VOL , 33*songC6_mvl/mxv
 .byte   W03
 .byte   VOL , 33*songC6_mvl/mxv
 .byte   W40
 .byte   VOL , 33*songC6_mvl/mxv
 .byte   W03
 .byte   VOL , 33*songC6_mvl/mxv
 .byte   W02
 .byte   VOL , 32*songC6_mvl/mxv
 .byte   W01
 .byte   VOL , 32*songC6_mvl/mxv
 .byte   W03
 .byte   VOL , 32*songC6_mvl/mxv
 .byte   W02
 .byte   VOL , 31*songC6_mvl/mxv
 .byte   W01
 .byte   VOL , 31*songC6_mvl/mxv
 .byte   W02
 .byte   VOL , 31*songC6_mvl/mxv
 .byte   W03
 .byte   VOL , 30*songC6_mvl/mxv
 .byte   W03
 .byte   VOL , 30*songC6_mvl/mxv
 .byte   W01
 .byte   VOL , 29*songC6_mvl/mxv
 .byte   W03
 .byte   VOL , 29*songC6_mvl/mxv
 .byte   W02
 .byte   VOL , 28*songC6_mvl/mxv
 .byte   W03
 .byte   VOL , 28*songC6_mvl/mxv
 .byte   W01
 .byte   VOL , 28*songC6_mvl/mxv
 .byte   W02
 .byte   VOL , 27*songC6_mvl/mxv
 .byte   W03
 .byte   VOL , 26*songC6_mvl/mxv
 .byte   W01
 .byte   VOL , 26*songC6_mvl/mxv
 .byte   W02
 .byte   VOL , 25*songC6_mvl/mxv
 .byte   W01
 .byte   VOL , 24*songC6_mvl/mxv
 .byte   W02
 .byte   VOL , 24*songC6_mvl/mxv
 .byte   W01
 .byte   VOL , 24*songC6_mvl/mxv
 .byte   W02
 .byte   VOL , 23*songC6_mvl/mxv
 .byte   W01
 .byte   VOL , 22*songC6_mvl/mxv
 .byte   W02
 .byte   VOL , 21*songC6_mvl/mxv
 .byte   W01
 .byte   EOT
 .byte   VOL , 20*songC6_mvl/mxv
 .byte   W02
@ 013   ----------------------------------------
 .byte   VOL , 33*songC6_mvl/mxv
 .byte   N44 ,As3 ,v072
 .byte   W48
 .byte   N92 ,Gs3 ,v068
 .byte   W28
 .byte   VOL , 33*songC6_mvl/mxv
 .byte   W11
 .byte   VOL , 32*songC6_mvl/mxv
 .byte   W03
 .byte   VOL , 32*songC6_mvl/mxv
 .byte   W03
 .byte   VOL , 32*songC6_mvl/mxv
 .byte   W01
 .byte   VOL , 31*songC6_mvl/mxv
 .byte   W02
@ 014   ----------------------------------------
 .byte   VOL , 31*songC6_mvl/mxv
 .byte   W03
 .byte   VOL , 31*songC6_mvl/mxv
 .byte   W03
 .byte   VOL , 30*songC6_mvl/mxv
 .byte   W01
 .byte   VOL , 30*songC6_mvl/mxv
 .byte   W05
 .byte   VOL , 30*songC6_mvl/mxv
 .byte   W01
 .byte   VOL , 29*songC6_mvl/mxv
 .byte   W02
 .byte   VOL , 29*songC6_mvl/mxv
 .byte   W03
 .byte   VOL , 28*songC6_mvl/mxv
 .byte   W03
 .byte   VOL , 28*songC6_mvl/mxv
 .byte   W01
 .byte   VOL , 28*songC6_mvl/mxv
 .byte   W02
 .byte   VOL , 27*songC6_mvl/mxv
 .byte   W01
 .byte   VOL , 27*songC6_mvl/mxv
 .byte   W02
 .byte   VOL , 27*songC6_mvl/mxv
 .byte   W01
 .byte   VOL , 26*songC6_mvl/mxv
 .byte   W03
 .byte   VOL , 26*songC6_mvl/mxv
 .byte   W02
 .byte   VOL , 25*songC6_mvl/mxv
 .byte   W01
 .byte   VOL , 25*songC6_mvl/mxv
 .byte   W02
 .byte   VOL , 25*songC6_mvl/mxv
 .byte   W01
 .byte   VOL , 24*songC6_mvl/mxv
 .byte   W02
 .byte   VOL , 24*songC6_mvl/mxv
 .byte   W01
 .byte   VOL , 24*songC6_mvl/mxv
 .byte   W02
 .byte   VOL , 23*songC6_mvl/mxv
 .byte   W01
 .byte   VOL , 23*songC6_mvl/mxv
 .byte   W02
 .byte   VOL , 23*songC6_mvl/mxv
 .byte   W01
 .byte   VOL , 22*songC6_mvl/mxv
 .byte   W02
 .byte   VOL , 25*songC6_mvl/mxv
 .byte   N92 ,Cs4 ,v076
 .byte   W01
 .byte   VOL , 25*songC6_mvl/mxv
 .byte   W02
 .byte   VOL , 26*songC6_mvl/mxv
 .byte   W01
 .byte   VOL , 26*songC6_mvl/mxv
 .byte   W02
 .byte   VOL , 26*songC6_mvl/mxv
 .byte   W01
 .byte   VOL , 27*songC6_mvl/mxv
 .byte   W02
 .byte   VOL , 27*songC6_mvl/mxv
 .byte   W01
 .byte   VOL , 28*songC6_mvl/mxv
 .byte   W02
 .byte   VOL , 28*songC6_mvl/mxv
 .byte   W01
 .byte   VOL , 28*songC6_mvl/mxv
 .byte   W02
 .byte   VOL , 29*songC6_mvl/mxv
 .byte   W01
 .byte   VOL , 29*songC6_mvl/mxv
 .byte   W02
 .byte   VOL , 30*songC6_mvl/mxv
 .byte   W01
 .byte   VOL , 30*songC6_mvl/mxv
 .byte   W02
 .byte   VOL , 30*songC6_mvl/mxv
 .byte   W01
 .byte   VOL , 31*songC6_mvl/mxv
 .byte   W02
 .byte   VOL , 31*songC6_mvl/mxv
 .byte   W01
 .byte   VOL , 32*songC6_mvl/mxv
 .byte   W02
 .byte   VOL , 32*songC6_mvl/mxv
 .byte   W01
 .byte   VOL , 33*songC6_mvl/mxv
 .byte   W02
 .byte   VOL , 33*songC6_mvl/mxv
 .byte   W01
 .byte   VOL , 33*songC6_mvl/mxv
 .byte   W02
 .byte   VOL , 34*songC6_mvl/mxv
 .byte   W01
 .byte   VOL , 34*songC6_mvl/mxv
 .byte   W03
 .byte   VOL , 34*songC6_mvl/mxv
 .byte   W03
 .byte   VOL , 35*songC6_mvl/mxv
 .byte   W08
@ 015   ----------------------------------------
 .byte   W09
 .byte   VOL , 34*songC6_mvl/mxv
 .byte   W01
 .byte   VOL , 34*songC6_mvl/mxv
 .byte   W05
 .byte   VOL , 34*songC6_mvl/mxv
 .byte   W01
 .byte   VOL , 33*songC6_mvl/mxv
 .byte   W02
 .byte   VOL , 33*songC6_mvl/mxv
 .byte   W01
 .byte   VOL , 33*songC6_mvl/mxv
 .byte   W02
 .byte   VOL , 32*songC6_mvl/mxv
 .byte   W03
 .byte   VOL , 32*songC6_mvl/mxv
 .byte   W01
 .byte   VOL , 31*songC6_mvl/mxv
 .byte   W02
 .byte   VOL , 31*songC6_mvl/mxv
 .byte   W01
 .byte   VOL , 31*songC6_mvl/mxv
 .byte   W02
 .byte   VOL , 30*songC6_mvl/mxv
 .byte   W01
 .byte   VOL , 30*songC6_mvl/mxv
 .byte   W02
 .byte   VOL , 29*songC6_mvl/mxv
 .byte   W01
 .byte   VOL , 29*songC6_mvl/mxv
 .byte   W02
 .byte   VOL , 28*songC6_mvl/mxv
 .byte   W01
 .byte   VOL , 28*songC6_mvl/mxv
 .byte   W02
 .byte   VOL , 27*songC6_mvl/mxv
 .byte   W01
 .byte   VOL , 26*songC6_mvl/mxv
 .byte   W02
 .byte   VOL , 26*songC6_mvl/mxv
 .byte   W01
 .byte   VOL , 25*songC6_mvl/mxv
 .byte   W02
 .byte   VOL , 24*songC6_mvl/mxv
 .byte   W01
 .byte   VOL , 23*songC6_mvl/mxv
 .byte   W02
 .byte   VOL , 23*songC6_mvl/mxv
 .byte   W01
 .byte   VOL , 22*songC6_mvl/mxv
 .byte   W02
 .byte   VOL , 21*songC6_mvl/mxv
 .byte   W01
 .byte   VOL , 20*songC6_mvl/mxv
 .byte   W02
 .byte   VOL , 19*songC6_mvl/mxv
 .byte   W01
 .byte   VOL , 18*songC6_mvl/mxv
 .byte   W02
 .byte   VOL , 17*songC6_mvl/mxv
 .byte   W01
 .byte   VOL , 17*songC6_mvl/mxv
 .byte   W02
 .byte   VOL , 16*songC6_mvl/mxv
 .byte   W01
 .byte   VOL , 14*songC6_mvl/mxv
 .byte   W02
 .byte   VOL , 14*songC6_mvl/mxv
 .byte   W01
 .byte   VOL , 13*songC6_mvl/mxv
 .byte   W02
 .byte   VOL , 12*songC6_mvl/mxv
 .byte   W01
 .byte   VOL , 11*songC6_mvl/mxv
 .byte   W02
 .byte   VOL , 10*songC6_mvl/mxv
 .byte   W01
 .byte   VOL , 9*songC6_mvl/mxv
 .byte   W02
 .byte   VOL , 33*songC6_mvl/mxv
 .byte   W24
@ 016   ----------------------------------------
 .byte   W96
@ 017   ----------------------------------------
 .byte   W96
@ 018   ----------------------------------------
 .byte   W96
@ 019   ----------------------------------------
 .byte   W96
@ 020   ----------------------------------------
 .byte   W96
@ 021   ----------------------------------------
 .byte   W96
@ 022   ----------------------------------------
 .byte   W96
@ 023   ----------------------------------------
 .byte   W96
@ 024   ----------------------------------------
 .byte   W96
@ 025   ----------------------------------------
 .byte   W96
@ 026   ----------------------------------------
 .byte   W96
@ 027   ----------------------------------------
 .byte   W96
@ 028   ----------------------------------------
 .byte   W96
@ 029   ----------------------------------------
 .byte   W96
@ 030   ----------------------------------------
 .byte   W96
@ 031   ----------------------------------------
 .byte   W96
@ 032   ----------------------------------------
 .byte   W96
@ 033   ----------------------------------------
 .byte   W96
@ 034   ----------------------------------------
 .byte   W96
@ 035   ----------------------------------------
 .byte   W96
@ 036   ----------------------------------------
 .byte   W96
@ 037   ----------------------------------------
 .byte   W96
@ 038   ----------------------------------------
 .byte   W96
@ 039   ----------------------------------------
 .byte   W96
@ 040   ----------------------------------------
 .byte   W96
@ 041   ----------------------------------------
 .byte   W96
@ 042   ----------------------------------------
 .byte   W96
@ 043   ----------------------------------------
 .byte   W96
@ 044   ----------------------------------------
 .byte   W96
@ 045   ----------------------------------------
 .byte   W96
@ 046   ----------------------------------------
 .byte   W96
@ 047   ----------------------------------------
 .byte   W96
@ 048   ----------------------------------------
 .byte   W96
@ 049   ----------------------------------------
 .byte   W96
@ 050   ----------------------------------------
 .byte   W96
@ 051   ----------------------------------------
 .byte   W12
 .byte   N11 ,As2 ,v072
 .byte   W12
 .byte   Ds3
 .byte   W12
 .byte   Fn3
 .byte   W12
 .byte   N32 ,Fs3
 .byte   W36
 .byte   N05 ,Fn3
 .byte   W12
@ 052   ----------------------------------------
 .byte   N32
 .byte   W36
 .byte   N05 ,Ds3
 .byte   W06
 .byte   Fn3
 .byte   W06
 .byte   N17 ,Fs3
 .byte   W18
 .byte   N17
 .byte   W18
 .byte   N05
 .byte   W12
@ 053   ----------------------------------------
 .byte   N23 ,Fn3
 .byte   W24
 .byte   Cs3
 .byte   W24
 .byte   N32 ,Fn3
 .byte   W36
 .byte   N11 ,Fs3
 .byte   W12
@ 054   ----------------------------------------
 .byte   N92 ,Ds3
 .byte   W96
@ 055   ----------------------------------------
 .byte   W12
 .byte   N11 ,As2
 .byte   W12
 .byte   Ds3
 .byte   W12
 .byte   Fs3
 .byte   W12
 .byte   N23 ,Fn3
 .byte   W24
 .byte   N05 ,Ds3
 .byte   W12
 .byte   N23 ,As2
 .byte   W12
@ 056   ----------------------------------------
 .byte   W12
 .byte   N11 ,Gs2
 .byte   W12
 .byte   Fs2
 .byte   W12
 .byte   N56 ,As2
 .byte   W60
@ 057   ----------------------------------------
 .byte   W12
 .byte   N11
 .byte   W12
 .byte   Ds3
 .byte   W12
 .byte   Fs3
 .byte   W12
 .byte   N23 ,Gs3
 .byte   W24
 .byte   N05 ,Fs3
 .byte   W12
 .byte   N23 ,Fn3
 .byte   W12
@ 058   ----------------------------------------
 .byte   W12
 .byte   N05 ,Fs3
 .byte   W12
 .byte   Gs3
 .byte   W12
 .byte   N56 ,As3
 .byte   W60
@ 059   ----------------------------------------
 .byte   W24
 .byte   N11 ,Ds3
 .byte   W12
 .byte   Fs3
 .byte   W12
 .byte   N32 ,As3
 .byte   W36
 .byte   N05 ,Gs3
 .byte   W12
@ 060   ----------------------------------------
 .byte   N32
 .byte   W36
 .byte   N05 ,Fs3
 .byte   W06
 .byte   Gs3
 .byte   W06
 .byte   N17 ,As3
 .byte   W18
 .byte   Bn3
 .byte   W18
 .byte   N05 ,As3
 .byte   W12
@ 061   ----------------------------------------
 .byte   N23 ,Gs3
 .byte   W24
 .byte   Fn3
 .byte   W24
 .byte   N32
 .byte   W36
 .byte   N11 ,Fs3
 .byte   W12
@ 062   ----------------------------------------
 .byte   N80 ,Ds3
 .byte   W96
@ 063   ----------------------------------------
 .byte   W12
 .byte   N11 ,Fs3
 .byte   W12
 .byte   As3
 .byte   W12
 .byte   Ds4
 .byte   W12
 .byte   N23
 .byte   W24
 .byte   N05 ,As3
 .byte   W12
 .byte   N23 ,Fs3
 .byte   W12
@ 064   ----------------------------------------
Label_11_014B3362:
 .byte   W12
 .byte   N11 ,Fn3 ,v072
 .byte   W12
 .byte   Ds3
 .byte   W12
 .byte   N56 ,Fs3
 .byte   W60
 .byte   PEND 
@ 065   ----------------------------------------
 .byte   W12
 .byte   N11
 .byte   W12
 .byte   As3
 .byte   W12
 .byte   Ds4
 .byte   W12
 .byte   N23
 .byte   W24
 .byte   N11 ,As3
 .byte   W12
 .byte   N23 ,Fs3
 .byte   W12
@ 066   ----------------------------------------
 .byte   W12
 .byte   N11 ,Fn3
 .byte   W12
 .byte   Fs3
 .byte   W12
 .byte   N23 ,As2
 .byte   W24
 .byte   N11 ,Fs3 ,v076
 .byte   N11 ,As3
 .byte   W12
 .byte   Gs3 ,v092
 .byte   N11 ,Bn3
 .byte   W12
 .byte   Fs3
 .byte   N11 ,As3
 .byte   W12
@ 067   ----------------------------------------
 .byte   Fn3 ,v084
 .byte   N11 ,Gs3
 .byte   W12
 .byte   Ds3 ,v080
 .byte   N11 ,Fs3
 .byte   W12
 .byte   Cs3 ,v072
 .byte   N11 ,Fn3
 .byte   W12
 .byte   Bn2 ,v064
 .byte   N11 ,Ds3
 .byte   W12
 .byte   N32 ,Ds3 ,v072
 .byte   N32 ,Fs3
 .byte   W36
 .byte   N05 ,Cs3
 .byte   N05 ,Fn3
 .byte   W12
@ 068   ----------------------------------------
 .byte   N32 ,Cs3
 .byte   N32 ,Fn3
 .byte   W36
 .byte   N05 ,As2
 .byte   N05 ,Ds3
 .byte   W06
 .byte   Cs3
 .byte   N05 ,Fn3
 .byte   W06
 .byte   N17 ,Ds3
 .byte   N17 ,Fs3
 .byte   W18
 .byte   Ds3
 .byte   N17 ,Fs3
 .byte   W18
 .byte   N05 ,Cs3
 .byte   N05 ,Fs3
 .byte   W12
@ 069   ----------------------------------------
 .byte   N23 ,Cs3
 .byte   N23 ,Fn3
 .byte   W24
 .byte   As2
 .byte   N23 ,Cs3
 .byte   W24
 .byte   N32
 .byte   N32 ,Fn3
 .byte   W36
 .byte   N11 ,Ds3
 .byte   N11 ,Fs3
 .byte   W12
@ 070   ----------------------------------------
 .byte   As2 ,v084
 .byte   N11 ,Ds3
 .byte   W12
 .byte   Cs3 ,v092
 .byte   N11 ,Fn3
 .byte   W12
 .byte   Ds3 ,v088
 .byte   N11 ,Fs3
 .byte   W12
 .byte   Fn3
 .byte   N11 ,Gs3
 .byte   W12
 .byte   N44 ,Ds3 ,v076
 .byte   N44 ,Fs3
 .byte   W48
@ 071   ----------------------------------------
 .byte   Dn3 ,v072
 .byte   N44 ,Fn3
 .byte   W48
 .byte   N23 ,As3
 .byte   W24
 .byte   N05 ,Gs3
 .byte   W12
 .byte   N23 ,Fs3
 .byte   W12
@ 072   ----------------------------------------
 .byte   PATT
  .word Label_11_014B3362
@ 073   ----------------------------------------
 .byte   W12
 .byte   N11 ,Ds3 ,v072
 .byte   W12
 .byte   Fs3
 .byte   W12
 .byte   As3
 .byte   W12
 .byte   N23 ,Ds4
 .byte   W24
 .byte   N05 ,Cs4
 .byte   W12
 .byte   N23 ,Bn3
 .byte   W12
@ 074   ----------------------------------------
 .byte   W12
 .byte   N05 ,Ds4
 .byte   W12
 .byte   Fn4
 .byte   W12
 .byte   N56 ,Fs4
 .byte   W60
@ 075   ----------------------------------------
 .byte   W12
 .byte   N11 ,Fs3
 .byte   W12
 .byte   As3
 .byte   W12
 .byte   Cs4
 .byte   W12
 .byte   N32 ,Ds4
 .byte   W36
 .byte   N05 ,Cs4
 .byte   W12
@ 076   ----------------------------------------
 .byte   N32
 .byte   W36
 .byte   N05 ,As3
 .byte   W06
 .byte   Cs4
 .byte   W06
 .byte   N17 ,Ds4
 .byte   W18
 .byte   Fn4
 .byte   W18
 .byte   N05 ,Ds4
 .byte   W12
@ 077   ----------------------------------------
 .byte   N23 ,Cs4
 .byte   W24
 .byte   As3
 .byte   W24
 .byte   N32 ,Gs3
 .byte   W36
 .byte   N11 ,As3
 .byte   W12
@ 078   ----------------------------------------
 .byte   TIE ,Fs3
 .byte   W96
@ 079   ----------------------------------------
 .byte   W23
 .byte   EOT
 .byte   W72
 .byte   W01
@ 080   ----------------------------------------
 .byte   W96
@ 081   ----------------------------------------
 .byte   W96
@ 082   ----------------------------------------
 .byte   W96
@ 083   ----------------------------------------
 .byte   W96
@ 084   ----------------------------------------
 .byte   W96
@ 085   ----------------------------------------
 .byte   W96
@ 086   ----------------------------------------
 .byte   W96
@ 087   ----------------------------------------
 .byte   W96
@ 088   ----------------------------------------
 .byte   W96
@ 089   ----------------------------------------
 .byte   W96
@ 090   ----------------------------------------
 .byte   W96
@ 091   ----------------------------------------
 .byte   W96
@ 092   ----------------------------------------
 .byte   W96
@ 093   ----------------------------------------
 .byte   W96
@ 094   ----------------------------------------
 .byte   W96
@ 095   ----------------------------------------
 .byte   W96
@ 096   ----------------------------------------
 .byte   W96
@ 097   ----------------------------------------
 .byte   W96
@ 098   ----------------------------------------
 .byte   W96
@ 099   ----------------------------------------
 .byte   W96
@ 100   ----------------------------------------
 .byte   W96
@ 101   ----------------------------------------
 .byte   W96
@ 102   ----------------------------------------
 .byte   W96
@ 103   ----------------------------------------
 .byte   W48
 .byte   N23 ,Gs2
 .byte   W24
 .byte   N56 ,Gs3
 .byte   W24
@ 104   ----------------------------------------
 .byte   W36
 .byte   N11 ,An3
 .byte   W12
 .byte   N05 ,Bn3
 .byte   W06
 .byte   N08 ,An3
 .byte   W06
 .byte   N05 ,Gs3
 .byte   W06
 .byte   N08 ,Fs3
 .byte   W06
 .byte   N05 ,Gs3
 .byte   W06
 .byte   Fs3
 .byte   W06
 .byte   En3
 .byte   W06
 .byte   N10 ,Ds3
 .byte   W06
@ 105   ----------------------------------------
 .byte   N05 ,En3
 .byte   W06
 .byte   N08 ,Ds3
 .byte   W06
 .byte   N05 ,Cs3
 .byte   W06
 .byte   N08 ,Bn2
 .byte   W06
 .byte   Cs3
 .byte   W06
 .byte   N07 ,Bn2
 .byte   W06
 .byte   N08 ,An2
 .byte   W06
 .byte   N05 ,Gs2
 .byte   W06
 .byte   N32 ,Cs3 ,v080
 .byte   N32 ,En3
 .byte   W36
 .byte   N05 ,Fs2 ,v084
 .byte   N05 ,Bn2
 .byte   W06
 .byte   En2
 .byte   N05 ,An2
 .byte   W06
@ 106   ----------------------------------------
 .byte   N11 ,En2 ,v080
 .byte   N11 ,Gs2
 .byte   W12
 .byte   Ds2 ,v076
 .byte   N11 ,Fs2
 .byte   W12
 .byte   Cs2 ,v072
 .byte   N11 ,En2
 .byte   W12
 .byte   Cs2
 .byte   N11 ,Fs2
 .byte   W12
 .byte   En2
 .byte   N11 ,Gs2
 .byte   W12
 .byte   Fs2
 .byte   N11 ,Bn2
 .byte   W12
 .byte   Gs2
 .byte   N11 ,Cs3
 .byte   W12
 .byte   Bn2
 .byte   N11 ,Ds3
 .byte   W12
@ 107   ----------------------------------------
 .byte   Cs3
 .byte   N11 ,En3
 .byte   W12
 .byte   Ds3
 .byte   N11 ,Fs3
 .byte   W12
 .byte   En3
 .byte   N11 ,Gs3
 .byte   W12
 .byte   Fs3
 .byte   N11 ,Bn3
 .byte   W12
 .byte   N17 ,Gs2
 .byte   N17 ,Cs3
 .byte   W18
 .byte   N40
 .byte   N40 ,En3
 .byte   W30
@ 108   ----------------------------------------
 .byte   W12
 .byte   N11
 .byte   N11 ,Gs3
 .byte   W12
 .byte   Ds3
 .byte   N11 ,Fs3
 .byte   W12
 .byte   N44 ,Cs3
 .byte   N44 ,En3
 .byte   W48
 .byte   N05 ,Cs3
 .byte   N05 ,Fs3
 .byte   W06
 .byte   En3
 .byte   N05 ,Gs3
 .byte   W06
@ 109   ----------------------------------------
 .byte   N11 ,Ds3
 .byte   N11 ,Fs3
 .byte   W12
 .byte   Cs3
 .byte   N11 ,En3
 .byte   W12
 .byte   Bn2
 .byte   N11 ,Cs3
 .byte   W12
 .byte   Gs2
 .byte   N11 ,Bn2
 .byte   W12
 .byte   N32 ,Ds3
 .byte   N32 ,Fs3
 .byte   W36
 .byte   N11 ,Cs3
 .byte   N11 ,En3
 .byte   W12
@ 110   ----------------------------------------
 .byte   N32 ,Bn2
 .byte   N32 ,Ds3
 .byte   W36
 .byte   N05 ,Gs2
 .byte   N05 ,Cs3
 .byte   W06
 .byte   Bn2
 .byte   N05 ,Ds3
 .byte   W06
 .byte   N17 ,Bn2 ,v052
 .byte   N17 ,En3 ,v072
 .byte   W18
 .byte   An2 ,v052
 .byte   N17 ,Ds3 ,v072
 .byte   W18
 .byte   N11 ,Gs2 ,v052
 .byte   N11 ,Cs3 ,v072
 .byte   W12
@ 111   ----------------------------------------
 .byte   N17 ,An2 ,v052
 .byte   N17 ,Ds3 ,v072
 .byte   W18
 .byte   Ds2 ,v052
 .byte   N17 ,Gs2 ,v072
 .byte   W18
 .byte   N11 ,Fs2 ,v052
 .byte   N11 ,Bn2 ,v072
 .byte   W12
 .byte   N80 ,Fs2 ,v052
 .byte   N80 ,Bn2 ,v072
 .byte   W48
@ 112   ----------------------------------------
 .byte   W36
 .byte   N11 ,Gs2 ,v052
 .byte   N11 ,Cs3 ,v072
 .byte   W12
 .byte   N68 ,Gs2 ,v052
 .byte   N68 ,Cs3 ,v072
 .byte   W48
@ 113   ----------------------------------------
 .byte   W96
@ 114   ----------------------------------------
 .byte   W96
@ 115   ----------------------------------------
 .byte   W96
@ 116   ----------------------------------------
 .byte   W96
@ 117   ----------------------------------------
 .byte   W96
@ 118   ----------------------------------------
 .byte   W96
@ 119   ----------------------------------------
 .byte   W96
@ 120   ----------------------------------------
 .byte   W96
@ 121   ----------------------------------------
 .byte   W96
@ 122   ----------------------------------------
 .byte   W96
@ 123   ----------------------------------------
 .byte   W96
@ 124   ----------------------------------------
 .byte   W96
@ 125   ----------------------------------------
 .byte   W96
@ 126   ----------------------------------------
 .byte   W12
 .byte   N11 ,Cn3
 .byte   W12
 .byte   Fn3
 .byte   W12
 .byte   Gn3
 .byte   W12
 .byte   N32 ,Gs3
 .byte   W36
 .byte   N05 ,Gn3
 .byte   W12
@ 127   ----------------------------------------
 .byte   N32
 .byte   W36
 .byte   N05 ,Fn3
 .byte   W06
 .byte   Gn3
 .byte   W06
 .byte   N17 ,Gs3
 .byte   W18
 .byte   N17
 .byte   W18
 .byte   N05
 .byte   W12
@ 128   ----------------------------------------
 .byte   N23 ,Gn3
 .byte   W24
 .byte   Ds3
 .byte   W24
 .byte   N32 ,Gn3
 .byte   W36
 .byte   N11 ,Gs3
 .byte   W12
@ 129   ----------------------------------------
 .byte   N92 ,Fn3
 .byte   W96
@ 130   ----------------------------------------
 .byte   W12
 .byte   N11 ,Cn3
 .byte   W12
 .byte   Fn3
 .byte   W12
 .byte   Gs3
 .byte   W12
 .byte   N23 ,Gn3
 .byte   W24
 .byte   N05 ,Fn3
 .byte   W12
 .byte   N23 ,Cn3
 .byte   W12
@ 131   ----------------------------------------
 .byte   W12
 .byte   N11 ,As2
 .byte   W12
 .byte   Gs2
 .byte   W12
 .byte   N56 ,Cn3
 .byte   W60
@ 132   ----------------------------------------
 .byte   W12
 .byte   N11
 .byte   W12
 .byte   Fn3
 .byte   W12
 .byte   Gs3
 .byte   W12
 .byte   N23 ,As3
 .byte   W24
 .byte   N05 ,Gs3
 .byte   W12
 .byte   N23 ,Gn3
 .byte   W12
@ 133   ----------------------------------------
 .byte   W12
 .byte   N05 ,Gs3
 .byte   W12
 .byte   As3
 .byte   W12
 .byte   N56 ,Cn4
 .byte   W60
@ 134   ----------------------------------------
 .byte   W12
 .byte   N11 ,Fn3
 .byte   W12
 .byte   Gs3
 .byte   W12
 .byte   As3
 .byte   W12
 .byte   N32 ,Cn4
 .byte   W36
 .byte   N05 ,As3
 .byte   W12
@ 135   ----------------------------------------
 .byte   N32
 .byte   W36
 .byte   N05 ,Gs3
 .byte   W06
 .byte   As3
 .byte   W06
 .byte   N17 ,Cn4
 .byte   W18
 .byte   Cs4
 .byte   W18
 .byte   N05 ,Cn4
 .byte   W12
@ 136   ----------------------------------------
 .byte   N23 ,As3
 .byte   W24
 .byte   Gn3
 .byte   W24
 .byte   N32
 .byte   W36
 .byte   N11 ,Gs3
 .byte   W12
@ 137   ----------------------------------------
 .byte   N80 ,Fn3
 .byte   W96
@ 138   ----------------------------------------
 .byte   W12
 .byte   N11 ,Gs3
 .byte   W12
 .byte   Cn4
 .byte   W12
 .byte   Fn4
 .byte   W12
 .byte   N23
 .byte   W24
 .byte   N05 ,Cn4
 .byte   W12
 .byte   N23 ,Gs3
 .byte   W12
@ 139   ----------------------------------------
Label_11_014B3615:
 .byte   W12
 .byte   N11 ,Gn3 ,v072
 .byte   W12
 .byte   Fn3
 .byte   W12
 .byte   N56 ,Gs3
 .byte   W60
 .byte   PEND 
@ 140   ----------------------------------------
Label_11_014B3620:
 .byte   W12
 .byte   N11 ,Gs3 ,v072
 .byte   W12
 .byte   Cn4
 .byte   W12
 .byte   Fn4
 .byte   W12
 .byte   N23
 .byte   W24
 .byte   N11 ,Cn4
 .byte   W12
 .byte   N23 ,Gs3
 .byte   W12
 .byte   PEND 
@ 141   ----------------------------------------
 .byte   W12
 .byte   N11 ,Gn3
 .byte   W12
 .byte   Gs3
 .byte   W12
 .byte   N23 ,Cn3
 .byte   W24
 .byte   N11 ,Gs3 ,v084
 .byte   N11 ,Cn4
 .byte   W12
 .byte   As3
 .byte   N11 ,Cs4
 .byte   W12
 .byte   Gs3 ,v088
 .byte   N11 ,Cn4
 .byte   W12
@ 142   ----------------------------------------
 .byte   Gn3 ,v084
 .byte   N11 ,As3
 .byte   W12
 .byte   Fn3 ,v080
 .byte   N11 ,Gs3
 .byte   W12
 .byte   Ds3 ,v076
 .byte   N11 ,Gn3
 .byte   W12
 .byte   Cs3
 .byte   N11 ,Fn3
 .byte   W12
 .byte   N32 ,Fn3 ,v072
 .byte   N32 ,Gs3
 .byte   W36
 .byte   N05 ,Ds3
 .byte   N05 ,Gn3
 .byte   W12
@ 143   ----------------------------------------
Label_11_014B3668:
 .byte   N32 ,Ds3 ,v072
 .byte   N32 ,Gn3
 .byte   W36
 .byte   N05 ,Cn3
 .byte   N05 ,Fn3
 .byte   W06
 .byte   Ds3
 .byte   N05 ,Gn3
 .byte   W06
 .byte   N17 ,Fn3
 .byte   N17 ,Gs3
 .byte   W18
 .byte   Fn3
 .byte   N17 ,Gs3
 .byte   W18
 .byte   N05 ,Ds3
 .byte   N05 ,Gs3
 .byte   W12
 .byte   PEND 
@ 144   ----------------------------------------
Label_11_014B3686:
 .byte   N23 ,Ds3 ,v072
 .byte   N23 ,Gn3
 .byte   W24
 .byte   Cn3
 .byte   N23 ,Ds3
 .byte   W24
 .byte   N32
 .byte   N32 ,Gn3
 .byte   W36
 .byte   N11 ,Fn3
 .byte   N11 ,Gs3
 .byte   W12
 .byte   PEND 
@ 145   ----------------------------------------
 .byte   Cn3 ,v076
 .byte   N11 ,Fn3
 .byte   W12
 .byte   Ds3 ,v084
 .byte   N11 ,Gn3
 .byte   W12
 .byte   Fn3
 .byte   N11 ,Gs3
 .byte   W12
 .byte   Gn3
 .byte   N11 ,As3
 .byte   W12
 .byte   N44 ,Fn3 ,v076
 .byte   N44 ,Gs3
 .byte   W48
@ 146   ----------------------------------------
Label_11_014B36B2:
 .byte   N44 ,En3 ,v072
 .byte   N44 ,Gn3
 .byte   W48
 .byte   N23 ,Cn4
 .byte   W24
 .byte   N05 ,As3
 .byte   W12
 .byte   N23 ,Gs3
 .byte   W12
 .byte   PEND 
@ 147   ----------------------------------------
 .byte   PATT
  .word Label_11_014B3615
@ 148   ----------------------------------------
Label_11_014B36C7:
 .byte   W12
 .byte   N11 ,Fn3 ,v072
 .byte   W12
 .byte   Gs3
 .byte   W12
 .byte   Cn4
 .byte   W12
 .byte   N23 ,Fn4
 .byte   W24
 .byte   N05 ,Ds4
 .byte   W12
 .byte   N23 ,Cs4
 .byte   W12
 .byte   PEND 
@ 149   ----------------------------------------
Label_11_014B36DA:
 .byte   W12
 .byte   N05 ,Fn4 ,v072
 .byte   W12
 .byte   Gn4
 .byte   W12
 .byte   N56 ,Gs4
 .byte   W60
 .byte   PEND 
@ 150   ----------------------------------------
 .byte   W12
 .byte   N11 ,Gs3
 .byte   W12
 .byte   Cn4
 .byte   W12
 .byte   Ds4
 .byte   W12
 .byte   N32 ,Fn4
 .byte   W36
 .byte   N05 ,Ds4
 .byte   W12
@ 151   ----------------------------------------
 .byte   N32
 .byte   W36
 .byte   N05 ,Cn4
 .byte   W06
 .byte   Ds4
 .byte   W06
 .byte   N17 ,Fn4
 .byte   W18
 .byte   Gn4
 .byte   W18
 .byte   N05 ,Fn4
 .byte   W12
@ 152   ----------------------------------------
 .byte   N23 ,Ds4
 .byte   W24
 .byte   Cn4
 .byte   W24
 .byte   N32
 .byte   W36
 .byte   N11
 .byte   W12
@ 153   ----------------------------------------
 .byte   TIE ,Gs3
 .byte   W96
@ 154   ----------------------------------------
 .byte   W23
 .byte   EOT
 .byte   W72
 .byte   W01
@ 155   ----------------------------------------
 .byte   W96
@ 156   ----------------------------------------
 .byte   W48
 .byte   N11 ,Gs2
 .byte   W12
 .byte   N07 ,As2
 .byte   W12
 .byte   N05 ,Gs2
 .byte   W06
 .byte   As2
 .byte   W06
 .byte   Cn3
 .byte   W06
 .byte   Dn3
 .byte   W06
@ 157   ----------------------------------------
 .byte   Cn3
 .byte   W06
 .byte   Dn3
 .byte   W06
 .byte   Ds3
 .byte   W06
 .byte   Fn3
 .byte   W06
 .byte   N05
 .byte   W06
 .byte   Gn3
 .byte   W06
 .byte   Gs3
 .byte   W06
 .byte   As3
 .byte   W06
 .byte   Cn4
 .byte   W06
 .byte   Dn4
 .byte   W06
 .byte   Ds4
 .byte   W06
 .byte   Fn4
 .byte   W06
 .byte   Gn4
 .byte   W06
 .byte   Fn4
 .byte   W06
 .byte   Ds4
 .byte   W06
 .byte   Dn4
 .byte   W06
@ 158   ----------------------------------------
 .byte   Ds4
 .byte   W06
 .byte   Dn4
 .byte   W06
 .byte   Cn4
 .byte   W06
 .byte   As3
 .byte   W06
 .byte   Gs3
 .byte   W06
 .byte   Gn3
 .byte   W06
 .byte   N10 ,Fn3
 .byte   W12
 .byte   N05 ,Dn3
 .byte   W06
 .byte   Ds3
 .byte   W06
 .byte   N10 ,Fn3
 .byte   W12
 .byte   N05 ,Ds3
 .byte   W06
 .byte   Fn3
 .byte   W06
 .byte   Gn3
 .byte   W12
@ 159   ----------------------------------------
 .byte   Fn3
 .byte   W06
 .byte   Gn3
 .byte   W06
 .byte   Gs3
 .byte   W12
 .byte   Gn3
 .byte   W06
 .byte   Gs3
 .byte   W06
 .byte   As3
 .byte   W06
 .byte   Cn4
 .byte   W06
 .byte   Dn4
 .byte   W06
 .byte   Ds4
 .byte   W06
 .byte   Fn4
 .byte   W06
 .byte   Gn4
 .byte   W06
 .byte   Fn4
 .byte   W06
 .byte   Ds4
 .byte   W06
 .byte   Fn4
 .byte   W06
 .byte   Ds4
 .byte   W06
@ 160   ----------------------------------------
 .byte   Dn4
 .byte   W06
 .byte   Cn4
 .byte   W06
 .byte   As3
 .byte   W06
 .byte   Cn4
 .byte   W06
 .byte   Dn4
 .byte   W06
 .byte   Cn4
 .byte   W06
 .byte   N11 ,Dn4
 .byte   W12
 .byte   N05 ,Gn4
 .byte   W06
 .byte   Fn4
 .byte   W06
 .byte   N11 ,Gn4
 .byte   W12
 .byte   N05 ,As4
 .byte   W06
 .byte   Gs4
 .byte   W06
 .byte   Gn4
 .byte   W06
 .byte   Fn4
 .byte   W06
@ 161   ----------------------------------------
 .byte   Gn4
 .byte   W06
 .byte   Fn4
 .byte   W06
 .byte   Ds4
 .byte   W06
 .byte   Dn4
 .byte   W06
 .byte   Fn4
 .byte   W06
 .byte   Ds4
 .byte   W06
 .byte   Dn4
 .byte   W06
 .byte   Cn4
 .byte   W06
 .byte   Dn4
 .byte   W06
 .byte   Cn4
 .byte   W06
 .byte   As3
 .byte   W06
 .byte   Gs3
 .byte   W06
 .byte   Cn4
 .byte   W06
 .byte   As3
 .byte   W06
 .byte   Gs3
 .byte   W06
 .byte   Gn3
 .byte   W06
@ 162   ----------------------------------------
 .byte   N05
 .byte   W06
 .byte   Gs3
 .byte   W06
 .byte   As3
 .byte   W06
 .byte   Cn4
 .byte   W06
 .byte   Ds4
 .byte   W06
 .byte   Cn4
 .byte   W06
 .byte   As3
 .byte   W06
 .byte   Gn3
 .byte   W06
 .byte   N32 ,Gs3
 .byte   W36
 .byte   N05 ,Cn3
 .byte   W06
 .byte   Cs3
 .byte   W06
@ 163   ----------------------------------------
 .byte   N11 ,Ds3
 .byte   W12
 .byte   Fn3
 .byte   W12
 .byte   Gn3
 .byte   W12
 .byte   Fn3
 .byte   W12
 .byte   N11
 .byte   W12
 .byte   Ds3
 .byte   W12
 .byte   N32 ,Fn3
 .byte   W24
@ 164   ----------------------------------------
 .byte   W12
 .byte   N11
 .byte   W12
 .byte   Gs3
 .byte   W12
 .byte   As3
 .byte   W12
 .byte   Gs3
 .byte   W12
 .byte   Gn3
 .byte   W12
 .byte   N32 ,Fn3
 .byte   W24
@ 165   ----------------------------------------
 .byte   W12
 .byte   N11 ,Cs3
 .byte   W12
 .byte   Fn3
 .byte   W12
 .byte   N23 ,Gs2
 .byte   W24
 .byte   N32 ,Gs3
 .byte   W36
@ 166   ----------------------------------------
 .byte   W12
 .byte   N11 ,As3
 .byte   W12
 .byte   Cn4
 .byte   W12
 .byte   Ds4
 .byte   W12
 .byte   N05 ,As3 ,v080
 .byte   W06
 .byte   N05
 .byte   W06
 .byte   N05
 .byte   W06
 .byte   Gs3
 .byte   W06
 .byte   As3
 .byte   W06
 .byte   N05
 .byte   W06
 .byte   N05
 .byte   W06
 .byte   Gs3
 .byte   W06
@ 167   ----------------------------------------
 .byte   N23 ,Gn3
 .byte   W36
 .byte   N05 ,Fn3
 .byte   W06
 .byte   Gn3
 .byte   W06
 .byte   As3
 .byte   W06
 .byte   N05
 .byte   W06
 .byte   N05
 .byte   W06
 .byte   Gs3
 .byte   W06
 .byte   Gn3
 .byte   W06
 .byte   N05
 .byte   W06
 .byte   N05
 .byte   W06
 .byte   Fn3
 .byte   W06
@ 168   ----------------------------------------
 .byte   As3
 .byte   W06
 .byte   Cn4
 .byte   W06
 .byte   As3
 .byte   W06
 .byte   Gs3
 .byte   W06
 .byte   N17 ,Gn3
 .byte   W24
 .byte   N32
 .byte   W36
 .byte   N11 ,Gs3
 .byte   W12
@ 169   ----------------------------------------
 .byte   Cn4
 .byte   W12
 .byte   As3
 .byte   W12
 .byte   Gs3
 .byte   W12
 .byte   Gn3
 .byte   W12
 .byte   Gs3
 .byte   W12
 .byte   Gn3
 .byte   W12
 .byte   Fn3
 .byte   W12
 .byte   Gn3
 .byte   W12
@ 170   ----------------------------------------
 .byte   N40 ,Gs3
 .byte   W48
 .byte   N23 ,Fn4 ,v072
 .byte   W24
 .byte   N05 ,Cn4
 .byte   W12
 .byte   N23 ,Gs3
 .byte   W12
@ 171   ----------------------------------------
 .byte   PATT
  .word Label_11_014B3615
@ 172   ----------------------------------------
 .byte   PATT
  .word Label_11_014B3620
@ 173   ----------------------------------------
 .byte   W12
 .byte   N11 ,Gn3 ,v072
 .byte   W12
 .byte   Gs3
 .byte   W12
 .byte   N23 ,Cn3
 .byte   W24
 .byte   N11 ,Gs3 ,v076
 .byte   N11 ,Cn4
 .byte   W12
 .byte   As3 ,v092
 .byte   N11 ,Cs4
 .byte   W12
 .byte   Gs3
 .byte   N11 ,Cn4
 .byte   W12
@ 174   ----------------------------------------
 .byte   Gn3 ,v084
 .byte   N11 ,As3
 .byte   W12
 .byte   Fn3 ,v080
 .byte   N11 ,Gs3
 .byte   W12
 .byte   Ds3 ,v072
 .byte   N11 ,Gn3
 .byte   W12
 .byte   Cs3 ,v064
 .byte   N11 ,Fn3
 .byte   W12
 .byte   N32 ,Fn3 ,v072
 .byte   N32 ,Gs3
 .byte   W36
 .byte   N05 ,Ds3
 .byte   N05 ,Gn3
 .byte   W12
@ 175   ----------------------------------------
 .byte   PATT
  .word Label_11_014B3668
@ 176   ----------------------------------------
 .byte   PATT
  .word Label_11_014B3686
@ 177   ----------------------------------------
 .byte   N11 ,Cn3 ,v084
 .byte   N11 ,Fn3
 .byte   W12
 .byte   Ds3 ,v092
 .byte   N11 ,Gn3
 .byte   W12
 .byte   Fn3 ,v088
 .byte   N11 ,Gs3
 .byte   W12
 .byte   Gn3
 .byte   N11 ,As3
 .byte   W12
 .byte   N44 ,Fn3 ,v076
 .byte   N44 ,Gs3
 .byte   W48
@ 178   ----------------------------------------
 .byte   PATT
  .word Label_11_014B36B2
@ 179   ----------------------------------------
 .byte   PATT
  .word Label_11_014B3615
@ 180   ----------------------------------------
 .byte   PATT
  .word Label_11_014B36C7
@ 181   ----------------------------------------
 .byte   PATT
  .word Label_11_014B36DA
@ 182   ----------------------------------------
 .byte   W12
 .byte   N11 ,Gs3 ,v072
 .byte   W12
 .byte   Cn4
 .byte   W12
 .byte   Ds4
 .byte   W12
 .byte   N32 ,Fn4
 .byte   W36
 .byte   N05 ,As3
 .byte   N05 ,Ds4
 .byte   W12
@ 183   ----------------------------------------
 .byte   N32 ,As3
 .byte   N32 ,Ds4
 .byte   W36
 .byte   N05 ,Gs3
 .byte   N05 ,Cn4
 .byte   W06
 .byte   As3
 .byte   N05 ,Ds4
 .byte   W06
 .byte   N17 ,Cn4
 .byte   N17 ,Fn4
 .byte   W18
 .byte   Cs4
 .byte   N17 ,Gn4
 .byte   W18
 .byte   N05 ,Cn4
 .byte   N05 ,Fn4
 .byte   W12
@ 184   ----------------------------------------
 .byte   N23 ,As3
 .byte   N23 ,Ds4
 .byte   W24
 .byte   Gn3
 .byte   N23 ,Cn4
 .byte   W24
 .byte   N32 ,Gn3
 .byte   N32 ,As3
 .byte   W36
 .byte   N11 ,Gs3
 .byte   N11 ,Cn4
 .byte   W12
@ 185   ----------------------------------------
 .byte   TIE ,Fn3
 .byte   TIE ,Gs3
 .byte   W84
 .byte   W01
 .byte   VOL , 33*songC6_mvl/mxv
 .byte   W08
 .byte   VOL , 33*songC6_mvl/mxv
 .byte   W03
@ 186   ----------------------------------------
 .byte   VOL , 33*songC6_mvl/mxv
 .byte   W03
 .byte   VOL , 32*songC6_mvl/mxv
 .byte   W04
 .byte   VOL , 32*songC6_mvl/mxv
 .byte   W03
 .byte   VOL , 31*songC6_mvl/mxv
 .byte   W03
 .byte   VOL , 30*songC6_mvl/mxv
 .byte   W03
 .byte   VOL , 30*songC6_mvl/mxv
 .byte   W02
 .byte   VOL , 29*songC6_mvl/mxv
 .byte   W01
 .byte   VOL , 28*songC6_mvl/mxv
 .byte   W03
 .byte   VOL , 28*songC6_mvl/mxv
 .byte   W03
 .byte   VOL , 27*songC6_mvl/mxv
 .byte   W02
 .byte   VOL , 27*songC6_mvl/mxv
 .byte   W01
 .byte   VOL , 26*songC6_mvl/mxv
 .byte   W02
 .byte   VOL , 26*songC6_mvl/mxv
 .byte   W01
 .byte   VOL , 25*songC6_mvl/mxv
 .byte   W03
 .byte   VOL , 24*songC6_mvl/mxv
 .byte   W02
 .byte   VOL , 23*songC6_mvl/mxv
 .byte   W01
 .byte   VOL , 23*songC6_mvl/mxv
 .byte   W02
 .byte   VOL , 22*songC6_mvl/mxv
 .byte   W01
 .byte   VOL , 20*songC6_mvl/mxv
 .byte   W02
 .byte   VOL , 20*songC6_mvl/mxv
 .byte   W01
 .byte   VOL , 18*songC6_mvl/mxv
 .byte   W02
 .byte   VOL , 17*songC6_mvl/mxv
 .byte   W01
 .byte   VOL , 12*songC6_mvl/mxv
 .byte   W01
 .byte   EOT
 .byte   Fn3 ,v068
 .byte   W01
 .byte   VOL , 10*songC6_mvl/mxv
 .byte   W01
 .byte   VOL , 4*songC6_mvl/mxv
 .byte   W02
 .byte   VOL , 0*songC6_mvl/mxv
 .byte   W01
 .byte   VOL , 0*songC6_mvl/mxv
 .byte   W44
@ 187   ----------------------------------------
 .byte   W96
@ 188   ----------------------------------------
 .byte   W96
@ 189   ----------------------------------------
 .byte   W96
@ 190   ----------------------------------------
 .byte   W96
@ 191   ----------------------------------------
 .byte   W96
@ 192   ----------------------------------------
 .byte   W96
@ 193   ----------------------------------------
 .byte   W96
@ 194   ----------------------------------------
 .byte   W96
@ 195   ----------------------------------------
 .byte   W96
@ 196   ----------------------------------------
 .byte   W96
@ 197   ----------------------------------------
 .byte   W96
@ 198   ----------------------------------------
 .byte   W96
@ 199   ----------------------------------------
 .byte   W96
@ 200   ----------------------------------------
 .byte   W96
@ 201   ----------------------------------------
 .byte   W96
@ 202   ----------------------------------------
 .byte   W96
@ 203   ----------------------------------------
 .byte   W96
@ 204   ----------------------------------------
 .byte   W48
 .byte   GOTO
  .word Label_11_014B2EE2
 .byte   FINE

@******************************************************@
	.align	2

songC6:
	.byte	12	@ NumTrks
	.byte	0	@ NumBlks
	.byte	songC6_pri	@ Priority
	.byte	songC6_rev	@ Reverb.
    
	.word	songC6_grp
    
	.word	songC6_001
	.word	songC6_002
	.word	songC6_003
	.word	songC6_004
	.word	songC6_005
	.word	songC6_006
	.word	songC6_007
	.word	songC6_008
	.word	songC6_009
	.word	songC6_010
	.word	songC6_011
	.word	songC6_012

	.end
