	.include "MPlayDef.s"

	.equ	songC6_grp, voicegroup000
	.equ	songC6_pri, 0
	.equ	songC6_rev, 0
	.equ	songC6_mvl, 127
	.equ	songC6_key, 0
	.equ	songC6_tbs, 1
	.equ	songC6_exg, 0
	.equ	songC6_cmp, 1

	.section .rodata
	.global	songC6
	.align	2


@**************** Track 1 (Midi-Chn.0) ****************@

songC6_001:
@ 000   ----------------------------------------
 .byte   KEYSH , songC6_key+0
Label_0_01476BE2:
 .byte   TEMPO , 140*songC6_tbs/2
 .byte   VOICE , 49
 .byte   VOL , 24*songC6_mvl/mxv
 .byte   PAN , c_v+0
 .byte   VOL , 0*songC6_mvl/mxv
 .byte   BEND , c_v+0
 .byte   TIE ,Cs1 ,v096
 .byte   TIE ,Gs1
 .byte   TIE ,Cs2
 .byte   W06
 .byte   VOL , 0*songC6_mvl/mxv
 .byte   W06
 .byte   VOL , 0*songC6_mvl/mxv
 .byte   W06
 .byte   VOL , 0*songC6_mvl/mxv
 .byte   W06
 .byte   VOL , 3*songC6_mvl/mxv
 .byte   W06
 .byte   VOL , 7*songC6_mvl/mxv
 .byte   W06
 .byte   VOL , 11*songC6_mvl/mxv
 .byte   W06
 .byte   VOL , 15*songC6_mvl/mxv
 .byte   W06
 .byte   VOL , 19*songC6_mvl/mxv
 .byte   W06
 .byte   VOL , 23*songC6_mvl/mxv
 .byte   W06
 .byte   VOL , 27*songC6_mvl/mxv
 .byte   W06
 .byte   VOL , 31*songC6_mvl/mxv
 .byte   W06
 .byte   VOL , 35*songC6_mvl/mxv
 .byte   W24
@ 001   ----------------------------------------
 .byte   W96
@ 002   ----------------------------------------
 .byte   EOT
 .byte   Cs1 ,v044
 .byte   Cs2
 .byte   W96
@ 003   ----------------------------------------
 .byte   W96
@ 004   ----------------------------------------
 .byte   W96
@ 005   ----------------------------------------
 .byte   W96
@ 006   ----------------------------------------
 .byte   W96
@ 007   ----------------------------------------
 .byte   W96
@ 008   ----------------------------------------
 .byte   W96
@ 009   ----------------------------------------
 .byte   W96
@ 010   ----------------------------------------
 .byte   W96
@ 011   ----------------------------------------
 .byte   W96
@ 012   ----------------------------------------
 .byte   W96
@ 013   ----------------------------------------
 .byte   W96
@ 014   ----------------------------------------
 .byte   W96
@ 015   ----------------------------------------
 .byte   W96
@ 016   ----------------------------------------
 .byte   W96
@ 017   ----------------------------------------
 .byte   W96
@ 018   ----------------------------------------
 .byte   W96
@ 019   ----------------------------------------
 .byte   W96
@ 020   ----------------------------------------
 .byte   W96
@ 021   ----------------------------------------
 .byte   W96
@ 022   ----------------------------------------
 .byte   W96
@ 023   ----------------------------------------
 .byte   W96
@ 024   ----------------------------------------
 .byte   W96
@ 025   ----------------------------------------
 .byte   W96
@ 026   ----------------------------------------
 .byte   W96
@ 027   ----------------------------------------
 .byte   W96
@ 028   ----------------------------------------
 .byte   W96
@ 029   ----------------------------------------
 .byte   W96
@ 030   ----------------------------------------
 .byte   W96
@ 031   ----------------------------------------
 .byte   W96
@ 032   ----------------------------------------
 .byte   W96
@ 033   ----------------------------------------
 .byte   W96
@ 034   ----------------------------------------
 .byte   W96
@ 035   ----------------------------------------
 .byte   W96
@ 036   ----------------------------------------
 .byte   W96
@ 037   ----------------------------------------
 .byte   W96
@ 038   ----------------------------------------
 .byte   W96
@ 039   ----------------------------------------
 .byte   W96
@ 040   ----------------------------------------
 .byte   W96
@ 041   ----------------------------------------
 .byte   W96
@ 042   ----------------------------------------
 .byte   W96
@ 043   ----------------------------------------
 .byte   W96
@ 044   ----------------------------------------
 .byte   W96
@ 045   ----------------------------------------
 .byte   W96
@ 046   ----------------------------------------
 .byte   W96
@ 047   ----------------------------------------
 .byte   W96
@ 048   ----------------------------------------
 .byte   W96
@ 049   ----------------------------------------
 .byte   W96
@ 050   ----------------------------------------
 .byte   W96
@ 051   ----------------------------------------
 .byte   W96
@ 052   ----------------------------------------
 .byte   W96
@ 053   ----------------------------------------
 .byte   W96
@ 054   ----------------------------------------
 .byte   W96
@ 055   ----------------------------------------
 .byte   W96
@ 056   ----------------------------------------
 .byte   W96
@ 057   ----------------------------------------
 .byte   W96
@ 058   ----------------------------------------
 .byte   W96
@ 059   ----------------------------------------
 .byte   W96
@ 060   ----------------------------------------
 .byte   W96
@ 061   ----------------------------------------
 .byte   W96
@ 062   ----------------------------------------
 .byte   W96
@ 063   ----------------------------------------
 .byte   W96
@ 064   ----------------------------------------
 .byte   W96
@ 065   ----------------------------------------
 .byte   W96
@ 066   ----------------------------------------
 .byte   W96
@ 067   ----------------------------------------
 .byte   W96
@ 068   ----------------------------------------
 .byte   GOTO
  .word Label_0_01476BE2
 .byte   FINE

@**************** Track 2 (Midi-Chn.1) ****************@

songC6_002:
@ 000   ----------------------------------------
 .byte   KEYSH , songC6_key+0
Label_1_01476C5E:
 .byte   VOICE , 30
 .byte   VOL , 28*songC6_mvl/mxv
 .byte   PAN , c_v+0
 .byte   BEND , c_v+0
 .byte   TIE ,Fs1 ,v096
 .byte   W96
@ 001   ----------------------------------------
 .byte   W96
@ 002   ----------------------------------------
 .byte   EOT
 .byte   N96 ,Fs2 ,v127
 .byte   W96
@ 003   ----------------------------------------
 .byte   W96
@ 004   ----------------------------------------
 .byte   N96
 .byte   W96
@ 005   ----------------------------------------
 .byte   W96
@ 006   ----------------------------------------
 .byte   N96
 .byte   W96
@ 007   ----------------------------------------
 .byte   W96
@ 008   ----------------------------------------
 .byte   Fs2 ,v096
 .byte   W96
@ 009   ----------------------------------------
 .byte   W90
 .byte   BEND , c_v-16
 .byte   TIE ,Cs3
 .byte   W02
 .byte   BEND , c_v-11
 .byte   W02
 .byte   BEND , c_v-5
 .byte   W02
@ 010   ----------------------------------------
 .byte   BEND , c_v+0
 .byte   W96
@ 011   ----------------------------------------
 .byte   EOT
 .byte   W96
@ 012   ----------------------------------------
 .byte   W96
@ 013   ----------------------------------------
 .byte   W96
@ 014   ----------------------------------------
 .byte   W96
@ 015   ----------------------------------------
 .byte   W96
@ 016   ----------------------------------------
 .byte   W96
@ 017   ----------------------------------------
 .byte   W90
 .byte   BEND , c_v-16
 .byte   N48 ,Cs3 ,v112
 .byte   W02
 .byte   BEND , c_v-11
 .byte   W02
 .byte   BEND , c_v-5
 .byte   W02
@ 018   ----------------------------------------
 .byte   BEND , c_v+0
 .byte   N48 ,Fs3 ,v096
 .byte   W42
 .byte   BEND , c_v-16
 .byte   N48 ,Cs3 ,v112
 .byte   W02
 .byte   BEND , c_v-11
 .byte   W02
 .byte   BEND , c_v-5
 .byte   W02
 .byte   BEND , c_v+0
 .byte   N48 ,Fs3 ,v096
 .byte   W42
 .byte   BEND , c_v-16
 .byte   N06 ,Cs3 ,v112
 .byte   W02
 .byte   BEND , c_v-11
 .byte   W02
 .byte   BEND , c_v-5
 .byte   W02
@ 019   ----------------------------------------
 .byte   BEND , c_v+0
 .byte   N48 ,Fs3 ,v096
 .byte   W96
@ 020   ----------------------------------------
 .byte   W96
@ 021   ----------------------------------------
 .byte   W96
@ 022   ----------------------------------------
 .byte   N06 ,En3 ,v112
 .byte   W06
 .byte   Gs3
 .byte   W06
 .byte   N48 ,Bn3
 .byte   W84
@ 023   ----------------------------------------
 .byte   N06 ,En3 ,v096
 .byte   W06
 .byte   Gs3
 .byte   W06
 .byte   N36 ,An3
 .byte   W36
 .byte   N06 ,Cs3
 .byte   W06
 .byte   Fn3
 .byte   W06
 .byte   N36 ,Gs3
 .byte   W36
@ 024   ----------------------------------------
 .byte   N06 ,Fs2
 .byte   W06
 .byte   Cs3
 .byte   W06
 .byte   N24 ,Fs3
 .byte   W36
 .byte   N48
 .byte   W48
@ 025   ----------------------------------------
 .byte   W96
@ 026   ----------------------------------------
 .byte   W96
@ 027   ----------------------------------------
 .byte   W96
@ 028   ----------------------------------------
 .byte   W96
@ 029   ----------------------------------------
 .byte   W96
@ 030   ----------------------------------------
 .byte   W96
@ 031   ----------------------------------------
 .byte   W96
@ 032   ----------------------------------------
 .byte   W96
@ 033   ----------------------------------------
 .byte   W96
@ 034   ----------------------------------------
 .byte   W96
@ 035   ----------------------------------------
 .byte   W96
@ 036   ----------------------------------------
 .byte   W96
@ 037   ----------------------------------------
 .byte   W96
@ 038   ----------------------------------------
 .byte   W96
@ 039   ----------------------------------------
 .byte   W96
@ 040   ----------------------------------------
 .byte   W96
@ 041   ----------------------------------------
 .byte   W96
@ 042   ----------------------------------------
 .byte   W96
@ 043   ----------------------------------------
 .byte   W96
@ 044   ----------------------------------------
 .byte   W96
@ 045   ----------------------------------------
 .byte   W96
@ 046   ----------------------------------------
 .byte   W96
@ 047   ----------------------------------------
 .byte   W96
@ 048   ----------------------------------------
 .byte   W96
@ 049   ----------------------------------------
 .byte   W96
@ 050   ----------------------------------------
 .byte   W96
@ 051   ----------------------------------------
 .byte   W96
@ 052   ----------------------------------------
 .byte   W96
@ 053   ----------------------------------------
 .byte   W96
@ 054   ----------------------------------------
 .byte   W96
@ 055   ----------------------------------------
 .byte   W96
@ 056   ----------------------------------------
 .byte   W96
@ 057   ----------------------------------------
 .byte   W96
@ 058   ----------------------------------------
 .byte   W96
@ 059   ----------------------------------------
 .byte   W96
@ 060   ----------------------------------------
 .byte   W96
@ 061   ----------------------------------------
 .byte   W96
@ 062   ----------------------------------------
 .byte   W96
@ 063   ----------------------------------------
 .byte   W96
@ 064   ----------------------------------------
 .byte   W96
@ 065   ----------------------------------------
 .byte   W96
@ 066   ----------------------------------------
 .byte   N96 ,En1
 .byte   W96
@ 067   ----------------------------------------
 .byte   N96
 .byte   W96
@ 068   ----------------------------------------
 .byte   GOTO
  .word Label_1_01476C5E
 .byte   FINE

@**************** Track 3 (Midi-Chn.2) ****************@

songC6_003:
@ 000   ----------------------------------------
 .byte   KEYSH , songC6_key+0
Label_2_01476D1B:
 .byte   VOICE , 61
 .byte   VOL , 33*songC6_mvl/mxv
 .byte   PAN , c_v+0
 .byte   BEND , c_v+0
 .byte   W96
@ 001   ----------------------------------------
 .byte   W96
@ 002   ----------------------------------------
Label_2_01476D25:
 .byte   N09 ,Fs3 ,v096
 .byte   N09 ,Cs4
 .byte   N09 ,Fs4
 .byte   W12
 .byte   Fs3
 .byte   N09 ,Cs4
 .byte   N09 ,Fs4
 .byte   W12
 .byte   Fs3
 .byte   N09 ,Cs4
 .byte   N09 ,Fs4
 .byte   W12
 .byte   En3
 .byte   N09 ,Gs3
 .byte   N09 ,Cs4
 .byte   N09 ,En4
 .byte   W12
 .byte   En3
 .byte   N09 ,Gs3
 .byte   N09 ,Cs4
 .byte   N09 ,En4
 .byte   W12
 .byte   En3
 .byte   N09 ,Gs3
 .byte   N09 ,Cs4
 .byte   N09 ,En4
 .byte   W12
 .byte   En3
 .byte   N09 ,Gs3
 .byte   N09 ,Cs4
 .byte   N09 ,En4
 .byte   W12
 .byte   Ds3
 .byte   N09 ,Bn3
 .byte   N09 ,Ds4
 .byte   W12
 .byte   PEND 
@ 003   ----------------------------------------
Label_2_01476D60:
 .byte   N09 ,Ds3 ,v096
 .byte   N09 ,Bn3
 .byte   N09 ,Ds4
 .byte   W12
 .byte   Ds3
 .byte   N09 ,Bn3
 .byte   N09 ,Ds4
 .byte   W12
 .byte   Ds3
 .byte   N09 ,Bn3
 .byte   N09 ,Ds4
 .byte   W12
 .byte   En3
 .byte   N09 ,Gs3
 .byte   N09 ,Cs4
 .byte   N09 ,En4
 .byte   W12
 .byte   En3
 .byte   N09 ,Gs3
 .byte   N09 ,Cs4
 .byte   N09 ,En4
 .byte   W12
 .byte   En3
 .byte   N09 ,Gs3
 .byte   N09 ,Cs4
 .byte   N09 ,En4
 .byte   W12
 .byte   En3
 .byte   N09 ,Gs3
 .byte   N09 ,Cs4
 .byte   N09 ,En4
 .byte   W12
 .byte   Fs3
 .byte   N09 ,Cs4
 .byte   N09 ,Fs4
 .byte   W12
 .byte   PEND 
@ 004   ----------------------------------------
 .byte   PATT
  .word Label_2_01476D25
@ 005   ----------------------------------------
 .byte   PATT
  .word Label_2_01476D60
@ 006   ----------------------------------------
 .byte   PATT
  .word Label_2_01476D25
@ 007   ----------------------------------------
 .byte   PATT
  .word Label_2_01476D60
@ 008   ----------------------------------------
 .byte   PATT
  .word Label_2_01476D25
@ 009   ----------------------------------------
 .byte   W96
@ 010   ----------------------------------------
 .byte   W96
@ 011   ----------------------------------------
 .byte   W96
@ 012   ----------------------------------------
 .byte   W96
@ 013   ----------------------------------------
 .byte   W96
@ 014   ----------------------------------------
 .byte   W96
@ 015   ----------------------------------------
 .byte   W96
@ 016   ----------------------------------------
 .byte   W96
@ 017   ----------------------------------------
 .byte   W96
@ 018   ----------------------------------------
 .byte   W96
@ 019   ----------------------------------------
 .byte   W96
@ 020   ----------------------------------------
 .byte   W96
@ 021   ----------------------------------------
 .byte   W96
@ 022   ----------------------------------------
 .byte   W96
@ 023   ----------------------------------------
 .byte   W96
@ 024   ----------------------------------------
 .byte   W96
@ 025   ----------------------------------------
 .byte   W96
@ 026   ----------------------------------------
 .byte   W96
@ 027   ----------------------------------------
 .byte   W96
@ 028   ----------------------------------------
 .byte   W96
@ 029   ----------------------------------------
 .byte   W96
@ 030   ----------------------------------------
 .byte   W96
@ 031   ----------------------------------------
 .byte   W96
@ 032   ----------------------------------------
 .byte   W96
@ 033   ----------------------------------------
 .byte   W96
@ 034   ----------------------------------------
 .byte   W96
@ 035   ----------------------------------------
 .byte   W96
@ 036   ----------------------------------------
 .byte   W96
@ 037   ----------------------------------------
 .byte   W96
@ 038   ----------------------------------------
 .byte   W96
@ 039   ----------------------------------------
 .byte   W96
@ 040   ----------------------------------------
 .byte   W96
@ 041   ----------------------------------------
 .byte   W96
@ 042   ----------------------------------------
 .byte   W96
@ 043   ----------------------------------------
 .byte   W96
@ 044   ----------------------------------------
 .byte   W96
@ 045   ----------------------------------------
 .byte   W96
@ 046   ----------------------------------------
 .byte   W96
@ 047   ----------------------------------------
 .byte   W96
@ 048   ----------------------------------------
 .byte   W96
@ 049   ----------------------------------------
 .byte   W96
@ 050   ----------------------------------------
 .byte   W96
@ 051   ----------------------------------------
 .byte   W96
@ 052   ----------------------------------------
 .byte   W96
@ 053   ----------------------------------------
 .byte   W96
@ 054   ----------------------------------------
 .byte   W96
@ 055   ----------------------------------------
 .byte   W96
@ 056   ----------------------------------------
 .byte   W96
@ 057   ----------------------------------------
 .byte   W96
@ 058   ----------------------------------------
 .byte   W96
@ 059   ----------------------------------------
 .byte   W96
@ 060   ----------------------------------------
 .byte   W96
@ 061   ----------------------------------------
 .byte   W96
@ 062   ----------------------------------------
 .byte   W96
@ 063   ----------------------------------------
 .byte   W96
@ 064   ----------------------------------------
 .byte   W96
@ 065   ----------------------------------------
 .byte   W96
@ 066   ----------------------------------------
 .byte   W96
@ 067   ----------------------------------------
 .byte   W96
@ 068   ----------------------------------------
 .byte   GOTO
  .word Label_2_01476D1B
 .byte   FINE

@**************** Track 4 (Midi-Chn.3) ****************@

songC6_004:
@ 000   ----------------------------------------
 .byte   KEYSH , songC6_key+0
Label_3_01476DF7:
 .byte   VOICE , 80
 .byte   VOL , 24*songC6_mvl/mxv
 .byte   PAN , c_v-24
 .byte   BEND , c_v+0
 .byte   W96
@ 001   ----------------------------------------
 .byte   W96
@ 002   ----------------------------------------
Label_3_01476E01:
 .byte   N06 ,Gs3 ,v096
 .byte   W06
 .byte   Cs4
 .byte   W06
 .byte   En4
 .byte   W06
 .byte   Cs4
 .byte   W06
 .byte   Gs3
 .byte   W06
 .byte   Cs4
 .byte   W06
 .byte   En4
 .byte   W06
 .byte   Cs4
 .byte   W06
 .byte   Gs3
 .byte   W06
 .byte   Cs4
 .byte   W06
 .byte   En4
 .byte   W06
 .byte   Cs4
 .byte   W06
 .byte   Gs3
 .byte   W06
 .byte   Cs4
 .byte   W06
 .byte   En4
 .byte   W06
 .byte   Cs4
 .byte   W06
 .byte   PEND 
@ 003   ----------------------------------------
Label_3_01476E24:
 .byte   N06 ,Gs3 ,v096
 .byte   W06
 .byte   Cs4
 .byte   W06
 .byte   Gs4
 .byte   W06
 .byte   En4
 .byte   W06
 .byte   Gs3
 .byte   W06
 .byte   Cs4
 .byte   W06
 .byte   Fs4
 .byte   W06
 .byte   En4
 .byte   W06
 .byte   Gs3
 .byte   W06
 .byte   Cs4
 .byte   W06
 .byte   Gs3
 .byte   W06
 .byte   Cs4
 .byte   W06
 .byte   Gs4
 .byte   W06
 .byte   En4
 .byte   W06
 .byte   Gs3
 .byte   W06
 .byte   Cs4
 .byte   W06
 .byte   PEND 
@ 004   ----------------------------------------
 .byte   PATT
  .word Label_3_01476E01
@ 005   ----------------------------------------
 .byte   PATT
  .word Label_3_01476E24
@ 006   ----------------------------------------
 .byte   PATT
  .word Label_3_01476E01
@ 007   ----------------------------------------
 .byte   PATT
  .word Label_3_01476E24
@ 008   ----------------------------------------
 .byte   PATT
  .word Label_3_01476E01
@ 009   ----------------------------------------
 .byte   PATT
  .word Label_3_01476E24
@ 010   ----------------------------------------
 .byte   W96
@ 011   ----------------------------------------
 .byte   W96
@ 012   ----------------------------------------
 .byte   W96
@ 013   ----------------------------------------
 .byte   W96
@ 014   ----------------------------------------
 .byte   W96
@ 015   ----------------------------------------
 .byte   W96
@ 016   ----------------------------------------
 .byte   W96
@ 017   ----------------------------------------
 .byte   W96
@ 018   ----------------------------------------
 .byte   W96
@ 019   ----------------------------------------
 .byte   W96
@ 020   ----------------------------------------
 .byte   W96
@ 021   ----------------------------------------
 .byte   W96
@ 022   ----------------------------------------
 .byte   W96
@ 023   ----------------------------------------
 .byte   W96
@ 024   ----------------------------------------
 .byte   W96
@ 025   ----------------------------------------
 .byte   W60
 .byte   VOICE , 91
 .byte   N12 ,Ds4 ,v080
 .byte   W12
 .byte   En4
 .byte   W12
 .byte   Gs4
 .byte   W12
@ 026   ----------------------------------------
 .byte   N60 ,Bn4
 .byte   W60
 .byte   N12 ,Cs5
 .byte   W12
 .byte   Bn4
 .byte   W12
 .byte   En4
 .byte   W12
@ 027   ----------------------------------------
 .byte   N48 ,Gs4
 .byte   W48
 .byte   N12
 .byte   W12
 .byte   Fs4
 .byte   W12
 .byte   N24 ,En4
 .byte   W24
@ 028   ----------------------------------------
 .byte   N60 ,Fs4
 .byte   W60
 .byte   N12 ,Bn4 ,v096
 .byte   W12
 .byte   Fs4
 .byte   W12
 .byte   Ds4
 .byte   W12
@ 029   ----------------------------------------
 .byte   N48 ,En4 ,v080
 .byte   W48
 .byte   N12 ,Cs4 ,v096
 .byte   W12
 .byte   Ds4
 .byte   W12
 .byte   En4
 .byte   W12
 .byte   Gs4
 .byte   W12
@ 030   ----------------------------------------
 .byte   N48 ,Cs5 ,v080
 .byte   W96
@ 031   ----------------------------------------
 .byte   Ds5 ,v096
 .byte   W48
 .byte   N24 ,As4
 .byte   W24
 .byte   Cs5 ,v080
 .byte   W24
@ 032   ----------------------------------------
 .byte   N60 ,Cs5 ,v096
 .byte   W60
 .byte   N12 ,Cn5
 .byte   W12
 .byte   Cs5 ,v080
 .byte   W12
 .byte   TIE ,Ds5
 .byte   W12
@ 033   ----------------------------------------
 .byte   W96
@ 034   ----------------------------------------
 .byte   EOT
 .byte   VOICE , 80
 .byte   W96
@ 035   ----------------------------------------
 .byte   W96
@ 036   ----------------------------------------
 .byte   W96
@ 037   ----------------------------------------
 .byte   W96
@ 038   ----------------------------------------
 .byte   W96
@ 039   ----------------------------------------
 .byte   W96
@ 040   ----------------------------------------
 .byte   W96
@ 041   ----------------------------------------
 .byte   W96
@ 042   ----------------------------------------
 .byte   W96
@ 043   ----------------------------------------
 .byte   W96
@ 044   ----------------------------------------
 .byte   W96
@ 045   ----------------------------------------
 .byte   W96
@ 046   ----------------------------------------
 .byte   W96
@ 047   ----------------------------------------
 .byte   W96
@ 048   ----------------------------------------
 .byte   W96
@ 049   ----------------------------------------
 .byte   W96
@ 050   ----------------------------------------
 .byte   W96
@ 051   ----------------------------------------
 .byte   W96
@ 052   ----------------------------------------
 .byte   W96
@ 053   ----------------------------------------
 .byte   W96
@ 054   ----------------------------------------
 .byte   W96
@ 055   ----------------------------------------
 .byte   W96
@ 056   ----------------------------------------
 .byte   W96
@ 057   ----------------------------------------
 .byte   W96
@ 058   ----------------------------------------
 .byte   W96
@ 059   ----------------------------------------
 .byte   W96
@ 060   ----------------------------------------
 .byte   W96
@ 061   ----------------------------------------
 .byte   W96
@ 062   ----------------------------------------
 .byte   W96
@ 063   ----------------------------------------
 .byte   W96
@ 064   ----------------------------------------
 .byte   W96
@ 065   ----------------------------------------
 .byte   W96
@ 066   ----------------------------------------
 .byte   W96
@ 067   ----------------------------------------
 .byte   W96
@ 068   ----------------------------------------
 .byte   GOTO
  .word Label_3_01476DF7
 .byte   FINE

@**************** Track 5 (Midi-Chn.4) ****************@

songC6_005:
@ 000   ----------------------------------------
 .byte   KEYSH , songC6_key+0
Label_4_01476EF4:
 .byte   VOICE , 80
 .byte   VOL , 24*songC6_mvl/mxv
 .byte   PAN , c_v-24
 .byte   BEND , c_v+0
 .byte   W96
@ 001   ----------------------------------------
 .byte   W96
@ 002   ----------------------------------------
Label_4_01476EFE:
 .byte   W06
 .byte   N06 ,Gs3 ,v080
 .byte   W06
 .byte   Cs4
 .byte   W06
 .byte   En4
 .byte   W06
 .byte   Cs4
 .byte   W06
 .byte   Gs3
 .byte   W06
 .byte   Cs4
 .byte   W06
 .byte   En4
 .byte   W06
 .byte   Cs4
 .byte   W06
 .byte   Gs3
 .byte   W06
 .byte   Cs4
 .byte   W06
 .byte   En4
 .byte   W06
 .byte   Cs4
 .byte   W06
 .byte   Gs3
 .byte   W06
 .byte   Cs4
 .byte   W06
 .byte   En4
 .byte   W06
 .byte   PEND 
@ 003   ----------------------------------------
Label_4_01476F20:
 .byte   N06 ,Cs4 ,v080
 .byte   W06
 .byte   Gs3
 .byte   W06
 .byte   Cs4
 .byte   W06
 .byte   Gs4
 .byte   W06
 .byte   En4
 .byte   W06
 .byte   Gs3
 .byte   W06
 .byte   Cs4
 .byte   W06
 .byte   Fs4
 .byte   W06
 .byte   En4
 .byte   W06
 .byte   Gs3
 .byte   W06
 .byte   Cs4
 .byte   W06
 .byte   Gs3
 .byte   W06
 .byte   Cs4
 .byte   W06
 .byte   Gs4
 .byte   W06
 .byte   En4
 .byte   W06
 .byte   Gs3
 .byte   W06
 .byte   PEND 
@ 004   ----------------------------------------
 .byte   PATT
  .word Label_4_01476EFE
@ 005   ----------------------------------------
 .byte   PATT
  .word Label_4_01476F20
@ 006   ----------------------------------------
 .byte   PATT
  .word Label_4_01476EFE
@ 007   ----------------------------------------
 .byte   PATT
  .word Label_4_01476F20
@ 008   ----------------------------------------
 .byte   N06 ,Cs4 ,v080
 .byte   W06
 .byte   Gs3
 .byte   W06
 .byte   Cs4
 .byte   W06
 .byte   En4
 .byte   W06
 .byte   Cs4
 .byte   W06
 .byte   Gs3
 .byte   W06
 .byte   Cs4
 .byte   W06
 .byte   En4
 .byte   W06
 .byte   Cs4
 .byte   W06
 .byte   Gs3
 .byte   W06
 .byte   Cs4
 .byte   W06
 .byte   En4
 .byte   W06
 .byte   Cs4
 .byte   W06
 .byte   Gs3
 .byte   W06
 .byte   Cs4
 .byte   W06
 .byte   En4
 .byte   W06
@ 009   ----------------------------------------
 .byte   PATT
  .word Label_4_01476F20
@ 010   ----------------------------------------
 .byte   W96
@ 011   ----------------------------------------
 .byte   W96
@ 012   ----------------------------------------
 .byte   W96
@ 013   ----------------------------------------
 .byte   W96
@ 014   ----------------------------------------
 .byte   W96
@ 015   ----------------------------------------
 .byte   W96
@ 016   ----------------------------------------
 .byte   W96
@ 017   ----------------------------------------
 .byte   W96
@ 018   ----------------------------------------
 .byte   W96
@ 019   ----------------------------------------
 .byte   W96
@ 020   ----------------------------------------
 .byte   W96
@ 021   ----------------------------------------
 .byte   W96
@ 022   ----------------------------------------
 .byte   W96
@ 023   ----------------------------------------
 .byte   W96
@ 024   ----------------------------------------
 .byte   W96
@ 025   ----------------------------------------
 .byte   W72
 .byte   VOICE , 91
 .byte   N12 ,Ds4 ,v064
 .byte   W12
 .byte   En4
 .byte   W12
@ 026   ----------------------------------------
 .byte   Gs4
 .byte   W12
 .byte   N60 ,Bn4
 .byte   W60
 .byte   N12 ,Cs5
 .byte   W12
 .byte   Bn4
 .byte   W12
@ 027   ----------------------------------------
 .byte   En4
 .byte   W12
 .byte   N48 ,Gs4
 .byte   W48
 .byte   N12
 .byte   W12
 .byte   Fs4
 .byte   W12
 .byte   En4
 .byte   W12
@ 028   ----------------------------------------
 .byte   N12
 .byte   W12
 .byte   N60 ,Fs4
 .byte   W60
 .byte   N12 ,Bn4
 .byte   W12
 .byte   Fs4
 .byte   W12
@ 029   ----------------------------------------
 .byte   Ds4
 .byte   W12
 .byte   N48 ,En4
 .byte   W48
 .byte   N12 ,Cs4
 .byte   W12
 .byte   Ds4
 .byte   W12
 .byte   En4
 .byte   W12
@ 030   ----------------------------------------
 .byte   Gs4
 .byte   W12
 .byte   N48 ,Cs5
 .byte   W84
@ 031   ----------------------------------------
 .byte   W12
 .byte   Ds5
 .byte   W48
 .byte   N24 ,As4
 .byte   W24
 .byte   Cs5
 .byte   W12
@ 032   ----------------------------------------
 .byte   W12
 .byte   N60
 .byte   W60
 .byte   N12 ,Cn5
 .byte   W12
 .byte   Cs5
 .byte   W12
@ 033   ----------------------------------------
 .byte   TIE ,Ds5
 .byte   W96
@ 034   ----------------------------------------
 .byte   W12
 .byte   EOT
 .byte   VOICE , 80
 .byte   W84
@ 035   ----------------------------------------
 .byte   W96
@ 036   ----------------------------------------
 .byte   W96
@ 037   ----------------------------------------
 .byte   W96
@ 038   ----------------------------------------
 .byte   W96
@ 039   ----------------------------------------
 .byte   W96
@ 040   ----------------------------------------
 .byte   W96
@ 041   ----------------------------------------
 .byte   W96
@ 042   ----------------------------------------
 .byte   W96
@ 043   ----------------------------------------
 .byte   W96
@ 044   ----------------------------------------
 .byte   W96
@ 045   ----------------------------------------
 .byte   W96
@ 046   ----------------------------------------
 .byte   W96
@ 047   ----------------------------------------
 .byte   W96
@ 048   ----------------------------------------
 .byte   W96
@ 049   ----------------------------------------
 .byte   W96
@ 050   ----------------------------------------
 .byte   W96
@ 051   ----------------------------------------
 .byte   W96
@ 052   ----------------------------------------
 .byte   W96
@ 053   ----------------------------------------
 .byte   W96
@ 054   ----------------------------------------
 .byte   W96
@ 055   ----------------------------------------
 .byte   W96
@ 056   ----------------------------------------
 .byte   W96
@ 057   ----------------------------------------
 .byte   W96
@ 058   ----------------------------------------
 .byte   W96
@ 059   ----------------------------------------
 .byte   W96
@ 060   ----------------------------------------
 .byte   W96
@ 061   ----------------------------------------
 .byte   W96
@ 062   ----------------------------------------
 .byte   W96
@ 063   ----------------------------------------
 .byte   W96
@ 064   ----------------------------------------
 .byte   W96
@ 065   ----------------------------------------
 .byte   W96
@ 066   ----------------------------------------
 .byte   W96
@ 067   ----------------------------------------
 .byte   W96
@ 068   ----------------------------------------
 .byte   GOTO
  .word Label_4_01476EF4
 .byte   FINE

@**************** Track 6 (Midi-Chn.5) ****************@

songC6_006:
@ 000   ----------------------------------------
 .byte   KEYSH , songC6_key+0
Label_5_01477007:
 .byte   VOICE , 41
 .byte   VOL , 33*songC6_mvl/mxv
 .byte   PAN , c_v+16
 .byte   BEND , c_v+0
 .byte   W96
@ 001   ----------------------------------------
 .byte   W96
@ 002   ----------------------------------------
 .byte   W96
@ 003   ----------------------------------------
 .byte   W96
@ 004   ----------------------------------------
 .byte   W96
@ 005   ----------------------------------------
 .byte   W96
@ 006   ----------------------------------------
 .byte   W96
@ 007   ----------------------------------------
 .byte   W96
@ 008   ----------------------------------------
 .byte   W96
@ 009   ----------------------------------------
 .byte   N06 ,Gs4 ,v096
 .byte   W06
 .byte   Bn4
 .byte   W06
 .byte   Fs4
 .byte   W06
 .byte   Bn4
 .byte   W06
 .byte   Gs4
 .byte   W06
 .byte   Bn4
 .byte   W06
 .byte   Fs4
 .byte   W06
 .byte   Bn4
 .byte   W06
 .byte   Gs4
 .byte   W06
 .byte   Bn4
 .byte   W06
 .byte   Fs4
 .byte   W06
 .byte   Bn4
 .byte   W06
 .byte   Gs4
 .byte   W06
 .byte   Bn4
 .byte   W06
 .byte   Fs4
 .byte   W06
 .byte   Bn4
 .byte   W06
@ 010   ----------------------------------------
Label_5_0147703A:
 .byte   N28 ,Cs4 ,v096
 .byte   W36
 .byte   N06 ,Gs3
 .byte   W12
 .byte   N28 ,Ds4
 .byte   W36
 .byte   N06 ,Gs3
 .byte   W12
 .byte   PEND 
@ 011   ----------------------------------------
Label_5_01477048:
 .byte   N18 ,En4 ,v096
 .byte   W18
 .byte   Fs4
 .byte   W18
 .byte   N12 ,Gs4
 .byte   W12
 .byte   N18 ,Fs4
 .byte   W18
 .byte   En4
 .byte   W18
 .byte   N12 ,Ds4
 .byte   W12
 .byte   PEND 
@ 012   ----------------------------------------
Label_5_0147705A:
 .byte   N18 ,Cs4 ,v096
 .byte   W18
 .byte   N30 ,Gs4
 .byte   W42
 .byte   N12 ,Bn4
 .byte   W12
 .byte   N06 ,An4
 .byte   W12
 .byte   N42 ,Gs4
 .byte   W12
 .byte   PEND 
@ 013   ----------------------------------------
Label_5_0147706B:
 .byte   W48
 .byte   N12 ,Gs4 ,v096
 .byte   W12
 .byte   N06 ,Fs4
 .byte   W12
 .byte   N18 ,En4
 .byte   W24
 .byte   PEND 
@ 014   ----------------------------------------
Label_5_01477077:
 .byte   N30 ,Fs4 ,v096
 .byte   W36
 .byte   N06 ,En4
 .byte   W12
 .byte   N28 ,Ds4
 .byte   W36
 .byte   N06 ,Cs4
 .byte   W06
 .byte   Ds4
 .byte   W06
 .byte   PEND 
@ 015   ----------------------------------------
Label_5_01477087:
 .byte   N18 ,En4 ,v096
 .byte   W18
 .byte   Ds4
 .byte   W18
 .byte   N12 ,Cs4
 .byte   W12
 .byte   N18 ,Ds4
 .byte   W18
 .byte   Gs3
 .byte   W18
 .byte   N06 ,Bn3
 .byte   W12
 .byte   PEND 
@ 016   ----------------------------------------
Label_5_01477099:
 .byte   N36 ,Bn3 ,v096
 .byte   W36
 .byte   N06 ,Cs4
 .byte   W12
 .byte   N48
 .byte   W48
 .byte   PEND 
@ 017   ----------------------------------------
 .byte   W96
@ 018   ----------------------------------------
 .byte   PATT
  .word Label_5_0147703A
@ 019   ----------------------------------------
 .byte   PATT
  .word Label_5_01477048
@ 020   ----------------------------------------
 .byte   PATT
  .word Label_5_0147705A
@ 021   ----------------------------------------
 .byte   PATT
  .word Label_5_0147706B
@ 022   ----------------------------------------
 .byte   PATT
  .word Label_5_01477077
@ 023   ----------------------------------------
 .byte   PATT
  .word Label_5_01477087
@ 024   ----------------------------------------
 .byte   PATT
  .word Label_5_01477099
@ 025   ----------------------------------------
 .byte   W96
@ 026   ----------------------------------------
 .byte   W96
@ 027   ----------------------------------------
 .byte   W96
@ 028   ----------------------------------------
 .byte   W96
@ 029   ----------------------------------------
 .byte   W96
@ 030   ----------------------------------------
 .byte   W96
@ 031   ----------------------------------------
 .byte   W96
@ 032   ----------------------------------------
 .byte   W96
@ 033   ----------------------------------------
 .byte   W60
 .byte   N06 ,As3 ,v096
 .byte   W12
 .byte   N12 ,Fn4
 .byte   W12
 .byte   Fs4
 .byte   W12
@ 034   ----------------------------------------
Label_5_014770D9:
 .byte   N24 ,Fn4 ,v096
 .byte   W24
 .byte   N06 ,Ds4
 .byte   W12
 .byte   N24 ,As3
 .byte   W24
 .byte   N06 ,Gs3
 .byte   W12
 .byte   Fs3
 .byte   W12
 .byte   N60 ,As3
 .byte   W12
 .byte   PEND 
@ 035   ----------------------------------------
Label_5_014770EC:
 .byte   W60
 .byte   N06 ,As3 ,v096
 .byte   W12
 .byte   N12 ,Fn4
 .byte   W12
 .byte   N06 ,Fs4
 .byte   W12
 .byte   PEND 
@ 036   ----------------------------------------
Label_5_014770F8:
 .byte   N24 ,Fn4 ,v096
 .byte   W24
 .byte   N12 ,Ds4
 .byte   W12
 .byte   N19 ,As3
 .byte   W24
 .byte   N12 ,Gs3
 .byte   W12
 .byte   N06 ,As3
 .byte   W12
 .byte   N60 ,Ds3
 .byte   W12
 .byte   PEND 
@ 037   ----------------------------------------
Label_5_0147710C:
 .byte   W60
 .byte   N12 ,Ds3 ,v096
 .byte   W12
 .byte   Fs3
 .byte   W12
 .byte   N06 ,Gs3
 .byte   W12
 .byte   PEND 
@ 038   ----------------------------------------
Label_5_01477117:
 .byte   N36 ,As3 ,v096
 .byte   W36
 .byte   N06 ,Gs3
 .byte   W12
 .byte   N36
 .byte   W36
 .byte   N06 ,Fs3
 .byte   W06
 .byte   Gs3
 .byte   W06
 .byte   PEND 
@ 039   ----------------------------------------
Label_5_01477126:
 .byte   N18 ,As3 ,v096
 .byte   W18
 .byte   Bn3
 .byte   W18
 .byte   N12 ,As3
 .byte   W12
 .byte   N24 ,Gs3
 .byte   W24
 .byte   Fn3
 .byte   W24
 .byte   PEND 
@ 040   ----------------------------------------
Label_5_01477135:
 .byte   N36 ,Gs3 ,v096
 .byte   W36
 .byte   N06 ,Fs3
 .byte   W12
 .byte   N48 ,As3
 .byte   W48
 .byte   PEND 
@ 041   ----------------------------------------
 .byte   PATT
  .word Label_5_014770EC
@ 042   ----------------------------------------
 .byte   PATT
  .word Label_5_014770D9
@ 043   ----------------------------------------
Label_5_0147714A:
 .byte   W60
 .byte   N12 ,As3 ,v096
 .byte   W12
 .byte   Fn4
 .byte   W12
 .byte   N06 ,Fs4
 .byte   W12
 .byte   PEND 
@ 044   ----------------------------------------
Label_5_01477155:
 .byte   N24 ,Gs4 ,v096
 .byte   W24
 .byte   N06 ,Fs4
 .byte   W12
 .byte   N24 ,Fn4
 .byte   W24
 .byte   N06 ,Fs4
 .byte   W12
 .byte   Gs4
 .byte   W12
 .byte   N60 ,As4
 .byte   W12
 .byte   PEND 
@ 045   ----------------------------------------
Label_5_01477168:
 .byte   W60
 .byte   N12 ,Ds4 ,v096
 .byte   W12
 .byte   Fs4
 .byte   W12
 .byte   N08 ,Gs4
 .byte   W12
 .byte   PEND 
@ 046   ----------------------------------------
Label_5_01477173:
 .byte   N36 ,As4 ,v096
 .byte   W36
 .byte   N06 ,Gs4
 .byte   W12
 .byte   N28
 .byte   W36
 .byte   N06 ,Fs4
 .byte   W06
 .byte   Gs4
 .byte   W06
 .byte   PEND 
@ 047   ----------------------------------------
Label_5_01477182:
 .byte   N18 ,As4 ,v096
 .byte   W18
 .byte   Bn4
 .byte   W18
 .byte   N12 ,As4
 .byte   W12
 .byte   N24 ,Gs4
 .byte   W24
 .byte   Fn4
 .byte   W24
 .byte   PEND 
@ 048   ----------------------------------------
Label_5_01477191:
 .byte   N36 ,Fn4 ,v096
 .byte   W36
 .byte   N12 ,Fs4
 .byte   W12
 .byte   N48 ,Ds4
 .byte   W48
 .byte   PEND 
@ 049   ----------------------------------------
 .byte   PATT
  .word Label_5_0147714A
@ 050   ----------------------------------------
 .byte   PATT
  .word Label_5_014770D9
@ 051   ----------------------------------------
 .byte   PATT
  .word Label_5_014770EC
@ 052   ----------------------------------------
 .byte   PATT
  .word Label_5_014770F8
@ 053   ----------------------------------------
 .byte   PATT
  .word Label_5_0147710C
@ 054   ----------------------------------------
 .byte   PATT
  .word Label_5_01477117
@ 055   ----------------------------------------
 .byte   PATT
  .word Label_5_01477126
@ 056   ----------------------------------------
 .byte   PATT
  .word Label_5_01477135
@ 057   ----------------------------------------
 .byte   PATT
  .word Label_5_014770EC
@ 058   ----------------------------------------
 .byte   PATT
  .word Label_5_014770D9
@ 059   ----------------------------------------
 .byte   PATT
  .word Label_5_0147714A
@ 060   ----------------------------------------
 .byte   PATT
  .word Label_5_01477155
@ 061   ----------------------------------------
 .byte   PATT
  .word Label_5_01477168
@ 062   ----------------------------------------
 .byte   PATT
  .word Label_5_01477173
@ 063   ----------------------------------------
 .byte   PATT
  .word Label_5_01477182
@ 064   ----------------------------------------
 .byte   PATT
  .word Label_5_01477191
@ 065   ----------------------------------------
 .byte   W96
@ 066   ----------------------------------------
 .byte   W96
@ 067   ----------------------------------------
 .byte   W96
@ 068   ----------------------------------------
 .byte   GOTO
  .word Label_5_01477007
 .byte   FINE

@**************** Track 7 (Midi-Chn.6) ****************@

songC6_007:
@ 000   ----------------------------------------
 .byte   KEYSH , songC6_key+0
Label_6_014771F7:
 .byte   VOICE , 40
 .byte   VOL , 24*songC6_mvl/mxv
 .byte   PAN , c_v-24
 .byte   BEND , c_v+0
 .byte   W96
@ 001   ----------------------------------------
 .byte   W96
@ 002   ----------------------------------------
 .byte   W96
@ 003   ----------------------------------------
 .byte   W96
@ 004   ----------------------------------------
 .byte   W96
@ 005   ----------------------------------------
 .byte   W96
@ 006   ----------------------------------------
 .byte   W96
@ 007   ----------------------------------------
 .byte   W96
@ 008   ----------------------------------------
 .byte   W96
@ 009   ----------------------------------------
 .byte   W96
@ 010   ----------------------------------------
 .byte   W96
@ 011   ----------------------------------------
 .byte   W96
@ 012   ----------------------------------------
 .byte   W96
@ 013   ----------------------------------------
 .byte   W96
@ 014   ----------------------------------------
 .byte   W96
@ 015   ----------------------------------------
 .byte   W96
@ 016   ----------------------------------------
 .byte   W96
@ 017   ----------------------------------------
 .byte   W96
@ 018   ----------------------------------------
 .byte   W96
@ 019   ----------------------------------------
 .byte   N18 ,Cs4 ,v096
 .byte   W18
 .byte   Ds4
 .byte   W18
 .byte   N12 ,En4
 .byte   W12
 .byte   N18 ,Ds4
 .byte   W18
 .byte   Cs4
 .byte   W18
 .byte   N12 ,Bn3
 .byte   W12
@ 020   ----------------------------------------
 .byte   N18 ,Cs4
 .byte   W18
 .byte   N30
 .byte   W42
 .byte   N12 ,En4
 .byte   W12
 .byte   N06 ,Ds4
 .byte   W12
 .byte   N42 ,Cs4
 .byte   W12
@ 021   ----------------------------------------
 .byte   W48
 .byte   N12 ,En4
 .byte   W12
 .byte   N06 ,Ds4
 .byte   W12
 .byte   N18 ,Cs4
 .byte   W24
@ 022   ----------------------------------------
 .byte   N36 ,Ds4
 .byte   W36
 .byte   N12 ,Cs4
 .byte   W12
 .byte   N36 ,Bn3
 .byte   W36
 .byte   N06 ,Gs3
 .byte   W06
 .byte   Cn4
 .byte   W06
@ 023   ----------------------------------------
 .byte   N18 ,Cs4
 .byte   W18
 .byte   Bn3
 .byte   W18
 .byte   N12 ,Gs3
 .byte   W12
 .byte   N18 ,Bn3
 .byte   W18
 .byte   Gs3
 .byte   W18
 .byte   N06
 .byte   W12
@ 024   ----------------------------------------
 .byte   N36 ,Fs3
 .byte   W36
 .byte   N12 ,Gs3
 .byte   W12
 .byte   N48
 .byte   W48
@ 025   ----------------------------------------
 .byte   W96
@ 026   ----------------------------------------
 .byte   W96
@ 027   ----------------------------------------
 .byte   W96
@ 028   ----------------------------------------
 .byte   W96
@ 029   ----------------------------------------
 .byte   W96
@ 030   ----------------------------------------
 .byte   W96
@ 031   ----------------------------------------
 .byte   W96
@ 032   ----------------------------------------
 .byte   W96
@ 033   ----------------------------------------
 .byte   W96
@ 034   ----------------------------------------
 .byte   W96
@ 035   ----------------------------------------
 .byte   W96
@ 036   ----------------------------------------
 .byte   W96
@ 037   ----------------------------------------
 .byte   W96
@ 038   ----------------------------------------
 .byte   W96
@ 039   ----------------------------------------
 .byte   W96
@ 040   ----------------------------------------
 .byte   W96
@ 041   ----------------------------------------
Label_6_01477270:
 .byte   W60
 .byte   N06 ,As3 ,v096
 .byte   W12
 .byte   N12 ,Fn4
 .byte   W12
 .byte   N06 ,Fs4
 .byte   W12
 .byte   PEND 
@ 042   ----------------------------------------
Label_6_0147727C:
 .byte   N24 ,Fn4 ,v096
 .byte   W24
 .byte   N12 ,Ds4
 .byte   W12
 .byte   N24 ,As3
 .byte   W24
 .byte   N12 ,Gs3
 .byte   W12
 .byte   Fs3
 .byte   W12
 .byte   N60 ,As3
 .byte   W12
 .byte   PEND 
@ 043   ----------------------------------------
Label_6_0147728F:
 .byte   W60
 .byte   N12 ,As3 ,v096
 .byte   W12
 .byte   Fn4
 .byte   W12
 .byte   N06 ,Fs4
 .byte   W12
 .byte   PEND 
@ 044   ----------------------------------------
 .byte   W96
@ 045   ----------------------------------------
 .byte   W96
@ 046   ----------------------------------------
 .byte   W96
@ 047   ----------------------------------------
 .byte   W96
@ 048   ----------------------------------------
 .byte   W96
@ 049   ----------------------------------------
 .byte   W96
@ 050   ----------------------------------------
 .byte   W96
@ 051   ----------------------------------------
 .byte   W96
@ 052   ----------------------------------------
 .byte   W96
@ 053   ----------------------------------------
 .byte   W96
@ 054   ----------------------------------------
 .byte   W96
@ 055   ----------------------------------------
 .byte   W96
@ 056   ----------------------------------------
 .byte   W96
@ 057   ----------------------------------------
 .byte   PATT
  .word Label_6_01477270
@ 058   ----------------------------------------
 .byte   PATT
  .word Label_6_0147727C
@ 059   ----------------------------------------
 .byte   PATT
  .word Label_6_0147728F
@ 060   ----------------------------------------
 .byte   W96
@ 061   ----------------------------------------
 .byte   W96
@ 062   ----------------------------------------
 .byte   W96
@ 063   ----------------------------------------
 .byte   W96
@ 064   ----------------------------------------
 .byte   W96
@ 065   ----------------------------------------
 .byte   W96
@ 066   ----------------------------------------
 .byte   W96
@ 067   ----------------------------------------
 .byte   W96
@ 068   ----------------------------------------
 .byte   GOTO
  .word Label_6_014771F7
 .byte   FINE

@**************** Track 8 (Midi-Chn.7) ****************@

songC6_008:
@ 000   ----------------------------------------
 .byte   KEYSH , songC6_key+0
Label_7_014772C6:
 .byte   VOICE , 38
 .byte   VOL , 33*songC6_mvl/mxv
 .byte   PAN , c_v+0
 .byte   BEND , c_v+0
 .byte   W96
@ 001   ----------------------------------------
 .byte   W96
@ 002   ----------------------------------------
Label_7_014772D0:
 .byte   N24 ,Cs1 ,v096
 .byte   W24
 .byte   N12 ,Fs1
 .byte   W12
 .byte   Gs1
 .byte   W12
 .byte   N24 ,Cs1
 .byte   W24
 .byte   N12 ,Fs1
 .byte   W12
 .byte   Gs1
 .byte   W12
 .byte   PEND 
@ 003   ----------------------------------------
 .byte   PATT
  .word Label_7_014772D0
@ 004   ----------------------------------------
 .byte   PATT
  .word Label_7_014772D0
@ 005   ----------------------------------------
 .byte   PATT
  .word Label_7_014772D0
@ 006   ----------------------------------------
 .byte   PATT
  .word Label_7_014772D0
@ 007   ----------------------------------------
 .byte   PATT
  .word Label_7_014772D0
@ 008   ----------------------------------------
 .byte   PATT
  .word Label_7_014772D0
@ 009   ----------------------------------------
 .byte   PATT
  .word Label_7_014772D0
@ 010   ----------------------------------------
 .byte   PATT
  .word Label_7_014772D0
@ 011   ----------------------------------------
 .byte   PATT
  .word Label_7_014772D0
@ 012   ----------------------------------------
Label_7_0147730F:
 .byte   N24 ,Bn0 ,v096
 .byte   W24
 .byte   N12 ,En1
 .byte   W12
 .byte   Fs1
 .byte   W12
 .byte   N24 ,Bn0
 .byte   W24
 .byte   N12 ,En1
 .byte   W12
 .byte   Fs1
 .byte   W12
 .byte   PEND 
@ 013   ----------------------------------------
Label_7_01477321:
 .byte   N24 ,Bn0 ,v096
 .byte   W24
 .byte   N12 ,En1
 .byte   W12
 .byte   Fs1
 .byte   W12
 .byte   N24 ,Bn0
 .byte   W24
 .byte   Fs1
 .byte   W24
 .byte   PEND 
@ 014   ----------------------------------------
Label_7_01477330:
 .byte   N24 ,An0 ,v096
 .byte   W24
 .byte   N12 ,Cs1
 .byte   W12
 .byte   En1
 .byte   W12
 .byte   N24 ,An0
 .byte   W24
 .byte   N12 ,Cs1
 .byte   W12
 .byte   En1
 .byte   W12
 .byte   PEND 
@ 015   ----------------------------------------
 .byte   PATT
  .word Label_7_01477330
@ 016   ----------------------------------------
 .byte   PATT
  .word Label_7_0147730F
@ 017   ----------------------------------------
 .byte   N24 ,Cs1 ,v096
 .byte   W24
 .byte   N12 ,Fs1
 .byte   W12
 .byte   Gs1
 .byte   W12
 .byte   N06 ,Cn1
 .byte   W06
 .byte   Ds1
 .byte   W06
 .byte   Fs1
 .byte   W06
 .byte   As1
 .byte   W06
 .byte   Cn2
 .byte   W06
 .byte   Ds2
 .byte   W06
 .byte   Fs2
 .byte   W06
 .byte   Gs2
 .byte   W06
@ 018   ----------------------------------------
 .byte   PATT
  .word Label_7_014772D0
@ 019   ----------------------------------------
 .byte   PATT
  .word Label_7_014772D0
@ 020   ----------------------------------------
 .byte   PATT
  .word Label_7_0147730F
@ 021   ----------------------------------------
 .byte   PATT
  .word Label_7_01477321
@ 022   ----------------------------------------
 .byte   PATT
  .word Label_7_01477330
@ 023   ----------------------------------------
 .byte   PATT
  .word Label_7_01477330
@ 024   ----------------------------------------
 .byte   PATT
  .word Label_7_0147730F
@ 025   ----------------------------------------
 .byte   PATT
  .word Label_7_014772D0
@ 026   ----------------------------------------
 .byte   N18 ,En0 ,v096
 .byte   W18
 .byte   N18
 .byte   W18
 .byte   N48
 .byte   W48
 .byte   N12 ,Bn0
 .byte   W12
@ 027   ----------------------------------------
 .byte   N18 ,Gs0
 .byte   W18
 .byte   N18
 .byte   W18
 .byte   N24
 .byte   W24
 .byte   N12 ,Gs1
 .byte   W12
 .byte   En1
 .byte   W12
 .byte   Bn0
 .byte   W12
@ 028   ----------------------------------------
 .byte   N12
 .byte   W12
 .byte   N12
 .byte   W12
 .byte   N12
 .byte   W12
 .byte   N12
 .byte   W60
@ 029   ----------------------------------------
 .byte   Cs1
 .byte   W12
 .byte   N12
 .byte   W12
 .byte   N12
 .byte   W12
 .byte   N06 ,Gs1
 .byte   W06
 .byte   En1
 .byte   W06
 .byte   N12 ,Cs1
 .byte   W12
 .byte   N06 ,Gs1 ,v064
 .byte   W06
 .byte   En1
 .byte   W06
 .byte   N12 ,Cs1
 .byte   W24
@ 030   ----------------------------------------
 .byte   Cs1 ,v096
 .byte   W12
 .byte   N12
 .byte   W12
 .byte   N12
 .byte   W12
 .byte   N12
 .byte   W48
 .byte   N06 ,Gs1
 .byte   W06
 .byte   Cs1
 .byte   W06
@ 031   ----------------------------------------
 .byte   N12 ,Ds1
 .byte   W12
 .byte   N24
 .byte   W24
 .byte   N06 ,Ds2
 .byte   W06
 .byte   As1
 .byte   W06
 .byte   N12 ,Ds1
 .byte   W12
 .byte   Ds2
 .byte   W12
 .byte   As1
 .byte   W12
 .byte   Ds1
 .byte   W12
@ 032   ----------------------------------------
 .byte   N24 ,Gs1
 .byte   W24
 .byte   N12 ,Ds1
 .byte   W12
 .byte   N12
 .byte   W12
 .byte   N24
 .byte   W24
 .byte   N12 ,Gs1
 .byte   W12
 .byte   Cs1
 .byte   W12
@ 033   ----------------------------------------
 .byte   N24 ,Ds1
 .byte   W24
 .byte   As1
 .byte   W24
 .byte   N03 ,Ds2 ,v076
 .byte   W03
 .byte   N03
 .byte   W03
 .byte   As1
 .byte   W03
 .byte   N03
 .byte   W03
 .byte   Ds1
 .byte   W03
 .byte   N03
 .byte   W03
 .byte   N03
 .byte   W03
 .byte   N03
 .byte   W03
 .byte   Ds2 ,v052
 .byte   W03
 .byte   N03
 .byte   W03
 .byte   As1
 .byte   W03
 .byte   N03
 .byte   W03
 .byte   Ds1
 .byte   W03
 .byte   N03
 .byte   W03
 .byte   N03
 .byte   W03
 .byte   N03
 .byte   W03
@ 034   ----------------------------------------
Label_7_0147741E:
 .byte   N24 ,Ds1 ,v096
 .byte   W24
 .byte   N12 ,As1
 .byte   W12
 .byte   N24 ,Fn2
 .byte   W24
 .byte   N12 ,Ds2
 .byte   W12
 .byte   Fs1
 .byte   W12
 .byte   Fn1
 .byte   W12
 .byte   PEND 
@ 035   ----------------------------------------
Label_7_01477430:
 .byte   N24 ,Ds1 ,v096
 .byte   W24
 .byte   N12 ,Gs1
 .byte   W12
 .byte   As1
 .byte   W24
 .byte   Ds1
 .byte   W12
 .byte   Gs1
 .byte   W12
 .byte   As1
 .byte   W12
 .byte   PEND 
@ 036   ----------------------------------------
Label_7_01477440:
 .byte   N24 ,Ds1 ,v096
 .byte   W24
 .byte   N12 ,As1
 .byte   W12
 .byte   N24 ,Ds2
 .byte   W24
 .byte   N12 ,Cs2
 .byte   W12
 .byte   As1
 .byte   W12
 .byte   Gs1
 .byte   W12
 .byte   PEND 
@ 037   ----------------------------------------
Label_7_01477452:
 .byte   N24 ,Ds1 ,v096
 .byte   W24
 .byte   N12 ,Gs1
 .byte   W12
 .byte   As1
 .byte   W24
 .byte   N12
 .byte   W12
 .byte   Gs1
 .byte   W12
 .byte   As1
 .byte   W12
 .byte   PEND 
@ 038   ----------------------------------------
Label_7_01477462:
 .byte   N24 ,Cs1 ,v096
 .byte   W24
 .byte   N12 ,Gs1
 .byte   W12
 .byte   N24 ,Cs2
 .byte   W24
 .byte   N12 ,Gs1
 .byte   W12
 .byte   Cs1
 .byte   W24
 .byte   PEND 
@ 039   ----------------------------------------
Label_7_01477472:
 .byte   N18 ,Cs1 ,v096
 .byte   W18
 .byte   Gs1
 .byte   W18
 .byte   N12 ,As1
 .byte   W12
 .byte   Cs1
 .byte   W12
 .byte   Fn1
 .byte   W12
 .byte   Gs1
 .byte   W12
 .byte   As1
 .byte   W12
 .byte   PEND 
@ 040   ----------------------------------------
 .byte   PATT
  .word Label_7_0147741E
@ 041   ----------------------------------------
Label_7_01477489:
 .byte   N24 ,As0 ,v096
 .byte   W24
 .byte   N12 ,Fs1 ,v052
 .byte   W12
 .byte   N24 ,As0 ,v096
 .byte   W24
 .byte   N12
 .byte   W12
 .byte   Ds1
 .byte   W12
 .byte   As1
 .byte   W12
 .byte   PEND 
@ 042   ----------------------------------------
 .byte   PATT
  .word Label_7_0147741E
@ 043   ----------------------------------------
 .byte   PATT
  .word Label_7_01477430
@ 044   ----------------------------------------
Label_7_014774A6:
 .byte   N24 ,Cs1 ,v096
 .byte   W24
 .byte   N12 ,Gs1
 .byte   W12
 .byte   N24 ,Cs2
 .byte   W24
 .byte   N12 ,Gs1
 .byte   W12
 .byte   Fn1
 .byte   W12
 .byte   Ds1
 .byte   W12
 .byte   PEND 
@ 045   ----------------------------------------
Label_7_014774B8:
 .byte   N24 ,Cs1 ,v096
 .byte   W24
 .byte   N12 ,Gs1
 .byte   W12
 .byte   Cs2
 .byte   W24
 .byte   Gs1
 .byte   W12
 .byte   Fn1
 .byte   W12
 .byte   Ds1
 .byte   W12
 .byte   PEND 
@ 046   ----------------------------------------
Label_7_014774C8:
 .byte   N24 ,Cs1 ,v096
 .byte   W24
 .byte   N12 ,Gs1
 .byte   W12
 .byte   N24 ,Cs2
 .byte   W24
 .byte   N12 ,Gs1
 .byte   W12
 .byte   Fn1
 .byte   W24
 .byte   PEND 
@ 047   ----------------------------------------
Label_7_014774D8:
 .byte   N24 ,Cs1 ,v096
 .byte   W24
 .byte   N12 ,Gs1
 .byte   W12
 .byte   N24 ,Cs2
 .byte   W24
 .byte   N12 ,Gs1
 .byte   W12
 .byte   Cs2
 .byte   W12
 .byte   Cs1
 .byte   W12
 .byte   PEND 
@ 048   ----------------------------------------
 .byte   PATT
  .word Label_7_0147741E
@ 049   ----------------------------------------
 .byte   PATT
  .word Label_7_0147741E
@ 050   ----------------------------------------
 .byte   PATT
  .word Label_7_0147741E
@ 051   ----------------------------------------
 .byte   PATT
  .word Label_7_01477430
@ 052   ----------------------------------------
 .byte   PATT
  .word Label_7_01477440
@ 053   ----------------------------------------
 .byte   PATT
  .word Label_7_01477452
@ 054   ----------------------------------------
 .byte   PATT
  .word Label_7_01477462
@ 055   ----------------------------------------
 .byte   PATT
  .word Label_7_01477472
@ 056   ----------------------------------------
 .byte   PATT
  .word Label_7_0147741E
@ 057   ----------------------------------------
 .byte   PATT
  .word Label_7_01477489
@ 058   ----------------------------------------
 .byte   PATT
  .word Label_7_0147741E
@ 059   ----------------------------------------
 .byte   PATT
  .word Label_7_01477430
@ 060   ----------------------------------------
 .byte   PATT
  .word Label_7_014774A6
@ 061   ----------------------------------------
 .byte   PATT
  .word Label_7_014774B8
@ 062   ----------------------------------------
 .byte   PATT
  .word Label_7_014774C8
@ 063   ----------------------------------------
 .byte   PATT
  .word Label_7_014774D8
@ 064   ----------------------------------------
 .byte   PATT
  .word Label_7_0147741E
@ 065   ----------------------------------------
 .byte   PATT
  .word Label_7_0147741E
@ 066   ----------------------------------------
 .byte   N96 ,En1 ,v096
 .byte   W96
@ 067   ----------------------------------------
 .byte   N96
 .byte   W96
@ 068   ----------------------------------------
 .byte   GOTO
  .word Label_7_014772C6
 .byte   FINE

@**************** Track 9 (Midi-Chn.8) ****************@

songC6_009:
@ 000   ----------------------------------------
 .byte   KEYSH , songC6_key+0
Label_8_01477552:
 .byte   VOICE , 0
 .byte   VOL , 24*songC6_mvl/mxv
 .byte   PAN , c_v+32
 .byte   BEND , c_v+0
 .byte   W96
@ 001   ----------------------------------------
 .byte   W96
@ 002   ----------------------------------------
Label_8_0147755C:
 .byte   N09 ,Cs3 ,v096
 .byte   W12
 .byte   Gs3
 .byte   W12
 .byte   Cs3
 .byte   W12
 .byte   N09
 .byte   W12
 .byte   N09
 .byte   W12
 .byte   Gs3
 .byte   W12
 .byte   Cs3
 .byte   W12
 .byte   Gs3
 .byte   W12
 .byte   PEND 
@ 003   ----------------------------------------
Label_8_0147756F:
 .byte   N09 ,Gs3 ,v096
 .byte   W12
 .byte   N09
 .byte   W12
 .byte   N09
 .byte   W12
 .byte   Cs3
 .byte   W12
 .byte   N09
 .byte   W12
 .byte   Gs3
 .byte   W12
 .byte   Cs3
 .byte   W12
 .byte   N09
 .byte   W12
 .byte   PEND 
@ 004   ----------------------------------------
 .byte   PATT
  .word Label_8_0147755C
@ 005   ----------------------------------------
 .byte   PATT
  .word Label_8_0147756F
@ 006   ----------------------------------------
 .byte   PATT
  .word Label_8_0147755C
@ 007   ----------------------------------------
 .byte   PATT
  .word Label_8_0147756F
@ 008   ----------------------------------------
 .byte   PATT
  .word Label_8_0147755C
@ 009   ----------------------------------------
 .byte   N09 ,Cs3 ,v096
 .byte   N09 ,Gs3 ,v080
 .byte   W12
 .byte   Gs3 ,v096
 .byte   N09 ,Cs4 ,v064
 .byte   W12
 .byte   Ds3 ,v096
 .byte   N09 ,Gs3 ,v080
 .byte   W12
 .byte   Cs3 ,v096
 .byte   N09 ,Gs3 ,v080
 .byte   W12
 .byte   Cs3 ,v096
 .byte   N09 ,Gs3 ,v080
 .byte   W12
 .byte   Gs3 ,v096
 .byte   N09 ,Cs4 ,v064
 .byte   W12
 .byte   Ds3 ,v096
 .byte   N09 ,Gs3 ,v080
 .byte   W12
 .byte   Cs3 ,v096
 .byte   N09 ,Gs3 ,v080
 .byte   W12
@ 010   ----------------------------------------
Label_8_014775CC:
 .byte   N09 ,Gs3 ,v080
 .byte   N09 ,Cs4
 .byte   W12
 .byte   Gs3
 .byte   W12
 .byte   N09
 .byte   N09 ,Cs4
 .byte   W12
 .byte   Gs3
 .byte   N09 ,Cs4
 .byte   W12
 .byte   Cs3
 .byte   N09 ,Gs3
 .byte   W12
 .byte   Cs3
 .byte   N09 ,Gs3
 .byte   W12
 .byte   Cs3
 .byte   N09 ,Gs3
 .byte   W12
 .byte   Cs3
 .byte   N09 ,Gs3
 .byte   W12
 .byte   PEND 
@ 011   ----------------------------------------
 .byte   PATT
  .word Label_8_014775CC
@ 012   ----------------------------------------
Label_8_014775F2:
 .byte   N09 ,Gs3 ,v080
 .byte   N09 ,Cs4
 .byte   W12
 .byte   Gs3
 .byte   N09 ,Cs4
 .byte   W12
 .byte   Gs3
 .byte   N09 ,Cs4
 .byte   W12
 .byte   Fs3
 .byte   N09 ,Bn3
 .byte   W12
 .byte   Fs3
 .byte   N09 ,Bn3
 .byte   W12
 .byte   Fs3
 .byte   N09 ,Bn3
 .byte   W12
 .byte   Fs3
 .byte   N09 ,Bn3
 .byte   W12
 .byte   Ds3
 .byte   N09 ,Gs3
 .byte   W12
 .byte   PEND 
@ 013   ----------------------------------------
Label_8_01477615:
 .byte   N09 ,Ds3 ,v080
 .byte   N09 ,Gs3
 .byte   W12
 .byte   Ds3
 .byte   N09 ,Gs3
 .byte   W12
 .byte   Ds3
 .byte   N09 ,Gs3
 .byte   W12
 .byte   Ds3
 .byte   N09 ,Gs3
 .byte   W12
 .byte   Ds3
 .byte   N09 ,Gs3
 .byte   W12
 .byte   Ds3
 .byte   N09 ,Gs3
 .byte   W12
 .byte   Ds3
 .byte   N09 ,Gs3
 .byte   W12
 .byte   Ds3
 .byte   N09 ,Gs3
 .byte   W12
 .byte   PEND 
@ 014   ----------------------------------------
Label_8_01477638:
 .byte   N09 ,Cs4 ,v080
 .byte   N09 ,Fs4
 .byte   W12
 .byte   Cs4
 .byte   N09 ,Fs4
 .byte   W12
 .byte   Cs4
 .byte   N09 ,Fs4
 .byte   W12
 .byte   Cs4
 .byte   N09 ,Fs4
 .byte   W12
 .byte   Cs4
 .byte   N09 ,Ds4 ,v096
 .byte   W12
 .byte   Cs4 ,v080
 .byte   N09 ,Ds4
 .byte   W12
 .byte   Cs4
 .byte   N09 ,Ds4
 .byte   W12
 .byte   Cs4 ,v096
 .byte   N09 ,Ds4 ,v080
 .byte   W12
 .byte   PEND 
@ 015   ----------------------------------------
Label_8_0147765F:
 .byte   N09 ,Fs3 ,v096
 .byte   N09 ,An3
 .byte   W12
 .byte   Fs3
 .byte   N09 ,An3
 .byte   W12
 .byte   Fs3
 .byte   N09 ,An3
 .byte   W12
 .byte   Fs3
 .byte   N09 ,An3
 .byte   W12
 .byte   Fs3
 .byte   N09 ,Bn3
 .byte   W12
 .byte   Fs3
 .byte   N09 ,Bn3
 .byte   W12
 .byte   Fs3
 .byte   N09 ,Bn3
 .byte   W12
 .byte   Fs3
 .byte   N09 ,Bn3
 .byte   W12
 .byte   PEND 
@ 016   ----------------------------------------
Label_8_01477682:
 .byte   N09 ,Cs3 ,v096
 .byte   N09 ,Gs3
 .byte   W12
 .byte   N09
 .byte   N09 ,Cs4
 .byte   W12
 .byte   Cs3
 .byte   N09 ,Gs3
 .byte   W12
 .byte   N09
 .byte   N09 ,Cs4
 .byte   W12
 .byte   Cs3
 .byte   N09 ,Gs3
 .byte   W12
 .byte   N09
 .byte   N09 ,Cs4
 .byte   W12
 .byte   Cs3
 .byte   N09 ,Gs3
 .byte   W12
 .byte   N09
 .byte   N09 ,Cs4
 .byte   W12
 .byte   PEND 
@ 017   ----------------------------------------
 .byte   Gs3
 .byte   N09 ,Fs4
 .byte   W12
 .byte   Gs3
 .byte   N09 ,Cs4
 .byte   N09 ,Fs4
 .byte   W12
 .byte   Gs3
 .byte   N09 ,Cs4
 .byte   N09 ,Fs4 ,v112
 .byte   W12
 .byte   Gs3 ,v096
 .byte   N09 ,Cn4
 .byte   W12
 .byte   Gs3
 .byte   N09 ,Cn4
 .byte   W12
 .byte   Gs3
 .byte   N09 ,Cn4
 .byte   W12
 .byte   Gs3
 .byte   N09 ,Cn4
 .byte   W12
 .byte   Gs3
 .byte   N09 ,Cn4
 .byte   W12
@ 018   ----------------------------------------
 .byte   PATT
  .word Label_8_014775CC
@ 019   ----------------------------------------
 .byte   PATT
  .word Label_8_014775CC
@ 020   ----------------------------------------
 .byte   PATT
  .word Label_8_014775F2
@ 021   ----------------------------------------
 .byte   PATT
  .word Label_8_01477615
@ 022   ----------------------------------------
 .byte   PATT
  .word Label_8_01477638
@ 023   ----------------------------------------
 .byte   PATT
  .word Label_8_0147765F
@ 024   ----------------------------------------
 .byte   PATT
  .word Label_8_01477682
@ 025   ----------------------------------------
 .byte   N09 ,Gs3 ,v096
 .byte   N09 ,Cs4
 .byte   W12
 .byte   Gs3
 .byte   N09 ,Cs4
 .byte   W12
 .byte   Gs3
 .byte   N09 ,Cs4
 .byte   W12
 .byte   Gs2
 .byte   N09 ,Cs3
 .byte   W12
 .byte   Gs2
 .byte   N09 ,Cs3
 .byte   W12
 .byte   Gs2
 .byte   N09 ,Cs3
 .byte   W12
 .byte   Gs2
 .byte   N09 ,Cs3
 .byte   W12
 .byte   Gs2
 .byte   N09 ,Cs3
 .byte   W12
@ 026   ----------------------------------------
 .byte   En3
 .byte   N09 ,Bn3
 .byte   W12
 .byte   En3
 .byte   N09 ,Bn3
 .byte   W12
 .byte   En3
 .byte   N09 ,Bn3
 .byte   W12
 .byte   En3
 .byte   N09 ,Bn3
 .byte   W60
@ 027   ----------------------------------------
Label_8_01477720:
 .byte   N09 ,Cs3 ,v096
 .byte   N09 ,Gs3
 .byte   W12
 .byte   Cs3
 .byte   N09 ,Gs3
 .byte   W12
 .byte   Cs3
 .byte   N09 ,Gs3
 .byte   W12
 .byte   Cs3
 .byte   N09 ,Gs3
 .byte   W60
 .byte   PEND 
@ 028   ----------------------------------------
 .byte   Fs3
 .byte   N09 ,Bn3
 .byte   W12
 .byte   Fs3
 .byte   N09 ,Bn3
 .byte   W12
 .byte   Fs3
 .byte   N09 ,Bn3
 .byte   W12
 .byte   Fs3
 .byte   N09 ,Bn3
 .byte   W60
@ 029   ----------------------------------------
 .byte   PATT
  .word Label_8_01477720
@ 030   ----------------------------------------
 .byte   N09 ,Cs4 ,v096
 .byte   N09 ,Gs4
 .byte   W12
 .byte   Cs4
 .byte   N09 ,Gs4
 .byte   W12
 .byte   Cs4
 .byte   N09 ,Gs4
 .byte   W12
 .byte   Cs4
 .byte   N09 ,Gs4
 .byte   W60
@ 031   ----------------------------------------
 .byte   As3
 .byte   N09 ,Ds4
 .byte   W12
 .byte   As3
 .byte   N09 ,Ds4
 .byte   W12
 .byte   As3
 .byte   N09 ,Ds4
 .byte   W12
 .byte   As3
 .byte   N09 ,Ds4
 .byte   W60
@ 032   ----------------------------------------
 .byte   Gs3
 .byte   N09 ,Cs4
 .byte   W12
 .byte   Gs3
 .byte   N09 ,Cs4
 .byte   W12
 .byte   Gs3
 .byte   N09 ,Cs4
 .byte   W12
 .byte   Gs3
 .byte   N09 ,Cs4
 .byte   W12
 .byte   Gs3
 .byte   N09 ,Cs4
 .byte   W12
 .byte   Gs3
 .byte   N09 ,Cs4
 .byte   W12
 .byte   Gs3
 .byte   N09 ,Cs4
 .byte   W12
 .byte   Gs3
 .byte   N09 ,Cs4
 .byte   W12
@ 033   ----------------------------------------
 .byte   As3
 .byte   N09 ,Ds4
 .byte   W12
 .byte   As3
 .byte   N09 ,Ds4
 .byte   W12
 .byte   As3
 .byte   N09 ,Ds4
 .byte   W12
 .byte   As3
 .byte   N09 ,Ds4
 .byte   W12
 .byte   As3
 .byte   N09 ,Ds4
 .byte   W12
 .byte   As3
 .byte   N09 ,Ds4
 .byte   W12
 .byte   As3
 .byte   N09 ,Ds4
 .byte   W12
 .byte   As3
 .byte   N09 ,Ds4
 .byte   W12
@ 034   ----------------------------------------
 .byte   VOL , 28*songC6_mvl/mxv
 .byte   N19 ,Fn3 ,v080
 .byte   N19 ,As3
 .byte   W24
 .byte   N09 ,Fn3
 .byte   N09 ,As3
 .byte   W12
 .byte   N19 ,Fn3
 .byte   N19 ,As3
 .byte   W24
 .byte   N09 ,Fn3
 .byte   N09 ,As3
 .byte   W12
 .byte   Fn3
 .byte   N09 ,As3
 .byte   W12
 .byte   Fn3
 .byte   N09 ,As3
 .byte   W12
@ 035   ----------------------------------------
Label_8_014777C9:
 .byte   N09 ,Fn3 ,v080
 .byte   N09 ,As3
 .byte   W12
 .byte   Fn3
 .byte   N09 ,As3
 .byte   W12
 .byte   Fn3
 .byte   N09 ,As3
 .byte   W12
 .byte   Fn3
 .byte   N09 ,As3
 .byte   W12
 .byte   Fn3
 .byte   N09 ,As3
 .byte   W12
 .byte   Fn3
 .byte   N09 ,As3
 .byte   W12
 .byte   Fn3
 .byte   N09 ,As3
 .byte   W12
 .byte   Fn3
 .byte   N09 ,As3
 .byte   W12
 .byte   PEND 
@ 036   ----------------------------------------
Label_8_014777EC:
 .byte   N19 ,Fn3 ,v080
 .byte   N19 ,As3
 .byte   W24
 .byte   N09 ,Fn3
 .byte   N09 ,As3
 .byte   W12
 .byte   N19 ,Fn3
 .byte   N19 ,As3
 .byte   W24
 .byte   N09 ,Fn3
 .byte   N09 ,As3
 .byte   W12
 .byte   Fn3
 .byte   N09 ,As3
 .byte   W12
 .byte   Fn3
 .byte   N09 ,As3
 .byte   W12
 .byte   PEND 
@ 037   ----------------------------------------
 .byte   PATT
  .word Label_8_014777EC
@ 038   ----------------------------------------
Label_8_0147780F:
 .byte   N09 ,Fn3 ,v080
 .byte   N09 ,As3
 .byte   W12
 .byte   Fn3
 .byte   N09 ,As3
 .byte   W12
 .byte   Fn3
 .byte   N09 ,As3
 .byte   W12
 .byte   Ds3
 .byte   N09 ,Gs3
 .byte   W12
 .byte   Ds3
 .byte   N09 ,Gs3
 .byte   W12
 .byte   Ds3
 .byte   N09 ,Gs3
 .byte   W12
 .byte   Ds3
 .byte   N09 ,Gs3
 .byte   W12
 .byte   Ds3
 .byte   N09 ,Gs3
 .byte   W12
 .byte   PEND 
@ 039   ----------------------------------------
Label_8_01477832:
 .byte   N09 ,Fn3 ,v080
 .byte   N09 ,As3
 .byte   W12
 .byte   Fn3
 .byte   N09 ,As3
 .byte   W12
 .byte   Fn3
 .byte   N09 ,As3
 .byte   W12
 .byte   Fn3
 .byte   N09 ,As3
 .byte   W12
 .byte   Cs3
 .byte   N09 ,Gs3
 .byte   W12
 .byte   Cs3
 .byte   N09 ,Gs3
 .byte   W12
 .byte   Cs3
 .byte   N09 ,Gs3
 .byte   W12
 .byte   Cs3
 .byte   N09 ,Gs3
 .byte   W12
 .byte   PEND 
@ 040   ----------------------------------------
Label_8_01477855:
 .byte   N09 ,Ds3 ,v080
 .byte   N09 ,As3
 .byte   W12
 .byte   Ds3
 .byte   N09 ,As3
 .byte   W12
 .byte   Ds3
 .byte   N09 ,As3
 .byte   W12
 .byte   Ds3
 .byte   N09 ,Gs3
 .byte   W12
 .byte   Ds3
 .byte   N09 ,Gs3
 .byte   W12
 .byte   Ds3
 .byte   N09 ,Gs3
 .byte   W12
 .byte   Ds3
 .byte   N09 ,Gs3
 .byte   W12
 .byte   Ds3
 .byte   N09 ,Fs3
 .byte   W12
 .byte   PEND 
@ 041   ----------------------------------------
 .byte   Gs3 ,v096
 .byte   N09 ,Cn4
 .byte   W12
 .byte   Gs3
 .byte   N09 ,Cn4
 .byte   W12
 .byte   Gs3
 .byte   N09 ,Cn4
 .byte   W12
 .byte   Gs3
 .byte   N09 ,Cn4
 .byte   W12
 .byte   As3
 .byte   N09 ,Dn4
 .byte   W12
 .byte   As3
 .byte   N09 ,Dn4
 .byte   W12
 .byte   As3
 .byte   N09 ,Dn4
 .byte   W12
 .byte   As3
 .byte   N09 ,Dn4
 .byte   W12
@ 042   ----------------------------------------
 .byte   PATT
  .word Label_8_014777EC
@ 043   ----------------------------------------
 .byte   PATT
  .word Label_8_014777C9
@ 044   ----------------------------------------
 .byte   N09 ,Fn3 ,v080
 .byte   N09 ,As3
 .byte   W12
 .byte   Fn3
 .byte   N09 ,As3
 .byte   W12
 .byte   Fn3
 .byte   N09 ,As3
 .byte   W12
 .byte   Fn3
 .byte   N09 ,As3
 .byte   W12
 .byte   Fn3
 .byte   N09 ,As3
 .byte   W12
 .byte   Fn3
 .byte   N09 ,As3
 .byte   W12
 .byte   As3 ,v096
 .byte   N09 ,Ds4
 .byte   W12
 .byte   As3 ,v080
 .byte   N09 ,Ds4 ,v096
 .byte   W12
@ 045   ----------------------------------------
 .byte   Fn3 ,v080
 .byte   N09 ,As3
 .byte   W12
 .byte   Fn3
 .byte   N09 ,As3
 .byte   W12
 .byte   N09
 .byte   N09 ,Ds4 ,v096
 .byte   W12
 .byte   As3 ,v080
 .byte   N09 ,Ds4 ,v096
 .byte   W12
 .byte   Fn3 ,v080
 .byte   N09 ,As3
 .byte   W12
 .byte   Fn3
 .byte   N09 ,As3
 .byte   W12
 .byte   Fn3
 .byte   N09 ,As3
 .byte   W12
 .byte   Fn3
 .byte   N09 ,As3
 .byte   W12
@ 046   ----------------------------------------
Label_8_014778ED:
 .byte   N09 ,Fn3 ,v080
 .byte   N09 ,Gs3
 .byte   W12
 .byte   Fn3
 .byte   N09 ,Gs3
 .byte   W12
 .byte   Fn3
 .byte   N09 ,Gs3
 .byte   W12
 .byte   Fn3
 .byte   N09 ,Gs3
 .byte   W12
 .byte   Fn3
 .byte   N09 ,Gs3
 .byte   W12
 .byte   Fn3
 .byte   N09 ,Gs3
 .byte   W12
 .byte   N09
 .byte   N09 ,Cs4
 .byte   W12
 .byte   Gs3
 .byte   N09 ,Cs4
 .byte   W12
 .byte   PEND 
@ 047   ----------------------------------------
Label_8_01477910:
 .byte   N09 ,Fn3 ,v080
 .byte   N09 ,Gs3
 .byte   W12
 .byte   Fn3
 .byte   N09 ,Gs3
 .byte   W12
 .byte   N09
 .byte   N09 ,Cs4
 .byte   W12
 .byte   Gs3
 .byte   N09 ,Cs4
 .byte   W12
 .byte   Fn3
 .byte   N09 ,Gs3
 .byte   W12
 .byte   Fn3
 .byte   N09 ,Gs3
 .byte   W12
 .byte   N09
 .byte   N09 ,Cs4
 .byte   W12
 .byte   Gs3
 .byte   N09 ,Cs4
 .byte   W12
 .byte   PEND 
@ 048   ----------------------------------------
Label_8_01477933:
 .byte   N09 ,As3 ,v080
 .byte   N09 ,Ds4
 .byte   W12
 .byte   As3
 .byte   N09 ,Ds4
 .byte   W12
 .byte   As3
 .byte   W12
 .byte   Fn3
 .byte   N09 ,As3
 .byte   W12
 .byte   Ds3
 .byte   N09 ,As3
 .byte   W12
 .byte   Ds3
 .byte   N09 ,As3
 .byte   W12
 .byte   Ds3
 .byte   N09 ,As3
 .byte   W12
 .byte   Ds3
 .byte   N09 ,As3
 .byte   W12
 .byte   PEND 
@ 049   ----------------------------------------
Label_8_01477954:
 .byte   N09 ,Ds3 ,v080
 .byte   N09 ,Fn3
 .byte   W12
 .byte   Ds3
 .byte   N09 ,Fn3
 .byte   W12
 .byte   Ds3
 .byte   N09 ,Fn3
 .byte   W12
 .byte   As2
 .byte   N09 ,Ds3
 .byte   W12
 .byte   As2
 .byte   N09 ,Ds3
 .byte   W12
 .byte   As2
 .byte   N09 ,Ds3
 .byte   W12
 .byte   As2
 .byte   N09 ,Ds3
 .byte   W12
 .byte   As2
 .byte   N09 ,Ds3
 .byte   W12
 .byte   PEND 
@ 050   ----------------------------------------
 .byte   PATT
  .word Label_8_014777EC
@ 051   ----------------------------------------
 .byte   PATT
  .word Label_8_014777C9
@ 052   ----------------------------------------
 .byte   PATT
  .word Label_8_014777EC
@ 053   ----------------------------------------
 .byte   PATT
  .word Label_8_014777EC
@ 054   ----------------------------------------
 .byte   PATT
  .word Label_8_0147780F
@ 055   ----------------------------------------
 .byte   PATT
  .word Label_8_01477832
@ 056   ----------------------------------------
 .byte   PATT
  .word Label_8_01477855
@ 057   ----------------------------------------
 .byte   N09 ,Gs3 ,v080
 .byte   N09 ,Cn4
 .byte   W12
 .byte   Gs3
 .byte   N09 ,Cn4
 .byte   W12
 .byte   Gs3
 .byte   N09 ,Cn4
 .byte   W12
 .byte   Gs3
 .byte   N09 ,Cn4
 .byte   W12
 .byte   As3
 .byte   N09 ,Dn4
 .byte   W12
 .byte   As3
 .byte   N09 ,Dn4
 .byte   W12
 .byte   As3
 .byte   N09 ,Dn4
 .byte   W12
 .byte   As3
 .byte   N09 ,Dn4
 .byte   W12
@ 058   ----------------------------------------
 .byte   PATT
  .word Label_8_014777EC
@ 059   ----------------------------------------
 .byte   PATT
  .word Label_8_014777C9
@ 060   ----------------------------------------
 .byte   N09 ,Fn3 ,v080
 .byte   N09 ,As3
 .byte   W12
 .byte   Fn3
 .byte   N09 ,As3
 .byte   W12
 .byte   Fn3
 .byte   N09 ,As3
 .byte   W12
 .byte   Fn3
 .byte   N09 ,As3
 .byte   W12
 .byte   Fn3
 .byte   N09 ,As3
 .byte   W12
 .byte   Fn3
 .byte   N09 ,As3
 .byte   W12
 .byte   N09
 .byte   N09 ,Ds4
 .byte   W12
 .byte   As3
 .byte   N09 ,Ds4
 .byte   W12
@ 061   ----------------------------------------
 .byte   Fn3
 .byte   N09 ,As3
 .byte   W12
 .byte   Fn3
 .byte   N09 ,As3
 .byte   W12
 .byte   N09
 .byte   N09 ,Ds4
 .byte   W12
 .byte   As3
 .byte   N09 ,Ds4
 .byte   W12
 .byte   Fn3
 .byte   N09 ,As3
 .byte   W12
 .byte   Fn3
 .byte   N09 ,As3
 .byte   W12
 .byte   Fn3
 .byte   N09 ,As3
 .byte   W12
 .byte   Fn3
 .byte   N09 ,As3
 .byte   W12
@ 062   ----------------------------------------
 .byte   PATT
  .word Label_8_014778ED
@ 063   ----------------------------------------
 .byte   PATT
  .word Label_8_01477910
@ 064   ----------------------------------------
 .byte   PATT
  .word Label_8_01477933
@ 065   ----------------------------------------
 .byte   PATT
  .word Label_8_01477954
@ 066   ----------------------------------------
 .byte   VOL , 24*songC6_mvl/mxv
 .byte   N09 ,Fn3 ,v080
 .byte   N09 ,As3
 .byte   W12
 .byte   Fn3
 .byte   N09 ,As3
 .byte   W12
 .byte   Fn3
 .byte   N09 ,As3
 .byte   W12
 .byte   N12 ,Cs3 ,v096
 .byte   N12 ,Ds3 ,v080
 .byte   N09 ,Gs3
 .byte   W12
 .byte   N12 ,Cs3
 .byte   N09 ,Ds3
 .byte   N09 ,Gs3
 .byte   W12
 .byte   N12 ,Cs3
 .byte   N09 ,Ds3
 .byte   N09 ,Gs3
 .byte   W12
 .byte   N12 ,Cs3
 .byte   N09 ,Ds3
 .byte   N09 ,Gs3
 .byte   W12
 .byte   N12 ,Cs3 ,v096
 .byte   N09 ,Ds3 ,v080
 .byte   N09 ,Gs3
 .byte   W12
@ 067   ----------------------------------------
 .byte   Fn3
 .byte   N09 ,As3
 .byte   W12
 .byte   Fn3
 .byte   N09 ,As3
 .byte   W12
 .byte   Fn3
 .byte   N09 ,As3
 .byte   W12
 .byte   N12 ,Cs3 ,v096
 .byte   N09 ,Ds3 ,v080
 .byte   N09 ,Gs3
 .byte   W12
 .byte   N12 ,Cs3 ,v096
 .byte   N09 ,Ds3 ,v080
 .byte   N09 ,Gs3
 .byte   W12
 .byte   N12 ,Cs3 ,v096
 .byte   N09 ,Ds3 ,v080
 .byte   N09 ,Gs3
 .byte   W12
 .byte   N12 ,Cs3 ,v096
 .byte   N09 ,Ds3 ,v080
 .byte   N09 ,Gs3
 .byte   W12
 .byte   N12 ,Cs3 ,v096
 .byte   N09 ,Ds3 ,v080
 .byte   N09 ,Gs3
 .byte   W12
@ 068   ----------------------------------------
 .byte   GOTO
  .word Label_8_01477552
 .byte   FINE

@**************** Track 10 (Midi-Chn.9) ****************@

songC6_010:
@ 000   ----------------------------------------
 .byte   KEYSH , songC6_key+0
Label_9_01477A94:
 .byte   VOICE , 124
 .byte   VOL , 24*songC6_mvl/mxv
 .byte   PAN , c_v+0
 .byte   BEND , c_v+0
 .byte   N05 ,Fs2 ,v064
 .byte   W18
 .byte   Fs2 ,v032
 .byte   W06
 .byte   Fs2 ,v064
 .byte   W06
 .byte   Fs2 ,v032
 .byte   W06
 .byte   Fs2 ,v064
 .byte   W06
 .byte   Fs2 ,v032
 .byte   W06
 .byte   Fs2 ,v080
 .byte   W06
 .byte   Fs2 ,v032
 .byte   W12
 .byte   N05
 .byte   W06
 .byte   Fs2 ,v080
 .byte   W06
 .byte   Fs2 ,v032
 .byte   W06
 .byte   Fs2 ,v080
 .byte   W06
 .byte   Fs2 ,v032
 .byte   W06
@ 001   ----------------------------------------
 .byte   Fs2 ,v080
 .byte   W06
 .byte   Fs2 ,v032
 .byte   W06
 .byte   Fs2 ,v080
 .byte   W06
 .byte   Fs2 ,v032
 .byte   W06
 .byte   Fs2 ,v080
 .byte   W06
 .byte   Fs2 ,v032
 .byte   W06
 .byte   Fs2 ,v080
 .byte   W06
 .byte   Fs2 ,v032
 .byte   W06
 .byte   Dn1 ,v096
 .byte   N05 ,En1
 .byte   N05 ,Fs2 ,v080
 .byte   W12
 .byte   Dn1 ,v096
 .byte   N05 ,En1
 .byte   W12
 .byte   Fs2 ,v080
 .byte   W06
 .byte   Dn1 ,v096
 .byte   N05 ,En1
 .byte   W06
 .byte   Dn1
 .byte   N05 ,En1
 .byte   W12
@ 002   ----------------------------------------
Label_9_01477AF4:
 .byte   N05 ,Cn1 ,v080
 .byte   N05 ,Fs2 ,v096
 .byte   W06
 .byte   N05
 .byte   W06
 .byte   N05
 .byte   W06
 .byte   N05
 .byte   W06
 .byte   Dn1
 .byte   N05 ,En1
 .byte   N05 ,Fs1
 .byte   W06
 .byte   N05
 .byte   W06
 .byte   N05
 .byte   W06
 .byte   N05
 .byte   W06
 .byte   Cn1 ,v080
 .byte   N05 ,Fs2 ,v096
 .byte   W06
 .byte   N05
 .byte   W06
 .byte   N05
 .byte   W06
 .byte   N05
 .byte   W06
 .byte   Dn1 ,v080
 .byte   N05 ,En1
 .byte   N05 ,Fs1 ,v096
 .byte   W06
 .byte   N05
 .byte   W06
 .byte   N05
 .byte   W06
 .byte   N05
 .byte   W06
 .byte   PEND 
@ 003   ----------------------------------------
Label_9_01477B28:
 .byte   N05 ,Fs2 ,v096
 .byte   W06
 .byte   N05
 .byte   W06
 .byte   N05
 .byte   W06
 .byte   N05
 .byte   W06
 .byte   Dn1
 .byte   N05 ,En1 ,v127
 .byte   N05 ,Fs1 ,v096
 .byte   W06
 .byte   N05
 .byte   W06
 .byte   N05
 .byte   W06
 .byte   N05
 .byte   W06
 .byte   Cn1 ,v080
 .byte   N05 ,Fs2 ,v096
 .byte   W06
 .byte   N05
 .byte   W06
 .byte   N05
 .byte   W06
 .byte   N05
 .byte   W06
 .byte   Dn1
 .byte   N05 ,En1
 .byte   N05 ,Fs1 ,v080
 .byte   W06
 .byte   Fs1 ,v096
 .byte   W06
 .byte   N05
 .byte   W06
 .byte   N05
 .byte   W06
 .byte   PEND 
@ 004   ----------------------------------------
 .byte   PATT
  .word Label_9_01477AF4
@ 005   ----------------------------------------
 .byte   PATT
  .word Label_9_01477B28
@ 006   ----------------------------------------
 .byte   PATT
  .word Label_9_01477AF4
@ 007   ----------------------------------------
 .byte   PATT
  .word Label_9_01477B28
@ 008   ----------------------------------------
 .byte   N05 ,Cn1 ,v080
 .byte   N05 ,Fs2 ,v096
 .byte   W06
 .byte   N05
 .byte   W06
 .byte   N05
 .byte   W06
 .byte   N05
 .byte   W06
 .byte   Dn1
 .byte   N05 ,En1
 .byte   N05 ,Fs1
 .byte   W06
 .byte   N05
 .byte   W06
 .byte   N05
 .byte   W06
 .byte   N05
 .byte   W06
 .byte   Cn1 ,v080
 .byte   N05 ,Fs2 ,v096
 .byte   W06
 .byte   N05
 .byte   W06
 .byte   N05
 .byte   W06
 .byte   N05
 .byte   W06
 .byte   Dn1 ,v080
 .byte   N05 ,En1
 .byte   N05 ,Fs1 ,v096
 .byte   W06
 .byte   Cn1 ,v064
 .byte   N05 ,Fs1 ,v096
 .byte   W06
 .byte   Dn1 ,v080
 .byte   N05 ,En1
 .byte   N05 ,Fs1 ,v096
 .byte   W06
 .byte   Dn1 ,v080
 .byte   N05 ,En1
 .byte   N05 ,Fs1 ,v096
 .byte   W06
@ 009   ----------------------------------------
 .byte   Cn1
 .byte   N05 ,En1
 .byte   N05 ,Fs1
 .byte   N05 ,Fs2
 .byte   W12
 .byte   Dn1 ,v064
 .byte   N05 ,En1
 .byte   W12
 .byte   Cn1 ,v096
 .byte   N05 ,En1 ,v064
 .byte   N05 ,Fs1 ,v096
 .byte   N05 ,Fs2
 .byte   W12
 .byte   Dn1 ,v064
 .byte   N05 ,En1 ,v096
 .byte   W12
 .byte   Cn1 ,v064
 .byte   N05 ,En1
 .byte   N05 ,Fs1 ,v096
 .byte   N05 ,Fs2
 .byte   W06
 .byte   Dn1 ,v064
 .byte   N05 ,En1
 .byte   W06
 .byte   Cn1 ,v096
 .byte   N05 ,En1 ,v064
 .byte   W12
 .byte   N06 ,Cn1 ,v096
 .byte   N06 ,Dn1
 .byte   N10 ,Fs1
 .byte   N10 ,Fs2
 .byte   W12
 .byte   N05 ,Dn1 ,v064
 .byte   N05 ,En1
 .byte   W12
@ 010   ----------------------------------------
Label_9_01477BF5:
 .byte   N05 ,Cn1 ,v080
 .byte   N05 ,Fs1 ,v096
 .byte   W12
 .byte   Fs2
 .byte   W06
 .byte   N05
 .byte   W06
 .byte   Dn1
 .byte   N05 ,En1
 .byte   N05 ,Fs2
 .byte   W06
 .byte   N05
 .byte   W06
 .byte   N05
 .byte   W12
 .byte   Cn1 ,v080
 .byte   N05 ,Fs1 ,v096
 .byte   W12
 .byte   Fs2
 .byte   W06
 .byte   N05
 .byte   W06
 .byte   Dn1 ,v080
 .byte   N05 ,En1
 .byte   N05 ,Fs2 ,v096
 .byte   W06
 .byte   N05
 .byte   W06
 .byte   N05
 .byte   W12
 .byte   PEND 
@ 011   ----------------------------------------
 .byte   PATT
  .word Label_9_01477BF5
@ 012   ----------------------------------------
 .byte   PATT
  .word Label_9_01477BF5
@ 013   ----------------------------------------
Label_9_01477C2B:
 .byte   N05 ,Cn1 ,v080
 .byte   N05 ,Fs1 ,v096
 .byte   W12
 .byte   Fs2
 .byte   W06
 .byte   N05
 .byte   W06
 .byte   Dn1
 .byte   N05 ,En1
 .byte   N05 ,Fs2
 .byte   W06
 .byte   N05
 .byte   W06
 .byte   N05
 .byte   W12
 .byte   Cn1 ,v080
 .byte   N05 ,Fs1 ,v096
 .byte   W06
 .byte   Dn1
 .byte   N05 ,En1
 .byte   W06
 .byte   Cn1
 .byte   N05 ,Fs2
 .byte   W06
 .byte   N05
 .byte   W06
 .byte   N05
 .byte   W06
 .byte   N05
 .byte   W06
 .byte   Dn1
 .byte   N05 ,En1
 .byte   N05 ,Fs2
 .byte   W12
 .byte   PEND 
@ 014   ----------------------------------------
 .byte   PATT
  .word Label_9_01477BF5
@ 015   ----------------------------------------
 .byte   PATT
  .word Label_9_01477BF5
@ 016   ----------------------------------------
Label_9_01477C65:
 .byte   N05 ,Cn1 ,v080
 .byte   N05 ,Fs1 ,v096
 .byte   W12
 .byte   Fs2
 .byte   W06
 .byte   N05
 .byte   W06
 .byte   Dn1
 .byte   N05 ,En1
 .byte   N05 ,Fs2
 .byte   W06
 .byte   N05
 .byte   W06
 .byte   N05
 .byte   W12
 .byte   Cn1 ,v080
 .byte   N05 ,Fs1 ,v096
 .byte   W12
 .byte   Fs2
 .byte   W06
 .byte   N05
 .byte   W06
 .byte   Dn1 ,v080
 .byte   N05 ,En1
 .byte   N05 ,Fs2 ,v096
 .byte   W06
 .byte   N05
 .byte   W06
 .byte   Dn1
 .byte   N05 ,En1
 .byte   N05 ,Fs2
 .byte   W06
 .byte   Dn1
 .byte   N05 ,En1
 .byte   W06
 .byte   PEND 
@ 017   ----------------------------------------
 .byte   Cn1 ,v080
 .byte   N05 ,Fs1 ,v096
 .byte   W12
 .byte   Dn1
 .byte   N05 ,En1
 .byte   N05 ,Fs2
 .byte   W06
 .byte   N05
 .byte   W06
 .byte   Cn1
 .byte   N05 ,Fs2
 .byte   W06
 .byte   N05
 .byte   W06
 .byte   Dn1
 .byte   N05 ,En1
 .byte   N05 ,Fs2
 .byte   W12
 .byte   Cn1 ,v080
 .byte   N05 ,Fs1 ,v096
 .byte   W06
 .byte   En1
 .byte   W06
 .byte   Dn1
 .byte   N05 ,En1
 .byte   N05 ,Fs2
 .byte   W06
 .byte   N05
 .byte   W06
 .byte   Cn1
 .byte   N05 ,Fs2
 .byte   W06
 .byte   N05
 .byte   W06
 .byte   En1 ,v052
 .byte   N05 ,Fs2 ,v096
 .byte   W06
 .byte   Dn1
 .byte   N05 ,En1
 .byte   W06
@ 018   ----------------------------------------
 .byte   PATT
  .word Label_9_01477BF5
@ 019   ----------------------------------------
 .byte   PATT
  .word Label_9_01477BF5
@ 020   ----------------------------------------
 .byte   PATT
  .word Label_9_01477BF5
@ 021   ----------------------------------------
 .byte   PATT
  .word Label_9_01477C2B
@ 022   ----------------------------------------
 .byte   PATT
  .word Label_9_01477BF5
@ 023   ----------------------------------------
 .byte   PATT
  .word Label_9_01477BF5
@ 024   ----------------------------------------
 .byte   PATT
  .word Label_9_01477C65
@ 025   ----------------------------------------
 .byte   N05 ,Cn1 ,v096
 .byte   N05 ,Fs1
 .byte   W12
 .byte   Dn1
 .byte   N05 ,En1
 .byte   N05 ,Fs2
 .byte   W06
 .byte   N05
 .byte   W06
 .byte   Cn1
 .byte   N05 ,Fs2
 .byte   W06
 .byte   N05
 .byte   W06
 .byte   Dn1
 .byte   N05 ,En1
 .byte   N05 ,Fs2
 .byte   W12
 .byte   Cn1
 .byte   N05 ,Fs1
 .byte   W06
 .byte   Fs2
 .byte   W06
 .byte   Dn1
 .byte   N05 ,En1
 .byte   N05 ,Fs2
 .byte   W06
 .byte   N05
 .byte   W06
 .byte   Dn1 ,v112
 .byte   N05 ,En1
 .byte   N05 ,Fs2 ,v096
 .byte   W06
 .byte   N05
 .byte   W06
 .byte   Dn1 ,v112
 .byte   N05 ,En1
 .byte   N05 ,Fs2 ,v096
 .byte   W06
 .byte   Dn1
 .byte   N05 ,En1
 .byte   W06
@ 026   ----------------------------------------
Label_9_01477D34:
 .byte   N05 ,Bn0 ,v096
 .byte   N05 ,Dn1
 .byte   N05 ,En1
 .byte   N05 ,As1
 .byte   W18
 .byte   Bn0
 .byte   N05 ,Dn1
 .byte   N05 ,En1
 .byte   N05 ,As1
 .byte   W18
 .byte   Bn0
 .byte   N05 ,Dn1
 .byte   N05 ,En1
 .byte   N05 ,As1
 .byte   W36
 .byte   N10 ,Dn1 ,v112
 .byte   N10 ,Ds1
 .byte   N10 ,En1
 .byte   W12
 .byte   N05 ,Cn1 ,v096
 .byte   N05 ,En1
 .byte   W12
 .byte   PEND 
@ 027   ----------------------------------------
 .byte   PATT
  .word Label_9_01477D34
@ 028   ----------------------------------------
 .byte   PATT
  .word Label_9_01477D34
@ 029   ----------------------------------------
 .byte   PATT
  .word Label_9_01477D34
@ 030   ----------------------------------------
 .byte   PATT
  .word Label_9_01477D34
@ 031   ----------------------------------------
 .byte   PATT
  .word Label_9_01477D34
@ 032   ----------------------------------------
 .byte   N05 ,Bn0 ,v096
 .byte   N05 ,Dn1
 .byte   N05 ,En1
 .byte   W12
 .byte   Cn1
 .byte   N05 ,Fn2
 .byte   W06
 .byte   Bn0
 .byte   N05 ,Dn1
 .byte   N05 ,En1
 .byte   W12
 .byte   Cn1
 .byte   N05 ,Fn2
 .byte   W06
 .byte   Bn0
 .byte   N05 ,Dn1
 .byte   N05 ,En1
 .byte   W06
 .byte   Fn2
 .byte   W06
 .byte   Bn0
 .byte   N05 ,Dn1
 .byte   N05 ,En1
 .byte   W12
 .byte   Cn1
 .byte   N05 ,Fn2
 .byte   W06
 .byte   Bn0
 .byte   N05 ,Dn1
 .byte   N05 ,En1
 .byte   W12
 .byte   Cn1
 .byte   N05 ,Fn2
 .byte   W06
 .byte   Bn0
 .byte   N05 ,Dn1
 .byte   N05 ,En1
 .byte   W06
 .byte   Fn2
 .byte   W06
@ 033   ----------------------------------------
 .byte   Bn0
 .byte   N05 ,Dn1
 .byte   N05 ,En1
 .byte   N05 ,An2
 .byte   W12
 .byte   Cn1
 .byte   N05 ,Fn2
 .byte   W12
 .byte   Bn0
 .byte   N05 ,Dn1
 .byte   N05 ,En1
 .byte   N05 ,An2
 .byte   W12
 .byte   Cn1
 .byte   N05 ,Fn2
 .byte   W12
 .byte   N01 ,En1
 .byte   N01 ,Bn1 ,v076
 .byte   N01 ,An2 ,v096
 .byte   W02
 .byte   En1
 .byte   N01 ,Bn1 ,v076
 .byte   W02
 .byte   En1 ,v096
 .byte   N01 ,An1 ,v076
 .byte   W02
 .byte   N01
 .byte   W02
 .byte   Gn1
 .byte   W02
 .byte   N01
 .byte   W02
 .byte   N05 ,Bn0 ,v096
 .byte   N05 ,Fn2
 .byte   W12
 .byte   Dn1
 .byte   N05 ,En1
 .byte   W12
 .byte   Dn1
 .byte   N05 ,En1
 .byte   W06
 .byte   Dn1
 .byte   N05 ,En1
 .byte   W06
@ 034   ----------------------------------------
Label_9_01477DF4:
 .byte   N05 ,Cn1 ,v096
 .byte   N05 ,As1
 .byte   N05 ,Fn2
 .byte   W12
 .byte   Fs1
 .byte   W12
 .byte   Dn1
 .byte   N05 ,En1
 .byte   W12
 .byte   Fs1
 .byte   W12
 .byte   Cn1
 .byte   N05 ,As1
 .byte   N05 ,Fn2
 .byte   W12
 .byte   Fs1
 .byte   W12
 .byte   Dn1
 .byte   N05 ,En1
 .byte   W12
 .byte   Fs1
 .byte   W12
 .byte   PEND 
@ 035   ----------------------------------------
 .byte   PATT
  .word Label_9_01477DF4
@ 036   ----------------------------------------
 .byte   PATT
  .word Label_9_01477DF4
@ 037   ----------------------------------------
Label_9_01477E1D:
 .byte   N05 ,Cn1 ,v080
 .byte   N05 ,As1 ,v096
 .byte   N05 ,Fn2
 .byte   W12
 .byte   Fs1
 .byte   W12
 .byte   Dn1
 .byte   N05 ,En1
 .byte   W12
 .byte   Fs1
 .byte   W12
 .byte   Cn1 ,v080
 .byte   N05 ,As1 ,v096
 .byte   N05 ,Fn2
 .byte   W06
 .byte   Dn1
 .byte   N05 ,En1
 .byte   W06
 .byte   Cn1
 .byte   W24
 .byte   Dn1
 .byte   N05 ,En1
 .byte   N05 ,As1
 .byte   W12
 .byte   PEND 
@ 038   ----------------------------------------
 .byte   PATT
  .word Label_9_01477DF4
@ 039   ----------------------------------------
 .byte   PATT
  .word Label_9_01477DF4
@ 040   ----------------------------------------
Label_9_01477E4D:
 .byte   N05 ,Cn1 ,v096
 .byte   N05 ,As1
 .byte   N05 ,Ds2
 .byte   W12
 .byte   Fs1
 .byte   W12
 .byte   Dn1
 .byte   N05 ,En1
 .byte   W12
 .byte   Fs1
 .byte   W12
 .byte   Cn1
 .byte   N05 ,As1
 .byte   N05 ,Ds2
 .byte   W12
 .byte   Fs1
 .byte   W12
 .byte   Dn1 ,v080
 .byte   N05 ,En1
 .byte   W06
 .byte   Cn1 ,v064
 .byte   W06
 .byte   Dn1 ,v080
 .byte   N05 ,En1
 .byte   W06
 .byte   Dn1
 .byte   N05 ,En1
 .byte   W06
 .byte   PEND 
@ 041   ----------------------------------------
Label_9_01477E77:
 .byte   N05 ,Cn1 ,v096
 .byte   N05 ,En1
 .byte   N05 ,Fn2
 .byte   N05 ,Fs2
 .byte   W12
 .byte   Dn1 ,v064
 .byte   N05 ,En1
 .byte   W12
 .byte   Cn1 ,v096
 .byte   N05 ,En1 ,v064
 .byte   N05 ,Fn2 ,v096
 .byte   N05 ,Fs2
 .byte   W12
 .byte   Dn1 ,v064
 .byte   N05 ,En1 ,v096
 .byte   W12
 .byte   Cn1 ,v064
 .byte   N05 ,En1
 .byte   N05 ,Fn2 ,v096
 .byte   N05 ,Fs2
 .byte   W06
 .byte   Dn1 ,v064
 .byte   N05 ,En1
 .byte   W06
 .byte   Cn1 ,v096
 .byte   N05 ,En1 ,v064
 .byte   W12
 .byte   N06 ,Cn1 ,v096
 .byte   N06 ,Dn1
 .byte   N10 ,En1
 .byte   N06 ,Fn2
 .byte   N06 ,Fs2
 .byte   W12
 .byte   N05 ,Dn1
 .byte   N05 ,En1
 .byte   N05 ,Fn2
 .byte   W06
 .byte   Dn1
 .byte   N05 ,En1
 .byte   W06
 .byte   PEND 
@ 042   ----------------------------------------
 .byte   PATT
  .word Label_9_01477DF4
@ 043   ----------------------------------------
 .byte   PATT
  .word Label_9_01477DF4
@ 044   ----------------------------------------
 .byte   PATT
  .word Label_9_01477DF4
@ 045   ----------------------------------------
 .byte   PATT
  .word Label_9_01477E1D
@ 046   ----------------------------------------
 .byte   PATT
  .word Label_9_01477DF4
@ 047   ----------------------------------------
 .byte   PATT
  .word Label_9_01477E1D
@ 048   ----------------------------------------
 .byte   PATT
  .word Label_9_01477E4D
@ 049   ----------------------------------------
 .byte   PATT
  .word Label_9_01477E77
@ 050   ----------------------------------------
 .byte   PATT
  .word Label_9_01477DF4
@ 051   ----------------------------------------
 .byte   PATT
  .word Label_9_01477DF4
@ 052   ----------------------------------------
 .byte   PATT
  .word Label_9_01477DF4
@ 053   ----------------------------------------
 .byte   PATT
  .word Label_9_01477E1D
@ 054   ----------------------------------------
 .byte   PATT
  .word Label_9_01477DF4
@ 055   ----------------------------------------
 .byte   PATT
  .word Label_9_01477DF4
@ 056   ----------------------------------------
 .byte   PATT
  .word Label_9_01477E4D
@ 057   ----------------------------------------
 .byte   PATT
  .word Label_9_01477E77
@ 058   ----------------------------------------
 .byte   PATT
  .word Label_9_01477DF4
@ 059   ----------------------------------------
 .byte   PATT
  .word Label_9_01477DF4
@ 060   ----------------------------------------
 .byte   PATT
  .word Label_9_01477DF4
@ 061   ----------------------------------------
 .byte   PATT
  .word Label_9_01477E1D
@ 062   ----------------------------------------
 .byte   PATT
  .word Label_9_01477DF4
@ 063   ----------------------------------------
 .byte   PATT
  .word Label_9_01477E1D
@ 064   ----------------------------------------
 .byte   PATT
  .word Label_9_01477E4D
@ 065   ----------------------------------------
 .byte   N05 ,Cn1 ,v096
 .byte   N05 ,Dn1
 .byte   N05 ,En1
 .byte   N05 ,Fn2
 .byte   N05 ,Fs2
 .byte   W12
 .byte   Dn1
 .byte   N05 ,En1
 .byte   W06
 .byte   Dn1
 .byte   W06
 .byte   Cn1
 .byte   N05 ,En1
 .byte   N05 ,Fn2
 .byte   N05 ,Fs2
 .byte   W12
 .byte   Dn1
 .byte   N05 ,En1
 .byte   W12
 .byte   Cn1
 .byte   N05 ,Dn1
 .byte   N05 ,En1
 .byte   N05 ,Fn2
 .byte   N05 ,Fs2
 .byte   W06
 .byte   Dn1
 .byte   N05 ,En1
 .byte   W06
 .byte   Cn1
 .byte   N05 ,Dn1
 .byte   N05 ,En1
 .byte   W12
 .byte   N06 ,Cn1
 .byte   N06 ,Dn1
 .byte   N10 ,En1
 .byte   N06 ,Fn2
 .byte   N06 ,Fs2
 .byte   W12
 .byte   N05 ,Dn1
 .byte   N05 ,En1
 .byte   N05 ,Fn2
 .byte   W06
 .byte   Dn1
 .byte   N05 ,En1
 .byte   W06
@ 066   ----------------------------------------
 .byte   En0
 .byte   N05 ,Fs1 ,v127
 .byte   N12 ,As1 ,v096
 .byte   W06
 .byte   N05 ,Gs1 ,v127
 .byte   W06
 .byte   Fs1
 .byte   W06
 .byte   En0 ,v096
 .byte   N05 ,Gs1 ,v127
 .byte   N12 ,As1 ,v096
 .byte   W06
 .byte   N05 ,Fs1 ,v127
 .byte   W06
 .byte   Gs1
 .byte   W06
 .byte   En0 ,v096
 .byte   N05 ,Fs1 ,v127
 .byte   N12 ,As1 ,v096
 .byte   W06
 .byte   N05 ,Gs1 ,v127
 .byte   W06
 .byte   En0 ,v096
 .byte   N05 ,Fs1 ,v127
 .byte   N12 ,As1 ,v096
 .byte   W06
 .byte   N05 ,Gs1 ,v127
 .byte   W06
 .byte   Fs1
 .byte   W06
 .byte   En0 ,v096
 .byte   N05 ,Gs1 ,v127
 .byte   N05 ,As1 ,v096
 .byte   W06
 .byte   Fs1 ,v127
 .byte   W06
 .byte   Gs1
 .byte   W06
 .byte   En0 ,v096
 .byte   N05 ,Fs1 ,v127
 .byte   N05 ,As1 ,v096
 .byte   W06
 .byte   Gs1 ,v127
 .byte   W06
@ 067   ----------------------------------------
 .byte   En0
 .byte   N05 ,Fs1
 .byte   N05 ,As1 ,v096
 .byte   W06
 .byte   Gs1 ,v127
 .byte   W06
 .byte   En0
 .byte   N05 ,Fs1
 .byte   N12 ,As1 ,v096
 .byte   W06
 .byte   N05 ,Gs1 ,v127
 .byte   W06
 .byte   En0
 .byte   N05 ,Fs1
 .byte   N12 ,As1 ,v096
 .byte   W06
 .byte   N05 ,Gs1 ,v127
 .byte   W06
 .byte   En0
 .byte   N05 ,Fs1
 .byte   N12 ,As1 ,v096
 .byte   W06
 .byte   N05 ,Gs1
 .byte   W06
 .byte   En0 ,v112
 .byte   N05 ,Dn1
 .byte   N05 ,En1
 .byte   N05 ,Fs1
 .byte   N12 ,As1
 .byte   W06
 .byte   N05 ,Dn1
 .byte   N05 ,En1
 .byte   N05 ,Gs1
 .byte   W06
 .byte   En0
 .byte   N05 ,Fs1
 .byte   N12 ,As1
 .byte   W06
 .byte   N05 ,Gs1
 .byte   W06
 .byte   En0
 .byte   N05 ,Dn1
 .byte   N05 ,En1
 .byte   N05 ,Fs1
 .byte   N12 ,As1
 .byte   W06
 .byte   N05 ,Gs1 ,v096
 .byte   W06
 .byte   En0
 .byte   N05 ,Dn1 ,v080
 .byte   N05 ,Fs1 ,v096
 .byte   N12 ,As1
 .byte   W06
 .byte   N05 ,Gs1
 .byte   W06
@ 068   ----------------------------------------
 .byte   GOTO
  .word Label_9_01477A94
 .byte   FINE

@**************** Track 11 (Midi-Chn.10) ****************@

songC6_011:
@ 000   ----------------------------------------
 .byte   KEYSH , songC6_key+0
Label_10_0147803A:
 .byte   VOICE , 1
 .byte   VOL , 38*songC6_mvl/mxv
 .byte   PAN , c_v+0
 .byte   BEND , c_v+0
 .byte   W96
@ 001   ----------------------------------------
 .byte   W96
@ 002   ----------------------------------------
 .byte   W96
@ 003   ----------------------------------------
 .byte   W96
@ 004   ----------------------------------------
 .byte   W96
@ 005   ----------------------------------------
 .byte   W96
@ 006   ----------------------------------------
 .byte   W96
@ 007   ----------------------------------------
 .byte   W96
@ 008   ----------------------------------------
 .byte   W96
@ 009   ----------------------------------------
 .byte   W96
@ 010   ----------------------------------------
 .byte   W96
@ 011   ----------------------------------------
 .byte   W96
@ 012   ----------------------------------------
 .byte   W96
@ 013   ----------------------------------------
 .byte   W96
@ 014   ----------------------------------------
 .byte   W96
@ 015   ----------------------------------------
 .byte   W96
@ 016   ----------------------------------------
 .byte   W96
@ 017   ----------------------------------------
 .byte   W96
@ 018   ----------------------------------------
 .byte   W96
@ 019   ----------------------------------------
 .byte   W96
@ 020   ----------------------------------------
 .byte   W96
@ 021   ----------------------------------------
 .byte   W96
@ 022   ----------------------------------------
 .byte   W96
@ 023   ----------------------------------------
 .byte   W96
@ 024   ----------------------------------------
 .byte   W96
@ 025   ----------------------------------------
 .byte   W48
 .byte   N12 ,Cs4 ,v112
 .byte   W12
 .byte   Ds4
 .byte   W12
 .byte   En4
 .byte   W12
 .byte   Gs4
 .byte   W12
@ 026   ----------------------------------------
 .byte   N60 ,Bn4
 .byte   W60
 .byte   N12 ,Cs5
 .byte   W12
 .byte   Bn4
 .byte   W12
 .byte   En4
 .byte   W12
@ 027   ----------------------------------------
 .byte   N48 ,Gs4
 .byte   W48
 .byte   N12
 .byte   W12
 .byte   Fs4
 .byte   W12
 .byte   N24 ,En4
 .byte   W24
@ 028   ----------------------------------------
 .byte   N60 ,Fs4
 .byte   W60
 .byte   N12 ,Bn4
 .byte   W12
 .byte   Fs4
 .byte   W12
 .byte   Ds4
 .byte   W12
@ 029   ----------------------------------------
 .byte   N48 ,En4
 .byte   W48
 .byte   N12 ,Cs4
 .byte   W12
 .byte   Ds4
 .byte   W12
 .byte   En4
 .byte   W12
 .byte   Gs4
 .byte   W12
@ 030   ----------------------------------------
 .byte   N48 ,Cs5 ,v080
 .byte   W96
@ 031   ----------------------------------------
 .byte   Ds5
 .byte   W48
 .byte   N24 ,As4
 .byte   W24
 .byte   Cs5
 .byte   W24
@ 032   ----------------------------------------
 .byte   N60
 .byte   W60
 .byte   N12 ,Cn5
 .byte   W12
 .byte   Cs5
 .byte   W12
 .byte   TIE ,Ds5
 .byte   W12
@ 033   ----------------------------------------
 .byte   W96
@ 034   ----------------------------------------
 .byte   EOT
 .byte   W96
@ 035   ----------------------------------------
 .byte   W96
@ 036   ----------------------------------------
 .byte   W96
@ 037   ----------------------------------------
 .byte   W96
@ 038   ----------------------------------------
 .byte   W96
@ 039   ----------------------------------------
 .byte   W96
@ 040   ----------------------------------------
 .byte   W96
@ 041   ----------------------------------------
 .byte   W96
@ 042   ----------------------------------------
 .byte   W96
@ 043   ----------------------------------------
 .byte   W96
@ 044   ----------------------------------------
 .byte   W96
@ 045   ----------------------------------------
 .byte   W96
@ 046   ----------------------------------------
 .byte   W96
@ 047   ----------------------------------------
 .byte   W96
@ 048   ----------------------------------------
 .byte   W96
@ 049   ----------------------------------------
Label_10_014780B6:
 .byte   W60
 .byte   N12 ,As3 ,v112
 .byte   W12
 .byte   Fn4
 .byte   W12
 .byte   Fs4
 .byte   W12
 .byte   PEND 
@ 050   ----------------------------------------
Label_10_014780C0:
 .byte   N24 ,Fn4 ,v112
 .byte   W24
 .byte   N12 ,Ds4
 .byte   W12
 .byte   N24 ,As3
 .byte   W24
 .byte   N12 ,Gs3
 .byte   W12
 .byte   Fs3
 .byte   W12
 .byte   N60 ,As3
 .byte   W12
 .byte   PEND 
@ 051   ----------------------------------------
 .byte   PATT
  .word Label_10_014780B6
@ 052   ----------------------------------------
 .byte   N24 ,Fn4 ,v112
 .byte   W24
 .byte   N12 ,Ds4
 .byte   W12
 .byte   N24 ,As3
 .byte   W24
 .byte   N12 ,Gs3
 .byte   W12
 .byte   As3
 .byte   W12
 .byte   N60 ,Ds3
 .byte   W12
@ 053   ----------------------------------------
 .byte   W60
 .byte   N12
 .byte   W12
 .byte   Fs3
 .byte   W12
 .byte   Gs3
 .byte   W12
@ 054   ----------------------------------------
 .byte   N36 ,As3
 .byte   W36
 .byte   N12 ,Gs3
 .byte   W12
 .byte   N36
 .byte   W36
 .byte   N06 ,Fs3
 .byte   W06
 .byte   Gs3
 .byte   W06
@ 055   ----------------------------------------
 .byte   N18 ,As3
 .byte   W18
 .byte   Bn3
 .byte   W18
 .byte   N12 ,As3
 .byte   W12
 .byte   N24 ,Gs3
 .byte   W24
 .byte   Fn3
 .byte   W24
@ 056   ----------------------------------------
 .byte   N36 ,Gs3
 .byte   W36
 .byte   N12 ,Fs3
 .byte   W12
 .byte   N48 ,As3
 .byte   W48
@ 057   ----------------------------------------
 .byte   PATT
  .word Label_10_014780B6
@ 058   ----------------------------------------
 .byte   PATT
  .word Label_10_014780C0
@ 059   ----------------------------------------
 .byte   PATT
  .word Label_10_014780B6
@ 060   ----------------------------------------
 .byte   N24 ,Gs4 ,v112
 .byte   W24
 .byte   N12 ,Fs4
 .byte   W12
 .byte   N24 ,Fn4
 .byte   W24
 .byte   N12 ,Fs4
 .byte   W12
 .byte   Gs4
 .byte   W12
 .byte   N60 ,As4
 .byte   W12
@ 061   ----------------------------------------
 .byte   W60
 .byte   N12 ,Ds4
 .byte   W12
 .byte   Fs4
 .byte   W12
 .byte   Gs4
 .byte   W12
@ 062   ----------------------------------------
 .byte   N36 ,As4
 .byte   W36
 .byte   N12 ,Gs4
 .byte   W12
 .byte   N36
 .byte   W36
 .byte   N06 ,Fs4
 .byte   W06
 .byte   Gs4
 .byte   W06
@ 063   ----------------------------------------
 .byte   N18 ,As4
 .byte   W18
 .byte   Bn4
 .byte   W18
 .byte   N12 ,As4
 .byte   W12
 .byte   N24 ,Gs4
 .byte   W24
 .byte   Fn4
 .byte   W24
@ 064   ----------------------------------------
 .byte   N36
 .byte   W36
 .byte   N12 ,Fs4
 .byte   W12
 .byte   N48 ,Ds4
 .byte   W48
@ 065   ----------------------------------------
 .byte   W96
@ 066   ----------------------------------------
 .byte   W96
@ 067   ----------------------------------------
 .byte   W96
@ 068   ----------------------------------------
 .byte   GOTO
  .word Label_10_0147803A
 .byte   FINE

@**************** Track 12 (Midi-Chn.11) ****************@

songC6_012:
@ 000   ----------------------------------------
 .byte   KEYSH , songC6_key+0
Label_11_0147816A:
 .byte   VOICE , 50
 .byte   VOL , 24*songC6_mvl/mxv
 .byte   PAN , c_v+0
 .byte   BEND , c_v+0
 .byte   W96
@ 001   ----------------------------------------
 .byte   W96
@ 002   ----------------------------------------
 .byte   W96
@ 003   ----------------------------------------
 .byte   W96
@ 004   ----------------------------------------
 .byte   W96
@ 005   ----------------------------------------
 .byte   W96
@ 006   ----------------------------------------
 .byte   W96
@ 007   ----------------------------------------
 .byte   W96
@ 008   ----------------------------------------
 .byte   W96
@ 009   ----------------------------------------
 .byte   W96
@ 010   ----------------------------------------
 .byte   W96
@ 011   ----------------------------------------
 .byte   W96
@ 012   ----------------------------------------
 .byte   W96
@ 013   ----------------------------------------
 .byte   W96
@ 014   ----------------------------------------
 .byte   W96
@ 015   ----------------------------------------
 .byte   W96
@ 016   ----------------------------------------
 .byte   W96
@ 017   ----------------------------------------
 .byte   W96
@ 018   ----------------------------------------
 .byte   W96
@ 019   ----------------------------------------
 .byte   W96
@ 020   ----------------------------------------
 .byte   W96
@ 021   ----------------------------------------
 .byte   W96
@ 022   ----------------------------------------
 .byte   W96
@ 023   ----------------------------------------
 .byte   W96
@ 024   ----------------------------------------
 .byte   W96
@ 025   ----------------------------------------
 .byte   W96
@ 026   ----------------------------------------
 .byte   N48 ,Bn2 ,v080
 .byte   N48 ,En3
 .byte   N48 ,Bn3
 .byte   W96
@ 027   ----------------------------------------
 .byte   Cs3 ,v096
 .byte   N48 ,En3
 .byte   N48 ,Gs3
 .byte   W96
@ 028   ----------------------------------------
 .byte   Fs2
 .byte   N48 ,Bn2
 .byte   N48 ,En3
 .byte   W96
@ 029   ----------------------------------------
 .byte   Fs2
 .byte   N48 ,Bn2
 .byte   N48 ,En3
 .byte   W48
 .byte   Cs2
 .byte   N48 ,Gs2
 .byte   N48 ,Cs3
 .byte   W48
@ 030   ----------------------------------------
 .byte   En3
 .byte   N48 ,Gs3
 .byte   N48 ,Cs4
 .byte   W96
@ 031   ----------------------------------------
 .byte   As3
 .byte   N48 ,Ds4
 .byte   W96
@ 032   ----------------------------------------
 .byte   N96 ,Cs3 ,v080
 .byte   N96 ,Fn3
 .byte   N96 ,Gs3
 .byte   N96 ,Cs4
 .byte   W96
@ 033   ----------------------------------------
 .byte   Ds3
 .byte   N96 ,Gn3
 .byte   N96 ,As3
 .byte   N96 ,Ds4
 .byte   W96
@ 034   ----------------------------------------
 .byte   W96
@ 035   ----------------------------------------
 .byte   W96
@ 036   ----------------------------------------
 .byte   W96
@ 037   ----------------------------------------
 .byte   W96
@ 038   ----------------------------------------
 .byte   W96
@ 039   ----------------------------------------
 .byte   W96
@ 040   ----------------------------------------
 .byte   W96
@ 041   ----------------------------------------
 .byte   W96
@ 042   ----------------------------------------
 .byte   W96
@ 043   ----------------------------------------
 .byte   W96
@ 044   ----------------------------------------
 .byte   W96
@ 045   ----------------------------------------
 .byte   W96
@ 046   ----------------------------------------
 .byte   W96
@ 047   ----------------------------------------
 .byte   W96
@ 048   ----------------------------------------
 .byte   W96
@ 049   ----------------------------------------
 .byte   W96
@ 050   ----------------------------------------
 .byte   W96
@ 051   ----------------------------------------
 .byte   W96
@ 052   ----------------------------------------
 .byte   W96
@ 053   ----------------------------------------
 .byte   W96
@ 054   ----------------------------------------
 .byte   W96
@ 055   ----------------------------------------
 .byte   W96
@ 056   ----------------------------------------
 .byte   W96
@ 057   ----------------------------------------
 .byte   W96
@ 058   ----------------------------------------
 .byte   W96
@ 059   ----------------------------------------
 .byte   W96
@ 060   ----------------------------------------
 .byte   W96
@ 061   ----------------------------------------
 .byte   W96
@ 062   ----------------------------------------
 .byte   W96
@ 063   ----------------------------------------
 .byte   W96
@ 064   ----------------------------------------
 .byte   W96
@ 065   ----------------------------------------
 .byte   W96
@ 066   ----------------------------------------
 .byte   W96
@ 067   ----------------------------------------
 .byte   W96
@ 068   ----------------------------------------
 .byte   GOTO
  .word Label_11_0147816A
 .byte   FINE

@******************************************************@
	.align	2

songC6:
	.byte	12	@ NumTrks
	.byte	0	@ NumBlks
	.byte	songC6_pri	@ Priority
	.byte	songC6_rev	@ Reverb.
    
	.word	songC6_grp
    
	.word	songC6_001
	.word	songC6_002
	.word	songC6_003
	.word	songC6_004
	.word	songC6_005
	.word	songC6_006
	.word	songC6_007
	.word	songC6_008
	.word	songC6_009
	.word	songC6_010
	.word	songC6_011
	.word	songC6_012

	.end
