//Event file generated from Sappy .s format.
	#include "MPlayDef.event"

	#define	songC6_grp  voicegroup001
	#define	songC6_pri  0
	#define	songC6_rev  208 //0xD0
	#define	songC6_mvl  127
	#define	songC6_key  0
	#define	songC6_tbs  1
	#define	songC6_exg  0
	#define	songC6_cmp  1

	// .rodata
	//	songC6
	ALIGN 4


//**************** Track 1 (Midi-Chn.0) ****************//

songC6_001:
// 000   ----------------------------------------
 BYTE   KEYSH   songC6_key+0
Label_0_01476216:
 BYTE   TEMPO   142*songC6_tbs/2
 BYTE   VOICE   63
 BYTE   VOL   29*songC6_mvl/mxv
 BYTE   PAN   c_v-7
 BYTE   W96
// 001   ----------------------------------------
 BYTE   W96
// 002   ----------------------------------------
 BYTE   W96
// 003   ----------------------------------------
 BYTE   W96
// 004   ----------------------------------------
 BYTE   W96
// 005   ----------------------------------------
 BYTE   W96
// 006   ----------------------------------------
 BYTE   W96
// 007   ----------------------------------------
 BYTE   W96
// 008   ----------------------------------------
 BYTE   W96
// 009   ----------------------------------------
 BYTE   W96
// 010   ----------------------------------------
 BYTE   W96
// 011   ----------------------------------------
 BYTE   W96
// 012   ----------------------------------------
 BYTE   W96
// 013   ----------------------------------------
 BYTE   W96
// 014   ----------------------------------------
 BYTE   W96
// 015   ----------------------------------------
Label_0_0147622D:
 BYTE   W48
 BYTE   N06  Fs4  v080
 BYTE   W12
 BYTE   N06
 BYTE   W12
 BYTE   N06
 BYTE   W12
 BYTE   En4
 BYTE   W12
 BYTE   PEND 
// 016   ----------------------------------------
Label_0_01476239:
 BYTE   N06  En4  v080
 BYTE   W12
 BYTE   N06
 BYTE   W12
 BYTE   N06
 BYTE   W12
 BYTE   Ds4
 BYTE   W12
 BYTE   N06
 BYTE   W12
 BYTE   N06
 BYTE   W12
 BYTE   N06
 BYTE   W12
 BYTE   En4
 BYTE   W12
 BYTE   PEND 
// 017   ----------------------------------------
Label_0_0147624C:
 BYTE   N06  En4  v080
 BYTE   W12
 BYTE   N06
 BYTE   W12
 BYTE   N06
 BYTE   W12
 BYTE   Fs4
 BYTE   W12
 BYTE   N06
 BYTE   W12
 BYTE   N06
 BYTE   W12
 BYTE   N06
 BYTE   W12
 BYTE   En4
 BYTE   W12
 BYTE   PEND 
// 018   ----------------------------------------
 BYTE   PATT
  POIN2 Label_0_01476239
// 019   ----------------------------------------
 BYTE   PATT
  POIN2 Label_0_0147624C
// 020   ----------------------------------------
 BYTE   PATT
  POIN2 Label_0_01476239
// 021   ----------------------------------------
 BYTE   PATT
  POIN2 Label_0_0147624C
// 022   ----------------------------------------
Label_0_01476273:
 BYTE   N06  En4  v080
 BYTE   W12
 BYTE   N06
 BYTE   W12
 BYTE   N06
 BYTE   W12
 BYTE   Ds4
 BYTE   W60
 BYTE   PEND 
// 023   ----------------------------------------
 BYTE   W96
// 024   ----------------------------------------
 BYTE   W96
// 025   ----------------------------------------
 BYTE   W96
// 026   ----------------------------------------
 BYTE   W96
// 027   ----------------------------------------
 BYTE   W96
// 028   ----------------------------------------
 BYTE   W96
// 029   ----------------------------------------
 BYTE   W96
// 030   ----------------------------------------
 BYTE   W96
// 031   ----------------------------------------
 BYTE   W96
// 032   ----------------------------------------
 BYTE   W96
// 033   ----------------------------------------
 BYTE   W96
// 034   ----------------------------------------
 BYTE   W96
// 035   ----------------------------------------
 BYTE   W96
// 036   ----------------------------------------
 BYTE   W96
// 037   ----------------------------------------
 BYTE   W96
// 038   ----------------------------------------
 BYTE   W96
// 039   ----------------------------------------
 BYTE   W96
// 040   ----------------------------------------
 BYTE   W96
// 041   ----------------------------------------
 BYTE   W96
// 042   ----------------------------------------
 BYTE   W96
// 043   ----------------------------------------
 BYTE   W96
// 044   ----------------------------------------
 BYTE   W96
// 045   ----------------------------------------
 BYTE   W96
// 046   ----------------------------------------
 BYTE   W96
// 047   ----------------------------------------
 BYTE   W96
// 048   ----------------------------------------
 BYTE   W96
// 049   ----------------------------------------
 BYTE   W96
// 050   ----------------------------------------
 BYTE   W96
// 051   ----------------------------------------
 BYTE   W96
// 052   ----------------------------------------
 BYTE   W96
// 053   ----------------------------------------
 BYTE   W96
// 054   ----------------------------------------
 BYTE   W96
// 055   ----------------------------------------
 BYTE   W96
// 056   ----------------------------------------
 BYTE   W96
// 057   ----------------------------------------
 BYTE   W96
// 058   ----------------------------------------
 BYTE   W96
// 059   ----------------------------------------
 BYTE   W96
// 060   ----------------------------------------
 BYTE   W96
// 061   ----------------------------------------
 BYTE   W96
// 062   ----------------------------------------
 BYTE   W96
// 063   ----------------------------------------
 BYTE   W96
// 064   ----------------------------------------
 BYTE   W96
// 065   ----------------------------------------
 BYTE   W96
// 066   ----------------------------------------
 BYTE   W96
// 067   ----------------------------------------
 BYTE   W96
// 068   ----------------------------------------
 BYTE   W96
// 069   ----------------------------------------
 BYTE   W96
// 070   ----------------------------------------
 BYTE   W96
// 071   ----------------------------------------
 BYTE   W96
// 072   ----------------------------------------
 BYTE   W96
// 073   ----------------------------------------
 BYTE   W96
// 074   ----------------------------------------
 BYTE   W96
// 075   ----------------------------------------
 BYTE   W96
// 076   ----------------------------------------
 BYTE   W96
// 077   ----------------------------------------
 BYTE   W96
// 078   ----------------------------------------
 BYTE   W96
// 079   ----------------------------------------
 BYTE   W96
// 080   ----------------------------------------
 BYTE   W96
// 081   ----------------------------------------
 BYTE   PATT
  POIN2 Label_0_0147622D
// 082   ----------------------------------------
 BYTE   PATT
  POIN2 Label_0_01476239
// 083   ----------------------------------------
 BYTE   PATT
  POIN2 Label_0_0147624C
// 084   ----------------------------------------
 BYTE   PATT
  POIN2 Label_0_01476239
// 085   ----------------------------------------
 BYTE   PATT
  POIN2 Label_0_0147624C
// 086   ----------------------------------------
 BYTE   PATT
  POIN2 Label_0_01476239
// 087   ----------------------------------------
 BYTE   PATT
  POIN2 Label_0_0147624C
// 088   ----------------------------------------
 BYTE   PATT
  POIN2 Label_0_01476239
// 089   ----------------------------------------
 BYTE   PATT
  POIN2 Label_0_0147624C
// 090   ----------------------------------------
 BYTE   PATT
  POIN2 Label_0_01476239
// 091   ----------------------------------------
 BYTE   PATT
  POIN2 Label_0_0147624C
// 092   ----------------------------------------
 BYTE   PATT
  POIN2 Label_0_01476239
// 093   ----------------------------------------
 BYTE   PATT
  POIN2 Label_0_0147624C
// 094   ----------------------------------------
 BYTE   PATT
  POIN2 Label_0_01476239
// 095   ----------------------------------------
 BYTE   PATT
  POIN2 Label_0_0147624C
// 096   ----------------------------------------
 BYTE   PATT
  POIN2 Label_0_01476273
// 097   ----------------------------------------
 BYTE   W96
// 098   ----------------------------------------
 BYTE   W96
// 099   ----------------------------------------
 BYTE   W96
// 100   ----------------------------------------
 BYTE   W96
// 101   ----------------------------------------
 BYTE   W96
// 102   ----------------------------------------
 BYTE   W96
// 103   ----------------------------------------
 BYTE   W96
// 104   ----------------------------------------
 BYTE   W96
// 105   ----------------------------------------
 BYTE   W96
// 106   ----------------------------------------
 BYTE   W96
// 107   ----------------------------------------
 BYTE   W96
// 108   ----------------------------------------
 BYTE   W96
// 109   ----------------------------------------
 BYTE   W96
// 110   ----------------------------------------
 BYTE   W96
// 111   ----------------------------------------
 BYTE   W96
// 112   ----------------------------------------
 BYTE   W96
// 113   ----------------------------------------
 BYTE   W96
// 114   ----------------------------------------
 BYTE   W96
// 115   ----------------------------------------
 BYTE   W96
// 116   ----------------------------------------
 BYTE   W96
// 117   ----------------------------------------
 BYTE   W96
// 118   ----------------------------------------
 BYTE   W96
// 119   ----------------------------------------
 BYTE   W96
// 120   ----------------------------------------
 BYTE   W96
// 121   ----------------------------------------
 BYTE   W96
// 122   ----------------------------------------
 BYTE   W96
// 123   ----------------------------------------
 BYTE   W96
// 124   ----------------------------------------
 BYTE   W96
// 125   ----------------------------------------
 BYTE   W96
// 126   ----------------------------------------
 BYTE   W96
// 127   ----------------------------------------
 BYTE   W96
// 128   ----------------------------------------
 BYTE   W96
// 129   ----------------------------------------
 BYTE   W96
// 130   ----------------------------------------
 BYTE   W96
// 131   ----------------------------------------
 BYTE   W96
// 132   ----------------------------------------
 BYTE   W96
// 133   ----------------------------------------
 BYTE   W96
// 134   ----------------------------------------
 BYTE   W96
// 135   ----------------------------------------
 BYTE   W96
// 136   ----------------------------------------
 BYTE   W96
// 137   ----------------------------------------
 BYTE   W96
// 138   ----------------------------------------
 BYTE   W96
// 139   ----------------------------------------
 BYTE   W96
// 140   ----------------------------------------
 BYTE   W96
// 141   ----------------------------------------
 BYTE   W96
// 142   ----------------------------------------
 BYTE   W96
// 143   ----------------------------------------
 BYTE   W96
// 144   ----------------------------------------
 BYTE   W96
// 145   ----------------------------------------
 BYTE   W96
// 146   ----------------------------------------
 BYTE   W96
// 147   ----------------------------------------
 BYTE   W96
// 148   ----------------------------------------
 BYTE   W96
// 149   ----------------------------------------
 BYTE   W96
// 150   ----------------------------------------
 BYTE   W96
// 151   ----------------------------------------
 BYTE   W96
// 152   ----------------------------------------
 BYTE   W96
// 153   ----------------------------------------
 BYTE   W96
// 154   ----------------------------------------
 BYTE   W96
// 155   ----------------------------------------
 BYTE   W96
// 156   ----------------------------------------
 BYTE   W96
// 157   ----------------------------------------
 BYTE   W96
// 158   ----------------------------------------
 BYTE   W96
// 159   ----------------------------------------
 BYTE   W96
// 160   ----------------------------------------
 BYTE   W96
// 161   ----------------------------------------
 BYTE   W96
// 162   ----------------------------------------
 BYTE   W96
// 163   ----------------------------------------
 BYTE   W96
// 164   ----------------------------------------
 BYTE   W96
// 165   ----------------------------------------
 BYTE   W96
// 166   ----------------------------------------
 BYTE   W96
// 167   ----------------------------------------
 BYTE   W96
// 168   ----------------------------------------
 BYTE   W96
// 169   ----------------------------------------
 BYTE   W96
// 170   ----------------------------------------
 BYTE   W96
// 171   ----------------------------------------
 BYTE   W96
// 172   ----------------------------------------
 BYTE   W96
// 173   ----------------------------------------
 BYTE   W96
// 174   ----------------------------------------
 BYTE   W96
// 175   ----------------------------------------
 BYTE   W96
// 176   ----------------------------------------
 BYTE   W96
// 177   ----------------------------------------
 BYTE   W96
// 178   ----------------------------------------
 BYTE   W96
// 179   ----------------------------------------
 BYTE   W96
// 180   ----------------------------------------
 BYTE   W96
// 181   ----------------------------------------
 BYTE   W96
// 182   ----------------------------------------
 BYTE   W96
// 183   ----------------------------------------
 BYTE   W96
// 184   ----------------------------------------
 BYTE   W96
// 185   ----------------------------------------
 BYTE   W96
// 186   ----------------------------------------
 BYTE   W96
// 187   ----------------------------------------
 BYTE   W96
// 188   ----------------------------------------
 BYTE   W48
 BYTE   N06  Gs4  v080
 BYTE   W12
 BYTE   N06
 BYTE   W12
 BYTE   N06
 BYTE   W12
 BYTE   Fs4
 BYTE   W12
// 189   ----------------------------------------
Label_0_0147636E:
 BYTE   N06  Fs4  v080
 BYTE   W12
 BYTE   N06
 BYTE   W12
 BYTE   N06
 BYTE   W12
 BYTE   Fn4
 BYTE   W12
 BYTE   N06
 BYTE   W12
 BYTE   N06
 BYTE   W12
 BYTE   N06
 BYTE   W12
 BYTE   Fs4
 BYTE   W12
 BYTE   PEND 
// 190   ----------------------------------------
Label_0_01476381:
 BYTE   N06  Fs4  v080
 BYTE   W12
 BYTE   N06
 BYTE   W12
 BYTE   N06
 BYTE   W12
 BYTE   Gs4
 BYTE   W12
 BYTE   N06
 BYTE   W12
 BYTE   N06
 BYTE   W12
 BYTE   N06
 BYTE   W12
 BYTE   Fs4
 BYTE   W12
 BYTE   PEND 
// 191   ----------------------------------------
 BYTE   PATT
  POIN2 Label_0_0147636E
// 192   ----------------------------------------
 BYTE   PATT
  POIN2 Label_0_01476381
// 193   ----------------------------------------
 BYTE   PATT
  POIN2 Label_0_0147636E
// 194   ----------------------------------------
 BYTE   PATT
  POIN2 Label_0_01476381
// 195   ----------------------------------------
 BYTE   PATT
  POIN2 Label_0_0147636E
// 196   ----------------------------------------
 BYTE   PATT
  POIN2 Label_0_01476381
// 197   ----------------------------------------
 BYTE   PATT
  POIN2 Label_0_0147636E
// 198   ----------------------------------------
 BYTE   PATT
  POIN2 Label_0_01476381
// 199   ----------------------------------------
 BYTE   PATT
  POIN2 Label_0_0147636E
// 200   ----------------------------------------
 BYTE   PATT
  POIN2 Label_0_01476381
// 201   ----------------------------------------
 BYTE   PATT
  POIN2 Label_0_0147636E
// 202   ----------------------------------------
 BYTE   PATT
  POIN2 Label_0_01476381
// 203   ----------------------------------------
 BYTE   N06  Fs4  v080
 BYTE   W12
 BYTE   N06
 BYTE   W12
 BYTE   N06
 BYTE   W12
 BYTE   Fn4
 BYTE   W60
// 204   ----------------------------------------
 BYTE   W48
 BYTE   GoTo
  POIN2 Label_0_01476216
 BYTE   FINE

//**************** Track 2 (Midi-Chn.1) ****************//

songC6_002:
// 000   ----------------------------------------
 BYTE   KEYSH   songC6_key+0
Label_1_014AD612:
 BYTE   VOICE   2
 BYTE   VOL   17*songC6_mvl/mxv
 BYTE   PAN   c_v-13
 BYTE   W24
 BYTE   N06  En3  v092
 BYTE   N06  Gs3
 BYTE   W48
 BYTE   En3
 BYTE   N06  Gs3
 BYTE   W24
// 001   ----------------------------------------
Label_1_014AD623:
 BYTE   W24
 BYTE   N06  En3  v092
 BYTE   N06  Gs3
 BYTE   W48
 BYTE   En3
 BYTE   N06  Gs3
 BYTE   W24
 BYTE   PEND 
// 002   ----------------------------------------
 BYTE   PATT
  POIN2 Label_1_014AD623
// 003   ----------------------------------------
 BYTE   PATT
  POIN2 Label_1_014AD623
// 004   ----------------------------------------
 BYTE   PATT
  POIN2 Label_1_014AD623
// 005   ----------------------------------------
 BYTE   PATT
  POIN2 Label_1_014AD623
// 006   ----------------------------------------
 BYTE   PATT
  POIN2 Label_1_014AD623
// 007   ----------------------------------------
 BYTE   W24
 BYTE   N06  En3  v096
 BYTE   N06  Gs3
 BYTE   W48
 BYTE   En3
 BYTE   N06  Gs3
 BYTE   W24
// 008   ----------------------------------------
Label_1_014AD653:
 BYTE   W24
 BYTE   N06  En3  v100
 BYTE   N06  Gs3
 BYTE   W48
 BYTE   En3
 BYTE   N06  Gs3
 BYTE   W24
 BYTE   PEND 
// 009   ----------------------------------------
 BYTE   PATT
  POIN2 Label_1_014AD653
// 010   ----------------------------------------
 BYTE   PATT
  POIN2 Label_1_014AD653
// 011   ----------------------------------------
 BYTE   PATT
  POIN2 Label_1_014AD653
// 012   ----------------------------------------
 BYTE   PATT
  POIN2 Label_1_014AD653
// 013   ----------------------------------------
 BYTE   PATT
  POIN2 Label_1_014AD653
// 014   ----------------------------------------
 BYTE   W24
 BYTE   N06  En3  v100
 BYTE   N06  Gs3
 BYTE   W72
// 015   ----------------------------------------
Label_1_014AD67F:
 BYTE   W60
 BYTE   N12  En3  v112
 BYTE   N12  Gs3
 BYTE   W24
 BYTE   En3
 BYTE   N12  Gs3
 BYTE   W12
 BYTE   PEND 
// 016   ----------------------------------------
Label_1_014AD68B:
 BYTE   W12
 BYTE   N12  En3  v112
 BYTE   N12  Gs3
 BYTE   W24
 BYTE   En3
 BYTE   N12  Gs3
 BYTE   W24
 BYTE   En3
 BYTE   N12  Gs3
 BYTE   W24
 BYTE   En3
 BYTE   N12  Gs3
 BYTE   W12
 BYTE   PEND 
// 017   ----------------------------------------
 BYTE   PATT
  POIN2 Label_1_014AD68B
// 018   ----------------------------------------
 BYTE   PATT
  POIN2 Label_1_014AD68B
// 019   ----------------------------------------
 BYTE   PATT
  POIN2 Label_1_014AD68B
// 020   ----------------------------------------
 BYTE   PATT
  POIN2 Label_1_014AD68B
// 021   ----------------------------------------
 BYTE   PATT
  POIN2 Label_1_014AD68B
// 022   ----------------------------------------
 BYTE   PATT
  POIN2 Label_1_014AD68B
// 023   ----------------------------------------
 BYTE   PATT
  POIN2 Label_1_014AD68B
// 024   ----------------------------------------
 BYTE   PATT
  POIN2 Label_1_014AD68B
// 025   ----------------------------------------
 BYTE   PATT
  POIN2 Label_1_014AD68B
// 026   ----------------------------------------
 BYTE   PATT
  POIN2 Label_1_014AD68B
// 027   ----------------------------------------
Label_1_014AD6D1:
 BYTE   W12
 BYTE   N12  En3  v112
 BYTE   N12  Gs3
 BYTE   W24
 BYTE   En3
 BYTE   N12  Gs3
 BYTE   W24
 BYTE   En3
 BYTE   N12  Fs3
 BYTE   W24
 BYTE   En3
 BYTE   N12  Fs3
 BYTE   W12
 BYTE   PEND 
// 028   ----------------------------------------
Label_1_014AD6E5:
 BYTE   W12
 BYTE   N12  En3  v112
 BYTE   N12  Fs3
 BYTE   W24
 BYTE   En3
 BYTE   N12  Fs3
 BYTE   W24
 BYTE   En3
 BYTE   N12  Fs3
 BYTE   W24
 BYTE   En3
 BYTE   N12  Fs3
 BYTE   W12
 BYTE   PEND 
// 029   ----------------------------------------
Label_1_014AD6F9:
 BYTE   W12
 BYTE   N12  En3  v112
 BYTE   N12  Fs3
 BYTE   W24
 BYTE   En3
 BYTE   N12  Fs3
 BYTE   W24
 BYTE   En3
 BYTE   N12  Gs3
 BYTE   W24
 BYTE   En3
 BYTE   N12  Gs3
 BYTE   W12
 BYTE   PEND 
// 030   ----------------------------------------
 BYTE   PATT
  POIN2 Label_1_014AD68B
// 031   ----------------------------------------
 BYTE   PATT
  POIN2 Label_1_014AD68B
// 032   ----------------------------------------
 BYTE   PATT
  POIN2 Label_1_014AD68B
// 033   ----------------------------------------
 BYTE   PATT
  POIN2 Label_1_014AD68B
// 034   ----------------------------------------
 BYTE   PATT
  POIN2 Label_1_014AD68B
// 035   ----------------------------------------
 BYTE   PATT
  POIN2 Label_1_014AD6D1
// 036   ----------------------------------------
 BYTE   PATT
  POIN2 Label_1_014AD6E5
// 037   ----------------------------------------
 BYTE   PATT
  POIN2 Label_1_014AD6F9
// 038   ----------------------------------------
 BYTE   PATT
  POIN2 Label_1_014AD68B
// 039   ----------------------------------------
Label_1_014AD73A:
 BYTE   W12
 BYTE   N12  En3  v112
 BYTE   N12  Gs3
 BYTE   W24
 BYTE   En3
 BYTE   N12  Gs3
 BYTE   W60
 BYTE   PEND 
// 040   ----------------------------------------
 BYTE   W24
 BYTE   En3
 BYTE   N12  Gs3
 BYTE   W72
// 041   ----------------------------------------
 BYTE   W24
 BYTE   En3
 BYTE   N12  Gs3
 BYTE   W72
// 042   ----------------------------------------
Label_1_014AD750:
 BYTE   W24
 BYTE   N12  Fs3  v112
 BYTE   N12  Gs3
 BYTE   W60
 BYTE   N12
 BYTE   N12  Cs4
 BYTE   W12
 BYTE   PEND 
// 043   ----------------------------------------
Label_1_014AD75C:
 BYTE   W36
 BYTE   N12  Fs3  v112
 BYTE   N12  Bn3
 BYTE   W60
 BYTE   PEND 
// 044   ----------------------------------------
Label_1_014AD764:
 BYTE   W24
 BYTE   N12  Fn3  v112
 BYTE   N12  As3
 BYTE   W60
 BYTE   Fs3
 BYTE   N12  As3
 BYTE   W12
 BYTE   PEND 
// 045   ----------------------------------------
Label_1_014AD770:
 BYTE   W36
 BYTE   N12  Ds3  v112
 BYTE   N12  Fs3
 BYTE   W12
 BYTE   N18  Ds3
 BYTE   N18  Gs3
 BYTE   W24
 BYTE   N06  Cs3
 BYTE   N06  Ds3
 BYTE   W06
 BYTE   Cs3
 BYTE   N06  Ds3
 BYTE   W06
 BYTE   N12
 BYTE   N12  Gs3
 BYTE   W12
 BYTE   PEND 
// 046   ----------------------------------------
Label_1_014AD78A:
 BYTE   N18  Ds3  v112
 BYTE   N18  Gs3
 BYTE   W24
 BYTE   N06  Cs3
 BYTE   N06  Ds3
 BYTE   W06
 BYTE   Cs3
 BYTE   N06  Ds3
 BYTE   W06
 BYTE   N12
 BYTE   N12  Gs3
 BYTE   W12
 BYTE   N18  Fn3
 BYTE   N18  As3
 BYTE   W24
 BYTE   N06  Ds3
 BYTE   N06  Fn3
 BYTE   W06
 BYTE   Ds3
 BYTE   N06  Fn3
 BYTE   W06
 BYTE   N12
 BYTE   N12  As3
 BYTE   W12
 BYTE   PEND 
// 047   ----------------------------------------
 BYTE   N18  Fn3
 BYTE   N18  As3
 BYTE   W24
 BYTE   N06  Ds3
 BYTE   N06  Fn3
 BYTE   W06
 BYTE   Ds3
 BYTE   N06  Fn3
 BYTE   W06
 BYTE   N12
 BYTE   N12  As3
 BYTE   W24
 BYTE   Fs3
 BYTE   N12  As3
 BYTE   W24
 BYTE   Fs3
 BYTE   N12  As3
 BYTE   W12
// 048   ----------------------------------------
Label_1_014AD7CA:
 BYTE   W12
 BYTE   N12  Fs3  v112
 BYTE   N12  As3
 BYTE   W24
 BYTE   Fs3
 BYTE   N12  As3
 BYTE   W24
 BYTE   Fs3
 BYTE   N12  As3
 BYTE   W24
 BYTE   Fs3
 BYTE   N12  As3
 BYTE   W12
 BYTE   PEND 
// 049   ----------------------------------------
Label_1_014AD7DE:
 BYTE   W12
 BYTE   N12  Fs3  v112
 BYTE   N12  As3
 BYTE   W24
 BYTE   Fs3
 BYTE   N12  As3
 BYTE   W24
 BYTE   Fn3
 BYTE   N12  As3
 BYTE   W24
 BYTE   Fn3
 BYTE   N12  As3
 BYTE   W12
 BYTE   PEND 
// 050   ----------------------------------------
Label_1_014AD7F2:
 BYTE   W12
 BYTE   N12  Fn3  v112
 BYTE   N12  As3
 BYTE   W24
 BYTE   Fn3
 BYTE   N12  As3
 BYTE   W24
 BYTE   Fn3
 BYTE   N12  As3
 BYTE   W24
 BYTE   Fn3
 BYTE   N12  As3
 BYTE   W12
 BYTE   PEND 
// 051   ----------------------------------------
Label_1_014AD806:
 BYTE   W12
 BYTE   N12  Fn3  v112
 BYTE   N12  As3
 BYTE   W24
 BYTE   Fn3
 BYTE   N12  As3
 BYTE   W24
 BYTE   Fs3
 BYTE   N12  As3
 BYTE   W24
 BYTE   Fs3
 BYTE   N12  As3
 BYTE   W12
 BYTE   PEND 
// 052   ----------------------------------------
 BYTE   PATT
  POIN2 Label_1_014AD7CA
// 053   ----------------------------------------
 BYTE   W12
 BYTE   N12  Fs3  v112
 BYTE   N12  As3
 BYTE   W24
 BYTE   Fs3
 BYTE   N12  As3
 BYTE   W24
 BYTE   Gs3
 BYTE   N12  Bn3
 BYTE   W24
 BYTE   Gs3
 BYTE   N12  Bn3
 BYTE   W12
// 054   ----------------------------------------
 BYTE   W12
 BYTE   Gs3
 BYTE   N12  Bn3
 BYTE   W24
 BYTE   Gs3
 BYTE   N12  Bn3
 BYTE   W24
 BYTE   Fs3
 BYTE   N12  As3
 BYTE   W24
 BYTE   Fs3
 BYTE   N12  As3
 BYTE   W12
// 055   ----------------------------------------
 BYTE   PATT
  POIN2 Label_1_014AD806
// 056   ----------------------------------------
 BYTE   PATT
  POIN2 Label_1_014AD7CA
// 057   ----------------------------------------
 BYTE   PATT
  POIN2 Label_1_014AD7DE
// 058   ----------------------------------------
 BYTE   PATT
  POIN2 Label_1_014AD7F2
// 059   ----------------------------------------
 BYTE   PATT
  POIN2 Label_1_014AD806
// 060   ----------------------------------------
 BYTE   PATT
  POIN2 Label_1_014AD7CA
// 061   ----------------------------------------
 BYTE   W12
 BYTE   N12  Fn3  v112
 BYTE   N12  As3
 BYTE   W24
 BYTE   Fn3
 BYTE   N12  As3
 BYTE   W24
 BYTE   Gs3
 BYTE   N12  Bn3
 BYTE   W24
 BYTE   Gs3
 BYTE   N12  Bn3
 BYTE   W12
// 062   ----------------------------------------
 BYTE   W12
 BYTE   Gs3
 BYTE   N12  Bn3
 BYTE   W24
 BYTE   N06  Gs3
 BYTE   N06  Bn3
 BYTE   W06
 BYTE   Gs3
 BYTE   N06  Bn3
 BYTE   W06
 BYTE   N12  Fs3
 BYTE   N12  As3
 BYTE   W12
 BYTE   Fs3
 BYTE   N12  As3
 BYTE   W12
 BYTE   Fs3
 BYTE   N12  As3
 BYTE   W24
// 063   ----------------------------------------
Label_1_014AD88F:
 BYTE   N06  Ds3  v112
 BYTE   N06  Fs3
 BYTE   W12
 BYTE   N12  Ds3
 BYTE   N12  Fs3
 BYTE   W12
 BYTE   Fn3
 BYTE   N12  Gs3
 BYTE   W24
 BYTE   Fs3
 BYTE   N12  As3
 BYTE   W12
 BYTE   Fs3
 BYTE   N12  As3
 BYTE   W12
 BYTE   Fs3
 BYTE   N12  As3
 BYTE   W24
 BYTE   PEND 
// 064   ----------------------------------------
 BYTE   PATT
  POIN2 Label_1_014AD88F
// 065   ----------------------------------------
 BYTE   PATT
  POIN2 Label_1_014AD88F
// 066   ----------------------------------------
 BYTE   PATT
  POIN2 Label_1_014AD88F
// 067   ----------------------------------------
 BYTE   PATT
  POIN2 Label_1_014AD88F
// 068   ----------------------------------------
 BYTE   PATT
  POIN2 Label_1_014AD88F
// 069   ----------------------------------------
 BYTE   PATT
  POIN2 Label_1_014AD88F
// 070   ----------------------------------------
 BYTE   PATT
  POIN2 Label_1_014AD88F
// 071   ----------------------------------------
 BYTE   PATT
  POIN2 Label_1_014AD88F
// 072   ----------------------------------------
 BYTE   PATT
  POIN2 Label_1_014AD88F
// 073   ----------------------------------------
 BYTE   PATT
  POIN2 Label_1_014AD88F
// 074   ----------------------------------------
 BYTE   PATT
  POIN2 Label_1_014AD88F
// 075   ----------------------------------------
 BYTE   PATT
  POIN2 Label_1_014AD88F
// 076   ----------------------------------------
 BYTE   PATT
  POIN2 Label_1_014AD88F
// 077   ----------------------------------------
 BYTE   PATT
  POIN2 Label_1_014AD88F
// 078   ----------------------------------------
 BYTE   PATT
  POIN2 Label_1_014AD88F
// 079   ----------------------------------------
 BYTE   N06  Ds3  v112
 BYTE   N06  Fs3
 BYTE   W12
 BYTE   N12  Ds3
 BYTE   N12  Fs3
 BYTE   W12
 BYTE   Fn3
 BYTE   N12  Gs3
 BYTE   W36
 BYTE   Fs3  v127
 BYTE   N12  As3
 BYTE   N12  Dn4
 BYTE   W18
 BYTE   N18  Fs3
 BYTE   N18  As3
 BYTE   N18  Dn4
 BYTE   W18
// 080   ----------------------------------------
 BYTE   W12
 BYTE   N12  Fs3
 BYTE   N12  As3
 BYTE   N12  Dn4
 BYTE   W18
 BYTE   N18  Fs3
 BYTE   N18  As3
 BYTE   N18  Dn4
 BYTE   W30
 BYTE   N12  Fs3
 BYTE   N12  As3
 BYTE   N12  Cs4
 BYTE   W18
 BYTE   N18  Fs3
 BYTE   N18  As3
 BYTE   N18  Cs4
 BYTE   W18
// 081   ----------------------------------------
 BYTE   W12
 BYTE   N12  Fs3
 BYTE   N12  As3
 BYTE   N12  Cs4
 BYTE   W18
 BYTE   N18  Fs3
 BYTE   N18  As3
 BYTE   N18  Cs4
 BYTE   W66
// 082   ----------------------------------------
 BYTE   W96
// 083   ----------------------------------------
 BYTE   W96
// 084   ----------------------------------------
 BYTE   W96
// 085   ----------------------------------------
 BYTE   W96
// 086   ----------------------------------------
 BYTE   W96
// 087   ----------------------------------------
 BYTE   W96
// 088   ----------------------------------------
 BYTE   W96
// 089   ----------------------------------------
 BYTE   PATT
  POIN2 Label_1_014AD67F
// 090   ----------------------------------------
 BYTE   PATT
  POIN2 Label_1_014AD68B
// 091   ----------------------------------------
 BYTE   PATT
  POIN2 Label_1_014AD68B
// 092   ----------------------------------------
 BYTE   PATT
  POIN2 Label_1_014AD68B
// 093   ----------------------------------------
 BYTE   PATT
  POIN2 Label_1_014AD68B
// 094   ----------------------------------------
 BYTE   PATT
  POIN2 Label_1_014AD68B
// 095   ----------------------------------------
 BYTE   PATT
  POIN2 Label_1_014AD68B
// 096   ----------------------------------------
 BYTE   PATT
  POIN2 Label_1_014AD68B
// 097   ----------------------------------------
 BYTE   PATT
  POIN2 Label_1_014AD68B
// 098   ----------------------------------------
 BYTE   PATT
  POIN2 Label_1_014AD68B
// 099   ----------------------------------------
 BYTE   PATT
  POIN2 Label_1_014AD68B
// 100   ----------------------------------------
 BYTE   PATT
  POIN2 Label_1_014AD68B
// 101   ----------------------------------------
 BYTE   PATT
  POIN2 Label_1_014AD6D1
// 102   ----------------------------------------
 BYTE   PATT
  POIN2 Label_1_014AD6E5
// 103   ----------------------------------------
 BYTE   PATT
  POIN2 Label_1_014AD6F9
// 104   ----------------------------------------
 BYTE   PATT
  POIN2 Label_1_014AD68B
// 105   ----------------------------------------
 BYTE   PATT
  POIN2 Label_1_014AD68B
// 106   ----------------------------------------
 BYTE   PATT
  POIN2 Label_1_014AD68B
// 107   ----------------------------------------
 BYTE   PATT
  POIN2 Label_1_014AD68B
// 108   ----------------------------------------
 BYTE   PATT
  POIN2 Label_1_014AD68B
// 109   ----------------------------------------
 BYTE   PATT
  POIN2 Label_1_014AD6D1
// 110   ----------------------------------------
 BYTE   PATT
  POIN2 Label_1_014AD6E5
// 111   ----------------------------------------
 BYTE   PATT
  POIN2 Label_1_014AD6F9
// 112   ----------------------------------------
 BYTE   PATT
  POIN2 Label_1_014AD68B
// 113   ----------------------------------------
 BYTE   PATT
  POIN2 Label_1_014AD73A
// 114   ----------------------------------------
 BYTE   W24
 BYTE   N12  En3  v112
 BYTE   N12  Gs3
 BYTE   W72
// 115   ----------------------------------------
 BYTE   W24
 BYTE   En3
 BYTE   N12  Gs3
 BYTE   W72
// 116   ----------------------------------------
 BYTE   PATT
  POIN2 Label_1_014AD750
// 117   ----------------------------------------
 BYTE   PATT
  POIN2 Label_1_014AD75C
// 118   ----------------------------------------
 BYTE   PATT
  POIN2 Label_1_014AD764
// 119   ----------------------------------------
 BYTE   PATT
  POIN2 Label_1_014AD770
// 120   ----------------------------------------
 BYTE   PATT
  POIN2 Label_1_014AD78A
// 121   ----------------------------------------
 BYTE   N18  Fn3  v112
 BYTE   N18  As3
 BYTE   W24
 BYTE   N06  Ds3
 BYTE   N06  Fn3
 BYTE   W06
 BYTE   Ds3
 BYTE   N06  Fn3
 BYTE   W06
 BYTE   N12
 BYTE   N12  As3
 BYTE   W12
 BYTE   N18  Gn3
 BYTE   N18  Cn4
 BYTE   W24
 BYTE   N06  Fn3
 BYTE   N06  Gn3
 BYTE   W06
 BYTE   Fn3
 BYTE   N06  Gn3
 BYTE   W06
 BYTE   N12
 BYTE   N12  Cn4
 BYTE   W12
// 122   ----------------------------------------
 BYTE   N18  Gn3
 BYTE   N18  Cn4
 BYTE   W24
 BYTE   N06  Fn3
 BYTE   N06  Gn3
 BYTE   W06
 BYTE   Fn3
 BYTE   N06  Gn3
 BYTE   W06
 BYTE   N12
 BYTE   N12  Cn4
 BYTE   W24
 BYTE   Gs3
 BYTE   N12  Cn4
 BYTE   W24
 BYTE   Gs3
 BYTE   N12  Cn4
 BYTE   W12
// 123   ----------------------------------------
Label_1_014ADA27:
 BYTE   W12
 BYTE   N12  Gs3  v112
 BYTE   N12  Cn4
 BYTE   W24
 BYTE   Gs3
 BYTE   N12  Cn4
 BYTE   W24
 BYTE   Gs3
 BYTE   N12  Cn4
 BYTE   W24
 BYTE   Gs3
 BYTE   N12  Cn4
 BYTE   W12
 BYTE   PEND 
// 124   ----------------------------------------
Label_1_014ADA3B:
 BYTE   W12
 BYTE   N12  Gs3  v112
 BYTE   N12  Cn4
 BYTE   W24
 BYTE   Gs3
 BYTE   N12  Cn4
 BYTE   W24
 BYTE   Gn3
 BYTE   N12  Cn4
 BYTE   W24
 BYTE   Gn3
 BYTE   N12  Cn4
 BYTE   W12
 BYTE   PEND 
// 125   ----------------------------------------
Label_1_014ADA4F:
 BYTE   W12
 BYTE   N12  Gn3  v112
 BYTE   N12  Cn4
 BYTE   W24
 BYTE   Gn3
 BYTE   N12  Cn4
 BYTE   W24
 BYTE   Gn3
 BYTE   N12  Cn4
 BYTE   W24
 BYTE   Gn3
 BYTE   N12  Cn4
 BYTE   W12
 BYTE   PEND 
// 126   ----------------------------------------
Label_1_014ADA63:
 BYTE   W12
 BYTE   N12  Gn3  v112
 BYTE   N12  Cn4
 BYTE   W24
 BYTE   Gn3
 BYTE   N12  Cn4
 BYTE   W24
 BYTE   Gs3
 BYTE   N12  Cn4
 BYTE   W24
 BYTE   Gs3
 BYTE   N12  Cn4
 BYTE   W12
 BYTE   PEND 
// 127   ----------------------------------------
 BYTE   PATT
  POIN2 Label_1_014ADA27
// 128   ----------------------------------------
 BYTE   W12
 BYTE   N12  Gs3  v112
 BYTE   N12  Cn4
 BYTE   W24
 BYTE   Gs3
 BYTE   N12  Cn4
 BYTE   W24
 BYTE   As3
 BYTE   N12  Cs4
 BYTE   W24
 BYTE   As3
 BYTE   N12  Cs4
 BYTE   W12
// 129   ----------------------------------------
 BYTE   W12
 BYTE   As3
 BYTE   N12  Cs4
 BYTE   W24
 BYTE   As3
 BYTE   N12  Cs4
 BYTE   W24
 BYTE   Gs3
 BYTE   N12  Cn4
 BYTE   W24
 BYTE   Gs3
 BYTE   N12  Cn4
 BYTE   W12
// 130   ----------------------------------------
 BYTE   PATT
  POIN2 Label_1_014ADA63
// 131   ----------------------------------------
 BYTE   PATT
  POIN2 Label_1_014ADA27
// 132   ----------------------------------------
 BYTE   PATT
  POIN2 Label_1_014ADA3B
// 133   ----------------------------------------
 BYTE   PATT
  POIN2 Label_1_014ADA4F
// 134   ----------------------------------------
 BYTE   PATT
  POIN2 Label_1_014ADA63
// 135   ----------------------------------------
 BYTE   PATT
  POIN2 Label_1_014ADA27
// 136   ----------------------------------------
 BYTE   W12
 BYTE   N12  Gn3  v112
 BYTE   N12  Cn4
 BYTE   W24
 BYTE   Gn3
 BYTE   N12  Cn4
 BYTE   W24
 BYTE   As3
 BYTE   N12  Cs4
 BYTE   W24
 BYTE   As3
 BYTE   N12  Cs4
 BYTE   W12
// 137   ----------------------------------------
 BYTE   W12
 BYTE   As3
 BYTE   N12  Cs4
 BYTE   W24
 BYTE   N06  As3
 BYTE   N06  Cs4
 BYTE   W06
 BYTE   As3
 BYTE   N06  Cs4
 BYTE   W06
 BYTE   N12  Gs3
 BYTE   N12  Cn4
 BYTE   W12
 BYTE   Gs3
 BYTE   N12  Cn4
 BYTE   W12
 BYTE   Gs3
 BYTE   N12  Cn4
 BYTE   W24
// 138   ----------------------------------------
Label_1_014ADAEC:
 BYTE   N06  Fn3  v112
 BYTE   N06  Gs3
 BYTE   W12
 BYTE   N12  Fn3
 BYTE   N12  Gs3
 BYTE   W12
 BYTE   Gn3
 BYTE   N12  As3
 BYTE   W24
 BYTE   Gs3
 BYTE   N12  Cn4
 BYTE   W12
 BYTE   Gs3
 BYTE   N12  Cn4
 BYTE   W12
 BYTE   Gs3
 BYTE   N12  Cn4
 BYTE   W24
 BYTE   PEND 
// 139   ----------------------------------------
 BYTE   PATT
  POIN2 Label_1_014ADAEC
// 140   ----------------------------------------
 BYTE   PATT
  POIN2 Label_1_014ADAEC
// 141   ----------------------------------------
 BYTE   PATT
  POIN2 Label_1_014ADAEC
// 142   ----------------------------------------
 BYTE   PATT
  POIN2 Label_1_014ADAEC
// 143   ----------------------------------------
 BYTE   PATT
  POIN2 Label_1_014ADAEC
// 144   ----------------------------------------
 BYTE   PATT
  POIN2 Label_1_014ADAEC
// 145   ----------------------------------------
 BYTE   PATT
  POIN2 Label_1_014ADAEC
// 146   ----------------------------------------
 BYTE   PATT
  POIN2 Label_1_014ADAEC
// 147   ----------------------------------------
 BYTE   PATT
  POIN2 Label_1_014ADAEC
// 148   ----------------------------------------
 BYTE   PATT
  POIN2 Label_1_014ADAEC
// 149   ----------------------------------------
 BYTE   PATT
  POIN2 Label_1_014ADAEC
// 150   ----------------------------------------
 BYTE   PATT
  POIN2 Label_1_014ADAEC
// 151   ----------------------------------------
 BYTE   PATT
  POIN2 Label_1_014ADAEC
// 152   ----------------------------------------
 BYTE   PATT
  POIN2 Label_1_014ADAEC
// 153   ----------------------------------------
 BYTE   PATT
  POIN2 Label_1_014ADAEC
// 154   ----------------------------------------
 BYTE   N06  Fn3  v112
 BYTE   N06  Gs3
 BYTE   W12
 BYTE   N12  Fn3
 BYTE   N12  Gs3
 BYTE   W12
 BYTE   Gn3
 BYTE   N12  As3
 BYTE   W72
// 155   ----------------------------------------
 BYTE   W96
// 156   ----------------------------------------
 BYTE   W96
// 157   ----------------------------------------
 BYTE   W96
// 158   ----------------------------------------
 BYTE   W96
// 159   ----------------------------------------
 BYTE   W96
// 160   ----------------------------------------
 BYTE   W96
// 161   ----------------------------------------
 BYTE   W96
// 162   ----------------------------------------
 BYTE   W96
// 163   ----------------------------------------
 BYTE   W96
// 164   ----------------------------------------
 BYTE   W96
// 165   ----------------------------------------
 BYTE   W96
// 166   ----------------------------------------
 BYTE   W96
// 167   ----------------------------------------
 BYTE   W96
// 168   ----------------------------------------
 BYTE   W96
// 169   ----------------------------------------
 BYTE   W48
 BYTE   N18  Gn3
 BYTE   N18  Cn4
 BYTE   W24
 BYTE   N06  Fn3
 BYTE   N06  Gn3
 BYTE   W06
 BYTE   Fn3
 BYTE   N06  Gn3
 BYTE   W06
 BYTE   N12
 BYTE   N12  Cn4
 BYTE   W12
// 170   ----------------------------------------
 BYTE   N18  Gn3
 BYTE   N18  Cn4
 BYTE   W24
 BYTE   N06  Fn3
 BYTE   N06  Gn3
 BYTE   W06
 BYTE   Fn3
 BYTE   N06  Gn3
 BYTE   W06
 BYTE   N12
 BYTE   N12  Cn4
 BYTE   W12
 BYTE   Gs3
 BYTE   N12  Cn4
 BYTE   W12
 BYTE   Gs3
 BYTE   N12  Cn4
 BYTE   W12
 BYTE   Gs3
 BYTE   N12  Cn4
 BYTE   W24
// 171   ----------------------------------------
 BYTE   PATT
  POIN2 Label_1_014ADAEC
// 172   ----------------------------------------
 BYTE   PATT
  POIN2 Label_1_014ADAEC
// 173   ----------------------------------------
 BYTE   PATT
  POIN2 Label_1_014ADAEC
// 174   ----------------------------------------
 BYTE   PATT
  POIN2 Label_1_014ADAEC
// 175   ----------------------------------------
 BYTE   PATT
  POIN2 Label_1_014ADAEC
// 176   ----------------------------------------
 BYTE   PATT
  POIN2 Label_1_014ADAEC
// 177   ----------------------------------------
 BYTE   PATT
  POIN2 Label_1_014ADAEC
// 178   ----------------------------------------
 BYTE   PATT
  POIN2 Label_1_014ADAEC
// 179   ----------------------------------------
 BYTE   PATT
  POIN2 Label_1_014ADAEC
// 180   ----------------------------------------
 BYTE   PATT
  POIN2 Label_1_014ADAEC
// 181   ----------------------------------------
 BYTE   PATT
  POIN2 Label_1_014ADAEC
// 182   ----------------------------------------
 BYTE   PATT
  POIN2 Label_1_014ADAEC
// 183   ----------------------------------------
 BYTE   PATT
  POIN2 Label_1_014ADAEC
// 184   ----------------------------------------
 BYTE   PATT
  POIN2 Label_1_014ADAEC
// 185   ----------------------------------------
 BYTE   PATT
  POIN2 Label_1_014ADAEC
// 186   ----------------------------------------
 BYTE   N06  Fn3  v112
 BYTE   N06  Gs3
 BYTE   W12
 BYTE   N12  Fn3
 BYTE   N12  Gs3
 BYTE   W12
 BYTE   Gn3
 BYTE   N12  As3
 BYTE   W36
 BYTE   Gs3  v127
 BYTE   N12  Cn4
 BYTE   N12  En4
 BYTE   W18
 BYTE   N18  Gs3
 BYTE   N18  Cn4
 BYTE   N18  En4
 BYTE   W18
// 187   ----------------------------------------
 BYTE   W12
 BYTE   N12  Gs3
 BYTE   N12  Cn4
 BYTE   N12  En4
 BYTE   W18
 BYTE   N18  Gs3
 BYTE   N18  Cn4
 BYTE   N18  En4
 BYTE   W30
 BYTE   N12  Gs3
 BYTE   N12  Cn4
 BYTE   N12  Ds4
 BYTE   W18
 BYTE   N18  Gs3
 BYTE   N18  Cn4
 BYTE   N18  Ds4
 BYTE   W18
// 188   ----------------------------------------
 BYTE   W12
 BYTE   N12  Gs3
 BYTE   N12  Cn4
 BYTE   N12  Ds4
 BYTE   W18
 BYTE   N18  Gs3
 BYTE   N18  Cn4
 BYTE   N18  Ds4
 BYTE   W66
// 189   ----------------------------------------
 BYTE   W96
// 190   ----------------------------------------
 BYTE   W96
// 191   ----------------------------------------
 BYTE   W96
// 192   ----------------------------------------
 BYTE   W96
// 193   ----------------------------------------
 BYTE   W96
// 194   ----------------------------------------
 BYTE   W96
// 195   ----------------------------------------
 BYTE   W96
// 196   ----------------------------------------
 BYTE   W96
// 197   ----------------------------------------
 BYTE   W96
// 198   ----------------------------------------
 BYTE   W96
// 199   ----------------------------------------
 BYTE   W96
// 200   ----------------------------------------
 BYTE   W96
// 201   ----------------------------------------
 BYTE   W96
// 202   ----------------------------------------
 BYTE   W96
// 203   ----------------------------------------
 BYTE   W96
// 204   ----------------------------------------
 BYTE   W48
 BYTE   GoTo
  POIN2 Label_1_014AD612
 BYTE   FINE

//**************** Track 3 (Midi-Chn.2) ****************//

songC6_003:
// 000   ----------------------------------------
 BYTE   KEYSH   songC6_key+0
Label_2_01476406:
 BYTE   VOICE   1
 BYTE   VOL   30*songC6_mvl/mxv
 BYTE   PAN   c_v+12
 BYTE   W96
// 001   ----------------------------------------
 BYTE   W96
// 002   ----------------------------------------
 BYTE   W96
// 003   ----------------------------------------
 BYTE   W96
// 004   ----------------------------------------
 BYTE   W96
// 005   ----------------------------------------
 BYTE   W96
// 006   ----------------------------------------
 BYTE   W96
// 007   ----------------------------------------
 BYTE   W96
// 008   ----------------------------------------
 BYTE   W96
// 009   ----------------------------------------
 BYTE   W96
// 010   ----------------------------------------
 BYTE   W96
// 011   ----------------------------------------
 BYTE   W96
// 012   ----------------------------------------
 BYTE   W96
// 013   ----------------------------------------
 BYTE   W96
// 014   ----------------------------------------
 BYTE   W96
// 015   ----------------------------------------
 BYTE   W96
// 016   ----------------------------------------
 BYTE   W96
// 017   ----------------------------------------
 BYTE   W96
// 018   ----------------------------------------
 BYTE   W96
// 019   ----------------------------------------
 BYTE   W96
// 020   ----------------------------------------
 BYTE   W96
// 021   ----------------------------------------
 BYTE   W96
// 022   ----------------------------------------
 BYTE   W96
// 023   ----------------------------------------
 BYTE   W96
// 024   ----------------------------------------
 BYTE   W96
// 025   ----------------------------------------
 BYTE   W96
// 026   ----------------------------------------
 BYTE   W96
// 027   ----------------------------------------
 BYTE   W96
// 028   ----------------------------------------
 BYTE   W96
// 029   ----------------------------------------
 BYTE   W96
// 030   ----------------------------------------
 BYTE   W96
// 031   ----------------------------------------
 BYTE   W96
// 032   ----------------------------------------
 BYTE   W96
// 033   ----------------------------------------
 BYTE   W96
// 034   ----------------------------------------
 BYTE   W96
// 035   ----------------------------------------
 BYTE   W96
// 036   ----------------------------------------
 BYTE   W96
// 037   ----------------------------------------
 BYTE   W96
// 038   ----------------------------------------
 BYTE   W96
// 039   ----------------------------------------
Label_2_01476433:
 BYTE   N11  Bn3  v092
 BYTE   N11  Bn4
 BYTE   W12
 BYTE   En4
 BYTE   N11  En5
 BYTE   W12
 BYTE   Fs4
 BYTE   N11  Fs5
 BYTE   W12
 BYTE   Gs4
 BYTE   N11  Gs5
 BYTE   W12
 BYTE   N32  Bn4
 BYTE   N32  Bn5
 BYTE   W48
 BYTE   PEND 
// 040   ----------------------------------------
Label_2_0147644B:
 BYTE   W12
 BYTE   N11  Cs5  v092
 BYTE   N11  Cs6
 BYTE   W12
 BYTE   Bn4
 BYTE   N11  Bn5
 BYTE   W12
 BYTE   En4
 BYTE   N11  En5
 BYTE   W12
 BYTE   N32  Gs4
 BYTE   N32  Gs5
 BYTE   W48
 BYTE   PEND 
// 041   ----------------------------------------
Label_2_01476460:
 BYTE   N11  Gs4  v092
 BYTE   N11  Gs5
 BYTE   W12
 BYTE   Fs4
 BYTE   N11  Fs5
 BYTE   W12
 BYTE   En4
 BYTE   N11  En5
 BYTE   W24
 BYTE   N32  Fs4
 BYTE   N32  Fs5
 BYTE   W48
 BYTE   PEND 
// 042   ----------------------------------------
Label_2_01476474:
 BYTE   W12
 BYTE   N11  Bn4  v092
 BYTE   N11  Bn5
 BYTE   W12
 BYTE   Fs4
 BYTE   N11  Fs5
 BYTE   W12
 BYTE   Ds4
 BYTE   N11  Ds5
 BYTE   W12
 BYTE   N32  En4
 BYTE   N32  En5
 BYTE   W48
 BYTE   PEND 
// 043   ----------------------------------------
Label_2_01476489:
 BYTE   N11  Cs4  v092
 BYTE   N11  Cs5
 BYTE   W12
 BYTE   Ds4
 BYTE   N11  Ds5
 BYTE   W12
 BYTE   En4
 BYTE   N11  En5
 BYTE   W12
 BYTE   Gs4
 BYTE   N11  Gs5
 BYTE   W12
 BYTE   N44  Cs5
 BYTE   N44  Cs6
 BYTE   W48
 BYTE   PEND 
// 044   ----------------------------------------
Label_2_014764A1:
 BYTE   W48
 BYTE   N32  Ds5  v092
 BYTE   N32  Ds6
 BYTE   W48
 BYTE   PEND 
// 045   ----------------------------------------
Label_2_014764A9:
 BYTE   N11  As4  v092
 BYTE   N11  As5
 BYTE   W24
 BYTE   Cs5
 BYTE   N11  Cs6
 BYTE   W24
 BYTE   N32  Cs5
 BYTE   N32  Cs6
 BYTE   W48
 BYTE   PEND 
// 046   ----------------------------------------
Label_2_014764B9:
 BYTE   W12
 BYTE   N11  Cn5  v092
 BYTE   N11  Cn6
 BYTE   W12
 BYTE   Cs5
 BYTE   N11  Cs6
 BYTE   W12
 BYTE   N44  Ds5
 BYTE   N44  Ds6
 BYTE   W60
 BYTE   PEND 
// 047   ----------------------------------------
 BYTE   W96
// 048   ----------------------------------------
 BYTE   W96
// 049   ----------------------------------------
 BYTE   W96
// 050   ----------------------------------------
 BYTE   W96
// 051   ----------------------------------------
 BYTE   W96
// 052   ----------------------------------------
 BYTE   W96
// 053   ----------------------------------------
 BYTE   W96
// 054   ----------------------------------------
 BYTE   W96
// 055   ----------------------------------------
 BYTE   W96
// 056   ----------------------------------------
 BYTE   W96
// 057   ----------------------------------------
 BYTE   W96
// 058   ----------------------------------------
 BYTE   W96
// 059   ----------------------------------------
 BYTE   W96
// 060   ----------------------------------------
 BYTE   W96
// 061   ----------------------------------------
 BYTE   W96
// 062   ----------------------------------------
 BYTE   W96
// 063   ----------------------------------------
 BYTE   W96
// 064   ----------------------------------------
 BYTE   W96
// 065   ----------------------------------------
 BYTE   W96
// 066   ----------------------------------------
 BYTE   W96
// 067   ----------------------------------------
 BYTE   W96
// 068   ----------------------------------------
 BYTE   W96
// 069   ----------------------------------------
 BYTE   W96
// 070   ----------------------------------------
 BYTE   W96
// 071   ----------------------------------------
 BYTE   W96
// 072   ----------------------------------------
 BYTE   W96
// 073   ----------------------------------------
 BYTE   W96
// 074   ----------------------------------------
 BYTE   W96
// 075   ----------------------------------------
 BYTE   W96
// 076   ----------------------------------------
 BYTE   W96
// 077   ----------------------------------------
 BYTE   W96
// 078   ----------------------------------------
 BYTE   W96
// 079   ----------------------------------------
 BYTE   W96
// 080   ----------------------------------------
 BYTE   W96
// 081   ----------------------------------------
 BYTE   W96
// 082   ----------------------------------------
 BYTE   W96
// 083   ----------------------------------------
 BYTE   W96
// 084   ----------------------------------------
 BYTE   W96
// 085   ----------------------------------------
 BYTE   W96
// 086   ----------------------------------------
 BYTE   W96
// 087   ----------------------------------------
 BYTE   W96
// 088   ----------------------------------------
 BYTE   W96
// 089   ----------------------------------------
 BYTE   W96
// 090   ----------------------------------------
 BYTE   W96
// 091   ----------------------------------------
 BYTE   W96
// 092   ----------------------------------------
 BYTE   W96
// 093   ----------------------------------------
 BYTE   W96
// 094   ----------------------------------------
 BYTE   W96
// 095   ----------------------------------------
 BYTE   W96
// 096   ----------------------------------------
 BYTE   W48
 BYTE   N05  Fs5  v072
 BYTE   W06
 BYTE   Bn5
 BYTE   W06
 BYTE   Fn5  v076
 BYTE   W06
 BYTE   Bn5
 BYTE   W06
 BYTE   Fn5
 BYTE   W06
 BYTE   As5  v080
 BYTE   W06
 BYTE   En5
 BYTE   W06
 BYTE   As5
 BYTE   W06
// 097   ----------------------------------------
 BYTE   En5  v084
 BYTE   W06
 BYTE   An5
 BYTE   W06
 BYTE   Ds5
 BYTE   W06
 BYTE   An5  v088
 BYTE   W06
 BYTE   Ds5
 BYTE   W06
 BYTE   Gs5
 BYTE   W06
 BYTE   Dn5  v092
 BYTE   W06
 BYTE   Gs5
 BYTE   W54
// 098   ----------------------------------------
 BYTE   W96
// 099   ----------------------------------------
 BYTE   W96
// 100   ----------------------------------------
 BYTE   W96
// 101   ----------------------------------------
 BYTE   W96
// 102   ----------------------------------------
 BYTE   W96
// 103   ----------------------------------------
 BYTE   W96
// 104   ----------------------------------------
 BYTE   W96
// 105   ----------------------------------------
 BYTE   W96
// 106   ----------------------------------------
 BYTE   W96
// 107   ----------------------------------------
 BYTE   W96
// 108   ----------------------------------------
 BYTE   W96
// 109   ----------------------------------------
 BYTE   W96
// 110   ----------------------------------------
 BYTE   W96
// 111   ----------------------------------------
 BYTE   W96
// 112   ----------------------------------------
 BYTE   W96
// 113   ----------------------------------------
 BYTE   PATT
  POIN2 Label_2_01476433
// 114   ----------------------------------------
 BYTE   PATT
  POIN2 Label_2_0147644B
// 115   ----------------------------------------
 BYTE   PATT
  POIN2 Label_2_01476460
// 116   ----------------------------------------
 BYTE   PATT
  POIN2 Label_2_01476474
// 117   ----------------------------------------
 BYTE   PATT
  POIN2 Label_2_01476489
// 118   ----------------------------------------
 BYTE   PATT
  POIN2 Label_2_014764A1
// 119   ----------------------------------------
 BYTE   PATT
  POIN2 Label_2_014764A9
// 120   ----------------------------------------
 BYTE   PATT
  POIN2 Label_2_014764B9
// 121   ----------------------------------------
 BYTE   W48
 BYTE   N44  En5  v092
 BYTE   N44  En6
 BYTE   W48
// 122   ----------------------------------------
 BYTE   W96
// 123   ----------------------------------------
 BYTE   W96
// 124   ----------------------------------------
 BYTE   W96
// 125   ----------------------------------------
 BYTE   W96
// 126   ----------------------------------------
 BYTE   W96
// 127   ----------------------------------------
 BYTE   W96
// 128   ----------------------------------------
 BYTE   W96
// 129   ----------------------------------------
 BYTE   W96
// 130   ----------------------------------------
 BYTE   W96
// 131   ----------------------------------------
 BYTE   W96
// 132   ----------------------------------------
 BYTE   W96
// 133   ----------------------------------------
 BYTE   W96
// 134   ----------------------------------------
 BYTE   W96
// 135   ----------------------------------------
 BYTE   W96
// 136   ----------------------------------------
 BYTE   W96
// 137   ----------------------------------------
 BYTE   W96
// 138   ----------------------------------------
 BYTE   W96
// 139   ----------------------------------------
 BYTE   W96
// 140   ----------------------------------------
 BYTE   W96
// 141   ----------------------------------------
 BYTE   W96
// 142   ----------------------------------------
 BYTE   W96
// 143   ----------------------------------------
 BYTE   W96
// 144   ----------------------------------------
 BYTE   W96
// 145   ----------------------------------------
 BYTE   W96
// 146   ----------------------------------------
 BYTE   W96
// 147   ----------------------------------------
 BYTE   W96
// 148   ----------------------------------------
 BYTE   W96
// 149   ----------------------------------------
 BYTE   W96
// 150   ----------------------------------------
 BYTE   W96
// 151   ----------------------------------------
 BYTE   W96
// 152   ----------------------------------------
 BYTE   W96
// 153   ----------------------------------------
 BYTE   W96
// 154   ----------------------------------------
 BYTE   W96
// 155   ----------------------------------------
 BYTE   W96
// 156   ----------------------------------------
 BYTE   W96
// 157   ----------------------------------------
 BYTE   W96
// 158   ----------------------------------------
 BYTE   W96
// 159   ----------------------------------------
 BYTE   W96
// 160   ----------------------------------------
 BYTE   W96
// 161   ----------------------------------------
 BYTE   W96
// 162   ----------------------------------------
 BYTE   W96
// 163   ----------------------------------------
 BYTE   W96
// 164   ----------------------------------------
 BYTE   W96
// 165   ----------------------------------------
 BYTE   W96
// 166   ----------------------------------------
 BYTE   W96
// 167   ----------------------------------------
 BYTE   W96
// 168   ----------------------------------------
 BYTE   W96
// 169   ----------------------------------------
 BYTE   W96
// 170   ----------------------------------------
 BYTE   W96
// 171   ----------------------------------------
 BYTE   W96
// 172   ----------------------------------------
 BYTE   W96
// 173   ----------------------------------------
 BYTE   W96
// 174   ----------------------------------------
 BYTE   W96
// 175   ----------------------------------------
 BYTE   W96
// 176   ----------------------------------------
 BYTE   W96
// 177   ----------------------------------------
 BYTE   W96
// 178   ----------------------------------------
 BYTE   W96
// 179   ----------------------------------------
 BYTE   W96
// 180   ----------------------------------------
 BYTE   W96
// 181   ----------------------------------------
 BYTE   W96
// 182   ----------------------------------------
 BYTE   W96
// 183   ----------------------------------------
 BYTE   W96
// 184   ----------------------------------------
 BYTE   W96
// 185   ----------------------------------------
 BYTE   W96
// 186   ----------------------------------------
 BYTE   W96
// 187   ----------------------------------------
 BYTE   W96
// 188   ----------------------------------------
 BYTE   W96
// 189   ----------------------------------------
 BYTE   W96
// 190   ----------------------------------------
 BYTE   W96
// 191   ----------------------------------------
 BYTE   W96
// 192   ----------------------------------------
 BYTE   W96
// 193   ----------------------------------------
 BYTE   W96
// 194   ----------------------------------------
 BYTE   W96
// 195   ----------------------------------------
 BYTE   W96
// 196   ----------------------------------------
 BYTE   W96
// 197   ----------------------------------------
 BYTE   W96
// 198   ----------------------------------------
 BYTE   W96
// 199   ----------------------------------------
 BYTE   W96
// 200   ----------------------------------------
 BYTE   W96
// 201   ----------------------------------------
 BYTE   W96
// 202   ----------------------------------------
 BYTE   W96
// 203   ----------------------------------------
 BYTE   W96
// 204   ----------------------------------------
 BYTE   W48
 BYTE   GoTo
  POIN2 Label_2_01476406
 BYTE   FINE

//**************** Track 4 (Midi-Chn.3) ****************//

songC6_004:
// 000   ----------------------------------------
 BYTE   KEYSH   songC6_key+0
Label_3_01476762:
 BYTE   VOICE   34
 BYTE   PAN   c_v+0
 BYTE   VOL   32*songC6_mvl/mxv
 BYTE   W96
// 001   ----------------------------------------
 BYTE   W96
// 002   ----------------------------------------
 BYTE   W96
// 003   ----------------------------------------
 BYTE   W96
// 004   ----------------------------------------
 BYTE   W96
// 005   ----------------------------------------
 BYTE   W96
// 006   ----------------------------------------
 BYTE   W96
// 007   ----------------------------------------
 BYTE   W96
// 008   ----------------------------------------
 BYTE   W96
// 009   ----------------------------------------
 BYTE   W96
// 010   ----------------------------------------
 BYTE   W96
// 011   ----------------------------------------
 BYTE   W96
// 012   ----------------------------------------
 BYTE   W96
// 013   ----------------------------------------
 BYTE   W96
// 014   ----------------------------------------
 BYTE   W48
 BYTE   N05  Gs0  v068
 BYTE   W12
 BYTE   N05
 BYTE   W12
 BYTE   N05
 BYTE   W24
// 015   ----------------------------------------
 BYTE   N05
 BYTE   W12
 BYTE   N05
 BYTE   W12
 BYTE   Gs0  v076
 BYTE   W12
 BYTE   Gs0  v080
 BYTE   W12
 BYTE   N11  Cs1
 BYTE   W24
 BYTE   Fs1
 BYTE   W12
 BYTE   Gs1
 BYTE   W12
// 016   ----------------------------------------
Label_3_01476790:
 BYTE   N11  Cs1  v080
 BYTE   W24
 BYTE   Fs1
 BYTE   W12
 BYTE   Gs1
 BYTE   W12
 BYTE   Cs1
 BYTE   W24
 BYTE   Fs1
 BYTE   W12
 BYTE   Gs1
 BYTE   W12
 BYTE   PEND 
// 017   ----------------------------------------
Label_3_0147679F:
 BYTE   N11  Cs1  v080
 BYTE   W24
 BYTE   Fs1
 BYTE   W12
 BYTE   Gs1
 BYTE   W12
 BYTE   An0
 BYTE   W24
 BYTE   Ds1
 BYTE   W12
 BYTE   En1
 BYTE   W12
 BYTE   PEND 
// 018   ----------------------------------------
Label_3_014767AE:
 BYTE   N11  An0  v080
 BYTE   W24
 BYTE   Ds1
 BYTE   W12
 BYTE   En1
 BYTE   W12
 BYTE   An0
 BYTE   W24
 BYTE   Ds1
 BYTE   W12
 BYTE   En1
 BYTE   W12
 BYTE   PEND 
// 019   ----------------------------------------
Label_3_014767BD:
 BYTE   N11  An0  v080
 BYTE   W24
 BYTE   Fs1
 BYTE   W12
 BYTE   Gs1
 BYTE   W12
 BYTE   Cs1
 BYTE   W24
 BYTE   Fs1
 BYTE   W12
 BYTE   Gs1
 BYTE   W12
 BYTE   PEND 
// 020   ----------------------------------------
 BYTE   PATT
  POIN2 Label_3_01476790
// 021   ----------------------------------------
 BYTE   PATT
  POIN2 Label_3_0147679F
// 022   ----------------------------------------
 BYTE   PATT
  POIN2 Label_3_014767AE
// 023   ----------------------------------------
 BYTE   PATT
  POIN2 Label_3_014767BD
// 024   ----------------------------------------
 BYTE   PATT
  POIN2 Label_3_01476790
// 025   ----------------------------------------
 BYTE   PATT
  POIN2 Label_3_0147679F
// 026   ----------------------------------------
 BYTE   PATT
  POIN2 Label_3_014767AE
// 027   ----------------------------------------
Label_3_014767EF:
 BYTE   N11  An0  v080
 BYTE   W24
 BYTE   Ds1
 BYTE   W12
 BYTE   En1
 BYTE   W12
 BYTE   Gs0
 BYTE   W24
 BYTE   Ds1
 BYTE   W12
 BYTE   En1
 BYTE   W12
 BYTE   PEND 
// 028   ----------------------------------------
Label_3_014767FE:
 BYTE   N23  Gs1  v080
 BYTE   W24
 BYTE   Ds1
 BYTE   W24
 BYTE   N11  Gs0
 BYTE   W24
 BYTE   Ds1
 BYTE   W12
 BYTE   En1
 BYTE   W12
 BYTE   PEND 
// 029   ----------------------------------------
Label_3_0147680C:
 BYTE   N23  Ds1  v080
 BYTE   W24
 BYTE   Bn0
 BYTE   W24
 BYTE   N11  An0
 BYTE   W24
 BYTE   Ds1
 BYTE   W12
 BYTE   En1
 BYTE   W12
 BYTE   PEND 
// 030   ----------------------------------------
 BYTE   PATT
  POIN2 Label_3_014767EF
// 031   ----------------------------------------
Label_3_0147681F:
 BYTE   N11  Gs0  v080
 BYTE   W12
 BYTE   N05  Bn0
 BYTE   W06
 BYTE   Cs1
 BYTE   W06
 BYTE   N11  Ds1
 BYTE   W12
 BYTE   N05  Gs1
 BYTE   W06
 BYTE   Gs0
 BYTE   W06
 BYTE   N11  Cs1
 BYTE   W24
 BYTE   Fs1
 BYTE   W12
 BYTE   Gs1
 BYTE   W12
 BYTE   PEND 
// 032   ----------------------------------------
 BYTE   PATT
  POIN2 Label_3_01476790
// 033   ----------------------------------------
 BYTE   PATT
  POIN2 Label_3_0147679F
// 034   ----------------------------------------
 BYTE   PATT
  POIN2 Label_3_014767AE
// 035   ----------------------------------------
 BYTE   PATT
  POIN2 Label_3_014767EF
// 036   ----------------------------------------
 BYTE   PATT
  POIN2 Label_3_014767FE
// 037   ----------------------------------------
Label_3_01476851:
 BYTE   N23  Ds1  v080
 BYTE   W24
 BYTE   Bn0
 BYTE   W24
 BYTE   N11  Cs1
 BYTE   W24
 BYTE   Fs1
 BYTE   W12
 BYTE   Gs1
 BYTE   W12
 BYTE   PEND 
// 038   ----------------------------------------
Label_3_0147685F:
 BYTE   N11  Cs1  v080
 BYTE   W24
 BYTE   Fs1
 BYTE   W12
 BYTE   Gs1
 BYTE   W12
 BYTE   Cs1
 BYTE   W24
 BYTE   Ds1
 BYTE   W12
 BYTE   En1
 BYTE   W12
 BYTE   PEND 
// 039   ----------------------------------------
Label_3_0147686E:
 BYTE   N23  Gs0  v080
 BYTE   W24
 BYTE   N11  Fs1
 BYTE   W12
 BYTE   Gs1
 BYTE   W12
 BYTE   En1
 BYTE   W18
 BYTE   N05
 BYTE   W06
 BYTE   N11  Bn0
 BYTE   W12
 BYTE   N05  En1
 BYTE   W06
 BYTE   N05
 BYTE   W06
 BYTE   PEND 
// 040   ----------------------------------------
Label_3_01476884:
 BYTE   W48
 BYTE   N11  An1  v080
 BYTE   W18
 BYTE   N05
 BYTE   W06
 BYTE   N11  En1
 BYTE   W12
 BYTE   N05  An1
 BYTE   W06
 BYTE   N05
 BYTE   W06
 BYTE   PEND 
// 041   ----------------------------------------
Label_3_01476894:
 BYTE   W48
 BYTE   N11  Gs1  v080
 BYTE   W18
 BYTE   N05
 BYTE   W06
 BYTE   N11  Gs0
 BYTE   W12
 BYTE   N05  Gs1
 BYTE   W06
 BYTE   N05
 BYTE   W06
 BYTE   PEND 
// 042   ----------------------------------------
Label_3_014768A4:
 BYTE   W48
 BYTE   N11  Cs2  v080
 BYTE   W18
 BYTE   N05
 BYTE   W06
 BYTE   Cs1
 BYTE   W06
 BYTE   Gs1
 BYTE   W06
 BYTE   N11  Cs2
 BYTE   W12
 BYTE   PEND 
// 043   ----------------------------------------
Label_3_014768B3:
 BYTE   N05  Bn1  v080
 BYTE   W18
 BYTE   N05
 BYTE   W06
 BYTE   Cs1
 BYTE   W06
 BYTE   Fs1
 BYTE   W06
 BYTE   N11  Bn1
 BYTE   W12
 BYTE   As1
 BYTE   W18
 BYTE   N05
 BYTE   W06
 BYTE   N11  Fn1
 BYTE   W12
 BYTE   N05  As1
 BYTE   W06
 BYTE   N05
 BYTE   W06
 BYTE   PEND 
// 044   ----------------------------------------
Label_3_014768CD:
 BYTE   W48
 BYTE   N11  Ds2  v080
 BYTE   W18
 BYTE   N05
 BYTE   W06
 BYTE   N11  As1
 BYTE   W12
 BYTE   N05  Ds2
 BYTE   W06
 BYTE   N05
 BYTE   W06
 BYTE   PEND 
// 045   ----------------------------------------
Label_3_014768DD:
 BYTE   W12
 BYTE   N05  Ds2  v080
 BYTE   W12
 BYTE   Cs2
 BYTE   W12
 BYTE   As1
 BYTE   W12
 BYTE   N17  Gs1
 BYTE   W18
 BYTE   N05
 BYTE   W06
 BYTE   Ds1
 BYTE   W06
 BYTE   Fs1
 BYTE   W06
 BYTE   Gs1
 BYTE   W06
 BYTE   Ds1
 BYTE   W06
 BYTE   PEND 
// 046   ----------------------------------------
Label_3_014768F4:
 BYTE   N17  Gs1  v080
 BYTE   W18
 BYTE   N05
 BYTE   W06
 BYTE   Ds1
 BYTE   W06
 BYTE   Fs1
 BYTE   W06
 BYTE   Gs1
 BYTE   W06
 BYTE   Ds1
 BYTE   W06
 BYTE   N17  As1
 BYTE   W18
 BYTE   N05
 BYTE   W06
 BYTE   Fn1
 BYTE   W06
 BYTE   Gs1
 BYTE   W06
 BYTE   As1
 BYTE   W06
 BYTE   Gs1
 BYTE   W06
 BYTE   PEND 
// 047   ----------------------------------------
 BYTE   N17  As1
 BYTE   W18
 BYTE   N05
 BYTE   W06
 BYTE   Fn1
 BYTE   W06
 BYTE   As1
 BYTE   W06
 BYTE   Ds2
 BYTE   W06
 BYTE   As1
 BYTE   W06
 BYTE   N17  Ds1
 BYTE   W18
 BYTE   As1
 BYTE   W18
 BYTE   N11  Fn2
 BYTE   W12
// 048   ----------------------------------------
Label_3_01476925:
 BYTE   N23  Ds2  v080
 BYTE   W24
 BYTE   N11  As1
 BYTE   W12
 BYTE   Fs1
 BYTE   W12
 BYTE   N17  Ds1
 BYTE   W18
 BYTE   As1
 BYTE   W18
 BYTE   N11  Dn2
 BYTE   W12
 BYTE   PEND 
// 049   ----------------------------------------
Label_3_01476937:
 BYTE   N23  Ds2  v080
 BYTE   W24
 BYTE   N11  As1
 BYTE   W12
 BYTE   Fs1
 BYTE   W12
 BYTE   N17  Bn0
 BYTE   W18
 BYTE   Fs1
 BYTE   W18
 BYTE   N11  Cs2
 BYTE   W12
 BYTE   PEND 
// 050   ----------------------------------------
Label_3_01476949:
 BYTE   N23  Bn1  v080
 BYTE   W24
 BYTE   N11  As1
 BYTE   W12
 BYTE   Fs1
 BYTE   W12
 BYTE   N17  Bn0
 BYTE   W18
 BYTE   Fs1
 BYTE   W18
 BYTE   N23  Bn1
 BYTE   W12
 BYTE   PEND 
// 051   ----------------------------------------
Label_3_0147695B:
 BYTE   W12
 BYTE   N11  As1  v080
 BYTE   W12
 BYTE   Fs1
 BYTE   W12
 BYTE   Ds1
 BYTE   W12
 BYTE   N17  Gs0
 BYTE   W18
 BYTE   Ds1
 BYTE   W18
 BYTE   N11  As1
 BYTE   W12
 BYTE   PEND 
// 052   ----------------------------------------
Label_3_0147696D:
 BYTE   N23  Gs1  v080
 BYTE   W24
 BYTE   N11  Ds1
 BYTE   W12
 BYTE   Bn0
 BYTE   W12
 BYTE   N17  Gs0
 BYTE   W18
 BYTE   Ds1
 BYTE   W18
 BYTE   N11  Fs1
 BYTE   W12
 BYTE   PEND 
// 053   ----------------------------------------
Label_3_0147697F:
 BYTE   N23  Gs1  v080
 BYTE   W24
 BYTE   N11  Fn1
 BYTE   W12
 BYTE   Cs1
 BYTE   W12
 BYTE   N17  Ds1
 BYTE   W18
 BYTE   As0
 BYTE   W18
 BYTE   N11  Fn1
 BYTE   W12
 BYTE   PEND 
// 054   ----------------------------------------
Label_3_01476991:
 BYTE   N23  Ds1  v080
 BYTE   W24
 BYTE   N11  As0
 BYTE   W12
 BYTE   Fs0
 BYTE   W12
 BYTE   N17  Gs0
 BYTE   W18
 BYTE   Bn0
 BYTE   W18
 BYTE   N11  Dn1
 BYTE   W12
 BYTE   PEND 
// 055   ----------------------------------------
Label_3_014769A3:
 BYTE   N23  As0  v080
 BYTE   W24
 BYTE   N11  Fn1
 BYTE   W12
 BYTE   As0
 BYTE   W12
 BYTE   N17  Ds1
 BYTE   W18
 BYTE   As1
 BYTE   W18
 BYTE   N11  Fn2
 BYTE   W12
 BYTE   PEND 
// 056   ----------------------------------------
 BYTE   PATT
  POIN2 Label_3_01476925
// 057   ----------------------------------------
 BYTE   PATT
  POIN2 Label_3_01476937
// 058   ----------------------------------------
 BYTE   PATT
  POIN2 Label_3_01476949
// 059   ----------------------------------------
 BYTE   PATT
  POIN2 Label_3_0147695B
// 060   ----------------------------------------
 BYTE   PATT
  POIN2 Label_3_0147696D
// 061   ----------------------------------------
 BYTE   PATT
  POIN2 Label_3_0147697F
// 062   ----------------------------------------
Label_3_014769D3:
 BYTE   N23  Ds1  v080
 BYTE   W24
 BYTE   N11  As0
 BYTE   W12
 BYTE   Fs0
 BYTE   W12
 BYTE   N17  Ds1
 BYTE   W18
 BYTE   As0
 BYTE   W18
 BYTE   N11  Fn1
 BYTE   W12
 BYTE   PEND 
// 063   ----------------------------------------
 BYTE   N23  Ds1
 BYTE   W24
 BYTE   N11  As0
 BYTE   W12
 BYTE   Fs0
 BYTE   W12
 BYTE   N17  Ds1
 BYTE   W18
 BYTE   As1
 BYTE   W18
 BYTE   N11  Fn2
 BYTE   W12
// 064   ----------------------------------------
 BYTE   PATT
  POIN2 Label_3_01476925
// 065   ----------------------------------------
 BYTE   PATT
  POIN2 Label_3_01476937
// 066   ----------------------------------------
 BYTE   PATT
  POIN2 Label_3_01476949
// 067   ----------------------------------------
 BYTE   PATT
  POIN2 Label_3_0147695B
// 068   ----------------------------------------
 BYTE   PATT
  POIN2 Label_3_0147696D
// 069   ----------------------------------------
 BYTE   PATT
  POIN2 Label_3_0147697F
// 070   ----------------------------------------
 BYTE   PATT
  POIN2 Label_3_01476991
// 071   ----------------------------------------
 BYTE   PATT
  POIN2 Label_3_014769A3
// 072   ----------------------------------------
 BYTE   PATT
  POIN2 Label_3_01476925
// 073   ----------------------------------------
 BYTE   PATT
  POIN2 Label_3_01476937
// 074   ----------------------------------------
 BYTE   PATT
  POIN2 Label_3_01476949
// 075   ----------------------------------------
 BYTE   PATT
  POIN2 Label_3_0147695B
// 076   ----------------------------------------
 BYTE   PATT
  POIN2 Label_3_0147696D
// 077   ----------------------------------------
 BYTE   PATT
  POIN2 Label_3_0147697F
// 078   ----------------------------------------
 BYTE   PATT
  POIN2 Label_3_014769D3
// 079   ----------------------------------------
 BYTE   N23  Ds1  v080
 BYTE   W24
 BYTE   N11  As0
 BYTE   W12
 BYTE   Fs0
 BYTE   W12
 BYTE   N92  Dn0
 BYTE   W48
// 080   ----------------------------------------
 BYTE   W48
 BYTE   Cs0
 BYTE   W48
// 081   ----------------------------------------
 BYTE   W48
 BYTE   N11
 BYTE   W48
// 082   ----------------------------------------
Label_3_01476A52:
 BYTE   N11  Cs0  v080
 BYTE   W48
 BYTE   N11
 BYTE   W48
 BYTE   PEND 
// 083   ----------------------------------------
 BYTE   PATT
  POIN2 Label_3_01476A52
// 084   ----------------------------------------
 BYTE   PATT
  POIN2 Label_3_01476A52
// 085   ----------------------------------------
 BYTE   PATT
  POIN2 Label_3_01476A52
// 086   ----------------------------------------
 BYTE   PATT
  POIN2 Label_3_01476A52
// 087   ----------------------------------------
 BYTE   PATT
  POIN2 Label_3_01476A52
// 088   ----------------------------------------
 BYTE   PATT
  POIN2 Label_3_01476A52
// 089   ----------------------------------------
 BYTE   N11  Gs0  v080
 BYTE   W24
 BYTE   N23  Gs1
 BYTE   W24
 BYTE   N11  Cs1
 BYTE   W24
 BYTE   Fs1
 BYTE   W12
 BYTE   Gs1
 BYTE   W12
// 090   ----------------------------------------
 BYTE   PATT
  POIN2 Label_3_01476790
// 091   ----------------------------------------
 BYTE   PATT
  POIN2 Label_3_0147679F
// 092   ----------------------------------------
 BYTE   PATT
  POIN2 Label_3_014767AE
// 093   ----------------------------------------
 BYTE   PATT
  POIN2 Label_3_014767BD
// 094   ----------------------------------------
 BYTE   PATT
  POIN2 Label_3_01476790
// 095   ----------------------------------------
 BYTE   PATT
  POIN2 Label_3_0147679F
// 096   ----------------------------------------
 BYTE   PATT
  POIN2 Label_3_014767AE
// 097   ----------------------------------------
 BYTE   PATT
  POIN2 Label_3_014767BD
// 098   ----------------------------------------
 BYTE   PATT
  POIN2 Label_3_01476790
// 099   ----------------------------------------
 BYTE   PATT
  POIN2 Label_3_0147679F
// 100   ----------------------------------------
 BYTE   PATT
  POIN2 Label_3_014767AE
// 101   ----------------------------------------
 BYTE   PATT
  POIN2 Label_3_014767EF
// 102   ----------------------------------------
 BYTE   PATT
  POIN2 Label_3_014767FE
// 103   ----------------------------------------
 BYTE   PATT
  POIN2 Label_3_0147680C
// 104   ----------------------------------------
 BYTE   PATT
  POIN2 Label_3_014767EF
// 105   ----------------------------------------
 BYTE   PATT
  POIN2 Label_3_0147681F
// 106   ----------------------------------------
 BYTE   PATT
  POIN2 Label_3_01476790
// 107   ----------------------------------------
 BYTE   PATT
  POIN2 Label_3_0147679F
// 108   ----------------------------------------
 BYTE   PATT
  POIN2 Label_3_014767AE
// 109   ----------------------------------------
 BYTE   PATT
  POIN2 Label_3_014767EF
// 110   ----------------------------------------
 BYTE   PATT
  POIN2 Label_3_014767FE
// 111   ----------------------------------------
 BYTE   PATT
  POIN2 Label_3_01476851
// 112   ----------------------------------------
 BYTE   PATT
  POIN2 Label_3_0147685F
// 113   ----------------------------------------
 BYTE   PATT
  POIN2 Label_3_0147686E
// 114   ----------------------------------------
 BYTE   PATT
  POIN2 Label_3_01476884
// 115   ----------------------------------------
 BYTE   PATT
  POIN2 Label_3_01476894
// 116   ----------------------------------------
 BYTE   PATT
  POIN2 Label_3_014768A4
// 117   ----------------------------------------
 BYTE   PATT
  POIN2 Label_3_014768B3
// 118   ----------------------------------------
 BYTE   PATT
  POIN2 Label_3_014768CD
// 119   ----------------------------------------
 BYTE   PATT
  POIN2 Label_3_014768DD
// 120   ----------------------------------------
 BYTE   PATT
  POIN2 Label_3_014768F4
// 121   ----------------------------------------
 BYTE   N17  As1  v080
 BYTE   W18
 BYTE   N05
 BYTE   W06
 BYTE   Fn1
 BYTE   W06
 BYTE   As1
 BYTE   W06
 BYTE   Ds2
 BYTE   W06
 BYTE   As1
 BYTE   W06
 BYTE   N17  Cn2
 BYTE   W18
 BYTE   N05
 BYTE   W06
 BYTE   Gn1
 BYTE   W06
 BYTE   As1
 BYTE   W06
 BYTE   Cn2
 BYTE   W06
 BYTE   As1
 BYTE   W06
// 122   ----------------------------------------
 BYTE   N17  Cn2
 BYTE   W18
 BYTE   N05
 BYTE   W06
 BYTE   Gn1
 BYTE   W06
 BYTE   Cn2
 BYTE   W06
 BYTE   Fn2
 BYTE   W06
 BYTE   Cn2
 BYTE   W06
 BYTE   N17  Fn1
 BYTE   W18
 BYTE   Cn2
 BYTE   W18
 BYTE   N11  Gn2
 BYTE   W12
// 123   ----------------------------------------
Label_3_01476B50:
 BYTE   N23  Fn2  v080
 BYTE   W24
 BYTE   N11  Cn2
 BYTE   W12
 BYTE   Gs1
 BYTE   W12
 BYTE   N17  Fn1
 BYTE   W18
 BYTE   Cn2
 BYTE   W18
 BYTE   N11  En2
 BYTE   W12
 BYTE   PEND 
// 124   ----------------------------------------
Label_3_01476B62:
 BYTE   N23  Fn2  v080
 BYTE   W24
 BYTE   N11  Cn2
 BYTE   W12
 BYTE   Gs1
 BYTE   W12
 BYTE   N17  Cs1
 BYTE   W18
 BYTE   Gs1
 BYTE   W18
 BYTE   N11  Ds2
 BYTE   W12
 BYTE   PEND 
// 125   ----------------------------------------
Label_3_01476B74:
 BYTE   N23  Cs2  v080
 BYTE   W24
 BYTE   N11  Cn2
 BYTE   W12
 BYTE   Gs1
 BYTE   W12
 BYTE   N17  Cs1
 BYTE   W18
 BYTE   Gs1
 BYTE   W18
 BYTE   N23  Cs2
 BYTE   W12
 BYTE   PEND 
// 126   ----------------------------------------
Label_3_01476B86:
 BYTE   W12
 BYTE   N11  Cn2  v080
 BYTE   W12
 BYTE   Gs1
 BYTE   W12
 BYTE   Fn1
 BYTE   W12
 BYTE   N17  As0
 BYTE   W18
 BYTE   Fn1
 BYTE   W18
 BYTE   N11  Cn2
 BYTE   W12
 BYTE   PEND 
// 127   ----------------------------------------
Label_3_01476B98:
 BYTE   N23  As1  v080
 BYTE   W24
 BYTE   N11  Fn1
 BYTE   W12
 BYTE   Cs1
 BYTE   W12
 BYTE   N17  As0
 BYTE   W18
 BYTE   Fn1
 BYTE   W18
 BYTE   N11  Gs1
 BYTE   W12
 BYTE   PEND 
// 128   ----------------------------------------
Label_3_01476BAA:
 BYTE   N23  As1  v080
 BYTE   W24
 BYTE   N11  Gn1
 BYTE   W12
 BYTE   Ds1
 BYTE   W12
 BYTE   N17  Fn1
 BYTE   W18
 BYTE   Cn1
 BYTE   W18
 BYTE   N11  Gn1
 BYTE   W12
 BYTE   PEND 
// 129   ----------------------------------------
Label_3_01476BBC:
 BYTE   N23  Fn1  v080
 BYTE   W24
 BYTE   N11  Cn1
 BYTE   W12
 BYTE   Gs0
 BYTE   W12
 BYTE   N17  As0
 BYTE   W18
 BYTE   Cs1
 BYTE   W18
 BYTE   N11  En1
 BYTE   W12
 BYTE   PEND 
// 130   ----------------------------------------
Label_3_01476BCE:
 BYTE   N23  Cn1  v080
 BYTE   W24
 BYTE   N11  Gn1
 BYTE   W12
 BYTE   Cn1
 BYTE   W12
 BYTE   N17  Fn1
 BYTE   W18
 BYTE   Cn2
 BYTE   W18
 BYTE   N11  Gn2
 BYTE   W12
 BYTE   PEND 
// 131   ----------------------------------------
 BYTE   PATT
  POIN2 Label_3_01476B50
// 132   ----------------------------------------
 BYTE   PATT
  POIN2 Label_3_01476B62
// 133   ----------------------------------------
 BYTE   PATT
  POIN2 Label_3_01476B74
// 134   ----------------------------------------
 BYTE   PATT
  POIN2 Label_3_01476B86
// 135   ----------------------------------------
 BYTE   PATT
  POIN2 Label_3_01476B98
// 136   ----------------------------------------
 BYTE   PATT
  POIN2 Label_3_01476BAA
// 137   ----------------------------------------
Label_3_01476BFE:
 BYTE   N23  Fn1  v080
 BYTE   W24
 BYTE   N11  Cn1
 BYTE   W12
 BYTE   Gs0
 BYTE   W12
 BYTE   N17  Fn1
 BYTE   W18
 BYTE   Cn1
 BYTE   W18
 BYTE   N11  Gn1
 BYTE   W12
 BYTE   PEND 
// 138   ----------------------------------------
 BYTE   N23  Fn1
 BYTE   W24
 BYTE   N11  Cn1
 BYTE   W12
 BYTE   Gs0
 BYTE   W12
 BYTE   N17  Fn1
 BYTE   W18
 BYTE   Cn2
 BYTE   W18
 BYTE   N11  Gn2
 BYTE   W12
// 139   ----------------------------------------
 BYTE   PATT
  POIN2 Label_3_01476B50
// 140   ----------------------------------------
 BYTE   PATT
  POIN2 Label_3_01476B62
// 141   ----------------------------------------
 BYTE   PATT
  POIN2 Label_3_01476B74
// 142   ----------------------------------------
 BYTE   PATT
  POIN2 Label_3_01476B86
// 143   ----------------------------------------
 BYTE   PATT
  POIN2 Label_3_01476B98
// 144   ----------------------------------------
 BYTE   PATT
  POIN2 Label_3_01476BAA
// 145   ----------------------------------------
 BYTE   PATT
  POIN2 Label_3_01476BBC
// 146   ----------------------------------------
 BYTE   PATT
  POIN2 Label_3_01476BCE
// 147   ----------------------------------------
 BYTE   PATT
  POIN2 Label_3_01476B50
// 148   ----------------------------------------
 BYTE   PATT
  POIN2 Label_3_01476B62
// 149   ----------------------------------------
 BYTE   PATT
  POIN2 Label_3_01476B74
// 150   ----------------------------------------
 BYTE   PATT
  POIN2 Label_3_01476B86
// 151   ----------------------------------------
 BYTE   PATT
  POIN2 Label_3_01476B98
// 152   ----------------------------------------
 BYTE   PATT
  POIN2 Label_3_01476BAA
// 153   ----------------------------------------
 BYTE   PATT
  POIN2 Label_3_01476BFE
// 154   ----------------------------------------
 BYTE   N23  Fn1  v080
 BYTE   W24
 BYTE   N11  Cn1
 BYTE   W12
 BYTE   Gs0
 BYTE   W60
// 155   ----------------------------------------
 BYTE   W96
// 156   ----------------------------------------
 BYTE   W96
// 157   ----------------------------------------
 BYTE   W96
// 158   ----------------------------------------
 BYTE   W96
// 159   ----------------------------------------
 BYTE   W96
// 160   ----------------------------------------
 BYTE   W96
// 161   ----------------------------------------
 BYTE   W96
// 162   ----------------------------------------
 BYTE   W96
// 163   ----------------------------------------
 BYTE   W96
// 164   ----------------------------------------
 BYTE   W96
// 165   ----------------------------------------
 BYTE   W96
// 166   ----------------------------------------
 BYTE   W96
// 167   ----------------------------------------
 BYTE   W96
// 168   ----------------------------------------
 BYTE   W96
// 169   ----------------------------------------
 BYTE   W96
// 170   ----------------------------------------
 BYTE   W48
 BYTE   N17  Fn1
 BYTE   W18
 BYTE   Cn2
 BYTE   W18
 BYTE   N11  Gn2
 BYTE   W12
// 171   ----------------------------------------
 BYTE   PATT
  POIN2 Label_3_01476B50
// 172   ----------------------------------------
 BYTE   PATT
  POIN2 Label_3_01476B62
// 173   ----------------------------------------
 BYTE   PATT
  POIN2 Label_3_01476B74
// 174   ----------------------------------------
 BYTE   PATT
  POIN2 Label_3_01476B86
// 175   ----------------------------------------
 BYTE   PATT
  POIN2 Label_3_01476B98
// 176   ----------------------------------------
 BYTE   PATT
  POIN2 Label_3_01476BAA
// 177   ----------------------------------------
 BYTE   PATT
  POIN2 Label_3_01476BBC
// 178   ----------------------------------------
 BYTE   PATT
  POIN2 Label_3_01476BCE
// 179   ----------------------------------------
 BYTE   PATT
  POIN2 Label_3_01476B50
// 180   ----------------------------------------
 BYTE   PATT
  POIN2 Label_3_01476B62
// 181   ----------------------------------------
 BYTE   PATT
  POIN2 Label_3_01476B74
// 182   ----------------------------------------
 BYTE   PATT
  POIN2 Label_3_01476B86
// 183   ----------------------------------------
 BYTE   PATT
  POIN2 Label_3_01476B98
// 184   ----------------------------------------
 BYTE   PATT
  POIN2 Label_3_01476BAA
// 185   ----------------------------------------
 BYTE   PATT
  POIN2 Label_3_01476BFE
// 186   ----------------------------------------
 BYTE   N23  Fn1  v080
 BYTE   W24
 BYTE   N11  Cn1
 BYTE   W12
 BYTE   Gs0
 BYTE   W12
 BYTE   N92  En0
 BYTE   W48
// 187   ----------------------------------------
 BYTE   W48
 BYTE   Ds0
 BYTE   W48
// 188   ----------------------------------------
 BYTE   W96
// 189   ----------------------------------------
 BYTE   W96
// 190   ----------------------------------------
 BYTE   W96
// 191   ----------------------------------------
 BYTE   W96
// 192   ----------------------------------------
 BYTE   W96
// 193   ----------------------------------------
 BYTE   W96
// 194   ----------------------------------------
 BYTE   W96
// 195   ----------------------------------------
 BYTE   W96
// 196   ----------------------------------------
 BYTE   W96
// 197   ----------------------------------------
 BYTE   W96
// 198   ----------------------------------------
 BYTE   W96
// 199   ----------------------------------------
 BYTE   W96
// 200   ----------------------------------------
 BYTE   W96
// 201   ----------------------------------------
 BYTE   W96
// 202   ----------------------------------------
 BYTE   W96
// 203   ----------------------------------------
 BYTE   W96
// 204   ----------------------------------------
 BYTE   W48
 BYTE   GoTo
  POIN2 Label_3_01476762
 BYTE   FINE

//**************** Track 5 (Midi-Chn.4) ****************//

songC6_005:
// 000   ----------------------------------------
 BYTE   KEYSH   songC6_key+0
Label_4_014ADC4E:
 BYTE   VOICE   94
 BYTE   PAN   c_v-13
 BYTE   VOL   16*songC6_mvl/mxv
 BYTE   TIE  Bn1  v052
 BYTE   TIE  Bn2
 BYTE   TIE  En3
 BYTE   TIE  Gs3
 BYTE   TIE  Bn3
 BYTE   W01
 BYTE   VOL   16*songC6_mvl/mxv
 BYTE   W02
 BYTE   VOL   17*songC6_mvl/mxv
 BYTE   W01
 BYTE   VOL   17*songC6_mvl/mxv
 BYTE   W02
 BYTE   VOL   18*songC6_mvl/mxv
 BYTE   W01
 BYTE   VOL   18*songC6_mvl/mxv
 BYTE   W02
 BYTE   VOL   19*songC6_mvl/mxv
 BYTE   W01
 BYTE   VOL   19*songC6_mvl/mxv
 BYTE   W02
 BYTE   VOL   20*songC6_mvl/mxv
 BYTE   W01
 BYTE   VOL   20*songC6_mvl/mxv
 BYTE   W02
 BYTE   VOL   21*songC6_mvl/mxv
 BYTE   W01
 BYTE   VOL   22*songC6_mvl/mxv
 BYTE   W02
 BYTE   VOL   22*songC6_mvl/mxv
 BYTE   W01
 BYTE   VOL   23*songC6_mvl/mxv
 BYTE   W02
 BYTE   VOL   23*songC6_mvl/mxv
 BYTE   W01
 BYTE   VOL   24*songC6_mvl/mxv
 BYTE   W02
 BYTE   VOL   24*songC6_mvl/mxv
 BYTE   W01
 BYTE   VOL   25*songC6_mvl/mxv
 BYTE   W02
 BYTE   VOL   25*songC6_mvl/mxv
 BYTE   W01
 BYTE   VOL   26*songC6_mvl/mxv
 BYTE   W02
 BYTE   VOL   26*songC6_mvl/mxv
 BYTE   W01
 BYTE   VOL   27*songC6_mvl/mxv
 BYTE   W02
 BYTE   VOL   27*songC6_mvl/mxv
 BYTE   W01
 BYTE   VOL   28*songC6_mvl/mxv
 BYTE   W02
 BYTE   VOL   28*songC6_mvl/mxv
 BYTE   W01
 BYTE   VOL   29*songC6_mvl/mxv
 BYTE   W02
 BYTE   VOL   29*songC6_mvl/mxv
 BYTE   W01
 BYTE   VOL   30*songC6_mvl/mxv
 BYTE   W02
 BYTE   VOL   30*songC6_mvl/mxv
 BYTE   W01
 BYTE   VOL   31*songC6_mvl/mxv
 BYTE   W02
 BYTE   VOL   32*songC6_mvl/mxv
 BYTE   W48
 BYTE   W03
// 001   ----------------------------------------
 BYTE   W96
// 002   ----------------------------------------
 BYTE   W44
 BYTE   W03
 BYTE   EOT
 BYTE   Bn1  v059
 BYTE   W01
 BYTE   TIE  Cs2
 BYTE   TIE  Cs3
 BYTE   W48
// 003   ----------------------------------------
 BYTE   W96
// 004   ----------------------------------------
 BYTE   W44
 BYTE   W03
 BYTE   EOT
 BYTE   Cs2  v061
 BYTE   W01
 BYTE   TIE  Cs2
 BYTE   TIE  Cs3
 BYTE   W48
// 005   ----------------------------------------
 BYTE   W96
// 006   ----------------------------------------
 BYTE   W96
// 007   ----------------------------------------
 BYTE   W44
 BYTE   W03
 BYTE   EOT
 BYTE   Cs2  v061
 BYTE   Bn3
 BYTE   W01
 BYTE   TIE  En2
 BYTE   TIE  Gs2
 BYTE   TIE  Bn3
 BYTE   W48
// 008   ----------------------------------------
 BYTE   W92
 BYTE   W03
 BYTE   EOT
 BYTE   Gs3  v071
 BYTE   W01
// 009   ----------------------------------------
 BYTE   N44  As3
 BYTE   N44  Cs4
 BYTE   W48
 BYTE   TIE  Gs3
 BYTE   TIE  Bn3
 BYTE   W48
// 010   ----------------------------------------
 BYTE   W96
// 011   ----------------------------------------
 BYTE   W44
 BYTE   W03
 BYTE   EOT
 BYTE   Gs3  v071
 BYTE   W01
 BYTE   TIE  Gs3
 BYTE   TIE  Bn3
 BYTE   W48
// 012   ----------------------------------------
 BYTE   W92
 BYTE   W03
 BYTE   EOT
 BYTE   Gs3  v071
 BYTE   W01
// 013   ----------------------------------------
 BYTE   N44
 BYTE   N44  Ds4
 BYTE   W48
 BYTE   N92  Gs3
 BYTE   N92  Bn3
 BYTE   W48
// 014   ----------------------------------------
 BYTE   W44
 BYTE   W03
 BYTE   EOT
 BYTE   En2  v056
 BYTE   En3
 BYTE   W01
 BYTE   N92  Cs3
 BYTE   N92  En3
 BYTE   N92  En4
 BYTE   N92  Gs4
 BYTE   W48
// 015   ----------------------------------------
Label_4_014ADD01:
 BYTE   W48
 BYTE   N92  Ds3  v052
 BYTE   N92  Gs3
 BYTE   N92  Bn3
 BYTE   N92  Ds4
 BYTE   N92  Ds5
 BYTE   W48
 BYTE   PEND 
// 016   ----------------------------------------
Label_4_014ADD0F:
 BYTE   W48
 BYTE   N92  Cs3  v052
 BYTE   N92  En3
 BYTE   N92  Gs3
 BYTE   N92  Cs4
 BYTE   N92  Cs5
 BYTE   W48
 BYTE   PEND 
// 017   ----------------------------------------
Label_4_014ADD1D:
 BYTE   W48
 BYTE   N92  En3  v052
 BYTE   N92  Gs3
 BYTE   N92  Cs4
 BYTE   N92  En4
 BYTE   N92  En5
 BYTE   W48
 BYTE   PEND 
// 018   ----------------------------------------
Label_4_014ADD2B:
 BYTE   W48
 BYTE   N92  Ds3  v052
 BYTE   N92  Fs3
 BYTE   N92  Bn3
 BYTE   N92  Ds4
 BYTE   N92  Ds5
 BYTE   W48
 BYTE   PEND 
// 019   ----------------------------------------
Label_4_014ADD39:
 BYTE   W48
 BYTE   TIE  Fs3  v052
 BYTE   TIE  Gs3
 BYTE   TIE  Cs4
 BYTE   TIE  Fs4
 BYTE   TIE  Fs5
 BYTE   W48
 BYTE   PEND 
// 020   ----------------------------------------
 BYTE   W96
// 021   ----------------------------------------
 BYTE   W96
// 022   ----------------------------------------
 BYTE   VOL   32*songC6_mvl/mxv
 BYTE   W01
 BYTE   VOL   31*songC6_mvl/mxv
 BYTE   W02
 BYTE   VOL   31*songC6_mvl/mxv
 BYTE   W01
 BYTE   VOL   31*songC6_mvl/mxv
 BYTE   W02
 BYTE   VOL   30*songC6_mvl/mxv
 BYTE   W01
 BYTE   VOL   30*songC6_mvl/mxv
 BYTE   W02
 BYTE   VOL   29*songC6_mvl/mxv
 BYTE   W01
 BYTE   VOL   29*songC6_mvl/mxv
 BYTE   W02
 BYTE   VOL   29*songC6_mvl/mxv
 BYTE   W01
 BYTE   VOL   28*songC6_mvl/mxv
 BYTE   W02
 BYTE   VOL   28*songC6_mvl/mxv
 BYTE   W01
 BYTE   VOL   28*songC6_mvl/mxv
 BYTE   W02
 BYTE   VOL   27*songC6_mvl/mxv
 BYTE   W01
 BYTE   VOL   27*songC6_mvl/mxv
 BYTE   W02
 BYTE   VOL   27*songC6_mvl/mxv
 BYTE   W01
 BYTE   VOL   26*songC6_mvl/mxv
 BYTE   W02
 BYTE   VOL   26*songC6_mvl/mxv
 BYTE   W01
 BYTE   VOL   26*songC6_mvl/mxv
 BYTE   W02
 BYTE   VOL   25*songC6_mvl/mxv
 BYTE   W01
 BYTE   VOL   25*songC6_mvl/mxv
 BYTE   W02
 BYTE   VOL   24*songC6_mvl/mxv
 BYTE   W01
 BYTE   VOL   24*songC6_mvl/mxv
 BYTE   W02
 BYTE   VOL   24*songC6_mvl/mxv
 BYTE   W01
 BYTE   VOL   23*songC6_mvl/mxv
 BYTE   W02
 BYTE   VOL   23*songC6_mvl/mxv
 BYTE   W01
 BYTE   VOL   23*songC6_mvl/mxv
 BYTE   W02
 BYTE   VOL   22*songC6_mvl/mxv
 BYTE   W01
 BYTE   VOL   22*songC6_mvl/mxv
 BYTE   W02
 BYTE   VOL   22*songC6_mvl/mxv
 BYTE   W01
 BYTE   VOL   21*songC6_mvl/mxv
 BYTE   W02
 BYTE   VOL   21*songC6_mvl/mxv
 BYTE   W01
 BYTE   VOL   20*songC6_mvl/mxv
 BYTE   W02
 BYTE   VOL   20*songC6_mvl/mxv
 BYTE   W01
 BYTE   VOL   20*songC6_mvl/mxv
 BYTE   W02
 BYTE   VOL   19*songC6_mvl/mxv
 BYTE   W01
 BYTE   VOL   19*songC6_mvl/mxv
 BYTE   W02
 BYTE   VOL   18*songC6_mvl/mxv
 BYTE   W01
 BYTE   VOL   18*songC6_mvl/mxv
 BYTE   W02
 BYTE   VOL   18*songC6_mvl/mxv
 BYTE   W01
 BYTE   VOL   17*songC6_mvl/mxv
 BYTE   W02
 BYTE   VOL   17*songC6_mvl/mxv
 BYTE   W01
 BYTE   VOL   17*songC6_mvl/mxv
 BYTE   W02
 BYTE   VOL   16*songC6_mvl/mxv
 BYTE   W01
 BYTE   VOL   16*songC6_mvl/mxv
 BYTE   W02
 BYTE   VOL   16*songC6_mvl/mxv
 BYTE   W01
 BYTE   VOL   15*songC6_mvl/mxv
 BYTE   W02
 BYTE   VOL   15*songC6_mvl/mxv
 BYTE   W01
 BYTE   VOL   15*songC6_mvl/mxv
 BYTE   W02
 BYTE   VOL   14*songC6_mvl/mxv
 BYTE   W01
 BYTE   VOL   14*songC6_mvl/mxv
 BYTE   W02
 BYTE   VOL   13*songC6_mvl/mxv
 BYTE   W01
 BYTE   VOL   13*songC6_mvl/mxv
 BYTE   W02
 BYTE   VOL   13*songC6_mvl/mxv
 BYTE   W01
 BYTE   VOL   12*songC6_mvl/mxv
 BYTE   W02
 BYTE   VOL   12*songC6_mvl/mxv
 BYTE   W01
 BYTE   VOL   12*songC6_mvl/mxv
 BYTE   W02
 BYTE   VOL   11*songC6_mvl/mxv
 BYTE   W01
 BYTE   VOL   11*songC6_mvl/mxv
 BYTE   W02
 BYTE   VOL   11*songC6_mvl/mxv
 BYTE   W01
 BYTE   VOL   10*songC6_mvl/mxv
 BYTE   W02
 BYTE   VOL   10*songC6_mvl/mxv
 BYTE   W01
 BYTE   VOL   10*songC6_mvl/mxv
 BYTE   W02
 BYTE   VOL   9*songC6_mvl/mxv
 BYTE   W01
 BYTE   VOL   9*songC6_mvl/mxv
 BYTE   W02
// 023   ----------------------------------------
 BYTE   VOL   8*songC6_mvl/mxv
 BYTE   W01
 BYTE   VOL   8*songC6_mvl/mxv
 BYTE   W02
 BYTE   VOL   8*songC6_mvl/mxv
 BYTE   W01
 BYTE   VOL   7*songC6_mvl/mxv
 BYTE   W02
 BYTE   VOL   7*songC6_mvl/mxv
 BYTE   W01
 BYTE   VOL   7*songC6_mvl/mxv
 BYTE   W02
 BYTE   VOL   6*songC6_mvl/mxv
 BYTE   W01
 BYTE   VOL   6*songC6_mvl/mxv
 BYTE   W02
 BYTE   VOL   6*songC6_mvl/mxv
 BYTE   W01
 BYTE   VOL   5*songC6_mvl/mxv
 BYTE   W02
 BYTE   VOL   5*songC6_mvl/mxv
 BYTE   W01
 BYTE   VOL   5*songC6_mvl/mxv
 BYTE   W02
 BYTE   VOL   4*songC6_mvl/mxv
 BYTE   W01
 BYTE   VOL   4*songC6_mvl/mxv
 BYTE   W02
 BYTE   VOL   3*songC6_mvl/mxv
 BYTE   W01
 BYTE   VOL   3*songC6_mvl/mxv
 BYTE   W01
 BYTE   EOT
 BYTE   Fs3  v068
 BYTE   Cs4  v078
 BYTE   Fs5
 BYTE   W01
 BYTE   VOL   3*songC6_mvl/mxv
 BYTE   W01
 BYTE   VOL   2*songC6_mvl/mxv
 BYTE   W02
 BYTE   VOL   2*songC6_mvl/mxv
 BYTE   W01
 BYTE   VOL   2*songC6_mvl/mxv
 BYTE   W02
 BYTE   VOL   1*songC6_mvl/mxv
 BYTE   W01
 BYTE   VOL   1*songC6_mvl/mxv
 BYTE   W02
 BYTE   VOL   1*songC6_mvl/mxv
 BYTE   W01
 BYTE   VOL   0*songC6_mvl/mxv
 BYTE   W02
 BYTE   VOL   0*songC6_mvl/mxv
 BYTE   W04
 BYTE   VOL   0*songC6_mvl/mxv
 BYTE   W08
 BYTE   N92  Gs2  v060
 BYTE   N92  Cs3
 BYTE   N92  En3
 BYTE   W01
 BYTE   VOL   32*songC6_mvl/mxv
 BYTE   W44
 BYTE   W03
// 024   ----------------------------------------
Label_4_014ADE12:
 BYTE   W48
 BYTE   N92  Bn2  v060
 BYTE   N44  Cs3
 BYTE   N44  En3
 BYTE   W48
 BYTE   PEND 
// 025   ----------------------------------------
Label_4_014ADE1C:
 BYTE   N44  Ds3  v060
 BYTE   N44  Fs3
 BYTE   W48
 BYTE   TIE  Bn2
 BYTE   TIE  En3
 BYTE   TIE  Gs3
 BYTE   W48
 BYTE   PEND 
// 026   ----------------------------------------
 BYTE   W92
 BYTE   W03
 BYTE   EOT
 BYTE   Bn2
 BYTE   W01
// 027   ----------------------------------------
Label_4_014ADE2F:
 BYTE   N44  Cs3  v060
 BYTE   W44
 BYTE   W03
 BYTE   PEND 
 BYTE   EOT
 BYTE   En3  v068
 BYTE   W01
 BYTE   N44  Ds3
 BYTE   N44  Fs3
 BYTE   N44  Bn3
 BYTE   W48
// 028   ----------------------------------------
Label_4_014ADE40:
 BYTE   N44  Bn2  v060
 BYTE   N44  Ds3
 BYTE   N44  Fs3
 BYTE   W48
 BYTE   N92  Bn2
 BYTE   N92  Ds3
 BYTE   N92  Fs3
 BYTE   W48
 BYTE   PEND 
// 029   ----------------------------------------
Label_4_014ADE50:
 BYTE   W48
 BYTE   N92  Cs3  v060
 BYTE   N92  En3
 BYTE   N92  Fs3
 BYTE   W48
 BYTE   PEND 
// 030   ----------------------------------------
Label_4_014ADE5A:
 BYTE   W48
 BYTE   N92  Bn2  v060
 BYTE   N92  Ds3
 BYTE   N92  Fs3
 BYTE   W48
 BYTE   PEND 
// 031   ----------------------------------------
Label_4_014ADE64:
 BYTE   W48
 BYTE   N92  Gs2  v060
 BYTE   N92  Cs3
 BYTE   N92  En3
 BYTE   W48
 BYTE   PEND 
// 032   ----------------------------------------
 BYTE   PATT
  POIN2 Label_4_014ADE12
// 033   ----------------------------------------
 BYTE   N44  Ds3  v060
 BYTE   N44  Fs3
 BYTE   W48
 BYTE   TIE  Cs3
 BYTE   TIE  En3
 BYTE   TIE  Gs3
 BYTE   W48
// 034   ----------------------------------------
 BYTE   W96
// 035   ----------------------------------------
 BYTE   W44
 BYTE   W03
 BYTE   EOT
 BYTE   En3  v068
 BYTE   W01
 BYTE   N44  Ds3
 BYTE   N44  Fs3
 BYTE   N44  Bn3
 BYTE   W01
 BYTE   EOT
 BYTE   Cs3
 BYTE   W44
 BYTE   W03
// 036   ----------------------------------------
 BYTE   N44  Bn2
 BYTE   N44  Ds3
 BYTE   N44  Fs3
 BYTE   W48
 BYTE   N92  Fs2
 BYTE   N92  Bn2
 BYTE   N92  Ds3
 BYTE   W48
// 037   ----------------------------------------
 BYTE   W48
 BYTE   Bn2
 BYTE   N92  Ds3
 BYTE   W01
 BYTE   Fs2
 BYTE   W44
 BYTE   W03
// 038   ----------------------------------------
 BYTE   W48
 BYTE   Cs3
 BYTE   N92  En3
 BYTE   W01
 BYTE   Gs2
 BYTE   W44
 BYTE   W03
// 039   ----------------------------------------
Label_4_014ADEB0:
 BYTE   W48
 BYTE   N92  Gs3  v060
 BYTE   N92  Bn3
 BYTE   N92  Ds4
 BYTE   W48
 BYTE   PEND 
// 040   ----------------------------------------
Label_4_014ADEBA:
 BYTE   W48
 BYTE   N92  An3  v060
 BYTE   N92  Cs4
 BYTE   N92  En4
 BYTE   W48
 BYTE   PEND 
// 041   ----------------------------------------
Label_4_014ADEC4:
 BYTE   W48
 BYTE   N92  Fs3  v060
 BYTE   N92  Bn3
 BYTE   N92  Ds4
 BYTE   W48
 BYTE   PEND 
// 042   ----------------------------------------
Label_4_014ADECE:
 BYTE   W48
 BYTE   N44  En3  v060
 BYTE   N44  Gs3
 BYTE   N44  Cs4
 BYTE   W48
 BYTE   PEND 
// 043   ----------------------------------------
Label_4_014ADED8:
 BYTE   N44  Ds3  v060
 BYTE   N44  Fs3
 BYTE   N44  Bn3
 BYTE   W48
 BYTE   N92  Ds3
 BYTE   N92  Fn3
 BYTE   N92  As3
 BYTE   W48
 BYTE   PEND 
// 044   ----------------------------------------
Label_4_014ADEE8:
 BYTE   W48
 BYTE   N44  Fn3  v060
 BYTE   N44  As3
 BYTE   N44  Ds4
 BYTE   W48
 BYTE   PEND 
// 045   ----------------------------------------
 BYTE   Cs3
 BYTE   N44  Fn3
 BYTE   N44  As3
 BYTE   W48
 BYTE   N92  Cs3
 BYTE   N92  Fs3
 BYTE   N92  As3
 BYTE   N92  Cs4
 BYTE   W48
// 046   ----------------------------------------
 BYTE   W48
 BYTE   As3
 BYTE   N92  Ds4
 BYTE   N92  Fn4
 BYTE   W48
// 047   ----------------------------------------
 BYTE   W48
 BYTE   TIE  As2
 BYTE   N44  Fs3
 BYTE   N44  As3
 BYTE   N44  Ds4
 BYTE   W48
// 048   ----------------------------------------
Label_4_014ADF12:
 BYTE   N44  Fn3  v060
 BYTE   N44  As3
 BYTE   N44  Cs4
 BYTE   W48
 BYTE   Fs3
 BYTE   N44  As3
 BYTE   N44  Ds4
 BYTE   W48
 BYTE   PEND 
// 049   ----------------------------------------
Label_4_014ADF21:
 BYTE   N44  Fs3  v060
 BYTE   N44  As3
 BYTE   N44  Ds4
 BYTE   W44
 BYTE   W03
 BYTE   PEND 
 BYTE   EOT
 BYTE   As2
 BYTE   W01
 BYTE   TIE  Fs2
 BYTE   N44  Fs3
 BYTE   N44  Bn3
 BYTE   N44  Ds4
 BYTE   W48
// 050   ----------------------------------------
Label_4_014ADF37:
 BYTE   N44  Gs3  v060
 BYTE   N44  Cs4
 BYTE   N44  Fn4
 BYTE   W48
 BYTE   N92  As3
 BYTE   N92  Ds4
 BYTE   N92  Fs4
 BYTE   W48
 BYTE   PEND 
// 051   ----------------------------------------
 BYTE   W44
 BYTE   W03
 BYTE   EOT
 BYTE   Fs2
 BYTE   W01
 BYTE   N44  As2
 BYTE   N44  Fs3
 BYTE   N44  As3
 BYTE   N44  Ds4
 BYTE   W48
// 052   ----------------------------------------
Label_4_014ADF55:
 BYTE   N44  Gs2  v060
 BYTE   N44  Fn3
 BYTE   N44  Gs3
 BYTE   N44  Cs4
 BYTE   W48
 BYTE   Fs2
 BYTE   N44  Fs3
 BYTE   N44  Bn3
 BYTE   N44  Ds4
 BYTE   W48
 BYTE   PEND 
// 053   ----------------------------------------
Label_4_014ADF68:
 BYTE   N44  Gs2  v060
 BYTE   N44  Fs3
 BYTE   N44  Bn3
 BYTE   N44  Cs4
 BYTE   W48
 BYTE   As2
 BYTE   N44  Fs3
 BYTE   N44  As3
 BYTE   N44  Ds4
 BYTE   W48
 BYTE   PEND 
// 054   ----------------------------------------
Label_4_014ADF7B:
 BYTE   N44  Gs2  v060
 BYTE   N44  Gs3
 BYTE   N44  Cs4
 BYTE   N44  Fn4
 BYTE   W48
 BYTE   Fs2
 BYTE   N44  Fs3
 BYTE   N44  Bn3
 BYTE   N44  Ds4
 BYTE   W48
 BYTE   PEND 
// 055   ----------------------------------------
Label_4_014ADF8E:
 BYTE   N44  Fn2  v060
 BYTE   N44  Fn3
 BYTE   N44  As3
 BYTE   N44  Dn4
 BYTE   W48
 BYTE   TIE  As2
 BYTE   N44  Fs3
 BYTE   N44  As3
 BYTE   N44  Ds4
 BYTE   W48
 BYTE   PEND 
// 056   ----------------------------------------
 BYTE   PATT
  POIN2 Label_4_014ADF12
// 057   ----------------------------------------
 BYTE   PATT
  POIN2 Label_4_014ADF21
// 058   ----------------------------------------
 BYTE   EOT
 BYTE   As2
 BYTE   W01
 BYTE   TIE  Fs2  v060
 BYTE   N44  Fs3
 BYTE   N44  Bn3
 BYTE   N44  Ds4
 BYTE   W48
// 059   ----------------------------------------
 BYTE   PATT
  POIN2 Label_4_014ADF37
// 060   ----------------------------------------
 BYTE   W44
 BYTE   W03
 BYTE   EOT
 BYTE   Fs2
 BYTE   W01
 BYTE   N44  As2  v060
 BYTE   N44  Fs3
 BYTE   N44  As3
 BYTE   N44  Ds4
 BYTE   W48
// 061   ----------------------------------------
Label_4_014ADFCD:
 BYTE   N44  Gs2  v060
 BYTE   N44  Fs3
 BYTE   N44  As3
 BYTE   N44  Cs4
 BYTE   W48
 BYTE   Fs2
 BYTE   N44  Fn3
 BYTE   N44  Bn3
 BYTE   N44  Ds4
 BYTE   W48
 BYTE   PEND 
// 062   ----------------------------------------
 BYTE   Gs2
 BYTE   N44  Fn3
 BYTE   N44  As3
 BYTE   N44  Cs4
 BYTE   W48
 BYTE   As2
 BYTE   N44  Fn3
 BYTE   N44  Gs3
 BYTE   N44  Cs4
 BYTE   W48
// 063   ----------------------------------------
 BYTE   Gs2
 BYTE   N44  Fn3
 BYTE   N44  Gs3
 BYTE   N44  Cs4
 BYTE   W48
 BYTE   Fs2
 BYTE   N92  Fs3
 BYTE   N92  As3
 BYTE   N92  Ds4
 BYTE   W48
// 064   ----------------------------------------
 BYTE   N44  Gs2
 BYTE   W48
 BYTE   TIE  As2
 BYTE   N44  Fs3
 BYTE   N44  As3
 BYTE   N44  Ds4
 BYTE   W48
// 065   ----------------------------------------
 BYTE   PATT
  POIN2 Label_4_014ADF12
// 066   ----------------------------------------
 BYTE   PATT
  POIN2 Label_4_014ADF21
// 067   ----------------------------------------
 BYTE   EOT
 BYTE   As2
 BYTE   W01
 BYTE   TIE  Fs2  v060
 BYTE   N44  Fs3
 BYTE   N44  Bn3
 BYTE   N44  Ds4
 BYTE   W48
// 068   ----------------------------------------
 BYTE   PATT
  POIN2 Label_4_014ADF37
// 069   ----------------------------------------
 BYTE   W44
 BYTE   W03
 BYTE   EOT
 BYTE   Fs2
 BYTE   W01
 BYTE   N44  As2  v060
 BYTE   N44  Fs3
 BYTE   N44  As3
 BYTE   N44  Ds4
 BYTE   W48
// 070   ----------------------------------------
 BYTE   PATT
  POIN2 Label_4_014ADF55
// 071   ----------------------------------------
 BYTE   PATT
  POIN2 Label_4_014ADF68
// 072   ----------------------------------------
 BYTE   PATT
  POIN2 Label_4_014ADF7B
// 073   ----------------------------------------
 BYTE   PATT
  POIN2 Label_4_014ADF8E
// 074   ----------------------------------------
 BYTE   PATT
  POIN2 Label_4_014ADF12
// 075   ----------------------------------------
 BYTE   PATT
  POIN2 Label_4_014ADF21
// 076   ----------------------------------------
 BYTE   EOT
 BYTE   As2
 BYTE   W01
 BYTE   TIE  Fs2  v060
 BYTE   N44  Fs3
 BYTE   N44  Bn3
 BYTE   N44  Ds4
 BYTE   W48
// 077   ----------------------------------------
 BYTE   PATT
  POIN2 Label_4_014ADF37
// 078   ----------------------------------------
 BYTE   W44
 BYTE   W03
 BYTE   EOT
 BYTE   Fs2
 BYTE   W01
 BYTE   N44  As2  v060
 BYTE   N44  Fs3
 BYTE   N44  As3
 BYTE   N44  Ds4
 BYTE   W48
// 079   ----------------------------------------
 BYTE   PATT
  POIN2 Label_4_014ADFCD
// 080   ----------------------------------------
 BYTE   N44  Fn2  v060
 BYTE   N44  Fn3
 BYTE   N44  As3
 BYTE   N44  Cs4
 BYTE   W48
 BYTE   Fn2
 BYTE   N44  Fn3
 BYTE   N44  Gs3
 BYTE   N44  Cs4
 BYTE   W48
// 081   ----------------------------------------
 BYTE   Fs2
 BYTE   N44  Fn3
 BYTE   N44  Gs3
 BYTE   N44  Cs4
 BYTE   W48
 BYTE   Gs2
 BYTE   N44  Gs3
 BYTE   N44  Bn3
 BYTE   N44  Fn4
 BYTE   W48
// 082   ----------------------------------------
 BYTE   Fs2
 BYTE   N44  Fs3
 BYTE   N44  As3
 BYTE   N44  Ds4
 BYTE   W48
 BYTE   N92  Dn3
 BYTE   N92  Fs3
 BYTE   N92  As3
 BYTE   N92  Dn4
 BYTE   N92  Dn5
 BYTE   W48
// 083   ----------------------------------------
 BYTE   W48
 BYTE   Cs3
 BYTE   N92  Fs3
 BYTE   N92  An3
 BYTE   N92  Cs4
 BYTE   N92  Cs5
 BYTE   W48
// 084   ----------------------------------------
 BYTE   W48
 BYTE   N44  Bn2  v040
 BYTE   N44  Ds3
 BYTE   N92  Ds4
 BYTE   W48
// 085   ----------------------------------------
 BYTE   N44  Gs2
 BYTE   N44  Cs3
 BYTE   W48
 BYTE   N44
 BYTE   N44  En3
 BYTE   N92  Cs4
 BYTE   W48
// 086   ----------------------------------------
 BYTE   N44  Bn2
 BYTE   N44  Ds3
 BYTE   W48
 BYTE   N44
 BYTE   N44  Fs3
 BYTE   N92  En4
 BYTE   W48
// 087   ----------------------------------------
 BYTE   N44  Cs3
 BYTE   N44  En3
 BYTE   W48
 BYTE   Bn2
 BYTE   N44  Ds3
 BYTE   N92  Ds4
 BYTE   W48
// 088   ----------------------------------------
 BYTE   N44  Cs3
 BYTE   N44  En3
 BYTE   W48
 BYTE   Bn2
 BYTE   N44  Ds3
 BYTE   N92  Fs4
 BYTE   W48
// 089   ----------------------------------------
 BYTE   N44  Gs2
 BYTE   N44  Cs3
 BYTE   W48
 BYTE   N44
 BYTE   N44  En3
 BYTE   N92  En4
 BYTE   W48
// 090   ----------------------------------------
 BYTE   N44  Bn2
 BYTE   N44  Ds3
 BYTE   W48
 BYTE   N44
 BYTE   N44  Fs3
 BYTE   N92  Ds4
 BYTE   W48
// 091   ----------------------------------------
 BYTE   N44  En3
 BYTE   N44  Gs3
 BYTE   W48
 BYTE   N92  Fs3
 BYTE   N92  Bn3
 BYTE   N92  En4
 BYTE   W48
// 092   ----------------------------------------
 BYTE   PATT
  POIN2 Label_4_014ADD01
// 093   ----------------------------------------
 BYTE   PATT
  POIN2 Label_4_014ADD0F
// 094   ----------------------------------------
 BYTE   PATT
  POIN2 Label_4_014ADD1D
// 095   ----------------------------------------
 BYTE   PATT
  POIN2 Label_4_014ADD2B
// 096   ----------------------------------------
 BYTE   PATT
  POIN2 Label_4_014ADD39
// 097   ----------------------------------------
 BYTE   W92
 BYTE   W02
 BYTE   VOL   32*songC6_mvl/mxv
 BYTE   W02
// 098   ----------------------------------------
 BYTE   VOL   31*songC6_mvl/mxv
 BYTE   W01
 BYTE   VOL   32*songC6_mvl/mxv
 BYTE   W02
 BYTE   VOL   31*songC6_mvl/mxv
 BYTE   W03
 BYTE   VOL   31*songC6_mvl/mxv
 BYTE   W01
 BYTE   VOL   31*songC6_mvl/mxv
 BYTE   W03
 BYTE   VOL   30*songC6_mvl/mxv
 BYTE   W02
 BYTE   VOL   30*songC6_mvl/mxv
 BYTE   W03
 BYTE   VOL   30*songC6_mvl/mxv
 BYTE   W01
 BYTE   VOL   29*songC6_mvl/mxv
 BYTE   W03
 BYTE   VOL   29*songC6_mvl/mxv
 BYTE   W03
 BYTE   VOL   29*songC6_mvl/mxv
 BYTE   W02
 BYTE   VOL   28*songC6_mvl/mxv
 BYTE   W03
 BYTE   VOL   28*songC6_mvl/mxv
 BYTE   W01
 BYTE   VOL   28*songC6_mvl/mxv
 BYTE   W03
 BYTE   VOL   27*songC6_mvl/mxv
 BYTE   W02
 BYTE   VOL   27*songC6_mvl/mxv
 BYTE   W03
 BYTE   VOL   27*songC6_mvl/mxv
 BYTE   W03
 BYTE   VOL   26*songC6_mvl/mxv
 BYTE   W01
 BYTE   VOL   26*songC6_mvl/mxv
 BYTE   W03
 BYTE   VOL   26*songC6_mvl/mxv
 BYTE   W02
 BYTE   VOL   25*songC6_mvl/mxv
 BYTE   W03
 BYTE   VOL   25*songC6_mvl/mxv
 BYTE   W01
 BYTE   VOL   25*songC6_mvl/mxv
 BYTE   W03
 BYTE   VOL   24*songC6_mvl/mxv
 BYTE   W03
 BYTE   VOL   24*songC6_mvl/mxv
 BYTE   W02
 BYTE   VOL   24*songC6_mvl/mxv
 BYTE   W03
 BYTE   VOL   23*songC6_mvl/mxv
 BYTE   W01
 BYTE   VOL   23*songC6_mvl/mxv
 BYTE   W03
 BYTE   VOL   23*songC6_mvl/mxv
 BYTE   W02
 BYTE   VOL   22*songC6_mvl/mxv
 BYTE   W03
 BYTE   VOL   22*songC6_mvl/mxv
 BYTE   W03
 BYTE   VOL   22*songC6_mvl/mxv
 BYTE   W01
 BYTE   VOL   21*songC6_mvl/mxv
 BYTE   W03
 BYTE   VOL   21*songC6_mvl/mxv
 BYTE   W02
 BYTE   VOL   20*songC6_mvl/mxv
 BYTE   W03
 BYTE   VOL   20*songC6_mvl/mxv
 BYTE   W01
 BYTE   VOL   20*songC6_mvl/mxv
 BYTE   W03
 BYTE   VOL   19*songC6_mvl/mxv
 BYTE   W03
 BYTE   VOL   19*songC6_mvl/mxv
 BYTE   W02
 BYTE   VOL   19*songC6_mvl/mxv
 BYTE   W03
 BYTE   VOL   18*songC6_mvl/mxv
 BYTE   W01
 BYTE   VOL   18*songC6_mvl/mxv
 BYTE   W02
// 099   ----------------------------------------
 BYTE   W01
 BYTE   VOL   18*songC6_mvl/mxv
 BYTE   W02
 BYTE   VOL   17*songC6_mvl/mxv
 BYTE   W03
 BYTE   VOL   17*songC6_mvl/mxv
 BYTE   W03
 BYTE   VOL   17*songC6_mvl/mxv
 BYTE   W01
 BYTE   VOL   16*songC6_mvl/mxv
 BYTE   W03
 BYTE   VOL   16*songC6_mvl/mxv
 BYTE   W02
 BYTE   VOL   16*songC6_mvl/mxv
 BYTE   W03
 BYTE   VOL   15*songC6_mvl/mxv
 BYTE   W01
 BYTE   VOL   15*songC6_mvl/mxv
 BYTE   W03
 BYTE   VOL   15*songC6_mvl/mxv
 BYTE   W03
 BYTE   VOL   14*songC6_mvl/mxv
 BYTE   W02
 BYTE   VOL   14*songC6_mvl/mxv
 BYTE   W03
 BYTE   VOL   14*songC6_mvl/mxv
 BYTE   W01
 BYTE   VOL   13*songC6_mvl/mxv
 BYTE   W03
 BYTE   VOL   13*songC6_mvl/mxv
 BYTE   W02
 BYTE   VOL   13*songC6_mvl/mxv
 BYTE   W03
 BYTE   VOL   12*songC6_mvl/mxv
 BYTE   W03
 BYTE   VOL   12*songC6_mvl/mxv
 BYTE   W01
 BYTE   VOL   12*songC6_mvl/mxv
 BYTE   W03
 BYTE   VOL   11*songC6_mvl/mxv
 BYTE   W02
 BYTE   VOL   11*songC6_mvl/mxv
 BYTE   W03
 BYTE   VOL   11*songC6_mvl/mxv
 BYTE   W01
 BYTE   VOL   10*songC6_mvl/mxv
 BYTE   W03
 BYTE   VOL   10*songC6_mvl/mxv
 BYTE   W03
 BYTE   VOL   10*songC6_mvl/mxv
 BYTE   W02
 BYTE   VOL   9*songC6_mvl/mxv
 BYTE   W03
 BYTE   VOL   9*songC6_mvl/mxv
 BYTE   W01
 BYTE   VOL   9*songC6_mvl/mxv
 BYTE   W03
 BYTE   VOL   8*songC6_mvl/mxv
 BYTE   W02
 BYTE   VOL   8*songC6_mvl/mxv
 BYTE   W03
 BYTE   VOL   8*songC6_mvl/mxv
 BYTE   W03
 BYTE   VOL   7*songC6_mvl/mxv
 BYTE   W01
 BYTE   VOL   7*songC6_mvl/mxv
 BYTE   W03
 BYTE   VOL   7*songC6_mvl/mxv
 BYTE   W02
 BYTE   VOL   6*songC6_mvl/mxv
 BYTE   W03
 BYTE   VOL   6*songC6_mvl/mxv
 BYTE   W01
 BYTE   VOL   6*songC6_mvl/mxv
 BYTE   W03
 BYTE   VOL   5*songC6_mvl/mxv
 BYTE   W03
 BYTE   VOL   5*songC6_mvl/mxv
 BYTE   W02
 BYTE   VOL   5*songC6_mvl/mxv
 BYTE   W02
 BYTE   EOT
 BYTE   Fs3  v068
 BYTE   Cs4  v078
 BYTE   Fs5
 BYTE   W01
// 100   ----------------------------------------
 BYTE   VOL   4*songC6_mvl/mxv
 BYTE   W01
 BYTE   VOL   4*songC6_mvl/mxv
 BYTE   W03
 BYTE   VOL   4*songC6_mvl/mxv
 BYTE   W02
 BYTE   VOL   3*songC6_mvl/mxv
 BYTE   W03
 BYTE   VOL   3*songC6_mvl/mxv
 BYTE   W03
 BYTE   VOL   3*songC6_mvl/mxv
 BYTE   W01
 BYTE   VOL   2*songC6_mvl/mxv
 BYTE   W03
 BYTE   VOL   2*songC6_mvl/mxv
 BYTE   W02
 BYTE   VOL   2*songC6_mvl/mxv
 BYTE   W03
 BYTE   VOL   1*songC6_mvl/mxv
 BYTE   W01
 BYTE   VOL   1*songC6_mvl/mxv
 BYTE   W03
 BYTE   VOL   1*songC6_mvl/mxv
 BYTE   W02
 BYTE   VOL   0*songC6_mvl/mxv
 BYTE   W03
 BYTE   VOL   0*songC6_mvl/mxv
 BYTE   W18
 BYTE   VOL   32*songC6_mvl/mxv
 BYTE   N92  Gs2  v060
 BYTE   N92  Cs3
 BYTE   N92  En3
 BYTE   W48
// 101   ----------------------------------------
 BYTE   PATT
  POIN2 Label_4_014ADE12
// 102   ----------------------------------------
 BYTE   PATT
  POIN2 Label_4_014ADE1C
// 103   ----------------------------------------
 BYTE   W92
 BYTE   W03
 BYTE   EOT
 BYTE   Bn2
 BYTE   W01
// 104   ----------------------------------------
 BYTE   PATT
  POIN2 Label_4_014ADE2F
// 105   ----------------------------------------
 BYTE   EOT
 BYTE   En3  v068
 BYTE   W01
 BYTE   N44  Ds3  v060
 BYTE   N44  Fs3
 BYTE   N44  Bn3
 BYTE   W48
// 106   ----------------------------------------
 BYTE   PATT
  POIN2 Label_4_014ADE40
// 107   ----------------------------------------
 BYTE   PATT
  POIN2 Label_4_014ADE50
// 108   ----------------------------------------
 BYTE   PATT
  POIN2 Label_4_014ADE5A
// 109   ----------------------------------------
 BYTE   PATT
  POIN2 Label_4_014ADE64
// 110   ----------------------------------------
 BYTE   PATT
  POIN2 Label_4_014ADE12
// 111   ----------------------------------------
 BYTE   PATT
  POIN2 Label_4_014ADE1C
// 112   ----------------------------------------
 BYTE   W92
 BYTE   W03
 BYTE   EOT
 BYTE   Bn2
 BYTE   W01
// 113   ----------------------------------------
 BYTE   PATT
  POIN2 Label_4_014ADE2F
// 114   ----------------------------------------
 BYTE   EOT
 BYTE   En3  v068
 BYTE   W01
 BYTE   N44  Ds3  v060
 BYTE   N44  Fs3
 BYTE   N44  Bn3
 BYTE   W48
// 115   ----------------------------------------
 BYTE   PATT
  POIN2 Label_4_014ADE40
// 116   ----------------------------------------
 BYTE   PATT
  POIN2 Label_4_014ADE5A
// 117   ----------------------------------------
 BYTE   PATT
  POIN2 Label_4_014ADE64
// 118   ----------------------------------------
 BYTE   PATT
  POIN2 Label_4_014ADEB0
// 119   ----------------------------------------
 BYTE   PATT
  POIN2 Label_4_014ADEBA
// 120   ----------------------------------------
 BYTE   PATT
  POIN2 Label_4_014ADEC4
// 121   ----------------------------------------
 BYTE   PATT
  POIN2 Label_4_014ADECE
// 122   ----------------------------------------
 BYTE   PATT
  POIN2 Label_4_014ADED8
// 123   ----------------------------------------
 BYTE   PATT
  POIN2 Label_4_014ADEE8
// 124   ----------------------------------------
 BYTE   N44  Cs3  v060
 BYTE   N44  Ds3
 BYTE   N44  As3
 BYTE   W48
 BYTE   N92  Cs3
 BYTE   N92  Fs3
 BYTE   N92  As3
 BYTE   N92  Cs4
 BYTE   W48
// 125   ----------------------------------------
 BYTE   W48
 BYTE   Fn3
 BYTE   N92  As3
 BYTE   N92  Ds4
 BYTE   W48
// 126   ----------------------------------------
 BYTE   W48
 BYTE   Gn3
 BYTE   N92  Cn4
 BYTE   N92  Fn4
 BYTE   W48
// 127   ----------------------------------------
 BYTE   W48
 BYTE   TIE  Cn3
 BYTE   N44  Gs3
 BYTE   N44  Cn4
 BYTE   N44  Fn4
 BYTE   W48
// 128   ----------------------------------------
Label_4_014AE2AC:
 BYTE   N44  Gn3  v060
 BYTE   N44  Cn4
 BYTE   N44  Ds4
 BYTE   W48
 BYTE   Gs3
 BYTE   N44  Cn4
 BYTE   N44  Fn4
 BYTE   W48
 BYTE   PEND 
// 129   ----------------------------------------
Label_4_014AE2BB:
 BYTE   N44  Gs3  v060
 BYTE   N44  Cn4
 BYTE   N44  Fn4
 BYTE   W44
 BYTE   W03
 BYTE   PEND 
 BYTE   EOT
 BYTE   Cn3
 BYTE   W01
 BYTE   TIE  Gs2
 BYTE   N44  Gs3
 BYTE   N44  Cs4
 BYTE   N44  Fn4
 BYTE   W48
// 130   ----------------------------------------
Label_4_014AE2D1:
 BYTE   N44  As3  v060
 BYTE   N44  Ds4
 BYTE   N44  Gn4
 BYTE   W48
 BYTE   N92  Cn4
 BYTE   N92  Fn4
 BYTE   N92  Gs4
 BYTE   W48
 BYTE   PEND 
// 131   ----------------------------------------
 BYTE   W44
 BYTE   W03
 BYTE   EOT
 BYTE   Gs2
 BYTE   W01
 BYTE   N44  Cn3
 BYTE   N44  Gs3
 BYTE   N44  Cn4
 BYTE   N44  Fn4
 BYTE   W48
// 132   ----------------------------------------
Label_4_014AE2EF:
 BYTE   N44  As2  v060
 BYTE   N44  Gn3
 BYTE   N44  As3
 BYTE   N44  Ds4
 BYTE   W48
 BYTE   Gs2
 BYTE   N44  Gs3
 BYTE   N44  Cs4
 BYTE   N44  Fn4
 BYTE   W48
 BYTE   PEND 
// 133   ----------------------------------------
Label_4_014AE302:
 BYTE   N44  As2  v060
 BYTE   N44  Gs3
 BYTE   N44  Cs4
 BYTE   N44  Ds4
 BYTE   W48
 BYTE   Cn3
 BYTE   N44  Gs3
 BYTE   N44  Cn4
 BYTE   N44  Fn4
 BYTE   W48
 BYTE   PEND 
// 134   ----------------------------------------
Label_4_014AE315:
 BYTE   N44  As2  v060
 BYTE   N44  As3
 BYTE   N44  Ds4
 BYTE   N44  Gn4
 BYTE   W48
 BYTE   Gs2
 BYTE   N44  Gs3
 BYTE   N44  Cs4
 BYTE   N44  Fn4
 BYTE   W48
 BYTE   PEND 
// 135   ----------------------------------------
Label_4_014AE328:
 BYTE   N44  Gn2  v060
 BYTE   N44  Gn3
 BYTE   N44  Cn4
 BYTE   N44  En4
 BYTE   W48
 BYTE   TIE  Cn3
 BYTE   N44  Gs3
 BYTE   N44  Cn4
 BYTE   N44  Fn4
 BYTE   W48
 BYTE   PEND 
// 136   ----------------------------------------
 BYTE   PATT
  POIN2 Label_4_014AE2AC
// 137   ----------------------------------------
 BYTE   PATT
  POIN2 Label_4_014AE2BB
// 138   ----------------------------------------
 BYTE   EOT
 BYTE   Cn3
 BYTE   W01
 BYTE   TIE  Gs2  v060
 BYTE   N44  Gs3
 BYTE   N44  Cs4
 BYTE   N44  Fn4
 BYTE   W48
// 139   ----------------------------------------
 BYTE   PATT
  POIN2 Label_4_014AE2D1
// 140   ----------------------------------------
 BYTE   W44
 BYTE   W03
 BYTE   EOT
 BYTE   Gs2
 BYTE   W01
 BYTE   N44  Cn3  v060
 BYTE   N44  Gs3
 BYTE   N44  Cn4
 BYTE   N44  Fn4
 BYTE   W48
// 141   ----------------------------------------
Label_4_014AE367:
 BYTE   N44  As2  v060
 BYTE   N44  Gs3
 BYTE   N44  Cn4
 BYTE   N44  Ds4
 BYTE   W48
 BYTE   Gs2
 BYTE   N44  Gn3
 BYTE   N44  Cs4
 BYTE   N44  Fn4
 BYTE   W48
 BYTE   PEND 
// 142   ----------------------------------------
 BYTE   As2
 BYTE   N44  Gn3
 BYTE   N44  Cn4
 BYTE   N44  Ds4
 BYTE   W48
 BYTE   Cn3
 BYTE   N44  Gn3
 BYTE   N44  As3
 BYTE   N44  Ds4
 BYTE   W48
// 143   ----------------------------------------
 BYTE   As2
 BYTE   N44  Gn3
 BYTE   N44  As3
 BYTE   N44  Ds4
 BYTE   W48
 BYTE   Gs2
 BYTE   N92  Gs3
 BYTE   N92  Cn4
 BYTE   N92  Fn4
 BYTE   W48
// 144   ----------------------------------------
 BYTE   N44  As2
 BYTE   W48
 BYTE   TIE  Cn3
 BYTE   N44  Gs3
 BYTE   N44  Cn4
 BYTE   N44  Fn4
 BYTE   W48
// 145   ----------------------------------------
 BYTE   PATT
  POIN2 Label_4_014AE2AC
// 146   ----------------------------------------
 BYTE   PATT
  POIN2 Label_4_014AE2BB
// 147   ----------------------------------------
 BYTE   EOT
 BYTE   Cn3
 BYTE   W01
 BYTE   TIE  Gs2  v060
 BYTE   N44  Gs3
 BYTE   N44  Cs4
 BYTE   N44  Fn4
 BYTE   W48
// 148   ----------------------------------------
 BYTE   PATT
  POIN2 Label_4_014AE2D1
// 149   ----------------------------------------
 BYTE   W44
 BYTE   W03
 BYTE   EOT
 BYTE   Gs2
 BYTE   W01
 BYTE   N44  Cn3  v060
 BYTE   N44  Gs3
 BYTE   N44  Cn4
 BYTE   N44  Fn4
 BYTE   W48
// 150   ----------------------------------------
 BYTE   PATT
  POIN2 Label_4_014AE2EF
// 151   ----------------------------------------
 BYTE   PATT
  POIN2 Label_4_014AE302
// 152   ----------------------------------------
 BYTE   PATT
  POIN2 Label_4_014AE315
// 153   ----------------------------------------
 BYTE   PATT
  POIN2 Label_4_014AE328
// 154   ----------------------------------------
 BYTE   PATT
  POIN2 Label_4_014AE2AC
// 155   ----------------------------------------
 BYTE   PATT
  POIN2 Label_4_014AE2BB
// 156   ----------------------------------------
 BYTE   EOT
 BYTE   Cn3
 BYTE   W01
 BYTE   TIE  Gs2  v060
 BYTE   N44  Gs3
 BYTE   N44  Cs4
 BYTE   N44  Fn4
 BYTE   W48
// 157   ----------------------------------------
 BYTE   PATT
  POIN2 Label_4_014AE2D1
// 158   ----------------------------------------
 BYTE   W44
 BYTE   W03
 BYTE   EOT
 BYTE   Gs2
 BYTE   W01
 BYTE   N44  Cn3  v060
 BYTE   N44  Gs3
 BYTE   N44  Cn4
 BYTE   N44  Fn4
 BYTE   W48
// 159   ----------------------------------------
 BYTE   PATT
  POIN2 Label_4_014AE367
// 160   ----------------------------------------
 BYTE   N44  Gn2  v060
 BYTE   N44  Gn3
 BYTE   N44  Cn4
 BYTE   N44  Ds4
 BYTE   W48
 BYTE   Gn2
 BYTE   N44  Gn3
 BYTE   N44  As3
 BYTE   N44  Ds4
 BYTE   W48
// 161   ----------------------------------------
 BYTE   Gs2
 BYTE   N44  Gn3
 BYTE   N44  As3
 BYTE   N44  Ds4
 BYTE   W48
 BYTE   As2
 BYTE   N92  Gs3
 BYTE   N92  Cn4
 BYTE   N92  Fn4
 BYTE   W48
// 162   ----------------------------------------
 BYTE   N44  Gs2
 BYTE   W96
// 163   ----------------------------------------
 BYTE   W96
// 164   ----------------------------------------
 BYTE   W96
// 165   ----------------------------------------
 BYTE   W96
// 166   ----------------------------------------
 BYTE   W96
// 167   ----------------------------------------
 BYTE   W96
// 168   ----------------------------------------
 BYTE   W96
// 169   ----------------------------------------
 BYTE   W96
// 170   ----------------------------------------
 BYTE   W96
// 171   ----------------------------------------
 BYTE   W96
// 172   ----------------------------------------
 BYTE   W96
// 173   ----------------------------------------
 BYTE   W96
// 174   ----------------------------------------
 BYTE   W96
// 175   ----------------------------------------
 BYTE   W96
// 176   ----------------------------------------
 BYTE   W96
// 177   ----------------------------------------
 BYTE   W48
 BYTE   N92  Cn4
 BYTE   N92  Fn4
 BYTE   W48
// 178   ----------------------------------------
Label_4_014AE44E:
 BYTE   W48
 BYTE   N44  Gs3  v060
 BYTE   N44  Cn4
 BYTE   N44  Fn4
 BYTE   W48
 BYTE   PEND 
// 179   ----------------------------------------
 BYTE   PATT
  POIN2 Label_4_014AE2AC
// 180   ----------------------------------------
Label_4_014AE45D:
 BYTE   N44  Gs3  v060
 BYTE   N44  Cn4
 BYTE   N44  Fn4
 BYTE   W48
 BYTE   Gs3
 BYTE   N44  Cs4
 BYTE   N44  Fn4
 BYTE   W48
 BYTE   PEND 
// 181   ----------------------------------------
 BYTE   PATT
  POIN2 Label_4_014AE2D1
// 182   ----------------------------------------
 BYTE   PATT
  POIN2 Label_4_014AE44E
// 183   ----------------------------------------
 BYTE   N44  Gn3  v060
 BYTE   N44  As3
 BYTE   N44  Ds4
 BYTE   W48
 BYTE   Gs3
 BYTE   N44  Cs4
 BYTE   N44  Fn4
 BYTE   W48
// 184   ----------------------------------------
 BYTE   Gs3
 BYTE   N44  Cs4
 BYTE   N44  Ds4
 BYTE   W48
 BYTE   Gs3
 BYTE   N44  Cn4
 BYTE   N44  Fn4
 BYTE   W48
// 185   ----------------------------------------
 BYTE   As3
 BYTE   N44  Ds4
 BYTE   N44  Gn4
 BYTE   W48
 BYTE   Gs3
 BYTE   N44  Cs4
 BYTE   N44  Fn4
 BYTE   W48
// 186   ----------------------------------------
 BYTE   Gn3
 BYTE   N44  Cn4
 BYTE   N44  En4
 BYTE   W48
 BYTE   Gs3
 BYTE   N44  Cn4
 BYTE   N44  Fn4
 BYTE   W48
// 187   ----------------------------------------
 BYTE   PATT
  POIN2 Label_4_014AE2AC
// 188   ----------------------------------------
 BYTE   PATT
  POIN2 Label_4_014AE45D
// 189   ----------------------------------------
 BYTE   PATT
  POIN2 Label_4_014AE2D1
// 190   ----------------------------------------
 BYTE   PATT
  POIN2 Label_4_014AE44E
// 191   ----------------------------------------
 BYTE   N44  Gs3  v060
 BYTE   N44  Cn4
 BYTE   N44  Ds4
 BYTE   W48
 BYTE   Gn3
 BYTE   N44  Cs4
 BYTE   N44  Fn4
 BYTE   W48
// 192   ----------------------------------------
 BYTE   Gn3
 BYTE   N44  Cn4
 BYTE   N44  Ds4
 BYTE   W48
 BYTE   Gn3
 BYTE   N44  As3
 BYTE   N44  Ds4
 BYTE   W48
// 193   ----------------------------------------
 BYTE   Gn3
 BYTE   N44  As3
 BYTE   N44  Ds4
 BYTE   W48
 BYTE   N92  Gs3
 BYTE   N92  Cn4
 BYTE   N92  Fn4
 BYTE   W48
// 194   ----------------------------------------
 BYTE   W48
 BYTE   En3
 BYTE   N92  Gn3
 BYTE   N92  Cn4
 BYTE   N92  En4
 BYTE   N92  En5
 BYTE   W48
// 195   ----------------------------------------
 BYTE   W48
 BYTE   Ds3
 BYTE   N92  Fs3
 BYTE   N92  Bn3
 BYTE   N92  Ds4
 BYTE   N92  Ds5
 BYTE   W48
// 196   ----------------------------------------
 BYTE   W48
 BYTE   Fn3  v040
 BYTE   N92  As3
 BYTE   N92  Cs4
 BYTE   N92  Fn4
 BYTE   N92  Fn5
 BYTE   W48
// 197   ----------------------------------------
 BYTE   W48
 BYTE   Ds3
 BYTE   N92  Fs3
 BYTE   N92  As3
 BYTE   N92  Ds4
 BYTE   N92  Ds5
 BYTE   W48
// 198   ----------------------------------------
 BYTE   W48
 BYTE   Fs3
 BYTE   N92  As3
 BYTE   N92  Cs4
 BYTE   N92  Fs4
 BYTE   N92  Fs5
 BYTE   W48
// 199   ----------------------------------------
 BYTE   W48
 BYTE   Fn3
 BYTE   N92  Gs3
 BYTE   N92  Cs4
 BYTE   N92  Fn4
 BYTE   N92  Fn5
 BYTE   W48
// 200   ----------------------------------------
 BYTE   W48
 BYTE   TIE  Gs3
 BYTE   TIE  Cs4
 BYTE   TIE  Fn4
 BYTE   TIE  Gs4
 BYTE   TIE  Gs5
 BYTE   W48
// 201   ----------------------------------------
 BYTE   W96
// 202   ----------------------------------------
 BYTE   W96
// 203   ----------------------------------------
 BYTE   W48
 BYTE   W01
 BYTE   VOL   31*songC6_mvl/mxv
 BYTE   W02
 BYTE   VOL   31*songC6_mvl/mxv
 BYTE   W03
 BYTE   VOL   31*songC6_mvl/mxv
 BYTE   W03
 BYTE   VOL   30*songC6_mvl/mxv
 BYTE   W03
 BYTE   VOL   30*songC6_mvl/mxv
 BYTE   W03
 BYTE   VOL   30*songC6_mvl/mxv
 BYTE   W01
 BYTE   VOL   29*songC6_mvl/mxv
 BYTE   W03
 BYTE   VOL   29*songC6_mvl/mxv
 BYTE   W03
 BYTE   VOL   29*songC6_mvl/mxv
 BYTE   W03
 BYTE   VOL   28*songC6_mvl/mxv
 BYTE   W02
 BYTE   VOL   28*songC6_mvl/mxv
 BYTE   W03
 BYTE   VOL   28*songC6_mvl/mxv
 BYTE   W03
 BYTE   VOL   27*songC6_mvl/mxv
 BYTE   W03
 BYTE   VOL   27*songC6_mvl/mxv
 BYTE   W03
 BYTE   VOL   27*songC6_mvl/mxv
 BYTE   W01
 BYTE   VOL   26*songC6_mvl/mxv
 BYTE   W03
 BYTE   VOL   26*songC6_mvl/mxv
 BYTE   W03
 BYTE   VOL   26*songC6_mvl/mxv
 BYTE   W02
// 204   ----------------------------------------
 BYTE   W01
 BYTE   VOL   25*songC6_mvl/mxv
 BYTE   W03
 BYTE   VOL   25*songC6_mvl/mxv
 BYTE   W02
 BYTE   VOL   25*songC6_mvl/mxv
 BYTE   W03
 BYTE   VOL   24*songC6_mvl/mxv
 BYTE   W03
 BYTE   VOL   24*songC6_mvl/mxv
 BYTE   W03
 BYTE   VOL   24*songC6_mvl/mxv
 BYTE   W03
 BYTE   VOL   23*songC6_mvl/mxv
 BYTE   W01
 BYTE   VOL   23*songC6_mvl/mxv
 BYTE   W03
 BYTE   VOL   23*songC6_mvl/mxv
 BYTE   W03
 BYTE   VOL   22*songC6_mvl/mxv
 BYTE   W03
 BYTE   VOL   22*songC6_mvl/mxv
 BYTE   W02
 BYTE   VOL   22*songC6_mvl/mxv
 BYTE   W03
 BYTE   VOL   21*songC6_mvl/mxv
 BYTE   W03
 BYTE   VOL   21*songC6_mvl/mxv
 BYTE   W03
 BYTE   VOL   20*songC6_mvl/mxv
 BYTE   W03
 BYTE   VOL   20*songC6_mvl/mxv
 BYTE   W01
 BYTE   VOL   20*songC6_mvl/mxv
 BYTE   W03
 BYTE   VOL   19*songC6_mvl/mxv
 BYTE   W03
 BYTE   VOL   19*songC6_mvl/mxv
 BYTE   W03
 BYTE   VOL   19*songC6_mvl/mxv
 BYTE   W03
 BYTE   VOL   18*songC6_mvl/mxv
 BYTE   W02
 BYTE   VOL   18*songC6_mvl/mxv
 BYTE   W03
 BYTE   VOL   18*songC6_mvl/mxv
 BYTE   W03
 BYTE   VOL   17*songC6_mvl/mxv
 BYTE   W03
 BYTE   VOL   17*songC6_mvl/mxv
 BYTE   W03
 BYTE   VOL   17*songC6_mvl/mxv
 BYTE   W01
 BYTE   VOL   16*songC6_mvl/mxv
 BYTE   W03
 BYTE   VOL   16*songC6_mvl/mxv
 BYTE   W03
 BYTE   VOL   16*songC6_mvl/mxv
 BYTE   W03
 BYTE   VOL   15*songC6_mvl/mxv
 BYTE   W02
 BYTE   VOL   15*songC6_mvl/mxv
 BYTE   W03
 BYTE   VOL   15*songC6_mvl/mxv
 BYTE   W03
 BYTE   VOL   14*songC6_mvl/mxv
 BYTE   W03
 BYTE   VOL   14*songC6_mvl/mxv
 BYTE   W03
 BYTE   VOL   14*songC6_mvl/mxv
 BYTE   W01
 BYTE   VOL   13*songC6_mvl/mxv
 BYTE   W02
// 205   ----------------------------------------
 BYTE   W01
 BYTE   VOL   13*songC6_mvl/mxv
 BYTE   W03
 BYTE   VOL   13*songC6_mvl/mxv
 BYTE   W03
 BYTE   VOL   12*songC6_mvl/mxv
 BYTE   W03
 BYTE   VOL   12*songC6_mvl/mxv
 BYTE   W02
 BYTE   VOL   12*songC6_mvl/mxv
 BYTE   W03
 BYTE   VOL   11*songC6_mvl/mxv
 BYTE   W03
 BYTE   VOL   11*songC6_mvl/mxv
 BYTE   W03
 BYTE   VOL   11*songC6_mvl/mxv
 BYTE   W01
 BYTE   VOL   10*songC6_mvl/mxv
 BYTE   W03
 BYTE   VOL   10*songC6_mvl/mxv
 BYTE   W03
 BYTE   VOL   10*songC6_mvl/mxv
 BYTE   W03
 BYTE   VOL   9*songC6_mvl/mxv
 BYTE   W03
 BYTE   VOL   9*songC6_mvl/mxv
 BYTE   W02
 BYTE   VOL   9*songC6_mvl/mxv
 BYTE   W03
 BYTE   VOL   8*songC6_mvl/mxv
 BYTE   W03
 BYTE   VOL   8*songC6_mvl/mxv
 BYTE   W03
 BYTE   VOL   8*songC6_mvl/mxv
 BYTE   W02
 BYTE   EOT
 BYTE   Gs3  v073
 BYTE   Fn4  v080
 BYTE   Gs5
 BYTE   W01
 BYTE   VOL   7*songC6_mvl/mxv
 BYTE   W01
 BYTE   VOL   7*songC6_mvl/mxv
 BYTE   W03
 BYTE   VOL   7*songC6_mvl/mxv
 BYTE   W03
 BYTE   VOL   6*songC6_mvl/mxv
 BYTE   W03
 BYTE   VOL   6*songC6_mvl/mxv
 BYTE   W03
 BYTE   VOL   6*songC6_mvl/mxv
 BYTE   W02
 BYTE   VOL   5*songC6_mvl/mxv
 BYTE   W03
 BYTE   VOL   5*songC6_mvl/mxv
 BYTE   W03
 BYTE   VOL   5*songC6_mvl/mxv
 BYTE   W03
 BYTE   VOL   4*songC6_mvl/mxv
 BYTE   W01
 BYTE   VOL   4*songC6_mvl/mxv
 BYTE   W03
 BYTE   VOL   4*songC6_mvl/mxv
 BYTE   W03
 BYTE   VOL   3*songC6_mvl/mxv
 BYTE   W03
 BYTE   VOL   3*songC6_mvl/mxv
 BYTE   W03
 BYTE   VOL   3*songC6_mvl/mxv
 BYTE   W02
 BYTE   VOL   2*songC6_mvl/mxv
 BYTE   W03
 BYTE   VOL   2*songC6_mvl/mxv
 BYTE   W03
 BYTE   VOL   2*songC6_mvl/mxv
 BYTE   W03
// 206   ----------------------------------------
 BYTE   VOL   1*songC6_mvl/mxv
 BYTE   W03
 BYTE   VOL   1*songC6_mvl/mxv
 BYTE   W01
 BYTE   VOL   1*songC6_mvl/mxv
 BYTE   W03
 BYTE   VOL   0*songC6_mvl/mxv
 BYTE   W03
 BYTE   VOL   0*songC6_mvl/mxv
 BYTE   W03
 BYTE   VOL   0*songC6_mvl/mxv
 BYTE   W80
 BYTE   W03
// 207   ----------------------------------------
 BYTE   W96
// 208   ----------------------------------------
 BYTE   W96
// 209   ----------------------------------------
 BYTE   W96
// 210   ----------------------------------------
 BYTE   W96
// 211   ----------------------------------------
 BYTE   W96
// 212   ----------------------------------------
 BYTE   W48
 BYTE   GoTo
  POIN2 Label_4_014ADC4E
 BYTE   FINE

//**************** Track 6 (Midi-Chn.5) ****************//

songC6_006:
// 000   ----------------------------------------
 BYTE   KEYSH   songC6_key+0
Label_5_014AE60E:
 BYTE   VOICE   42
 BYTE   PAN   c_v+2
 BYTE   VOL   38*songC6_mvl/mxv
 BYTE   W96
// 001   ----------------------------------------
 BYTE   W96
// 002   ----------------------------------------
 BYTE   W96
// 003   ----------------------------------------
 BYTE   W96
// 004   ----------------------------------------
 BYTE   W96
// 005   ----------------------------------------
 BYTE   W96
// 006   ----------------------------------------
 BYTE   W96
// 007   ----------------------------------------
 BYTE   W96
// 008   ----------------------------------------
 BYTE   W96
// 009   ----------------------------------------
 BYTE   W96
// 010   ----------------------------------------
 BYTE   W96
// 011   ----------------------------------------
 BYTE   W96
// 012   ----------------------------------------
 BYTE   W96
// 013   ----------------------------------------
 BYTE   W96
// 014   ----------------------------------------
 BYTE   W96
// 015   ----------------------------------------
 BYTE   W96
// 016   ----------------------------------------
 BYTE   W96
// 017   ----------------------------------------
 BYTE   W96
// 018   ----------------------------------------
 BYTE   W96
// 019   ----------------------------------------
 BYTE   W96
// 020   ----------------------------------------
 BYTE   W96
// 021   ----------------------------------------
 BYTE   W96
// 022   ----------------------------------------
 BYTE   W96
// 023   ----------------------------------------
 BYTE   W96
// 024   ----------------------------------------
 BYTE   W96
// 025   ----------------------------------------
 BYTE   W96
// 026   ----------------------------------------
 BYTE   W96
// 027   ----------------------------------------
 BYTE   W96
// 028   ----------------------------------------
 BYTE   W96
// 029   ----------------------------------------
 BYTE   W96
// 030   ----------------------------------------
 BYTE   W96
// 031   ----------------------------------------
 BYTE   W48
 BYTE   N23  En3  v084
 BYTE   W13
 BYTE   VOL   38*songC6_mvl/mxv
 BYTE   W03
 BYTE   VOL   38*songC6_mvl/mxv
 BYTE   W02
 BYTE   VOL   37*songC6_mvl/mxv
 BYTE   W01
 BYTE   VOL   37*songC6_mvl/mxv
 BYTE   W02
 BYTE   VOL   37*songC6_mvl/mxv
 BYTE   W01
 BYTE   VOL   36*songC6_mvl/mxv
 BYTE   W02
 BYTE   VOL   36*songC6_mvl/mxv
 BYTE   W01
 BYTE   VOL   36*songC6_mvl/mxv
 BYTE   W02
 BYTE   VOL   35*songC6_mvl/mxv
 BYTE   W01
 BYTE   VOL   35*songC6_mvl/mxv
 BYTE   W02
 BYTE   VOL   35*songC6_mvl/mxv
 BYTE   W01
 BYTE   VOL   34*songC6_mvl/mxv
 BYTE   W02
 BYTE   VOL   33*songC6_mvl/mxv
 BYTE   W03
 BYTE   VOL   38*songC6_mvl/mxv
 BYTE   N04  Cs3  v080
 BYTE   W12
// 032   ----------------------------------------
 BYTE   N23  Fs3
 BYTE   W07
 BYTE   VOL   38*songC6_mvl/mxv
 BYTE   W03
 BYTE   VOL   37*songC6_mvl/mxv
 BYTE   W02
 BYTE   VOL   37*songC6_mvl/mxv
 BYTE   W01
 BYTE   VOL   36*songC6_mvl/mxv
 BYTE   W02
 BYTE   VOL   36*songC6_mvl/mxv
 BYTE   W01
 BYTE   VOL   36*songC6_mvl/mxv
 BYTE   W02
 BYTE   VOL   35*songC6_mvl/mxv
 BYTE   W01
 BYTE   VOL   35*songC6_mvl/mxv
 BYTE   W02
 BYTE   VOL   34*songC6_mvl/mxv
 BYTE   W01
 BYTE   VOL   34*songC6_mvl/mxv
 BYTE   W02
 BYTE   VOL   33*songC6_mvl/mxv
 BYTE   W01
 BYTE   VOL   33*songC6_mvl/mxv
 BYTE   W02
 BYTE   VOL   33*songC6_mvl/mxv
 BYTE   W01
 BYTE   VOL   32*songC6_mvl/mxv
 BYTE   W03
 BYTE   VOL   31*songC6_mvl/mxv
 BYTE   W02
 BYTE   VOL   31*songC6_mvl/mxv
 BYTE   W01
 BYTE   VOL   30*songC6_mvl/mxv
 BYTE   W02
 BYTE   VOL   39*songC6_mvl/mxv
 BYTE   N04  Gs3
 BYTE   W12
 BYTE   N17
 BYTE   W18
 BYTE   An3
 BYTE   W18
 BYTE   N11  Bn3
 BYTE   W12
// 033   ----------------------------------------
 BYTE   N17  An3
 BYTE   W18
 BYTE   Gs3
 BYTE   W18
 BYTE   N11  Fs3
 BYTE   W12
 BYTE   N17  En3
 BYTE   W18
 BYTE   VOL   33*songC6_mvl/mxv
 BYTE   N32  Cs4
 BYTE   W03
 BYTE   VOL   33*songC6_mvl/mxv
 BYTE   W01
 BYTE   VOL   34*songC6_mvl/mxv
 BYTE   W02
 BYTE   VOL   34*songC6_mvl/mxv
 BYTE   W01
 BYTE   VOL   35*songC6_mvl/mxv
 BYTE   W02
 BYTE   VOL   35*songC6_mvl/mxv
 BYTE   W01
 BYTE   VOL   35*songC6_mvl/mxv
 BYTE   W02
 BYTE   VOL   36*songC6_mvl/mxv
 BYTE   W01
 BYTE   VOL   36*songC6_mvl/mxv
 BYTE   W02
 BYTE   VOL   37*songC6_mvl/mxv
 BYTE   W01
 BYTE   VOL   38*songC6_mvl/mxv
 BYTE   W03
 BYTE   VOL   38*songC6_mvl/mxv
 BYTE   W02
 BYTE   VOL   38*songC6_mvl/mxv
 BYTE   W09
// 034   ----------------------------------------
 BYTE   W12
 BYTE   N11  En4
 BYTE   W12
 BYTE   N04  Ds4
 BYTE   W12
 BYTE   VOL   32*songC6_mvl/mxv
 BYTE   N56  Cs4
 BYTE   W01
 BYTE   VOL   33*songC6_mvl/mxv
 BYTE   W03
 BYTE   VOL   33*songC6_mvl/mxv
 BYTE   W02
 BYTE   VOL   33*songC6_mvl/mxv
 BYTE   W01
 BYTE   VOL   34*songC6_mvl/mxv
 BYTE   W03
 BYTE   VOL   34*songC6_mvl/mxv
 BYTE   W02
 BYTE   VOL   35*songC6_mvl/mxv
 BYTE   W01
 BYTE   VOL   35*songC6_mvl/mxv
 BYTE   W02
 BYTE   VOL   36*songC6_mvl/mxv
 BYTE   W01
 BYTE   VOL   36*songC6_mvl/mxv
 BYTE   W02
 BYTE   VOL   36*songC6_mvl/mxv
 BYTE   W03
 BYTE   VOL   37*songC6_mvl/mxv
 BYTE   W01
 BYTE   VOL   37*songC6_mvl/mxv
 BYTE   W06
 BYTE   VOL   37*songC6_mvl/mxv
 BYTE   W02
 BYTE   VOL   38*songC6_mvl/mxv
 BYTE   W10
 BYTE   VOL   37*songC6_mvl/mxv
 BYTE   W02
 BYTE   VOL   36*songC6_mvl/mxv
 BYTE   W01
 BYTE   VOL   36*songC6_mvl/mxv
 BYTE   W02
 BYTE   VOL   35*songC6_mvl/mxv
 BYTE   W01
 BYTE   VOL   35*songC6_mvl/mxv
 BYTE   W02
 BYTE   VOL   33*songC6_mvl/mxv
 BYTE   W01
 BYTE   VOL   32*songC6_mvl/mxv
 BYTE   W02
 BYTE   VOL   31*songC6_mvl/mxv
 BYTE   W01
 BYTE   VOL   30*songC6_mvl/mxv
 BYTE   W02
 BYTE   VOL   28*songC6_mvl/mxv
 BYTE   W01
 BYTE   VOL   27*songC6_mvl/mxv
 BYTE   W02
 BYTE   VOL   26*songC6_mvl/mxv
 BYTE   W01
 BYTE   VOL   22*songC6_mvl/mxv
 BYTE   W02
// 035   ----------------------------------------
 BYTE   VOL   38*songC6_mvl/mxv
 BYTE   N11
 BYTE   W12
 BYTE   Bn3
 BYTE   W12
 BYTE   N17  An3
 BYTE   W06
 BYTE   VOL   38*songC6_mvl/mxv
 BYTE   W01
 BYTE   VOL   36*songC6_mvl/mxv
 BYTE   W02
 BYTE   VOL   36*songC6_mvl/mxv
 BYTE   W01
 BYTE   VOL   35*songC6_mvl/mxv
 BYTE   W02
 BYTE   VOL   34*songC6_mvl/mxv
 BYTE   W01
 BYTE   VOL   33*songC6_mvl/mxv
 BYTE   W02
 BYTE   VOL   33*songC6_mvl/mxv
 BYTE   W01
 BYTE   VOL   31*songC6_mvl/mxv
 BYTE   W02
 BYTE   VOL   30*songC6_mvl/mxv
 BYTE   W01
 BYTE   VOL   29*songC6_mvl/mxv
 BYTE   W05
 BYTE   VOL   33*songC6_mvl/mxv
 BYTE   N32  Bn3  v072
 BYTE   W01
 BYTE   VOL   33*songC6_mvl/mxv
 BYTE   W02
 BYTE   VOL   34*songC6_mvl/mxv
 BYTE   W01
 BYTE   VOL   34*songC6_mvl/mxv
 BYTE   W02
 BYTE   VOL   35*songC6_mvl/mxv
 BYTE   W01
 BYTE   VOL   35*songC6_mvl/mxv
 BYTE   W02
 BYTE   VOL   36*songC6_mvl/mxv
 BYTE   W01
 BYTE   VOL   36*songC6_mvl/mxv
 BYTE   W02
 BYTE   VOL   36*songC6_mvl/mxv
 BYTE   W01
 BYTE   VOL   37*songC6_mvl/mxv
 BYTE   W02
 BYTE   VOL   37*songC6_mvl/mxv
 BYTE   W01
 BYTE   VOL   38*songC6_mvl/mxv
 BYTE   W03
 BYTE   VOL   38*songC6_mvl/mxv
 BYTE   W02
 BYTE   VOL   38*songC6_mvl/mxv
 BYTE   W15
 BYTE   N11  Gs3  v080
 BYTE   W12
// 036   ----------------------------------------
 BYTE   N32  Fs3  v072
 BYTE   W07
 BYTE   VOL   38*songC6_mvl/mxv
 BYTE   W02
 BYTE   VOL   37*songC6_mvl/mxv
 BYTE   W01
 BYTE   VOL   36*songC6_mvl/mxv
 BYTE   W02
 BYTE   VOL   36*songC6_mvl/mxv
 BYTE   W01
 BYTE   VOL   35*songC6_mvl/mxv
 BYTE   W02
 BYTE   VOL   34*songC6_mvl/mxv
 BYTE   W01
 BYTE   VOL   34*songC6_mvl/mxv
 BYTE   W02
 BYTE   VOL   33*songC6_mvl/mxv
 BYTE   W01
 BYTE   VOL   32*songC6_mvl/mxv
 BYTE   W02
 BYTE   VOL   31*songC6_mvl/mxv
 BYTE   W01
 BYTE   VOL   29*songC6_mvl/mxv
 BYTE   W02
 BYTE   VOL   28*songC6_mvl/mxv
 BYTE   W01
 BYTE   VOL   27*songC6_mvl/mxv
 BYTE   W02
 BYTE   VOL   26*songC6_mvl/mxv
 BYTE   W01
 BYTE   VOL   24*songC6_mvl/mxv
 BYTE   W02
 BYTE   VOL   19*songC6_mvl/mxv
 BYTE   W01
 BYTE   VOL   17*songC6_mvl/mxv
 BYTE   W02
 BYTE   VOL   16*songC6_mvl/mxv
 BYTE   W01
 BYTE   VOL   15*songC6_mvl/mxv
 BYTE   W02
 BYTE   VOL   38*songC6_mvl/mxv
 BYTE   N04  En3  v080
 BYTE   W06
 BYTE   Fs3
 BYTE   W06
 BYTE   N17  Gs3
 BYTE   W18
 BYTE   Fs3  v068
 BYTE   W18
 BYTE   N04  En3  v080
 BYTE   W12
// 037   ----------------------------------------
 BYTE   N17  Fs3  v072
 BYTE   W18
 BYTE   Bn2  v064
 BYTE   W18
 BYTE   N04  Ds3  v080
 BYTE   W12
 BYTE   N32  Ds3  v072
 BYTE   W06
 BYTE   VOL   38*songC6_mvl/mxv
 BYTE   W03
 BYTE   VOL   38*songC6_mvl/mxv
 BYTE   W06
 BYTE   VOL   37*songC6_mvl/mxv
 BYTE   W03
 BYTE   VOL   37*songC6_mvl/mxv
 BYTE   W04
 BYTE   VOL   37*songC6_mvl/mxv
 BYTE   W02
 BYTE   VOL   36*songC6_mvl/mxv
 BYTE   W03
 BYTE   VOL   36*songC6_mvl/mxv
 BYTE   W01
 BYTE   VOL   35*songC6_mvl/mxv
 BYTE   W02
 BYTE   VOL   35*songC6_mvl/mxv
 BYTE   W01
 BYTE   VOL   35*songC6_mvl/mxv
 BYTE   W02
 BYTE   VOL   34*songC6_mvl/mxv
 BYTE   W01
 BYTE   VOL   34*songC6_mvl/mxv
 BYTE   W02
 BYTE   VOL   38*songC6_mvl/mxv
 BYTE   N08  En3  v080
 BYTE   W12
// 038   ----------------------------------------
 BYTE   VOL   31*songC6_mvl/mxv
 BYTE   N92  Cs3  v072
 BYTE   W03
 BYTE   VOL   31*songC6_mvl/mxv
 BYTE   W01
 BYTE   VOL   32*songC6_mvl/mxv
 BYTE   W02
 BYTE   VOL   32*songC6_mvl/mxv
 BYTE   W01
 BYTE   VOL   33*songC6_mvl/mxv
 BYTE   W03
 BYTE   VOL   33*songC6_mvl/mxv
 BYTE   W02
 BYTE   VOL   34*songC6_mvl/mxv
 BYTE   W01
 BYTE   VOL   34*songC6_mvl/mxv
 BYTE   W02
 BYTE   VOL   34*songC6_mvl/mxv
 BYTE   W01
 BYTE   VOL   35*songC6_mvl/mxv
 BYTE   W02
 BYTE   VOL   35*songC6_mvl/mxv
 BYTE   W03
 BYTE   VOL   36*songC6_mvl/mxv
 BYTE   W01
 BYTE   VOL   36*songC6_mvl/mxv
 BYTE   W05
 BYTE   VOL   36*songC6_mvl/mxv
 BYTE   W06
 BYTE   VOL   37*songC6_mvl/mxv
 BYTE   W19
 BYTE   VOL   36*songC6_mvl/mxv
 BYTE   W05
 BYTE   VOL   36*songC6_mvl/mxv
 BYTE   W03
 BYTE   VOL   36*songC6_mvl/mxv
 BYTE   W03
 BYTE   VOL   35*songC6_mvl/mxv
 BYTE   W01
 BYTE   VOL   35*songC6_mvl/mxv
 BYTE   W02
 BYTE   VOL   35*songC6_mvl/mxv
 BYTE   W01
 BYTE   VOL   34*songC6_mvl/mxv
 BYTE   W02
 BYTE   VOL   34*songC6_mvl/mxv
 BYTE   W01
 BYTE   VOL   33*songC6_mvl/mxv
 BYTE   W02
 BYTE   VOL   33*songC6_mvl/mxv
 BYTE   W01
 BYTE   VOL   33*songC6_mvl/mxv
 BYTE   W02
 BYTE   VOL   32*songC6_mvl/mxv
 BYTE   W01
 BYTE   VOL   31*songC6_mvl/mxv
 BYTE   W02
 BYTE   VOL   31*songC6_mvl/mxv
 BYTE   W01
 BYTE   VOL   30*songC6_mvl/mxv
 BYTE   W02
 BYTE   VOL   30*songC6_mvl/mxv
 BYTE   W01
 BYTE   VOL   29*songC6_mvl/mxv
 BYTE   W02
 BYTE   VOL   28*songC6_mvl/mxv
 BYTE   W01
 BYTE   VOL   27*songC6_mvl/mxv
 BYTE   W02
 BYTE   VOL   26*songC6_mvl/mxv
 BYTE   W01
 BYTE   VOL   25*songC6_mvl/mxv
 BYTE   W02
 BYTE   VOL   24*songC6_mvl/mxv
 BYTE   W01
 BYTE   VOL   23*songC6_mvl/mxv
 BYTE   W02
 BYTE   VOL   20*songC6_mvl/mxv
 BYTE   W01
 BYTE   VOL   20*songC6_mvl/mxv
 BYTE   W02
// 039   ----------------------------------------
 BYTE   VOL   17*songC6_mvl/mxv
 BYTE   W01
 BYTE   VOL   16*songC6_mvl/mxv
 BYTE   W02
 BYTE   VOL   14*songC6_mvl/mxv
 BYTE   W01
 BYTE   VOL   12*songC6_mvl/mxv
 BYTE   W02
 BYTE   VOL   10*songC6_mvl/mxv
 BYTE   W01
 BYTE   VOL   7*songC6_mvl/mxv
 BYTE   W02
 BYTE   VOL   5*songC6_mvl/mxv
 BYTE   W01
 BYTE   VOL   0*songC6_mvl/mxv
 BYTE   W08
 BYTE   VOL   0*songC6_mvl/mxv
 BYTE   W01
 BYTE   VOL   1*songC6_mvl/mxv
 BYTE   W02
 BYTE   VOL   1*songC6_mvl/mxv
 BYTE   W01
 BYTE   VOL   2*songC6_mvl/mxv
 BYTE   W02
 BYTE   VOL   38*songC6_mvl/mxv
 BYTE   W72
// 040   ----------------------------------------
 BYTE   W96
// 041   ----------------------------------------
 BYTE   W96
// 042   ----------------------------------------
 BYTE   W96
// 043   ----------------------------------------
 BYTE   W96
// 044   ----------------------------------------
 BYTE   W96
// 045   ----------------------------------------
 BYTE   W96
// 046   ----------------------------------------
 BYTE   W96
// 047   ----------------------------------------
 BYTE   W96
// 048   ----------------------------------------
 BYTE   W96
// 049   ----------------------------------------
 BYTE   W96
// 050   ----------------------------------------
 BYTE   W96
// 051   ----------------------------------------
 BYTE   W96
// 052   ----------------------------------------
 BYTE   W96
// 053   ----------------------------------------
 BYTE   W96
// 054   ----------------------------------------
 BYTE   W96
// 055   ----------------------------------------
 BYTE   W96
// 056   ----------------------------------------
 BYTE   W96
// 057   ----------------------------------------
 BYTE   W96
// 058   ----------------------------------------
Label_5_014AE820:
 BYTE   W48
 BYTE   VOL   35*songC6_mvl/mxv
 BYTE   W01
 BYTE   VOL   36*songC6_mvl/mxv
 BYTE   W02
 BYTE   VOL   36*songC6_mvl/mxv
 BYTE   W01
 BYTE   VOL   36*songC6_mvl/mxv
 BYTE   W02
 BYTE   VOL   37*songC6_mvl/mxv
 BYTE   W01
 BYTE   VOL   37*songC6_mvl/mxv
 BYTE   W02
 BYTE   VOL   37*songC6_mvl/mxv
 BYTE   W03
 BYTE   VOL   38*songC6_mvl/mxv
 BYTE   W15
 BYTE   VOL   37*songC6_mvl/mxv
 BYTE   W01
 BYTE   VOL   37*songC6_mvl/mxv
 BYTE   W02
 BYTE   VOL   36*songC6_mvl/mxv
 BYTE   W01
 BYTE   VOL   36*songC6_mvl/mxv
 BYTE   W02
 BYTE   VOL   35*songC6_mvl/mxv
 BYTE   W01
 BYTE   VOL   35*songC6_mvl/mxv
 BYTE   W02
 BYTE   VOL   34*songC6_mvl/mxv
 BYTE   W01
 BYTE   VOL   33*songC6_mvl/mxv
 BYTE   W02
 BYTE   VOL   33*songC6_mvl/mxv
 BYTE   W01
 BYTE   VOL   32*songC6_mvl/mxv
 BYTE   W02
 BYTE   VOL   31*songC6_mvl/mxv
 BYTE   W01
 BYTE   VOL   30*songC6_mvl/mxv
 BYTE   W02
 BYTE   VOL   29*songC6_mvl/mxv
 BYTE   W01
 BYTE   VOL   27*songC6_mvl/mxv
 BYTE   W02
 BYTE   PEND 
// 059   ----------------------------------------
Label_5_014AE84F:
 BYTE   VOL   25*songC6_mvl/mxv
 BYTE   W01
 BYTE   VOL   23*songC6_mvl/mxv
 BYTE   W02
 BYTE   VOL   20*songC6_mvl/mxv
 BYTE   W01
 BYTE   VOL   19*songC6_mvl/mxv
 BYTE   W02
 BYTE   VOL   13*songC6_mvl/mxv
 BYTE   W01
 BYTE   VOL   9*songC6_mvl/mxv
 BYTE   W02
 BYTE   VOL   3*songC6_mvl/mxv
 BYTE   W01
 BYTE   VOL   38*songC6_mvl/mxv
 BYTE   W02
 BYTE   N11  As3  v076
 BYTE   W12
 BYTE   Ds4  v072
 BYTE   W12
 BYTE   Fn4  v068
 BYTE   W12
 BYTE   N32  Fs4
 BYTE   W36
 BYTE   N05  Fn4  v072
 BYTE   W12
 BYTE   PEND 
// 060   ----------------------------------------
Label_5_014AE872:
 BYTE   N28  Fn4  v072
 BYTE   W07
 BYTE   VOL   38*songC6_mvl/mxv
 BYTE   W03
 BYTE   VOL   37*songC6_mvl/mxv
 BYTE   W02
 BYTE   VOL   36*songC6_mvl/mxv
 BYTE   W01
 BYTE   VOL   36*songC6_mvl/mxv
 BYTE   W02
 BYTE   VOL   36*songC6_mvl/mxv
 BYTE   W01
 BYTE   VOL   35*songC6_mvl/mxv
 BYTE   W02
 BYTE   VOL   35*songC6_mvl/mxv
 BYTE   W01
 BYTE   VOL   34*songC6_mvl/mxv
 BYTE   W02
 BYTE   VOL   33*songC6_mvl/mxv
 BYTE   W01
 BYTE   VOL   33*songC6_mvl/mxv
 BYTE   W02
 BYTE   VOL   32*songC6_mvl/mxv
 BYTE   W01
 BYTE   VOL   31*songC6_mvl/mxv
 BYTE   W02
 BYTE   VOL   30*songC6_mvl/mxv
 BYTE   W01
 BYTE   VOL   29*songC6_mvl/mxv
 BYTE   W02
 BYTE   VOL   28*songC6_mvl/mxv
 BYTE   W01
 BYTE   VOL   24*songC6_mvl/mxv
 BYTE   W02
 BYTE   VOL   22*songC6_mvl/mxv
 BYTE   W01
 BYTE   VOL   23*songC6_mvl/mxv
 BYTE   W02
 BYTE   VOL   38*songC6_mvl/mxv
 BYTE   N05  Cs4
 BYTE   W06
 BYTE   Ds4
 BYTE   W06
 BYTE   N17  Fn4  v076
 BYTE   W18
 BYTE   Fs4
 BYTE   W18
 BYTE   N11  Fn4
 BYTE   W12
 BYTE   PEND 
// 061   ----------------------------------------
Label_5_014AE8AB:
 BYTE   N23  Ds4  v076
 BYTE   W24
 BYTE   N17  Cs4  v072
 BYTE   W24
 BYTE   N32
 BYTE   W12
 BYTE   VOL   38*songC6_mvl/mxv
 BYTE   W01
 BYTE   VOL   37*songC6_mvl/mxv
 BYTE   W03
 BYTE   VOL   36*songC6_mvl/mxv
 BYTE   W02
 BYTE   VOL   36*songC6_mvl/mxv
 BYTE   W01
 BYTE   VOL   35*songC6_mvl/mxv
 BYTE   W02
 BYTE   VOL   35*songC6_mvl/mxv
 BYTE   W01
 BYTE   VOL   34*songC6_mvl/mxv
 BYTE   W02
 BYTE   VOL   34*songC6_mvl/mxv
 BYTE   W01
 BYTE   VOL   33*songC6_mvl/mxv
 BYTE   W02
 BYTE   VOL   33*songC6_mvl/mxv
 BYTE   W01
 BYTE   VOL   32*songC6_mvl/mxv
 BYTE   W02
 BYTE   VOL   32*songC6_mvl/mxv
 BYTE   W01
 BYTE   VOL   31*songC6_mvl/mxv
 BYTE   W02
 BYTE   VOL   31*songC6_mvl/mxv
 BYTE   W01
 BYTE   VOL   30*songC6_mvl/mxv
 BYTE   W02
 BYTE   VOL   38*songC6_mvl/mxv
 BYTE   N11  Ds4
 BYTE   W12
 BYTE   PEND 
// 062   ----------------------------------------
Label_5_014AE8D9:
 BYTE   VOL   29*songC6_mvl/mxv
 BYTE   N92  As3  v072
 BYTE   W01
 BYTE   VOL   29*songC6_mvl/mxv
 BYTE   W02
 BYTE   VOL   30*songC6_mvl/mxv
 BYTE   W01
 BYTE   VOL   30*songC6_mvl/mxv
 BYTE   W02
 BYTE   VOL   31*songC6_mvl/mxv
 BYTE   W01
 BYTE   VOL   32*songC6_mvl/mxv
 BYTE   W02
 BYTE   VOL   33*songC6_mvl/mxv
 BYTE   W01
 BYTE   VOL   34*songC6_mvl/mxv
 BYTE   W02
 BYTE   VOL   34*songC6_mvl/mxv
 BYTE   W01
 BYTE   VOL   34*songC6_mvl/mxv
 BYTE   W02
 BYTE   VOL   35*songC6_mvl/mxv
 BYTE   W01
 BYTE   VOL   35*songC6_mvl/mxv
 BYTE   W02
 BYTE   VOL   36*songC6_mvl/mxv
 BYTE   W03
 BYTE   VOL   36*songC6_mvl/mxv
 BYTE   W01
 BYTE   VOL   37*songC6_mvl/mxv
 BYTE   W03
 BYTE   VOL   37*songC6_mvl/mxv
 BYTE   W06
 BYTE   VOL   37*songC6_mvl/mxv
 BYTE   W03
 BYTE   VOL   38*songC6_mvl/mxv
 BYTE   W18
 BYTE   VOL   37*songC6_mvl/mxv
 BYTE   W03
 BYTE   VOL   37*songC6_mvl/mxv
 BYTE   W05
 BYTE   VOL   36*songC6_mvl/mxv
 BYTE   W01
 BYTE   VOL   36*songC6_mvl/mxv
 BYTE   W02
 BYTE   VOL   36*songC6_mvl/mxv
 BYTE   W03
 BYTE   VOL   35*songC6_mvl/mxv
 BYTE   W01
 BYTE   VOL   35*songC6_mvl/mxv
 BYTE   W02
 BYTE   VOL   34*songC6_mvl/mxv
 BYTE   W01
 BYTE   VOL   34*songC6_mvl/mxv
 BYTE   W02
 BYTE   VOL   33*songC6_mvl/mxv
 BYTE   W01
 BYTE   VOL   33*songC6_mvl/mxv
 BYTE   W02
 BYTE   VOL   32*songC6_mvl/mxv
 BYTE   W01
 BYTE   VOL   32*songC6_mvl/mxv
 BYTE   W02
 BYTE   VOL   31*songC6_mvl/mxv
 BYTE   W01
 BYTE   VOL   30*songC6_mvl/mxv
 BYTE   W02
 BYTE   VOL   29*songC6_mvl/mxv
 BYTE   W01
 BYTE   VOL   29*songC6_mvl/mxv
 BYTE   W02
 BYTE   VOL   28*songC6_mvl/mxv
 BYTE   W01
 BYTE   VOL   27*songC6_mvl/mxv
 BYTE   W02
 BYTE   VOL   26*songC6_mvl/mxv
 BYTE   W01
 BYTE   VOL   25*songC6_mvl/mxv
 BYTE   W02
 BYTE   VOL   24*songC6_mvl/mxv
 BYTE   W01
 BYTE   VOL   23*songC6_mvl/mxv
 BYTE   W02
 BYTE   VOL   22*songC6_mvl/mxv
 BYTE   W01
 BYTE   VOL   21*songC6_mvl/mxv
 BYTE   W02
 BYTE   PEND 
// 063   ----------------------------------------
Label_5_014AE935:
 BYTE   VOL   20*songC6_mvl/mxv
 BYTE   W01
 BYTE   VOL   19*songC6_mvl/mxv
 BYTE   W02
 BYTE   VOL   17*songC6_mvl/mxv
 BYTE   W01
 BYTE   VOL   16*songC6_mvl/mxv
 BYTE   W02
 BYTE   VOL   15*songC6_mvl/mxv
 BYTE   W01
 BYTE   VOL   14*songC6_mvl/mxv
 BYTE   W02
 BYTE   VOL   12*songC6_mvl/mxv
 BYTE   W01
 BYTE   VOL   12*songC6_mvl/mxv
 BYTE   W02
 BYTE   VOL   38*songC6_mvl/mxv
 BYTE   W84
 BYTE   PEND 
// 064   ----------------------------------------
 BYTE   W96
// 065   ----------------------------------------
 BYTE   W96
// 066   ----------------------------------------
 BYTE   W96
// 067   ----------------------------------------
 BYTE   W96
// 068   ----------------------------------------
 BYTE   W96
// 069   ----------------------------------------
 BYTE   W96
// 070   ----------------------------------------
 BYTE   W96
// 071   ----------------------------------------
 BYTE   W96
// 072   ----------------------------------------
 BYTE   W96
// 073   ----------------------------------------
 BYTE   W96
// 074   ----------------------------------------
 BYTE   PATT
  POIN2 Label_5_014AE820
// 075   ----------------------------------------
 BYTE   PATT
  POIN2 Label_5_014AE84F
// 076   ----------------------------------------
 BYTE   PATT
  POIN2 Label_5_014AE872
// 077   ----------------------------------------
 BYTE   PATT
  POIN2 Label_5_014AE8AB
// 078   ----------------------------------------
 BYTE   PATT
  POIN2 Label_5_014AE8D9
// 079   ----------------------------------------
 BYTE   PATT
  POIN2 Label_5_014AE935
// 080   ----------------------------------------
 BYTE   W96
// 081   ----------------------------------------
 BYTE   W96
// 082   ----------------------------------------
 BYTE   W96
// 083   ----------------------------------------
 BYTE   W96
// 084   ----------------------------------------
 BYTE   W96
// 085   ----------------------------------------
 BYTE   W96
// 086   ----------------------------------------
 BYTE   W96
// 087   ----------------------------------------
 BYTE   W96
// 088   ----------------------------------------
 BYTE   W96
// 089   ----------------------------------------
 BYTE   W96
// 090   ----------------------------------------
 BYTE   W96
// 091   ----------------------------------------
 BYTE   W96
// 092   ----------------------------------------
 BYTE   W96
// 093   ----------------------------------------
 BYTE   W96
// 094   ----------------------------------------
 BYTE   W96
// 095   ----------------------------------------
 BYTE   W96
// 096   ----------------------------------------
 BYTE   W96
// 097   ----------------------------------------
 BYTE   W96
// 098   ----------------------------------------
 BYTE   W96
// 099   ----------------------------------------
 BYTE   W96
// 100   ----------------------------------------
 BYTE   W96
// 101   ----------------------------------------
 BYTE   W48
 BYTE   VOL   26*songC6_mvl/mxv
 BYTE   N32  Ds4  v072
 BYTE   W01
 BYTE   VOL   28*songC6_mvl/mxv
 BYTE   W02
 BYTE   VOL   29*songC6_mvl/mxv
 BYTE   W01
 BYTE   VOL   30*songC6_mvl/mxv
 BYTE   W02
 BYTE   VOL   33*songC6_mvl/mxv
 BYTE   W01
 BYTE   VOL   34*songC6_mvl/mxv
 BYTE   W02
 BYTE   VOL   35*songC6_mvl/mxv
 BYTE   W01
 BYTE   VOL   36*songC6_mvl/mxv
 BYTE   W02
 BYTE   VOL   36*songC6_mvl/mxv
 BYTE   W01
 BYTE   VOL   37*songC6_mvl/mxv
 BYTE   W02
 BYTE   VOL   37*songC6_mvl/mxv
 BYTE   W01
 BYTE   VOL   37*songC6_mvl/mxv
 BYTE   W02
 BYTE   VOL   38*songC6_mvl/mxv
 BYTE   W01
 BYTE   VOL   38*songC6_mvl/mxv
 BYTE   W17
 BYTE   N11  Cs4  v080
 BYTE   W12
// 102   ----------------------------------------
 BYTE   N32  Bn3
 BYTE   W10
 BYTE   VOL   38*songC6_mvl/mxv
 BYTE   W02
 BYTE   VOL   37*songC6_mvl/mxv
 BYTE   W01
 BYTE   VOL   37*songC6_mvl/mxv
 BYTE   W02
 BYTE   VOL   36*songC6_mvl/mxv
 BYTE   W01
 BYTE   VOL   36*songC6_mvl/mxv
 BYTE   W02
 BYTE   VOL   35*songC6_mvl/mxv
 BYTE   W01
 BYTE   VOL   34*songC6_mvl/mxv
 BYTE   W02
 BYTE   VOL   32*songC6_mvl/mxv
 BYTE   W01
 BYTE   VOL   32*songC6_mvl/mxv
 BYTE   W02
 BYTE   VOL   31*songC6_mvl/mxv
 BYTE   W01
 BYTE   VOL   30*songC6_mvl/mxv
 BYTE   W02
 BYTE   VOL   29*songC6_mvl/mxv
 BYTE   W01
 BYTE   VOL   27*songC6_mvl/mxv
 BYTE   W02
 BYTE   VOL   26*songC6_mvl/mxv
 BYTE   W01
 BYTE   VOL   23*songC6_mvl/mxv
 BYTE   W02
 BYTE   VOL   18*songC6_mvl/mxv
 BYTE   W01
 BYTE   VOL   14*songC6_mvl/mxv
 BYTE   W02
 BYTE   VOL   38*songC6_mvl/mxv
 BYTE   N04  Gs3
 BYTE   W06
 BYTE   An3
 BYTE   W06
 BYTE   N17  Bn3
 BYTE   W18
 BYTE   An3  v068
 BYTE   W18
 BYTE   N11  Fs3  v076
 BYTE   W12
// 103   ----------------------------------------
 BYTE   N17  Gs3  v080
 BYTE   W18
 BYTE   Fs3  v060
 BYTE   W18
 BYTE   N11  Ds3  v080
 BYTE   W12
 BYTE   N17  En3  v060
 BYTE   W18
 BYTE   N64  Cs4  v080
 BYTE   W01
 BYTE   VOL   38*songC6_mvl/mxv
 BYTE   W02
 BYTE   VOL   37*songC6_mvl/mxv
 BYTE   W01
 BYTE   VOL   36*songC6_mvl/mxv
 BYTE   W02
 BYTE   VOL   33*songC6_mvl/mxv
 BYTE   W01
 BYTE   VOL   31*songC6_mvl/mxv
 BYTE   W02
 BYTE   VOL   28*songC6_mvl/mxv
 BYTE   W03
 BYTE   VOL   28*songC6_mvl/mxv
 BYTE   W01
 BYTE   VOL   29*songC6_mvl/mxv
 BYTE   W02
 BYTE   VOL   29*songC6_mvl/mxv
 BYTE   W01
 BYTE   VOL   30*songC6_mvl/mxv
 BYTE   W02
 BYTE   VOL   30*songC6_mvl/mxv
 BYTE   W01
 BYTE   VOL   31*songC6_mvl/mxv
 BYTE   W02
 BYTE   VOL   31*songC6_mvl/mxv
 BYTE   W01
 BYTE   VOL   32*songC6_mvl/mxv
 BYTE   W02
 BYTE   VOL   33*songC6_mvl/mxv
 BYTE   W01
 BYTE   VOL   33*songC6_mvl/mxv
 BYTE   W02
 BYTE   VOL   34*songC6_mvl/mxv
 BYTE   W01
 BYTE   VOL   35*songC6_mvl/mxv
 BYTE   W02
// 104   ----------------------------------------
 BYTE   W03
 BYTE   VOL   36*songC6_mvl/mxv
 BYTE   W03
 BYTE   VOL   36*songC6_mvl/mxv
 BYTE   W03
 BYTE   VOL   37*songC6_mvl/mxv
 BYTE   W01
 BYTE   VOL   37*songC6_mvl/mxv
 BYTE   W02
 BYTE   VOL   37*songC6_mvl/mxv
 BYTE   W01
 BYTE   VOL   38*songC6_mvl/mxv
 BYTE   W03
 BYTE   VOL   37*songC6_mvl/mxv
 BYTE   W02
 BYTE   VOL   38*songC6_mvl/mxv
 BYTE   W03
 BYTE   VOL   38*songC6_mvl/mxv
 BYTE   W15
 BYTE   N05  Bn3
 BYTE   W06
 BYTE   An3
 BYTE   W06
 BYTE   N92  Gs3
 BYTE   W21
 BYTE   VOL   37*songC6_mvl/mxv
 BYTE   W01
 BYTE   VOL   37*songC6_mvl/mxv
 BYTE   W03
 BYTE   VOL   37*songC6_mvl/mxv
 BYTE   W03
 BYTE   VOL   36*songC6_mvl/mxv
 BYTE   W03
 BYTE   VOL   36*songC6_mvl/mxv
 BYTE   W02
 BYTE   VOL   36*songC6_mvl/mxv
 BYTE   W03
 BYTE   VOL   35*songC6_mvl/mxv
 BYTE   W03
 BYTE   VOL   35*songC6_mvl/mxv
 BYTE   W03
 BYTE   VOL   35*songC6_mvl/mxv
 BYTE   W03
 BYTE   VOL   34*songC6_mvl/mxv
 BYTE   W01
 BYTE   VOL   34*songC6_mvl/mxv
 BYTE   W02
// 105   ----------------------------------------
 BYTE   W01
 BYTE   VOL   34*songC6_mvl/mxv
 BYTE   W03
 BYTE   VOL   33*songC6_mvl/mxv
 BYTE   W03
 BYTE   VOL   33*songC6_mvl/mxv
 BYTE   W02
 BYTE   VOL   33*songC6_mvl/mxv
 BYTE   W03
 BYTE   VOL   32*songC6_mvl/mxv
 BYTE   W03
 BYTE   VOL   32*songC6_mvl/mxv
 BYTE   W03
 BYTE   VOL   32*songC6_mvl/mxv
 BYTE   W01
 BYTE   VOL   31*songC6_mvl/mxv
 BYTE   W03
 BYTE   VOL   31*songC6_mvl/mxv
 BYTE   W03
 BYTE   VOL   31*songC6_mvl/mxv
 BYTE   W03
 BYTE   VOL   30*songC6_mvl/mxv
 BYTE   W02
 BYTE   VOL   30*songC6_mvl/mxv
 BYTE   W03
 BYTE   VOL   30*songC6_mvl/mxv
 BYTE   W03
 BYTE   VOL   29*songC6_mvl/mxv
 BYTE   W03
 BYTE   VOL   29*songC6_mvl/mxv
 BYTE   W01
 BYTE   VOL   29*songC6_mvl/mxv
 BYTE   W03
 BYTE   VOL   28*songC6_mvl/mxv
 BYTE   W03
 BYTE   VOL   28*songC6_mvl/mxv
 BYTE   W03
 BYTE   VOL   28*songC6_mvl/mxv
 BYTE   W02
 BYTE   VOL   27*songC6_mvl/mxv
 BYTE   W03
 BYTE   VOL   27*songC6_mvl/mxv
 BYTE   W03
 BYTE   VOL   27*songC6_mvl/mxv
 BYTE   W03
 BYTE   VOL   26*songC6_mvl/mxv
 BYTE   W01
 BYTE   VOL   26*songC6_mvl/mxv
 BYTE   W03
 BYTE   VOL   26*songC6_mvl/mxv
 BYTE   W03
 BYTE   VOL   25*songC6_mvl/mxv
 BYTE   W03
 BYTE   VOL   25*songC6_mvl/mxv
 BYTE   W02
 BYTE   VOL   25*songC6_mvl/mxv
 BYTE   W03
 BYTE   VOL   24*songC6_mvl/mxv
 BYTE   W04
 BYTE   VOL   24*songC6_mvl/mxv
 BYTE   W02
 BYTE   VOL   24*songC6_mvl/mxv
 BYTE   W01
 BYTE   VOL   23*songC6_mvl/mxv
 BYTE   W02
 BYTE   VOL   23*songC6_mvl/mxv
 BYTE   W01
 BYTE   VOL   22*songC6_mvl/mxv
 BYTE   W03
 BYTE   VOL   22*songC6_mvl/mxv
 BYTE   W02
 BYTE   VOL   21*songC6_mvl/mxv
 BYTE   W03
 BYTE   VOL   20*songC6_mvl/mxv
 BYTE   W01
 BYTE   VOL   19*songC6_mvl/mxv
 BYTE   W02
// 106   ----------------------------------------
 BYTE   VOL   19*songC6_mvl/mxv
 BYTE   W01
 BYTE   VOL   18*songC6_mvl/mxv
 BYTE   W03
 BYTE   VOL   17*songC6_mvl/mxv
 BYTE   W02
 BYTE   VOL   16*songC6_mvl/mxv
 BYTE   W01
 BYTE   VOL   15*songC6_mvl/mxv
 BYTE   W02
 BYTE   VOL   14*songC6_mvl/mxv
 BYTE   W01
 BYTE   VOL   14*songC6_mvl/mxv
 BYTE   W02
 BYTE   VOL   13*songC6_mvl/mxv
 BYTE   W01
 BYTE   VOL   12*songC6_mvl/mxv
 BYTE   W02
 BYTE   VOL   12*songC6_mvl/mxv
 BYTE   W01
 BYTE   VOL   11*songC6_mvl/mxv
 BYTE   W02
 BYTE   VOL   10*songC6_mvl/mxv
 BYTE   W01
 BYTE   VOL   9*songC6_mvl/mxv
 BYTE   W02
 BYTE   VOL   8*songC6_mvl/mxv
 BYTE   W01
 BYTE   VOL   7*songC6_mvl/mxv
 BYTE   W02
 BYTE   VOL   6*songC6_mvl/mxv
 BYTE   W01
 BYTE   VOL   5*songC6_mvl/mxv
 BYTE   W02
 BYTE   VOL   4*songC6_mvl/mxv
 BYTE   W01
 BYTE   VOL   3*songC6_mvl/mxv
 BYTE   W02
 BYTE   VOL   2*songC6_mvl/mxv
 BYTE   W01
 BYTE   VOL   1*songC6_mvl/mxv
 BYTE   W02
 BYTE   VOL   0*songC6_mvl/mxv
 BYTE   W60
 BYTE   W03
// 107   ----------------------------------------
 BYTE   W96
// 108   ----------------------------------------
 BYTE   W96
// 109   ----------------------------------------
 BYTE   W42
 BYTE   VOL   38*songC6_mvl/mxv
 BYTE   W06
 BYTE   N32  Bn4  v076
 BYTE   W36
 BYTE   N11  An4  v064
 BYTE   W12
// 110   ----------------------------------------
 BYTE   N32  Gs4
 BYTE   W04
 BYTE   VOL   38*songC6_mvl/mxv
 BYTE   W02
 BYTE   VOL   38*songC6_mvl/mxv
 BYTE   W01
 BYTE   VOL   37*songC6_mvl/mxv
 BYTE   W03
 BYTE   VOL   36*songC6_mvl/mxv
 BYTE   W02
 BYTE   VOL   36*songC6_mvl/mxv
 BYTE   W01
 BYTE   VOL   35*songC6_mvl/mxv
 BYTE   W02
 BYTE   VOL   35*songC6_mvl/mxv
 BYTE   W01
 BYTE   VOL   34*songC6_mvl/mxv
 BYTE   W02
 BYTE   VOL   33*songC6_mvl/mxv
 BYTE   W01
 BYTE   VOL   33*songC6_mvl/mxv
 BYTE   W02
 BYTE   VOL   32*songC6_mvl/mxv
 BYTE   W01
 BYTE   VOL   31*songC6_mvl/mxv
 BYTE   W02
 BYTE   VOL   30*songC6_mvl/mxv
 BYTE   W01
 BYTE   VOL   28*songC6_mvl/mxv
 BYTE   W02
 BYTE   VOL   26*songC6_mvl/mxv
 BYTE   W01
 BYTE   VOL   22*songC6_mvl/mxv
 BYTE   W02
 BYTE   VOL   18*songC6_mvl/mxv
 BYTE   W01
 BYTE   VOL   12*songC6_mvl/mxv
 BYTE   W02
 BYTE   VOL   7*songC6_mvl/mxv
 BYTE   W01
 BYTE   VOL   38*songC6_mvl/mxv
 BYTE   W02
 BYTE   N04  En4  v080
 BYTE   W06
 BYTE   Fs4
 BYTE   W06
 BYTE   N17  Gs4
 BYTE   W18
 BYTE   Fs4  v068
 BYTE   W18
 BYTE   N11  En4  v080
 BYTE   W12
// 111   ----------------------------------------
 BYTE   N17  Ds4  v068
 BYTE   W18
 BYTE   Bn3  v080
 BYTE   W18
 BYTE   N11  Gs3  v060
 BYTE   W12
 BYTE   VOL   29*songC6_mvl/mxv
 BYTE   N92  Ds4  v072
 BYTE   W01
 BYTE   VOL   29*songC6_mvl/mxv
 BYTE   W02
 BYTE   VOL   30*songC6_mvl/mxv
 BYTE   W01
 BYTE   VOL   30*songC6_mvl/mxv
 BYTE   W02
 BYTE   VOL   31*songC6_mvl/mxv
 BYTE   W01
 BYTE   VOL   31*songC6_mvl/mxv
 BYTE   W02
 BYTE   VOL   31*songC6_mvl/mxv
 BYTE   W01
 BYTE   VOL   32*songC6_mvl/mxv
 BYTE   W02
 BYTE   VOL   32*songC6_mvl/mxv
 BYTE   W01
 BYTE   VOL   33*songC6_mvl/mxv
 BYTE   W02
 BYTE   VOL   33*songC6_mvl/mxv
 BYTE   W01
 BYTE   VOL   33*songC6_mvl/mxv
 BYTE   W02
 BYTE   VOL   34*songC6_mvl/mxv
 BYTE   W01
 BYTE   VOL   34*songC6_mvl/mxv
 BYTE   W02
 BYTE   VOL   35*songC6_mvl/mxv
 BYTE   W01
 BYTE   VOL   36*songC6_mvl/mxv
 BYTE   W02
 BYTE   VOL   36*songC6_mvl/mxv
 BYTE   W03
 BYTE   VOL   37*songC6_mvl/mxv
 BYTE   W01
 BYTE   VOL   37*songC6_mvl/mxv
 BYTE   W02
 BYTE   VOL   37*songC6_mvl/mxv
 BYTE   W01
 BYTE   VOL   38*songC6_mvl/mxv
 BYTE   W02
 BYTE   VOL   38*songC6_mvl/mxv
 BYTE   W01
 BYTE   VOL   38*songC6_mvl/mxv
 BYTE   W14
// 112   ----------------------------------------
 BYTE   W15
 BYTE   VOL   38*songC6_mvl/mxv
 BYTE   W04
 BYTE   VOL   37*songC6_mvl/mxv
 BYTE   W02
 BYTE   VOL   37*songC6_mvl/mxv
 BYTE   W01
 BYTE   VOL   37*songC6_mvl/mxv
 BYTE   W02
 BYTE   VOL   36*songC6_mvl/mxv
 BYTE   W01
 BYTE   VOL   36*songC6_mvl/mxv
 BYTE   W02
 BYTE   VOL   35*songC6_mvl/mxv
 BYTE   W01
 BYTE   VOL   35*songC6_mvl/mxv
 BYTE   W02
 BYTE   VOL   34*songC6_mvl/mxv
 BYTE   W01
 BYTE   VOL   33*songC6_mvl/mxv
 BYTE   W02
 BYTE   VOL   33*songC6_mvl/mxv
 BYTE   W01
 BYTE   VOL   32*songC6_mvl/mxv
 BYTE   W02
 BYTE   VOL   31*songC6_mvl/mxv
 BYTE   W01
 BYTE   VOL   31*songC6_mvl/mxv
 BYTE   W02
 BYTE   VOL   30*songC6_mvl/mxv
 BYTE   W01
 BYTE   VOL   29*songC6_mvl/mxv
 BYTE   W02
 BYTE   VOL   28*songC6_mvl/mxv
 BYTE   W01
 BYTE   VOL   26*songC6_mvl/mxv
 BYTE   W02
 BYTE   VOL   26*songC6_mvl/mxv
 BYTE   W01
 BYTE   VOL   25*songC6_mvl/mxv
 BYTE   W02
 BYTE   N68  Cs4  v068
 BYTE   W01
 BYTE   VOL   25*songC6_mvl/mxv
 BYTE   W02
 BYTE   VOL   26*songC6_mvl/mxv
 BYTE   W01
 BYTE   VOL   27*songC6_mvl/mxv
 BYTE   W02
 BYTE   VOL   28*songC6_mvl/mxv
 BYTE   W01
 BYTE   VOL   28*songC6_mvl/mxv
 BYTE   W02
 BYTE   VOL   29*songC6_mvl/mxv
 BYTE   W01
 BYTE   VOL   30*songC6_mvl/mxv
 BYTE   W02
 BYTE   VOL   30*songC6_mvl/mxv
 BYTE   W01
 BYTE   VOL   31*songC6_mvl/mxv
 BYTE   W02
 BYTE   VOL   31*songC6_mvl/mxv
 BYTE   W01
 BYTE   VOL   32*songC6_mvl/mxv
 BYTE   W02
 BYTE   VOL   32*songC6_mvl/mxv
 BYTE   W01
 BYTE   VOL   33*songC6_mvl/mxv
 BYTE   W02
 BYTE   VOL   33*songC6_mvl/mxv
 BYTE   W01
 BYTE   VOL   34*songC6_mvl/mxv
 BYTE   W02
 BYTE   VOL   34*songC6_mvl/mxv
 BYTE   W01
 BYTE   VOL   34*songC6_mvl/mxv
 BYTE   W02
 BYTE   VOL   35*songC6_mvl/mxv
 BYTE   W15
 BYTE   VOL   34*songC6_mvl/mxv
 BYTE   W03
 BYTE   VOL   34*songC6_mvl/mxv
 BYTE   W03
// 113   ----------------------------------------
 BYTE   VOL   33*songC6_mvl/mxv
 BYTE   W01
 BYTE   VOL   33*songC6_mvl/mxv
 BYTE   W02
 BYTE   VOL   32*songC6_mvl/mxv
 BYTE   W01
 BYTE   VOL   32*songC6_mvl/mxv
 BYTE   W02
 BYTE   VOL   31*songC6_mvl/mxv
 BYTE   W01
 BYTE   VOL   31*songC6_mvl/mxv
 BYTE   W02
 BYTE   VOL   30*songC6_mvl/mxv
 BYTE   W01
 BYTE   VOL   30*songC6_mvl/mxv
 BYTE   W02
 BYTE   VOL   29*songC6_mvl/mxv
 BYTE   W01
 BYTE   VOL   28*songC6_mvl/mxv
 BYTE   W02
 BYTE   VOL   27*songC6_mvl/mxv
 BYTE   W01
 BYTE   VOL   27*songC6_mvl/mxv
 BYTE   W02
 BYTE   VOL   26*songC6_mvl/mxv
 BYTE   W01
 BYTE   VOL   25*songC6_mvl/mxv
 BYTE   W02
 BYTE   VOL   24*songC6_mvl/mxv
 BYTE   W01
 BYTE   VOL   23*songC6_mvl/mxv
 BYTE   W02
 BYTE   VOL   22*songC6_mvl/mxv
 BYTE   W01
 BYTE   VOL   21*songC6_mvl/mxv
 BYTE   W02
 BYTE   VOL   20*songC6_mvl/mxv
 BYTE   W01
 BYTE   VOL   18*songC6_mvl/mxv
 BYTE   W02
 BYTE   VOL   17*songC6_mvl/mxv
 BYTE   W01
 BYTE   VOL   16*songC6_mvl/mxv
 BYTE   W02
 BYTE   VOL   15*songC6_mvl/mxv
 BYTE   W01
 BYTE   VOL   13*songC6_mvl/mxv
 BYTE   W02
 BYTE   VOL   12*songC6_mvl/mxv
 BYTE   W01
 BYTE   VOL   11*songC6_mvl/mxv
 BYTE   W02
 BYTE   VOL   9*songC6_mvl/mxv
 BYTE   W01
 BYTE   VOL   8*songC6_mvl/mxv
 BYTE   W02
 BYTE   VOL   7*songC6_mvl/mxv
 BYTE   W01
 BYTE   VOL   6*songC6_mvl/mxv
 BYTE   W02
 BYTE   VOL   5*songC6_mvl/mxv
 BYTE   W01
 BYTE   VOL   3*songC6_mvl/mxv
 BYTE   W02
 BYTE   VOL   38*songC6_mvl/mxv
 BYTE   W48
// 114   ----------------------------------------
 BYTE   W96
// 115   ----------------------------------------
 BYTE   W96
// 116   ----------------------------------------
 BYTE   W96
// 117   ----------------------------------------
 BYTE   W96
// 118   ----------------------------------------
 BYTE   W96
// 119   ----------------------------------------
 BYTE   W96
// 120   ----------------------------------------
 BYTE   W96
// 121   ----------------------------------------
 BYTE   W96
// 122   ----------------------------------------
 BYTE   W96
// 123   ----------------------------------------
 BYTE   W96
// 124   ----------------------------------------
 BYTE   W96
// 125   ----------------------------------------
 BYTE   W96
// 126   ----------------------------------------
 BYTE   W96
// 127   ----------------------------------------
 BYTE   W96
// 128   ----------------------------------------
 BYTE   W96
// 129   ----------------------------------------
 BYTE   W96
// 130   ----------------------------------------
 BYTE   W96
// 131   ----------------------------------------
 BYTE   W96
// 132   ----------------------------------------
 BYTE   W96
// 133   ----------------------------------------
 BYTE   PATT
  POIN2 Label_5_014AE820
// 134   ----------------------------------------
Label_5_014AEBFD:
 BYTE   VOL   25*songC6_mvl/mxv
 BYTE   W01
 BYTE   VOL   23*songC6_mvl/mxv
 BYTE   W02
 BYTE   VOL   20*songC6_mvl/mxv
 BYTE   W01
 BYTE   VOL   19*songC6_mvl/mxv
 BYTE   W02
 BYTE   VOL   13*songC6_mvl/mxv
 BYTE   W01
 BYTE   VOL   9*songC6_mvl/mxv
 BYTE   W02
 BYTE   VOL   3*songC6_mvl/mxv
 BYTE   W01
 BYTE   VOL   38*songC6_mvl/mxv
 BYTE   W02
 BYTE   N11  Cn4  v076
 BYTE   W12
 BYTE   Fn4  v072
 BYTE   W12
 BYTE   Gn4  v068
 BYTE   W12
 BYTE   N32  Gs4
 BYTE   W36
 BYTE   N05  Gn4  v072
 BYTE   W12
 BYTE   PEND 
// 135   ----------------------------------------
Label_5_014AEC20:
 BYTE   N28  Gn4  v072
 BYTE   W07
 BYTE   VOL   38*songC6_mvl/mxv
 BYTE   W03
 BYTE   VOL   37*songC6_mvl/mxv
 BYTE   W02
 BYTE   VOL   36*songC6_mvl/mxv
 BYTE   W01
 BYTE   VOL   36*songC6_mvl/mxv
 BYTE   W02
 BYTE   VOL   36*songC6_mvl/mxv
 BYTE   W01
 BYTE   VOL   35*songC6_mvl/mxv
 BYTE   W02
 BYTE   VOL   35*songC6_mvl/mxv
 BYTE   W01
 BYTE   VOL   34*songC6_mvl/mxv
 BYTE   W02
 BYTE   VOL   33*songC6_mvl/mxv
 BYTE   W01
 BYTE   VOL   33*songC6_mvl/mxv
 BYTE   W02
 BYTE   VOL   32*songC6_mvl/mxv
 BYTE   W01
 BYTE   VOL   31*songC6_mvl/mxv
 BYTE   W02
 BYTE   VOL   30*songC6_mvl/mxv
 BYTE   W01
 BYTE   VOL   29*songC6_mvl/mxv
 BYTE   W02
 BYTE   VOL   28*songC6_mvl/mxv
 BYTE   W01
 BYTE   VOL   24*songC6_mvl/mxv
 BYTE   W02
 BYTE   VOL   22*songC6_mvl/mxv
 BYTE   W01
 BYTE   VOL   23*songC6_mvl/mxv
 BYTE   W02
 BYTE   VOL   38*songC6_mvl/mxv
 BYTE   N05  Ds4
 BYTE   W06
 BYTE   Fn4
 BYTE   W06
 BYTE   N17  Gn4  v076
 BYTE   W18
 BYTE   Gs4
 BYTE   W18
 BYTE   N11  Gn4
 BYTE   W12
 BYTE   PEND 
// 136   ----------------------------------------
Label_5_014AEC59:
 BYTE   N23  Fn4  v076
 BYTE   W24
 BYTE   N17  Ds4  v072
 BYTE   W24
 BYTE   N32
 BYTE   W12
 BYTE   VOL   38*songC6_mvl/mxv
 BYTE   W01
 BYTE   VOL   37*songC6_mvl/mxv
 BYTE   W03
 BYTE   VOL   36*songC6_mvl/mxv
 BYTE   W02
 BYTE   VOL   36*songC6_mvl/mxv
 BYTE   W01
 BYTE   VOL   35*songC6_mvl/mxv
 BYTE   W02
 BYTE   VOL   35*songC6_mvl/mxv
 BYTE   W01
 BYTE   VOL   34*songC6_mvl/mxv
 BYTE   W02
 BYTE   VOL   34*songC6_mvl/mxv
 BYTE   W01
 BYTE   VOL   33*songC6_mvl/mxv
 BYTE   W02
 BYTE   VOL   33*songC6_mvl/mxv
 BYTE   W01
 BYTE   VOL   32*songC6_mvl/mxv
 BYTE   W02
 BYTE   VOL   32*songC6_mvl/mxv
 BYTE   W01
 BYTE   VOL   31*songC6_mvl/mxv
 BYTE   W02
 BYTE   VOL   31*songC6_mvl/mxv
 BYTE   W01
 BYTE   VOL   30*songC6_mvl/mxv
 BYTE   W02
 BYTE   VOL   38*songC6_mvl/mxv
 BYTE   N11  Fn4
 BYTE   W12
 BYTE   PEND 
// 137   ----------------------------------------
Label_5_014AEC87:
 BYTE   VOL   29*songC6_mvl/mxv
 BYTE   N92  Cn4  v072
 BYTE   W01
 BYTE   VOL   29*songC6_mvl/mxv
 BYTE   W02
 BYTE   VOL   30*songC6_mvl/mxv
 BYTE   W01
 BYTE   VOL   30*songC6_mvl/mxv
 BYTE   W02
 BYTE   VOL   31*songC6_mvl/mxv
 BYTE   W01
 BYTE   VOL   32*songC6_mvl/mxv
 BYTE   W02
 BYTE   VOL   33*songC6_mvl/mxv
 BYTE   W01
 BYTE   VOL   34*songC6_mvl/mxv
 BYTE   W02
 BYTE   VOL   34*songC6_mvl/mxv
 BYTE   W01
 BYTE   VOL   34*songC6_mvl/mxv
 BYTE   W02
 BYTE   VOL   35*songC6_mvl/mxv
 BYTE   W01
 BYTE   VOL   35*songC6_mvl/mxv
 BYTE   W02
 BYTE   VOL   36*songC6_mvl/mxv
 BYTE   W03
 BYTE   VOL   36*songC6_mvl/mxv
 BYTE   W01
 BYTE   VOL   37*songC6_mvl/mxv
 BYTE   W03
 BYTE   VOL   37*songC6_mvl/mxv
 BYTE   W06
 BYTE   VOL   37*songC6_mvl/mxv
 BYTE   W03
 BYTE   VOL   38*songC6_mvl/mxv
 BYTE   W18
 BYTE   VOL   37*songC6_mvl/mxv
 BYTE   W03
 BYTE   VOL   37*songC6_mvl/mxv
 BYTE   W05
 BYTE   VOL   36*songC6_mvl/mxv
 BYTE   W01
 BYTE   VOL   36*songC6_mvl/mxv
 BYTE   W02
 BYTE   VOL   36*songC6_mvl/mxv
 BYTE   W03
 BYTE   VOL   35*songC6_mvl/mxv
 BYTE   W01
 BYTE   VOL   35*songC6_mvl/mxv
 BYTE   W02
 BYTE   VOL   34*songC6_mvl/mxv
 BYTE   W01
 BYTE   VOL   34*songC6_mvl/mxv
 BYTE   W02
 BYTE   VOL   33*songC6_mvl/mxv
 BYTE   W01
 BYTE   VOL   33*songC6_mvl/mxv
 BYTE   W02
 BYTE   VOL   32*songC6_mvl/mxv
 BYTE   W01
 BYTE   VOL   32*songC6_mvl/mxv
 BYTE   W02
 BYTE   VOL   31*songC6_mvl/mxv
 BYTE   W01
 BYTE   VOL   30*songC6_mvl/mxv
 BYTE   W02
 BYTE   VOL   29*songC6_mvl/mxv
 BYTE   W01
 BYTE   VOL   29*songC6_mvl/mxv
 BYTE   W02
 BYTE   VOL   28*songC6_mvl/mxv
 BYTE   W01
 BYTE   VOL   27*songC6_mvl/mxv
 BYTE   W02
 BYTE   VOL   26*songC6_mvl/mxv
 BYTE   W01
 BYTE   VOL   25*songC6_mvl/mxv
 BYTE   W02
 BYTE   VOL   24*songC6_mvl/mxv
 BYTE   W01
 BYTE   VOL   23*songC6_mvl/mxv
 BYTE   W02
 BYTE   VOL   22*songC6_mvl/mxv
 BYTE   W01
 BYTE   VOL   21*songC6_mvl/mxv
 BYTE   W02
 BYTE   PEND 
// 138   ----------------------------------------
 BYTE   PATT
  POIN2 Label_5_014AE935
// 139   ----------------------------------------
 BYTE   W96
// 140   ----------------------------------------
 BYTE   W96
// 141   ----------------------------------------
 BYTE   W96
// 142   ----------------------------------------
 BYTE   W96
// 143   ----------------------------------------
 BYTE   W96
// 144   ----------------------------------------
 BYTE   W96
// 145   ----------------------------------------
 BYTE   W96
// 146   ----------------------------------------
 BYTE   W96
// 147   ----------------------------------------
 BYTE   W96
// 148   ----------------------------------------
 BYTE   W96
// 149   ----------------------------------------
 BYTE   PATT
  POIN2 Label_5_014AE820
// 150   ----------------------------------------
 BYTE   PATT
  POIN2 Label_5_014AEBFD
// 151   ----------------------------------------
 BYTE   PATT
  POIN2 Label_5_014AEC20
// 152   ----------------------------------------
 BYTE   PATT
  POIN2 Label_5_014AEC59
// 153   ----------------------------------------
 BYTE   PATT
  POIN2 Label_5_014AEC87
// 154   ----------------------------------------
 BYTE   PATT
  POIN2 Label_5_014AE935
// 155   ----------------------------------------
 BYTE   W96
// 156   ----------------------------------------
 BYTE   W96
// 157   ----------------------------------------
 BYTE   W96
// 158   ----------------------------------------
 BYTE   W96
// 159   ----------------------------------------
 BYTE   W96
// 160   ----------------------------------------
 BYTE   W96
// 161   ----------------------------------------
 BYTE   W96
// 162   ----------------------------------------
 BYTE   W96
// 163   ----------------------------------------
 BYTE   W96
// 164   ----------------------------------------
 BYTE   W96
// 165   ----------------------------------------
 BYTE   W96
// 166   ----------------------------------------
 BYTE   W96
// 167   ----------------------------------------
 BYTE   W96
// 168   ----------------------------------------
 BYTE   W48
 BYTE   VOL   38*songC6_mvl/mxv
 BYTE   N32  As3  v076
 BYTE   W10
 BYTE   VOL   38*songC6_mvl/mxv
 BYTE   W02
 BYTE   VOL   37*songC6_mvl/mxv
 BYTE   W01
 BYTE   VOL   37*songC6_mvl/mxv
 BYTE   W02
 BYTE   VOL   36*songC6_mvl/mxv
 BYTE   W01
 BYTE   VOL   36*songC6_mvl/mxv
 BYTE   W02
 BYTE   VOL   35*songC6_mvl/mxv
 BYTE   W01
 BYTE   VOL   34*songC6_mvl/mxv
 BYTE   W02
 BYTE   VOL   34*songC6_mvl/mxv
 BYTE   W01
 BYTE   VOL   33*songC6_mvl/mxv
 BYTE   W02
 BYTE   VOL   32*songC6_mvl/mxv
 BYTE   W01
 BYTE   VOL   31*songC6_mvl/mxv
 BYTE   W02
 BYTE   VOL   30*songC6_mvl/mxv
 BYTE   W01
 BYTE   VOL   29*songC6_mvl/mxv
 BYTE   W02
 BYTE   VOL   29*songC6_mvl/mxv
 BYTE   W01
 BYTE   VOL   28*songC6_mvl/mxv
 BYTE   W02
 BYTE   VOL   27*songC6_mvl/mxv
 BYTE   W01
 BYTE   VOL   26*songC6_mvl/mxv
 BYTE   W02
 BYTE   VOL   38*songC6_mvl/mxv
 BYTE   N11  Cn4  v080
 BYTE   W12
// 169   ----------------------------------------
 BYTE   VOL   31*songC6_mvl/mxv
 BYTE   N92  Gs3
 BYTE   W01
 BYTE   VOL   31*songC6_mvl/mxv
 BYTE   W02
 BYTE   VOL   32*songC6_mvl/mxv
 BYTE   W01
 BYTE   VOL   32*songC6_mvl/mxv
 BYTE   W02
 BYTE   VOL   32*songC6_mvl/mxv
 BYTE   W01
 BYTE   VOL   33*songC6_mvl/mxv
 BYTE   W02
 BYTE   VOL   33*songC6_mvl/mxv
 BYTE   W01
 BYTE   VOL   33*songC6_mvl/mxv
 BYTE   W02
 BYTE   VOL   34*songC6_mvl/mxv
 BYTE   W01
 BYTE   VOL   34*songC6_mvl/mxv
 BYTE   W02
 BYTE   VOL   35*songC6_mvl/mxv
 BYTE   W01
 BYTE   VOL   35*songC6_mvl/mxv
 BYTE   W02
 BYTE   VOL   36*songC6_mvl/mxv
 BYTE   W01
 BYTE   VOL   36*songC6_mvl/mxv
 BYTE   W02
 BYTE   VOL   36*songC6_mvl/mxv
 BYTE   W03
 BYTE   VOL   37*songC6_mvl/mxv
 BYTE   W04
 BYTE   VOL   37*songC6_mvl/mxv
 BYTE   W03
 BYTE   VOL   38*songC6_mvl/mxv
 BYTE   W02
 BYTE   VOL   38*songC6_mvl/mxv
 BYTE   W09
 BYTE   VOL   38*songC6_mvl/mxv
 BYTE   W01
 BYTE   VOL   39*songC6_mvl/mxv
 BYTE   W18
 BYTE   VOL   38*songC6_mvl/mxv
 BYTE   W03
 BYTE   VOL   38*songC6_mvl/mxv
 BYTE   W03
 BYTE   VOL   38*songC6_mvl/mxv
 BYTE   W02
 BYTE   VOL   37*songC6_mvl/mxv
 BYTE   W03
 BYTE   VOL   37*songC6_mvl/mxv
 BYTE   W01
 BYTE   VOL   36*songC6_mvl/mxv
 BYTE   W02
 BYTE   VOL   36*songC6_mvl/mxv
 BYTE   W03
 BYTE   VOL   35*songC6_mvl/mxv
 BYTE   W01
 BYTE   VOL   34*songC6_mvl/mxv
 BYTE   W02
 BYTE   VOL   34*songC6_mvl/mxv
 BYTE   W01
 BYTE   VOL   34*songC6_mvl/mxv
 BYTE   W02
 BYTE   VOL   33*songC6_mvl/mxv
 BYTE   W01
 BYTE   VOL   32*songC6_mvl/mxv
 BYTE   W02
 BYTE   VOL   32*songC6_mvl/mxv
 BYTE   W01
 BYTE   VOL   31*songC6_mvl/mxv
 BYTE   W02
 BYTE   VOL   30*songC6_mvl/mxv
 BYTE   W01
 BYTE   VOL   29*songC6_mvl/mxv
 BYTE   W02
 BYTE   VOL   28*songC6_mvl/mxv
 BYTE   W01
 BYTE   VOL   27*songC6_mvl/mxv
 BYTE   W02
// 170   ----------------------------------------
 BYTE   VOL   26*songC6_mvl/mxv
 BYTE   W01
 BYTE   VOL   24*songC6_mvl/mxv
 BYTE   W02
 BYTE   VOL   22*songC6_mvl/mxv
 BYTE   W01
 BYTE   VOL   19*songC6_mvl/mxv
 BYTE   W02
 BYTE   VOL   17*songC6_mvl/mxv
 BYTE   W01
 BYTE   VOL   15*songC6_mvl/mxv
 BYTE   W02
 BYTE   VOL   13*songC6_mvl/mxv
 BYTE   W01
 BYTE   VOL   12*songC6_mvl/mxv
 BYTE   W02
 BYTE   VOL   38*songC6_mvl/mxv
 BYTE   W84
// 171   ----------------------------------------
 BYTE   W12
 BYTE   VOL   38*songC6_mvl/mxv
 BYTE   N11  Cn3  v084
 BYTE   W12
 BYTE   Fn3  v092
 BYTE   W12
 BYTE   Gs3
 BYTE   W12
 BYTE   VOL   32*songC6_mvl/mxv
 BYTE   N23  Gn3
 BYTE   W01
 BYTE   VOL   33*songC6_mvl/mxv
 BYTE   W02
 BYTE   VOL   33*songC6_mvl/mxv
 BYTE   W01
 BYTE   VOL   34*songC6_mvl/mxv
 BYTE   W02
 BYTE   VOL   35*songC6_mvl/mxv
 BYTE   W01
 BYTE   VOL   35*songC6_mvl/mxv
 BYTE   W02
 BYTE   VOL   36*songC6_mvl/mxv
 BYTE   W01
 BYTE   VOL   37*songC6_mvl/mxv
 BYTE   W02
 BYTE   VOL   38*songC6_mvl/mxv
 BYTE   W01
 BYTE   VOL   38*songC6_mvl/mxv
 BYTE   W02
 BYTE   VOL   38*songC6_mvl/mxv
 BYTE   W09
 BYTE   N07  Fn3
 BYTE   W12
 BYTE   VOL   31*songC6_mvl/mxv
 BYTE   N23  Cn3
 BYTE   W01
 BYTE   VOL   32*songC6_mvl/mxv
 BYTE   W02
 BYTE   VOL   33*songC6_mvl/mxv
 BYTE   W01
 BYTE   VOL   33*songC6_mvl/mxv
 BYTE   W02
 BYTE   VOL   34*songC6_mvl/mxv
 BYTE   W01
 BYTE   VOL   34*songC6_mvl/mxv
 BYTE   W02
 BYTE   VOL   35*songC6_mvl/mxv
 BYTE   W01
 BYTE   VOL   36*songC6_mvl/mxv
 BYTE   W02
// 172   ----------------------------------------
 BYTE   VOL   36*songC6_mvl/mxv
 BYTE   W01
 BYTE   VOL   36*songC6_mvl/mxv
 BYTE   W02
 BYTE   VOL   37*songC6_mvl/mxv
 BYTE   W01
 BYTE   VOL   37*songC6_mvl/mxv
 BYTE   W02
 BYTE   VOL   38*songC6_mvl/mxv
 BYTE   W01
 BYTE   VOL   38*songC6_mvl/mxv
 BYTE   W05
 BYTE   N11  As2  v084
 BYTE   W12
 BYTE   Gs2  v080
 BYTE   W12
 BYTE   N64  Cn3  v092
 BYTE   W13
 BYTE   VOL   38*songC6_mvl/mxv
 BYTE   W06
 BYTE   VOL   38*songC6_mvl/mxv
 BYTE   W03
 BYTE   VOL   37*songC6_mvl/mxv
 BYTE   W02
 BYTE   VOL   37*songC6_mvl/mxv
 BYTE   W01
 BYTE   VOL   36*songC6_mvl/mxv
 BYTE   W03
 BYTE   VOL   36*songC6_mvl/mxv
 BYTE   W02
 BYTE   VOL   35*songC6_mvl/mxv
 BYTE   W01
 BYTE   VOL   35*songC6_mvl/mxv
 BYTE   W03
 BYTE   VOL   34*songC6_mvl/mxv
 BYTE   W02
 BYTE   VOL   34*songC6_mvl/mxv
 BYTE   W01
 BYTE   VOL   34*songC6_mvl/mxv
 BYTE   W02
 BYTE   VOL   33*songC6_mvl/mxv
 BYTE   W01
 BYTE   VOL   33*songC6_mvl/mxv
 BYTE   W02
 BYTE   VOL   32*songC6_mvl/mxv
 BYTE   W01
 BYTE   VOL   31*songC6_mvl/mxv
 BYTE   W02
 BYTE   VOL   30*songC6_mvl/mxv
 BYTE   W01
 BYTE   VOL   30*songC6_mvl/mxv
 BYTE   W02
 BYTE   VOL   29*songC6_mvl/mxv
 BYTE   W01
 BYTE   VOL   29*songC6_mvl/mxv
 BYTE   W02
 BYTE   VOL   28*songC6_mvl/mxv
 BYTE   W01
 BYTE   VOL   27*songC6_mvl/mxv
 BYTE   W02
 BYTE   VOL   26*songC6_mvl/mxv
 BYTE   W01
 BYTE   VOL   25*songC6_mvl/mxv
 BYTE   W02
 BYTE   VOL   25*songC6_mvl/mxv
 BYTE   W01
 BYTE   VOL   24*songC6_mvl/mxv
 BYTE   W02
// 173   ----------------------------------------
 BYTE   VOL   23*songC6_mvl/mxv
 BYTE   W01
 BYTE   VOL   21*songC6_mvl/mxv
 BYTE   W02
 BYTE   VOL   20*songC6_mvl/mxv
 BYTE   W01
 BYTE   VOL   19*songC6_mvl/mxv
 BYTE   W02
 BYTE   VOL   18*songC6_mvl/mxv
 BYTE   W01
 BYTE   VOL   14*songC6_mvl/mxv
 BYTE   W02
 BYTE   VOL   13*songC6_mvl/mxv
 BYTE   W01
 BYTE   VOL   12*songC6_mvl/mxv
 BYTE   W02
 BYTE   VOL   38*songC6_mvl/mxv
 BYTE   N11
 BYTE   W12
 BYTE   Fn3
 BYTE   W12
 BYTE   Gs3
 BYTE   W12
 BYTE   N23  Gn3
 BYTE   W24
 BYTE   N07  Fn3
 BYTE   W12
 BYTE   N23  Cn3
 BYTE   W12
// 174   ----------------------------------------
 BYTE   W12
 BYTE   N11  As2  v076
 BYTE   W12
 BYTE   Cn3  v092
 BYTE   W12
 BYTE   VOL   34*songC6_mvl/mxv
 BYTE   TIE  Fn2  v064
 BYTE   W01
 BYTE   VOL   35*songC6_mvl/mxv
 BYTE   W02
 BYTE   VOL   35*songC6_mvl/mxv
 BYTE   W03
 BYTE   VOL   36*songC6_mvl/mxv
 BYTE   W03
 BYTE   VOL   36*songC6_mvl/mxv
 BYTE   W01
 BYTE   VOL   37*songC6_mvl/mxv
 BYTE   W02
 BYTE   VOL   37*songC6_mvl/mxv
 BYTE   W03
 BYTE   VOL   37*songC6_mvl/mxv
 BYTE   W01
 BYTE   VOL   38*songC6_mvl/mxv
 BYTE   W14
 BYTE   VOL   37*songC6_mvl/mxv
 BYTE   W01
 BYTE   VOL   37*songC6_mvl/mxv
 BYTE   W02
 BYTE   VOL   37*songC6_mvl/mxv
 BYTE   W01
 BYTE   VOL   36*songC6_mvl/mxv
 BYTE   W02
 BYTE   VOL   36*songC6_mvl/mxv
 BYTE   W01
 BYTE   VOL   35*songC6_mvl/mxv
 BYTE   W02
 BYTE   VOL   34*songC6_mvl/mxv
 BYTE   W01
 BYTE   VOL   34*songC6_mvl/mxv
 BYTE   W02
 BYTE   VOL   33*songC6_mvl/mxv
 BYTE   W01
 BYTE   VOL   33*songC6_mvl/mxv
 BYTE   W02
 BYTE   VOL   32*songC6_mvl/mxv
 BYTE   W01
 BYTE   VOL   32*songC6_mvl/mxv
 BYTE   W02
 BYTE   VOL   31*songC6_mvl/mxv
 BYTE   W01
 BYTE   VOL   30*songC6_mvl/mxv
 BYTE   W03
 BYTE   VOL   30*songC6_mvl/mxv
 BYTE   W02
 BYTE   VOL   29*songC6_mvl/mxv
 BYTE   W01
 BYTE   VOL   28*songC6_mvl/mxv
 BYTE   W02
 BYTE   VOL   28*songC6_mvl/mxv
 BYTE   W01
 BYTE   VOL   27*songC6_mvl/mxv
 BYTE   W02
// 175   ----------------------------------------
 BYTE   VOL   27*songC6_mvl/mxv
 BYTE   W01
 BYTE   VOL   26*songC6_mvl/mxv
 BYTE   W02
 BYTE   VOL   25*songC6_mvl/mxv
 BYTE   W01
 BYTE   VOL   25*songC6_mvl/mxv
 BYTE   W02
 BYTE   VOL   24*songC6_mvl/mxv
 BYTE   W01
 BYTE   VOL   23*songC6_mvl/mxv
 BYTE   W02
 BYTE   VOL   23*songC6_mvl/mxv
 BYTE   W01
 BYTE   VOL   22*songC6_mvl/mxv
 BYTE   W02
 BYTE   VOL   22*songC6_mvl/mxv
 BYTE   W01
 BYTE   VOL   21*songC6_mvl/mxv
 BYTE   W02
 BYTE   VOL   20*songC6_mvl/mxv
 BYTE   W01
 BYTE   VOL   19*songC6_mvl/mxv
 BYTE   W02
 BYTE   VOL   19*songC6_mvl/mxv
 BYTE   W01
 BYTE   VOL   18*songC6_mvl/mxv
 BYTE   W02
 BYTE   VOL   17*songC6_mvl/mxv
 BYTE   W01
 BYTE   VOL   17*songC6_mvl/mxv
 BYTE   W02
 BYTE   VOL   16*songC6_mvl/mxv
 BYTE   W01
 BYTE   VOL   15*songC6_mvl/mxv
 BYTE   W02
 BYTE   VOL   14*songC6_mvl/mxv
 BYTE   W01
 BYTE   VOL   14*songC6_mvl/mxv
 BYTE   W02
 BYTE   VOL   13*songC6_mvl/mxv
 BYTE   W01
 BYTE   VOL   12*songC6_mvl/mxv
 BYTE   W02
 BYTE   VOL   12*songC6_mvl/mxv
 BYTE   W01
 BYTE   VOL   11*songC6_mvl/mxv
 BYTE   W02
 BYTE   VOL   10*songC6_mvl/mxv
 BYTE   W01
 BYTE   VOL   9*songC6_mvl/mxv
 BYTE   W02
 BYTE   VOL   9*songC6_mvl/mxv
 BYTE   W01
 BYTE   VOL   8*songC6_mvl/mxv
 BYTE   W02
 BYTE   VOL   7*songC6_mvl/mxv
 BYTE   W01
 BYTE   VOL   6*songC6_mvl/mxv
 BYTE   W02
 BYTE   VOL   6*songC6_mvl/mxv
 BYTE   W01
 BYTE   VOL   5*songC6_mvl/mxv
 BYTE   W01
 BYTE   EOT
 BYTE   W01
 BYTE   VOL   4*songC6_mvl/mxv
 BYTE   W01
 BYTE   VOL   3*songC6_mvl/mxv
 BYTE   W02
 BYTE   VOL   2*songC6_mvl/mxv
 BYTE   W01
 BYTE   VOL   1*songC6_mvl/mxv
 BYTE   W02
 BYTE   VOL   0*songC6_mvl/mxv
 BYTE   W01
 BYTE   VOL   0*songC6_mvl/mxv
 BYTE   W40
 BYTE   W01
// 176   ----------------------------------------
 BYTE   W96
// 177   ----------------------------------------
 BYTE   W60
 BYTE   W03
 BYTE   VOL   0*songC6_mvl/mxv
 BYTE   W32
 BYTE   W01
// 178   ----------------------------------------
 BYTE   VOL   31*songC6_mvl/mxv
 BYTE   W01
 BYTE   VOL   31*songC6_mvl/mxv
 BYTE   W02
 BYTE   VOL   32*songC6_mvl/mxv
 BYTE   W01
 BYTE   VOL   33*songC6_mvl/mxv
 BYTE   W02
 BYTE   VOL   34*songC6_mvl/mxv
 BYTE   W01
 BYTE   VOL   35*songC6_mvl/mxv
 BYTE   W02
 BYTE   VOL   36*songC6_mvl/mxv
 BYTE   W01
 BYTE   VOL   36*songC6_mvl/mxv
 BYTE   W02
 BYTE   VOL   37*songC6_mvl/mxv
 BYTE   W01
 BYTE   VOL   37*songC6_mvl/mxv
 BYTE   W02
 BYTE   VOL   38*songC6_mvl/mxv
 BYTE   W01
 BYTE   VOL   38*songC6_mvl/mxv
 BYTE   W80
// 179   ----------------------------------------
 BYTE   W12
 BYTE   N11  Cn3  v088
 BYTE   W12
 BYTE   Fn3  v092
 BYTE   W12
 BYTE   Gs3
 BYTE   W12
 BYTE   N23  Gn3
 BYTE   W24
 BYTE   N05  Fn3
 BYTE   W12
 BYTE   N23  Cn3
 BYTE   W12
// 180   ----------------------------------------
 BYTE   W12
 BYTE   N11  As2
 BYTE   W12
 BYTE   Gs2  v080
 BYTE   W12
 BYTE   VOL   31*songC6_mvl/mxv
 BYTE   N64  Cn3  v092
 BYTE   W03
 BYTE   VOL   32*songC6_mvl/mxv
 BYTE   W03
 BYTE   VOL   32*songC6_mvl/mxv
 BYTE   W01
 BYTE   VOL   33*songC6_mvl/mxv
 BYTE   W02
 BYTE   VOL   33*songC6_mvl/mxv
 BYTE   W01
 BYTE   VOL   34*songC6_mvl/mxv
 BYTE   W02
 BYTE   VOL   34*songC6_mvl/mxv
 BYTE   W01
 BYTE   VOL   35*songC6_mvl/mxv
 BYTE   W02
 BYTE   VOL   35*songC6_mvl/mxv
 BYTE   W01
 BYTE   VOL   35*songC6_mvl/mxv
 BYTE   W02
 BYTE   VOL   36*songC6_mvl/mxv
 BYTE   W01
 BYTE   VOL   36*songC6_mvl/mxv
 BYTE   W02
 BYTE   VOL   37*songC6_mvl/mxv
 BYTE   W01
 BYTE   VOL   37*songC6_mvl/mxv
 BYTE   W02
 BYTE   VOL   38*songC6_mvl/mxv
 BYTE   W01
 BYTE   VOL   38*songC6_mvl/mxv
 BYTE   W03
 BYTE   VOL   39*songC6_mvl/mxv
 BYTE   W14
 BYTE   VOL   38*songC6_mvl/mxv
 BYTE   W01
 BYTE   VOL   38*songC6_mvl/mxv
 BYTE   W02
 BYTE   VOL   38*songC6_mvl/mxv
 BYTE   W01
 BYTE   VOL   37*songC6_mvl/mxv
 BYTE   W02
 BYTE   VOL   36*songC6_mvl/mxv
 BYTE   W01
 BYTE   VOL   36*songC6_mvl/mxv
 BYTE   W02
 BYTE   VOL   35*songC6_mvl/mxv
 BYTE   W01
 BYTE   VOL   35*songC6_mvl/mxv
 BYTE   W02
 BYTE   VOL   33*songC6_mvl/mxv
 BYTE   W01
 BYTE   VOL   32*songC6_mvl/mxv
 BYTE   W02
 BYTE   VOL   31*songC6_mvl/mxv
 BYTE   W01
 BYTE   VOL   30*songC6_mvl/mxv
 BYTE   W02
// 181   ----------------------------------------
 BYTE   VOL   28*songC6_mvl/mxv
 BYTE   W01
 BYTE   VOL   26*songC6_mvl/mxv
 BYTE   W02
 BYTE   VOL   25*songC6_mvl/mxv
 BYTE   W01
 BYTE   VOL   23*songC6_mvl/mxv
 BYTE   W02
 BYTE   VOL   21*songC6_mvl/mxv
 BYTE   W01
 BYTE   VOL   19*songC6_mvl/mxv
 BYTE   W02
 BYTE   VOL   17*songC6_mvl/mxv
 BYTE   W01
 BYTE   VOL   14*songC6_mvl/mxv
 BYTE   W02
 BYTE   VOL   38*songC6_mvl/mxv
 BYTE   N11
 BYTE   W12
 BYTE   Fn3
 BYTE   W12
 BYTE   Gs3
 BYTE   W12
 BYTE   N23  As3
 BYTE   W06
 BYTE   VOL   38*songC6_mvl/mxv
 BYTE   W03
 BYTE   VOL   38*songC6_mvl/mxv
 BYTE   W01
 BYTE   VOL   37*songC6_mvl/mxv
 BYTE   W02
 BYTE   VOL   37*songC6_mvl/mxv
 BYTE   W01
 BYTE   VOL   36*songC6_mvl/mxv
 BYTE   W02
 BYTE   VOL   36*songC6_mvl/mxv
 BYTE   W01
 BYTE   VOL   35*songC6_mvl/mxv
 BYTE   W02
 BYTE   VOL   34*songC6_mvl/mxv
 BYTE   W01
 BYTE   VOL   33*songC6_mvl/mxv
 BYTE   W02
 BYTE   VOL   33*songC6_mvl/mxv
 BYTE   W01
 BYTE   VOL   32*songC6_mvl/mxv
 BYTE   W02
 BYTE   VOL   38*songC6_mvl/mxv
 BYTE   N05  Gs3
 BYTE   W12
 BYTE   VOL   38*songC6_mvl/mxv
 BYTE   N23  Gn3  v096
 BYTE   W04
 BYTE   VOL   38*songC6_mvl/mxv
 BYTE   W02
 BYTE   VOL   37*songC6_mvl/mxv
 BYTE   W01
 BYTE   VOL   36*songC6_mvl/mxv
 BYTE   W02
 BYTE   VOL   35*songC6_mvl/mxv
 BYTE   W01
 BYTE   VOL   35*songC6_mvl/mxv
 BYTE   W02
// 182   ----------------------------------------
 BYTE   VOL   34*songC6_mvl/mxv
 BYTE   W01
 BYTE   VOL   33*songC6_mvl/mxv
 BYTE   W02
 BYTE   VOL   33*songC6_mvl/mxv
 BYTE   W01
 BYTE   VOL   32*songC6_mvl/mxv
 BYTE   W02
 BYTE   VOL   31*songC6_mvl/mxv
 BYTE   W01
 BYTE   VOL   31*songC6_mvl/mxv
 BYTE   W02
 BYTE   VOL   29*songC6_mvl/mxv
 BYTE   W01
 BYTE   VOL   29*songC6_mvl/mxv
 BYTE   W02
 BYTE   VOL   38*songC6_mvl/mxv
 BYTE   N11  Gs3
 BYTE   W12
 BYTE   As3  v088
 BYTE   W12
 BYTE   VOL   29*songC6_mvl/mxv
 BYTE   N44  Cn4  v092
 BYTE   W04
 BYTE   VOL   29*songC6_mvl/mxv
 BYTE   W03
 BYTE   VOL   30*songC6_mvl/mxv
 BYTE   W02
 BYTE   VOL   30*songC6_mvl/mxv
 BYTE   W01
 BYTE   VOL   30*songC6_mvl/mxv
 BYTE   W02
 BYTE   VOL   31*songC6_mvl/mxv
 BYTE   W01
 BYTE   VOL   31*songC6_mvl/mxv
 BYTE   W02
 BYTE   VOL   32*songC6_mvl/mxv
 BYTE   W01
 BYTE   VOL   33*songC6_mvl/mxv
 BYTE   W02
 BYTE   VOL   34*songC6_mvl/mxv
 BYTE   W01
 BYTE   VOL   34*songC6_mvl/mxv
 BYTE   W02
 BYTE   VOL   35*songC6_mvl/mxv
 BYTE   W01
 BYTE   VOL   35*songC6_mvl/mxv
 BYTE   W02
 BYTE   VOL   36*songC6_mvl/mxv
 BYTE   W01
 BYTE   VOL   36*songC6_mvl/mxv
 BYTE   W02
 BYTE   VOL   37*songC6_mvl/mxv
 BYTE   W01
 BYTE   VOL   37*songC6_mvl/mxv
 BYTE   W02
 BYTE   VOL   38*songC6_mvl/mxv
 BYTE   W01
 BYTE   VOL   38*songC6_mvl/mxv
 BYTE   W02
 BYTE   VOL   38*songC6_mvl/mxv
 BYTE   W15
 BYTE   N05  Gn3  v076
 BYTE   W12
// 183   ----------------------------------------
 BYTE   N28
 BYTE   W36
 BYTE   N05  Fn3  v080
 BYTE   W06
 BYTE   Gn3
 BYTE   W06
 BYTE   N17  Gs3  v072
 BYTE   W18
 BYTE   As3  v076
 BYTE   W18
 BYTE   N11  Gs3  v072
 BYTE   W12
// 184   ----------------------------------------
 BYTE   N23  Gn3  v076
 BYTE   W24
 BYTE   N17  Ds3  v080
 BYTE   W24
 BYTE   N32
 BYTE   W36
 BYTE   N11  Fn3  v076
 BYTE   W12
// 185   ----------------------------------------
 BYTE   VOL   29*songC6_mvl/mxv
 BYTE   TIE  Cn3  v064
 BYTE   W03
 BYTE   VOL   30*songC6_mvl/mxv
 BYTE   W01
 BYTE   VOL   30*songC6_mvl/mxv
 BYTE   W03
 BYTE   VOL   31*songC6_mvl/mxv
 BYTE   W02
 BYTE   VOL   31*songC6_mvl/mxv
 BYTE   W01
 BYTE   VOL   31*songC6_mvl/mxv
 BYTE   W02
 BYTE   VOL   32*songC6_mvl/mxv
 BYTE   W01
 BYTE   VOL   32*songC6_mvl/mxv
 BYTE   W03
 BYTE   VOL   33*songC6_mvl/mxv
 BYTE   W02
 BYTE   VOL   33*songC6_mvl/mxv
 BYTE   W03
 BYTE   VOL   34*songC6_mvl/mxv
 BYTE   W01
 BYTE   VOL   34*songC6_mvl/mxv
 BYTE   W03
 BYTE   VOL   35*songC6_mvl/mxv
 BYTE   W03
 BYTE   VOL   35*songC6_mvl/mxv
 BYTE   W02
 BYTE   VOL   36*songC6_mvl/mxv
 BYTE   W01
 BYTE   VOL   36*songC6_mvl/mxv
 BYTE   W02
 BYTE   VOL   36*songC6_mvl/mxv
 BYTE   W01
 BYTE   VOL   37*songC6_mvl/mxv
 BYTE   W02
 BYTE   VOL   37*songC6_mvl/mxv
 BYTE   W04
 BYTE   VOL   37*songC6_mvl/mxv
 BYTE   W23
 BYTE   VOL   37*songC6_mvl/mxv
 BYTE   W04
 BYTE   VOL   37*songC6_mvl/mxv
 BYTE   W03
 BYTE   VOL   36*songC6_mvl/mxv
 BYTE   W02
 BYTE   VOL   36*songC6_mvl/mxv
 BYTE   W01
 BYTE   VOL   36*songC6_mvl/mxv
 BYTE   W02
 BYTE   VOL   35*songC6_mvl/mxv
 BYTE   W01
 BYTE   VOL   35*songC6_mvl/mxv
 BYTE   W02
 BYTE   VOL   35*songC6_mvl/mxv
 BYTE   W01
 BYTE   VOL   34*songC6_mvl/mxv
 BYTE   W02
 BYTE   VOL   33*songC6_mvl/mxv
 BYTE   W01
 BYTE   VOL   33*songC6_mvl/mxv
 BYTE   W02
 BYTE   VOL   32*songC6_mvl/mxv
 BYTE   W01
 BYTE   VOL   31*songC6_mvl/mxv
 BYTE   W02
 BYTE   VOL   31*songC6_mvl/mxv
 BYTE   W01
 BYTE   VOL   30*songC6_mvl/mxv
 BYTE   W02
 BYTE   VOL   29*songC6_mvl/mxv
 BYTE   W01
 BYTE   VOL   28*songC6_mvl/mxv
 BYTE   W02
 BYTE   VOL   27*songC6_mvl/mxv
 BYTE   W01
 BYTE   VOL   27*songC6_mvl/mxv
 BYTE   W02
// 186   ----------------------------------------
 BYTE   VOL   25*songC6_mvl/mxv
 BYTE   W01
 BYTE   VOL   25*songC6_mvl/mxv
 BYTE   W02
 BYTE   VOL   24*songC6_mvl/mxv
 BYTE   W01
 BYTE   VOL   23*songC6_mvl/mxv
 BYTE   W02
 BYTE   VOL   22*songC6_mvl/mxv
 BYTE   W01
 BYTE   VOL   20*songC6_mvl/mxv
 BYTE   W02
 BYTE   VOL   19*songC6_mvl/mxv
 BYTE   W01
 BYTE   VOL   17*songC6_mvl/mxv
 BYTE   W02
 BYTE   VOL   16*songC6_mvl/mxv
 BYTE   W01
 BYTE   VOL   15*songC6_mvl/mxv
 BYTE   W02
 BYTE   VOL   13*songC6_mvl/mxv
 BYTE   W01
 BYTE   VOL   12*songC6_mvl/mxv
 BYTE   W02
 BYTE   VOL   11*songC6_mvl/mxv
 BYTE   W01
 BYTE   VOL   9*songC6_mvl/mxv
 BYTE   W02
 BYTE   VOL   8*songC6_mvl/mxv
 BYTE   W01
 BYTE   VOL   6*songC6_mvl/mxv
 BYTE   W02
 BYTE   VOL   5*songC6_mvl/mxv
 BYTE   W01
 BYTE   VOL   4*songC6_mvl/mxv
 BYTE   W02
 BYTE   VOL   2*songC6_mvl/mxv
 BYTE   W01
 BYTE   VOL   0*songC6_mvl/mxv
 BYTE   W01
 BYTE   EOT
 BYTE   W01
 BYTE   VOL   0*songC6_mvl/mxv
 BYTE   W66
// 187   ----------------------------------------
 BYTE   W96
// 188   ----------------------------------------
 BYTE   W96
// 189   ----------------------------------------
 BYTE   W96
// 190   ----------------------------------------
 BYTE   W96
// 191   ----------------------------------------
 BYTE   W96
// 192   ----------------------------------------
 BYTE   W96
// 193   ----------------------------------------
 BYTE   W96
// 194   ----------------------------------------
 BYTE   W96
// 195   ----------------------------------------
 BYTE   W96
// 196   ----------------------------------------
 BYTE   W96
// 197   ----------------------------------------
 BYTE   W96
// 198   ----------------------------------------
 BYTE   W96
// 199   ----------------------------------------
 BYTE   W96
// 200   ----------------------------------------
 BYTE   W96
// 201   ----------------------------------------
 BYTE   W96
// 202   ----------------------------------------
 BYTE   W96
// 203   ----------------------------------------
 BYTE   W96
// 204   ----------------------------------------
 BYTE   W48
 BYTE   GoTo
  POIN2 Label_5_014AE60E
 BYTE   FINE

//**************** Track 7 (Midi-Chn.6) ****************//

songC6_007:
// 000   ----------------------------------------
 BYTE   KEYSH   songC6_key+0
Label_6_014AF0AE:
 BYTE   VOICE   110
 BYTE   PAN   c_v+17
 BYTE   VOL   38*songC6_mvl/mxv
 BYTE   W36
 BYTE   VOL   38*songC6_mvl/mxv
 BYTE   W01
 BYTE   VOL   37*songC6_mvl/mxv
 BYTE   W02
 BYTE   VOL   37*songC6_mvl/mxv
 BYTE   W01
 BYTE   VOL   36*songC6_mvl/mxv
 BYTE   W02
 BYTE   VOL   35*songC6_mvl/mxv
 BYTE   W01
 BYTE   VOL   34*songC6_mvl/mxv
 BYTE   W02
 BYTE   VOL   33*songC6_mvl/mxv
 BYTE   W01
 BYTE   VOL   33*songC6_mvl/mxv
 BYTE   W02
 BYTE   VOL   34*songC6_mvl/mxv
 BYTE   N11  Bn3  v080
 BYTE   W01
 BYTE   VOL   34*songC6_mvl/mxv
 BYTE   W02
 BYTE   VOL   36*songC6_mvl/mxv
 BYTE   W01
 BYTE   VOL   37*songC6_mvl/mxv
 BYTE   W02
 BYTE   VOL   38*songC6_mvl/mxv
 BYTE   W01
 BYTE   VOL   38*songC6_mvl/mxv
 BYTE   W05
 BYTE   N11  Gs4  v092
 BYTE   W12
 BYTE   An4  v072
 BYTE   W12
 BYTE   N32  Bn4  v100
 BYTE   W07
 BYTE   VOL   38*songC6_mvl/mxv
 BYTE   W05
// 001   ----------------------------------------
 BYTE   VOL   38*songC6_mvl/mxv
 BYTE   W01
 BYTE   VOL   37*songC6_mvl/mxv
 BYTE   W02
 BYTE   VOL   37*songC6_mvl/mxv
 BYTE   W03
 BYTE   VOL   37*songC6_mvl/mxv
 BYTE   W01
 BYTE   VOL   36*songC6_mvl/mxv
 BYTE   W02
 BYTE   VOL   36*songC6_mvl/mxv
 BYTE   W01
 BYTE   VOL   36*songC6_mvl/mxv
 BYTE   W02
 BYTE   VOL   35*songC6_mvl/mxv
 BYTE   W01
 BYTE   VOL   35*songC6_mvl/mxv
 BYTE   W02
 BYTE   VOL   34*songC6_mvl/mxv
 BYTE   W01
 BYTE   VOL   34*songC6_mvl/mxv
 BYTE   W02
 BYTE   VOL   33*songC6_mvl/mxv
 BYTE   W01
 BYTE   VOL   33*songC6_mvl/mxv
 BYTE   W02
 BYTE   VOL   32*songC6_mvl/mxv
 BYTE   W01
 BYTE   VOL   31*songC6_mvl/mxv
 BYTE   W02
 BYTE   VOL   38*songC6_mvl/mxv
 BYTE   N11  An4  v088
 BYTE   W12
 BYTE   Gs4  v064
 BYTE   W12
 BYTE   VOL   32*songC6_mvl/mxv
 BYTE   TIE  En4  v080
 BYTE   W09
 BYTE   VOL   32*songC6_mvl/mxv
 BYTE   W03
 BYTE   VOL   32*songC6_mvl/mxv
 BYTE   W01
 BYTE   VOL   33*songC6_mvl/mxv
 BYTE   W03
 BYTE   VOL   33*songC6_mvl/mxv
 BYTE   W02
 BYTE   VOL   34*songC6_mvl/mxv
 BYTE   W03
 BYTE   VOL   35*songC6_mvl/mxv
 BYTE   W03
 BYTE   VOL   35*songC6_mvl/mxv
 BYTE   W03
 BYTE   VOL   36*songC6_mvl/mxv
 BYTE   W01
 BYTE   VOL   36*songC6_mvl/mxv
 BYTE   W03
 BYTE   VOL   36*songC6_mvl/mxv
 BYTE   W02
 BYTE   VOL   37*songC6_mvl/mxv
 BYTE   W01
 BYTE   VOL   37*songC6_mvl/mxv
 BYTE   W14
// 002   ----------------------------------------
 BYTE   W24
 BYTE   W01
 BYTE   VOL   37*songC6_mvl/mxv
 BYTE   W03
 BYTE   VOL   36*songC6_mvl/mxv
 BYTE   W02
 BYTE   VOL   36*songC6_mvl/mxv
 BYTE   W03
 BYTE   VOL   36*songC6_mvl/mxv
 BYTE   W03
 BYTE   VOL   35*songC6_mvl/mxv
 BYTE   W01
 BYTE   VOL   35*songC6_mvl/mxv
 BYTE   W03
 BYTE   VOL   34*songC6_mvl/mxv
 BYTE   W03
 BYTE   VOL   34*songC6_mvl/mxv
 BYTE   W03
 BYTE   VOL   33*songC6_mvl/mxv
 BYTE   W02
 BYTE   VOL   33*songC6_mvl/mxv
 BYTE   W01
 BYTE   VOL   33*songC6_mvl/mxv
 BYTE   W03
 BYTE   VOL   32*songC6_mvl/mxv
 BYTE   W02
 BYTE   VOL   32*songC6_mvl/mxv
 BYTE   W01
 BYTE   VOL   31*songC6_mvl/mxv
 BYTE   W02
 BYTE   VOL   30*songC6_mvl/mxv
 BYTE   W03
 BYTE   VOL   30*songC6_mvl/mxv
 BYTE   W01
 BYTE   VOL   29*songC6_mvl/mxv
 BYTE   W02
 BYTE   VOL   28*songC6_mvl/mxv
 BYTE   W01
 BYTE   VOL   28*songC6_mvl/mxv
 BYTE   W02
 BYTE   VOL   27*songC6_mvl/mxv
 BYTE   W01
 BYTE   VOL   27*songC6_mvl/mxv
 BYTE   W02
 BYTE   VOL   26*songC6_mvl/mxv
 BYTE   W01
 BYTE   VOL   26*songC6_mvl/mxv
 BYTE   W02
 BYTE   VOL   25*songC6_mvl/mxv
 BYTE   W01
 BYTE   VOL   25*songC6_mvl/mxv
 BYTE   W02
 BYTE   VOL   24*songC6_mvl/mxv
 BYTE   W01
 BYTE   VOL   23*songC6_mvl/mxv
 BYTE   W02
 BYTE   VOL   23*songC6_mvl/mxv
 BYTE   W01
 BYTE   VOL   22*songC6_mvl/mxv
 BYTE   W02
 BYTE   VOL   22*songC6_mvl/mxv
 BYTE   W01
 BYTE   VOL   20*songC6_mvl/mxv
 BYTE   W02
 BYTE   VOL   19*songC6_mvl/mxv
 BYTE   W01
 BYTE   VOL   19*songC6_mvl/mxv
 BYTE   W02
 BYTE   VOL   18*songC6_mvl/mxv
 BYTE   W01
 BYTE   VOL   17*songC6_mvl/mxv
 BYTE   W02
 BYTE   VOL   16*songC6_mvl/mxv
 BYTE   W01
 BYTE   VOL   15*songC6_mvl/mxv
 BYTE   W02
 BYTE   VOL   14*songC6_mvl/mxv
 BYTE   W01
 BYTE   VOL   14*songC6_mvl/mxv
 BYTE   W02
// 003   ----------------------------------------
 BYTE   VOL   13*songC6_mvl/mxv
 BYTE   W01
 BYTE   VOL   13*songC6_mvl/mxv
 BYTE   W02
 BYTE   VOL   12*songC6_mvl/mxv
 BYTE   W01
 BYTE   VOL   11*songC6_mvl/mxv
 BYTE   W02
 BYTE   VOL   10*songC6_mvl/mxv
 BYTE   W01
 BYTE   VOL   9*songC6_mvl/mxv
 BYTE   W02
 BYTE   VOL   9*songC6_mvl/mxv
 BYTE   W01
 BYTE   VOL   8*songC6_mvl/mxv
 BYTE   W02
 BYTE   VOL   7*songC6_mvl/mxv
 BYTE   W01
 BYTE   VOL   6*songC6_mvl/mxv
 BYTE   W02
 BYTE   VOL   5*songC6_mvl/mxv
 BYTE   W01
 BYTE   VOL   4*songC6_mvl/mxv
 BYTE   W02
 BYTE   VOL   3*songC6_mvl/mxv
 BYTE   W01
 BYTE   VOL   3*songC6_mvl/mxv
 BYTE   W02
 BYTE   VOL   1*songC6_mvl/mxv
 BYTE   W01
 BYTE   VOL   0*songC6_mvl/mxv
 BYTE   W02
 BYTE   VOL   0*songC6_mvl/mxv
 BYTE   W23
 BYTE   EOT
 BYTE   W44
 BYTE   W03
 BYTE   VOL   33*songC6_mvl/mxv
 BYTE   W02
// 004   ----------------------------------------
 BYTE   W01
 BYTE   VOL   33*songC6_mvl/mxv
 BYTE   W03
 BYTE   VOL   33*songC6_mvl/mxv
 BYTE   W02
 BYTE   VOL   34*songC6_mvl/mxv
 BYTE   W01
 BYTE   VOL   34*songC6_mvl/mxv
 BYTE   W02
 BYTE   VOL   35*songC6_mvl/mxv
 BYTE   W03
 BYTE   VOL   35*songC6_mvl/mxv
 BYTE   N23  Fs3  v100
 BYTE   W01
 BYTE   VOL   36*songC6_mvl/mxv
 BYTE   W02
 BYTE   VOL   36*songC6_mvl/mxv
 BYTE   W01
 BYTE   VOL   37*songC6_mvl/mxv
 BYTE   W02
 BYTE   VOL   37*songC6_mvl/mxv
 BYTE   W01
 BYTE   VOL   38*songC6_mvl/mxv
 BYTE   W02
 BYTE   VOL   38*songC6_mvl/mxv
 BYTE   W03
 BYTE   VOL   38*songC6_mvl/mxv
 BYTE   W12
 BYTE   N11  En3  v088
 BYTE   W12
 BYTE   N23  Ds3  v100
 BYTE   W07
 BYTE   VOL   38*songC6_mvl/mxv
 BYTE   W03
 BYTE   VOL   38*songC6_mvl/mxv
 BYTE   W02
 BYTE   VOL   37*songC6_mvl/mxv
 BYTE   W01
 BYTE   VOL   37*songC6_mvl/mxv
 BYTE   W02
 BYTE   VOL   36*songC6_mvl/mxv
 BYTE   W01
 BYTE   VOL   35*songC6_mvl/mxv
 BYTE   W02
 BYTE   VOL   35*songC6_mvl/mxv
 BYTE   W01
 BYTE   VOL   33*songC6_mvl/mxv
 BYTE   W02
 BYTE   VOL   32*songC6_mvl/mxv
 BYTE   W01
 BYTE   VOL   30*songC6_mvl/mxv
 BYTE   W02
 BYTE   VOL   38*songC6_mvl/mxv
 BYTE   N11  En3  v084
 BYTE   W12
 BYTE   Fs3  v064
 BYTE   W12
// 005   ----------------------------------------
 BYTE   N23  Gs3  v100
 BYTE   W07
 BYTE   VOL   38*songC6_mvl/mxv
 BYTE   W02
 BYTE   VOL   38*songC6_mvl/mxv
 BYTE   W01
 BYTE   VOL   37*songC6_mvl/mxv
 BYTE   W02
 BYTE   VOL   37*songC6_mvl/mxv
 BYTE   W03
 BYTE   VOL   36*songC6_mvl/mxv
 BYTE   W01
 BYTE   VOL   36*songC6_mvl/mxv
 BYTE   W02
 BYTE   VOL   35*songC6_mvl/mxv
 BYTE   W01
 BYTE   VOL   34*songC6_mvl/mxv
 BYTE   W02
 BYTE   VOL   33*songC6_mvl/mxv
 BYTE   W01
 BYTE   VOL   32*songC6_mvl/mxv
 BYTE   W02
 BYTE   VOL   38*songC6_mvl/mxv
 BYTE   N11  An3  v072
 BYTE   W12
 BYTE   N23  Bn3  v088
 BYTE   W07
 BYTE   VOL   38*songC6_mvl/mxv
 BYTE   W02
 BYTE   VOL   38*songC6_mvl/mxv
 BYTE   W01
 BYTE   VOL   37*songC6_mvl/mxv
 BYTE   W02
 BYTE   VOL   37*songC6_mvl/mxv
 BYTE   W01
 BYTE   VOL   37*songC6_mvl/mxv
 BYTE   W02
 BYTE   VOL   36*songC6_mvl/mxv
 BYTE   W01
 BYTE   VOL   36*songC6_mvl/mxv
 BYTE   W02
 BYTE   VOL   35*songC6_mvl/mxv
 BYTE   W01
 BYTE   VOL   34*songC6_mvl/mxv
 BYTE   W02
 BYTE   VOL   33*songC6_mvl/mxv
 BYTE   W01
 BYTE   VOL   32*songC6_mvl/mxv
 BYTE   W02
 BYTE   VOL   38*songC6_mvl/mxv
 BYTE   N11  Gs3  v100
 BYTE   W12
 BYTE   Bn3  v064
 BYTE   W12
 BYTE   En4  v100
 BYTE   W12
// 006   ----------------------------------------
 BYTE   N23  Fs4  v072
 BYTE   W24
 BYTE   N11  En4  v092
 BYTE   W12
 BYTE   N23  Ds4  v060
 BYTE   W24
 BYTE   N11  Cs4  v084
 BYTE   W12
 BYTE   N23  En4  v068
 BYTE   W04
 BYTE   VOL   38*songC6_mvl/mxv
 BYTE   W03
 BYTE   VOL   38*songC6_mvl/mxv
 BYTE   W02
 BYTE   VOL   37*songC6_mvl/mxv
 BYTE   W01
 BYTE   VOL   37*songC6_mvl/mxv
 BYTE   W02
 BYTE   VOL   37*songC6_mvl/mxv
 BYTE   W01
 BYTE   VOL   36*songC6_mvl/mxv
 BYTE   W02
 BYTE   VOL   36*songC6_mvl/mxv
 BYTE   W01
 BYTE   VOL   35*songC6_mvl/mxv
 BYTE   W02
 BYTE   VOL   35*songC6_mvl/mxv
 BYTE   W01
 BYTE   VOL   34*songC6_mvl/mxv
 BYTE   W02
 BYTE   VOL   34*songC6_mvl/mxv
 BYTE   W01
 BYTE   VOL   33*songC6_mvl/mxv
 BYTE   W02
// 007   ----------------------------------------
 BYTE   VOL   38*songC6_mvl/mxv
 BYTE   N11  Fs4  v100
 BYTE   W12
 BYTE   Gs4  v084
 BYTE   W12
 BYTE   N23  An4  v060
 BYTE   W04
 BYTE   VOL   38*songC6_mvl/mxv
 BYTE   W02
 BYTE   VOL   38*songC6_mvl/mxv
 BYTE   W01
 BYTE   VOL   37*songC6_mvl/mxv
 BYTE   W02
 BYTE   VOL   36*songC6_mvl/mxv
 BYTE   W01
 BYTE   VOL   36*songC6_mvl/mxv
 BYTE   W02
 BYTE   VOL   35*songC6_mvl/mxv
 BYTE   W01
 BYTE   VOL   35*songC6_mvl/mxv
 BYTE   W02
 BYTE   VOL   34*songC6_mvl/mxv
 BYTE   W01
 BYTE   VOL   33*songC6_mvl/mxv
 BYTE   W02
 BYTE   VOL   33*songC6_mvl/mxv
 BYTE   W01
 BYTE   VOL   32*songC6_mvl/mxv
 BYTE   W02
 BYTE   VOL   31*songC6_mvl/mxv
 BYTE   W01
 BYTE   VOL   30*songC6_mvl/mxv
 BYTE   W02
 BYTE   VOL   36*songC6_mvl/mxv
 BYTE   TIE  Bn4  v096
 BYTE   W01
 BYTE   VOL   35*songC6_mvl/mxv
 BYTE   W03
 BYTE   VOL   34*songC6_mvl/mxv
 BYTE   W02
 BYTE   VOL   34*songC6_mvl/mxv
 BYTE   W01
 BYTE   VOL   33*songC6_mvl/mxv
 BYTE   W02
 BYTE   VOL   32*songC6_mvl/mxv
 BYTE   W01
 BYTE   VOL   32*songC6_mvl/mxv
 BYTE   W02
 BYTE   VOL   31*songC6_mvl/mxv
 BYTE   W01
 BYTE   VOL   31*songC6_mvl/mxv
 BYTE   W02
 BYTE   VOL   30*songC6_mvl/mxv
 BYTE   W01
 BYTE   VOL   30*songC6_mvl/mxv
 BYTE   W02
 BYTE   VOL   29*songC6_mvl/mxv
 BYTE   W09
 BYTE   VOL   30*songC6_mvl/mxv
 BYTE   W03
 BYTE   VOL   30*songC6_mvl/mxv
 BYTE   W01
 BYTE   VOL   30*songC6_mvl/mxv
 BYTE   W03
 BYTE   VOL   31*songC6_mvl/mxv
 BYTE   W03
 BYTE   VOL   31*songC6_mvl/mxv
 BYTE   W02
 BYTE   VOL   31*songC6_mvl/mxv
 BYTE   W01
 BYTE   VOL   32*songC6_mvl/mxv
 BYTE   W02
 BYTE   VOL   32*songC6_mvl/mxv
 BYTE   W01
 BYTE   VOL   33*songC6_mvl/mxv
 BYTE   W03
 BYTE   VOL   33*songC6_mvl/mxv
 BYTE   W02
// 008   ----------------------------------------
 BYTE   VOL   33*songC6_mvl/mxv
 BYTE   W01
 BYTE   VOL   34*songC6_mvl/mxv
 BYTE   W02
 BYTE   VOL   34*songC6_mvl/mxv
 BYTE   W01
 BYTE   VOL   35*songC6_mvl/mxv
 BYTE   W03
 BYTE   VOL   35*songC6_mvl/mxv
 BYTE   W02
 BYTE   VOL   35*songC6_mvl/mxv
 BYTE   W01
 BYTE   VOL   36*songC6_mvl/mxv
 BYTE   W05
 BYTE   VOL   36*songC6_mvl/mxv
 BYTE   W16
 BYTE   VOL   36*songC6_mvl/mxv
 BYTE   W09
 BYTE   VOL   35*songC6_mvl/mxv
 BYTE   W02
 BYTE   VOL   35*songC6_mvl/mxv
 BYTE   W03
 BYTE   VOL   34*songC6_mvl/mxv
 BYTE   W03
 BYTE   VOL   34*songC6_mvl/mxv
 BYTE   W01
 BYTE   VOL   33*songC6_mvl/mxv
 BYTE   W02
 BYTE   VOL   33*songC6_mvl/mxv
 BYTE   W01
 BYTE   VOL   33*songC6_mvl/mxv
 BYTE   W02
 BYTE   VOL   32*songC6_mvl/mxv
 BYTE   W01
 BYTE   VOL   31*songC6_mvl/mxv
 BYTE   W02
 BYTE   VOL   31*songC6_mvl/mxv
 BYTE   W01
 BYTE   VOL   30*songC6_mvl/mxv
 BYTE   W02
 BYTE   VOL   30*songC6_mvl/mxv
 BYTE   W01
 BYTE   VOL   29*songC6_mvl/mxv
 BYTE   W02
 BYTE   VOL   28*songC6_mvl/mxv
 BYTE   W01
 BYTE   VOL   28*songC6_mvl/mxv
 BYTE   W02
 BYTE   VOL   27*songC6_mvl/mxv
 BYTE   W01
 BYTE   VOL   26*songC6_mvl/mxv
 BYTE   W02
 BYTE   VOL   26*songC6_mvl/mxv
 BYTE   W01
 BYTE   VOL   25*songC6_mvl/mxv
 BYTE   W02
 BYTE   VOL   25*songC6_mvl/mxv
 BYTE   W01
 BYTE   VOL   24*songC6_mvl/mxv
 BYTE   W02
 BYTE   VOL   23*songC6_mvl/mxv
 BYTE   W01
 BYTE   VOL   23*songC6_mvl/mxv
 BYTE   W02
 BYTE   VOL   22*songC6_mvl/mxv
 BYTE   W01
 BYTE   VOL   21*songC6_mvl/mxv
 BYTE   W02
 BYTE   VOL   20*songC6_mvl/mxv
 BYTE   W01
 BYTE   VOL   19*songC6_mvl/mxv
 BYTE   W02
 BYTE   VOL   18*songC6_mvl/mxv
 BYTE   W01
 BYTE   VOL   17*songC6_mvl/mxv
 BYTE   W02
 BYTE   VOL   16*songC6_mvl/mxv
 BYTE   W01
 BYTE   VOL   15*songC6_mvl/mxv
 BYTE   W01
 BYTE   EOT
 BYTE   W01
 BYTE   VOL   14*songC6_mvl/mxv
 BYTE   W01
 BYTE   VOL   13*songC6_mvl/mxv
 BYTE   W02
 BYTE   VOL   10*songC6_mvl/mxv
 BYTE   W01
 BYTE   VOL   6*songC6_mvl/mxv
 BYTE   W02
// 009   ----------------------------------------
 BYTE   VOL   38*songC6_mvl/mxv
 BYTE   N44  Cs5  v100
 BYTE   W16
 BYTE   VOL   38*songC6_mvl/mxv
 BYTE   W05
 BYTE   VOL   38*songC6_mvl/mxv
 BYTE   W04
 BYTE   VOL   37*songC6_mvl/mxv
 BYTE   W02
 BYTE   VOL   37*songC6_mvl/mxv
 BYTE   W03
 BYTE   VOL   37*songC6_mvl/mxv
 BYTE   W01
 BYTE   VOL   36*songC6_mvl/mxv
 BYTE   W02
 BYTE   VOL   36*songC6_mvl/mxv
 BYTE   W04
 BYTE   VOL   36*songC6_mvl/mxv
 BYTE   W02
 BYTE   VOL   35*songC6_mvl/mxv
 BYTE   W01
 BYTE   VOL   35*songC6_mvl/mxv
 BYTE   W02
 BYTE   VOL   34*songC6_mvl/mxv
 BYTE   W01
 BYTE   VOL   34*songC6_mvl/mxv
 BYTE   W02
 BYTE   VOL   34*songC6_mvl/mxv
 BYTE   W01
 BYTE   VOL   33*songC6_mvl/mxv
 BYTE   W02
 BYTE   VOL   32*songC6_mvl/mxv
 BYTE   TIE  Bn4  v088
 BYTE   W01
 BYTE   VOL   32*songC6_mvl/mxv
 BYTE   W02
 BYTE   VOL   31*songC6_mvl/mxv
 BYTE   W01
 BYTE   VOL   31*songC6_mvl/mxv
 BYTE   W03
 BYTE   VOL   30*songC6_mvl/mxv
 BYTE   W02
 BYTE   VOL   30*songC6_mvl/mxv
 BYTE   W01
 BYTE   VOL   29*songC6_mvl/mxv
 BYTE   W02
 BYTE   VOL   29*songC6_mvl/mxv
 BYTE   W03
 BYTE   VOL   28*songC6_mvl/mxv
 BYTE   W03
 BYTE   VOL   29*songC6_mvl/mxv
 BYTE   W03
 BYTE   VOL   29*songC6_mvl/mxv
 BYTE   W03
 BYTE   VOL   29*songC6_mvl/mxv
 BYTE   W01
 BYTE   VOL   30*songC6_mvl/mxv
 BYTE   W02
 BYTE   VOL   30*songC6_mvl/mxv
 BYTE   W01
 BYTE   VOL   30*songC6_mvl/mxv
 BYTE   W03
 BYTE   VOL   31*songC6_mvl/mxv
 BYTE   W02
 BYTE   VOL   31*songC6_mvl/mxv
 BYTE   W01
 BYTE   VOL   32*songC6_mvl/mxv
 BYTE   W02
 BYTE   VOL   32*songC6_mvl/mxv
 BYTE   W03
 BYTE   VOL   33*songC6_mvl/mxv
 BYTE   W03
 BYTE   VOL   33*songC6_mvl/mxv
 BYTE   W01
 BYTE   VOL   34*songC6_mvl/mxv
 BYTE   W02
 BYTE   VOL   34*songC6_mvl/mxv
 BYTE   W01
 BYTE   VOL   34*songC6_mvl/mxv
 BYTE   W02
// 010   ----------------------------------------
 BYTE   W01
 BYTE   VOL   35*songC6_mvl/mxv
 BYTE   W03
 BYTE   VOL   35*songC6_mvl/mxv
 BYTE   W05
 BYTE   VOL   35*songC6_mvl/mxv
 BYTE   W06
 BYTE   VOL   36*songC6_mvl/mxv
 BYTE   W18
 BYTE   VOL   35*songC6_mvl/mxv
 BYTE   W06
 BYTE   VOL   35*songC6_mvl/mxv
 BYTE   W01
 BYTE   VOL   35*songC6_mvl/mxv
 BYTE   W03
 BYTE   VOL   34*songC6_mvl/mxv
 BYTE   W03
 BYTE   VOL   34*songC6_mvl/mxv
 BYTE   W03
 BYTE   VOL   34*songC6_mvl/mxv
 BYTE   W02
 BYTE   VOL   33*songC6_mvl/mxv
 BYTE   W03
 BYTE   VOL   33*songC6_mvl/mxv
 BYTE   W01
 BYTE   VOL   33*songC6_mvl/mxv
 BYTE   W02
 BYTE   VOL   32*songC6_mvl/mxv
 BYTE   W01
 BYTE   VOL   32*songC6_mvl/mxv
 BYTE   W02
 BYTE   VOL   32*songC6_mvl/mxv
 BYTE   W01
 BYTE   VOL   31*songC6_mvl/mxv
 BYTE   W02
 BYTE   VOL   31*songC6_mvl/mxv
 BYTE   W01
 BYTE   VOL   30*songC6_mvl/mxv
 BYTE   W02
 BYTE   VOL   30*songC6_mvl/mxv
 BYTE   W01
 BYTE   VOL   29*songC6_mvl/mxv
 BYTE   W02
 BYTE   VOL   29*songC6_mvl/mxv
 BYTE   W01
 BYTE   VOL   28*songC6_mvl/mxv
 BYTE   W02
 BYTE   VOL   28*songC6_mvl/mxv
 BYTE   W01
 BYTE   VOL   27*songC6_mvl/mxv
 BYTE   W02
 BYTE   VOL   26*songC6_mvl/mxv
 BYTE   W01
 BYTE   VOL   26*songC6_mvl/mxv
 BYTE   W02
 BYTE   VOL   25*songC6_mvl/mxv
 BYTE   W01
 BYTE   VOL   25*songC6_mvl/mxv
 BYTE   W02
 BYTE   VOL   24*songC6_mvl/mxv
 BYTE   W01
 BYTE   VOL   23*songC6_mvl/mxv
 BYTE   W02
 BYTE   VOL   23*songC6_mvl/mxv
 BYTE   W01
 BYTE   VOL   22*songC6_mvl/mxv
 BYTE   W02
 BYTE   VOL   20*songC6_mvl/mxv
 BYTE   W01
 BYTE   VOL   19*songC6_mvl/mxv
 BYTE   W01
 BYTE   EOT
 BYTE   W01
 BYTE   VOL   19*songC6_mvl/mxv
 BYTE   W01
 BYTE   VOL   17*songC6_mvl/mxv
 BYTE   W02
 BYTE   VOL   16*songC6_mvl/mxv
 BYTE   W01
 BYTE   VOL   15*songC6_mvl/mxv
 BYTE   W02
// 011   ----------------------------------------
 BYTE   VOL   38*songC6_mvl/mxv
 BYTE   N11  An4  v100
 BYTE   W04
 BYTE   VOL   39*songC6_mvl/mxv
 BYTE   W08
 BYTE   N11  Gs4  v068
 BYTE   W12
 BYTE   An4  v100
 BYTE   W12
 BYTE   TIE  Bn4  v088
 BYTE   W30
 BYTE   W01
 BYTE   VOL   38*songC6_mvl/mxv
 BYTE   W21
 BYTE   VOL   38*songC6_mvl/mxv
 BYTE   W08
// 012   ----------------------------------------
 BYTE   VOL   38*songC6_mvl/mxv
 BYTE   W06
 BYTE   VOL   37*songC6_mvl/mxv
 BYTE   W06
 BYTE   VOL   37*songC6_mvl/mxv
 BYTE   W04
 BYTE   VOL   37*songC6_mvl/mxv
 BYTE   W03
 BYTE   VOL   36*songC6_mvl/mxv
 BYTE   W02
 BYTE   VOL   36*songC6_mvl/mxv
 BYTE   W04
 BYTE   VOL   36*songC6_mvl/mxv
 BYTE   W05
 BYTE   VOL   35*songC6_mvl/mxv
 BYTE   W04
 BYTE   VOL   35*songC6_mvl/mxv
 BYTE   W03
 BYTE   VOL   35*songC6_mvl/mxv
 BYTE   W03
 BYTE   VOL   34*songC6_mvl/mxv
 BYTE   W03
 BYTE   VOL   34*songC6_mvl/mxv
 BYTE   W05
 BYTE   VOL   34*songC6_mvl/mxv
 BYTE   W01
 BYTE   VOL   33*songC6_mvl/mxv
 BYTE   W05
 BYTE   VOL   33*songC6_mvl/mxv
 BYTE   W03
 BYTE   VOL   33*songC6_mvl/mxv
 BYTE   W04
 BYTE   VOL   32*songC6_mvl/mxv
 BYTE   W02
 BYTE   VOL   32*songC6_mvl/mxv
 BYTE   W03
 BYTE   VOL   32*songC6_mvl/mxv
 BYTE   W01
 BYTE   VOL   31*songC6_mvl/mxv
 BYTE   W03
 BYTE   VOL   31*songC6_mvl/mxv
 BYTE   W02
 BYTE   VOL   31*songC6_mvl/mxv
 BYTE   W03
 BYTE   VOL   30*songC6_mvl/mxv
 BYTE   W01
 BYTE   VOL   30*songC6_mvl/mxv
 BYTE   W02
 BYTE   VOL   30*songC6_mvl/mxv
 BYTE   W03
 BYTE   VOL   29*songC6_mvl/mxv
 BYTE   W01
 BYTE   VOL   29*songC6_mvl/mxv
 BYTE   W03
 BYTE   VOL   29*songC6_mvl/mxv
 BYTE   W02
 BYTE   VOL   28*songC6_mvl/mxv
 BYTE   W01
 BYTE   VOL   28*songC6_mvl/mxv
 BYTE   W02
 BYTE   VOL   28*songC6_mvl/mxv
 BYTE   W03
 BYTE   VOL   27*songC6_mvl/mxv
 BYTE   W01
 BYTE   EOT
 BYTE   W02
// 013   ----------------------------------------
 BYTE   VOL   29*songC6_mvl/mxv
 BYTE   N44  Ds5  v100
 BYTE   W01
 BYTE   VOL   30*songC6_mvl/mxv
 BYTE   W02
 BYTE   VOL   30*songC6_mvl/mxv
 BYTE   W01
 BYTE   VOL   31*songC6_mvl/mxv
 BYTE   W02
 BYTE   VOL   32*songC6_mvl/mxv
 BYTE   W01
 BYTE   VOL   33*songC6_mvl/mxv
 BYTE   W02
 BYTE   VOL   33*songC6_mvl/mxv
 BYTE   W01
 BYTE   VOL   34*songC6_mvl/mxv
 BYTE   W02
 BYTE   VOL   35*songC6_mvl/mxv
 BYTE   W01
 BYTE   VOL   35*songC6_mvl/mxv
 BYTE   W02
 BYTE   VOL   36*songC6_mvl/mxv
 BYTE   W01
 BYTE   VOL   36*songC6_mvl/mxv
 BYTE   W02
 BYTE   VOL   37*songC6_mvl/mxv
 BYTE   W01
 BYTE   VOL   37*songC6_mvl/mxv
 BYTE   W02
 BYTE   VOL   37*songC6_mvl/mxv
 BYTE   W10
 BYTE   VOL   37*songC6_mvl/mxv
 BYTE   W03
 BYTE   VOL   37*songC6_mvl/mxv
 BYTE   W02
 BYTE   VOL   36*songC6_mvl/mxv
 BYTE   W01
 BYTE   VOL   36*songC6_mvl/mxv
 BYTE   W02
 BYTE   VOL   35*songC6_mvl/mxv
 BYTE   W01
 BYTE   VOL   34*songC6_mvl/mxv
 BYTE   W02
 BYTE   VOL   33*songC6_mvl/mxv
 BYTE   W01
 BYTE   VOL   32*songC6_mvl/mxv
 BYTE   W02
 BYTE   VOL   30*songC6_mvl/mxv
 BYTE   W01
 BYTE   VOL   29*songC6_mvl/mxv
 BYTE   W02
 BYTE   N92  Bn4
 BYTE   W01
 BYTE   VOL   30*songC6_mvl/mxv
 BYTE   W02
 BYTE   VOL   30*songC6_mvl/mxv
 BYTE   W03
 BYTE   VOL   31*songC6_mvl/mxv
 BYTE   W03
 BYTE   VOL   31*songC6_mvl/mxv
 BYTE   W03
 BYTE   VOL   31*songC6_mvl/mxv
 BYTE   W01
 BYTE   VOL   32*songC6_mvl/mxv
 BYTE   W03
 BYTE   VOL   32*songC6_mvl/mxv
 BYTE   W03
 BYTE   VOL   32*songC6_mvl/mxv
 BYTE   W02
 BYTE   VOL   33*songC6_mvl/mxv
 BYTE   W01
 BYTE   VOL   33*songC6_mvl/mxv
 BYTE   W05
 BYTE   VOL   33*songC6_mvl/mxv
 BYTE   W03
 BYTE   VOL   34*songC6_mvl/mxv
 BYTE   W01
 BYTE   VOL   34*songC6_mvl/mxv
 BYTE   W03
 BYTE   VOL   34*songC6_mvl/mxv
 BYTE   W09
 BYTE   VOL   35*songC6_mvl/mxv
 BYTE   W05
// 014   ----------------------------------------
 BYTE   W12
 BYTE   VOL   34*songC6_mvl/mxv
 BYTE   W03
 BYTE   VOL   34*songC6_mvl/mxv
 BYTE   W01
 BYTE   VOL   33*songC6_mvl/mxv
 BYTE   W02
 BYTE   VOL   33*songC6_mvl/mxv
 BYTE   W01
 BYTE   VOL   33*songC6_mvl/mxv
 BYTE   W02
 BYTE   VOL   32*songC6_mvl/mxv
 BYTE   W01
 BYTE   VOL   31*songC6_mvl/mxv
 BYTE   W02
 BYTE   VOL   31*songC6_mvl/mxv
 BYTE   W01
 BYTE   VOL   30*songC6_mvl/mxv
 BYTE   W02
 BYTE   VOL   30*songC6_mvl/mxv
 BYTE   W01
 BYTE   VOL   29*songC6_mvl/mxv
 BYTE   W02
 BYTE   VOL   29*songC6_mvl/mxv
 BYTE   W01
 BYTE   VOL   28*songC6_mvl/mxv
 BYTE   W02
 BYTE   VOL   27*songC6_mvl/mxv
 BYTE   W01
 BYTE   VOL   27*songC6_mvl/mxv
 BYTE   W02
 BYTE   VOL   26*songC6_mvl/mxv
 BYTE   W01
 BYTE   VOL   25*songC6_mvl/mxv
 BYTE   W02
 BYTE   VOL   24*songC6_mvl/mxv
 BYTE   W01
 BYTE   VOL   23*songC6_mvl/mxv
 BYTE   W02
 BYTE   VOL   22*songC6_mvl/mxv
 BYTE   W01
 BYTE   VOL   20*songC6_mvl/mxv
 BYTE   W02
 BYTE   VOL   20*songC6_mvl/mxv
 BYTE   W01
 BYTE   VOL   19*songC6_mvl/mxv
 BYTE   W02
 BYTE   VOL   25*songC6_mvl/mxv
 BYTE   TIE  Gs5  v108
 BYTE   W01
 BYTE   VOL   25*songC6_mvl/mxv
 BYTE   W02
 BYTE   VOL   26*songC6_mvl/mxv
 BYTE   W01
 BYTE   VOL   26*songC6_mvl/mxv
 BYTE   W02
 BYTE   VOL   26*songC6_mvl/mxv
 BYTE   W01
 BYTE   VOL   27*songC6_mvl/mxv
 BYTE   W02
 BYTE   VOL   27*songC6_mvl/mxv
 BYTE   W01
 BYTE   VOL   27*songC6_mvl/mxv
 BYTE   W02
 BYTE   VOL   28*songC6_mvl/mxv
 BYTE   W01
 BYTE   VOL   28*songC6_mvl/mxv
 BYTE   W03
 BYTE   VOL   29*songC6_mvl/mxv
 BYTE   W02
 BYTE   VOL   29*songC6_mvl/mxv
 BYTE   W01
 BYTE   VOL   30*songC6_mvl/mxv
 BYTE   W02
 BYTE   VOL   30*songC6_mvl/mxv
 BYTE   W01
 BYTE   VOL   31*songC6_mvl/mxv
 BYTE   W02
 BYTE   VOL   31*songC6_mvl/mxv
 BYTE   W01
 BYTE   VOL   32*songC6_mvl/mxv
 BYTE   W02
 BYTE   VOL   33*songC6_mvl/mxv
 BYTE   W01
 BYTE   VOL   33*songC6_mvl/mxv
 BYTE   W02
 BYTE   VOL   33*songC6_mvl/mxv
 BYTE   W01
 BYTE   VOL   34*songC6_mvl/mxv
 BYTE   W02
 BYTE   VOL   34*songC6_mvl/mxv
 BYTE   W01
 BYTE   VOL   35*songC6_mvl/mxv
 BYTE   W02
 BYTE   VOL   35*songC6_mvl/mxv
 BYTE   W01
 BYTE   VOL   36*songC6_mvl/mxv
 BYTE   W05
 BYTE   VOL   36*songC6_mvl/mxv
 BYTE   W03
 BYTE   VOL   36*songC6_mvl/mxv
 BYTE   W01
 BYTE   VOL   37*songC6_mvl/mxv
 BYTE   W02
// 015   ----------------------------------------
 BYTE   W13
 BYTE   VOL   36*songC6_mvl/mxv
 BYTE   W05
 BYTE   VOL   36*songC6_mvl/mxv
 BYTE   W01
 BYTE   VOL   36*songC6_mvl/mxv
 BYTE   W03
 BYTE   VOL   35*songC6_mvl/mxv
 BYTE   W03
 BYTE   VOL   35*songC6_mvl/mxv
 BYTE   W02
 BYTE   VOL   34*songC6_mvl/mxv
 BYTE   W03
 BYTE   VOL   34*songC6_mvl/mxv
 BYTE   W01
 BYTE   VOL   33*songC6_mvl/mxv
 BYTE   W02
 BYTE   VOL   33*songC6_mvl/mxv
 BYTE   W03
 BYTE   VOL   32*songC6_mvl/mxv
 BYTE   W01
 BYTE   VOL   32*songC6_mvl/mxv
 BYTE   W02
 BYTE   VOL   31*songC6_mvl/mxv
 BYTE   W01
 BYTE   VOL   31*songC6_mvl/mxv
 BYTE   W02
 BYTE   VOL   30*songC6_mvl/mxv
 BYTE   W01
 BYTE   VOL   30*songC6_mvl/mxv
 BYTE   W02
 BYTE   VOL   29*songC6_mvl/mxv
 BYTE   W01
 BYTE   VOL   28*songC6_mvl/mxv
 BYTE   W02
 BYTE   VOL   28*songC6_mvl/mxv
 BYTE   W01
 BYTE   VOL   27*songC6_mvl/mxv
 BYTE   W02
 BYTE   VOL   26*songC6_mvl/mxv
 BYTE   W01
 BYTE   VOL   25*songC6_mvl/mxv
 BYTE   W02
 BYTE   VOL   25*songC6_mvl/mxv
 BYTE   W01
 BYTE   VOL   24*songC6_mvl/mxv
 BYTE   W02
 BYTE   VOL   23*songC6_mvl/mxv
 BYTE   W01
 BYTE   VOL   22*songC6_mvl/mxv
 BYTE   W02
 BYTE   VOL   22*songC6_mvl/mxv
 BYTE   W01
 BYTE   EOT
 BYTE   VOL   21*songC6_mvl/mxv
 BYTE   W02
 BYTE   VOL   19*songC6_mvl/mxv
 BYTE   W01
 BYTE   VOL   19*songC6_mvl/mxv
 BYTE   W02
 BYTE   VOL   18*songC6_mvl/mxv
 BYTE   W01
 BYTE   VOL   17*songC6_mvl/mxv
 BYTE   W02
 BYTE   VOL   16*songC6_mvl/mxv
 BYTE   W01
 BYTE   VOL   15*songC6_mvl/mxv
 BYTE   W02
 BYTE   VOL   14*songC6_mvl/mxv
 BYTE   W01
 BYTE   VOL   13*songC6_mvl/mxv
 BYTE   W02
 BYTE   VOL   12*songC6_mvl/mxv
 BYTE   W01
 BYTE   VOL   10*songC6_mvl/mxv
 BYTE   W02
 BYTE   VOL   9*songC6_mvl/mxv
 BYTE   W01
 BYTE   VOL   8*songC6_mvl/mxv
 BYTE   W02
 BYTE   VOL   7*songC6_mvl/mxv
 BYTE   W01
 BYTE   VOL   5*songC6_mvl/mxv
 BYTE   W02
 BYTE   VOL   4*songC6_mvl/mxv
 BYTE   W01
 BYTE   VOL   2*songC6_mvl/mxv
 BYTE   W02
 BYTE   VOL   0*songC6_mvl/mxv
 BYTE   W09
// 016   ----------------------------------------
 BYTE   VOL   38*songC6_mvl/mxv
 BYTE   W96
// 017   ----------------------------------------
 BYTE   W96
// 018   ----------------------------------------
 BYTE   W96
// 019   ----------------------------------------
 BYTE   W96
// 020   ----------------------------------------
 BYTE   W96
// 021   ----------------------------------------
 BYTE   W96
// 022   ----------------------------------------
 BYTE   W96
// 023   ----------------------------------------
 BYTE   W48
 BYTE   N23  Cs4  v100
 BYTE   W10
 BYTE   VOL   38*songC6_mvl/mxv
 BYTE   W02
 BYTE   VOL   38*songC6_mvl/mxv
 BYTE   W03
 BYTE   VOL   38*songC6_mvl/mxv
 BYTE   W01
 BYTE   VOL   37*songC6_mvl/mxv
 BYTE   W02
 BYTE   VOL   37*songC6_mvl/mxv
 BYTE   W01
 BYTE   VOL   36*songC6_mvl/mxv
 BYTE   W02
 BYTE   VOL   35*songC6_mvl/mxv
 BYTE   W01
 BYTE   VOL   34*songC6_mvl/mxv
 BYTE   W03
 BYTE   VOL   34*songC6_mvl/mxv
 BYTE   W02
 BYTE   VOL   33*songC6_mvl/mxv
 BYTE   W01
 BYTE   VOL   33*songC6_mvl/mxv
 BYTE   W02
 BYTE   VOL   32*songC6_mvl/mxv
 BYTE   W01
 BYTE   VOL   32*songC6_mvl/mxv
 BYTE   W02
 BYTE   VOL   31*songC6_mvl/mxv
 BYTE   W01
 BYTE   VOL   30*songC6_mvl/mxv
 BYTE   W02
 BYTE   VOL   38*songC6_mvl/mxv
 BYTE   N04  Gs3
 BYTE   W12
// 024   ----------------------------------------
 BYTE   N23  Ds4
 BYTE   W06
 BYTE   VOL   38*songC6_mvl/mxv
 BYTE   W03
 BYTE   VOL   37*songC6_mvl/mxv
 BYTE   W01
 BYTE   VOL   37*songC6_mvl/mxv
 BYTE   W02
 BYTE   VOL   36*songC6_mvl/mxv
 BYTE   W01
 BYTE   VOL   36*songC6_mvl/mxv
 BYTE   W02
 BYTE   VOL   35*songC6_mvl/mxv
 BYTE   W01
 BYTE   VOL   35*songC6_mvl/mxv
 BYTE   W02
 BYTE   VOL   34*songC6_mvl/mxv
 BYTE   W01
 BYTE   VOL   34*songC6_mvl/mxv
 BYTE   W02
 BYTE   VOL   33*songC6_mvl/mxv
 BYTE   W01
 BYTE   VOL   33*songC6_mvl/mxv
 BYTE   W02
 BYTE   VOL   32*songC6_mvl/mxv
 BYTE   W01
 BYTE   VOL   31*songC6_mvl/mxv
 BYTE   W02
 BYTE   VOL   30*songC6_mvl/mxv
 BYTE   W01
 BYTE   VOL   29*songC6_mvl/mxv
 BYTE   W02
 BYTE   VOL   29*songC6_mvl/mxv
 BYTE   W01
 BYTE   VOL   28*songC6_mvl/mxv
 BYTE   W05
 BYTE   VOL   38*songC6_mvl/mxv
 BYTE   N04  Gs3
 BYTE   W12
 BYTE   N17  En4
 BYTE   W18
 BYTE   Fs4
 BYTE   W18
 BYTE   N11  Gs4
 BYTE   W12
// 025   ----------------------------------------
 BYTE   N17  Fs4
 BYTE   W18
 BYTE   En4
 BYTE   W18
 BYTE   N11  Ds4
 BYTE   W12
 BYTE   N17  Cs4
 BYTE   W18
 BYTE   VOL   32*songC6_mvl/mxv
 BYTE   N32  Gs4
 BYTE   W01
 BYTE   VOL   33*songC6_mvl/mxv
 BYTE   W02
 BYTE   VOL   33*songC6_mvl/mxv
 BYTE   W01
 BYTE   VOL   34*songC6_mvl/mxv
 BYTE   W02
 BYTE   VOL   35*songC6_mvl/mxv
 BYTE   W01
 BYTE   VOL   36*songC6_mvl/mxv
 BYTE   W02
 BYTE   VOL   36*songC6_mvl/mxv
 BYTE   W01
 BYTE   VOL   36*songC6_mvl/mxv
 BYTE   W02
 BYTE   VOL   37*songC6_mvl/mxv
 BYTE   W01
 BYTE   VOL   38*songC6_mvl/mxv
 BYTE   W03
 BYTE   VOL   38*songC6_mvl/mxv
 BYTE   W14
// 026   ----------------------------------------
 BYTE   W12
 BYTE   N11  Bn4
 BYTE   W12
 BYTE   N04  An4
 BYTE   W12
 BYTE   N54  Gs4
 BYTE   W12
 BYTE   VOL   38*songC6_mvl/mxv
 BYTE   W04
 BYTE   VOL   38*songC6_mvl/mxv
 BYTE   W03
 BYTE   VOL   37*songC6_mvl/mxv
 BYTE   W03
 BYTE   VOL   37*songC6_mvl/mxv
 BYTE   W05
 BYTE   VOL   37*songC6_mvl/mxv
 BYTE   W01
 BYTE   VOL   36*songC6_mvl/mxv
 BYTE   W03
 BYTE   VOL   36*songC6_mvl/mxv
 BYTE   W02
 BYTE   VOL   36*songC6_mvl/mxv
 BYTE   W01
 BYTE   VOL   35*songC6_mvl/mxv
 BYTE   W03
 BYTE   VOL   34*songC6_mvl/mxv
 BYTE   W02
 BYTE   VOL   34*songC6_mvl/mxv
 BYTE   W01
 BYTE   VOL   33*songC6_mvl/mxv
 BYTE   W02
 BYTE   VOL   33*songC6_mvl/mxv
 BYTE   W01
 BYTE   VOL   32*songC6_mvl/mxv
 BYTE   W02
 BYTE   VOL   32*songC6_mvl/mxv
 BYTE   W01
 BYTE   VOL   31*songC6_mvl/mxv
 BYTE   W02
 BYTE   VOL   30*songC6_mvl/mxv
 BYTE   W01
 BYTE   VOL   30*songC6_mvl/mxv
 BYTE   W02
 BYTE   VOL   30*songC6_mvl/mxv
 BYTE   W01
 BYTE   VOL   29*songC6_mvl/mxv
 BYTE   W02
 BYTE   VOL   28*songC6_mvl/mxv
 BYTE   W01
 BYTE   VOL   28*songC6_mvl/mxv
 BYTE   W02
 BYTE   VOL   27*songC6_mvl/mxv
 BYTE   W01
 BYTE   VOL   26*songC6_mvl/mxv
 BYTE   W02
// 027   ----------------------------------------
 BYTE   VOL   38*songC6_mvl/mxv
 BYTE   N11
 BYTE   W12
 BYTE   Fs4
 BYTE   W12
 BYTE   N17  En4
 BYTE   W24
 BYTE   VOL   31*songC6_mvl/mxv
 BYTE   N32  Fs4
 BYTE   W01
 BYTE   VOL   31*songC6_mvl/mxv
 BYTE   W02
 BYTE   VOL   32*songC6_mvl/mxv
 BYTE   W01
 BYTE   VOL   32*songC6_mvl/mxv
 BYTE   W02
 BYTE   VOL   33*songC6_mvl/mxv
 BYTE   W01
 BYTE   VOL   34*songC6_mvl/mxv
 BYTE   W03
 BYTE   VOL   34*songC6_mvl/mxv
 BYTE   W02
 BYTE   VOL   35*songC6_mvl/mxv
 BYTE   W01
 BYTE   VOL   35*songC6_mvl/mxv
 BYTE   W02
 BYTE   VOL   36*songC6_mvl/mxv
 BYTE   W01
 BYTE   VOL   37*songC6_mvl/mxv
 BYTE   W02
 BYTE   VOL   37*songC6_mvl/mxv
 BYTE   W01
 BYTE   VOL   38*songC6_mvl/mxv
 BYTE   W02
 BYTE   VOL   38*songC6_mvl/mxv
 BYTE   W15
 BYTE   N11  En4
 BYTE   W12
// 028   ----------------------------------------
 BYTE   N28  Ds4
 BYTE   W10
 BYTE   VOL   38*songC6_mvl/mxv
 BYTE   W02
 BYTE   VOL   38*songC6_mvl/mxv
 BYTE   W01
 BYTE   VOL   37*songC6_mvl/mxv
 BYTE   W02
 BYTE   VOL   36*songC6_mvl/mxv
 BYTE   W01
 BYTE   VOL   36*songC6_mvl/mxv
 BYTE   W02
 BYTE   VOL   35*songC6_mvl/mxv
 BYTE   W01
 BYTE   VOL   34*songC6_mvl/mxv
 BYTE   W02
 BYTE   VOL   34*songC6_mvl/mxv
 BYTE   W01
 BYTE   VOL   33*songC6_mvl/mxv
 BYTE   W02
 BYTE   VOL   32*songC6_mvl/mxv
 BYTE   W01
 BYTE   VOL   30*songC6_mvl/mxv
 BYTE   W02
 BYTE   VOL   28*songC6_mvl/mxv
 BYTE   W01
 BYTE   VOL   26*songC6_mvl/mxv
 BYTE   W02
 BYTE   VOL   24*songC6_mvl/mxv
 BYTE   W01
 BYTE   VOL   23*songC6_mvl/mxv
 BYTE   W02
 BYTE   VOL   23*songC6_mvl/mxv
 BYTE   W01
 BYTE   VOL   22*songC6_mvl/mxv
 BYTE   W02
 BYTE   VOL   38*songC6_mvl/mxv
 BYTE   N04  Cs4
 BYTE   W06
 BYTE   Ds4
 BYTE   W06
 BYTE   N17  En4
 BYTE   W18
 BYTE   Ds4
 BYTE   W18
 BYTE   N04  Cs4
 BYTE   W12
// 029   ----------------------------------------
 BYTE   N17  Ds4
 BYTE   W18
 BYTE   Gs3
 BYTE   W18
 BYTE   N04  Bn3
 BYTE   W12
 BYTE   N32
 BYTE   W18
 BYTE   VOL   38*songC6_mvl/mxv
 BYTE   W04
 BYTE   VOL   38*songC6_mvl/mxv
 BYTE   W02
 BYTE   VOL   37*songC6_mvl/mxv
 BYTE   W03
 BYTE   VOL   36*songC6_mvl/mxv
 BYTE   W01
 BYTE   VOL   36*songC6_mvl/mxv
 BYTE   W02
 BYTE   VOL   36*songC6_mvl/mxv
 BYTE   W01
 BYTE   VOL   35*songC6_mvl/mxv
 BYTE   W02
 BYTE   VOL   35*songC6_mvl/mxv
 BYTE   W01
 BYTE   VOL   38*songC6_mvl/mxv
 BYTE   W02
 BYTE   N04  Cs4
 BYTE   W12
// 030   ----------------------------------------
 BYTE   N40
 BYTE   W15
 BYTE   VOL   38*songC6_mvl/mxv
 BYTE   W03
 BYTE   VOL   38*songC6_mvl/mxv
 BYTE   W01
 BYTE   VOL   37*songC6_mvl/mxv
 BYTE   W02
 BYTE   VOL   36*songC6_mvl/mxv
 BYTE   W01
 BYTE   VOL   36*songC6_mvl/mxv
 BYTE   W02
 BYTE   VOL   35*songC6_mvl/mxv
 BYTE   W01
 BYTE   VOL   34*songC6_mvl/mxv
 BYTE   W02
 BYTE   VOL   33*songC6_mvl/mxv
 BYTE   W01
 BYTE   VOL   33*songC6_mvl/mxv
 BYTE   W02
 BYTE   VOL   32*songC6_mvl/mxv
 BYTE   W01
 BYTE   VOL   31*songC6_mvl/mxv
 BYTE   W02
 BYTE   VOL   29*songC6_mvl/mxv
 BYTE   W01
 BYTE   VOL   29*songC6_mvl/mxv
 BYTE   W02
 BYTE   VOL   27*songC6_mvl/mxv
 BYTE   W01
 BYTE   VOL   26*songC6_mvl/mxv
 BYTE   W02
 BYTE   VOL   24*songC6_mvl/mxv
 BYTE   W01
 BYTE   VOL   23*songC6_mvl/mxv
 BYTE   W02
 BYTE   VOL   20*songC6_mvl/mxv
 BYTE   W01
 BYTE   VOL   16*songC6_mvl/mxv
 BYTE   W02
 BYTE   VOL   12*songC6_mvl/mxv
 BYTE   W01
 BYTE   VOL   7*songC6_mvl/mxv
 BYTE   W02
 BYTE   VOL   38*songC6_mvl/mxv
 BYTE   W48
// 031   ----------------------------------------
 BYTE   W48
 BYTE   N23
 BYTE   W13
 BYTE   VOL   38*songC6_mvl/mxv
 BYTE   W03
 BYTE   VOL   38*songC6_mvl/mxv
 BYTE   W02
 BYTE   VOL   37*songC6_mvl/mxv
 BYTE   W01
 BYTE   VOL   37*songC6_mvl/mxv
 BYTE   W02
 BYTE   VOL   37*songC6_mvl/mxv
 BYTE   W01
 BYTE   VOL   36*songC6_mvl/mxv
 BYTE   W02
 BYTE   VOL   36*songC6_mvl/mxv
 BYTE   W01
 BYTE   VOL   36*songC6_mvl/mxv
 BYTE   W02
 BYTE   VOL   35*songC6_mvl/mxv
 BYTE   W01
 BYTE   VOL   35*songC6_mvl/mxv
 BYTE   W02
 BYTE   VOL   35*songC6_mvl/mxv
 BYTE   W01
 BYTE   VOL   34*songC6_mvl/mxv
 BYTE   W02
 BYTE   VOL   33*songC6_mvl/mxv
 BYTE   W03
 BYTE   VOL   38*songC6_mvl/mxv
 BYTE   N04  Gs3
 BYTE   W12
// 032   ----------------------------------------
 BYTE   N23  Ds4
 BYTE   W07
 BYTE   VOL   38*songC6_mvl/mxv
 BYTE   W03
 BYTE   VOL   37*songC6_mvl/mxv
 BYTE   W02
 BYTE   VOL   37*songC6_mvl/mxv
 BYTE   W01
 BYTE   VOL   36*songC6_mvl/mxv
 BYTE   W02
 BYTE   VOL   36*songC6_mvl/mxv
 BYTE   W01
 BYTE   VOL   36*songC6_mvl/mxv
 BYTE   W02
 BYTE   VOL   35*songC6_mvl/mxv
 BYTE   W01
 BYTE   VOL   35*songC6_mvl/mxv
 BYTE   W02
 BYTE   VOL   34*songC6_mvl/mxv
 BYTE   W01
 BYTE   VOL   34*songC6_mvl/mxv
 BYTE   W02
 BYTE   VOL   33*songC6_mvl/mxv
 BYTE   W01
 BYTE   VOL   33*songC6_mvl/mxv
 BYTE   W02
 BYTE   VOL   33*songC6_mvl/mxv
 BYTE   W01
 BYTE   VOL   32*songC6_mvl/mxv
 BYTE   W03
 BYTE   VOL   31*songC6_mvl/mxv
 BYTE   W02
 BYTE   VOL   31*songC6_mvl/mxv
 BYTE   W01
 BYTE   VOL   30*songC6_mvl/mxv
 BYTE   W02
 BYTE   VOL   39*songC6_mvl/mxv
 BYTE   N04  Gs3
 BYTE   W12
 BYTE   N17  En4
 BYTE   W18
 BYTE   Fs4
 BYTE   W18
 BYTE   N11  Gs4
 BYTE   W12
// 033   ----------------------------------------
 BYTE   N17  Fs4
 BYTE   W18
 BYTE   En4
 BYTE   W18
 BYTE   N11  Ds4
 BYTE   W12
 BYTE   N17  Cs4
 BYTE   W18
 BYTE   VOL   33*songC6_mvl/mxv
 BYTE   N32  Gs4
 BYTE   W03
 BYTE   VOL   33*songC6_mvl/mxv
 BYTE   W01
 BYTE   VOL   34*songC6_mvl/mxv
 BYTE   W02
 BYTE   VOL   34*songC6_mvl/mxv
 BYTE   W01
 BYTE   VOL   35*songC6_mvl/mxv
 BYTE   W02
 BYTE   VOL   35*songC6_mvl/mxv
 BYTE   W01
 BYTE   VOL   35*songC6_mvl/mxv
 BYTE   W02
 BYTE   VOL   36*songC6_mvl/mxv
 BYTE   W01
 BYTE   VOL   36*songC6_mvl/mxv
 BYTE   W02
 BYTE   VOL   37*songC6_mvl/mxv
 BYTE   W01
 BYTE   VOL   38*songC6_mvl/mxv
 BYTE   W03
 BYTE   VOL   38*songC6_mvl/mxv
 BYTE   W02
 BYTE   VOL   38*songC6_mvl/mxv
 BYTE   W09
// 034   ----------------------------------------
 BYTE   W12
 BYTE   N11  Bn4
 BYTE   W12
 BYTE   N04  An4
 BYTE   W12
 BYTE   VOL   32*songC6_mvl/mxv
 BYTE   N56  Gs4
 BYTE   W01
 BYTE   VOL   33*songC6_mvl/mxv
 BYTE   W03
 BYTE   VOL   33*songC6_mvl/mxv
 BYTE   W02
 BYTE   VOL   33*songC6_mvl/mxv
 BYTE   W01
 BYTE   VOL   34*songC6_mvl/mxv
 BYTE   W03
 BYTE   VOL   34*songC6_mvl/mxv
 BYTE   W02
 BYTE   VOL   35*songC6_mvl/mxv
 BYTE   W01
 BYTE   VOL   35*songC6_mvl/mxv
 BYTE   W02
 BYTE   VOL   36*songC6_mvl/mxv
 BYTE   W01
 BYTE   VOL   36*songC6_mvl/mxv
 BYTE   W02
 BYTE   VOL   36*songC6_mvl/mxv
 BYTE   W03
 BYTE   VOL   37*songC6_mvl/mxv
 BYTE   W01
 BYTE   VOL   37*songC6_mvl/mxv
 BYTE   W06
 BYTE   VOL   37*songC6_mvl/mxv
 BYTE   W02
 BYTE   VOL   38*songC6_mvl/mxv
 BYTE   W10
 BYTE   VOL   37*songC6_mvl/mxv
 BYTE   W02
 BYTE   VOL   36*songC6_mvl/mxv
 BYTE   W01
 BYTE   VOL   36*songC6_mvl/mxv
 BYTE   W02
 BYTE   VOL   35*songC6_mvl/mxv
 BYTE   W01
 BYTE   VOL   35*songC6_mvl/mxv
 BYTE   W02
 BYTE   VOL   33*songC6_mvl/mxv
 BYTE   W01
 BYTE   VOL   32*songC6_mvl/mxv
 BYTE   W02
 BYTE   VOL   31*songC6_mvl/mxv
 BYTE   W01
 BYTE   VOL   30*songC6_mvl/mxv
 BYTE   W02
 BYTE   VOL   28*songC6_mvl/mxv
 BYTE   W01
 BYTE   VOL   27*songC6_mvl/mxv
 BYTE   W02
 BYTE   VOL   26*songC6_mvl/mxv
 BYTE   W01
 BYTE   VOL   22*songC6_mvl/mxv
 BYTE   W02
// 035   ----------------------------------------
 BYTE   VOL   38*songC6_mvl/mxv
 BYTE   N11
 BYTE   W12
 BYTE   Fs4
 BYTE   W12
 BYTE   N17  En4
 BYTE   W06
 BYTE   VOL   38*songC6_mvl/mxv
 BYTE   W01
 BYTE   VOL   36*songC6_mvl/mxv
 BYTE   W02
 BYTE   VOL   36*songC6_mvl/mxv
 BYTE   W01
 BYTE   VOL   35*songC6_mvl/mxv
 BYTE   W02
 BYTE   VOL   34*songC6_mvl/mxv
 BYTE   W01
 BYTE   VOL   33*songC6_mvl/mxv
 BYTE   W02
 BYTE   VOL   33*songC6_mvl/mxv
 BYTE   W01
 BYTE   VOL   31*songC6_mvl/mxv
 BYTE   W02
 BYTE   VOL   30*songC6_mvl/mxv
 BYTE   W01
 BYTE   VOL   29*songC6_mvl/mxv
 BYTE   W05
 BYTE   VOL   33*songC6_mvl/mxv
 BYTE   N32  Fs4
 BYTE   W01
 BYTE   VOL   33*songC6_mvl/mxv
 BYTE   W02
 BYTE   VOL   34*songC6_mvl/mxv
 BYTE   W01
 BYTE   VOL   34*songC6_mvl/mxv
 BYTE   W02
 BYTE   VOL   35*songC6_mvl/mxv
 BYTE   W01
 BYTE   VOL   35*songC6_mvl/mxv
 BYTE   W02
 BYTE   VOL   36*songC6_mvl/mxv
 BYTE   W01
 BYTE   VOL   36*songC6_mvl/mxv
 BYTE   W02
 BYTE   VOL   36*songC6_mvl/mxv
 BYTE   W01
 BYTE   VOL   37*songC6_mvl/mxv
 BYTE   W02
 BYTE   VOL   37*songC6_mvl/mxv
 BYTE   W01
 BYTE   VOL   38*songC6_mvl/mxv
 BYTE   W03
 BYTE   VOL   38*songC6_mvl/mxv
 BYTE   W02
 BYTE   VOL   38*songC6_mvl/mxv
 BYTE   W15
 BYTE   N11  En4
 BYTE   W12
// 036   ----------------------------------------
 BYTE   N32  Ds4
 BYTE   W07
 BYTE   VOL   38*songC6_mvl/mxv
 BYTE   W02
 BYTE   VOL   37*songC6_mvl/mxv
 BYTE   W01
 BYTE   VOL   36*songC6_mvl/mxv
 BYTE   W02
 BYTE   VOL   36*songC6_mvl/mxv
 BYTE   W01
 BYTE   VOL   35*songC6_mvl/mxv
 BYTE   W02
 BYTE   VOL   34*songC6_mvl/mxv
 BYTE   W01
 BYTE   VOL   34*songC6_mvl/mxv
 BYTE   W02
 BYTE   VOL   33*songC6_mvl/mxv
 BYTE   W01
 BYTE   VOL   32*songC6_mvl/mxv
 BYTE   W02
 BYTE   VOL   31*songC6_mvl/mxv
 BYTE   W01
 BYTE   VOL   29*songC6_mvl/mxv
 BYTE   W02
 BYTE   VOL   28*songC6_mvl/mxv
 BYTE   W01
 BYTE   VOL   27*songC6_mvl/mxv
 BYTE   W02
 BYTE   VOL   26*songC6_mvl/mxv
 BYTE   W01
 BYTE   VOL   24*songC6_mvl/mxv
 BYTE   W02
 BYTE   VOL   19*songC6_mvl/mxv
 BYTE   W01
 BYTE   VOL   17*songC6_mvl/mxv
 BYTE   W02
 BYTE   VOL   16*songC6_mvl/mxv
 BYTE   W01
 BYTE   VOL   15*songC6_mvl/mxv
 BYTE   W02
 BYTE   VOL   38*songC6_mvl/mxv
 BYTE   N04  Cs4
 BYTE   W06
 BYTE   Ds4
 BYTE   W06
 BYTE   N17  En4
 BYTE   W18
 BYTE   Ds4
 BYTE   W18
 BYTE   N04  Cs4
 BYTE   W12
// 037   ----------------------------------------
 BYTE   N17  Ds4
 BYTE   W18
 BYTE   Gs3
 BYTE   W18
 BYTE   N04  Bn3
 BYTE   W12
 BYTE   N32
 BYTE   W06
 BYTE   VOL   38*songC6_mvl/mxv
 BYTE   W03
 BYTE   VOL   38*songC6_mvl/mxv
 BYTE   W06
 BYTE   VOL   37*songC6_mvl/mxv
 BYTE   W03
 BYTE   VOL   37*songC6_mvl/mxv
 BYTE   W04
 BYTE   VOL   37*songC6_mvl/mxv
 BYTE   W02
 BYTE   VOL   36*songC6_mvl/mxv
 BYTE   W03
 BYTE   VOL   36*songC6_mvl/mxv
 BYTE   W01
 BYTE   VOL   35*songC6_mvl/mxv
 BYTE   W02
 BYTE   VOL   35*songC6_mvl/mxv
 BYTE   W01
 BYTE   VOL   35*songC6_mvl/mxv
 BYTE   W02
 BYTE   VOL   34*songC6_mvl/mxv
 BYTE   W01
 BYTE   VOL   34*songC6_mvl/mxv
 BYTE   W02
 BYTE   VOL   38*songC6_mvl/mxv
 BYTE   N08  Cs4
 BYTE   W12
// 038   ----------------------------------------
 BYTE   VOL   31*songC6_mvl/mxv
 BYTE   N92
 BYTE   W03
 BYTE   VOL   31*songC6_mvl/mxv
 BYTE   W01
 BYTE   VOL   32*songC6_mvl/mxv
 BYTE   W02
 BYTE   VOL   32*songC6_mvl/mxv
 BYTE   W01
 BYTE   VOL   33*songC6_mvl/mxv
 BYTE   W03
 BYTE   VOL   33*songC6_mvl/mxv
 BYTE   W02
 BYTE   VOL   34*songC6_mvl/mxv
 BYTE   W01
 BYTE   VOL   34*songC6_mvl/mxv
 BYTE   W02
 BYTE   VOL   34*songC6_mvl/mxv
 BYTE   W01
 BYTE   VOL   35*songC6_mvl/mxv
 BYTE   W02
 BYTE   VOL   35*songC6_mvl/mxv
 BYTE   W03
 BYTE   VOL   36*songC6_mvl/mxv
 BYTE   W01
 BYTE   VOL   36*songC6_mvl/mxv
 BYTE   W05
 BYTE   VOL   36*songC6_mvl/mxv
 BYTE   W06
 BYTE   VOL   37*songC6_mvl/mxv
 BYTE   W19
 BYTE   VOL   36*songC6_mvl/mxv
 BYTE   W05
 BYTE   VOL   36*songC6_mvl/mxv
 BYTE   W03
 BYTE   VOL   36*songC6_mvl/mxv
 BYTE   W03
 BYTE   VOL   35*songC6_mvl/mxv
 BYTE   W01
 BYTE   VOL   35*songC6_mvl/mxv
 BYTE   W02
 BYTE   VOL   35*songC6_mvl/mxv
 BYTE   W01
 BYTE   VOL   34*songC6_mvl/mxv
 BYTE   W02
 BYTE   VOL   34*songC6_mvl/mxv
 BYTE   W01
 BYTE   VOL   33*songC6_mvl/mxv
 BYTE   W02
 BYTE   VOL   33*songC6_mvl/mxv
 BYTE   W01
 BYTE   VOL   33*songC6_mvl/mxv
 BYTE   W02
 BYTE   VOL   32*songC6_mvl/mxv
 BYTE   W01
 BYTE   VOL   31*songC6_mvl/mxv
 BYTE   W02
 BYTE   VOL   31*songC6_mvl/mxv
 BYTE   W01
 BYTE   VOL   30*songC6_mvl/mxv
 BYTE   W02
 BYTE   VOL   30*songC6_mvl/mxv
 BYTE   W01
 BYTE   VOL   29*songC6_mvl/mxv
 BYTE   W02
 BYTE   VOL   28*songC6_mvl/mxv
 BYTE   W01
 BYTE   VOL   27*songC6_mvl/mxv
 BYTE   W02
 BYTE   VOL   26*songC6_mvl/mxv
 BYTE   W01
 BYTE   VOL   25*songC6_mvl/mxv
 BYTE   W02
 BYTE   VOL   24*songC6_mvl/mxv
 BYTE   W01
 BYTE   VOL   23*songC6_mvl/mxv
 BYTE   W02
 BYTE   VOL   20*songC6_mvl/mxv
 BYTE   W01
 BYTE   VOL   20*songC6_mvl/mxv
 BYTE   W02
// 039   ----------------------------------------
 BYTE   VOL   17*songC6_mvl/mxv
 BYTE   W01
 BYTE   VOL   16*songC6_mvl/mxv
 BYTE   W02
 BYTE   VOL   14*songC6_mvl/mxv
 BYTE   W01
 BYTE   VOL   12*songC6_mvl/mxv
 BYTE   W02
 BYTE   VOL   10*songC6_mvl/mxv
 BYTE   W01
 BYTE   VOL   7*songC6_mvl/mxv
 BYTE   W02
 BYTE   VOL   5*songC6_mvl/mxv
 BYTE   W01
 BYTE   VOL   0*songC6_mvl/mxv
 BYTE   W08
 BYTE   VOL   0*songC6_mvl/mxv
 BYTE   W01
 BYTE   VOL   1*songC6_mvl/mxv
 BYTE   W02
 BYTE   VOL   1*songC6_mvl/mxv
 BYTE   W01
 BYTE   VOL   2*songC6_mvl/mxv
 BYTE   W02
 BYTE   VOL   38*songC6_mvl/mxv
 BYTE   W72
// 040   ----------------------------------------
 BYTE   W96
// 041   ----------------------------------------
 BYTE   W96
// 042   ----------------------------------------
 BYTE   W96
// 043   ----------------------------------------
 BYTE   W96
// 044   ----------------------------------------
 BYTE   W96
// 045   ----------------------------------------
 BYTE   W96
// 046   ----------------------------------------
 BYTE   W96
// 047   ----------------------------------------
 BYTE   W12
 BYTE   N11  As3
 BYTE   W12
 BYTE   Ds4
 BYTE   W12
 BYTE   Fs4
 BYTE   W12
 BYTE   N23  Fn4
 BYTE   W24
 BYTE   N11  Ds4
 BYTE   W12
 BYTE   N23  As3
 BYTE   W12
// 048   ----------------------------------------
 BYTE   W12
 BYTE   N11  Gs3
 BYTE   W12
 BYTE   N05  Fs3
 BYTE   W12
 BYTE   VOL   30*songC6_mvl/mxv
 BYTE   N56  As3
 BYTE   W01
 BYTE   VOL   30*songC6_mvl/mxv
 BYTE   W02
 BYTE   VOL   31*songC6_mvl/mxv
 BYTE   W01
 BYTE   VOL   31*songC6_mvl/mxv
 BYTE   W02
 BYTE   VOL   32*songC6_mvl/mxv
 BYTE   W01
 BYTE   VOL   32*songC6_mvl/mxv
 BYTE   W02
 BYTE   VOL   33*songC6_mvl/mxv
 BYTE   W01
 BYTE   VOL   34*songC6_mvl/mxv
 BYTE   W03
 BYTE   VOL   34*songC6_mvl/mxv
 BYTE   W03
 BYTE   VOL   35*songC6_mvl/mxv
 BYTE   W02
 BYTE   VOL   35*songC6_mvl/mxv
 BYTE   W01
 BYTE   VOL   35*songC6_mvl/mxv
 BYTE   W02
 BYTE   VOL   36*songC6_mvl/mxv
 BYTE   W01
 BYTE   VOL   36*songC6_mvl/mxv
 BYTE   W02
 BYTE   VOL   37*songC6_mvl/mxv
 BYTE   W01
 BYTE   VOL   37*songC6_mvl/mxv
 BYTE   W02
 BYTE   VOL   37*songC6_mvl/mxv
 BYTE   W12
 BYTE   VOL   37*songC6_mvl/mxv
 BYTE   W04
 BYTE   VOL   37*songC6_mvl/mxv
 BYTE   W03
 BYTE   VOL   36*songC6_mvl/mxv
 BYTE   W02
 BYTE   VOL   36*songC6_mvl/mxv
 BYTE   W01
 BYTE   VOL   35*songC6_mvl/mxv
 BYTE   W03
 BYTE   VOL   35*songC6_mvl/mxv
 BYTE   W02
 BYTE   VOL   34*songC6_mvl/mxv
 BYTE   W01
 BYTE   VOL   34*songC6_mvl/mxv
 BYTE   W02
 BYTE   VOL   33*songC6_mvl/mxv
 BYTE   W01
 BYTE   VOL   33*songC6_mvl/mxv
 BYTE   W02
// 049   ----------------------------------------
 BYTE   VOL   32*songC6_mvl/mxv
 BYTE   W01
 BYTE   VOL   31*songC6_mvl/mxv
 BYTE   W02
 BYTE   VOL   30*songC6_mvl/mxv
 BYTE   W01
 BYTE   VOL   30*songC6_mvl/mxv
 BYTE   W02
 BYTE   VOL   29*songC6_mvl/mxv
 BYTE   W01
 BYTE   VOL   29*songC6_mvl/mxv
 BYTE   W02
 BYTE   VOL   28*songC6_mvl/mxv
 BYTE   W01
 BYTE   VOL   38*songC6_mvl/mxv
 BYTE   W02
 BYTE   N11
 BYTE   W12
 BYTE   Ds4
 BYTE   W12
 BYTE   Fs4
 BYTE   W12
 BYTE   N23  Fn4
 BYTE   W24
 BYTE   N11  Ds4
 BYTE   W12
 BYTE   VOL   32*songC6_mvl/mxv
 BYTE   N23  As3
 BYTE   W01
 BYTE   VOL   33*songC6_mvl/mxv
 BYTE   W02
 BYTE   VOL   34*songC6_mvl/mxv
 BYTE   W01
 BYTE   VOL   35*songC6_mvl/mxv
 BYTE   W02
 BYTE   VOL   35*songC6_mvl/mxv
 BYTE   W01
 BYTE   VOL   36*songC6_mvl/mxv
 BYTE   W02
 BYTE   VOL   36*songC6_mvl/mxv
 BYTE   W01
 BYTE   VOL   37*songC6_mvl/mxv
 BYTE   W02
// 050   ----------------------------------------
 BYTE   W01
 BYTE   VOL   38*songC6_mvl/mxv
 BYTE   W03
 BYTE   VOL   38*songC6_mvl/mxv
 BYTE   W02
 BYTE   VOL   38*songC6_mvl/mxv
 BYTE   W06
 BYTE   N11  Gs3
 BYTE   W12
 BYTE   As3
 BYTE   W12
 BYTE   N56  Ds3
 BYTE   W19
 BYTE   VOL   38*songC6_mvl/mxv
 BYTE   W05
 BYTE   VOL   38*songC6_mvl/mxv
 BYTE   W03
 BYTE   VOL   37*songC6_mvl/mxv
 BYTE   W01
 BYTE   VOL   37*songC6_mvl/mxv
 BYTE   W02
 BYTE   VOL   37*songC6_mvl/mxv
 BYTE   W01
 BYTE   VOL   36*songC6_mvl/mxv
 BYTE   W02
 BYTE   VOL   36*songC6_mvl/mxv
 BYTE   W03
 BYTE   VOL   35*songC6_mvl/mxv
 BYTE   W01
 BYTE   VOL   35*songC6_mvl/mxv
 BYTE   W02
 BYTE   VOL   35*songC6_mvl/mxv
 BYTE   W01
 BYTE   VOL   34*songC6_mvl/mxv
 BYTE   W02
 BYTE   VOL   34*songC6_mvl/mxv
 BYTE   W01
 BYTE   VOL   33*songC6_mvl/mxv
 BYTE   W02
 BYTE   VOL   33*songC6_mvl/mxv
 BYTE   W01
 BYTE   VOL   33*songC6_mvl/mxv
 BYTE   W02
 BYTE   VOL   32*songC6_mvl/mxv
 BYTE   W01
 BYTE   VOL   31*songC6_mvl/mxv
 BYTE   W02
 BYTE   VOL   31*songC6_mvl/mxv
 BYTE   W01
 BYTE   VOL   30*songC6_mvl/mxv
 BYTE   W03
 BYTE   VOL   30*songC6_mvl/mxv
 BYTE   W02
 BYTE   VOL   29*songC6_mvl/mxv
 BYTE   W01
 BYTE   VOL   28*songC6_mvl/mxv
 BYTE   W02
// 051   ----------------------------------------
 BYTE   VOL   28*songC6_mvl/mxv
 BYTE   W01
 BYTE   VOL   28*songC6_mvl/mxv
 BYTE   W02
 BYTE   VOL   27*songC6_mvl/mxv
 BYTE   W01
 BYTE   VOL   27*songC6_mvl/mxv
 BYTE   W02
 BYTE   VOL   26*songC6_mvl/mxv
 BYTE   W01
 BYTE   VOL   26*songC6_mvl/mxv
 BYTE   W02
 BYTE   VOL   25*songC6_mvl/mxv
 BYTE   W01
 BYTE   VOL   38*songC6_mvl/mxv
 BYTE   W02
 BYTE   N11
 BYTE   W12
 BYTE   Fs3
 BYTE   W12
 BYTE   Gs3
 BYTE   W12
 BYTE   N32  As3
 BYTE   W19
 BYTE   VOL   38*songC6_mvl/mxv
 BYTE   W05
 BYTE   VOL   38*songC6_mvl/mxv
 BYTE   W03
 BYTE   VOL   37*songC6_mvl/mxv
 BYTE   W01
 BYTE   VOL   36*songC6_mvl/mxv
 BYTE   W03
 BYTE   VOL   36*songC6_mvl/mxv
 BYTE   W02
 BYTE   VOL   35*songC6_mvl/mxv
 BYTE   W01
 BYTE   VOL   34*songC6_mvl/mxv
 BYTE   W02
 BYTE   VOL   38*songC6_mvl/mxv
 BYTE   N05  Gs3
 BYTE   W12
// 052   ----------------------------------------
 BYTE   N28
 BYTE   W10
 BYTE   VOL   38*songC6_mvl/mxv
 BYTE   W02
 BYTE   VOL   38*songC6_mvl/mxv
 BYTE   W01
 BYTE   VOL   37*songC6_mvl/mxv
 BYTE   W02
 BYTE   VOL   37*songC6_mvl/mxv
 BYTE   W01
 BYTE   VOL   36*songC6_mvl/mxv
 BYTE   W03
 BYTE   VOL   36*songC6_mvl/mxv
 BYTE   W02
 BYTE   VOL   35*songC6_mvl/mxv
 BYTE   W01
 BYTE   VOL   34*songC6_mvl/mxv
 BYTE   W02
 BYTE   VOL   34*songC6_mvl/mxv
 BYTE   W01
 BYTE   VOL   33*songC6_mvl/mxv
 BYTE   W02
 BYTE   VOL   32*songC6_mvl/mxv
 BYTE   W01
 BYTE   VOL   30*songC6_mvl/mxv
 BYTE   W02
 BYTE   VOL   29*songC6_mvl/mxv
 BYTE   W01
 BYTE   VOL   27*songC6_mvl/mxv
 BYTE   W02
 BYTE   VOL   22*songC6_mvl/mxv
 BYTE   W01
 BYTE   VOL   16*songC6_mvl/mxv
 BYTE   W02
 BYTE   VOL   38*songC6_mvl/mxv
 BYTE   N05  Fs3
 BYTE   W06
 BYTE   Gs3
 BYTE   W06
 BYTE   N17  As3
 BYTE   W18
 BYTE   Bn3
 BYTE   W18
 BYTE   N11  As3
 BYTE   W12
// 053   ----------------------------------------
 BYTE   N23  Gs3
 BYTE   W24
 BYTE   Fn3
 BYTE   W24
 BYTE   VOL   32*songC6_mvl/mxv
 BYTE   N32  Gs3
 BYTE   W01
 BYTE   VOL   33*songC6_mvl/mxv
 BYTE   W02
 BYTE   VOL   33*songC6_mvl/mxv
 BYTE   W01
 BYTE   VOL   34*songC6_mvl/mxv
 BYTE   W02
 BYTE   VOL   34*songC6_mvl/mxv
 BYTE   W01
 BYTE   VOL   35*songC6_mvl/mxv
 BYTE   W02
 BYTE   VOL   36*songC6_mvl/mxv
 BYTE   W01
 BYTE   VOL   36*songC6_mvl/mxv
 BYTE   W02
 BYTE   VOL   37*songC6_mvl/mxv
 BYTE   W01
 BYTE   VOL   37*songC6_mvl/mxv
 BYTE   W02
 BYTE   VOL   38*songC6_mvl/mxv
 BYTE   W01
 BYTE   VOL   38*songC6_mvl/mxv
 BYTE   W11
 BYTE   VOL   38*songC6_mvl/mxv
 BYTE   W03
 BYTE   VOL   37*songC6_mvl/mxv
 BYTE   W03
 BYTE   VOL   37*songC6_mvl/mxv
 BYTE   W01
 BYTE   VOL   36*songC6_mvl/mxv
 BYTE   W02
 BYTE   VOL   38*songC6_mvl/mxv
 BYTE   N11  Fs3
 BYTE   W12
// 054   ----------------------------------------
 BYTE   VOL   29*songC6_mvl/mxv
 BYTE   N92  As3
 BYTE   W01
 BYTE   VOL   30*songC6_mvl/mxv
 BYTE   W02
 BYTE   VOL   31*songC6_mvl/mxv
 BYTE   W01
 BYTE   VOL   32*songC6_mvl/mxv
 BYTE   W02
 BYTE   VOL   33*songC6_mvl/mxv
 BYTE   W01
 BYTE   VOL   34*songC6_mvl/mxv
 BYTE   W02
 BYTE   VOL   34*songC6_mvl/mxv
 BYTE   W01
 BYTE   VOL   35*songC6_mvl/mxv
 BYTE   W02
 BYTE   VOL   35*songC6_mvl/mxv
 BYTE   W01
 BYTE   VOL   36*songC6_mvl/mxv
 BYTE   W02
 BYTE   VOL   36*songC6_mvl/mxv
 BYTE   W01
 BYTE   VOL   36*songC6_mvl/mxv
 BYTE   W02
 BYTE   VOL   37*songC6_mvl/mxv
 BYTE   W01
 BYTE   VOL   37*songC6_mvl/mxv
 BYTE   W03
 BYTE   VOL   37*songC6_mvl/mxv
 BYTE   W02
 BYTE   VOL   38*songC6_mvl/mxv
 BYTE   W24
 BYTE   W01
 BYTE   VOL   37*songC6_mvl/mxv
 BYTE   W02
 BYTE   VOL   37*songC6_mvl/mxv
 BYTE   W03
 BYTE   VOL   37*songC6_mvl/mxv
 BYTE   W01
 BYTE   VOL   36*songC6_mvl/mxv
 BYTE   W03
 BYTE   VOL   36*songC6_mvl/mxv
 BYTE   W02
 BYTE   VOL   35*songC6_mvl/mxv
 BYTE   W01
 BYTE   VOL   35*songC6_mvl/mxv
 BYTE   W03
 BYTE   VOL   34*songC6_mvl/mxv
 BYTE   W02
 BYTE   VOL   34*songC6_mvl/mxv
 BYTE   W01
 BYTE   VOL   33*songC6_mvl/mxv
 BYTE   W02
 BYTE   VOL   32*songC6_mvl/mxv
 BYTE   W01
 BYTE   VOL   31*songC6_mvl/mxv
 BYTE   W02
 BYTE   VOL   30*songC6_mvl/mxv
 BYTE   W01
 BYTE   VOL   30*songC6_mvl/mxv
 BYTE   W02
 BYTE   VOL   29*songC6_mvl/mxv
 BYTE   W01
 BYTE   VOL   28*songC6_mvl/mxv
 BYTE   W02
 BYTE   VOL   27*songC6_mvl/mxv
 BYTE   W01
 BYTE   VOL   25*songC6_mvl/mxv
 BYTE   W02
 BYTE   VOL   23*songC6_mvl/mxv
 BYTE   W01
 BYTE   VOL   22*songC6_mvl/mxv
 BYTE   W02
 BYTE   VOL   20*songC6_mvl/mxv
 BYTE   W01
 BYTE   VOL   19*songC6_mvl/mxv
 BYTE   W02
 BYTE   VOL   18*songC6_mvl/mxv
 BYTE   W01
 BYTE   VOL   17*songC6_mvl/mxv
 BYTE   W02
 BYTE   VOL   15*songC6_mvl/mxv
 BYTE   W01
 BYTE   VOL   13*songC6_mvl/mxv
 BYTE   W02
 BYTE   VOL   12*songC6_mvl/mxv
 BYTE   W01
 BYTE   VOL   10*songC6_mvl/mxv
 BYTE   W02
// 055   ----------------------------------------
 BYTE   VOL   8*songC6_mvl/mxv
 BYTE   W01
 BYTE   VOL   6*songC6_mvl/mxv
 BYTE   W02
 BYTE   VOL   4*songC6_mvl/mxv
 BYTE   W01
 BYTE   VOL   1*songC6_mvl/mxv
 BYTE   W02
 BYTE   VOL   0*songC6_mvl/mxv
 BYTE   W06
 BYTE   VOL   38*songC6_mvl/mxv
 BYTE   N11
 BYTE   W12
 BYTE   Ds4
 BYTE   W12
 BYTE   Fs4
 BYTE   W12
 BYTE   N23  Fn4
 BYTE   W24
 BYTE   N11  Ds4
 BYTE   W12
 BYTE   N23  As3
 BYTE   W12
// 056   ----------------------------------------
 BYTE   W12
 BYTE   N11  Gs3
 BYTE   W12
 BYTE   N05  Fs3
 BYTE   W12
 BYTE   VOL   31*songC6_mvl/mxv
 BYTE   N64  As3
 BYTE   W01
 BYTE   VOL   31*songC6_mvl/mxv
 BYTE   W02
 BYTE   VOL   32*songC6_mvl/mxv
 BYTE   W01
 BYTE   VOL   32*songC6_mvl/mxv
 BYTE   W02
 BYTE   VOL   32*songC6_mvl/mxv
 BYTE   W01
 BYTE   VOL   33*songC6_mvl/mxv
 BYTE   W02
 BYTE   VOL   33*songC6_mvl/mxv
 BYTE   W01
 BYTE   VOL   34*songC6_mvl/mxv
 BYTE   W03
 BYTE   VOL   35*songC6_mvl/mxv
 BYTE   W02
 BYTE   VOL   35*songC6_mvl/mxv
 BYTE   W01
 BYTE   VOL   35*songC6_mvl/mxv
 BYTE   W02
 BYTE   VOL   36*songC6_mvl/mxv
 BYTE   W03
 BYTE   VOL   36*songC6_mvl/mxv
 BYTE   W01
 BYTE   VOL   37*songC6_mvl/mxv
 BYTE   W02
 BYTE   VOL   37*songC6_mvl/mxv
 BYTE   W01
 BYTE   VOL   37*songC6_mvl/mxv
 BYTE   W03
 BYTE   VOL   38*songC6_mvl/mxv
 BYTE   W12
 BYTE   VOL   37*songC6_mvl/mxv
 BYTE   W02
 BYTE   VOL   37*songC6_mvl/mxv
 BYTE   W03
 BYTE   VOL   36*songC6_mvl/mxv
 BYTE   W01
 BYTE   VOL   36*songC6_mvl/mxv
 BYTE   W02
 BYTE   VOL   35*songC6_mvl/mxv
 BYTE   W01
 BYTE   VOL   35*songC6_mvl/mxv
 BYTE   W02
 BYTE   VOL   34*songC6_mvl/mxv
 BYTE   W01
 BYTE   VOL   34*songC6_mvl/mxv
 BYTE   W02
 BYTE   VOL   33*songC6_mvl/mxv
 BYTE   W01
 BYTE   VOL   32*songC6_mvl/mxv
 BYTE   W02
 BYTE   VOL   31*songC6_mvl/mxv
 BYTE   W01
 BYTE   VOL   30*songC6_mvl/mxv
 BYTE   W02
// 057   ----------------------------------------
 BYTE   VOL   29*songC6_mvl/mxv
 BYTE   W01
 BYTE   VOL   28*songC6_mvl/mxv
 BYTE   W02
 BYTE   VOL   27*songC6_mvl/mxv
 BYTE   W01
 BYTE   VOL   25*songC6_mvl/mxv
 BYTE   W02
 BYTE   VOL   24*songC6_mvl/mxv
 BYTE   W01
 BYTE   VOL   23*songC6_mvl/mxv
 BYTE   W02
 BYTE   VOL   21*songC6_mvl/mxv
 BYTE   W01
 BYTE   VOL   20*songC6_mvl/mxv
 BYTE   W02
 BYTE   VOL   38*songC6_mvl/mxv
 BYTE   N11
 BYTE   W12
 BYTE   Ds4
 BYTE   W12
 BYTE   N05  Fs4
 BYTE   W12
 BYTE   N23  Gs4
 BYTE   W24
 BYTE   N11  Fs4
 BYTE   W12
 BYTE   N23  Fn4
 BYTE   W12
// 058   ----------------------------------------
 BYTE   W12
 BYTE   N11  Fs4
 BYTE   W12
 BYTE   Gs4
 BYTE   W12
 BYTE   VOL   29*songC6_mvl/mxv
 BYTE   N64  As4
 BYTE   W01
 BYTE   VOL   30*songC6_mvl/mxv
 BYTE   W02
 BYTE   VOL   31*songC6_mvl/mxv
 BYTE   W01
 BYTE   VOL   32*songC6_mvl/mxv
 BYTE   W02
 BYTE   VOL   33*songC6_mvl/mxv
 BYTE   W01
 BYTE   VOL   34*songC6_mvl/mxv
 BYTE   W02
 BYTE   VOL   34*songC6_mvl/mxv
 BYTE   W01
 BYTE   VOL   35*songC6_mvl/mxv
 BYTE   W02
 BYTE   VOL   35*songC6_mvl/mxv
 BYTE   W01
 BYTE   VOL   36*songC6_mvl/mxv
 BYTE   W02
 BYTE   VOL   36*songC6_mvl/mxv
 BYTE   W01
 BYTE   VOL   36*songC6_mvl/mxv
 BYTE   W02
 BYTE   VOL   37*songC6_mvl/mxv
 BYTE   W01
 BYTE   VOL   37*songC6_mvl/mxv
 BYTE   W02
 BYTE   VOL   37*songC6_mvl/mxv
 BYTE   W03
 BYTE   VOL   38*songC6_mvl/mxv
 BYTE   W15
 BYTE   VOL   37*songC6_mvl/mxv
 BYTE   W01
 BYTE   VOL   37*songC6_mvl/mxv
 BYTE   W02
 BYTE   VOL   36*songC6_mvl/mxv
 BYTE   W01
 BYTE   VOL   36*songC6_mvl/mxv
 BYTE   W02
 BYTE   VOL   35*songC6_mvl/mxv
 BYTE   W01
 BYTE   VOL   35*songC6_mvl/mxv
 BYTE   W02
 BYTE   VOL   34*songC6_mvl/mxv
 BYTE   W01
 BYTE   VOL   33*songC6_mvl/mxv
 BYTE   W02
 BYTE   VOL   33*songC6_mvl/mxv
 BYTE   W01
 BYTE   VOL   32*songC6_mvl/mxv
 BYTE   W02
 BYTE   VOL   31*songC6_mvl/mxv
 BYTE   W01
 BYTE   VOL   30*songC6_mvl/mxv
 BYTE   W02
 BYTE   VOL   29*songC6_mvl/mxv
 BYTE   W01
 BYTE   VOL   27*songC6_mvl/mxv
 BYTE   W02
// 059   ----------------------------------------
 BYTE   VOL   25*songC6_mvl/mxv
 BYTE   W01
 BYTE   VOL   23*songC6_mvl/mxv
 BYTE   W02
 BYTE   VOL   20*songC6_mvl/mxv
 BYTE   W01
 BYTE   VOL   19*songC6_mvl/mxv
 BYTE   W02
 BYTE   VOL   13*songC6_mvl/mxv
 BYTE   W01
 BYTE   VOL   9*songC6_mvl/mxv
 BYTE   W02
 BYTE   VOL   3*songC6_mvl/mxv
 BYTE   W01
 BYTE   VOL   38*songC6_mvl/mxv
 BYTE   W02
 BYTE   N11  Ds4
 BYTE   W12
 BYTE   Fs4
 BYTE   W12
 BYTE   Gs4
 BYTE   W12
 BYTE   N32  As4
 BYTE   W36
 BYTE   N05  Gs4
 BYTE   W12
// 060   ----------------------------------------
 BYTE   N28
 BYTE   W07
 BYTE   VOL   38*songC6_mvl/mxv
 BYTE   W03
 BYTE   VOL   37*songC6_mvl/mxv
 BYTE   W02
 BYTE   VOL   36*songC6_mvl/mxv
 BYTE   W01
 BYTE   VOL   36*songC6_mvl/mxv
 BYTE   W02
 BYTE   VOL   36*songC6_mvl/mxv
 BYTE   W01
 BYTE   VOL   35*songC6_mvl/mxv
 BYTE   W02
 BYTE   VOL   35*songC6_mvl/mxv
 BYTE   W01
 BYTE   VOL   34*songC6_mvl/mxv
 BYTE   W02
 BYTE   VOL   33*songC6_mvl/mxv
 BYTE   W01
 BYTE   VOL   33*songC6_mvl/mxv
 BYTE   W02
 BYTE   VOL   32*songC6_mvl/mxv
 BYTE   W01
 BYTE   VOL   31*songC6_mvl/mxv
 BYTE   W02
 BYTE   VOL   30*songC6_mvl/mxv
 BYTE   W01
 BYTE   VOL   29*songC6_mvl/mxv
 BYTE   W02
 BYTE   VOL   28*songC6_mvl/mxv
 BYTE   W01
 BYTE   VOL   24*songC6_mvl/mxv
 BYTE   W02
 BYTE   VOL   22*songC6_mvl/mxv
 BYTE   W01
 BYTE   VOL   23*songC6_mvl/mxv
 BYTE   W02
 BYTE   VOL   38*songC6_mvl/mxv
 BYTE   N05  Fs4
 BYTE   W06
 BYTE   Gs4
 BYTE   W06
 BYTE   N17  As4
 BYTE   W18
 BYTE   Bn4
 BYTE   W18
 BYTE   N11  As4
 BYTE   W12
// 061   ----------------------------------------
 BYTE   N23  Gs4
 BYTE   W24
 BYTE   N17  Fn4
 BYTE   W24
 BYTE   N32
 BYTE   W12
 BYTE   VOL   38*songC6_mvl/mxv
 BYTE   W01
 BYTE   VOL   37*songC6_mvl/mxv
 BYTE   W03
 BYTE   VOL   36*songC6_mvl/mxv
 BYTE   W02
 BYTE   VOL   36*songC6_mvl/mxv
 BYTE   W01
 BYTE   VOL   35*songC6_mvl/mxv
 BYTE   W02
 BYTE   VOL   35*songC6_mvl/mxv
 BYTE   W01
 BYTE   VOL   34*songC6_mvl/mxv
 BYTE   W02
 BYTE   VOL   34*songC6_mvl/mxv
 BYTE   W01
 BYTE   VOL   33*songC6_mvl/mxv
 BYTE   W02
 BYTE   VOL   33*songC6_mvl/mxv
 BYTE   W01
 BYTE   VOL   32*songC6_mvl/mxv
 BYTE   W02
 BYTE   VOL   32*songC6_mvl/mxv
 BYTE   W01
 BYTE   VOL   31*songC6_mvl/mxv
 BYTE   W02
 BYTE   VOL   31*songC6_mvl/mxv
 BYTE   W01
 BYTE   VOL   30*songC6_mvl/mxv
 BYTE   W02
 BYTE   VOL   38*songC6_mvl/mxv
 BYTE   N11  Fs4
 BYTE   W12
// 062   ----------------------------------------
 BYTE   VOL   29*songC6_mvl/mxv
 BYTE   N92  Ds4
 BYTE   W01
 BYTE   VOL   29*songC6_mvl/mxv
 BYTE   W02
 BYTE   VOL   30*songC6_mvl/mxv
 BYTE   W01
 BYTE   VOL   30*songC6_mvl/mxv
 BYTE   W02
 BYTE   VOL   31*songC6_mvl/mxv
 BYTE   W01
 BYTE   VOL   32*songC6_mvl/mxv
 BYTE   W02
 BYTE   VOL   33*songC6_mvl/mxv
 BYTE   W01
 BYTE   VOL   34*songC6_mvl/mxv
 BYTE   W02
 BYTE   VOL   34*songC6_mvl/mxv
 BYTE   W01
 BYTE   VOL   34*songC6_mvl/mxv
 BYTE   W02
 BYTE   VOL   35*songC6_mvl/mxv
 BYTE   W01
 BYTE   VOL   35*songC6_mvl/mxv
 BYTE   W02
 BYTE   VOL   36*songC6_mvl/mxv
 BYTE   W03
 BYTE   VOL   36*songC6_mvl/mxv
 BYTE   W01
 BYTE   VOL   37*songC6_mvl/mxv
 BYTE   W03
 BYTE   VOL   37*songC6_mvl/mxv
 BYTE   W06
 BYTE   VOL   37*songC6_mvl/mxv
 BYTE   W03
 BYTE   VOL   38*songC6_mvl/mxv
 BYTE   W18
 BYTE   VOL   37*songC6_mvl/mxv
 BYTE   W03
 BYTE   VOL   37*songC6_mvl/mxv
 BYTE   W05
 BYTE   VOL   36*songC6_mvl/mxv
 BYTE   W01
 BYTE   VOL   36*songC6_mvl/mxv
 BYTE   W02
 BYTE   VOL   36*songC6_mvl/mxv
 BYTE   W03
 BYTE   VOL   35*songC6_mvl/mxv
 BYTE   W01
 BYTE   VOL   35*songC6_mvl/mxv
 BYTE   W02
 BYTE   VOL   34*songC6_mvl/mxv
 BYTE   W01
 BYTE   VOL   34*songC6_mvl/mxv
 BYTE   W02
 BYTE   VOL   33*songC6_mvl/mxv
 BYTE   W01
 BYTE   VOL   33*songC6_mvl/mxv
 BYTE   W02
 BYTE   VOL   32*songC6_mvl/mxv
 BYTE   W01
 BYTE   VOL   32*songC6_mvl/mxv
 BYTE   W02
 BYTE   VOL   31*songC6_mvl/mxv
 BYTE   W01
 BYTE   VOL   30*songC6_mvl/mxv
 BYTE   W02
 BYTE   VOL   29*songC6_mvl/mxv
 BYTE   W01
 BYTE   VOL   29*songC6_mvl/mxv
 BYTE   W02
 BYTE   VOL   28*songC6_mvl/mxv
 BYTE   W01
 BYTE   VOL   27*songC6_mvl/mxv
 BYTE   W02
 BYTE   VOL   26*songC6_mvl/mxv
 BYTE   W01
 BYTE   VOL   25*songC6_mvl/mxv
 BYTE   W02
 BYTE   VOL   24*songC6_mvl/mxv
 BYTE   W01
 BYTE   VOL   23*songC6_mvl/mxv
 BYTE   W02
 BYTE   VOL   22*songC6_mvl/mxv
 BYTE   W01
 BYTE   VOL   21*songC6_mvl/mxv
 BYTE   W02
// 063   ----------------------------------------
 BYTE   VOL   20*songC6_mvl/mxv
 BYTE   W01
 BYTE   VOL   19*songC6_mvl/mxv
 BYTE   W02
 BYTE   VOL   17*songC6_mvl/mxv
 BYTE   W01
 BYTE   VOL   16*songC6_mvl/mxv
 BYTE   W02
 BYTE   VOL   15*songC6_mvl/mxv
 BYTE   W01
 BYTE   VOL   14*songC6_mvl/mxv
 BYTE   W02
 BYTE   VOL   12*songC6_mvl/mxv
 BYTE   W01
 BYTE   VOL   12*songC6_mvl/mxv
 BYTE   W02
 BYTE   VOL   38*songC6_mvl/mxv
 BYTE   N11  As3
 BYTE   W12
 BYTE   Ds4
 BYTE   W12
 BYTE   Fs4
 BYTE   W12
 BYTE   VOL   32*songC6_mvl/mxv
 BYTE   N23  Fn4
 BYTE   W01
 BYTE   VOL   33*songC6_mvl/mxv
 BYTE   W02
 BYTE   VOL   33*songC6_mvl/mxv
 BYTE   W01
 BYTE   VOL   34*songC6_mvl/mxv
 BYTE   W02
 BYTE   VOL   35*songC6_mvl/mxv
 BYTE   W01
 BYTE   VOL   35*songC6_mvl/mxv
 BYTE   W02
 BYTE   VOL   36*songC6_mvl/mxv
 BYTE   W01
 BYTE   VOL   37*songC6_mvl/mxv
 BYTE   W02
 BYTE   VOL   38*songC6_mvl/mxv
 BYTE   W01
 BYTE   VOL   38*songC6_mvl/mxv
 BYTE   W02
 BYTE   VOL   38*songC6_mvl/mxv
 BYTE   W09
 BYTE   N11  Ds4
 BYTE   W12
 BYTE   VOL   31*songC6_mvl/mxv
 BYTE   N23  As3
 BYTE   W01
 BYTE   VOL   32*songC6_mvl/mxv
 BYTE   W02
 BYTE   VOL   33*songC6_mvl/mxv
 BYTE   W01
 BYTE   VOL   33*songC6_mvl/mxv
 BYTE   W02
 BYTE   VOL   34*songC6_mvl/mxv
 BYTE   W01
 BYTE   VOL   34*songC6_mvl/mxv
 BYTE   W02
 BYTE   VOL   35*songC6_mvl/mxv
 BYTE   W01
 BYTE   VOL   36*songC6_mvl/mxv
 BYTE   W02
// 064   ----------------------------------------
 BYTE   VOL   36*songC6_mvl/mxv
 BYTE   W01
 BYTE   VOL   36*songC6_mvl/mxv
 BYTE   W02
 BYTE   VOL   37*songC6_mvl/mxv
 BYTE   W01
 BYTE   VOL   37*songC6_mvl/mxv
 BYTE   W02
 BYTE   VOL   38*songC6_mvl/mxv
 BYTE   W01
 BYTE   VOL   38*songC6_mvl/mxv
 BYTE   W05
 BYTE   N11  Gs3
 BYTE   W12
 BYTE   Fs3
 BYTE   W12
 BYTE   N56  As3
 BYTE   W13
 BYTE   VOL   38*songC6_mvl/mxv
 BYTE   W06
 BYTE   VOL   38*songC6_mvl/mxv
 BYTE   W03
 BYTE   VOL   37*songC6_mvl/mxv
 BYTE   W02
 BYTE   VOL   37*songC6_mvl/mxv
 BYTE   W01
 BYTE   VOL   36*songC6_mvl/mxv
 BYTE   W03
 BYTE   VOL   36*songC6_mvl/mxv
 BYTE   W02
 BYTE   VOL   35*songC6_mvl/mxv
 BYTE   W01
 BYTE   VOL   35*songC6_mvl/mxv
 BYTE   W03
 BYTE   VOL   34*songC6_mvl/mxv
 BYTE   W02
 BYTE   VOL   34*songC6_mvl/mxv
 BYTE   W01
 BYTE   VOL   34*songC6_mvl/mxv
 BYTE   W02
 BYTE   VOL   33*songC6_mvl/mxv
 BYTE   W01
 BYTE   VOL   33*songC6_mvl/mxv
 BYTE   W02
 BYTE   VOL   32*songC6_mvl/mxv
 BYTE   W01
 BYTE   VOL   31*songC6_mvl/mxv
 BYTE   W02
 BYTE   VOL   30*songC6_mvl/mxv
 BYTE   W01
 BYTE   VOL   30*songC6_mvl/mxv
 BYTE   W02
 BYTE   VOL   29*songC6_mvl/mxv
 BYTE   W01
 BYTE   VOL   29*songC6_mvl/mxv
 BYTE   W02
 BYTE   VOL   28*songC6_mvl/mxv
 BYTE   W01
 BYTE   VOL   27*songC6_mvl/mxv
 BYTE   W02
 BYTE   VOL   26*songC6_mvl/mxv
 BYTE   W01
 BYTE   VOL   25*songC6_mvl/mxv
 BYTE   W02
 BYTE   VOL   25*songC6_mvl/mxv
 BYTE   W01
 BYTE   VOL   24*songC6_mvl/mxv
 BYTE   W02
// 065   ----------------------------------------
 BYTE   VOL   23*songC6_mvl/mxv
 BYTE   W01
 BYTE   VOL   21*songC6_mvl/mxv
 BYTE   W02
 BYTE   VOL   20*songC6_mvl/mxv
 BYTE   W01
 BYTE   VOL   19*songC6_mvl/mxv
 BYTE   W02
 BYTE   VOL   18*songC6_mvl/mxv
 BYTE   W01
 BYTE   VOL   14*songC6_mvl/mxv
 BYTE   W02
 BYTE   VOL   13*songC6_mvl/mxv
 BYTE   W01
 BYTE   VOL   12*songC6_mvl/mxv
 BYTE   W02
 BYTE   VOL   38*songC6_mvl/mxv
 BYTE   N11
 BYTE   W12
 BYTE   Ds4
 BYTE   W12
 BYTE   Fs4
 BYTE   W12
 BYTE   N23  Fn4
 BYTE   W24
 BYTE   N11  Ds4
 BYTE   W12
 BYTE   N23  As3
 BYTE   W12
// 066   ----------------------------------------
 BYTE   W12
 BYTE   N11  Gs3
 BYTE   W12
 BYTE   As3
 BYTE   W12
 BYTE   VOL   34*songC6_mvl/mxv
 BYTE   N56  Ds3
 BYTE   W01
 BYTE   VOL   35*songC6_mvl/mxv
 BYTE   W02
 BYTE   VOL   35*songC6_mvl/mxv
 BYTE   W03
 BYTE   VOL   36*songC6_mvl/mxv
 BYTE   W03
 BYTE   VOL   36*songC6_mvl/mxv
 BYTE   W01
 BYTE   VOL   37*songC6_mvl/mxv
 BYTE   W02
 BYTE   VOL   37*songC6_mvl/mxv
 BYTE   W03
 BYTE   VOL   37*songC6_mvl/mxv
 BYTE   W01
 BYTE   VOL   38*songC6_mvl/mxv
 BYTE   W14
 BYTE   VOL   37*songC6_mvl/mxv
 BYTE   W01
 BYTE   VOL   37*songC6_mvl/mxv
 BYTE   W03
 BYTE   VOL   36*songC6_mvl/mxv
 BYTE   W02
 BYTE   VOL   36*songC6_mvl/mxv
 BYTE   W03
 BYTE   VOL   35*songC6_mvl/mxv
 BYTE   W01
 BYTE   VOL   35*songC6_mvl/mxv
 BYTE   W02
 BYTE   VOL   34*songC6_mvl/mxv
 BYTE   W01
 BYTE   VOL   34*songC6_mvl/mxv
 BYTE   W02
 BYTE   VOL   33*songC6_mvl/mxv
 BYTE   W01
 BYTE   VOL   33*songC6_mvl/mxv
 BYTE   W02
 BYTE   VOL   32*songC6_mvl/mxv
 BYTE   W01
 BYTE   VOL   31*songC6_mvl/mxv
 BYTE   W02
 BYTE   VOL   31*songC6_mvl/mxv
 BYTE   W01
 BYTE   VOL   30*songC6_mvl/mxv
 BYTE   W02
 BYTE   VOL   29*songC6_mvl/mxv
 BYTE   W01
 BYTE   VOL   28*songC6_mvl/mxv
 BYTE   W02
 BYTE   VOL   27*songC6_mvl/mxv
 BYTE   W01
 BYTE   VOL   26*songC6_mvl/mxv
 BYTE   W02
// 067   ----------------------------------------
 BYTE   VOL   24*songC6_mvl/mxv
 BYTE   W01
 BYTE   VOL   23*songC6_mvl/mxv
 BYTE   W02
 BYTE   VOL   22*songC6_mvl/mxv
 BYTE   W01
 BYTE   VOL   20*songC6_mvl/mxv
 BYTE   W02
 BYTE   VOL   19*songC6_mvl/mxv
 BYTE   W01
 BYTE   VOL   18*songC6_mvl/mxv
 BYTE   W02
 BYTE   VOL   17*songC6_mvl/mxv
 BYTE   W01
 BYTE   VOL   15*songC6_mvl/mxv
 BYTE   W02
 BYTE   VOL   38*songC6_mvl/mxv
 BYTE   N11
 BYTE   W12
 BYTE   Fs3
 BYTE   W12
 BYTE   Gs3
 BYTE   W12
 BYTE   N32  As3
 BYTE   W36
 BYTE   N05  Gs3
 BYTE   W12
// 068   ----------------------------------------
 BYTE   N28
 BYTE   W10
 BYTE   VOL   38*songC6_mvl/mxv
 BYTE   W05
 BYTE   VOL   37*songC6_mvl/mxv
 BYTE   W01
 BYTE   VOL   37*songC6_mvl/mxv
 BYTE   W02
 BYTE   VOL   36*songC6_mvl/mxv
 BYTE   W01
 BYTE   VOL   36*songC6_mvl/mxv
 BYTE   W02
 BYTE   VOL   35*songC6_mvl/mxv
 BYTE   W01
 BYTE   VOL   34*songC6_mvl/mxv
 BYTE   W02
 BYTE   VOL   34*songC6_mvl/mxv
 BYTE   W01
 BYTE   VOL   33*songC6_mvl/mxv
 BYTE   W02
 BYTE   VOL   32*songC6_mvl/mxv
 BYTE   W01
 BYTE   VOL   31*songC6_mvl/mxv
 BYTE   W02
 BYTE   VOL   30*songC6_mvl/mxv
 BYTE   W01
 BYTE   VOL   29*songC6_mvl/mxv
 BYTE   W02
 BYTE   VOL   27*songC6_mvl/mxv
 BYTE   W01
 BYTE   VOL   24*songC6_mvl/mxv
 BYTE   W02
 BYTE   VOL   38*songC6_mvl/mxv
 BYTE   N05  Fs3
 BYTE   W06
 BYTE   Gs3
 BYTE   W06
 BYTE   N17  As3
 BYTE   W18
 BYTE   Bn3
 BYTE   W18
 BYTE   N11  As3
 BYTE   W12
// 069   ----------------------------------------
 BYTE   N23  Gs3
 BYTE   W24
 BYTE   Fn3
 BYTE   W24
 BYTE   N32  Gs3
 BYTE   W15
 BYTE   VOL   38*songC6_mvl/mxv
 BYTE   W01
 BYTE   VOL   37*songC6_mvl/mxv
 BYTE   W02
 BYTE   VOL   37*songC6_mvl/mxv
 BYTE   W01
 BYTE   VOL   37*songC6_mvl/mxv
 BYTE   W02
 BYTE   VOL   36*songC6_mvl/mxv
 BYTE   W01
 BYTE   VOL   36*songC6_mvl/mxv
 BYTE   W02
 BYTE   VOL   36*songC6_mvl/mxv
 BYTE   W01
 BYTE   VOL   35*songC6_mvl/mxv
 BYTE   W02
 BYTE   VOL   34*songC6_mvl/mxv
 BYTE   W01
 BYTE   VOL   34*songC6_mvl/mxv
 BYTE   W02
 BYTE   VOL   33*songC6_mvl/mxv
 BYTE   W01
 BYTE   VOL   32*songC6_mvl/mxv
 BYTE   W02
 BYTE   VOL   31*songC6_mvl/mxv
 BYTE   W01
 BYTE   VOL   38*songC6_mvl/mxv
 BYTE   W02
 BYTE   N11  Fs3
 BYTE   W12
// 070   ----------------------------------------
 BYTE   VOL   30*songC6_mvl/mxv
 BYTE   N80  As3
 BYTE   W01
 BYTE   VOL   31*songC6_mvl/mxv
 BYTE   W02
 BYTE   VOL   31*songC6_mvl/mxv
 BYTE   W03
 BYTE   VOL   32*songC6_mvl/mxv
 BYTE   W01
 BYTE   VOL   32*songC6_mvl/mxv
 BYTE   W03
 BYTE   VOL   33*songC6_mvl/mxv
 BYTE   W02
 BYTE   VOL   33*songC6_mvl/mxv
 BYTE   W01
 BYTE   VOL   34*songC6_mvl/mxv
 BYTE   W03
 BYTE   VOL   34*songC6_mvl/mxv
 BYTE   W02
 BYTE   VOL   34*songC6_mvl/mxv
 BYTE   W01
 BYTE   VOL   35*songC6_mvl/mxv
 BYTE   W02
 BYTE   VOL   35*songC6_mvl/mxv
 BYTE   W01
 BYTE   VOL   36*songC6_mvl/mxv
 BYTE   W02
 BYTE   VOL   36*songC6_mvl/mxv
 BYTE   W01
 BYTE   VOL   36*songC6_mvl/mxv
 BYTE   W03
 BYTE   VOL   37*songC6_mvl/mxv
 BYTE   W02
 BYTE   VOL   37*songC6_mvl/mxv
 BYTE   W01
 BYTE   VOL   38*songC6_mvl/mxv
 BYTE   W03
 BYTE   VOL   38*songC6_mvl/mxv
 BYTE   W03
 BYTE   VOL   39*songC6_mvl/mxv
 BYTE   W24
 BYTE   VOL   38*songC6_mvl/mxv
 BYTE   W02
 BYTE   VOL   38*songC6_mvl/mxv
 BYTE   W03
 BYTE   VOL   38*songC6_mvl/mxv
 BYTE   W01
 BYTE   VOL   37*songC6_mvl/mxv
 BYTE   W02
 BYTE   VOL   37*songC6_mvl/mxv
 BYTE   W01
 BYTE   VOL   36*songC6_mvl/mxv
 BYTE   W02
 BYTE   VOL   35*songC6_mvl/mxv
 BYTE   W01
 BYTE   VOL   33*songC6_mvl/mxv
 BYTE   W02
 BYTE   VOL   32*songC6_mvl/mxv
 BYTE   W01
 BYTE   VOL   31*songC6_mvl/mxv
 BYTE   W02
 BYTE   VOL   30*songC6_mvl/mxv
 BYTE   W01
 BYTE   VOL   29*songC6_mvl/mxv
 BYTE   W02
 BYTE   VOL   28*songC6_mvl/mxv
 BYTE   W01
 BYTE   VOL   28*songC6_mvl/mxv
 BYTE   W02
 BYTE   VOL   26*songC6_mvl/mxv
 BYTE   W01
 BYTE   VOL   25*songC6_mvl/mxv
 BYTE   W02
 BYTE   VOL   24*songC6_mvl/mxv
 BYTE   W01
 BYTE   VOL   22*songC6_mvl/mxv
 BYTE   W02
 BYTE   VOL   20*songC6_mvl/mxv
 BYTE   W01
 BYTE   VOL   19*songC6_mvl/mxv
 BYTE   W02
 BYTE   VOL   17*songC6_mvl/mxv
 BYTE   W01
 BYTE   VOL   16*songC6_mvl/mxv
 BYTE   W02
// 071   ----------------------------------------
 BYTE   VOL   14*songC6_mvl/mxv
 BYTE   W01
 BYTE   VOL   12*songC6_mvl/mxv
 BYTE   W02
 BYTE   VOL   9*songC6_mvl/mxv
 BYTE   W01
 BYTE   VOL   6*songC6_mvl/mxv
 BYTE   W02
 BYTE   VOL   2*songC6_mvl/mxv
 BYTE   W01
 BYTE   VOL   0*songC6_mvl/mxv
 BYTE   W05
 BYTE   VOL   38*songC6_mvl/mxv
 BYTE   N11
 BYTE   W12
 BYTE   Ds4
 BYTE   W12
 BYTE   Fs4
 BYTE   W12
 BYTE   N23  Fn4
 BYTE   W24
 BYTE   N05  Ds4
 BYTE   W12
 BYTE   N23  As3
 BYTE   W12
// 072   ----------------------------------------
 BYTE   W12
 BYTE   N11  Gs3
 BYTE   W12
 BYTE   N05  Fs3
 BYTE   W12
 BYTE   VOL   31*songC6_mvl/mxv
 BYTE   N56  As3
 BYTE   W03
 BYTE   VOL   32*songC6_mvl/mxv
 BYTE   W03
 BYTE   VOL   32*songC6_mvl/mxv
 BYTE   W01
 BYTE   VOL   33*songC6_mvl/mxv
 BYTE   W02
 BYTE   VOL   33*songC6_mvl/mxv
 BYTE   W01
 BYTE   VOL   34*songC6_mvl/mxv
 BYTE   W02
 BYTE   VOL   34*songC6_mvl/mxv
 BYTE   W01
 BYTE   VOL   35*songC6_mvl/mxv
 BYTE   W02
 BYTE   VOL   35*songC6_mvl/mxv
 BYTE   W01
 BYTE   VOL   35*songC6_mvl/mxv
 BYTE   W02
 BYTE   VOL   36*songC6_mvl/mxv
 BYTE   W01
 BYTE   VOL   36*songC6_mvl/mxv
 BYTE   W02
 BYTE   VOL   37*songC6_mvl/mxv
 BYTE   W01
 BYTE   VOL   37*songC6_mvl/mxv
 BYTE   W02
 BYTE   VOL   38*songC6_mvl/mxv
 BYTE   W01
 BYTE   VOL   38*songC6_mvl/mxv
 BYTE   W03
 BYTE   VOL   39*songC6_mvl/mxv
 BYTE   W14
 BYTE   VOL   38*songC6_mvl/mxv
 BYTE   W01
 BYTE   VOL   38*songC6_mvl/mxv
 BYTE   W02
 BYTE   VOL   38*songC6_mvl/mxv
 BYTE   W01
 BYTE   VOL   37*songC6_mvl/mxv
 BYTE   W02
 BYTE   VOL   36*songC6_mvl/mxv
 BYTE   W01
 BYTE   VOL   36*songC6_mvl/mxv
 BYTE   W02
 BYTE   VOL   35*songC6_mvl/mxv
 BYTE   W01
 BYTE   VOL   35*songC6_mvl/mxv
 BYTE   W02
 BYTE   VOL   33*songC6_mvl/mxv
 BYTE   W01
 BYTE   VOL   32*songC6_mvl/mxv
 BYTE   W02
 BYTE   VOL   31*songC6_mvl/mxv
 BYTE   W01
 BYTE   VOL   30*songC6_mvl/mxv
 BYTE   W02
// 073   ----------------------------------------
 BYTE   VOL   28*songC6_mvl/mxv
 BYTE   W01
 BYTE   VOL   26*songC6_mvl/mxv
 BYTE   W02
 BYTE   VOL   25*songC6_mvl/mxv
 BYTE   W01
 BYTE   VOL   23*songC6_mvl/mxv
 BYTE   W02
 BYTE   VOL   21*songC6_mvl/mxv
 BYTE   W01
 BYTE   VOL   19*songC6_mvl/mxv
 BYTE   W02
 BYTE   VOL   17*songC6_mvl/mxv
 BYTE   W01
 BYTE   VOL   14*songC6_mvl/mxv
 BYTE   W02
 BYTE   VOL   38*songC6_mvl/mxv
 BYTE   N11
 BYTE   W12
 BYTE   Ds4
 BYTE   W12
 BYTE   N05  Fs4
 BYTE   W12
 BYTE   N23  Gs4
 BYTE   W06
 BYTE   VOL   38*songC6_mvl/mxv
 BYTE   W03
 BYTE   VOL   38*songC6_mvl/mxv
 BYTE   W01
 BYTE   VOL   37*songC6_mvl/mxv
 BYTE   W02
 BYTE   VOL   37*songC6_mvl/mxv
 BYTE   W01
 BYTE   VOL   36*songC6_mvl/mxv
 BYTE   W02
 BYTE   VOL   36*songC6_mvl/mxv
 BYTE   W01
 BYTE   VOL   35*songC6_mvl/mxv
 BYTE   W02
 BYTE   VOL   34*songC6_mvl/mxv
 BYTE   W01
 BYTE   VOL   33*songC6_mvl/mxv
 BYTE   W02
 BYTE   VOL   33*songC6_mvl/mxv
 BYTE   W01
 BYTE   VOL   32*songC6_mvl/mxv
 BYTE   W02
 BYTE   VOL   38*songC6_mvl/mxv
 BYTE   N05  Fs4
 BYTE   W12
 BYTE   VOL   38*songC6_mvl/mxv
 BYTE   N23  Fn4
 BYTE   W04
 BYTE   VOL   38*songC6_mvl/mxv
 BYTE   W02
 BYTE   VOL   37*songC6_mvl/mxv
 BYTE   W01
 BYTE   VOL   36*songC6_mvl/mxv
 BYTE   W02
 BYTE   VOL   35*songC6_mvl/mxv
 BYTE   W01
 BYTE   VOL   35*songC6_mvl/mxv
 BYTE   W02
// 074   ----------------------------------------
 BYTE   VOL   34*songC6_mvl/mxv
 BYTE   W01
 BYTE   VOL   33*songC6_mvl/mxv
 BYTE   W02
 BYTE   VOL   33*songC6_mvl/mxv
 BYTE   W01
 BYTE   VOL   32*songC6_mvl/mxv
 BYTE   W02
 BYTE   VOL   31*songC6_mvl/mxv
 BYTE   W01
 BYTE   VOL   31*songC6_mvl/mxv
 BYTE   W02
 BYTE   VOL   29*songC6_mvl/mxv
 BYTE   W01
 BYTE   VOL   29*songC6_mvl/mxv
 BYTE   W02
 BYTE   VOL   38*songC6_mvl/mxv
 BYTE   N11  Fs4
 BYTE   W12
 BYTE   Gs4
 BYTE   W12
 BYTE   VOL   29*songC6_mvl/mxv
 BYTE   N64  As4
 BYTE   W03
 BYTE   VOL   29*songC6_mvl/mxv
 BYTE   W01
 BYTE   VOL   30*songC6_mvl/mxv
 BYTE   W02
 BYTE   VOL   30*songC6_mvl/mxv
 BYTE   W01
 BYTE   VOL   31*songC6_mvl/mxv
 BYTE   W02
 BYTE   VOL   32*songC6_mvl/mxv
 BYTE   W01
 BYTE   VOL   33*songC6_mvl/mxv
 BYTE   W02
 BYTE   VOL   33*songC6_mvl/mxv
 BYTE   W01
 BYTE   VOL   34*songC6_mvl/mxv
 BYTE   W02
 BYTE   VOL   35*songC6_mvl/mxv
 BYTE   W01
 BYTE   VOL   36*songC6_mvl/mxv
 BYTE   W02
 BYTE   VOL   37*songC6_mvl/mxv
 BYTE   W01
 BYTE   VOL   38*songC6_mvl/mxv
 BYTE   W02
 BYTE   VOL   38*songC6_mvl/mxv
 BYTE   W01
 BYTE   VOL   38*songC6_mvl/mxv
 BYTE   W17
 BYTE   VOL   38*songC6_mvl/mxv
 BYTE   W01
 BYTE   VOL   37*songC6_mvl/mxv
 BYTE   W02
 BYTE   VOL   37*songC6_mvl/mxv
 BYTE   W01
 BYTE   VOL   36*songC6_mvl/mxv
 BYTE   W02
 BYTE   VOL   36*songC6_mvl/mxv
 BYTE   W01
 BYTE   VOL   35*songC6_mvl/mxv
 BYTE   W02
 BYTE   VOL   34*songC6_mvl/mxv
 BYTE   W01
 BYTE   VOL   33*songC6_mvl/mxv
 BYTE   W02
 BYTE   VOL   32*songC6_mvl/mxv
 BYTE   W01
 BYTE   VOL   31*songC6_mvl/mxv
 BYTE   W02
 BYTE   VOL   30*songC6_mvl/mxv
 BYTE   W01
 BYTE   VOL   28*songC6_mvl/mxv
 BYTE   W02
 BYTE   VOL   27*songC6_mvl/mxv
 BYTE   W01
 BYTE   VOL   24*songC6_mvl/mxv
 BYTE   W02
// 075   ----------------------------------------
 BYTE   VOL   22*songC6_mvl/mxv
 BYTE   W01
 BYTE   VOL   20*songC6_mvl/mxv
 BYTE   W02
 BYTE   VOL   17*songC6_mvl/mxv
 BYTE   W01
 BYTE   VOL   14*songC6_mvl/mxv
 BYTE   W02
 BYTE   VOL   12*songC6_mvl/mxv
 BYTE   W01
 BYTE   VOL   7*songC6_mvl/mxv
 BYTE   W02
 BYTE   VOL   1*songC6_mvl/mxv
 BYTE   W01
 BYTE   VOL   38*songC6_mvl/mxv
 BYTE   W02
 BYTE   N11  Ds4
 BYTE   W12
 BYTE   Fs4
 BYTE   W12
 BYTE   Gs4
 BYTE   W12
 BYTE   VOL   30*songC6_mvl/mxv
 BYTE   N32  As4
 BYTE   W04
 BYTE   VOL   30*songC6_mvl/mxv
 BYTE   W02
 BYTE   VOL   31*songC6_mvl/mxv
 BYTE   W01
 BYTE   VOL   31*songC6_mvl/mxv
 BYTE   W02
 BYTE   VOL   31*songC6_mvl/mxv
 BYTE   W01
 BYTE   VOL   32*songC6_mvl/mxv
 BYTE   W03
 BYTE   VOL   32*songC6_mvl/mxv
 BYTE   W02
 BYTE   VOL   33*songC6_mvl/mxv
 BYTE   W03
 BYTE   VOL   33*songC6_mvl/mxv
 BYTE   W01
 BYTE   VOL   33*songC6_mvl/mxv
 BYTE   W02
 BYTE   VOL   34*songC6_mvl/mxv
 BYTE   W03
 BYTE   VOL   35*songC6_mvl/mxv
 BYTE   W01
 BYTE   VOL   35*songC6_mvl/mxv
 BYTE   W02
 BYTE   VOL   35*songC6_mvl/mxv
 BYTE   W01
 BYTE   VOL   36*songC6_mvl/mxv
 BYTE   W02
 BYTE   VOL   36*songC6_mvl/mxv
 BYTE   W01
 BYTE   VOL   37*songC6_mvl/mxv
 BYTE   W03
 BYTE   VOL   38*songC6_mvl/mxv
 BYTE   W02
 BYTE   VOL   38*songC6_mvl/mxv
 BYTE   N05  Gs4
 BYTE   W01
 BYTE   VOL   38*songC6_mvl/mxv
 BYTE   W11
// 076   ----------------------------------------
 BYTE   VOL   38*songC6_mvl/mxv
 BYTE   N28
 BYTE   W07
 BYTE   VOL   38*songC6_mvl/mxv
 BYTE   W02
 BYTE   VOL   37*songC6_mvl/mxv
 BYTE   W01
 BYTE   VOL   36*songC6_mvl/mxv
 BYTE   W02
 BYTE   VOL   36*songC6_mvl/mxv
 BYTE   W01
 BYTE   VOL   35*songC6_mvl/mxv
 BYTE   W02
 BYTE   VOL   34*songC6_mvl/mxv
 BYTE   W01
 BYTE   VOL   34*songC6_mvl/mxv
 BYTE   W02
 BYTE   VOL   33*songC6_mvl/mxv
 BYTE   W01
 BYTE   VOL   31*songC6_mvl/mxv
 BYTE   W02
 BYTE   VOL   30*songC6_mvl/mxv
 BYTE   W01
 BYTE   VOL   29*songC6_mvl/mxv
 BYTE   W02
 BYTE   VOL   28*songC6_mvl/mxv
 BYTE   W01
 BYTE   VOL   27*songC6_mvl/mxv
 BYTE   W02
 BYTE   VOL   26*songC6_mvl/mxv
 BYTE   W01
 BYTE   VOL   24*songC6_mvl/mxv
 BYTE   W02
 BYTE   VOL   22*songC6_mvl/mxv
 BYTE   W01
 BYTE   VOL   19*songC6_mvl/mxv
 BYTE   W02
 BYTE   VOL   17*songC6_mvl/mxv
 BYTE   W01
 BYTE   VOL   14*songC6_mvl/mxv
 BYTE   W02
 BYTE   VOL   38*songC6_mvl/mxv
 BYTE   N05  Fs4
 BYTE   W06
 BYTE   Gs4
 BYTE   W06
 BYTE   N17  As4
 BYTE   W18
 BYTE   Bn4
 BYTE   W18
 BYTE   N11  As4
 BYTE   W12
// 077   ----------------------------------------
 BYTE   N23  Gs4
 BYTE   W24
 BYTE   N17  Fn4
 BYTE   W24
 BYTE   N32
 BYTE   W36
 BYTE   N11  Fs4
 BYTE   W12
// 078   ----------------------------------------
 BYTE   VOL   29*songC6_mvl/mxv
 BYTE   TIE  Ds4
 BYTE   W03
 BYTE   VOL   30*songC6_mvl/mxv
 BYTE   W01
 BYTE   VOL   30*songC6_mvl/mxv
 BYTE   W03
 BYTE   VOL   31*songC6_mvl/mxv
 BYTE   W02
 BYTE   VOL   31*songC6_mvl/mxv
 BYTE   W01
 BYTE   VOL   31*songC6_mvl/mxv
 BYTE   W02
 BYTE   VOL   32*songC6_mvl/mxv
 BYTE   W01
 BYTE   VOL   32*songC6_mvl/mxv
 BYTE   W03
 BYTE   VOL   33*songC6_mvl/mxv
 BYTE   W02
 BYTE   VOL   33*songC6_mvl/mxv
 BYTE   W03
 BYTE   VOL   34*songC6_mvl/mxv
 BYTE   W01
 BYTE   VOL   34*songC6_mvl/mxv
 BYTE   W03
 BYTE   VOL   35*songC6_mvl/mxv
 BYTE   W03
 BYTE   VOL   35*songC6_mvl/mxv
 BYTE   W02
 BYTE   VOL   36*songC6_mvl/mxv
 BYTE   W01
 BYTE   VOL   36*songC6_mvl/mxv
 BYTE   W02
 BYTE   VOL   36*songC6_mvl/mxv
 BYTE   W01
 BYTE   VOL   37*songC6_mvl/mxv
 BYTE   W02
 BYTE   VOL   37*songC6_mvl/mxv
 BYTE   W04
 BYTE   VOL   37*songC6_mvl/mxv
 BYTE   W23
 BYTE   VOL   37*songC6_mvl/mxv
 BYTE   W04
 BYTE   VOL   37*songC6_mvl/mxv
 BYTE   W03
 BYTE   VOL   36*songC6_mvl/mxv
 BYTE   W02
 BYTE   VOL   36*songC6_mvl/mxv
 BYTE   W01
 BYTE   VOL   36*songC6_mvl/mxv
 BYTE   W02
 BYTE   VOL   35*songC6_mvl/mxv
 BYTE   W01
 BYTE   VOL   35*songC6_mvl/mxv
 BYTE   W02
 BYTE   VOL   35*songC6_mvl/mxv
 BYTE   W01
 BYTE   VOL   34*songC6_mvl/mxv
 BYTE   W02
 BYTE   VOL   33*songC6_mvl/mxv
 BYTE   W01
 BYTE   VOL   33*songC6_mvl/mxv
 BYTE   W02
 BYTE   VOL   32*songC6_mvl/mxv
 BYTE   W01
 BYTE   VOL   31*songC6_mvl/mxv
 BYTE   W02
 BYTE   VOL   31*songC6_mvl/mxv
 BYTE   W01
 BYTE   VOL   30*songC6_mvl/mxv
 BYTE   W02
 BYTE   VOL   29*songC6_mvl/mxv
 BYTE   W01
 BYTE   VOL   28*songC6_mvl/mxv
 BYTE   W02
 BYTE   VOL   27*songC6_mvl/mxv
 BYTE   W01
 BYTE   VOL   27*songC6_mvl/mxv
 BYTE   W02
// 079   ----------------------------------------
Label_6_014AFF3F:
 BYTE   VOL   25*songC6_mvl/mxv
 BYTE   W01
 BYTE   VOL   25*songC6_mvl/mxv
 BYTE   W02
 BYTE   VOL   24*songC6_mvl/mxv
 BYTE   W01
 BYTE   VOL   23*songC6_mvl/mxv
 BYTE   W02
 BYTE   VOL   22*songC6_mvl/mxv
 BYTE   W01
 BYTE   VOL   20*songC6_mvl/mxv
 BYTE   W02
 BYTE   VOL   19*songC6_mvl/mxv
 BYTE   W01
 BYTE   VOL   17*songC6_mvl/mxv
 BYTE   W02
 BYTE   VOL   16*songC6_mvl/mxv
 BYTE   W01
 BYTE   VOL   15*songC6_mvl/mxv
 BYTE   W02
 BYTE   VOL   13*songC6_mvl/mxv
 BYTE   W01
 BYTE   VOL   12*songC6_mvl/mxv
 BYTE   W02
 BYTE   VOL   11*songC6_mvl/mxv
 BYTE   W01
 BYTE   VOL   9*songC6_mvl/mxv
 BYTE   W02
 BYTE   VOL   8*songC6_mvl/mxv
 BYTE   W01
 BYTE   VOL   6*songC6_mvl/mxv
 BYTE   W02
 BYTE   VOL   5*songC6_mvl/mxv
 BYTE   W01
 BYTE   VOL   4*songC6_mvl/mxv
 BYTE   W02
 BYTE   VOL   2*songC6_mvl/mxv
 BYTE   W01
 BYTE   VOL   0*songC6_mvl/mxv
 BYTE   W01
 BYTE   PEND 
 BYTE   EOT
 BYTE   Ds4
 BYTE   W01
 BYTE   VOL   0*songC6_mvl/mxv
 BYTE   W66
// 080   ----------------------------------------
 BYTE   W96
// 081   ----------------------------------------
 BYTE   W96
// 082   ----------------------------------------
 BYTE   W96
// 083   ----------------------------------------
 BYTE   W96
// 084   ----------------------------------------
 BYTE   W96
// 085   ----------------------------------------
 BYTE   W96
// 086   ----------------------------------------
 BYTE   W96
// 087   ----------------------------------------
 BYTE   W96
// 088   ----------------------------------------
 BYTE   W96
// 089   ----------------------------------------
 BYTE   W96
// 090   ----------------------------------------
 BYTE   W96
// 091   ----------------------------------------
 BYTE   W96
// 092   ----------------------------------------
 BYTE   W96
// 093   ----------------------------------------
 BYTE   W96
// 094   ----------------------------------------
 BYTE   W96
// 095   ----------------------------------------
 BYTE   W96
// 096   ----------------------------------------
 BYTE   W96
// 097   ----------------------------------------
 BYTE   W48
 BYTE   VOL   38*songC6_mvl/mxv
 BYTE   W24
 BYTE   N23  Ds5  v100
 BYTE   W24
// 098   ----------------------------------------
 BYTE   N32  Bn4  v092
 BYTE   W10
 BYTE   VOL   38*songC6_mvl/mxv
 BYTE   W02
 BYTE   VOL   37*songC6_mvl/mxv
 BYTE   W01
 BYTE   VOL   37*songC6_mvl/mxv
 BYTE   W02
 BYTE   VOL   36*songC6_mvl/mxv
 BYTE   W01
 BYTE   VOL   35*songC6_mvl/mxv
 BYTE   W02
 BYTE   VOL   35*songC6_mvl/mxv
 BYTE   W01
 BYTE   VOL   34*songC6_mvl/mxv
 BYTE   W02
 BYTE   VOL   33*songC6_mvl/mxv
 BYTE   W01
 BYTE   VOL   33*songC6_mvl/mxv
 BYTE   W02
 BYTE   VOL   32*songC6_mvl/mxv
 BYTE   W01
 BYTE   VOL   30*songC6_mvl/mxv
 BYTE   W02
 BYTE   VOL   29*songC6_mvl/mxv
 BYTE   W01
 BYTE   VOL   28*songC6_mvl/mxv
 BYTE   W02
 BYTE   VOL   26*songC6_mvl/mxv
 BYTE   W01
 BYTE   VOL   25*songC6_mvl/mxv
 BYTE   W02
 BYTE   VOL   20*songC6_mvl/mxv
 BYTE   W01
 BYTE   VOL   17*songC6_mvl/mxv
 BYTE   W02
 BYTE   VOL   38*songC6_mvl/mxv
 BYTE   N04  Gs4  v100
 BYTE   W06
 BYTE   An4  v084
 BYTE   W06
 BYTE   N17  Bn4  v100
 BYTE   W18
 BYTE   An4  v092
 BYTE   W18
 BYTE   N11  Gs4  v112
 BYTE   W12
// 099   ----------------------------------------
 BYTE   N17  Fs4  v084
 BYTE   W18
 BYTE   En4  v108
 BYTE   W18
 BYTE   N11  Ds4  v084
 BYTE   W12
 BYTE   N17  Cs4  v092
 BYTE   W18
 BYTE   VOL   26*songC6_mvl/mxv
 BYTE   N40  Gs4  v100
 BYTE   W01
 BYTE   VOL   28*songC6_mvl/mxv
 BYTE   W02
 BYTE   VOL   31*songC6_mvl/mxv
 BYTE   W01
 BYTE   VOL   33*songC6_mvl/mxv
 BYTE   W02
 BYTE   VOL   34*songC6_mvl/mxv
 BYTE   W01
 BYTE   VOL   35*songC6_mvl/mxv
 BYTE   W02
 BYTE   VOL   36*songC6_mvl/mxv
 BYTE   W01
 BYTE   VOL   36*songC6_mvl/mxv
 BYTE   W02
 BYTE   VOL   37*songC6_mvl/mxv
 BYTE   W01
 BYTE   VOL   38*songC6_mvl/mxv
 BYTE   W02
 BYTE   VOL   38*songC6_mvl/mxv
 BYTE   W01
 BYTE   VOL   38*songC6_mvl/mxv
 BYTE   W09
 BYTE   VOL   38*songC6_mvl/mxv
 BYTE   W02
 BYTE   VOL   38*songC6_mvl/mxv
 BYTE   W01
 BYTE   VOL   37*songC6_mvl/mxv
 BYTE   W02
// 100   ----------------------------------------
 BYTE   VOL   36*songC6_mvl/mxv
 BYTE   W01
 BYTE   VOL   35*songC6_mvl/mxv
 BYTE   W02
 BYTE   VOL   34*songC6_mvl/mxv
 BYTE   W01
 BYTE   VOL   33*songC6_mvl/mxv
 BYTE   W02
 BYTE   VOL   29*songC6_mvl/mxv
 BYTE   W01
 BYTE   VOL   26*songC6_mvl/mxv
 BYTE   W02
 BYTE   VOL   19*songC6_mvl/mxv
 BYTE   W01
 BYTE   VOL   15*songC6_mvl/mxv
 BYTE   W02
 BYTE   VOL   38*songC6_mvl/mxv
 BYTE   N11  Bn4
 BYTE   W12
 BYTE   N04  An4  v084
 BYTE   W12
 BYTE   N23  Gs4  v100
 BYTE   W24
 BYTE   N11  Fs4
 BYTE   W12
 BYTE   En4  v080
 BYTE   W12
 BYTE   Ds4  v100
 BYTE   W12
// 101   ----------------------------------------
 BYTE   Cs4  v084
 BYTE   W12
 BYTE   Ds4  v100
 BYTE   W12
 BYTE   En4  v080
 BYTE   W12
 BYTE   Cs4  v100
 BYTE   W12
 BYTE   VOL   26*songC6_mvl/mxv
 BYTE   N32  Fs4
 BYTE   W01
 BYTE   VOL   28*songC6_mvl/mxv
 BYTE   W02
 BYTE   VOL   29*songC6_mvl/mxv
 BYTE   W01
 BYTE   VOL   30*songC6_mvl/mxv
 BYTE   W02
 BYTE   VOL   33*songC6_mvl/mxv
 BYTE   W01
 BYTE   VOL   34*songC6_mvl/mxv
 BYTE   W02
 BYTE   VOL   35*songC6_mvl/mxv
 BYTE   W01
 BYTE   VOL   36*songC6_mvl/mxv
 BYTE   W02
 BYTE   VOL   36*songC6_mvl/mxv
 BYTE   W01
 BYTE   VOL   37*songC6_mvl/mxv
 BYTE   W02
 BYTE   VOL   37*songC6_mvl/mxv
 BYTE   W01
 BYTE   VOL   37*songC6_mvl/mxv
 BYTE   W02
 BYTE   VOL   38*songC6_mvl/mxv
 BYTE   W01
 BYTE   VOL   38*songC6_mvl/mxv
 BYTE   W17
 BYTE   N11  En4
 BYTE   W12
// 102   ----------------------------------------
 BYTE   N32  Ds4  v088
 BYTE   W10
 BYTE   VOL   38*songC6_mvl/mxv
 BYTE   W02
 BYTE   VOL   37*songC6_mvl/mxv
 BYTE   W01
 BYTE   VOL   37*songC6_mvl/mxv
 BYTE   W02
 BYTE   VOL   36*songC6_mvl/mxv
 BYTE   W01
 BYTE   VOL   36*songC6_mvl/mxv
 BYTE   W02
 BYTE   VOL   35*songC6_mvl/mxv
 BYTE   W01
 BYTE   VOL   34*songC6_mvl/mxv
 BYTE   W02
 BYTE   VOL   32*songC6_mvl/mxv
 BYTE   W01
 BYTE   VOL   32*songC6_mvl/mxv
 BYTE   W02
 BYTE   VOL   31*songC6_mvl/mxv
 BYTE   W01
 BYTE   VOL   30*songC6_mvl/mxv
 BYTE   W02
 BYTE   VOL   29*songC6_mvl/mxv
 BYTE   W01
 BYTE   VOL   27*songC6_mvl/mxv
 BYTE   W02
 BYTE   VOL   26*songC6_mvl/mxv
 BYTE   W01
 BYTE   VOL   23*songC6_mvl/mxv
 BYTE   W02
 BYTE   VOL   18*songC6_mvl/mxv
 BYTE   W01
 BYTE   VOL   14*songC6_mvl/mxv
 BYTE   W02
 BYTE   VOL   38*songC6_mvl/mxv
 BYTE   N04  Cs4  v096
 BYTE   W06
 BYTE   Ds4
 BYTE   W06
 BYTE   N17  En4  v092
 BYTE   W18
 BYTE   Ds4  v076
 BYTE   W18
 BYTE   N11  Cs4  v100
 BYTE   W12
// 103   ----------------------------------------
 BYTE   N17  Ds4  v080
 BYTE   W18
 BYTE   Bn3  v100
 BYTE   W18
 BYTE   N11  An3  v080
 BYTE   W12
 BYTE   N17  Gs3  v100
 BYTE   W18
 BYTE   N64  Gs4
 BYTE   W01
 BYTE   VOL   38*songC6_mvl/mxv
 BYTE   W02
 BYTE   VOL   37*songC6_mvl/mxv
 BYTE   W01
 BYTE   VOL   36*songC6_mvl/mxv
 BYTE   W02
 BYTE   VOL   33*songC6_mvl/mxv
 BYTE   W01
 BYTE   VOL   31*songC6_mvl/mxv
 BYTE   W02
 BYTE   VOL   28*songC6_mvl/mxv
 BYTE   W03
 BYTE   VOL   28*songC6_mvl/mxv
 BYTE   W01
 BYTE   VOL   29*songC6_mvl/mxv
 BYTE   W02
 BYTE   VOL   29*songC6_mvl/mxv
 BYTE   W01
 BYTE   VOL   30*songC6_mvl/mxv
 BYTE   W02
 BYTE   VOL   30*songC6_mvl/mxv
 BYTE   W01
 BYTE   VOL   31*songC6_mvl/mxv
 BYTE   W02
 BYTE   VOL   31*songC6_mvl/mxv
 BYTE   W01
 BYTE   VOL   32*songC6_mvl/mxv
 BYTE   W02
 BYTE   VOL   33*songC6_mvl/mxv
 BYTE   W01
 BYTE   VOL   33*songC6_mvl/mxv
 BYTE   W02
 BYTE   VOL   34*songC6_mvl/mxv
 BYTE   W01
 BYTE   VOL   35*songC6_mvl/mxv
 BYTE   W02
// 104   ----------------------------------------
 BYTE   W03
 BYTE   VOL   36*songC6_mvl/mxv
 BYTE   W03
 BYTE   VOL   36*songC6_mvl/mxv
 BYTE   W03
 BYTE   VOL   37*songC6_mvl/mxv
 BYTE   W01
 BYTE   VOL   37*songC6_mvl/mxv
 BYTE   W02
 BYTE   VOL   37*songC6_mvl/mxv
 BYTE   W01
 BYTE   VOL   38*songC6_mvl/mxv
 BYTE   W03
 BYTE   VOL   37*songC6_mvl/mxv
 BYTE   W02
 BYTE   VOL   38*songC6_mvl/mxv
 BYTE   W03
 BYTE   VOL   38*songC6_mvl/mxv
 BYTE   W15
 BYTE   N11  An4
 BYTE   W12
 BYTE   N05  Bn4
 BYTE   W06
 BYTE   An4
 BYTE   W06
 BYTE   Gs4
 BYTE   W06
 BYTE   Fs4
 BYTE   W06
 BYTE   Gs4
 BYTE   W06
 BYTE   Fs4
 BYTE   W06
 BYTE   En4
 BYTE   W06
 BYTE   Ds4
 BYTE   W06
// 105   ----------------------------------------
 BYTE   En4
 BYTE   W06
 BYTE   Ds4
 BYTE   W06
 BYTE   Cs4
 BYTE   W06
 BYTE   Bn3
 BYTE   W06
 BYTE   Cs4
 BYTE   W06
 BYTE   Bn3
 BYTE   W06
 BYTE   An3
 BYTE   W06
 BYTE   Gs3
 BYTE   W06
 BYTE   N66  Cs4
 BYTE   W18
 BYTE   VOL   38*songC6_mvl/mxv
 BYTE   W03
 BYTE   VOL   38*songC6_mvl/mxv
 BYTE   W04
 BYTE   VOL   37*songC6_mvl/mxv
 BYTE   W02
 BYTE   VOL   37*songC6_mvl/mxv
 BYTE   W03
 BYTE   VOL   37*songC6_mvl/mxv
 BYTE   W01
 BYTE   VOL   36*songC6_mvl/mxv
 BYTE   W05
 BYTE   VOL   36*songC6_mvl/mxv
 BYTE   W04
 BYTE   VOL   35*songC6_mvl/mxv
 BYTE   W02
 BYTE   VOL   34*songC6_mvl/mxv
 BYTE   W01
 BYTE   VOL   34*songC6_mvl/mxv
 BYTE   W02
 BYTE   VOL   34*songC6_mvl/mxv
 BYTE   W01
 BYTE   VOL   33*songC6_mvl/mxv
 BYTE   W02
// 106   ----------------------------------------
 BYTE   VOL   33*songC6_mvl/mxv
 BYTE   W01
 BYTE   VOL   32*songC6_mvl/mxv
 BYTE   W02
 BYTE   VOL   31*songC6_mvl/mxv
 BYTE   W01
 BYTE   VOL   31*songC6_mvl/mxv
 BYTE   W02
 BYTE   VOL   30*songC6_mvl/mxv
 BYTE   W01
 BYTE   VOL   30*songC6_mvl/mxv
 BYTE   W02
 BYTE   VOL   29*songC6_mvl/mxv
 BYTE   W01
 BYTE   VOL   29*songC6_mvl/mxv
 BYTE   W02
 BYTE   VOL   28*songC6_mvl/mxv
 BYTE   W01
 BYTE   VOL   27*songC6_mvl/mxv
 BYTE   W02
 BYTE   VOL   26*songC6_mvl/mxv
 BYTE   W01
 BYTE   VOL   26*songC6_mvl/mxv
 BYTE   W02
 BYTE   VOL   24*songC6_mvl/mxv
 BYTE   W01
 BYTE   VOL   24*songC6_mvl/mxv
 BYTE   W02
 BYTE   VOL   22*songC6_mvl/mxv
 BYTE   W01
 BYTE   VOL   22*songC6_mvl/mxv
 BYTE   W02
 BYTE   VOL   38*songC6_mvl/mxv
 BYTE   N23  Gs3
 BYTE   W06
 BYTE   VOL   38*songC6_mvl/mxv
 BYTE   W01
 BYTE   VOL   38*songC6_mvl/mxv
 BYTE   W02
 BYTE   VOL   37*songC6_mvl/mxv
 BYTE   W01
 BYTE   VOL   36*songC6_mvl/mxv
 BYTE   W02
 BYTE   VOL   36*songC6_mvl/mxv
 BYTE   W01
 BYTE   VOL   35*songC6_mvl/mxv
 BYTE   W02
 BYTE   VOL   34*songC6_mvl/mxv
 BYTE   W01
 BYTE   VOL   33*songC6_mvl/mxv
 BYTE   W02
 BYTE   VOL   33*songC6_mvl/mxv
 BYTE   W01
 BYTE   VOL   32*songC6_mvl/mxv
 BYTE   W02
 BYTE   VOL   31*songC6_mvl/mxv
 BYTE   W01
 BYTE   VOL   30*songC6_mvl/mxv
 BYTE   W02
 BYTE   VOL   38*songC6_mvl/mxv
 BYTE   N23  Cs4
 BYTE   W24
 BYTE   Ds4  v084
 BYTE   W24
// 107   ----------------------------------------
 BYTE   En4  v100
 BYTE   W24
 BYTE   Fs4  v076
 BYTE   W24
 BYTE   Gs4  v100
 BYTE   W24
 BYTE   VOL   29*songC6_mvl/mxv
 BYTE   N44  Cs5
 BYTE   W01
 BYTE   VOL   29*songC6_mvl/mxv
 BYTE   W02
 BYTE   VOL   29*songC6_mvl/mxv
 BYTE   W01
 BYTE   VOL   30*songC6_mvl/mxv
 BYTE   W02
 BYTE   VOL   30*songC6_mvl/mxv
 BYTE   W01
 BYTE   VOL   31*songC6_mvl/mxv
 BYTE   W02
 BYTE   VOL   31*songC6_mvl/mxv
 BYTE   W01
 BYTE   VOL   31*songC6_mvl/mxv
 BYTE   W02
 BYTE   VOL   32*songC6_mvl/mxv
 BYTE   W01
 BYTE   VOL   32*songC6_mvl/mxv
 BYTE   W02
 BYTE   VOL   33*songC6_mvl/mxv
 BYTE   W01
 BYTE   VOL   33*songC6_mvl/mxv
 BYTE   W02
 BYTE   VOL   34*songC6_mvl/mxv
 BYTE   W01
 BYTE   VOL   34*songC6_mvl/mxv
 BYTE   W02
 BYTE   VOL   35*songC6_mvl/mxv
 BYTE   W01
 BYTE   VOL   35*songC6_mvl/mxv
 BYTE   W02
// 108   ----------------------------------------
 BYTE   VOL   36*songC6_mvl/mxv
 BYTE   W03
 BYTE   VOL   36*songC6_mvl/mxv
 BYTE   W01
 BYTE   VOL   36*songC6_mvl/mxv
 BYTE   W03
 BYTE   VOL   37*songC6_mvl/mxv
 BYTE   W02
 BYTE   VOL   37*songC6_mvl/mxv
 BYTE   W01
 BYTE   VOL   37*songC6_mvl/mxv
 BYTE   W02
 BYTE   VOL   38*songC6_mvl/mxv
 BYTE   W01
 BYTE   VOL   38*songC6_mvl/mxv
 BYTE   W02
 BYTE   VOL   38*songC6_mvl/mxv
 BYTE   W09
 BYTE   VOL   34*songC6_mvl/mxv
 BYTE   N23  Ds5
 BYTE   W24
 BYTE   VOL   28*songC6_mvl/mxv
 BYTE   N88  En5
 BYTE   W01
 BYTE   VOL   28*songC6_mvl/mxv
 BYTE   W02
 BYTE   VOL   29*songC6_mvl/mxv
 BYTE   W01
 BYTE   VOL   29*songC6_mvl/mxv
 BYTE   W03
 BYTE   VOL   30*songC6_mvl/mxv
 BYTE   W02
 BYTE   VOL   31*songC6_mvl/mxv
 BYTE   W03
 BYTE   VOL   31*songC6_mvl/mxv
 BYTE   W03
 BYTE   VOL   32*songC6_mvl/mxv
 BYTE   W01
 BYTE   VOL   33*songC6_mvl/mxv
 BYTE   W02
 BYTE   VOL   33*songC6_mvl/mxv
 BYTE   W01
 BYTE   VOL   33*songC6_mvl/mxv
 BYTE   W02
 BYTE   VOL   34*songC6_mvl/mxv
 BYTE   W03
 BYTE   VOL   34*songC6_mvl/mxv
 BYTE   W01
 BYTE   VOL   35*songC6_mvl/mxv
 BYTE   W02
 BYTE   VOL   35*songC6_mvl/mxv
 BYTE   W01
 BYTE   VOL   36*songC6_mvl/mxv
 BYTE   W02
 BYTE   VOL   36*songC6_mvl/mxv
 BYTE   W03
 BYTE   VOL   37*songC6_mvl/mxv
 BYTE   W01
 BYTE   VOL   37*songC6_mvl/mxv
 BYTE   W03
 BYTE   VOL   38*songC6_mvl/mxv
 BYTE   W03
 BYTE   VOL   38*songC6_mvl/mxv
 BYTE   W08
// 109   ----------------------------------------
 BYTE   W13
 BYTE   VOL   38*songC6_mvl/mxv
 BYTE   W05
 BYTE   VOL   37*songC6_mvl/mxv
 BYTE   W01
 BYTE   VOL   36*songC6_mvl/mxv
 BYTE   W03
 BYTE   VOL   36*songC6_mvl/mxv
 BYTE   W02
 BYTE   VOL   35*songC6_mvl/mxv
 BYTE   W01
 BYTE   VOL   34*songC6_mvl/mxv
 BYTE   W02
 BYTE   VOL   34*songC6_mvl/mxv
 BYTE   W01
 BYTE   VOL   33*songC6_mvl/mxv
 BYTE   W02
 BYTE   VOL   33*songC6_mvl/mxv
 BYTE   W01
 BYTE   VOL   32*songC6_mvl/mxv
 BYTE   W02
 BYTE   VOL   31*songC6_mvl/mxv
 BYTE   W01
 BYTE   VOL   30*songC6_mvl/mxv
 BYTE   W02
 BYTE   VOL   29*songC6_mvl/mxv
 BYTE   W01
 BYTE   VOL   28*songC6_mvl/mxv
 BYTE   W02
 BYTE   VOL   26*songC6_mvl/mxv
 BYTE   W01
 BYTE   VOL   25*songC6_mvl/mxv
 BYTE   W02
 BYTE   VOL   23*songC6_mvl/mxv
 BYTE   W01
 BYTE   VOL   21*songC6_mvl/mxv
 BYTE   W02
 BYTE   VOL   18*songC6_mvl/mxv
 BYTE   W01
 BYTE   VOL   16*songC6_mvl/mxv
 BYTE   W02
 BYTE   VOL   38*songC6_mvl/mxv
 BYTE   N32  Ds5
 BYTE   W36
 BYTE   N11  Cs5
 BYTE   W12
// 110   ----------------------------------------
 BYTE   N32  Bn4
 BYTE   W04
 BYTE   VOL   38*songC6_mvl/mxv
 BYTE   W02
 BYTE   VOL   38*songC6_mvl/mxv
 BYTE   W01
 BYTE   VOL   37*songC6_mvl/mxv
 BYTE   W03
 BYTE   VOL   36*songC6_mvl/mxv
 BYTE   W02
 BYTE   VOL   36*songC6_mvl/mxv
 BYTE   W01
 BYTE   VOL   35*songC6_mvl/mxv
 BYTE   W02
 BYTE   VOL   35*songC6_mvl/mxv
 BYTE   W01
 BYTE   VOL   34*songC6_mvl/mxv
 BYTE   W02
 BYTE   VOL   33*songC6_mvl/mxv
 BYTE   W01
 BYTE   VOL   33*songC6_mvl/mxv
 BYTE   W02
 BYTE   VOL   32*songC6_mvl/mxv
 BYTE   W01
 BYTE   VOL   31*songC6_mvl/mxv
 BYTE   W02
 BYTE   VOL   30*songC6_mvl/mxv
 BYTE   W01
 BYTE   VOL   28*songC6_mvl/mxv
 BYTE   W02
 BYTE   VOL   26*songC6_mvl/mxv
 BYTE   W01
 BYTE   VOL   22*songC6_mvl/mxv
 BYTE   W02
 BYTE   VOL   18*songC6_mvl/mxv
 BYTE   W01
 BYTE   VOL   12*songC6_mvl/mxv
 BYTE   W02
 BYTE   VOL   7*songC6_mvl/mxv
 BYTE   W01
 BYTE   VOL   38*songC6_mvl/mxv
 BYTE   W02
 BYTE   N04  Gs4
 BYTE   W06
 BYTE   An4
 BYTE   W06
 BYTE   N17  Bn4
 BYTE   W18
 BYTE   An4  v080
 BYTE   W18
 BYTE   N11  Gs4  v100
 BYTE   W12
// 111   ----------------------------------------
 BYTE   N17  Fs4  v080
 BYTE   W18
 BYTE   Ds4  v100
 BYTE   W18
 BYTE   N11  Bn3  v080
 BYTE   W12
 BYTE   VOL   29*songC6_mvl/mxv
 BYTE   N92  Fs4  v092
 BYTE   W01
 BYTE   VOL   29*songC6_mvl/mxv
 BYTE   W02
 BYTE   VOL   30*songC6_mvl/mxv
 BYTE   W01
 BYTE   VOL   30*songC6_mvl/mxv
 BYTE   W02
 BYTE   VOL   31*songC6_mvl/mxv
 BYTE   W01
 BYTE   VOL   31*songC6_mvl/mxv
 BYTE   W02
 BYTE   VOL   31*songC6_mvl/mxv
 BYTE   W01
 BYTE   VOL   32*songC6_mvl/mxv
 BYTE   W02
 BYTE   VOL   32*songC6_mvl/mxv
 BYTE   W01
 BYTE   VOL   33*songC6_mvl/mxv
 BYTE   W02
 BYTE   VOL   33*songC6_mvl/mxv
 BYTE   W01
 BYTE   VOL   33*songC6_mvl/mxv
 BYTE   W02
 BYTE   VOL   34*songC6_mvl/mxv
 BYTE   W01
 BYTE   VOL   34*songC6_mvl/mxv
 BYTE   W02
 BYTE   VOL   35*songC6_mvl/mxv
 BYTE   W01
 BYTE   VOL   36*songC6_mvl/mxv
 BYTE   W02
 BYTE   VOL   36*songC6_mvl/mxv
 BYTE   W03
 BYTE   VOL   37*songC6_mvl/mxv
 BYTE   W01
 BYTE   VOL   37*songC6_mvl/mxv
 BYTE   W02
 BYTE   VOL   37*songC6_mvl/mxv
 BYTE   W01
 BYTE   VOL   38*songC6_mvl/mxv
 BYTE   W02
 BYTE   VOL   38*songC6_mvl/mxv
 BYTE   W01
 BYTE   VOL   38*songC6_mvl/mxv
 BYTE   W14
// 112   ----------------------------------------
 BYTE   W15
 BYTE   VOL   38*songC6_mvl/mxv
 BYTE   W04
 BYTE   VOL   37*songC6_mvl/mxv
 BYTE   W02
 BYTE   VOL   37*songC6_mvl/mxv
 BYTE   W01
 BYTE   VOL   37*songC6_mvl/mxv
 BYTE   W02
 BYTE   VOL   36*songC6_mvl/mxv
 BYTE   W01
 BYTE   VOL   36*songC6_mvl/mxv
 BYTE   W02
 BYTE   VOL   35*songC6_mvl/mxv
 BYTE   W01
 BYTE   VOL   35*songC6_mvl/mxv
 BYTE   W02
 BYTE   VOL   34*songC6_mvl/mxv
 BYTE   W01
 BYTE   VOL   33*songC6_mvl/mxv
 BYTE   W02
 BYTE   VOL   33*songC6_mvl/mxv
 BYTE   W01
 BYTE   VOL   32*songC6_mvl/mxv
 BYTE   W02
 BYTE   VOL   31*songC6_mvl/mxv
 BYTE   W01
 BYTE   VOL   31*songC6_mvl/mxv
 BYTE   W02
 BYTE   VOL   30*songC6_mvl/mxv
 BYTE   W01
 BYTE   VOL   29*songC6_mvl/mxv
 BYTE   W02
 BYTE   VOL   28*songC6_mvl/mxv
 BYTE   W01
 BYTE   VOL   26*songC6_mvl/mxv
 BYTE   W02
 BYTE   VOL   26*songC6_mvl/mxv
 BYTE   W01
 BYTE   VOL   25*songC6_mvl/mxv
 BYTE   W02
 BYTE   N68  En4
 BYTE   W01
 BYTE   VOL   25*songC6_mvl/mxv
 BYTE   W02
 BYTE   VOL   26*songC6_mvl/mxv
 BYTE   W01
 BYTE   VOL   27*songC6_mvl/mxv
 BYTE   W02
 BYTE   VOL   28*songC6_mvl/mxv
 BYTE   W01
 BYTE   VOL   28*songC6_mvl/mxv
 BYTE   W02
 BYTE   VOL   29*songC6_mvl/mxv
 BYTE   W01
 BYTE   VOL   30*songC6_mvl/mxv
 BYTE   W02
 BYTE   VOL   30*songC6_mvl/mxv
 BYTE   W01
 BYTE   VOL   31*songC6_mvl/mxv
 BYTE   W02
 BYTE   VOL   31*songC6_mvl/mxv
 BYTE   W01
 BYTE   VOL   32*songC6_mvl/mxv
 BYTE   W02
 BYTE   VOL   32*songC6_mvl/mxv
 BYTE   W01
 BYTE   VOL   33*songC6_mvl/mxv
 BYTE   W02
 BYTE   VOL   33*songC6_mvl/mxv
 BYTE   W01
 BYTE   VOL   34*songC6_mvl/mxv
 BYTE   W02
 BYTE   VOL   34*songC6_mvl/mxv
 BYTE   W01
 BYTE   VOL   34*songC6_mvl/mxv
 BYTE   W02
 BYTE   VOL   35*songC6_mvl/mxv
 BYTE   W15
 BYTE   VOL   34*songC6_mvl/mxv
 BYTE   W03
 BYTE   VOL   34*songC6_mvl/mxv
 BYTE   W03
// 113   ----------------------------------------
 BYTE   VOL   33*songC6_mvl/mxv
 BYTE   W01
 BYTE   VOL   33*songC6_mvl/mxv
 BYTE   W02
 BYTE   VOL   32*songC6_mvl/mxv
 BYTE   W01
 BYTE   VOL   32*songC6_mvl/mxv
 BYTE   W02
 BYTE   VOL   31*songC6_mvl/mxv
 BYTE   W01
 BYTE   VOL   31*songC6_mvl/mxv
 BYTE   W02
 BYTE   VOL   30*songC6_mvl/mxv
 BYTE   W01
 BYTE   VOL   30*songC6_mvl/mxv
 BYTE   W02
 BYTE   VOL   29*songC6_mvl/mxv
 BYTE   W01
 BYTE   VOL   28*songC6_mvl/mxv
 BYTE   W02
 BYTE   VOL   27*songC6_mvl/mxv
 BYTE   W01
 BYTE   VOL   27*songC6_mvl/mxv
 BYTE   W02
 BYTE   VOL   26*songC6_mvl/mxv
 BYTE   W01
 BYTE   VOL   25*songC6_mvl/mxv
 BYTE   W02
 BYTE   VOL   24*songC6_mvl/mxv
 BYTE   W01
 BYTE   VOL   23*songC6_mvl/mxv
 BYTE   W02
 BYTE   VOL   22*songC6_mvl/mxv
 BYTE   W01
 BYTE   VOL   21*songC6_mvl/mxv
 BYTE   W02
 BYTE   VOL   20*songC6_mvl/mxv
 BYTE   W01
 BYTE   VOL   18*songC6_mvl/mxv
 BYTE   W02
 BYTE   VOL   17*songC6_mvl/mxv
 BYTE   W01
 BYTE   VOL   16*songC6_mvl/mxv
 BYTE   W02
 BYTE   VOL   15*songC6_mvl/mxv
 BYTE   W01
 BYTE   VOL   13*songC6_mvl/mxv
 BYTE   W02
 BYTE   VOL   12*songC6_mvl/mxv
 BYTE   W01
 BYTE   VOL   11*songC6_mvl/mxv
 BYTE   W02
 BYTE   VOL   9*songC6_mvl/mxv
 BYTE   W01
 BYTE   VOL   8*songC6_mvl/mxv
 BYTE   W02
 BYTE   VOL   7*songC6_mvl/mxv
 BYTE   W01
 BYTE   VOL   6*songC6_mvl/mxv
 BYTE   W02
 BYTE   VOL   5*songC6_mvl/mxv
 BYTE   W01
 BYTE   VOL   3*songC6_mvl/mxv
 BYTE   W02
 BYTE   VOL   38*songC6_mvl/mxv
 BYTE   W48
// 114   ----------------------------------------
 BYTE   W96
// 115   ----------------------------------------
 BYTE   W96
// 116   ----------------------------------------
 BYTE   W96
// 117   ----------------------------------------
 BYTE   W96
// 118   ----------------------------------------
 BYTE   W96
// 119   ----------------------------------------
 BYTE   W96
// 120   ----------------------------------------
 BYTE   W96
// 121   ----------------------------------------
 BYTE   W96
// 122   ----------------------------------------
 BYTE   W12
 BYTE   N11  Cn4  v100
 BYTE   W12
 BYTE   Fn4
 BYTE   W12
 BYTE   Gs4
 BYTE   W12
 BYTE   N23  Gn4
 BYTE   W24
 BYTE   N11  Fn4
 BYTE   W12
 BYTE   N23  Cn4
 BYTE   W12
// 123   ----------------------------------------
 BYTE   W12
 BYTE   N11  As3
 BYTE   W12
 BYTE   Gs3
 BYTE   W12
 BYTE   VOL   30*songC6_mvl/mxv
 BYTE   N56  Cn4
 BYTE   W01
 BYTE   VOL   30*songC6_mvl/mxv
 BYTE   W02
 BYTE   VOL   31*songC6_mvl/mxv
 BYTE   W01
 BYTE   VOL   31*songC6_mvl/mxv
 BYTE   W02
 BYTE   VOL   32*songC6_mvl/mxv
 BYTE   W01
 BYTE   VOL   32*songC6_mvl/mxv
 BYTE   W02
 BYTE   VOL   33*songC6_mvl/mxv
 BYTE   W01
 BYTE   VOL   34*songC6_mvl/mxv
 BYTE   W03
 BYTE   VOL   34*songC6_mvl/mxv
 BYTE   W03
 BYTE   VOL   35*songC6_mvl/mxv
 BYTE   W02
 BYTE   VOL   35*songC6_mvl/mxv
 BYTE   W01
 BYTE   VOL   35*songC6_mvl/mxv
 BYTE   W02
 BYTE   VOL   36*songC6_mvl/mxv
 BYTE   W01
 BYTE   VOL   36*songC6_mvl/mxv
 BYTE   W02
 BYTE   VOL   37*songC6_mvl/mxv
 BYTE   W01
 BYTE   VOL   37*songC6_mvl/mxv
 BYTE   W02
 BYTE   VOL   37*songC6_mvl/mxv
 BYTE   W12
 BYTE   VOL   37*songC6_mvl/mxv
 BYTE   W04
 BYTE   VOL   37*songC6_mvl/mxv
 BYTE   W03
 BYTE   VOL   36*songC6_mvl/mxv
 BYTE   W02
 BYTE   VOL   36*songC6_mvl/mxv
 BYTE   W01
 BYTE   VOL   35*songC6_mvl/mxv
 BYTE   W03
 BYTE   VOL   35*songC6_mvl/mxv
 BYTE   W02
 BYTE   VOL   34*songC6_mvl/mxv
 BYTE   W01
 BYTE   VOL   34*songC6_mvl/mxv
 BYTE   W02
 BYTE   VOL   33*songC6_mvl/mxv
 BYTE   W01
 BYTE   VOL   33*songC6_mvl/mxv
 BYTE   W02
// 124   ----------------------------------------
 BYTE   VOL   32*songC6_mvl/mxv
 BYTE   W01
 BYTE   VOL   31*songC6_mvl/mxv
 BYTE   W02
 BYTE   VOL   30*songC6_mvl/mxv
 BYTE   W01
 BYTE   VOL   30*songC6_mvl/mxv
 BYTE   W02
 BYTE   VOL   29*songC6_mvl/mxv
 BYTE   W01
 BYTE   VOL   29*songC6_mvl/mxv
 BYTE   W02
 BYTE   VOL   28*songC6_mvl/mxv
 BYTE   W01
 BYTE   VOL   38*songC6_mvl/mxv
 BYTE   W02
 BYTE   N11
 BYTE   W12
 BYTE   Fn4
 BYTE   W12
 BYTE   Gs4
 BYTE   W12
 BYTE   N23  Gn4
 BYTE   W24
 BYTE   N11  Fn4
 BYTE   W12
 BYTE   VOL   32*songC6_mvl/mxv
 BYTE   N23  Cn4
 BYTE   W01
 BYTE   VOL   33*songC6_mvl/mxv
 BYTE   W02
 BYTE   VOL   34*songC6_mvl/mxv
 BYTE   W01
 BYTE   VOL   35*songC6_mvl/mxv
 BYTE   W02
 BYTE   VOL   35*songC6_mvl/mxv
 BYTE   W01
 BYTE   VOL   36*songC6_mvl/mxv
 BYTE   W02
 BYTE   VOL   36*songC6_mvl/mxv
 BYTE   W01
 BYTE   VOL   37*songC6_mvl/mxv
 BYTE   W02
// 125   ----------------------------------------
 BYTE   W01
 BYTE   VOL   38*songC6_mvl/mxv
 BYTE   W03
 BYTE   VOL   38*songC6_mvl/mxv
 BYTE   W02
 BYTE   VOL   38*songC6_mvl/mxv
 BYTE   W06
 BYTE   N11  As3
 BYTE   W12
 BYTE   Cn4
 BYTE   W12
 BYTE   N56  Fn3
 BYTE   W19
 BYTE   VOL   38*songC6_mvl/mxv
 BYTE   W05
 BYTE   VOL   38*songC6_mvl/mxv
 BYTE   W03
 BYTE   VOL   37*songC6_mvl/mxv
 BYTE   W01
 BYTE   VOL   37*songC6_mvl/mxv
 BYTE   W02
 BYTE   VOL   37*songC6_mvl/mxv
 BYTE   W01
 BYTE   VOL   36*songC6_mvl/mxv
 BYTE   W02
 BYTE   VOL   36*songC6_mvl/mxv
 BYTE   W03
 BYTE   VOL   35*songC6_mvl/mxv
 BYTE   W01
 BYTE   VOL   35*songC6_mvl/mxv
 BYTE   W02
 BYTE   VOL   35*songC6_mvl/mxv
 BYTE   W01
 BYTE   VOL   34*songC6_mvl/mxv
 BYTE   W02
 BYTE   VOL   34*songC6_mvl/mxv
 BYTE   W01
 BYTE   VOL   33*songC6_mvl/mxv
 BYTE   W02
 BYTE   VOL   33*songC6_mvl/mxv
 BYTE   W01
 BYTE   VOL   33*songC6_mvl/mxv
 BYTE   W02
 BYTE   VOL   32*songC6_mvl/mxv
 BYTE   W01
 BYTE   VOL   31*songC6_mvl/mxv
 BYTE   W02
 BYTE   VOL   31*songC6_mvl/mxv
 BYTE   W01
 BYTE   VOL   30*songC6_mvl/mxv
 BYTE   W03
 BYTE   VOL   30*songC6_mvl/mxv
 BYTE   W02
 BYTE   VOL   29*songC6_mvl/mxv
 BYTE   W01
 BYTE   VOL   28*songC6_mvl/mxv
 BYTE   W02
// 126   ----------------------------------------
 BYTE   VOL   28*songC6_mvl/mxv
 BYTE   W01
 BYTE   VOL   28*songC6_mvl/mxv
 BYTE   W02
 BYTE   VOL   27*songC6_mvl/mxv
 BYTE   W01
 BYTE   VOL   27*songC6_mvl/mxv
 BYTE   W02
 BYTE   VOL   26*songC6_mvl/mxv
 BYTE   W01
 BYTE   VOL   26*songC6_mvl/mxv
 BYTE   W02
 BYTE   VOL   25*songC6_mvl/mxv
 BYTE   W01
 BYTE   VOL   38*songC6_mvl/mxv
 BYTE   W02
 BYTE   N11
 BYTE   W12
 BYTE   Gs3
 BYTE   W12
 BYTE   As3
 BYTE   W12
 BYTE   N32  Cn4
 BYTE   W19
 BYTE   VOL   38*songC6_mvl/mxv
 BYTE   W05
 BYTE   VOL   38*songC6_mvl/mxv
 BYTE   W03
 BYTE   VOL   37*songC6_mvl/mxv
 BYTE   W01
 BYTE   VOL   36*songC6_mvl/mxv
 BYTE   W03
 BYTE   VOL   36*songC6_mvl/mxv
 BYTE   W02
 BYTE   VOL   35*songC6_mvl/mxv
 BYTE   W01
 BYTE   VOL   34*songC6_mvl/mxv
 BYTE   W02
 BYTE   VOL   38*songC6_mvl/mxv
 BYTE   N05  As3
 BYTE   W12
// 127   ----------------------------------------
 BYTE   N28
 BYTE   W10
 BYTE   VOL   38*songC6_mvl/mxv
 BYTE   W02
 BYTE   VOL   38*songC6_mvl/mxv
 BYTE   W01
 BYTE   VOL   37*songC6_mvl/mxv
 BYTE   W02
 BYTE   VOL   37*songC6_mvl/mxv
 BYTE   W01
 BYTE   VOL   36*songC6_mvl/mxv
 BYTE   W03
 BYTE   VOL   36*songC6_mvl/mxv
 BYTE   W02
 BYTE   VOL   35*songC6_mvl/mxv
 BYTE   W01
 BYTE   VOL   34*songC6_mvl/mxv
 BYTE   W02
 BYTE   VOL   34*songC6_mvl/mxv
 BYTE   W01
 BYTE   VOL   33*songC6_mvl/mxv
 BYTE   W02
 BYTE   VOL   32*songC6_mvl/mxv
 BYTE   W01
 BYTE   VOL   30*songC6_mvl/mxv
 BYTE   W02
 BYTE   VOL   29*songC6_mvl/mxv
 BYTE   W01
 BYTE   VOL   27*songC6_mvl/mxv
 BYTE   W02
 BYTE   VOL   22*songC6_mvl/mxv
 BYTE   W01
 BYTE   VOL   16*songC6_mvl/mxv
 BYTE   W02
 BYTE   VOL   38*songC6_mvl/mxv
 BYTE   N05  Gs3
 BYTE   W06
 BYTE   As3
 BYTE   W06
 BYTE   N17  Cn4
 BYTE   W18
 BYTE   Cs4
 BYTE   W18
 BYTE   N11  Cn4
 BYTE   W12
// 128   ----------------------------------------
 BYTE   N23  As3
 BYTE   W24
 BYTE   Gn3
 BYTE   W24
 BYTE   VOL   32*songC6_mvl/mxv
 BYTE   N32  As3
 BYTE   W01
 BYTE   VOL   33*songC6_mvl/mxv
 BYTE   W02
 BYTE   VOL   33*songC6_mvl/mxv
 BYTE   W01
 BYTE   VOL   34*songC6_mvl/mxv
 BYTE   W02
 BYTE   VOL   34*songC6_mvl/mxv
 BYTE   W01
 BYTE   VOL   35*songC6_mvl/mxv
 BYTE   W02
 BYTE   VOL   36*songC6_mvl/mxv
 BYTE   W01
 BYTE   VOL   36*songC6_mvl/mxv
 BYTE   W02
 BYTE   VOL   37*songC6_mvl/mxv
 BYTE   W01
 BYTE   VOL   37*songC6_mvl/mxv
 BYTE   W02
 BYTE   VOL   38*songC6_mvl/mxv
 BYTE   W01
 BYTE   VOL   38*songC6_mvl/mxv
 BYTE   W11
 BYTE   VOL   38*songC6_mvl/mxv
 BYTE   W03
 BYTE   VOL   37*songC6_mvl/mxv
 BYTE   W03
 BYTE   VOL   37*songC6_mvl/mxv
 BYTE   W01
 BYTE   VOL   36*songC6_mvl/mxv
 BYTE   W02
 BYTE   VOL   38*songC6_mvl/mxv
 BYTE   N11  Gs3
 BYTE   W12
// 129   ----------------------------------------
 BYTE   VOL   29*songC6_mvl/mxv
 BYTE   N92  Cn4
 BYTE   W01
 BYTE   VOL   30*songC6_mvl/mxv
 BYTE   W02
 BYTE   VOL   31*songC6_mvl/mxv
 BYTE   W01
 BYTE   VOL   32*songC6_mvl/mxv
 BYTE   W02
 BYTE   VOL   33*songC6_mvl/mxv
 BYTE   W01
 BYTE   VOL   34*songC6_mvl/mxv
 BYTE   W02
 BYTE   VOL   34*songC6_mvl/mxv
 BYTE   W01
 BYTE   VOL   35*songC6_mvl/mxv
 BYTE   W02
 BYTE   VOL   35*songC6_mvl/mxv
 BYTE   W01
 BYTE   VOL   36*songC6_mvl/mxv
 BYTE   W02
 BYTE   VOL   36*songC6_mvl/mxv
 BYTE   W01
 BYTE   VOL   36*songC6_mvl/mxv
 BYTE   W02
 BYTE   VOL   37*songC6_mvl/mxv
 BYTE   W01
 BYTE   VOL   37*songC6_mvl/mxv
 BYTE   W03
 BYTE   VOL   37*songC6_mvl/mxv
 BYTE   W02
 BYTE   VOL   38*songC6_mvl/mxv
 BYTE   W24
 BYTE   W01
 BYTE   VOL   37*songC6_mvl/mxv
 BYTE   W02
 BYTE   VOL   37*songC6_mvl/mxv
 BYTE   W03
 BYTE   VOL   37*songC6_mvl/mxv
 BYTE   W01
 BYTE   VOL   36*songC6_mvl/mxv
 BYTE   W03
 BYTE   VOL   36*songC6_mvl/mxv
 BYTE   W02
 BYTE   VOL   35*songC6_mvl/mxv
 BYTE   W01
 BYTE   VOL   35*songC6_mvl/mxv
 BYTE   W03
 BYTE   VOL   34*songC6_mvl/mxv
 BYTE   W02
 BYTE   VOL   34*songC6_mvl/mxv
 BYTE   W01
 BYTE   VOL   33*songC6_mvl/mxv
 BYTE   W02
 BYTE   VOL   32*songC6_mvl/mxv
 BYTE   W01
 BYTE   VOL   31*songC6_mvl/mxv
 BYTE   W02
 BYTE   VOL   30*songC6_mvl/mxv
 BYTE   W01
 BYTE   VOL   30*songC6_mvl/mxv
 BYTE   W02
 BYTE   VOL   29*songC6_mvl/mxv
 BYTE   W01
 BYTE   VOL   28*songC6_mvl/mxv
 BYTE   W02
 BYTE   VOL   27*songC6_mvl/mxv
 BYTE   W01
 BYTE   VOL   25*songC6_mvl/mxv
 BYTE   W02
 BYTE   VOL   23*songC6_mvl/mxv
 BYTE   W01
 BYTE   VOL   22*songC6_mvl/mxv
 BYTE   W02
 BYTE   VOL   20*songC6_mvl/mxv
 BYTE   W01
 BYTE   VOL   19*songC6_mvl/mxv
 BYTE   W02
 BYTE   VOL   18*songC6_mvl/mxv
 BYTE   W01
 BYTE   VOL   17*songC6_mvl/mxv
 BYTE   W02
 BYTE   VOL   15*songC6_mvl/mxv
 BYTE   W01
 BYTE   VOL   13*songC6_mvl/mxv
 BYTE   W02
 BYTE   VOL   12*songC6_mvl/mxv
 BYTE   W01
 BYTE   VOL   10*songC6_mvl/mxv
 BYTE   W02
// 130   ----------------------------------------
 BYTE   VOL   8*songC6_mvl/mxv
 BYTE   W01
 BYTE   VOL   6*songC6_mvl/mxv
 BYTE   W02
 BYTE   VOL   4*songC6_mvl/mxv
 BYTE   W01
 BYTE   VOL   1*songC6_mvl/mxv
 BYTE   W02
 BYTE   VOL   0*songC6_mvl/mxv
 BYTE   W06
 BYTE   VOL   38*songC6_mvl/mxv
 BYTE   N11
 BYTE   W12
 BYTE   Fn4
 BYTE   W12
 BYTE   Gs4
 BYTE   W12
 BYTE   N23  Gn4
 BYTE   W24
 BYTE   N11  Fn4
 BYTE   W12
 BYTE   N23  Cn4
 BYTE   W12
// 131   ----------------------------------------
 BYTE   W12
 BYTE   N11  As3
 BYTE   W12
 BYTE   Gs3
 BYTE   W12
 BYTE   VOL   31*songC6_mvl/mxv
 BYTE   N56  Cn4
 BYTE   W01
 BYTE   VOL   31*songC6_mvl/mxv
 BYTE   W02
 BYTE   VOL   32*songC6_mvl/mxv
 BYTE   W01
 BYTE   VOL   32*songC6_mvl/mxv
 BYTE   W02
 BYTE   VOL   32*songC6_mvl/mxv
 BYTE   W01
 BYTE   VOL   33*songC6_mvl/mxv
 BYTE   W02
 BYTE   VOL   33*songC6_mvl/mxv
 BYTE   W01
 BYTE   VOL   34*songC6_mvl/mxv
 BYTE   W03
 BYTE   VOL   35*songC6_mvl/mxv
 BYTE   W02
 BYTE   VOL   35*songC6_mvl/mxv
 BYTE   W01
 BYTE   VOL   35*songC6_mvl/mxv
 BYTE   W02
 BYTE   VOL   36*songC6_mvl/mxv
 BYTE   W03
 BYTE   VOL   36*songC6_mvl/mxv
 BYTE   W01
 BYTE   VOL   37*songC6_mvl/mxv
 BYTE   W02
 BYTE   VOL   37*songC6_mvl/mxv
 BYTE   W01
 BYTE   VOL   37*songC6_mvl/mxv
 BYTE   W03
 BYTE   VOL   38*songC6_mvl/mxv
 BYTE   W12
 BYTE   VOL   37*songC6_mvl/mxv
 BYTE   W02
 BYTE   VOL   37*songC6_mvl/mxv
 BYTE   W03
 BYTE   VOL   36*songC6_mvl/mxv
 BYTE   W01
 BYTE   VOL   36*songC6_mvl/mxv
 BYTE   W02
 BYTE   VOL   35*songC6_mvl/mxv
 BYTE   W01
 BYTE   VOL   35*songC6_mvl/mxv
 BYTE   W02
 BYTE   VOL   34*songC6_mvl/mxv
 BYTE   W01
 BYTE   VOL   34*songC6_mvl/mxv
 BYTE   W02
 BYTE   VOL   33*songC6_mvl/mxv
 BYTE   W01
 BYTE   VOL   32*songC6_mvl/mxv
 BYTE   W02
 BYTE   VOL   31*songC6_mvl/mxv
 BYTE   W01
 BYTE   VOL   30*songC6_mvl/mxv
 BYTE   W02
// 132   ----------------------------------------
 BYTE   VOL   29*songC6_mvl/mxv
 BYTE   W01
 BYTE   VOL   28*songC6_mvl/mxv
 BYTE   W02
 BYTE   VOL   27*songC6_mvl/mxv
 BYTE   W01
 BYTE   VOL   25*songC6_mvl/mxv
 BYTE   W02
 BYTE   VOL   24*songC6_mvl/mxv
 BYTE   W01
 BYTE   VOL   23*songC6_mvl/mxv
 BYTE   W02
 BYTE   VOL   21*songC6_mvl/mxv
 BYTE   W01
 BYTE   VOL   20*songC6_mvl/mxv
 BYTE   W02
 BYTE   VOL   38*songC6_mvl/mxv
 BYTE   N11
 BYTE   W12
 BYTE   Fn4
 BYTE   W12
 BYTE   Gs4
 BYTE   W12
 BYTE   N23  As4
 BYTE   W24
 BYTE   N05  Gs4
 BYTE   W12
 BYTE   N23  Gn4
 BYTE   W12
// 133   ----------------------------------------
 BYTE   W12
 BYTE   N11  Gs4
 BYTE   W12
 BYTE   N05  As4
 BYTE   W12
 BYTE   VOL   29*songC6_mvl/mxv
 BYTE   N64  Cn5
 BYTE   W01
 BYTE   VOL   30*songC6_mvl/mxv
 BYTE   W02
 BYTE   VOL   31*songC6_mvl/mxv
 BYTE   W01
 BYTE   VOL   32*songC6_mvl/mxv
 BYTE   W02
 BYTE   VOL   33*songC6_mvl/mxv
 BYTE   W01
 BYTE   VOL   34*songC6_mvl/mxv
 BYTE   W02
 BYTE   VOL   34*songC6_mvl/mxv
 BYTE   W01
 BYTE   VOL   35*songC6_mvl/mxv
 BYTE   W02
 BYTE   VOL   35*songC6_mvl/mxv
 BYTE   W01
 BYTE   VOL   36*songC6_mvl/mxv
 BYTE   W02
 BYTE   VOL   36*songC6_mvl/mxv
 BYTE   W01
 BYTE   VOL   36*songC6_mvl/mxv
 BYTE   W02
 BYTE   VOL   37*songC6_mvl/mxv
 BYTE   W01
 BYTE   VOL   37*songC6_mvl/mxv
 BYTE   W02
 BYTE   VOL   37*songC6_mvl/mxv
 BYTE   W03
 BYTE   VOL   38*songC6_mvl/mxv
 BYTE   W15
 BYTE   VOL   37*songC6_mvl/mxv
 BYTE   W01
 BYTE   VOL   37*songC6_mvl/mxv
 BYTE   W02
 BYTE   VOL   36*songC6_mvl/mxv
 BYTE   W01
 BYTE   VOL   36*songC6_mvl/mxv
 BYTE   W02
 BYTE   VOL   35*songC6_mvl/mxv
 BYTE   W01
 BYTE   VOL   35*songC6_mvl/mxv
 BYTE   W02
 BYTE   VOL   34*songC6_mvl/mxv
 BYTE   W01
 BYTE   VOL   33*songC6_mvl/mxv
 BYTE   W02
 BYTE   VOL   33*songC6_mvl/mxv
 BYTE   W01
 BYTE   VOL   32*songC6_mvl/mxv
 BYTE   W02
 BYTE   VOL   31*songC6_mvl/mxv
 BYTE   W01
 BYTE   VOL   30*songC6_mvl/mxv
 BYTE   W02
 BYTE   VOL   29*songC6_mvl/mxv
 BYTE   W01
 BYTE   VOL   27*songC6_mvl/mxv
 BYTE   W02
// 134   ----------------------------------------
 BYTE   VOL   25*songC6_mvl/mxv
 BYTE   W01
 BYTE   VOL   23*songC6_mvl/mxv
 BYTE   W02
 BYTE   VOL   20*songC6_mvl/mxv
 BYTE   W01
 BYTE   VOL   19*songC6_mvl/mxv
 BYTE   W02
 BYTE   VOL   13*songC6_mvl/mxv
 BYTE   W01
 BYTE   VOL   9*songC6_mvl/mxv
 BYTE   W02
 BYTE   VOL   3*songC6_mvl/mxv
 BYTE   W01
 BYTE   VOL   38*songC6_mvl/mxv
 BYTE   W02
 BYTE   N11  Fn4
 BYTE   W12
 BYTE   Gs4
 BYTE   W12
 BYTE   As4
 BYTE   W12
 BYTE   N32  Cn5
 BYTE   W36
 BYTE   N05  As4
 BYTE   W12
// 135   ----------------------------------------
 BYTE   N28
 BYTE   W07
 BYTE   VOL   38*songC6_mvl/mxv
 BYTE   W03
 BYTE   VOL   37*songC6_mvl/mxv
 BYTE   W02
 BYTE   VOL   36*songC6_mvl/mxv
 BYTE   W01
 BYTE   VOL   36*songC6_mvl/mxv
 BYTE   W02
 BYTE   VOL   36*songC6_mvl/mxv
 BYTE   W01
 BYTE   VOL   35*songC6_mvl/mxv
 BYTE   W02
 BYTE   VOL   35*songC6_mvl/mxv
 BYTE   W01
 BYTE   VOL   34*songC6_mvl/mxv
 BYTE   W02
 BYTE   VOL   33*songC6_mvl/mxv
 BYTE   W01
 BYTE   VOL   33*songC6_mvl/mxv
 BYTE   W02
 BYTE   VOL   32*songC6_mvl/mxv
 BYTE   W01
 BYTE   VOL   31*songC6_mvl/mxv
 BYTE   W02
 BYTE   VOL   30*songC6_mvl/mxv
 BYTE   W01
 BYTE   VOL   29*songC6_mvl/mxv
 BYTE   W02
 BYTE   VOL   28*songC6_mvl/mxv
 BYTE   W01
 BYTE   VOL   24*songC6_mvl/mxv
 BYTE   W02
 BYTE   VOL   22*songC6_mvl/mxv
 BYTE   W01
 BYTE   VOL   23*songC6_mvl/mxv
 BYTE   W02
 BYTE   VOL   38*songC6_mvl/mxv
 BYTE   N05  Gs4
 BYTE   W06
 BYTE   As4
 BYTE   W06
 BYTE   N17  Cn5
 BYTE   W18
 BYTE   Cs5
 BYTE   W18
 BYTE   N11  Cn5
 BYTE   W12
// 136   ----------------------------------------
 BYTE   N23  As4
 BYTE   W24
 BYTE   N17  Gn4
 BYTE   W24
 BYTE   N32
 BYTE   W12
 BYTE   VOL   38*songC6_mvl/mxv
 BYTE   W01
 BYTE   VOL   37*songC6_mvl/mxv
 BYTE   W03
 BYTE   VOL   36*songC6_mvl/mxv
 BYTE   W02
 BYTE   VOL   36*songC6_mvl/mxv
 BYTE   W01
 BYTE   VOL   35*songC6_mvl/mxv
 BYTE   W02
 BYTE   VOL   35*songC6_mvl/mxv
 BYTE   W01
 BYTE   VOL   34*songC6_mvl/mxv
 BYTE   W02
 BYTE   VOL   34*songC6_mvl/mxv
 BYTE   W01
 BYTE   VOL   33*songC6_mvl/mxv
 BYTE   W02
 BYTE   VOL   33*songC6_mvl/mxv
 BYTE   W01
 BYTE   VOL   32*songC6_mvl/mxv
 BYTE   W02
 BYTE   VOL   32*songC6_mvl/mxv
 BYTE   W01
 BYTE   VOL   31*songC6_mvl/mxv
 BYTE   W02
 BYTE   VOL   31*songC6_mvl/mxv
 BYTE   W01
 BYTE   VOL   30*songC6_mvl/mxv
 BYTE   W02
 BYTE   VOL   38*songC6_mvl/mxv
 BYTE   N11  Gs4
 BYTE   W12
// 137   ----------------------------------------
 BYTE   VOL   29*songC6_mvl/mxv
 BYTE   N92  Fn4
 BYTE   W01
 BYTE   VOL   29*songC6_mvl/mxv
 BYTE   W02
 BYTE   VOL   30*songC6_mvl/mxv
 BYTE   W01
 BYTE   VOL   30*songC6_mvl/mxv
 BYTE   W02
 BYTE   VOL   31*songC6_mvl/mxv
 BYTE   W01
 BYTE   VOL   32*songC6_mvl/mxv
 BYTE   W02
 BYTE   VOL   33*songC6_mvl/mxv
 BYTE   W01
 BYTE   VOL   34*songC6_mvl/mxv
 BYTE   W02
 BYTE   VOL   34*songC6_mvl/mxv
 BYTE   W01
 BYTE   VOL   34*songC6_mvl/mxv
 BYTE   W02
 BYTE   VOL   35*songC6_mvl/mxv
 BYTE   W01
 BYTE   VOL   35*songC6_mvl/mxv
 BYTE   W02
 BYTE   VOL   36*songC6_mvl/mxv
 BYTE   W03
 BYTE   VOL   36*songC6_mvl/mxv
 BYTE   W01
 BYTE   VOL   37*songC6_mvl/mxv
 BYTE   W03
 BYTE   VOL   37*songC6_mvl/mxv
 BYTE   W06
 BYTE   VOL   37*songC6_mvl/mxv
 BYTE   W03
 BYTE   VOL   38*songC6_mvl/mxv
 BYTE   W18
 BYTE   VOL   37*songC6_mvl/mxv
 BYTE   W03
 BYTE   VOL   37*songC6_mvl/mxv
 BYTE   W05
 BYTE   VOL   36*songC6_mvl/mxv
 BYTE   W01
 BYTE   VOL   36*songC6_mvl/mxv
 BYTE   W02
 BYTE   VOL   36*songC6_mvl/mxv
 BYTE   W03
 BYTE   VOL   35*songC6_mvl/mxv
 BYTE   W01
 BYTE   VOL   35*songC6_mvl/mxv
 BYTE   W02
 BYTE   VOL   34*songC6_mvl/mxv
 BYTE   W01
 BYTE   VOL   34*songC6_mvl/mxv
 BYTE   W02
 BYTE   VOL   33*songC6_mvl/mxv
 BYTE   W01
 BYTE   VOL   33*songC6_mvl/mxv
 BYTE   W02
 BYTE   VOL   32*songC6_mvl/mxv
 BYTE   W01
 BYTE   VOL   32*songC6_mvl/mxv
 BYTE   W02
 BYTE   VOL   31*songC6_mvl/mxv
 BYTE   W01
 BYTE   VOL   30*songC6_mvl/mxv
 BYTE   W02
 BYTE   VOL   29*songC6_mvl/mxv
 BYTE   W01
 BYTE   VOL   29*songC6_mvl/mxv
 BYTE   W02
 BYTE   VOL   28*songC6_mvl/mxv
 BYTE   W01
 BYTE   VOL   27*songC6_mvl/mxv
 BYTE   W02
 BYTE   VOL   26*songC6_mvl/mxv
 BYTE   W01
 BYTE   VOL   25*songC6_mvl/mxv
 BYTE   W02
 BYTE   VOL   24*songC6_mvl/mxv
 BYTE   W01
 BYTE   VOL   23*songC6_mvl/mxv
 BYTE   W02
 BYTE   VOL   22*songC6_mvl/mxv
 BYTE   W01
 BYTE   VOL   21*songC6_mvl/mxv
 BYTE   W02
// 138   ----------------------------------------
 BYTE   VOL   20*songC6_mvl/mxv
 BYTE   W01
 BYTE   VOL   19*songC6_mvl/mxv
 BYTE   W02
 BYTE   VOL   17*songC6_mvl/mxv
 BYTE   W01
 BYTE   VOL   16*songC6_mvl/mxv
 BYTE   W02
 BYTE   VOL   15*songC6_mvl/mxv
 BYTE   W01
 BYTE   VOL   14*songC6_mvl/mxv
 BYTE   W02
 BYTE   VOL   12*songC6_mvl/mxv
 BYTE   W01
 BYTE   VOL   12*songC6_mvl/mxv
 BYTE   W02
 BYTE   VOL   38*songC6_mvl/mxv
 BYTE   N11  Cn4
 BYTE   W12
 BYTE   Fn4
 BYTE   W12
 BYTE   Gs4
 BYTE   W12
 BYTE   VOL   32*songC6_mvl/mxv
 BYTE   N23  Gn4
 BYTE   W01
 BYTE   VOL   33*songC6_mvl/mxv
 BYTE   W02
 BYTE   VOL   33*songC6_mvl/mxv
 BYTE   W01
 BYTE   VOL   34*songC6_mvl/mxv
 BYTE   W02
 BYTE   VOL   35*songC6_mvl/mxv
 BYTE   W01
 BYTE   VOL   35*songC6_mvl/mxv
 BYTE   W02
 BYTE   VOL   36*songC6_mvl/mxv
 BYTE   W01
 BYTE   VOL   37*songC6_mvl/mxv
 BYTE   W02
 BYTE   VOL   38*songC6_mvl/mxv
 BYTE   W01
 BYTE   VOL   38*songC6_mvl/mxv
 BYTE   W02
 BYTE   VOL   38*songC6_mvl/mxv
 BYTE   W09
 BYTE   N11  Fn4
 BYTE   W12
 BYTE   VOL   31*songC6_mvl/mxv
 BYTE   N23  Cn4
 BYTE   W01
 BYTE   VOL   32*songC6_mvl/mxv
 BYTE   W02
 BYTE   VOL   33*songC6_mvl/mxv
 BYTE   W01
 BYTE   VOL   33*songC6_mvl/mxv
 BYTE   W02
 BYTE   VOL   34*songC6_mvl/mxv
 BYTE   W01
 BYTE   VOL   34*songC6_mvl/mxv
 BYTE   W02
 BYTE   VOL   35*songC6_mvl/mxv
 BYTE   W01
 BYTE   VOL   36*songC6_mvl/mxv
 BYTE   W02
// 139   ----------------------------------------
Label_6_014B0691:
 BYTE   VOL   36*songC6_mvl/mxv
 BYTE   W01
 BYTE   VOL   36*songC6_mvl/mxv
 BYTE   W02
 BYTE   VOL   37*songC6_mvl/mxv
 BYTE   W01
 BYTE   VOL   37*songC6_mvl/mxv
 BYTE   W02
 BYTE   VOL   38*songC6_mvl/mxv
 BYTE   W01
 BYTE   VOL   38*songC6_mvl/mxv
 BYTE   W05
 BYTE   N11  As3  v100
 BYTE   W12
 BYTE   Gs3
 BYTE   W12
 BYTE   N56  Cn4
 BYTE   W13
 BYTE   VOL   38*songC6_mvl/mxv
 BYTE   W06
 BYTE   VOL   38*songC6_mvl/mxv
 BYTE   W03
 BYTE   VOL   37*songC6_mvl/mxv
 BYTE   W02
 BYTE   VOL   37*songC6_mvl/mxv
 BYTE   W01
 BYTE   VOL   36*songC6_mvl/mxv
 BYTE   W03
 BYTE   VOL   36*songC6_mvl/mxv
 BYTE   W02
 BYTE   VOL   35*songC6_mvl/mxv
 BYTE   W01
 BYTE   VOL   35*songC6_mvl/mxv
 BYTE   W03
 BYTE   VOL   34*songC6_mvl/mxv
 BYTE   W02
 BYTE   VOL   34*songC6_mvl/mxv
 BYTE   W01
 BYTE   VOL   34*songC6_mvl/mxv
 BYTE   W02
 BYTE   VOL   33*songC6_mvl/mxv
 BYTE   W01
 BYTE   VOL   33*songC6_mvl/mxv
 BYTE   W02
 BYTE   VOL   32*songC6_mvl/mxv
 BYTE   W01
 BYTE   VOL   31*songC6_mvl/mxv
 BYTE   W02
 BYTE   VOL   30*songC6_mvl/mxv
 BYTE   W01
 BYTE   VOL   30*songC6_mvl/mxv
 BYTE   W02
 BYTE   VOL   29*songC6_mvl/mxv
 BYTE   W01
 BYTE   VOL   29*songC6_mvl/mxv
 BYTE   W02
 BYTE   VOL   28*songC6_mvl/mxv
 BYTE   W01
 BYTE   VOL   27*songC6_mvl/mxv
 BYTE   W02
 BYTE   VOL   26*songC6_mvl/mxv
 BYTE   W01
 BYTE   VOL   25*songC6_mvl/mxv
 BYTE   W02
 BYTE   VOL   25*songC6_mvl/mxv
 BYTE   W01
 BYTE   VOL   24*songC6_mvl/mxv
 BYTE   W02
 BYTE   PEND 
// 140   ----------------------------------------
 BYTE   BnM1
 BYTE   W01
 BYTE   AnM1
 BYTE   W02
 BYTE   GsM1
 BYTE   W01
 BYTE   GnM1
 BYTE   W02
 BYTE   FsM1
 BYTE   W01
 BYTE   DnM1
 BYTE   W02
 BYTE   CsM1
 BYTE   W01
 BYTE   CnM1
 BYTE   W02
 BYTE   Dn1
 BYTE   N11
 BYTE   W12
 BYTE   Fn4
 BYTE   W12
 BYTE   Gs4
 BYTE   W12
 BYTE   N23  Gn4
 BYTE   W24
 BYTE   N11  Fn4
 BYTE   W12
 BYTE   N23  Cn4
 BYTE   W12
// 141   ----------------------------------------
Label_6_014B06FB:
 BYTE   W12
 BYTE   N11  As3  v100
 BYTE   W12
 BYTE   Cn4
 BYTE   W12
 BYTE   VOL   34*songC6_mvl/mxv
 BYTE   N56  Fn3
 BYTE   W01
 BYTE   VOL   35*songC6_mvl/mxv
 BYTE   W02
 BYTE   VOL   35*songC6_mvl/mxv
 BYTE   W03
 BYTE   VOL   36*songC6_mvl/mxv
 BYTE   W03
 BYTE   VOL   36*songC6_mvl/mxv
 BYTE   W01
 BYTE   VOL   37*songC6_mvl/mxv
 BYTE   W02
 BYTE   VOL   37*songC6_mvl/mxv
 BYTE   W03
 BYTE   VOL   37*songC6_mvl/mxv
 BYTE   W01
 BYTE   VOL   38*songC6_mvl/mxv
 BYTE   W14
 BYTE   VOL   37*songC6_mvl/mxv
 BYTE   W01
 BYTE   VOL   37*songC6_mvl/mxv
 BYTE   W03
 BYTE   VOL   36*songC6_mvl/mxv
 BYTE   W02
 BYTE   VOL   36*songC6_mvl/mxv
 BYTE   W03
 BYTE   VOL   35*songC6_mvl/mxv
 BYTE   W01
 BYTE   VOL   35*songC6_mvl/mxv
 BYTE   W02
 BYTE   VOL   34*songC6_mvl/mxv
 BYTE   W01
 BYTE   VOL   34*songC6_mvl/mxv
 BYTE   W02
 BYTE   VOL   33*songC6_mvl/mxv
 BYTE   W01
 BYTE   VOL   33*songC6_mvl/mxv
 BYTE   W02
 BYTE   VOL   32*songC6_mvl/mxv
 BYTE   W01
 BYTE   VOL   31*songC6_mvl/mxv
 BYTE   W02
 BYTE   VOL   31*songC6_mvl/mxv
 BYTE   W01
 BYTE   VOL   30*songC6_mvl/mxv
 BYTE   W02
 BYTE   VOL   29*songC6_mvl/mxv
 BYTE   W01
 BYTE   VOL   28*songC6_mvl/mxv
 BYTE   W02
 BYTE   VOL   27*songC6_mvl/mxv
 BYTE   W01
 BYTE   VOL   26*songC6_mvl/mxv
 BYTE   W02
 BYTE   PEND 
// 142   ----------------------------------------
Label_6_014B073D:
 BYTE   VOL   24*songC6_mvl/mxv
 BYTE   W01
 BYTE   VOL   23*songC6_mvl/mxv
 BYTE   W02
 BYTE   VOL   22*songC6_mvl/mxv
 BYTE   W01
 BYTE   VOL   20*songC6_mvl/mxv
 BYTE   W02
 BYTE   VOL   19*songC6_mvl/mxv
 BYTE   W01
 BYTE   VOL   18*songC6_mvl/mxv
 BYTE   W02
 BYTE   VOL   17*songC6_mvl/mxv
 BYTE   W01
 BYTE   VOL   15*songC6_mvl/mxv
 BYTE   W02
 BYTE   VOL   38*songC6_mvl/mxv
 BYTE   N11  Fn3  v100
 BYTE   W12
 BYTE   Gs3
 BYTE   W12
 BYTE   As3
 BYTE   W12
 BYTE   N32  Cn4
 BYTE   W36
 BYTE   N05  As3
 BYTE   W12
 BYTE   PEND 
// 143   ----------------------------------------
Label_6_014B075E:
 BYTE   N28  As3  v100
 BYTE   W10
 BYTE   VOL   38*songC6_mvl/mxv
 BYTE   W05
 BYTE   VOL   37*songC6_mvl/mxv
 BYTE   W01
 BYTE   VOL   37*songC6_mvl/mxv
 BYTE   W02
 BYTE   VOL   36*songC6_mvl/mxv
 BYTE   W01
 BYTE   VOL   36*songC6_mvl/mxv
 BYTE   W02
 BYTE   VOL   35*songC6_mvl/mxv
 BYTE   W01
 BYTE   VOL   34*songC6_mvl/mxv
 BYTE   W02
 BYTE   VOL   34*songC6_mvl/mxv
 BYTE   W01
 BYTE   VOL   33*songC6_mvl/mxv
 BYTE   W02
 BYTE   VOL   32*songC6_mvl/mxv
 BYTE   W01
 BYTE   VOL   31*songC6_mvl/mxv
 BYTE   W02
 BYTE   VOL   30*songC6_mvl/mxv
 BYTE   W01
 BYTE   VOL   29*songC6_mvl/mxv
 BYTE   W02
 BYTE   VOL   27*songC6_mvl/mxv
 BYTE   W01
 BYTE   VOL   24*songC6_mvl/mxv
 BYTE   W02
 BYTE   VOL   38*songC6_mvl/mxv
 BYTE   N05  Gs3
 BYTE   W06
 BYTE   As3
 BYTE   W06
 BYTE   N17  Cn4
 BYTE   W18
 BYTE   Cs4
 BYTE   W18
 BYTE   N11  Cn4
 BYTE   W12
 BYTE   PEND 
// 144   ----------------------------------------
Label_6_014B0790:
 BYTE   N23  As3  v100
 BYTE   W24
 BYTE   Gn3
 BYTE   W24
 BYTE   N32  As3
 BYTE   W15
 BYTE   VOL   38*songC6_mvl/mxv
 BYTE   W01
 BYTE   VOL   37*songC6_mvl/mxv
 BYTE   W02
 BYTE   VOL   37*songC6_mvl/mxv
 BYTE   W01
 BYTE   VOL   37*songC6_mvl/mxv
 BYTE   W02
 BYTE   VOL   36*songC6_mvl/mxv
 BYTE   W01
 BYTE   VOL   36*songC6_mvl/mxv
 BYTE   W02
 BYTE   VOL   36*songC6_mvl/mxv
 BYTE   W01
 BYTE   VOL   35*songC6_mvl/mxv
 BYTE   W02
 BYTE   VOL   34*songC6_mvl/mxv
 BYTE   W01
 BYTE   VOL   34*songC6_mvl/mxv
 BYTE   W02
 BYTE   VOL   33*songC6_mvl/mxv
 BYTE   W01
 BYTE   VOL   32*songC6_mvl/mxv
 BYTE   W02
 BYTE   VOL   31*songC6_mvl/mxv
 BYTE   W01
 BYTE   VOL   38*songC6_mvl/mxv
 BYTE   W02
 BYTE   N11  Gs3
 BYTE   W12
 BYTE   PEND 
// 145   ----------------------------------------
 BYTE   VOL   30*songC6_mvl/mxv
 BYTE   N80  Cn4
 BYTE   W01
 BYTE   VOL   31*songC6_mvl/mxv
 BYTE   W02
 BYTE   VOL   31*songC6_mvl/mxv
 BYTE   W03
 BYTE   VOL   32*songC6_mvl/mxv
 BYTE   W01
 BYTE   VOL   32*songC6_mvl/mxv
 BYTE   W03
 BYTE   VOL   33*songC6_mvl/mxv
 BYTE   W02
 BYTE   VOL   33*songC6_mvl/mxv
 BYTE   W01
 BYTE   VOL   34*songC6_mvl/mxv
 BYTE   W03
 BYTE   VOL   34*songC6_mvl/mxv
 BYTE   W02
 BYTE   VOL   34*songC6_mvl/mxv
 BYTE   W01
 BYTE   VOL   35*songC6_mvl/mxv
 BYTE   W02
 BYTE   VOL   35*songC6_mvl/mxv
 BYTE   W01
 BYTE   VOL   36*songC6_mvl/mxv
 BYTE   W02
 BYTE   VOL   36*songC6_mvl/mxv
 BYTE   W01
 BYTE   VOL   36*songC6_mvl/mxv
 BYTE   W03
 BYTE   VOL   37*songC6_mvl/mxv
 BYTE   W02
 BYTE   VOL   37*songC6_mvl/mxv
 BYTE   W01
 BYTE   VOL   38*songC6_mvl/mxv
 BYTE   W03
 BYTE   VOL   38*songC6_mvl/mxv
 BYTE   W03
 BYTE   VOL   39*songC6_mvl/mxv
 BYTE   W24
 BYTE   VOL   38*songC6_mvl/mxv
 BYTE   W02
 BYTE   VOL   38*songC6_mvl/mxv
 BYTE   W03
 BYTE   VOL   38*songC6_mvl/mxv
 BYTE   W01
 BYTE   VOL   37*songC6_mvl/mxv
 BYTE   W02
 BYTE   VOL   37*songC6_mvl/mxv
 BYTE   W01
 BYTE   VOL   36*songC6_mvl/mxv
 BYTE   W02
 BYTE   VOL   35*songC6_mvl/mxv
 BYTE   W01
 BYTE   VOL   33*songC6_mvl/mxv
 BYTE   W02
 BYTE   VOL   32*songC6_mvl/mxv
 BYTE   W01
 BYTE   VOL   31*songC6_mvl/mxv
 BYTE   W02
 BYTE   VOL   30*songC6_mvl/mxv
 BYTE   W01
 BYTE   VOL   29*songC6_mvl/mxv
 BYTE   W02
 BYTE   VOL   28*songC6_mvl/mxv
 BYTE   W01
 BYTE   VOL   28*songC6_mvl/mxv
 BYTE   W02
 BYTE   VOL   26*songC6_mvl/mxv
 BYTE   W01
 BYTE   VOL   25*songC6_mvl/mxv
 BYTE   W02
 BYTE   VOL   24*songC6_mvl/mxv
 BYTE   W01
 BYTE   VOL   22*songC6_mvl/mxv
 BYTE   W02
 BYTE   VOL   20*songC6_mvl/mxv
 BYTE   W01
 BYTE   VOL   19*songC6_mvl/mxv
 BYTE   W02
 BYTE   VOL   17*songC6_mvl/mxv
 BYTE   W01
 BYTE   VOL   16*songC6_mvl/mxv
 BYTE   W02
// 146   ----------------------------------------
 BYTE   VOL   14*songC6_mvl/mxv
 BYTE   W01
 BYTE   VOL   12*songC6_mvl/mxv
 BYTE   W02
 BYTE   VOL   9*songC6_mvl/mxv
 BYTE   W01
 BYTE   VOL   6*songC6_mvl/mxv
 BYTE   W02
 BYTE   VOL   2*songC6_mvl/mxv
 BYTE   W01
 BYTE   VOL   0*songC6_mvl/mxv
 BYTE   W05
 BYTE   VOL   38*songC6_mvl/mxv
 BYTE   N11
 BYTE   W12
 BYTE   Fn4
 BYTE   W12
 BYTE   Gs4
 BYTE   W12
 BYTE   N23  Gn4
 BYTE   W24
 BYTE   N05  Fn4
 BYTE   W12
 BYTE   N23  Cn4
 BYTE   W12
// 147   ----------------------------------------
 BYTE   W12
 BYTE   N11  As3
 BYTE   W12
 BYTE   Gs3
 BYTE   W12
 BYTE   VOL   31*songC6_mvl/mxv
 BYTE   N64  Cn4
 BYTE   W03
 BYTE   VOL   32*songC6_mvl/mxv
 BYTE   W03
 BYTE   VOL   32*songC6_mvl/mxv
 BYTE   W01
 BYTE   VOL   33*songC6_mvl/mxv
 BYTE   W02
 BYTE   VOL   33*songC6_mvl/mxv
 BYTE   W01
 BYTE   VOL   34*songC6_mvl/mxv
 BYTE   W02
 BYTE   VOL   34*songC6_mvl/mxv
 BYTE   W01
 BYTE   VOL   35*songC6_mvl/mxv
 BYTE   W02
 BYTE   VOL   35*songC6_mvl/mxv
 BYTE   W01
 BYTE   VOL   35*songC6_mvl/mxv
 BYTE   W02
 BYTE   VOL   36*songC6_mvl/mxv
 BYTE   W01
 BYTE   VOL   36*songC6_mvl/mxv
 BYTE   W02
 BYTE   VOL   37*songC6_mvl/mxv
 BYTE   W01
 BYTE   VOL   37*songC6_mvl/mxv
 BYTE   W02
 BYTE   VOL   38*songC6_mvl/mxv
 BYTE   W01
 BYTE   VOL   38*songC6_mvl/mxv
 BYTE   W03
 BYTE   VOL   39*songC6_mvl/mxv
 BYTE   W14
 BYTE   VOL   38*songC6_mvl/mxv
 BYTE   W01
 BYTE   VOL   38*songC6_mvl/mxv
 BYTE   W02
 BYTE   VOL   38*songC6_mvl/mxv
 BYTE   W01
 BYTE   VOL   37*songC6_mvl/mxv
 BYTE   W02
 BYTE   VOL   36*songC6_mvl/mxv
 BYTE   W01
 BYTE   VOL   36*songC6_mvl/mxv
 BYTE   W02
 BYTE   VOL   35*songC6_mvl/mxv
 BYTE   W01
 BYTE   VOL   35*songC6_mvl/mxv
 BYTE   W02
 BYTE   VOL   33*songC6_mvl/mxv
 BYTE   W01
 BYTE   VOL   32*songC6_mvl/mxv
 BYTE   W02
 BYTE   VOL   31*songC6_mvl/mxv
 BYTE   W01
 BYTE   VOL   30*songC6_mvl/mxv
 BYTE   W02
// 148   ----------------------------------------
Label_6_014B0872:
 BYTE   VOL   28*songC6_mvl/mxv
 BYTE   W01
 BYTE   VOL   26*songC6_mvl/mxv
 BYTE   W02
 BYTE   VOL   25*songC6_mvl/mxv
 BYTE   W01
 BYTE   VOL   23*songC6_mvl/mxv
 BYTE   W02
 BYTE   VOL   21*songC6_mvl/mxv
 BYTE   W01
 BYTE   VOL   19*songC6_mvl/mxv
 BYTE   W02
 BYTE   VOL   17*songC6_mvl/mxv
 BYTE   W01
 BYTE   VOL   14*songC6_mvl/mxv
 BYTE   W02
 BYTE   VOL   38*songC6_mvl/mxv
 BYTE   N11  Cn4  v100
 BYTE   W12
 BYTE   Fn4
 BYTE   W12
 BYTE   Gs4
 BYTE   W12
 BYTE   N23  As4
 BYTE   W06
 BYTE   VOL   38*songC6_mvl/mxv
 BYTE   W03
 BYTE   VOL   38*songC6_mvl/mxv
 BYTE   W01
 BYTE   VOL   37*songC6_mvl/mxv
 BYTE   W02
 BYTE   VOL   37*songC6_mvl/mxv
 BYTE   W01
 BYTE   VOL   36*songC6_mvl/mxv
 BYTE   W02
 BYTE   VOL   36*songC6_mvl/mxv
 BYTE   W01
 BYTE   VOL   35*songC6_mvl/mxv
 BYTE   W02
 BYTE   VOL   34*songC6_mvl/mxv
 BYTE   W01
 BYTE   VOL   33*songC6_mvl/mxv
 BYTE   W02
 BYTE   VOL   33*songC6_mvl/mxv
 BYTE   W01
 BYTE   VOL   32*songC6_mvl/mxv
 BYTE   W02
 BYTE   VOL   38*songC6_mvl/mxv
 BYTE   N05  Gs4
 BYTE   W12
 BYTE   VOL   38*songC6_mvl/mxv
 BYTE   N23  Gn4
 BYTE   W04
 BYTE   VOL   38*songC6_mvl/mxv
 BYTE   W02
 BYTE   VOL   37*songC6_mvl/mxv
 BYTE   W01
 BYTE   VOL   36*songC6_mvl/mxv
 BYTE   W02
 BYTE   VOL   35*songC6_mvl/mxv
 BYTE   W01
 BYTE   VOL   35*songC6_mvl/mxv
 BYTE   W02
 BYTE   PEND 
// 149   ----------------------------------------
 BYTE   As0
 BYTE   W01
 BYTE   An0
 BYTE   W02
 BYTE   An0
 BYTE   W01
 BYTE   Gs0
 BYTE   W02
 BYTE   Gn0
 BYTE   W01
 BYTE   Gn0
 BYTE   W02
 BYTE   Fn0
 BYTE   W01
 BYTE   Fn0
 BYTE   W02
 BYTE   Dn1
 BYTE   N11  Gs4
 BYTE   W12
 BYTE   N05  As4
 BYTE   W12
 BYTE   VOL   29*songC6_mvl/mxv
 BYTE   N64  Cn5
 BYTE   W03
 BYTE   VOL   29*songC6_mvl/mxv
 BYTE   W01
 BYTE   VOL   30*songC6_mvl/mxv
 BYTE   W02
 BYTE   VOL   30*songC6_mvl/mxv
 BYTE   W01
 BYTE   VOL   31*songC6_mvl/mxv
 BYTE   W02
 BYTE   VOL   32*songC6_mvl/mxv
 BYTE   W01
 BYTE   VOL   33*songC6_mvl/mxv
 BYTE   W02
 BYTE   VOL   33*songC6_mvl/mxv
 BYTE   W01
 BYTE   VOL   34*songC6_mvl/mxv
 BYTE   W02
 BYTE   VOL   35*songC6_mvl/mxv
 BYTE   W01
 BYTE   VOL   36*songC6_mvl/mxv
 BYTE   W02
 BYTE   VOL   37*songC6_mvl/mxv
 BYTE   W01
 BYTE   VOL   38*songC6_mvl/mxv
 BYTE   W02
 BYTE   VOL   38*songC6_mvl/mxv
 BYTE   W01
 BYTE   VOL   38*songC6_mvl/mxv
 BYTE   W17
 BYTE   VOL   38*songC6_mvl/mxv
 BYTE   W01
 BYTE   VOL   37*songC6_mvl/mxv
 BYTE   W02
 BYTE   VOL   37*songC6_mvl/mxv
 BYTE   W01
 BYTE   VOL   36*songC6_mvl/mxv
 BYTE   W02
 BYTE   VOL   36*songC6_mvl/mxv
 BYTE   W01
 BYTE   VOL   35*songC6_mvl/mxv
 BYTE   W02
 BYTE   VOL   34*songC6_mvl/mxv
 BYTE   W01
 BYTE   VOL   33*songC6_mvl/mxv
 BYTE   W02
 BYTE   VOL   32*songC6_mvl/mxv
 BYTE   W01
 BYTE   VOL   31*songC6_mvl/mxv
 BYTE   W02
 BYTE   VOL   30*songC6_mvl/mxv
 BYTE   W01
 BYTE   VOL   28*songC6_mvl/mxv
 BYTE   W02
 BYTE   VOL   27*songC6_mvl/mxv
 BYTE   W01
 BYTE   VOL   24*songC6_mvl/mxv
 BYTE   W02
// 150   ----------------------------------------
Label_6_014B0910:
 BYTE   VOL   22*songC6_mvl/mxv
 BYTE   W01
 BYTE   VOL   20*songC6_mvl/mxv
 BYTE   W02
 BYTE   VOL   17*songC6_mvl/mxv
 BYTE   W01
 BYTE   VOL   14*songC6_mvl/mxv
 BYTE   W02
 BYTE   VOL   12*songC6_mvl/mxv
 BYTE   W01
 BYTE   VOL   7*songC6_mvl/mxv
 BYTE   W02
 BYTE   VOL   1*songC6_mvl/mxv
 BYTE   W01
 BYTE   VOL   38*songC6_mvl/mxv
 BYTE   W02
 BYTE   N11  Fn4  v100
 BYTE   W12
 BYTE   Gs4
 BYTE   W12
 BYTE   As4
 BYTE   W12
 BYTE   VOL   30*songC6_mvl/mxv
 BYTE   N32  Cn5
 BYTE   W04
 BYTE   VOL   30*songC6_mvl/mxv
 BYTE   W02
 BYTE   VOL   31*songC6_mvl/mxv
 BYTE   W01
 BYTE   VOL   31*songC6_mvl/mxv
 BYTE   W02
 BYTE   VOL   31*songC6_mvl/mxv
 BYTE   W01
 BYTE   VOL   32*songC6_mvl/mxv
 BYTE   W03
 BYTE   VOL   32*songC6_mvl/mxv
 BYTE   W02
 BYTE   VOL   33*songC6_mvl/mxv
 BYTE   W03
 BYTE   VOL   33*songC6_mvl/mxv
 BYTE   W01
 BYTE   VOL   33*songC6_mvl/mxv
 BYTE   W02
 BYTE   VOL   34*songC6_mvl/mxv
 BYTE   W03
 BYTE   VOL   35*songC6_mvl/mxv
 BYTE   W01
 BYTE   VOL   35*songC6_mvl/mxv
 BYTE   W02
 BYTE   VOL   35*songC6_mvl/mxv
 BYTE   W01
 BYTE   VOL   36*songC6_mvl/mxv
 BYTE   W02
 BYTE   VOL   36*songC6_mvl/mxv
 BYTE   W01
 BYTE   VOL   37*songC6_mvl/mxv
 BYTE   W03
 BYTE   VOL   38*songC6_mvl/mxv
 BYTE   W02
 BYTE   VOL   38*songC6_mvl/mxv
 BYTE   N05  As4
 BYTE   W01
 BYTE   VOL   38*songC6_mvl/mxv
 BYTE   W11
 BYTE   PEND 
// 151   ----------------------------------------
Label_6_014B0959:
 BYTE   VOL   38*songC6_mvl/mxv
 BYTE   N28  As4  v100
 BYTE   W07
 BYTE   VOL   38*songC6_mvl/mxv
 BYTE   W02
 BYTE   VOL   37*songC6_mvl/mxv
 BYTE   W01
 BYTE   VOL   36*songC6_mvl/mxv
 BYTE   W02
 BYTE   VOL   36*songC6_mvl/mxv
 BYTE   W01
 BYTE   VOL   35*songC6_mvl/mxv
 BYTE   W02
 BYTE   VOL   34*songC6_mvl/mxv
 BYTE   W01
 BYTE   VOL   34*songC6_mvl/mxv
 BYTE   W02
 BYTE   VOL   33*songC6_mvl/mxv
 BYTE   W01
 BYTE   VOL   31*songC6_mvl/mxv
 BYTE   W02
 BYTE   VOL   30*songC6_mvl/mxv
 BYTE   W01
 BYTE   VOL   29*songC6_mvl/mxv
 BYTE   W02
 BYTE   VOL   28*songC6_mvl/mxv
 BYTE   W01
 BYTE   VOL   27*songC6_mvl/mxv
 BYTE   W02
 BYTE   VOL   26*songC6_mvl/mxv
 BYTE   W01
 BYTE   VOL   24*songC6_mvl/mxv
 BYTE   W02
 BYTE   VOL   22*songC6_mvl/mxv
 BYTE   W01
 BYTE   VOL   19*songC6_mvl/mxv
 BYTE   W02
 BYTE   VOL   17*songC6_mvl/mxv
 BYTE   W01
 BYTE   VOL   14*songC6_mvl/mxv
 BYTE   W02
 BYTE   VOL   38*songC6_mvl/mxv
 BYTE   N05  Gs4
 BYTE   W06
 BYTE   As4
 BYTE   W06
 BYTE   N17  Cn5
 BYTE   W18
 BYTE   Cs5
 BYTE   W18
 BYTE   N11  Cn5
 BYTE   W12
 BYTE   PEND 
// 152   ----------------------------------------
Label_6_014B0995:
 BYTE   N23  As4  v100
 BYTE   W24
 BYTE   N17  Gn4
 BYTE   W24
 BYTE   N32
 BYTE   W36
 BYTE   N11  Gs4
 BYTE   W12
 BYTE   PEND 
// 153   ----------------------------------------
Label_6_014B09A2:
 BYTE   VOL   29*songC6_mvl/mxv
 BYTE   TIE  Fn4  v100
 BYTE   W03
 BYTE   VOL   30*songC6_mvl/mxv
 BYTE   W01
 BYTE   VOL   30*songC6_mvl/mxv
 BYTE   W03
 BYTE   VOL   31*songC6_mvl/mxv
 BYTE   W02
 BYTE   VOL   31*songC6_mvl/mxv
 BYTE   W01
 BYTE   VOL   31*songC6_mvl/mxv
 BYTE   W02
 BYTE   VOL   32*songC6_mvl/mxv
 BYTE   W01
 BYTE   VOL   32*songC6_mvl/mxv
 BYTE   W03
 BYTE   VOL   33*songC6_mvl/mxv
 BYTE   W02
 BYTE   VOL   33*songC6_mvl/mxv
 BYTE   W03
 BYTE   VOL   34*songC6_mvl/mxv
 BYTE   W01
 BYTE   VOL   34*songC6_mvl/mxv
 BYTE   W03
 BYTE   VOL   35*songC6_mvl/mxv
 BYTE   W03
 BYTE   VOL   35*songC6_mvl/mxv
 BYTE   W02
 BYTE   VOL   36*songC6_mvl/mxv
 BYTE   W01
 BYTE   VOL   36*songC6_mvl/mxv
 BYTE   W02
 BYTE   VOL   36*songC6_mvl/mxv
 BYTE   W01
 BYTE   VOL   37*songC6_mvl/mxv
 BYTE   W02
 BYTE   VOL   37*songC6_mvl/mxv
 BYTE   W04
 BYTE   VOL   37*songC6_mvl/mxv
 BYTE   W23
 BYTE   VOL   37*songC6_mvl/mxv
 BYTE   W04
 BYTE   VOL   37*songC6_mvl/mxv
 BYTE   W03
 BYTE   VOL   36*songC6_mvl/mxv
 BYTE   W02
 BYTE   VOL   36*songC6_mvl/mxv
 BYTE   W01
 BYTE   VOL   36*songC6_mvl/mxv
 BYTE   W02
 BYTE   VOL   35*songC6_mvl/mxv
 BYTE   W01
 BYTE   VOL   35*songC6_mvl/mxv
 BYTE   W02
 BYTE   VOL   35*songC6_mvl/mxv
 BYTE   W01
 BYTE   VOL   34*songC6_mvl/mxv
 BYTE   W02
 BYTE   VOL   33*songC6_mvl/mxv
 BYTE   W01
 BYTE   VOL   33*songC6_mvl/mxv
 BYTE   W02
 BYTE   VOL   32*songC6_mvl/mxv
 BYTE   W01
 BYTE   VOL   31*songC6_mvl/mxv
 BYTE   W02
 BYTE   VOL   31*songC6_mvl/mxv
 BYTE   W01
 BYTE   VOL   30*songC6_mvl/mxv
 BYTE   W02
 BYTE   VOL   29*songC6_mvl/mxv
 BYTE   W01
 BYTE   VOL   28*songC6_mvl/mxv
 BYTE   W02
 BYTE   VOL   27*songC6_mvl/mxv
 BYTE   W01
 BYTE   VOL   27*songC6_mvl/mxv
 BYTE   W02
 BYTE   PEND 
// 154   ----------------------------------------
 BYTE   PATT
  POIN2 Label_6_014AFF3F
// 155   ----------------------------------------
 BYTE   EOT
 BYTE   Fn4
 BYTE   W01
 BYTE   VOL   0*songC6_mvl/mxv
 BYTE   W42
 BYTE   VOL   29*songC6_mvl/mxv
 BYTE   N32  Fn4  v100
 BYTE   W01
 BYTE   VOL   30*songC6_mvl/mxv
 BYTE   W02
 BYTE   VOL   31*songC6_mvl/mxv
 BYTE   W01
 BYTE   VOL   31*songC6_mvl/mxv
 BYTE   W02
 BYTE   VOL   32*songC6_mvl/mxv
 BYTE   W01
 BYTE   VOL   32*songC6_mvl/mxv
 BYTE   W02
 BYTE   VOL   33*songC6_mvl/mxv
 BYTE   W01
 BYTE   VOL   34*songC6_mvl/mxv
 BYTE   W02
 BYTE   VOL   34*songC6_mvl/mxv
 BYTE   W03
 BYTE   VOL   35*songC6_mvl/mxv
 BYTE   W01
 BYTE   VOL   35*songC6_mvl/mxv
 BYTE   W02
 BYTE   VOL   36*songC6_mvl/mxv
 BYTE   W01
 BYTE   VOL   37*songC6_mvl/mxv
 BYTE   W02
 BYTE   VOL   37*songC6_mvl/mxv
 BYTE   W03
 BYTE   VOL   37*songC6_mvl/mxv
 BYTE   W04
 BYTE   VOL   38*songC6_mvl/mxv
 BYTE   W02
 BYTE   VOL   38*songC6_mvl/mxv
 BYTE   W01
 BYTE   VOL   38*songC6_mvl/mxv
 BYTE   W05
 BYTE   N11  Ds4
 BYTE   W12
 BYTE   Dn4  v084
 BYTE   W12
// 156   ----------------------------------------
 BYTE   Cn4  v100
 BYTE   W12
 BYTE   Dn4
 BYTE   W12
 BYTE   Cn4
 BYTE   W12
 BYTE   As3  v080
 BYTE   W12
 BYTE   Gs3  v068
 BYTE   W12
 BYTE   As3  v100
 BYTE   W12
 BYTE   Gs3  v068
 BYTE   W12
 BYTE   Gn3  v100
 BYTE   W12
// 157   ----------------------------------------
 BYTE   Fn3  v088
 BYTE   W12
 BYTE   Cs3  v100
 BYTE   W12
 BYTE   N07  Ds3  v084
 BYTE   W12
 BYTE   N05  Cs3  v100
 BYTE   W06
 BYTE   Ds3
 BYTE   W06
 BYTE   Fn3
 BYTE   W06
 BYTE   Gn3
 BYTE   W06
 BYTE   Fn3
 BYTE   W06
 BYTE   Gn3
 BYTE   W06
 BYTE   Gs3
 BYTE   W06
 BYTE   As3
 BYTE   W06
 BYTE   N05
 BYTE   W06
 BYTE   Cn4
 BYTE   W06
// 158   ----------------------------------------
 BYTE   Cs4
 BYTE   W06
 BYTE   Ds4
 BYTE   W06
 BYTE   Fn4
 BYTE   W06
 BYTE   Gn4
 BYTE   W06
 BYTE   Gs4
 BYTE   W06
 BYTE   As4
 BYTE   W06
 BYTE   Cn5
 BYTE   W06
 BYTE   As4
 BYTE   W06
 BYTE   Gs4
 BYTE   W06
 BYTE   Gn4
 BYTE   W06
 BYTE   Gs4
 BYTE   W06
 BYTE   Gn4
 BYTE   W06
 BYTE   Fn4
 BYTE   W06
 BYTE   Ds4
 BYTE   W06
 BYTE   Cs4
 BYTE   W06
 BYTE   Cn4
 BYTE   W06
// 159   ----------------------------------------
 BYTE   N10  As3
 BYTE   W12
 BYTE   N05  Gn3
 BYTE   W06
 BYTE   Gs3
 BYTE   W06
 BYTE   N10  As3
 BYTE   W12
 BYTE   N05  Gs3
 BYTE   W06
 BYTE   As3
 BYTE   W06
 BYTE   Cn4
 BYTE   W12
 BYTE   As3
 BYTE   W06
 BYTE   Cn4
 BYTE   W06
 BYTE   Cs4
 BYTE   W12
 BYTE   Cn4
 BYTE   W06
 BYTE   Cs4
 BYTE   W06
// 160   ----------------------------------------
 BYTE   Ds4
 BYTE   W06
 BYTE   Fn4
 BYTE   W06
 BYTE   Gn4
 BYTE   W06
 BYTE   Gs4
 BYTE   W06
 BYTE   As4
 BYTE   W06
 BYTE   Cn5
 BYTE   W06
 BYTE   As4
 BYTE   W06
 BYTE   Gs4
 BYTE   W06
 BYTE   As4
 BYTE   W06
 BYTE   Gs4
 BYTE   W06
 BYTE   Gn4
 BYTE   W06
 BYTE   Fn4
 BYTE   W06
 BYTE   Ds4
 BYTE   W06
 BYTE   Fn4
 BYTE   W06
 BYTE   Gn4
 BYTE   W06
 BYTE   Fn4
 BYTE   W06
// 161   ----------------------------------------
 BYTE   N11  Gn4
 BYTE   W12
 BYTE   N05  Cn5
 BYTE   W06
 BYTE   As4
 BYTE   W06
 BYTE   N11  Cn5
 BYTE   W12
 BYTE   N05  Ds5
 BYTE   W06
 BYTE   Cs5
 BYTE   W06
 BYTE   Cn5
 BYTE   W06
 BYTE   As4
 BYTE   W06
 BYTE   Cn5
 BYTE   W06
 BYTE   As4
 BYTE   W06
 BYTE   Gs4
 BYTE   W06
 BYTE   Gn4
 BYTE   W06
 BYTE   As4
 BYTE   W06
 BYTE   Gs4
 BYTE   W06
// 162   ----------------------------------------
 BYTE   Gn4
 BYTE   W06
 BYTE   Fn4
 BYTE   W06
 BYTE   Gn4
 BYTE   W06
 BYTE   Fn4
 BYTE   W06
 BYTE   Ds4
 BYTE   W06
 BYTE   Cs4
 BYTE   W06
 BYTE   Fn4
 BYTE   W06
 BYTE   Ds4
 BYTE   W06
 BYTE   Cs4
 BYTE   W06
 BYTE   Cn4
 BYTE   W06
 BYTE   En4
 BYTE   W06
 BYTE   Fn4
 BYTE   W06
 BYTE   Gn4
 BYTE   W06
 BYTE   Gs4
 BYTE   W06
 BYTE   Cn5
 BYTE   W06
 BYTE   As4
 BYTE   W06
// 163   ----------------------------------------
 BYTE   Gs4
 BYTE   W06
 BYTE   Gn4
 BYTE   W06
 BYTE   N32  Fn4
 BYTE   W06
 BYTE   VOL   38*songC6_mvl/mxv
 BYTE   W01
 BYTE   VOL   37*songC6_mvl/mxv
 BYTE   W02
 BYTE   VOL   37*songC6_mvl/mxv
 BYTE   W01
 BYTE   VOL   36*songC6_mvl/mxv
 BYTE   W02
 BYTE   VOL   36*songC6_mvl/mxv
 BYTE   W01
 BYTE   VOL   35*songC6_mvl/mxv
 BYTE   W02
 BYTE   VOL   34*songC6_mvl/mxv
 BYTE   W01
 BYTE   VOL   34*songC6_mvl/mxv
 BYTE   W02
 BYTE   VOL   33*songC6_mvl/mxv
 BYTE   W01
 BYTE   VOL   33*songC6_mvl/mxv
 BYTE   W02
 BYTE   VOL   32*songC6_mvl/mxv
 BYTE   W01
 BYTE   VOL   31*songC6_mvl/mxv
 BYTE   W02
 BYTE   VOL   31*songC6_mvl/mxv
 BYTE   W01
 BYTE   VOL   30*songC6_mvl/mxv
 BYTE   W02
 BYTE   VOL   30*songC6_mvl/mxv
 BYTE   W01
 BYTE   VOL   29*songC6_mvl/mxv
 BYTE   W02
 BYTE   VOL   28*songC6_mvl/mxv
 BYTE   W01
 BYTE   VOL   27*songC6_mvl/mxv
 BYTE   W02
 BYTE   VOL   25*songC6_mvl/mxv
 BYTE   W01
 BYTE   VOL   24*songC6_mvl/mxv
 BYTE   W02
 BYTE   VOL   38*songC6_mvl/mxv
 BYTE   N05  Gs3
 BYTE   W06
 BYTE   As3
 BYTE   W06
 BYTE   N11  Cn4
 BYTE   W12
 BYTE   Cs4
 BYTE   W12
 BYTE   Ds4
 BYTE   W12
// 164   ----------------------------------------
 BYTE   Cs4
 BYTE   W12
 BYTE   Cn4
 BYTE   W12
 BYTE   As3
 BYTE   W12
 BYTE   N32  Cn4
 BYTE   W06
 BYTE   VOL   38*songC6_mvl/mxv
 BYTE   W01
 BYTE   VOL   38*songC6_mvl/mxv
 BYTE   W02
 BYTE   VOL   37*songC6_mvl/mxv
 BYTE   W01
 BYTE   VOL   36*songC6_mvl/mxv
 BYTE   W02
 BYTE   VOL   36*songC6_mvl/mxv
 BYTE   W01
 BYTE   VOL   36*songC6_mvl/mxv
 BYTE   W02
 BYTE   VOL   35*songC6_mvl/mxv
 BYTE   W01
 BYTE   VOL   35*songC6_mvl/mxv
 BYTE   W02
 BYTE   VOL   34*songC6_mvl/mxv
 BYTE   W01
 BYTE   VOL   34*songC6_mvl/mxv
 BYTE   W02
 BYTE   VOL   33*songC6_mvl/mxv
 BYTE   W01
 BYTE   VOL   32*songC6_mvl/mxv
 BYTE   W02
 BYTE   VOL   32*songC6_mvl/mxv
 BYTE   W01
 BYTE   VOL   32*songC6_mvl/mxv
 BYTE   W02
 BYTE   VOL   31*songC6_mvl/mxv
 BYTE   W01
 BYTE   VOL   30*songC6_mvl/mxv
 BYTE   W02
 BYTE   VOL   30*songC6_mvl/mxv
 BYTE   W01
 BYTE   VOL   29*songC6_mvl/mxv
 BYTE   W02
 BYTE   VOL   29*songC6_mvl/mxv
 BYTE   W01
 BYTE   VOL   28*songC6_mvl/mxv
 BYTE   W02
 BYTE   VOL   38*songC6_mvl/mxv
 BYTE   N11
 BYTE   W12
 BYTE   Gn4
 BYTE   W12
// 165   ----------------------------------------
 BYTE   Gs4
 BYTE   W12
 BYTE   Gn4
 BYTE   W12
 BYTE   Fn4
 BYTE   W12
 BYTE   N32  Cn4
 BYTE   W24
 BYTE   W12
 BYTE   N11  As3
 BYTE   W12
 BYTE   Cn4  v096
 BYTE   W12
// 166   ----------------------------------------
 BYTE   N23  Fn3  v076
 BYTE   W01
 BYTE   VOL   38*songC6_mvl/mxv
 BYTE   W02
 BYTE   VOL   38*songC6_mvl/mxv
 BYTE   W03
 BYTE   VOL   38*songC6_mvl/mxv
 BYTE   W01
 BYTE   VOL   37*songC6_mvl/mxv
 BYTE   W02
 BYTE   VOL   37*songC6_mvl/mxv
 BYTE   W01
 BYTE   VOL   37*songC6_mvl/mxv
 BYTE   W02
 BYTE   VOL   36*songC6_mvl/mxv
 BYTE   W01
 BYTE   VOL   35*songC6_mvl/mxv
 BYTE   W02
 BYTE   VOL   34*songC6_mvl/mxv
 BYTE   W01
 BYTE   VOL   34*songC6_mvl/mxv
 BYTE   W03
 BYTE   VOL   33*songC6_mvl/mxv
 BYTE   W05
 BYTE   N44  Fn4  v084
 BYTE   W03
 BYTE   VOL   34*songC6_mvl/mxv
 BYTE   W03
 BYTE   VOL   34*songC6_mvl/mxv
 BYTE   W01
 BYTE   VOL   35*songC6_mvl/mxv
 BYTE   W02
 BYTE   VOL   36*songC6_mvl/mxv
 BYTE   W01
 BYTE   VOL   36*songC6_mvl/mxv
 BYTE   W02
 BYTE   VOL   37*songC6_mvl/mxv
 BYTE   W01
 BYTE   VOL   38*songC6_mvl/mxv
 BYTE   W02
 BYTE   VOL   38*songC6_mvl/mxv
 BYTE   W03
 BYTE   VOL   38*songC6_mvl/mxv
 BYTE   W04
 BYTE   VOL   38*songC6_mvl/mxv
 BYTE   W03
 BYTE   VOL   37*songC6_mvl/mxv
 BYTE   W02
 BYTE   VOL   37*songC6_mvl/mxv
 BYTE   W01
 BYTE   VOL   37*songC6_mvl/mxv
 BYTE   W02
 BYTE   VOL   36*songC6_mvl/mxv
 BYTE   W01
 BYTE   VOL   35*songC6_mvl/mxv
 BYTE   W03
 BYTE   VOL   34*songC6_mvl/mxv
 BYTE   W02
 BYTE   VOL   33*songC6_mvl/mxv
 BYTE   W01
 BYTE   VOL   33*songC6_mvl/mxv
 BYTE   W02
 BYTE   VOL   32*songC6_mvl/mxv
 BYTE   W01
 BYTE   VOL   31*songC6_mvl/mxv
 BYTE   W02
 BYTE   VOL   30*songC6_mvl/mxv
 BYTE   W01
 BYTE   VOL   29*songC6_mvl/mxv
 BYTE   W02
 BYTE   VOL   27*songC6_mvl/mxv
 BYTE   W01
 BYTE   VOL   26*songC6_mvl/mxv
 BYTE   W02
 BYTE   VOL   38*songC6_mvl/mxv
 BYTE   N11  Gs4  v100
 BYTE   W12
 BYTE   As4
 BYTE   W12
// 167   ----------------------------------------
 BYTE   Cn5
 BYTE   W12
 BYTE   N05  Ds5
 BYTE   W06
 BYTE   Cn5
 BYTE   W06
 BYTE   As4
 BYTE   W06
 BYTE   Gs4
 BYTE   W06
 BYTE   As4
 BYTE   W06
 BYTE   Gs4
 BYTE   W06
 BYTE   As4
 BYTE   W06
 BYTE   Cn5
 BYTE   W06
 BYTE   N28  As4
 BYTE   W06
 BYTE   VOL   38*songC6_mvl/mxv
 BYTE   W01
 BYTE   VOL   38*songC6_mvl/mxv
 BYTE   W02
 BYTE   VOL   37*songC6_mvl/mxv
 BYTE   W01
 BYTE   VOL   37*songC6_mvl/mxv
 BYTE   W02
 BYTE   VOL   36*songC6_mvl/mxv
 BYTE   W01
 BYTE   VOL   36*songC6_mvl/mxv
 BYTE   W02
 BYTE   VOL   36*songC6_mvl/mxv
 BYTE   W01
 BYTE   VOL   35*songC6_mvl/mxv
 BYTE   W02
 BYTE   VOL   34*songC6_mvl/mxv
 BYTE   W01
 BYTE   VOL   33*songC6_mvl/mxv
 BYTE   W02
 BYTE   VOL   32*songC6_mvl/mxv
 BYTE   W01
 BYTE   VOL   32*songC6_mvl/mxv
 BYTE   W02
 BYTE   VOL   31*songC6_mvl/mxv
 BYTE   W01
 BYTE   VOL   31*songC6_mvl/mxv
 BYTE   W02
 BYTE   VOL   30*songC6_mvl/mxv
 BYTE   W01
 BYTE   VOL   29*songC6_mvl/mxv
 BYTE   W02
 BYTE   VOL   28*songC6_mvl/mxv
 BYTE   W01
 BYTE   VOL   27*songC6_mvl/mxv
 BYTE   W02
 BYTE   VOL   26*songC6_mvl/mxv
 BYTE   W01
 BYTE   VOL   26*songC6_mvl/mxv
 BYTE   W02
// 168   ----------------------------------------
 BYTE   VOL   38*songC6_mvl/mxv
 BYTE   N05  Gs4
 BYTE   W06
 BYTE   As4
 BYTE   W06
 BYTE   Cn5
 BYTE   W06
 BYTE   Cs5
 BYTE   W06
 BYTE   Cn5
 BYTE   W06
 BYTE   As4
 BYTE   W06
 BYTE   Gs4
 BYTE   W06
 BYTE   Gn4
 BYTE   W06
 BYTE   Fn4
 BYTE   W06
 BYTE   Ds4
 BYTE   W06
 BYTE   Gn4
 BYTE   W06
 BYTE   Gs4
 BYTE   W06
 BYTE   Gn4
 BYTE   W06
 BYTE   Fn4
 BYTE   W06
 BYTE   N23  Ds4
 BYTE   W01
 BYTE   VOL   38*songC6_mvl/mxv
 BYTE   W03
 BYTE   VOL   37*songC6_mvl/mxv
 BYTE   W02
 BYTE   VOL   37*songC6_mvl/mxv
 BYTE   W01
 BYTE   VOL   36*songC6_mvl/mxv
 BYTE   W03
 BYTE   VOL   36*songC6_mvl/mxv
 BYTE   W02
// 169   ----------------------------------------
 BYTE   VOL   34*songC6_mvl/mxv
 BYTE   W01
 BYTE   VOL   33*songC6_mvl/mxv
 BYTE   W02
 BYTE   VOL   31*songC6_mvl/mxv
 BYTE   W01
 BYTE   VOL   29*songC6_mvl/mxv
 BYTE   W02
 BYTE   VOL   27*songC6_mvl/mxv
 BYTE   W01
 BYTE   VOL   25*songC6_mvl/mxv
 BYTE   W02
 BYTE   VOL   22*songC6_mvl/mxv
 BYTE   W01
 BYTE   VOL   13*songC6_mvl/mxv
 BYTE   W02
 BYTE   VOL   38*songC6_mvl/mxv
 BYTE   N32  Gn4
 BYTE   W10
 BYTE   VOL   38*songC6_mvl/mxv
 BYTE   W02
 BYTE   VOL   37*songC6_mvl/mxv
 BYTE   W01
 BYTE   VOL   37*songC6_mvl/mxv
 BYTE   W02
 BYTE   VOL   36*songC6_mvl/mxv
 BYTE   W01
 BYTE   VOL   36*songC6_mvl/mxv
 BYTE   W02
 BYTE   VOL   35*songC6_mvl/mxv
 BYTE   W01
 BYTE   VOL   34*songC6_mvl/mxv
 BYTE   W02
 BYTE   VOL   34*songC6_mvl/mxv
 BYTE   W01
 BYTE   VOL   33*songC6_mvl/mxv
 BYTE   W02
 BYTE   VOL   32*songC6_mvl/mxv
 BYTE   W01
 BYTE   VOL   31*songC6_mvl/mxv
 BYTE   W02
 BYTE   VOL   30*songC6_mvl/mxv
 BYTE   W01
 BYTE   VOL   29*songC6_mvl/mxv
 BYTE   W02
 BYTE   VOL   29*songC6_mvl/mxv
 BYTE   W01
 BYTE   VOL   28*songC6_mvl/mxv
 BYTE   W02
 BYTE   VOL   27*songC6_mvl/mxv
 BYTE   W01
 BYTE   VOL   26*songC6_mvl/mxv
 BYTE   W02
 BYTE   VOL   38*songC6_mvl/mxv
 BYTE   N11  Gs4
 BYTE   W12
 BYTE   VOL   31*songC6_mvl/mxv
 BYTE   N92  Fn4
 BYTE   W01
 BYTE   VOL   31*songC6_mvl/mxv
 BYTE   W02
 BYTE   VOL   32*songC6_mvl/mxv
 BYTE   W01
 BYTE   VOL   32*songC6_mvl/mxv
 BYTE   W02
 BYTE   VOL   32*songC6_mvl/mxv
 BYTE   W01
 BYTE   VOL   33*songC6_mvl/mxv
 BYTE   W02
 BYTE   VOL   33*songC6_mvl/mxv
 BYTE   W01
 BYTE   VOL   33*songC6_mvl/mxv
 BYTE   W02
 BYTE   VOL   34*songC6_mvl/mxv
 BYTE   W01
 BYTE   VOL   34*songC6_mvl/mxv
 BYTE   W02
 BYTE   VOL   35*songC6_mvl/mxv
 BYTE   W01
 BYTE   VOL   35*songC6_mvl/mxv
 BYTE   W02
 BYTE   VOL   36*songC6_mvl/mxv
 BYTE   W01
 BYTE   VOL   36*songC6_mvl/mxv
 BYTE   W02
 BYTE   VOL   36*songC6_mvl/mxv
 BYTE   W03
 BYTE   VOL   37*songC6_mvl/mxv
 BYTE   W04
 BYTE   VOL   37*songC6_mvl/mxv
 BYTE   W03
 BYTE   VOL   38*songC6_mvl/mxv
 BYTE   W02
 BYTE   VOL   38*songC6_mvl/mxv
 BYTE   W09
// 170   ----------------------------------------
 BYTE   VOL   38*songC6_mvl/mxv
 BYTE   W01
 BYTE   VOL   39*songC6_mvl/mxv
 BYTE   W18
 BYTE   VOL   38*songC6_mvl/mxv
 BYTE   W03
 BYTE   VOL   38*songC6_mvl/mxv
 BYTE   W03
 BYTE   VOL   38*songC6_mvl/mxv
 BYTE   W02
 BYTE   VOL   37*songC6_mvl/mxv
 BYTE   W03
 BYTE   VOL   37*songC6_mvl/mxv
 BYTE   W01
 BYTE   VOL   36*songC6_mvl/mxv
 BYTE   W02
 BYTE   VOL   36*songC6_mvl/mxv
 BYTE   W03
 BYTE   VOL   35*songC6_mvl/mxv
 BYTE   W01
 BYTE   VOL   34*songC6_mvl/mxv
 BYTE   W02
 BYTE   VOL   34*songC6_mvl/mxv
 BYTE   W01
 BYTE   VOL   34*songC6_mvl/mxv
 BYTE   W02
 BYTE   VOL   33*songC6_mvl/mxv
 BYTE   W01
 BYTE   VOL   32*songC6_mvl/mxv
 BYTE   W02
 BYTE   VOL   32*songC6_mvl/mxv
 BYTE   W01
 BYTE   VOL   31*songC6_mvl/mxv
 BYTE   W02
 BYTE   VOL   30*songC6_mvl/mxv
 BYTE   W01
 BYTE   VOL   29*songC6_mvl/mxv
 BYTE   W02
 BYTE   VOL   28*songC6_mvl/mxv
 BYTE   W01
 BYTE   VOL   27*songC6_mvl/mxv
 BYTE   W02
 BYTE   VOL   26*songC6_mvl/mxv
 BYTE   W01
 BYTE   VOL   24*songC6_mvl/mxv
 BYTE   W02
 BYTE   VOL   22*songC6_mvl/mxv
 BYTE   W01
 BYTE   VOL   19*songC6_mvl/mxv
 BYTE   W02
 BYTE   VOL   17*songC6_mvl/mxv
 BYTE   W01
 BYTE   VOL   15*songC6_mvl/mxv
 BYTE   W02
 BYTE   VOL   13*songC6_mvl/mxv
 BYTE   W01
 BYTE   VOL   12*songC6_mvl/mxv
 BYTE   W02
 BYTE   VOL   38*songC6_mvl/mxv
 BYTE   N11  Cn4
 BYTE   W12
 BYTE   Fn4
 BYTE   W12
 BYTE   Gs4
 BYTE   W12
// 171   ----------------------------------------
 BYTE   VOL   32*songC6_mvl/mxv
 BYTE   N23  Gn4
 BYTE   W01
 BYTE   VOL   33*songC6_mvl/mxv
 BYTE   W02
 BYTE   VOL   33*songC6_mvl/mxv
 BYTE   W01
 BYTE   VOL   34*songC6_mvl/mxv
 BYTE   W02
 BYTE   VOL   35*songC6_mvl/mxv
 BYTE   W01
 BYTE   VOL   35*songC6_mvl/mxv
 BYTE   W02
 BYTE   VOL   36*songC6_mvl/mxv
 BYTE   W01
 BYTE   VOL   37*songC6_mvl/mxv
 BYTE   W02
 BYTE   VOL   38*songC6_mvl/mxv
 BYTE   W01
 BYTE   VOL   38*songC6_mvl/mxv
 BYTE   W02
 BYTE   VOL   38*songC6_mvl/mxv
 BYTE   W09
 BYTE   N07  Fn4
 BYTE   W12
 BYTE   VOL   31*songC6_mvl/mxv
 BYTE   N23  Cn4
 BYTE   W01
 BYTE   VOL   32*songC6_mvl/mxv
 BYTE   W02
 BYTE   VOL   33*songC6_mvl/mxv
 BYTE   W01
 BYTE   VOL   33*songC6_mvl/mxv
 BYTE   W02
 BYTE   VOL   34*songC6_mvl/mxv
 BYTE   W01
 BYTE   VOL   34*songC6_mvl/mxv
 BYTE   W02
 BYTE   VOL   35*songC6_mvl/mxv
 BYTE   W01
 BYTE   VOL   36*songC6_mvl/mxv
 BYTE   W02
// 172   ----------------------------------------
 BYTE   PATT
  POIN2 Label_6_014B0691
// 173   ----------------------------------------
 BYTE   VOL   23*songC6_mvl/mxv
 BYTE   W01
 BYTE   VOL   21*songC6_mvl/mxv
 BYTE   W02
 BYTE   VOL   20*songC6_mvl/mxv
 BYTE   W01
 BYTE   VOL   19*songC6_mvl/mxv
 BYTE   W02
 BYTE   VOL   18*songC6_mvl/mxv
 BYTE   W01
 BYTE   VOL   14*songC6_mvl/mxv
 BYTE   W02
 BYTE   VOL   13*songC6_mvl/mxv
 BYTE   W01
 BYTE   VOL   12*songC6_mvl/mxv
 BYTE   W02
 BYTE   VOL   38*songC6_mvl/mxv
 BYTE   N11  Cn4  v100
 BYTE   W12
 BYTE   Fn4
 BYTE   W12
 BYTE   Gs4
 BYTE   W12
 BYTE   N23  Gn4
 BYTE   W24
 BYTE   N07  Fn4
 BYTE   W12
 BYTE   N23  Cn4
 BYTE   W12
// 174   ----------------------------------------
 BYTE   PATT
  POIN2 Label_6_014B06FB
// 175   ----------------------------------------
 BYTE   PATT
  POIN2 Label_6_014B073D
// 176   ----------------------------------------
 BYTE   PATT
  POIN2 Label_6_014B075E
// 177   ----------------------------------------
 BYTE   PATT
  POIN2 Label_6_014B0790
// 178   ----------------------------------------
 BYTE   VOL   31*songC6_mvl/mxv
 BYTE   N23  Cn4  v100
 BYTE   W01
 BYTE   VOL   31*songC6_mvl/mxv
 BYTE   W02
 BYTE   VOL   32*songC6_mvl/mxv
 BYTE   W01
 BYTE   VOL   33*songC6_mvl/mxv
 BYTE   W02
 BYTE   VOL   34*songC6_mvl/mxv
 BYTE   W01
 BYTE   VOL   35*songC6_mvl/mxv
 BYTE   W02
 BYTE   VOL   36*songC6_mvl/mxv
 BYTE   W01
 BYTE   VOL   36*songC6_mvl/mxv
 BYTE   W02
 BYTE   VOL   37*songC6_mvl/mxv
 BYTE   W01
 BYTE   VOL   37*songC6_mvl/mxv
 BYTE   W02
 BYTE   VOL   38*songC6_mvl/mxv
 BYTE   W01
 BYTE   VOL   38*songC6_mvl/mxv
 BYTE   W08
 BYTE   N23  Cn5
 BYTE   W24
 BYTE   As4
 BYTE   W24
 BYTE   Gs4
 BYTE   W24
// 179   ----------------------------------------
 BYTE   N11  Gn4  v092
 BYTE   W12
 BYTE   Cn4  v100
 BYTE   W12
 BYTE   Fn4
 BYTE   W12
 BYTE   Gs4
 BYTE   W12
 BYTE   N23  Gn4
 BYTE   W24
 BYTE   N05  Fn4
 BYTE   W12
 BYTE   N23  Cn4
 BYTE   W12
// 180   ----------------------------------------
 BYTE   W12
 BYTE   N11  As3
 BYTE   W12
 BYTE   Gs3
 BYTE   W12
 BYTE   VOL   31*songC6_mvl/mxv
 BYTE   N56  Cn4
 BYTE   W03
 BYTE   VOL   32*songC6_mvl/mxv
 BYTE   W03
 BYTE   VOL   32*songC6_mvl/mxv
 BYTE   W01
 BYTE   VOL   33*songC6_mvl/mxv
 BYTE   W02
 BYTE   VOL   33*songC6_mvl/mxv
 BYTE   W01
 BYTE   VOL   34*songC6_mvl/mxv
 BYTE   W02
 BYTE   VOL   34*songC6_mvl/mxv
 BYTE   W01
 BYTE   VOL   35*songC6_mvl/mxv
 BYTE   W02
 BYTE   VOL   35*songC6_mvl/mxv
 BYTE   W01
 BYTE   VOL   35*songC6_mvl/mxv
 BYTE   W02
 BYTE   VOL   36*songC6_mvl/mxv
 BYTE   W01
 BYTE   VOL   36*songC6_mvl/mxv
 BYTE   W02
 BYTE   VOL   37*songC6_mvl/mxv
 BYTE   W01
 BYTE   VOL   37*songC6_mvl/mxv
 BYTE   W02
 BYTE   VOL   38*songC6_mvl/mxv
 BYTE   W01
 BYTE   VOL   38*songC6_mvl/mxv
 BYTE   W03
 BYTE   VOL   39*songC6_mvl/mxv
 BYTE   W14
 BYTE   VOL   38*songC6_mvl/mxv
 BYTE   W01
 BYTE   VOL   38*songC6_mvl/mxv
 BYTE   W02
 BYTE   VOL   38*songC6_mvl/mxv
 BYTE   W01
 BYTE   VOL   37*songC6_mvl/mxv
 BYTE   W02
 BYTE   VOL   36*songC6_mvl/mxv
 BYTE   W01
 BYTE   VOL   36*songC6_mvl/mxv
 BYTE   W02
 BYTE   VOL   35*songC6_mvl/mxv
 BYTE   W01
 BYTE   VOL   35*songC6_mvl/mxv
 BYTE   W02
 BYTE   VOL   33*songC6_mvl/mxv
 BYTE   W01
 BYTE   VOL   32*songC6_mvl/mxv
 BYTE   W02
 BYTE   VOL   31*songC6_mvl/mxv
 BYTE   W01
 BYTE   VOL   30*songC6_mvl/mxv
 BYTE   W02
// 181   ----------------------------------------
 BYTE   PATT
  POIN2 Label_6_014B0872
// 182   ----------------------------------------
 BYTE   VOL   34*songC6_mvl/mxv
 BYTE   W01
 BYTE   VOL   33*songC6_mvl/mxv
 BYTE   W02
 BYTE   VOL   33*songC6_mvl/mxv
 BYTE   W01
 BYTE   VOL   32*songC6_mvl/mxv
 BYTE   W02
 BYTE   VOL   31*songC6_mvl/mxv
 BYTE   W01
 BYTE   VOL   31*songC6_mvl/mxv
 BYTE   W02
 BYTE   VOL   29*songC6_mvl/mxv
 BYTE   W01
 BYTE   VOL   29*songC6_mvl/mxv
 BYTE   W02
 BYTE   VOL   38*songC6_mvl/mxv
 BYTE   N11  Gs4  v100
 BYTE   W12
 BYTE   As4
 BYTE   W12
 BYTE   VOL   29*songC6_mvl/mxv
 BYTE   N56  Cn5
 BYTE   W03
 BYTE   VOL   29*songC6_mvl/mxv
 BYTE   W01
 BYTE   VOL   30*songC6_mvl/mxv
 BYTE   W02
 BYTE   VOL   30*songC6_mvl/mxv
 BYTE   W01
 BYTE   VOL   31*songC6_mvl/mxv
 BYTE   W02
 BYTE   VOL   32*songC6_mvl/mxv
 BYTE   W01
 BYTE   VOL   33*songC6_mvl/mxv
 BYTE   W02
 BYTE   VOL   33*songC6_mvl/mxv
 BYTE   W01
 BYTE   VOL   34*songC6_mvl/mxv
 BYTE   W02
 BYTE   VOL   35*songC6_mvl/mxv
 BYTE   W01
 BYTE   VOL   36*songC6_mvl/mxv
 BYTE   W02
 BYTE   VOL   37*songC6_mvl/mxv
 BYTE   W01
 BYTE   VOL   38*songC6_mvl/mxv
 BYTE   W02
 BYTE   VOL   38*songC6_mvl/mxv
 BYTE   W01
 BYTE   VOL   38*songC6_mvl/mxv
 BYTE   W17
 BYTE   VOL   38*songC6_mvl/mxv
 BYTE   W01
 BYTE   VOL   37*songC6_mvl/mxv
 BYTE   W02
 BYTE   VOL   37*songC6_mvl/mxv
 BYTE   W01
 BYTE   VOL   36*songC6_mvl/mxv
 BYTE   W02
 BYTE   VOL   36*songC6_mvl/mxv
 BYTE   W01
 BYTE   VOL   35*songC6_mvl/mxv
 BYTE   W02
 BYTE   VOL   34*songC6_mvl/mxv
 BYTE   W01
 BYTE   VOL   33*songC6_mvl/mxv
 BYTE   W02
 BYTE   VOL   32*songC6_mvl/mxv
 BYTE   W01
 BYTE   VOL   31*songC6_mvl/mxv
 BYTE   W02
 BYTE   VOL   30*songC6_mvl/mxv
 BYTE   W01
 BYTE   VOL   28*songC6_mvl/mxv
 BYTE   W02
 BYTE   VOL   27*songC6_mvl/mxv
 BYTE   W01
 BYTE   VOL   24*songC6_mvl/mxv
 BYTE   W02
// 183   ----------------------------------------
 BYTE   PATT
  POIN2 Label_6_014B0910
// 184   ----------------------------------------
 BYTE   PATT
  POIN2 Label_6_014B0959
// 185   ----------------------------------------
 BYTE   PATT
  POIN2 Label_6_014B0995
// 186   ----------------------------------------
 BYTE   PATT
  POIN2 Label_6_014B09A2
// 187   ----------------------------------------
 BYTE   PATT
  POIN2 Label_6_014AFF3F
// 188   ----------------------------------------
 BYTE   EOT
 BYTE   Fn4
 BYTE   W01
 BYTE   VOL   0*songC6_mvl/mxv
 BYTE   W66
 BYTE   W96
// 189   ----------------------------------------
 BYTE   W96
// 190   ----------------------------------------
 BYTE   W96
// 191   ----------------------------------------
 BYTE   W96
// 192   ----------------------------------------
 BYTE   W96
// 193   ----------------------------------------
 BYTE   W96
// 194   ----------------------------------------
 BYTE   W96
// 195   ----------------------------------------
 BYTE   W96
// 196   ----------------------------------------
 BYTE   W96
// 197   ----------------------------------------
 BYTE   W96
// 198   ----------------------------------------
 BYTE   W96
// 199   ----------------------------------------
 BYTE   W96
// 200   ----------------------------------------
 BYTE   W96
// 201   ----------------------------------------
 BYTE   W96
// 202   ----------------------------------------
 BYTE   W96
// 203   ----------------------------------------
 BYTE   W96
// 204   ----------------------------------------
 BYTE   W96
// 205   ----------------------------------------
 BYTE   W48
 BYTE   GoTo
  POIN2 Label_6_014AF0AE
 BYTE   FINE

//**************** Track 8 (Midi-Chn.7) ****************//

songC6_008:
// 000   ----------------------------------------
 BYTE   KEYSH   songC6_key+0
Label_7_014B17B2:
 BYTE   VOICE   100
 BYTE   VOL   23*songC6_mvl/mxv
 BYTE   PAN   c_v+27
 BYTE   W96
// 001   ----------------------------------------
 BYTE   W96
// 002   ----------------------------------------
 BYTE   W96
// 003   ----------------------------------------
 BYTE   W96
// 004   ----------------------------------------
 BYTE   W96
// 005   ----------------------------------------
 BYTE   W96
// 006   ----------------------------------------
 BYTE   W96
// 007   ----------------------------------------
 BYTE   W96
// 008   ----------------------------------------
 BYTE   W96
// 009   ----------------------------------------
 BYTE   W96
// 010   ----------------------------------------
 BYTE   W96
// 011   ----------------------------------------
 BYTE   W96
// 012   ----------------------------------------
 BYTE   W96
// 013   ----------------------------------------
 BYTE   W96
// 014   ----------------------------------------
 BYTE   W96
// 015   ----------------------------------------
 BYTE   W96
// 016   ----------------------------------------
 BYTE   W96
// 017   ----------------------------------------
 BYTE   W96
// 018   ----------------------------------------
 BYTE   W96
// 019   ----------------------------------------
 BYTE   W96
// 020   ----------------------------------------
 BYTE   W96
// 021   ----------------------------------------
 BYTE   W96
// 022   ----------------------------------------
Label_7_014B17CE:
 BYTE   W48
 BYTE   N05  Fs5  v072
 BYTE   W06
 BYTE   Bn5
 BYTE   W06
 BYTE   Fn5  v076
 BYTE   W06
 BYTE   Bn5
 BYTE   W06
 BYTE   Fn5
 BYTE   W06
 BYTE   As5  v080
 BYTE   W06
 BYTE   En5
 BYTE   W06
 BYTE   As5
 BYTE   W06
 BYTE   PEND 
// 023   ----------------------------------------
Label_7_014B17E4:
 BYTE   N05  En5  v084
 BYTE   W06
 BYTE   An5
 BYTE   W06
 BYTE   Ds5
 BYTE   W06
 BYTE   An5  v088
 BYTE   W06
 BYTE   Ds5
 BYTE   W06
 BYTE   Gs5
 BYTE   W06
 BYTE   Dn5  v092
 BYTE   W06
 BYTE   Gs5
 BYTE   W54
 BYTE   PEND 
// 024   ----------------------------------------
 BYTE   W96
// 025   ----------------------------------------
 BYTE   W96
// 026   ----------------------------------------
 BYTE   W96
// 027   ----------------------------------------
 BYTE   W96
// 028   ----------------------------------------
 BYTE   W96
// 029   ----------------------------------------
 BYTE   W96
// 030   ----------------------------------------
 BYTE   W96
// 031   ----------------------------------------
 BYTE   W96
// 032   ----------------------------------------
 BYTE   W96
// 033   ----------------------------------------
 BYTE   W96
// 034   ----------------------------------------
 BYTE   W96
// 035   ----------------------------------------
 BYTE   W96
// 036   ----------------------------------------
 BYTE   W96
// 037   ----------------------------------------
 BYTE   W96
// 038   ----------------------------------------
 BYTE   W96
// 039   ----------------------------------------
Label_7_014B1808:
 BYTE   N11  Bn4  v092
 BYTE   W12
 BYTE   En5
 BYTE   W12
 BYTE   Fs5
 BYTE   W12
 BYTE   Gs5
 BYTE   W12
 BYTE   N32  Bn5
 BYTE   W48
 BYTE   PEND 
// 040   ----------------------------------------
Label_7_014B1816:
 BYTE   W12
 BYTE   N11  Cs6  v092
 BYTE   W12
 BYTE   Bn5
 BYTE   W12
 BYTE   En5
 BYTE   W12
 BYTE   N32  Gs5
 BYTE   W48
 BYTE   PEND 
// 041   ----------------------------------------
Label_7_014B1823:
 BYTE   N11  Gs5  v092
 BYTE   W12
 BYTE   Fs5
 BYTE   W12
 BYTE   En5
 BYTE   W24
 BYTE   N32  Fs5
 BYTE   W48
 BYTE   PEND 
// 042   ----------------------------------------
Label_7_014B182F:
 BYTE   W12
 BYTE   N11  Bn5  v092
 BYTE   W12
 BYTE   Fs5
 BYTE   W12
 BYTE   Ds5
 BYTE   W12
 BYTE   N32  En5
 BYTE   W48
 BYTE   PEND 
// 043   ----------------------------------------
Label_7_014B183C:
 BYTE   N11  Cs5  v092
 BYTE   W12
 BYTE   Ds5
 BYTE   W12
 BYTE   En5
 BYTE   W12
 BYTE   Gs5
 BYTE   W12
 BYTE   N44  Cs6
 BYTE   W48
 BYTE   PEND 
// 044   ----------------------------------------
 BYTE   W48
 BYTE   N32  Ds6
 BYTE   W48
// 045   ----------------------------------------
Label_7_014B184E:
 BYTE   N11  As5  v092
 BYTE   W24
 BYTE   Cs6
 BYTE   W24
 BYTE   N32
 BYTE   W48
 BYTE   PEND 
// 046   ----------------------------------------
Label_7_014B1857:
 BYTE   W12
 BYTE   N11  Cn6  v092
 BYTE   W12
 BYTE   Cs6
 BYTE   W12
 BYTE   N44  Ds6
 BYTE   W60
 BYTE   PEND 
// 047   ----------------------------------------
 BYTE   W96
// 048   ----------------------------------------
 BYTE   W96
// 049   ----------------------------------------
 BYTE   W96
// 050   ----------------------------------------
 BYTE   W96
// 051   ----------------------------------------
 BYTE   W96
// 052   ----------------------------------------
 BYTE   W96
// 053   ----------------------------------------
 BYTE   W96
// 054   ----------------------------------------
 BYTE   W96
// 055   ----------------------------------------
 BYTE   W96
// 056   ----------------------------------------
 BYTE   W96
// 057   ----------------------------------------
 BYTE   W96
// 058   ----------------------------------------
 BYTE   W96
// 059   ----------------------------------------
 BYTE   W96
// 060   ----------------------------------------
 BYTE   W96
// 061   ----------------------------------------
 BYTE   W96
// 062   ----------------------------------------
 BYTE   W96
// 063   ----------------------------------------
 BYTE   W96
// 064   ----------------------------------------
 BYTE   W96
// 065   ----------------------------------------
 BYTE   W96
// 066   ----------------------------------------
 BYTE   W96
// 067   ----------------------------------------
 BYTE   W96
// 068   ----------------------------------------
 BYTE   W96
// 069   ----------------------------------------
 BYTE   W96
// 070   ----------------------------------------
 BYTE   W96
// 071   ----------------------------------------
 BYTE   W96
// 072   ----------------------------------------
 BYTE   W96
// 073   ----------------------------------------
 BYTE   W96
// 074   ----------------------------------------
 BYTE   W96
// 075   ----------------------------------------
 BYTE   W96
// 076   ----------------------------------------
 BYTE   W96
// 077   ----------------------------------------
 BYTE   W96
// 078   ----------------------------------------
 BYTE   W96
// 079   ----------------------------------------
 BYTE   W96
// 080   ----------------------------------------
 BYTE   W96
// 081   ----------------------------------------
 BYTE   W96
// 082   ----------------------------------------
 BYTE   W96
// 083   ----------------------------------------
 BYTE   W96
// 084   ----------------------------------------
 BYTE   W96
// 085   ----------------------------------------
 BYTE   W96
// 086   ----------------------------------------
 BYTE   W96
// 087   ----------------------------------------
 BYTE   W96
// 088   ----------------------------------------
 BYTE   W96
// 089   ----------------------------------------
 BYTE   W96
// 090   ----------------------------------------
 BYTE   W96
// 091   ----------------------------------------
 BYTE   W96
// 092   ----------------------------------------
 BYTE   W96
// 093   ----------------------------------------
 BYTE   W96
// 094   ----------------------------------------
 BYTE   W96
// 095   ----------------------------------------
 BYTE   W96
// 096   ----------------------------------------
 BYTE   PATT
  POIN2 Label_7_014B17CE
// 097   ----------------------------------------
 BYTE   PATT
  POIN2 Label_7_014B17E4
// 098   ----------------------------------------
 BYTE   W96
// 099   ----------------------------------------
 BYTE   W96
// 100   ----------------------------------------
 BYTE   W96
// 101   ----------------------------------------
 BYTE   W96
// 102   ----------------------------------------
 BYTE   W96
// 103   ----------------------------------------
 BYTE   W96
// 104   ----------------------------------------
 BYTE   W96
// 105   ----------------------------------------
 BYTE   W96
// 106   ----------------------------------------
 BYTE   W96
// 107   ----------------------------------------
 BYTE   W96
// 108   ----------------------------------------
 BYTE   W96
// 109   ----------------------------------------
 BYTE   W96
// 110   ----------------------------------------
 BYTE   W96
// 111   ----------------------------------------
 BYTE   W96
// 112   ----------------------------------------
 BYTE   W96
// 113   ----------------------------------------
 BYTE   PATT
  POIN2 Label_7_014B1808
// 114   ----------------------------------------
 BYTE   PATT
  POIN2 Label_7_014B1816
// 115   ----------------------------------------
 BYTE   PATT
  POIN2 Label_7_014B1823
// 116   ----------------------------------------
 BYTE   PATT
  POIN2 Label_7_014B182F
// 117   ----------------------------------------
 BYTE   PATT
  POIN2 Label_7_014B183C
// 118   ----------------------------------------
 BYTE   W48
 BYTE   N32  Ds6  v092
 BYTE   W48
// 119   ----------------------------------------
 BYTE   PATT
  POIN2 Label_7_014B184E
// 120   ----------------------------------------
 BYTE   PATT
  POIN2 Label_7_014B1857
// 121   ----------------------------------------
 BYTE   W48
 BYTE   N44  En6  v092
 BYTE   W48
// 122   ----------------------------------------
 BYTE   W96
// 123   ----------------------------------------
 BYTE   W96
// 124   ----------------------------------------
 BYTE   W96
// 125   ----------------------------------------
 BYTE   W96
// 126   ----------------------------------------
 BYTE   W96
// 127   ----------------------------------------
 BYTE   W96
// 128   ----------------------------------------
 BYTE   W96
// 129   ----------------------------------------
 BYTE   W96
// 130   ----------------------------------------
 BYTE   W96
// 131   ----------------------------------------
 BYTE   W96
// 132   ----------------------------------------
 BYTE   W96
// 133   ----------------------------------------
 BYTE   W96
// 134   ----------------------------------------
 BYTE   W96
// 135   ----------------------------------------
 BYTE   W96
// 136   ----------------------------------------
 BYTE   W96
// 137   ----------------------------------------
 BYTE   W96
// 138   ----------------------------------------
 BYTE   W96
// 139   ----------------------------------------
 BYTE   W96
// 140   ----------------------------------------
 BYTE   W96
// 141   ----------------------------------------
 BYTE   W96
// 142   ----------------------------------------
 BYTE   W96
// 143   ----------------------------------------
 BYTE   W96
// 144   ----------------------------------------
 BYTE   W96
// 145   ----------------------------------------
 BYTE   W96
// 146   ----------------------------------------
 BYTE   W96
// 147   ----------------------------------------
 BYTE   W96
// 148   ----------------------------------------
 BYTE   W96
// 149   ----------------------------------------
 BYTE   W96
// 150   ----------------------------------------
 BYTE   W96
// 151   ----------------------------------------
 BYTE   W96
// 152   ----------------------------------------
 BYTE   W96
// 153   ----------------------------------------
 BYTE   W96
// 154   ----------------------------------------
 BYTE   W96
// 155   ----------------------------------------
 BYTE   W96
// 156   ----------------------------------------
 BYTE   W96
// 157   ----------------------------------------
 BYTE   W96
// 158   ----------------------------------------
 BYTE   W96
// 159   ----------------------------------------
 BYTE   W96
// 160   ----------------------------------------
 BYTE   W96
// 161   ----------------------------------------
 BYTE   W96
// 162   ----------------------------------------
 BYTE   W96
// 163   ----------------------------------------
 BYTE   W96
// 164   ----------------------------------------
 BYTE   W96
// 165   ----------------------------------------
 BYTE   W96
// 166   ----------------------------------------
 BYTE   W96
// 167   ----------------------------------------
 BYTE   W96
// 168   ----------------------------------------
 BYTE   W96
// 169   ----------------------------------------
 BYTE   W96
// 170   ----------------------------------------
 BYTE   W96
// 171   ----------------------------------------
 BYTE   W96
// 172   ----------------------------------------
 BYTE   W96
// 173   ----------------------------------------
 BYTE   W96
// 174   ----------------------------------------
 BYTE   W96
// 175   ----------------------------------------
 BYTE   W96
// 176   ----------------------------------------
 BYTE   W96
// 177   ----------------------------------------
 BYTE   W96
// 178   ----------------------------------------
 BYTE   W96
// 179   ----------------------------------------
 BYTE   W96
// 180   ----------------------------------------
 BYTE   W96
// 181   ----------------------------------------
 BYTE   W96
// 182   ----------------------------------------
 BYTE   W96
// 183   ----------------------------------------
 BYTE   W96
// 184   ----------------------------------------
 BYTE   W96
// 185   ----------------------------------------
 BYTE   W96
// 186   ----------------------------------------
 BYTE   W96
// 187   ----------------------------------------
 BYTE   W96
// 188   ----------------------------------------
 BYTE   W96
// 189   ----------------------------------------
 BYTE   W96
// 190   ----------------------------------------
 BYTE   W96
// 191   ----------------------------------------
 BYTE   W96
// 192   ----------------------------------------
 BYTE   W96
// 193   ----------------------------------------
 BYTE   W96
// 194   ----------------------------------------
 BYTE   W96
// 195   ----------------------------------------
 BYTE   W96
// 196   ----------------------------------------
 BYTE   W96
// 197   ----------------------------------------
 BYTE   W96
// 198   ----------------------------------------
 BYTE   W96
// 199   ----------------------------------------
 BYTE   W96
// 200   ----------------------------------------
 BYTE   W96
// 201   ----------------------------------------
 BYTE   W96
// 202   ----------------------------------------
 BYTE   W96
// 203   ----------------------------------------
 BYTE   W48
 BYTE   N05  An5  v072
 BYTE   W06
 BYTE   Cs6
 BYTE   W06
 BYTE   Gs5  v076
 BYTE   W06
 BYTE   Cs6
 BYTE   W06
 BYTE   Gs5
 BYTE   W06
 BYTE   Cn6  v080
 BYTE   W06
 BYTE   Gn5
 BYTE   W06
 BYTE   Cn6
 BYTE   W06
// 204   ----------------------------------------
 BYTE   Gn5  v084
 BYTE   W06
 BYTE   Bn5
 BYTE   W06
 BYTE   Fs5
 BYTE   W06
 BYTE   Bn5  v088
 BYTE   W06
 BYTE   Fs5
 BYTE   W06
 BYTE   As5
 BYTE   W06
 BYTE   Fn5  v092
 BYTE   W06
 BYTE   As5
 BYTE   W06
 BYTE   GoTo
  POIN2 Label_7_014B17B2
 BYTE   FINE

//**************** Track 9 (Midi-Chn.8) ****************//

songC6_009:
// 000   ----------------------------------------
 BYTE   KEYSH   songC6_key+0
Label_8_014B0E6E:
 BYTE   VOICE   127
 BYTE   VOL   35*songC6_mvl/mxv
 BYTE   W36
 BYTE   N06  Dn1  v072
 BYTE   W12
 BYTE   N06
 BYTE   N06  Gs1  v080
 BYTE   W06
 BYTE   Fs1
 BYTE   W06
 BYTE   N06
 BYTE   W12
 BYTE   Gs1
 BYTE   W12
 BYTE   Fs1  v084
 BYTE   W12
// 001   ----------------------------------------
Label_8_014B0E85:
 BYTE   N06  Gs1  v084
 BYTE   W06
 BYTE   N06
 BYTE   W06
 BYTE   Fs1
 BYTE   W12
 BYTE   Gs1
 BYTE   W12
 BYTE   Dn1  v072
 BYTE   N06  Fs1  v084
 BYTE   N06  Gs1
 BYTE   W12
 BYTE   Dn1  v072
 BYTE   N06  Gs1  v084
 BYTE   W06
 BYTE   Fs1
 BYTE   W06
 BYTE   N06
 BYTE   W12
 BYTE   Gs1
 BYTE   W12
 BYTE   Fs1
 BYTE   W12
 BYTE   PEND 
// 002   ----------------------------------------
 BYTE   PATT
  POIN2 Label_8_014B0E85
// 003   ----------------------------------------
 BYTE   PATT
  POIN2 Label_8_014B0E85
// 004   ----------------------------------------
 BYTE   PATT
  POIN2 Label_8_014B0E85
// 005   ----------------------------------------
 BYTE   PATT
  POIN2 Label_8_014B0E85
// 006   ----------------------------------------
 BYTE   N06  Gs1  v084
 BYTE   W06
 BYTE   N06
 BYTE   W06
 BYTE   Fs1
 BYTE   W12
 BYTE   Gs1
 BYTE   W12
 BYTE   Dn1  v072
 BYTE   N06  Fs1  v084
 BYTE   N06  Gs1
 BYTE   W12
 BYTE   Dn1  v072
 BYTE   N06  Gs1  v084
 BYTE   W06
 BYTE   Fs1
 BYTE   W06
 BYTE   N06
 BYTE   W12
 BYTE   Gs1  v088
 BYTE   W12
 BYTE   Fs1
 BYTE   W12
// 007   ----------------------------------------
Label_8_014B0EDB:
 BYTE   N06  Gs1  v088
 BYTE   W06
 BYTE   N06
 BYTE   W06
 BYTE   Fs1
 BYTE   W12
 BYTE   Gs1
 BYTE   W12
 BYTE   Dn1  v072
 BYTE   N06  Fs1  v088
 BYTE   N06  Gs1
 BYTE   W12
 BYTE   Dn1  v072
 BYTE   N06  Gs1  v088
 BYTE   W06
 BYTE   Fs1
 BYTE   W06
 BYTE   N06
 BYTE   W12
 BYTE   Gs1
 BYTE   W12
 BYTE   Fs1
 BYTE   W12
 BYTE   PEND 
// 008   ----------------------------------------
 BYTE   PATT
  POIN2 Label_8_014B0EDB
// 009   ----------------------------------------
 BYTE   PATT
  POIN2 Label_8_014B0EDB
// 010   ----------------------------------------
 BYTE   PATT
  POIN2 Label_8_014B0EDB
// 011   ----------------------------------------
 BYTE   PATT
  POIN2 Label_8_014B0EDB
// 012   ----------------------------------------
 BYTE   N06  Gs1  v088
 BYTE   W06
 BYTE   N06
 BYTE   W06
 BYTE   Fs1
 BYTE   W12
 BYTE   Gs1
 BYTE   W12
 BYTE   Dn1  v072
 BYTE   N06  Fs1  v088
 BYTE   N06  Gs1
 BYTE   W12
 BYTE   Dn1  v072
 BYTE   N06  Gs1  v088
 BYTE   W06
 BYTE   Fs1
 BYTE   W06
 BYTE   Fs1  v092
 BYTE   W12
 BYTE   Gs1
 BYTE   W12
 BYTE   Fs1
 BYTE   W12
// 013   ----------------------------------------
 BYTE   Gs1
 BYTE   W06
 BYTE   N06
 BYTE   W06
 BYTE   Fs1
 BYTE   W12
 BYTE   Gs1
 BYTE   W12
 BYTE   Dn1  v072
 BYTE   N06  Fs1  v092
 BYTE   N06  Gs1
 BYTE   W12
 BYTE   Dn1  v072
 BYTE   N06  Gs1  v092
 BYTE   W06
 BYTE   Fs1
 BYTE   W06
 BYTE   N06
 BYTE   W12
 BYTE   Gs1
 BYTE   W12
 BYTE   Fs1
 BYTE   W12
// 014   ----------------------------------------
 BYTE   Gs1
 BYTE   W06
 BYTE   N06
 BYTE   W06
 BYTE   Fs1
 BYTE   W12
 BYTE   Gs1
 BYTE   W12
 BYTE   Dn1  v080
 BYTE   N06  Fs1  v092
 BYTE   N06  Gs1
 BYTE   W12
 BYTE   Dn1  v080
 BYTE   W12
 BYTE   N06
 BYTE   W12
 BYTE   N06
 BYTE   W24
// 015   ----------------------------------------
 BYTE   Dn1  v060
 BYTE   W06
 BYTE   Dn1  v064
 BYTE   W06
 BYTE   Dn1  v068
 BYTE   W06
 BYTE   N06
 BYTE   W06
 BYTE   Dn1  v072
 BYTE   W06
 BYTE   Dn1  v076
 BYTE   W06
 BYTE   N06
 BYTE   W06
 BYTE   Dn1  v080
 BYTE   W06
 BYTE   N06
 BYTE   N06  Fs1  v100
 BYTE   N06  An2  v064
 BYTE   W12
 BYTE   As1  v100
 BYTE   W12
 BYTE   Dn1  v080
 BYTE   N06  Fs1  v100
 BYTE   W12
 BYTE   As1
 BYTE   W12
// 016   ----------------------------------------
Label_8_014B0F8F:
 BYTE   N06  Fs1  v100
 BYTE   W06
 BYTE   Gs1  v092
 BYTE   W06
 BYTE   As1  v100
 BYTE   W06
 BYTE   Gs1
 BYTE   W06
 BYTE   Dn1  v080
 BYTE   N06  Fs1  v100
 BYTE   W06
 BYTE   Gs1
 BYTE   W06
 BYTE   As1
 BYTE   W12
 BYTE   Fs1
 BYTE   W12
 BYTE   As1
 BYTE   W12
 BYTE   Dn1  v080
 BYTE   N06  Fs1  v100
 BYTE   W12
 BYTE   As1
 BYTE   W12
 BYTE   PEND 
// 017   ----------------------------------------
 BYTE   PATT
  POIN2 Label_8_014B0F8F
// 018   ----------------------------------------
 BYTE   PATT
  POIN2 Label_8_014B0F8F
// 019   ----------------------------------------
 BYTE   PATT
  POIN2 Label_8_014B0F8F
// 020   ----------------------------------------
 BYTE   PATT
  POIN2 Label_8_014B0F8F
// 021   ----------------------------------------
 BYTE   PATT
  POIN2 Label_8_014B0F8F
// 022   ----------------------------------------
Label_8_014B0FCB:
 BYTE   N06  Fs1  v100
 BYTE   W06
 BYTE   Gs1  v092
 BYTE   W06
 BYTE   As1  v100
 BYTE   W06
 BYTE   Gs1
 BYTE   W06
 BYTE   Dn1  v080
 BYTE   N06  Fs1  v100
 BYTE   W06
 BYTE   Gs1
 BYTE   W06
 BYTE   As1
 BYTE   W12
 BYTE   Fs1
 BYTE   W12
 BYTE   As1  v092
 BYTE   W12
 BYTE   Dn1  v080
 BYTE   N06  Fs1  v100
 BYTE   W12
 BYTE   As1  v092
 BYTE   W12
 BYTE   PEND 
// 023   ----------------------------------------
Label_8_014B0FF0:
 BYTE   N06  Dn1  v060
 BYTE   N06  Fs1  v100
 BYTE   W06
 BYTE   Dn1  v064
 BYTE   W06
 BYTE   Dn1  v068
 BYTE   N06  As1  v092
 BYTE   W06
 BYTE   Dn1  v068
 BYTE   W06
 BYTE   Dn1  v072
 BYTE   N06  Fs1  v100
 BYTE   W06
 BYTE   Dn1  v076
 BYTE   W06
 BYTE   N06
 BYTE   N06  As1  v092
 BYTE   W06
 BYTE   Dn1  v080
 BYTE   W06
 BYTE   N06
 BYTE   N06  Fs1  v100
 BYTE   N06  An2  v064
 BYTE   W12
 BYTE   As1  v100
 BYTE   W12
 BYTE   Dn1  v080
 BYTE   N06  Fs1  v100
 BYTE   W12
 BYTE   As1
 BYTE   W12
 BYTE   PEND 
// 024   ----------------------------------------
 BYTE   PATT
  POIN2 Label_8_014B0F8F
// 025   ----------------------------------------
 BYTE   PATT
  POIN2 Label_8_014B0F8F
// 026   ----------------------------------------
 BYTE   PATT
  POIN2 Label_8_014B0F8F
// 027   ----------------------------------------
Label_8_014B1037:
 BYTE   N06  Fs1  v100
 BYTE   W06
 BYTE   Gs1  v092
 BYTE   W06
 BYTE   As1  v100
 BYTE   W06
 BYTE   Gs1
 BYTE   W06
 BYTE   Dn1  v080
 BYTE   N06  Fs1  v100
 BYTE   W06
 BYTE   Gs1
 BYTE   W06
 BYTE   As1
 BYTE   W12
 BYTE   Fs1
 BYTE   N06  An2  v064
 BYTE   W12
 BYTE   As1  v100
 BYTE   W12
 BYTE   Dn1  v080
 BYTE   N06  Fs1  v100
 BYTE   W12
 BYTE   As1
 BYTE   W12
 BYTE   PEND 
// 028   ----------------------------------------
 BYTE   PATT
  POIN2 Label_8_014B0F8F
// 029   ----------------------------------------
 BYTE   PATT
  POIN2 Label_8_014B0F8F
// 030   ----------------------------------------
 BYTE   PATT
  POIN2 Label_8_014B0F8F
// 031   ----------------------------------------
Label_8_014B106D:
 BYTE   N06  Fs1  v100
 BYTE   W06
 BYTE   Gs1  v092
 BYTE   W06
 BYTE   As1  v100
 BYTE   W06
 BYTE   Gs1
 BYTE   W06
 BYTE   Dn1  v080
 BYTE   N06  Fs1  v100
 BYTE   W06
 BYTE   Gs1
 BYTE   W06
 BYTE   As1
 BYTE   W06
 BYTE   Dn1  v080
 BYTE   W06
 BYTE   Fs1  v100
 BYTE   N06  An2  v064
 BYTE   W12
 BYTE   As1  v100
 BYTE   W12
 BYTE   Dn1  v080
 BYTE   N06  Fs1  v100
 BYTE   W12
 BYTE   As1
 BYTE   W12
 BYTE   PEND 
// 032   ----------------------------------------
 BYTE   PATT
  POIN2 Label_8_014B0F8F
// 033   ----------------------------------------
 BYTE   PATT
  POIN2 Label_8_014B0F8F
// 034   ----------------------------------------
 BYTE   PATT
  POIN2 Label_8_014B0F8F
// 035   ----------------------------------------
 BYTE   PATT
  POIN2 Label_8_014B1037
// 036   ----------------------------------------
 BYTE   PATT
  POIN2 Label_8_014B1037
// 037   ----------------------------------------
 BYTE   PATT
  POIN2 Label_8_014B1037
// 038   ----------------------------------------
 BYTE   PATT
  POIN2 Label_8_014B0F8F
// 039   ----------------------------------------
Label_8_014B10BB:
 BYTE   N06  Dn1  v080
 BYTE   N06  Fs1  v100
 BYTE   W06
 BYTE   Gs1  v092
 BYTE   W06
 BYTE   Dn1  v080
 BYTE   N06  As1  v100
 BYTE   W06
 BYTE   Gs1
 BYTE   W06
 BYTE   Dn1  v080
 BYTE   N06  Fs1  v100
 BYTE   W06
 BYTE   Dn1  v080
 BYTE   N06  Gs1  v100
 BYTE   W06
 BYTE   As1
 BYTE   W06
 BYTE   Dn1  v080
 BYTE   W06
 BYTE   Fs1  v100
 BYTE   N06  An2  v064
 BYTE   W12
 BYTE   As1  v100
 BYTE   W12
 BYTE   Cs1
 BYTE   N06  Fs1
 BYTE   W12
 BYTE   As1
 BYTE   W06
 BYTE   Fs1
 BYTE   W06
 BYTE   PEND 
// 040   ----------------------------------------
Label_8_014B10F0:
 BYTE   N06  Gs1  v100
 BYTE   W06
 BYTE   N06
 BYTE   W06
 BYTE   Cs1
 BYTE   N06  As1
 BYTE   W12
 BYTE   Fs1
 BYTE   W06
 BYTE   N06
 BYTE   W06
 BYTE   As1
 BYTE   W06
 BYTE   Fs1
 BYTE   W06
 BYTE   N06
 BYTE   W12
 BYTE   As1
 BYTE   W12
 BYTE   Cs1
 BYTE   N06  Fs1
 BYTE   W12
 BYTE   As1
 BYTE   W06
 BYTE   Fs1
 BYTE   W06
 BYTE   PEND 
// 041   ----------------------------------------
Label_8_014B110F:
 BYTE   N06  Gs1  v100
 BYTE   W06
 BYTE   N06
 BYTE   W06
 BYTE   Cs1
 BYTE   N06  As1
 BYTE   W12
 BYTE   Cs1
 BYTE   N06  Fs1
 BYTE   W06
 BYTE   N06
 BYTE   W06
 BYTE   As1
 BYTE   W06
 BYTE   Fs1
 BYTE   W06
 BYTE   N06
 BYTE   W12
 BYTE   As1
 BYTE   W12
 BYTE   Cs1
 BYTE   N06  Fs1
 BYTE   W12
 BYTE   As1
 BYTE   W06
 BYTE   Fs1
 BYTE   W06
 BYTE   PEND 
// 042   ----------------------------------------
 BYTE   PATT
  POIN2 Label_8_014B110F
// 043   ----------------------------------------
 BYTE   N06  Gs1  v100
 BYTE   W06
 BYTE   N06
 BYTE   W06
 BYTE   Cs1
 BYTE   N06  As1
 BYTE   W12
 BYTE   Fs1
 BYTE   W06
 BYTE   N06
 BYTE   W06
 BYTE   As1
 BYTE   W06
 BYTE   Fs1
 BYTE   W06
 BYTE   N06
 BYTE   N06  An2  v064
 BYTE   W12
 BYTE   As1  v100
 BYTE   W12
 BYTE   Cs1
 BYTE   N06  Fs1
 BYTE   W12
 BYTE   As1
 BYTE   W06
 BYTE   Fs1
 BYTE   W06
// 044   ----------------------------------------
 BYTE   PATT
  POIN2 Label_8_014B110F
// 045   ----------------------------------------
 BYTE   PATT
  POIN2 Label_8_014B110F
// 046   ----------------------------------------
Label_8_014B1161:
 BYTE   N06  Gs1  v100
 BYTE   W06
 BYTE   N06
 BYTE   W06
 BYTE   Cs1
 BYTE   N06  As1
 BYTE   W12
 BYTE   Fs1
 BYTE   W06
 BYTE   N06
 BYTE   W06
 BYTE   As1
 BYTE   W06
 BYTE   Fs1
 BYTE   W06
 BYTE   N06
 BYTE   W12
 BYTE   As1
 BYTE   W12
 BYTE   Dn1  v080
 BYTE   N06  Fs1  v100
 BYTE   W12
 BYTE   As1
 BYTE   W06
 BYTE   Fs1
 BYTE   W06
 BYTE   PEND 
// 047   ----------------------------------------
 BYTE   Dn1  v060
 BYTE   N06  Gs1  v100
 BYTE   W06
 BYTE   Dn1  v064
 BYTE   N06  Gs1  v100
 BYTE   W06
 BYTE   Dn1  v068
 BYTE   N06  As1  v100
 BYTE   W06
 BYTE   Dn1  v068
 BYTE   W06
 BYTE   Dn1  v072
 BYTE   N06  Fs1  v100
 BYTE   W06
 BYTE   Dn1  v076
 BYTE   N06  Fs1  v100
 BYTE   W06
 BYTE   Dn1  v076
 BYTE   N06  As1  v100
 BYTE   W06
 BYTE   Dn1  v080
 BYTE   N06  Fs1  v100
 BYTE   W06
 BYTE   Dn1  v080
 BYTE   N06  Fs1  v100
 BYTE   N06  An2  v064
 BYTE   W12
 BYTE   Fs1  v100
 BYTE   N06  As1
 BYTE   W12
 BYTE   Dn1  v080
 BYTE   N06  Fs1  v100
 BYTE   W12
 BYTE   N06
 BYTE   N06  As1
 BYTE   W12
// 048   ----------------------------------------
Label_8_014B11C7:
 BYTE   N06  Gs1  v100
 BYTE   W06
 BYTE   Gs1  v092
 BYTE   W06
 BYTE   Fs1  v100
 BYTE   N06  As1
 BYTE   W12
 BYTE   Dn1  v080
 BYTE   N06  Fs1  v100
 BYTE   W12
 BYTE   N06
 BYTE   N06  As1
 BYTE   W12
 BYTE   Fs1
 BYTE   W12
 BYTE   N06
 BYTE   N06  As1
 BYTE   W12
 BYTE   Dn1  v080
 BYTE   N06  Fs1  v100
 BYTE   W12
 BYTE   N06
 BYTE   N06  As1
 BYTE   W12
 BYTE   PEND 
// 049   ----------------------------------------
 BYTE   PATT
  POIN2 Label_8_014B11C7
// 050   ----------------------------------------
 BYTE   PATT
  POIN2 Label_8_014B11C7
// 051   ----------------------------------------
Label_8_014B11F8:
 BYTE   N06  Gs1  v100
 BYTE   W06
 BYTE   Gs1  v092
 BYTE   W06
 BYTE   Fs1  v100
 BYTE   N06  As1
 BYTE   W12
 BYTE   Dn1  v080
 BYTE   N06  Fs1  v100
 BYTE   W12
 BYTE   N06
 BYTE   N06  As1
 BYTE   W12
 BYTE   Fs1
 BYTE   N06  An2  v064
 BYTE   W12
 BYTE   Fs1  v100
 BYTE   N06  As1
 BYTE   W12
 BYTE   Dn1  v080
 BYTE   N06  Fs1  v100
 BYTE   W12
 BYTE   N06
 BYTE   N06  As1
 BYTE   W12
 BYTE   PEND 
// 052   ----------------------------------------
 BYTE   PATT
  POIN2 Label_8_014B11C7
// 053   ----------------------------------------
 BYTE   PATT
  POIN2 Label_8_014B11F8
// 054   ----------------------------------------
 BYTE   PATT
  POIN2 Label_8_014B11C7
// 055   ----------------------------------------
Label_8_014B1232:
 BYTE   N06  Gs1  v100
 BYTE   W06
 BYTE   Gs1  v092
 BYTE   W06
 BYTE   Fs1  v100
 BYTE   N06  As1
 BYTE   W12
 BYTE   Dn1  v080
 BYTE   N06  Fs1  v100
 BYTE   W12
 BYTE   N06
 BYTE   N06  As1
 BYTE   W06
 BYTE   Dn1  v080
 BYTE   W06
 BYTE   Fs1  v100
 BYTE   N06  An2  v064
 BYTE   W12
 BYTE   Fs1  v100
 BYTE   N06  As1
 BYTE   W12
 BYTE   Dn1  v080
 BYTE   N06  Fs1  v100
 BYTE   W12
 BYTE   N06
 BYTE   N06  As1
 BYTE   W12
 BYTE   PEND 
// 056   ----------------------------------------
 BYTE   PATT
  POIN2 Label_8_014B11C7
// 057   ----------------------------------------
 BYTE   PATT
  POIN2 Label_8_014B11C7
// 058   ----------------------------------------
 BYTE   PATT
  POIN2 Label_8_014B11C7
// 059   ----------------------------------------
 BYTE   PATT
  POIN2 Label_8_014B11F8
// 060   ----------------------------------------
 BYTE   PATT
  POIN2 Label_8_014B11C7
// 061   ----------------------------------------
 BYTE   PATT
  POIN2 Label_8_014B11F8
// 062   ----------------------------------------
 BYTE   PATT
  POIN2 Label_8_014B11C7
// 063   ----------------------------------------
Label_8_014B1284:
 BYTE   N06  Gs1  v100
 BYTE   W06
 BYTE   Gs1  v092
 BYTE   W06
 BYTE   Dn1  v080
 BYTE   N06  Fs1  v100
 BYTE   N06  As1
 BYTE   W12
 BYTE   Dn1  v080
 BYTE   N06  Fs1  v100
 BYTE   W06
 BYTE   Dn1  v080
 BYTE   W06
 BYTE   N06
 BYTE   N06  Fs1  v100
 BYTE   N06  As1
 BYTE   W06
 BYTE   Dn1  v080
 BYTE   W06
 BYTE   Fs1  v100
 BYTE   N06  An2  v064
 BYTE   W12
 BYTE   Fs1  v100
 BYTE   N06  As1
 BYTE   W12
 BYTE   Dn1  v080
 BYTE   N06  Fs1  v100
 BYTE   W12
 BYTE   N06
 BYTE   N06  As1
 BYTE   W12
 BYTE   PEND 
// 064   ----------------------------------------
 BYTE   PATT
  POIN2 Label_8_014B11C7
// 065   ----------------------------------------
 BYTE   PATT
  POIN2 Label_8_014B11C7
// 066   ----------------------------------------
 BYTE   PATT
  POIN2 Label_8_014B11C7
// 067   ----------------------------------------
 BYTE   PATT
  POIN2 Label_8_014B11F8
// 068   ----------------------------------------
 BYTE   PATT
  POIN2 Label_8_014B11C7
// 069   ----------------------------------------
 BYTE   PATT
  POIN2 Label_8_014B11F8
// 070   ----------------------------------------
 BYTE   PATT
  POIN2 Label_8_014B11C7
// 071   ----------------------------------------
 BYTE   PATT
  POIN2 Label_8_014B1232
// 072   ----------------------------------------
 BYTE   PATT
  POIN2 Label_8_014B11C7
// 073   ----------------------------------------
 BYTE   PATT
  POIN2 Label_8_014B11C7
// 074   ----------------------------------------
 BYTE   PATT
  POIN2 Label_8_014B11C7
// 075   ----------------------------------------
 BYTE   PATT
  POIN2 Label_8_014B11F8
// 076   ----------------------------------------
 BYTE   PATT
  POIN2 Label_8_014B11C7
// 077   ----------------------------------------
 BYTE   PATT
  POIN2 Label_8_014B11F8
// 078   ----------------------------------------
 BYTE   PATT
  POIN2 Label_8_014B11C7
// 079   ----------------------------------------
 BYTE   N06  Dn1  v080
 BYTE   N06  Gs1  v100
 BYTE   W06
 BYTE   Dn1  v080
 BYTE   N06  Gs1  v092
 BYTE   W06
 BYTE   Dn1  v080
 BYTE   N06  Fs1  v100
 BYTE   N06  As1
 BYTE   W12
 BYTE   Dn1  v080
 BYTE   N06  Fs1  v100
 BYTE   W06
 BYTE   Dn1  v080
 BYTE   W06
 BYTE   Fs1  v100
 BYTE   N06  As1
 BYTE   W06
 BYTE   Dn1  v080
 BYTE   W06
 BYTE   Dn1  v100
 BYTE   N06  Fn2
 BYTE   N06  Gn2
 BYTE   N06  An2  v064
 BYTE   W24
 BYTE   Fn2  v100
 BYTE   N06  Gn2
 BYTE   W24
// 080   ----------------------------------------
Label_8_014B133C:
 BYTE   N06  Fn2  v100
 BYTE   N06  Gn2
 BYTE   W24
 BYTE   Fn2
 BYTE   N06  Gn2
 BYTE   W24
 BYTE   Fn2
 BYTE   N06  Gn2
 BYTE   W24
 BYTE   Fn2
 BYTE   N06  Gn2
 BYTE   W24
 BYTE   PEND 
// 081   ----------------------------------------
 BYTE   Dn1  v080
 BYTE   N06  Fn2  v100
 BYTE   N06  Gn2
 BYTE   W06
 BYTE   Dn1  v080
 BYTE   W06
 BYTE   N06
 BYTE   W06
 BYTE   N06
 BYTE   W06
 BYTE   N06
 BYTE   N06  Fn2  v100
 BYTE   N06  Gn2
 BYTE   W06
 BYTE   Dn1  v080
 BYTE   W06
 BYTE   N06
 BYTE   W06
 BYTE   N06
 BYTE   W06
 BYTE   N06
 BYTE   N06  Fs1  v072
 BYTE   W12
 BYTE   N06
 BYTE   W06
 BYTE   N06
 BYTE   W06
 BYTE   As1  v080
 BYTE   W24
// 082   ----------------------------------------
Label_8_014B1378:
 BYTE   N06  Dn1  v080
 BYTE   N06  Fs1  v072
 BYTE   W12
 BYTE   N06
 BYTE   W06
 BYTE   N06
 BYTE   W06
 BYTE   As1  v080
 BYTE   W24
 BYTE   Dn1
 BYTE   N06  Fs1  v072
 BYTE   W12
 BYTE   N06
 BYTE   W06
 BYTE   N06
 BYTE   W06
 BYTE   As1  v080
 BYTE   W24
 BYTE   PEND 
// 083   ----------------------------------------
 BYTE   PATT
  POIN2 Label_8_014B1378
// 084   ----------------------------------------
 BYTE   PATT
  POIN2 Label_8_014B1378
// 085   ----------------------------------------
 BYTE   PATT
  POIN2 Label_8_014B1378
// 086   ----------------------------------------
 BYTE   N06  Dn1  v080
 BYTE   N06  Fs1  v072
 BYTE   W12
 BYTE   N06
 BYTE   W06
 BYTE   N06
 BYTE   W06
 BYTE   As1  v080
 BYTE   W24
 BYTE   Dn1  v084
 BYTE   N06  Fs1  v072
 BYTE   W12
 BYTE   N06
 BYTE   W06
 BYTE   N06
 BYTE   W06
 BYTE   As1  v080
 BYTE   W24
// 087   ----------------------------------------
 BYTE   PATT
  POIN2 Label_8_014B1378
// 088   ----------------------------------------
 BYTE   N06  Dn1  v080
 BYTE   N06  Fs1  v072
 BYTE   W12
 BYTE   N06
 BYTE   W06
 BYTE   N06
 BYTE   W06
 BYTE   As1  v080
 BYTE   W24
 BYTE   Fs1  v072
 BYTE   W12
 BYTE   N06
 BYTE   W06
 BYTE   N06
 BYTE   W06
 BYTE   Cs2  v064
 BYTE   W24
// 089   ----------------------------------------
 BYTE   Dn1  v060
 BYTE   N06  Fs1  v072
 BYTE   W06
 BYTE   Dn1  v064
 BYTE   W06
 BYTE   Dn1  v068
 BYTE   N06  Fs1  v072
 BYTE   W06
 BYTE   Dn1  v068
 BYTE   N06  Fs1  v072
 BYTE   W06
 BYTE   Dn1
 BYTE   W06
 BYTE   Dn1  v076
 BYTE   W06
 BYTE   N06
 BYTE   W06
 BYTE   Dn1  v080
 BYTE   W06
 BYTE   N06
 BYTE   N06  Fs1  v100
 BYTE   N06  An2  v064
 BYTE   W12
 BYTE   As1  v100
 BYTE   W12
 BYTE   Dn1  v080
 BYTE   N06  Fs1  v100
 BYTE   W12
 BYTE   As1
 BYTE   W12
// 090   ----------------------------------------
 BYTE   PATT
  POIN2 Label_8_014B0F8F
// 091   ----------------------------------------
 BYTE   PATT
  POIN2 Label_8_014B0F8F
// 092   ----------------------------------------
 BYTE   PATT
  POIN2 Label_8_014B0F8F
// 093   ----------------------------------------
 BYTE   PATT
  POIN2 Label_8_014B0F8F
// 094   ----------------------------------------
 BYTE   PATT
  POIN2 Label_8_014B0F8F
// 095   ----------------------------------------
 BYTE   PATT
  POIN2 Label_8_014B0F8F
// 096   ----------------------------------------
 BYTE   PATT
  POIN2 Label_8_014B0FCB
// 097   ----------------------------------------
 BYTE   PATT
  POIN2 Label_8_014B0FF0
// 098   ----------------------------------------
 BYTE   PATT
  POIN2 Label_8_014B0F8F
// 099   ----------------------------------------
 BYTE   PATT
  POIN2 Label_8_014B0F8F
// 100   ----------------------------------------
 BYTE   PATT
  POIN2 Label_8_014B0F8F
// 101   ----------------------------------------
 BYTE   PATT
  POIN2 Label_8_014B1037
// 102   ----------------------------------------
 BYTE   PATT
  POIN2 Label_8_014B0F8F
// 103   ----------------------------------------
 BYTE   PATT
  POIN2 Label_8_014B0F8F
// 104   ----------------------------------------
 BYTE   PATT
  POIN2 Label_8_014B0F8F
// 105   ----------------------------------------
 BYTE   PATT
  POIN2 Label_8_014B106D
// 106   ----------------------------------------
 BYTE   PATT
  POIN2 Label_8_014B0F8F
// 107   ----------------------------------------
 BYTE   PATT
  POIN2 Label_8_014B0F8F
// 108   ----------------------------------------
 BYTE   PATT
  POIN2 Label_8_014B0F8F
// 109   ----------------------------------------
 BYTE   PATT
  POIN2 Label_8_014B1037
// 110   ----------------------------------------
 BYTE   PATT
  POIN2 Label_8_014B1037
// 111   ----------------------------------------
 BYTE   PATT
  POIN2 Label_8_014B1037
// 112   ----------------------------------------
 BYTE   PATT
  POIN2 Label_8_014B0F8F
// 113   ----------------------------------------
 BYTE   PATT
  POIN2 Label_8_014B10BB
// 114   ----------------------------------------
 BYTE   PATT
  POIN2 Label_8_014B10F0
// 115   ----------------------------------------
 BYTE   PATT
  POIN2 Label_8_014B110F
// 116   ----------------------------------------
 BYTE   PATT
  POIN2 Label_8_014B110F
// 117   ----------------------------------------
 BYTE   N06  Gs1  v100
 BYTE   W06
 BYTE   N06
 BYTE   W06
 BYTE   Cs1
 BYTE   N06  As1
 BYTE   W12
 BYTE   Fs1
 BYTE   W06
 BYTE   N06
 BYTE   W06
 BYTE   As1
 BYTE   W06
 BYTE   Fs1
 BYTE   W06
 BYTE   N06
 BYTE   N06  Cs2  v064
 BYTE   W12
 BYTE   As1  v100
 BYTE   W12
 BYTE   Cs1
 BYTE   N06  Fs1
 BYTE   W12
 BYTE   As1
 BYTE   W06
 BYTE   Fs1
 BYTE   W06
// 118   ----------------------------------------
 BYTE   PATT
  POIN2 Label_8_014B110F
// 119   ----------------------------------------
 BYTE   PATT
  POIN2 Label_8_014B110F
// 120   ----------------------------------------
 BYTE   PATT
  POIN2 Label_8_014B10F0
// 121   ----------------------------------------
 BYTE   PATT
  POIN2 Label_8_014B1161
// 122   ----------------------------------------
 BYTE   N06  Dn1  v060
 BYTE   N06  Gs1  v100
 BYTE   W06
 BYTE   Dn1  v064
 BYTE   N06  Gs1  v100
 BYTE   W06
 BYTE   Dn1  v068
 BYTE   W06
 BYTE   N06
 BYTE   W06
 BYTE   Dn1  v072
 BYTE   N06  Fs1  v100
 BYTE   W06
 BYTE   Dn1  v076
 BYTE   N06  Fs1  v100
 BYTE   W06
 BYTE   Dn1  v076
 BYTE   W06
 BYTE   Dn1  v080
 BYTE   N06  Fs1  v100
 BYTE   W06
 BYTE   Dn1  v080
 BYTE   N06  Fs1  v100
 BYTE   N06  An2  v064
 BYTE   W12
 BYTE   Fs1  v100
 BYTE   N06  As1
 BYTE   W12
 BYTE   Dn1  v080
 BYTE   N06  Fs1  v100
 BYTE   W12
 BYTE   N06
 BYTE   N06  As1
 BYTE   W12
// 123   ----------------------------------------
 BYTE   PATT
  POIN2 Label_8_014B11C7
// 124   ----------------------------------------
 BYTE   PATT
  POIN2 Label_8_014B11C7
// 125   ----------------------------------------
 BYTE   PATT
  POIN2 Label_8_014B11C7
// 126   ----------------------------------------
 BYTE   PATT
  POIN2 Label_8_014B11F8
// 127   ----------------------------------------
 BYTE   PATT
  POIN2 Label_8_014B11C7
// 128   ----------------------------------------
 BYTE   PATT
  POIN2 Label_8_014B11F8
// 129   ----------------------------------------
 BYTE   PATT
  POIN2 Label_8_014B11C7
// 130   ----------------------------------------
 BYTE   PATT
  POIN2 Label_8_014B1232
// 131   ----------------------------------------
 BYTE   PATT
  POIN2 Label_8_014B11C7
// 132   ----------------------------------------
 BYTE   PATT
  POIN2 Label_8_014B11C7
// 133   ----------------------------------------
 BYTE   PATT
  POIN2 Label_8_014B11C7
// 134   ----------------------------------------
 BYTE   PATT
  POIN2 Label_8_014B11F8
// 135   ----------------------------------------
 BYTE   PATT
  POIN2 Label_8_014B11C7
// 136   ----------------------------------------
 BYTE   PATT
  POIN2 Label_8_014B11F8
// 137   ----------------------------------------
 BYTE   PATT
  POIN2 Label_8_014B11C7
// 138   ----------------------------------------
 BYTE   PATT
  POIN2 Label_8_014B1284
// 139   ----------------------------------------
 BYTE   PATT
  POIN2 Label_8_014B11C7
// 140   ----------------------------------------
 BYTE   PATT
  POIN2 Label_8_014B11C7
// 141   ----------------------------------------
 BYTE   PATT
  POIN2 Label_8_014B11C7
// 142   ----------------------------------------
 BYTE   PATT
  POIN2 Label_8_014B11F8
// 143   ----------------------------------------
 BYTE   PATT
  POIN2 Label_8_014B11C7
// 144   ----------------------------------------
 BYTE   PATT
  POIN2 Label_8_014B11F8
// 145   ----------------------------------------
 BYTE   PATT
  POIN2 Label_8_014B11C7
// 146   ----------------------------------------
 BYTE   PATT
  POIN2 Label_8_014B1232
// 147   ----------------------------------------
 BYTE   PATT
  POIN2 Label_8_014B11C7
// 148   ----------------------------------------
 BYTE   PATT
  POIN2 Label_8_014B11C7
// 149   ----------------------------------------
 BYTE   PATT
  POIN2 Label_8_014B11C7
// 150   ----------------------------------------
 BYTE   PATT
  POIN2 Label_8_014B11F8
// 151   ----------------------------------------
 BYTE   PATT
  POIN2 Label_8_014B11C7
// 152   ----------------------------------------
 BYTE   PATT
  POIN2 Label_8_014B11F8
// 153   ----------------------------------------
 BYTE   PATT
  POIN2 Label_8_014B11C7
// 154   ----------------------------------------
 BYTE   N06  Gs1  v100
 BYTE   W06
 BYTE   Gs1  v092
 BYTE   W06
 BYTE   Fs1  v100
 BYTE   N06  As1
 BYTE   W12
 BYTE   Dn1  v080
 BYTE   N06  Fs1  v100
 BYTE   W12
 BYTE   N06
 BYTE   N06  As1
 BYTE   W12
 BYTE   Cs2  v064
 BYTE   N06  An2
 BYTE   W48
// 155   ----------------------------------------
 BYTE   W96
// 156   ----------------------------------------
 BYTE   W96
// 157   ----------------------------------------
 BYTE   W96
// 158   ----------------------------------------
 BYTE   W96
// 159   ----------------------------------------
 BYTE   W96
// 160   ----------------------------------------
 BYTE   W96
// 161   ----------------------------------------
 BYTE   W96
// 162   ----------------------------------------
 BYTE   W48
 BYTE   Fs1  v100
 BYTE   W18
 BYTE   Fs1  v080
 BYTE   W06
 BYTE   Fs1  v100
 BYTE   W18
 BYTE   Fs1  v080
 BYTE   W06
// 163   ----------------------------------------
Label_8_014B15D2:
 BYTE   N06  Fs1  v100
 BYTE   W18
 BYTE   Fs1  v080
 BYTE   W06
 BYTE   Fs1  v100
 BYTE   W18
 BYTE   Fs1  v080
 BYTE   W06
 BYTE   Fs1  v100
 BYTE   W18
 BYTE   Fs1  v080
 BYTE   W06
 BYTE   Fs1  v100
 BYTE   W18
 BYTE   Fs1  v080
 BYTE   W06
 BYTE   PEND 
// 164   ----------------------------------------
 BYTE   PATT
  POIN2 Label_8_014B15D2
// 165   ----------------------------------------
 BYTE   PATT
  POIN2 Label_8_014B15D2
// 166   ----------------------------------------
 BYTE   PATT
  POIN2 Label_8_014B15D2
// 167   ----------------------------------------
 BYTE   PATT
  POIN2 Label_8_014B15D2
// 168   ----------------------------------------
 BYTE   PATT
  POIN2 Label_8_014B15D2
// 169   ----------------------------------------
 BYTE   N06  Fs1  v100
 BYTE   W18
 BYTE   Fs1  v080
 BYTE   W06
 BYTE   Fs1  v100
 BYTE   W18
 BYTE   Fs1  v080
 BYTE   W06
 BYTE   Dn1
 BYTE   N06  Fs1  v100
 BYTE   N06  Gs1
 BYTE   W12
 BYTE   Fs1
 BYTE   W06
 BYTE   Dn1  v080
 BYTE   W06
 BYTE   Fs1  v100
 BYTE   W06
 BYTE   Gs1
 BYTE   W06
 BYTE   Dn1  v080
 BYTE   N06  Fs1  v100
 BYTE   N06  As1
 BYTE   W06
 BYTE   Gs1
 BYTE   W06
// 170   ----------------------------------------
 BYTE   Dn1  v080
 BYTE   N06  Fs1  v100
 BYTE   W06
 BYTE   Dn1  v080
 BYTE   W06
 BYTE   N06
 BYTE   N06  Fs1  v100
 BYTE   W06
 BYTE   Dn1  v080
 BYTE   W06
 BYTE   N06
 BYTE   N06  Fs1  v100
 BYTE   W06
 BYTE   Dn1  v080
 BYTE   W06
 BYTE   N06
 BYTE   N06  Fs1  v100
 BYTE   W06
 BYTE   Dn1  v080
 BYTE   W06
 BYTE   N06
 BYTE   N06  Fs1  v100
 BYTE   N06  An2  v064
 BYTE   W12
 BYTE   Fs1  v100
 BYTE   N06  As1
 BYTE   W12
 BYTE   Dn1  v080
 BYTE   N06  Fs1  v100
 BYTE   W12
 BYTE   N06
 BYTE   N06  As1
 BYTE   W12
// 171   ----------------------------------------
 BYTE   PATT
  POIN2 Label_8_014B11C7
// 172   ----------------------------------------
 BYTE   PATT
  POIN2 Label_8_014B11C7
// 173   ----------------------------------------
 BYTE   PATT
  POIN2 Label_8_014B11C7
// 174   ----------------------------------------
 BYTE   PATT
  POIN2 Label_8_014B11F8
// 175   ----------------------------------------
 BYTE   PATT
  POIN2 Label_8_014B11C7
// 176   ----------------------------------------
 BYTE   PATT
  POIN2 Label_8_014B11F8
// 177   ----------------------------------------
 BYTE   PATT
  POIN2 Label_8_014B11C7
// 178   ----------------------------------------
 BYTE   PATT
  POIN2 Label_8_014B1232
// 179   ----------------------------------------
 BYTE   PATT
  POIN2 Label_8_014B11C7
// 180   ----------------------------------------
 BYTE   PATT
  POIN2 Label_8_014B11C7
// 181   ----------------------------------------
 BYTE   PATT
  POIN2 Label_8_014B11C7
// 182   ----------------------------------------
 BYTE   PATT
  POIN2 Label_8_014B11F8
// 183   ----------------------------------------
 BYTE   PATT
  POIN2 Label_8_014B11C7
// 184   ----------------------------------------
 BYTE   PATT
  POIN2 Label_8_014B11F8
// 185   ----------------------------------------
 BYTE   PATT
  POIN2 Label_8_014B11C7
// 186   ----------------------------------------
 BYTE   N06  Gs1  v100
 BYTE   W06
 BYTE   Gs1  v092
 BYTE   W06
 BYTE   Fs1  v100
 BYTE   N06  As1
 BYTE   W12
 BYTE   Dn1  v080
 BYTE   N06  Fs1  v100
 BYTE   W12
 BYTE   N06
 BYTE   N06  As1
 BYTE   W12
 BYTE   Fn2
 BYTE   N06  Gn2
 BYTE   N06  An2  v064
 BYTE   W24
 BYTE   Fn2  v100
 BYTE   N06  Gn2
 BYTE   W24
// 187   ----------------------------------------
 BYTE   PATT
  POIN2 Label_8_014B133C
// 188   ----------------------------------------
 BYTE   N06  Dn1  v080
 BYTE   N06  Fn2  v100
 BYTE   N06  Gn2
 BYTE   W06
 BYTE   Dn1  v080
 BYTE   W06
 BYTE   N06
 BYTE   W06
 BYTE   N06
 BYTE   W06
 BYTE   N06
 BYTE   N06  Fn2  v100
 BYTE   N06  Gn2
 BYTE   W06
 BYTE   Dn1  v080
 BYTE   W06
 BYTE   N06
 BYTE   W06
 BYTE   N06
 BYTE   W06
 BYTE   Fs1  v072
 BYTE   N06  Fs2  v127
 BYTE   W12
 BYTE   Fs1  v072
 BYTE   W06
 BYTE   N06
 BYTE   W06
 BYTE   As1  v080
 BYTE   W24
// 189   ----------------------------------------
Label_8_014B1703:
 BYTE   N06  Fs1  v072
 BYTE   N06  Fs2  v127
 BYTE   W12
 BYTE   Fs1  v072
 BYTE   W06
 BYTE   N06
 BYTE   W06
 BYTE   As1  v080
 BYTE   W24
 BYTE   Fs1  v072
 BYTE   N06  Fs2  v127
 BYTE   W12
 BYTE   Fs1  v072
 BYTE   W06
 BYTE   N06
 BYTE   W06
 BYTE   As1  v080
 BYTE   W24
 BYTE   PEND 
// 190   ----------------------------------------
 BYTE   PATT
  POIN2 Label_8_014B1703
// 191   ----------------------------------------
 BYTE   PATT
  POIN2 Label_8_014B1703
// 192   ----------------------------------------
 BYTE   PATT
  POIN2 Label_8_014B1703
// 193   ----------------------------------------
 BYTE   PATT
  POIN2 Label_8_014B1703
// 194   ----------------------------------------
 BYTE   PATT
  POIN2 Label_8_014B1703
// 195   ----------------------------------------
 BYTE   PATT
  POIN2 Label_8_014B1703
// 196   ----------------------------------------
 BYTE   PATT
  POIN2 Label_8_014B1703
// 197   ----------------------------------------
 BYTE   PATT
  POIN2 Label_8_014B1703
// 198   ----------------------------------------
 BYTE   PATT
  POIN2 Label_8_014B1703
// 199   ----------------------------------------
 BYTE   PATT
  POIN2 Label_8_014B1703
// 200   ----------------------------------------
 BYTE   PATT
  POIN2 Label_8_014B1703
// 201   ----------------------------------------
 BYTE   PATT
  POIN2 Label_8_014B1703
// 202   ----------------------------------------
 BYTE   PATT
  POIN2 Label_8_014B1703
// 203   ----------------------------------------
 BYTE   N06  Fs1  v072
 BYTE   N06  Fs2  v127
 BYTE   W12
 BYTE   Dn1  v080
 BYTE   N06  Fs1  v072
 BYTE   W06
 BYTE   N06
 BYTE   W06
 BYTE   As1  v080
 BYTE   W12
 BYTE   Dn1
 BYTE   W12
 BYTE   Fs1  v072
 BYTE   W06
 BYTE   N06
 BYTE   W06
 BYTE   Dn1  v080
 BYTE   N06  Cs2  v064
 BYTE   W12
 BYTE   Fs1  v072
 BYTE   W06
 BYTE   N06
 BYTE   W06
 BYTE   Dn1  v080
 BYTE   N06  Cs2  v064
 BYTE   W12
// 204   ----------------------------------------
 BYTE   Dn1
 BYTE   N06  Fs1  v072
 BYTE   W06
 BYTE   Dn1  v068
 BYTE   W06
 BYTE   N06
 BYTE   N06  Fs1  v072
 BYTE   W06
 BYTE   Dn1
 BYTE   N06  Fs1
 BYTE   W06
 BYTE   Dn1  v076
 BYTE   W06
 BYTE   N06
 BYTE   W06
 BYTE   Dn1  v080
 BYTE   W06
 BYTE   N06
 BYTE   W06
 BYTE   GoTo
  POIN2 Label_8_014B0E6E
 BYTE   FINE

//**************** Track 10 (Midi-Chn.9) ****************//

songC6_010:
// 000   ----------------------------------------
 BYTE   KEYSH   songC6_key+0
Label_9_014B1ABA:
 BYTE   VOICE   100
 BYTE   PAN   c_v-28
 BYTE   VOL   27*songC6_mvl/mxv
 BYTE   W96
// 001   ----------------------------------------
 BYTE   W96
// 002   ----------------------------------------
 BYTE   W96
// 003   ----------------------------------------
 BYTE   W96
// 004   ----------------------------------------
 BYTE   W96
// 005   ----------------------------------------
 BYTE   W96
// 006   ----------------------------------------
 BYTE   W96
// 007   ----------------------------------------
 BYTE   W96
// 008   ----------------------------------------
 BYTE   W96
// 009   ----------------------------------------
 BYTE   W96
// 010   ----------------------------------------
 BYTE   W96
// 011   ----------------------------------------
 BYTE   W96
// 012   ----------------------------------------
 BYTE   W96
// 013   ----------------------------------------
 BYTE   W96
// 014   ----------------------------------------
 BYTE   W96
// 015   ----------------------------------------
 BYTE   W96
// 016   ----------------------------------------
 BYTE   W96
// 017   ----------------------------------------
 BYTE   W96
// 018   ----------------------------------------
 BYTE   W96
// 019   ----------------------------------------
 BYTE   W96
// 020   ----------------------------------------
 BYTE   W96
// 021   ----------------------------------------
 BYTE   W96
// 022   ----------------------------------------
Label_9_014B1AD6:
 BYTE   W48
 BYTE   N92  Gs5  v072
 BYTE   N92  Bn5
 BYTE   N92  Fs6
 BYTE   W48
 BYTE   PEND 
// 023   ----------------------------------------
 BYTE   W96
// 024   ----------------------------------------
 BYTE   W96
// 025   ----------------------------------------
 BYTE   W96
// 026   ----------------------------------------
 BYTE   W96
// 027   ----------------------------------------
 BYTE   W96
// 028   ----------------------------------------
 BYTE   W96
// 029   ----------------------------------------
 BYTE   W96
// 030   ----------------------------------------
 BYTE   W48
 BYTE   N44  Cs5
 BYTE   N44  Gs5
 BYTE   N44  Cs6
 BYTE   W48
// 031   ----------------------------------------
 BYTE   Cn5
 BYTE   N44  Gs5
 BYTE   N44  Ds6
 BYTE   W96
// 032   ----------------------------------------
 BYTE   W96
// 033   ----------------------------------------
 BYTE   W96
// 034   ----------------------------------------
 BYTE   W96
// 035   ----------------------------------------
 BYTE   W96
// 036   ----------------------------------------
 BYTE   W96
// 037   ----------------------------------------
 BYTE   W96
// 038   ----------------------------------------
Label_9_014B1AFB:
 BYTE   W48
 BYTE   N23  Gs4  v072
 BYTE   N23  Fs5
 BYTE   N23  Gs5
 BYTE   W24
 BYTE   Fs4
 BYTE   N23  Ds5
 BYTE   N23  Fs5
 BYTE   W24
 BYTE   PEND 
// 039   ----------------------------------------
Label_9_014B1B0B:
 BYTE   N23  En4  v072
 BYTE   N23  Cs5
 BYTE   N23  En5
 BYTE   W24
 BYTE   Ds4
 BYTE   N23  Bn4
 BYTE   N23  Ds5
 BYTE   W24
 BYTE   N92  Bn3
 BYTE   N92  En4
 BYTE   W48
 BYTE   PEND 
// 040   ----------------------------------------
Label_9_014B1B1F:
 BYTE   W48
 BYTE   N92  Cs4  v072
 BYTE   N92  Gs4
 BYTE   W48
 BYTE   PEND 
// 041   ----------------------------------------
Label_9_014B1B27:
 BYTE   W48
 BYTE   N92  En4  v072
 BYTE   N92  Bn4
 BYTE   W48
 BYTE   PEND 
// 042   ----------------------------------------
Label_9_014B1B2F:
 BYTE   W48
 BYTE   N44  Gs4  v072
 BYTE   N44  Cs5
 BYTE   W48
 BYTE   PEND 
// 043   ----------------------------------------
Label_9_014B1B37:
 BYTE   N44  Fs4  v072
 BYTE   N44  Bn4
 BYTE   W48
 BYTE   N92  Fn4
 BYTE   N92  As4
 BYTE   W48
 BYTE   PEND 
// 044   ----------------------------------------
Label_9_014B1B43:
 BYTE   W48
 BYTE   N92  Ds4  v072
 BYTE   N92  As4
 BYTE   W48
 BYTE   PEND 
// 045   ----------------------------------------
Label_9_014B1B4B:
 BYTE   W48
 BYTE   N44  Ds4  v072
 BYTE   N44  Gs4
 BYTE   W48
 BYTE   PEND 
// 046   ----------------------------------------
Label_9_014B1B53:
 BYTE   N44  Ds4  v072
 BYTE   N44  Gs4
 BYTE   W48
 BYTE   Fn4
 BYTE   N44  As4
 BYTE   N23  Fn5
 BYTE   N23  As5
 BYTE   W24
 BYTE   Ds5
 BYTE   W24
 BYTE   PEND 
// 047   ----------------------------------------
 BYTE   N44  Fn4
 BYTE   N44  As4
 BYTE   N23  Fn5
 BYTE   W24
 BYTE   N23
 BYTE   N23  As5
 BYTE   W24
 BYTE   N44  As4
 BYTE   W48
// 048   ----------------------------------------
Label_9_014B1B72:
 BYTE   N44  Gs4  v072
 BYTE   W48
 BYTE   Fs4
 BYTE   W48
 BYTE   PEND 
// 049   ----------------------------------------
Label_9_014B1B79:
 BYTE   N44  Gs4  v072
 BYTE   W48
 BYTE   As4
 BYTE   W48
 BYTE   PEND 
// 050   ----------------------------------------
 BYTE   PATT
  POIN2 Label_9_014B1B72
// 051   ----------------------------------------
 BYTE   PATT
  POIN2 Label_9_014B1B79
// 052   ----------------------------------------
 BYTE   PATT
  POIN2 Label_9_014B1B72
// 053   ----------------------------------------
 BYTE   PATT
  POIN2 Label_9_014B1B79
// 054   ----------------------------------------
 BYTE   PATT
  POIN2 Label_9_014B1B72
// 055   ----------------------------------------
 BYTE   PATT
  POIN2 Label_9_014B1B79
// 056   ----------------------------------------
 BYTE   PATT
  POIN2 Label_9_014B1B72
// 057   ----------------------------------------
 BYTE   PATT
  POIN2 Label_9_014B1B79
// 058   ----------------------------------------
 BYTE   PATT
  POIN2 Label_9_014B1B72
// 059   ----------------------------------------
 BYTE   PATT
  POIN2 Label_9_014B1B79
// 060   ----------------------------------------
 BYTE   PATT
  POIN2 Label_9_014B1B72
// 061   ----------------------------------------
 BYTE   PATT
  POIN2 Label_9_014B1B79
// 062   ----------------------------------------
 BYTE   PATT
  POIN2 Label_9_014B1B72
// 063   ----------------------------------------
 BYTE   PATT
  POIN2 Label_9_014B1B79
// 064   ----------------------------------------
 BYTE   PATT
  POIN2 Label_9_014B1B72
// 065   ----------------------------------------
 BYTE   PATT
  POIN2 Label_9_014B1B79
// 066   ----------------------------------------
 BYTE   PATT
  POIN2 Label_9_014B1B72
// 067   ----------------------------------------
 BYTE   PATT
  POIN2 Label_9_014B1B79
// 068   ----------------------------------------
 BYTE   PATT
  POIN2 Label_9_014B1B72
// 069   ----------------------------------------
 BYTE   PATT
  POIN2 Label_9_014B1B79
// 070   ----------------------------------------
 BYTE   PATT
  POIN2 Label_9_014B1B72
// 071   ----------------------------------------
 BYTE   PATT
  POIN2 Label_9_014B1B79
// 072   ----------------------------------------
 BYTE   PATT
  POIN2 Label_9_014B1B72
// 073   ----------------------------------------
 BYTE   PATT
  POIN2 Label_9_014B1B79
// 074   ----------------------------------------
 BYTE   PATT
  POIN2 Label_9_014B1B72
// 075   ----------------------------------------
 BYTE   PATT
  POIN2 Label_9_014B1B79
// 076   ----------------------------------------
 BYTE   PATT
  POIN2 Label_9_014B1B72
// 077   ----------------------------------------
 BYTE   PATT
  POIN2 Label_9_014B1B79
// 078   ----------------------------------------
 BYTE   N44  Gs4  v072
 BYTE   W48
 BYTE   N44
 BYTE   W48
// 079   ----------------------------------------
 BYTE   Fs4
 BYTE   W48
 BYTE   N92  Dn5
 BYTE   W48
// 080   ----------------------------------------
 BYTE   W48
 BYTE   Cs5
 BYTE   W48
// 081   ----------------------------------------
 BYTE   W96
// 082   ----------------------------------------
 BYTE   W96
// 083   ----------------------------------------
 BYTE   W96
// 084   ----------------------------------------
 BYTE   W96
// 085   ----------------------------------------
 BYTE   W96
// 086   ----------------------------------------
 BYTE   W96
// 087   ----------------------------------------
 BYTE   W96
// 088   ----------------------------------------
 BYTE   W96
// 089   ----------------------------------------
 BYTE   W96
// 090   ----------------------------------------
 BYTE   W96
// 091   ----------------------------------------
 BYTE   W96
// 092   ----------------------------------------
 BYTE   W96
// 093   ----------------------------------------
 BYTE   W96
// 094   ----------------------------------------
 BYTE   W96
// 095   ----------------------------------------
 BYTE   W96
// 096   ----------------------------------------
 BYTE   PATT
  POIN2 Label_9_014B1AD6
// 097   ----------------------------------------
 BYTE   W96
// 098   ----------------------------------------
 BYTE   W96
// 099   ----------------------------------------
 BYTE   W96
// 100   ----------------------------------------
 BYTE   W96
// 101   ----------------------------------------
 BYTE   W96
// 102   ----------------------------------------
 BYTE   W96
// 103   ----------------------------------------
 BYTE   W96
// 104   ----------------------------------------
 BYTE   W48
 BYTE   N44  Cs4  v072
 BYTE   N44  Gs4
 BYTE   N44  Cs5
 BYTE   W48
// 105   ----------------------------------------
 BYTE   Cn4
 BYTE   N44  Gs4
 BYTE   N44  Ds5
 BYTE   W96
// 106   ----------------------------------------
 BYTE   W96
// 107   ----------------------------------------
 BYTE   W96
// 108   ----------------------------------------
 BYTE   W96
// 109   ----------------------------------------
 BYTE   W96
// 110   ----------------------------------------
 BYTE   W96
// 111   ----------------------------------------
 BYTE   W96
// 112   ----------------------------------------
 BYTE   PATT
  POIN2 Label_9_014B1AFB
// 113   ----------------------------------------
 BYTE   PATT
  POIN2 Label_9_014B1B0B
// 114   ----------------------------------------
 BYTE   PATT
  POIN2 Label_9_014B1B1F
// 115   ----------------------------------------
 BYTE   PATT
  POIN2 Label_9_014B1B27
// 116   ----------------------------------------
 BYTE   PATT
  POIN2 Label_9_014B1B2F
// 117   ----------------------------------------
 BYTE   PATT
  POIN2 Label_9_014B1B37
// 118   ----------------------------------------
 BYTE   PATT
  POIN2 Label_9_014B1B43
// 119   ----------------------------------------
 BYTE   PATT
  POIN2 Label_9_014B1B4B
// 120   ----------------------------------------
 BYTE   PATT
  POIN2 Label_9_014B1B53
// 121   ----------------------------------------
 BYTE   N44  Fn4  v072
 BYTE   N44  As4
 BYTE   N23  Fn5
 BYTE   W24
 BYTE   N23
 BYTE   N23  As5
 BYTE   W24
 BYTE   N44  Gn4
 BYTE   N44  Cn5
 BYTE   N23  Gn5
 BYTE   N23  Cn6
 BYTE   W24
 BYTE   Fn5
 BYTE   W24
// 122   ----------------------------------------
 BYTE   N44  Gn4
 BYTE   N44  Cn5
 BYTE   N23  Gn5
 BYTE   W24
 BYTE   N23
 BYTE   N23  Cn6
 BYTE   W24
 BYTE   N44  Cn5
 BYTE   W48
// 123   ----------------------------------------
Label_9_014B1C9C:
 BYTE   N44  As4  v072
 BYTE   W48
 BYTE   Gs4
 BYTE   W48
 BYTE   PEND 
// 124   ----------------------------------------
Label_9_014B1CA3:
 BYTE   N44  As4  v072
 BYTE   W48
 BYTE   Cn5
 BYTE   W48
 BYTE   PEND 
// 125   ----------------------------------------
 BYTE   PATT
  POIN2 Label_9_014B1C9C
// 126   ----------------------------------------
 BYTE   PATT
  POIN2 Label_9_014B1CA3
// 127   ----------------------------------------
 BYTE   PATT
  POIN2 Label_9_014B1C9C
// 128   ----------------------------------------
 BYTE   PATT
  POIN2 Label_9_014B1CA3
// 129   ----------------------------------------
 BYTE   PATT
  POIN2 Label_9_014B1C9C
// 130   ----------------------------------------
 BYTE   PATT
  POIN2 Label_9_014B1CA3
// 131   ----------------------------------------
 BYTE   PATT
  POIN2 Label_9_014B1C9C
// 132   ----------------------------------------
 BYTE   PATT
  POIN2 Label_9_014B1CA3
// 133   ----------------------------------------
 BYTE   PATT
  POIN2 Label_9_014B1C9C
// 134   ----------------------------------------
 BYTE   PATT
  POIN2 Label_9_014B1CA3
// 135   ----------------------------------------
 BYTE   PATT
  POIN2 Label_9_014B1C9C
// 136   ----------------------------------------
 BYTE   PATT
  POIN2 Label_9_014B1CA3
// 137   ----------------------------------------
 BYTE   PATT
  POIN2 Label_9_014B1C9C
// 138   ----------------------------------------
 BYTE   PATT
  POIN2 Label_9_014B1CA3
// 139   ----------------------------------------
 BYTE   PATT
  POIN2 Label_9_014B1C9C
// 140   ----------------------------------------
 BYTE   PATT
  POIN2 Label_9_014B1CA3
// 141   ----------------------------------------
 BYTE   PATT
  POIN2 Label_9_014B1C9C
// 142   ----------------------------------------
 BYTE   PATT
  POIN2 Label_9_014B1CA3
// 143   ----------------------------------------
 BYTE   PATT
  POIN2 Label_9_014B1C9C
// 144   ----------------------------------------
 BYTE   PATT
  POIN2 Label_9_014B1CA3
// 145   ----------------------------------------
 BYTE   PATT
  POIN2 Label_9_014B1C9C
// 146   ----------------------------------------
 BYTE   PATT
  POIN2 Label_9_014B1CA3
// 147   ----------------------------------------
 BYTE   PATT
  POIN2 Label_9_014B1C9C
// 148   ----------------------------------------
 BYTE   PATT
  POIN2 Label_9_014B1CA3
// 149   ----------------------------------------
 BYTE   PATT
  POIN2 Label_9_014B1C9C
// 150   ----------------------------------------
 BYTE   PATT
  POIN2 Label_9_014B1CA3
// 151   ----------------------------------------
 BYTE   PATT
  POIN2 Label_9_014B1C9C
// 152   ----------------------------------------
 BYTE   PATT
  POIN2 Label_9_014B1CA3
// 153   ----------------------------------------
Label_9_014B1D36:
 BYTE   N44  As4  v072
 BYTE   W48
 BYTE   N44
 BYTE   W48
 BYTE   PEND 
// 154   ----------------------------------------
 BYTE   Gs4
 BYTE   W96
// 155   ----------------------------------------
 BYTE   W96
// 156   ----------------------------------------
 BYTE   W96
// 157   ----------------------------------------
 BYTE   W96
// 158   ----------------------------------------
 BYTE   W96
// 159   ----------------------------------------
 BYTE   W96
// 160   ----------------------------------------
 BYTE   W96
// 161   ----------------------------------------
 BYTE   W96
// 162   ----------------------------------------
 BYTE   W96
// 163   ----------------------------------------
 BYTE   W96
// 164   ----------------------------------------
 BYTE   W96
// 165   ----------------------------------------
 BYTE   W96
// 166   ----------------------------------------
 BYTE   W96
// 167   ----------------------------------------
 BYTE   W96
// 168   ----------------------------------------
 BYTE   W96
// 169   ----------------------------------------
 BYTE   W96
// 170   ----------------------------------------
 BYTE   W48
 BYTE   Cn5
 BYTE   W48
// 171   ----------------------------------------
 BYTE   PATT
  POIN2 Label_9_014B1C9C
// 172   ----------------------------------------
 BYTE   PATT
  POIN2 Label_9_014B1CA3
// 173   ----------------------------------------
 BYTE   PATT
  POIN2 Label_9_014B1C9C
// 174   ----------------------------------------
 BYTE   PATT
  POIN2 Label_9_014B1CA3
// 175   ----------------------------------------
 BYTE   PATT
  POIN2 Label_9_014B1C9C
// 176   ----------------------------------------
 BYTE   PATT
  POIN2 Label_9_014B1CA3
// 177   ----------------------------------------
 BYTE   PATT
  POIN2 Label_9_014B1C9C
// 178   ----------------------------------------
 BYTE   PATT
  POIN2 Label_9_014B1CA3
// 179   ----------------------------------------
 BYTE   PATT
  POIN2 Label_9_014B1C9C
// 180   ----------------------------------------
 BYTE   PATT
  POIN2 Label_9_014B1CA3
// 181   ----------------------------------------
 BYTE   PATT
  POIN2 Label_9_014B1C9C
// 182   ----------------------------------------
 BYTE   PATT
  POIN2 Label_9_014B1CA3
// 183   ----------------------------------------
 BYTE   PATT
  POIN2 Label_9_014B1C9C
// 184   ----------------------------------------
 BYTE   PATT
  POIN2 Label_9_014B1CA3
// 185   ----------------------------------------
 BYTE   PATT
  POIN2 Label_9_014B1D36
// 186   ----------------------------------------
 BYTE   N44  Gs4  v072
 BYTE   W48
 BYTE   N92  En5
 BYTE   W48
// 187   ----------------------------------------
 BYTE   W48
 BYTE   Ds5
 BYTE   W48
// 188   ----------------------------------------
 BYTE   W96
// 189   ----------------------------------------
 BYTE   W96
// 190   ----------------------------------------
 BYTE   W96
// 191   ----------------------------------------
 BYTE   W96
// 192   ----------------------------------------
 BYTE   W96
// 193   ----------------------------------------
 BYTE   W96
// 194   ----------------------------------------
 BYTE   W96
// 195   ----------------------------------------
 BYTE   W96
// 196   ----------------------------------------
 BYTE   W96
// 197   ----------------------------------------
 BYTE   W96
// 198   ----------------------------------------
 BYTE   W96
// 199   ----------------------------------------
 BYTE   W96
// 200   ----------------------------------------
 BYTE   W96
// 201   ----------------------------------------
 BYTE   W96
// 202   ----------------------------------------
 BYTE   W96
// 203   ----------------------------------------
 BYTE   W96
// 204   ----------------------------------------
 BYTE   W48
 BYTE   GoTo
  POIN2 Label_9_014B1ABA
 BYTE   FINE

//**************** Track 11 (Midi-Chn.10) ****************//

songC6_011:
// 000   ----------------------------------------
 BYTE   KEYSH   songC6_key+0
Label_10_014B244A:
 BYTE   VOICE   109
 BYTE   MOD 3
 BYTE   PAN   c_v-64
 BYTE   VOL   33*songC6_mvl/mxv
 BYTE   W96
// 001   ----------------------------------------
 BYTE   W48
 BYTE   N11  En4  v080
 BYTE   W12
 BYTE   Gs4  v084
 BYTE   W12
 BYTE   VOL   28*songC6_mvl/mxv
 BYTE   N11  An4  v064
 BYTE   W01
 BYTE   VOL   30*songC6_mvl/mxv
 BYTE   W02
 BYTE   VOL   30*songC6_mvl/mxv
 BYTE   W01
 BYTE   VOL   31*songC6_mvl/mxv
 BYTE   W03
 BYTE   VOL   31*songC6_mvl/mxv
 BYTE   W02
 BYTE   VOL   32*songC6_mvl/mxv
 BYTE   W01
 BYTE   VOL   33*songC6_mvl/mxv
 BYTE   W02
 BYTE   VOL   33*songC6_mvl/mxv
 BYTE   N32  Bn4  v088
 BYTE   W01
 BYTE   VOL   33*songC6_mvl/mxv
 BYTE   W02
 BYTE   VOL   34*songC6_mvl/mxv
 BYTE   W01
 BYTE   VOL   34*songC6_mvl/mxv
 BYTE   W08
// 002   ----------------------------------------
 BYTE   W07
 BYTE   VOL   33*songC6_mvl/mxv
 BYTE   W03
 BYTE   VOL   33*songC6_mvl/mxv
 BYTE   W02
 BYTE   VOL   32*songC6_mvl/mxv
 BYTE   W01
 BYTE   VOL   31*songC6_mvl/mxv
 BYTE   W02
 BYTE   VOL   31*songC6_mvl/mxv
 BYTE   W01
 BYTE   VOL   30*songC6_mvl/mxv
 BYTE   W02
 BYTE   VOL   29*songC6_mvl/mxv
 BYTE   W01
 BYTE   VOL   28*songC6_mvl/mxv
 BYTE   W02
 BYTE   VOL   27*songC6_mvl/mxv
 BYTE   W01
 BYTE   VOL   24*songC6_mvl/mxv
 BYTE   W02
 BYTE   VOL   33*songC6_mvl/mxv
 BYTE   N11  An4
 BYTE   W12
 BYTE   Gs4
 BYTE   W12
 BYTE   En4  v084
 BYTE   W12
 BYTE   Gs3  v068
 BYTE   W12
 BYTE   Bn3  v084
 BYTE   W12
 BYTE   Cs4  v060
 BYTE   W12
// 003   ----------------------------------------
 BYTE   Ds4  v084
 BYTE   W12
 BYTE   TIE  En4  v080
 BYTE   W44
 BYTE   W02
 BYTE   VOL   33*songC6_mvl/mxv
 BYTE   W06
 BYTE   VOL   33*songC6_mvl/mxv
 BYTE   W06
 BYTE   VOL   32*songC6_mvl/mxv
 BYTE   W08
 BYTE   VOL   32*songC6_mvl/mxv
 BYTE   W07
 BYTE   VOL   32*songC6_mvl/mxv
 BYTE   W05
 BYTE   VOL   31*songC6_mvl/mxv
 BYTE   W01
 BYTE   VOL   31*songC6_mvl/mxv
 BYTE   W05
// 004   ----------------------------------------
 BYTE   VOL   31*songC6_mvl/mxv
 BYTE   W01
 BYTE   VOL   30*songC6_mvl/mxv
 BYTE   W03
 BYTE   VOL   30*songC6_mvl/mxv
 BYTE   W02
 BYTE   VOL   30*songC6_mvl/mxv
 BYTE   W01
 BYTE   VOL   29*songC6_mvl/mxv
 BYTE   W03
 BYTE   VOL   29*songC6_mvl/mxv
 BYTE   W02
 BYTE   VOL   29*songC6_mvl/mxv
 BYTE   W01
 BYTE   VOL   28*songC6_mvl/mxv
 BYTE   W02
 BYTE   VOL   28*songC6_mvl/mxv
 BYTE   W03
 BYTE   VOL   28*songC6_mvl/mxv
 BYTE   W01
 BYTE   VOL   27*songC6_mvl/mxv
 BYTE   W03
 BYTE   VOL   27*songC6_mvl/mxv
 BYTE   W02
 BYTE   VOL   26*songC6_mvl/mxv
 BYTE   W01
 BYTE   VOL   26*songC6_mvl/mxv
 BYTE   W03
 BYTE   VOL   25*songC6_mvl/mxv
 BYTE   W03
 BYTE   VOL   25*songC6_mvl/mxv
 BYTE   W02
 BYTE   VOL   24*songC6_mvl/mxv
 BYTE   W01
 BYTE   VOL   24*songC6_mvl/mxv
 BYTE   W03
 BYTE   VOL   24*songC6_mvl/mxv
 BYTE   W02
 BYTE   VOL   23*songC6_mvl/mxv
 BYTE   W01
 BYTE   VOL   23*songC6_mvl/mxv
 BYTE   W02
 BYTE   VOL   23*songC6_mvl/mxv
 BYTE   W03
 BYTE   VOL   22*songC6_mvl/mxv
 BYTE   W01
 BYTE   VOL   22*songC6_mvl/mxv
 BYTE   W02
 BYTE   VOL   21*songC6_mvl/mxv
 BYTE   W03
 BYTE   VOL   20*songC6_mvl/mxv
 BYTE   W03
 BYTE   VOL   20*songC6_mvl/mxv
 BYTE   W01
 BYTE   VOL   20*songC6_mvl/mxv
 BYTE   W02
 BYTE   VOL   19*songC6_mvl/mxv
 BYTE   W03
 BYTE   VOL   18*songC6_mvl/mxv
 BYTE   W01
 BYTE   VOL   18*songC6_mvl/mxv
 BYTE   W03
 BYTE   VOL   18*songC6_mvl/mxv
 BYTE   W02
 BYTE   VOL   17*songC6_mvl/mxv
 BYTE   W01
 BYTE   VOL   17*songC6_mvl/mxv
 BYTE   W02
 BYTE   VOL   16*songC6_mvl/mxv
 BYTE   W03
 BYTE   VOL   15*songC6_mvl/mxv
 BYTE   W03
 BYTE   VOL   15*songC6_mvl/mxv
 BYTE   W01
 BYTE   VOL   14*songC6_mvl/mxv
 BYTE   W02
 BYTE   VOL   14*songC6_mvl/mxv
 BYTE   W03
 BYTE   VOL   14*songC6_mvl/mxv
 BYTE   W01
 BYTE   VOL   13*songC6_mvl/mxv
 BYTE   W02
 BYTE   VOL   13*songC6_mvl/mxv
 BYTE   W01
 BYTE   VOL   13*songC6_mvl/mxv
 BYTE   W02
 BYTE   VOL   12*songC6_mvl/mxv
 BYTE   W03
 BYTE   VOL   12*songC6_mvl/mxv
 BYTE   W03
 BYTE   VOL   11*songC6_mvl/mxv
 BYTE   W01
 BYTE   VOL   11*songC6_mvl/mxv
 BYTE   W01
 BYTE   EOT
 BYTE   W01
// 005   ----------------------------------------
 BYTE   VOL   11*songC6_mvl/mxv
 BYTE   W01
 BYTE   VOL   10*songC6_mvl/mxv
 BYTE   W03
 BYTE   VOL   9*songC6_mvl/mxv
 BYTE   W02
 BYTE   VOL   9*songC6_mvl/mxv
 BYTE   W03
 BYTE   VOL   9*songC6_mvl/mxv
 BYTE   W03
 BYTE   VOL   8*songC6_mvl/mxv
 BYTE   W01
 BYTE   VOL   8*songC6_mvl/mxv
 BYTE   W02
 BYTE   VOL   8*songC6_mvl/mxv
 BYTE   W03
 BYTE   VOL   7*songC6_mvl/mxv
 BYTE   W01
 BYTE   VOL   7*songC6_mvl/mxv
 BYTE   W02
 BYTE   VOL   6*songC6_mvl/mxv
 BYTE   W01
 BYTE   VOL   6*songC6_mvl/mxv
 BYTE   W02
 BYTE   VOL   33*songC6_mvl/mxv
 BYTE   W36
 BYTE   N11  En3  v076
 BYTE   W12
 BYTE   Gs3  v056
 BYTE   W12
 BYTE   An3  v080
 BYTE   W12
// 006   ----------------------------------------
 BYTE   N23  Bn3  v072
 BYTE   W04
 BYTE   VOL   33*songC6_mvl/mxv
 BYTE   W05
 BYTE   VOL   32*songC6_mvl/mxv
 BYTE   W01
 BYTE   VOL   32*songC6_mvl/mxv
 BYTE   W02
 BYTE   VOL   32*songC6_mvl/mxv
 BYTE   W01
 BYTE   VOL   31*songC6_mvl/mxv
 BYTE   W02
 BYTE   VOL   30*songC6_mvl/mxv
 BYTE   W01
 BYTE   VOL   30*songC6_mvl/mxv
 BYTE   W02
 BYTE   VOL   28*songC6_mvl/mxv
 BYTE   W01
 BYTE   VOL   27*songC6_mvl/mxv
 BYTE   W02
 BYTE   VOL   26*songC6_mvl/mxv
 BYTE   W01
 BYTE   VOL   24*songC6_mvl/mxv
 BYTE   W02
 BYTE   VOL   33*songC6_mvl/mxv
 BYTE   N11  An3  v092
 BYTE   W12
 BYTE   N23  Gs3  v068
 BYTE   W24
 BYTE   N11  Fs3  v060
 BYTE   W12
 BYTE   N23  An3  v080
 BYTE   W07
 BYTE   VOL   33*songC6_mvl/mxv
 BYTE   W02
 BYTE   VOL   32*songC6_mvl/mxv
 BYTE   W01
 BYTE   VOL   32*songC6_mvl/mxv
 BYTE   W02
 BYTE   VOL   31*songC6_mvl/mxv
 BYTE   W01
 BYTE   VOL   30*songC6_mvl/mxv
 BYTE   W02
 BYTE   VOL   29*songC6_mvl/mxv
 BYTE   W01
 BYTE   VOL   29*songC6_mvl/mxv
 BYTE   W02
 BYTE   VOL   28*songC6_mvl/mxv
 BYTE   W01
 BYTE   VOL   27*songC6_mvl/mxv
 BYTE   W02
 BYTE   VOL   26*songC6_mvl/mxv
 BYTE   W01
 BYTE   VOL   25*songC6_mvl/mxv
 BYTE   W02
// 007   ----------------------------------------
 BYTE   VOL   33*songC6_mvl/mxv
 BYTE   N11  Bn3
 BYTE   W12
 BYTE   Cs4  v052
 BYTE   W12
 BYTE   N23  Ds4  v088
 BYTE   W07
 BYTE   VOL   33*songC6_mvl/mxv
 BYTE   W02
 BYTE   VOL   32*songC6_mvl/mxv
 BYTE   W01
 BYTE   VOL   32*songC6_mvl/mxv
 BYTE   W02
 BYTE   VOL   31*songC6_mvl/mxv
 BYTE   W03
 BYTE   VOL   30*songC6_mvl/mxv
 BYTE   W01
 BYTE   VOL   29*songC6_mvl/mxv
 BYTE   W02
 BYTE   VOL   29*songC6_mvl/mxv
 BYTE   W01
 BYTE   VOL   28*songC6_mvl/mxv
 BYTE   W02
 BYTE   VOL   28*songC6_mvl/mxv
 BYTE   W01
 BYTE   VOL   27*songC6_mvl/mxv
 BYTE   W02
 BYTE   TIE  En4  v076
 BYTE   W04
 BYTE   VOL   28*songC6_mvl/mxv
 BYTE   W05
 BYTE   VOL   28*songC6_mvl/mxv
 BYTE   W03
 BYTE   VOL   28*songC6_mvl/mxv
 BYTE   W01
 BYTE   VOL   29*songC6_mvl/mxv
 BYTE   W02
 BYTE   VOL   29*songC6_mvl/mxv
 BYTE   W03
 BYTE   VOL   30*songC6_mvl/mxv
 BYTE   W03
 BYTE   VOL   30*songC6_mvl/mxv
 BYTE   W01
 BYTE   VOL   31*songC6_mvl/mxv
 BYTE   W03
 BYTE   VOL   31*songC6_mvl/mxv
 BYTE   W02
 BYTE   VOL   31*songC6_mvl/mxv
 BYTE   W01
 BYTE   VOL   32*songC6_mvl/mxv
 BYTE   W02
 BYTE   VOL   32*songC6_mvl/mxv
 BYTE   W01
 BYTE   VOL   33*songC6_mvl/mxv
 BYTE   W02
 BYTE   VOL   33*songC6_mvl/mxv
 BYTE   W03
 BYTE   VOL   33*songC6_mvl/mxv
 BYTE   W12
// 008   ----------------------------------------
 BYTE   W28
 BYTE   VOL   33*songC6_mvl/mxv
 BYTE   W03
 BYTE   VOL   33*songC6_mvl/mxv
 BYTE   W03
 BYTE   VOL   32*songC6_mvl/mxv
 BYTE   W02
 BYTE   VOL   32*songC6_mvl/mxv
 BYTE   W07
 BYTE   VOL   32*songC6_mvl/mxv
 BYTE   W03
 BYTE   VOL   31*songC6_mvl/mxv
 BYTE   W03
 BYTE   VOL   31*songC6_mvl/mxv
 BYTE   W02
 BYTE   VOL   31*songC6_mvl/mxv
 BYTE   W03
 BYTE   VOL   30*songC6_mvl/mxv
 BYTE   W03
 BYTE   VOL   30*songC6_mvl/mxv
 BYTE   W04
 BYTE   VOL   29*songC6_mvl/mxv
 BYTE   W05
 BYTE   VOL   29*songC6_mvl/mxv
 BYTE   W01
 BYTE   VOL   29*songC6_mvl/mxv
 BYTE   W02
 BYTE   VOL   28*songC6_mvl/mxv
 BYTE   W03
 BYTE   VOL   28*songC6_mvl/mxv
 BYTE   W01
 BYTE   VOL   28*songC6_mvl/mxv
 BYTE   W02
 BYTE   VOL   27*songC6_mvl/mxv
 BYTE   W01
 BYTE   VOL   27*songC6_mvl/mxv
 BYTE   W02
 BYTE   VOL   27*songC6_mvl/mxv
 BYTE   W01
 BYTE   VOL   26*songC6_mvl/mxv
 BYTE   W02
 BYTE   VOL   26*songC6_mvl/mxv
 BYTE   W01
 BYTE   VOL   25*songC6_mvl/mxv
 BYTE   W02
 BYTE   VOL   25*songC6_mvl/mxv
 BYTE   W01
 BYTE   VOL   24*songC6_mvl/mxv
 BYTE   W02
 BYTE   VOL   24*songC6_mvl/mxv
 BYTE   W01
 BYTE   VOL   23*songC6_mvl/mxv
 BYTE   W01
 BYTE   EOT
 BYTE   W01
 BYTE   VOL   23*songC6_mvl/mxv
 BYTE   W01
 BYTE   VOL   22*songC6_mvl/mxv
 BYTE   W02
 BYTE   VOL   21*songC6_mvl/mxv
 BYTE   W01
 BYTE   VOL   20*songC6_mvl/mxv
 BYTE   W02
// 009   ----------------------------------------
 BYTE   VOL   25*songC6_mvl/mxv
 BYTE   N44  Fs4  v084
 BYTE   W01
 BYTE   VOL   26*songC6_mvl/mxv
 BYTE   W02
 BYTE   VOL   27*songC6_mvl/mxv
 BYTE   W01
 BYTE   VOL   28*songC6_mvl/mxv
 BYTE   W02
 BYTE   VOL   28*songC6_mvl/mxv
 BYTE   W01
 BYTE   VOL   29*songC6_mvl/mxv
 BYTE   W02
 BYTE   VOL   30*songC6_mvl/mxv
 BYTE   W01
 BYTE   VOL   31*songC6_mvl/mxv
 BYTE   W02
 BYTE   VOL   31*songC6_mvl/mxv
 BYTE   W03
 BYTE   VOL   31*songC6_mvl/mxv
 BYTE   W01
 BYTE   VOL   32*songC6_mvl/mxv
 BYTE   W17
 BYTE   VOL   31*songC6_mvl/mxv
 BYTE   W01
 BYTE   VOL   31*songC6_mvl/mxv
 BYTE   W02
 BYTE   VOL   31*songC6_mvl/mxv
 BYTE   W01
 BYTE   VOL   30*songC6_mvl/mxv
 BYTE   W02
 BYTE   VOL   29*songC6_mvl/mxv
 BYTE   W01
 BYTE   VOL   28*songC6_mvl/mxv
 BYTE   W02
 BYTE   VOL   28*songC6_mvl/mxv
 BYTE   W01
 BYTE   VOL   27*songC6_mvl/mxv
 BYTE   W02
 BYTE   VOL   26*songC6_mvl/mxv
 BYTE   W01
 BYTE   VOL   24*songC6_mvl/mxv
 BYTE   W02
 BYTE   VOL   23*songC6_mvl/mxv
 BYTE   TIE  En4
 BYTE   W01
 BYTE   VOL   24*songC6_mvl/mxv
 BYTE   W02
 BYTE   VOL   24*songC6_mvl/mxv
 BYTE   W01
 BYTE   VOL   25*songC6_mvl/mxv
 BYTE   W02
 BYTE   VOL   25*songC6_mvl/mxv
 BYTE   W03
 BYTE   VOL   26*songC6_mvl/mxv
 BYTE   W03
 BYTE   VOL   27*songC6_mvl/mxv
 BYTE   W03
 BYTE   VOL   27*songC6_mvl/mxv
 BYTE   W01
 BYTE   VOL   28*songC6_mvl/mxv
 BYTE   W02
 BYTE   VOL   28*songC6_mvl/mxv
 BYTE   W03
 BYTE   VOL   28*songC6_mvl/mxv
 BYTE   W01
 BYTE   VOL   29*songC6_mvl/mxv
 BYTE   W03
 BYTE   VOL   29*songC6_mvl/mxv
 BYTE   W03
 BYTE   VOL   29*songC6_mvl/mxv
 BYTE   W02
 BYTE   VOL   30*songC6_mvl/mxv
 BYTE   W01
 BYTE   VOL   30*songC6_mvl/mxv
 BYTE   W03
 BYTE   VOL   31*songC6_mvl/mxv
 BYTE   W02
 BYTE   VOL   31*songC6_mvl/mxv
 BYTE   W03
 BYTE   VOL   32*songC6_mvl/mxv
 BYTE   W01
 BYTE   VOL   32*songC6_mvl/mxv
 BYTE   W03
 BYTE   VOL   32*songC6_mvl/mxv
 BYTE   W03
 BYTE   VOL   33*songC6_mvl/mxv
 BYTE   W02
// 010   ----------------------------------------
 BYTE   W07
 BYTE   VOL   33*songC6_mvl/mxv
 BYTE   W40
 BYTE   W01
 BYTE   VOL   33*songC6_mvl/mxv
 BYTE   W10
 BYTE   VOL   32*songC6_mvl/mxv
 BYTE   W03
 BYTE   VOL   32*songC6_mvl/mxv
 BYTE   W02
 BYTE   VOL   32*songC6_mvl/mxv
 BYTE   W01
 BYTE   VOL   31*songC6_mvl/mxv
 BYTE   W02
 BYTE   VOL   31*songC6_mvl/mxv
 BYTE   W01
 BYTE   VOL   31*songC6_mvl/mxv
 BYTE   W02
 BYTE   VOL   30*songC6_mvl/mxv
 BYTE   W01
 BYTE   VOL   30*songC6_mvl/mxv
 BYTE   W02
 BYTE   VOL   29*songC6_mvl/mxv
 BYTE   W01
 BYTE   VOL   29*songC6_mvl/mxv
 BYTE   W02
 BYTE   VOL   28*songC6_mvl/mxv
 BYTE   W01
 BYTE   VOL   28*songC6_mvl/mxv
 BYTE   W02
 BYTE   VOL   28*songC6_mvl/mxv
 BYTE   W01
 BYTE   VOL   27*songC6_mvl/mxv
 BYTE   W02
 BYTE   VOL   26*songC6_mvl/mxv
 BYTE   W01
 BYTE   VOL   26*songC6_mvl/mxv
 BYTE   W02
 BYTE   VOL   25*songC6_mvl/mxv
 BYTE   W01
 BYTE   VOL   25*songC6_mvl/mxv
 BYTE   W02
 BYTE   VOL   24*songC6_mvl/mxv
 BYTE   W01
 BYTE   VOL   23*songC6_mvl/mxv
 BYTE   W01
 BYTE   EOT
 BYTE   W01
 BYTE   VOL   23*songC6_mvl/mxv
 BYTE   W01
 BYTE   VOL   23*songC6_mvl/mxv
 BYTE   W02
 BYTE   VOL   22*songC6_mvl/mxv
 BYTE   W01
 BYTE   VOL   22*songC6_mvl/mxv
 BYTE   W02
// 011   ----------------------------------------
 BYTE   VOL   33*songC6_mvl/mxv
 BYTE   N11  Ds4  v064
 BYTE   W12
 BYTE   Cs4  v080
 BYTE   W12
 BYTE   Ds4  v048
 BYTE   W12
 BYTE   VOL   24*songC6_mvl/mxv
 BYTE   TIE  En4  v080
 BYTE   W01
 BYTE   VOL   24*songC6_mvl/mxv
 BYTE   W02
 BYTE   VOL   24*songC6_mvl/mxv
 BYTE   W03
 BYTE   VOL   25*songC6_mvl/mxv
 BYTE   W01
 BYTE   VOL   25*songC6_mvl/mxv
 BYTE   W03
 BYTE   VOL   26*songC6_mvl/mxv
 BYTE   W02
 BYTE   VOL   26*songC6_mvl/mxv
 BYTE   W01
 BYTE   VOL   27*songC6_mvl/mxv
 BYTE   W05
 BYTE   VOL   27*songC6_mvl/mxv
 BYTE   W01
 BYTE   VOL   27*songC6_mvl/mxv
 BYTE   W02
 BYTE   VOL   28*songC6_mvl/mxv
 BYTE   W01
 BYTE   VOL   28*songC6_mvl/mxv
 BYTE   W02
 BYTE   VOL   28*songC6_mvl/mxv
 BYTE   W01
 BYTE   VOL   29*songC6_mvl/mxv
 BYTE   W02
 BYTE   VOL   29*songC6_mvl/mxv
 BYTE   W01
 BYTE   VOL   29*songC6_mvl/mxv
 BYTE   W03
 BYTE   VOL   30*songC6_mvl/mxv
 BYTE   W02
 BYTE   VOL   30*songC6_mvl/mxv
 BYTE   W01
 BYTE   VOL   30*songC6_mvl/mxv
 BYTE   W02
 BYTE   VOL   31*songC6_mvl/mxv
 BYTE   W03
 BYTE   VOL   31*songC6_mvl/mxv
 BYTE   W01
 BYTE   VOL   31*songC6_mvl/mxv
 BYTE   W02
 BYTE   VOL   32*songC6_mvl/mxv
 BYTE   W01
 BYTE   VOL   32*songC6_mvl/mxv
 BYTE   W03
 BYTE   VOL   32*songC6_mvl/mxv
 BYTE   W03
 BYTE   VOL   33*songC6_mvl/mxv
 BYTE   W03
 BYTE   VOL   33*songC6_mvl/mxv
 BYTE   W06
 BYTE   VOL   33*songC6_mvl/mxv
 BYTE   W02
// 012   ----------------------------------------
 BYTE   W24
 BYTE   W03
 BYTE   VOL   33*songC6_mvl/mxv
 BYTE   W04
 BYTE   VOL   33*songC6_mvl/mxv
 BYTE   W05
 BYTE   VOL   32*songC6_mvl/mxv
 BYTE   W01
 BYTE   VOL   32*songC6_mvl/mxv
 BYTE   W03
 BYTE   VOL   32*songC6_mvl/mxv
 BYTE   W03
 BYTE   VOL   31*songC6_mvl/mxv
 BYTE   W02
 BYTE   VOL   31*songC6_mvl/mxv
 BYTE   W03
 BYTE   VOL   31*songC6_mvl/mxv
 BYTE   W03
 BYTE   VOL   30*songC6_mvl/mxv
 BYTE   W01
 BYTE   VOL   30*songC6_mvl/mxv
 BYTE   W02
 BYTE   VOL   29*songC6_mvl/mxv
 BYTE   W01
 BYTE   VOL   29*songC6_mvl/mxv
 BYTE   W02
 BYTE   VOL   29*songC6_mvl/mxv
 BYTE   W01
 BYTE   VOL   28*songC6_mvl/mxv
 BYTE   W02
 BYTE   VOL   28*songC6_mvl/mxv
 BYTE   W01
 BYTE   VOL   28*songC6_mvl/mxv
 BYTE   W02
 BYTE   VOL   27*songC6_mvl/mxv
 BYTE   W01
 BYTE   VOL   27*songC6_mvl/mxv
 BYTE   W02
 BYTE   VOL   27*songC6_mvl/mxv
 BYTE   W01
 BYTE   VOL   26*songC6_mvl/mxv
 BYTE   W02
 BYTE   VOL   26*songC6_mvl/mxv
 BYTE   W01
 BYTE   VOL   26*songC6_mvl/mxv
 BYTE   W02
 BYTE   VOL   25*songC6_mvl/mxv
 BYTE   W01
 BYTE   VOL   25*songC6_mvl/mxv
 BYTE   W02
 BYTE   VOL   24*songC6_mvl/mxv
 BYTE   W01
 BYTE   VOL   24*songC6_mvl/mxv
 BYTE   W02
 BYTE   VOL   24*songC6_mvl/mxv
 BYTE   W01
 BYTE   VOL   23*songC6_mvl/mxv
 BYTE   W02
 BYTE   VOL   23*songC6_mvl/mxv
 BYTE   W01
 BYTE   VOL   22*songC6_mvl/mxv
 BYTE   W02
 BYTE   VOL   22*songC6_mvl/mxv
 BYTE   W01
 BYTE   VOL   22*songC6_mvl/mxv
 BYTE   W02
 BYTE   VOL   21*songC6_mvl/mxv
 BYTE   W01
 BYTE   VOL   21*songC6_mvl/mxv
 BYTE   W02
 BYTE   VOL   20*songC6_mvl/mxv
 BYTE   W01
 BYTE   VOL   19*songC6_mvl/mxv
 BYTE   W02
 BYTE   VOL   19*songC6_mvl/mxv
 BYTE   W01
 BYTE   EOT
 BYTE   VOL   18*songC6_mvl/mxv
 BYTE   W02
// 013   ----------------------------------------
 BYTE   VOL   24*songC6_mvl/mxv
 BYTE   N44  Gs4
 BYTE   W01
 BYTE   VOL   25*songC6_mvl/mxv
 BYTE   W02
 BYTE   VOL   25*songC6_mvl/mxv
 BYTE   W01
 BYTE   VOL   26*songC6_mvl/mxv
 BYTE   W02
 BYTE   VOL   27*songC6_mvl/mxv
 BYTE   W01
 BYTE   VOL   27*songC6_mvl/mxv
 BYTE   W02
 BYTE   VOL   28*songC6_mvl/mxv
 BYTE   W01
 BYTE   VOL   29*songC6_mvl/mxv
 BYTE   W02
 BYTE   VOL   29*songC6_mvl/mxv
 BYTE   W01
 BYTE   VOL   30*songC6_mvl/mxv
 BYTE   W02
 BYTE   VOL   30*songC6_mvl/mxv
 BYTE   W01
 BYTE   VOL   31*songC6_mvl/mxv
 BYTE   W02
 BYTE   VOL   32*songC6_mvl/mxv
 BYTE   W01
 BYTE   VOL   32*songC6_mvl/mxv
 BYTE   W02
 BYTE   VOL   33*songC6_mvl/mxv
 BYTE   W12
 BYTE   VOL   32*songC6_mvl/mxv
 BYTE   W01
 BYTE   VOL   32*songC6_mvl/mxv
 BYTE   W02
 BYTE   VOL   31*songC6_mvl/mxv
 BYTE   W03
 BYTE   VOL   31*songC6_mvl/mxv
 BYTE   W01
 BYTE   VOL   30*songC6_mvl/mxv
 BYTE   W02
 BYTE   VOL   29*songC6_mvl/mxv
 BYTE   W01
 BYTE   VOL   29*songC6_mvl/mxv
 BYTE   W02
 BYTE   VOL   28*songC6_mvl/mxv
 BYTE   W01
 BYTE   VOL   26*songC6_mvl/mxv
 BYTE   W02
 BYTE   VOL   23*songC6_mvl/mxv
 BYTE   N92  En4
 BYTE   W01
 BYTE   VOL   24*songC6_mvl/mxv
 BYTE   W02
 BYTE   VOL   24*songC6_mvl/mxv
 BYTE   W01
 BYTE   VOL   25*songC6_mvl/mxv
 BYTE   W02
 BYTE   VOL   25*songC6_mvl/mxv
 BYTE   W01
 BYTE   VOL   26*songC6_mvl/mxv
 BYTE   W02
 BYTE   VOL   26*songC6_mvl/mxv
 BYTE   W01
 BYTE   VOL   27*songC6_mvl/mxv
 BYTE   W02
 BYTE   VOL   27*songC6_mvl/mxv
 BYTE   W03
 BYTE   VOL   28*songC6_mvl/mxv
 BYTE   W01
 BYTE   VOL   28*songC6_mvl/mxv
 BYTE   W02
 BYTE   VOL   29*songC6_mvl/mxv
 BYTE   W01
 BYTE   VOL   29*songC6_mvl/mxv
 BYTE   W02
 BYTE   VOL   30*songC6_mvl/mxv
 BYTE   W01
 BYTE   VOL   30*songC6_mvl/mxv
 BYTE   W02
 BYTE   VOL   30*songC6_mvl/mxv
 BYTE   W01
 BYTE   VOL   31*songC6_mvl/mxv
 BYTE   W02
 BYTE   VOL   31*songC6_mvl/mxv
 BYTE   W01
 BYTE   VOL   31*songC6_mvl/mxv
 BYTE   W02
 BYTE   VOL   32*songC6_mvl/mxv
 BYTE   W03
 BYTE   VOL   32*songC6_mvl/mxv
 BYTE   W01
 BYTE   VOL   32*songC6_mvl/mxv
 BYTE   W02
 BYTE   VOL   33*songC6_mvl/mxv
 BYTE   W12
// 014   ----------------------------------------
 BYTE   W06
 BYTE   VOL   32*songC6_mvl/mxv
 BYTE   W01
 BYTE   VOL   32*songC6_mvl/mxv
 BYTE   W05
 BYTE   VOL   32*songC6_mvl/mxv
 BYTE   W01
 BYTE   VOL   31*songC6_mvl/mxv
 BYTE   W02
 BYTE   VOL   31*songC6_mvl/mxv
 BYTE   W01
 BYTE   VOL   31*songC6_mvl/mxv
 BYTE   W02
 BYTE   VOL   30*songC6_mvl/mxv
 BYTE   W03
 BYTE   VOL   30*songC6_mvl/mxv
 BYTE   W03
 BYTE   VOL   29*songC6_mvl/mxv
 BYTE   W01
 BYTE   VOL   29*songC6_mvl/mxv
 BYTE   W02
 BYTE   VOL   28*songC6_mvl/mxv
 BYTE   W01
 BYTE   VOL   28*songC6_mvl/mxv
 BYTE   W02
 BYTE   VOL   28*songC6_mvl/mxv
 BYTE   W01
 BYTE   VOL   27*songC6_mvl/mxv
 BYTE   W02
 BYTE   VOL   27*songC6_mvl/mxv
 BYTE   W01
 BYTE   VOL   26*songC6_mvl/mxv
 BYTE   W02
 BYTE   VOL   26*songC6_mvl/mxv
 BYTE   W01
 BYTE   VOL   25*songC6_mvl/mxv
 BYTE   W02
 BYTE   VOL   24*songC6_mvl/mxv
 BYTE   W01
 BYTE   VOL   23*songC6_mvl/mxv
 BYTE   W02
 BYTE   VOL   23*songC6_mvl/mxv
 BYTE   W01
 BYTE   VOL   22*songC6_mvl/mxv
 BYTE   W02
 BYTE   VOL   22*songC6_mvl/mxv
 BYTE   W01
 BYTE   VOL   20*songC6_mvl/mxv
 BYTE   W02
 BYTE   VOL   23*songC6_mvl/mxv
 BYTE   TIE  Cs5
 BYTE   W03
 BYTE   VOL   24*songC6_mvl/mxv
 BYTE   W01
 BYTE   VOL   24*songC6_mvl/mxv
 BYTE   W05
 BYTE   VOL   25*songC6_mvl/mxv
 BYTE   W04
 BYTE   VOL   25*songC6_mvl/mxv
 BYTE   W03
 BYTE   VOL   26*songC6_mvl/mxv
 BYTE   W02
 BYTE   VOL   26*songC6_mvl/mxv
 BYTE   W01
 BYTE   VOL   26*songC6_mvl/mxv
 BYTE   W02
 BYTE   VOL   27*songC6_mvl/mxv
 BYTE   W03
 BYTE   VOL   27*songC6_mvl/mxv
 BYTE   W04
 BYTE   VOL   27*songC6_mvl/mxv
 BYTE   W02
 BYTE   VOL   28*songC6_mvl/mxv
 BYTE   W06
 BYTE   VOL   28*songC6_mvl/mxv
 BYTE   W12
// 015   ----------------------------------------
 BYTE   W09
 BYTE   VOL   28*songC6_mvl/mxv
 BYTE   W01
 BYTE   VOL   27*songC6_mvl/mxv
 BYTE   W02
 BYTE   VOL   27*songC6_mvl/mxv
 BYTE   W01
 BYTE   VOL   27*songC6_mvl/mxv
 BYTE   W02
 BYTE   VOL   26*songC6_mvl/mxv
 BYTE   W01
 BYTE   VOL   26*songC6_mvl/mxv
 BYTE   W02
 BYTE   VOL   25*songC6_mvl/mxv
 BYTE   W01
 BYTE   VOL   25*songC6_mvl/mxv
 BYTE   W02
 BYTE   VOL   24*songC6_mvl/mxv
 BYTE   W01
 BYTE   VOL   24*songC6_mvl/mxv
 BYTE   W02
 BYTE   VOL   23*songC6_mvl/mxv
 BYTE   W01
 BYTE   VOL   23*songC6_mvl/mxv
 BYTE   W02
 BYTE   VOL   22*songC6_mvl/mxv
 BYTE   W01
 BYTE   VOL   22*songC6_mvl/mxv
 BYTE   W02
 BYTE   VOL   21*songC6_mvl/mxv
 BYTE   W01
 BYTE   VOL   20*songC6_mvl/mxv
 BYTE   W02
 BYTE   VOL   19*songC6_mvl/mxv
 BYTE   W01
 BYTE   VOL   19*songC6_mvl/mxv
 BYTE   W02
 BYTE   VOL   18*songC6_mvl/mxv
 BYTE   W01
 BYTE   VOL   18*songC6_mvl/mxv
 BYTE   W02
 BYTE   VOL   17*songC6_mvl/mxv
 BYTE   W01
 BYTE   VOL   17*songC6_mvl/mxv
 BYTE   W02
 BYTE   VOL   16*songC6_mvl/mxv
 BYTE   W01
 BYTE   VOL   16*songC6_mvl/mxv
 BYTE   W02
 BYTE   VOL   15*songC6_mvl/mxv
 BYTE   W01
 BYTE   VOL   15*songC6_mvl/mxv
 BYTE   W02
 BYTE   VOL   14*songC6_mvl/mxv
 BYTE   W01
 BYTE   VOL   13*songC6_mvl/mxv
 BYTE   W02
 BYTE   VOL   13*songC6_mvl/mxv
 BYTE   W01
 BYTE   VOL   12*songC6_mvl/mxv
 BYTE   W02
 BYTE   VOL   11*songC6_mvl/mxv
 BYTE   W01
 BYTE   VOL   11*songC6_mvl/mxv
 BYTE   W02
 BYTE   VOL   10*songC6_mvl/mxv
 BYTE   W01
 BYTE   VOL   9*songC6_mvl/mxv
 BYTE   W02
 BYTE   VOL   9*songC6_mvl/mxv
 BYTE   W01
 BYTE   EOT
 BYTE   VOL   7*songC6_mvl/mxv
 BYTE   W02
 BYTE   VOL   6*songC6_mvl/mxv
 BYTE   W01
 BYTE   VOL   5*songC6_mvl/mxv
 BYTE   W02
 BYTE   VOL   4*songC6_mvl/mxv
 BYTE   W01
 BYTE   VOL   2*songC6_mvl/mxv
 BYTE   W02
 BYTE   VOL   1*songC6_mvl/mxv
 BYTE   W01
 BYTE   VOL   0*songC6_mvl/mxv
 BYTE   W24
 BYTE   W02
// 016   ----------------------------------------
 BYTE   VOL   33*songC6_mvl/mxv
 BYTE   W96
// 017   ----------------------------------------
 BYTE   W96
// 018   ----------------------------------------
 BYTE   W96
// 019   ----------------------------------------
 BYTE   W96
// 020   ----------------------------------------
 BYTE   W96
// 021   ----------------------------------------
 BYTE   W96
// 022   ----------------------------------------
 BYTE   W96
// 023   ----------------------------------------
 BYTE   W96
// 024   ----------------------------------------
 BYTE   W96
// 025   ----------------------------------------
 BYTE   W96
// 026   ----------------------------------------
 BYTE   W96
// 027   ----------------------------------------
 BYTE   W96
// 028   ----------------------------------------
 BYTE   W96
// 029   ----------------------------------------
 BYTE   W96
// 030   ----------------------------------------
 BYTE   W96
// 031   ----------------------------------------
 BYTE   W96
// 032   ----------------------------------------
 BYTE   W96
// 033   ----------------------------------------
 BYTE   W96
// 034   ----------------------------------------
 BYTE   W96
// 035   ----------------------------------------
 BYTE   W96
// 036   ----------------------------------------
 BYTE   W96
// 037   ----------------------------------------
 BYTE   W96
// 038   ----------------------------------------
 BYTE   W96
// 039   ----------------------------------------
 BYTE   W96
// 040   ----------------------------------------
 BYTE   W96
// 041   ----------------------------------------
 BYTE   W96
// 042   ----------------------------------------
 BYTE   W96
// 043   ----------------------------------------
 BYTE   W96
// 044   ----------------------------------------
 BYTE   W96
// 045   ----------------------------------------
 BYTE   W96
// 046   ----------------------------------------
 BYTE   W96
// 047   ----------------------------------------
 BYTE   W48
 BYTE   N92  Ds3
 BYTE   W48
// 048   ----------------------------------------
 BYTE   W48
 BYTE   N44  Cn3
 BYTE   N44  Ds3
 BYTE   W48
// 049   ----------------------------------------
 BYTE   Cs3
 BYTE   N44  Fn3
 BYTE   W48
 BYTE   Bn2
 BYTE   N44  Ds3
 BYTE   W48
// 050   ----------------------------------------
 BYTE   Cs3
 BYTE   N44  Fn3
 BYTE   W48
 BYTE   N92  Ds3
 BYTE   N92  Fs3
 BYTE   W48
// 051   ----------------------------------------
 BYTE   W48
 BYTE   N44  Ds3
 BYTE   W48
// 052   ----------------------------------------
Label_10_014B287A:
 BYTE   N44  Cs3  v080
 BYTE   W48
 BYTE   Ds3
 BYTE   W48
 BYTE   PEND 
// 053   ----------------------------------------
Label_10_014B2881:
 BYTE   N23  Cs3  v080
 BYTE   W24
 BYTE   Fn3
 BYTE   W24
 BYTE   N32  Cs3
 BYTE   N32  Fn3
 BYTE   W36
 BYTE   N11  Ds3
 BYTE   N11  Fs3
 BYTE   W12
 BYTE   PEND 
// 054   ----------------------------------------
Label_10_014B2892:
 BYTE   N44  Ds3  v080
 BYTE   N44  Fs3
 BYTE   W48
 BYTE   Bn2
 BYTE   N44  Ds3
 BYTE   W48
 BYTE   PEND 
// 055   ----------------------------------------
 BYTE   As2
 BYTE   N44  Dn3
 BYTE   W48
 BYTE   As2
 BYTE   W48
// 056   ----------------------------------------
 BYTE   N44
 BYTE   N44  Dn3
 BYTE   W48
 BYTE   As2
 BYTE   N44  Ds3
 BYTE   W48
// 057   ----------------------------------------
 BYTE   As2
 BYTE   N44  Fn3
 BYTE   W48
 BYTE   Bn2
 BYTE   N44  Ds3
 BYTE   W48
// 058   ----------------------------------------
 BYTE   Cs3
 BYTE   N44  Fn3
 BYTE   W48
 BYTE   Ds3
 BYTE   N44  Fn3
 BYTE   W48
// 059   ----------------------------------------
 BYTE   Ds3
 BYTE   N44  Fs3
 BYTE   W48
 BYTE   Ds3
 BYTE   W48
// 060   ----------------------------------------
 BYTE   PATT
  POIN2 Label_10_014B287A
// 061   ----------------------------------------
 BYTE   PATT
  POIN2 Label_10_014B2881
// 062   ----------------------------------------
 BYTE   TIE  Ds3  v080
 BYTE   TIE  Fs3
 BYTE   W96
// 063   ----------------------------------------
 BYTE   W44
 BYTE   W03
 BYTE   EOT
 BYTE   Ds3  v066
 BYTE   W01
 BYTE   N44
 BYTE   N44  As3
 BYTE   W48
// 064   ----------------------------------------
Label_10_014B28DB:
 BYTE   N44  Fn3  v080
 BYTE   N44  Gs3
 BYTE   W48
 BYTE   Ds3
 BYTE   N44  Fs3
 BYTE   W48
 BYTE   PEND 
// 065   ----------------------------------------
 BYTE   Fn3
 BYTE   N44  Gs3
 BYTE   W48
 BYTE   Fs3
 BYTE   N44  As3
 BYTE   W48
// 066   ----------------------------------------
 BYTE   PATT
  POIN2 Label_10_014B28DB
// 067   ----------------------------------------
 BYTE   PATT
  POIN2 Label_10_014B28DB
// 068   ----------------------------------------
 BYTE   N44  Cs3  v080
 BYTE   N44  Fn3
 BYTE   W48
 BYTE   N44
 BYTE   N44  As3
 BYTE   W48
// 069   ----------------------------------------
 BYTE   N23  Ds3
 BYTE   N23  Gs3
 BYTE   W24
 BYTE   Cs3
 BYTE   N23  Fn3
 BYTE   W24
 BYTE   N32  Cs3
 BYTE   N32  Fn3
 BYTE   W36
 BYTE   N11  Ds3
 BYTE   N11  Fs3
 BYTE   W12
// 070   ----------------------------------------
 BYTE   PATT
  POIN2 Label_10_014B2892
// 071   ----------------------------------------
 BYTE   N44  As2  v080
 BYTE   N44  Dn3
 BYTE   W48
 BYTE   As2  v088
 BYTE   W48
// 072   ----------------------------------------
 BYTE   Dn3  v092
 BYTE   W48
 BYTE   Ds3
 BYTE   W48
// 073   ----------------------------------------
 BYTE   As2
 BYTE   W48
 BYTE   Bn2
 BYTE   N44  Ds3
 BYTE   W48
// 074   ----------------------------------------
 BYTE   Cs3  v088
 BYTE   N44  Fn3
 BYTE   W48
 BYTE   Ds3  v092
 BYTE   N44  Fn3
 BYTE   W48
// 075   ----------------------------------------
 BYTE   Ds3
 BYTE   N44  Fs3
 BYTE   W48
 BYTE   Ds3  v080
 BYTE   W48
// 076   ----------------------------------------
 BYTE   PATT
  POIN2 Label_10_014B287A
// 077   ----------------------------------------
 BYTE   PATT
  POIN2 Label_10_014B2881
// 078   ----------------------------------------
 BYTE   N44  Ds3  v080
 BYTE   N44  Fs3
 BYTE   W48
 BYTE   Fn3
 BYTE   N44  Gs3
 BYTE   W48
// 079   ----------------------------------------
 BYTE   Ds3
 BYTE   N44  Fs3
 BYTE   W96
// 080   ----------------------------------------
 BYTE   W96
// 081   ----------------------------------------
 BYTE   W96
// 082   ----------------------------------------
 BYTE   W96
// 083   ----------------------------------------
 BYTE   W96
// 084   ----------------------------------------
 BYTE   W96
// 085   ----------------------------------------
 BYTE   W96
// 086   ----------------------------------------
 BYTE   W96
// 087   ----------------------------------------
 BYTE   W96
// 088   ----------------------------------------
 BYTE   W96
// 089   ----------------------------------------
 BYTE   W96
// 090   ----------------------------------------
 BYTE   W96
// 091   ----------------------------------------
 BYTE   W96
// 092   ----------------------------------------
 BYTE   W96
// 093   ----------------------------------------
 BYTE   W96
// 094   ----------------------------------------
 BYTE   W96
// 095   ----------------------------------------
 BYTE   W96
// 096   ----------------------------------------
 BYTE   W96
// 097   ----------------------------------------
 BYTE   W96
// 098   ----------------------------------------
 BYTE   W96
// 099   ----------------------------------------
 BYTE   W96
// 100   ----------------------------------------
 BYTE   W96
// 101   ----------------------------------------
 BYTE   W48
 BYTE   N32  Bn3  v072
 BYTE   W36
 BYTE   N11  Gs3  v080
 BYTE   W12
// 102   ----------------------------------------
 BYTE   N30  Fs3
 BYTE   W36
 BYTE   N05  En3
 BYTE   W06
 BYTE   Fs3
 BYTE   W06
 BYTE   N17  Gs3
 BYTE   W18
 BYTE   Fs3  v064
 BYTE   W18
 BYTE   N11  En3  v080
 BYTE   W12
// 103   ----------------------------------------
 BYTE   N17  Ds3  v068
 BYTE   W18
 BYTE   Bn2  v080
 BYTE   W18
 BYTE   N11  An2  v064
 BYTE   W12
 BYTE   N17  Gs2  v080
 BYTE   W18
 BYTE   N64  Gs3
 BYTE   W30
// 104   ----------------------------------------
 BYTE   W36
 BYTE   N05  Fs3
 BYTE   W06
 BYTE   En3
 BYTE   W06
 BYTE   N88  Ds3
 BYTE   W24
 BYTE   VOL   33*songC6_mvl/mxv
 BYTE   W03
 BYTE   VOL   32*songC6_mvl/mxv
 BYTE   W01
 BYTE   VOL   32*songC6_mvl/mxv
 BYTE   W03
 BYTE   VOL   32*songC6_mvl/mxv
 BYTE   W02
 BYTE   VOL   31*songC6_mvl/mxv
 BYTE   W01
 BYTE   VOL   31*songC6_mvl/mxv
 BYTE   W02
 BYTE   VOL   30*songC6_mvl/mxv
 BYTE   W01
 BYTE   VOL   30*songC6_mvl/mxv
 BYTE   W02
 BYTE   VOL   30*songC6_mvl/mxv
 BYTE   W01
 BYTE   VOL   29*songC6_mvl/mxv
 BYTE   W02
 BYTE   VOL   29*songC6_mvl/mxv
 BYTE   W01
 BYTE   VOL   28*songC6_mvl/mxv
 BYTE   W02
 BYTE   VOL   28*songC6_mvl/mxv
 BYTE   W01
 BYTE   VOL   27*songC6_mvl/mxv
 BYTE   W02
// 105   ----------------------------------------
 BYTE   VOL   27*songC6_mvl/mxv
 BYTE   W01
 BYTE   VOL   26*songC6_mvl/mxv
 BYTE   W02
 BYTE   VOL   25*songC6_mvl/mxv
 BYTE   W01
 BYTE   VOL   25*songC6_mvl/mxv
 BYTE   W02
 BYTE   VOL   24*songC6_mvl/mxv
 BYTE   W01
 BYTE   VOL   24*songC6_mvl/mxv
 BYTE   W02
 BYTE   VOL   23*songC6_mvl/mxv
 BYTE   W01
 BYTE   VOL   22*songC6_mvl/mxv
 BYTE   W02
 BYTE   VOL   22*songC6_mvl/mxv
 BYTE   W01
 BYTE   VOL   21*songC6_mvl/mxv
 BYTE   W02
 BYTE   VOL   20*songC6_mvl/mxv
 BYTE   W01
 BYTE   VOL   20*songC6_mvl/mxv
 BYTE   W02
 BYTE   VOL   19*songC6_mvl/mxv
 BYTE   W01
 BYTE   VOL   18*songC6_mvl/mxv
 BYTE   W02
 BYTE   VOL   17*songC6_mvl/mxv
 BYTE   W01
 BYTE   VOL   17*songC6_mvl/mxv
 BYTE   W02
 BYTE   VOL   16*songC6_mvl/mxv
 BYTE   W01
 BYTE   VOL   15*songC6_mvl/mxv
 BYTE   W02
 BYTE   VOL   14*songC6_mvl/mxv
 BYTE   W01
 BYTE   VOL   14*songC6_mvl/mxv
 BYTE   W02
 BYTE   VOL   13*songC6_mvl/mxv
 BYTE   W01
 BYTE   VOL   12*songC6_mvl/mxv
 BYTE   W02
 BYTE   VOL   11*songC6_mvl/mxv
 BYTE   W01
 BYTE   VOL   10*songC6_mvl/mxv
 BYTE   W02
 BYTE   VOL   10*songC6_mvl/mxv
 BYTE   W01
 BYTE   VOL   9*songC6_mvl/mxv
 BYTE   W02
 BYTE   VOL   8*songC6_mvl/mxv
 BYTE   W01
 BYTE   VOL   7*songC6_mvl/mxv
 BYTE   W02
 BYTE   VOL   6*songC6_mvl/mxv
 BYTE   W01
 BYTE   VOL   5*songC6_mvl/mxv
 BYTE   W02
 BYTE   VOL   5*songC6_mvl/mxv
 BYTE   W01
 BYTE   VOL   3*songC6_mvl/mxv
 BYTE   W02
 BYTE   VOL   33*songC6_mvl/mxv
 BYTE   N68  Cs3
 BYTE   N68  En3
 BYTE   W48
// 106   ----------------------------------------
 BYTE   W24
 BYTE   N23  Bn2
 BYTE   N23  Ds3
 BYTE   W24
 BYTE   N07  Gs2
 BYTE   N07  Cs3
 BYTE   W12
 BYTE   Bn2
 BYTE   N07  En3
 BYTE   W12
 BYTE   Cs3
 BYTE   N07  Gs3
 BYTE   W12
 BYTE   Ds3
 BYTE   N07  Bn3
 BYTE   W12
// 107   ----------------------------------------
 BYTE   En3
 BYTE   N07  Cs4
 BYTE   W12
 BYTE   Fs3
 BYTE   N07  En4
 BYTE   W12
 BYTE   Gs3
 BYTE   N07  Gs4
 BYTE   W12
 BYTE   Bn3
 BYTE   N07  Bn4
 BYTE   W12
 BYTE   N17  Cs3
 BYTE   N17  Cs4
 BYTE   W18
 BYTE   N40  En3
 BYTE   N40  En4
 BYTE   W30
// 108   ----------------------------------------
 BYTE   W12
 BYTE   N11  Gs3
 BYTE   N11  Bn3
 BYTE   W12
 BYTE   Fs3
 BYTE   N11  An3
 BYTE   W12
 BYTE   N44  En3
 BYTE   N44  Gs3
 BYTE   W48
 BYTE   N05  En3
 BYTE   N05  Gs3
 BYTE   W06
 BYTE   Fs3
 BYTE   N05  An3
 BYTE   W06
// 109   ----------------------------------------
 BYTE   N11  En3
 BYTE   N11  Gs3
 BYTE   W12
 BYTE   Ds3
 BYTE   N11  Fs3
 BYTE   W12
 BYTE   Cs3
 BYTE   N11  En3
 BYTE   W12
 BYTE   Gs2
 BYTE   N11  Cs3
 BYTE   W12
 BYTE   N32  Fs3
 BYTE   N32  Bn3
 BYTE   W36
 BYTE   N11  En3
 BYTE   N11  An3
 BYTE   W12
// 110   ----------------------------------------
 BYTE   N32  Ds3
 BYTE   N32  Gs3
 BYTE   W36
 BYTE   N05  Cs3
 BYTE   N05  Fs3
 BYTE   W06
 BYTE   Ds3
 BYTE   N05  Gs3
 BYTE   W06
 BYTE   N17  Fs3
 BYTE   N17  An3
 BYTE   W18
 BYTE   En3
 BYTE   N17  Gs3
 BYTE   W18
 BYTE   N11  Ds3
 BYTE   N11  Fs3
 BYTE   W12
// 111   ----------------------------------------
 BYTE   N17  Bn2
 BYTE   N17  Ds3
 BYTE   W18
 BYTE   Gs2
 BYTE   N17  Bn2
 BYTE   W18
 BYTE   N11  Ds2
 BYTE   N11  Gs2
 BYTE   W12
 BYTE   N80  Bn2
 BYTE   N80  Ds3
 BYTE   W48
// 112   ----------------------------------------
 BYTE   W36
 BYTE   N08  Cs3
 BYTE   N08  En3
 BYTE   W12
 BYTE   N80  Cs3
 BYTE   N80  En3
 BYTE   W48
// 113   ----------------------------------------
 BYTE   W96
// 114   ----------------------------------------
 BYTE   W96
// 115   ----------------------------------------
 BYTE   W96
// 116   ----------------------------------------
 BYTE   W96
// 117   ----------------------------------------
 BYTE   W96
// 118   ----------------------------------------
 BYTE   W96
// 119   ----------------------------------------
 BYTE   W96
// 120   ----------------------------------------
 BYTE   W96
// 121   ----------------------------------------
 BYTE   W96
// 122   ----------------------------------------
 BYTE   W48
 BYTE   N92  Fn3
 BYTE   W48
// 123   ----------------------------------------
 BYTE   W48
 BYTE   N44  Dn3
 BYTE   N44  Fn3
 BYTE   W48
// 124   ----------------------------------------
 BYTE   Ds3
 BYTE   N44  Gn3
 BYTE   W48
 BYTE   Cs3
 BYTE   N44  Fn3
 BYTE   W48
// 125   ----------------------------------------
 BYTE   Ds3
 BYTE   N44  Gn3
 BYTE   W48
 BYTE   N92  Fn3
 BYTE   N92  Gs3
 BYTE   W48
// 126   ----------------------------------------
 BYTE   W48
 BYTE   N44  Fn3
 BYTE   W48
// 127   ----------------------------------------
Label_10_014B2ACB:
 BYTE   N44  Ds3  v080
 BYTE   W48
 BYTE   Fn3
 BYTE   W48
 BYTE   PEND 
// 128   ----------------------------------------
Label_10_014B2AD2:
 BYTE   N23  Ds3  v080
 BYTE   W24
 BYTE   Gn3
 BYTE   W24
 BYTE   N32  Ds3
 BYTE   N32  Gn3
 BYTE   W36
 BYTE   N11  Fn3
 BYTE   N11  Gs3
 BYTE   W12
 BYTE   PEND 
// 129   ----------------------------------------
Label_10_014B2AE3:
 BYTE   N44  Fn3  v080
 BYTE   N44  Gs3
 BYTE   W48
 BYTE   Cs3
 BYTE   N44  Fn3
 BYTE   W48
 BYTE   PEND 
// 130   ----------------------------------------
Label_10_014B2AEE:
 BYTE   N44  Cn3  v080
 BYTE   N44  En3
 BYTE   W48
 BYTE   Cn3
 BYTE   W48
 BYTE   PEND 
// 131   ----------------------------------------
Label_10_014B2AF7:
 BYTE   N44  Cn3  v080
 BYTE   N44  En3
 BYTE   W48
 BYTE   Cn3
 BYTE   N44  Fn3
 BYTE   W48
 BYTE   PEND 
// 132   ----------------------------------------
Label_10_014B2B02:
 BYTE   N44  Cn3  v080
 BYTE   N44  Gn3
 BYTE   W48
 BYTE   Cs3
 BYTE   N44  Fn3
 BYTE   W48
 BYTE   PEND 
// 133   ----------------------------------------
 BYTE   Ds3
 BYTE   N44  Gn3
 BYTE   W48
 BYTE   Ds3
 BYTE   N44  Gn3
 BYTE   W48
// 134   ----------------------------------------
Label_10_014B2B15:
 BYTE   N44  Fn3  v080
 BYTE   N44  Gs3
 BYTE   W48
 BYTE   Fn3
 BYTE   W48
 BYTE   PEND 
// 135   ----------------------------------------
 BYTE   PATT
  POIN2 Label_10_014B2ACB
// 136   ----------------------------------------
 BYTE   PATT
  POIN2 Label_10_014B2AD2
// 137   ----------------------------------------
 BYTE   TIE  Fn3  v080
 BYTE   TIE  Gs3
 BYTE   W96
// 138   ----------------------------------------
 BYTE   W44
 BYTE   W03
 BYTE   EOT
 BYTE   Fn3  v068
 BYTE   W01
 BYTE   N44
 BYTE   N44  Cn4
 BYTE   W48
// 139   ----------------------------------------
Label_10_014B2B38:
 BYTE   N44  Gn3  v080
 BYTE   N44  As3
 BYTE   W48
 BYTE   Fn3
 BYTE   N44  Gs3
 BYTE   W48
 BYTE   PEND 
// 140   ----------------------------------------
 BYTE   Gn3
 BYTE   N44  As3
 BYTE   W48
 BYTE   Gs3
 BYTE   N44  Cn4
 BYTE   W48
// 141   ----------------------------------------
 BYTE   PATT
  POIN2 Label_10_014B2B38
// 142   ----------------------------------------
 BYTE   PATT
  POIN2 Label_10_014B2B38
// 143   ----------------------------------------
 BYTE   N44  Ds3  v080
 BYTE   N44  Gn3
 BYTE   W48
 BYTE   N44
 BYTE   N44  Cn4
 BYTE   W48
// 144   ----------------------------------------
 BYTE   N23  Fn3
 BYTE   N23  As3
 BYTE   W24
 BYTE   Ds3
 BYTE   N23  Gn3
 BYTE   W24
 BYTE   N32  Ds3
 BYTE   N32  Gn3
 BYTE   W36
 BYTE   N11  Fn3
 BYTE   N11  Gs3
 BYTE   W12
// 145   ----------------------------------------
 BYTE   PATT
  POIN2 Label_10_014B2AE3
// 146   ----------------------------------------
 BYTE   PATT
  POIN2 Label_10_014B2AEE
// 147   ----------------------------------------
 BYTE   PATT
  POIN2 Label_10_014B2AF7
// 148   ----------------------------------------
 BYTE   PATT
  POIN2 Label_10_014B2B02
// 149   ----------------------------------------
 BYTE   N44  Ds3  v080
 BYTE   N44  Gn3
 BYTE   W48
 BYTE   Fn3
 BYTE   N44  Gn3
 BYTE   W48
// 150   ----------------------------------------
 BYTE   PATT
  POIN2 Label_10_014B2B15
// 151   ----------------------------------------
 BYTE   PATT
  POIN2 Label_10_014B2ACB
// 152   ----------------------------------------
 BYTE   PATT
  POIN2 Label_10_014B2AD2
// 153   ----------------------------------------
 BYTE   N44  Fn3  v080
 BYTE   N44  Gs3
 BYTE   W48
 BYTE   Gn3
 BYTE   N44  As3
 BYTE   W48
// 154   ----------------------------------------
 BYTE   Fn3
 BYTE   N44  Gs3
 BYTE   W96
// 155   ----------------------------------------
 BYTE   W96
// 156   ----------------------------------------
 BYTE   W48
 BYTE   N11  Gs2
 BYTE   W12
 BYTE   N07  As2
 BYTE   W12
 BYTE   N05  Gs2
 BYTE   W06
 BYTE   As2
 BYTE   W06
 BYTE   Cn3
 BYTE   W06
 BYTE   Dn3
 BYTE   W06
// 157   ----------------------------------------
 BYTE   Cn3
 BYTE   W06
 BYTE   Dn3
 BYTE   W06
 BYTE   Ds3
 BYTE   W06
 BYTE   Fn3
 BYTE   W06
 BYTE   N05
 BYTE   W06
 BYTE   Gn3
 BYTE   W06
 BYTE   Gs3
 BYTE   W06
 BYTE   As3
 BYTE   W06
 BYTE   Cn4
 BYTE   W06
 BYTE   Dn4
 BYTE   W06
 BYTE   Ds4
 BYTE   W06
 BYTE   Fn4
 BYTE   W06
 BYTE   Gn4
 BYTE   W06
 BYTE   Fn4
 BYTE   W06
 BYTE   Ds4
 BYTE   W06
 BYTE   Dn4
 BYTE   W06
// 158   ----------------------------------------
 BYTE   Ds4
 BYTE   W06
 BYTE   Dn4
 BYTE   W06
 BYTE   Cn4
 BYTE   W06
 BYTE   As3
 BYTE   W06
 BYTE   Gs3
 BYTE   W06
 BYTE   Gn3
 BYTE   W06
 BYTE   N10  Fn3
 BYTE   W12
 BYTE   N05  Dn3
 BYTE   W06
 BYTE   Ds3
 BYTE   W06
 BYTE   N10  Fn3
 BYTE   W12
 BYTE   N05  Ds3
 BYTE   W06
 BYTE   Fn3
 BYTE   W06
 BYTE   Gn3
 BYTE   W12
// 159   ----------------------------------------
 BYTE   Fn3
 BYTE   W06
 BYTE   Gn3
 BYTE   W06
 BYTE   Gs3
 BYTE   W12
 BYTE   Gn3
 BYTE   W06
 BYTE   Gs3
 BYTE   W06
 BYTE   As3
 BYTE   W06
 BYTE   Cn4
 BYTE   W06
 BYTE   Dn4
 BYTE   W06
 BYTE   Ds4
 BYTE   W06
 BYTE   Fn4
 BYTE   W06
 BYTE   Gn4
 BYTE   W06
 BYTE   Fn4
 BYTE   W06
 BYTE   Ds4
 BYTE   W06
 BYTE   Fn4
 BYTE   W06
 BYTE   Ds4
 BYTE   W06
// 160   ----------------------------------------
 BYTE   Dn4
 BYTE   W06
 BYTE   Cn4
 BYTE   W06
 BYTE   As3
 BYTE   W06
 BYTE   Cn4
 BYTE   W06
 BYTE   Dn4
 BYTE   W06
 BYTE   Cn4
 BYTE   W06
 BYTE   N11  Dn4
 BYTE   W12
 BYTE   N05  Gn4
 BYTE   W06
 BYTE   Fn4
 BYTE   W06
 BYTE   N11  Gn4
 BYTE   W12
 BYTE   N05  As4
 BYTE   W06
 BYTE   Gs4
 BYTE   W06
 BYTE   Gn4
 BYTE   W06
 BYTE   Fn4
 BYTE   W06
// 161   ----------------------------------------
 BYTE   Gn4
 BYTE   W06
 BYTE   Fn4
 BYTE   W06
 BYTE   Ds4
 BYTE   W06
 BYTE   Dn4
 BYTE   W06
 BYTE   Fn4
 BYTE   W06
 BYTE   Ds4
 BYTE   W06
 BYTE   Dn4
 BYTE   W06
 BYTE   Cn4
 BYTE   W06
 BYTE   Dn4
 BYTE   W06
 BYTE   Cn4
 BYTE   W06
 BYTE   As3
 BYTE   W06
 BYTE   Gs3
 BYTE   W06
 BYTE   Cn4
 BYTE   W06
 BYTE   As3
 BYTE   W06
 BYTE   Gs3
 BYTE   W06
 BYTE   Gn3
 BYTE   W06
// 162   ----------------------------------------
 BYTE   As3
 BYTE   W06
 BYTE   Cn4
 BYTE   W06
 BYTE   Dn4
 BYTE   W06
 BYTE   Ds4
 BYTE   W06
 BYTE   Gn4
 BYTE   W06
 BYTE   Fn4
 BYTE   W06
 BYTE   Ds4
 BYTE   W06
 BYTE   Dn4
 BYTE   W06
 BYTE   N32  Cn4
 BYTE   W36
 BYTE   N05  Ds3
 BYTE   W06
 BYTE   Fn3
 BYTE   W06
// 163   ----------------------------------------
 BYTE   N11  Gn3
 BYTE   W12
 BYTE   Gs3
 BYTE   W12
 BYTE   As3
 BYTE   W12
 BYTE   Gs3
 BYTE   W12
 BYTE   Gn3
 BYTE   W12
 BYTE   Fn3
 BYTE   W12
 BYTE   N32  Gs3
 BYTE   W24
// 164   ----------------------------------------
 BYTE   W12
 BYTE   N11
 BYTE   W12
 BYTE   Cn4
 BYTE   W12
 BYTE   Cs4
 BYTE   W12
 BYTE   Cn4
 BYTE   W12
 BYTE   As3
 BYTE   W12
 BYTE   N32  Gs3
 BYTE   W24
// 165   ----------------------------------------
 BYTE   W12
 BYTE   N11  Fn3
 BYTE   W12
 BYTE   Gs3
 BYTE   W12
 BYTE   N23  Cs3
 BYTE   W24
 BYTE   N40  Cn4
 BYTE   W36
// 166   ----------------------------------------
 BYTE   W12
 BYTE   N11  Ds4
 BYTE   W12
 BYTE   Fn4
 BYTE   W12
 BYTE   Gn4
 BYTE   W12
 BYTE   N05  As4
 BYTE   W06
 BYTE   Gn4
 BYTE   W06
 BYTE   Fn4
 BYTE   W06
 BYTE   Ds4
 BYTE   W06
 BYTE   Gn4
 BYTE   W06
 BYTE   Fn4
 BYTE   W06
 BYTE   Ds4
 BYTE   W06
 BYTE   Fn4
 BYTE   W06
// 167   ----------------------------------------
 BYTE   N23  Gn4
 BYTE   W36
 BYTE   N05  Ds4
 BYTE   W06
 BYTE   Fn4
 BYTE   W06
 BYTE   Gn4
 BYTE   W06
 BYTE   Gs4
 BYTE   W06
 BYTE   Gn4
 BYTE   W06
 BYTE   Fn4
 BYTE   W06
 BYTE   Ds4
 BYTE   W06
 BYTE   Dn4
 BYTE   W06
 BYTE   Cn4
 BYTE   W06
 BYTE   As3
 BYTE   W06
// 168   ----------------------------------------
 BYTE   Dn4
 BYTE   W06
 BYTE   Ds4
 BYTE   W06
 BYTE   Dn4
 BYTE   W06
 BYTE   Cn4
 BYTE   W06
 BYTE   N17  As3
 BYTE   W24
 BYTE   N32
 BYTE   W36
 BYTE   N11  Cn4
 BYTE   W12
// 169   ----------------------------------------
 BYTE   Gs3
 BYTE   W12
 BYTE   Gn3
 BYTE   W12
 BYTE   Ds3
 BYTE   W12
 BYTE   Cs3
 BYTE   W12
 BYTE   Cn3
 BYTE   W12
 BYTE   As2
 BYTE   W12
 BYTE   Gs2
 BYTE   W12
 BYTE   As2
 BYTE   W12
// 170   ----------------------------------------
 BYTE   N40  Cn3
 BYTE   W48
 BYTE   N44  Gs3  v088
 BYTE   N44  Cn4
 BYTE   W48
// 171   ----------------------------------------
Label_10_014B2CF6:
 BYTE   N44  Gn3  v088
 BYTE   N44  As3
 BYTE   W48
 BYTE   Fn3
 BYTE   N44  Gs3
 BYTE   W48
 BYTE   PEND 
// 172   ----------------------------------------
 BYTE   Gn3
 BYTE   N44  As3
 BYTE   W48
 BYTE   Gs3
 BYTE   N44  Cn4
 BYTE   W48
// 173   ----------------------------------------
 BYTE   PATT
  POIN2 Label_10_014B2CF6
// 174   ----------------------------------------
 BYTE   PATT
  POIN2 Label_10_014B2CF6
// 175   ----------------------------------------
 BYTE   N44  Ds3  v088
 BYTE   N44  Gn3
 BYTE   W48
 BYTE   N44
 BYTE   N44  Cn4
 BYTE   W48
// 176   ----------------------------------------
 BYTE   N23  Fn3
 BYTE   N23  As3
 BYTE   W24
 BYTE   Ds3
 BYTE   N23  Gn3
 BYTE   W24
 BYTE   N32  Ds3
 BYTE   N32  Gn3
 BYTE   W36
 BYTE   N11  Fn3
 BYTE   N11  Gs3
 BYTE   W12
// 177   ----------------------------------------
 BYTE   N23  Fn3
 BYTE   N23  Gs3
 BYTE   W24
 BYTE   As4
 BYTE   W24
 BYTE   Gs4
 BYTE   W24
 BYTE   Fn4
 BYTE   W24
// 178   ----------------------------------------
 BYTE   En4
 BYTE   W24
 BYTE   Cn3
 BYTE   N23  En3
 BYTE   W24
 BYTE   N44  Cn3
 BYTE   W48
// 179   ----------------------------------------
 BYTE   N44
 BYTE   N44  En3
 BYTE   W48
 BYTE   Cn3
 BYTE   N44  Fn3
 BYTE   W48
// 180   ----------------------------------------
 BYTE   Cn3
 BYTE   N44  Gn3
 BYTE   W48
 BYTE   Cs3
 BYTE   N44  Fn3
 BYTE   W48
// 181   ----------------------------------------
 BYTE   Ds3
 BYTE   N44  Gn3
 BYTE   W48
 BYTE   Fn3
 BYTE   N44  Gn3
 BYTE   W48
// 182   ----------------------------------------
 BYTE   Fn3
 BYTE   N44  Gs3
 BYTE   W48
 BYTE   Fn3
 BYTE   W48
// 183   ----------------------------------------
 BYTE   Ds3
 BYTE   W48
 BYTE   Fn3
 BYTE   W48
// 184   ----------------------------------------
 BYTE   N23  Ds3
 BYTE   W24
 BYTE   Gn3
 BYTE   W24
 BYTE   N32  Ds3
 BYTE   N32  Gn3
 BYTE   W36
 BYTE   N11  Fn3
 BYTE   N11  Gs3
 BYTE   W12
// 185   ----------------------------------------
 BYTE   N44  Fn3
 BYTE   N44  Gs3
 BYTE   W48
 BYTE   Gn3
 BYTE   N44  As3
 BYTE   W48
// 186   ----------------------------------------
 BYTE   N56  Fn3
 BYTE   N56  Gs3
 BYTE   W24
 BYTE   W01
 BYTE   VOL   33*songC6_mvl/mxv
 BYTE   W02
 BYTE   VOL   33*songC6_mvl/mxv
 BYTE   W01
 BYTE   VOL   32*songC6_mvl/mxv
 BYTE   W02
 BYTE   VOL   32*songC6_mvl/mxv
 BYTE   W01
 BYTE   VOL   31*songC6_mvl/mxv
 BYTE   W02
 BYTE   VOL   31*songC6_mvl/mxv
 BYTE   W01
 BYTE   VOL   30*songC6_mvl/mxv
 BYTE   W02
 BYTE   VOL   30*songC6_mvl/mxv
 BYTE   W01
 BYTE   VOL   29*songC6_mvl/mxv
 BYTE   W02
 BYTE   VOL   29*songC6_mvl/mxv
 BYTE   W01
 BYTE   VOL   28*songC6_mvl/mxv
 BYTE   W02
 BYTE   VOL   28*songC6_mvl/mxv
 BYTE   W01
 BYTE   VOL   27*songC6_mvl/mxv
 BYTE   W02
 BYTE   VOL   26*songC6_mvl/mxv
 BYTE   W01
 BYTE   VOL   25*songC6_mvl/mxv
 BYTE   W02
 BYTE   VOL   25*songC6_mvl/mxv
 BYTE   W01
 BYTE   VOL   24*songC6_mvl/mxv
 BYTE   W02
 BYTE   VOL   23*songC6_mvl/mxv
 BYTE   W01
 BYTE   VOL   22*songC6_mvl/mxv
 BYTE   W02
 BYTE   VOL   21*songC6_mvl/mxv
 BYTE   W01
 BYTE   VOL   19*songC6_mvl/mxv
 BYTE   W02
 BYTE   VOL   18*songC6_mvl/mxv
 BYTE   W01
 BYTE   VOL   17*songC6_mvl/mxv
 BYTE   W02
 BYTE   VOL   16*songC6_mvl/mxv
 BYTE   W01
 BYTE   VOL   14*songC6_mvl/mxv
 BYTE   W02
 BYTE   VOL   11*songC6_mvl/mxv
 BYTE   W01
 BYTE   VOL   9*songC6_mvl/mxv
 BYTE   W02
 BYTE   VOL   8*songC6_mvl/mxv
 BYTE   W01
 BYTE   VOL   0*songC6_mvl/mxv
 BYTE   W28
 BYTE   W01
// 187   ----------------------------------------
 BYTE   W96
// 188   ----------------------------------------
 BYTE   W96
// 189   ----------------------------------------
 BYTE   W96
// 190   ----------------------------------------
 BYTE   W96
// 191   ----------------------------------------
 BYTE   W96
// 192   ----------------------------------------
 BYTE   W96
// 193   ----------------------------------------
 BYTE   W96
// 194   ----------------------------------------
 BYTE   W96
// 195   ----------------------------------------
 BYTE   W96
// 196   ----------------------------------------
 BYTE   W96
// 197   ----------------------------------------
 BYTE   W96
// 198   ----------------------------------------
 BYTE   W96
// 199   ----------------------------------------
 BYTE   W96
// 200   ----------------------------------------
 BYTE   W96
// 201   ----------------------------------------
 BYTE   W96
// 202   ----------------------------------------
 BYTE   W96
// 203   ----------------------------------------
 BYTE   W96
// 204   ----------------------------------------
 BYTE   W48
 BYTE   GoTo
  POIN2 Label_10_014B244A
 BYTE   FINE

//**************** Track 12 (Midi-Chn.11) ****************//

songC6_012:
// 000   ----------------------------------------
 BYTE   KEYSH   songC6_key+0
Label_11_014B2EE2:
 BYTE   VOICE   109
 BYTE   MOD 3
 BYTE   PAN   c_v+63
 BYTE   VOL   33*songC6_mvl/mxv
 BYTE   W96
// 001   ----------------------------------------
 BYTE   W48
 BYTE   N11  Bn3  v088
 BYTE   W12
 BYTE   En3  v056
 BYTE   W12
 BYTE   Fs3  v076
 BYTE   W12
 BYTE   Gs3  v080
 BYTE   W12
// 002   ----------------------------------------
 BYTE   An3
 BYTE   W12
 BYTE   N32  Bn3  v076
 BYTE   W07
 BYTE   VOL   33*songC6_mvl/mxv
 BYTE   W03
 BYTE   VOL   33*songC6_mvl/mxv
 BYTE   W02
 BYTE   VOL   32*songC6_mvl/mxv
 BYTE   W03
 BYTE   VOL   32*songC6_mvl/mxv
 BYTE   W01
 BYTE   VOL   31*songC6_mvl/mxv
 BYTE   W02
 BYTE   VOL   31*songC6_mvl/mxv
 BYTE   W01
 BYTE   VOL   30*songC6_mvl/mxv
 BYTE   W02
 BYTE   VOL   30*songC6_mvl/mxv
 BYTE   W01
 BYTE   VOL   29*songC6_mvl/mxv
 BYTE   W02
 BYTE   VOL   29*songC6_mvl/mxv
 BYTE   W01
 BYTE   VOL   28*songC6_mvl/mxv
 BYTE   W02
 BYTE   VOL   28*songC6_mvl/mxv
 BYTE   W01
 BYTE   VOL   27*songC6_mvl/mxv
 BYTE   W02
 BYTE   VOL   26*songC6_mvl/mxv
 BYTE   W01
 BYTE   VOL   26*songC6_mvl/mxv
 BYTE   W02
 BYTE   VOL   25*songC6_mvl/mxv
 BYTE   W01
 BYTE   VOL   24*songC6_mvl/mxv
 BYTE   W02
 BYTE   VOL   33*songC6_mvl/mxv
 BYTE   N11  En3  v072
 BYTE   W12
 BYTE   Gs3  v056
 BYTE   W12
 BYTE   An3  v084
 BYTE   W12
 BYTE   Bn3  v064
 BYTE   W12
// 003   ----------------------------------------
 BYTE   An3  v080
 BYTE   W12
 BYTE   Gs3  v056
 BYTE   W12
 BYTE   Fs3  v080
 BYTE   W12
 BYTE   En3  v056
 BYTE   W12
 BYTE   Bn2  v076
 BYTE   W12
 BYTE   En2  v072
 BYTE   W12
 BYTE   Fs2  v068
 BYTE   W12
 BYTE   Gs2  v064
 BYTE   W12
// 004   ----------------------------------------
 BYTE   An2  v072
 BYTE   W12
 BYTE   VOL   28*songC6_mvl/mxv
 BYTE   N68  Gs2  v064
 BYTE   W01
 BYTE   VOL   28*songC6_mvl/mxv
 BYTE   W02
 BYTE   VOL   29*songC6_mvl/mxv
 BYTE   W01
 BYTE   VOL   29*songC6_mvl/mxv
 BYTE   W02
 BYTE   VOL   30*songC6_mvl/mxv
 BYTE   W01
 BYTE   VOL   30*songC6_mvl/mxv
 BYTE   W02
 BYTE   VOL   31*songC6_mvl/mxv
 BYTE   W01
 BYTE   VOL   31*songC6_mvl/mxv
 BYTE   W02
 BYTE   VOL   32*songC6_mvl/mxv
 BYTE   W01
 BYTE   VOL   32*songC6_mvl/mxv
 BYTE   W02
 BYTE   VOL   32*songC6_mvl/mxv
 BYTE   W01
 BYTE   VOL   33*songC6_mvl/mxv
 BYTE   W02
 BYTE   VOL   33*songC6_mvl/mxv
 BYTE   W01
 BYTE   VOL   33*songC6_mvl/mxv
 BYTE   W06
 BYTE   VOL   33*songC6_mvl/mxv
 BYTE   W06
 BYTE   VOL   33*songC6_mvl/mxv
 BYTE   W05
 BYTE   VOL   32*songC6_mvl/mxv
 BYTE   W03
 BYTE   VOL   32*songC6_mvl/mxv
 BYTE   W01
 BYTE   VOL   32*songC6_mvl/mxv
 BYTE   W06
 BYTE   VOL   31*songC6_mvl/mxv
 BYTE   W02
 BYTE   VOL   31*songC6_mvl/mxv
 BYTE   W03
 BYTE   VOL   31*songC6_mvl/mxv
 BYTE   W01
 BYTE   VOL   30*songC6_mvl/mxv
 BYTE   W02
 BYTE   VOL   30*songC6_mvl/mxv
 BYTE   W03
 BYTE   VOL   29*songC6_mvl/mxv
 BYTE   W01
 BYTE   VOL   29*songC6_mvl/mxv
 BYTE   W02
 BYTE   VOL   28*songC6_mvl/mxv
 BYTE   W03
 BYTE   VOL   28*songC6_mvl/mxv
 BYTE   W01
 BYTE   VOL   27*songC6_mvl/mxv
 BYTE   W02
 BYTE   VOL   27*songC6_mvl/mxv
 BYTE   W01
 BYTE   VOL   26*songC6_mvl/mxv
 BYTE   W02
 BYTE   VOL   25*songC6_mvl/mxv
 BYTE   W01
 BYTE   VOL   24*songC6_mvl/mxv
 BYTE   W02
 BYTE   VOL   24*songC6_mvl/mxv
 BYTE   N80  Bn2  v068
 BYTE   W01
 BYTE   VOL   25*songC6_mvl/mxv
 BYTE   W02
 BYTE   VOL   26*songC6_mvl/mxv
 BYTE   W01
 BYTE   VOL   27*songC6_mvl/mxv
 BYTE   W02
 BYTE   VOL   27*songC6_mvl/mxv
 BYTE   W01
 BYTE   VOL   28*songC6_mvl/mxv
 BYTE   W02
 BYTE   VOL   28*songC6_mvl/mxv
 BYTE   W01
 BYTE   VOL   28*songC6_mvl/mxv
 BYTE   W02
// 005   ----------------------------------------
 BYTE   VOL   29*songC6_mvl/mxv
 BYTE   W01
 BYTE   VOL   29*songC6_mvl/mxv
 BYTE   W02
 BYTE   VOL   29*songC6_mvl/mxv
 BYTE   W01
 BYTE   VOL   30*songC6_mvl/mxv
 BYTE   W02
 BYTE   VOL   30*songC6_mvl/mxv
 BYTE   W01
 BYTE   VOL   31*songC6_mvl/mxv
 BYTE   W02
 BYTE   VOL   31*songC6_mvl/mxv
 BYTE   W01
 BYTE   VOL   32*songC6_mvl/mxv
 BYTE   W02
 BYTE   VOL   32*songC6_mvl/mxv
 BYTE   W01
 BYTE   VOL   32*songC6_mvl/mxv
 BYTE   W03
 BYTE   VOL   33*songC6_mvl/mxv
 BYTE   W05
 BYTE   VOL   33*songC6_mvl/mxv
 BYTE   W10
 BYTE   VOL   33*songC6_mvl/mxv
 BYTE   W09
 BYTE   VOL   32*songC6_mvl/mxv
 BYTE   W05
 BYTE   VOL   32*songC6_mvl/mxv
 BYTE   W03
 BYTE   VOL   31*songC6_mvl/mxv
 BYTE   W04
 BYTE   VOL   31*songC6_mvl/mxv
 BYTE   W02
 BYTE   VOL   30*songC6_mvl/mxv
 BYTE   W01
 BYTE   VOL   30*songC6_mvl/mxv
 BYTE   W02
 BYTE   VOL   30*songC6_mvl/mxv
 BYTE   W01
 BYTE   VOL   29*songC6_mvl/mxv
 BYTE   W03
 BYTE   VOL   28*songC6_mvl/mxv
 BYTE   W02
 BYTE   VOL   28*songC6_mvl/mxv
 BYTE   W01
 BYTE   VOL   28*songC6_mvl/mxv
 BYTE   W02
 BYTE   VOL   27*songC6_mvl/mxv
 BYTE   W01
 BYTE   VOL   27*songC6_mvl/mxv
 BYTE   W02
 BYTE   VOL   26*songC6_mvl/mxv
 BYTE   W01
 BYTE   VOL   26*songC6_mvl/mxv
 BYTE   W02
 BYTE   VOL   32*songC6_mvl/mxv
 BYTE   N44  Ds3  v072
 BYTE   W01
 BYTE   VOL   32*songC6_mvl/mxv
 BYTE   W02
 BYTE   VOL   33*songC6_mvl/mxv
 BYTE   W01
 BYTE   VOL   33*songC6_mvl/mxv
 BYTE   W20
// 006   ----------------------------------------
 BYTE   VOL   33*songC6_mvl/mxv
 BYTE   W01
 BYTE   VOL   33*songC6_mvl/mxv
 BYTE   W03
 BYTE   VOL   32*songC6_mvl/mxv
 BYTE   W03
 BYTE   VOL   32*songC6_mvl/mxv
 BYTE   W03
 BYTE   VOL   31*songC6_mvl/mxv
 BYTE   W02
 BYTE   VOL   31*songC6_mvl/mxv
 BYTE   W01
 BYTE   VOL   31*songC6_mvl/mxv
 BYTE   W02
 BYTE   VOL   30*songC6_mvl/mxv
 BYTE   W01
 BYTE   VOL   30*songC6_mvl/mxv
 BYTE   W02
 BYTE   VOL   29*songC6_mvl/mxv
 BYTE   W01
 BYTE   VOL   28*songC6_mvl/mxv
 BYTE   W02
 BYTE   VOL   28*songC6_mvl/mxv
 BYTE   W01
 BYTE   VOL   27*songC6_mvl/mxv
 BYTE   W02
 BYTE   VOL   27*songC6_mvl/mxv
 BYTE   N56  En3  v076
 BYTE   W01
 BYTE   VOL   28*songC6_mvl/mxv
 BYTE   W02
 BYTE   VOL   28*songC6_mvl/mxv
 BYTE   W01
 BYTE   VOL   28*songC6_mvl/mxv
 BYTE   W02
 BYTE   VOL   29*songC6_mvl/mxv
 BYTE   W01
 BYTE   VOL   29*songC6_mvl/mxv
 BYTE   W02
 BYTE   VOL   30*songC6_mvl/mxv
 BYTE   W01
 BYTE   VOL   30*songC6_mvl/mxv
 BYTE   W02
 BYTE   VOL   30*songC6_mvl/mxv
 BYTE   W01
 BYTE   VOL   31*songC6_mvl/mxv
 BYTE   W02
 BYTE   VOL   31*songC6_mvl/mxv
 BYTE   W03
 BYTE   VOL   31*songC6_mvl/mxv
 BYTE   W01
 BYTE   VOL   32*songC6_mvl/mxv
 BYTE   W05
 BYTE   VOL   32*songC6_mvl/mxv
 BYTE   W15
 BYTE   VOL   32*songC6_mvl/mxv
 BYTE   W04
 BYTE   VOL   31*songC6_mvl/mxv
 BYTE   W02
 BYTE   VOL   31*songC6_mvl/mxv
 BYTE   W01
 BYTE   VOL   30*songC6_mvl/mxv
 BYTE   W02
 BYTE   VOL   29*songC6_mvl/mxv
 BYTE   W01
 BYTE   VOL   29*songC6_mvl/mxv
 BYTE   W02
 BYTE   VOL   28*songC6_mvl/mxv
 BYTE   W01
 BYTE   VOL   27*songC6_mvl/mxv
 BYTE   W02
 BYTE   VOL   26*songC6_mvl/mxv
 BYTE   W01
 BYTE   VOL   26*songC6_mvl/mxv
 BYTE   W02
 BYTE   VOL   24*songC6_mvl/mxv
 BYTE   W01
 BYTE   VOL   23*songC6_mvl/mxv
 BYTE   W02
 BYTE   VOL   33*songC6_mvl/mxv
 BYTE   N23  An3  v060
 BYTE   W12
// 007   ----------------------------------------
 BYTE   W12
 BYTE   N11  Gs3  v068
 BYTE   W12
 BYTE   N23  Fs3  v076
 BYTE   W24
 BYTE   VOL   32*songC6_mvl/mxv
 BYTE   TIE  Gs3
 BYTE   W01
 BYTE   VOL   31*songC6_mvl/mxv
 BYTE   W02
 BYTE   VOL   31*songC6_mvl/mxv
 BYTE   W01
 BYTE   VOL   31*songC6_mvl/mxv
 BYTE   W02
 BYTE   VOL   29*songC6_mvl/mxv
 BYTE   W03
 BYTE   VOL   29*songC6_mvl/mxv
 BYTE   W01
 BYTE   VOL   28*songC6_mvl/mxv
 BYTE   W02
 BYTE   VOL   27*songC6_mvl/mxv
 BYTE   W01
 BYTE   VOL   27*songC6_mvl/mxv
 BYTE   W08
 BYTE   VOL   27*songC6_mvl/mxv
 BYTE   W04
 BYTE   VOL   28*songC6_mvl/mxv
 BYTE   W05
 BYTE   VOL   28*songC6_mvl/mxv
 BYTE   W01
 BYTE   VOL   28*songC6_mvl/mxv
 BYTE   W03
 BYTE   VOL   29*songC6_mvl/mxv
 BYTE   W02
 BYTE   VOL   29*songC6_mvl/mxv
 BYTE   W01
 BYTE   VOL   30*songC6_mvl/mxv
 BYTE   W03
 BYTE   VOL   30*songC6_mvl/mxv
 BYTE   W02
 BYTE   VOL   31*songC6_mvl/mxv
 BYTE   W01
 BYTE   VOL   31*songC6_mvl/mxv
 BYTE   W02
 BYTE   VOL   31*songC6_mvl/mxv
 BYTE   W01
 BYTE   VOL   32*songC6_mvl/mxv
 BYTE   W02
// 008   ----------------------------------------
 BYTE   W01
 BYTE   VOL   32*songC6_mvl/mxv
 BYTE   W03
 BYTE   VOL   32*songC6_mvl/mxv
 BYTE   W03
 BYTE   VOL   33*songC6_mvl/mxv
 BYTE   W03
 BYTE   VOL   33*songC6_mvl/mxv
 BYTE   W05
 BYTE   VOL   33*songC6_mvl/mxv
 BYTE   W16
 BYTE   VOL   33*songC6_mvl/mxv
 BYTE   W02
 BYTE   VOL   33*songC6_mvl/mxv
 BYTE   W04
 BYTE   VOL   32*songC6_mvl/mxv
 BYTE   W06
 BYTE   VOL   32*songC6_mvl/mxv
 BYTE   W03
 BYTE   VOL   32*songC6_mvl/mxv
 BYTE   W03
 BYTE   VOL   31*songC6_mvl/mxv
 BYTE   W03
 BYTE   VOL   31*songC6_mvl/mxv
 BYTE   W03
 BYTE   VOL   30*songC6_mvl/mxv
 BYTE   W03
 BYTE   VOL   30*songC6_mvl/mxv
 BYTE   W02
 BYTE   VOL   30*songC6_mvl/mxv
 BYTE   W01
 BYTE   VOL   29*songC6_mvl/mxv
 BYTE   W02
 BYTE   VOL   29*songC6_mvl/mxv
 BYTE   W01
 BYTE   VOL   29*songC6_mvl/mxv
 BYTE   W02
 BYTE   VOL   28*songC6_mvl/mxv
 BYTE   W01
 BYTE   VOL   28*songC6_mvl/mxv
 BYTE   W02
 BYTE   VOL   27*songC6_mvl/mxv
 BYTE   W01
 BYTE   VOL   26*songC6_mvl/mxv
 BYTE   W02
 BYTE   VOL   26*songC6_mvl/mxv
 BYTE   W03
 BYTE   VOL   25*songC6_mvl/mxv
 BYTE   W01
 BYTE   VOL   24*songC6_mvl/mxv
 BYTE   W02
 BYTE   VOL   24*songC6_mvl/mxv
 BYTE   W01
 BYTE   VOL   24*songC6_mvl/mxv
 BYTE   W02
 BYTE   VOL   23*songC6_mvl/mxv
 BYTE   W01
 BYTE   VOL   22*songC6_mvl/mxv
 BYTE   W02
 BYTE   VOL   22*songC6_mvl/mxv
 BYTE   W01
 BYTE   VOL   21*songC6_mvl/mxv
 BYTE   W02
 BYTE   VOL   20*songC6_mvl/mxv
 BYTE   W01
 BYTE   VOL   19*songC6_mvl/mxv
 BYTE   W02
 BYTE   VOL   18*songC6_mvl/mxv
 BYTE   W01
 BYTE   VOL   18*songC6_mvl/mxv
 BYTE   W02
 BYTE   VOL   17*songC6_mvl/mxv
 BYTE   W01
 BYTE   EOT
 BYTE   VOL   16*songC6_mvl/mxv
 BYTE   W02
// 009   ----------------------------------------
 BYTE   VOL   21*songC6_mvl/mxv
 BYTE   N44  As3  v068
 BYTE   W01
 BYTE   VOL   22*songC6_mvl/mxv
 BYTE   W02
 BYTE   VOL   23*songC6_mvl/mxv
 BYTE   W01
 BYTE   VOL   24*songC6_mvl/mxv
 BYTE   W02
 BYTE   VOL   25*songC6_mvl/mxv
 BYTE   W01
 BYTE   VOL   26*songC6_mvl/mxv
 BYTE   W02
 BYTE   VOL   27*songC6_mvl/mxv
 BYTE   W01
 BYTE   VOL   27*songC6_mvl/mxv
 BYTE   W02
 BYTE   VOL   28*songC6_mvl/mxv
 BYTE   W01
 BYTE   VOL   28*songC6_mvl/mxv
 BYTE   W02
 BYTE   VOL   29*songC6_mvl/mxv
 BYTE   W01
 BYTE   VOL   29*songC6_mvl/mxv
 BYTE   W02
 BYTE   VOL   30*songC6_mvl/mxv
 BYTE   W01
 BYTE   VOL   31*songC6_mvl/mxv
 BYTE   W02
 BYTE   VOL   31*songC6_mvl/mxv
 BYTE   W01
 BYTE   VOL   31*songC6_mvl/mxv
 BYTE   W02
 BYTE   VOL   32*songC6_mvl/mxv
 BYTE   W07
 BYTE   VOL   31*songC6_mvl/mxv
 BYTE   W02
 BYTE   VOL   31*songC6_mvl/mxv
 BYTE   W01
 BYTE   VOL   31*songC6_mvl/mxv
 BYTE   W02
 BYTE   VOL   30*songC6_mvl/mxv
 BYTE   W01
 BYTE   VOL   30*songC6_mvl/mxv
 BYTE   W02
 BYTE   VOL   28*songC6_mvl/mxv
 BYTE   W01
 BYTE   VOL   28*songC6_mvl/mxv
 BYTE   W02
 BYTE   VOL   26*songC6_mvl/mxv
 BYTE   W01
 BYTE   VOL   25*songC6_mvl/mxv
 BYTE   W02
 BYTE   VOL   24*songC6_mvl/mxv
 BYTE   W01
 BYTE   VOL   23*songC6_mvl/mxv
 BYTE   W02
 BYTE   VOL   24*songC6_mvl/mxv
 BYTE   TIE  Gs3  v072
 BYTE   W03
 BYTE   VOL   25*songC6_mvl/mxv
 BYTE   W03
 BYTE   VOL   25*songC6_mvl/mxv
 BYTE   W01
 BYTE   VOL   26*songC6_mvl/mxv
 BYTE   W03
 BYTE   VOL   26*songC6_mvl/mxv
 BYTE   W03
 BYTE   VOL   27*songC6_mvl/mxv
 BYTE   W02
 BYTE   VOL   27*songC6_mvl/mxv
 BYTE   W03
 BYTE   VOL   28*songC6_mvl/mxv
 BYTE   W03
 BYTE   VOL   28*songC6_mvl/mxv
 BYTE   W01
 BYTE   VOL   28*songC6_mvl/mxv
 BYTE   W03
 BYTE   VOL   29*songC6_mvl/mxv
 BYTE   W03
 BYTE   VOL   29*songC6_mvl/mxv
 BYTE   W02
 BYTE   VOL   30*songC6_mvl/mxv
 BYTE   W03
 BYTE   VOL   30*songC6_mvl/mxv
 BYTE   W04
 BYTE   VOL   31*songC6_mvl/mxv
 BYTE   W02
 BYTE   VOL   31*songC6_mvl/mxv
 BYTE   W03
 BYTE   VOL   31*songC6_mvl/mxv
 BYTE   W01
 BYTE   VOL   32*songC6_mvl/mxv
 BYTE   W03
 BYTE   VOL   32*songC6_mvl/mxv
 BYTE   W02
// 010   ----------------------------------------
 BYTE   VOL   32*songC6_mvl/mxv
 BYTE   W04
 BYTE   VOL   33*songC6_mvl/mxv
 BYTE   W36
 BYTE   W03
 BYTE   VOL   32*songC6_mvl/mxv
 BYTE   W03
 BYTE   VOL   32*songC6_mvl/mxv
 BYTE   W02
 BYTE   VOL   32*songC6_mvl/mxv
 BYTE   W03
 BYTE   VOL   31*songC6_mvl/mxv
 BYTE   W04
 BYTE   VOL   30*songC6_mvl/mxv
 BYTE   W03
 BYTE   VOL   30*songC6_mvl/mxv
 BYTE   W03
 BYTE   VOL   29*songC6_mvl/mxv
 BYTE   W03
 BYTE   VOL   29*songC6_mvl/mxv
 BYTE   W02
 BYTE   VOL   28*songC6_mvl/mxv
 BYTE   W03
 BYTE   VOL   28*songC6_mvl/mxv
 BYTE   W01
 BYTE   VOL   27*songC6_mvl/mxv
 BYTE   W02
 BYTE   VOL   27*songC6_mvl/mxv
 BYTE   W01
 BYTE   VOL   27*songC6_mvl/mxv
 BYTE   W02
 BYTE   VOL   26*songC6_mvl/mxv
 BYTE   W01
 BYTE   VOL   26*songC6_mvl/mxv
 BYTE   W02
 BYTE   VOL   25*songC6_mvl/mxv
 BYTE   W01
 BYTE   VOL   25*songC6_mvl/mxv
 BYTE   W02
 BYTE   VOL   24*songC6_mvl/mxv
 BYTE   W01
 BYTE   VOL   24*songC6_mvl/mxv
 BYTE   W02
 BYTE   VOL   24*songC6_mvl/mxv
 BYTE   W01
 BYTE   VOL   23*songC6_mvl/mxv
 BYTE   W02
 BYTE   VOL   23*songC6_mvl/mxv
 BYTE   W01
 BYTE   VOL   22*songC6_mvl/mxv
 BYTE   W02
 BYTE   VOL   21*songC6_mvl/mxv
 BYTE   W01
 BYTE   VOL   20*songC6_mvl/mxv
 BYTE   W02
 BYTE   VOL   20*songC6_mvl/mxv
 BYTE   W01
 BYTE   EOT
 BYTE   VOL   19*songC6_mvl/mxv
 BYTE   W02
// 011   ----------------------------------------
 BYTE   VOL   33*songC6_mvl/mxv
 BYTE   N11  Fs3  v080
 BYTE   W12
 BYTE   En3  v056
 BYTE   W12
 BYTE   Fs3  v076
 BYTE   W12
 BYTE   VOL   26*songC6_mvl/mxv
 BYTE   TIE  Gs3
 BYTE   W06
 BYTE   VOL   27*songC6_mvl/mxv
 BYTE   W04
 BYTE   VOL   27*songC6_mvl/mxv
 BYTE   W03
 BYTE   VOL   27*songC6_mvl/mxv
 BYTE   W03
 BYTE   VOL   28*songC6_mvl/mxv
 BYTE   W02
 BYTE   VOL   28*songC6_mvl/mxv
 BYTE   W03
 BYTE   VOL   28*songC6_mvl/mxv
 BYTE   W01
 BYTE   VOL   29*songC6_mvl/mxv
 BYTE   W02
 BYTE   VOL   29*songC6_mvl/mxv
 BYTE   W03
 BYTE   VOL   29*songC6_mvl/mxv
 BYTE   W03
 BYTE   VOL   30*songC6_mvl/mxv
 BYTE   W03
 BYTE   VOL   30*songC6_mvl/mxv
 BYTE   W01
 BYTE   VOL   30*songC6_mvl/mxv
 BYTE   W03
 BYTE   VOL   31*songC6_mvl/mxv
 BYTE   W03
 BYTE   VOL   31*songC6_mvl/mxv
 BYTE   W03
 BYTE   VOL   31*songC6_mvl/mxv
 BYTE   W02
 BYTE   VOL   32*songC6_mvl/mxv
 BYTE   W04
 BYTE   VOL   32*songC6_mvl/mxv
 BYTE   W02
 BYTE   VOL   32*songC6_mvl/mxv
 BYTE   W04
 BYTE   VOL   33*songC6_mvl/mxv
 BYTE   W05
// 012   ----------------------------------------
 BYTE   W03
 BYTE   VOL   33*songC6_mvl/mxv
 BYTE   W03
 BYTE   VOL   33*songC6_mvl/mxv
 BYTE   W40
 BYTE   VOL   33*songC6_mvl/mxv
 BYTE   W03
 BYTE   VOL   33*songC6_mvl/mxv
 BYTE   W02
 BYTE   VOL   32*songC6_mvl/mxv
 BYTE   W01
 BYTE   VOL   32*songC6_mvl/mxv
 BYTE   W03
 BYTE   VOL   32*songC6_mvl/mxv
 BYTE   W02
 BYTE   VOL   31*songC6_mvl/mxv
 BYTE   W01
 BYTE   VOL   31*songC6_mvl/mxv
 BYTE   W02
 BYTE   VOL   31*songC6_mvl/mxv
 BYTE   W03
 BYTE   VOL   30*songC6_mvl/mxv
 BYTE   W03
 BYTE   VOL   30*songC6_mvl/mxv
 BYTE   W01
 BYTE   VOL   29*songC6_mvl/mxv
 BYTE   W03
 BYTE   VOL   29*songC6_mvl/mxv
 BYTE   W02
 BYTE   VOL   28*songC6_mvl/mxv
 BYTE   W03
 BYTE   VOL   28*songC6_mvl/mxv
 BYTE   W01
 BYTE   VOL   28*songC6_mvl/mxv
 BYTE   W02
 BYTE   VOL   27*songC6_mvl/mxv
 BYTE   W03
 BYTE   VOL   26*songC6_mvl/mxv
 BYTE   W01
 BYTE   VOL   26*songC6_mvl/mxv
 BYTE   W02
 BYTE   VOL   25*songC6_mvl/mxv
 BYTE   W01
 BYTE   VOL   24*songC6_mvl/mxv
 BYTE   W02
 BYTE   VOL   24*songC6_mvl/mxv
 BYTE   W01
 BYTE   VOL   24*songC6_mvl/mxv
 BYTE   W02
 BYTE   VOL   23*songC6_mvl/mxv
 BYTE   W01
 BYTE   VOL   22*songC6_mvl/mxv
 BYTE   W02
 BYTE   VOL   21*songC6_mvl/mxv
 BYTE   W01
 BYTE   EOT
 BYTE   VOL   20*songC6_mvl/mxv
 BYTE   W02
// 013   ----------------------------------------
 BYTE   VOL   33*songC6_mvl/mxv
 BYTE   N44  As3  v072
 BYTE   W48
 BYTE   N92  Gs3  v068
 BYTE   W28
 BYTE   VOL   33*songC6_mvl/mxv
 BYTE   W11
 BYTE   VOL   32*songC6_mvl/mxv
 BYTE   W03
 BYTE   VOL   32*songC6_mvl/mxv
 BYTE   W03
 BYTE   VOL   32*songC6_mvl/mxv
 BYTE   W01
 BYTE   VOL   31*songC6_mvl/mxv
 BYTE   W02
// 014   ----------------------------------------
 BYTE   VOL   31*songC6_mvl/mxv
 BYTE   W03
 BYTE   VOL   31*songC6_mvl/mxv
 BYTE   W03
 BYTE   VOL   30*songC6_mvl/mxv
 BYTE   W01
 BYTE   VOL   30*songC6_mvl/mxv
 BYTE   W05
 BYTE   VOL   30*songC6_mvl/mxv
 BYTE   W01
 BYTE   VOL   29*songC6_mvl/mxv
 BYTE   W02
 BYTE   VOL   29*songC6_mvl/mxv
 BYTE   W03
 BYTE   VOL   28*songC6_mvl/mxv
 BYTE   W03
 BYTE   VOL   28*songC6_mvl/mxv
 BYTE   W01
 BYTE   VOL   28*songC6_mvl/mxv
 BYTE   W02
 BYTE   VOL   27*songC6_mvl/mxv
 BYTE   W01
 BYTE   VOL   27*songC6_mvl/mxv
 BYTE   W02
 BYTE   VOL   27*songC6_mvl/mxv
 BYTE   W01
 BYTE   VOL   26*songC6_mvl/mxv
 BYTE   W03
 BYTE   VOL   26*songC6_mvl/mxv
 BYTE   W02
 BYTE   VOL   25*songC6_mvl/mxv
 BYTE   W01
 BYTE   VOL   25*songC6_mvl/mxv
 BYTE   W02
 BYTE   VOL   25*songC6_mvl/mxv
 BYTE   W01
 BYTE   VOL   24*songC6_mvl/mxv
 BYTE   W02
 BYTE   VOL   24*songC6_mvl/mxv
 BYTE   W01
 BYTE   VOL   24*songC6_mvl/mxv
 BYTE   W02
 BYTE   VOL   23*songC6_mvl/mxv
 BYTE   W01
 BYTE   VOL   23*songC6_mvl/mxv
 BYTE   W02
 BYTE   VOL   23*songC6_mvl/mxv
 BYTE   W01
 BYTE   VOL   22*songC6_mvl/mxv
 BYTE   W02
 BYTE   VOL   25*songC6_mvl/mxv
 BYTE   N92  Cs4  v076
 BYTE   W01
 BYTE   VOL   25*songC6_mvl/mxv
 BYTE   W02
 BYTE   VOL   26*songC6_mvl/mxv
 BYTE   W01
 BYTE   VOL   26*songC6_mvl/mxv
 BYTE   W02
 BYTE   VOL   26*songC6_mvl/mxv
 BYTE   W01
 BYTE   VOL   27*songC6_mvl/mxv
 BYTE   W02
 BYTE   VOL   27*songC6_mvl/mxv
 BYTE   W01
 BYTE   VOL   28*songC6_mvl/mxv
 BYTE   W02
 BYTE   VOL   28*songC6_mvl/mxv
 BYTE   W01
 BYTE   VOL   28*songC6_mvl/mxv
 BYTE   W02
 BYTE   VOL   29*songC6_mvl/mxv
 BYTE   W01
 BYTE   VOL   29*songC6_mvl/mxv
 BYTE   W02
 BYTE   VOL   30*songC6_mvl/mxv
 BYTE   W01
 BYTE   VOL   30*songC6_mvl/mxv
 BYTE   W02
 BYTE   VOL   30*songC6_mvl/mxv
 BYTE   W01
 BYTE   VOL   31*songC6_mvl/mxv
 BYTE   W02
 BYTE   VOL   31*songC6_mvl/mxv
 BYTE   W01
 BYTE   VOL   32*songC6_mvl/mxv
 BYTE   W02
 BYTE   VOL   32*songC6_mvl/mxv
 BYTE   W01
 BYTE   VOL   33*songC6_mvl/mxv
 BYTE   W02
 BYTE   VOL   33*songC6_mvl/mxv
 BYTE   W01
 BYTE   VOL   33*songC6_mvl/mxv
 BYTE   W02
 BYTE   VOL   34*songC6_mvl/mxv
 BYTE   W01
 BYTE   VOL   34*songC6_mvl/mxv
 BYTE   W03
 BYTE   VOL   34*songC6_mvl/mxv
 BYTE   W03
 BYTE   VOL   35*songC6_mvl/mxv
 BYTE   W08
// 015   ----------------------------------------
 BYTE   W09
 BYTE   VOL   34*songC6_mvl/mxv
 BYTE   W01
 BYTE   VOL   34*songC6_mvl/mxv
 BYTE   W05
 BYTE   VOL   34*songC6_mvl/mxv
 BYTE   W01
 BYTE   VOL   33*songC6_mvl/mxv
 BYTE   W02
 BYTE   VOL   33*songC6_mvl/mxv
 BYTE   W01
 BYTE   VOL   33*songC6_mvl/mxv
 BYTE   W02
 BYTE   VOL   32*songC6_mvl/mxv
 BYTE   W03
 BYTE   VOL   32*songC6_mvl/mxv
 BYTE   W01
 BYTE   VOL   31*songC6_mvl/mxv
 BYTE   W02
 BYTE   VOL   31*songC6_mvl/mxv
 BYTE   W01
 BYTE   VOL   31*songC6_mvl/mxv
 BYTE   W02
 BYTE   VOL   30*songC6_mvl/mxv
 BYTE   W01
 BYTE   VOL   30*songC6_mvl/mxv
 BYTE   W02
 BYTE   VOL   29*songC6_mvl/mxv
 BYTE   W01
 BYTE   VOL   29*songC6_mvl/mxv
 BYTE   W02
 BYTE   VOL   28*songC6_mvl/mxv
 BYTE   W01
 BYTE   VOL   28*songC6_mvl/mxv
 BYTE   W02
 BYTE   VOL   27*songC6_mvl/mxv
 BYTE   W01
 BYTE   VOL   26*songC6_mvl/mxv
 BYTE   W02
 BYTE   VOL   26*songC6_mvl/mxv
 BYTE   W01
 BYTE   VOL   25*songC6_mvl/mxv
 BYTE   W02
 BYTE   VOL   24*songC6_mvl/mxv
 BYTE   W01
 BYTE   VOL   23*songC6_mvl/mxv
 BYTE   W02
 BYTE   VOL   23*songC6_mvl/mxv
 BYTE   W01
 BYTE   VOL   22*songC6_mvl/mxv
 BYTE   W02
 BYTE   VOL   21*songC6_mvl/mxv
 BYTE   W01
 BYTE   VOL   20*songC6_mvl/mxv
 BYTE   W02
 BYTE   VOL   19*songC6_mvl/mxv
 BYTE   W01
 BYTE   VOL   18*songC6_mvl/mxv
 BYTE   W02
 BYTE   VOL   17*songC6_mvl/mxv
 BYTE   W01
 BYTE   VOL   17*songC6_mvl/mxv
 BYTE   W02
 BYTE   VOL   16*songC6_mvl/mxv
 BYTE   W01
 BYTE   VOL   14*songC6_mvl/mxv
 BYTE   W02
 BYTE   VOL   14*songC6_mvl/mxv
 BYTE   W01
 BYTE   VOL   13*songC6_mvl/mxv
 BYTE   W02
 BYTE   VOL   12*songC6_mvl/mxv
 BYTE   W01
 BYTE   VOL   11*songC6_mvl/mxv
 BYTE   W02
 BYTE   VOL   10*songC6_mvl/mxv
 BYTE   W01
 BYTE   VOL   9*songC6_mvl/mxv
 BYTE   W02
 BYTE   VOL   33*songC6_mvl/mxv
 BYTE   W24
// 016   ----------------------------------------
 BYTE   W96
// 017   ----------------------------------------
 BYTE   W96
// 018   ----------------------------------------
 BYTE   W96
// 019   ----------------------------------------
 BYTE   W96
// 020   ----------------------------------------
 BYTE   W96
// 021   ----------------------------------------
 BYTE   W96
// 022   ----------------------------------------
 BYTE   W96
// 023   ----------------------------------------
 BYTE   W96
// 024   ----------------------------------------
 BYTE   W96
// 025   ----------------------------------------
 BYTE   W96
// 026   ----------------------------------------
 BYTE   W96
// 027   ----------------------------------------
 BYTE   W96
// 028   ----------------------------------------
 BYTE   W96
// 029   ----------------------------------------
 BYTE   W96
// 030   ----------------------------------------
 BYTE   W96
// 031   ----------------------------------------
 BYTE   W96
// 032   ----------------------------------------
 BYTE   W96
// 033   ----------------------------------------
 BYTE   W96
// 034   ----------------------------------------
 BYTE   W96
// 035   ----------------------------------------
 BYTE   W96
// 036   ----------------------------------------
 BYTE   W96
// 037   ----------------------------------------
 BYTE   W96
// 038   ----------------------------------------
 BYTE   W96
// 039   ----------------------------------------
 BYTE   W96
// 040   ----------------------------------------
 BYTE   W96
// 041   ----------------------------------------
 BYTE   W96
// 042   ----------------------------------------
 BYTE   W96
// 043   ----------------------------------------
 BYTE   W96
// 044   ----------------------------------------
 BYTE   W96
// 045   ----------------------------------------
 BYTE   W96
// 046   ----------------------------------------
 BYTE   W96
// 047   ----------------------------------------
 BYTE   W96
// 048   ----------------------------------------
 BYTE   W96
// 049   ----------------------------------------
 BYTE   W96
// 050   ----------------------------------------
 BYTE   W96
// 051   ----------------------------------------
 BYTE   W12
 BYTE   N11  As2  v072
 BYTE   W12
 BYTE   Ds3
 BYTE   W12
 BYTE   Fn3
 BYTE   W12
 BYTE   N32  Fs3
 BYTE   W36
 BYTE   N05  Fn3
 BYTE   W12
// 052   ----------------------------------------
 BYTE   N32
 BYTE   W36
 BYTE   N05  Ds3
 BYTE   W06
 BYTE   Fn3
 BYTE   W06
 BYTE   N17  Fs3
 BYTE   W18
 BYTE   N17
 BYTE   W18
 BYTE   N05
 BYTE   W12
// 053   ----------------------------------------
 BYTE   N23  Fn3
 BYTE   W24
 BYTE   Cs3
 BYTE   W24
 BYTE   N32  Fn3
 BYTE   W36
 BYTE   N11  Fs3
 BYTE   W12
// 054   ----------------------------------------
 BYTE   N92  Ds3
 BYTE   W96
// 055   ----------------------------------------
 BYTE   W12
 BYTE   N11  As2
 BYTE   W12
 BYTE   Ds3
 BYTE   W12
 BYTE   Fs3
 BYTE   W12
 BYTE   N23  Fn3
 BYTE   W24
 BYTE   N05  Ds3
 BYTE   W12
 BYTE   N23  As2
 BYTE   W12
// 056   ----------------------------------------
 BYTE   W12
 BYTE   N11  Gs2
 BYTE   W12
 BYTE   Fs2
 BYTE   W12
 BYTE   N56  As2
 BYTE   W60
// 057   ----------------------------------------
 BYTE   W12
 BYTE   N11
 BYTE   W12
 BYTE   Ds3
 BYTE   W12
 BYTE   Fs3
 BYTE   W12
 BYTE   N23  Gs3
 BYTE   W24
 BYTE   N05  Fs3
 BYTE   W12
 BYTE   N23  Fn3
 BYTE   W12
// 058   ----------------------------------------
 BYTE   W12
 BYTE   N05  Fs3
 BYTE   W12
 BYTE   Gs3
 BYTE   W12
 BYTE   N56  As3
 BYTE   W60
// 059   ----------------------------------------
 BYTE   W24
 BYTE   N11  Ds3
 BYTE   W12
 BYTE   Fs3
 BYTE   W12
 BYTE   N32  As3
 BYTE   W36
 BYTE   N05  Gs3
 BYTE   W12
// 060   ----------------------------------------
 BYTE   N32
 BYTE   W36
 BYTE   N05  Fs3
 BYTE   W06
 BYTE   Gs3
 BYTE   W06
 BYTE   N17  As3
 BYTE   W18
 BYTE   Bn3
 BYTE   W18
 BYTE   N05  As3
 BYTE   W12
// 061   ----------------------------------------
 BYTE   N23  Gs3
 BYTE   W24
 BYTE   Fn3
 BYTE   W24
 BYTE   N32
 BYTE   W36
 BYTE   N11  Fs3
 BYTE   W12
// 062   ----------------------------------------
 BYTE   N80  Ds3
 BYTE   W96
// 063   ----------------------------------------
 BYTE   W12
 BYTE   N11  Fs3
 BYTE   W12
 BYTE   As3
 BYTE   W12
 BYTE   Ds4
 BYTE   W12
 BYTE   N23
 BYTE   W24
 BYTE   N05  As3
 BYTE   W12
 BYTE   N23  Fs3
 BYTE   W12
// 064   ----------------------------------------
Label_11_014B3362:
 BYTE   W12
 BYTE   N11  Fn3  v072
 BYTE   W12
 BYTE   Ds3
 BYTE   W12
 BYTE   N56  Fs3
 BYTE   W60
 BYTE   PEND 
// 065   ----------------------------------------
 BYTE   W12
 BYTE   N11
 BYTE   W12
 BYTE   As3
 BYTE   W12
 BYTE   Ds4
 BYTE   W12
 BYTE   N23
 BYTE   W24
 BYTE   N11  As3
 BYTE   W12
 BYTE   N23  Fs3
 BYTE   W12
// 066   ----------------------------------------
 BYTE   W12
 BYTE   N11  Fn3
 BYTE   W12
 BYTE   Fs3
 BYTE   W12
 BYTE   N23  As2
 BYTE   W24
 BYTE   N11  Fs3  v076
 BYTE   N11  As3
 BYTE   W12
 BYTE   Gs3  v092
 BYTE   N11  Bn3
 BYTE   W12
 BYTE   Fs3
 BYTE   N11  As3
 BYTE   W12
// 067   ----------------------------------------
 BYTE   Fn3  v084
 BYTE   N11  Gs3
 BYTE   W12
 BYTE   Ds3  v080
 BYTE   N11  Fs3
 BYTE   W12
 BYTE   Cs3  v072
 BYTE   N11  Fn3
 BYTE   W12
 BYTE   Bn2  v064
 BYTE   N11  Ds3
 BYTE   W12
 BYTE   N32  Ds3  v072
 BYTE   N32  Fs3
 BYTE   W36
 BYTE   N05  Cs3
 BYTE   N05  Fn3
 BYTE   W12
// 068   ----------------------------------------
 BYTE   N32  Cs3
 BYTE   N32  Fn3
 BYTE   W36
 BYTE   N05  As2
 BYTE   N05  Ds3
 BYTE   W06
 BYTE   Cs3
 BYTE   N05  Fn3
 BYTE   W06
 BYTE   N17  Ds3
 BYTE   N17  Fs3
 BYTE   W18
 BYTE   Ds3
 BYTE   N17  Fs3
 BYTE   W18
 BYTE   N05  Cs3
 BYTE   N05  Fs3
 BYTE   W12
// 069   ----------------------------------------
 BYTE   N23  Cs3
 BYTE   N23  Fn3
 BYTE   W24
 BYTE   As2
 BYTE   N23  Cs3
 BYTE   W24
 BYTE   N32
 BYTE   N32  Fn3
 BYTE   W36
 BYTE   N11  Ds3
 BYTE   N11  Fs3
 BYTE   W12
// 070   ----------------------------------------
 BYTE   As2  v084
 BYTE   N11  Ds3
 BYTE   W12
 BYTE   Cs3  v092
 BYTE   N11  Fn3
 BYTE   W12
 BYTE   Ds3  v088
 BYTE   N11  Fs3
 BYTE   W12
 BYTE   Fn3
 BYTE   N11  Gs3
 BYTE   W12
 BYTE   N44  Ds3  v076
 BYTE   N44  Fs3
 BYTE   W48
// 071   ----------------------------------------
 BYTE   Dn3  v072
 BYTE   N44  Fn3
 BYTE   W48
 BYTE   N23  As3
 BYTE   W24
 BYTE   N05  Gs3
 BYTE   W12
 BYTE   N23  Fs3
 BYTE   W12
// 072   ----------------------------------------
 BYTE   PATT
  POIN2 Label_11_014B3362
// 073   ----------------------------------------
 BYTE   W12
 BYTE   N11  Ds3  v072
 BYTE   W12
 BYTE   Fs3
 BYTE   W12
 BYTE   As3
 BYTE   W12
 BYTE   N23  Ds4
 BYTE   W24
 BYTE   N05  Cs4
 BYTE   W12
 BYTE   N23  Bn3
 BYTE   W12
// 074   ----------------------------------------
 BYTE   W12
 BYTE   N05  Ds4
 BYTE   W12
 BYTE   Fn4
 BYTE   W12
 BYTE   N56  Fs4
 BYTE   W60
// 075   ----------------------------------------
 BYTE   W12
 BYTE   N11  Fs3
 BYTE   W12
 BYTE   As3
 BYTE   W12
 BYTE   Cs4
 BYTE   W12
 BYTE   N32  Ds4
 BYTE   W36
 BYTE   N05  Cs4
 BYTE   W12
// 076   ----------------------------------------
 BYTE   N32
 BYTE   W36
 BYTE   N05  As3
 BYTE   W06
 BYTE   Cs4
 BYTE   W06
 BYTE   N17  Ds4
 BYTE   W18
 BYTE   Fn4
 BYTE   W18
 BYTE   N05  Ds4
 BYTE   W12
// 077   ----------------------------------------
 BYTE   N23  Cs4
 BYTE   W24
 BYTE   As3
 BYTE   W24
 BYTE   N32  Gs3
 BYTE   W36
 BYTE   N11  As3
 BYTE   W12
// 078   ----------------------------------------
 BYTE   TIE  Fs3
 BYTE   W96
// 079   ----------------------------------------
 BYTE   W23
 BYTE   EOT
 BYTE   W72
 BYTE   W01
// 080   ----------------------------------------
 BYTE   W96
// 081   ----------------------------------------
 BYTE   W96
// 082   ----------------------------------------
 BYTE   W96
// 083   ----------------------------------------
 BYTE   W96
// 084   ----------------------------------------
 BYTE   W96
// 085   ----------------------------------------
 BYTE   W96
// 086   ----------------------------------------
 BYTE   W96
// 087   ----------------------------------------
 BYTE   W96
// 088   ----------------------------------------
 BYTE   W96
// 089   ----------------------------------------
 BYTE   W96
// 090   ----------------------------------------
 BYTE   W96
// 091   ----------------------------------------
 BYTE   W96
// 092   ----------------------------------------
 BYTE   W96
// 093   ----------------------------------------
 BYTE   W96
// 094   ----------------------------------------
 BYTE   W96
// 095   ----------------------------------------
 BYTE   W96
// 096   ----------------------------------------
 BYTE   W96
// 097   ----------------------------------------
 BYTE   W96
// 098   ----------------------------------------
 BYTE   W96
// 099   ----------------------------------------
 BYTE   W96
// 100   ----------------------------------------
 BYTE   W96
// 101   ----------------------------------------
 BYTE   W96
// 102   ----------------------------------------
 BYTE   W96
// 103   ----------------------------------------
 BYTE   W48
 BYTE   N23  Gs2
 BYTE   W24
 BYTE   N56  Gs3
 BYTE   W24
// 104   ----------------------------------------
 BYTE   W36
 BYTE   N11  An3
 BYTE   W12
 BYTE   N05  Bn3
 BYTE   W06
 BYTE   N08  An3
 BYTE   W06
 BYTE   N05  Gs3
 BYTE   W06
 BYTE   N08  Fs3
 BYTE   W06
 BYTE   N05  Gs3
 BYTE   W06
 BYTE   Fs3
 BYTE   W06
 BYTE   En3
 BYTE   W06
 BYTE   N10  Ds3
 BYTE   W06
// 105   ----------------------------------------
 BYTE   N05  En3
 BYTE   W06
 BYTE   N08  Ds3
 BYTE   W06
 BYTE   N05  Cs3
 BYTE   W06
 BYTE   N08  Bn2
 BYTE   W06
 BYTE   Cs3
 BYTE   W06
 BYTE   N07  Bn2
 BYTE   W06
 BYTE   N08  An2
 BYTE   W06
 BYTE   N05  Gs2
 BYTE   W06
 BYTE   N32  Cs3  v080
 BYTE   N32  En3
 BYTE   W36
 BYTE   N05  Fs2  v084
 BYTE   N05  Bn2
 BYTE   W06
 BYTE   En2
 BYTE   N05  An2
 BYTE   W06
// 106   ----------------------------------------
 BYTE   N11  En2  v080
 BYTE   N11  Gs2
 BYTE   W12
 BYTE   Ds2  v076
 BYTE   N11  Fs2
 BYTE   W12
 BYTE   Cs2  v072
 BYTE   N11  En2
 BYTE   W12
 BYTE   Cs2
 BYTE   N11  Fs2
 BYTE   W12
 BYTE   En2
 BYTE   N11  Gs2
 BYTE   W12
 BYTE   Fs2
 BYTE   N11  Bn2
 BYTE   W12
 BYTE   Gs2
 BYTE   N11  Cs3
 BYTE   W12
 BYTE   Bn2
 BYTE   N11  Ds3
 BYTE   W12
// 107   ----------------------------------------
 BYTE   Cs3
 BYTE   N11  En3
 BYTE   W12
 BYTE   Ds3
 BYTE   N11  Fs3
 BYTE   W12
 BYTE   En3
 BYTE   N11  Gs3
 BYTE   W12
 BYTE   Fs3
 BYTE   N11  Bn3
 BYTE   W12
 BYTE   N17  Gs2
 BYTE   N17  Cs3
 BYTE   W18
 BYTE   N40
 BYTE   N40  En3
 BYTE   W30
// 108   ----------------------------------------
 BYTE   W12
 BYTE   N11
 BYTE   N11  Gs3
 BYTE   W12
 BYTE   Ds3
 BYTE   N11  Fs3
 BYTE   W12
 BYTE   N44  Cs3
 BYTE   N44  En3
 BYTE   W48
 BYTE   N05  Cs3
 BYTE   N05  Fs3
 BYTE   W06
 BYTE   En3
 BYTE   N05  Gs3
 BYTE   W06
// 109   ----------------------------------------
 BYTE   N11  Ds3
 BYTE   N11  Fs3
 BYTE   W12
 BYTE   Cs3
 BYTE   N11  En3
 BYTE   W12
 BYTE   Bn2
 BYTE   N11  Cs3
 BYTE   W12
 BYTE   Gs2
 BYTE   N11  Bn2
 BYTE   W12
 BYTE   N32  Ds3
 BYTE   N32  Fs3
 BYTE   W36
 BYTE   N11  Cs3
 BYTE   N11  En3
 BYTE   W12
// 110   ----------------------------------------
 BYTE   N32  Bn2
 BYTE   N32  Ds3
 BYTE   W36
 BYTE   N05  Gs2
 BYTE   N05  Cs3
 BYTE   W06
 BYTE   Bn2
 BYTE   N05  Ds3
 BYTE   W06
 BYTE   N17  Bn2  v052
 BYTE   N17  En3  v072
 BYTE   W18
 BYTE   An2  v052
 BYTE   N17  Ds3  v072
 BYTE   W18
 BYTE   N11  Gs2  v052
 BYTE   N11  Cs3  v072
 BYTE   W12
// 111   ----------------------------------------
 BYTE   N17  An2  v052
 BYTE   N17  Ds3  v072
 BYTE   W18
 BYTE   Ds2  v052
 BYTE   N17  Gs2  v072
 BYTE   W18
 BYTE   N11  Fs2  v052
 BYTE   N11  Bn2  v072
 BYTE   W12
 BYTE   N80  Fs2  v052
 BYTE   N80  Bn2  v072
 BYTE   W48
// 112   ----------------------------------------
 BYTE   W36
 BYTE   N11  Gs2  v052
 BYTE   N11  Cs3  v072
 BYTE   W12
 BYTE   N68  Gs2  v052
 BYTE   N68  Cs3  v072
 BYTE   W48
// 113   ----------------------------------------
 BYTE   W96
// 114   ----------------------------------------
 BYTE   W96
// 115   ----------------------------------------
 BYTE   W96
// 116   ----------------------------------------
 BYTE   W96
// 117   ----------------------------------------
 BYTE   W96
// 118   ----------------------------------------
 BYTE   W96
// 119   ----------------------------------------
 BYTE   W96
// 120   ----------------------------------------
 BYTE   W96
// 121   ----------------------------------------
 BYTE   W96
// 122   ----------------------------------------
 BYTE   W96
// 123   ----------------------------------------
 BYTE   W96
// 124   ----------------------------------------
 BYTE   W96
// 125   ----------------------------------------
 BYTE   W96
// 126   ----------------------------------------
 BYTE   W12
 BYTE   N11  Cn3
 BYTE   W12
 BYTE   Fn3
 BYTE   W12
 BYTE   Gn3
 BYTE   W12
 BYTE   N32  Gs3
 BYTE   W36
 BYTE   N05  Gn3
 BYTE   W12
// 127   ----------------------------------------
 BYTE   N32
 BYTE   W36
 BYTE   N05  Fn3
 BYTE   W06
 BYTE   Gn3
 BYTE   W06
 BYTE   N17  Gs3
 BYTE   W18
 BYTE   N17
 BYTE   W18
 BYTE   N05
 BYTE   W12
// 128   ----------------------------------------
 BYTE   N23  Gn3
 BYTE   W24
 BYTE   Ds3
 BYTE   W24
 BYTE   N32  Gn3
 BYTE   W36
 BYTE   N11  Gs3
 BYTE   W12
// 129   ----------------------------------------
 BYTE   N92  Fn3
 BYTE   W96
// 130   ----------------------------------------
 BYTE   W12
 BYTE   N11  Cn3
 BYTE   W12
 BYTE   Fn3
 BYTE   W12
 BYTE   Gs3
 BYTE   W12
 BYTE   N23  Gn3
 BYTE   W24
 BYTE   N05  Fn3
 BYTE   W12
 BYTE   N23  Cn3
 BYTE   W12
// 131   ----------------------------------------
 BYTE   W12
 BYTE   N11  As2
 BYTE   W12
 BYTE   Gs2
 BYTE   W12
 BYTE   N56  Cn3
 BYTE   W60
// 132   ----------------------------------------
 BYTE   W12
 BYTE   N11
 BYTE   W12
 BYTE   Fn3
 BYTE   W12
 BYTE   Gs3
 BYTE   W12
 BYTE   N23  As3
 BYTE   W24
 BYTE   N05  Gs3
 BYTE   W12
 BYTE   N23  Gn3
 BYTE   W12
// 133   ----------------------------------------
 BYTE   W12
 BYTE   N05  Gs3
 BYTE   W12
 BYTE   As3
 BYTE   W12
 BYTE   N56  Cn4
 BYTE   W60
// 134   ----------------------------------------
 BYTE   W12
 BYTE   N11  Fn3
 BYTE   W12
 BYTE   Gs3
 BYTE   W12
 BYTE   As3
 BYTE   W12
 BYTE   N32  Cn4
 BYTE   W36
 BYTE   N05  As3
 BYTE   W12
// 135   ----------------------------------------
 BYTE   N32
 BYTE   W36
 BYTE   N05  Gs3
 BYTE   W06
 BYTE   As3
 BYTE   W06
 BYTE   N17  Cn4
 BYTE   W18
 BYTE   Cs4
 BYTE   W18
 BYTE   N05  Cn4
 BYTE   W12
// 136   ----------------------------------------
 BYTE   N23  As3
 BYTE   W24
 BYTE   Gn3
 BYTE   W24
 BYTE   N32
 BYTE   W36
 BYTE   N11  Gs3
 BYTE   W12
// 137   ----------------------------------------
 BYTE   N80  Fn3
 BYTE   W96
// 138   ----------------------------------------
 BYTE   W12
 BYTE   N11  Gs3
 BYTE   W12
 BYTE   Cn4
 BYTE   W12
 BYTE   Fn4
 BYTE   W12
 BYTE   N23
 BYTE   W24
 BYTE   N05  Cn4
 BYTE   W12
 BYTE   N23  Gs3
 BYTE   W12
// 139   ----------------------------------------
Label_11_014B3615:
 BYTE   W12
 BYTE   N11  Gn3  v072
 BYTE   W12
 BYTE   Fn3
 BYTE   W12
 BYTE   N56  Gs3
 BYTE   W60
 BYTE   PEND 
// 140   ----------------------------------------
Label_11_014B3620:
 BYTE   W12
 BYTE   N11  Gs3  v072
 BYTE   W12
 BYTE   Cn4
 BYTE   W12
 BYTE   Fn4
 BYTE   W12
 BYTE   N23
 BYTE   W24
 BYTE   N11  Cn4
 BYTE   W12
 BYTE   N23  Gs3
 BYTE   W12
 BYTE   PEND 
// 141   ----------------------------------------
 BYTE   W12
 BYTE   N11  Gn3
 BYTE   W12
 BYTE   Gs3
 BYTE   W12
 BYTE   N23  Cn3
 BYTE   W24
 BYTE   N11  Gs3  v084
 BYTE   N11  Cn4
 BYTE   W12
 BYTE   As3
 BYTE   N11  Cs4
 BYTE   W12
 BYTE   Gs3  v088
 BYTE   N11  Cn4
 BYTE   W12
// 142   ----------------------------------------
 BYTE   Gn3  v084
 BYTE   N11  As3
 BYTE   W12
 BYTE   Fn3  v080
 BYTE   N11  Gs3
 BYTE   W12
 BYTE   Ds3  v076
 BYTE   N11  Gn3
 BYTE   W12
 BYTE   Cs3
 BYTE   N11  Fn3
 BYTE   W12
 BYTE   N32  Fn3  v072
 BYTE   N32  Gs3
 BYTE   W36
 BYTE   N05  Ds3
 BYTE   N05  Gn3
 BYTE   W12
// 143   ----------------------------------------
Label_11_014B3668:
 BYTE   N32  Ds3  v072
 BYTE   N32  Gn3
 BYTE   W36
 BYTE   N05  Cn3
 BYTE   N05  Fn3
 BYTE   W06
 BYTE   Ds3
 BYTE   N05  Gn3
 BYTE   W06
 BYTE   N17  Fn3
 BYTE   N17  Gs3
 BYTE   W18
 BYTE   Fn3
 BYTE   N17  Gs3
 BYTE   W18
 BYTE   N05  Ds3
 BYTE   N05  Gs3
 BYTE   W12
 BYTE   PEND 
// 144   ----------------------------------------
Label_11_014B3686:
 BYTE   N23  Ds3  v072
 BYTE   N23  Gn3
 BYTE   W24
 BYTE   Cn3
 BYTE   N23  Ds3
 BYTE   W24
 BYTE   N32
 BYTE   N32  Gn3
 BYTE   W36
 BYTE   N11  Fn3
 BYTE   N11  Gs3
 BYTE   W12
 BYTE   PEND 
// 145   ----------------------------------------
 BYTE   Cn3  v076
 BYTE   N11  Fn3
 BYTE   W12
 BYTE   Ds3  v084
 BYTE   N11  Gn3
 BYTE   W12
 BYTE   Fn3
 BYTE   N11  Gs3
 BYTE   W12
 BYTE   Gn3
 BYTE   N11  As3
 BYTE   W12
 BYTE   N44  Fn3  v076
 BYTE   N44  Gs3
 BYTE   W48
// 146   ----------------------------------------
Label_11_014B36B2:
 BYTE   N44  En3  v072
 BYTE   N44  Gn3
 BYTE   W48
 BYTE   N23  Cn4
 BYTE   W24
 BYTE   N05  As3
 BYTE   W12
 BYTE   N23  Gs3
 BYTE   W12
 BYTE   PEND 
// 147   ----------------------------------------
 BYTE   PATT
  POIN2 Label_11_014B3615
// 148   ----------------------------------------
Label_11_014B36C7:
 BYTE   W12
 BYTE   N11  Fn3  v072
 BYTE   W12
 BYTE   Gs3
 BYTE   W12
 BYTE   Cn4
 BYTE   W12
 BYTE   N23  Fn4
 BYTE   W24
 BYTE   N05  Ds4
 BYTE   W12
 BYTE   N23  Cs4
 BYTE   W12
 BYTE   PEND 
// 149   ----------------------------------------
Label_11_014B36DA:
 BYTE   W12
 BYTE   N05  Fn4  v072
 BYTE   W12
 BYTE   Gn4
 BYTE   W12
 BYTE   N56  Gs4
 BYTE   W60
 BYTE   PEND 
// 150   ----------------------------------------
 BYTE   W12
 BYTE   N11  Gs3
 BYTE   W12
 BYTE   Cn4
 BYTE   W12
 BYTE   Ds4
 BYTE   W12
 BYTE   N32  Fn4
 BYTE   W36
 BYTE   N05  Ds4
 BYTE   W12
// 151   ----------------------------------------
 BYTE   N32
 BYTE   W36
 BYTE   N05  Cn4
 BYTE   W06
 BYTE   Ds4
 BYTE   W06
 BYTE   N17  Fn4
 BYTE   W18
 BYTE   Gn4
 BYTE   W18
 BYTE   N05  Fn4
 BYTE   W12
// 152   ----------------------------------------
 BYTE   N23  Ds4
 BYTE   W24
 BYTE   Cn4
 BYTE   W24
 BYTE   N32
 BYTE   W36
 BYTE   N11
 BYTE   W12
// 153   ----------------------------------------
 BYTE   TIE  Gs3
 BYTE   W96
// 154   ----------------------------------------
 BYTE   W23
 BYTE   EOT
 BYTE   W72
 BYTE   W01
// 155   ----------------------------------------
 BYTE   W96
// 156   ----------------------------------------
 BYTE   W48
 BYTE   N11  Gs2
 BYTE   W12
 BYTE   N07  As2
 BYTE   W12
 BYTE   N05  Gs2
 BYTE   W06
 BYTE   As2
 BYTE   W06
 BYTE   Cn3
 BYTE   W06
 BYTE   Dn3
 BYTE   W06
// 157   ----------------------------------------
 BYTE   Cn3
 BYTE   W06
 BYTE   Dn3
 BYTE   W06
 BYTE   Ds3
 BYTE   W06
 BYTE   Fn3
 BYTE   W06
 BYTE   N05
 BYTE   W06
 BYTE   Gn3
 BYTE   W06
 BYTE   Gs3
 BYTE   W06
 BYTE   As3
 BYTE   W06
 BYTE   Cn4
 BYTE   W06
 BYTE   Dn4
 BYTE   W06
 BYTE   Ds4
 BYTE   W06
 BYTE   Fn4
 BYTE   W06
 BYTE   Gn4
 BYTE   W06
 BYTE   Fn4
 BYTE   W06
 BYTE   Ds4
 BYTE   W06
 BYTE   Dn4
 BYTE   W06
// 158   ----------------------------------------
 BYTE   Ds4
 BYTE   W06
 BYTE   Dn4
 BYTE   W06
 BYTE   Cn4
 BYTE   W06
 BYTE   As3
 BYTE   W06
 BYTE   Gs3
 BYTE   W06
 BYTE   Gn3
 BYTE   W06
 BYTE   N10  Fn3
 BYTE   W12
 BYTE   N05  Dn3
 BYTE   W06
 BYTE   Ds3
 BYTE   W06
 BYTE   N10  Fn3
 BYTE   W12
 BYTE   N05  Ds3
 BYTE   W06
 BYTE   Fn3
 BYTE   W06
 BYTE   Gn3
 BYTE   W12
// 159   ----------------------------------------
 BYTE   Fn3
 BYTE   W06
 BYTE   Gn3
 BYTE   W06
 BYTE   Gs3
 BYTE   W12
 BYTE   Gn3
 BYTE   W06
 BYTE   Gs3
 BYTE   W06
 BYTE   As3
 BYTE   W06
 BYTE   Cn4
 BYTE   W06
 BYTE   Dn4
 BYTE   W06
 BYTE   Ds4
 BYTE   W06
 BYTE   Fn4
 BYTE   W06
 BYTE   Gn4
 BYTE   W06
 BYTE   Fn4
 BYTE   W06
 BYTE   Ds4
 BYTE   W06
 BYTE   Fn4
 BYTE   W06
 BYTE   Ds4
 BYTE   W06
// 160   ----------------------------------------
 BYTE   Dn4
 BYTE   W06
 BYTE   Cn4
 BYTE   W06
 BYTE   As3
 BYTE   W06
 BYTE   Cn4
 BYTE   W06
 BYTE   Dn4
 BYTE   W06
 BYTE   Cn4
 BYTE   W06
 BYTE   N11  Dn4
 BYTE   W12
 BYTE   N05  Gn4
 BYTE   W06
 BYTE   Fn4
 BYTE   W06
 BYTE   N11  Gn4
 BYTE   W12
 BYTE   N05  As4
 BYTE   W06
 BYTE   Gs4
 BYTE   W06
 BYTE   Gn4
 BYTE   W06
 BYTE   Fn4
 BYTE   W06
// 161   ----------------------------------------
 BYTE   Gn4
 BYTE   W06
 BYTE   Fn4
 BYTE   W06
 BYTE   Ds4
 BYTE   W06
 BYTE   Dn4
 BYTE   W06
 BYTE   Fn4
 BYTE   W06
 BYTE   Ds4
 BYTE   W06
 BYTE   Dn4
 BYTE   W06
 BYTE   Cn4
 BYTE   W06
 BYTE   Dn4
 BYTE   W06
 BYTE   Cn4
 BYTE   W06
 BYTE   As3
 BYTE   W06
 BYTE   Gs3
 BYTE   W06
 BYTE   Cn4
 BYTE   W06
 BYTE   As3
 BYTE   W06
 BYTE   Gs3
 BYTE   W06
 BYTE   Gn3
 BYTE   W06
// 162   ----------------------------------------
 BYTE   N05
 BYTE   W06
 BYTE   Gs3
 BYTE   W06
 BYTE   As3
 BYTE   W06
 BYTE   Cn4
 BYTE   W06
 BYTE   Ds4
 BYTE   W06
 BYTE   Cn4
 BYTE   W06
 BYTE   As3
 BYTE   W06
 BYTE   Gn3
 BYTE   W06
 BYTE   N32  Gs3
 BYTE   W36
 BYTE   N05  Cn3
 BYTE   W06
 BYTE   Cs3
 BYTE   W06
// 163   ----------------------------------------
 BYTE   N11  Ds3
 BYTE   W12
 BYTE   Fn3
 BYTE   W12
 BYTE   Gn3
 BYTE   W12
 BYTE   Fn3
 BYTE   W12
 BYTE   N11
 BYTE   W12
 BYTE   Ds3
 BYTE   W12
 BYTE   N32  Fn3
 BYTE   W24
// 164   ----------------------------------------
 BYTE   W12
 BYTE   N11
 BYTE   W12
 BYTE   Gs3
 BYTE   W12
 BYTE   As3
 BYTE   W12
 BYTE   Gs3
 BYTE   W12
 BYTE   Gn3
 BYTE   W12
 BYTE   N32  Fn3
 BYTE   W24
// 165   ----------------------------------------
 BYTE   W12
 BYTE   N11  Cs3
 BYTE   W12
 BYTE   Fn3
 BYTE   W12
 BYTE   N23  Gs2
 BYTE   W24
 BYTE   N32  Gs3
 BYTE   W36
// 166   ----------------------------------------
 BYTE   W12
 BYTE   N11  As3
 BYTE   W12
 BYTE   Cn4
 BYTE   W12
 BYTE   Ds4
 BYTE   W12
 BYTE   N05  As3  v080
 BYTE   W06
 BYTE   N05
 BYTE   W06
 BYTE   N05
 BYTE   W06
 BYTE   Gs3
 BYTE   W06
 BYTE   As3
 BYTE   W06
 BYTE   N05
 BYTE   W06
 BYTE   N05
 BYTE   W06
 BYTE   Gs3
 BYTE   W06
// 167   ----------------------------------------
 BYTE   N23  Gn3
 BYTE   W36
 BYTE   N05  Fn3
 BYTE   W06
 BYTE   Gn3
 BYTE   W06
 BYTE   As3
 BYTE   W06
 BYTE   N05
 BYTE   W06
 BYTE   N05
 BYTE   W06
 BYTE   Gs3
 BYTE   W06
 BYTE   Gn3
 BYTE   W06
 BYTE   N05
 BYTE   W06
 BYTE   N05
 BYTE   W06
 BYTE   Fn3
 BYTE   W06
// 168   ----------------------------------------
 BYTE   As3
 BYTE   W06
 BYTE   Cn4
 BYTE   W06
 BYTE   As3
 BYTE   W06
 BYTE   Gs3
 BYTE   W06
 BYTE   N17  Gn3
 BYTE   W24
 BYTE   N32
 BYTE   W36
 BYTE   N11  Gs3
 BYTE   W12
// 169   ----------------------------------------
 BYTE   Cn4
 BYTE   W12
 BYTE   As3
 BYTE   W12
 BYTE   Gs3
 BYTE   W12
 BYTE   Gn3
 BYTE   W12
 BYTE   Gs3
 BYTE   W12
 BYTE   Gn3
 BYTE   W12
 BYTE   Fn3
 BYTE   W12
 BYTE   Gn3
 BYTE   W12
// 170   ----------------------------------------
 BYTE   N40  Gs3
 BYTE   W48
 BYTE   N23  Fn4  v072
 BYTE   W24
 BYTE   N05  Cn4
 BYTE   W12
 BYTE   N23  Gs3
 BYTE   W12
// 171   ----------------------------------------
 BYTE   PATT
  POIN2 Label_11_014B3615
// 172   ----------------------------------------
 BYTE   PATT
  POIN2 Label_11_014B3620
// 173   ----------------------------------------
 BYTE   W12
 BYTE   N11  Gn3  v072
 BYTE   W12
 BYTE   Gs3
 BYTE   W12
 BYTE   N23  Cn3
 BYTE   W24
 BYTE   N11  Gs3  v076
 BYTE   N11  Cn4
 BYTE   W12
 BYTE   As3  v092
 BYTE   N11  Cs4
 BYTE   W12
 BYTE   Gs3
 BYTE   N11  Cn4
 BYTE   W12
// 174   ----------------------------------------
 BYTE   Gn3  v084
 BYTE   N11  As3
 BYTE   W12
 BYTE   Fn3  v080
 BYTE   N11  Gs3
 BYTE   W12
 BYTE   Ds3  v072
 BYTE   N11  Gn3
 BYTE   W12
 BYTE   Cs3  v064
 BYTE   N11  Fn3
 BYTE   W12
 BYTE   N32  Fn3  v072
 BYTE   N32  Gs3
 BYTE   W36
 BYTE   N05  Ds3
 BYTE   N05  Gn3
 BYTE   W12
// 175   ----------------------------------------
 BYTE   PATT
  POIN2 Label_11_014B3668
// 176   ----------------------------------------
 BYTE   PATT
  POIN2 Label_11_014B3686
// 177   ----------------------------------------
 BYTE   N11  Cn3  v084
 BYTE   N11  Fn3
 BYTE   W12
 BYTE   Ds3  v092
 BYTE   N11  Gn3
 BYTE   W12
 BYTE   Fn3  v088
 BYTE   N11  Gs3
 BYTE   W12
 BYTE   Gn3
 BYTE   N11  As3
 BYTE   W12
 BYTE   N44  Fn3  v076
 BYTE   N44  Gs3
 BYTE   W48
// 178   ----------------------------------------
 BYTE   PATT
  POIN2 Label_11_014B36B2
// 179   ----------------------------------------
 BYTE   PATT
  POIN2 Label_11_014B3615
// 180   ----------------------------------------
 BYTE   PATT
  POIN2 Label_11_014B36C7
// 181   ----------------------------------------
 BYTE   PATT
  POIN2 Label_11_014B36DA
// 182   ----------------------------------------
 BYTE   W12
 BYTE   N11  Gs3  v072
 BYTE   W12
 BYTE   Cn4
 BYTE   W12
 BYTE   Ds4
 BYTE   W12
 BYTE   N32  Fn4
 BYTE   W36
 BYTE   N05  As3
 BYTE   N05  Ds4
 BYTE   W12
// 183   ----------------------------------------
 BYTE   N32  As3
 BYTE   N32  Ds4
 BYTE   W36
 BYTE   N05  Gs3
 BYTE   N05  Cn4
 BYTE   W06
 BYTE   As3
 BYTE   N05  Ds4
 BYTE   W06
 BYTE   N17  Cn4
 BYTE   N17  Fn4
 BYTE   W18
 BYTE   Cs4
 BYTE   N17  Gn4
 BYTE   W18
 BYTE   N05  Cn4
 BYTE   N05  Fn4
 BYTE   W12
// 184   ----------------------------------------
 BYTE   N23  As3
 BYTE   N23  Ds4
 BYTE   W24
 BYTE   Gn3
 BYTE   N23  Cn4
 BYTE   W24
 BYTE   N32  Gn3
 BYTE   N32  As3
 BYTE   W36
 BYTE   N11  Gs3
 BYTE   N11  Cn4
 BYTE   W12
// 185   ----------------------------------------
 BYTE   TIE  Fn3
 BYTE   TIE  Gs3
 BYTE   W84
 BYTE   W01
 BYTE   VOL   33*songC6_mvl/mxv
 BYTE   W08
 BYTE   VOL   33*songC6_mvl/mxv
 BYTE   W03
// 186   ----------------------------------------
 BYTE   VOL   33*songC6_mvl/mxv
 BYTE   W03
 BYTE   VOL   32*songC6_mvl/mxv
 BYTE   W04
 BYTE   VOL   32*songC6_mvl/mxv
 BYTE   W03
 BYTE   VOL   31*songC6_mvl/mxv
 BYTE   W03
 BYTE   VOL   30*songC6_mvl/mxv
 BYTE   W03
 BYTE   VOL   30*songC6_mvl/mxv
 BYTE   W02
 BYTE   VOL   29*songC6_mvl/mxv
 BYTE   W01
 BYTE   VOL   28*songC6_mvl/mxv
 BYTE   W03
 BYTE   VOL   28*songC6_mvl/mxv
 BYTE   W03
 BYTE   VOL   27*songC6_mvl/mxv
 BYTE   W02
 BYTE   VOL   27*songC6_mvl/mxv
 BYTE   W01
 BYTE   VOL   26*songC6_mvl/mxv
 BYTE   W02
 BYTE   VOL   26*songC6_mvl/mxv
 BYTE   W01
 BYTE   VOL   25*songC6_mvl/mxv
 BYTE   W03
 BYTE   VOL   24*songC6_mvl/mxv
 BYTE   W02
 BYTE   VOL   23*songC6_mvl/mxv
 BYTE   W01
 BYTE   VOL   23*songC6_mvl/mxv
 BYTE   W02
 BYTE   VOL   22*songC6_mvl/mxv
 BYTE   W01
 BYTE   VOL   20*songC6_mvl/mxv
 BYTE   W02
 BYTE   VOL   20*songC6_mvl/mxv
 BYTE   W01
 BYTE   VOL   18*songC6_mvl/mxv
 BYTE   W02
 BYTE   VOL   17*songC6_mvl/mxv
 BYTE   W01
 BYTE   VOL   12*songC6_mvl/mxv
 BYTE   W01
 BYTE   EOT
 BYTE   Fn3  v068
 BYTE   W01
 BYTE   VOL   10*songC6_mvl/mxv
 BYTE   W01
 BYTE   VOL   4*songC6_mvl/mxv
 BYTE   W02
 BYTE   VOL   0*songC6_mvl/mxv
 BYTE   W01
 BYTE   VOL   0*songC6_mvl/mxv
 BYTE   W44
// 187   ----------------------------------------
 BYTE   W96
// 188   ----------------------------------------
 BYTE   W96
// 189   ----------------------------------------
 BYTE   W96
// 190   ----------------------------------------
 BYTE   W96
// 191   ----------------------------------------
 BYTE   W96
// 192   ----------------------------------------
 BYTE   W96
// 193   ----------------------------------------
 BYTE   W96
// 194   ----------------------------------------
 BYTE   W96
// 195   ----------------------------------------
 BYTE   W96
// 196   ----------------------------------------
 BYTE   W96
// 197   ----------------------------------------
 BYTE   W96
// 198   ----------------------------------------
 BYTE   W96
// 199   ----------------------------------------
 BYTE   W96
// 200   ----------------------------------------
 BYTE   W96
// 201   ----------------------------------------
 BYTE   W96
// 202   ----------------------------------------
 BYTE   W96
// 203   ----------------------------------------
 BYTE   W96
// 204   ----------------------------------------
 BYTE   W48
 BYTE   GoTo
  POIN2 Label_11_014B2EE2
 BYTE   FINE

//******************************************************//
	ALIGN 4

songC6:
	BYTE	12	// NumTrks
	BYTE	0	// NumBlks
	BYTE	songC6_pri	// Priority
	BYTE	songC6_rev	// Reverb.
    
	POIN2	songC6_grp
    
	POIN2	songC6_001
	POIN2	songC6_002
	POIN2	songC6_003
	POIN2	songC6_004
	POIN2	songC6_005
	POIN2	songC6_006
	POIN2	songC6_007
	POIN2	songC6_008
	POIN2	songC6_009
	POIN2	songC6_010
	POIN2	songC6_011
	POIN2	songC6_012

	
