//Event file generated from Sappy .s format.
	#include "MPlayDef.event"

	#define	songAE_grp  voicegroup000
	#define	songAE_pri  0
	#define	songAE_rev  0
	#define	songAE_mvl  127
	#define	songAE_key  0
	#define	songAE_tbs  1
	#define	songAE_exg  0
	#define	songAE_cmp  1

	// .rodata
	//	songAE
	ALIGN 4


//**************** Track 1 (Midi-Chn.0) ****************//

songAE_001:
// 000   ----------------------------------------
 BYTE   KEYSH   songAE_key+0
 BYTE   TEMPO   160*songAE_tbs/2
 BYTE   VOICE   18
 BYTE   VOL   58*songAE_mvl/mxv
 BYTE   PAN   c_v+31
 BYTE   W48
 BYTE   N06  Gn2  v127
 BYTE   W06
 BYTE   As2
 BYTE   W06
 BYTE   Ds3
 BYTE   W06
 BYTE   Gn3
 BYTE   W06
 BYTE   An2
 BYTE   W06
 BYTE   Cn3
 BYTE   W06
 BYTE   Fn3
 BYTE   W06
 BYTE   An3
 BYTE   W06
// 001   ----------------------------------------
Label_0_0146E7B9:
 BYTE   W96
// 002   ----------------------------------------
 BYTE   W96
// 003   ----------------------------------------
 BYTE   W96
// 004   ----------------------------------------
Label_0_0146E7BC:
 BYTE   W48
 BYTE   N06  Gn2  v127
 BYTE   W06
 BYTE   As2
 BYTE   W06
 BYTE   Ds3
 BYTE   W06
 BYTE   Gn3
 BYTE   W06
 BYTE   An2
 BYTE   W06
 BYTE   Cn3
 BYTE   W06
 BYTE   Fn3
 BYTE   W06
 BYTE   An3
 BYTE   W06
 BYTE   PEND 
// 005   ----------------------------------------
 BYTE   W96
// 006   ----------------------------------------
 BYTE   W96
// 007   ----------------------------------------
 BYTE   W96
// 008   ----------------------------------------
 BYTE   PATT
  POIN2 Label_0_0146E7BC
// 009   ----------------------------------------
 BYTE   W96
// 010   ----------------------------------------
 BYTE   W96
// 011   ----------------------------------------
 BYTE   W96
// 012   ----------------------------------------
 BYTE   W96
// 013   ----------------------------------------
 BYTE   W96
// 014   ----------------------------------------
 BYTE   W96
// 015   ----------------------------------------
 BYTE   W96
// 016   ----------------------------------------
 BYTE   W96
// 017   ----------------------------------------
 BYTE   W96
// 018   ----------------------------------------
 BYTE   W96
// 019   ----------------------------------------
 BYTE   W96
// 020   ----------------------------------------
 BYTE   W96
// 021   ----------------------------------------
 BYTE   W96
// 022   ----------------------------------------
 BYTE   W96
// 023   ----------------------------------------
 BYTE   W96
// 024   ----------------------------------------
 BYTE   W96
// 025   ----------------------------------------
 BYTE   GoTo
  POIN2 Label_0_0146E7B9
 BYTE   FINE

//**************** Track 2 (Midi-Chn.1) ****************//

songAE_002:
// 000   ----------------------------------------
 BYTE   KEYSH   songAE_key+0
 BYTE   VOICE   48
 BYTE   VOL   34*songAE_mvl/mxv
 BYTE   PAN   c_v+20
 BYTE   W96
// 001   ----------------------------------------
Label_1_0146E7F7:
 BYTE   N60  Dn4  v127
 BYTE   W60
 BYTE   N12  Gn3
 BYTE   W12
 BYTE   As3
 BYTE   W12
 BYTE   Dn4
 BYTE   W12
// 002   ----------------------------------------
 BYTE   N06  Fn4
 BYTE   W06
 BYTE   En4
 BYTE   W06
 BYTE   N48  Fn4
 BYTE   W48
 BYTE   N12  Gn3
 BYTE   W12
 BYTE   As3
 BYTE   W12
 BYTE   Fn4
 BYTE   W12
// 003   ----------------------------------------
 BYTE   En4
 BYTE   W12
 BYTE   En3
 BYTE   W12
 BYTE   Gn3
 BYTE   W12
 BYTE   As3
 BYTE   W12
 BYTE   Dn4
 BYTE   W12
 BYTE   Gn3
 BYTE   W12
 BYTE   As3
 BYTE   W12
 BYTE   Dn4
 BYTE   W12
// 004   ----------------------------------------
 BYTE   N06  Ds4
 BYTE   W06
 BYTE   Dn4
 BYTE   W06
 BYTE   N36  Ds4
 BYTE   W84
// 005   ----------------------------------------
 BYTE   N24  Gn3
 BYTE   W24
 BYTE   N12  An3
 BYTE   W12
 BYTE   N24  As3
 BYTE   W24
 BYTE   N12  Gn3
 BYTE   W12
 BYTE   Dn3
 BYTE   W12
 BYTE   As2
 BYTE   W12
// 006   ----------------------------------------
 BYTE   As3
 BYTE   W12
 BYTE   N06  Fn3
 BYTE   W06
 BYTE   N12  Cn4
 BYTE   W12
 BYTE   N06  Fn3
 BYTE   W06
 BYTE   N12  Dn4
 BYTE   W12
 BYTE   N06  Fn3
 BYTE   W06
 BYTE   N12  As3
 BYTE   W12
 BYTE   N06  Fn3
 BYTE   W06
 BYTE   Cn4
 BYTE   W06
 BYTE   Fn3
 BYTE   W06
 BYTE   Dn4
 BYTE   W06
 BYTE   En3
 BYTE   W06
// 007   ----------------------------------------
 BYTE   N84  Cn4
 BYTE   W84
 BYTE   N06  As3
 BYTE   W06
 BYTE   An3
 BYTE   W06
// 008   ----------------------------------------
 BYTE   N48  Gn3
 BYTE   W96
// 009   ----------------------------------------
 BYTE   Dn3
 BYTE   W48
 BYTE   N12  Gn2
 BYTE   W12
 BYTE   As2
 BYTE   W12
 BYTE   Dn3
 BYTE   W12
 BYTE   Fn3
 BYTE   W12
// 010   ----------------------------------------
 BYTE   N48  En3
 BYTE   W48
 BYTE   N36  Gn2
 BYTE   W36
 BYTE   N06
 BYTE   W06
 BYTE   An2
 BYTE   W06
// 011   ----------------------------------------
 BYTE   N24  As2
 BYTE   W24
 BYTE   N12  Cn3
 BYTE   W12
 BYTE   N24  Dn3
 BYTE   W24
 BYTE   N12  Gn2
 BYTE   W12
 BYTE   As2
 BYTE   W12
 BYTE   Fn3
 BYTE   W12
// 012   ----------------------------------------
 BYTE   N06  En3
 BYTE   W06
 BYTE   Dn3
 BYTE   W06
 BYTE   N84  En3
 BYTE   W84
// 013   ----------------------------------------
 BYTE   N12  Ds3
 BYTE   W12
 BYTE   N24  Fn3
 BYTE   W24
 BYTE   Gn3
 BYTE   W24
 BYTE   N12
 BYTE   W12
 BYTE   An3
 BYTE   W12
 BYTE   As3
 BYTE   W12
// 014   ----------------------------------------
 BYTE   N06  An3
 BYTE   W06
 BYTE   Gn3
 BYTE   W06
 BYTE   N48  Fn3
 BYTE   W48
 BYTE   N12  An2
 BYTE   W12
 BYTE   As2
 BYTE   W12
 BYTE   Cn3
 BYTE   W12
// 015   ----------------------------------------
 BYTE   N06  Dn3
 BYTE   W06
 BYTE   An2
 BYTE   W06
 BYTE   Fn2
 BYTE   W06
 BYTE   Dn2
 BYTE   W06
 BYTE   Fn3
 BYTE   W06
 BYTE   Dn3
 BYTE   W06
 BYTE   An2
 BYTE   W06
 BYTE   Fn2
 BYTE   W06
 BYTE   An3
 BYTE   W06
 BYTE   Fn3
 BYTE   W06
 BYTE   Dn3
 BYTE   W06
 BYTE   An2
 BYTE   W06
 BYTE   An3
 BYTE   W06
 BYTE   Dn3
 BYTE   W06
 BYTE   Fn3
 BYTE   W06
 BYTE   An3
 BYTE   W06
// 016   ----------------------------------------
 BYTE   N18  Gn3
 BYTE   W18
 BYTE   Ds3
 BYTE   W18
 BYTE   N12  As3
 BYTE   W12
 BYTE   N48  An3
 BYTE   W48
// 017   ----------------------------------------
 BYTE   W96
// 018   ----------------------------------------
 BYTE   W96
// 019   ----------------------------------------
 BYTE   W96
// 020   ----------------------------------------
 BYTE   W96
// 021   ----------------------------------------
 BYTE   W96
// 022   ----------------------------------------
 BYTE   W96
// 023   ----------------------------------------
 BYTE   W96
// 024   ----------------------------------------
 BYTE   W96
// 025   ----------------------------------------
 BYTE   GoTo
  POIN2 Label_1_0146E7F7
 BYTE   FINE

//**************** Track 3 (Midi-Chn.2) ****************//

songAE_003:
// 000   ----------------------------------------
 BYTE   KEYSH   songAE_key+0
 BYTE   VOICE   29
 BYTE   VOL   10*songAE_mvl/mxv
 BYTE   PAN   c_v-7
 BYTE   W48
 BYTE   N06  Ds1  v127
 BYTE   W06
 BYTE   As0
 BYTE   W06
 BYTE   N12  Ds1
 BYTE   W12
 BYTE   N06  Fn1
 BYTE   W06
 BYTE   Cn1
 BYTE   W06
 BYTE   N12  Fn1
 BYTE   W12
// 001   ----------------------------------------
Label_2_0146E901:
 BYTE   N12  Gn0  v127
 BYTE   W12
 BYTE   N06
 BYTE   W06
 BYTE   N06
 BYTE   W06
 BYTE   N06
 BYTE   W06
 BYTE   N12
 BYTE   W12
 BYTE   N06
 BYTE   W06
 BYTE   N12
 BYTE   W12
 BYTE   N06
 BYTE   W06
 BYTE   N06
 BYTE   W06
 BYTE   N06
 BYTE   W06
 BYTE   N12
 BYTE   W12
 BYTE   N06
 BYTE   W06
 BYTE   PEND 
// 002   ----------------------------------------
Label_2_0146E91C:
 BYTE   N12  As0  v127
 BYTE   W12
 BYTE   N06
 BYTE   W06
 BYTE   N06
 BYTE   W06
 BYTE   N06
 BYTE   W06
 BYTE   N12
 BYTE   W12
 BYTE   N06
 BYTE   W06
 BYTE   N12
 BYTE   W12
 BYTE   N06
 BYTE   W06
 BYTE   N06
 BYTE   W06
 BYTE   N06
 BYTE   W06
 BYTE   N12
 BYTE   W12
 BYTE   N06
 BYTE   W06
 BYTE   PEND 
// 003   ----------------------------------------
Label_2_0146E937:
 BYTE   N12  En0  v127
 BYTE   W12
 BYTE   N06
 BYTE   W06
 BYTE   N06
 BYTE   W06
 BYTE   N06
 BYTE   W06
 BYTE   N12
 BYTE   W12
 BYTE   N06
 BYTE   W06
 BYTE   N12
 BYTE   W12
 BYTE   N06
 BYTE   W06
 BYTE   N06
 BYTE   W06
 BYTE   N06
 BYTE   W06
 BYTE   N12
 BYTE   W12
 BYTE   N06
 BYTE   W06
 BYTE   PEND 
// 004   ----------------------------------------
Label_2_0146E952:
 BYTE   N12  Ds1  v127
 BYTE   W12
 BYTE   N06
 BYTE   W06
 BYTE   N06
 BYTE   W06
 BYTE   N06
 BYTE   W06
 BYTE   N12
 BYTE   W12
 BYTE   N06
 BYTE   W06
 BYTE   N12
 BYTE   W12
 BYTE   N06
 BYTE   W06
 BYTE   N06
 BYTE   W06
 BYTE   Fn0
 BYTE   W06
 BYTE   N12
 BYTE   W12
 BYTE   N06
 BYTE   W06
 BYTE   PEND 
// 005   ----------------------------------------
 BYTE   PATT
  POIN2 Label_2_0146E901
// 006   ----------------------------------------
 BYTE   PATT
  POIN2 Label_2_0146E91C
// 007   ----------------------------------------
 BYTE   PATT
  POIN2 Label_2_0146E937
// 008   ----------------------------------------
 BYTE   PATT
  POIN2 Label_2_0146E952
// 009   ----------------------------------------
Label_2_0146E981:
 BYTE   N12  Gn0  v127
 BYTE   W12
 BYTE   N06
 BYTE   W06
 BYTE   N06
 BYTE   W06
 BYTE   Gn1
 BYTE   W06
 BYTE   N12  Gn0
 BYTE   W12
 BYTE   N06
 BYTE   W06
 BYTE   N12
 BYTE   W12
 BYTE   N06
 BYTE   W06
 BYTE   N06
 BYTE   W06
 BYTE   Gn1
 BYTE   W06
 BYTE   N12  Gn0
 BYTE   W12
 BYTE   N06
 BYTE   W06
 BYTE   PEND 
// 010   ----------------------------------------
 BYTE   PATT
  POIN2 Label_2_0146E981
// 011   ----------------------------------------
 BYTE   N12  As0  v127
 BYTE   W12
 BYTE   N06
 BYTE   W06
 BYTE   N06
 BYTE   W06
 BYTE   As1
 BYTE   W06
 BYTE   N12  As0
 BYTE   W12
 BYTE   N06
 BYTE   W06
 BYTE   N12
 BYTE   W12
 BYTE   N06
 BYTE   W06
 BYTE   N06
 BYTE   W06
 BYTE   As1
 BYTE   W06
 BYTE   N12  As0
 BYTE   W12
 BYTE   N06
 BYTE   W06
// 012   ----------------------------------------
 BYTE   N12  Cn1
 BYTE   W12
 BYTE   N06
 BYTE   W06
 BYTE   N06
 BYTE   W06
 BYTE   N06
 BYTE   W06
 BYTE   N12
 BYTE   W12
 BYTE   N06
 BYTE   W06
 BYTE   N12
 BYTE   W12
 BYTE   N06
 BYTE   W06
 BYTE   N06
 BYTE   W06
 BYTE   N12
 BYTE   W12
 BYTE   Dn1
 BYTE   W12
// 013   ----------------------------------------
 BYTE   Ds1
 BYTE   W12
 BYTE   N06
 BYTE   W06
 BYTE   N06
 BYTE   W06
 BYTE   N06
 BYTE   W06
 BYTE   N12
 BYTE   W12
 BYTE   N06
 BYTE   W06
 BYTE   N12
 BYTE   W12
 BYTE   N06
 BYTE   W06
 BYTE   N06
 BYTE   W06
 BYTE   Ds2
 BYTE   W06
 BYTE   N12  Ds1
 BYTE   W12
 BYTE   N06
 BYTE   W06
// 014   ----------------------------------------
 BYTE   N12  Fn0
 BYTE   W12
 BYTE   N06
 BYTE   W06
 BYTE   N06
 BYTE   W06
 BYTE   Fn1
 BYTE   W06
 BYTE   N12  Fn0
 BYTE   W12
 BYTE   N06
 BYTE   W06
 BYTE   N12
 BYTE   W12
 BYTE   N06
 BYTE   W06
 BYTE   N06
 BYTE   W06
 BYTE   Fn1
 BYTE   W06
 BYTE   An0
 BYTE   W06
 BYTE   Cn1
 BYTE   W06
 BYTE   Fn1
 BYTE   W06
// 015   ----------------------------------------
 BYTE   N12  Dn1
 BYTE   W12
 BYTE   N12
 BYTE   W12
 BYTE   An0
 BYTE   W12
 BYTE   N12
 BYTE   W12
 BYTE   Fn0
 BYTE   W12
 BYTE   N12
 BYTE   W12
 BYTE   Dn1
 BYTE   W12
 BYTE   N12
 BYTE   W12
// 016   ----------------------------------------
 BYTE   N18  Ds1
 BYTE   W18
 BYTE   As0
 BYTE   W18
 BYTE   N12  Gn0
 BYTE   W12
 BYTE   N06  Fn0
 BYTE   W06
 BYTE   An0
 BYTE   W06
 BYTE   Cn1
 BYTE   W06
 BYTE   Fn1
 BYTE   W06
 BYTE   An0
 BYTE   W06
 BYTE   Cn1
 BYTE   W06
 BYTE   Fn1
 BYTE   W06
 BYTE   An1
 BYTE   W06
// 017   ----------------------------------------
 BYTE   TIE  Gn0
 BYTE   W96
// 018   ----------------------------------------
 BYTE   W84
 BYTE   EOT
 BYTE   N12  Dn0
 BYTE   W12
// 019   ----------------------------------------
 BYTE   N48  Gn0
 BYTE   W48
 BYTE   Dn1
 BYTE   W48
// 020   ----------------------------------------
 BYTE   N12  As0
 BYTE   W24
 BYTE   N12
 BYTE   W24
 BYTE   An0
 BYTE   W24
 BYTE   Dn1
 BYTE   W24
// 021   ----------------------------------------
 BYTE   TIE  Gn0
 BYTE   W96
// 022   ----------------------------------------
 BYTE   W84
 BYTE   EOT
 BYTE   N12  Dn0
 BYTE   W12
// 023   ----------------------------------------
 BYTE   N48  Gn0
 BYTE   W48
 BYTE   Gs0
 BYTE   W48
// 024   ----------------------------------------
 BYTE   N12  Fs0
 BYTE   W12
 BYTE   N12
 BYTE   W12
 BYTE   N12
 BYTE   W12
 BYTE   N12
 BYTE   W12
 BYTE   N12
 BYTE   W12
 BYTE   N12
 BYTE   W12
 BYTE   N12
 BYTE   W12
 BYTE   N12
 BYTE   W12
// 025   ----------------------------------------
 BYTE   GoTo
  POIN2 Label_2_0146E901
 BYTE   FINE

//**************** Track 4 (Midi-Chn.3) ****************//

songAE_004:
// 000   ----------------------------------------
 BYTE   KEYSH   songAE_key+0
 BYTE   VOICE   30
 BYTE   VOL   28*songAE_mvl/mxv
 BYTE   PAN   c_v-19
 BYTE   W48
 BYTE   N12  Ds2  v127
 BYTE   W12
 BYTE   N06  Ds1
 BYTE   W06
 BYTE   N06
 BYTE   W06
 BYTE   N12  Fn2
 BYTE   W12
 BYTE   N06  Fn1
 BYTE   W06
 BYTE   N06
 BYTE   W06
// 001   ----------------------------------------
Label_3_0146EA89:
 BYTE   N12  Gn1  v127
 BYTE   W12
 BYTE   N06
 BYTE   W06
 BYTE   N06
 BYTE   W06
 BYTE   Gn2
 BYTE   W06
 BYTE   N12  Gn1
 BYTE   W12
 BYTE   N06
 BYTE   W06
 BYTE   N12
 BYTE   W12
 BYTE   N06
 BYTE   W06
 BYTE   N06
 BYTE   W06
 BYTE   Gn2
 BYTE   W06
 BYTE   N12  Gn1
 BYTE   W12
 BYTE   N06
 BYTE   W06
 BYTE   PEND 
// 002   ----------------------------------------
Label_3_0146EAA6:
 BYTE   N12  As1  v127
 BYTE   W12
 BYTE   N06
 BYTE   W06
 BYTE   N06
 BYTE   W06
 BYTE   As2
 BYTE   W06
 BYTE   N12  As1
 BYTE   W12
 BYTE   N06
 BYTE   W06
 BYTE   N12
 BYTE   W12
 BYTE   N06
 BYTE   W06
 BYTE   N06
 BYTE   W06
 BYTE   As2
 BYTE   W06
 BYTE   N12  As1
 BYTE   W12
 BYTE   N06
 BYTE   W06
 BYTE   PEND 
// 003   ----------------------------------------
Label_3_0146EAC3:
 BYTE   N12  En1  v127
 BYTE   W12
 BYTE   N06
 BYTE   W06
 BYTE   N06
 BYTE   W06
 BYTE   En2
 BYTE   W06
 BYTE   N12  En1
 BYTE   W12
 BYTE   N06
 BYTE   W06
 BYTE   N12
 BYTE   W12
 BYTE   N06
 BYTE   W06
 BYTE   N06
 BYTE   W06
 BYTE   En2
 BYTE   W06
 BYTE   N12  En1
 BYTE   W12
 BYTE   N06
 BYTE   W06
 BYTE   PEND 
// 004   ----------------------------------------
Label_3_0146EAE0:
 BYTE   N12  Ds1  v127
 BYTE   W12
 BYTE   N06
 BYTE   W06
 BYTE   N06
 BYTE   W06
 BYTE   N06
 BYTE   W06
 BYTE   N12
 BYTE   W12
 BYTE   N06
 BYTE   W06
 BYTE   N12
 BYTE   W12
 BYTE   N06
 BYTE   W06
 BYTE   N06
 BYTE   W06
 BYTE   Fn1
 BYTE   W06
 BYTE   N18  Fn2
 BYTE   W18
 BYTE   PEND 
// 005   ----------------------------------------
 BYTE   PATT
  POIN2 Label_3_0146EA89
// 006   ----------------------------------------
 BYTE   PATT
  POIN2 Label_3_0146EAA6
// 007   ----------------------------------------
 BYTE   PATT
  POIN2 Label_3_0146EAC3
// 008   ----------------------------------------
 BYTE   PATT
  POIN2 Label_3_0146EAE0
// 009   ----------------------------------------
Label_3_0146EB0E:
 BYTE   N12  Gn1  v127
 BYTE   W12
 BYTE   N06
 BYTE   W06
 BYTE   N06
 BYTE   W06
 BYTE   N12
 BYTE   W12
 BYTE   N06
 BYTE   W06
 BYTE   N06
 BYTE   W06
 BYTE   N12
 BYTE   W12
 BYTE   N06
 BYTE   W06
 BYTE   N06
 BYTE   W06
 BYTE   N12
 BYTE   W12
 BYTE   N06
 BYTE   W06
 BYTE   N06
 BYTE   W06
 BYTE   PEND 
// 010   ----------------------------------------
 BYTE   PATT
  POIN2 Label_3_0146EB0E
// 011   ----------------------------------------
 BYTE   N12  As1  v127
 BYTE   W12
 BYTE   N06
 BYTE   W06
 BYTE   N06
 BYTE   W06
 BYTE   N12
 BYTE   W12
 BYTE   N06
 BYTE   W06
 BYTE   N06
 BYTE   W06
 BYTE   N12
 BYTE   W12
 BYTE   N06
 BYTE   W06
 BYTE   N06
 BYTE   W06
 BYTE   N12
 BYTE   W12
 BYTE   N06
 BYTE   W06
 BYTE   N06
 BYTE   W06
// 012   ----------------------------------------
 BYTE   N12  Cn2
 BYTE   W12
 BYTE   N06
 BYTE   W06
 BYTE   N06
 BYTE   W06
 BYTE   N12
 BYTE   W12
 BYTE   N06
 BYTE   W06
 BYTE   N06
 BYTE   W06
 BYTE   N12
 BYTE   W12
 BYTE   N06
 BYTE   W06
 BYTE   N06
 BYTE   W06
 BYTE   N12
 BYTE   W12
 BYTE   Dn2
 BYTE   W12
// 013   ----------------------------------------
 BYTE   Ds2
 BYTE   W12
 BYTE   N06
 BYTE   W06
 BYTE   N06
 BYTE   W06
 BYTE   N12
 BYTE   W12
 BYTE   N06
 BYTE   W06
 BYTE   N06
 BYTE   W06
 BYTE   N12
 BYTE   W12
 BYTE   N06
 BYTE   W06
 BYTE   N06
 BYTE   W06
 BYTE   N12
 BYTE   W12
 BYTE   N06
 BYTE   W06
 BYTE   N06
 BYTE   W06
// 014   ----------------------------------------
 BYTE   N12  Fn1
 BYTE   W12
 BYTE   N06
 BYTE   W06
 BYTE   N06
 BYTE   W06
 BYTE   N12
 BYTE   W12
 BYTE   N06
 BYTE   W06
 BYTE   N06
 BYTE   W06
 BYTE   N12
 BYTE   W12
 BYTE   N06
 BYTE   W06
 BYTE   N06
 BYTE   W06
 BYTE   N06
 BYTE   W06
 BYTE   An1
 BYTE   W06
 BYTE   Cn2
 BYTE   W06
 BYTE   Fn2
 BYTE   W06
// 015   ----------------------------------------
 BYTE   N12  Dn2
 BYTE   W12
 BYTE   N12
 BYTE   W12
 BYTE   An1
 BYTE   W12
 BYTE   N12
 BYTE   W12
 BYTE   Fn1
 BYTE   W12
 BYTE   N12
 BYTE   W12
 BYTE   Dn2
 BYTE   W12
 BYTE   N12
 BYTE   W12
// 016   ----------------------------------------
 BYTE   N18  Ds2
 BYTE   W18
 BYTE   As1
 BYTE   W18
 BYTE   N12  Gn1
 BYTE   W12
 BYTE   N06  Fn1
 BYTE   W06
 BYTE   An1
 BYTE   W06
 BYTE   Cn2
 BYTE   W06
 BYTE   Fn2
 BYTE   W06
 BYTE   An1
 BYTE   W06
 BYTE   Cn2
 BYTE   W06
 BYTE   Fn2
 BYTE   W06
 BYTE   An2
 BYTE   W06
// 017   ----------------------------------------
 BYTE   TIE  Gn0
 BYTE   W96
// 018   ----------------------------------------
 BYTE   W84
 BYTE   EOT
 BYTE   N12  Dn0
 BYTE   W12
// 019   ----------------------------------------
 BYTE   N48  Gn0
 BYTE   W48
 BYTE   Dn1
 BYTE   W48
// 020   ----------------------------------------
 BYTE   N12  As0
 BYTE   W24
 BYTE   N12
 BYTE   W24
 BYTE   An0
 BYTE   W24
 BYTE   Dn1
 BYTE   W24
// 021   ----------------------------------------
 BYTE   TIE  Gn0
 BYTE   W96
// 022   ----------------------------------------
 BYTE   W84
 BYTE   EOT
 BYTE   N12  Dn0
 BYTE   W12
// 023   ----------------------------------------
 BYTE   N48  Gn0
 BYTE   W48
 BYTE   Gs0
 BYTE   W48
// 024   ----------------------------------------
 BYTE   N12  Fs0
 BYTE   W12
 BYTE   N12
 BYTE   W12
 BYTE   N12
 BYTE   W12
 BYTE   N12
 BYTE   W12
 BYTE   N12
 BYTE   W12
 BYTE   N12
 BYTE   W12
 BYTE   N12
 BYTE   W12
 BYTE   N12
 BYTE   W12
// 025   ----------------------------------------
 BYTE   GoTo
  POIN2 Label_3_0146EA89
 BYTE   FINE

//**************** Track 5 (Midi-Chn.4) ****************//

songAE_005:
// 000   ----------------------------------------
 BYTE   KEYSH   songAE_key+0
 BYTE   VOICE   52
 BYTE   VOL   22*songAE_mvl/mxv
 BYTE   PAN   c_v-22
 BYTE   W96
// 001   ----------------------------------------
Label_4_0146EBFF:
 BYTE   N96  Dn3  v127
 BYTE   N96  Gn3
 BYTE   W96
// 002   ----------------------------------------
 BYTE   As2
 BYTE   N96  Fn3
 BYTE   W96
// 003   ----------------------------------------
Label_4_0146EC09:
 BYTE   TIE  Gn2  v127
 BYTE   N96  En3
 BYTE   W96
 BYTE   PEND 
// 004   ----------------------------------------
 BYTE   N72  Ds3
 BYTE   W72
 BYTE   EOT
 BYTE   Gn2
 BYTE   N24  Cn3
 BYTE   N24  Fn3
 BYTE   W24
// 005   ----------------------------------------
 BYTE   N96  Dn3
 BYTE   N96  Gn3
 BYTE   W96
// 006   ----------------------------------------
 BYTE   As2
 BYTE   N96  Fn3
 BYTE   W96
// 007   ----------------------------------------
 BYTE   PATT
  POIN2 Label_4_0146EC09
// 008   ----------------------------------------
 BYTE   N72  Ds3  v127
 BYTE   W72
 BYTE   EOT
 BYTE   Gn2
 BYTE   N24  Cn3
 BYTE   N24  Fn3
 BYTE   W24
// 009   ----------------------------------------
 BYTE   W96
// 010   ----------------------------------------
 BYTE   W96
// 011   ----------------------------------------
 BYTE   W96
// 012   ----------------------------------------
 BYTE   W96
// 013   ----------------------------------------
 BYTE   W96
// 014   ----------------------------------------
 BYTE   W96
// 015   ----------------------------------------
 BYTE   N12  Dn4
 BYTE   W12
 BYTE   N12
 BYTE   W12
 BYTE   N12
 BYTE   W12
 BYTE   N12
 BYTE   W12
 BYTE   N12
 BYTE   W12
 BYTE   N12
 BYTE   W12
 BYTE   N12
 BYTE   W12
 BYTE   N12
 BYTE   W12
// 016   ----------------------------------------
 BYTE   N48  Ds4
 BYTE   W48
 BYTE   Fn4
 BYTE   W48
// 017   ----------------------------------------
 BYTE   W96
// 018   ----------------------------------------
 BYTE   W96
// 019   ----------------------------------------
 BYTE   W96
// 020   ----------------------------------------
 BYTE   W96
// 021   ----------------------------------------
 BYTE   W96
// 022   ----------------------------------------
 BYTE   W96
// 023   ----------------------------------------
 BYTE   W96
// 024   ----------------------------------------
 BYTE   W96
// 025   ----------------------------------------
 BYTE   GoTo
  POIN2 Label_4_0146EBFF
 BYTE   FINE

//**************** Track 6 (Midi-Chn.5) ****************//

songAE_006:
// 000   ----------------------------------------
 BYTE   KEYSH   songAE_key+0
 BYTE   VOICE   56
 BYTE   VOL   26*songAE_mvl/mxv
 BYTE   PAN   c_v+6
 BYTE   W96
// 001   ----------------------------------------
Label_5_0146EC66:
 BYTE   W96
// 002   ----------------------------------------
 BYTE   W96
// 003   ----------------------------------------
 BYTE   W96
// 004   ----------------------------------------
 BYTE   W96
// 005   ----------------------------------------
 BYTE   W96
// 006   ----------------------------------------
 BYTE   W96
// 007   ----------------------------------------
 BYTE   W96
// 008   ----------------------------------------
 BYTE   W96
// 009   ----------------------------------------
 BYTE   TIE  Gn3  v127
 BYTE   W96
// 010   ----------------------------------------
 BYTE   W96
// 011   ----------------------------------------
 BYTE   EOT
 BYTE   N96  Fn3
 BYTE   W96
// 012   ----------------------------------------
 BYTE   Gn3
 BYTE   W96
// 013   ----------------------------------------
 BYTE   As3
 BYTE   W96
// 014   ----------------------------------------
 BYTE   Cn4
 BYTE   W96
// 015   ----------------------------------------
 BYTE   W96
// 016   ----------------------------------------
 BYTE   W96
// 017   ----------------------------------------
 BYTE   W96
// 018   ----------------------------------------
 BYTE   W96
// 019   ----------------------------------------
 BYTE   W96
// 020   ----------------------------------------
 BYTE   W96
// 021   ----------------------------------------
 BYTE   W96
// 022   ----------------------------------------
 BYTE   W96
// 023   ----------------------------------------
 BYTE   W96
// 024   ----------------------------------------
 BYTE   W96
// 025   ----------------------------------------
 BYTE   GoTo
  POIN2 Label_5_0146EC66
 BYTE   FINE

//**************** Track 7 (Midi-Chn.6) ****************//

songAE_007:
// 000   ----------------------------------------
 BYTE   KEYSH   songAE_key+0
 BYTE   VOICE   58
 BYTE   VOL   42*songAE_mvl/mxv
 BYTE   PAN   c_v+8
 BYTE   W96
// 001   ----------------------------------------
Label_6_0146EC96:
 BYTE   W96
// 002   ----------------------------------------
 BYTE   W96
// 003   ----------------------------------------
 BYTE   W96
// 004   ----------------------------------------
 BYTE   W96
// 005   ----------------------------------------
 BYTE   W96
// 006   ----------------------------------------
 BYTE   W96
// 007   ----------------------------------------
 BYTE   W96
// 008   ----------------------------------------
 BYTE   W96
// 009   ----------------------------------------
 BYTE   W96
// 010   ----------------------------------------
 BYTE   W96
// 011   ----------------------------------------
 BYTE   W96
// 012   ----------------------------------------
 BYTE   W96
// 013   ----------------------------------------
 BYTE   W96
// 014   ----------------------------------------
 BYTE   W96
// 015   ----------------------------------------
 BYTE   W96
// 016   ----------------------------------------
 BYTE   W96
// 017   ----------------------------------------
Label_6_0146ECA6:
 BYTE   N48  Dn2  v127
 BYTE   W48
 BYTE   N24  Cn2
 BYTE   W24
 BYTE   Ds2
 BYTE   W24
 BYTE   PEND 
// 018   ----------------------------------------
Label_6_0146ECB0:
 BYTE   N48  Dn2  v127
 BYTE   W48
 BYTE   N06  Gn1
 BYTE   W12
 BYTE   An1
 BYTE   W12
 BYTE   As1
 BYTE   W12
 BYTE   Cn2
 BYTE   W12
 BYTE   PEND 
// 019   ----------------------------------------
 BYTE   N24  Dn2
 BYTE   W24
 BYTE   Gn1
 BYTE   W24
 BYTE   Cn2
 BYTE   W24
 BYTE   An1
 BYTE   W24
// 020   ----------------------------------------
 BYTE   N12  As1
 BYTE   W24
 BYTE   Cn2
 BYTE   W24
 BYTE   An1
 BYTE   W24
 BYTE   Dn1
 BYTE   W24
// 021   ----------------------------------------
 BYTE   PATT
  POIN2 Label_6_0146ECA6
// 022   ----------------------------------------
 BYTE   PATT
  POIN2 Label_6_0146ECB0
// 023   ----------------------------------------
 BYTE   W96
// 024   ----------------------------------------
 BYTE   W96
// 025   ----------------------------------------
 BYTE   GoTo
  POIN2 Label_6_0146EC96
 BYTE   FINE

//**************** Track 8 (Midi-Chn.7) ****************//

songAE_008:
// 000   ----------------------------------------
 BYTE   KEYSH   songAE_key+0
 BYTE   VOICE   19
 BYTE   VOL   37*songAE_mvl/mxv
 BYTE   PAN   c_v+18
 BYTE   W96
// 001   ----------------------------------------
Label_7_0146ECEB:
 BYTE   W96
// 002   ----------------------------------------
 BYTE   W96
// 003   ----------------------------------------
 BYTE   W96
// 004   ----------------------------------------
 BYTE   W96
// 005   ----------------------------------------
 BYTE   W96
// 006   ----------------------------------------
 BYTE   W96
// 007   ----------------------------------------
 BYTE   W96
// 008   ----------------------------------------
 BYTE   W96
// 009   ----------------------------------------
 BYTE   W96
// 010   ----------------------------------------
 BYTE   W96
// 011   ----------------------------------------
 BYTE   W96
// 012   ----------------------------------------
 BYTE   W96
// 013   ----------------------------------------
 BYTE   W96
// 014   ----------------------------------------
 BYTE   W96
// 015   ----------------------------------------
 BYTE   W96
// 016   ----------------------------------------
 BYTE   W96
// 017   ----------------------------------------
 BYTE   W96
// 018   ----------------------------------------
 BYTE   W96
// 019   ----------------------------------------
 BYTE   W96
// 020   ----------------------------------------
 BYTE   W96
// 021   ----------------------------------------
 BYTE   W96
// 022   ----------------------------------------
 BYTE   W96
// 023   ----------------------------------------
 BYTE   N24  Dn4  v127
 BYTE   W24
 BYTE   N12  Cn4
 BYTE   W12
 BYTE   Dn4
 BYTE   W12
 BYTE   Ds4
 BYTE   W12
 BYTE   Cn4
 BYTE   W12
 BYTE   Dn4
 BYTE   W12
 BYTE   Ds4
 BYTE   W12
// 024   ----------------------------------------
 BYTE   N48  Dn4
 BYTE   W48
 BYTE   Fs4
 BYTE   W48
// 025   ----------------------------------------
 BYTE   GoTo
  POIN2 Label_7_0146ECEB
 BYTE   FINE

//**************** Track 9 (Midi-Chn.8) ****************//

songAE_009:
// 000   ----------------------------------------
 BYTE   KEYSH   songAE_key+0
 BYTE   VOICE   40
 BYTE   VOL   36*songAE_mvl/mxv
 BYTE   PAN   c_v+3
 BYTE   W96
// 001   ----------------------------------------
Label_8_0146ED26:
 BYTE   W96
// 002   ----------------------------------------
 BYTE   W96
// 003   ----------------------------------------
 BYTE   W96
// 004   ----------------------------------------
 BYTE   W96
// 005   ----------------------------------------
 BYTE   W96
// 006   ----------------------------------------
 BYTE   W96
// 007   ----------------------------------------
 BYTE   W96
// 008   ----------------------------------------
 BYTE   W96
// 009   ----------------------------------------
 BYTE   W96
// 010   ----------------------------------------
 BYTE   W96
// 011   ----------------------------------------
 BYTE   W96
// 012   ----------------------------------------
 BYTE   W96
// 013   ----------------------------------------
 BYTE   W96
// 014   ----------------------------------------
 BYTE   W96
// 015   ----------------------------------------
 BYTE   W96
// 016   ----------------------------------------
 BYTE   W96
// 017   ----------------------------------------
Label_8_0146ED36:
 BYTE   N06  Gn3  v127
 BYTE   N06  As3
 BYTE   N06  Dn4
 BYTE   W12
 BYTE   Gn3
 BYTE   N06  As3
 BYTE   N06  Dn4
 BYTE   W12
 BYTE   Gn3
 BYTE   N06  As3
 BYTE   N06  Dn4
 BYTE   W12
 BYTE   Gn3
 BYTE   N06  As3
 BYTE   N06  Dn4
 BYTE   W12
 BYTE   Gn3
 BYTE   N06  Cn4
 BYTE   N06  Ds4
 BYTE   W12
 BYTE   Gn3
 BYTE   N06  Cn4
 BYTE   N06  Ds4
 BYTE   W12
 BYTE   Gn3
 BYTE   N06  Cn4
 BYTE   N06  Ds4
 BYTE   W12
 BYTE   Gn3
 BYTE   N06  Cn4
 BYTE   N06  Ds4
 BYTE   W12
 BYTE   PEND 
// 018   ----------------------------------------
Label_8_0146ED69:
 BYTE   N06  Gn3  v127
 BYTE   N06  Dn4
 BYTE   N06  Fn4
 BYTE   W12
 BYTE   Gn3
 BYTE   N06  Dn4
 BYTE   N06  Fn4
 BYTE   W12
 BYTE   Gn3
 BYTE   N06  Dn4
 BYTE   N06  Fn4
 BYTE   W12
 BYTE   Gn3
 BYTE   N06  Dn4
 BYTE   N06  Fn4
 BYTE   W12
 BYTE   Gn3
 BYTE   N06  Cn4
 BYTE   N06  Ds4
 BYTE   W12
 BYTE   Gn3
 BYTE   N06  Cn4
 BYTE   N06  Ds4
 BYTE   W12
 BYTE   Gn3
 BYTE   N06  Cn4
 BYTE   N06  Ds4
 BYTE   W12
 BYTE   Gn3
 BYTE   N06  Cn4
 BYTE   N06  Ds4
 BYTE   W12
 BYTE   PEND 
// 019   ----------------------------------------
 BYTE   Gn3
 BYTE   N06  As3
 BYTE   N06  Dn4
 BYTE   W12
 BYTE   Gn3
 BYTE   N06  As3
 BYTE   N06  Dn4
 BYTE   W12
 BYTE   Gn3
 BYTE   N06  As3
 BYTE   N06  Dn4
 BYTE   W12
 BYTE   Gn3
 BYTE   N06  As3
 BYTE   N06  Dn4
 BYTE   W12
 BYTE   Fs3
 BYTE   N06  An3
 BYTE   N06  Dn4
 BYTE   W12
 BYTE   Fs3
 BYTE   N06  An3
 BYTE   N06  Dn4
 BYTE   W12
 BYTE   Fs3
 BYTE   N06  An3
 BYTE   N06  Dn4
 BYTE   W12
 BYTE   Fs3
 BYTE   N06  An3
 BYTE   N06  Dn4
 BYTE   W12
// 020   ----------------------------------------
 BYTE   N12  Gn3
 BYTE   N12  As3
 BYTE   N12  Dn4
 BYTE   W24
 BYTE   Gn3
 BYTE   N12  As3
 BYTE   N12  Ds4
 BYTE   W24
 BYTE   Fn3
 BYTE   N12  An3
 BYTE   N12  Cn4
 BYTE   W24
 BYTE   Dn3
 BYTE   N12  Fs3
 BYTE   N12  An3
 BYTE   W24
// 021   ----------------------------------------
 BYTE   PATT
  POIN2 Label_8_0146ED36
// 022   ----------------------------------------
 BYTE   PATT
  POIN2 Label_8_0146ED69
// 023   ----------------------------------------
 BYTE   N06  Gn3  v127
 BYTE   N06  As3
 BYTE   N06  Dn4
 BYTE   W12
 BYTE   Gn3
 BYTE   N06  As3
 BYTE   N06  Dn4
 BYTE   W12
 BYTE   Gn3
 BYTE   N06  As3
 BYTE   N06  Dn4
 BYTE   W12
 BYTE   Gn3
 BYTE   N06  As3
 BYTE   N06  Dn4
 BYTE   W12
 BYTE   Gs3
 BYTE   N06  Cn4
 BYTE   N06  Ds4
 BYTE   W12
 BYTE   Gs3
 BYTE   N06  Cn4
 BYTE   N06  Ds4
 BYTE   W12
 BYTE   Gs3
 BYTE   N06  Cn4
 BYTE   N06  Ds4
 BYTE   W12
 BYTE   Gs3
 BYTE   N06  Cn4
 BYTE   N06  Ds4
 BYTE   W12
// 024   ----------------------------------------
 BYTE   N96  Fs3
 BYTE   N96  An3
 BYTE   N96  Dn4
 BYTE   W96
// 025   ----------------------------------------
 BYTE   GoTo
  POIN2 Label_8_0146ED26
 BYTE   FINE

//**************** Track 10 (Midi-Chn.9) ****************//

songAE_010:
// 000   ----------------------------------------
 BYTE   KEYSH   songAE_key+0
 BYTE   VOICE   127
 BYTE   VOL   53*songAE_mvl/mxv
 BYTE   N01  Bn1  v108
 BYTE   W03
 BYTE   Bn1  v092
 BYTE   W03
 BYTE   Bn1  v088
 BYTE   W06
 BYTE   Bn1  v100
 BYTE   W06
 BYTE   Bn1  v088
 BYTE   W06
 BYTE   An1  v108
 BYTE   W03
 BYTE   An1  v092
 BYTE   W03
 BYTE   An1  v088
 BYTE   W06
 BYTE   An1  v100
 BYTE   W06
 BYTE   An1  v088
 BYTE   W06
 BYTE   Fn1  v108
 BYTE   W03
 BYTE   Fn1  v092
 BYTE   W03
 BYTE   Fn1  v088
 BYTE   W06
 BYTE   Fn1  v100
 BYTE   W06
 BYTE   Fn1  v088
 BYTE   W06
 BYTE   Dn1  v072
 BYTE   W03
 BYTE   N01
 BYTE   W03
 BYTE   N01
 BYTE   W06
 BYTE   N01
 BYTE   W06
 BYTE   N01
 BYTE   W06
// 001   ----------------------------------------
Label_9_0146EE6D:
 BYTE   N01  Gn1  v100
 BYTE   W12
 BYTE   N01
 BYTE   W06
 BYTE   N01
 BYTE   W06
 BYTE   Dn1  v072
 BYTE   W06
 BYTE   Gn1  v100
 BYTE   W12
 BYTE   N01
 BYTE   W06
 BYTE   N01
 BYTE   W12
 BYTE   N01
 BYTE   W06
 BYTE   N01
 BYTE   W06
 BYTE   Dn1  v072
 BYTE   W06
 BYTE   Gn1  v100
 BYTE   W12
 BYTE   N01
 BYTE   W06
 BYTE   PEND 
// 002   ----------------------------------------
 BYTE   PATT
  POIN2 Label_9_0146EE6D
// 003   ----------------------------------------
 BYTE   PATT
  POIN2 Label_9_0146EE6D
// 004   ----------------------------------------
 BYTE   N01  Gn1  v100
 BYTE   W12
 BYTE   N01
 BYTE   W06
 BYTE   N01
 BYTE   W06
 BYTE   Dn1  v072
 BYTE   W06
 BYTE   Gn1  v100
 BYTE   W12
 BYTE   N01
 BYTE   W06
 BYTE   Dn1  v072
 BYTE   W06
 BYTE   N01
 BYTE   W06
 BYTE   Gn1  v100
 BYTE   W12
 BYTE   Dn1  v072
 BYTE   W06
 BYTE   N01
 BYTE   W06
 BYTE   Gn1  v100
 BYTE   W06
 BYTE   Gn1  v092
 BYTE   W06
// 005   ----------------------------------------
 BYTE   PATT
  POIN2 Label_9_0146EE6D
// 006   ----------------------------------------
 BYTE   PATT
  POIN2 Label_9_0146EE6D
// 007   ----------------------------------------
 BYTE   PATT
  POIN2 Label_9_0146EE6D
// 008   ----------------------------------------
 BYTE   N01  Gn1  v100
 BYTE   W12
 BYTE   Dn1  v072
 BYTE   W06
 BYTE   Gn1  v100
 BYTE   W06
 BYTE   Dn1  v072
 BYTE   W06
 BYTE   N01
 BYTE   W06
 BYTE   Fn1  v092
 BYTE   W06
 BYTE   Gn1  v100
 BYTE   W06
 BYTE   Bn1  v108
 BYTE   W03
 BYTE   Bn1  v092
 BYTE   W03
 BYTE   Bn1  v088
 BYTE   W06
 BYTE   An1  v100
 BYTE   W06
 BYTE   An1  v092
 BYTE   W06
 BYTE   An1  v088
 BYTE   W06
 BYTE   An1  v100
 BYTE   W06
 BYTE   Fn1  v092
 BYTE   W06
 BYTE   Fn1  v088
 BYTE   W06
// 009   ----------------------------------------
 BYTE   PATT
  POIN2 Label_9_0146EE6D
// 010   ----------------------------------------
 BYTE   PATT
  POIN2 Label_9_0146EE6D
// 011   ----------------------------------------
 BYTE   PATT
  POIN2 Label_9_0146EE6D
// 012   ----------------------------------------
 BYTE   N01  Dn1  v072
 BYTE   W12
 BYTE   Bn1  v092
 BYTE   W06
 BYTE   Gn1  v088
 BYTE   W06
 BYTE   Dn1  v072
 BYTE   W06
 BYTE   Gn1  v100
 BYTE   W06
 BYTE   Gn1  v092
 BYTE   W06
 BYTE   Gn1  v088
 BYTE   W06
 BYTE   An1  v100
 BYTE   W12
 BYTE   Fn1  v092
 BYTE   W12
 BYTE   Dn1  v072
 BYTE   W06
 BYTE   Dn1  v060
 BYTE   W06
 BYTE   Dn1  v068
 BYTE   W06
 BYTE   Dn1  v060
 BYTE   W06
// 013   ----------------------------------------
 BYTE   PATT
  POIN2 Label_9_0146EE6D
// 014   ----------------------------------------
 BYTE   N01  Gn1  v100
 BYTE   W12
 BYTE   N01
 BYTE   W06
 BYTE   N01
 BYTE   W06
 BYTE   Dn1  v072
 BYTE   W06
 BYTE   Gn1  v100
 BYTE   W12
 BYTE   N01
 BYTE   W06
 BYTE   N01
 BYTE   W06
 BYTE   Dn1  v072
 BYTE   W06
 BYTE   Gn1  v100
 BYTE   W06
 BYTE   Gn1  v092
 BYTE   W06
 BYTE   Dn1  v072
 BYTE   W06
 BYTE   Dn1  v060
 BYTE   W06
 BYTE   Fn1  v100
 BYTE   W06
 BYTE   Fn1  v092
 BYTE   W06
// 015   ----------------------------------------
 BYTE   Dn1  v072
 BYTE   W18
 BYTE   N01
 BYTE   W30
 BYTE   Bn1  v100
 BYTE   W18
 BYTE   An1  v092
 BYTE   W12
 BYTE   Gn1  v100
 BYTE   W06
 BYTE   Dn1  v072
 BYTE   W12
// 016   ----------------------------------------
 BYTE   Bn1  v108
 BYTE   W03
 BYTE   Bn1  v092
 BYTE   W03
 BYTE   Bn1  v088
 BYTE   W06
 BYTE   Bn1  v100
 BYTE   W12
 BYTE   An1
 BYTE   W06
 BYTE   N01
 BYTE   W06
 BYTE   Gn1
 BYTE   W12
 BYTE   Fn1
 BYTE   W06
 BYTE   Dn1  v072
 BYTE   W06
 BYTE   Dn1  v068
 BYTE   W06
 BYTE   Dn1  v060
 BYTE   W06
 BYTE   Dn1  v072
 BYTE   W06
 BYTE   Dn1  v060
 BYTE   W06
 BYTE   Dn1  v068
 BYTE   W06
 BYTE   Dn1  v060
 BYTE   W06
// 017   ----------------------------------------
 BYTE   Gn1  v108
 BYTE   W96
// 018   ----------------------------------------
 BYTE   W84
 BYTE   Gn1  v092
 BYTE   W12
// 019   ----------------------------------------
Label_9_0146EF9C:
 BYTE   N01  Gn1  v108
 BYTE   N01  An2  v100
 BYTE   W48
 BYTE   Gn1  v092
 BYTE   W48
 BYTE   PEND 
// 020   ----------------------------------------
 BYTE   Gn1  v108
 BYTE   N01  An2  v100
 BYTE   W24
 BYTE   Gn1  v092
 BYTE   W24
 BYTE   Gn1  v100
 BYTE   N01  An2
 BYTE   W24
 BYTE   Gn1  v092
 BYTE   N01  An2
 BYTE   W24
// 021   ----------------------------------------
 BYTE   Gn1  v108
 BYTE   N01  An2  v100
 BYTE   W96
// 022   ----------------------------------------
 BYTE   W84
 BYTE   Gn1  v092
 BYTE   W12
// 023   ----------------------------------------
 BYTE   PATT
  POIN2 Label_9_0146EF9C
// 024   ----------------------------------------
 BYTE   N01  Dn1  v052
 BYTE   W12
 BYTE   Dn1  v060
 BYTE   W12
 BYTE   Dn1  v072
 BYTE   W12
 BYTE   Dn1  v076
 BYTE   W12
 BYTE   An1  v108
 BYTE   N01  An2  v100
 BYTE   W03
 BYTE   An1
 BYTE   W03
 BYTE   An1  v092
 BYTE   W06
 BYTE   An1  v100
 BYTE   W06
 BYTE   An1  v092
 BYTE   W06
 BYTE   Gn1  v088
 BYTE   W06
 BYTE   Gn1  v092
 BYTE   W06
 BYTE   Gn1  v100
 BYTE   W06
 BYTE   Gn1  v108
 BYTE   W06
// 025   ----------------------------------------
 BYTE   GoTo
  POIN2 Label_9_0146EE6D
 BYTE   FINE

//******************************************************//
	ALIGN 4

songAE:
	BYTE	10	// NumTrks
	BYTE	0	// NumBlks
	BYTE	songAE_pri	// Priority
	BYTE	songAE_rev	// Reverb.
    
	POIN2	songAE_grp
    
	POIN2	songAE_001
	POIN2	songAE_002
	POIN2	songAE_003
	POIN2	songAE_004
	POIN2	songAE_005
	POIN2	songAE_006
	POIN2	songAE_007
	POIN2	songAE_008
	POIN2	songAE_009
	POIN2	songAE_010

	
