//Event file generated from Sappy .s format.
	#include "MPlayDef.event"

	#define	song1D_grp  voicegroup001
	#define	song1D_pri  0
	#define	song1D_rev  0
	#define	song1D_mvl  127
	#define	song1D_key  0
	#define	song1D_tbs  1
	#define	song1D_exg  0
	#define	song1D_cmp  1

	// .rodata
	//	song1D
	ALIGN 4


//**************** Track 1 (Midi-Chn.0) ****************//

song1D_001:
// 000   ----------------------------------------
 BYTE   KEYSH   song1D_key+0
 BYTE   TEMPO   156*song1D_tbs/2
 BYTE   VOICE   48
 BYTE   PAN   c_v+27
 BYTE   VOL   44*song1D_mvl/mxv
 BYTE   N05  An3  v127
 BYTE   N05  En4
 BYTE   W06
 BYTE   As3
 BYTE   N05  Ds4
 BYTE   W06
 BYTE   Bn3
 BYTE   N05  En4
 BYTE   W06
 BYTE   As3
 BYTE   N05  Dn4
 BYTE   W06
 BYTE   An3
 BYTE   N05  Ds4
 BYTE   W06
 BYTE   Gs3
 BYTE   N05  Fn4
 BYTE   W06
 BYTE   Gn3
 BYTE   N05  En4
 BYTE   W06
 BYTE   An3
 BYTE   N05  Ds4
 BYTE   W06
 BYTE   As3
 BYTE   N05  Dn4
 BYTE   W06
 BYTE   Bn3
 BYTE   N05  Ds4
 BYTE   W06
 BYTE   Cn4
 BYTE   N05  En4
 BYTE   W06
 BYTE   As3
 BYTE   N05  Fn4
 BYTE   W06
 BYTE   Bn3
 BYTE   N05  Fs4
 BYTE   W06
 BYTE   An3
 BYTE   N05  Gn4
 BYTE   W06
 BYTE   Gs3
 BYTE   N05  Gs4
 BYTE   W06
 BYTE   Gn3
 BYTE   N05  An4
 BYTE   W06
// 001   ----------------------------------------
Label_0_015BE2F4:
 BYTE   N44  En4  v116
 BYTE   N44  Cn5
 BYTE   W48
 BYTE   N22  En4
 BYTE   N22  Bn4
 BYTE   W24
 BYTE   En4
 BYTE   N22  An4
 BYTE   W24
 BYTE   PEND 
// 002   ----------------------------------------
Label_0_015BE304:
 BYTE   N32  En4  v116
 BYTE   N32  Bn4
 BYTE   W36
 BYTE   En4
 BYTE   N32  Cn5
 BYTE   W36
 BYTE   N22  En4
 BYTE   N22  An4
 BYTE   W24
 BYTE   PEND 
// 003   ----------------------------------------
Label_0_015BE314:
 BYTE   N32  Cn4  v116
 BYTE   N32  An4
 BYTE   W36
 BYTE   Cn4
 BYTE   N32  Gn4
 BYTE   W36
 BYTE   N22  Cn4
 BYTE   N22  Fn4
 BYTE   W24
 BYTE   PEND 
// 004   ----------------------------------------
Label_0_015BE324:
 BYTE   N44  Bn3  v116
 BYTE   N92  En4
 BYTE   W48
 BYTE   N44  An3
 BYTE   W48
 BYTE   PEND 
// 005   ----------------------------------------
Label_0_015BE32E:
 BYTE   N22  Dn3  v116
 BYTE   N22  An3
 BYTE   W24
 BYTE   Fn3
 BYTE   N22  Dn4
 BYTE   W24
 BYTE   An3
 BYTE   N22  Fn4
 BYTE   W24
 BYTE   Dn4
 BYTE   N22  An4
 BYTE   W24
 BYTE   PEND 
// 006   ----------------------------------------
Label_0_015BE341:
 BYTE   N44  Fn4  v116
 BYTE   N44  Dn5
 BYTE   W48
 BYTE   N22  Dn4
 BYTE   N22  An4
 BYTE   W24
 BYTE   Fn4
 BYTE   N22  Dn5
 BYTE   W24
 BYTE   PEND 
// 007   ----------------------------------------
Label_0_015BE351:
 BYTE   N44  Fn4  v116
 BYTE   N44  Dn5
 BYTE   W48
 BYTE   N16
 BYTE   N16  Fn5
 BYTE   W18
 BYTE   Cn5
 BYTE   N16  En5
 BYTE   W18
 BYTE   N11  Bn4
 BYTE   N11  Dn5
 BYTE   W12
 BYTE   PEND 
// 008   ----------------------------------------
Label_0_015BE365:
 BYTE   N32  Gn4  v116
 BYTE   N32  Ds5
 BYTE   W36
 BYTE   Ds4
 BYTE   N32  Cn5
 BYTE   W36
 BYTE   N22  Cn4
 BYTE   N22  Gn4
 BYTE   W24
 BYTE   PEND 
 BYTE   PATT
  POIN2 Label_0_015BE2F4
 BYTE   PATT
  POIN2 Label_0_015BE304
 BYTE   PATT
  POIN2 Label_0_015BE314
 BYTE   PATT
  POIN2 Label_0_015BE324
 BYTE   PATT
  POIN2 Label_0_015BE32E
 BYTE   PATT
  POIN2 Label_0_015BE341
 BYTE   PATT
  POIN2 Label_0_015BE351
 BYTE   PATT
  POIN2 Label_0_015BE365
// 009   ----------------------------------------
 BYTE   N06  Gs3  v127
 BYTE   W06
 BYTE   An3
 BYTE   W06
 BYTE   Bn3
 BYTE   W06
 BYTE   En3
 BYTE   W06
 BYTE   En4
 BYTE   W06
 BYTE   Dn4
 BYTE   W06
 BYTE   Cn4
 BYTE   W06
 BYTE   Bn3
 BYTE   W06
 BYTE   Cn4
 BYTE   W06
 BYTE   En4
 BYTE   W06
 BYTE   Dn4
 BYTE   W06
 BYTE   En4
 BYTE   W06
 BYTE   Cn4
 BYTE   W06
 BYTE   En4
 BYTE   W06
 BYTE   Bn3
 BYTE   W06
 BYTE   En4
 BYTE   W06
// 010   ----------------------------------------
 BYTE   Ds4
 BYTE   W06
 BYTE   En4
 BYTE   W06
 BYTE   Fs4
 BYTE   W06
 BYTE   Bn3
 BYTE   W06
 BYTE   Bn4
 BYTE   W06
 BYTE   An4
 BYTE   W06
 BYTE   Gn4
 BYTE   W06
 BYTE   Fs4
 BYTE   W06
 BYTE   En4
 BYTE   W06
 BYTE   Dn4
 BYTE   W06
 BYTE   En4
 BYTE   W06
 BYTE   Cn4
 BYTE   W06
 BYTE   Bn3
 BYTE   W06
 BYTE   An3
 BYTE   W06
 BYTE   Gn3
 BYTE   W06
 BYTE   Fs3
 BYTE   W06
// 011   ----------------------------------------
 BYTE   An3
 BYTE   W06
 BYTE   Fs3
 BYTE   W06
 BYTE   Ds3
 BYTE   W06
 BYTE   Cn3
 BYTE   W06
 BYTE   Fs3
 BYTE   W06
 BYTE   Ds3
 BYTE   W06
 BYTE   Cn3
 BYTE   W06
 BYTE   An2
 BYTE   W06
 BYTE   Ds3
 BYTE   W06
 BYTE   Cn3
 BYTE   W06
 BYTE   An2
 BYTE   W06
 BYTE   Fs2
 BYTE   W06
 BYTE   Cn3
 BYTE   W06
 BYTE   An2
 BYTE   W06
 BYTE   Fs2
 BYTE   W06
 BYTE   Ds2
 BYTE   W06
// 012   ----------------------------------------
 BYTE   En2
 BYTE   W06
 BYTE   Fn2
 BYTE   W06
 BYTE   Gs2
 BYTE   W06
 BYTE   An2
 BYTE   W06
 BYTE   Bn2
 BYTE   W06
 BYTE   Cn3
 BYTE   W06
 BYTE   Dn3
 BYTE   W06
 BYTE   En3
 BYTE   W06
 BYTE   Fn3
 BYTE   W06
 BYTE   Gs3
 BYTE   W06
 BYTE   An3
 BYTE   W06
 BYTE   Bn3
 BYTE   W06
 BYTE   Cn4
 BYTE   W06
 BYTE   Dn4
 BYTE   W06
 BYTE   En4
 BYTE   W06
 BYTE   Fn4
 BYTE   W06
// 013   ----------------------------------------
Label_0_015BE41F:
 BYTE   N44  Ds4  v127
 BYTE   N44  Gn4
 BYTE   W48
 BYTE   N22  Dn4
 BYTE   N22  Fn4
 BYTE   W24
 BYTE   Cn4
 BYTE   N22  Ds4
 BYTE   W24
 BYTE   PEND 
// 014   ----------------------------------------
Label_0_015BE42F:
 BYTE   N44  Gn3  v127
 BYTE   N44  Dn4
 BYTE   W48
 BYTE   N22
 BYTE   N22  Gn4
 BYTE   W24
 BYTE   Gn3
 BYTE   N22  Dn4
 BYTE   W24
 BYTE   PEND 
// 015   ----------------------------------------
Label_0_015BE43E:
 BYTE   N16  Dn4  v127
 BYTE   N16  Fs4
 BYTE   W18
 BYTE   Cn4
 BYTE   N16  Ds4
 BYTE   W18
 BYTE   N11  As3
 BYTE   N11  Dn4
 BYTE   W12
 BYTE   N16  An3
 BYTE   N16  Cn4
 BYTE   W18
 BYTE   Gn3
 BYTE   N16  As3
 BYTE   W18
 BYTE   N11  Fs3
 BYTE   N11  An3
 BYTE   W12
 BYTE   PEND 
// 016   ----------------------------------------
Label_0_015BE45C:
 BYTE   N22  Gn3  v127
 BYTE   N22  As3
 BYTE   W24
 BYTE   N22
 BYTE   N22  Dn4
 BYTE   W24
 BYTE   N22
 BYTE   N22  Gn4
 BYTE   W24
 BYTE   N22
 BYTE   N22  As4
 BYTE   W24
 BYTE   PEND 
// 017   ----------------------------------------
Label_0_015BE46F:
 BYTE   N44  Gn4  v127
 BYTE   N44  Cn5
 BYTE   W48
 BYTE   N16  Gn4
 BYTE   N16  As4
 BYTE   W18
 BYTE   Gn4
 BYTE   N16  An4
 BYTE   W18
 BYTE   N11  Gn4
 BYTE   N11  As4
 BYTE   W12
 BYTE   PEND 
// 018   ----------------------------------------
Label_0_015BE484:
 BYTE   N44  Dn4  v127
 BYTE   N44  Gn4
 BYTE   W48
 BYTE   N22  As4
 BYTE   N22  Dn5
 BYTE   W24
 BYTE   Dn4
 BYTE   N22  Gn4
 BYTE   W24
 BYTE   PEND 
// 019   ----------------------------------------
Label_0_015BE494:
 BYTE   N05  Fs4  v127
 BYTE   W06
 BYTE   Gn4
 BYTE   W06
 BYTE   An4
 BYTE   W06
 BYTE   Dn4
 BYTE   W06
 BYTE   Dn5
 BYTE   W06
 BYTE   Cn5
 BYTE   W06
 BYTE   As4
 BYTE   W06
 BYTE   An4
 BYTE   W06
 BYTE   Gn4
 BYTE   W06
 BYTE   Fs4
 BYTE   W06
 BYTE   Ds4
 BYTE   W06
 BYTE   Dn4
 BYTE   W06
 BYTE   Cn4
 BYTE   W06
 BYTE   As3
 BYTE   W06
 BYTE   An3
 BYTE   W06
 BYTE   Gn3
 BYTE   W06
 BYTE   PEND 
// 020   ----------------------------------------
 BYTE   N44  An3
 BYTE   W48
 BYTE   Dn4
 BYTE   W48
// 021   ----------------------------------------
 BYTE   En4
 BYTE   W48
 BYTE   Gn4
 BYTE   W48
// 022   ----------------------------------------
 BYTE   N11  Gs4
 BYTE   W12
 BYTE   An4
 BYTE   W12
 BYTE   Bn4
 BYTE   W12
 BYTE   En4
 BYTE   W12
 BYTE   En5
 BYTE   W12
 BYTE   Dn5
 BYTE   W12
 BYTE   Cn5
 BYTE   W12
 BYTE   Bn4
 BYTE   W12
// 023   ----------------------------------------
 BYTE   N16  Cn5
 BYTE   W18
 BYTE   Bn4
 BYTE   W18
 BYTE   N11  Cn5
 BYTE   W12
 BYTE   N16  Dn5
 BYTE   W18
 BYTE   Cn5
 BYTE   W18
 BYTE   N11  Bn4
 BYTE   W12
// 024   ----------------------------------------
 BYTE   N05  Fs4
 BYTE   W06
 BYTE   As4
 BYTE   W06
 BYTE   Cs5
 BYTE   W06
 BYTE   Fs5
 BYTE   W06
 BYTE   En5
 BYTE   W06
 BYTE   Dn5
 BYTE   W06
 BYTE   Cs5
 BYTE   W06
 BYTE   Bn4
 BYTE   W06
 BYTE   As4
 BYTE   W06
 BYTE   Bn4
 BYTE   W06
 BYTE   Cs5
 BYTE   W06
 BYTE   Fs4
 BYTE   W06
 BYTE   Fs5
 BYTE   W06
 BYTE   En5
 BYTE   W06
 BYTE   Dn5
 BYTE   W06
 BYTE   Cs5
 BYTE   W06
// 025   ----------------------------------------
 BYTE   N16  Bn4
 BYTE   W18
 BYTE   Cs5
 BYTE   W18
 BYTE   N11  Dn5
 BYTE   W12
 BYTE   N16  En5
 BYTE   W18
 BYTE   Dn5
 BYTE   W18
 BYTE   N11  Cs5
 BYTE   W12
// 026   ----------------------------------------
 BYTE   N44  Dn5
 BYTE   W48
 BYTE   N16
 BYTE   W18
 BYTE   Cs5
 BYTE   W18
 BYTE   N11  Dn5
 BYTE   W12
// 027   ----------------------------------------
 BYTE   N16  Ds5
 BYTE   W18
 BYTE   Gs4
 BYTE   W18
 BYTE   N11  Ds5
 BYTE   W12
 BYTE   N16  Gs5
 BYTE   W18
 BYTE   Ds5
 BYTE   W18
 BYTE   N11  Gs4
 BYTE   W12
// 028   ----------------------------------------
 BYTE   N16  Ds5
 BYTE   W18
 BYTE   Gs5
 BYTE   W18
 BYTE   N11  Ds5
 BYTE   W12
 BYTE   N44  Gs4
 BYTE   W48
 BYTE   PATT
  POIN2 Label_0_015BE41F
 BYTE   PATT
  POIN2 Label_0_015BE42F
 BYTE   PATT
  POIN2 Label_0_015BE43E
 BYTE   PATT
  POIN2 Label_0_015BE45C
 BYTE   PATT
  POIN2 Label_0_015BE46F
 BYTE   PATT
  POIN2 Label_0_015BE484
 BYTE   PATT
  POIN2 Label_0_015BE494
// 029   ----------------------------------------
 BYTE   N05  An3  v127
 BYTE   N05  En4
 BYTE   W06
 BYTE   As3
 BYTE   N05  Ds4
 BYTE   W06
 BYTE   Bn3
 BYTE   N05  En4
 BYTE   W06
 BYTE   As3
 BYTE   N05  Dn4
 BYTE   W06
 BYTE   An3
 BYTE   N05  Ds4
 BYTE   W06
 BYTE   Gs3
 BYTE   N05  Fn4
 BYTE   W06
 BYTE   Gn3
 BYTE   N05  En4
 BYTE   W06
 BYTE   An3
 BYTE   N05  Ds4
 BYTE   W06
 BYTE   As3
 BYTE   N05  Dn4
 BYTE   W06
 BYTE   Bn3
 BYTE   N05  Ds4
 BYTE   W06
 BYTE   Cn4
 BYTE   N05  En4
 BYTE   W06
 BYTE   As3
 BYTE   N05  Fn4
 BYTE   W06
 BYTE   Bn3
 BYTE   N05  Fs4
 BYTE   W06
 BYTE   An3
 BYTE   N05  Gn4
 BYTE   W06
 BYTE   Gs3
 BYTE   N05  Gs4
 BYTE   W06
 BYTE   Gn3
 BYTE   N05  An4
 BYTE   W05
 BYTE   GoTo
  POIN2 Label_0_015BE2F4
 BYTE   FINE

//**************** Track 2 (Midi-Chn.1) ****************//

song1D_002:
// 000   ----------------------------------------
 BYTE   KEYSH   song1D_key+0
 BYTE   VOICE   58
 BYTE   PAN   c_v-13
 BYTE   VOL   44*song1D_mvl/mxv
 BYTE   W96
// 001   ----------------------------------------
Label_1_015BE5AD:
 BYTE   N22  An2  v112
 BYTE   W24
 BYTE   Bn2
 BYTE   W24
 BYTE   Cn3
 BYTE   W24
 BYTE   En3
 BYTE   W24
 BYTE   PEND 
// 002   ----------------------------------------
Label_1_015BE5B8:
 BYTE   N44  Dn3  v112
 BYTE   W48
 BYTE   N16  Fn3
 BYTE   W18
 BYTE   En3
 BYTE   W18
 BYTE   N11  Dn3
 BYTE   W12
 BYTE   PEND 
// 003   ----------------------------------------
Label_1_015BE5C5:
 BYTE   N32  Cn3  v112
 BYTE   W36
 BYTE   Dn3
 BYTE   W36
 BYTE   N22  Fn3
 BYTE   W24
 BYTE   PEND 
// 004   ----------------------------------------
 BYTE   N44  En3
 BYTE   W48
 BYTE   An2
 BYTE   W48
// 005   ----------------------------------------
Label_1_015BE5D4:
 BYTE   N44  An2  v112
 BYTE   W48
 BYTE   N16  Dn3
 BYTE   W18
 BYTE   Cn3
 BYTE   W18
 BYTE   N11  Bn2
 BYTE   W12
 BYTE   PEND 
// 006   ----------------------------------------
Label_1_015BE5E1:
 BYTE   N44  An2  v112
 BYTE   W48
 BYTE   N22  Bn2
 BYTE   W24
 BYTE   Cn3
 BYTE   W24
 BYTE   PEND 
// 007   ----------------------------------------
Label_1_015BE5EB:
 BYTE   N44  Dn3  v112
 BYTE   W48
 BYTE   Fn3
 BYTE   W48
 BYTE   PEND 
// 008   ----------------------------------------
Label_1_015BE5F2:
 BYTE   N16  Ds3  v112
 BYTE   W18
 BYTE   Dn3
 BYTE   W18
 BYTE   N11  Cn3
 BYTE   W12
 BYTE   N44  Gn2
 BYTE   W48
 BYTE   PEND 
 BYTE   PATT
  POIN2 Label_1_015BE5AD
 BYTE   PATT
  POIN2 Label_1_015BE5B8
 BYTE   PATT
  POIN2 Label_1_015BE5C5
// 009   ----------------------------------------
 BYTE   N44  En3  v112
 BYTE   W48
 BYTE   An2
 BYTE   W48
 BYTE   PATT
  POIN2 Label_1_015BE5D4
 BYTE   PATT
  POIN2 Label_1_015BE5E1
 BYTE   PATT
  POIN2 Label_1_015BE5EB
 BYTE   PATT
  POIN2 Label_1_015BE5F2
// 010   ----------------------------------------
 BYTE   N44  En2  v112
 BYTE   N44  Bn2
 BYTE   W48
 BYTE   En2
 BYTE   N44  An2
 BYTE   W48
// 011   ----------------------------------------
 BYTE   Ds2
 BYTE   N44  Bn2
 BYTE   W48
 BYTE   En2
 BYTE   N44  Bn2
 BYTE   W48
// 012   ----------------------------------------
 BYTE   N92  Ds2
 BYTE   N92  An2
 BYTE   W96
// 013   ----------------------------------------
 BYTE   N44  En2
 BYTE   N44  Bn2
 BYTE   W48
 BYTE   En2
 BYTE   N44  Gs2
 BYTE   W48
// 014   ----------------------------------------
Label_1_015BE648:
 BYTE   N44  Cn3  v112
 BYTE   W48
 BYTE   N22  Gn2
 BYTE   W24
 BYTE   Ds2
 BYTE   W24
 BYTE   PEND 
// 015   ----------------------------------------
Label_1_015BE652:
 BYTE   N44  Dn2  v112
 BYTE   W48
 BYTE   N22  Gn2
 BYTE   W24
 BYTE   As2
 BYTE   W24
 BYTE   PEND 
// 016   ----------------------------------------
Label_1_015BE65C:
 BYTE   N16  An2  v112
 BYTE   W18
 BYTE   Fs2
 BYTE   W18
 BYTE   N11  An2
 BYTE   W12
 BYTE   N44  Dn2
 BYTE   W48
 BYTE   PEND 
// 017   ----------------------------------------
Label_1_015BE669:
 BYTE   N22  Dn2  v112
 BYTE   W24
 BYTE   Gn2
 BYTE   W24
 BYTE   As2
 BYTE   W24
 BYTE   Dn2
 BYTE   W24
 BYTE   PEND 
// 018   ----------------------------------------
Label_1_015BE674:
 BYTE   N16  Cn2  v112
 BYTE   W18
 BYTE   Dn2
 BYTE   W18
 BYTE   N11  Ds2
 BYTE   W12
 BYTE   N16  Fn2
 BYTE   W18
 BYTE   Ds2
 BYTE   W18
 BYTE   N11  Fn2
 BYTE   W12
 BYTE   PEND 
// 019   ----------------------------------------
Label_1_015BE686:
 BYTE   N16  Gn2  v112
 BYTE   W18
 BYTE   An2
 BYTE   W18
 BYTE   N11  As2
 BYTE   W12
 BYTE   N16  An2
 BYTE   W18
 BYTE   Gn2
 BYTE   W18
 BYTE   N11  Dn2
 BYTE   W12
 BYTE   PEND 
// 020   ----------------------------------------
 BYTE   N44  Fs2
 BYTE   W48
 BYTE   N92  Dn2
 BYTE   W48
// 021   ----------------------------------------
 BYTE   W48
 BYTE   N44  Fn2
 BYTE   W48
// 022   ----------------------------------------
 BYTE   En2
 BYTE   W48
 BYTE   N22  Gn2
 BYTE   W24
 BYTE   Bn2
 BYTE   W24
// 023   ----------------------------------------
 BYTE   N44  En2
 BYTE   W48
 BYTE   N22  Gs2
 BYTE   W24
 BYTE   Bn2
 BYTE   W24
// 024   ----------------------------------------
 BYTE   N16  An3  v127
 BYTE   W18
 BYTE   Gn3
 BYTE   W18
 BYTE   N11  An3
 BYTE   W12
 BYTE   N16  Bn3
 BYTE   W18
 BYTE   An3
 BYTE   W18
 BYTE   N11  Gn3
 BYTE   W12
// 025   ----------------------------------------
 BYTE   Fs3
 BYTE   W12
 BYTE   En3
 BYTE   W12
 BYTE   Fs3
 BYTE   W12
 BYTE   Dn3
 BYTE   W12
 BYTE   Cs3
 BYTE   W12
 BYTE   Bn2
 BYTE   W12
 BYTE   As2
 BYTE   W12
 BYTE   Fs2
 BYTE   W12
// 026   ----------------------------------------
 BYTE   N16  Fs3
 BYTE   W18
 BYTE   An3
 BYTE   W18
 BYTE   N11  Bn3
 BYTE   W12
 BYTE   N16  Cs4
 BYTE   W18
 BYTE   Bn3
 BYTE   W18
 BYTE   N11  An3
 BYTE   W12
// 027   ----------------------------------------
 BYTE   N05  Gn3
 BYTE   W06
 BYTE   An3
 BYTE   W06
 BYTE   Bn3
 BYTE   W06
 BYTE   Dn3
 BYTE   W06
 BYTE   Dn4
 BYTE   W06
 BYTE   Bn3
 BYTE   W06
 BYTE   An3
 BYTE   W06
 BYTE   Gn3
 BYTE   W06
 BYTE   Dn3
 BYTE   W06
 BYTE   Bn2
 BYTE   W06
 BYTE   An2
 BYTE   W06
 BYTE   Gn2
 BYTE   W06
 BYTE   An2
 BYTE   W06
 BYTE   Bn2
 BYTE   W06
 BYTE   Dn3
 BYTE   W06
 BYTE   Gn3
 BYTE   W06
// 028   ----------------------------------------
Label_1_015BE703:
 BYTE   N05  Gs2  v127
 BYTE   W06
 BYTE   Cs3
 BYTE   W06
 BYTE   Ds3
 BYTE   W06
 BYTE   Gs3
 BYTE   W06
 BYTE   Ds3
 BYTE   W06
 BYTE   Gs3
 BYTE   W06
 BYTE   Ds3
 BYTE   W06
 BYTE   Cs3
 BYTE   W06
 BYTE   Gs2
 BYTE   W06
 BYTE   Cs3
 BYTE   W06
 BYTE   Ds3
 BYTE   W06
 BYTE   Gs3
 BYTE   W06
 BYTE   Ds3
 BYTE   W06
 BYTE   Gs3
 BYTE   W06
 BYTE   Ds3
 BYTE   W06
 BYTE   Cs3
 BYTE   W06
 BYTE   PEND 
 BYTE   PATT
  POIN2 Label_1_015BE703
 BYTE   PATT
  POIN2 Label_1_015BE648
 BYTE   PATT
  POIN2 Label_1_015BE652
 BYTE   PATT
  POIN2 Label_1_015BE65C
 BYTE   PATT
  POIN2 Label_1_015BE669
 BYTE   PATT
  POIN2 Label_1_015BE674
 BYTE   PATT
  POIN2 Label_1_015BE686
// 029   ----------------------------------------
 BYTE   N44  Fs2  v112
 BYTE   W48
 BYTE   N48  Dn2
 BYTE   W48
// 030   ----------------------------------------
 BYTE   N05  Dn4  v127
 BYTE   W06
 BYTE   Cs4
 BYTE   W06
 BYTE   Dn4
 BYTE   W06
 BYTE   Cn4
 BYTE   W06
 BYTE   Bn3
 BYTE   W06
 BYTE   As3
 BYTE   W06
 BYTE   An3
 BYTE   W06
 BYTE   Gs3
 BYTE   W06
 BYTE   As3
 BYTE   W06
 BYTE   An3
 BYTE   W06
 BYTE   Gs3
 BYTE   W06
 BYTE   Gn3
 BYTE   W06
 BYTE   Fs3
 BYTE   W06
 BYTE   Fn3
 BYTE   W06
 BYTE   En3
 BYTE   W06
 BYTE   Fn3
 BYTE   W05
 BYTE   GoTo
  POIN2 Label_1_015BE5AD
 BYTE   FINE

//**************** Track 3 (Midi-Chn.2) ****************//

song1D_003:
// 000   ----------------------------------------
 BYTE   KEYSH   song1D_key+0
 BYTE   VOICE   33
 BYTE   PAN   c_v+12
 BYTE   VOL   44*song1D_mvl/mxv
 BYTE   W48
 BYTE   BEND   c_v-64
 BYTE   N22  An0  v127
 BYTE   W02
 BYTE   BEND   c_v-39
 BYTE   W02
 BYTE   En1
 BYTE   W02
 BYTE   Cs2
 BYTE   W02
 BYTE   Gn2
 BYTE   W02
 BYTE   As2
 BYTE   W02
 BYTE   Cs3
 BYTE   W02
 BYTE   Dn3
 BYTE   W02
 BYTE   Ds3
 BYTE   W02
 BYTE   En3
 BYTE   W05
 BYTE   En3
 BYTE   W01
 BYTE   N22  An1
 BYTE   W06
 BYTE   BEND   c_v-1
 BYTE   W04
 BYTE   Dn3
 BYTE   W02
 BYTE   Cn3
 BYTE   W02
 BYTE   As2
 BYTE   W02
 BYTE   Fs2
 BYTE   W02
 BYTE   Bn1
 BYTE   W02
 BYTE   Cs1
 BYTE   W02
 BYTE   GsM1
 BYTE   W01
 BYTE   En3
 BYTE   W01
// 001   ----------------------------------------
Label_2_015BE7B2:
 BYTE   N11  An0  v127
 BYTE   W12
 BYTE   N11
 BYTE   W12
 BYTE   N04  An1
 BYTE   W06
 BYTE   N11  An0
 BYTE   W12
 BYTE   N04  An1
 BYTE   W06
 BYTE   N11  An0
 BYTE   W12
 BYTE   N11
 BYTE   W12
 BYTE   N04  An1
 BYTE   W06
 BYTE   N11  An0
 BYTE   W12
 BYTE   N04  An1
 BYTE   W06
 BYTE   PEND 
 BYTE   PATT
  POIN2 Label_2_015BE7B2
 BYTE   PATT
  POIN2 Label_2_015BE7B2
 BYTE   PATT
  POIN2 Label_2_015BE7B2
// 002   ----------------------------------------
Label_2_015BE7DF:
 BYTE   N11  Dn0  v127
 BYTE   W12
 BYTE   N11
 BYTE   W12
 BYTE   N04  Dn1
 BYTE   W06
 BYTE   N11  Dn0
 BYTE   W12
 BYTE   N04  Dn1
 BYTE   W06
 BYTE   N11  Dn0
 BYTE   W12
 BYTE   N11
 BYTE   W12
 BYTE   N04  Dn1
 BYTE   W06
 BYTE   N11  Dn0
 BYTE   W12
 BYTE   N04  Dn1
 BYTE   W06
 BYTE   PEND 
 BYTE   PATT
  POIN2 Label_2_015BE7DF
 BYTE   PATT
  POIN2 Label_2_015BE7DF
// 003   ----------------------------------------
Label_2_015BE807:
 BYTE   N11  Cn1  v127
 BYTE   W12
 BYTE   N11
 BYTE   W12
 BYTE   N04  Cn2
 BYTE   W06
 BYTE   N11  Cn1
 BYTE   W12
 BYTE   N04  Cn2
 BYTE   W06
 BYTE   N11  Cn1
 BYTE   W12
 BYTE   N11
 BYTE   W12
 BYTE   N04  Cn2
 BYTE   W06
 BYTE   N11  Cn1
 BYTE   W12
 BYTE   N04  Cn2
 BYTE   W06
 BYTE   PEND 
 BYTE   PATT
  POIN2 Label_2_015BE7B2
 BYTE   PATT
  POIN2 Label_2_015BE7B2
 BYTE   PATT
  POIN2 Label_2_015BE7B2
 BYTE   PATT
  POIN2 Label_2_015BE7B2
 BYTE   PATT
  POIN2 Label_2_015BE7DF
 BYTE   PATT
  POIN2 Label_2_015BE7DF
 BYTE   PATT
  POIN2 Label_2_015BE7DF
 BYTE   PATT
  POIN2 Label_2_015BE807
// 004   ----------------------------------------
 BYTE   N11  En0  v127
 BYTE   W12
 BYTE   N11
 BYTE   W12
 BYTE   N04  En1
 BYTE   W06
 BYTE   N11  En0
 BYTE   W12
 BYTE   N04
 BYTE   W06
 BYTE   N11  An0
 BYTE   W12
 BYTE   N11
 BYTE   W12
 BYTE   N04  An1
 BYTE   W06
 BYTE   N11  An0
 BYTE   W12
 BYTE   N04
 BYTE   W06
// 005   ----------------------------------------
 BYTE   N11  Bn0
 BYTE   W12
 BYTE   N11
 BYTE   W12
 BYTE   N04  Bn1
 BYTE   W06
 BYTE   N11  Bn0
 BYTE   W12
 BYTE   N04
 BYTE   W06
 BYTE   N11  En0
 BYTE   W12
 BYTE   N11
 BYTE   W12
 BYTE   N04  En1
 BYTE   W06
 BYTE   N11  En0
 BYTE   W12
 BYTE   N04
 BYTE   W06
// 006   ----------------------------------------
Label_2_015BE882:
 BYTE   N11  Cn1  v127
 BYTE   W12
 BYTE   N11
 BYTE   W12
 BYTE   N04  Cn2
 BYTE   W06
 BYTE   N11  Cn1
 BYTE   W12
 BYTE   N04
 BYTE   W06
 BYTE   N11
 BYTE   W12
 BYTE   N11
 BYTE   W12
 BYTE   N04  Cn2
 BYTE   W06
 BYTE   N11  Cn1
 BYTE   W12
 BYTE   N04
 BYTE   W06
 BYTE   PEND 
// 007   ----------------------------------------
Label_2_015BE89D:
 BYTE   N11  En0  v127
 BYTE   W12
 BYTE   N11
 BYTE   W12
 BYTE   N04  En1
 BYTE   W06
 BYTE   N11  En0
 BYTE   W12
 BYTE   N04
 BYTE   W06
 BYTE   N11
 BYTE   W12
 BYTE   N11
 BYTE   W12
 BYTE   N04  En1
 BYTE   W06
 BYTE   N11  En0
 BYTE   W12
 BYTE   N04
 BYTE   W06
 BYTE   PEND 
 BYTE   PATT
  POIN2 Label_2_015BE882
// 008   ----------------------------------------
Label_2_015BE8BD:
 BYTE   N11  Gn0  v127
 BYTE   W12
 BYTE   N11
 BYTE   W12
 BYTE   N04  Gn1
 BYTE   W06
 BYTE   N11  Gn0
 BYTE   W12
 BYTE   N04
 BYTE   W06
 BYTE   N11
 BYTE   W12
 BYTE   N11
 BYTE   W12
 BYTE   N04  Gn1
 BYTE   W06
 BYTE   N11  Gn0
 BYTE   W12
 BYTE   N04
 BYTE   W06
 BYTE   PEND 
// 009   ----------------------------------------
Label_2_015BE8D8:
 BYTE   N11  Dn1  v127
 BYTE   W12
 BYTE   N11
 BYTE   W12
 BYTE   N04  Dn2
 BYTE   W06
 BYTE   N11  Dn1
 BYTE   W12
 BYTE   N04
 BYTE   W06
 BYTE   N11
 BYTE   W12
 BYTE   N11
 BYTE   W12
 BYTE   N04  Dn2
 BYTE   W06
 BYTE   N11  Dn1
 BYTE   W12
 BYTE   N04
 BYTE   W06
 BYTE   PEND 
 BYTE   PATT
  POIN2 Label_2_015BE8BD
 BYTE   PATT
  POIN2 Label_2_015BE882
 BYTE   PATT
  POIN2 Label_2_015BE8BD
 BYTE   PATT
  POIN2 Label_2_015BE8D8
 BYTE   PATT
  POIN2 Label_2_015BE8D8
 BYTE   PATT
  POIN2 Label_2_015BE89D
 BYTE   PATT
  POIN2 Label_2_015BE89D
// 010   ----------------------------------------
 BYTE   N11  An0  v127
 BYTE   W12
 BYTE   N11
 BYTE   W12
 BYTE   N04  An1
 BYTE   W06
 BYTE   N11  An0
 BYTE   W12
 BYTE   N04
 BYTE   W06
 BYTE   N11
 BYTE   W12
 BYTE   N11
 BYTE   W12
 BYTE   N04  An1
 BYTE   W06
 BYTE   N11  An0
 BYTE   W12
 BYTE   N04
 BYTE   W06
// 011   ----------------------------------------
 BYTE   N11  Fs0
 BYTE   W12
 BYTE   N11
 BYTE   W12
 BYTE   N04  Fs1
 BYTE   W06
 BYTE   N11  Fs0
 BYTE   W12
 BYTE   N04
 BYTE   W06
 BYTE   N11
 BYTE   W12
 BYTE   N11
 BYTE   W12
 BYTE   N04  Fs1
 BYTE   W06
 BYTE   N11  Fs0
 BYTE   W12
 BYTE   N04
 BYTE   W06
// 012   ----------------------------------------
 BYTE   N11  Bn0
 BYTE   W12
 BYTE   N11
 BYTE   W12
 BYTE   N04  Bn1
 BYTE   W06
 BYTE   N11  Bn0
 BYTE   W12
 BYTE   N04
 BYTE   W06
 BYTE   N11
 BYTE   W12
 BYTE   N11
 BYTE   W12
 BYTE   N04  Bn1
 BYTE   W06
 BYTE   N11  Bn0
 BYTE   W12
 BYTE   N04
 BYTE   W06
 BYTE   PATT
  POIN2 Label_2_015BE8BD
// 013   ----------------------------------------
Label_2_015BE967:
 BYTE   N11  Gs0  v127
 BYTE   W12
 BYTE   N11
 BYTE   W12
 BYTE   N04  Gs1
 BYTE   W06
 BYTE   N11  Gs0
 BYTE   W12
 BYTE   N04
 BYTE   W06
 BYTE   N11
 BYTE   W12
 BYTE   N11
 BYTE   W12
 BYTE   N04  Gs1
 BYTE   W06
 BYTE   N11  Gs0
 BYTE   W12
 BYTE   N04
 BYTE   W06
 BYTE   PEND 
 BYTE   PATT
  POIN2 Label_2_015BE967
 BYTE   PATT
  POIN2 Label_2_015BE882
 BYTE   PATT
  POIN2 Label_2_015BE8BD
 BYTE   PATT
  POIN2 Label_2_015BE8D8
 BYTE   PATT
  POIN2 Label_2_015BE8BD
 BYTE   PATT
  POIN2 Label_2_015BE882
 BYTE   PATT
  POIN2 Label_2_015BE8BD
 BYTE   PATT
  POIN2 Label_2_015BE8D8
// 014   ----------------------------------------
 BYTE   N05  Dn1  v127
 BYTE   W06
 BYTE   Cs1
 BYTE   W06
 BYTE   Dn1
 BYTE   W06
 BYTE   Cn1
 BYTE   W06
 BYTE   Bn0
 BYTE   W06
 BYTE   As0
 BYTE   W06
 BYTE   An0
 BYTE   W06
 BYTE   Gs0
 BYTE   W06
 BYTE   As0
 BYTE   W06
 BYTE   An0
 BYTE   W06
 BYTE   Gs0
 BYTE   W06
 BYTE   Gn0
 BYTE   W06
 BYTE   Fs0
 BYTE   W06
 BYTE   Fn0
 BYTE   W06
 BYTE   En0
 BYTE   W06
 BYTE   Fn0
 BYTE   W05
 BYTE   GoTo
  POIN2 Label_2_015BE7B2
 BYTE   FINE

//**************** Track 4 (Midi-Chn.3) ****************//

song1D_004:
// 000   ----------------------------------------
 BYTE   KEYSH   song1D_key+0
 BYTE   VOICE   51
 BYTE   PAN   c_v-13
 BYTE   VOL   47*song1D_mvl/mxv
 BYTE   W96
// 001   ----------------------------------------
Label_3_015BE9DD:
 BYTE   N05  An1  v120
 BYTE   N05  En2
 BYTE   W12
 BYTE   An1
 BYTE   N05  En2
 BYTE   W12
 BYTE   An1
 BYTE   N05  En2
 BYTE   W12
 BYTE   An1
 BYTE   N05  En2
 BYTE   W12
 BYTE   An1
 BYTE   N05  En2
 BYTE   W12
 BYTE   An1
 BYTE   N05  En2
 BYTE   W12
 BYTE   An1
 BYTE   N05  En2
 BYTE   W12
 BYTE   An1
 BYTE   N05  En2
 BYTE   W12
 BYTE   PEND 
 BYTE   PATT
  POIN2 Label_3_015BE9DD
 BYTE   PATT
  POIN2 Label_3_015BE9DD
 BYTE   PATT
  POIN2 Label_3_015BE9DD
// 002   ----------------------------------------
Label_3_015BEA0F:
 BYTE   N05  An1  v120
 BYTE   N05  Dn2
 BYTE   W12
 BYTE   An1
 BYTE   N05  Dn2
 BYTE   W12
 BYTE   An1
 BYTE   N05  Dn2
 BYTE   W12
 BYTE   An1
 BYTE   N05  Dn2
 BYTE   W12
 BYTE   An1
 BYTE   N05  Dn2
 BYTE   W12
 BYTE   An1
 BYTE   N05  Dn2
 BYTE   W12
 BYTE   An1
 BYTE   N05  Dn2
 BYTE   W12
 BYTE   An1
 BYTE   N05  Dn2
 BYTE   W12
 BYTE   PEND 
 BYTE   PATT
  POIN2 Label_3_015BEA0F
 BYTE   PATT
  POIN2 Label_3_015BEA0F
// 003   ----------------------------------------
Label_3_015BEA3C:
 BYTE   N05  Gn1  v120
 BYTE   N05  Cn2
 BYTE   W12
 BYTE   Gn1
 BYTE   N05  Cn2
 BYTE   W12
 BYTE   Gn1
 BYTE   N05  Cn2
 BYTE   W12
 BYTE   Gn1
 BYTE   N05  Cn2
 BYTE   W12
 BYTE   Gn1
 BYTE   N05  Cn2
 BYTE   W12
 BYTE   Gn1
 BYTE   N05  Cn2
 BYTE   W12
 BYTE   Gn1
 BYTE   N05  Cn2
 BYTE   W12
 BYTE   Gn1
 BYTE   N05  Cn2
 BYTE   W12
 BYTE   PEND 
 BYTE   PATT
  POIN2 Label_3_015BE9DD
 BYTE   PATT
  POIN2 Label_3_015BE9DD
 BYTE   PATT
  POIN2 Label_3_015BE9DD
 BYTE   PATT
  POIN2 Label_3_015BE9DD
 BYTE   PATT
  POIN2 Label_3_015BEA0F
 BYTE   PATT
  POIN2 Label_3_015BEA0F
 BYTE   PATT
  POIN2 Label_3_015BEA0F
 BYTE   PATT
  POIN2 Label_3_015BEA3C
// 004   ----------------------------------------
 BYTE   N05  En1  v120
 BYTE   N05  Bn1
 BYTE   W12
 BYTE   En1
 BYTE   N05  Bn1
 BYTE   W12
 BYTE   En1
 BYTE   N05  Bn1
 BYTE   W12
 BYTE   En1
 BYTE   N05  Bn1
 BYTE   W12
 BYTE   En1
 BYTE   N05  Cn2
 BYTE   W12
 BYTE   En1
 BYTE   N05  Cn2
 BYTE   W12
 BYTE   En1
 BYTE   N05  Cn2
 BYTE   W12
 BYTE   En1
 BYTE   N05  Cn2
 BYTE   W12
// 005   ----------------------------------------
 BYTE   Ds1
 BYTE   N05  Bn1
 BYTE   W12
 BYTE   Ds1
 BYTE   N05  Bn1
 BYTE   W12
 BYTE   Ds1
 BYTE   N05  Bn1
 BYTE   W12
 BYTE   Ds1
 BYTE   N05  Bn1
 BYTE   W12
 BYTE   En1
 BYTE   N05  Bn1
 BYTE   W12
 BYTE   En1
 BYTE   N05  Bn1
 BYTE   W12
 BYTE   En1
 BYTE   N05  Bn1
 BYTE   W12
 BYTE   En1
 BYTE   N05  Bn1
 BYTE   W12
// 006   ----------------------------------------
 BYTE   Ds1
 BYTE   N05  An1
 BYTE   W12
 BYTE   Ds1
 BYTE   N05  An1
 BYTE   W12
 BYTE   Ds1
 BYTE   N05  An1
 BYTE   W12
 BYTE   Ds1
 BYTE   N05  An1
 BYTE   W12
 BYTE   Ds1
 BYTE   N05  An1
 BYTE   W12
 BYTE   Ds1
 BYTE   N05  An1
 BYTE   W12
 BYTE   Ds1
 BYTE   N05  An1
 BYTE   W12
 BYTE   Ds1
 BYTE   N05  An1
 BYTE   W12
// 007   ----------------------------------------
Label_3_015BEAE9:
 BYTE   N05  En1  v120
 BYTE   N05  Bn1
 BYTE   W12
 BYTE   En1
 BYTE   N05  Bn1
 BYTE   W12
 BYTE   En1
 BYTE   N05  Bn1
 BYTE   W12
 BYTE   En1
 BYTE   N05  Bn1
 BYTE   W12
 BYTE   En1
 BYTE   N05  Bn1
 BYTE   W12
 BYTE   En1
 BYTE   N05  Bn1
 BYTE   W12
 BYTE   En1
 BYTE   N05  Bn1
 BYTE   W12
 BYTE   En1
 BYTE   N05  Bn1
 BYTE   W12
 BYTE   PEND 
// 008   ----------------------------------------
Label_3_015BEB0C:
 BYTE   N05  Cn1  v120
 BYTE   N05  Gn1
 BYTE   W12
 BYTE   Cn1
 BYTE   N05  Gn1
 BYTE   W12
 BYTE   Cn1
 BYTE   N05  Gn1
 BYTE   W12
 BYTE   Cn1
 BYTE   N05  Gn1
 BYTE   W12
 BYTE   Cn1
 BYTE   N05  Gn1
 BYTE   W12
 BYTE   Cn1
 BYTE   N05  Gn1
 BYTE   W12
 BYTE   Cn1
 BYTE   N05  Gn1
 BYTE   W12
 BYTE   Cn1
 BYTE   N05  Gn1
 BYTE   W12
 BYTE   PEND 
// 009   ----------------------------------------
Label_3_015BEB2F:
 BYTE   N05  Gn1  v120
 BYTE   N05  Dn2
 BYTE   W12
 BYTE   Gn1
 BYTE   N05  Dn2
 BYTE   W12
 BYTE   Gn1
 BYTE   N05  Dn2
 BYTE   W12
 BYTE   Gn1
 BYTE   N05  Dn2
 BYTE   W12
 BYTE   Gn1
 BYTE   N05  Dn2
 BYTE   W12
 BYTE   Gn1
 BYTE   N05  Dn2
 BYTE   W12
 BYTE   Gn1
 BYTE   N05  Dn2
 BYTE   W12
 BYTE   Gn1
 BYTE   N05  Dn2
 BYTE   W12
 BYTE   PEND 
// 010   ----------------------------------------
Label_3_015BEB52:
 BYTE   N05  Fs1  v120
 BYTE   N05  Dn2
 BYTE   W12
 BYTE   Fs1
 BYTE   N05  Dn2
 BYTE   W12
 BYTE   Fs1
 BYTE   N05  Dn2
 BYTE   W12
 BYTE   Fs1
 BYTE   N05  Dn2
 BYTE   W12
 BYTE   Fs1
 BYTE   N05  Dn2
 BYTE   W12
 BYTE   Fs1
 BYTE   N05  Dn2
 BYTE   W12
 BYTE   Fs1
 BYTE   N05  Dn2
 BYTE   W12
 BYTE   Fs1
 BYTE   N05  Dn2
 BYTE   W12
 BYTE   PEND 
 BYTE   PATT
  POIN2 Label_3_015BEB2F
 BYTE   PATT
  POIN2 Label_3_015BEB0C
 BYTE   PATT
  POIN2 Label_3_015BEB2F
// 011   ----------------------------------------
Label_3_015BEB84:
 BYTE   N05  Dn1  v120
 BYTE   N05  An1
 BYTE   W12
 BYTE   Dn1
 BYTE   N05  An1
 BYTE   W12
 BYTE   Dn1
 BYTE   N05  An1
 BYTE   W12
 BYTE   Dn1
 BYTE   N05  An1
 BYTE   W12
 BYTE   Dn1
 BYTE   N05  An1
 BYTE   W12
 BYTE   Dn1
 BYTE   N05  An1
 BYTE   W12
 BYTE   Dn1
 BYTE   N05  An1
 BYTE   W12
 BYTE   Dn1
 BYTE   N05  An1
 BYTE   W12
 BYTE   PEND 
 BYTE   PATT
  POIN2 Label_3_015BEA0F
 BYTE   PATT
  POIN2 Label_3_015BEAE9
// 012   ----------------------------------------
 BYTE   N05  Gs1  v120
 BYTE   N05  En2
 BYTE   W12
 BYTE   Gs1
 BYTE   N05  En2
 BYTE   W12
 BYTE   Gs1
 BYTE   N05  En2
 BYTE   W12
 BYTE   Gs1
 BYTE   N05  En2
 BYTE   W12
 BYTE   Gs1
 BYTE   N05  En2
 BYTE   W12
 BYTE   Gs1
 BYTE   N05  En2
 BYTE   W12
 BYTE   Gs1
 BYTE   N05  En2
 BYTE   W12
 BYTE   Gs1
 BYTE   N05  En2
 BYTE   W12
 BYTE   PATT
  POIN2 Label_3_015BE9DD
// 013   ----------------------------------------
 BYTE   N05  Fs1  v120
 BYTE   N05  Cs2
 BYTE   W12
 BYTE   Fs1
 BYTE   N05  Cs2
 BYTE   W12
 BYTE   Fs1
 BYTE   N05  Cs2
 BYTE   W12
 BYTE   Fs1
 BYTE   N05  Cs2
 BYTE   W12
 BYTE   Fs1
 BYTE   N05  Cs2
 BYTE   W12
 BYTE   Fs1
 BYTE   N05  Cs2
 BYTE   W12
 BYTE   Fs1
 BYTE   N05  Cs2
 BYTE   W12
 BYTE   Fs1
 BYTE   N05  Cs2
 BYTE   W12
 BYTE   PATT
  POIN2 Label_3_015BEB52
 BYTE   PATT
  POIN2 Label_3_015BEB2F
// 014   ----------------------------------------
Label_3_015BEC04:
 BYTE   N05  Gs1  v120
 BYTE   N05  Ds2
 BYTE   W12
 BYTE   Gs1
 BYTE   N05  Ds2
 BYTE   W12
 BYTE   Gs1
 BYTE   N05  Ds2
 BYTE   W12
 BYTE   Gs1
 BYTE   N05  Ds2
 BYTE   W12
 BYTE   Gs1
 BYTE   N05  Ds2
 BYTE   W12
 BYTE   Gs1
 BYTE   N05  Ds2
 BYTE   W12
 BYTE   Gs1
 BYTE   N05  Ds2
 BYTE   W12
 BYTE   Gs1
 BYTE   N05  Ds2
 BYTE   W12
 BYTE   PEND 
 BYTE   PATT
  POIN2 Label_3_015BEC04
 BYTE   PATT
  POIN2 Label_3_015BEB0C
 BYTE   PATT
  POIN2 Label_3_015BEB2F
 BYTE   PATT
  POIN2 Label_3_015BEB52
 BYTE   PATT
  POIN2 Label_3_015BEB2F
 BYTE   PATT
  POIN2 Label_3_015BEB0C
 BYTE   PATT
  POIN2 Label_3_015BEB2F
 BYTE   PATT
  POIN2 Label_3_015BEB84
// 015   ----------------------------------------
 BYTE   W92
 BYTE   W03
 BYTE   GoTo
  POIN2 Label_3_015BE9DD
 BYTE   FINE

//**************** Track 5 (Midi-Chn.4) ****************//

song1D_005:
// 000   ----------------------------------------
 BYTE   KEYSH   song1D_key+0
 BYTE   VOICE   60
 BYTE   PAN   c_v-19
 BYTE   VOL   47*song1D_mvl/mxv
 BYTE   W96
// 001   ----------------------------------------
Label_4_015BEC61:
 BYTE   W96
// 002   ----------------------------------------
 BYTE   W96
// 003   ----------------------------------------
 BYTE   W96
// 004   ----------------------------------------
 BYTE   W96
// 005   ----------------------------------------
 BYTE   W96
// 006   ----------------------------------------
 BYTE   W96
// 007   ----------------------------------------
 BYTE   W96
// 008   ----------------------------------------
 BYTE   N44  Cn2  v127
 BYTE   W48
 BYTE   N22  Gn2
 BYTE   W24
 BYTE   Cn3
 BYTE   W24
// 009   ----------------------------------------
 BYTE   N44  En2
 BYTE   W48
 BYTE   An2
 BYTE   W48
// 010   ----------------------------------------
 BYTE   Bn2
 BYTE   W48
 BYTE   N16
 BYTE   W18
 BYTE   Cn3
 BYTE   W18
 BYTE   N11  Dn3
 BYTE   W12
// 011   ----------------------------------------
 BYTE   N32  En3
 BYTE   W36
 BYTE   Dn3
 BYTE   W36
 BYTE   N22  Cn3
 BYTE   W24
// 012   ----------------------------------------
 BYTE   N92  Bn2
 BYTE   W96
// 013   ----------------------------------------
 BYTE   N44  Fn2
 BYTE   W48
 BYTE   N22  An2
 BYTE   W24
 BYTE   Dn3
 BYTE   W24
// 014   ----------------------------------------
 BYTE   N92  Fn3
 BYTE   W96
// 015   ----------------------------------------
 BYTE   N16  An3
 BYTE   W18
 BYTE   Fn3
 BYTE   W18
 BYTE   N11  An3
 BYTE   W12
 BYTE   N44  Dn3
 BYTE   W48
// 016   ----------------------------------------
 BYTE   N32  Ds3
 BYTE   W36
 BYTE   Dn3
 BYTE   W36
 BYTE   N22  Ds3
 BYTE   W24
// 017   ----------------------------------------
 BYTE   N44  En3
 BYTE   W48
 BYTE   N22  An3
 BYTE   W24
 BYTE   En3
 BYTE   W24
// 018   ----------------------------------------
 BYTE   N44  Ds3
 BYTE   W48
 BYTE   N22  En3
 BYTE   W24
 BYTE   Bn2
 BYTE   W24
// 019   ----------------------------------------
 BYTE   N44  Ds3
 BYTE   W48
 BYTE   N22  Fs3
 BYTE   W24
 BYTE   An3
 BYTE   W24
// 020   ----------------------------------------
 BYTE   N44  Gs3
 BYTE   W48
 BYTE   N22  En3
 BYTE   W24
 BYTE   Bn2
 BYTE   W24
// 021   ----------------------------------------
 BYTE   W96
// 022   ----------------------------------------
 BYTE   W96
// 023   ----------------------------------------
 BYTE   W96
// 024   ----------------------------------------
 BYTE   W96
// 025   ----------------------------------------
 BYTE   W96
// 026   ----------------------------------------
 BYTE   W96
// 027   ----------------------------------------
 BYTE   W96
// 028   ----------------------------------------
 BYTE   N44  Dn3
 BYTE   N44  Fn3
 BYTE   W48
 BYTE   An2
 BYTE   N44  Dn3
 BYTE   W48
// 029   ----------------------------------------
 BYTE   N22  Bn2
 BYTE   W24
 BYTE   En3
 BYTE   W24
 BYTE   Gn3
 BYTE   W24
 BYTE   Bn3
 BYTE   W24
// 030   ----------------------------------------
 BYTE   N44
 BYTE   W48
 BYTE   N16  Gs3
 BYTE   W18
 BYTE   Bn3
 BYTE   W18
 BYTE   N11  En3
 BYTE   W12
// 031   ----------------------------------------
 BYTE   N44  An3
 BYTE   W48
 BYTE   N22  En3
 BYTE   W24
 BYTE   Cn3
 BYTE   W24
// 032   ----------------------------------------
 BYTE   N44  Fs3
 BYTE   W48
 BYTE   N22  Cs3
 BYTE   W24
 BYTE   Fs2
 BYTE   W24
// 033   ----------------------------------------
 BYTE   N44  Bn2
 BYTE   W48
 BYTE   N22  Cs3
 BYTE   W24
 BYTE   Dn3
 BYTE   W24
// 034   ----------------------------------------
 BYTE   N44
 BYTE   W48
 BYTE   N22  Gn2
 BYTE   W24
 BYTE   Dn3
 BYTE   W24
// 035   ----------------------------------------
 BYTE   N92  Gs2
 BYTE   N92  Ds3
 BYTE   W96
// 036   ----------------------------------------
 BYTE   N44  Cs3
 BYTE   N44  Gs3
 BYTE   W48
 BYTE   Ds3
 BYTE   N44  Gs3
 BYTE   W48
// 037   ----------------------------------------
 BYTE   W96
// 038   ----------------------------------------
 BYTE   W96
// 039   ----------------------------------------
 BYTE   W96
// 040   ----------------------------------------
 BYTE   W96
// 041   ----------------------------------------
 BYTE   W96
// 042   ----------------------------------------
 BYTE   W96
// 043   ----------------------------------------
 BYTE   W96
// 044   ----------------------------------------
 BYTE   W92
 BYTE   W03
 BYTE   GoTo
  POIN2 Label_4_015BEC61
 BYTE   FINE

//**************** Track 6 (Midi-Chn.5) ****************//

song1D_006:
// 000   ----------------------------------------
 BYTE   KEYSH   song1D_key+0
 BYTE   VOICE   46
 BYTE   VOL   37*song1D_mvl/mxv
 BYTE   PAN   c_v+10
 BYTE   N04  An3  v127
 BYTE   N04  En4
 BYTE   W06
 BYTE   As3
 BYTE   N04  Ds4
 BYTE   W06
 BYTE   Bn3
 BYTE   N04  En4
 BYTE   W06
 BYTE   As3
 BYTE   N04  Dn4
 BYTE   W06
 BYTE   An3
 BYTE   N04  Ds4
 BYTE   W06
 BYTE   Gs3
 BYTE   N04  Fn4
 BYTE   W06
 BYTE   Gn3
 BYTE   N04  En4
 BYTE   W06
 BYTE   An3
 BYTE   N04  Ds4
 BYTE   W06
 BYTE   As3
 BYTE   N04  Dn4
 BYTE   W06
 BYTE   Bn3
 BYTE   N04  Ds4
 BYTE   W06
 BYTE   Cn4
 BYTE   N04  En4
 BYTE   W06
 BYTE   As3
 BYTE   N04  Fn4
 BYTE   W06
 BYTE   Bn3
 BYTE   N04  Fs4
 BYTE   W06
 BYTE   An3
 BYTE   N04  Gn4
 BYTE   W06
 BYTE   Gs3
 BYTE   N04  Gs4
 BYTE   W06
 BYTE   Gn3
 BYTE   N04  An4
 BYTE   W06
// 001   ----------------------------------------
Label_5_015BED72:
 BYTE   N04  An3  v120
 BYTE   W06
 BYTE   Cn4
 BYTE   W06
 BYTE   En4
 BYTE   W06
 BYTE   An4
 BYTE   W06
 BYTE   An3
 BYTE   W06
 BYTE   Cn4
 BYTE   W06
 BYTE   En4
 BYTE   W06
 BYTE   An4
 BYTE   W06
 BYTE   An3
 BYTE   W06
 BYTE   Cn4
 BYTE   W06
 BYTE   En4
 BYTE   W06
 BYTE   An4
 BYTE   W06
 BYTE   An3
 BYTE   W06
 BYTE   Cn4
 BYTE   W06
 BYTE   En4
 BYTE   W06
 BYTE   An4
 BYTE   W06
 BYTE   PEND 
// 002   ----------------------------------------
Label_5_015BED95:
 BYTE   N04  Bn3  v120
 BYTE   W06
 BYTE   Cn4
 BYTE   W06
 BYTE   En4
 BYTE   W06
 BYTE   An4
 BYTE   W06
 BYTE   Bn3
 BYTE   W06
 BYTE   Cn4
 BYTE   W06
 BYTE   En4
 BYTE   W06
 BYTE   An4
 BYTE   W06
 BYTE   Bn3
 BYTE   W06
 BYTE   Cn4
 BYTE   W06
 BYTE   En4
 BYTE   W06
 BYTE   An4
 BYTE   W06
 BYTE   Bn3
 BYTE   W06
 BYTE   Cn4
 BYTE   W06
 BYTE   En4
 BYTE   W06
 BYTE   An4
 BYTE   W06
 BYTE   PEND 
// 003   ----------------------------------------
Label_5_015BEDB8:
 BYTE   N04  Cn4  v120
 BYTE   W06
 BYTE   En4
 BYTE   W06
 BYTE   An4
 BYTE   W06
 BYTE   Cn5
 BYTE   W06
 BYTE   Cn4
 BYTE   W06
 BYTE   En4
 BYTE   W06
 BYTE   An4
 BYTE   W06
 BYTE   Cn5
 BYTE   W06
 BYTE   Cn4
 BYTE   W06
 BYTE   En4
 BYTE   W06
 BYTE   An4
 BYTE   W06
 BYTE   Cn5
 BYTE   W06
 BYTE   Cn4
 BYTE   W06
 BYTE   En4
 BYTE   W06
 BYTE   An4
 BYTE   W06
 BYTE   Cn5
 BYTE   W06
 BYTE   PEND 
// 004   ----------------------------------------
Label_5_015BEDDB:
 BYTE   N04  Bn3  v120
 BYTE   W06
 BYTE   En4
 BYTE   W06
 BYTE   An4
 BYTE   W06
 BYTE   Bn4
 BYTE   W06
 BYTE   Bn3
 BYTE   W06
 BYTE   En4
 BYTE   W06
 BYTE   An4
 BYTE   W06
 BYTE   Bn4
 BYTE   W06
 BYTE   Bn3
 BYTE   W06
 BYTE   En4
 BYTE   W06
 BYTE   An4
 BYTE   W06
 BYTE   Bn4
 BYTE   W06
 BYTE   Bn3
 BYTE   W06
 BYTE   En4
 BYTE   W06
 BYTE   An4
 BYTE   W06
 BYTE   Bn4
 BYTE   W06
 BYTE   PEND 
// 005   ----------------------------------------
Label_5_015BEDFE:
 BYTE   N04  Dn4  v120
 BYTE   W06
 BYTE   Fn4
 BYTE   W06
 BYTE   An4
 BYTE   W06
 BYTE   Dn5
 BYTE   W06
 BYTE   Dn4
 BYTE   W06
 BYTE   Fn4
 BYTE   W06
 BYTE   An4
 BYTE   W06
 BYTE   Dn5
 BYTE   W06
 BYTE   Dn4
 BYTE   W06
 BYTE   Fn4
 BYTE   W06
 BYTE   An4
 BYTE   W06
 BYTE   Dn5
 BYTE   W06
 BYTE   Dn4
 BYTE   W06
 BYTE   Fn4
 BYTE   W06
 BYTE   An4
 BYTE   W06
 BYTE   Dn5
 BYTE   W06
 BYTE   PEND 
// 006   ----------------------------------------
Label_5_015BEE21:
 BYTE   N04  En4  v120
 BYTE   W06
 BYTE   Fn4
 BYTE   W06
 BYTE   An4
 BYTE   W06
 BYTE   Dn5
 BYTE   W06
 BYTE   En4
 BYTE   W06
 BYTE   Fn4
 BYTE   W06
 BYTE   An4
 BYTE   W06
 BYTE   Dn5
 BYTE   W06
 BYTE   En4
 BYTE   W06
 BYTE   Fn4
 BYTE   W06
 BYTE   An4
 BYTE   W06
 BYTE   Dn5
 BYTE   W06
 BYTE   En4
 BYTE   W06
 BYTE   Fn4
 BYTE   W06
 BYTE   An4
 BYTE   W06
 BYTE   Dn5
 BYTE   W06
 BYTE   PEND 
 BYTE   PATT
  POIN2 Label_5_015BEDFE
// 007   ----------------------------------------
Label_5_015BEE49:
 BYTE   N04  Cn4  v120
 BYTE   W06
 BYTE   Ds4
 BYTE   W06
 BYTE   Gn4
 BYTE   W06
 BYTE   Cn5
 BYTE   W06
 BYTE   Cn4
 BYTE   W06
 BYTE   Ds4
 BYTE   W06
 BYTE   Gn4
 BYTE   W06
 BYTE   Cn5
 BYTE   W06
 BYTE   Cn4
 BYTE   W06
 BYTE   Ds4
 BYTE   W06
 BYTE   Gn4
 BYTE   W06
 BYTE   Cn5
 BYTE   W06
 BYTE   Cn4
 BYTE   W06
 BYTE   Ds4
 BYTE   W06
 BYTE   Gn4
 BYTE   W06
 BYTE   Cn5
 BYTE   W06
 BYTE   PEND 
 BYTE   PATT
  POIN2 Label_5_015BED72
 BYTE   PATT
  POIN2 Label_5_015BED95
 BYTE   PATT
  POIN2 Label_5_015BEDB8
 BYTE   PATT
  POIN2 Label_5_015BEDDB
 BYTE   PATT
  POIN2 Label_5_015BEDFE
 BYTE   PATT
  POIN2 Label_5_015BEE21
 BYTE   PATT
  POIN2 Label_5_015BEDFE
 BYTE   PATT
  POIN2 Label_5_015BEE49
// 008   ----------------------------------------
 BYTE   N04  Gs4  v120
 BYTE   W06
 BYTE   An4
 BYTE   W06
 BYTE   Bn4
 BYTE   W06
 BYTE   En4
 BYTE   W06
 BYTE   En5
 BYTE   W06
 BYTE   Dn5
 BYTE   W06
 BYTE   Cn5
 BYTE   W06
 BYTE   Bn4
 BYTE   W06
 BYTE   Cn5
 BYTE   W06
 BYTE   En5
 BYTE   W06
 BYTE   Dn5
 BYTE   W06
 BYTE   En5
 BYTE   W06
 BYTE   Cn5
 BYTE   W06
 BYTE   En5
 BYTE   W06
 BYTE   Bn4
 BYTE   W06
 BYTE   En5
 BYTE   W06
// 009   ----------------------------------------
 BYTE   Ds5
 BYTE   W06
 BYTE   En5
 BYTE   W06
 BYTE   Fs5
 BYTE   W06
 BYTE   Bn4
 BYTE   W06
 BYTE   Bn5
 BYTE   W06
 BYTE   An5
 BYTE   W06
 BYTE   Gn5
 BYTE   W06
 BYTE   Fs5
 BYTE   W06
 BYTE   En5
 BYTE   W06
 BYTE   Dn5
 BYTE   W06
 BYTE   En5
 BYTE   W06
 BYTE   Cn5
 BYTE   W06
 BYTE   Bn4
 BYTE   W06
 BYTE   An4
 BYTE   W06
 BYTE   Gn4
 BYTE   W06
 BYTE   Fs4
 BYTE   W06
// 010   ----------------------------------------
 BYTE   An4
 BYTE   W06
 BYTE   Fs4
 BYTE   W06
 BYTE   Ds4
 BYTE   W06
 BYTE   Cn4
 BYTE   W06
 BYTE   Fs4
 BYTE   W06
 BYTE   Ds4
 BYTE   W06
 BYTE   Cn4
 BYTE   W06
 BYTE   An3
 BYTE   W06
 BYTE   Ds4
 BYTE   W06
 BYTE   Cn4
 BYTE   W06
 BYTE   An3
 BYTE   W06
 BYTE   Fs3
 BYTE   W06
 BYTE   Cn4
 BYTE   W06
 BYTE   An3
 BYTE   W06
 BYTE   Fs3
 BYTE   W06
 BYTE   Ds3
 BYTE   W06
// 011   ----------------------------------------
 BYTE   En3
 BYTE   W06
 BYTE   Fn3
 BYTE   W06
 BYTE   Gs3
 BYTE   W06
 BYTE   An3
 BYTE   W06
 BYTE   Bn3
 BYTE   W06
 BYTE   Cn4
 BYTE   W06
 BYTE   Dn4
 BYTE   W06
 BYTE   En4
 BYTE   W06
 BYTE   Fn4
 BYTE   W06
 BYTE   Gs4
 BYTE   W06
 BYTE   An4
 BYTE   W06
 BYTE   Bn4
 BYTE   W06
 BYTE   Cn5
 BYTE   W06
 BYTE   Dn5
 BYTE   W06
 BYTE   En5
 BYTE   W06
 BYTE   Fn5
 BYTE   W06
// 012   ----------------------------------------
Label_5_015BEF16:
 BYTE   N05  Cn4  v120
 BYTE   N05  Ds4
 BYTE   W12
 BYTE   Cn4
 BYTE   N05  Ds4
 BYTE   W12
 BYTE   Cn4
 BYTE   N05  Ds4
 BYTE   W12
 BYTE   Cn4
 BYTE   N05  Ds4
 BYTE   W12
 BYTE   Cn4
 BYTE   N05  Ds4
 BYTE   W12
 BYTE   Cn4
 BYTE   N05  Ds4
 BYTE   W12
 BYTE   Cn4
 BYTE   N05  Ds4
 BYTE   W12
 BYTE   Cn4
 BYTE   N05  Ds4
 BYTE   W12
 BYTE   PEND 
// 013   ----------------------------------------
Label_5_015BEF39:
 BYTE   N05  As3  v120
 BYTE   N05  Dn4
 BYTE   W12
 BYTE   As3
 BYTE   N05  Dn4
 BYTE   W12
 BYTE   As3
 BYTE   N05  Dn4
 BYTE   W12
 BYTE   As3
 BYTE   N05  Dn4
 BYTE   W12
 BYTE   As3
 BYTE   N05  Dn4
 BYTE   W12
 BYTE   As3
 BYTE   N05  Dn4
 BYTE   W12
 BYTE   As3
 BYTE   N05  Dn4
 BYTE   W12
 BYTE   As3
 BYTE   N05  Dn4
 BYTE   W12
 BYTE   PEND 
// 014   ----------------------------------------
Label_5_015BEF5C:
 BYTE   N05  An3  v120
 BYTE   N05  Dn4
 BYTE   W12
 BYTE   An3
 BYTE   N05  Dn4
 BYTE   W12
 BYTE   An3
 BYTE   N05  Dn4
 BYTE   W12
 BYTE   An3
 BYTE   N05  Dn4
 BYTE   W12
 BYTE   An3
 BYTE   N05  Dn4
 BYTE   W12
 BYTE   An3
 BYTE   N05  Dn4
 BYTE   W12
 BYTE   An3
 BYTE   N05  Dn4
 BYTE   W12
 BYTE   An3
 BYTE   N05  Dn4
 BYTE   W12
 BYTE   PEND 
 BYTE   PATT
  POIN2 Label_5_015BEF39
 BYTE   PATT
  POIN2 Label_5_015BEF16
 BYTE   PATT
  POIN2 Label_5_015BEF39
 BYTE   PATT
  POIN2 Label_5_015BEF5C
 BYTE   PATT
  POIN2 Label_5_015BEF5C
// 015   ----------------------------------------
 BYTE   N05  Gn3  v120
 BYTE   N05  Bn3
 BYTE   W12
 BYTE   Gn3
 BYTE   N05  Bn3
 BYTE   W12
 BYTE   Gn3
 BYTE   N05  Bn3
 BYTE   W12
 BYTE   Gn3
 BYTE   N05  Bn3
 BYTE   W12
 BYTE   Gn3
 BYTE   N05  Bn3
 BYTE   W12
 BYTE   Gn3
 BYTE   N05  Bn3
 BYTE   W12
 BYTE   Gn3
 BYTE   N05  Bn3
 BYTE   W12
 BYTE   Gn3
 BYTE   N05  Bn3
 BYTE   W12
// 016   ----------------------------------------
 BYTE   Gs3
 BYTE   N05  Bn3
 BYTE   W12
 BYTE   Gs3
 BYTE   N05  Bn3
 BYTE   W12
 BYTE   Gs3
 BYTE   N05  Bn3
 BYTE   W12
 BYTE   Gs3
 BYTE   N05  Bn3
 BYTE   W12
 BYTE   Gs3
 BYTE   N05  Bn3
 BYTE   W12
 BYTE   Gs3
 BYTE   N05  Bn3
 BYTE   W12
 BYTE   Gs3
 BYTE   N05  Bn3
 BYTE   W12
 BYTE   Gs3
 BYTE   N05  Bn3
 BYTE   W12
// 017   ----------------------------------------
 BYTE   An3
 BYTE   N05  Cn4
 BYTE   W12
 BYTE   An3
 BYTE   N05  Cn4
 BYTE   W12
 BYTE   An3
 BYTE   N05  Cn4
 BYTE   W12
 BYTE   An3
 BYTE   N05  Cn4
 BYTE   W12
 BYTE   An3
 BYTE   N05  Cn4
 BYTE   W12
 BYTE   An3
 BYTE   N05  Cn4
 BYTE   W12
 BYTE   An3
 BYTE   N05  Cn4
 BYTE   W12
 BYTE   An3
 BYTE   N05  Cn4
 BYTE   W12
// 018   ----------------------------------------
 BYTE   As3
 BYTE   N05  Cs4
 BYTE   W12
 BYTE   As3
 BYTE   N05  Cs4
 BYTE   W12
 BYTE   As3
 BYTE   N05  Cs4
 BYTE   W12
 BYTE   As3
 BYTE   N05  Cs4
 BYTE   W12
 BYTE   As3
 BYTE   N05  Cs4
 BYTE   W12
 BYTE   As3
 BYTE   N05  Cs4
 BYTE   W12
 BYTE   As3
 BYTE   N05  Cs4
 BYTE   W12
 BYTE   As3
 BYTE   N05  Cs4
 BYTE   W12
// 019   ----------------------------------------
Label_5_015BF01A:
 BYTE   N05  Bn3  v120
 BYTE   N05  Dn4
 BYTE   W12
 BYTE   Bn3
 BYTE   N05  Dn4
 BYTE   W12
 BYTE   Bn3
 BYTE   N05  Dn4
 BYTE   W12
 BYTE   Bn3
 BYTE   N05  Dn4
 BYTE   W12
 BYTE   Bn3
 BYTE   N05  Dn4
 BYTE   W12
 BYTE   Bn3
 BYTE   N05  Dn4
 BYTE   W12
 BYTE   Bn3
 BYTE   N05  Dn4
 BYTE   W12
 BYTE   Bn3
 BYTE   N05  Dn4
 BYTE   W12
 BYTE   PEND 
 BYTE   PATT
  POIN2 Label_5_015BF01A
// 020   ----------------------------------------
Label_5_015BF042:
 BYTE   N05  Cs4  v120
 BYTE   N05  Ds4
 BYTE   W12
 BYTE   Cs4
 BYTE   N05  Ds4
 BYTE   W12
 BYTE   Cs4
 BYTE   N05  Ds4
 BYTE   W12
 BYTE   Cs4
 BYTE   N05  Ds4
 BYTE   W12
 BYTE   Cs4
 BYTE   N05  Ds4
 BYTE   W12
 BYTE   Cs4
 BYTE   N05  Ds4
 BYTE   W12
 BYTE   Cs4
 BYTE   N05  Ds4
 BYTE   W12
 BYTE   Cs4
 BYTE   N05  Ds4
 BYTE   W12
 BYTE   PEND 
 BYTE   PATT
  POIN2 Label_5_015BF042
 BYTE   PATT
  POIN2 Label_5_015BEF16
 BYTE   PATT
  POIN2 Label_5_015BEF39
 BYTE   PATT
  POIN2 Label_5_015BEF5C
 BYTE   PATT
  POIN2 Label_5_015BEF39
 BYTE   PATT
  POIN2 Label_5_015BEF16
 BYTE   PATT
  POIN2 Label_5_015BEF39
 BYTE   PATT
  POIN2 Label_5_015BEF5C
// 021   ----------------------------------------
 BYTE   N05  An3  v127
 BYTE   N05  En4
 BYTE   W06
 BYTE   As3
 BYTE   N05  Ds4
 BYTE   W06
 BYTE   Bn3
 BYTE   N05  En4
 BYTE   W06
 BYTE   As3
 BYTE   N05  Dn4
 BYTE   W06
 BYTE   An3
 BYTE   N05  Ds4
 BYTE   W06
 BYTE   Gs3
 BYTE   N05  Fn4
 BYTE   W06
 BYTE   Gn3
 BYTE   N05  En4
 BYTE   W06
 BYTE   An3
 BYTE   N05  Ds4
 BYTE   W06
 BYTE   As3
 BYTE   N05  Dn4
 BYTE   W06
 BYTE   Bn3
 BYTE   N05  Ds4
 BYTE   W06
 BYTE   Cn4
 BYTE   N05  En4
 BYTE   W06
 BYTE   As3
 BYTE   N05  Fn4
 BYTE   W06
 BYTE   Bn3
 BYTE   N05  Fs4
 BYTE   W06
 BYTE   An3
 BYTE   N05  Gn4
 BYTE   W06
 BYTE   Gs3
 BYTE   N05  Gs4
 BYTE   W06
 BYTE   Gn3
 BYTE   N05  An4
 BYTE   W05
 BYTE   GoTo
  POIN2 Label_5_015BED72
 BYTE   FINE

//**************** Track 7 (Midi-Chn.6) ****************//

song1D_007:
// 000   ----------------------------------------
 BYTE   KEYSH   song1D_key+0
 BYTE   VOICE   38
 BYTE   PAN   c_v+15
 BYTE   VOL   40*song1D_mvl/mxv
 BYTE   W48
 BYTE   BEND   c_v-64
 BYTE   N22  An0  v127
 BYTE   W02
 BYTE   BEND   c_v-39
 BYTE   W02
 BYTE   En1
 BYTE   W02
 BYTE   Cs2
 BYTE   W02
 BYTE   Gn2
 BYTE   W02
 BYTE   As2
 BYTE   W02
 BYTE   Cs3
 BYTE   W02
 BYTE   Dn3
 BYTE   W02
 BYTE   Ds3
 BYTE   W02
 BYTE   En3
 BYTE   W05
 BYTE   En3
 BYTE   W01
 BYTE   N22  An1
 BYTE   W06
 BYTE   BEND   c_v-1
 BYTE   W04
 BYTE   Dn3
 BYTE   W02
 BYTE   Cn3
 BYTE   W02
 BYTE   As2
 BYTE   W02
 BYTE   Fs2
 BYTE   W02
 BYTE   Bn1
 BYTE   W02
 BYTE   Cs1
 BYTE   W02
 BYTE   GsM1
 BYTE   W01
 BYTE   En3
 BYTE   W01
// 001   ----------------------------------------
Label_6_015BF112:
 BYTE   N11  An0  v127
 BYTE   W12
 BYTE   N11
 BYTE   W12
 BYTE   N04  An1
 BYTE   W06
 BYTE   N11  An0
 BYTE   W12
 BYTE   N04  An1
 BYTE   W06
 BYTE   N11  An0
 BYTE   W12
 BYTE   N11
 BYTE   W12
 BYTE   N04  An1
 BYTE   W06
 BYTE   N11  An0
 BYTE   W12
 BYTE   N04  An1
 BYTE   W06
 BYTE   PEND 
 BYTE   PATT
  POIN2 Label_6_015BF112
 BYTE   PATT
  POIN2 Label_6_015BF112
 BYTE   PATT
  POIN2 Label_6_015BF112
// 002   ----------------------------------------
Label_6_015BF13F:
 BYTE   N11  Dn0  v127
 BYTE   W12
 BYTE   N11
 BYTE   W12
 BYTE   N04  Dn1
 BYTE   W06
 BYTE   N11  Dn0
 BYTE   W12
 BYTE   N04  Dn1
 BYTE   W06
 BYTE   N11  Dn0
 BYTE   W12
 BYTE   N11
 BYTE   W12
 BYTE   N04  Dn1
 BYTE   W06
 BYTE   N11  Dn0
 BYTE   W12
 BYTE   N04  Dn1
 BYTE   W06
 BYTE   PEND 
 BYTE   PATT
  POIN2 Label_6_015BF13F
 BYTE   PATT
  POIN2 Label_6_015BF13F
// 003   ----------------------------------------
Label_6_015BF167:
 BYTE   N11  Cn1  v127
 BYTE   W12
 BYTE   N11
 BYTE   W12
 BYTE   N04  Cn2
 BYTE   W06
 BYTE   N11  Cn1
 BYTE   W12
 BYTE   N04  Cn2
 BYTE   W06
 BYTE   N11  Cn1
 BYTE   W12
 BYTE   N11
 BYTE   W12
 BYTE   N04  Cn2
 BYTE   W06
 BYTE   N11  Cn1
 BYTE   W12
 BYTE   N04  Cn2
 BYTE   W06
 BYTE   PEND 
 BYTE   PATT
  POIN2 Label_6_015BF112
 BYTE   PATT
  POIN2 Label_6_015BF112
 BYTE   PATT
  POIN2 Label_6_015BF112
 BYTE   PATT
  POIN2 Label_6_015BF112
 BYTE   PATT
  POIN2 Label_6_015BF13F
 BYTE   PATT
  POIN2 Label_6_015BF13F
 BYTE   PATT
  POIN2 Label_6_015BF13F
 BYTE   PATT
  POIN2 Label_6_015BF167
// 004   ----------------------------------------
 BYTE   N11  En0  v127
 BYTE   W12
 BYTE   N11
 BYTE   W12
 BYTE   N04  En1
 BYTE   W06
 BYTE   N11  En0
 BYTE   W12
 BYTE   N04
 BYTE   W06
 BYTE   N11  An0
 BYTE   W12
 BYTE   N11
 BYTE   W12
 BYTE   N04  An1
 BYTE   W06
 BYTE   N11  An0
 BYTE   W12
 BYTE   N04
 BYTE   W06
// 005   ----------------------------------------
 BYTE   N11  Bn0
 BYTE   W12
 BYTE   N11
 BYTE   W12
 BYTE   N04  Bn1
 BYTE   W06
 BYTE   N11  Bn0
 BYTE   W12
 BYTE   N04
 BYTE   W06
 BYTE   N11  En0
 BYTE   W12
 BYTE   N11
 BYTE   W12
 BYTE   N04  En1
 BYTE   W06
 BYTE   N11  En0
 BYTE   W12
 BYTE   N04
 BYTE   W06
// 006   ----------------------------------------
Label_6_015BF1E2:
 BYTE   N11  Cn1  v127
 BYTE   W12
 BYTE   N11
 BYTE   W12
 BYTE   N04  Cn2
 BYTE   W06
 BYTE   N11  Cn1
 BYTE   W12
 BYTE   N04
 BYTE   W06
 BYTE   N11
 BYTE   W12
 BYTE   N11
 BYTE   W12
 BYTE   N04  Cn2
 BYTE   W06
 BYTE   N11  Cn1
 BYTE   W12
 BYTE   N04
 BYTE   W06
 BYTE   PEND 
// 007   ----------------------------------------
Label_6_015BF1FD:
 BYTE   N11  En0  v127
 BYTE   W12
 BYTE   N11
 BYTE   W12
 BYTE   N04  En1
 BYTE   W06
 BYTE   N11  En0
 BYTE   W12
 BYTE   N04
 BYTE   W06
 BYTE   N11
 BYTE   W12
 BYTE   N11
 BYTE   W12
 BYTE   N04  En1
 BYTE   W06
 BYTE   N11  En0
 BYTE   W12
 BYTE   N04
 BYTE   W06
 BYTE   PEND 
 BYTE   PATT
  POIN2 Label_6_015BF1E2
// 008   ----------------------------------------
Label_6_015BF21D:
 BYTE   N11  Gn0  v127
 BYTE   W12
 BYTE   N11
 BYTE   W12
 BYTE   N04  Gn1
 BYTE   W06
 BYTE   N11  Gn0
 BYTE   W12
 BYTE   N04
 BYTE   W06
 BYTE   N11
 BYTE   W12
 BYTE   N11
 BYTE   W12
 BYTE   N04  Gn1
 BYTE   W06
 BYTE   N11  Gn0
 BYTE   W12
 BYTE   N04
 BYTE   W06
 BYTE   PEND 
// 009   ----------------------------------------
Label_6_015BF238:
 BYTE   N11  Dn1  v127
 BYTE   W12
 BYTE   N11
 BYTE   W12
 BYTE   N04  Dn2
 BYTE   W06
 BYTE   N11  Dn1
 BYTE   W12
 BYTE   N04
 BYTE   W06
 BYTE   N11
 BYTE   W12
 BYTE   N11
 BYTE   W12
 BYTE   N04  Dn2
 BYTE   W06
 BYTE   N11  Dn1
 BYTE   W12
 BYTE   N04
 BYTE   W06
 BYTE   PEND 
 BYTE   PATT
  POIN2 Label_6_015BF21D
 BYTE   PATT
  POIN2 Label_6_015BF1E2
 BYTE   PATT
  POIN2 Label_6_015BF21D
 BYTE   PATT
  POIN2 Label_6_015BF238
 BYTE   PATT
  POIN2 Label_6_015BF238
 BYTE   PATT
  POIN2 Label_6_015BF1FD
 BYTE   PATT
  POIN2 Label_6_015BF1FD
// 010   ----------------------------------------
 BYTE   N11  An0  v127
 BYTE   W12
 BYTE   N11
 BYTE   W12
 BYTE   N04  An1
 BYTE   W06
 BYTE   N11  An0
 BYTE   W12
 BYTE   N04
 BYTE   W06
 BYTE   N11
 BYTE   W12
 BYTE   N11
 BYTE   W12
 BYTE   N04  An1
 BYTE   W06
 BYTE   N11  An0
 BYTE   W12
 BYTE   N04
 BYTE   W06
// 011   ----------------------------------------
 BYTE   N11  Fs0
 BYTE   W12
 BYTE   N11
 BYTE   W12
 BYTE   N04  Fs1
 BYTE   W06
 BYTE   N11  Fs0
 BYTE   W12
 BYTE   N04
 BYTE   W06
 BYTE   N11
 BYTE   W12
 BYTE   N11
 BYTE   W12
 BYTE   N04  Fs1
 BYTE   W06
 BYTE   N11  Fs0
 BYTE   W12
 BYTE   N04
 BYTE   W06
// 012   ----------------------------------------
 BYTE   N11  Bn0
 BYTE   W12
 BYTE   N11
 BYTE   W12
 BYTE   N04  Bn1
 BYTE   W06
 BYTE   N11  Bn0
 BYTE   W12
 BYTE   N04
 BYTE   W06
 BYTE   N11
 BYTE   W12
 BYTE   N11
 BYTE   W12
 BYTE   N04  Bn1
 BYTE   W06
 BYTE   N11  Bn0
 BYTE   W12
 BYTE   N04
 BYTE   W06
 BYTE   PATT
  POIN2 Label_6_015BF21D
// 013   ----------------------------------------
Label_6_015BF2C7:
 BYTE   N11  Gs0  v127
 BYTE   W12
 BYTE   N11
 BYTE   W12
 BYTE   N04  Gs1
 BYTE   W06
 BYTE   N11  Gs0
 BYTE   W12
 BYTE   N04
 BYTE   W06
 BYTE   N11
 BYTE   W12
 BYTE   N11
 BYTE   W12
 BYTE   N04  Gs1
 BYTE   W06
 BYTE   N11  Gs0
 BYTE   W12
 BYTE   N04
 BYTE   W06
 BYTE   PEND 
 BYTE   PATT
  POIN2 Label_6_015BF2C7
 BYTE   PATT
  POIN2 Label_6_015BF1E2
 BYTE   PATT
  POIN2 Label_6_015BF21D
 BYTE   PATT
  POIN2 Label_6_015BF238
 BYTE   PATT
  POIN2 Label_6_015BF21D
 BYTE   PATT
  POIN2 Label_6_015BF1E2
 BYTE   PATT
  POIN2 Label_6_015BF21D
 BYTE   PATT
  POIN2 Label_6_015BF238
// 014   ----------------------------------------
 BYTE   N05  Dn1  v127
 BYTE   W06
 BYTE   Cs1
 BYTE   W06
 BYTE   Dn1
 BYTE   W06
 BYTE   Cn1
 BYTE   W06
 BYTE   Bn0
 BYTE   W06
 BYTE   As0
 BYTE   W06
 BYTE   An0
 BYTE   W06
 BYTE   Gs0
 BYTE   W06
 BYTE   As0
 BYTE   W06
 BYTE   An0
 BYTE   W06
 BYTE   Gs0
 BYTE   W06
 BYTE   Gn0
 BYTE   W06
 BYTE   Fs0
 BYTE   W06
 BYTE   Fn0
 BYTE   W06
 BYTE   En0
 BYTE   W06
 BYTE   Fn0
 BYTE   W05
 BYTE   GoTo
  POIN2 Label_6_015BF112
 BYTE   FINE

//**************** Track 8 (Midi-Chn.7) ****************//

song1D_008:
// 000   ----------------------------------------
 BYTE   KEYSH   song1D_key+0
 BYTE   VOICE   127
 BYTE   VOL   47*song1D_mvl/mxv
 BYTE   PAN   c_v+0
 BYTE   W48
 BYTE   N01  An1  v127
 BYTE   W02
 BYTE   N05  Fn1
 BYTE   W16
 BYTE   Cn1
 BYTE   W06
 BYTE   Dn1
 BYTE   W06
 BYTE   N05
 BYTE   W06
 BYTE   N05
 BYTE   W06
 BYTE   N05
 BYTE   W06
// 001   ----------------------------------------
Label_7_015BF34E:
 BYTE   N11  Cn1  v127
 BYTE   N92  Cs2  v120
 BYTE   W12
 BYTE   N11  Cn1  v127
 BYTE   N11  As1  v080
 BYTE   W12
 BYTE   N05  Dn1  v127
 BYTE   N11  As1  v100
 BYTE   W06
 BYTE   Cn1  v127
 BYTE   W06
 BYTE   As1  v080
 BYTE   W06
 BYTE   N04  Cn1  v127
 BYTE   W06
 BYTE   N11
 BYTE   N11  As1  v100
 BYTE   W12
 BYTE   Cn1  v127
 BYTE   N11  As1  v080
 BYTE   W12
 BYTE   N05  Dn1  v127
 BYTE   N11  As1  v100
 BYTE   W06
 BYTE   Cn1  v127
 BYTE   W06
 BYTE   As1  v080
 BYTE   W06
 BYTE   N04  Cn1  v127
 BYTE   W06
 BYTE   PEND 
// 002   ----------------------------------------
Label_7_015BF38A:
 BYTE   N11  Cn1  v127
 BYTE   N11  As1  v100
 BYTE   W12
 BYTE   Cn1  v127
 BYTE   N11  As1  v080
 BYTE   W12
 BYTE   N05  Dn1  v127
 BYTE   N11  As1  v100
 BYTE   W06
 BYTE   Cn1  v127
 BYTE   W06
 BYTE   As1  v080
 BYTE   W06
 BYTE   N04  Cn1  v127
 BYTE   W06
 BYTE   N11
 BYTE   N11  As1  v100
 BYTE   W12
 BYTE   Cn1  v127
 BYTE   N11  As1  v080
 BYTE   W12
 BYTE   N05  Dn1  v127
 BYTE   N11  As1  v100
 BYTE   W06
 BYTE   Cn1  v127
 BYTE   W06
 BYTE   As1  v080
 BYTE   W06
 BYTE   N04  Cn1  v127
 BYTE   W06
 BYTE   PEND 
 BYTE   PATT
  POIN2 Label_7_015BF38A
// 003   ----------------------------------------
Label_7_015BF3CA:
 BYTE   N11  Cn1  v127
 BYTE   N11  As1  v100
 BYTE   W12
 BYTE   Cn1  v127
 BYTE   N11  As1  v080
 BYTE   W12
 BYTE   N05  Dn1  v127
 BYTE   N11  As1  v100
 BYTE   W06
 BYTE   Cn1  v127
 BYTE   W06
 BYTE   As1  v080
 BYTE   W06
 BYTE   N04  Cn1  v127
 BYTE   W06
 BYTE   N11
 BYTE   N44  En2  v120
 BYTE   W12
 BYTE   N11  Cn1  v127
 BYTE   W12
 BYTE   N05  Dn1
 BYTE   W06
 BYTE   N05
 BYTE   W06
 BYTE   N05
 BYTE   W06
 BYTE   N05
 BYTE   W06
 BYTE   PEND 
 BYTE   PATT
  POIN2 Label_7_015BF34E
 BYTE   PATT
  POIN2 Label_7_015BF38A
 BYTE   PATT
  POIN2 Label_7_015BF38A
// 004   ----------------------------------------
 BYTE   N11  Cn1  v127
 BYTE   N11  As1  v100
 BYTE   W12
 BYTE   Cn1  v127
 BYTE   N11  As1  v080
 BYTE   W12
 BYTE   N05  Dn1  v127
 BYTE   N11  As1  v100
 BYTE   W06
 BYTE   Cn1  v127
 BYTE   W06
 BYTE   As1  v080
 BYTE   W06
 BYTE   N04  Cn1  v127
 BYTE   W06
 BYTE   N44  As1  v120
 BYTE   N05  Cn2  v127
 BYTE   W06
 BYTE   N05
 BYTE   W06
 BYTE   N05
 BYTE   W06
 BYTE   An1
 BYTE   W06
 BYTE   N05
 BYTE   W06
 BYTE   N05
 BYTE   W06
 BYTE   Fn1
 BYTE   W06
 BYTE   N05
 BYTE   W06
 BYTE   PATT
  POIN2 Label_7_015BF34E
 BYTE   PATT
  POIN2 Label_7_015BF38A
 BYTE   PATT
  POIN2 Label_7_015BF38A
 BYTE   PATT
  POIN2 Label_7_015BF3CA
 BYTE   PATT
  POIN2 Label_7_015BF34E
 BYTE   PATT
  POIN2 Label_7_015BF38A
 BYTE   PATT
  POIN2 Label_7_015BF38A
// 005   ----------------------------------------
 BYTE   N11  Cn1  v127
 BYTE   N11  As1  v100
 BYTE   W12
 BYTE   Cn1  v127
 BYTE   N11  As1  v080
 BYTE   W12
 BYTE   N05  Dn1  v127
 BYTE   N11  As1  v100
 BYTE   W06
 BYTE   Cn1  v127
 BYTE   W06
 BYTE   As1  v080
 BYTE   W06
 BYTE   N04  Cn1  v127
 BYTE   W06
 BYTE   N44  As1  v120
 BYTE   N05  Cn2  v127
 BYTE   W06
 BYTE   An1
 BYTE   W06
 BYTE   Fn1
 BYTE   W06
 BYTE   Cn2
 BYTE   W06
 BYTE   An1
 BYTE   W06
 BYTE   Fn1
 BYTE   W06
 BYTE   Dn1
 BYTE   W06
 BYTE   N05
 BYTE   W06
// 006   ----------------------------------------
 BYTE   N04  Cn1
 BYTE   N92  Cs2
 BYTE   W06
 BYTE   N04  Cn1
 BYTE   W06
 BYTE   N04
 BYTE   N11  Fn2  v100
 BYTE   W06
 BYTE   N04  Cn1  v127
 BYTE   W06
 BYTE   N05  Dn1
 BYTE   N04  Fn2  v100
 BYTE   W06
 BYTE   N11  Cn1  v127
 BYTE   N11  Fn2  v100
 BYTE   W12
 BYTE   N04  Cn1  v127
 BYTE   N04  Fn2  v100
 BYTE   W06
 BYTE   Cn1  v127
 BYTE   N11  Fn2  v100
 BYTE   W06
 BYTE   N04  Cn1  v127
 BYTE   W06
 BYTE   N04
 BYTE   N11  Fn2  v100
 BYTE   W06
 BYTE   N04  Cn1  v127
 BYTE   W06
 BYTE   N05  Dn1
 BYTE   N04  Fn2  v100
 BYTE   W06
 BYTE   N11  Cn1  v127
 BYTE   N11  Fn2  v100
 BYTE   W12
 BYTE   N04  Cn1  v127
 BYTE   N04  Fn2  v100
 BYTE   W06
// 007   ----------------------------------------
 BYTE   Cn1  v127
 BYTE   N11  Fn2  v100
 BYTE   W06
 BYTE   N04  Cn1  v127
 BYTE   W06
 BYTE   N04
 BYTE   N11  Fn2  v100
 BYTE   W06
 BYTE   N04  Cn1  v127
 BYTE   W06
 BYTE   N05  Dn1
 BYTE   N04  Fn2  v100
 BYTE   W06
 BYTE   N11  Cn1  v127
 BYTE   N11  Fn2  v100
 BYTE   W12
 BYTE   N04  Cn1  v127
 BYTE   N04  Fn2  v100
 BYTE   W06
 BYTE   Cn1  v127
 BYTE   N11  Fn2  v100
 BYTE   W06
 BYTE   N04  Cn1  v127
 BYTE   W06
 BYTE   N04
 BYTE   N11  Fn2  v100
 BYTE   W06
 BYTE   N04  Cn1  v127
 BYTE   W06
 BYTE   N05  Dn1
 BYTE   N04  Fn2  v100
 BYTE   W06
 BYTE   N11  Cn1  v127
 BYTE   N11  Fn2  v100
 BYTE   W12
 BYTE   N04  Cn1  v127
 BYTE   N04  Fn2  v100
 BYTE   W06
// 008   ----------------------------------------
 BYTE   Cn1  v127
 BYTE   N22  Cs2  v112
 BYTE   W06
 BYTE   N04  Cn1  v127
 BYTE   W06
 BYTE   N04
 BYTE   W06
 BYTE   N04
 BYTE   W06
 BYTE   N05  Dn1
 BYTE   N22  En2  v112
 BYTE   W06
 BYTE   N11  Cn1  v127
 BYTE   W12
 BYTE   N04
 BYTE   W06
 BYTE   N04
 BYTE   N22  Cs2  v112
 BYTE   W06
 BYTE   N04  Cn1  v127
 BYTE   W06
 BYTE   N04
 BYTE   W06
 BYTE   N04
 BYTE   W06
 BYTE   N05  Dn1
 BYTE   N22  En2  v112
 BYTE   W06
 BYTE   N11  Cn1  v127
 BYTE   W12
 BYTE   N04
 BYTE   W06
// 009   ----------------------------------------
 BYTE   N04
 BYTE   N22  Cs2  v112
 BYTE   W06
 BYTE   N04  Cn1  v127
 BYTE   W06
 BYTE   N04
 BYTE   W06
 BYTE   N04
 BYTE   W06
 BYTE   N05  Dn1
 BYTE   N22  En2  v112
 BYTE   W06
 BYTE   N11  Cn1  v127
 BYTE   W12
 BYTE   N04
 BYTE   W06
 BYTE   N04
 BYTE   N22  Cs2  v112
 BYTE   W06
 BYTE   N04  Cn1  v127
 BYTE   W06
 BYTE   N04
 BYTE   W06
 BYTE   N04
 BYTE   W06
 BYTE   N05  Dn1
 BYTE   N22  En2  v112
 BYTE   W12
 BYTE   N05  Dn1  v127
 BYTE   W12
// 010   ----------------------------------------
Label_7_015BF590:
 BYTE   N05  Dn1  v127
 BYTE   N22  Cs2  v112
 BYTE   W06
 BYTE   N04  Cn1  v127
 BYTE   W06
 BYTE   N04
 BYTE   W06
 BYTE   N04
 BYTE   W06
 BYTE   N05  Dn1
 BYTE   N22  En2  v112
 BYTE   W06
 BYTE   N04  Cn1  v127
 BYTE   W06
 BYTE   N04
 BYTE   W06
 BYTE   N04
 BYTE   W06
 BYTE   N05  Dn1
 BYTE   N22  Cs2  v112
 BYTE   W06
 BYTE   N04  Cn1  v127
 BYTE   W06
 BYTE   N04
 BYTE   W06
 BYTE   N04
 BYTE   W06
 BYTE   N05  Dn1
 BYTE   N22  En2  v112
 BYTE   W06
 BYTE   N04  Cn1  v127
 BYTE   W06
 BYTE   N04
 BYTE   W06
 BYTE   N04
 BYTE   W06
 BYTE   PEND 
 BYTE   PATT
  POIN2 Label_7_015BF590
 BYTE   PATT
  POIN2 Label_7_015BF590
 BYTE   PATT
  POIN2 Label_7_015BF590
 BYTE   PATT
  POIN2 Label_7_015BF590
 BYTE   PATT
  POIN2 Label_7_015BF590
// 011   ----------------------------------------
Label_7_015BF5E3:
 BYTE   N05  Dn1  v127
 BYTE   N22  Cs2  v112
 BYTE   W06
 BYTE   N04  Cn1  v127
 BYTE   W06
 BYTE   N04
 BYTE   W06
 BYTE   N04
 BYTE   W06
 BYTE   N05  Dn1
 BYTE   N22  En2  v112
 BYTE   W06
 BYTE   N04  Cn1  v127
 BYTE   W06
 BYTE   N04
 BYTE   W06
 BYTE   N04
 BYTE   W06
 BYTE   N05  Dn1
 BYTE   N22  Cs2  v112
 BYTE   W06
 BYTE   N04  Cn1  v127
 BYTE   W06
 BYTE   N04
 BYTE   W06
 BYTE   N04
 BYTE   W06
 BYTE   N05  Dn1
 BYTE   N22  En2  v112
 BYTE   W06
 BYTE   N05  Cn2  v127
 BYTE   W06
 BYTE   An1
 BYTE   W06
 BYTE   Fn1
 BYTE   W06
 BYTE   PEND 
 BYTE   PATT
  POIN2 Label_7_015BF34E
 BYTE   PATT
  POIN2 Label_7_015BF38A
 BYTE   PATT
  POIN2 Label_7_015BF38A
 BYTE   PATT
  POIN2 Label_7_015BF3CA
 BYTE   PATT
  POIN2 Label_7_015BF34E
 BYTE   PATT
  POIN2 Label_7_015BF38A
 BYTE   PATT
  POIN2 Label_7_015BF38A
// 012   ----------------------------------------
 BYTE   N11  Cn1  v127
 BYTE   N22  Cs2  v112
 BYTE   W12
 BYTE   N11  Cn1  v127
 BYTE   W12
 BYTE   N05  Dn1
 BYTE   N22  En2  v112
 BYTE   W06
 BYTE   N11  Cn1  v127
 BYTE   W12
 BYTE   N04
 BYTE   W06
 BYTE   N05  Cn2
 BYTE   N44  Cs2  v112
 BYTE   W06
 BYTE   N05  Cn2  v127
 BYTE   W06
 BYTE   N05
 BYTE   W06
 BYTE   An1
 BYTE   W06
 BYTE   N05
 BYTE   W06
 BYTE   N05
 BYTE   W06
 BYTE   Fn1
 BYTE   W06
 BYTE   N05
 BYTE   W06
// 013   ----------------------------------------
 BYTE   Dn1
 BYTE   N92  Cs2
 BYTE   W06
 BYTE   N05  Dn1
 BYTE   W06
 BYTE   N05
 BYTE   W06
 BYTE   Cn2
 BYTE   W06
 BYTE   N05
 BYTE   W06
 BYTE   N05
 BYTE   W06
 BYTE   An1
 BYTE   W06
 BYTE   N05
 BYTE   W06
 BYTE   N05
 BYTE   W06
 BYTE   Fn1
 BYTE   W06
 BYTE   N05
 BYTE   W06
 BYTE   N05
 BYTE   W06
 BYTE   Dn1
 BYTE   W06
 BYTE   N05
 BYTE   W06
 BYTE   N05
 BYTE   W06
 BYTE   N05
 BYTE   W06
 BYTE   PATT
  POIN2 Label_7_015BF590
 BYTE   PATT
  POIN2 Label_7_015BF590
 BYTE   PATT
  POIN2 Label_7_015BF590
 BYTE   PATT
  POIN2 Label_7_015BF590
 BYTE   PATT
  POIN2 Label_7_015BF590
 BYTE   PATT
  POIN2 Label_7_015BF590
 BYTE   PATT
  POIN2 Label_7_015BF5E3
// 014   ----------------------------------------
 BYTE   N05  Dn1  v127
 BYTE   N92  Cs2
 BYTE   W06
 BYTE   N05  Dn1
 BYTE   W06
 BYTE   N05
 BYTE   W06
 BYTE   N05
 BYTE   W06
 BYTE   Cn2
 BYTE   W06
 BYTE   N05
 BYTE   W06
 BYTE   N05
 BYTE   W06
 BYTE   N05
 BYTE   W06
 BYTE   An1
 BYTE   W06
 BYTE   N05
 BYTE   W06
 BYTE   N05
 BYTE   W06
 BYTE   N05
 BYTE   W06
 BYTE   Fn1
 BYTE   W06
 BYTE   N05
 BYTE   W06
 BYTE   N05
 BYTE   W06
 BYTE   N05
 BYTE   W05
 BYTE   GoTo
  POIN2 Label_7_015BF34E
 BYTE   FINE

//**************** Track 9 (Midi-Chn.8) ****************//

song1D_009:
// 000   ----------------------------------------
 BYTE   KEYSH   song1D_key+0
 BYTE   VOICE   41
 BYTE   PAN   c_v+20
 BYTE   VOL   25*song1D_mvl/mxv
 BYTE   BEND   c_v-1
 BYTE   W12
 BYTE   N05  En4  v127
 BYTE   W06
 BYTE   Ds4
 BYTE   W06
 BYTE   En4
 BYTE   W06
 BYTE   Dn4
 BYTE   W06
 BYTE   Ds4
 BYTE   W06
 BYTE   Fn4
 BYTE   W06
 BYTE   En4
 BYTE   W06
 BYTE   Ds4
 BYTE   W06
 BYTE   Dn4
 BYTE   W06
 BYTE   Ds4
 BYTE   W06
 BYTE   En4
 BYTE   W06
 BYTE   Fn4
 BYTE   W06
 BYTE   Fs4
 BYTE   W06
 BYTE   Gn4
 BYTE   W06
// 001   ----------------------------------------
Label_8_015BF709:
 BYTE   N05  Gs4  v127
 BYTE   W06
 BYTE   An4
 BYTE   W06
 BYTE   N44  Cn5  v116
 BYTE   W48
 BYTE   N22  Bn4
 BYTE   W24
 BYTE   An4
 BYTE   W12
// 002   ----------------------------------------
Label_8_015BF718:
 BYTE   W12
 BYTE   N32  Bn4  v116
 BYTE   W36
 BYTE   Cn5
 BYTE   W36
 BYTE   N22  An4
 BYTE   W12
 BYTE   PEND 
// 003   ----------------------------------------
Label_8_015BF723:
 BYTE   W12
 BYTE   N32  An4  v116
 BYTE   W36
 BYTE   Gn4
 BYTE   W36
 BYTE   N22  Fn4
 BYTE   W12
 BYTE   PEND 
// 004   ----------------------------------------
Label_8_015BF72E:
 BYTE   W12
 BYTE   N44  En4  v116
 BYTE   W48
 BYTE   An3
 BYTE   W36
 BYTE   PEND 
// 005   ----------------------------------------
Label_8_015BF736:
 BYTE   W12
 BYTE   N22  An3  v116
 BYTE   W24
 BYTE   Dn4
 BYTE   W24
 BYTE   Fn4
 BYTE   W24
 BYTE   An4
 BYTE   W12
 BYTE   PEND 
// 006   ----------------------------------------
Label_8_015BF742:
 BYTE   W12
 BYTE   N44  Dn5  v116
 BYTE   W48
 BYTE   N22  An4
 BYTE   W24
 BYTE   Dn5
 BYTE   W12
 BYTE   PEND 
// 007   ----------------------------------------
Label_8_015BF74D:
 BYTE   W12
 BYTE   N44  Dn5  v116
 BYTE   W48
 BYTE   N16  Fn5
 BYTE   W18
 BYTE   En5
 BYTE   W18
 BYTE   PEND 
// 008   ----------------------------------------
Label_8_015BF758:
 BYTE   N11  Dn5  v116
 BYTE   W12
 BYTE   N32  Ds5
 BYTE   W36
 BYTE   Cn5
 BYTE   W36
 BYTE   N22  Gn4
 BYTE   W12
 BYTE   PEND 
// 009   ----------------------------------------
 BYTE   W12
 BYTE   N44  Cn5
 BYTE   W48
 BYTE   N22  Bn4
 BYTE   W24
 BYTE   An4
 BYTE   W12
 BYTE   PATT
  POIN2 Label_8_015BF718
 BYTE   PATT
  POIN2 Label_8_015BF723
 BYTE   PATT
  POIN2 Label_8_015BF72E
 BYTE   PATT
  POIN2 Label_8_015BF736
 BYTE   PATT
  POIN2 Label_8_015BF742
 BYTE   PATT
  POIN2 Label_8_015BF74D
 BYTE   PATT
  POIN2 Label_8_015BF758
// 010   ----------------------------------------
 BYTE   W12
 BYTE   N05  Gs3  v127
 BYTE   W06
 BYTE   An3
 BYTE   W06
 BYTE   Bn3
 BYTE   W06
 BYTE   En3
 BYTE   W06
 BYTE   En4
 BYTE   W06
 BYTE   Dn4
 BYTE   W06
 BYTE   Cn4
 BYTE   W06
 BYTE   Bn3
 BYTE   W06
 BYTE   Cn4
 BYTE   W06
 BYTE   En4
 BYTE   W06
 BYTE   Dn4
 BYTE   W06
 BYTE   En4
 BYTE   W06
 BYTE   Cn4
 BYTE   W06
 BYTE   En4
 BYTE   W06
// 011   ----------------------------------------
 BYTE   Bn3
 BYTE   W06
 BYTE   En4
 BYTE   W06
 BYTE   Ds4
 BYTE   W06
 BYTE   En4
 BYTE   W06
 BYTE   Fs4
 BYTE   W06
 BYTE   Bn3
 BYTE   W06
 BYTE   Bn4
 BYTE   W06
 BYTE   An4
 BYTE   W06
 BYTE   Gn4
 BYTE   W06
 BYTE   Fs4
 BYTE   W06
 BYTE   En4
 BYTE   W06
 BYTE   Dn4
 BYTE   W06
 BYTE   En4
 BYTE   W06
 BYTE   Cn4
 BYTE   W06
 BYTE   Bn3
 BYTE   W06
 BYTE   An3
 BYTE   W06
// 012   ----------------------------------------
 BYTE   Gn3
 BYTE   W06
 BYTE   Fs3
 BYTE   W06
 BYTE   An3
 BYTE   W06
 BYTE   Fs3
 BYTE   W06
 BYTE   Ds3
 BYTE   W06
 BYTE   Cn3
 BYTE   W06
 BYTE   Fs3
 BYTE   W06
 BYTE   Ds3
 BYTE   W06
 BYTE   Cn3
 BYTE   W06
 BYTE   An2
 BYTE   W06
 BYTE   Ds3
 BYTE   W06
 BYTE   Cn3
 BYTE   W06
 BYTE   An2
 BYTE   W06
 BYTE   Fs2
 BYTE   W06
 BYTE   Cn3
 BYTE   W06
 BYTE   An2
 BYTE   W06
// 013   ----------------------------------------
 BYTE   Fs2
 BYTE   W06
 BYTE   Ds2
 BYTE   W06
 BYTE   En2
 BYTE   W06
 BYTE   Fn2
 BYTE   W06
 BYTE   Gs2
 BYTE   W06
 BYTE   An2
 BYTE   W06
 BYTE   Bn2
 BYTE   W06
 BYTE   Cn3
 BYTE   W06
 BYTE   Dn3
 BYTE   W06
 BYTE   En3
 BYTE   W06
 BYTE   Fn3
 BYTE   W06
 BYTE   Gs3
 BYTE   W06
 BYTE   An3
 BYTE   W06
 BYTE   Bn3
 BYTE   W06
 BYTE   Cn4
 BYTE   W06
 BYTE   Dn4
 BYTE   W06
// 014   ----------------------------------------
 BYTE   En4
 BYTE   W06
 BYTE   Fn4
 BYTE   W06
 BYTE   N44  Gn4
 BYTE   W48
 BYTE   N22  Fn4
 BYTE   W24
 BYTE   Ds4
 BYTE   W12
// 015   ----------------------------------------
Label_8_015BF81C:
 BYTE   W12
 BYTE   N44  Dn4  v127
 BYTE   W48
 BYTE   N22  Gn4
 BYTE   W24
 BYTE   Dn4
 BYTE   W12
 BYTE   PEND 
// 016   ----------------------------------------
Label_8_015BF827:
 BYTE   W12
 BYTE   N16  Fs4  v127
 BYTE   W18
 BYTE   Ds4
 BYTE   W18
 BYTE   N11  Dn4
 BYTE   W12
 BYTE   N16  Cn4
 BYTE   W18
 BYTE   As3
 BYTE   W18
 BYTE   PEND 
// 017   ----------------------------------------
Label_8_015BF837:
 BYTE   N11  An3  v127
 BYTE   W12
 BYTE   N22  As3
 BYTE   W24
 BYTE   Dn4
 BYTE   W24
 BYTE   Gn4
 BYTE   W24
 BYTE   As4
 BYTE   W12
 BYTE   PEND 
// 018   ----------------------------------------
Label_8_015BF845:
 BYTE   W12
 BYTE   N44  Cn5  v127
 BYTE   W48
 BYTE   N16  As4
 BYTE   W18
 BYTE   An4
 BYTE   W18
 BYTE   PEND 
// 019   ----------------------------------------
Label_8_015BF850:
 BYTE   N11  As4  v127
 BYTE   W12
 BYTE   N44  Gn4
 BYTE   W48
 BYTE   N22  Dn5
 BYTE   W24
 BYTE   Gn4
 BYTE   W12
 BYTE   PEND 
// 020   ----------------------------------------
Label_8_015BF85D:
 BYTE   W12
 BYTE   N05  Fs4  v127
 BYTE   W06
 BYTE   Gn4
 BYTE   W06
 BYTE   An4
 BYTE   W06
 BYTE   Dn4
 BYTE   W06
 BYTE   Dn5
 BYTE   W06
 BYTE   Cn5
 BYTE   W06
 BYTE   As4
 BYTE   W06
 BYTE   An4
 BYTE   W06
 BYTE   Gn4
 BYTE   W06
 BYTE   Fs4
 BYTE   W06
 BYTE   Ds4
 BYTE   W06
 BYTE   Dn4
 BYTE   W06
 BYTE   Cn4
 BYTE   W06
 BYTE   As3
 BYTE   W06
 BYTE   PEND 
// 021   ----------------------------------------
 BYTE   An3
 BYTE   W06
 BYTE   Gn3
 BYTE   W06
 BYTE   N44  An3
 BYTE   W48
 BYTE   Dn4
 BYTE   W36
// 022   ----------------------------------------
 BYTE   W12
 BYTE   En4
 BYTE   W48
 BYTE   Gn4
 BYTE   W36
// 023   ----------------------------------------
 BYTE   W12
 BYTE   N11  Gs4
 BYTE   W12
 BYTE   An4
 BYTE   W12
 BYTE   Bn4
 BYTE   W12
 BYTE   En4
 BYTE   W12
 BYTE   En5
 BYTE   W12
 BYTE   Dn5
 BYTE   W12
 BYTE   Cn5
 BYTE   W12
// 024   ----------------------------------------
 BYTE   Bn4
 BYTE   W12
 BYTE   N16  Cn5
 BYTE   W18
 BYTE   Bn4
 BYTE   W18
 BYTE   N11  Cn5
 BYTE   W12
 BYTE   N16  Dn5
 BYTE   W18
 BYTE   Cn5
 BYTE   W18
// 025   ----------------------------------------
 BYTE   N11  Bn4
 BYTE   W12
 BYTE   N05  Fs4
 BYTE   W06
 BYTE   As4
 BYTE   W06
 BYTE   Cs5
 BYTE   W06
 BYTE   Fs5
 BYTE   W06
 BYTE   En5
 BYTE   W06
 BYTE   Dn5
 BYTE   W06
 BYTE   Cs5
 BYTE   W06
 BYTE   Bn4
 BYTE   W06
 BYTE   As4
 BYTE   W06
 BYTE   Bn4
 BYTE   W06
 BYTE   Cs5
 BYTE   W06
 BYTE   Fs4
 BYTE   W06
 BYTE   Fs5
 BYTE   W06
 BYTE   En5
 BYTE   W06
// 026   ----------------------------------------
 BYTE   Dn5
 BYTE   W06
 BYTE   Cs5
 BYTE   W06
 BYTE   N16  Bn4
 BYTE   W18
 BYTE   Cs5
 BYTE   W18
 BYTE   N11  Dn5
 BYTE   W12
 BYTE   N16  En5
 BYTE   W18
 BYTE   Dn5
 BYTE   W18
// 027   ----------------------------------------
 BYTE   N11  Cs5
 BYTE   W12
 BYTE   N44  Dn5
 BYTE   W48
 BYTE   N16
 BYTE   W18
 BYTE   Cs5
 BYTE   W18
// 028   ----------------------------------------
 BYTE   N11  Dn5
 BYTE   W12
 BYTE   N16  Ds5
 BYTE   W18
 BYTE   Gs4
 BYTE   W18
 BYTE   N11  Ds5
 BYTE   W12
 BYTE   N16  Gs5
 BYTE   W18
 BYTE   Ds5
 BYTE   W18
// 029   ----------------------------------------
 BYTE   N11  Gs4
 BYTE   W12
 BYTE   N16  Ds5
 BYTE   W18
 BYTE   Gs5
 BYTE   W18
 BYTE   N11  Ds5
 BYTE   W12
 BYTE   N44  Gs4
 BYTE   W36
// 030   ----------------------------------------
 BYTE   W12
 BYTE   Gn4
 BYTE   W48
 BYTE   N22  Fn4
 BYTE   W24
 BYTE   Ds4
 BYTE   W12
 BYTE   PATT
  POIN2 Label_8_015BF81C
 BYTE   PATT
  POIN2 Label_8_015BF827
 BYTE   PATT
  POIN2 Label_8_015BF837
 BYTE   PATT
  POIN2 Label_8_015BF845
 BYTE   PATT
  POIN2 Label_8_015BF850
 BYTE   PATT
  POIN2 Label_8_015BF85D
// 031   ----------------------------------------
 BYTE   N05  An3  v127
 BYTE   W06
 BYTE   Gn3
 BYTE   W06
 BYTE   En4
 BYTE   W06
 BYTE   Ds4
 BYTE   W06
 BYTE   En4
 BYTE   W06
 BYTE   Dn4
 BYTE   W06
 BYTE   Ds4
 BYTE   W06
 BYTE   Fn4
 BYTE   W06
 BYTE   En4
 BYTE   W06
 BYTE   Ds4
 BYTE   W06
 BYTE   Dn4
 BYTE   W06
 BYTE   Ds4
 BYTE   W06
 BYTE   En4
 BYTE   W06
 BYTE   Fn4
 BYTE   W06
 BYTE   Fs4
 BYTE   W06
 BYTE   Gn4
 BYTE   W05
 BYTE   GoTo
  POIN2 Label_8_015BF709
 BYTE   FINE

//******************************************************//
	ALIGN 4

song1D:
	BYTE	9	// NumTrks
	BYTE	0	// NumBlks
	BYTE	song1D_pri	// Priority
	BYTE	song1D_rev	// Reverb.
    
	POIN2	song1D_grp
    
	POIN2	song1D_001
	POIN2	song1D_002
	POIN2	song1D_003
	POIN2	song1D_004
	POIN2	song1D_005
	POIN2	song1D_006
	POIN2	song1D_007
	POIN2	song1D_008
	POIN2	song1D_009

	
