//Event file generated from Sappy .s format.
	#include "MPlayDef.event"

	#define	song0144_grp  voicegroup001
	#define	song0144_pri  0
	#define	song0144_rev  0
	#define	song0144_mvl  127
	#define	song0144_key  0
	#define	song0144_tbs  1
	#define	song0144_exg  0
	#define	song0144_cmp  1

	// .rodata
	//	song0144
	ALIGN 4


//**************** Track 1 (Midi-Chn.0) ****************//

song0144_001:
// 000   ----------------------------------------
 BYTE   KEYSH   song0144_key+0
 BYTE   TEMPO   132*song0144_tbs/2
 BYTE   VOICE   10
 BYTE   PAN   c_v+20
 BYTE   VOL   27*song0144_mvl/mxv
 BYTE   BEND   c_v+0
 BYTE   W24
 BYTE   N05  Cn3  v068
 BYTE   N05  Ds3  v076
 BYTE   W12
 BYTE   Cn3  v036
 BYTE   N05  Ds3
 BYTE   W12
 BYTE   Ds3  v068
 BYTE   N05  Gn3  v076
 BYTE   W12
 BYTE   Ds3  v036
 BYTE   N05  Gn3
 BYTE   W12
 BYTE   Cn3  v068
 BYTE   N05  Ds3  v076
 BYTE   W12
 BYTE   Cn3  v036
 BYTE   N05  Ds3
 BYTE   W12
// 001   ----------------------------------------
 BYTE   W24
 BYTE   Ds3  v072
 BYTE   N05  Gn3  v080
 BYTE   W12
 BYTE   Ds3  v040
 BYTE   N05  Gn3
 BYTE   W12
 BYTE   Gn3  v072
 BYTE   N05  Cn4  v080
 BYTE   W12
 BYTE   Gn3  v040
 BYTE   N05  Cn4
 BYTE   W12
 BYTE   Ds3  v072
 BYTE   N05  Gn3  v080
 BYTE   W12
 BYTE   Ds3  v040
 BYTE   N05  Gn3
 BYTE   W12
// 002   ----------------------------------------
 BYTE   W24
 BYTE   Cn3  v076
 BYTE   N05  Ds3  v088
 BYTE   W12
 BYTE   Cn3  v048
 BYTE   N05  Ds3
 BYTE   W12
 BYTE   Ds3  v076
 BYTE   N05  Gn3  v088
 BYTE   W12
 BYTE   Ds3  v048
 BYTE   N05  Gn3
 BYTE   W12
 BYTE   Cn3  v076
 BYTE   N05  Ds3  v088
 BYTE   W12
 BYTE   Cn3  v048
 BYTE   N05  Ds3
 BYTE   W12
// 003   ----------------------------------------
 BYTE   W24
 BYTE   Ds3  v080
 BYTE   N05  Gn3  v092
 BYTE   W12
 BYTE   Ds3  v052
 BYTE   N05  Gn3
 BYTE   W12
 BYTE   Gn3  v080
 BYTE   N05  Cn4  v092
 BYTE   W12
 BYTE   Gn3  v052
 BYTE   N05  Cn4
 BYTE   W12
 BYTE   Ds3  v080
 BYTE   N05  Gn3  v092
 BYTE   W12
 BYTE   Ds3  v052
 BYTE   N05  Gn3
 BYTE   W12
// 004   ----------------------------------------
Label_0_014AD969:
 BYTE   W24
 BYTE   N05  Cn3  v088
 BYTE   N05  Ds3  v096
 BYTE   W12
 BYTE   Cn3  v056
 BYTE   N05  Ds3
 BYTE   W12
 BYTE   PEND 
Label_0_014AD977:
 BYTE   N05  Ds3  v088
 BYTE   N05  Gn3  v096
 BYTE   W12
 BYTE   Ds3  v056
 BYTE   N05  Gn3
 BYTE   W12
 BYTE   Cn3  v088
 BYTE   N05  Ds3  v096
 BYTE   W12
 BYTE   Cn3  v056
 BYTE   N05  Ds3
 BYTE   W12
 BYTE   PEND 
// 005   ----------------------------------------
Label_0_014AD98F:
 BYTE   W24
 BYTE   N05  Ds3  v088
 BYTE   N05  Gn3  v096
 BYTE   W12
 BYTE   Ds3  v056
 BYTE   N05  Gn3
 BYTE   W12
 BYTE   PEND 
Label_0_014AD99D:
 BYTE   N05  Gn3  v088
 BYTE   N05  Cn4  v096
 BYTE   W12
 BYTE   Gn3  v056
 BYTE   N05  Cn4
 BYTE   W12
 BYTE   Ds3  v088
 BYTE   N05  Gn3  v096
 BYTE   W12
 BYTE   Ds3  v056
 BYTE   N05  Gn3
 BYTE   W12
 BYTE   PEND 
// 006   ----------------------------------------
Label_0_014AD9B5:
 BYTE   W24
 BYTE   N05  As2  v088
 BYTE   N05  Dn3  v096
 BYTE   W12
 BYTE   As2  v056
 BYTE   N05  Dn3
 BYTE   W12
 BYTE   PEND 
Label_0_014AD9C3:
 BYTE   N05  Dn3  v088
 BYTE   N05  Fn3  v096
 BYTE   W12
 BYTE   Dn3  v056
 BYTE   N05  Fn3
 BYTE   W12
 BYTE   As2  v088
 BYTE   N05  Dn3  v096
 BYTE   W12
 BYTE   As2  v056
 BYTE   N05  Dn3
 BYTE   W12
 BYTE   PEND 
// 007   ----------------------------------------
Label_0_014AD9DB:
 BYTE   W24
 BYTE   N05  Dn3  v088
 BYTE   N05  Fn3  v096
 BYTE   W12
 BYTE   Dn3  v056
 BYTE   N05  Fn3
 BYTE   W12
 BYTE   PEND 
Label_0_014AD9E9:
 BYTE   N05  Fn3  v088
 BYTE   N05  As3  v096
 BYTE   W12
 BYTE   Fn3  v056
 BYTE   N05  As3
 BYTE   W12
 BYTE   Dn3  v088
 BYTE   N05  Fn3  v096
 BYTE   W12
 BYTE   Dn3  v056
 BYTE   N05  Fn3
 BYTE   W12
 BYTE   PEND 
// 008   ----------------------------------------
Label_0_014ADA01:
 BYTE   W24
 BYTE   N05  Gs2  v088
 BYTE   N05  Cn3  v096
 BYTE   W12
 BYTE   Gs2  v056
 BYTE   N05  Cn3
 BYTE   W12
 BYTE   PEND 
Label_0_014ADA0F:
 BYTE   N05  Cn3  v088
 BYTE   N05  Ds3  v096
 BYTE   W12
 BYTE   Cn3  v056
 BYTE   N05  Ds3
 BYTE   W12
 BYTE   Gs2  v088
 BYTE   N05  Cn3  v096
 BYTE   W12
 BYTE   Gs2  v056
 BYTE   N05  Cn3
 BYTE   W12
 BYTE   PEND 
// 009   ----------------------------------------
 BYTE   PATT
  POIN2 Label_0_014AD9B5
// 010   ----------------------------------------
 BYTE   PATT
  POIN2 Label_0_014AD9C3
// 011   ----------------------------------------
 BYTE   PATT
  POIN2 Label_0_014AD969
// 012   ----------------------------------------
 BYTE   PATT
  POIN2 Label_0_014AD977
// 013   ----------------------------------------
 BYTE   PATT
  POIN2 Label_0_014AD99D
// 014   ----------------------------------------
Label_0_014ADA40:
 BYTE   N05  Cn4  v088
 BYTE   N05  Ds4  v096
 BYTE   W12
 BYTE   Cn4  v056
 BYTE   N05  Ds4
 BYTE   W12
 BYTE   Ds3  v088
 BYTE   N05  Gn3  v096
 BYTE   W12
 BYTE   Ds3  v056
 BYTE   N05  Gn3
 BYTE   W12
 BYTE   PEND 
Label_0_014ADA58:
 BYTE   W24
 BYTE   N05  Cn3  v088
 BYTE   N05  Ds3  v096
 BYTE   W12
 BYTE   Cn3  v052
 BYTE   N05  Ds3
 BYTE   W12
 BYTE   PEND 
// 015   ----------------------------------------
Label_0_014ADA66:
 BYTE   N05  Ds3  v080
 BYTE   N05  Gn3  v092
 BYTE   W12
 BYTE   Ds3  v048
 BYTE   N05  Gn3
 BYTE   W12
 BYTE   Cn3  v080
 BYTE   N05  Ds3  v092
 BYTE   W12
 BYTE   Cn3  v048
 BYTE   N05  Ds3
 BYTE   W12
 BYTE   PEND 
Label_0_014ADA7E:
 BYTE   N05  Gn3  v076
 BYTE   N05  Cn4  v088
 BYTE   W12
 BYTE   Gn3  v040
 BYTE   N05  Cn4
 BYTE   W12
 BYTE   Ds3  v076
 BYTE   N05  Gn3  v088
 BYTE   W12
 BYTE   Ds3  v040
 BYTE   N05  Gn3
 BYTE   W12
 BYTE   PEND 
// 016   ----------------------------------------
Label_0_014ADA96:
 BYTE   N05  Cn4  v072
 BYTE   N05  Dn4  v080
 BYTE   W12
 BYTE   Cn4  v036
 BYTE   N05  Dn4
 BYTE   W12
 BYTE   Ds3  v072
 BYTE   N05  Gn3  v080
 BYTE   W12
 BYTE   Ds3  v036
 BYTE   N05  Gn3
 BYTE   W12
 BYTE   PEND 
// 017   ----------------------------------------
 BYTE   PATT
  POIN2 Label_0_014AD969
// 018   ----------------------------------------
 BYTE   PATT
  POIN2 Label_0_014AD977
// 019   ----------------------------------------
 BYTE   PATT
  POIN2 Label_0_014AD98F
// 020   ----------------------------------------
 BYTE   PATT
  POIN2 Label_0_014AD99D
// 021   ----------------------------------------
 BYTE   PATT
  POIN2 Label_0_014AD9B5
// 022   ----------------------------------------
 BYTE   PATT
  POIN2 Label_0_014AD9C3
// 023   ----------------------------------------
 BYTE   PATT
  POIN2 Label_0_014AD9DB
// 024   ----------------------------------------
 BYTE   PATT
  POIN2 Label_0_014AD9E9
// 025   ----------------------------------------
 BYTE   PATT
  POIN2 Label_0_014ADA01
// 026   ----------------------------------------
 BYTE   PATT
  POIN2 Label_0_014ADA0F
// 027   ----------------------------------------
 BYTE   PATT
  POIN2 Label_0_014AD9B5
// 028   ----------------------------------------
 BYTE   PATT
  POIN2 Label_0_014AD9C3
// 029   ----------------------------------------
 BYTE   PATT
  POIN2 Label_0_014AD969
// 030   ----------------------------------------
 BYTE   PATT
  POIN2 Label_0_014AD977
// 031   ----------------------------------------
 BYTE   PATT
  POIN2 Label_0_014AD99D
// 032   ----------------------------------------
 BYTE   PATT
  POIN2 Label_0_014ADA40
// 033   ----------------------------------------
 BYTE   PATT
  POIN2 Label_0_014ADA58
// 034   ----------------------------------------
 BYTE   PATT
  POIN2 Label_0_014ADA66
// 035   ----------------------------------------
 BYTE   PATT
  POIN2 Label_0_014ADA7E
// 036   ----------------------------------------
 BYTE   PATT
  POIN2 Label_0_014ADA96
// 037   ----------------------------------------
 BYTE   N23  Gs3  v108
 BYTE   W24
 BYTE   As3  v100
 BYTE   W24
 BYTE   Cn4  v108
 BYTE   W24
 BYTE   Dn4  v112
 BYTE   W24
// 038   ----------------------------------------
 BYTE   Ds4  v120
 BYTE   W24
 BYTE   Fn4  v116
 BYTE   W24
Label_0_014ADB25:
 BYTE   N23  Gn4  v120
 BYTE   W24
 BYTE   Gs4  v127
 BYTE   W24
 BYTE   PEND 
// 039   ----------------------------------------
 BYTE   TIE  Gn4  v116
 BYTE   W48
 BYTE   W48
// 040   ----------------------------------------
 BYTE   W44
 BYTE   W03
 BYTE   EOT
 BYTE   W01
 BYTE   N44  Gn4  v112
 BYTE   W48
// 041   ----------------------------------------
 BYTE   N23  Gs4  v127
 BYTE   W24
 BYTE   Gn4  v116
 BYTE   W24
 BYTE   N68  Fn4  v108
 BYTE   W48
// 042   ----------------------------------------
 BYTE   W24
 BYTE   N23  Ds4  v116
 BYTE   W24
 BYTE   Dn4  v112
 BYTE   W24
 BYTE   Cn4  v100
 BYTE   W24
// 043   ----------------------------------------
 BYTE   TIE  Dn4  v120
 BYTE   W48
 BYTE   W48
// 044   ----------------------------------------
 BYTE   W48
 BYTE   W44
 BYTE   W03
 BYTE   EOT
 BYTE   W01
// 045   ----------------------------------------
 BYTE   N23  Gs3  v092
 BYTE   W24
 BYTE   As3  v096
 BYTE   W24
 BYTE   Cn4  v100
 BYTE   W24
 BYTE   Dn4  v108
 BYTE   W24
// 046   ----------------------------------------
 BYTE   Ds4  v112
 BYTE   W24
 BYTE   Fn4  v116
 BYTE   W24
// 047   ----------------------------------------
 BYTE   PATT
  POIN2 Label_0_014ADB25
// 048   ----------------------------------------
 BYTE   TIE  As4  v116
 BYTE   W48
 BYTE   W48
// 049   ----------------------------------------
 BYTE   W44
 BYTE   W03
 BYTE   EOT
 BYTE   W01
 BYTE   N44  Ds4  v112
 BYTE   W48
// 050   ----------------------------------------
 BYTE   N23  Cn5  v127
 BYTE   W24
 BYTE   Cn4  v108
 BYTE   W24
 BYTE   Dn4  v116
 BYTE   W24
 BYTE   Ds4  v112
 BYTE   W24
// 051   ----------------------------------------
 BYTE   Fn4  v116
 BYTE   W24
 BYTE   Gn4  v120
 BYTE   W24
 BYTE   Gs4  v127
 BYTE   W24
 BYTE   Fn4  v112
 BYTE   W24
// 052   ----------------------------------------
 BYTE   TIE  Gn4  v120
 BYTE   W48
 BYTE   W48
// 053   ----------------------------------------
 BYTE   W48
 BYTE   W44
 BYTE   W03
 BYTE   EOT
 BYTE   W01
// 054   ----------------------------------------
 BYTE   W48
 BYTE   W48
// 055   ----------------------------------------
 BYTE   W48
 BYTE   W48
// 056   ----------------------------------------
 BYTE   TIE  Gn2  v080
 BYTE   TIE  Cn3  v092
 BYTE   W48
 BYTE   W48
// 057   ----------------------------------------
 BYTE   W48
 BYTE   W44
 BYTE   W03
 BYTE   EOT
 BYTE   Gn2  v060
 BYTE   W01
// 058   ----------------------------------------
 BYTE   TIE  As2  v080
 BYTE   TIE  Ds3  v092
 BYTE   W48
 BYTE   W48
// 059   ----------------------------------------
 BYTE   W48
 BYTE   W44
 BYTE   W03
 BYTE   EOT
 BYTE   As2  v063
 BYTE   W01
// 060   ----------------------------------------
 BYTE   TIE  Fn2  v080
 BYTE   TIE  As2  v092
 BYTE   W48
 BYTE   W48
// 061   ----------------------------------------
 BYTE   W48
 BYTE   W44
 BYTE   W03
 BYTE   EOT
 BYTE   Fn2  v058
 BYTE   W01
// 062   ----------------------------------------
 BYTE   TIE  Gn2  v080
 BYTE   N92  Cn3  v092
 BYTE   W48
 BYTE   W48
// 063   ----------------------------------------
 BYTE   Bn2
 BYTE   W48
 BYTE   W44
 BYTE   W03
 BYTE   EOT
 BYTE   Gn2
 BYTE   W01
// 064   ----------------------------------------
 BYTE   TIE  Cn3  v080
 BYTE   TIE  Ds3  v092
 BYTE   W48
 BYTE   W48
// 065   ----------------------------------------
 BYTE   W48
 BYTE   W44
 BYTE   W03
 BYTE   EOT
 BYTE   Cn3  v063
 BYTE   W01
// 066   ----------------------------------------
 BYTE   TIE  Ds3  v080
 BYTE   TIE  Gn3  v092
 BYTE   W48
 BYTE   W48
// 067   ----------------------------------------
 BYTE   W48
 BYTE   W44
 BYTE   W03
 BYTE   EOT
 BYTE   Ds3  v067
 BYTE   W01
// 068   ----------------------------------------
 BYTE   TIE  Dn3  v080
 BYTE   TIE  Fn3  v092
 BYTE   W48
 BYTE   W48
// 069   ----------------------------------------
 BYTE   W48
 BYTE   W44
 BYTE   W03
 BYTE   EOT
 BYTE   Dn3  v065
 BYTE   W01
// 070   ----------------------------------------
 BYTE   TIE  Dn3  v080
 BYTE   TIE  Gn3  v092
 BYTE   W48
 BYTE   W48
// 071   ----------------------------------------
 BYTE   W48
 BYTE   W44
 BYTE   W03
 BYTE   EOT
 BYTE   Dn3  v067
 BYTE   W01
// 072   ----------------------------------------
 BYTE   GoTo
  POIN2 Label_0_014AD969
 BYTE   FINE

//**************** Track 2 (Midi-Chn.1) ****************//

song0144_002:
// 000   ----------------------------------------
 BYTE   KEYSH   song0144_key+0
 BYTE   VOICE   35
 BYTE   PAN   c_v+0
 BYTE   VOL   22*song0144_mvl/mxv
 BYTE   BEND   c_v+0
 BYTE   TIE  Cn1  v100
 BYTE   W48
 BYTE   W48
// 001   ----------------------------------------
 BYTE   W44
 BYTE   W03
 BYTE   EOT
 BYTE   W01
Label_1_0145A813:
 BYTE   TIE  Gn1  v100
 BYTE   W30
 BYTE   BEND   c_v+1
 BYTE   W02
 BYTE   BEND   c_v+2
 BYTE   W02
 BYTE   BEND   c_v+5
 BYTE   W02
 BYTE   BEND   c_v+7
 BYTE   W02
 BYTE   BEND   c_v+10
 BYTE   W02
 BYTE   BEND   c_v+13
 BYTE   W02
 BYTE   BEND   c_v+16
 BYTE   W02
 BYTE   BEND   c_v+21
 BYTE   W02
 BYTE   BEND   c_v+26
 BYTE   W02
 BYTE   PEND 
// 002   ----------------------------------------
 BYTE   W48
 BYTE   W48
// 003   ----------------------------------------
 BYTE   W44
 BYTE   W03
 BYTE   EOT
 BYTE   W01
Label_1_0145A831:
 BYTE   BEND   c_v+0
 BYTE   N44  Gn1  v100
 BYTE   W48
 BYTE   PEND 
// 004   ----------------------------------------
Label_1_0145A838:
 BYTE   TIE  Cn2  v100
 BYTE   W48
 BYTE   W48
// 005   ----------------------------------------
 BYTE   W48
 BYTE   W44
 BYTE   W03
 BYTE   EOT
 BYTE   W01
// 006   ----------------------------------------
 BYTE   TIE  As1
 BYTE   W48
 BYTE   W48
// 007   ----------------------------------------
 BYTE   W48
 BYTE   W44
 BYTE   W03
 BYTE   EOT
 BYTE   W01
// 008   ----------------------------------------
 BYTE   N92  Gs1
 BYTE   W48
 BYTE   W48
// 009   ----------------------------------------
 BYTE   As1
 BYTE   W48
 BYTE   W48
// 010   ----------------------------------------
 BYTE   BEND   c_v-11
 BYTE   TIE  Cn2
 BYTE   W01
 BYTE   BEND   c_v-6
 BYTE   W02
 BYTE   BEND   c_v-3
 BYTE   W01
 BYTE   BEND   c_v+0
 BYTE   W44
 BYTE   W48
// 011   ----------------------------------------
 BYTE   W48
 BYTE   EOT
// 012   ----------------------------------------
 BYTE   PATT
  POIN2 Label_1_0145A813
// 013   ----------------------------------------
 BYTE   W48
 BYTE   W48
// 014   ----------------------------------------
 BYTE   W44
 BYTE   W03
 BYTE   EOT
 BYTE   Gn1
 BYTE   W01
// 015   ----------------------------------------
 BYTE   PATT
  POIN2 Label_1_0145A831
// 016   ----------------------------------------
 BYTE   TIE  Cn1  v100
 BYTE   W48
 BYTE   W48
// 017   ----------------------------------------
 BYTE   W32
 BYTE   BEND   c_v+5
 BYTE   W02
 BYTE   BEND   c_v+10
 BYTE   W02
 BYTE   BEND   c_v+16
 BYTE   W02
 BYTE   BEND   c_v+21
 BYTE   W02
 BYTE   BEND   c_v+26
 BYTE   W02
 BYTE   BEND   c_v+32
 BYTE   W02
 BYTE   BEND   c_v+42
 BYTE   W02
 BYTE   BEND   c_v+53
 BYTE   W02
 BYTE   EOT
 BYTE   BEND   c_v+0
 BYTE   N44  Cn2
 BYTE   W48
// 018   ----------------------------------------
 BYTE   BEND   c_v-11
 BYTE   N96  As1
 BYTE   W03
 BYTE   BEND   c_v-6
 BYTE   W03
 BYTE   BEND   c_v-3
 BYTE   W03
 BYTE   BEND   c_v+0
 BYTE   W36
 BYTE   W03
 BYTE   W32
 BYTE   W02
 BYTE   BEND   c_v-6
 BYTE   W02
 BYTE   BEND   c_v-11
 BYTE   W02
 BYTE   BEND   c_v-16
 BYTE   W02
 BYTE   BEND   c_v-27
 BYTE   W02
 BYTE   BEND   c_v-38
 BYTE   W02
 BYTE   BEND   c_v-48
 BYTE   W02
 BYTE   BEND   c_v-59
 BYTE   W02
// 019   ----------------------------------------
 BYTE   BEND   c_v+0
 BYTE   N92  As0
 BYTE   W48
 BYTE   W48
// 020   ----------------------------------------
 BYTE   Gs0
 BYTE   W48
 BYTE   W48
// 021   ----------------------------------------
 BYTE   As0
 BYTE   W48
 BYTE   W48
// 022   ----------------------------------------
 BYTE   BEND   c_v-11
 BYTE   TIE  Cn1
 BYTE   W01
 BYTE   BEND   c_v-6
 BYTE   W02
 BYTE   BEND   c_v-3
 BYTE   W01
 BYTE   BEND   c_v+0
 BYTE   W44
 BYTE   W48
// 023   ----------------------------------------
 BYTE   W48
 BYTE   EOT
// 024   ----------------------------------------
 BYTE   PATT
  POIN2 Label_1_0145A813
// 025   ----------------------------------------
 BYTE   W48
 BYTE   W48
// 026   ----------------------------------------
 BYTE   W44
 BYTE   W03
 BYTE   EOT
 BYTE   Gn1
 BYTE   W01
 BYTE   BEND   c_v+0
 BYTE   N44  Gn0  v100
 BYTE   W48
// 027   ----------------------------------------
 BYTE   N60  Fn1
 BYTE   W48
 BYTE   W24
 BYTE   TIE
 BYTE   W24
// 028   ----------------------------------------
 BYTE   W48
 BYTE   W44
 BYTE   W02
 BYTE   EOT
 BYTE   W02
// 029   ----------------------------------------
 BYTE   N60  Ds1
 BYTE   W48
Label_1_0145A8E6:
 BYTE   W24
 BYTE   TIE  Ds1  v100
 BYTE   W24
 BYTE   PEND 
// 030   ----------------------------------------
 BYTE   W48
 BYTE   W44
 BYTE   W02
 BYTE   EOT
 BYTE   W02
// 031   ----------------------------------------
 BYTE   N60  Dn1
 BYTE   W48
 BYTE   W24
 BYTE   N68
 BYTE   W24
// 032   ----------------------------------------
 BYTE   W48
 BYTE   N44  Gs1
 BYTE   W48
// 033   ----------------------------------------
 BYTE   TIE  Gn1
 BYTE   W08
 BYTE   BEND   c_v-6
 BYTE   W08
 BYTE   BEND   c_v+0
 BYTE   W32
 BYTE   W48
// 034   ----------------------------------------
 BYTE   W20
 BYTE   EOT
 BYTE   W04
 BYTE   N08  Dn1
 BYTE   W24
 BYTE   N44  Gn0
 BYTE   W48
// 035   ----------------------------------------
 BYTE   N60  Fn0
 BYTE   W48
 BYTE   W24
 BYTE   TIE
 BYTE   W24
// 036   ----------------------------------------
 BYTE   W48
 BYTE   W44
 BYTE   W02
 BYTE   EOT
 BYTE   W02
// 037   ----------------------------------------
 BYTE   N60  Ds1
 BYTE   W48
// 038   ----------------------------------------
 BYTE   PATT
  POIN2 Label_1_0145A8E6
// 039   ----------------------------------------
 BYTE   W48
 BYTE   W44
 BYTE   W02
 BYTE   EOT
 BYTE   Ds1
 BYTE   W02
// 040   ----------------------------------------
 BYTE   N22  Gs1  v100
 BYTE   W24
 BYTE   Gs0
 BYTE   W24
 BYTE   W24
 BYTE   N44
 BYTE   W24
// 041   ----------------------------------------
 BYTE   W24
 BYTE   N44
 BYTE   W24
 BYTE   W24
 BYTE   BEND   c_v-11
 BYTE   N92  As1
 BYTE   W24
// 042   ----------------------------------------
 BYTE   BEND   c_v-8
 BYTE   W01
 BYTE   BEND   c_v-6
 BYTE   W02
 BYTE   BEND   c_v-3
 BYTE   W01
 BYTE   BEND   c_v+0
 BYTE   W44
 BYTE   W24
 BYTE   TIE
 BYTE   W24
// 043   ----------------------------------------
 BYTE   W48
 BYTE   W36
 BYTE   BEND   c_v-3
 BYTE   W02
 BYTE   BEND   c_v-6
 BYTE   W02
 BYTE   BEND   c_v-8
 BYTE   W02
 BYTE   BEND   c_v-11
 BYTE   W02
 BYTE   BEND   c_v-14
 BYTE   W02
 BYTE   BEND   c_v-16
 BYTE   W01
 BYTE   EOT
 BYTE   W01
// 044   ----------------------------------------
 BYTE   BEND   c_v+0
 BYTE   N68  Gn1
 BYTE   W48
 BYTE   W04
 BYTE   BEND   c_v-6
 BYTE   W02
 BYTE   BEND   c_v-11
 BYTE   W02
 BYTE   BEND   c_v-16
 BYTE   W02
 BYTE   BEND   c_v-22
 BYTE   W02
 BYTE   BEND   c_v-27
 BYTE   W02
 BYTE   BEND   c_v-32
 BYTE   W02
 BYTE   BEND   c_v-38
 BYTE   W02
 BYTE   BEND   c_v-43
 BYTE   W02
 BYTE   BEND   c_v-54
 BYTE   W02
 BYTE   BEND   c_v-64
 BYTE   W02
 BYTE   BEND   c_v+0
 BYTE   TIE  Gn0
 BYTE   W24
// 045   ----------------------------------------
 BYTE   W48
 BYTE   W44
 BYTE   EOT
 BYTE   W04
// 046   ----------------------------------------
 BYTE   TIE  Cn1
 BYTE   W48
 BYTE   W48
// 047   ----------------------------------------
 BYTE   W48
 BYTE   W44
 BYTE   W03
 BYTE   EOT
 BYTE   W01
// 048   ----------------------------------------
 BYTE   TIE  Ds1
 BYTE   W48
 BYTE   W48
// 049   ----------------------------------------
 BYTE   W48
 BYTE   W44
 BYTE   W03
 BYTE   EOT
 BYTE   W01
// 050   ----------------------------------------
 BYTE   TIE  As0
 BYTE   W48
 BYTE   W48
// 051   ----------------------------------------
 BYTE   W48
 BYTE   W44
 BYTE   W03
 BYTE   EOT
 BYTE   W01
// 052   ----------------------------------------
 BYTE   N92  Gn0
 BYTE   W48
 BYTE   W48
// 053   ----------------------------------------
 BYTE   N92
 BYTE   W48
 BYTE   W48
// 054   ----------------------------------------
 BYTE   TIE  Cn1
 BYTE   W48
 BYTE   W48
// 055   ----------------------------------------
 BYTE   W48
 BYTE   W44
 BYTE   W03
 BYTE   EOT
 BYTE   W01
// 056   ----------------------------------------
 BYTE   TIE  Ds1
 BYTE   W48
 BYTE   W48
// 057   ----------------------------------------
 BYTE   W48
 BYTE   W44
 BYTE   W03
 BYTE   EOT
 BYTE   W01
// 058   ----------------------------------------
 BYTE   TIE  As0
 BYTE   W48
 BYTE   W48
// 059   ----------------------------------------
 BYTE   W48
 BYTE   W44
 BYTE   W03
 BYTE   EOT
 BYTE   W01
// 060   ----------------------------------------
 BYTE   N92  Gn0
 BYTE   W48
 BYTE   W48
// 061   ----------------------------------------
 BYTE   N92
 BYTE   W48
 BYTE   W44
 BYTE   W03
 BYTE   BEND   c_v+26
 BYTE   W01
// 062   ----------------------------------------
 BYTE   GoTo
  POIN2 Label_1_0145A838
 BYTE   FINE

//**************** Track 3 (Midi-Chn.2) ****************//

song0144_003:
// 000   ----------------------------------------
 BYTE   KEYSH   song0144_key+0
 BYTE   VOICE   52
 BYTE   PAN   c_v+0
 BYTE   VOL   24*song0144_mvl/mxv
 BYTE   BEND   c_v+0
 BYTE   TIE  Gn2  v080
 BYTE   TIE  Ds3  v092
 BYTE   W04
 BYTE   W02
 BYTE   W02
 BYTE   W04
 BYTE   W02
 BYTE   W02
 BYTE   W02
 BYTE   W02
 BYTE   W02
 BYTE   W02
 BYTE   W03
 BYTE   W03
 BYTE   W03
 BYTE   W03
 BYTE   W03
 BYTE   W03
 BYTE   W03
 BYTE   W03
 BYTE   W48
// 001   ----------------------------------------
 BYTE   W48
 BYTE   W48
// 002   ----------------------------------------
 BYTE   W48
 BYTE   W48
// 003   ----------------------------------------
 BYTE   W48
 BYTE   W03
 BYTE   W03
 BYTE   W03
 BYTE   W03
 BYTE   W03
 BYTE   W03
 BYTE   W03
 BYTE   W03
 BYTE   W02
 BYTE   W02
 BYTE   W02
 BYTE   W02
 BYTE   W02
 BYTE   W02
 BYTE   W02
 BYTE   W02
 BYTE   W02
 BYTE   W02
 BYTE   W02
 BYTE   W01
 BYTE   EOT
 BYTE   Gn2  v063
 BYTE   W01
// 004   ----------------------------------------
Label_2_014ADC64:
 BYTE   TIE  Gn2  v080
 BYTE   TIE  Ds3  v092
 BYTE   W03
 BYTE   W03
 BYTE   W03
 BYTE   W03
 BYTE   W03
 BYTE   W03
 BYTE   W03
 BYTE   W24
 BYTE   W03
 BYTE   PEND 
 BYTE   W48
// 005   ----------------------------------------
 BYTE   W48
 BYTE   W44
 BYTE   W03
 BYTE   EOT
 BYTE   Gn2  v063
 BYTE   W01
// 006   ----------------------------------------
Label_2_014ADC7C:
 BYTE   TIE  As2  v080
 BYTE   TIE  Fn3  v092
 BYTE   W48
 BYTE   PEND 
 BYTE   W48
// 007   ----------------------------------------
 BYTE   W48
 BYTE   W44
 BYTE   W03
 BYTE   EOT
 BYTE   As2  v065
 BYTE   W01
// 008   ----------------------------------------
Label_2_014ADC8C:
 BYTE   N92  Gs2  v080
 BYTE   N92  Ds3  v092
 BYTE   W48
 BYTE   PEND 
 BYTE   W48
// 009   ----------------------------------------
Label_2_014ADC95:
 BYTE   N92  Fn2  v080
 BYTE   N92  Dn3  v092
 BYTE   W48
 BYTE   PEND 
 BYTE   W48
// 010   ----------------------------------------
Label_2_014ADC9E:
 BYTE   TIE  Gn2  v080
 BYTE   TIE  Ds3  v092
 BYTE   W48
 BYTE   PEND 
 BYTE   W48
// 011   ----------------------------------------
 BYTE   W48
 BYTE   W48
// 012   ----------------------------------------
 BYTE   W48
 BYTE   W48
// 013   ----------------------------------------
 BYTE   W48
Label_2_014ADCAC:
 BYTE   W03
 BYTE   W03
 BYTE   W03
 BYTE   W03
 BYTE   W03
 BYTE   W03
 BYTE   W03
 BYTE   W03
 BYTE   W03
 BYTE   W03
 BYTE   W03
 BYTE   W03
 BYTE   W03
 BYTE   W03
 BYTE   W03
 BYTE   W02
 BYTE   PEND 
 BYTE   EOT
 BYTE   Gn2  v063
 BYTE   W01
// 014   ----------------------------------------
 BYTE   PATT
  POIN2 Label_2_014ADC64
// 015   ----------------------------------------
 BYTE   W48
 BYTE   W48
// 016   ----------------------------------------
 BYTE   W44
 BYTE   W03
 BYTE   EOT
 BYTE   Gn2  v063
 BYTE   W01
// 017   ----------------------------------------
 BYTE   PATT
  POIN2 Label_2_014ADC7C
// 018   ----------------------------------------
 BYTE   W48
 BYTE   W48
// 019   ----------------------------------------
 BYTE   W44
 BYTE   W03
 BYTE   EOT
 BYTE   As2  v065
 BYTE   W01
// 020   ----------------------------------------
 BYTE   PATT
  POIN2 Label_2_014ADC8C
// 021   ----------------------------------------
 BYTE   W48
// 022   ----------------------------------------
 BYTE   PATT
  POIN2 Label_2_014ADC95
// 023   ----------------------------------------
 BYTE   W48
// 024   ----------------------------------------
 BYTE   PATT
  POIN2 Label_2_014ADC9E
// 025   ----------------------------------------
 BYTE   W48
 BYTE   W48
// 026   ----------------------------------------
 BYTE   W48
 BYTE   W48
// 027   ----------------------------------------
 BYTE   W48
 BYTE   W48
// 028   ----------------------------------------
 BYTE   PATT
  POIN2 Label_2_014ADCAC
// 029   ----------------------------------------
 BYTE   EOT
 BYTE   Gn2  v063
 BYTE   W01
 BYTE   W24
 BYTE   N05  Cn3  v092
 BYTE   N04  Fn3  v100
 BYTE   W12
 BYTE   N05  Cn3  v060
 BYTE   N05  Fn3
 BYTE   W12
Label_2_014ADD09:
 BYTE   N05  Fn3  v092
 BYTE   N04  Gs3  v100
 BYTE   W12
 BYTE   N05  Fn3  v060
 BYTE   N05  Gs3
 BYTE   W12
 BYTE   Fn3  v040
 BYTE   N05  Gs3
 BYTE   W24
 BYTE   PEND 
// 030   ----------------------------------------
Label_2_014ADD1C:
 BYTE   W24
 BYTE   N05  Cn3  v092
 BYTE   N04  Fn3  v100
 BYTE   W12
 BYTE   N05  Cn3  v060
 BYTE   N05  Fn3
 BYTE   W12
 BYTE   PEND 
// 031   ----------------------------------------
 BYTE   PATT
  POIN2 Label_2_014ADD09
// 032   ----------------------------------------
Label_2_014ADD30:
 BYTE   W24
 BYTE   N05  Ds3  v092
 BYTE   N04  Gn3  v100
 BYTE   W12
 BYTE   N05  Ds3  v060
 BYTE   N05  Gn3
 BYTE   W12
 BYTE   PEND 
Label_2_014ADD3F:
 BYTE   N05  Gn3  v092
 BYTE   N04  As3  v100
 BYTE   W12
 BYTE   N05  Gn3  v060
 BYTE   N05  As3
 BYTE   W12
 BYTE   Gn3  v040
 BYTE   N05  As3
 BYTE   W24
 BYTE   PEND 
// 033   ----------------------------------------
Label_2_014ADD52:
 BYTE   W24
 BYTE   N05  As2  v092
 BYTE   N04  Ds3  v100
 BYTE   W12
 BYTE   N05  As2  v060
 BYTE   N05  Ds3
 BYTE   W12
 BYTE   PEND 
Label_2_014ADD61:
 BYTE   N05  Ds3  v092
 BYTE   N04  Gn3  v100
 BYTE   W12
 BYTE   N05  Ds3  v060
 BYTE   N05  Gn3
 BYTE   W12
 BYTE   Ds3  v040
 BYTE   N05  Gn3
 BYTE   W24
 BYTE   PEND 
// 034   ----------------------------------------
 BYTE   W24
 BYTE   Dn3  v092
 BYTE   N04  Fn3  v100
 BYTE   W12
 BYTE   N05  Dn3  v060
 BYTE   N05  Fn3
 BYTE   W12
// 035   ----------------------------------------
 BYTE   PATT
  POIN2 Label_2_014ADD09
// 036   ----------------------------------------
 BYTE   W24
 BYTE   N05  Gs2  v092
 BYTE   N04  Dn3  v100
 BYTE   W12
 BYTE   N05  Gs2  v060
 BYTE   N05  Dn3
 BYTE   W12
Label_2_014ADD94:
 BYTE   N05  Dn3  v092
 BYTE   N04  Fn3  v100
 BYTE   W12
 BYTE   N05  Dn3  v060
 BYTE   N05  Fn3
 BYTE   W12
 BYTE   Dn3  v040
 BYTE   N05  Fn3
 BYTE   W24
 BYTE   PEND 
// 037   ----------------------------------------
 BYTE   W24
 BYTE   Bn2  v092
 BYTE   N04  Dn3  v100
 BYTE   W12
 BYTE   N05  Bn2  v060
 BYTE   N05  Dn3
 BYTE   W12
 BYTE   Dn3  v092
 BYTE   N04  Gn3  v100
 BYTE   W12
 BYTE   N05  Dn3  v060
 BYTE   N05  Gn3
 BYTE   W12
 BYTE   Dn3  v040
 BYTE   N05  Gn3
 BYTE   W24
// 038   ----------------------------------------
Label_2_014ADDC5:
 BYTE   W24
 BYTE   N05  Dn3  v092
 BYTE   N04  Gn3  v100
 BYTE   W12
 BYTE   N05  Dn3  v060
 BYTE   N05  Gn3
 BYTE   W12
 BYTE   PEND 
Label_2_014ADDD4:
 BYTE   N05  Gn3  v092
 BYTE   N04  Bn3  v100
 BYTE   W12
 BYTE   N05  Gn3  v060
 BYTE   N05  Bn3
 BYTE   W12
 BYTE   Gn3  v040
 BYTE   N05  Bn3
 BYTE   W24
 BYTE   PEND 
// 039   ----------------------------------------
 BYTE   PATT
  POIN2 Label_2_014ADD1C
// 040   ----------------------------------------
 BYTE   PATT
  POIN2 Label_2_014ADD09
// 041   ----------------------------------------
 BYTE   PATT
  POIN2 Label_2_014ADD1C
// 042   ----------------------------------------
 BYTE   PATT
  POIN2 Label_2_014ADD09
// 043   ----------------------------------------
 BYTE   PATT
  POIN2 Label_2_014ADD30
// 044   ----------------------------------------
 BYTE   PATT
  POIN2 Label_2_014ADD3F
// 045   ----------------------------------------
 BYTE   PATT
  POIN2 Label_2_014ADD52
// 046   ----------------------------------------
 BYTE   PATT
  POIN2 Label_2_014ADD61
// 047   ----------------------------------------
 BYTE   W24
 BYTE   N05  Cn3  v092
 BYTE   N04  Ds3  v100
 BYTE   W12
 BYTE   N05  Cn3  v060
 BYTE   N05  Ds3
 BYTE   W12
 BYTE   Ds3  v092
 BYTE   N04  Gs3  v100
 BYTE   W12
 BYTE   N05  Ds3  v060
 BYTE   N05  Gs3
 BYTE   W12
 BYTE   Ds3  v040
 BYTE   N05  Gs3
 BYTE   W24
// 048   ----------------------------------------
 BYTE   W24
 BYTE   Gs2  v092
 BYTE   N04  Cn3  v100
 BYTE   W12
 BYTE   N05  Gs2  v060
 BYTE   N05  Cn3
 BYTE   W12
 BYTE   Cn3  v092
 BYTE   N04  Ds3  v100
 BYTE   W12
 BYTE   N05  Cn3  v060
 BYTE   N05  Ds3
 BYTE   W12
 BYTE   Cn3  v040
 BYTE   N05  Ds3
 BYTE   W24
// 049   ----------------------------------------
Label_2_014ADE4C:
 BYTE   W24
 BYTE   N05  As2  v092
 BYTE   N04  Dn3  v100
 BYTE   W12
 BYTE   N05  As2  v060
 BYTE   N05  Dn3
 BYTE   W12
 BYTE   PEND 
// 050   ----------------------------------------
 BYTE   PATT
  POIN2 Label_2_014ADD94
// 051   ----------------------------------------
 BYTE   PATT
  POIN2 Label_2_014ADE4C
// 052   ----------------------------------------
 BYTE   PATT
  POIN2 Label_2_014ADD94
// 053   ----------------------------------------
 BYTE   PATT
  POIN2 Label_2_014ADDC5
// 054   ----------------------------------------
 BYTE   PATT
  POIN2 Label_2_014ADDD4
// 055   ----------------------------------------
 BYTE   W24
 BYTE   N05  Gn3  v092
 BYTE   N04  Bn3  v100
 BYTE   W12
 BYTE   N05  Gn3  v060
 BYTE   N05  Bn3
 BYTE   W12
 BYTE   Bn3  v092
 BYTE   N04  Dn4  v100
 BYTE   W12
 BYTE   N05  Bn3  v060
 BYTE   N05  Dn4
 BYTE   W12
 BYTE   Bn3  v040
 BYTE   N05  Dn4
 BYTE   W24
// 056   ----------------------------------------
Label_2_014ADE93:
 BYTE   TIE  Ds3  v060
 BYTE   TIE  Gn3  v072
 BYTE   W02
 BYTE   W02
 BYTE   W02
 BYTE   W02
 BYTE   W02
 BYTE   W02
 BYTE   W02
 BYTE   W02
 BYTE   W02
 BYTE   W02
 BYTE   W02
 BYTE   W02
 BYTE   W02
 BYTE   W02
 BYTE   W02
 BYTE   W02
 BYTE   W02
 BYTE   W02
 BYTE   W02
 BYTE   W02
 BYTE   W02
 BYTE   W02
 BYTE   W02
 BYTE   W02
 BYTE   PEND 
 BYTE   W48
// 057   ----------------------------------------
 BYTE   W48
Label_2_014ADEB4:
 BYTE   W03
 BYTE   W03
 BYTE   W03
 BYTE   W03
 BYTE   W03
 BYTE   W03
 BYTE   W03
 BYTE   W03
 BYTE   W02
 BYTE   W02
 BYTE   W02
 BYTE   W02
 BYTE   W02
 BYTE   W02
 BYTE   W02
 BYTE   W02
 BYTE   W02
 BYTE   W02
 BYTE   W02
 BYTE   PEND 
 BYTE   EOT
 BYTE   Gn3
 BYTE   W01
 BYTE   Ds3
 BYTE   W01
// 058   ----------------------------------------
 BYTE   PATT
  POIN2 Label_2_014ADE93
// 059   ----------------------------------------
 BYTE   W48
 BYTE   W48
// 060   ----------------------------------------
 BYTE   PATT
  POIN2 Label_2_014ADEB4
// 061   ----------------------------------------
 BYTE   EOT
 BYTE   Gn3
 BYTE   W01
 BYTE   Ds3
 BYTE   W01
 BYTE   TIE  Dn3  v060
 BYTE   TIE  Fn3  v072
 BYTE   W02
 BYTE   W02
 BYTE   W02
 BYTE   W02
 BYTE   W02
 BYTE   W02
 BYTE   W02
 BYTE   W02
 BYTE   W02
 BYTE   W02
 BYTE   W02
 BYTE   W02
 BYTE   W02
 BYTE   W02
 BYTE   W02
 BYTE   W02
 BYTE   W02
 BYTE   W02
 BYTE   W02
 BYTE   W02
 BYTE   W02
 BYTE   W02
 BYTE   W02
 BYTE   W02
 BYTE   W48
// 062   ----------------------------------------
 BYTE   W48
// 063   ----------------------------------------
 BYTE   PATT
  POIN2 Label_2_014ADEB4
// 064   ----------------------------------------
 BYTE   EOT
 BYTE   Fn3
 BYTE   W01
 BYTE   Dn3
 BYTE   W01
 BYTE   N92  Cn3  v060
 BYTE   TIE  Gn3  v072
 BYTE   W02
 BYTE   W02
 BYTE   W02
 BYTE   W02
 BYTE   W02
 BYTE   W02
 BYTE   W02
 BYTE   W02
 BYTE   W02
 BYTE   W02
 BYTE   W02
 BYTE   W02
 BYTE   W02
 BYTE   W02
 BYTE   W02
 BYTE   W02
 BYTE   W02
 BYTE   W02
 BYTE   W02
 BYTE   W02
 BYTE   W02
 BYTE   W02
 BYTE   W02
 BYTE   W02
 BYTE   W48
// 065   ----------------------------------------
 BYTE   N92  Bn2
 BYTE   W48
// 066   ----------------------------------------
 BYTE   PATT
  POIN2 Label_2_014ADEB4
// 067   ----------------------------------------
 BYTE   EOT
 BYTE   Gn3
 BYTE   W02
// 068   ----------------------------------------
 BYTE   PATT
  POIN2 Label_2_014ADE93
// 069   ----------------------------------------
 BYTE   W48
 BYTE   W48
// 070   ----------------------------------------
 BYTE   PATT
  POIN2 Label_2_014ADEB4
// 071   ----------------------------------------
 BYTE   EOT
 BYTE   Gn3
 BYTE   W01
 BYTE   Ds3
 BYTE   W01
// 072   ----------------------------------------
 BYTE   PATT
  POIN2 Label_2_014ADE93
// 073   ----------------------------------------
 BYTE   W48
 BYTE   W48
// 074   ----------------------------------------
 BYTE   PATT
  POIN2 Label_2_014ADEB4
// 075   ----------------------------------------
 BYTE   EOT
 BYTE   Gn3
 BYTE   W01
 BYTE   Ds3
 BYTE   W01
 BYTE   TIE  Fn3  v060
 BYTE   TIE  As3  v072
 BYTE   W02
 BYTE   W02
 BYTE   W02
 BYTE   W02
 BYTE   W02
 BYTE   W02
 BYTE   W02
 BYTE   W02
 BYTE   W02
 BYTE   W02
 BYTE   W02
 BYTE   W02
 BYTE   W02
 BYTE   W02
 BYTE   W02
 BYTE   W02
 BYTE   W02
 BYTE   W02
 BYTE   W02
 BYTE   W02
 BYTE   W02
 BYTE   W02
 BYTE   W02
 BYTE   W02
 BYTE   W48
// 076   ----------------------------------------
 BYTE   W48
// 077   ----------------------------------------
 BYTE   PATT
  POIN2 Label_2_014ADEB4
// 078   ----------------------------------------
 BYTE   EOT
 BYTE   As3
 BYTE   W01
 BYTE   Fn3
 BYTE   W01
 BYTE   TIE  Gn3  v060
 BYTE   N92  Cn4  v072
 BYTE   W02
 BYTE   W02
 BYTE   W02
 BYTE   W02
 BYTE   W02
 BYTE   W02
 BYTE   W02
 BYTE   W02
 BYTE   W02
 BYTE   W02
 BYTE   W02
 BYTE   W02
 BYTE   W02
 BYTE   W02
 BYTE   W02
 BYTE   W02
 BYTE   W02
 BYTE   W02
 BYTE   W02
 BYTE   W02
 BYTE   W02
 BYTE   W02
 BYTE   W02
 BYTE   W02
 BYTE   W48
// 079   ----------------------------------------
 BYTE   Bn3
 BYTE   W48
 BYTE   W03
 BYTE   W03
 BYTE   W03
 BYTE   W03
 BYTE   W03
 BYTE   W03
 BYTE   W03
 BYTE   W03
 BYTE   W02
 BYTE   W02
 BYTE   W02
 BYTE   W02
 BYTE   W02
 BYTE   W02
 BYTE   W02
 BYTE   W02
 BYTE   W02
 BYTE   W02
 BYTE   W02
 BYTE   W01
 BYTE   EOT
 BYTE   Gn3
 BYTE   W01
// 080   ----------------------------------------
 BYTE   GoTo
  POIN2 Label_2_014ADC64
 BYTE   FINE

//**************** Track 4 (Midi-Chn.3) ****************//

song0144_004:
// 000   ----------------------------------------
 BYTE   KEYSH   song0144_key+0
 BYTE   VOICE   105
 BYTE   PAN   c_v-30
 BYTE   VOL   24*song0144_mvl/mxv
 BYTE   BEND   c_v+0
 BYTE   TIE  Ds3  v060
 BYTE   TIE  Cn4  v072
 BYTE   W04
 BYTE   W02
 BYTE   W02
 BYTE   W04
 BYTE   W02
 BYTE   W02
 BYTE   W02
 BYTE   W02
 BYTE   W02
 BYTE   W02
 BYTE   W03
 BYTE   W03
 BYTE   W03
 BYTE   W03
 BYTE   W03
 BYTE   W03
 BYTE   W03
 BYTE   W03
 BYTE   W48
// 001   ----------------------------------------
 BYTE   W48
 BYTE   W48
// 002   ----------------------------------------
 BYTE   W48
 BYTE   W48
// 003   ----------------------------------------
 BYTE   W48
 BYTE   W24
 BYTE   W02
 BYTE   W02
 BYTE   W02
 BYTE   W02
 BYTE   W02
 BYTE   W02
 BYTE   W02
 BYTE   W02
 BYTE   W02
 BYTE   W02
 BYTE   W02
 BYTE   EOT
 BYTE   W01
 BYTE   Ds3
 BYTE   W01
// 004   ----------------------------------------
Label_3_0145A2B0:
 BYTE   N92  Ds4  v080
 BYTE   W48
 BYTE   W48
// 005   ----------------------------------------
 BYTE   N44  Fn4  v092
 BYTE   W48
 BYTE   Gn4  v100
 BYTE   W48
// 006   ----------------------------------------
 BYTE   N92  Dn4  v080
 BYTE   W48
 BYTE   W48
// 007   ----------------------------------------
 BYTE   N44  Ds4  v092
 BYTE   W48
 BYTE   Fn4  v100
 BYTE   W48
// 008   ----------------------------------------
 BYTE   N92  Cn4  v080
 BYTE   W48
 BYTE   W48
// 009   ----------------------------------------
 BYTE   N44  Dn4  v108
 BYTE   W48
 BYTE   As3  v092
 BYTE   W48
// 010   ----------------------------------------
 BYTE   TIE  Cn4  v100
 BYTE   W48
 BYTE   W48
// 011   ----------------------------------------
 BYTE   W48
Label_3_0145A2DA:
 BYTE   W03
 BYTE   W03
 BYTE   W03
 BYTE   W03
 BYTE   W03
 BYTE   W03
 BYTE   W03
 BYTE   W03
 BYTE   W02
 BYTE   W02
 BYTE   W02
 BYTE   W02
 BYTE   W02
 BYTE   W02
 BYTE   W02
 BYTE   W02
 BYTE   W02
 BYTE   W02
 BYTE   W02
 BYTE   W01
 BYTE   PEND 
 BYTE   EOT
 BYTE   Cn4
 BYTE   W01
// 012   ----------------------------------------
 BYTE   W48
 BYTE   W48
// 013   ----------------------------------------
 BYTE   W48
 BYTE   W48
// 014   ----------------------------------------
 BYTE   N92  Ds4  v092
 BYTE   W48
 BYTE   W48
// 015   ----------------------------------------
 BYTE   N44  Fn4
 BYTE   W48
 BYTE   Gn4  v100
 BYTE   W48
// 016   ----------------------------------------
 BYTE   N92  Dn4  v080
 BYTE   W48
 BYTE   W48
// 017   ----------------------------------------
 BYTE   N44  Ds4  v092
 BYTE   W48
 BYTE   Fn4  v100
 BYTE   W48
// 018   ----------------------------------------
 BYTE   N92  Cn4  v080
 BYTE   W48
 BYTE   W48
// 019   ----------------------------------------
 BYTE   N44  Dn4  v108
 BYTE   W48
 BYTE   As3  v092
 BYTE   W48
// 020   ----------------------------------------
 BYTE   TIE  Cn4  v100
 BYTE   W48
 BYTE   W48
// 021   ----------------------------------------
 BYTE   W48
// 022   ----------------------------------------
 BYTE   PATT
  POIN2 Label_3_0145A2DA
// 023   ----------------------------------------
 BYTE   EOT
 BYTE   Cn4
 BYTE   W01
 BYTE   W48
 BYTE   W48
// 024   ----------------------------------------
 BYTE   W48
 BYTE   W48
// 025   ----------------------------------------
 BYTE   TIE  Gs2  v072
 BYTE   TIE  Cn3  v080
 BYTE   W03
 BYTE   W03
 BYTE   W03
 BYTE   W03
 BYTE   W03
 BYTE   W03
 BYTE   W03
 BYTE   W24
 BYTE   W03
 BYTE   W48
// 026   ----------------------------------------
 BYTE   W48
 BYTE   W44
 BYTE   W02
 BYTE   EOT
 BYTE   W01
 BYTE   EOT
 BYTE   Gs2
 BYTE   W01
// 027   ----------------------------------------
 BYTE   TIE  As2  v072
 BYTE   TIE  Ds3  v080
 BYTE   W48
 BYTE   W48
// 028   ----------------------------------------
 BYTE   W48
 BYTE   W44
 BYTE   W02
 BYTE   EOT
 BYTE   W01
 BYTE   EOT
 BYTE   As2
 BYTE   W01
// 029   ----------------------------------------
Label_3_0145A353:
 BYTE   TIE  Dn3  v072
 BYTE   TIE  Fn3  v080
 BYTE   W48
 BYTE   PEND 
 BYTE   W48
// 030   ----------------------------------------
 BYTE   W48
 BYTE   W44
 BYTE   W02
 BYTE   EOT
 BYTE   W01
 BYTE   EOT
 BYTE   Dn3
 BYTE   W01
// 031   ----------------------------------------
 BYTE   N92  Dn3  v072
 BYTE   N92  Gn3  v080
 BYTE   W48
 BYTE   W48
// 032   ----------------------------------------
 BYTE   Gn3  v072
 BYTE   N92  Dn4  v080
 BYTE   W48
Label_3_0145A372:
 BYTE   W24
 BYTE   W02
 BYTE   W02
 BYTE   W02
 BYTE   W02
 BYTE   W02
 BYTE   W02
 BYTE   W02
 BYTE   W02
 BYTE   W02
 BYTE   W02
 BYTE   W02
 BYTE   W02
 BYTE   PEND 
// 033   ----------------------------------------
 BYTE   TIE  Fn3  v072
 BYTE   TIE  Gs3  v080
 BYTE   W03
 BYTE   W03
 BYTE   W03
 BYTE   W03
 BYTE   W03
 BYTE   W03
 BYTE   W03
 BYTE   W24
 BYTE   W03
 BYTE   W48
// 034   ----------------------------------------
 BYTE   W48
 BYTE   W44
 BYTE   W02
 BYTE   EOT
 BYTE   W01
 BYTE   EOT
 BYTE   Fn3
 BYTE   W01
// 035   ----------------------------------------
 BYTE   TIE  Ds3  v072
 BYTE   TIE  Gn3  v080
 BYTE   W48
 BYTE   W48
// 036   ----------------------------------------
 BYTE   W48
 BYTE   W44
 BYTE   W02
 BYTE   EOT
 BYTE   W01
 BYTE   EOT
 BYTE   Ds3
 BYTE   W01
// 037   ----------------------------------------
 BYTE   TIE  Ds3  v072
 BYTE   TIE  Gs3  v080
 BYTE   W48
 BYTE   W48
// 038   ----------------------------------------
 BYTE   W48
 BYTE   W44
 BYTE   W02
 BYTE   EOT
 BYTE   W01
 BYTE   EOT
 BYTE   Ds3
 BYTE   W01
// 039   ----------------------------------------
 BYTE   PATT
  POIN2 Label_3_0145A353
// 040   ----------------------------------------
 BYTE   W48
 BYTE   W48
// 041   ----------------------------------------
 BYTE   W44
 BYTE   W02
 BYTE   EOT
 BYTE   Fn3
 BYTE   W01
 BYTE   Dn3
 BYTE   W01
 BYTE   TIE  Dn3  v072
 BYTE   TIE  Gn3  v080
 BYTE   W48
// 042   ----------------------------------------
 BYTE   PATT
  POIN2 Label_3_0145A372
// 043   ----------------------------------------
 BYTE   W48
 BYTE   W44
 BYTE   W02
 BYTE   EOT
 BYTE   Gn3
 BYTE   W01
 BYTE   Dn3
 BYTE   W01
// 044   ----------------------------------------
Label_3_0145A3DA:
 BYTE   TIE  Gn5  v060
 BYTE   W02
 BYTE   W02
 BYTE   W02
 BYTE   W02
 BYTE   W02
 BYTE   W02
 BYTE   W02
 BYTE   W02
 BYTE   W02
 BYTE   W02
 BYTE   W02
 BYTE   W02
 BYTE   W03
 BYTE   W03
 BYTE   W03
 BYTE   W03
 BYTE   W03
 BYTE   W03
 BYTE   W03
 BYTE   W03
 BYTE   PEND 
 BYTE   W48
// 045   ----------------------------------------
 BYTE   W48
 BYTE   W48
// 046   ----------------------------------------
 BYTE   W48
 BYTE   W48
// 047   ----------------------------------------
 BYTE   W48
 BYTE   W44
 BYTE   W03
 BYTE   EOT
 BYTE   W01
// 048   ----------------------------------------
 BYTE   TIE  Fn5
 BYTE   W48
 BYTE   W48
// 049   ----------------------------------------
 BYTE   W48
 BYTE   W44
 BYTE   W03
 BYTE   EOT
 BYTE   W01
// 050   ----------------------------------------
 BYTE   TIE  Gn5
 BYTE   W48
 BYTE   W48
// 051   ----------------------------------------
 BYTE   W48
 BYTE   W44
 BYTE   W03
 BYTE   EOT
 BYTE   W01
// 052   ----------------------------------------
 BYTE   PATT
  POIN2 Label_3_0145A3DA
// 053   ----------------------------------------
 BYTE   W48
 BYTE   W48
// 054   ----------------------------------------
 BYTE   W48
 BYTE   W48
// 055   ----------------------------------------
 BYTE   W48
 BYTE   W48
// 056   ----------------------------------------
 BYTE   W44
 BYTE   W03
 BYTE   EOT
 BYTE   Gn5
 BYTE   W01
 BYTE   TIE  Fn5  v060
 BYTE   W48
// 057   ----------------------------------------
 BYTE   W48
 BYTE   W48
// 058   ----------------------------------------
 BYTE   W44
 BYTE   W03
 BYTE   EOT
 BYTE   W01
 BYTE   W48
// 059   ----------------------------------------
 BYTE   W48
 BYTE   W48
// 060   ----------------------------------------
 BYTE   W48
 BYTE   GoTo
  POIN2 Label_3_0145A2B0
 BYTE   FINE

//**************** Track 5 (Midi-Chn.4) ****************//

song0144_005:
// 000   ----------------------------------------
 BYTE   KEYSH   song0144_key+0
 BYTE   VOICE   49
 BYTE   PAN   c_v+30
 BYTE   VOL   21*song0144_mvl/mxv
 BYTE   BEND   c_v+0
 BYTE   TIE  Gn2  v072
 BYTE   W04
 BYTE   W02
 BYTE   W02
 BYTE   W04
 BYTE   W02
 BYTE   W02
 BYTE   W02
 BYTE   W02
 BYTE   W02
 BYTE   W02
 BYTE   W03
 BYTE   W03
 BYTE   W03
 BYTE   W03
 BYTE   W03
 BYTE   W03
 BYTE   W03
 BYTE   W03
 BYTE   W48
// 001   ----------------------------------------
 BYTE   W48
 BYTE   W48
// 002   ----------------------------------------
 BYTE   W48
 BYTE   W48
// 003   ----------------------------------------
 BYTE   W48
 BYTE   W24
 BYTE   W02
 BYTE   W02
 BYTE   W02
 BYTE   W02
 BYTE   W02
 BYTE   W02
 BYTE   W02
 BYTE   W02
 BYTE   W02
 BYTE   W02
 BYTE   W02
 BYTE   W01
 BYTE   EOT
 BYTE   W01
// 004   ----------------------------------------
Label_4_014ADFF0:
 BYTE   N92  Cn4  v072
 BYTE   W48
 BYTE   PEND 
 BYTE   W48
// 005   ----------------------------------------
 BYTE   N44  Dn4  v080
 BYTE   W48
 BYTE   Ds4  v092
 BYTE   W48
// 006   ----------------------------------------
 BYTE   N92  As3  v072
 BYTE   W48
 BYTE   W48
// 007   ----------------------------------------
 BYTE   N44  Cn4  v080
 BYTE   W48
 BYTE   Dn4  v092
 BYTE   W48
// 008   ----------------------------------------
 BYTE   N92  Gs3  v072
 BYTE   W48
 BYTE   W48
// 009   ----------------------------------------
 BYTE   N44  As3  v096
 BYTE   W48
 BYTE   Fn3  v080
 BYTE   W48
// 010   ----------------------------------------
 BYTE   TIE  Gn3  v092
 BYTE   W48
 BYTE   W48
// 011   ----------------------------------------
 BYTE   W48
Label_4_014AE01B:
 BYTE   W03
 BYTE   W03
 BYTE   W03
 BYTE   W03
 BYTE   W03
 BYTE   W03
 BYTE   W03
 BYTE   W03
 BYTE   W02
 BYTE   W02
 BYTE   W02
 BYTE   W02
 BYTE   W02
 BYTE   W02
 BYTE   W02
 BYTE   W02
 BYTE   W02
 BYTE   W02
 BYTE   W02
 BYTE   W01
 BYTE   PEND 
 BYTE   EOT
 BYTE   Gn3
 BYTE   W01
// 012   ----------------------------------------
 BYTE   W48
 BYTE   W48
// 013   ----------------------------------------
 BYTE   W48
 BYTE   W48
// 014   ----------------------------------------
 BYTE   PATT
  POIN2 Label_4_014ADFF0
// 015   ----------------------------------------
 BYTE   W48
 BYTE   N44  Dn4  v080
 BYTE   W48
// 016   ----------------------------------------
 BYTE   Ds4  v092
 BYTE   W48
 BYTE   N92  As3  v072
 BYTE   W48
// 017   ----------------------------------------
 BYTE   W48
 BYTE   N44  Cn4  v080
 BYTE   W48
// 018   ----------------------------------------
 BYTE   Dn4  v092
 BYTE   W48
 BYTE   N92  Gs3  v072
 BYTE   W48
// 019   ----------------------------------------
 BYTE   W48
 BYTE   N44  As3  v096
 BYTE   W48
// 020   ----------------------------------------
 BYTE   Fn3  v080
 BYTE   W48
 BYTE   TIE  Gn3  v092
 BYTE   W48
// 021   ----------------------------------------
 BYTE   W48
 BYTE   W48
// 022   ----------------------------------------
 BYTE   PATT
  POIN2 Label_4_014AE01B
// 023   ----------------------------------------
 BYTE   EOT
 BYTE   Gn3
 BYTE   W01
 BYTE   W48
 BYTE   W48
// 024   ----------------------------------------
 BYTE   W48
 BYTE   W48
// 025   ----------------------------------------
 BYTE   N23  Gs3  v068
 BYTE   W24
 BYTE   As3  v060
 BYTE   W24
 BYTE   Cn4  v068
 BYTE   W24
 BYTE   Dn4  v072
 BYTE   W24
// 026   ----------------------------------------
 BYTE   Ds4  v080
 BYTE   W24
 BYTE   Fn4  v076
 BYTE   W24
Label_4_014AE081:
 BYTE   N23  Gn4  v080
 BYTE   W24
 BYTE   Gs4  v088
 BYTE   W24
 BYTE   PEND 
// 027   ----------------------------------------
 BYTE   TIE  Gn4  v076
 BYTE   W48
 BYTE   W48
// 028   ----------------------------------------
 BYTE   W44
 BYTE   W03
 BYTE   EOT
 BYTE   W01
 BYTE   N44  Gn4  v072
 BYTE   W48
// 029   ----------------------------------------
 BYTE   N23  Gs4  v088
 BYTE   W24
 BYTE   Gn4  v076
 BYTE   W24
 BYTE   N68  Fn4  v068
 BYTE   W48
// 030   ----------------------------------------
 BYTE   W24
 BYTE   N23  Ds4  v076
 BYTE   W24
 BYTE   Dn4  v072
 BYTE   W24
 BYTE   Cn4  v060
 BYTE   W24
// 031   ----------------------------------------
 BYTE   TIE  Dn4  v080
 BYTE   W48
 BYTE   W48
// 032   ----------------------------------------
 BYTE   W48
 BYTE   W44
 BYTE   W03
 BYTE   EOT
 BYTE   W01
// 033   ----------------------------------------
 BYTE   N23  Gs3  v052
 BYTE   W24
 BYTE   As3  v056
 BYTE   W24
 BYTE   Cn4  v060
 BYTE   W24
 BYTE   Dn4  v068
 BYTE   W24
// 034   ----------------------------------------
 BYTE   Ds4  v072
 BYTE   W24
 BYTE   Fn4  v076
 BYTE   W24
// 035   ----------------------------------------
 BYTE   PATT
  POIN2 Label_4_014AE081
// 036   ----------------------------------------
 BYTE   TIE  As4  v076
 BYTE   W48
 BYTE   W48
// 037   ----------------------------------------
 BYTE   W44
 BYTE   W03
 BYTE   EOT
 BYTE   W01
 BYTE   N44  Ds4  v072
 BYTE   W48
// 038   ----------------------------------------
 BYTE   N23  Cn5  v088
 BYTE   W24
 BYTE   Cn4  v068
 BYTE   W24
 BYTE   Dn4  v076
 BYTE   W24
 BYTE   Ds4  v072
 BYTE   W24
// 039   ----------------------------------------
 BYTE   Fn4  v076
 BYTE   W24
 BYTE   Gn4  v080
 BYTE   W24
 BYTE   Gs4  v088
 BYTE   W24
 BYTE   Fn4  v072
 BYTE   W24
// 040   ----------------------------------------
 BYTE   TIE  Gn4  v080
 BYTE   W48
 BYTE   W48
// 041   ----------------------------------------
 BYTE   W48
 BYTE   W48
// 042   ----------------------------------------
 BYTE   W48
 BYTE   W48
// 043   ----------------------------------------
 BYTE   W24
 BYTE   W03
 BYTE   W03
 BYTE   W03
 BYTE   W03
 BYTE   W03
 BYTE   W03
 BYTE   W03
 BYTE   W03
 BYTE   W03
 BYTE   W03
 BYTE   W03
 BYTE   W03
 BYTE   W03
 BYTE   W03
 BYTE   W03
 BYTE   W03
 BYTE   W03
 BYTE   W03
 BYTE   W03
 BYTE   W03
 BYTE   W03
 BYTE   W03
 BYTE   W03
 BYTE   W02
 BYTE   EOT
 BYTE   W01
// 044   ----------------------------------------
 BYTE   W48
 BYTE   W48
// 045   ----------------------------------------
 BYTE   W48
 BYTE   W48
// 046   ----------------------------------------
 BYTE   W48
 BYTE   W48
// 047   ----------------------------------------
 BYTE   W48
 BYTE   W48
// 048   ----------------------------------------
 BYTE   W48
 BYTE   W48
// 049   ----------------------------------------
 BYTE   W48
 BYTE   W48
// 050   ----------------------------------------
 BYTE   W48
 BYTE   W48
// 051   ----------------------------------------
 BYTE   W48
 BYTE   W48
// 052   ----------------------------------------
 BYTE   W48
 BYTE   W48
// 053   ----------------------------------------
 BYTE   W48
 BYTE   W48
// 054   ----------------------------------------
 BYTE   W48
 BYTE   W48
// 055   ----------------------------------------
 BYTE   W48
 BYTE   W48
// 056   ----------------------------------------
 BYTE   W48
 BYTE   W48
// 057   ----------------------------------------
 BYTE   W48
 BYTE   W48
// 058   ----------------------------------------
 BYTE   W48
 BYTE   W48
// 059   ----------------------------------------
 BYTE   W48
 BYTE   W48
// 060   ----------------------------------------
 BYTE   GoTo
  POIN2 Label_4_014ADFF0
 BYTE   FINE

//**************** Track 6 (Midi-Chn.5) ****************//

song0144_006:
// 000   ----------------------------------------
 BYTE   KEYSH   song0144_key+0
 BYTE   VOICE   46
 BYTE   PAN   c_v-30
 BYTE   VOL   24*song0144_mvl/mxv
 BYTE   BEND   c_v+0
 BYTE   N23  Gn3  v056
 BYTE   W01
 BYTE   Cn4  v076
 BYTE   W23
 BYTE   Ds3  v068
 BYTE   W24
 BYTE   Gn3  v056
 BYTE   W01
 BYTE   Dn4  v076
 BYTE   W23
 BYTE   Ds3  v068
 BYTE   W24
// 001   ----------------------------------------
 BYTE   Gn3  v060
 BYTE   W01
 BYTE   Ds4  v080
 BYTE   W23
 BYTE   Ds3  v072
 BYTE   W24
 BYTE   Gn3  v060
 BYTE   W01
 BYTE   Cn4  v080
 BYTE   W23
 BYTE   Ds3  v072
 BYTE   W24
// 002   ----------------------------------------
 BYTE   Gn3  v068
 BYTE   W01
 BYTE   Cn4  v088
 BYTE   W23
 BYTE   Ds3  v076
 BYTE   W24
 BYTE   Gn3  v068
 BYTE   W01
 BYTE   Dn4  v088
 BYTE   W23
 BYTE   Ds3  v076
 BYTE   W24
// 003   ----------------------------------------
 BYTE   Gn3  v072
 BYTE   W01
 BYTE   Ds4  v092
 BYTE   W23
 BYTE   Ds3  v080
 BYTE   W24
 BYTE   Gn3  v072
 BYTE   W01
 BYTE   Dn4  v092
 BYTE   W23
 BYTE   Ds3  v080
 BYTE   W24
// 004   ----------------------------------------
Label_5_014AE193:
 BYTE   N23  Gn3  v080
 BYTE   W01
 BYTE   Cn4  v100
 BYTE   W23
 BYTE   Ds3  v092
 BYTE   W24
 BYTE   PEND 
Label_5_014AE19E:
 BYTE   N23  Gn3  v080
 BYTE   W01
 BYTE   Dn4  v100
 BYTE   W23
 BYTE   Ds3  v092
 BYTE   W24
 BYTE   PEND 
// 005   ----------------------------------------
Label_5_014AE1A9:
 BYTE   N23  Gn3  v080
 BYTE   W01
 BYTE   Ds4  v100
 BYTE   W23
 BYTE   Ds3  v092
 BYTE   W24
 BYTE   PEND 
// 006   ----------------------------------------
 BYTE   PATT
  POIN2 Label_5_014AE193
// 007   ----------------------------------------
Label_5_014AE1B9:
 BYTE   N23  Fn3  v080
 BYTE   W01
 BYTE   As3  v100
 BYTE   W23
 BYTE   Dn3  v092
 BYTE   W24
 BYTE   PEND 
Label_5_014AE1C4:
 BYTE   N23  Fn3  v080
 BYTE   W01
 BYTE   Cn4  v100
 BYTE   W23
 BYTE   Dn3  v092
 BYTE   W24
 BYTE   PEND 
// 008   ----------------------------------------
Label_5_014AE1CF:
 BYTE   N23  Fn3  v080
 BYTE   W01
 BYTE   Dn4  v100
 BYTE   W23
 BYTE   Dn3  v092
 BYTE   W24
 BYTE   PEND 
// 009   ----------------------------------------
 BYTE   PATT
  POIN2 Label_5_014AE1B9
// 010   ----------------------------------------
Label_5_014AE1DF:
 BYTE   N23  Ds3  v080
 BYTE   W01
 BYTE   Gs3  v100
 BYTE   W23
 BYTE   Cn3  v092
 BYTE   W24
 BYTE   PEND 
Label_5_014AE1EA:
 BYTE   N23  Gs3  v080
 BYTE   W01
 BYTE   Cn4  v100
 BYTE   W23
 BYTE   Ds3  v092
 BYTE   W24
 BYTE   PEND 
// 011   ----------------------------------------
 BYTE   PATT
  POIN2 Label_5_014AE1B9
// 012   ----------------------------------------
Label_5_014AE1FA:
 BYTE   N23  As3  v080
 BYTE   W01
 BYTE   Dn4  v100
 BYTE   W23
 BYTE   Fn3  v092
 BYTE   W24
 BYTE   PEND 
// 013   ----------------------------------------
 BYTE   PATT
  POIN2 Label_5_014AE193
// 014   ----------------------------------------
 BYTE   PATT
  POIN2 Label_5_014AE19E
// 015   ----------------------------------------
 BYTE   PATT
  POIN2 Label_5_014AE1A9
// 016   ----------------------------------------
 BYTE   PATT
  POIN2 Label_5_014AE193
// 017   ----------------------------------------
 BYTE   PATT
  POIN2 Label_5_014AE193
// 018   ----------------------------------------
 BYTE   PATT
  POIN2 Label_5_014AE19E
// 019   ----------------------------------------
 BYTE   PATT
  POIN2 Label_5_014AE1A9
// 020   ----------------------------------------
 BYTE   PATT
  POIN2 Label_5_014AE19E
// 021   ----------------------------------------
 BYTE   PATT
  POIN2 Label_5_014AE193
// 022   ----------------------------------------
 BYTE   PATT
  POIN2 Label_5_014AE19E
// 023   ----------------------------------------
 BYTE   PATT
  POIN2 Label_5_014AE1A9
// 024   ----------------------------------------
 BYTE   PATT
  POIN2 Label_5_014AE193
// 025   ----------------------------------------
 BYTE   PATT
  POIN2 Label_5_014AE1B9
// 026   ----------------------------------------
 BYTE   PATT
  POIN2 Label_5_014AE1C4
// 027   ----------------------------------------
 BYTE   PATT
  POIN2 Label_5_014AE1CF
// 028   ----------------------------------------
 BYTE   PATT
  POIN2 Label_5_014AE1B9
// 029   ----------------------------------------
 BYTE   PATT
  POIN2 Label_5_014AE1DF
// 030   ----------------------------------------
 BYTE   PATT
  POIN2 Label_5_014AE1EA
// 031   ----------------------------------------
 BYTE   PATT
  POIN2 Label_5_014AE1B9
// 032   ----------------------------------------
 BYTE   PATT
  POIN2 Label_5_014AE1FA
// 033   ----------------------------------------
 BYTE   PATT
  POIN2 Label_5_014AE193
// 034   ----------------------------------------
 BYTE   PATT
  POIN2 Label_5_014AE19E
// 035   ----------------------------------------
 BYTE   PATT
  POIN2 Label_5_014AE1A9
// 036   ----------------------------------------
 BYTE   PATT
  POIN2 Label_5_014AE193
// 037   ----------------------------------------
 BYTE   PATT
  POIN2 Label_5_014AE193
// 038   ----------------------------------------
 BYTE   PATT
  POIN2 Label_5_014AE19E
// 039   ----------------------------------------
 BYTE   PATT
  POIN2 Label_5_014AE1A9
// 040   ----------------------------------------
 BYTE   PATT
  POIN2 Label_5_014AE19E
// 041   ----------------------------------------
 BYTE   W48
 BYTE   W48
// 042   ----------------------------------------
 BYTE   W48
 BYTE   W48
// 043   ----------------------------------------
 BYTE   W48
 BYTE   W48
// 044   ----------------------------------------
 BYTE   W48
 BYTE   W48
// 045   ----------------------------------------
 BYTE   W48
 BYTE   W48
// 046   ----------------------------------------
 BYTE   W48
 BYTE   W48
// 047   ----------------------------------------
 BYTE   W48
 BYTE   W48
// 048   ----------------------------------------
 BYTE   W48
 BYTE   W48
// 049   ----------------------------------------
 BYTE   W48
 BYTE   W48
// 050   ----------------------------------------
 BYTE   W48
 BYTE   W48
// 051   ----------------------------------------
 BYTE   W48
 BYTE   W48
// 052   ----------------------------------------
 BYTE   W48
 BYTE   W48
// 053   ----------------------------------------
 BYTE   W48
 BYTE   W48
// 054   ----------------------------------------
 BYTE   W48
 BYTE   W48
// 055   ----------------------------------------
 BYTE   W48
 BYTE   W48
// 056   ----------------------------------------
 BYTE   W48
 BYTE   W48
// 057   ----------------------------------------
 BYTE   W48
 BYTE   W48
// 058   ----------------------------------------
 BYTE   W48
 BYTE   W48
// 059   ----------------------------------------
 BYTE   W48
 BYTE   W48
// 060   ----------------------------------------
 BYTE   W48
 BYTE   W48
// 061   ----------------------------------------
 BYTE   W48
 BYTE   W48
// 062   ----------------------------------------
 BYTE   W48
 BYTE   W48
// 063   ----------------------------------------
 BYTE   W48
 BYTE   W48
// 064   ----------------------------------------
 BYTE   W48
 BYTE   W48
// 065   ----------------------------------------
 BYTE   W48
 BYTE   W48
// 066   ----------------------------------------
 BYTE   W48
 BYTE   W48
// 067   ----------------------------------------
 BYTE   W48
 BYTE   W48
// 068   ----------------------------------------
 BYTE   W48
 BYTE   W48
// 069   ----------------------------------------
 BYTE   W48
 BYTE   W48
// 070   ----------------------------------------
 BYTE   W48
 BYTE   W48
// 071   ----------------------------------------
 BYTE   W48
 BYTE   W48
// 072   ----------------------------------------
 BYTE   W48
 BYTE   W48
// 073   ----------------------------------------
 BYTE   W48
 BYTE   W48
// 074   ----------------------------------------
 BYTE   W48
 BYTE   N44  Gn1  v080
 BYTE   W48
// 075   ----------------------------------------
 BYTE   GoTo
  POIN2 Label_5_014AE193
 BYTE   FINE

//**************** Track 7 (Midi-Chn.6) ****************//

song0144_007:
// 000   ----------------------------------------
 BYTE   KEYSH   song0144_key+0
 BYTE   VOICE   24
 BYTE   PAN   c_v+30
 BYTE   VOL   16*song0144_mvl/mxv
 BYTE   BEND   c_v+0
 BYTE   N12  Gn2  v076
 BYTE   W12
 BYTE   N11  Gn2  v032
 BYTE   W12
 BYTE   N12  Cn3  v088
 BYTE   W12
 BYTE   N11  Cn3  v040
 BYTE   W12
 BYTE   N12  Ds3  v100
 BYTE   W12
 BYTE   N11  Ds3  v056
 BYTE   W12
 BYTE   N12  Cn3  v080
 BYTE   W12
 BYTE   N11  Cn3  v036
 BYTE   W12
// 001   ----------------------------------------
 BYTE   N12  Gn2  v076
 BYTE   W12
 BYTE   N11  Gn2  v036
 BYTE   W12
 BYTE   N12  Cn3  v096
 BYTE   W12
 BYTE   N11  Cn3  v056
 BYTE   W12
 BYTE   N12  Ds3  v092
 BYTE   W12
 BYTE   N11  Ds3  v052
 BYTE   W12
 BYTE   N12  Cn3  v088
 BYTE   W12
 BYTE   N11  Cn3  v048
 BYTE   W12
// 002   ----------------------------------------
 BYTE   N12  Gn2  v080
 BYTE   W12
 BYTE   N11  Gn2  v040
 BYTE   W12
 BYTE   N12  Cn3  v092
 BYTE   W12
 BYTE   N11  Cn3  v052
 BYTE   W12
 BYTE   N12  Ds3  v108
 BYTE   W12
 BYTE   N11  Ds3  v068
 BYTE   W12
 BYTE   N12  Cn3  v088
 BYTE   W12
 BYTE   N11  Cn3  v048
 BYTE   W12
// 003   ----------------------------------------
 BYTE   N12  Gn2  v080
 BYTE   W12
 BYTE   N11  Gn2  v048
 BYTE   W12
 BYTE   N12  Cn3  v100
 BYTE   W12
 BYTE   N11  Cn3  v068
 BYTE   W12
 BYTE   N12  Ds3  v096
 BYTE   W12
 BYTE   N11  Ds3  v060
 BYTE   W12
 BYTE   N12  Cn3  v092
 BYTE   W12
 BYTE   N11  Cn3  v056
 BYTE   W12
// 004   ----------------------------------------
Label_6_014AE36A:
 BYTE   N12  Gn2  v092
 BYTE   W12
 BYTE   N11  Gn2  v056
 BYTE   W12
 BYTE   N12  Cn3  v100
 BYTE   W12
 BYTE   N11  Cn3  v068
 BYTE   W12
 BYTE   PEND 
Label_6_014AE37B:
 BYTE   N12  Ds3  v116
 BYTE   W12
 BYTE   N11  Ds3  v080
 BYTE   W12
 BYTE   N12  Cn3  v096
 BYTE   W12
 BYTE   N11  Cn3  v060
 BYTE   W12
 BYTE   PEND 
// 005   ----------------------------------------
Label_6_014AE38C:
 BYTE   N12  Gn2  v092
 BYTE   W12
 BYTE   N11  Gn2  v056
 BYTE   W12
 BYTE   N12  Cn3  v112
 BYTE   W12
 BYTE   N11  Cn3  v076
 BYTE   W12
 BYTE   PEND 
Label_6_014AE39D:
 BYTE   N12  Ds3  v108
 BYTE   W12
 BYTE   N11  Ds3  v072
 BYTE   W12
 BYTE   N12  Cn3  v100
 BYTE   W12
 BYTE   N11  Cn3  v068
 BYTE   W12
 BYTE   PEND 
// 006   ----------------------------------------
Label_6_014AE3AE:
 BYTE   N12  Fn2  v092
 BYTE   W12
 BYTE   N11  Fn2  v056
 BYTE   W12
 BYTE   N12  As2  v092
 BYTE   W12
 BYTE   N11  As2  v056
 BYTE   W12
 BYTE   PEND 
Label_6_014AE3BF:
 BYTE   N12  Dn3  v108
 BYTE   W12
 BYTE   N11  Dn3  v072
 BYTE   W12
 BYTE   N12  As2  v080
 BYTE   W12
 BYTE   N11  As2  v048
 BYTE   W12
 BYTE   PEND 
// 007   ----------------------------------------
Label_6_014AE3D0:
 BYTE   N12  Fn2  v092
 BYTE   W12
 BYTE   N11  Fn2  v056
 BYTE   W12
 BYTE   N12  As2  v108
 BYTE   W12
 BYTE   N11  As2  v072
 BYTE   W12
 BYTE   PEND 
Label_6_014AE3E1:
 BYTE   N12  Dn3  v120
 BYTE   W12
 BYTE   N11  Dn3  v088
 BYTE   W12
 BYTE   N12  As2  v092
 BYTE   W12
 BYTE   N11  As2  v056
 BYTE   W12
 BYTE   PEND 
// 008   ----------------------------------------
Label_6_014AE3F2:
 BYTE   N12  Gs2  v088
 BYTE   W12
 BYTE   N11  Gs2  v052
 BYTE   W12
 BYTE   N12  Cn3  v096
 BYTE   W12
 BYTE   N11  Cn3  v060
 BYTE   W12
 BYTE   PEND 
Label_6_014AE403:
 BYTE   N12  Ds3  v112
 BYTE   W12
 BYTE   N11  Ds3  v076
 BYTE   W12
 BYTE   N12  Cn3  v092
 BYTE   W12
 BYTE   N11  Cn3  v056
 BYTE   W12
 BYTE   PEND 
// 009   ----------------------------------------
Label_6_014AE414:
 BYTE   N12  As2  v096
 BYTE   W12
 BYTE   N11  As2  v060
 BYTE   W12
 BYTE   N12  Dn3  v108
 BYTE   W12
 BYTE   N11  Dn3  v072
 BYTE   W12
 BYTE   PEND 
Label_6_014AE425:
 BYTE   N12  Fn3  v120
 BYTE   W12
 BYTE   N11  Fn3  v088
 BYTE   W12
 BYTE   N12  Dn3  v100
 BYTE   W12
 BYTE   N11  Dn3  v068
 BYTE   W12
 BYTE   PEND 
// 010   ----------------------------------------
Label_6_014AE436:
 BYTE   N12  Gn2  v088
 BYTE   W12
 BYTE   N11  Gn2  v052
 BYTE   W12
 BYTE   N12  Cn3  v096
 BYTE   W12
 BYTE   N11  Cn3  v060
 BYTE   W12
 BYTE   PEND 
Label_6_014AE447:
 BYTE   N12  Ds3  v112
 BYTE   W12
 BYTE   N11  Ds3  v076
 BYTE   W12
 BYTE   N12  Gn3  v092
 BYTE   W12
 BYTE   N11  Gn3  v056
 BYTE   W12
 BYTE   PEND 
// 011   ----------------------------------------
Label_6_014AE458:
 BYTE   N12  Cn4  v096
 BYTE   W12
 BYTE   N11  Cn4  v060
 BYTE   W12
 BYTE   N12  Gn3  v108
 BYTE   W12
 BYTE   N11  Gn3  v072
 BYTE   W12
 BYTE   PEND 
Label_6_014AE469:
 BYTE   N12  Ds3  v120
 BYTE   W12
 BYTE   N11  Ds3  v088
 BYTE   W12
 BYTE   N12  Cn3  v100
 BYTE   W12
 BYTE   N11  Cn3  v068
 BYTE   W12
 BYTE   PEND 
// 012   ----------------------------------------
 BYTE   PATT
  POIN2 Label_6_014AE436
// 013   ----------------------------------------
Label_6_014AE47F:
 BYTE   N12  Ds3  v108
 BYTE   W12
 BYTE   N11  Ds3  v072
 BYTE   W12
 BYTE   N12  Gn3  v088
 BYTE   W12
 BYTE   N11  Gn3  v052
 BYTE   W12
 BYTE   PEND 
Label_6_014AE490:
 BYTE   N12  Cn4  v096
 BYTE   W12
 BYTE   N11  Cn4  v060
 BYTE   W12
 BYTE   N12  Gn3  v092
 BYTE   W12
 BYTE   N11  Gn3  v056
 BYTE   W12
 BYTE   PEND 
// 014   ----------------------------------------
Label_6_014AE4A1:
 BYTE   N12  Dn3  v108
 BYTE   W12
 BYTE   N11  Dn3  v072
 BYTE   W12
 BYTE   N12  Gn2  v092
 BYTE   W12
 BYTE   N11  Gn2  v056
 BYTE   W12
 BYTE   PEND 
// 015   ----------------------------------------
 BYTE   PATT
  POIN2 Label_6_014AE36A
// 016   ----------------------------------------
 BYTE   PATT
  POIN2 Label_6_014AE37B
// 017   ----------------------------------------
 BYTE   PATT
  POIN2 Label_6_014AE38C
// 018   ----------------------------------------
 BYTE   PATT
  POIN2 Label_6_014AE39D
// 019   ----------------------------------------
 BYTE   PATT
  POIN2 Label_6_014AE3AE
// 020   ----------------------------------------
 BYTE   PATT
  POIN2 Label_6_014AE3BF
// 021   ----------------------------------------
 BYTE   PATT
  POIN2 Label_6_014AE3D0
// 022   ----------------------------------------
 BYTE   PATT
  POIN2 Label_6_014AE3E1
// 023   ----------------------------------------
 BYTE   PATT
  POIN2 Label_6_014AE3F2
// 024   ----------------------------------------
 BYTE   PATT
  POIN2 Label_6_014AE403
// 025   ----------------------------------------
 BYTE   PATT
  POIN2 Label_6_014AE414
// 026   ----------------------------------------
 BYTE   PATT
  POIN2 Label_6_014AE425
// 027   ----------------------------------------
 BYTE   PATT
  POIN2 Label_6_014AE436
// 028   ----------------------------------------
 BYTE   PATT
  POIN2 Label_6_014AE447
// 029   ----------------------------------------
 BYTE   PATT
  POIN2 Label_6_014AE458
// 030   ----------------------------------------
 BYTE   PATT
  POIN2 Label_6_014AE469
// 031   ----------------------------------------
 BYTE   PATT
  POIN2 Label_6_014AE436
// 032   ----------------------------------------
 BYTE   PATT
  POIN2 Label_6_014AE47F
// 033   ----------------------------------------
 BYTE   PATT
  POIN2 Label_6_014AE490
// 034   ----------------------------------------
 BYTE   PATT
  POIN2 Label_6_014AE4A1
// 035   ----------------------------------------
Label_6_014AE516:
 BYTE   N12  Fn2  v096
 BYTE   W12
 BYTE   N11  Fn2  v056
 BYTE   W12
 BYTE   N12  Cn3  v088
 BYTE   W12
 BYTE   N11  Cn3  v048
 BYTE   W12
 BYTE   PEND 
Label_6_014AE527:
 BYTE   N12  Fn3  v100
 BYTE   W01
 BYTE   Gs3  v116
 BYTE   W11
 BYTE   N11  Fn3  v060
 BYTE   W01
 BYTE   Gs3  v076
 BYTE   W11
 BYTE   N12  Cn3  v096
 BYTE   W12
 BYTE   N11  Cn3  v056
 BYTE   W12
 BYTE   PEND 
// 036   ----------------------------------------
Label_6_014AE53E:
 BYTE   N12  Fn2  v088
 BYTE   W12
 BYTE   N11  Fn2  v048
 BYTE   W12
 BYTE   N12  Cn3  v096
 BYTE   W12
 BYTE   N11  Cn3  v056
 BYTE   W12
 BYTE   PEND 
Label_6_014AE54F:
 BYTE   N12  Fn3  v108
 BYTE   W01
 BYTE   Gs3  v100
 BYTE   W11
 BYTE   N11  Fn3  v068
 BYTE   W01
 BYTE   Gs3  v060
 BYTE   W11
 BYTE   N12  Cn3  v088
 BYTE   W12
 BYTE   N11  Cn3  v048
 BYTE   W12
 BYTE   PEND 
// 037   ----------------------------------------
Label_6_014AE566:
 BYTE   N12  Ds2  v096
 BYTE   W12
 BYTE   N11  Ds2  v056
 BYTE   W12
 BYTE   N12  As2  v088
 BYTE   W12
 BYTE   N11  As2  v048
 BYTE   W12
 BYTE   PEND 
Label_6_014AE577:
 BYTE   N12  Ds3  v100
 BYTE   W01
 BYTE   Gn3  v116
 BYTE   W11
 BYTE   N11  Ds3  v060
 BYTE   W01
 BYTE   Gn3  v076
 BYTE   W11
 BYTE   N12  As2  v096
 BYTE   W12
 BYTE   N11  As2  v056
 BYTE   W12
 BYTE   PEND 
// 038   ----------------------------------------
Label_6_014AE58E:
 BYTE   N12  Ds2  v088
 BYTE   W12
 BYTE   N11  Ds2  v048
 BYTE   W12
 BYTE   N12  As2  v096
 BYTE   W12
 BYTE   N11  As2  v056
 BYTE   W12
 BYTE   PEND 
Label_6_014AE59F:
 BYTE   N12  Ds3  v108
 BYTE   W01
 BYTE   Gn3  v100
 BYTE   W11
 BYTE   N11  Ds3  v068
 BYTE   W01
 BYTE   Gn3  v060
 BYTE   W11
 BYTE   N12  As2  v088
 BYTE   W12
 BYTE   N11  As2  v048
 BYTE   W12
 BYTE   PEND 
// 039   ----------------------------------------
 BYTE   N12  Dn2  v096
 BYTE   W12
 BYTE   N11  Dn2  v056
 BYTE   W12
 BYTE   N12  Gs2  v088
 BYTE   W12
 BYTE   N11  Gs2  v048
 BYTE   W12
 BYTE   N12  Dn3  v100
 BYTE   W01
 BYTE   Gs3  v116
 BYTE   W11
 BYTE   N11  Dn3  v060
 BYTE   W01
 BYTE   Gs3  v076
 BYTE   W11
 BYTE   N12  Fn2  v096
 BYTE   W12
 BYTE   N11  Fn2  v056
 BYTE   W12
// 040   ----------------------------------------
 BYTE   N12  Dn2  v088
 BYTE   W12
 BYTE   N11  Dn2  v048
 BYTE   W12
 BYTE   N12  Gs2  v096
 BYTE   W12
 BYTE   N11  Gs2  v056
 BYTE   W12
 BYTE   N12  Dn3  v108
 BYTE   W01
 BYTE   Gs3  v100
 BYTE   W11
 BYTE   N11  Dn3  v068
 BYTE   W01
 BYTE   Gs3  v060
 BYTE   W11
 BYTE   N12  Fn2  v088
 BYTE   W12
 BYTE   N11  Fn2  v048
 BYTE   W12
// 041   ----------------------------------------
Label_6_014AE602:
 BYTE   N12  Gn2  v088
 BYTE   W12
 BYTE   N11  Gn2  v048
 BYTE   W12
 BYTE   N12  Bn2  v076
 BYTE   W12
 BYTE   N11  Bn2  v036
 BYTE   W12
 BYTE   PEND 
Label_6_014AE613:
 BYTE   N12  Dn3  v096
 BYTE   W01
 BYTE   Gn3  v108
 BYTE   W11
 BYTE   N11  Dn3  v056
 BYTE   W01
 BYTE   Gn3  v068
 BYTE   W11
 BYTE   N12  Bn2  v092
 BYTE   W12
 BYTE   N11  Bn2  v052
 BYTE   W12
 BYTE   PEND 
// 042   ----------------------------------------
Label_6_014AE62A:
 BYTE   N12  Gn3  v108
 BYTE   W01
 BYTE   Bn3  v100
 BYTE   W11
 BYTE   N11  Gn3  v068
 BYTE   W01
 BYTE   Bn3  v060
 BYTE   W11
 BYTE   N12  Dn3  v080
 BYTE   W12
 BYTE   N11  Dn3  v040
 BYTE   W12
 BYTE   PEND 
 BYTE   N12  Bn3  v100
 BYTE   W01
 BYTE   Dn4  v112
 BYTE   W11
 BYTE   N11  Bn3  v060
 BYTE   W01
 BYTE   Dn4  v072
 BYTE   W11
 BYTE   N12  Gn2  v096
 BYTE   W12
 BYTE   N11  Gn2  v056
 BYTE   W12
// 043   ----------------------------------------
 BYTE   PATT
  POIN2 Label_6_014AE516
// 044   ----------------------------------------
 BYTE   PATT
  POIN2 Label_6_014AE527
// 045   ----------------------------------------
 BYTE   PATT
  POIN2 Label_6_014AE53E
// 046   ----------------------------------------
 BYTE   PATT
  POIN2 Label_6_014AE54F
// 047   ----------------------------------------
 BYTE   PATT
  POIN2 Label_6_014AE566
// 048   ----------------------------------------
 BYTE   PATT
  POIN2 Label_6_014AE577
// 049   ----------------------------------------
 BYTE   PATT
  POIN2 Label_6_014AE58E
// 050   ----------------------------------------
 BYTE   PATT
  POIN2 Label_6_014AE59F
// 051   ----------------------------------------
 BYTE   N12  Gs2  v096
 BYTE   W12
 BYTE   N11  Gs2  v056
 BYTE   W12
 BYTE   N12  Cn3  v088
 BYTE   W12
 BYTE   N11  Cn3  v048
 BYTE   W12
 BYTE   N12  Ds3  v100
 BYTE   W01
 BYTE   Gs3  v116
 BYTE   W11
 BYTE   N11  Ds3  v060
 BYTE   W01
 BYTE   Gs3  v076
 BYTE   W11
 BYTE   N12  Cn3  v096
 BYTE   W12
 BYTE   N11  Cn3  v056
 BYTE   W12
// 052   ----------------------------------------
 BYTE   N12  Gs2  v088
 BYTE   W12
 BYTE   N11  Gs2  v048
 BYTE   W12
 BYTE   N12  Cn3  v096
 BYTE   W12
 BYTE   N11  Cn3  v056
 BYTE   W12
 BYTE   N12  Ds3  v108
 BYTE   W01
 BYTE   Gs3  v100
 BYTE   W11
 BYTE   N11  Ds3  v068
 BYTE   W01
 BYTE   Gs3  v060
 BYTE   W11
 BYTE   N12  Cn3  v088
 BYTE   W12
 BYTE   N11  Cn3  v048
 BYTE   W12
// 053   ----------------------------------------
 BYTE   N12  Fn2  v096
 BYTE   W12
 BYTE   N11  Fn2  v056
 BYTE   W12
 BYTE   N12  As2  v088
 BYTE   W12
 BYTE   N11  As2  v048
 BYTE   W12
 BYTE   N12  Dn3  v100
 BYTE   W01
 BYTE   Fn3  v116
 BYTE   W11
 BYTE   N11  Dn3  v060
 BYTE   W01
 BYTE   Fn3  v076
 BYTE   W11
 BYTE   N12  As2  v096
 BYTE   W12
 BYTE   N11  As2  v056
 BYTE   W12
// 054   ----------------------------------------
 BYTE   N12  Fn2  v088
 BYTE   W12
 BYTE   N11  Fn2  v048
 BYTE   W12
 BYTE   N12  As2  v096
 BYTE   W12
 BYTE   N11  As2  v056
 BYTE   W12
 BYTE   N12  Dn3  v108
 BYTE   W01
 BYTE   Fn3  v100
 BYTE   W11
 BYTE   N11  Dn3  v068
 BYTE   W01
 BYTE   Fn3  v060
 BYTE   W11
 BYTE   N12  As2  v088
 BYTE   W12
 BYTE   N11  As2  v048
 BYTE   W12
// 055   ----------------------------------------
 BYTE   PATT
  POIN2 Label_6_014AE602
// 056   ----------------------------------------
 BYTE   PATT
  POIN2 Label_6_014AE613
// 057   ----------------------------------------
 BYTE   PATT
  POIN2 Label_6_014AE62A
// 058   ----------------------------------------
 BYTE   N12  Bn3  v100
 BYTE   W01
 BYTE   Dn4  v112
 BYTE   W11
 BYTE   N11  Bn3  v060
 BYTE   W01
 BYTE   Dn4  v072
 BYTE   W11
 BYTE   N12  Gn3  v096
 BYTE   W12
 BYTE   N11  Gn3  v056
 BYTE   W12
 BYTE   N23  Gn2  v092
 BYTE   W24
 BYTE   N08  Gn3  v100
 BYTE   W24
// 059   ----------------------------------------
 BYTE   N23  Gn3  v127
 BYTE   W24
 BYTE   N32  Fn3  v080
 BYTE   W12
 BYTE   BEND   c_v+10
 BYTE   W12
 BYTE   W12
 BYTE   BEND   c_v+0
 BYTE   N23  Gn3  v096
 BYTE   W24
 BYTE   N11  Gn3  v060
 BYTE   W12
// 060   ----------------------------------------
 BYTE   N15  As3  v127
 BYTE   W12
 BYTE   BEND   c_v-16
 BYTE   W12
 BYTE   BEND   c_v+0
 BYTE   N18  Gn3  v108
 BYTE   W12
 BYTE   BEND   c_v-11
 BYTE   W12
 BYTE   BEND   c_v+0
 BYTE   N23  Gn2  v112
 BYTE   W24
 BYTE   N10  Gn3  v092
 BYTE   W24
// 061   ----------------------------------------
Label_6_014AE771:
 BYTE   N23  Gn3  v116
 BYTE   W24
 BYTE   N32  Fn3  v108
 BYTE   W12
 BYTE   BEND   c_v+10
 BYTE   W12
 BYTE   PEND 
 BYTE   W12
 BYTE   En3
 BYTE   N23  Gn3  v076
 BYTE   W24
 BYTE   N10  Gn3  v108
 BYTE   W12
// 062   ----------------------------------------
 BYTE   N15  Gs3  v120
 BYTE   W12
 BYTE   BEND   c_v-6
 BYTE   W12
 BYTE   BEND   c_v+0
 BYTE   N15  Fn3  v116
 BYTE   W12
 BYTE   BEND   c_v-11
 BYTE   W12
Label_6_014AE796:
 BYTE   BEND   c_v-6
 BYTE   N23  Fn3  v116
 BYTE   W04
 BYTE   BEND   c_v+0
 BYTE   W20
 BYTE   N08  Dn3  v080
 BYTE   W24
 BYTE   PEND 
// 063   ----------------------------------------
Label_6_014AE7A4:
 BYTE   N23  Dn3  v116
 BYTE   W24
 BYTE   N32  Cn3  v092
 BYTE   W12
 BYTE   BEND   c_v+10
 BYTE   W12
 BYTE   PEND 
 BYTE   W12
 BYTE   En3
 BYTE   N23  Dn3  v080
 BYTE   W24
 BYTE   N08  Dn3  v060
 BYTE   W12
// 064   ----------------------------------------
 BYTE   N17  Ds3  v112
 BYTE   W12
 BYTE   BEND   c_v-6
 BYTE   W12
 BYTE   BEND   c_v+0
 BYTE   N15  Cn3  v108
 BYTE   W12
 BYTE   BEND   c_v-11
 BYTE   W12
 BYTE   BEND   c_v+0
 BYTE   N23  Gn2  v116
 BYTE   W24
 BYTE   N10  Dn3  v092
 BYTE   W24
// 065   ----------------------------------------
 BYTE   N23  Dn3  v112
 BYTE   W24
 BYTE   TIE  Cn3  v100
 BYTE   W12
 BYTE   BEND   c_v+10
 BYTE   W12
 BYTE   W48
// 066   ----------------------------------------
 BYTE   W44
 BYTE   W03
 BYTE   EOT
 BYTE   W01
 BYTE   BEND   c_v+0
 BYTE   N23  Gn2  v092
 BYTE   W24
 BYTE   N10  Gn3  v100
 BYTE   W24
// 067   ----------------------------------------
 BYTE   N20  Gn3  v127
 BYTE   W24
 BYTE   N32  Fn3  v080
 BYTE   W12
 BYTE   BEND   c_v+10
 BYTE   W12
 BYTE   W12
 BYTE   BEND   c_v+0
 BYTE   N23  Gn3  v096
 BYTE   W24
 BYTE   N10  Gn3  v060
 BYTE   W12
// 068   ----------------------------------------
 BYTE   N15  As3  v127
 BYTE   W12
 BYTE   BEND   c_v-16
 BYTE   W12
 BYTE   BEND   c_v+0
 BYTE   N15  Gn3  v108
 BYTE   W12
 BYTE   BEND   c_v-11
 BYTE   W12
 BYTE   BEND   c_v+0
 BYTE   N23  Gn2  v088
 BYTE   W24
 BYTE   N08  Gn3  v092
 BYTE   W24
// 069   ----------------------------------------
 BYTE   PATT
  POIN2 Label_6_014AE771
// 070   ----------------------------------------
 BYTE   W12
 BYTE   BEND   c_v+0
 BYTE   N23  Gn3  v076
 BYTE   W24
 BYTE   N04  Gn3  v108
 BYTE   W12
 BYTE   N17  Gs3  v120
 BYTE   W12
 BYTE   BEND   c_v-6
 BYTE   W12
 BYTE   BEND   c_v+0
 BYTE   N17  Fn3  v116
 BYTE   W12
 BYTE   BEND   c_v-11
 BYTE   W12
// 071   ----------------------------------------
 BYTE   PATT
  POIN2 Label_6_014AE796
// 072   ----------------------------------------
 BYTE   PATT
  POIN2 Label_6_014AE7A4
// 073   ----------------------------------------
 BYTE   W12
 BYTE   BEND   c_v+0
 BYTE   N23  Dn3  v096
 BYTE   W24
 BYTE   N08  Dn3  v100
 BYTE   W12
 BYTE   N11  Ds3  v127
 BYTE   W12
 BYTE   N07  Fn3  v112
 BYTE   W12
 BYTE   BEND   c_v-11
 BYTE   N10  Gn3  v116
 BYTE   W01
 BYTE   BEND   c_v+0
 BYTE   W11
 BYTE   N09  As3  v127
 BYTE   W12
// 074   ----------------------------------------
 BYTE   N80  Cn4  v120
 BYTE   W48
 BYTE   W36
 BYTE   N11  Bn3  v100
 BYTE   W06
 BYTE   BEND   c_v+5
 BYTE   W06
// 075   ----------------------------------------
 BYTE   BEND   c_v+0
 BYTE   N92  Bn3  v112
 BYTE   W48
 BYTE   W48
// 076   ----------------------------------------
 BYTE   GoTo
  POIN2 Label_6_014AE36A
 BYTE   FINE

//**************** Track 8 (Midi-Chn.7) ****************//

song0144_008:
// 000   ----------------------------------------
 BYTE   KEYSH   song0144_key+0
 BYTE   VOICE   4
 BYTE   PAN   c_v+30
 BYTE   VOL   24*song0144_mvl/mxv
 BYTE   BEND   c_v+0
 BYTE   W48
 BYTE   W48
// 001   ----------------------------------------
 BYTE   W48
 BYTE   W48
// 002   ----------------------------------------
 BYTE   W48
 BYTE   W48
// 003   ----------------------------------------
 BYTE   W48
 BYTE   W48
// 004   ----------------------------------------
Label_7_014AE88E:
 BYTE   W48
 BYTE   W48
// 005   ----------------------------------------
 BYTE   W48
 BYTE   W48
// 006   ----------------------------------------
 BYTE   W48
 BYTE   W48
// 007   ----------------------------------------
 BYTE   W48
 BYTE   W48
// 008   ----------------------------------------
 BYTE   W48
 BYTE   W48
// 009   ----------------------------------------
 BYTE   W48
 BYTE   W48
// 010   ----------------------------------------
 BYTE   W48
 BYTE   W48
// 011   ----------------------------------------
 BYTE   W48
 BYTE   W48
// 012   ----------------------------------------
 BYTE   W48
 BYTE   W48
// 013   ----------------------------------------
 BYTE   W48
 BYTE   W48
// 014   ----------------------------------------
 BYTE   W48
 BYTE   W48
// 015   ----------------------------------------
 BYTE   W48
 BYTE   W48
// 016   ----------------------------------------
 BYTE   W48
 BYTE   W48
// 017   ----------------------------------------
 BYTE   W48
 BYTE   W48
// 018   ----------------------------------------
 BYTE   W48
 BYTE   W48
// 019   ----------------------------------------
 BYTE   W48
 BYTE   W48
// 020   ----------------------------------------
 BYTE   W48
 BYTE   W48
// 021   ----------------------------------------
 BYTE   W48
 BYTE   W48
// 022   ----------------------------------------
 BYTE   W48
 BYTE   W48
// 023   ----------------------------------------
 BYTE   W48
 BYTE   W48
// 024   ----------------------------------------
 BYTE   W48
 BYTE   W48
// 025   ----------------------------------------
 BYTE   W48
 BYTE   W48
// 026   ----------------------------------------
 BYTE   W48
 BYTE   W48
// 027   ----------------------------------------
 BYTE   W48
 BYTE   W48
// 028   ----------------------------------------
 BYTE   W48
 BYTE   W48
// 029   ----------------------------------------
 BYTE   W48
 BYTE   W48
// 030   ----------------------------------------
 BYTE   W48
 BYTE   W48
// 031   ----------------------------------------
 BYTE   W48
 BYTE   W48
// 032   ----------------------------------------
 BYTE   W48
 BYTE   W48
// 033   ----------------------------------------
 BYTE   W48
 BYTE   W48
// 034   ----------------------------------------
 BYTE   W48
 BYTE   W48
// 035   ----------------------------------------
 BYTE   W48
 BYTE   W48
// 036   ----------------------------------------
 BYTE   W48
 BYTE   W48
// 037   ----------------------------------------
 BYTE   W48
 BYTE   W48
// 038   ----------------------------------------
 BYTE   W48
 BYTE   W48
// 039   ----------------------------------------
 BYTE   W48
 BYTE   W48
// 040   ----------------------------------------
 BYTE   W48
 BYTE   W48
// 041   ----------------------------------------
 BYTE   W48
 BYTE   W48
// 042   ----------------------------------------
 BYTE   TIE  Cn1  v100
 BYTE   TIE  Gn2  v076
 BYTE   TIE  Cn3  v092
 BYTE   TIE  Ds3  v088
 BYTE   W48
 BYTE   W48
// 043   ----------------------------------------
 BYTE   W48
 BYTE   W18
 BYTE   EOT
 BYTE   Cn1
 BYTE   W06
 BYTE   N08  Cn1  v080
 BYTE   W23
 BYTE   EOT
 BYTE   Gn2  v060
 BYTE   Ds3
 BYTE   W01
// 044   ----------------------------------------
 BYTE   TIE  Ds1  v100
 BYTE   TIE  Gn2  v076
 BYTE   TIE  As2  v092
 BYTE   TIE  Ds3  v088
 BYTE   W48
 BYTE   W48
// 045   ----------------------------------------
 BYTE   W48
 BYTE   W18
 BYTE   EOT
 BYTE   Ds1
 BYTE   W06
 BYTE   N08  Ds1  v080
 BYTE   W23
 BYTE   EOT
 BYTE   Gn2  v058
 BYTE   Ds3
 BYTE   W01
// 046   ----------------------------------------
 BYTE   TIE  As1  v100
 BYTE   TIE  As2  v076
 BYTE   TIE  Dn3  v092
 BYTE   TIE  Fn3  v088
 BYTE   W48
 BYTE   W48
// 047   ----------------------------------------
 BYTE   W48
 BYTE   W18
 BYTE   EOT
 BYTE   As1
 BYTE   W06
 BYTE   N08  As1  v080
 BYTE   W23
 BYTE   EOT
 BYTE   As2  v062
 BYTE   Fn3
 BYTE   W01
// 048   ----------------------------------------
 BYTE   N92  Gn1  v092
 BYTE   N92  Cn3  v076
 BYTE   N92  Dn3  v092
 BYTE   N92  Gn3  v088
 BYTE   W48
 BYTE   W48
// 049   ----------------------------------------
 BYTE   N66  Gn1  v080
 BYTE   N92  Bn2  v068
 BYTE   N92  Dn3  v080
 BYTE   N92  Gn3  v076
 BYTE   W48
 BYTE   W24
 BYTE   N08  Gn1  v080
 BYTE   W24
// 050   ----------------------------------------
 BYTE   TIE  Cn1  v100
 BYTE   TIE  Cn3  v076
 BYTE   TIE  Ds3  v092
 BYTE   TIE  Gn3  v088
 BYTE   W48
 BYTE   W48
// 051   ----------------------------------------
 BYTE   W48
 BYTE   W18
 BYTE   EOT
 BYTE   Cn1
 BYTE   W06
 BYTE   N08  Cn1  v080
 BYTE   W23
 BYTE   EOT
 BYTE   Cn3  v063
 BYTE   Gn3
 BYTE   W01
// 052   ----------------------------------------
 BYTE   TIE  Ds1  v100
 BYTE   TIE  Ds3  v076
 BYTE   TIE  Gn3  v092
 BYTE   TIE  As3  v088
 BYTE   W48
 BYTE   W48
// 053   ----------------------------------------
 BYTE   W48
 BYTE   W18
 BYTE   EOT
 BYTE   Ds1
 BYTE   W06
 BYTE   N08  Ds1  v080
 BYTE   W23
 BYTE   EOT
 BYTE   Ds3  v067
 BYTE   As3
 BYTE   W01
// 054   ----------------------------------------
 BYTE   TIE  As1  v100
 BYTE   TIE  Dn3  v076
 BYTE   TIE  Fn3  v092
 BYTE   TIE  As3  v088
 BYTE   W48
 BYTE   W48
// 055   ----------------------------------------
 BYTE   W48
 BYTE   W18
 BYTE   EOT
 BYTE   As1
 BYTE   W06
 BYTE   N08  As1  v080
 BYTE   W23
 BYTE   EOT
 BYTE   Dn3  v065
 BYTE   As3
 BYTE   W01
// 056   ----------------------------------------
 BYTE   N92  Gn1  v092
 BYTE   N92  Dn3  v076
 BYTE   N92  Gn3  v092
 BYTE   N92  Cn4  v088
 BYTE   W48
 BYTE   W48
// 057   ----------------------------------------
 BYTE   N44  Gn1  v072
 BYTE   N92  Dn3  v068
 BYTE   N92  Gn3  v080
 BYTE   N92  Bn3  v076
 BYTE   W48
 BYTE   N44  Gn1  v100
 BYTE   W44
 BYTE   W01
 BYTE   W01
 BYTE   W01
 BYTE   VOICE   0
 BYTE   W01
// 058   ----------------------------------------
 BYTE   GoTo
  POIN2 Label_7_014AE88E
 BYTE   FINE

//**************** Track 9 (Midi-Chn.8) ****************//

song0144_009:
// 000   ----------------------------------------
 BYTE   KEYSH   song0144_key+0
 BYTE   VOICE   40
 BYTE   PAN   c_v-24
 BYTE   VOL   21*song0144_mvl/mxv
 BYTE   BEND   c_v+0
 BYTE   W48
 BYTE   W48
// 001   ----------------------------------------
 BYTE   W48
 BYTE   W48
// 002   ----------------------------------------
 BYTE   W48
 BYTE   W48
// 003   ----------------------------------------
 BYTE   W48
 BYTE   W48
// 004   ----------------------------------------
Label_8_014AE9E2:
 BYTE   N92  Ds4  v096
 BYTE   W03
 BYTE   W03
 BYTE   W03
 BYTE   W03
 BYTE   W03
 BYTE   W03
 BYTE   W03
 BYTE   W24
 BYTE   W03
 BYTE   PEND 
 BYTE   W48
// 005   ----------------------------------------
Label_8_014AE9F0:
 BYTE   N44  Fn4  v092
 BYTE   W03
 BYTE   W03
 BYTE   W03
 BYTE   W03
 BYTE   W03
 BYTE   W03
 BYTE   W03
 BYTE   W24
 BYTE   W03
 BYTE   PEND 
Label_8_014AE9FD:
 BYTE   N44  Gn4  v100
 BYTE   W03
 BYTE   W03
 BYTE   W03
 BYTE   W03
 BYTE   W03
 BYTE   W03
 BYTE   W03
 BYTE   W24
 BYTE   W03
 BYTE   PEND 
// 006   ----------------------------------------
Label_8_014AEA0A:
 BYTE   N92  Dn4  v092
 BYTE   W03
 BYTE   W03
 BYTE   W03
 BYTE   W03
 BYTE   W03
 BYTE   W03
 BYTE   W03
 BYTE   W24
 BYTE   W03
 BYTE   PEND 
 BYTE   W48
// 007   ----------------------------------------
Label_8_014AEA18:
 BYTE   N44  Ds4  v080
 BYTE   W03
 BYTE   W03
 BYTE   W03
 BYTE   W03
 BYTE   W03
 BYTE   W03
 BYTE   W03
 BYTE   W24
 BYTE   W03
 BYTE   PEND 
Label_8_014AEA25:
 BYTE   N44  Fn4  v100
 BYTE   W03
 BYTE   W03
 BYTE   W03
 BYTE   W03
 BYTE   W03
 BYTE   W03
 BYTE   W03
 BYTE   W24
 BYTE   W03
 BYTE   PEND 
// 008   ----------------------------------------
Label_8_014AEA32:
 BYTE   N92  Cn4  v080
 BYTE   W03
 BYTE   W03
 BYTE   W03
 BYTE   W03
 BYTE   W03
 BYTE   W03
 BYTE   W03
 BYTE   W24
 BYTE   W03
 BYTE   PEND 
 BYTE   W48
// 009   ----------------------------------------
Label_8_014AEA40:
 BYTE   N44  Dn4  v100
 BYTE   W03
 BYTE   W03
 BYTE   W03
 BYTE   W03
 BYTE   W03
 BYTE   W03
 BYTE   W03
 BYTE   W24
 BYTE   W03
 BYTE   PEND 
Label_8_014AEA4D:
 BYTE   N44  As3  v096
 BYTE   W03
 BYTE   W03
 BYTE   W03
 BYTE   W03
 BYTE   W03
 BYTE   W03
 BYTE   W03
 BYTE   W24
 BYTE   W03
 BYTE   PEND 
// 010   ----------------------------------------
Label_8_014AEA5A:
 BYTE   TIE  Cn4  v100
 BYTE   W03
 BYTE   W03
 BYTE   W03
 BYTE   W03
 BYTE   W03
 BYTE   W03
 BYTE   W03
 BYTE   W24
 BYTE   W03
 BYTE   PEND 
 BYTE   W48
// 011   ----------------------------------------
 BYTE   W48
Label_8_014AEA69:
 BYTE   W03
 BYTE   W03
 BYTE   W03
 BYTE   W03
 BYTE   W03
 BYTE   W03
 BYTE   W03
 BYTE   W03
 BYTE   W02
 BYTE   W02
 BYTE   W02
 BYTE   W02
 BYTE   W02
 BYTE   W02
 BYTE   W02
 BYTE   W02
 BYTE   W02
 BYTE   W02
 BYTE   W02
 BYTE   W01
 BYTE   PEND 
 BYTE   EOT
 BYTE   Cn4
 BYTE   W01
// 012   ----------------------------------------
 BYTE   W48
 BYTE   W48
// 013   ----------------------------------------
 BYTE   W48
 BYTE   W48
// 014   ----------------------------------------
 BYTE   PATT
  POIN2 Label_8_014AE9E2
// 015   ----------------------------------------
 BYTE   W48
// 016   ----------------------------------------
 BYTE   PATT
  POIN2 Label_8_014AE9F0
// 017   ----------------------------------------
 BYTE   PATT
  POIN2 Label_8_014AE9FD
// 018   ----------------------------------------
 BYTE   PATT
  POIN2 Label_8_014AEA0A
// 019   ----------------------------------------
 BYTE   W48
// 020   ----------------------------------------
 BYTE   PATT
  POIN2 Label_8_014AEA18
// 021   ----------------------------------------
 BYTE   PATT
  POIN2 Label_8_014AEA25
// 022   ----------------------------------------
 BYTE   PATT
  POIN2 Label_8_014AEA32
// 023   ----------------------------------------
 BYTE   W48
// 024   ----------------------------------------
 BYTE   PATT
  POIN2 Label_8_014AEA40
// 025   ----------------------------------------
 BYTE   PATT
  POIN2 Label_8_014AEA4D
// 026   ----------------------------------------
 BYTE   PATT
  POIN2 Label_8_014AEA5A
// 027   ----------------------------------------
 BYTE   W48
 BYTE   W48
// 028   ----------------------------------------
 BYTE   PATT
  POIN2 Label_8_014AEA69
// 029   ----------------------------------------
 BYTE   EOT
 BYTE   Cn4
 BYTE   W01
 BYTE   W48
 BYTE   W48
// 030   ----------------------------------------
 BYTE   W48
 BYTE   W48
// 031   ----------------------------------------
 BYTE   VOICE   24
 BYTE   N23  Gs3  v112
 BYTE   W24
 BYTE   As3  v100
 BYTE   W24
Label_8_014AEAD1:
 BYTE   N23  Cn4  v108
 BYTE   W24
 BYTE   Dn4  v112
 BYTE   W24
 BYTE   PEND 
// 032   ----------------------------------------
Label_8_014AEAD9:
 BYTE   N23  Ds4  v120
 BYTE   W24
 BYTE   Fn4  v116
 BYTE   W24
 BYTE   PEND 
Label_8_014AEAE1:
 BYTE   N23  Gn4  v120
 BYTE   W24
 BYTE   Gs4  v127
 BYTE   W24
 BYTE   PEND 
// 033   ----------------------------------------
 BYTE   TIE  Gn4  v116
 BYTE   W48
 BYTE   W48
// 034   ----------------------------------------
 BYTE   W44
 BYTE   W03
 BYTE   EOT
 BYTE   W01
 BYTE   N44  Gn4  v112
 BYTE   W48
// 035   ----------------------------------------
 BYTE   N23  Gs4  v127
 BYTE   W24
 BYTE   Gn4  v116
 BYTE   W24
 BYTE   N68  Fn4  v108
 BYTE   W48
// 036   ----------------------------------------
 BYTE   W24
 BYTE   N23  Ds4  v116
 BYTE   W24
 BYTE   Dn4  v112
 BYTE   W24
 BYTE   Cn4  v100
 BYTE   W24
// 037   ----------------------------------------
 BYTE   TIE  Dn4  v120
 BYTE   W48
 BYTE   W48
// 038   ----------------------------------------
 BYTE   W48
 BYTE   W44
 BYTE   W03
 BYTE   EOT
 BYTE   W01
// 039   ----------------------------------------
 BYTE   N23  Gs3  v112
 BYTE   W24
 BYTE   As3  v100
 BYTE   W24
// 040   ----------------------------------------
 BYTE   PATT
  POIN2 Label_8_014AEAD1
// 041   ----------------------------------------
 BYTE   PATT
  POIN2 Label_8_014AEAD9
// 042   ----------------------------------------
 BYTE   PATT
  POIN2 Label_8_014AEAE1
// 043   ----------------------------------------
 BYTE   TIE  As4  v116
 BYTE   W48
 BYTE   W48
// 044   ----------------------------------------
 BYTE   W44
 BYTE   W03
 BYTE   EOT
 BYTE   W01
 BYTE   N44  Ds4  v112
 BYTE   W48
// 045   ----------------------------------------
 BYTE   N23  Cn5  v127
 BYTE   W24
 BYTE   Cn4  v108
 BYTE   W24
 BYTE   Dn4  v116
 BYTE   W24
 BYTE   Ds4  v112
 BYTE   W24
// 046   ----------------------------------------
 BYTE   Fn4  v116
 BYTE   W24
 BYTE   Gn4  v120
 BYTE   W24
 BYTE   Gs4  v127
 BYTE   W24
 BYTE   Fn4  v112
 BYTE   W24
// 047   ----------------------------------------
 BYTE   TIE  Gn4  v120
 BYTE   W48
 BYTE   W48
// 048   ----------------------------------------
 BYTE   W48
 BYTE   W44
 BYTE   W03
 BYTE   EOT
 BYTE   W01
// 049   ----------------------------------------
 BYTE   W48
 BYTE   W48
// 050   ----------------------------------------
 BYTE   W48
 BYTE   W48
// 051   ----------------------------------------
 BYTE   W48
 BYTE   W48
// 052   ----------------------------------------
 BYTE   W48
 BYTE   W48
// 053   ----------------------------------------
 BYTE   W48
 BYTE   W48
// 054   ----------------------------------------
 BYTE   W48
 BYTE   W48
// 055   ----------------------------------------
 BYTE   W48
 BYTE   W48
// 056   ----------------------------------------
 BYTE   W48
 BYTE   W48
// 057   ----------------------------------------
 BYTE   W48
 BYTE   W48
// 058   ----------------------------------------
 BYTE   W48
 BYTE   W48
// 059   ----------------------------------------
 BYTE   W48
 BYTE   W48
// 060   ----------------------------------------
 BYTE   W48
 BYTE   W48
// 061   ----------------------------------------
 BYTE   W48
 BYTE   W48
// 062   ----------------------------------------
 BYTE   W48
 BYTE   W48
// 063   ----------------------------------------
 BYTE   W48
 BYTE   W48
// 064   ----------------------------------------
 BYTE   W48
 BYTE   W48
// 065   ----------------------------------------
 BYTE   W48
 BYTE   W48
// 066   ----------------------------------------
 BYTE   W48
 BYTE   W48
// 067   ----------------------------------------
 BYTE   GoTo
  POIN2 Label_8_014AE9E2
 BYTE   FINE

//**************** Track 10 (Midi-Chn.9) ****************//

song0144_010:
// 000   ----------------------------------------
 BYTE   KEYSH   song0144_key+0
 BYTE   VOICE   10
 BYTE   PAN   c_v+0
 BYTE   VOL   24*song0144_mvl/mxv
 BYTE   BEND   c_v-64
 BYTE   N01  En3  v092
 BYTE   W48
 BYTE   W24
 BYTE   En3  v072
 BYTE   W24
// 001   ----------------------------------------
 BYTE   En3  v100
 BYTE   W48
 BYTE   BEND   c_v-6
 BYTE   N01  Bn4  v040
 BYTE   W48
// 002   ----------------------------------------
 BYTE   BEND   c_v-64
 BYTE   N01  En3  v096
 BYTE   W48
 BYTE   W24
 BYTE   En3  v076
 BYTE   W24
// 003   ----------------------------------------
 BYTE   En3  v096
 BYTE   W24
 BYTE   En3  v108
 BYTE   W24
 BYTE   BEND   c_v-6
 BYTE   N01  Bn4  v052
 BYTE   W24
 BYTE   BEND   c_v-64
 BYTE   N01  En3  v068
 BYTE   W24
// 004   ----------------------------------------
Label_9_014AEBBF:
 BYTE   BEND   c_v-64
 BYTE   N01  En3  v100
 BYTE   W48
 BYTE   W24
 BYTE   En3  v080
 BYTE   W24
// 005   ----------------------------------------
 BYTE   En3  v112
 BYTE   W48
Label_9_014AEBCC:
 BYTE   BEND   c_v-6
 BYTE   N01  Bn4  v060
 BYTE   W48
 BYTE   PEND 
// 006   ----------------------------------------
 BYTE   BEND   c_v-64
 BYTE   N01  En3  v100
 BYTE   W48
 BYTE   W24
 BYTE   En3  v080
 BYTE   W24
// 007   ----------------------------------------
 BYTE   En3  v100
 BYTE   W24
 BYTE   En3  v112
 BYTE   W24
Label_9_014AEBE3:
 BYTE   BEND   c_v-6
 BYTE   N01  Bn4  v060
 BYTE   W24
 BYTE   BEND   c_v-64
 BYTE   N01  En3  v072
 BYTE   W24
 BYTE   PEND 
// 008   ----------------------------------------
 BYTE   BEND   c_v-64
 BYTE   N01  En3  v100
 BYTE   W48
 BYTE   W24
 BYTE   En3  v080
 BYTE   W24
// 009   ----------------------------------------
 BYTE   En3  v112
 BYTE   W48
// 010   ----------------------------------------
 BYTE   PATT
  POIN2 Label_9_014AEBCC
// 011   ----------------------------------------
 BYTE   BEND   c_v-64
 BYTE   N01  En3  v100
 BYTE   W48
 BYTE   W24
 BYTE   En3  v080
 BYTE   W24
// 012   ----------------------------------------
 BYTE   En3  v100
 BYTE   W24
 BYTE   En3  v112
 BYTE   W24
// 013   ----------------------------------------
 BYTE   PATT
  POIN2 Label_9_014AEBE3
// 014   ----------------------------------------
 BYTE   BEND   c_v-64
 BYTE   N01  En3  v100
 BYTE   W48
 BYTE   W24
 BYTE   En3  v080
 BYTE   W24
// 015   ----------------------------------------
 BYTE   En3  v112
 BYTE   W48
 BYTE   BEND   c_v+0
 BYTE   N01  Cn5  v052
 BYTE   W48
// 016   ----------------------------------------
 BYTE   BEND   c_v-64
 BYTE   N01  En3  v100
 BYTE   W48
 BYTE   W24
 BYTE   En3  v080
 BYTE   W24
// 017   ----------------------------------------
 BYTE   En3  v112
 BYTE   W48
// 018   ----------------------------------------
 BYTE   PATT
  POIN2 Label_9_014AEBCC
// 019   ----------------------------------------
 BYTE   BEND   c_v-64
 BYTE   N01  En3  v100
 BYTE   W48
 BYTE   W24
 BYTE   En3  v080
 BYTE   W24
// 020   ----------------------------------------
 BYTE   En3  v100
 BYTE   W24
 BYTE   En3  v112
 BYTE   W24
// 021   ----------------------------------------
 BYTE   PATT
  POIN2 Label_9_014AEBE3
// 022   ----------------------------------------
 BYTE   BEND   c_v-64
 BYTE   N01  En3  v100
 BYTE   W48
 BYTE   W24
 BYTE   En3  v080
 BYTE   W24
// 023   ----------------------------------------
 BYTE   En3  v112
 BYTE   W48
// 024   ----------------------------------------
 BYTE   PATT
  POIN2 Label_9_014AEBCC
// 025   ----------------------------------------
 BYTE   BEND   c_v-64
 BYTE   N01  En3  v100
 BYTE   W48
 BYTE   W24
 BYTE   En3  v080
 BYTE   W24
// 026   ----------------------------------------
 BYTE   En3  v100
 BYTE   W24
 BYTE   En3  v112
 BYTE   W24
// 027   ----------------------------------------
 BYTE   PATT
  POIN2 Label_9_014AEBE3
// 028   ----------------------------------------
 BYTE   BEND   c_v-64
 BYTE   N01  En3  v100
 BYTE   W48
 BYTE   W24
 BYTE   En3  v080
 BYTE   W24
// 029   ----------------------------------------
 BYTE   En3  v112
 BYTE   W12
 BYTE   BEND   c_v+0
 BYTE   N01  Cn2  v092
 BYTE   W36
 BYTE   Bn1  v080
 BYTE   N01  Cn5  v052
 BYTE   W24
 BYTE   Bn1  v092
 BYTE   W12
 BYTE   An1  v080
 BYTE   W12
// 030   ----------------------------------------
Label_9_014AEC97:
 BYTE   N01  Cn1  v088
 BYTE   N01  Fn1  v080
 BYTE   N01  Ds2  v092
 BYTE   W24
 BYTE   Ds2  v052
 BYTE   W24
 BYTE   PEND 
Label_9_014AECA5:
 BYTE   N01  Dn1  v100
 BYTE   N01  Ds2  v080
 BYTE   W24
 BYTE   Cn1  v068
 BYTE   N01  Fn1  v060
 BYTE   N01  Ds2  v052
 BYTE   W24
 BYTE   PEND 
// 031   ----------------------------------------
 BYTE   PATT
  POIN2 Label_9_014AEC97
// 032   ----------------------------------------
Label_9_014AECBB:
 BYTE   N01  Dn1  v100
 BYTE   N01  Ds2  v080
 BYTE   W24
 BYTE   Ds2  v052
 BYTE   W24
 BYTE   PEND 
// 033   ----------------------------------------
 BYTE   PATT
  POIN2 Label_9_014AEC97
// 034   ----------------------------------------
 BYTE   PATT
  POIN2 Label_9_014AECA5
// 035   ----------------------------------------
Label_9_014AECD0:
 BYTE   N01  Cn1  v056
 BYTE   N01  Fn1  v052
 BYTE   N01  Ds2  v092
 BYTE   W24
 BYTE   Cn1  v096
 BYTE   N01  Fn1  v092
 BYTE   N01  Ds2  v052
 BYTE   W24
 BYTE   PEND 
// 036   ----------------------------------------
 BYTE   PATT
  POIN2 Label_9_014AECA5
// 037   ----------------------------------------
 BYTE   PATT
  POIN2 Label_9_014AEC97
// 038   ----------------------------------------
 BYTE   PATT
  POIN2 Label_9_014AECA5
// 039   ----------------------------------------
 BYTE   PATT
  POIN2 Label_9_014AEC97
// 040   ----------------------------------------
 BYTE   PATT
  POIN2 Label_9_014AECBB
// 041   ----------------------------------------
 BYTE   PATT
  POIN2 Label_9_014AEC97
// 042   ----------------------------------------
 BYTE   PATT
  POIN2 Label_9_014AECA5
// 043   ----------------------------------------
Label_9_014AED07:
 BYTE   N01  Cn1  v056
 BYTE   N01  Fn1  v052
 BYTE   N01  Ds2  v092
 BYTE   W12
 BYTE   Cn2
 BYTE   W12
 BYTE   Cn1  v096
 BYTE   N01  Fn1  v092
 BYTE   N01  Ds2  v052
 BYTE   W24
 BYTE   PEND 
Label_9_014AED1D:
 BYTE   N01  Dn1  v100
 BYTE   N01  Bn1  v080
 BYTE   N01  Ds2
 BYTE   W24
 BYTE   Cn1  v068
 BYTE   N01  Fn1  v060
 BYTE   N01  Bn1  v092
 BYTE   N01  Ds2  v052
 BYTE   W12
 BYTE   An1  v080
 BYTE   W12
 BYTE   PEND 
// 044   ----------------------------------------
 BYTE   PATT
  POIN2 Label_9_014AEC97
// 045   ----------------------------------------
 BYTE   PATT
  POIN2 Label_9_014AECA5
// 046   ----------------------------------------
 BYTE   PATT
  POIN2 Label_9_014AEC97
// 047   ----------------------------------------
 BYTE   PATT
  POIN2 Label_9_014AECBB
// 048   ----------------------------------------
 BYTE   PATT
  POIN2 Label_9_014AEC97
// 049   ----------------------------------------
 BYTE   PATT
  POIN2 Label_9_014AECA5
// 050   ----------------------------------------
 BYTE   PATT
  POIN2 Label_9_014AECD0
// 051   ----------------------------------------
 BYTE   PATT
  POIN2 Label_9_014AECA5
// 052   ----------------------------------------
 BYTE   PATT
  POIN2 Label_9_014AEC97
// 053   ----------------------------------------
 BYTE   PATT
  POIN2 Label_9_014AECA5
// 054   ----------------------------------------
 BYTE   PATT
  POIN2 Label_9_014AEC97
// 055   ----------------------------------------
 BYTE   PATT
  POIN2 Label_9_014AECBB
// 056   ----------------------------------------
 BYTE   PATT
  POIN2 Label_9_014AEC97
// 057   ----------------------------------------
 BYTE   PATT
  POIN2 Label_9_014AECA5
// 058   ----------------------------------------
 BYTE   PATT
  POIN2 Label_9_014AECD0
// 059   ----------------------------------------
 BYTE   PATT
  POIN2 Label_9_014AECA5
// 060   ----------------------------------------
 BYTE   PATT
  POIN2 Label_9_014AEC97
// 061   ----------------------------------------
 BYTE   PATT
  POIN2 Label_9_014AECA5
// 062   ----------------------------------------
 BYTE   PATT
  POIN2 Label_9_014AED07
// 063   ----------------------------------------
 BYTE   PATT
  POIN2 Label_9_014AED1D
// 064   ----------------------------------------
Label_9_014AED9A:
 BYTE   N01  Cn1  v080
 BYTE   N01  Fn1  v092
 BYTE   N01  Fs1
 BYTE   N01  An4  v072
 BYTE   W24
 BYTE   Fs1  v040
 BYTE   W12
 BYTE   Fs1  v020
 BYTE   W12
 BYTE   PEND 
Label_9_014AEDAD:
 BYTE   N01  Fs1  v092
 BYTE   W24
 BYTE   Fs1  v040
 BYTE   W12
 BYTE   Cn1  v032
 BYTE   N01  Fn1  v052
 BYTE   N01  Fs1  v020
 BYTE   N01  Gs4  v060
 BYTE   W12
 BYTE   PEND 
// 065   ----------------------------------------
Label_9_014AEDC1:
 BYTE   N01  Cn1  v080
 BYTE   N01  Fn1  v092
 BYTE   N01  Fs1
 BYTE   N01  An4  v072
 BYTE   W24
 BYTE   Cn1  v060
 BYTE   N01  Fn1  v072
 BYTE   N01  Fs1  v040
 BYTE   W12
 BYTE   Fs1  v020
 BYTE   W12
 BYTE   PEND 
Label_9_014AEDDA:
 BYTE   N01  Dn1  v100
 BYTE   N01  Fs1  v092
 BYTE   N01  Ds4  v127
 BYTE   W24
 BYTE   Fs1  v040
 BYTE   W12
 BYTE   Fs1  v020
 BYTE   W12
 BYTE   PEND 
// 066   ----------------------------------------
 BYTE   PATT
  POIN2 Label_9_014AED9A
// 067   ----------------------------------------
 BYTE   PATT
  POIN2 Label_9_014AEDAD
// 068   ----------------------------------------
 BYTE   PATT
  POIN2 Label_9_014AEDC1
// 069   ----------------------------------------
 BYTE   PATT
  POIN2 Label_9_014AEDDA
// 070   ----------------------------------------
 BYTE   PATT
  POIN2 Label_9_014AED9A
// 071   ----------------------------------------
 BYTE   PATT
  POIN2 Label_9_014AEDAD
// 072   ----------------------------------------
 BYTE   PATT
  POIN2 Label_9_014AEDC1
// 073   ----------------------------------------
 BYTE   PATT
  POIN2 Label_9_014AEDDA
// 074   ----------------------------------------
 BYTE   PATT
  POIN2 Label_9_014AED9A
// 075   ----------------------------------------
 BYTE   PATT
  POIN2 Label_9_014AEDAD
// 076   ----------------------------------------
 BYTE   PATT
  POIN2 Label_9_014AEDC1
// 077   ----------------------------------------
 BYTE   N01  Dn1  v100
 BYTE   N01  Fs1  v092
 BYTE   N01  Ds4  v127
 BYTE   W24
 BYTE   Dn1  v100
 BYTE   N01  As1  v040
 BYTE   W12
 BYTE   Dn1  v060
 BYTE   W12
// 078   ----------------------------------------
 BYTE   PATT
  POIN2 Label_9_014AED9A
// 079   ----------------------------------------
 BYTE   PATT
  POIN2 Label_9_014AEDAD
// 080   ----------------------------------------
 BYTE   PATT
  POIN2 Label_9_014AEDC1
// 081   ----------------------------------------
 BYTE   PATT
  POIN2 Label_9_014AEDDA
// 082   ----------------------------------------
 BYTE   PATT
  POIN2 Label_9_014AED9A
// 083   ----------------------------------------
 BYTE   PATT
  POIN2 Label_9_014AEDAD
// 084   ----------------------------------------
 BYTE   PATT
  POIN2 Label_9_014AEDC1
// 085   ----------------------------------------
 BYTE   PATT
  POIN2 Label_9_014AEDDA
// 086   ----------------------------------------
 BYTE   PATT
  POIN2 Label_9_014AED9A
// 087   ----------------------------------------
 BYTE   PATT
  POIN2 Label_9_014AEDAD
// 088   ----------------------------------------
 BYTE   PATT
  POIN2 Label_9_014AEDC1
// 089   ----------------------------------------
 BYTE   PATT
  POIN2 Label_9_014AEDDA
// 090   ----------------------------------------
 BYTE   PATT
  POIN2 Label_9_014AED9A
// 091   ----------------------------------------
 BYTE   PATT
  POIN2 Label_9_014AEDAD
// 092   ----------------------------------------
 BYTE   PATT
  POIN2 Label_9_014AEDC1
// 093   ----------------------------------------
 BYTE   N01  Dn1  v100
 BYTE   N01  Fs1  v092
 BYTE   N01  Ds4  v127
 BYTE   W12
 BYTE   Dn1  v040
 BYTE   W12
 BYTE   Dn1  v072
 BYTE   N01  As1  v040
 BYTE   W12
 BYTE   Dn1  v032
 BYTE   W12
 BYTE   GoTo
  POIN2 Label_9_014AEBBF
 BYTE   FINE

//******************************************************//
	ALIGN 4

song0144:
	BYTE	10	// NumTrks
	BYTE	0	// NumBlks
	BYTE	song0144_pri	// Priority
	BYTE	song0144_rev	// Reverb.
    
	POIN2	song0144_grp
    
	POIN2	song0144_001
	POIN2	song0144_002
	POIN2	song0144_003
	POIN2	song0144_004
	POIN2	song0144_005
	POIN2	song0144_006
	POIN2	song0144_007
	POIN2	song0144_008
	POIN2	song0144_009
	POIN2	song0144_010

	
