//Event file generated from Sappy .s format.
	#include "MPlayDef.event"

	#define	Tales2_grp  voicegroup000
	#define	Tales2_pri  0
	#define	Tales2_rev  160
	#define	Tales2_mvl  125
	#define	Tales2_key  0
	#define	Tales2_tbs  1
	#define	Tales2_exg  0
	#define	Tales2_cmp  1

	// .rodata
	//	Tales2
	ALIGN 4


//**************** Track 1 (Midi-Chn.0) ****************//

Tales2_001:
//  #01 //000   ----------------------------------------
 BYTE   KEYSH   Tales2_key+0
 BYTE   TEMPO   174*Tales2_tbs/2
 BYTE   VOICE   52
 BYTE   PAN   c_v+27
 BYTE   VOL   30*Tales2_mvl/mxv
 BYTE   W96
//  #01 //001   ----------------------------------------
 BYTE   W96
//  #01 //002   ----------------------------------------
 BYTE   W96
//  #01 //003   ----------------------------------------
 BYTE   W96
//  #01 //004   ----------------------------------------
Label_019B3ED2:
 BYTE   W96
//  #01 //005   ----------------------------------------
 BYTE   W96
//  #01 //006   ----------------------------------------
 BYTE   W96
//  #01 //007   ----------------------------------------
 BYTE   W96
//  #01 //008   ----------------------------------------
 BYTE   N96  Ds4  v120
 BYTE   N96  Cn5
 BYTE   W96
//  #01 //009   ----------------------------------------
 BYTE   Dn4
 BYTE   N96  As4
 BYTE   W96
//  #01 //010   ----------------------------------------
 BYTE   Gn4
 BYTE   N96  Cn5
 BYTE   W96
//  #01 //011   ----------------------------------------
 BYTE   N72  Fs4
 BYTE   N72  Dn5
 BYTE   W96
//  #01 //012   ----------------------------------------
 BYTE   W36
 BYTE   N90  Dn3  v127
 BYTE   W60
//  #01 //013   ----------------------------------------
 BYTE   W36
 BYTE   N36  Cn3
 BYTE   W36
 BYTE   N24  Fn3
 BYTE   W24
//  #01 //014   ----------------------------------------
 BYTE   TIE  Dn3
 BYTE   W96
//  #01 //015   ----------------------------------------
 BYTE   W84
 BYTE   EOT
 BYTE   W12
//  #01 //016   ----------------------------------------
 BYTE   N36  Ds3
 BYTE   W36
 BYTE   N90  As3
 BYTE   W60
//  #01 //017   ----------------------------------------
 BYTE   W36
 BYTE   N36  An3
 BYTE   W36
 BYTE   N24  Cn4
 BYTE   W24
//  #01 //018   ----------------------------------------
 BYTE   TIE  As3
 BYTE   W96
//  #01 //019   ----------------------------------------
 BYTE   W84
 BYTE   EOT
 BYTE   W12
//  #01 //020   ----------------------------------------
 BYTE   N30
 BYTE   N30  Dn4
 BYTE   W36
 BYTE   N24  An3
 BYTE   N24  Cn4
 BYTE   W24
 BYTE   As3
 BYTE   N24  Dn4
 BYTE   W24
 BYTE   N12  Cn4
 BYTE   N12  Ds4
 BYTE   W12
//  #01 //021   ----------------------------------------
 BYTE   N30  Dn4
 BYTE   N30  Fn4
 BYTE   W36
 BYTE   N24  As3
 BYTE   N24  Dn4
 BYTE   W24
 BYTE   Cn4
 BYTE   N24  Ds4
 BYTE   W24
 BYTE   N12  Dn4
 BYTE   N12  Fn4
 BYTE   W12
//  #01 //022   ----------------------------------------
 BYTE   N66  Ds4
 BYTE   N66  Gn4
 BYTE   W72
 BYTE   N24  Ds4
 BYTE   N24  Gn4
 BYTE   W24
//  #01 //023   ----------------------------------------
 BYTE   N36  Dn4
 BYTE   N36  Fs4
 BYTE   W36
 BYTE   En4
 BYTE   N36  Gn4
 BYTE   W36
 BYTE   N24  Fs4
 BYTE   N24  An4
 BYTE   W24
//  #01 //024   ----------------------------------------
 BYTE   W96
//  #01 //025   ----------------------------------------
 BYTE   W96
//  #01 //026   ----------------------------------------
 BYTE   W96
//  #01 //027   ----------------------------------------
 BYTE   W96
//  #01 //028   ----------------------------------------
 BYTE   W96
//  #01 //029   ----------------------------------------
 BYTE   W96
//  #01 //030   ----------------------------------------
 BYTE   W96
//  #01 //031   ----------------------------------------
 BYTE   W96
//  #01 //032   ----------------------------------------
 BYTE   W96
//  #01 //033   ----------------------------------------
 BYTE   W96
//  #01 //034   ----------------------------------------
 BYTE   W96
//  #01 //035   ----------------------------------------
 BYTE   W72
 BYTE   N04  Cn3
 BYTE   N04  En3
 BYTE   W04
 BYTE   Dn3
 BYTE   N04  Fs3
 BYTE   W04
 BYTE   En3
 BYTE   N04  Gn3
 BYTE   W04
 BYTE   Fs3
 BYTE   N04  An3
 BYTE   W04
 BYTE   Gn3
 BYTE   N04  As3
 BYTE   W04
 BYTE   An3
 BYTE   N04  Cn4
 BYTE   W04
//  #01 //036   ----------------------------------------
 BYTE   N96  As3
 BYTE   N96  Dn4
 BYTE   W96
//  #01 //037   ----------------------------------------
Label_019B3F75:
 BYTE   N72  Dn4  v127
 BYTE   N72  An4
 BYTE   W72
 BYTE   N24  Dn4
 BYTE   N24  As4
 BYTE   W24
 BYTE   PEND 
//  #01 //038   ----------------------------------------
Label_019B3F81:
 BYTE   N30  Dn4  v127
 BYTE   N30  Gn4
 BYTE   W36
 BYTE   N36  Dn4
 BYTE   N36  Fs4
 BYTE   W36
 BYTE   N24  Dn4
 BYTE   N24  Gn4
 BYTE   W24
 BYTE   PEND 
//  #01 //039   ----------------------------------------
Label_019B3F92:
 BYTE   N36  Ds4  v127
 BYTE   N36  An4
 BYTE   W36
 BYTE   Ds4
 BYTE   N36  As4
 BYTE   W36
 BYTE   N21  Ds4
 BYTE   N21  Cn5
 BYTE   W24
 BYTE   PEND 
//  #01 //040   ----------------------------------------
 BYTE   N72  An4
 BYTE   N72  Cn5
 BYTE   W72
 BYTE   N12  Gn4
 BYTE   N12  As4
 BYTE   W12
 BYTE   Fs4
 BYTE   N12  An4
 BYTE   W12
//  #01 //041   ----------------------------------------
 BYTE   N60
 BYTE   N60  Cn5
 BYTE   W60
 BYTE   N24  Gn4
 BYTE   N24  As4
 BYTE   W24
 BYTE   N12  Fs4
 BYTE   N12  An4
 BYTE   W12
//  #01 //042   ----------------------------------------
 BYTE   N36  Dn4
 BYTE   N36  Gn4
 BYTE   W36
 BYTE   Dn4
 BYTE   N36  Fs4
 BYTE   W36
 BYTE   N24  Dn4
 BYTE   N24  Gn4
 BYTE   W24
//  #01 //043   ----------------------------------------
 BYTE   N84  Dn4
 BYTE   N84  An4
 BYTE   W96
//  #01 //044   ----------------------------------------
 BYTE   N96  As3
 BYTE   N96  Dn4
 BYTE   W96
//  #01 //045   ----------------------------------------
 BYTE   PATT
  POIN2 Label_019B3F75
//  #01 //046   ----------------------------------------
 BYTE   PATT
  POIN2 Label_019B3F81
//  #01 //047   ----------------------------------------
 BYTE   PATT
  POIN2 Label_019B3F92
//  #01 //048   ----------------------------------------
 BYTE   N72  Gn4  v127
 BYTE   N72  Cn5
 BYTE   W72
 BYTE   N12  Gn4
 BYTE   N12  As4
 BYTE   W12
 BYTE   Gn4
 BYTE   N12  An4
 BYTE   W12
//  #01 //049   ----------------------------------------
 BYTE   N30  Gn4
 BYTE   N30  Cn5
 BYTE   W36
 BYTE   N24  Gn4
 BYTE   N24  Cn5
 BYTE   W24
 BYTE   Gn4
 BYTE   N24  As4
 BYTE   W24
 BYTE   N12  Gn4
 BYTE   N12  An4
 BYTE   W12
//  #01 //050   ----------------------------------------
 BYTE   N60  Dn4
 BYTE   N60  Fs4
 BYTE   W60
 BYTE   N12  En4
 BYTE   N12  Gn4
 BYTE   W12
 BYTE   Fs4
 BYTE   N12  An4
 BYTE   W12
 BYTE   Gn4
 BYTE   N12  As4
 BYTE   W12
//  #01 //051   ----------------------------------------
 BYTE   N24  An4
 BYTE   N24  Cn5
 BYTE   W24
 BYTE   An4
 BYTE   N24  Dn5
 BYTE   W24
 BYTE   Gn4
 BYTE   N24  As4
 BYTE   W24
 BYTE   Dn4
 BYTE   N24  An4
 BYTE   W24
//  #01 //052   ----------------------------------------
 BYTE   TIE  Dn4
 BYTE   TIE  Gn4
 BYTE   W96
//  #01 //053   ----------------------------------------
 BYTE   W96
//  #01 //054   ----------------------------------------
 BYTE   W96
//  #01 //055   ----------------------------------------
 BYTE   W72
 BYTE   EOT
 BYTE   Dn4  v079
 BYTE   W24
//  #01 //056   ----------------------------------------
 BYTE   W96
//  #01 //057   ----------------------------------------
 BYTE   W96
//  #01 //058   ----------------------------------------
 BYTE   W96
//  #01 //059   ----------------------------------------
 BYTE   W96
//  #01 //060   ----------------------------------------
 BYTE   TIE  Gn4  v096
 BYTE   TIE  Dn5  v112
 BYTE   W96
//  #01 //061   ----------------------------------------
 BYTE   W96
//  #01 //062   ----------------------------------------
 BYTE   W96
//  #01 //063   ----------------------------------------
 BYTE   W96
//  #01 //064   ----------------------------------------
 BYTE   EOT
 BYTE   Gn4  v086
 BYTE   TIE  Dn4  v088
 BYTE   TIE  Gn4  v096
 BYTE   W96
//  #01 //065   ----------------------------------------
 BYTE   W96
//  #01 //066   ----------------------------------------
 BYTE   W96
//  #01 //067   ----------------------------------------
 BYTE   W96
//  #01 //068   ----------------------------------------
 BYTE   EOT
 BYTE   Dn4  v079
 BYTE   W96
//  #01 //069   ----------------------------------------
 BYTE   W96
//  #01 //070   ----------------------------------------
 BYTE   W96
//  #01 //071   ----------------------------------------
 BYTE   W96
//  #01 //072   ----------------------------------------
 BYTE   GoTo
  POIN2 Label_019B3ED2
//  #01 //073   ----------------------------------------
 BYTE   W48
 BYTE   FINE

//**************** Track 2 (Midi-Chn.1) ****************//

Tales2_002:
//  #02 //000   ----------------------------------------
 BYTE   KEYSH   Tales2_key+0
 BYTE   VOICE   55
 BYTE   PAN   c_v+12
 BYTE   VOL   46*Tales2_mvl/mxv
 BYTE   TIE  Dn2  v124
 BYTE   TIE  Gn2  v127
 BYTE   W96
//  #02 //001   ----------------------------------------
 BYTE   W96
//  #02 //002   ----------------------------------------
 BYTE   EOT
 BYTE   Dn2  v055
Label_019B5FB7:
 BYTE   N96  Dn2  v100
 BYTE   N96  An2  v112
 BYTE   W96
 BYTE   PEND 
//  #02 //003   ----------------------------------------
TALESLABEL1:
 BYTE   N96  Gn2  v100
 BYTE   N96  As2  v112
 BYTE   W96
 BYTE   PEND 
//  #02 //004   ----------------------------------------
Label_019B5FC7:
 BYTE   N36  Gn2  v100
 BYTE   N36  Ds3  v112
 BYTE   W36
 BYTE   N90  Gn2  v100
 BYTE   N90  As3  v112
 BYTE   W60
//  #02 //005   ----------------------------------------
 BYTE   W36
 BYTE   N36  Gn2
 BYTE   N36  Ds3  v100
 BYTE   N36  An3  v112
 BYTE   W36
 BYTE   N24  Gn2
 BYTE   N24  An3  v100
 BYTE   N24  Cn4  v112
 BYTE   W24
//  #02 //006   ----------------------------------------
 BYTE   TIE  Gn2
 BYTE   TIE  Gn3  v100
 BYTE   TIE  As3  v112
 BYTE   W96
//  #02 //007   ----------------------------------------
 BYTE   W84
 BYTE   EOT
 BYTE   Gn2  v067
 BYTE   As3
 BYTE   W12
//  #02 //008   ----------------------------------------
 BYTE   N96  Cn3  v100
 BYTE   N96  Gn3
 BYTE   W96
//  #02 //009   ----------------------------------------
 BYTE   Dn3
 BYTE   N96  Fn3
 BYTE   W96
//  #02 //010   ----------------------------------------
 BYTE   Ds3
 BYTE   N96  Gn3
 BYTE   W96
//  #02 //011   ----------------------------------------
 BYTE   Dn3
 BYTE   N96  Fs3
 BYTE   W96
//  #02 //012   ----------------------------------------
 BYTE   N36  Dn2  v120
 BYTE   W36
 BYTE   N90  As2
 BYTE   W60
//  #02 //013   ----------------------------------------
 BYTE   W36
 BYTE   N36  An2
 BYTE   W36
 BYTE   N24  Dn3
 BYTE   W24
//  #02 //014   ----------------------------------------
 BYTE   TIE  As2
 BYTE   W96
//  #02 //015   ----------------------------------------
 BYTE   W84
 BYTE   EOT
 BYTE   W12
//  #02 //016   ----------------------------------------
 BYTE   N36
 BYTE   W36
 BYTE   N90  Gn3
 BYTE   W60
//  #02 //017   ----------------------------------------
 BYTE   W36
 BYTE   N36  Fn3
 BYTE   W36
 BYTE   N24  An3
 BYTE   W24
//  #02 //018   ----------------------------------------
 BYTE   TIE  Gn3
 BYTE   W96
//  #02 //019   ----------------------------------------
 BYTE   W84
 BYTE   EOT
 BYTE   W12
//  #02 //020   ----------------------------------------
 BYTE   N30  As3  v127
 BYTE   N30  Dn4
 BYTE   W36
 BYTE   N24  An3
 BYTE   N24  Cn4
 BYTE   W24
 BYTE   As3
 BYTE   N24  Dn4
 BYTE   W24
 BYTE   N12  Cn4
 BYTE   N12  Ds4
 BYTE   W12
//  #02 //021   ----------------------------------------
 BYTE   N30  Dn4
 BYTE   N30  Fn4
 BYTE   W36
 BYTE   N24  As3
 BYTE   N24  Dn4
 BYTE   W24
 BYTE   Cn4
 BYTE   N24  Ds4
 BYTE   W24
 BYTE   N12  Dn4
 BYTE   N12  Fn4
 BYTE   W12
//  #02 //022   ----------------------------------------
 BYTE   N66  Ds4
 BYTE   N66  Gn4
 BYTE   W72
 BYTE   N24  Ds4
 BYTE   N24  Gn4
 BYTE   W24
//  #02 //023   ----------------------------------------
 BYTE   N36  Dn4
 BYTE   N36  Fs4
 BYTE   W36
 BYTE   En4
 BYTE   N36  Gn4
 BYTE   W36
 BYTE   N24  Fs4
 BYTE   N24  An4
 BYTE   W24
//  #02 //024   ----------------------------------------
 BYTE   N09  Dn3
 BYTE   N09  Gn3
 BYTE   W12
 BYTE   Dn3
 BYTE   W12
 BYTE   Dn3  v120
 BYTE   W12
 BYTE   Dn3  v127
 BYTE   N09  Gn3
 BYTE   W12
 BYTE   Dn3  v120
 BYTE   W12
 BYTE   N09
 BYTE   W12
 BYTE   Dn3  v127
 BYTE   N09  Gn3
 BYTE   W12
 BYTE   Dn3
 BYTE   W12
//  #02 //025   ----------------------------------------
 BYTE   N09
 BYTE   N09  Gn3
 BYTE   N09  An3
 BYTE   W12
 BYTE   Dn3
 BYTE   W12
 BYTE   Dn3  v120
 BYTE   W12
 BYTE   Dn3  v127
 BYTE   N09  Gn3
 BYTE   N09  An3
 BYTE   W12
 BYTE   Dn3  v120
 BYTE   W12
 BYTE   N09
 BYTE   W12
 BYTE   Dn3  v127
 BYTE   N09  Gn3
 BYTE   N09  An3
 BYTE   W12
 BYTE   Dn3
 BYTE   W12
//  #02 //026   ----------------------------------------
 BYTE   N09
 BYTE   N09  Gn3
 BYTE   N09  An3
 BYTE   N09  Dn4
 BYTE   W12
 BYTE   Dn3
 BYTE   W12
 BYTE   N09
 BYTE   W12
 BYTE   N09
 BYTE   N09  Gn3
 BYTE   N09  An3
 BYTE   N09  Dn4
 BYTE   W12
 BYTE   Dn3
 BYTE   W12
 BYTE   N09
 BYTE   W12
 BYTE   N09
 BYTE   N09  Gn3
 BYTE   N09  An3
 BYTE   N09  Dn4
 BYTE   W12
 BYTE   Dn3
 BYTE   W12
//  #02 //027   ----------------------------------------
 BYTE   N09
 BYTE   N09  Gn3
 BYTE   N09  An3
 BYTE   N09  Cn4
 BYTE   W12
 BYTE   Dn3
 BYTE   W12
 BYTE   N09
 BYTE   W12
 BYTE   N09
 BYTE   N09  Gn3
 BYTE   N09  An3
 BYTE   N09  Cn4
 BYTE   W12
 BYTE   Dn3
 BYTE   W12
 BYTE   N09
 BYTE   W12
 BYTE   N09
 BYTE   N09  Gn3
 BYTE   N09  An3
 BYTE   N09  Cn4
 BYTE   W12
 BYTE   Dn3
 BYTE   W12
//  #02 //028   ----------------------------------------
 BYTE   W96
//  #02 //029   ----------------------------------------
 BYTE   W96
//  #02 //030   ----------------------------------------
 BYTE   W96
//  #02 //031   ----------------------------------------
 BYTE   W96
//  #02 //032   ----------------------------------------
 BYTE   W96
//  #02 //033   ----------------------------------------
 BYTE   W96
//  #02 //034   ----------------------------------------
 BYTE   W96
//  #02 //035   ----------------------------------------
 BYTE   W96
//  #02 //036   ----------------------------------------
Label_019B60F5:
 BYTE   TIE  Dn2  v112
 BYTE   N96  As2  v120
 BYTE   W96
 BYTE   PEND 
//  #02 //037   ----------------------------------------
 BYTE   An2
 BYTE   W96
//  #02 //038   ----------------------------------------
 BYTE   EOT
 BYTE   Dn2
Label_019B6101:
 BYTE   N96  Dn2  v112
 BYTE   TIE  Gn2  v120
 BYTE   W96
 BYTE   PEND 
//  #02 //039   ----------------------------------------
 BYTE   N96  Cn2  v112
 BYTE   W96
//  #02 //040   ----------------------------------------
 BYTE   EOT
 BYTE   Gn2
Label_019B610F:
 BYTE   TIE  Cs3  v108
 BYTE   TIE  Gn3  v116
 BYTE   W96
 BYTE   PEND 
//  #02 //041   ----------------------------------------
 BYTE   W96
//  #02 //042   ----------------------------------------
 BYTE   EOT
 BYTE   Cs3  v067
 BYTE   N96  Dn3  v108
 BYTE   N96  Fs3  v116
 BYTE   W96
//  #02 //043   ----------------------------------------
 BYTE   Dn3  v108
 BYTE   N36  Fs3  v116
 BYTE   W36
 BYTE   Gn3
 BYTE   W36
 BYTE   N24  An3
 BYTE   W24
//  #02 //044   ----------------------------------------
 BYTE   PATT
  POIN2 Label_019B60F5
//  #02 //045   ----------------------------------------
 BYTE   N96  An2  v120
 BYTE   W96
//  #02 //046   ----------------------------------------
 BYTE   EOT
 BYTE   Dn2
//  #02 //047   ----------------------------------------
 BYTE   PATT
  POIN2 Label_019B6101
//  #02 //048   ----------------------------------------
 BYTE   N96  Cn2  v112
 BYTE   W96
//  #02 //049   ----------------------------------------
 BYTE   EOT
 BYTE   Gn2
//  #02 //050   ----------------------------------------
 BYTE   PATT
  POIN2 Label_019B610F
//  #02 //051   ----------------------------------------
 BYTE   W96
//  #02 //052   ----------------------------------------
 BYTE   EOT
 BYTE   Cs3  v067
 BYTE   TIE  Dn3  v108
 BYTE   TIE  Fs3  v116
 BYTE   W96
//  #02 //053   ----------------------------------------
 BYTE   W96
//  #02 //054   ----------------------------------------
 BYTE   EOT
 BYTE   Dn3  v066
 BYTE   W96
//  #02 //055   ----------------------------------------
 BYTE   W96
//  #02 //056   ----------------------------------------
 BYTE   W96
//  #02 //057   ----------------------------------------
 BYTE   W96
//  #02 //058   ----------------------------------------
 BYTE   TIE  Gn2  v120
 BYTE   W96
//  #02 //059   ----------------------------------------
 BYTE   Dn3  v127
 BYTE   W48
 BYTE   N48  Gn3
 BYTE   W48
//  #02 //060   ----------------------------------------
 BYTE   N96  An3
 BYTE   W96
//  #02 //061   ----------------------------------------
 BYTE   EOT
 BYTE   Dn3
 BYTE   N96  Gn3
 BYTE   N96  As3
 BYTE   W96
//  #02 //062   ----------------------------------------
 BYTE   EOT
 BYTE   Gn2
 BYTE   TIE  As2  v096
 BYTE   TIE  Gn3
 BYTE   W48
 BYTE   W05
 BYTE   W01
 BYTE   W05
 BYTE   W01
 BYTE   W05
 BYTE   W05
 BYTE   W01
 BYTE   W05
 BYTE   W01
 BYTE   W05
 BYTE   W01
 BYTE   W05
 BYTE   W05
 BYTE   W01
 BYTE   W02
//  #02 //063   ----------------------------------------
 BYTE   W03
 BYTE   W01
 BYTE   W05
 BYTE   W01
 BYTE   W05
 BYTE   W05
 BYTE   W01
 BYTE   W05
 BYTE   W01
 BYTE   W05
 BYTE   W01
 BYTE   W05
 BYTE   W05
 BYTE   W01
 BYTE   W05
 BYTE   W01
 BYTE   W05
 BYTE   W01
 BYTE   W05
 BYTE   W05
 BYTE   W01
 BYTE   W05
 BYTE   W01
 BYTE   W05
 BYTE   W01
 BYTE   W05
 BYTE   W05
 BYTE   W01
 BYTE   W05
 BYTE   W01
//  #02 //064   ----------------------------------------
 BYTE   W05
 BYTE   W01
 BYTE   W05
 BYTE   W05
 BYTE   W01
 BYTE   W05
 BYTE   W01
 BYTE   W05
 BYTE   W01
 BYTE   W05
 BYTE   W05
 BYTE   W01
 BYTE   W05
 BYTE   W01
 BYTE   W05
 BYTE   W01
 BYTE   W05
 BYTE   W05
 BYTE   W01
 BYTE   W05
 BYTE   W01
 BYTE   W05
 BYTE   W01
 BYTE   W05
 BYTE   W05
 BYTE   W01
 BYTE   W05
 BYTE   W01
 BYTE   W04
//  #02 //065   ----------------------------------------
 BYTE   W01
 BYTE   W05
 BYTE   W01
 BYTE   W05
 BYTE   W01
 BYTE   W05
 BYTE   W01
 BYTE   W05
 BYTE   W05
 BYTE   W01
 BYTE   W05
 BYTE   W01
 BYTE   W05
 BYTE   W01
 BYTE   W05
 BYTE   W05
 BYTE   W01
 BYTE   W05
 BYTE   W01
 BYTE   W05
 BYTE   W01
 BYTE   W05
 BYTE   W05
 BYTE   W01
 BYTE   W05
 BYTE   W01
 BYTE   W05
 BYTE   W01
 BYTE   W05
 BYTE   W03
//  #02 //066   ----------------------------------------
 BYTE   EOT
 BYTE   As2  v067
 BYTE   TIE  Gn2  v108
 BYTE   W96
//  #02 //067   ----------------------------------------
 BYTE   W96
//  #02 //068   ----------------------------------------
 BYTE   Dn3  v116
 BYTE   W02
 BYTE   W02
 BYTE   W03
 BYTE   W02
 BYTE   W03
 BYTE   W02
 BYTE   W03
 BYTE   W02
 BYTE   W03
 BYTE   W02
 BYTE   W03
 BYTE   W02
 BYTE   W03
 BYTE   W02
 BYTE   W03
 BYTE   W02
 BYTE   W03
 BYTE   W02
 BYTE   W03
 BYTE   W02
 BYTE   W03
 BYTE   W02
 BYTE   W03
 BYTE   W02
 BYTE   W03
 BYTE   W02
 BYTE   W03
 BYTE   W02
 BYTE   W03
 BYTE   W02
 BYTE   W03
 BYTE   W02
 BYTE   W03
 BYTE   W02
 BYTE   W03
 BYTE   W02
 BYTE   W03
 BYTE   W02
 BYTE   W02
//  #02 //069   ----------------------------------------
 BYTE   N72  An3
 BYTE   W01
 BYTE   W02
 BYTE   W03
 BYTE   W02
 BYTE   W03
 BYTE   W02
 BYTE   W03
 BYTE   W02
 BYTE   W03
 BYTE   W02
 BYTE   W03
 BYTE   W02
 BYTE   W03
 BYTE   W02
 BYTE   W03
 BYTE   W02
 BYTE   W03
 BYTE   W02
 BYTE   W03
 BYTE   W02
 BYTE   W03
 BYTE   W02
 BYTE   W03
 BYTE   W02
 BYTE   W03
 BYTE   W02
 BYTE   W03
 BYTE   W02
 BYTE   W03
 BYTE   W01
 BYTE   N24  As3  v120
 BYTE   W01
 BYTE   W03
 BYTE   W02
 BYTE   W03
 BYTE   W02
 BYTE   W03
 BYTE   W02
 BYTE   W03
 BYTE   W02
 BYTE   W03
//  #02 //070   ----------------------------------------
 BYTE   EOT
 BYTE   Gn2  v062
 BYTE   TIE  Dn3  v108
 BYTE   TIE  As3  v120
 BYTE   W24
 BYTE   W01
 BYTE   W01
 BYTE   W01
 BYTE   W01
 BYTE   W01
 BYTE   W01
 BYTE   W01
 BYTE   W02
 BYTE   W01
 BYTE   W01
 BYTE   W01
 BYTE   W02
 BYTE   W01
 BYTE   W01
 BYTE   W01
 BYTE   W01
 BYTE   W01
 BYTE   W01
 BYTE   W01
 BYTE   W02
 BYTE   W01
 BYTE   W01
 BYTE   W01
 BYTE   W02
 BYTE   W01
 BYTE   W01
 BYTE   W01
 BYTE   W02
 BYTE   W01
 BYTE   W01
 BYTE   W01
 BYTE   W01
 BYTE   W01
 BYTE   W01
 BYTE   W01
 BYTE   W02
 BYTE   W01
 BYTE   W01
 BYTE   W01
 BYTE   W02
 BYTE   W01
 BYTE   W01
 BYTE   W01
 BYTE   W01
 BYTE   W01
 BYTE   W01
 BYTE   W01
 BYTE   W02
 BYTE   W01
 BYTE   W01
 BYTE   W01
 BYTE   W02
 BYTE   W01
 BYTE   W01
 BYTE   W01
 BYTE   W02
 BYTE   W01
 BYTE   W01
 BYTE   W01
 BYTE   W01
 BYTE   W01
 BYTE   W01
//  #02 //071   ----------------------------------------
 BYTE   W01
 BYTE   W02
 BYTE   W01
 BYTE   W01
 BYTE   W01
 BYTE   W02
 BYTE   W01
 BYTE   W01
 BYTE   W01
 BYTE   W02
 BYTE   W01
 BYTE   W01
 BYTE   W01
 BYTE   W01
 BYTE   W01
 BYTE   W01
 BYTE   W01
 BYTE   W02
 BYTE   W01
 BYTE   W01
 BYTE   W01
 BYTE   W02
 BYTE   W01
 BYTE   W01
 BYTE   W01
 BYTE   W01
 BYTE   W01
 BYTE   W01
 BYTE   W01
 BYTE   W02
 BYTE   W01
 BYTE   W01
 BYTE   W01
 BYTE   W02
 BYTE   W01
 BYTE   W01
 BYTE   W01
 BYTE   W02
 BYTE   W01
 BYTE   W01
 BYTE   EOT
 BYTE   Dn3  v070
 BYTE   W44
 BYTE   W03
 BYTE   W01
//  #02 //072   ----------------------------------------
 BYTE   PATT
  POIN2 Label_019B5FB7
//  #02 //073   ----------------------------------------
 BYTE   PATT
  POIN2 TALESLABEL1
//  #02 //074   ----------------------------------------
 BYTE   GoTo
  POIN2 Label_019B5FC7
//  #02 //075   ----------------------------------------
 BYTE   W48
 BYTE   FINE

//**************** Track 3 (Midi-Chn.2) ****************//

Tales2_003:
//  #03 //000   ----------------------------------------
 BYTE   VOL   45*Tales2_mvl/mxv
 BYTE   KEYSH   Tales2_key+0
 BYTE   VOICE   36
 BYTE   PAN   c_v-13
 BYTE   N12  Gn0  v112
 BYTE   N12  Gn1  v127
 BYTE   W36
 BYTE   Gn0  v112
 BYTE   N12  Gn1  v127
 BYTE   W36
 BYTE   Gn0  v112
 BYTE   N12  Gn1  v127
 BYTE   W24
//  #03 //001   ----------------------------------------
Label_019B58A3:
 BYTE   N12  Gn0  v112
 BYTE   N12  Gn1  v127
 BYTE   W12
 BYTE   Dn1  v112
 BYTE   W12
 BYTE   N12
 BYTE   W12
 BYTE   Gn0
 BYTE   N12  Gn1  v127
 BYTE   W12
 BYTE   Dn1  v112
 BYTE   W12
 BYTE   N12
 BYTE   W12
 BYTE   Gn0
 BYTE   N12  Gn1  v127
 BYTE   W12
 BYTE   Dn1  v112
 BYTE   W12
 BYTE   PEND 
//  #03 //002   ----------------------------------------
Label_019B58C2:
 BYTE   N12  Gn0  v112
 BYTE   N12  Gn1  v127
 BYTE   W36
 BYTE   Gn0  v112
 BYTE   N12  Gn1  v127
 BYTE   W36
 BYTE   Gn0  v112
 BYTE   N12  Gn1  v127
 BYTE   W24
 BYTE   PEND 
//  #03 //003   ----------------------------------------
 BYTE   PATT
  POIN2 Label_019B58A3
//  #03 //004   ----------------------------------------
Label_019B58DB:
 BYTE   N12  Ds1  v112
 BYTE   N12  Ds2  v127
 BYTE   W36
 BYTE   Ds1  v112
 BYTE   N12  Ds2  v127
 BYTE   W36
 BYTE   Ds1  v112
 BYTE   N12  Ds2  v127
 BYTE   W24
 BYTE   PEND 
//  #03 //005   ----------------------------------------
Label_019B58EF:
 BYTE   N12  Ds1  v112
 BYTE   N12  Ds2  v127
 BYTE   W12
 BYTE   As1  v112
 BYTE   W12
 BYTE   N12
 BYTE   W12
 BYTE   Ds1
 BYTE   N12  Ds2  v127
 BYTE   W12
 BYTE   As1  v112
 BYTE   W12
 BYTE   N12
 BYTE   W12
 BYTE   Ds1
 BYTE   N12  Ds2  v127
 BYTE   W12
 BYTE   As1  v112
 BYTE   W12
 BYTE   PEND 
//  #03 //006   ----------------------------------------
 BYTE   PATT
  POIN2 Label_019B58DB
//  #03 //007   ----------------------------------------
 BYTE   PATT
  POIN2 Label_019B58EF
//  #03 //008   ----------------------------------------
 BYTE   N12  Cn1  v112
 BYTE   N12  Cn2  v127
 BYTE   W04
 BYTE   W04
 BYTE   W04
 BYTE   W05
 BYTE   W04
 BYTE   W04
 BYTE   W05
 BYTE   W04
 BYTE   W02
 BYTE   Cn1  v112
 BYTE   N12  Cn2  v127
 BYTE   W02
 BYTE   W04
 BYTE   W05
 BYTE   W04
 BYTE   W04
 BYTE   W05
 BYTE   W04
 BYTE   W04
 BYTE   W04
 BYTE   Cn1  v112
 BYTE   N12  Cn2  v127
 BYTE   W01
 BYTE   W04
 BYTE   W04
 BYTE   W04
 BYTE   W05
 BYTE   W04
 BYTE   W02
//  #03 //009   ----------------------------------------
 BYTE   As0  v112
 BYTE   N12  As1  v127
 BYTE   W12
 BYTE   Fn1  v112
 BYTE   W12
 BYTE   N12
 BYTE   W12
 BYTE   As0
 BYTE   N12  As1  v127
 BYTE   W12
 BYTE   Fn1  v112
 BYTE   W12
 BYTE   N12
 BYTE   W12
 BYTE   As0
 BYTE   N12  As1  v127
 BYTE   W12
 BYTE   Fn1  v112
 BYTE   W12
//  #03 //010   ----------------------------------------
 BYTE   An0
 BYTE   N12  An1  v127
 BYTE   W36
 BYTE   An0  v112
 BYTE   N12  An1  v127
 BYTE   W36
 BYTE   An0  v112
 BYTE   N12  An1  v127
 BYTE   W24
//  #03 //011   ----------------------------------------
Label_019B596F:
 BYTE   N12  Dn1  v112
 BYTE   N12  Dn2  v127
 BYTE   W12
 BYTE   An1  v112
 BYTE   W12
 BYTE   N12
 BYTE   W12
 BYTE   Dn1
 BYTE   N12  Dn2  v127
 BYTE   W12
 BYTE   An1  v112
 BYTE   W12
 BYTE   N12
 BYTE   W12
 BYTE   Dn1
 BYTE   N12  Dn2  v127
 BYTE   W12
 BYTE   An1  v112
 BYTE   W12
 BYTE   PEND 
//  #03 //012   ----------------------------------------
 BYTE   Gn0
 BYTE   N12  Gn1  v127
 BYTE   N36  Gn2
 BYTE   W36
 BYTE   N12  Gn0  v112
 BYTE   N12  Gn1  v127
 BYTE   W36
 BYTE   Gn0  v112
 BYTE   N12  Gn1  v127
 BYTE   W24
//  #03 //013   ----------------------------------------
 BYTE   PATT
  POIN2 Label_019B58A3
//  #03 //014   ----------------------------------------
 BYTE   PATT
  POIN2 Label_019B58C2
//  #03 //015   ----------------------------------------
 BYTE   PATT
  POIN2 Label_019B58A3
//  #03 //016   ----------------------------------------
 BYTE   PATT
  POIN2 Label_019B58DB
//  #03 //017   ----------------------------------------
 BYTE   PATT
  POIN2 Label_019B58EF
//  #03 //018   ----------------------------------------
 BYTE   PATT
  POIN2 Label_019B58DB
//  #03 //019   ----------------------------------------
 BYTE   PATT
  POIN2 Label_019B58EF
//  #03 //020   ----------------------------------------
 BYTE   N12  Cn1  v112
 BYTE   N12  Cn2  v127
 BYTE   W36
 BYTE   Cn1  v112
 BYTE   N12  Cn2  v127
 BYTE   W36
 BYTE   Cn1  v112
 BYTE   N12  Cn2  v127
 BYTE   W24
//  #03 //021   ----------------------------------------
 BYTE   PATT
  POIN2 Label_019B596F
//  #03 //022   ----------------------------------------
 BYTE   PATT
  POIN2 Label_019B58DB
//  #03 //023   ----------------------------------------
 BYTE   PATT
  POIN2 Label_019B596F
//  #03 //024   ----------------------------------------
 BYTE   PATT
  POIN2 Label_019B58C2
//  #03 //025   ----------------------------------------
 BYTE   PATT
  POIN2 Label_019B58A3
//  #03 //026   ----------------------------------------
 BYTE   PATT
  POIN2 Label_019B58C2
//  #03 //027   ----------------------------------------
 BYTE   PATT
  POIN2 Label_019B58A3
//  #03 //028   ----------------------------------------
 BYTE   W96
//  #03 //029   ----------------------------------------
 BYTE   W96
//  #03 //030   ----------------------------------------
 BYTE   W96
//  #03 //031   ----------------------------------------
 BYTE   W96
//  #03 //032   ----------------------------------------
 BYTE   W96
//  #03 //033   ----------------------------------------
 BYTE   W96
//  #03 //034   ----------------------------------------
 BYTE   W96
//  #03 //035   ----------------------------------------
 BYTE   W96
//  #03 //036   ----------------------------------------
 BYTE   PATT
  POIN2 Label_019B58C2
//  #03 //037   ----------------------------------------
Label_019B5A08:
 BYTE   N12  An0  v112
 BYTE   N12  An1  v127
 BYTE   W12
 BYTE   Dn1  v112
 BYTE   W12
 BYTE   N12
 BYTE   W12
 BYTE   An0
 BYTE   N12  An1  v127
 BYTE   W12
 BYTE   Dn1  v112
 BYTE   W12
 BYTE   N12
 BYTE   W12
 BYTE   An0
 BYTE   N12  An1  v127
 BYTE   W12
 BYTE   Dn1  v112
 BYTE   W12
 BYTE   PEND 
//  #03 //038   ----------------------------------------
Label_019B5A27:
 BYTE   N12  As0  v112
 BYTE   N12  As1  v127
 BYTE   W36
 BYTE   As0  v112
 BYTE   N12  As1  v127
 BYTE   W36
 BYTE   As0  v112
 BYTE   N12  As1  v127
 BYTE   W24
 BYTE   PEND 
//  #03 //039   ----------------------------------------
Label_019B5A3B:
 BYTE   N12  Cn1  v112
 BYTE   N12  Cn2  v127
 BYTE   W12
 BYTE   Gn1  v112
 BYTE   W12
 BYTE   N12
 BYTE   W12
 BYTE   Cn1
 BYTE   N12  Cn2  v127
 BYTE   W12
 BYTE   Gn1  v112
 BYTE   W12
 BYTE   N12
 BYTE   W12
 BYTE   Cn1
 BYTE   N12  Cn2  v127
 BYTE   W12
 BYTE   Gn1  v112
 BYTE   W12
 BYTE   PEND 
//  #03 //040   ----------------------------------------
Label_019B5A5A:
 BYTE   N12  Cs1  v112
 BYTE   N12  Cs2  v127
 BYTE   W36
 BYTE   Cs1  v112
 BYTE   N12  Cs2  v127
 BYTE   W36
 BYTE   Cs1  v112
 BYTE   N12  Cs2  v127
 BYTE   W24
 BYTE   PEND 
//  #03 //041   ----------------------------------------
 BYTE   En1  v112
 BYTE   N12  En2  v127
 BYTE   W12
 BYTE   An1  v112
 BYTE   W12
 BYTE   N12
 BYTE   W12
 BYTE   En1
 BYTE   N12  En2  v127
 BYTE   W12
 BYTE   An1  v112
 BYTE   W12
 BYTE   N12
 BYTE   W12
 BYTE   En1
 BYTE   N12  En2  v127
 BYTE   W12
 BYTE   An1  v112
 BYTE   W12
//  #03 //042   ----------------------------------------
Label_019B5A8B:
 BYTE   N12  Dn1  v112
 BYTE   N12  Dn2  v127
 BYTE   W36
 BYTE   Dn1  v112
 BYTE   N12  Dn2  v127
 BYTE   W36
 BYTE   Dn1  v112
 BYTE   N12  Dn2  v127
 BYTE   W24
 BYTE   PEND 
//  #03 //043   ----------------------------------------
 BYTE   PATT
  POIN2 Label_019B596F
//  #03 //044   ----------------------------------------
 BYTE   PATT
  POIN2 Label_019B58C2
//  #03 //045   ----------------------------------------
 BYTE   PATT
  POIN2 Label_019B5A08
//  #03 //046   ----------------------------------------
 BYTE   PATT
  POIN2 Label_019B5A27
//  #03 //047   ----------------------------------------
 BYTE   PATT
  POIN2 Label_019B5A3B
//  #03 //048   ----------------------------------------
 BYTE   PATT
  POIN2 Label_019B5A5A
//  #03 //049   ----------------------------------------
 BYTE   N12  Cs1  v112
 BYTE   N12  Cs2  v127
 BYTE   W12
 BYTE   Gn1  v112
 BYTE   W12
 BYTE   N12
 BYTE   W12
 BYTE   Cs1
 BYTE   N12  Cs2  v127
 BYTE   W12
 BYTE   Gn1  v112
 BYTE   W12
 BYTE   N12
 BYTE   W12
 BYTE   Cs1
 BYTE   N12  Cs2  v127
 BYTE   W12
 BYTE   Gn1  v112
 BYTE   W12
//  #03 //050   ----------------------------------------
 BYTE   PATT
  POIN2 Label_019B5A8B
//  #03 //051   ----------------------------------------
 BYTE   PATT
  POIN2 Label_019B596F
//  #03 //052   ----------------------------------------
 BYTE   PATT
  POIN2 Label_019B58C2
//  #03 //053   ----------------------------------------
 BYTE   PATT
  POIN2 Label_019B58A3
//  #03 //054   ----------------------------------------
 BYTE   PATT
  POIN2 Label_019B58C2
//  #03 //055   ----------------------------------------
 BYTE   PATT
  POIN2 Label_019B58A3
//  #03 //056   ----------------------------------------
 BYTE   PATT
  POIN2 Label_019B58C2
//  #03 //057   ----------------------------------------
 BYTE   PATT
  POIN2 Label_019B58A3
//  #03 //058   ----------------------------------------
 BYTE   PATT
  POIN2 Label_019B58C2
//  #03 //059   ----------------------------------------
 BYTE   PATT
  POIN2 Label_019B58A3
//  #03 //060   ----------------------------------------
 BYTE   W96
//  #03 //061   ----------------------------------------
 BYTE   W96
//  #03 //062   ----------------------------------------
 BYTE   W96
//  #03 //063   ----------------------------------------
 BYTE   W96
//  #03 //064   ----------------------------------------
 BYTE   W96
//  #03 //065   ----------------------------------------
 BYTE   W96
//  #03 //066   ----------------------------------------
 BYTE   W96
//  #03 //067   ----------------------------------------
 BYTE   W96
//  #03 //068   ----------------------------------------
 BYTE   PATT
  POIN2 Label_019B58C2
//  #03 //069   ----------------------------------------
 BYTE   PATT
  POIN2 Label_019B58A3
//  #03 //070   ----------------------------------------
 BYTE   PATT
  POIN2 Label_019B58C2
//  #03 //071   ----------------------------------------
 BYTE   PATT
  POIN2 Label_019B58A3
//  #03 //072   ----------------------------------------
 BYTE   GoTo
  POIN2 Label_019B58DB
//  #03 //073   ----------------------------------------
 BYTE   W24
 BYTE   W24
 BYTE   FINE

//**************** Track 4 (Midi-Chn.3) ****************//

Tales2_004:
//  #04 //000   ----------------------------------------
 BYTE   KEYSH   Tales2_key+0
 BYTE   VOICE   42
 BYTE   PAN   c_v-14
 BYTE   VOL   24*Tales2_mvl/mxv
 BYTE   W96
//  #04 //001   ----------------------------------------
 BYTE   W96
//  #04 //002   ----------------------------------------
 BYTE   W96
//  #04 //003   ----------------------------------------
 BYTE   W96
//  #04 //004   ----------------------------------------
Label_019B48EC:
 BYTE   W96
//  #04 //005   ----------------------------------------
 BYTE   W96
//  #04 //006   ----------------------------------------
 BYTE   W96
//  #04 //007   ----------------------------------------
 BYTE   W96
//  #04 //008   ----------------------------------------
 BYTE   W96
//  #04 //009   ----------------------------------------
 BYTE   W96
//  #04 //010   ----------------------------------------
 BYTE   W96
//  #04 //011   ----------------------------------------
 BYTE   W96
//  #04 //012   ----------------------------------------
 BYTE   W96
//  #04 //013   ----------------------------------------
 BYTE   W96
//  #04 //014   ----------------------------------------
 BYTE   W96
//  #04 //015   ----------------------------------------
 BYTE   W96
//  #04 //016   ----------------------------------------
 BYTE   W96
//  #04 //017   ----------------------------------------
 BYTE   W96
//  #04 //018   ----------------------------------------
 BYTE   W96
//  #04 //019   ----------------------------------------
 BYTE   W96
//  #04 //020   ----------------------------------------
 BYTE   W96
//  #04 //021   ----------------------------------------
 BYTE   W96
//  #04 //022   ----------------------------------------
 BYTE   W96
//  #04 //023   ----------------------------------------
 BYTE   W96
//  #04 //024   ----------------------------------------
Label_019B4900:
 BYTE   W12
 BYTE   N09  Gn2  v127
 BYTE   W12
 BYTE   Gn2  v120
 BYTE   W24
 BYTE   N09
 BYTE   W12
 BYTE   N09
 BYTE   W24
 BYTE   Gn2  v127
 BYTE   W12
 BYTE   PEND 
//  #04 //025   ----------------------------------------
 BYTE   PATT
  POIN2 Label_019B4900
//  #04 //026   ----------------------------------------
Label_019B4915:
 BYTE   W12
 BYTE   N09  Gn2  v127
 BYTE   W12
 BYTE   N09
 BYTE   W24
 BYTE   N09
 BYTE   W12
 BYTE   N09
 BYTE   W24
 BYTE   N09
 BYTE   W12
 BYTE   PEND 
//  #04 //027   ----------------------------------------
 BYTE   PATT
  POIN2 Label_019B4915
//  #04 //028   ----------------------------------------
Label_019B4928:
 BYTE   TIE  As2  v112
 BYTE   TIE  Gn3
 BYTE   W96
 BYTE   PEND 
//  #04 //029   ----------------------------------------
 BYTE   W96
//  #04 //030   ----------------------------------------
 BYTE   EOT
 BYTE   As2  v067
 BYTE   TIE  An2
 BYTE   TIE  Fn3
 BYTE   W96
//  #04 //031   ----------------------------------------
 BYTE   W96
//  #04 //032   ----------------------------------------
 BYTE   EOT
 BYTE   An2  v065
//  #04 //033   ----------------------------------------
 BYTE   PATT
  POIN2 Label_019B4928
//  #04 //034   ----------------------------------------
 BYTE   W96
//  #04 //035   ----------------------------------------
 BYTE   EOT
 BYTE   As2  v067
 BYTE   TIE  An2  v112
 BYTE   TIE  Fs3
 BYTE   W96
//  #04 //036   ----------------------------------------
 BYTE   W96
//  #04 //037   ----------------------------------------
 BYTE   EOT
 BYTE   An2  v066
 BYTE   TIE  Dn2  v120
 BYTE   N96  As2  v127
 BYTE   W96
//  #04 //038   ----------------------------------------
 BYTE   An2
 BYTE   W96
//  #04 //039   ----------------------------------------
 BYTE   EOT
 BYTE   Dn2
 BYTE   N96  Dn2  v120
 BYTE   TIE  Gn2  v127
 BYTE   W96
//  #04 //040   ----------------------------------------
 BYTE   N96  Cn2  v120
 BYTE   W96
//  #04 //041   ----------------------------------------
 BYTE   EOT
 BYTE   Gn2
 BYTE   W96
//  #04 //042   ----------------------------------------
 BYTE   W96
//  #04 //043   ----------------------------------------
 BYTE   W96
//  #04 //044   ----------------------------------------
 BYTE   W96
//  #04 //045   ----------------------------------------
 BYTE   W96
//  #04 //046   ----------------------------------------
 BYTE   W96
//  #04 //047   ----------------------------------------
 BYTE   W96
//  #04 //048   ----------------------------------------
 BYTE   W96
//  #04 //049   ----------------------------------------
 BYTE   W96
//  #04 //050   ----------------------------------------
 BYTE   W96
//  #04 //051   ----------------------------------------
 BYTE   W96
//  #04 //052   ----------------------------------------
 BYTE   W96
//  #04 //053   ----------------------------------------
 BYTE   W96
//  #04 //054   ----------------------------------------
 BYTE   W96
//  #04 //055   ----------------------------------------
 BYTE   W96
//  #04 //056   ----------------------------------------
 BYTE   W96
//  #04 //057   ----------------------------------------
 BYTE   W96
//  #04 //058   ----------------------------------------
 BYTE   W96
//  #04 //059   ----------------------------------------
 BYTE   W96
//  #04 //060   ----------------------------------------
 BYTE   W96
//  #04 //061   ----------------------------------------
 BYTE   W96
//  #04 //062   ----------------------------------------
 BYTE   W96
//  #04 //063   ----------------------------------------
 BYTE   W96
//  #04 //064   ----------------------------------------
 BYTE   W96
//  #04 //065   ----------------------------------------
 BYTE   W96
//  #04 //066   ----------------------------------------
 BYTE   W96
//  #04 //067   ----------------------------------------
 BYTE   W96
//  #04 //068   ----------------------------------------
 BYTE   W96
//  #04 //069   ----------------------------------------
 BYTE   W96
//  #04 //070   ----------------------------------------
 BYTE   W96
//  #04 //071   ----------------------------------------
 BYTE   W96
//  #04 //072   ----------------------------------------
 BYTE   W96
//  #04 //073   ----------------------------------------
 BYTE   GoTo
  POIN2 Label_019B48EC
//  #04 //074   ----------------------------------------
 BYTE   W48
 BYTE   FINE

//**************** Track 5 (Midi-Chn.4) ****************//

Tales2_005:
//  #05 //000   ----------------------------------------
 BYTE   KEYSH   Tales2_key+0
 BYTE   VOICE   62
 BYTE   VOL   17*Tales2_mvl/mxv
 BYTE   PAN   c_v+12
 BYTE   PAN   c_v+12
 BYTE   TIE  Dn2  v124
 BYTE   TIE  Gn2  v127
 BYTE   W96
//  #05 //001   ----------------------------------------
 BYTE   W96
//  #05 //002   ----------------------------------------
 BYTE   EOT
 BYTE   Dn2  v055
Label_019B52F4:
 BYTE   N96  Dn2  v100
 BYTE   N96  An2  v112
 BYTE   W96
 BYTE   PEND 
//  #05 //003   ----------------------------------------
Label_019B52FC:
 BYTE   N96  Gn2  v100
 BYTE   N96  As2  v112
 BYTE   W96
 BYTE   PEND 
//  #05 //004   ----------------------------------------
Label_019B5304:
 BYTE   N36  Gn2  v100
 BYTE   W36
 BYTE   N90
 BYTE   W60
//  #05 //005   ----------------------------------------
 BYTE   W36
 BYTE   N36  Gn2  v112
 BYTE   W36
 BYTE   N24
 BYTE   W24
//  #05 //006   ----------------------------------------
 BYTE   TIE
 BYTE   W96
//  #05 //007   ----------------------------------------
 BYTE   W84
 BYTE   EOT
 BYTE   W12
//  #05 //008   ----------------------------------------
 BYTE   N96  Cn3  v100
 BYTE   W96
//  #05 //009   ----------------------------------------
 BYTE   W96
//  #05 //010   ----------------------------------------
 BYTE   W96
//  #05 //011   ----------------------------------------
 BYTE   W96
//  #05 //012   ----------------------------------------
 BYTE   N36  Dn2  v120
 BYTE   W36
 BYTE   N90  As2
 BYTE   W60
//  #05 //013   ----------------------------------------
 BYTE   W36
 BYTE   N36  An2
 BYTE   W60
//  #05 //014   ----------------------------------------
 BYTE   TIE  As2
 BYTE   W96
//  #05 //015   ----------------------------------------
 BYTE   W84
 BYTE   EOT
 BYTE   W12
//  #05 //016   ----------------------------------------
 BYTE   N36
 BYTE   W96
//  #05 //017   ----------------------------------------
 BYTE   W96
//  #05 //018   ----------------------------------------
 BYTE   W96
//  #05 //019   ----------------------------------------
 BYTE   W96
//  #05 //020   ----------------------------------------
 BYTE   W96
//  #05 //021   ----------------------------------------
 BYTE   W96
//  #05 //022   ----------------------------------------
 BYTE   W96
//  #05 //023   ----------------------------------------
 BYTE   W96
//  #05 //024   ----------------------------------------
Label_019B5337:
 BYTE   W12
 BYTE   N09  Gn2  v127
 BYTE   W12
 BYTE   Gn2  v120
 BYTE   W24
 BYTE   N09
 BYTE   W12
 BYTE   N09
 BYTE   W24
 BYTE   Gn2  v127
 BYTE   W12
 BYTE   PEND 
//  #05 //025   ----------------------------------------
 BYTE   PATT
  POIN2 Label_019B5337
//  #05 //026   ----------------------------------------
Label_019B534C:
 BYTE   W12
 BYTE   N09  Gn2  v127
 BYTE   W12
 BYTE   N09
 BYTE   W24
 BYTE   N09
 BYTE   W12
 BYTE   N09
 BYTE   W24
 BYTE   N09
 BYTE   W12
 BYTE   PEND 
//  #05 //027   ----------------------------------------
 BYTE   PATT
  POIN2 Label_019B534C
//  #05 //028   ----------------------------------------
 BYTE   W96
//  #05 //029   ----------------------------------------
 BYTE   W96
//  #05 //030   ----------------------------------------
 BYTE   W96
//  #05 //031   ----------------------------------------
 BYTE   W96
//  #05 //032   ----------------------------------------
 BYTE   W96
//  #05 //033   ----------------------------------------
 BYTE   W96
//  #05 //034   ----------------------------------------
 BYTE   W96
//  #05 //035   ----------------------------------------
 BYTE   W96
//  #05 //036   ----------------------------------------
Label_019B5367:
 BYTE   TIE  Dn2  v112
 BYTE   N96  As2  v120
 BYTE   W96
 BYTE   PEND 
//  #05 //037   ----------------------------------------
 BYTE   An2
 BYTE   W96
//  #05 //038   ----------------------------------------
 BYTE   EOT
 BYTE   Dn2
Label_019B5373:
 BYTE   N96  Dn2  v112
 BYTE   TIE  Gn2  v120
 BYTE   W96
 BYTE   PEND 
//  #05 //039   ----------------------------------------
 BYTE   N96  Cn2  v112
 BYTE   W96
//  #05 //040   ----------------------------------------
 BYTE   EOT
 BYTE   Gn2
 BYTE   W96
//  #05 //041   ----------------------------------------
 BYTE   W96
//  #05 //042   ----------------------------------------
 BYTE   W96
//  #05 //043   ----------------------------------------
 BYTE   W96
//  #05 //044   ----------------------------------------
 BYTE   PATT
  POIN2 Label_019B5367
//  #05 //045   ----------------------------------------
 BYTE   N96  An2  v120
 BYTE   W96
//  #05 //046   ----------------------------------------
 BYTE   EOT
 BYTE   Dn2
//  #05 //047   ----------------------------------------
 BYTE   PATT
  POIN2 Label_019B5373
//  #05 //048   ----------------------------------------
 BYTE   N96  Cn2  v112
 BYTE   W96
//  #05 //049   ----------------------------------------
 BYTE   EOT
 BYTE   Gn2
 BYTE   W96
//  #05 //050   ----------------------------------------
 BYTE   W96
//  #05 //051   ----------------------------------------
 BYTE   W96
//  #05 //052   ----------------------------------------
 BYTE   W96
//  #05 //053   ----------------------------------------
 BYTE   W96
//  #05 //054   ----------------------------------------
 BYTE   W96
//  #05 //055   ----------------------------------------
 BYTE   W96
//  #05 //056   ----------------------------------------
 BYTE   W96
//  #05 //057   ----------------------------------------
 BYTE   TIE  Gn2  v120
 BYTE   W96
//  #05 //058   ----------------------------------------
 BYTE   W96
//  #05 //059   ----------------------------------------
 BYTE   W96
//  #05 //060   ----------------------------------------
 BYTE   W96
//  #05 //061   ----------------------------------------
 BYTE   EOT
 BYTE   TIE  As2  v096
 BYTE   W48
 BYTE   W05
 BYTE   W01
 BYTE   W05
 BYTE   W01
 BYTE   W05
 BYTE   W05
 BYTE   W01
 BYTE   W05
 BYTE   W01
 BYTE   W05
 BYTE   W01
 BYTE   W05
 BYTE   W05
 BYTE   W01
 BYTE   W02
//  #05 //062   ----------------------------------------
 BYTE   W03
 BYTE   W01
 BYTE   W05
 BYTE   W01
 BYTE   W05
 BYTE   W05
 BYTE   W01
 BYTE   W05
 BYTE   W01
 BYTE   W05
 BYTE   W01
 BYTE   W05
 BYTE   W05
 BYTE   W01
 BYTE   W05
 BYTE   W01
 BYTE   W05
 BYTE   W01
 BYTE   W05
 BYTE   W05
 BYTE   W01
 BYTE   W05
 BYTE   W01
 BYTE   W05
 BYTE   W01
 BYTE   W05
 BYTE   W05
 BYTE   W01
 BYTE   W05
 BYTE   W01
//  #05 //063   ----------------------------------------
 BYTE   W05
 BYTE   W01
 BYTE   W05
 BYTE   W05
 BYTE   W01
 BYTE   W05
 BYTE   W01
 BYTE   W05
 BYTE   W01
 BYTE   W05
 BYTE   W05
 BYTE   W01
 BYTE   W05
 BYTE   W01
 BYTE   W05
 BYTE   W01
 BYTE   W05
 BYTE   W05
 BYTE   W01
 BYTE   W05
 BYTE   W01
 BYTE   W05
 BYTE   W01
 BYTE   W05
 BYTE   W05
 BYTE   W01
 BYTE   W05
 BYTE   W01
 BYTE   W04
//  #05 //064   ----------------------------------------
 BYTE   W01
 BYTE   W05
 BYTE   W01
 BYTE   W05
 BYTE   W01
 BYTE   W05
 BYTE   W01
 BYTE   W05
 BYTE   W05
 BYTE   W01
 BYTE   W05
 BYTE   W01
 BYTE   W05
 BYTE   W01
 BYTE   W05
 BYTE   W05
 BYTE   W01
 BYTE   W05
 BYTE   W01
 BYTE   W05
 BYTE   W01
 BYTE   W05
 BYTE   W05
 BYTE   W01
 BYTE   W05
 BYTE   W01
 BYTE   W05
 BYTE   W01
 BYTE   W05
 BYTE   W03
//  #05 //065   ----------------------------------------
 BYTE   EOT
 BYTE   TIE  Gn2  v108
 BYTE   W96
//  #05 //066   ----------------------------------------
 BYTE   W96
//  #05 //067   ----------------------------------------
 BYTE   W02
 BYTE   W02
 BYTE   W03
 BYTE   W02
 BYTE   W03
 BYTE   W02
 BYTE   W03
 BYTE   W02
 BYTE   W03
 BYTE   W02
 BYTE   W03
 BYTE   W02
 BYTE   W03
 BYTE   W02
 BYTE   W03
 BYTE   W02
 BYTE   W03
 BYTE   W02
 BYTE   W03
 BYTE   W02
 BYTE   W03
 BYTE   W02
 BYTE   W03
 BYTE   W02
 BYTE   W03
 BYTE   W02
 BYTE   W03
 BYTE   W02
 BYTE   W03
 BYTE   W02
 BYTE   W03
 BYTE   W02
 BYTE   W03
 BYTE   W02
 BYTE   W03
 BYTE   W02
 BYTE   W03
 BYTE   W02
 BYTE   W02
//  #05 //068   ----------------------------------------
 BYTE   W01
 BYTE   W02
 BYTE   W03
 BYTE   W02
 BYTE   W03
 BYTE   W02
 BYTE   W03
 BYTE   W02
 BYTE   W03
 BYTE   W02
 BYTE   W03
 BYTE   W02
 BYTE   W03
 BYTE   W02
 BYTE   W03
 BYTE   W02
 BYTE   W03
 BYTE   W02
 BYTE   W03
 BYTE   W02
 BYTE   W03
 BYTE   W02
 BYTE   W03
 BYTE   W02
 BYTE   W03
 BYTE   W02
 BYTE   W03
 BYTE   W02
 BYTE   W03
 BYTE   W02
 BYTE   W03
 BYTE   W02
 BYTE   W03
 BYTE   W02
 BYTE   W03
 BYTE   W02
 BYTE   W03
 BYTE   W02
 BYTE   W03
//  #05 //069   ----------------------------------------
 BYTE   EOT
 BYTE   W24
 BYTE   W01
 BYTE   W01
 BYTE   W01
 BYTE   W01
 BYTE   W01
 BYTE   W01
 BYTE   W01
 BYTE   W02
 BYTE   W01
 BYTE   W01
 BYTE   W01
 BYTE   W02
 BYTE   W01
 BYTE   W01
 BYTE   W01
 BYTE   W01
 BYTE   W01
 BYTE   W01
 BYTE   W01
 BYTE   W02
 BYTE   W01
 BYTE   W01
 BYTE   W01
 BYTE   W02
 BYTE   W01
 BYTE   W01
 BYTE   W01
 BYTE   W02
 BYTE   W01
 BYTE   W01
 BYTE   W01
 BYTE   W01
 BYTE   W01
 BYTE   W01
 BYTE   W01
 BYTE   W02
 BYTE   W01
 BYTE   W01
 BYTE   W01
 BYTE   W02
 BYTE   W01
 BYTE   W01
 BYTE   W01
 BYTE   W01
 BYTE   W01
 BYTE   W01
 BYTE   W01
 BYTE   W02
 BYTE   W01
 BYTE   W01
 BYTE   W01
 BYTE   W02
 BYTE   W01
 BYTE   W01
 BYTE   W01
 BYTE   W02
 BYTE   W01
 BYTE   W01
 BYTE   W01
 BYTE   W01
 BYTE   W01
 BYTE   W01
//  #05 //070   ----------------------------------------
 BYTE   W01
 BYTE   W02
 BYTE   W01
 BYTE   W01
 BYTE   W01
 BYTE   W02
 BYTE   W01
 BYTE   W01
 BYTE   W01
 BYTE   W02
 BYTE   W01
 BYTE   W01
 BYTE   W01
 BYTE   W01
 BYTE   W01
 BYTE   W01
 BYTE   W01
 BYTE   W02
 BYTE   W01
 BYTE   W01
 BYTE   W01
 BYTE   W02
 BYTE   W01
 BYTE   W01
 BYTE   W01
 BYTE   W01
 BYTE   W01
 BYTE   W01
 BYTE   W01
 BYTE   W02
 BYTE   W01
 BYTE   W01
 BYTE   W01
 BYTE   W02
 BYTE   W01
 BYTE   W01
 BYTE   W01
 BYTE   W02
 BYTE   W01
 BYTE   W01
 BYTE   W44
 BYTE   W03
 BYTE   W01
//  #05 //071   ----------------------------------------
 BYTE   PATT
  POIN2 Label_019B52F4
//  #05 //072   ----------------------------------------
 BYTE   PATT
  POIN2 Label_019B52FC
//  #05 //073   ----------------------------------------
 BYTE   GoTo
  POIN2 Label_019B5304
//  #05 //074   ----------------------------------------
 BYTE   W48
 BYTE   FINE

//**************** Track 6 (Midi-Chn.5) ****************//

Tales2_006:
//  #06 //000   ----------------------------------------
 BYTE   KEYSH   Tales2_key+0
 BYTE   VOICE   19
 BYTE   VOL   22*Tales2_mvl/mxv
 BYTE   PAN   c_v-4
 BYTE   W96
//  #06 //001   ----------------------------------------
 BYTE   W96
//  #06 //002   ----------------------------------------
 BYTE   W96
//  #06 //003   ----------------------------------------
 BYTE   W96
//  #06 //004   ----------------------------------------
Label_0192B120:
 BYTE   W96
//  #06 //005   ----------------------------------------
 BYTE   W96
//  #06 //006   ----------------------------------------
 BYTE   W96
//  #06 //007   ----------------------------------------
 BYTE   W96
//  #06 //008   ----------------------------------------
 BYTE   W96
//  #06 //009   ----------------------------------------
 BYTE   W96
//  #06 //010   ----------------------------------------
 BYTE   W96
//  #06 //011   ----------------------------------------
 BYTE   W96
//  #06 //012   ----------------------------------------
 BYTE   W96
//  #06 //013   ----------------------------------------
 BYTE   W96
//  #06 //014   ----------------------------------------
Label_0192B12A:
 BYTE   N04  As2  v127
 BYTE   W04
 BYTE   Cn3  v100
 BYTE   W04
 BYTE   As2
 BYTE   W04
 BYTE   Cn3
 BYTE   W04
 BYTE   As2  v108
 BYTE   W04
 BYTE   Cn3  v112
 BYTE   W04
 BYTE   As2  v116
 BYTE   W04
 BYTE   Cn3  v120
 BYTE   W04
 BYTE   As2  v127
 BYTE   W04
 BYTE   Cn3
 BYTE   W04
 BYTE   As2
 BYTE   W04
 BYTE   Cn3
 BYTE   W04
 BYTE   As2
 BYTE   W04
 BYTE   Cn3  v120
 BYTE   W04
 BYTE   Dn3
 BYTE   W04
 BYTE   Ds3
 BYTE   W04
 BYTE   Fn3
 BYTE   W04
 BYTE   Gn3
 BYTE   W04
 BYTE   An3
 BYTE   W04
 BYTE   As3
 BYTE   W04
 BYTE   Cn4
 BYTE   W04
 BYTE   Dn4
 BYTE   W04
 BYTE   Ds4
 BYTE   W04
 BYTE   Fn4
 BYTE   W04
 BYTE   PEND 
//  #06 //015   ----------------------------------------
Label_0192B164:
 BYTE   N04  Gn4  v120
 BYTE   W04
 BYTE   An4
 BYTE   W04
 BYTE   As4
 BYTE   W04
 BYTE   An4
 BYTE   W04
 BYTE   Gn4
 BYTE   W04
 BYTE   Fn4
 BYTE   W04
 BYTE   Ds4
 BYTE   W04
 BYTE   Dn4
 BYTE   W04
 BYTE   Cn4
 BYTE   W04
 BYTE   As3
 BYTE   W04
 BYTE   An3
 BYTE   W04
 BYTE   Gn3
 BYTE   W04
 BYTE   Fn3
 BYTE   W04
 BYTE   Ds3
 BYTE   W04
 BYTE   Dn3
 BYTE   W04
 BYTE   Cn3
 BYTE   W04
 BYTE   As2
 BYTE   W04
 BYTE   An2
 BYTE   W04
 BYTE   Gn2
 BYTE   W04
 BYTE   Fn2
 BYTE   W04
 BYTE   Ds2
 BYTE   W04
 BYTE   Dn2
 BYTE   W04
 BYTE   Cn2
 BYTE   W04
 BYTE   As1
 BYTE   W04
 BYTE   PEND 
//  #06 //016   ----------------------------------------
 BYTE   W96
//  #06 //017   ----------------------------------------
 BYTE   W96
//  #06 //018   ----------------------------------------
 BYTE   PATT
  POIN2 Label_0192B12A
//  #06 //019   ----------------------------------------
 BYTE   PATT
  POIN2 Label_0192B164
//  #06 //020   ----------------------------------------
 BYTE   W96
//  #06 //021   ----------------------------------------
 BYTE   W96
//  #06 //022   ----------------------------------------
 BYTE   W96
//  #06 //023   ----------------------------------------
 BYTE   W96
//  #06 //024   ----------------------------------------
 BYTE   W96
//  #06 //025   ----------------------------------------
 BYTE   W96
//  #06 //026   ----------------------------------------
 BYTE   W96
//  #06 //027   ----------------------------------------
 BYTE   W96
//  #06 //028   ----------------------------------------
Label_0192B1AB:
 BYTE   N36  An4  v112
 BYTE   W36
 BYTE   Gn4
 BYTE   W36
 BYTE   N24  Cn5
 BYTE   W24
 BYTE   PEND 
//  #06 //029   ----------------------------------------
 BYTE   TIE  An4
 BYTE   W96
//  #06 //030   ----------------------------------------
 BYTE   W24
 BYTE   EOT
 BYTE   W12
 BYTE   N36  Gn4
 BYTE   W36
 BYTE   N24  An4
 BYTE   W24
//  #06 //031   ----------------------------------------
 BYTE   N36  Dn4
 BYTE   W36
 BYTE   Fn4
 BYTE   W36
 BYTE   N24  Gn4
 BYTE   W24
//  #06 //032   ----------------------------------------
 BYTE   PATT
  POIN2 Label_0192B1AB
//  #06 //033   ----------------------------------------
 BYTE   TIE  An4  v112
 BYTE   W96
//  #06 //034   ----------------------------------------
 BYTE   W24
 BYTE   EOT
 BYTE   W12
 BYTE   N36  As4
 BYTE   W36
 BYTE   N24  An4
 BYTE   W24
//  #06 //035   ----------------------------------------
 BYTE   N36  Cn5
 BYTE   W36
 BYTE   As4
 BYTE   W36
 BYTE   N24  An4
 BYTE   W24
//  #06 //036   ----------------------------------------
 BYTE   W96
//  #06 //037   ----------------------------------------
 BYTE   W96
//  #06 //038   ----------------------------------------
 BYTE   W96
//  #06 //039   ----------------------------------------
 BYTE   W96
//  #06 //040   ----------------------------------------
 BYTE   W96
//  #06 //041   ----------------------------------------
 BYTE   W96
//  #06 //042   ----------------------------------------
 BYTE   W96
//  #06 //043   ----------------------------------------
 BYTE   W96
//  #06 //044   ----------------------------------------
 BYTE   W96
//  #06 //045   ----------------------------------------
 BYTE   W96
//  #06 //046   ----------------------------------------
 BYTE   W96
//  #06 //047   ----------------------------------------
 BYTE   W96
//  #06 //048   ----------------------------------------
 BYTE   W96
//  #06 //049   ----------------------------------------
 BYTE   W96
//  #06 //050   ----------------------------------------
 BYTE   W96
//  #06 //051   ----------------------------------------
 BYTE   W96
//  #06 //052   ----------------------------------------
 BYTE   W96
//  #06 //053   ----------------------------------------
 BYTE   W96
//  #06 //054   ----------------------------------------
 BYTE   W96
//  #06 //055   ----------------------------------------
 BYTE   W96
//  #06 //056   ----------------------------------------
 BYTE   W96
//  #06 //057   ----------------------------------------
 BYTE   W96
//  #06 //058   ----------------------------------------
 BYTE   VOICE   1
 BYTE   VOL   19*Tales2_mvl/mxv
 BYTE   PAN   c_v+6
 BYTE   W96
//  #06 //059   ----------------------------------------
 BYTE   W96
//  #06 //060   ----------------------------------------
 BYTE   W48
 BYTE   N48  Dn4  v100
 BYTE   N48  Dn5
 BYTE   W48
//  #06 //061   ----------------------------------------
 BYTE   Cn4
 BYTE   N48  Cn5
 BYTE   W48
 BYTE   An3
 BYTE   N48  An4
 BYTE   W48
//  #06 //062   ----------------------------------------
 BYTE   As3
 BYTE   N48  As4
 BYTE   W48
 BYTE   Gn3
 BYTE   N48  Gn4
 BYTE   W48
//  #06 //063   ----------------------------------------
 BYTE   Ds3
 BYTE   N48  Ds4
 BYTE   W48
 BYTE   Dn3
 BYTE   N48  Dn4
 BYTE   W48
//  #06 //064   ----------------------------------------
 BYTE   TIE  Gn2
 BYTE   TIE  Gn3
 BYTE   W96
//  #06 //065   ----------------------------------------
 BYTE   W96
//  #06 //066   ----------------------------------------
 BYTE   EOT
 BYTE   Gn2  v067
 BYTE   W96
//  #06 //067   ----------------------------------------
 BYTE   W96
//  #06 //068   ----------------------------------------
 BYTE   VOICE   68
 BYTE   VOL   22*Tales2_mvl/mxv
 BYTE   PAN   c_v-4
 BYTE   W96
//  #06 //069   ----------------------------------------
 BYTE   W96
//  #06 //070   ----------------------------------------
 BYTE   W96
//  #06 //071   ----------------------------------------
 BYTE   W96
//  #06 //072   ----------------------------------------
 BYTE   GoTo
  POIN2 Label_0192B120
//  #06 //073   ----------------------------------------
 BYTE   W48
 BYTE   FINE

//**************** Track 7 (Midi-Chn.6) ****************//

Tales2_007:
//  #07 //000   ----------------------------------------
 BYTE   KEYSH   Tales2_key+0
 BYTE   VOICE   40
 BYTE   VOL   22*Tales2_mvl/mxv
 BYTE   PAN   c_v+4
 BYTE   W96
//  #07 //001   ----------------------------------------
 BYTE   W96
//  #07 //002   ----------------------------------------
 BYTE   W96
//  #07 //003   ----------------------------------------
 BYTE   W96
//  #07 //004   ----------------------------------------
Label_019B3B14:
 BYTE   W96
//  #07 //005   ----------------------------------------
 BYTE   W96
//  #07 //006   ----------------------------------------
 BYTE   W96
//  #07 //007   ----------------------------------------
 BYTE   W96
//  #07 //008   ----------------------------------------
 BYTE   W96
//  #07 //009   ----------------------------------------
 BYTE   W96
//  #07 //010   ----------------------------------------
 BYTE   W96
//  #07 //011   ----------------------------------------
 BYTE   W96
//  #07 //012   ----------------------------------------
 BYTE   W96
//  #07 //013   ----------------------------------------
 BYTE   W96
//  #07 //014   ----------------------------------------
Label_019B3B1E:
 BYTE   N04  Gn4  v127
 BYTE   W04
 BYTE   An4  v092
 BYTE   W04
 BYTE   Gn4
 BYTE   W04
 BYTE   An4
 BYTE   W04
 BYTE   Gn4  v096
 BYTE   W04
 BYTE   An4  v100
 BYTE   W04
 BYTE   Gn4  v108
 BYTE   W04
 BYTE   An4  v112
 BYTE   W04
 BYTE   Gn4  v116
 BYTE   W04
 BYTE   An4
 BYTE   W04
 BYTE   Gn4  v120
 BYTE   W04
 BYTE   An4
 BYTE   W04
 BYTE   Gn4  v127
 BYTE   W04
 BYTE   An4  v112
 BYTE   W04
 BYTE   As4
 BYTE   W04
 BYTE   Cn5
 BYTE   W04
 BYTE   Dn5
 BYTE   W04
 BYTE   Ds5
 BYTE   W04
 BYTE   Fn5
 BYTE   W04
 BYTE   Gn5
 BYTE   W04
 BYTE   An5
 BYTE   W04
 BYTE   As5
 BYTE   W04
 BYTE   Cn6
 BYTE   W04
 BYTE   Dn6
 BYTE   W04
 BYTE   PEND 
//  #07 //015   ----------------------------------------
Label_019B3B5A:
 BYTE   N04  Ds6  v112
 BYTE   W04
 BYTE   Fn6
 BYTE   W04
 BYTE   Gn6
 BYTE   W04
 BYTE   Fn6
 BYTE   W04
 BYTE   Ds6
 BYTE   W04
 BYTE   Dn6
 BYTE   W04
 BYTE   Cn6
 BYTE   W04
 BYTE   As5
 BYTE   W04
 BYTE   An5
 BYTE   W04
 BYTE   Gn5
 BYTE   W04
 BYTE   Fn5
 BYTE   W04
 BYTE   Ds5
 BYTE   W04
 BYTE   Dn5
 BYTE   W04
 BYTE   Cn5
 BYTE   W04
 BYTE   As4
 BYTE   W04
 BYTE   An4
 BYTE   W04
 BYTE   Gn4
 BYTE   W04
 BYTE   Fn4
 BYTE   W04
 BYTE   Ds4
 BYTE   W04
 BYTE   Dn4
 BYTE   W04
 BYTE   Cn4
 BYTE   W04
 BYTE   As3
 BYTE   W04
 BYTE   An3
 BYTE   W04
 BYTE   Gn3
 BYTE   W04
 BYTE   PEND 
//  #07 //016   ----------------------------------------
 BYTE   W96
//  #07 //017   ----------------------------------------
 BYTE   W96
//  #07 //018   ----------------------------------------
 BYTE   PATT
  POIN2 Label_019B3B1E
//  #07 //019   ----------------------------------------
 BYTE   PATT
  POIN2 Label_019B3B5A
//  #07 //020   ----------------------------------------
 BYTE   W96
//  #07 //021   ----------------------------------------
 BYTE   W96
//  #07 //022   ----------------------------------------
 BYTE   W96
//  #07 //023   ----------------------------------------
 BYTE   W96
//  #07 //024   ----------------------------------------
 BYTE   W96
//  #07 //025   ----------------------------------------
 BYTE   W96
//  #07 //026   ----------------------------------------
 BYTE   W96
//  #07 //027   ----------------------------------------
 BYTE   W96
//  #07 //028   ----------------------------------------
 BYTE   W96
//  #07 //029   ----------------------------------------
 BYTE   W96
//  #07 //030   ----------------------------------------
 BYTE   W96
//  #07 //031   ----------------------------------------
 BYTE   W96
//  #07 //032   ----------------------------------------
 BYTE   W96
//  #07 //033   ----------------------------------------
 BYTE   W96
//  #07 //034   ----------------------------------------
 BYTE   W96
//  #07 //035   ----------------------------------------
 BYTE   W96
//  #07 //036   ----------------------------------------
 BYTE   W96
//  #07 //037   ----------------------------------------
 BYTE   W96
//  #07 //038   ----------------------------------------
 BYTE   W96
//  #07 //039   ----------------------------------------
 BYTE   W96
//  #07 //040   ----------------------------------------
 BYTE   W96
//  #07 //041   ----------------------------------------
 BYTE   W96
//  #07 //042   ----------------------------------------
 BYTE   W96
//  #07 //043   ----------------------------------------
 BYTE   W96
//  #07 //044   ----------------------------------------
 BYTE   W96
//  #07 //045   ----------------------------------------
 BYTE   W96
//  #07 //046   ----------------------------------------
 BYTE   W96
//  #07 //047   ----------------------------------------
 BYTE   W96
//  #07 //048   ----------------------------------------
 BYTE   W96
//  #07 //049   ----------------------------------------
 BYTE   W96
//  #07 //050   ----------------------------------------
 BYTE   W96
//  #07 //051   ----------------------------------------
 BYTE   W96
//  #07 //052   ----------------------------------------
 BYTE   W96
//  #07 //053   ----------------------------------------
 BYTE   W96
//  #07 //054   ----------------------------------------
 BYTE   W96
//  #07 //055   ----------------------------------------
 BYTE   W96
//  #07 //056   ----------------------------------------
 BYTE   W96
//  #07 //057   ----------------------------------------
 BYTE   VOICE   1
 BYTE   VOL   27*Tales2_mvl/mxv
 BYTE   PAN   c_v-4
 BYTE   W96
//  #07 //058   ----------------------------------------
 BYTE   W96
//  #07 //059   ----------------------------------------
 BYTE   W96
//  #07 //060   ----------------------------------------
Label_019B3BC7:
 BYTE   TIE  Gn0  v120
 BYTE   TIE  Gn1  v112
 BYTE   W96
 BYTE   PEND 
//  #07 //061   ----------------------------------------
 BYTE   W96
//  #07 //062   ----------------------------------------
 BYTE   W96
//  #07 //063   ----------------------------------------
 BYTE   W96
//  #07 //064   ----------------------------------------
 BYTE   EOT
 BYTE   Gn0  v043
//  #07 //065   ----------------------------------------
 BYTE   PATT
  POIN2 Label_019B3BC7
//  #07 //066   ----------------------------------------
 BYTE   W96
//  #07 //067   ----------------------------------------
 BYTE   EOT
 BYTE   Gn0  v043
 BYTE   W96
//  #07 //068   ----------------------------------------
 BYTE   W96
//  #07 //069   ----------------------------------------
 BYTE   VOICE   22
 BYTE   VOL   25*Tales2_mvl/mxv
 BYTE   PAN   c_v+4
 BYTE   W96
//  #07 //070   ----------------------------------------
 BYTE   W96
//  #07 //071   ----------------------------------------
 BYTE   W96
//  #07 //072   ----------------------------------------
 BYTE   W96
//  #07 //073   ----------------------------------------
 BYTE   GoTo
  POIN2 Label_019B3B14
//  #07 //074   ----------------------------------------
 BYTE   W48
 BYTE   FINE

//**************** Track 8 (Midi-Chn.7) ****************//

Tales2_008:
//  #08 //000   ----------------------------------------
 BYTE   KEYSH   Tales2_key+0
 BYTE   VOICE   78
 BYTE   VOL   16*Tales2_mvl/mxv
 BYTE   PAN   c_v+36
 BYTE   BEND   c_v+1
 BYTE   W96
//  #08 //001   ----------------------------------------
 BYTE   W96
//  #08 //002   ----------------------------------------
 BYTE   W96
//  #08 //003   ----------------------------------------
 BYTE   W96
//  #08 //004   ----------------------------------------
Label_019B3C2A:
 BYTE   W96
//  #08 //005   ----------------------------------------
 BYTE   W96
//  #08 //006   ----------------------------------------
 BYTE   W96
//  #08 //007   ----------------------------------------
 BYTE   W96
//  #08 //008   ----------------------------------------
 BYTE   W96
//  #08 //009   ----------------------------------------
 BYTE   W96
//  #08 //010   ----------------------------------------
 BYTE   W96
//  #08 //011   ----------------------------------------
 BYTE   W96
//  #08 //012   ----------------------------------------
 BYTE   W96
//  #08 //013   ----------------------------------------
 BYTE   W96
//  #08 //014   ----------------------------------------
 BYTE   W96
//  #08 //015   ----------------------------------------
 BYTE   W96
//  #08 //016   ----------------------------------------
 BYTE   W96
//  #08 //017   ----------------------------------------
 BYTE   W96
//  #08 //018   ----------------------------------------
 BYTE   W96
//  #08 //019   ----------------------------------------
 BYTE   W96
//  #08 //020   ----------------------------------------
 BYTE   W96
//  #08 //021   ----------------------------------------
 BYTE   W96
//  #08 //022   ----------------------------------------
 BYTE   W96
//  #08 //023   ----------------------------------------
 BYTE   W96
//  #08 //024   ----------------------------------------
 BYTE   W96
//  #08 //025   ----------------------------------------
 BYTE   W96
//  #08 //026   ----------------------------------------
 BYTE   W96
//  #08 //027   ----------------------------------------
 BYTE   W96
//  #08 //028   ----------------------------------------
Label_019B3C42:
 BYTE   W09
 BYTE   N36  An4  v112
 BYTE   W36
 BYTE   Gn4
 BYTE   W36
 BYTE   N24  Cn5
 BYTE   W15
 BYTE   PEND 
//  #08 //029   ----------------------------------------
Label_019B3C4D:
 BYTE   W09
 BYTE   TIE  An4  v112
 BYTE   W84
 BYTE   W03
 BYTE   PEND 
//  #08 //030   ----------------------------------------
 BYTE   W32
 BYTE   W01
 BYTE   EOT
 BYTE   W12
 BYTE   N36  Gn4
 BYTE   W36
 BYTE   N24  An4
 BYTE   W15
//  #08 //031   ----------------------------------------
 BYTE   W09
 BYTE   N36  Dn4
 BYTE   W36
 BYTE   Fn4
 BYTE   W36
 BYTE   N24  Gn4
 BYTE   W15
//  #08 //032   ----------------------------------------
 BYTE   PATT
  POIN2 Label_019B3C42
//  #08 //033   ----------------------------------------
 BYTE   PATT
  POIN2 Label_019B3C4D
//  #08 //034   ----------------------------------------
 BYTE   W32
 BYTE   W01
 BYTE   EOT
 BYTE   An4
 BYTE   W12
 BYTE   N36  As4  v112
 BYTE   W36
 BYTE   N24  An4
 BYTE   W15
//  #08 //035   ----------------------------------------
 BYTE   W09
 BYTE   N36  Cn5
 BYTE   W36
 BYTE   As4
 BYTE   W36
 BYTE   N24  An4
 BYTE   W15
//  #08 //036   ----------------------------------------
 BYTE   W96
//  #08 //037   ----------------------------------------
 BYTE   W96
//  #08 //038   ----------------------------------------
 BYTE   W96
//  #08 //039   ----------------------------------------
 BYTE   W96
//  #08 //040   ----------------------------------------
 BYTE   W96
//  #08 //041   ----------------------------------------
 BYTE   W96
//  #08 //042   ----------------------------------------
 BYTE   W96
//  #08 //043   ----------------------------------------
 BYTE   W96
//  #08 //044   ----------------------------------------
 BYTE   W96
//  #08 //045   ----------------------------------------
 BYTE   W96
//  #08 //046   ----------------------------------------
 BYTE   W96
//  #08 //047   ----------------------------------------
 BYTE   W96
//  #08 //048   ----------------------------------------
 BYTE   W96
//  #08 //049   ----------------------------------------
 BYTE   W96
//  #08 //050   ----------------------------------------
 BYTE   W96
//  #08 //051   ----------------------------------------
 BYTE   W96
//  #08 //052   ----------------------------------------
 BYTE   W96
//  #08 //053   ----------------------------------------
 BYTE   W96
//  #08 //054   ----------------------------------------
 BYTE   W96
//  #08 //055   ----------------------------------------
 BYTE   W96
//  #08 //056   ----------------------------------------
 BYTE   W96
//  #08 //057   ----------------------------------------
 BYTE   W96
//  #08 //058   ----------------------------------------
 BYTE   W09
 BYTE   VOICE   1
 BYTE   VOL   12*Tales2_mvl/mxv
 BYTE   PAN   c_v-44
 BYTE   W84
 BYTE   W03
//  #08 //059   ----------------------------------------
 BYTE   W96
//  #08 //060   ----------------------------------------
 BYTE   W56
 BYTE   W01
 BYTE   N48  Dn4  v100
 BYTE   N48  Dn5
 BYTE   W36
 BYTE   W03
//  #08 //061   ----------------------------------------
 BYTE   W09
 BYTE   Cn4
 BYTE   N48  Cn5
 BYTE   W48
 BYTE   An3
 BYTE   N48  An4
 BYTE   W36
 BYTE   W03
//  #08 //062   ----------------------------------------
 BYTE   W09
 BYTE   As3
 BYTE   N48  As4
 BYTE   W48
 BYTE   Gn3
 BYTE   N48  Gn4
 BYTE   W36
 BYTE   W03
//  #08 //063   ----------------------------------------
 BYTE   W09
 BYTE   Ds3
 BYTE   N48  Ds4
 BYTE   W48
 BYTE   Dn3
 BYTE   N48  Dn4
 BYTE   W36
 BYTE   W03
//  #08 //064   ----------------------------------------
 BYTE   W09
 BYTE   TIE  Gn2
 BYTE   TIE  Gn3
 BYTE   W84
 BYTE   W03
//  #08 //065   ----------------------------------------
 BYTE   W96
//  #08 //066   ----------------------------------------
 BYTE   W09
 BYTE   EOT
 BYTE   Gn2  v067
 BYTE   W84
 BYTE   W03
//  #08 //067   ----------------------------------------
 BYTE   W96
//  #08 //068   ----------------------------------------
 BYTE   W09
 BYTE   VOICE   68
 BYTE   VOL   13*Tales2_mvl/mxv
 BYTE   PAN   c_v+36
 BYTE   W84
 BYTE   W03
//  #08 //069   ----------------------------------------
 BYTE   W96
//  #08 //070   ----------------------------------------
 BYTE   W96
//  #08 //071   ----------------------------------------
 BYTE   W96
//  #08 //072   ----------------------------------------
 BYTE   GoTo
  POIN2 Label_019B3C2A
//  #08 //073   ----------------------------------------
 BYTE   W48
 BYTE   FINE

//**************** Track 9 (Midi-Chn.8) ****************//

Tales2_009:
//  #09 //000   ----------------------------------------
 BYTE   KEYSH   Tales2_key+0
 BYTE   VOICE   46
 BYTE   VOL   20*Tales2_mvl/mxv
 BYTE   PAN   c_v+36
 BYTE   BEND   c_v+1
 BYTE   W96
//  #09 //001   ----------------------------------------
 BYTE   W96
//  #09 //002   ----------------------------------------
 BYTE   W96
//  #09 //003   ----------------------------------------
 BYTE   W96
//  #09 //004   ----------------------------------------
TALESLABEL2:
 BYTE   W96
//  #09 //005   ----------------------------------------
 BYTE   W96
//  #09 //006   ----------------------------------------
 BYTE   W96
//  #09 //007   ----------------------------------------
 BYTE   W96
//  #09 //008   ----------------------------------------
 BYTE   W96
//  #09 //009   ----------------------------------------
 BYTE   W96
//  #09 //010   ----------------------------------------
 BYTE   W96
//  #09 //011   ----------------------------------------
 BYTE   W96
//  #09 //012   ----------------------------------------
 BYTE   W96
//  #09 //013   ----------------------------------------
 BYTE   W96
//  #09 //014   ----------------------------------------
 BYTE   W96
//  #09 //015   ----------------------------------------
 BYTE   W96
//  #09 //016   ----------------------------------------
 BYTE   W96
//  #09 //017   ----------------------------------------
 BYTE   W96
//  #09 //018   ----------------------------------------
 BYTE   W96
//  #09 //019   ----------------------------------------
 BYTE   W96
//  #09 //020   ----------------------------------------
 BYTE   W96
//  #09 //021   ----------------------------------------
 BYTE   W96
//  #09 //022   ----------------------------------------
 BYTE   W96
//  #09 //023   ----------------------------------------
 BYTE   W96
//  #09 //024   ----------------------------------------
 BYTE   W96
//  #09 //025   ----------------------------------------
 BYTE   W96
//  #09 //026   ----------------------------------------
 BYTE   W96
//  #09 //027   ----------------------------------------
 BYTE   W96
//  #09 //028   ----------------------------------------
 BYTE   W96
//  #09 //029   ----------------------------------------
 BYTE   W96
//  #09 //030   ----------------------------------------
 BYTE   W96
//  #09 //031   ----------------------------------------
 BYTE   W96
//  #09 //032   ----------------------------------------
 BYTE   W96
//  #09 //033   ----------------------------------------
 BYTE   W96
//  #09 //034   ----------------------------------------
 BYTE   W96
//  #09 //035   ----------------------------------------
 BYTE   W96
//  #09 //036   ----------------------------------------
 BYTE   W96
//  #09 //037   ----------------------------------------
 BYTE   W96
//  #09 //038   ----------------------------------------
 BYTE   W96
//  #09 //039   ----------------------------------------
 BYTE   W96
//  #09 //040   ----------------------------------------
 BYTE   W96
//  #09 //041   ----------------------------------------
 BYTE   W96
//  #09 //042   ----------------------------------------
 BYTE   W96
//  #09 //043   ----------------------------------------
 BYTE   W96
//  #09 //044   ----------------------------------------
 BYTE   W96
//  #09 //045   ----------------------------------------
 BYTE   W96
//  #09 //046   ----------------------------------------
 BYTE   W96
//  #09 //047   ----------------------------------------
 BYTE   W96
//  #09 //048   ----------------------------------------
 BYTE   W96
//  #09 //049   ----------------------------------------
 BYTE   W96
//  #09 //050   ----------------------------------------
 BYTE   W96
//  #09 //051   ----------------------------------------
 BYTE   W96
//  #09 //052   ----------------------------------------
 BYTE   W96
//  #09 //053   ----------------------------------------
 BYTE   W96
//  #09 //054   ----------------------------------------
 BYTE   W96
//  #09 //055   ----------------------------------------
 BYTE   W96
//  #09 //056   ----------------------------------------
 BYTE   W96
//  #09 //057   ----------------------------------------
 BYTE   W96
//  #09 //058   ----------------------------------------
 BYTE   W96
//  #09 //059   ----------------------------------------
 BYTE   W96
//  #09 //060   ----------------------------------------
 BYTE   W96
//  #09 //061   ----------------------------------------
 BYTE   W96
//  #09 //062   ----------------------------------------
 BYTE   W32
 BYTE   W01
 BYTE   TIE  Gn0  v108
 BYTE   TIE  Gn1
 BYTE   W24
 BYTE   N24  Dn2
 BYTE   W24
 BYTE   Gn2
 BYTE   W15
//  #09 //063   ----------------------------------------
 BYTE   W09
 BYTE   As2
 BYTE   W24
 BYTE   Cn3
 BYTE   W24
 BYTE   Dn3  v100
 BYTE   W24
 BYTE   Gn3  v096
 BYTE   W15
//  #09 //064   ----------------------------------------
 BYTE   W09
 BYTE   EOT
 BYTE   Gn0  v043
 BYTE   W84
 BYTE   W03
//  #09 //065   ----------------------------------------
 BYTE   W96
//  #09 //066   ----------------------------------------
 BYTE   W96
//  #09 //067   ----------------------------------------
 BYTE   W96
//  #09 //068   ----------------------------------------
 BYTE   W96
//  #09 //069   ----------------------------------------
 BYTE   W96
//  #09 //070   ----------------------------------------
 BYTE   W96
//  #09 //071   ----------------------------------------
 BYTE   W96
//  #09 //072   ----------------------------------------
 BYTE   GoTo
  POIN2 TALESLABEL2
//  #09 //073   ----------------------------------------
 BYTE   W48
 BYTE   FINE

//**************** Track 10 (Midi-Chn.9) ****************//

Tales2_010:
//  #10 //000   ----------------------------------------
 BYTE   KEYSH   Tales2_key+0
 BYTE   VOICE   124
 BYTE   VOL   35*Tales2_mvl/mxv
 BYTE   PAN   c_v+0
 BYTE   N72  Fn0  v127
 BYTE   N24  Cn1  v064
 BYTE   N12  Dn1  v084
 BYTE   N96  Cs2  v080
 BYTE   W12
 BYTE   N06  Dn1
 BYTE   W06
 BYTE   Dn1  v068
 BYTE   W06
 BYTE   N12
 BYTE   W12
 BYTE   Dn1  v080
 BYTE   W12
 BYTE   N06  Dn1  v072
 BYTE   W06
 BYTE   Dn1  v068
 BYTE   W06
 BYTE   N12  Dn1  v076
 BYTE   W12
 BYTE   Dn1  v068
 BYTE   W12
 BYTE   N06  Dn1  v084
 BYTE   W06
 BYTE   Dn1  v080
 BYTE   W06
//  #10 //001   ----------------------------------------
Label_019B6809:
 BYTE   N12  Dn1  v072
 BYTE   W12
 BYTE   N06  Dn1  v060
 BYTE   W06
 BYTE   Dn1  v084
 BYTE   W06
 BYTE   N12  Dn1  v072
 BYTE   W12
 BYTE   Dn1  v060
 BYTE   W12
 BYTE   N06  Dn1  v084
 BYTE   W06
 BYTE   Dn1  v080
 BYTE   W06
 BYTE   Dn1  v072
 BYTE   W06
 BYTE   Dn1  v060
 BYTE   W06
 BYTE   Dn1  v084
 BYTE   W06
 BYTE   N03  Dn1  v080
 BYTE   W03
 BYTE   Dn1  v072
 BYTE   W03
 BYTE   N06  Dn1  v060
 BYTE   W06
 BYTE   Dn1  v084
 BYTE   W06
 BYTE   PEND 
//  #10 //002   ----------------------------------------
Label_019B683A:
 BYTE   N12  Dn1  v084
 BYTE   W12
 BYTE   N06  Dn1  v080
 BYTE   W06
 BYTE   Dn1  v068
 BYTE   W06
 BYTE   N12
 BYTE   W12
 BYTE   Dn1  v080
 BYTE   W12
 BYTE   N06  Dn1  v072
 BYTE   W06
 BYTE   Dn1  v068
 BYTE   W06
 BYTE   N12  Dn1  v076
 BYTE   W12
 BYTE   Dn1  v068
 BYTE   W12
 BYTE   N06  Dn1  v084
 BYTE   W06
 BYTE   Dn1  v080
 BYTE   W06
 BYTE   PEND 
//  #10 //003   ----------------------------------------
 BYTE   PATT
  POIN2 Label_019B6809
//  #10 //004   ----------------------------------------
Label_019B6865:
//  #10 //005   ----------------------------------------
 BYTE   PATT
  POIN2 Label_019B683A
//  #10 //006   ----------------------------------------
 BYTE   PATT
  POIN2 Label_019B6809
//  #10 //007   ----------------------------------------
 BYTE   N12  Dn1  v084
 BYTE   W12
 BYTE   N06  Dn1  v080
 BYTE   W06
 BYTE   Dn1  v064
 BYTE   W06
 BYTE   N12
 BYTE   W12
 BYTE   Dn1  v080
 BYTE   W12
 BYTE   N06  Dn1  v068
 BYTE   W06
 BYTE   Dn1  v064
 BYTE   W06
 BYTE   N12  Dn1  v076
 BYTE   W12
 BYTE   Dn1  v064
 BYTE   W12
 BYTE   N06  Dn1  v084
 BYTE   W06
 BYTE   Dn1  v080
 BYTE   W06
//  #10 //008   ----------------------------------------
 BYTE   N12  Dn1  v068
 BYTE   W12
 BYTE   N06  Dn1  v060
 BYTE   W06
 BYTE   Dn1  v084
 BYTE   W06
 BYTE   N12  Dn1  v068
 BYTE   W12
 BYTE   Dn1  v060
 BYTE   W12
 BYTE   N06  Dn1  v084
 BYTE   W06
 BYTE   Dn1  v080
 BYTE   W06
 BYTE   Dn1  v068
 BYTE   W06
 BYTE   Dn1  v060
 BYTE   W06
 BYTE   Dn1  v084
 BYTE   W06
 BYTE   N03  Dn1  v080
 BYTE   W03
 BYTE   Dn1  v068
 BYTE   W03
 BYTE   N06  Dn1  v060
 BYTE   W06
 BYTE   Dn1  v084
 BYTE   W06
//  #10 //009   ----------------------------------------
 BYTE   N12  Dn1  v080
 BYTE   W12
 BYTE   N06  Dn1  v068
 BYTE   W06
 BYTE   N06
 BYTE   W06
 BYTE   N12  Dn1  v080
 BYTE   W12
 BYTE   Dn1  v072
 BYTE   W12
 BYTE   N06  Dn1  v084
 BYTE   W06
 BYTE   N06
 BYTE   W06
 BYTE   N06
 BYTE   W06
 BYTE   Dn1  v072
 BYTE   W06
 BYTE   N06
 BYTE   W06
 BYTE   N03  Dn1  v084
 BYTE   W03
 BYTE   Dn1  v076
 BYTE   W03
 BYTE   N06  Dn1  v072
 BYTE   W06
 BYTE   Dn1  v080
 BYTE   W06
//  #10 //010   ----------------------------------------
 BYTE   N12  Dn1  v072
 BYTE   W12
 BYTE   N06  Dn1  v084
 BYTE   W06
 BYTE   N06
 BYTE   W06
 BYTE   N12  Dn1  v076
 BYTE   W12
 BYTE   Dn1  v068
 BYTE   W12
 BYTE   N06  Dn1  v084
 BYTE   W06
 BYTE   Dn1  v076
 BYTE   W06
 BYTE   N12  Dn1  v064
 BYTE   W12
 BYTE   Dn1  v084
 BYTE   W12
 BYTE   N06
 BYTE   W06
 BYTE   Dn1  v076
 BYTE   W06
//  #10 //011   ----------------------------------------
 BYTE   N12  Dn1  v064
 BYTE   W12
 BYTE   N06  Dn1  v084
 BYTE   W06
 BYTE   N06
 BYTE   W06
 BYTE   N12  Dn1  v076
 BYTE   W12
 BYTE   Dn1  v064
 BYTE   W12
 BYTE   N06  Dn1  v084
 BYTE   W06
 BYTE   N06
 BYTE   W06
 BYTE   Dn1  v080
 BYTE   W06
 BYTE   Dn1  v068
 BYTE   W06
 BYTE   N06
 BYTE   W06
 BYTE   N03  Dn1  v080
 BYTE   W03
 BYTE   Dn1  v072
 BYTE   W03
 BYTE   N06  Dn1  v068
 BYTE   W06
 BYTE   Dn1  v076
 BYTE   W06
//  #10 //012   ----------------------------------------
Label_019B6941:
 BYTE   N12  Dn1  v068
 BYTE   W12
 BYTE   N06  Dn1  v084
 BYTE   W06
 BYTE   Dn1  v080
 BYTE   W06
 BYTE   N12  Dn1  v072
 BYTE   W12
 BYTE   Dn1  v060
 BYTE   W12
 BYTE   N06  Dn1  v084
 BYTE   W06
 BYTE   Dn1  v072
 BYTE   W06
 BYTE   N12  Dn1  v060
 BYTE   W12
 BYTE   Dn1  v084
 BYTE   W12
 BYTE   N06  Dn1  v080
 BYTE   W06
 BYTE   Dn1  v072
 BYTE   W06
 BYTE   PEND 
//  #10 //013   ----------------------------------------
 BYTE   N12  Dn1  v060
 BYTE   W12
 BYTE   N06  Dn1  v084
 BYTE   W06
 BYTE   Dn1  v080
 BYTE   W06
 BYTE   N12  Dn1  v072
 BYTE   W12
 BYTE   Dn1  v060
 BYTE   W12
 BYTE   N06  Dn1  v084
 BYTE   W06
 BYTE   N06
 BYTE   W06
 BYTE   N12
 BYTE   W12
 BYTE   Dn1  v072
 BYTE   W12
 BYTE   N06
 BYTE   W06
 BYTE   Dn1  v084
 BYTE   W06
//  #10 //014   ----------------------------------------
Label_019B698B:
 BYTE   N12  Dn1  v076
 BYTE   W12
 BYTE   N06  Dn1  v072
 BYTE   W06
 BYTE   Dn1  v080
 BYTE   W06
 BYTE   N12  Dn1  v072
 BYTE   W12
 BYTE   Dn1  v084
 BYTE   W12
 BYTE   N06
 BYTE   W06
 BYTE   Dn1  v076
 BYTE   W06
 BYTE   Dn1  v068
 BYTE   W06
 BYTE   Dn1  v084
 BYTE   W06
 BYTE   Dn1  v076
 BYTE   W06
 BYTE   N03  Dn1  v064
 BYTE   W03
 BYTE   Dn1  v084
 BYTE   W03
 BYTE   N06
 BYTE   W06
 BYTE   Dn1  v076
 BYTE   W06
 BYTE   PEND 
//  #10 //015   ----------------------------------------
Label_019B69B8:
 BYTE   N12  Dn1  v064
 BYTE   W12
 BYTE   N06  Dn1  v084
 BYTE   W06
 BYTE   N06
 BYTE   W06
 BYTE   N12  Dn1  v076
 BYTE   W12
 BYTE   Dn1  v064
 BYTE   W12
 BYTE   N06  Dn1  v084
 BYTE   W06
 BYTE   N06
 BYTE   W06
 BYTE   N12  Dn1  v080
 BYTE   W12
 BYTE   Dn1  v068
 BYTE   W12
 BYTE   N06
 BYTE   W06
 BYTE   Dn1  v080
 BYTE   W06
 BYTE   PEND 
//  #10 //016   ----------------------------------------
Label_019B69DC:
 BYTE   N12  Dn1  v072
 BYTE   W12
 BYTE   N06  Dn1  v068
 BYTE   W06
 BYTE   Dn1  v076
 BYTE   W06
 BYTE   N12  Dn1  v068
 BYTE   W12
 BYTE   Dn1  v084
 BYTE   W12
 BYTE   N06  Dn1  v080
 BYTE   W06
 BYTE   Dn1  v072
 BYTE   W06
 BYTE   Dn1  v060
 BYTE   W06
 BYTE   Dn1  v084
 BYTE   W06
 BYTE   Dn1  v072
 BYTE   W06
 BYTE   N03  Dn1  v060
 BYTE   W03
 BYTE   Dn1  v084
 BYTE   W03
 BYTE   N06  Dn1  v080
 BYTE   W06
 BYTE   Dn1  v072
 BYTE   W06
 BYTE   PEND 
//  #10 //017   ----------------------------------------
Label_019B6A0D:
 BYTE   N12  Dn1  v060
 BYTE   W12
 BYTE   N06  Dn1  v084
 BYTE   W06
 BYTE   Dn1  v080
 BYTE   W06
 BYTE   N12  Dn1  v072
 BYTE   W12
 BYTE   Dn1  v060
 BYTE   W12
 BYTE   N06  Dn1  v084
 BYTE   W06
 BYTE   N06
 BYTE   W06
 BYTE   N12  Dn1  v080
 BYTE   W12
 BYTE   Dn1  v068
 BYTE   W12
 BYTE   N06
 BYTE   W06
 BYTE   Dn1  v080
 BYTE   W06
 BYTE   PEND 
//  #10 //018   ----------------------------------------
 BYTE   PATT
  POIN2 Label_019B69DC
//  #10 //019   ----------------------------------------
 BYTE   PATT
  POIN2 Label_019B6A0D
//  #10 //020   ----------------------------------------
 BYTE   PATT
  POIN2 Label_019B69DC
//  #10 //021   ----------------------------------------
Label_019B6A41:
 BYTE   N12  Dn1  v060
 BYTE   W12
 BYTE   N06  Dn1  v084
 BYTE   W06
 BYTE   Dn1  v080
 BYTE   W06
 BYTE   N12  Dn1  v072
 BYTE   W12
 BYTE   Dn1  v060
 BYTE   W12
 BYTE   N06  Dn1  v084
 BYTE   W06
 BYTE   N06
 BYTE   W06
 BYTE   Dn1  v080
 BYTE   W06
 BYTE   Dn1  v068
 BYTE   W06
 BYTE   N06
 BYTE   W06
 BYTE   N03  Dn1  v080
 BYTE   W03
 BYTE   Dn1  v072
 BYTE   W03
 BYTE   N06  Dn1  v068
 BYTE   W06
 BYTE   Dn1  v076
 BYTE   W06
 BYTE   PEND 
//  #10 //022   ----------------------------------------
 BYTE   PATT
  POIN2 Label_019B6941
//  #10 //023   ----------------------------------------
 BYTE   PATT
  POIN2 Label_019B6A41
//  #10 //024   ----------------------------------------
 BYTE   PATT
  POIN2 Label_019B6941
//  #10 //025   ----------------------------------------
 BYTE   PATT
  POIN2 Label_019B6A0D
//  #10 //026   ----------------------------------------
 BYTE   PATT
  POIN2 Label_019B69DC
//  #10 //027   ----------------------------------------
Label_019B6A89:
 BYTE   N12  Dn1  v060
 BYTE   TIE  En2  v120
 BYTE   W12
 BYTE   N06  Dn1  v084
 BYTE   W06
 BYTE   Dn1  v080
 BYTE   W06
 BYTE   N12  Dn1  v072
 BYTE   W12
 BYTE   Dn1  v060
 BYTE   W12
 BYTE   N06  Dn1  v084
 BYTE   W06
 BYTE   N06
 BYTE   W06
 BYTE   N12  Dn1  v080
 BYTE   W12
 BYTE   Dn1  v068
 BYTE   W12
 BYTE   N06
 BYTE   W06
 BYTE   Dn1  v080
 BYTE   W06
 BYTE   PEND 
//  #10 //028   ----------------------------------------
 BYTE   PATT
  POIN2 Label_019B69DC
//  #10 //029   ----------------------------------------
 BYTE   EOT
 BYTE   En2
 BYTE   N12  FnM2  v072
 BYTE   N96  Cs2  v080
 BYTE   W12
 BYTE   N06  FnM2  v060
 BYTE   W06
 BYTE   FnM2  v052
 BYTE   W06
 BYTE   N12  FnM2  v076
 BYTE   W12
 BYTE   FnM2  v072
 BYTE   W12
 BYTE   N06  FnM2  v060
 BYTE   W06
 BYTE   FnM2  v052
 BYTE   W06
 BYTE   FnM2  v076
 BYTE   W06
 BYTE   N06
 BYTE   W06
 BYTE   FnM2  v072
 BYTE   W06
 BYTE   N03  FnM2  v056
 BYTE   W03
 BYTE   N03
 BYTE   W03
 BYTE   N06  FnM2  v072
 BYTE   W06
 BYTE   FnM2  v060
 BYTE   W06
//  #10 //030   ----------------------------------------
Label_019B6AE9:
 BYTE   N12  FnM2  v056
 BYTE   W12
 BYTE   N06  FnM2  v068
 BYTE   W06
 BYTE   FnM2  v056
 BYTE   W06
 BYTE   N12  FnM2  v076
 BYTE   W12
 BYTE   FnM2  v072
 BYTE   W12
 BYTE   N06  FnM2  v060
 BYTE   W06
 BYTE   FnM2  v052
 BYTE   W06
 BYTE   N12  FnM2  v076
 BYTE   W12
 BYTE   FnM2  v060
 BYTE   W12
 BYTE   N06  FnM2  v052
 BYTE   W06
 BYTE   FnM2  v076
 BYTE   W06
 BYTE   PEND 
//  #10 //031   ----------------------------------------
Label_019B6B11:
 BYTE   N12  FnM2  v072
 BYTE   W12
 BYTE   N06  FnM2  v060
 BYTE   W06
 BYTE   FnM2  v052
 BYTE   W06
 BYTE   N12  FnM2  v076
 BYTE   W12
 BYTE   FnM2  v072
 BYTE   W12
 BYTE   N06  FnM2  v060
 BYTE   W06
 BYTE   FnM2  v052
 BYTE   W06
 BYTE   FnM2  v076
 BYTE   W06
 BYTE   N06
 BYTE   W06
 BYTE   FnM2  v072
 BYTE   W06
 BYTE   N03  FnM2  v056
 BYTE   W03
 BYTE   N03
 BYTE   W03
 BYTE   N06  FnM2  v072
 BYTE   W06
 BYTE   FnM2  v060
 BYTE   W06
 BYTE   PEND 
//  #10 //032   ----------------------------------------
 BYTE   PATT
  POIN2 Label_019B6AE9
//  #10 //033   ----------------------------------------
 BYTE   PATT
  POIN2 Label_019B6B11
//  #10 //034   ----------------------------------------
 BYTE   PATT
  POIN2 Label_019B6AE9
//  #10 //035   ----------------------------------------
 BYTE   PATT
  POIN2 Label_019B6B11
//  #10 //036   ----------------------------------------
 BYTE   N12  FnM2  v056
 BYTE   W12
 BYTE   N06  FnM2  v068
 BYTE   W06
 BYTE   FnM2  v056
 BYTE   W06
 BYTE   N12  FnM2  v076
 BYTE   W12
 BYTE   FnM2  v072
 BYTE   W12
 BYTE   N06  FnM2  v060
 BYTE   W06
 BYTE   FnM2  v052
 BYTE   W06
 BYTE   N12  FnM2  v076
 BYTE   W12
 BYTE   N06  Dn1  v060
 BYTE   W06
 BYTE   N03  Dn1  v084
 BYTE   W03
 BYTE   Dn1  v080
 BYTE   W03
 BYTE   N06  Dn1  v072
 BYTE   W06
 BYTE   Dn1  v060
 BYTE   W06
//  #10 //037   ----------------------------------------
 BYTE   N12  Dn1  v084
 BYTE   N96  Cs2  v080
 BYTE   W12
 BYTE   N06  Dn1  v084
 BYTE   W06
 BYTE   Dn1  v080
 BYTE   W06
 BYTE   N12  Dn1  v068
 BYTE   W12
 BYTE   N12
 BYTE   W12
 BYTE   N06  Dn1  v080
 BYTE   W06
 BYTE   Dn1  v072
 BYTE   W06
 BYTE   N12  Dn1  v068
 BYTE   W12
 BYTE   Dn1  v076
 BYTE   W12
 BYTE   N06  Dn1  v068
 BYTE   W06
 BYTE   Dn1  v084
 BYTE   W06
//  #10 //038   ----------------------------------------
Label_019B6BAC:
 BYTE   N12  Dn1  v080
 BYTE   W12
 BYTE   N06  Dn1  v072
 BYTE   W06
 BYTE   Dn1  v060
 BYTE   W06
 BYTE   N12  Dn1  v084
 BYTE   W12
 BYTE   Dn1  v072
 BYTE   W12
 BYTE   N06  Dn1  v060
 BYTE   W06
 BYTE   Dn1  v084
 BYTE   W06
 BYTE   Dn1  v080
 BYTE   W06
 BYTE   Dn1  v072
 BYTE   W06
 BYTE   Dn1  v060
 BYTE   W06
 BYTE   N03  Dn1  v084
 BYTE   W03
 BYTE   Dn1  v080
 BYTE   W03
 BYTE   N06  Dn1  v072
 BYTE   W06
 BYTE   Dn1  v060
 BYTE   W06
 BYTE   PEND 
//  #10 //039   ----------------------------------------
 BYTE   N12  Dn1  v084
 BYTE   W12
 BYTE   N06
 BYTE   W06
 BYTE   Dn1  v080
 BYTE   W06
 BYTE   N12  Dn1  v068
 BYTE   W12
 BYTE   N12
 BYTE   W12
 BYTE   N06  Dn1  v080
 BYTE   W06
 BYTE   Dn1  v072
 BYTE   W06
 BYTE   N12  Dn1  v068
 BYTE   W12
 BYTE   Dn1  v076
 BYTE   W12
 BYTE   N06  Dn1  v068
 BYTE   W06
 BYTE   Dn1  v084
 BYTE   W06
//  #10 //040   ----------------------------------------
 BYTE   PATT
  POIN2 Label_019B6BAC
//  #10 //041   ----------------------------------------
 BYTE   N12  Dn1  v084
 BYTE   W12
 BYTE   N06  Dn1  v076
 BYTE   W06
 BYTE   Dn1  v072
 BYTE   W06
 BYTE   N12  Dn1  v068
 BYTE   W12
 BYTE   N12
 BYTE   W12
 BYTE   N06  Dn1  v076
 BYTE   W06
 BYTE   Dn1  v084
 BYTE   W06
 BYTE   N12
 BYTE   W12
 BYTE   Dn1  v072
 BYTE   W12
 BYTE   N06
 BYTE   W06
 BYTE   Dn1  v084
 BYTE   W06
//  #10 //042   ----------------------------------------
 BYTE   PATT
  POIN2 Label_019B698B
//  #10 //043   ----------------------------------------
 BYTE   PATT
  POIN2 Label_019B69B8
//  #10 //044   ----------------------------------------
 BYTE   PATT
  POIN2 Label_019B69DC
//  #10 //045   ----------------------------------------
Label_019B6C37:
 BYTE   N12  Dn1  v060
 BYTE   N96  Cs2  v080
 BYTE   W12
 BYTE   N06  Dn1  v084
 BYTE   W06
 BYTE   Dn1  v080
 BYTE   W06
 BYTE   N12  Dn1  v072
 BYTE   W12
 BYTE   Dn1  v060
 BYTE   W12
 BYTE   N06  Dn1  v084
 BYTE   W06
 BYTE   Dn1  v072
 BYTE   W06
 BYTE   N12  Dn1  v060
 BYTE   W12
 BYTE   Dn1  v084
 BYTE   W12
 BYTE   N06  Dn1  v080
 BYTE   W06
 BYTE   Dn1  v072
 BYTE   W06
 BYTE   PEND 
//  #10 //046   ----------------------------------------
 BYTE   PATT
  POIN2 Label_019B6A41
//  #10 //047   ----------------------------------------
 BYTE   PATT
  POIN2 Label_019B6941
//  #10 //048   ----------------------------------------
 BYTE   PATT
  POIN2 Label_019B6A41
//  #10 //049   ----------------------------------------
 BYTE   N12  Dn1  v068
 BYTE   W12
 BYTE   N06  Dn1  v084
 BYTE   W06
 BYTE   Dn1  v080
 BYTE   W06
 BYTE   N12  Dn1  v072
 BYTE   W12
 BYTE   Dn1  v060
 BYTE   W12
 BYTE   N06  Dn1  v084
 BYTE   W06
 BYTE   N06
 BYTE   W06
 BYTE   N12  Dn1  v080
 BYTE   W12
 BYTE   Dn1  v068
 BYTE   W12
 BYTE   N06
 BYTE   W06
 BYTE   Dn1  v080
 BYTE   W06
//  #10 //050   ----------------------------------------
 BYTE   PATT
  POIN2 Label_019B69DC
//  #10 //051   ----------------------------------------
 BYTE   PATT
  POIN2 Label_019B6A0D
//  #10 //052   ----------------------------------------
 BYTE   PATT
  POIN2 Label_019B69DC
//  #10 //053   ----------------------------------------
 BYTE   PATT
  POIN2 Label_019B6A0D
//  #10 //054   ----------------------------------------
 BYTE   PATT
  POIN2 Label_019B69DC
//  #10 //055   ----------------------------------------
 BYTE   PATT
  POIN2 Label_019B6A89
//  #10 //056   ----------------------------------------
 BYTE   PATT
  POIN2 Label_019B69DC
//  #10 //057   ----------------------------------------
 BYTE   EOT
 BYTE   En2
//  #10 //058   ----------------------------------------
 BYTE   PATT
  POIN2 Label_019B6C37
//  #10 //059   ----------------------------------------
 BYTE   PATT
  POIN2 Label_019B6A41
//  #10 //060   ----------------------------------------
 BYTE   PATT
  POIN2 Label_019B6941
//  #10 //061   ----------------------------------------
 BYTE   PATT
  POIN2 Label_019B6A41
//  #10 //062   ----------------------------------------
 BYTE   N01  Dn1  v068
 BYTE   N96  Cs2  v080
 BYTE   N24  An2  v100
 BYTE   W01
 BYTE   N10  Dn1  v084
 BYTE   W92
 BYTE   W03
//  #10 //063   ----------------------------------------
 BYTE   W72
 BYTE   N02  Dn1  v080
 BYTE   W02
 BYTE   N04  Dn1  v072
 BYTE   W04
 BYTE   N06  Dn1  v060
 BYTE   W06
 BYTE   Dn1  v084
 BYTE   W12
//  #10 //064   ----------------------------------------
 BYTE   PATT
  POIN2 Label_019B683A
//  #10 //065   ----------------------------------------
 BYTE   PATT
  POIN2 Label_019B6809
//  #10 //066   ----------------------------------------
 BYTE   PATT
  POIN2 Label_019B683A
//  #10 //067   ----------------------------------------
 BYTE   PATT
  POIN2 Label_019B6809
//  #10 //068   ----------------------------------------
 BYTE   N12  Dn1  v084
 BYTE   TIE  En2  v120
 BYTE   W12
 BYTE   N06  Dn1  v080
 BYTE   W06
 BYTE   Dn1  v068
 BYTE   W06
 BYTE   N12
 BYTE   W12
 BYTE   Dn1  v080
 BYTE   W12
 BYTE   N06  Dn1  v072
 BYTE   W06
 BYTE   Dn1  v068
 BYTE   W06
 BYTE   N12  Dn1  v076
 BYTE   W12
 BYTE   Dn1  v068
 BYTE   W12
 BYTE   N06  Dn1  v084
 BYTE   W06
 BYTE   Dn1  v080
 BYTE   W06
//  #10 //069   ----------------------------------------
 BYTE   PATT
  POIN2 Label_019B6809
//  #10 //070   ----------------------------------------
 BYTE   EOT
 BYTE   En2
 BYTE   N12  Dn1  v084
 BYTE   N96  Cs2  v080
 BYTE   W12
 BYTE   N06  Dn1
 BYTE   W06
 BYTE   Dn1  v068
 BYTE   W06
 BYTE   N12
 BYTE   W12
 BYTE   Dn1  v080
 BYTE   W12
 BYTE   N06  Dn1  v072
 BYTE   W06
 BYTE   Dn1  v068
 BYTE   W06
 BYTE   N12  Dn1  v076
 BYTE   W12
 BYTE   Dn1  v068
 BYTE   W12
 BYTE   N06  Dn1  v084
 BYTE   W06
 BYTE   Dn1  v080
 BYTE   W06
//  #10 //071   ----------------------------------------
 BYTE   PATT
  POIN2 Label_019B6809
//  #10 //072   ----------------------------------------
 BYTE   PATT
  POIN2 Label_019B683A
//  #10 //073   ----------------------------------------
 BYTE   PATT
  POIN2 Label_019B6809
//  #10 //074   ----------------------------------------
 BYTE   GoTo
  POIN2 Label_019B6865
//  #10 //075   ----------------------------------------
 BYTE   W48
 BYTE   FINE

//**************** Track 11 (Midi-Chn.10) ****************//

Tales2_011:
//  #11 //000   ----------------------------------------
 BYTE   KEYSH   Tales2_key+0
 BYTE   VOICE   60
 BYTE   PAN   c_v-7
 BYTE   VOL   27*Tales2_mvl/mxv
 BYTE   N06  As1  v112
 BYTE   N06  Dn2
 BYTE   W36
 BYTE   As1  v108
 BYTE   N06  Dn2
 BYTE   W36
 BYTE   N09  An1  v112
 BYTE   N09  Cn2
 BYTE   W24
//  #11 //001   ----------------------------------------
Label_019B6551:
 BYTE   N06  As1  v112
 BYTE   N06  Dn2
 BYTE   W36
 BYTE   As1  v108
 BYTE   N06  Dn2
 BYTE   W60
 BYTE   PEND 
//  #11 //002   ----------------------------------------
Label_019B655D:
 BYTE   N06  As1  v112
 BYTE   N06  Dn2
 BYTE   W36
 BYTE   As1  v108
 BYTE   N06  Dn2
 BYTE   W36
 BYTE   N09  An1  v112
 BYTE   N09  Cn2
 BYTE   W24
 BYTE   PEND 
//  #11 //003   ----------------------------------------
Label_019B656F:
 BYTE   N06  As1  v112
 BYTE   N06  Dn2
 BYTE   W12
 BYTE   N04  As1  v092
 BYTE   N04  Dn2
 BYTE   W24
 BYTE   N06  As1  v108
 BYTE   N06  Dn2
 BYTE   W36
 BYTE   N10  An1
 BYTE   N10  Cn2
 BYTE   W24
 BYTE   PEND 
//  #11 //004   ----------------------------------------
Label_019B6587:
 BYTE   N06  As1  v112
 BYTE   N06  Ds2
 BYTE   W36
 BYTE   As1  v108
 BYTE   N06  Ds2
 BYTE   W36
 BYTE   N09  As1  v112
 BYTE   N09  Dn2
 BYTE   W24
 BYTE   PEND 
//  #11 //005   ----------------------------------------
Label_019B6599:
 BYTE   N06  As1  v112
 BYTE   N06  Ds2
 BYTE   W36
 BYTE   As1  v108
 BYTE   N06  Ds2
 BYTE   W60
 BYTE   PEND 
//  #11 //006   ----------------------------------------
 BYTE   PATT
  POIN2 Label_019B6587
//  #11 //007   ----------------------------------------
TALESLABEL3:
 BYTE   N06  As1  v112
 BYTE   N06  Ds2
 BYTE   W12
 BYTE   N04  As1  v092
 BYTE   N04  Ds2
 BYTE   W24
 BYTE   N06  As1  v108
 BYTE   N06  Ds2
 BYTE   W36
 BYTE   N10  As1
 BYTE   N10  Dn2
 BYTE   W24
 BYTE   PEND 
//  #11 //008   ----------------------------------------
Label_019B65C2:
 BYTE   N06  Cn2  v112
 BYTE   N06  Ds2
 BYTE   W36
 BYTE   Cn2  v108
 BYTE   N06  Ds2
 BYTE   W36
 BYTE   N09  Cn2  v112
 BYTE   N09  Ds2
 BYTE   W24
 BYTE   PEND 
//  #11 //009   ----------------------------------------
 BYTE   PATT
  POIN2 Label_019B6551
//  #11 //010   ----------------------------------------
Label_019B65D9:
 BYTE   N06  An1  v112
 BYTE   N06  Cn2
 BYTE   W36
 BYTE   An1  v108
 BYTE   N06  Cn2
 BYTE   W36
 BYTE   N09  An1  v112
 BYTE   N09  Cn2
 BYTE   W24
 BYTE   PEND 
//  #11 //011   ----------------------------------------
Label_019B65EB:
 BYTE   N06  An1  v112
 BYTE   N06  Dn2
 BYTE   W12
 BYTE   N04  An1  v100
 BYTE   N04  Dn2
 BYTE   W24
 BYTE   N06  An1  v108
 BYTE   N06  Dn2
 BYTE   W36
 BYTE   N10  An1  v112
 BYTE   N10  Dn2
 BYTE   W24
 BYTE   PEND 
//  #11 //012   ----------------------------------------
 BYTE   PATT
  POIN2 Label_019B655D
//  #11 //013   ----------------------------------------
 BYTE   PATT
  POIN2 Label_019B6551
//  #11 //014   ----------------------------------------
 BYTE   PATT
  POIN2 Label_019B655D
//  #11 //015   ----------------------------------------
 BYTE   PATT
  POIN2 Label_019B656F
//  #11 //016   ----------------------------------------
 BYTE   PATT
  POIN2 Label_019B6587
//  #11 //017   ----------------------------------------
 BYTE   PATT
  POIN2 Label_019B6599
//  #11 //018   ----------------------------------------
 BYTE   PATT
  POIN2 Label_019B6587
//  #11 //019   ----------------------------------------
 BYTE   PATT
  POIN2 TALESLABEL3
//  #11 //020   ----------------------------------------
 BYTE   PATT
  POIN2 Label_019B65C2
//  #11 //021   ----------------------------------------
 BYTE   PATT
  POIN2 Label_019B6551
//  #11 //022   ----------------------------------------
 BYTE   PATT
  POIN2 Label_019B65D9
//  #11 //023   ----------------------------------------
 BYTE   PATT
  POIN2 Label_019B65EB
//  #11 //024   ----------------------------------------
Label_019B6640:
 BYTE   W12
 BYTE   N06  Gn1  v112
 BYTE   N06  Dn2
 BYTE   W36
 BYTE   N03  Gn1  v100
 BYTE   N03  Dn2
 BYTE   W36
 BYTE   N04  Gn1  v112
 BYTE   N04  Dn2
 BYTE   W12
 BYTE   PEND 
//  #11 //025   ----------------------------------------
 BYTE   PATT
  POIN2 Label_019B6640
//  #11 //026   ----------------------------------------
Label_019B6659:
 BYTE   W12
 BYTE   N06  Gn1  v116
 BYTE   N06  Dn2
 BYTE   W36
 BYTE   N03  Gn1  v108
 BYTE   N03  Dn2
 BYTE   W36
 BYTE   N04  Gn1  v116
 BYTE   N04  Dn2
 BYTE   W12
 BYTE   PEND 
//  #11 //027   ----------------------------------------
Label_019B666D:
 BYTE   W12
 BYTE   N06  Gn1  v120
 BYTE   N06  Dn2
 BYTE   W36
 BYTE   N03  Gn1  v112
 BYTE   N03  Dn2
 BYTE   W36
 BYTE   N04  Gn1  v120
 BYTE   N04  Dn2
 BYTE   W12
 BYTE   PEND 
//  #11 //028   ----------------------------------------
 BYTE   W96
//  #11 //029   ----------------------------------------
 BYTE   W96
//  #11 //030   ----------------------------------------
 BYTE   W96
//  #11 //031   ----------------------------------------
 BYTE   W96
//  #11 //032   ----------------------------------------
 BYTE   W96
//  #11 //033   ----------------------------------------
 BYTE   W96
//  #11 //034   ----------------------------------------
 BYTE   W96
//  #11 //035   ----------------------------------------
 BYTE   W96
//  #11 //036   ----------------------------------------
Label_019B6689:
 BYTE   N06  As1  v120
 BYTE   N06  Dn2
 BYTE   W36
 BYTE   As1  v116
 BYTE   N06  Dn2
 BYTE   W36
 BYTE   N09  As1  v120
 BYTE   N09  Dn2
 BYTE   W24
 BYTE   PEND 
//  #11 //037   ----------------------------------------
TALESLABEL4:
 BYTE   N06  An1  v120
 BYTE   N06  Dn2
 BYTE   W12
 BYTE   N04  An1  v100
 BYTE   N04  Dn2
 BYTE   W24
 BYTE   N06  An1  v116
 BYTE   N06  Dn2
 BYTE   W36
 BYTE   N10  An1
 BYTE   N10  Dn2
 BYTE   W24
 BYTE   PEND 
//  #11 //038   ----------------------------------------
Label_019B66B3:
 BYTE   N06  Gn1  v120
 BYTE   N06  Dn2
 BYTE   W36
 BYTE   Gn1  v116
 BYTE   N06  Dn2
 BYTE   W36
 BYTE   N09  Gn1  v120
 BYTE   N09  Dn2
 BYTE   W24
 BYTE   PEND 
//  #11 //039   ----------------------------------------
Label_019B66C5:
 BYTE   N06  Cn2  v120
 BYTE   N06  Ds2
 BYTE   W12
 BYTE   N04  Cn2  v100
 BYTE   N04  Ds2
 BYTE   W24
 BYTE   N06  Cn2  v116
 BYTE   N06  Ds2
 BYTE   W36
 BYTE   N10  Cn2
 BYTE   N10  Ds2
 BYTE   W24
 BYTE   PEND 
//  #11 //040   ----------------------------------------
 BYTE   N06  An1  v120
 BYTE   N06  Cs2
 BYTE   W36
 BYTE   An1  v116
 BYTE   N06  Cs2
 BYTE   W36
 BYTE   N09  An1  v120
 BYTE   N09  Cs2
 BYTE   W24
//  #11 //041   ----------------------------------------
 BYTE   N06
 BYTE   N06  En2
 BYTE   W12
 BYTE   N04  Cs2  v100
 BYTE   N04  En2
 BYTE   W24
 BYTE   N06  Cs2  v116
 BYTE   N06  En2
 BYTE   W36
 BYTE   N10  Cs2
 BYTE   N10  En2
 BYTE   W24
//  #11 //042   ----------------------------------------
Label_019B6703:
 BYTE   N06  An1  v120
 BYTE   N06  Dn2
 BYTE   W36
 BYTE   An1  v116
 BYTE   N06  Dn2
 BYTE   W36
 BYTE   N09  An1  v120
 BYTE   N09  Dn2
 BYTE   W24
 BYTE   PEND 
//  #11 //043   ----------------------------------------
 BYTE   PATT
  POIN2 TALESLABEL4
//  #11 //044   ----------------------------------------
 BYTE   PATT
  POIN2 Label_019B6689
//  #11 //045   ----------------------------------------
 BYTE   PATT
  POIN2 TALESLABEL4
//  #11 //046   ----------------------------------------
 BYTE   PATT
  POIN2 Label_019B66B3
//  #11 //047   ----------------------------------------
 BYTE   PATT
  POIN2 Label_019B66C5
//  #11 //048   ----------------------------------------
 BYTE   N06  Gn1  v120
 BYTE   N06  Cs2
 BYTE   W36
 BYTE   Gn1  v116
 BYTE   N06  Cs2
 BYTE   W36
 BYTE   N09  Gn1  v120
 BYTE   N09  Cs2
 BYTE   W24
//  #11 //049   ----------------------------------------
 BYTE   N06  Gn1
 BYTE   N06  Cs2
 BYTE   W12
 BYTE   N04  Gn1  v100
 BYTE   N04  Cs2
 BYTE   W24
 BYTE   N06  Gn1  v116
 BYTE   N06  Cs2
 BYTE   W36
 BYTE   N10  Gn1
 BYTE   N10  Cs2
 BYTE   W24
//  #11 //050   ----------------------------------------
 BYTE   PATT
  POIN2 Label_019B6703
//  #11 //051   ----------------------------------------
 BYTE   PATT
  POIN2 TALESLABEL4
//  #11 //052   ----------------------------------------
 BYTE   PATT
  POIN2 Label_019B6640
//  #11 //053   ----------------------------------------
 BYTE   PATT
  POIN2 Label_019B6640
//  #11 //054   ----------------------------------------
 BYTE   PATT
  POIN2 Label_019B6659
//  #11 //055   ----------------------------------------
 BYTE   PATT
  POIN2 Label_019B666D
//  #11 //056   ----------------------------------------
 BYTE   W12
 BYTE   N06  Gn1  v112
 BYTE   N06  Dn2
 BYTE   W36
 BYTE   N03  Gn1
 BYTE   N03  Dn2
 BYTE   W36
 BYTE   N04  Gn1  v120
 BYTE   N04  Dn2
 BYTE   W12
//  #11 //057   ----------------------------------------
 BYTE   PATT
  POIN2 Label_019B666D
//  #11 //058   ----------------------------------------
 BYTE   W12
 BYTE   N06  Gn1  v127
 BYTE   N06  Dn2
 BYTE   W36
 BYTE   N03  Gn1  v116
 BYTE   N03  Dn2
 BYTE   W36
 BYTE   N04  Gn1
 BYTE   N04  Dn2
 BYTE   W12
//  #11 //059   ----------------------------------------
 BYTE   W12
 BYTE   N06  Gn1  v127
 BYTE   N06  Dn2
 BYTE   W36
 BYTE   N03  Gn1  v120
 BYTE   N03  Dn2
 BYTE   W36
 BYTE   N04  Gn1  v127
 BYTE   N04  Dn2
 BYTE   W12
//  #11 //060   ----------------------------------------
 BYTE   W96
//  #11 //061   ----------------------------------------
 BYTE   W96
//  #11 //062   ----------------------------------------
 BYTE   W96
//  #11 //063   ----------------------------------------
 BYTE   W96
//  #11 //064   ----------------------------------------
 BYTE   W96
//  #11 //065   ----------------------------------------
 BYTE   W96
//  #11 //066   ----------------------------------------
 BYTE   W96
//  #11 //067   ----------------------------------------
 BYTE   W96
//  #11 //068   ----------------------------------------
 BYTE   PATT
  POIN2 Label_019B655D
//  #11 //069   ----------------------------------------
 BYTE   PATT
  POIN2 Label_019B6551
//  #11 //070   ----------------------------------------
 BYTE   PATT
  POIN2 Label_019B655D
//  #11 //071   ----------------------------------------
 BYTE   PATT
  POIN2 Label_019B656F
//  #11 //072   ----------------------------------------
 BYTE   GoTo
  POIN2 Label_019B6587
//  #11 //073   ----------------------------------------
 BYTE   W48
 BYTE   FINE

//**************** Track 12 (Midi-Chn.11) ****************//

Tales2_012:
//  #12 //000   ----------------------------------------
 BYTE   KEYSH   Tales2_key+0
 BYTE   VOICE   40
 BYTE   PAN   c_v-26
 BYTE   VOL   23*Tales2_mvl/mxv
 BYTE   W96
//  #12 //001   ----------------------------------------
 BYTE   W96
//  #12 //002   ----------------------------------------
 BYTE   W96
//  #12 //003   ----------------------------------------
 BYTE   W96
//  #12 //004   ----------------------------------------
Label_019B4758:
 BYTE   W96
//  #12 //005   ----------------------------------------
 BYTE   W96
//  #12 //006   ----------------------------------------
 BYTE   W96
//  #12 //007   ----------------------------------------
 BYTE   W96
//  #12 //008   ----------------------------------------
 BYTE   W96
//  #12 //009   ----------------------------------------
 BYTE   W96
//  #12 //010   ----------------------------------------
 BYTE   W96
//  #12 //011   ----------------------------------------
 BYTE   W96
//  #12 //012   ----------------------------------------
 BYTE   W96
//  #12 //013   ----------------------------------------
 BYTE   W96
//  #12 //014   ----------------------------------------
 BYTE   W96
//  #12 //015   ----------------------------------------
 BYTE   W96
//  #12 //016   ----------------------------------------
 BYTE   W96
//  #12 //017   ----------------------------------------
 BYTE   W96
//  #12 //018   ----------------------------------------
 BYTE   W96
//  #12 //019   ----------------------------------------
 BYTE   W96
//  #12 //020   ----------------------------------------
 BYTE   W96
//  #12 //021   ----------------------------------------
 BYTE   W96
//  #12 //022   ----------------------------------------
 BYTE   W96
//  #12 //023   ----------------------------------------
 BYTE   W96
//  #12 //024   ----------------------------------------
 BYTE   W96
//  #12 //025   ----------------------------------------
 BYTE   W96
//  #12 //026   ----------------------------------------
 BYTE   W96
//  #12 //027   ----------------------------------------
 BYTE   W96
//  #12 //028   ----------------------------------------
Label_019B4770:
 BYTE   N52  Ds1  v112
 BYTE   W04
 BYTE   N04  As1  v108
 BYTE   W04
 BYTE   Ds2
 BYTE   W04
 BYTE   Gn2
 BYTE   W04
 BYTE   As2
 BYTE   W04
 BYTE   Dn3
 BYTE   W04
 BYTE   Ds3
 BYTE   W04
 BYTE   Gn3
 BYTE   W04
 BYTE   As3
 BYTE   W04
 BYTE   Dn4  v100
 BYTE   W04
 BYTE   Ds4
 BYTE   W04
 BYTE   Gn4  v096
 BYTE   W04
 BYTE   As4
 BYTE   W48
 BYTE   PEND 
//  #12 //029   ----------------------------------------
 BYTE   W96
//  #12 //030   ----------------------------------------
 BYTE   N52  Dn1  v112
 BYTE   W04
 BYTE   N04  An1  v108
 BYTE   W04
 BYTE   Dn2
 BYTE   W04
 BYTE   En2
 BYTE   W04
 BYTE   Fn2
 BYTE   W04
 BYTE   An2
 BYTE   W04
 BYTE   Dn3
 BYTE   W04
 BYTE   En3
 BYTE   W04
 BYTE   Fn3
 BYTE   W04
 BYTE   An3  v100
 BYTE   W04
 BYTE   Dn4
 BYTE   W04
 BYTE   En4  v096
 BYTE   W04
 BYTE   Fn4
 BYTE   W48
//  #12 //031   ----------------------------------------
 BYTE   W96
//  #12 //032   ----------------------------------------
 BYTE   PATT
  POIN2 Label_019B4770
//  #12 //033   ----------------------------------------
 BYTE   W96
//  #12 //034   ----------------------------------------
 BYTE   N52  Dn1  v112
 BYTE   W04
 BYTE   N04  An1  v108
 BYTE   W04
 BYTE   Dn2
 BYTE   W04
 BYTE   En2
 BYTE   W04
 BYTE   Fs2
 BYTE   W04
 BYTE   An2
 BYTE   W04
 BYTE   Dn3
 BYTE   W04
 BYTE   En3
 BYTE   W04
 BYTE   Fs3
 BYTE   W04
 BYTE   An3  v100
 BYTE   W04
 BYTE   Dn4
 BYTE   W04
 BYTE   En4  v096
 BYTE   W04
 BYTE   Fs4
 BYTE   W48
//  #12 //035   ----------------------------------------
 BYTE   W96
//  #12 //036   ----------------------------------------
 BYTE   W96
//  #12 //037   ----------------------------------------
 BYTE   W96
//  #12 //038   ----------------------------------------
 BYTE   W96
//  #12 //039   ----------------------------------------
 BYTE   W96
//  #12 //040   ----------------------------------------
 BYTE   W96
//  #12 //041   ----------------------------------------
 BYTE   W96
//  #12 //042   ----------------------------------------
 BYTE   W96
//  #12 //043   ----------------------------------------
 BYTE   W96
//  #12 //044   ----------------------------------------
 BYTE   W96
//  #12 //045   ----------------------------------------
 BYTE   W96
//  #12 //046   ----------------------------------------
 BYTE   W96
//  #12 //047   ----------------------------------------
 BYTE   W96
//  #12 //048   ----------------------------------------
 BYTE   W96
//  #12 //049   ----------------------------------------
 BYTE   W96
//  #12 //050   ----------------------------------------
 BYTE   W96
//  #12 //051   ----------------------------------------
 BYTE   W96
//  #12 //052   ----------------------------------------
 BYTE   W96
//  #12 //053   ----------------------------------------
 BYTE   W96
//  #12 //054   ----------------------------------------
 BYTE   W96
//  #12 //055   ----------------------------------------
 BYTE   W96
//  #12 //056   ----------------------------------------
 BYTE   W96
//  #12 //057   ----------------------------------------
 BYTE   W96
//  #12 //058   ----------------------------------------
 BYTE   W96
//  #12 //059   ----------------------------------------
 BYTE   W96
//  #12 //060   ----------------------------------------
 BYTE   W96
//  #12 //061   ----------------------------------------
 BYTE   W96
//  #12 //062   ----------------------------------------
 BYTE   W24
 BYTE   TIE  Gn0  v108
 BYTE   TIE  Gn1
 BYTE   W24
 BYTE   N24  Dn2
 BYTE   W24
 BYTE   Gn2
 BYTE   W24
//  #12 //063   ----------------------------------------
 BYTE   As2
 BYTE   W24
 BYTE   Cn3
 BYTE   W24
 BYTE   Dn3  v100
 BYTE   W24
 BYTE   Gn3  v096
 BYTE   W24
//  #12 //064   ----------------------------------------
 BYTE   EOT
 BYTE   Gn0  v043
 BYTE   W96
//  #12 //065   ----------------------------------------
 BYTE   W96
//  #12 //066   ----------------------------------------
 BYTE   W96
//  #12 //067   ----------------------------------------
 BYTE   W96
//  #12 //068   ----------------------------------------
 BYTE   W96
//  #12 //069   ----------------------------------------
 BYTE   W96
//  #12 //070   ----------------------------------------
 BYTE   W96
//  #12 //071   ----------------------------------------
 BYTE   W96
//  #12 //072   ----------------------------------------
 BYTE   GoTo
  POIN2 Label_019B4758
//  #12 //073   ----------------------------------------
 BYTE   W48
 BYTE   FINE

//**************** Track 13 (Midi-Chn.12) ****************//

Tales2_013:
//  #13 //000   ----------------------------------------
 BYTE   KEYSH   Tales2_key+0
 BYTE   VOICE   0
 BYTE   PAN   c_v-7
 BYTE   VOL   23*Tales2_mvl/mxv
 BYTE   W96
//  #13 //001   ----------------------------------------
 BYTE   W96
//  #13 //002   ----------------------------------------
 BYTE   W96
//  #13 //003   ----------------------------------------
 BYTE   W96
//  #13 //004   ----------------------------------------
Label_019B5B40:
 BYTE   W96
//  #13 //005   ----------------------------------------
 BYTE   W96
//  #13 //006   ----------------------------------------
 BYTE   W96
//  #13 //007   ----------------------------------------
 BYTE   W96
//  #13 //008   ----------------------------------------
 BYTE   W96
//  #13 //009   ----------------------------------------
 BYTE   W96
//  #13 //010   ----------------------------------------
 BYTE   W96
//  #13 //011   ----------------------------------------
 BYTE   W96
//  #13 //012   ----------------------------------------
 BYTE   W96
//  #13 //013   ----------------------------------------
 BYTE   W96
//  #13 //014   ----------------------------------------
 BYTE   W96
//  #13 //015   ----------------------------------------
 BYTE   W96
//  #13 //016   ----------------------------------------
 BYTE   W96
//  #13 //017   ----------------------------------------
 BYTE   W96
//  #13 //018   ----------------------------------------
 BYTE   W96
//  #13 //019   ----------------------------------------
 BYTE   W96
//  #13 //020   ----------------------------------------
 BYTE   W96
//  #13 //021   ----------------------------------------
 BYTE   W96
//  #13 //022   ----------------------------------------
 BYTE   W96
//  #13 //023   ----------------------------------------
 BYTE   W96
//  #13 //024   ----------------------------------------
 BYTE   W96
//  #13 //025   ----------------------------------------
 BYTE   W96
//  #13 //026   ----------------------------------------
 BYTE   W96
//  #13 //027   ----------------------------------------
 BYTE   W96
//  #13 //028   ----------------------------------------
Label_019B5B58:
 BYTE   W12
 BYTE   N12  Gn3  v108
 BYTE   N12  Dn4
 BYTE   W12
 BYTE   As3
 BYTE   N12  Gn4
 BYTE   W12
 BYTE   Dn4
 BYTE   N12  As4
 BYTE   W60
 BYTE   PEND 
//  #13 //029   ----------------------------------------
Label_019B5B68:
 BYTE   W24
 BYTE   N12  Dn4  v108
 BYTE   W01
 BYTE   As4  v100
 BYTE   W32
 BYTE   W03
 BYTE   As3
 BYTE   N12  Gn4  v096
 BYTE   W36
 BYTE   PEND 
//  #13 //030   ----------------------------------------
 BYTE   W12
 BYTE   An3  v108
 BYTE   N12  Dn4
 BYTE   W12
 BYTE   An3
 BYTE   N12  Fn4
 BYTE   W12
 BYTE   Dn4
 BYTE   N12  An4
 BYTE   W60
//  #13 //031   ----------------------------------------
 BYTE   W24
 BYTE   Dn4
 BYTE   W01
 BYTE   An4  v100
 BYTE   W32
 BYTE   W03
 BYTE   An3
 BYTE   N12  Fn4  v096
 BYTE   W36
//  #13 //032   ----------------------------------------
 BYTE   PATT
  POIN2 Label_019B5B58
//  #13 //033   ----------------------------------------
 BYTE   PATT
  POIN2 Label_019B5B68
//  #13 //034   ----------------------------------------
 BYTE   W12
 BYTE   N12  An3  v108
 BYTE   N12  Dn4
 BYTE   W12
 BYTE   An3
 BYTE   N12  Fs4
 BYTE   W12
 BYTE   Dn4
 BYTE   N12  An4
 BYTE   W60
//  #13 //035   ----------------------------------------
 BYTE   W24
 BYTE   Dn4
 BYTE   W01
 BYTE   An4  v100
 BYTE   W32
 BYTE   W03
 BYTE   An3
 BYTE   N12  Fs4  v096
 BYTE   W36
//  #13 //036   ----------------------------------------
 BYTE   W96
//  #13 //037   ----------------------------------------
 BYTE   W96
//  #13 //038   ----------------------------------------
 BYTE   W96
//  #13 //039   ----------------------------------------
 BYTE   W96
//  #13 //040   ----------------------------------------
 BYTE   W96
//  #13 //041   ----------------------------------------
 BYTE   W96
//  #13 //042   ----------------------------------------
 BYTE   W96
//  #13 //043   ----------------------------------------
 BYTE   W96
//  #13 //044   ----------------------------------------
 BYTE   W96
//  #13 //045   ----------------------------------------
 BYTE   W96
//  #13 //046   ----------------------------------------
 BYTE   W96
//  #13 //047   ----------------------------------------
 BYTE   W96
//  #13 //048   ----------------------------------------
 BYTE   W96
//  #13 //049   ----------------------------------------
 BYTE   W96
//  #13 //050   ----------------------------------------
 BYTE   W96
//  #13 //051   ----------------------------------------
 BYTE   W96
//  #13 //052   ----------------------------------------
 BYTE   W96
//  #13 //053   ----------------------------------------
 BYTE   W96
//  #13 //054   ----------------------------------------
 BYTE   W96
//  #13 //055   ----------------------------------------
 BYTE   W96
//  #13 //056   ----------------------------------------
 BYTE   W96
//  #13 //057   ----------------------------------------
 BYTE   W96
//  #13 //058   ----------------------------------------
 BYTE   W96
//  #13 //059   ----------------------------------------
 BYTE   W96
//  #13 //060   ----------------------------------------
 BYTE   W48
 BYTE   N48  Dn3  v100
 BYTE   N48  Gn3
 BYTE   N48  An3
 BYTE   W48
//  #13 //061   ----------------------------------------
 BYTE   W96
//  #13 //062   ----------------------------------------
 BYTE   W96
//  #13 //063   ----------------------------------------
 BYTE   W96
//  #13 //064   ----------------------------------------
 BYTE   W96
//  #13 //065   ----------------------------------------
 BYTE   W96
//  #13 //066   ----------------------------------------
 BYTE   W96
//  #13 //067   ----------------------------------------
 BYTE   W96
//  #13 //068   ----------------------------------------
 BYTE   W96
//  #13 //069   ----------------------------------------
 BYTE   W96
//  #13 //070   ----------------------------------------
 BYTE   W96
//  #13 //071   ----------------------------------------
 BYTE   W96
//  #13 //072   ----------------------------------------
 BYTE   GoTo
  POIN2 Label_019B5B40
//  #13 //073   ----------------------------------------
 BYTE   W48
 BYTE   FINE

//**************** Track 14 (Midi-Chn.13) ****************//

Tales2_014:
//  #14 //000   ----------------------------------------
 BYTE   KEYSH   Tales2_key+0
 BYTE   VOICE   1
 BYTE   PAN   c_v-11
 BYTE   VOL   27*Tales2_mvl/mxv
 BYTE   W96
//  #14 //001   ----------------------------------------
 BYTE   W96
//  #14 //002   ----------------------------------------
 BYTE   W96
//  #14 //003   ----------------------------------------
 BYTE   W96
//  #14 //004   ----------------------------------------
Label_019B3E14:
 BYTE   W96
//  #14 //005   ----------------------------------------
 BYTE   W96
//  #14 //006   ----------------------------------------
 BYTE   W96
//  #14 //007   ----------------------------------------
 BYTE   W96
//  #14 //008   ----------------------------------------
 BYTE   W96
//  #14 //009   ----------------------------------------
 BYTE   W96
//  #14 //010   ----------------------------------------
 BYTE   W96
//  #14 //011   ----------------------------------------
 BYTE   W96
//  #14 //012   ----------------------------------------
 BYTE   W96
//  #14 //013   ----------------------------------------
 BYTE   W96
//  #14 //014   ----------------------------------------
 BYTE   W96
//  #14 //015   ----------------------------------------
 BYTE   W96
//  #14 //016   ----------------------------------------
 BYTE   W96
//  #14 //017   ----------------------------------------
 BYTE   W96
//  #14 //018   ----------------------------------------
 BYTE   W96
//  #14 //019   ----------------------------------------
 BYTE   W96
//  #14 //020   ----------------------------------------
 BYTE   W96
//  #14 //021   ----------------------------------------
 BYTE   W96
//  #14 //022   ----------------------------------------
 BYTE   W96
//  #14 //023   ----------------------------------------
 BYTE   W96
//  #14 //024   ----------------------------------------
 BYTE   W96
//  #14 //025   ----------------------------------------
 BYTE   W96
//  #14 //026   ----------------------------------------
 BYTE   W96
//  #14 //027   ----------------------------------------
 BYTE   W96
//  #14 //028   ----------------------------------------
Label_019B3E2C:
 BYTE   N12  Ds1  v116
 BYTE   N12  Ds2
 BYTE   W36
 BYTE   As1
 BYTE   N12  Gn2
 BYTE   W36
 BYTE   Ds2
 BYTE   N12  As2
 BYTE   W24
 BYTE   PEND 
//  #14 //029   ----------------------------------------
 BYTE   PATT
  POIN2 Label_019B3E2C
//  #14 //030   ----------------------------------------
Label_019B3E40:
 BYTE   N12  Dn1  v116
 BYTE   N12  Dn2
 BYTE   W36
 BYTE   An1
 BYTE   N12  Fn2
 BYTE   W36
 BYTE   Dn2
 BYTE   N12  An2
 BYTE   W24
 BYTE   PEND 
//  #14 //031   ----------------------------------------
 BYTE   PATT
  POIN2 Label_019B3E40
//  #14 //032   ----------------------------------------
 BYTE   PATT
  POIN2 Label_019B3E2C
//  #14 //033   ----------------------------------------
 BYTE   PATT
  POIN2 Label_019B3E2C
//  #14 //034   ----------------------------------------
Label_019B3E5E:
 BYTE   N12  Dn1  v116
 BYTE   N12  Dn2
 BYTE   W36
 BYTE   An1
 BYTE   N12  Fs2
 BYTE   W36
 BYTE   Dn2
 BYTE   N12  An2
 BYTE   W24
 BYTE   PEND 
//  #14 //035   ----------------------------------------
 BYTE   PATT
  POIN2 Label_019B3E5E
//  #14 //036   ----------------------------------------
 BYTE   W96
//  #14 //037   ----------------------------------------
 BYTE   W96
//  #14 //038   ----------------------------------------
 BYTE   W96
//  #14 //039   ----------------------------------------
 BYTE   W96
//  #14 //040   ----------------------------------------
 BYTE   W96
//  #14 //041   ----------------------------------------
 BYTE   W96
//  #14 //042   ----------------------------------------
 BYTE   W96
//  #14 //043   ----------------------------------------
 BYTE   W96
//  #14 //044   ----------------------------------------
 BYTE   W96
//  #14 //045   ----------------------------------------
 BYTE   W96
//  #14 //046   ----------------------------------------
 BYTE   W96
//  #14 //047   ----------------------------------------
 BYTE   W96
//  #14 //048   ----------------------------------------
 BYTE   W96
//  #14 //049   ----------------------------------------
 BYTE   W96
//  #14 //050   ----------------------------------------
 BYTE   W96
//  #14 //051   ----------------------------------------
 BYTE   W96
//  #14 //052   ----------------------------------------
 BYTE   W96
//  #14 //053   ----------------------------------------
 BYTE   W96
//  #14 //054   ----------------------------------------
 BYTE   W96
//  #14 //055   ----------------------------------------
 BYTE   W96
//  #14 //056   ----------------------------------------
 BYTE   W96
//  #14 //057   ----------------------------------------
 BYTE   W96
//  #14 //058   ----------------------------------------
 BYTE   W96
//  #14 //059   ----------------------------------------
 BYTE   W96
//  #14 //060   ----------------------------------------
 BYTE   N48  Gn1  v112
 BYTE   N48  Gn2  v100
 BYTE   W96
//  #14 //061   ----------------------------------------
 BYTE   W96
//  #14 //062   ----------------------------------------
 BYTE   W96
//  #14 //063   ----------------------------------------
 BYTE   W96
//  #14 //064   ----------------------------------------
 BYTE   W96
//  #14 //065   ----------------------------------------
 BYTE   W96
//  #14 //066   ----------------------------------------
 BYTE   W96
//  #14 //067   ----------------------------------------
 BYTE   W96
//  #14 //068   ----------------------------------------
 BYTE   W96
//  #14 //069   ----------------------------------------
 BYTE   W96
//  #14 //070   ----------------------------------------
 BYTE   W96
//  #14 //071   ----------------------------------------
 BYTE   W96
//  #14 //072   ----------------------------------------
 BYTE   GoTo
  POIN2 Label_019B3E14
//  #14 //073   ----------------------------------------
 BYTE   W48
 BYTE   FINE

//******************************************************//
	ALIGN 4

Tales2:
	BYTE	14	// NumTrks
	BYTE	0	// NumBlks
	BYTE	Tales2_pri	// Priority
	BYTE	Tales2_rev	// Reverb.
    
	POIN2	Tales2_grp
    
	POIN2	Tales2_001
	POIN2	Tales2_002
	POIN2	Tales2_003
	POIN2	Tales2_004
	POIN2	Tales2_005
	POIN2	Tales2_006
	POIN2	Tales2_007
	POIN2	Tales2_008
	POIN2	Tales2_009
	POIN2	Tales2_010
	POIN2	Tales2_011
	POIN2	Tales2_012
	POIN2	Tales2_013
	POIN2	Tales2_014

	
