//Event file generated from Sappy .s format.
	#include "MPlayDef.event"

	#define	OldKing_grp  voicegroup001
	#define	OldKing_pri  0
	#define	OldKing_rev  0
	#define	OldKing_mvl  127
	#define	OldKing_key  0
	#define	OldKing_tbs  1
	#define	OldKing_exg  0
	#define	OldKing_cmp  1

	// .rodata
	//	OldKing
	ALIGN 4


//**************** Track 1 (Midi-Chn.0) ****************//

OldKing_001:
// 000   ----------------------------------------
 BYTE   KEYSH   OldKing_key+0
 BYTE   TEMPO   156*OldKing_tbs/2
 BYTE   VOICE   48
 BYTE   VOL   23*OldKing_mvl/mxv
 BYTE   PAN   c_v-14
 BYTE   VOL   22*OldKing_mvl/mxv
 BYTE   PAN   c_v+16
 BYTE   W96
// 001   ----------------------------------------
 BYTE   W96
// 002   ----------------------------------------
Label_0_01301644:
 BYTE   N12  Gn0  v112
 BYTE   N12  Gn1  v127
 BYTE   W36
 BYTE   Gn0  v112
 BYTE   N12  Gn1  v127
 BYTE   W36
 BYTE   Gn0  v112
 BYTE   N12  Gn1  v127
 BYTE   W24
 BYTE   PEND 
// 003   ----------------------------------------
Label_0_01301658:
 BYTE   N12  Gn0  v112
 BYTE   N12  Gn1  v127
 BYTE   W12
 BYTE   Dn1  v112
 BYTE   W12
 BYTE   N12
 BYTE   W12
 BYTE   Gn0
 BYTE   N12  Gn1  v127
 BYTE   W12
 BYTE   Dn1  v112
 BYTE   W12
 BYTE   N12
 BYTE   W12
 BYTE   Gn0
 BYTE   N12  Gn1  v127
 BYTE   W12
 BYTE   Dn1  v112
 BYTE   W12
 BYTE   PEND 
// 004   ----------------------------------------
 BYTE   PATT
  POIN2 Label_0_01301644
// 005   ----------------------------------------
 BYTE   PATT
  POIN2 Label_0_01301658
// 006   ----------------------------------------
Label_0_01301681:
 BYTE   N12  Ds1  v112
 BYTE   N12  Ds2  v127
 BYTE   W36
 BYTE   Ds1  v112
 BYTE   N12  Ds2  v127
 BYTE   W36
 BYTE   Ds1  v112
 BYTE   N12  Ds2  v127
 BYTE   W24
 BYTE   PEND 
// 007   ----------------------------------------
Label_0_01301695:
 BYTE   N12  Ds1  v112
 BYTE   N12  Ds2  v127
 BYTE   W12
 BYTE   As1  v112
 BYTE   W12
 BYTE   N12
 BYTE   W12
 BYTE   Ds1
 BYTE   N12  Ds2  v127
 BYTE   W12
 BYTE   As1  v112
 BYTE   W12
 BYTE   N12
 BYTE   W12
 BYTE   Ds1
 BYTE   N12  Ds2  v127
 BYTE   W12
 BYTE   As1  v112
 BYTE   W12
 BYTE   PEND 
// 008   ----------------------------------------
 BYTE   PATT
  POIN2 Label_0_01301681
// 009   ----------------------------------------
 BYTE   PATT
  POIN2 Label_0_01301695
// 010   ----------------------------------------
 BYTE   N12  Cn1  v112
 BYTE   N12  Cn2  v127
 BYTE   N96  Ds4  v120
 BYTE   N96  Cn5
 BYTE   W04
 BYTE   W04
 BYTE   W04
 BYTE   W05
 BYTE   W04
 BYTE   W04
 BYTE   W05
 BYTE   W04
 BYTE   W02
 BYTE   N12  Cn1  v112
 BYTE   N12  Cn2  v127
 BYTE   W02
 BYTE   W04
 BYTE   W05
 BYTE   W04
 BYTE   W04
 BYTE   W05
 BYTE   W04
 BYTE   W04
 BYTE   W04
 BYTE   Cn1  v112
 BYTE   N12  Cn2  v127
 BYTE   W01
 BYTE   W04
 BYTE   W04
 BYTE   W04
 BYTE   W05
 BYTE   W04
 BYTE   W02
// 011   ----------------------------------------
 BYTE   As0  v112
 BYTE   N12  As1  v127
 BYTE   N96  Dn4  v120
 BYTE   N96  As4
 BYTE   W02
 BYTE   W05
 BYTE   W04
 BYTE   W01
 BYTE   N12  Fn1  v112
 BYTE   W03
 BYTE   W05
 BYTE   W04
 BYTE   N12
 BYTE   W04
 BYTE   W04
 BYTE   W04
 BYTE   As0
 BYTE   N12  As1  v127
 BYTE   W01
 BYTE   W04
 BYTE   W04
 BYTE   W03
 BYTE   Fn1  v112
 BYTE   W02
 BYTE   W04
 BYTE   W04
 BYTE   W02
 BYTE   N12
 BYTE   W03
 BYTE   W04
 BYTE   W04
 BYTE   W01
 BYTE   As0
 BYTE   N12  As1  v127
 BYTE   W03
 BYTE   W05
 BYTE   W04
 BYTE   Fn1  v112
 BYTE   W04
 BYTE   W05
 BYTE   W03
// 012   ----------------------------------------
 BYTE   An0
 BYTE   N12  An1  v127
 BYTE   N96  Gn4  v120
 BYTE   N96  Cn5
 BYTE   W01
 BYTE   W04
 BYTE   W05
 BYTE   W04
 BYTE   W04
 BYTE   W04
 BYTE   W05
 BYTE   W04
 BYTE   W04
 BYTE   W01
 BYTE   N12  An0  v112
 BYTE   N12  An1  v127
 BYTE   W04
 BYTE   W04
 BYTE   W04
 BYTE   W05
 BYTE   W04
 BYTE   W04
 BYTE   W04
 BYTE   W05
 BYTE   W02
 BYTE   An0  v112
 BYTE   N12  An1  v127
 BYTE   W02
 BYTE   W04
 BYTE   W05
 BYTE   W04
 BYTE   W04
 BYTE   W05
// 013   ----------------------------------------
 BYTE   Dn1  v112
 BYTE   N12  Dn2  v127
 BYTE   N72  Fs4  v120
 BYTE   N72  Dn5
 BYTE   W12
 BYTE   N12  An1  v112
 BYTE   W12
 BYTE   N12
 BYTE   W12
 BYTE   Dn1
 BYTE   N12  Dn2  v127
 BYTE   W12
 BYTE   An1  v112
 BYTE   W12
 BYTE   N12
 BYTE   W12
 BYTE   Dn1
 BYTE   N12  Dn2  v127
 BYTE   W12
 BYTE   An1  v112
 BYTE   W12
// 014   ----------------------------------------
 BYTE   Gn0
 BYTE   N12  Gn1  v127
 BYTE   N36  Gn2
 BYTE   W36
 BYTE   N12  Gn0  v112
 BYTE   N12  Gn1  v127
 BYTE   N90  Dn3
 BYTE   W36
 BYTE   N12  Gn0  v112
 BYTE   N12  Gn1  v127
 BYTE   W24
// 015   ----------------------------------------
 BYTE   Gn0  v112
 BYTE   N12  Gn1  v127
 BYTE   W12
 BYTE   Dn1  v112
 BYTE   W12
 BYTE   N12
 BYTE   W12
 BYTE   Gn0
 BYTE   N12  Gn1  v127
 BYTE   N36  Cn3
 BYTE   W12
 BYTE   N12  Dn1  v112
 BYTE   W12
 BYTE   N12
 BYTE   W12
 BYTE   Gn0
 BYTE   N12  Gn1  v127
 BYTE   N24  Fn3
 BYTE   W12
 BYTE   N12  Dn1  v112
 BYTE   W12
// 016   ----------------------------------------
 BYTE   Gn0
 BYTE   N12  Gn1  v127
 BYTE   TIE  Dn3
 BYTE   W36
 BYTE   N12  Gn0  v112
 BYTE   N12  Gn1  v127
 BYTE   W36
 BYTE   Gn0  v112
 BYTE   N12  Gn1  v127
 BYTE   W24
// 017   ----------------------------------------
 BYTE   Gn0  v112
 BYTE   N12  Gn1  v127
 BYTE   W12
 BYTE   Dn1  v112
 BYTE   W12
 BYTE   N12
 BYTE   W12
 BYTE   Gn0
 BYTE   N12  Gn1  v127
 BYTE   W12
 BYTE   Dn1  v112
 BYTE   W12
 BYTE   N12
 BYTE   W12
 BYTE   Gn0
 BYTE   N12  Gn1  v127
 BYTE   W12
 BYTE   EOT
 BYTE   Dn3
 BYTE   N12  Dn1  v112
 BYTE   W12
// 018   ----------------------------------------
 BYTE   Ds1
 BYTE   N12  Ds2  v127
 BYTE   N36  Ds3
 BYTE   W36
 BYTE   N12  Ds1  v112
 BYTE   N12  Ds2  v127
 BYTE   N90  As3
 BYTE   W36
 BYTE   N12  Ds1  v112
 BYTE   N12  Ds2  v127
 BYTE   W24
// 019   ----------------------------------------
 BYTE   Ds1  v112
 BYTE   N12  Ds2  v127
 BYTE   W12
 BYTE   As1  v112
 BYTE   W12
 BYTE   N12
 BYTE   W12
 BYTE   Ds1
 BYTE   N12  Ds2  v127
 BYTE   N36  An3
 BYTE   W12
 BYTE   N12  As1  v112
 BYTE   W12
 BYTE   N12
 BYTE   W12
 BYTE   Ds1
 BYTE   N12  Ds2  v127
 BYTE   N24  Cn4
 BYTE   W12
 BYTE   N12  As1  v112
 BYTE   W12
// 020   ----------------------------------------
 BYTE   Ds1
 BYTE   N12  Ds2  v127
 BYTE   TIE  As3
 BYTE   W36
 BYTE   N12  Ds1  v112
 BYTE   N12  Ds2  v127
 BYTE   W36
 BYTE   Ds1  v112
 BYTE   N12  Ds2  v127
 BYTE   W24
// 021   ----------------------------------------
 BYTE   Ds1  v112
 BYTE   N12  Ds2  v127
 BYTE   W12
 BYTE   As1  v112
 BYTE   W12
 BYTE   N12
 BYTE   W12
 BYTE   Ds1
 BYTE   N12  Ds2  v127
 BYTE   W12
 BYTE   As1  v112
 BYTE   W12
 BYTE   N12
 BYTE   W12
 BYTE   Ds1
 BYTE   N12  Ds2  v127
 BYTE   W12
 BYTE   EOT
 BYTE   As3
 BYTE   N12  As1  v112
 BYTE   W12
// 022   ----------------------------------------
 BYTE   Cn1
 BYTE   N12  Cn2  v127
 BYTE   N30  As3
 BYTE   N30  Dn4
 BYTE   W36
 BYTE   N12  Cn1  v112
 BYTE   N12  Cn2  v127
 BYTE   N24  An3
 BYTE   N24  Cn4
 BYTE   W24
 BYTE   As3
 BYTE   N24  Dn4
 BYTE   W12
 BYTE   N12  Cn1  v112
 BYTE   N12  Cn2  v127
 BYTE   W12
 BYTE   Cn4
 BYTE   N12  Ds4
 BYTE   W12
// 023   ----------------------------------------
 BYTE   Dn1  v112
 BYTE   N12  Dn2  v127
 BYTE   N30  Dn4
 BYTE   N30  Fn4
 BYTE   W12
 BYTE   N12  An1  v112
 BYTE   W12
 BYTE   N12
 BYTE   W12
 BYTE   Dn1
 BYTE   N12  Dn2  v127
 BYTE   N24  As3
 BYTE   N24  Dn4
 BYTE   W12
 BYTE   N12  An1  v112
 BYTE   W12
 BYTE   N12
 BYTE   N24  Cn4  v127
 BYTE   N24  Ds4
 BYTE   W12
 BYTE   N12  Dn1  v112
 BYTE   N12  Dn2  v127
 BYTE   W12
 BYTE   An1  v112
 BYTE   N12  Dn4  v127
 BYTE   N12  Fn4
 BYTE   W12
// 024   ----------------------------------------
 BYTE   Ds1  v112
 BYTE   N12  Ds2  v127
 BYTE   N66  Ds4
 BYTE   N66  Gn4
 BYTE   W36
 BYTE   N12  Ds1  v112
 BYTE   N12  Ds2  v127
 BYTE   W36
 BYTE   Ds1  v112
 BYTE   N12  Ds2  v127
 BYTE   N24  Ds4
 BYTE   N24  Gn4
 BYTE   W24
// 025   ----------------------------------------
 BYTE   N12  Dn1  v112
 BYTE   N12  Dn2  v127
 BYTE   N36  Dn4
 BYTE   N36  Fs4
 BYTE   W12
 BYTE   N12  An1  v112
 BYTE   W12
 BYTE   N12
 BYTE   W12
 BYTE   Dn1
 BYTE   N12  Dn2  v127
 BYTE   N36  En4
 BYTE   N36  Gn4
 BYTE   W12
 BYTE   N12  An1  v112
 BYTE   W12
 BYTE   N12
 BYTE   W12
 BYTE   Dn1
 BYTE   N12  Dn2  v127
 BYTE   N24  Fs4
 BYTE   N24  An4
 BYTE   W12
 BYTE   N12  An1  v112
 BYTE   W12
// 026   ----------------------------------------
 BYTE   PATT
  POIN2 Label_0_01301644
// 027   ----------------------------------------
 BYTE   PATT
  POIN2 Label_0_01301658
// 028   ----------------------------------------
 BYTE   PATT
  POIN2 Label_0_01301644
// 029   ----------------------------------------
 BYTE   PATT
  POIN2 Label_0_01301658
// 030   ----------------------------------------
 BYTE   W96
// 031   ----------------------------------------
 BYTE   W96
// 032   ----------------------------------------
 BYTE   W96
// 033   ----------------------------------------
 BYTE   W96
// 034   ----------------------------------------
 BYTE   W96
// 035   ----------------------------------------
 BYTE   W96
// 036   ----------------------------------------
 BYTE   W96
// 037   ----------------------------------------
 BYTE   W72
 BYTE   N04  Cn3  v127
 BYTE   N04  En3
 BYTE   W04
 BYTE   Dn3
 BYTE   N04  Fs3
 BYTE   W04
 BYTE   En3
 BYTE   N04  Gn3
 BYTE   W04
 BYTE   Fs3
 BYTE   N04  An3
 BYTE   W04
 BYTE   Gn3
 BYTE   N04  As3
 BYTE   W04
 BYTE   An3
 BYTE   N04  Cn4
 BYTE   W04
// 038   ----------------------------------------
Label_0_01301924:
 BYTE   N12  Gn0  v112
 BYTE   N12  Gn1  v127
 BYTE   N96  As3
 BYTE   N96  Dn4
 BYTE   W36
 BYTE   N12  Gn0  v112
 BYTE   N12  Gn1  v127
 BYTE   W36
 BYTE   Gn0  v112
 BYTE   N12  Gn1  v127
 BYTE   W24
 BYTE   PEND 
// 039   ----------------------------------------
Label_0_0130193D:
 BYTE   N12  An0  v112
 BYTE   N12  An1  v127
 BYTE   N72  Dn4
 BYTE   N72  An4
 BYTE   W12
 BYTE   N12  Dn1  v112
 BYTE   W12
 BYTE   N12
 BYTE   W12
 BYTE   An0
 BYTE   N12  An1  v127
 BYTE   W12
 BYTE   Dn1  v112
 BYTE   W12
 BYTE   N12
 BYTE   W12
 BYTE   An0
 BYTE   N12  An1  v127
 BYTE   N24  Dn4
 BYTE   N24  As4
 BYTE   W12
 BYTE   N12  Dn1  v112
 BYTE   W12
 BYTE   PEND 
// 040   ----------------------------------------
Label_0_01301966:
 BYTE   N12  As0  v112
 BYTE   N12  As1  v127
 BYTE   N30  Dn4
 BYTE   N30  Gn4
 BYTE   W36
 BYTE   N12  As0  v112
 BYTE   N12  As1  v127
 BYTE   N36  Dn4
 BYTE   N36  Fs4
 BYTE   W36
 BYTE   N12  As0  v112
 BYTE   N12  As1  v127
 BYTE   N24  Dn4
 BYTE   N24  Gn4
 BYTE   W24
 BYTE   PEND 
// 041   ----------------------------------------
Label_0_01301988:
 BYTE   N12  Cn1  v112
 BYTE   N12  Cn2  v127
 BYTE   N36  Ds4
 BYTE   N36  An4
 BYTE   W12
 BYTE   N12  Gn1  v112
 BYTE   W12
 BYTE   N12
 BYTE   W12
 BYTE   Cn1
 BYTE   N12  Cn2  v127
 BYTE   N36  Ds4
 BYTE   N36  As4
 BYTE   W12
 BYTE   N12  Gn1  v112
 BYTE   W12
 BYTE   N12
 BYTE   W12
 BYTE   Cn1
 BYTE   N12  Cn2  v127
 BYTE   N21  Ds4
 BYTE   N21  Cn5
 BYTE   W12
 BYTE   N12  Gn1  v112
 BYTE   W12
 BYTE   PEND 
// 042   ----------------------------------------
 BYTE   Cs1
 BYTE   N12  Cs2  v127
 BYTE   N72  An4
 BYTE   N72  Cn5
 BYTE   W36
 BYTE   N12  Cs1  v112
 BYTE   N12  Cs2  v127
 BYTE   W36
 BYTE   Cs1  v112
 BYTE   N12  Cs2  v127
 BYTE   N12  Gn4
 BYTE   N12  As4
 BYTE   W12
 BYTE   Fs4
 BYTE   N12  An4
 BYTE   W12
// 043   ----------------------------------------
 BYTE   En1  v112
 BYTE   N12  En2  v127
 BYTE   N60  An4
 BYTE   N60  Cn5
 BYTE   W12
 BYTE   N12  An1  v112
 BYTE   W12
 BYTE   N12
 BYTE   W12
 BYTE   En1
 BYTE   N12  En2  v127
 BYTE   W12
 BYTE   An1  v112
 BYTE   W12
 BYTE   N12
 BYTE   N24  Gn4  v127
 BYTE   N24  As4
 BYTE   W12
 BYTE   N12  En1  v112
 BYTE   N12  En2  v127
 BYTE   W12
 BYTE   An1  v112
 BYTE   N12  Fs4  v127
 BYTE   N12  An4
 BYTE   W12
// 044   ----------------------------------------
 BYTE   Dn1  v112
 BYTE   N12  Dn2  v127
 BYTE   N36  Dn4
 BYTE   N36  Gn4
 BYTE   W36
 BYTE   N12  Dn1  v112
 BYTE   N12  Dn2  v127
 BYTE   N36  Dn4
 BYTE   N36  Fs4
 BYTE   W36
 BYTE   N12  Dn1  v112
 BYTE   N12  Dn2  v127
 BYTE   N24  Dn4
 BYTE   N24  Gn4
 BYTE   W24
// 045   ----------------------------------------
 BYTE   N12  Dn1  v112
 BYTE   N12  Dn2  v127
 BYTE   N84  Dn4
 BYTE   N84  An4
 BYTE   W12
 BYTE   N12  An1  v112
 BYTE   W12
 BYTE   N12
 BYTE   W12
 BYTE   Dn1
 BYTE   N12  Dn2  v127
 BYTE   W12
 BYTE   An1  v112
 BYTE   W12
 BYTE   N12
 BYTE   W12
 BYTE   Dn1
 BYTE   N12  Dn2  v127
 BYTE   W12
 BYTE   An1  v112
 BYTE   W12
// 046   ----------------------------------------
 BYTE   PATT
  POIN2 Label_0_01301924
// 047   ----------------------------------------
 BYTE   PATT
  POIN2 Label_0_0130193D
// 048   ----------------------------------------
 BYTE   PATT
  POIN2 Label_0_01301966
// 049   ----------------------------------------
 BYTE   PATT
  POIN2 Label_0_01301988
// 050   ----------------------------------------
 BYTE   N12  Cs1  v112
 BYTE   N12  Cs2  v127
 BYTE   N72  Gn4
 BYTE   N72  Cn5
 BYTE   W36
 BYTE   N12  Cs1  v112
 BYTE   N12  Cs2  v127
 BYTE   W36
 BYTE   Cs1  v112
 BYTE   N12  Cs2  v127
 BYTE   N12  Gn4
 BYTE   N12  As4
 BYTE   W12
 BYTE   Gn4
 BYTE   N12  An4
 BYTE   W12
// 051   ----------------------------------------
 BYTE   Cs1  v112
 BYTE   N12  Cs2  v127
 BYTE   N30  Gn4
 BYTE   N30  Cn5
 BYTE   W12
 BYTE   N12  Gn1  v112
 BYTE   W12
 BYTE   N12
 BYTE   W12
 BYTE   Cs1
 BYTE   N12  Cs2  v127
 BYTE   N24  Gn4
 BYTE   N24  Cn5
 BYTE   W12
 BYTE   N12  Gn1  v112
 BYTE   W12
 BYTE   N12
 BYTE   N24  Gn4  v127
 BYTE   N24  As4
 BYTE   W12
 BYTE   N12  Cs1  v112
 BYTE   N12  Cs2  v127
 BYTE   W12
 BYTE   Gn1  v112
 BYTE   N12  Gn4  v127
 BYTE   N12  An4
 BYTE   W12
// 052   ----------------------------------------
 BYTE   Dn1  v112
 BYTE   N12  Dn2  v127
 BYTE   N60  Dn4
 BYTE   N60  Fs4
 BYTE   W36
 BYTE   N12  Dn1  v112
 BYTE   N12  Dn2  v127
 BYTE   W24
 BYTE   En4
 BYTE   N12  Gn4
 BYTE   W12
 BYTE   Dn1  v112
 BYTE   N12  Dn2  v127
 BYTE   N12  Fs4
 BYTE   N12  An4
 BYTE   W12
 BYTE   Gn4
 BYTE   N12  As4
 BYTE   W12
// 053   ----------------------------------------
 BYTE   Dn1  v112
 BYTE   N12  Dn2  v127
 BYTE   N24  An4
 BYTE   N24  Cn5
 BYTE   W12
 BYTE   N12  An1  v112
 BYTE   W12
 BYTE   N12
 BYTE   N24  An4  v127
 BYTE   N24  Dn5
 BYTE   W12
 BYTE   N12  Dn1  v112
 BYTE   N12  Dn2  v127
 BYTE   W12
 BYTE   An1  v112
 BYTE   N24  Gn4  v127
 BYTE   N24  As4
 BYTE   W12
 BYTE   N12  An1  v112
 BYTE   W12
 BYTE   Dn1
 BYTE   N12  Dn2  v127
 BYTE   N24  Dn4
 BYTE   N24  An4
 BYTE   W12
 BYTE   N12  An1  v112
 BYTE   W12
// 054   ----------------------------------------
 BYTE   Gn0
 BYTE   N12  Gn1  v127
 BYTE   TIE  Dn4
 BYTE   TIE  Gn4
 BYTE   W36
 BYTE   N12  Gn0  v112
 BYTE   N12  Gn1  v127
 BYTE   W36
 BYTE   Gn0  v112
 BYTE   N12  Gn1  v127
 BYTE   W24
// 055   ----------------------------------------
 BYTE   Gn0  v112
 BYTE   N12  Gn1  v127
 BYTE   W12
 BYTE   Dn1  v112
 BYTE   W12
 BYTE   N12
 BYTE   W12
 BYTE   Gn0
 BYTE   N12  Gn1  v127
 BYTE   W12
 BYTE   Dn1  v112
 BYTE   W03
 BYTE   W01
 BYTE   W02
 BYTE   W01
 BYTE   W03
 BYTE   W02
 BYTE   N12
 BYTE   W01
 BYTE   W01
 BYTE   W03
 BYTE   W03
 BYTE   W01
 BYTE   W02
 BYTE   W01
 BYTE   Gn0
 BYTE   N12  Gn1  v127
 BYTE   W03
 BYTE   W03
 BYTE   W01
 BYTE   W03
 BYTE   W02
 BYTE   Dn1  v112
 BYTE   W01
 BYTE   W01
 BYTE   W02
 BYTE   W01
 BYTE   W03
 BYTE   W03
 BYTE   W01
// 056   ----------------------------------------
 BYTE   Gn0
 BYTE   N12  Gn1  v127
 BYTE   W03
 BYTE   W03
 BYTE   W01
 BYTE   W02
 BYTE   W01
 BYTE   W03
 BYTE   W03
 BYTE   W01
 BYTE   W03
 BYTE   W03
 BYTE   W01
 BYTE   W02
 BYTE   W01
 BYTE   W03
 BYTE   W03
 BYTE   W01
 BYTE   W02
 BYTE   Gn0  v112
 BYTE   N12  Gn1  v127
 BYTE   W01
 BYTE   W03
 BYTE   W01
 BYTE   W02
 BYTE   W01
 BYTE   W03
 BYTE   W03
 BYTE   W01
 BYTE   W03
 BYTE   W03
 BYTE   W01
 BYTE   W02
 BYTE   W01
 BYTE   W03
 BYTE   W01
 BYTE   W02
 BYTE   W01
 BYTE   W03
 BYTE   W01
 BYTE   Gn0  v112
 BYTE   N12  Gn1  v127
 BYTE   W02
 BYTE   W01
 BYTE   W02
 BYTE   W01
 BYTE   W03
 BYTE   W01
 BYTE   W02
 BYTE   W01
 BYTE   W03
 BYTE   W03
 BYTE   W01
 BYTE   W02
 BYTE   W01
 BYTE   W01
// 057   ----------------------------------------
 BYTE   Gn0  v112
 BYTE   N12  Gn1  v127
 BYTE   W02
 BYTE   W01
 BYTE   W02
 BYTE   W01
 BYTE   W03
 BYTE   W03
 BYTE   Dn1  v112
 BYTE   W01
 BYTE   W02
 BYTE   W01
 BYTE   W03
 BYTE   W01
 BYTE   W02
 BYTE   W01
 BYTE   W01
 BYTE   N12
 BYTE   W02
 BYTE   W03
 BYTE   W01
 BYTE   W02
 BYTE   W01
 BYTE   W03
 BYTE   Gn0
 BYTE   N12  Gn1  v127
 BYTE   W01
 BYTE   W02
 BYTE   W01
 BYTE   W03
 BYTE   W03
 BYTE   W01
 BYTE   W01
 BYTE   Dn1  v112
 BYTE   W01
 BYTE   W01
 BYTE   W03
 BYTE   W01
 BYTE   W02
 BYTE   W01
 BYTE   W03
 BYTE   N12
 BYTE   W03
 BYTE   W01
 BYTE   W02
 BYTE   W01
 BYTE   W03
 BYTE   W01
 BYTE   W01
 BYTE   EOT
 BYTE   Dn4  v079
 BYTE   N12  Gn0
 BYTE   N12  Gn1  v127
 BYTE   W12
 BYTE   Dn1  v112
 BYTE   W12
// 058   ----------------------------------------
 BYTE   PATT
  POIN2 Label_0_01301644
// 059   ----------------------------------------
Label_0_01301BD5:
 BYTE   N12  Gn0  v112
 BYTE   N12  Gn1  v127
 BYTE   W12
 BYTE   Dn1  v112
 BYTE   W12
 BYTE   N12
 BYTE   W12
 BYTE   Gn0
 BYTE   N12  Gn1  v127
 BYTE   W12
 BYTE   Dn1  v112
 BYTE   W12
 BYTE   N12
 BYTE   W12
 BYTE   Gn0
 BYTE   N12  Gn1  v127
 BYTE   W12
 BYTE   Dn1  v112
 BYTE   W12
 BYTE   PEND 
// 060   ----------------------------------------
 BYTE   PATT
  POIN2 Label_0_01301644
// 061   ----------------------------------------
 BYTE   TEMPO   154*OldKing_tbs/2
 BYTE   N12  Gn0  v112
 BYTE   N12  Gn1  v127
 BYTE   W12
 BYTE   Dn1  v112
 BYTE   W02
 BYTE   TEMPO   152*OldKing_tbs/2
 BYTE   W01
 BYTE   TEMPO   150*OldKing_tbs/2
 BYTE   W09
 BYTE   N12
 BYTE   W04
 BYTE   TEMPO   148*OldKing_tbs/2
 BYTE   W01
 BYTE   TEMPO   148*OldKing_tbs/2
 BYTE   W07
 BYTE   Gn0
 BYTE   N12  Gn1  v127
 BYTE   W05
 BYTE   TEMPO   144*OldKing_tbs/2
 BYTE   W01
 BYTE   TEMPO   144*OldKing_tbs/2
 BYTE   W06
 BYTE   Dn1  v112
 BYTE   W05
 BYTE   TEMPO   142*OldKing_tbs/2
 BYTE   W01
 BYTE   TEMPO   142*OldKing_tbs/2
 BYTE   W06
 BYTE   N12
 BYTE   W04
 BYTE   TEMPO   140*OldKing_tbs/2
 BYTE   W01
 BYTE   TEMPO   138*OldKing_tbs/2
 BYTE   W07
 BYTE   Gn0
 BYTE   N12  Gn1  v127
 BYTE   W02
 BYTE   TEMPO   136*OldKing_tbs/2
 BYTE   W01
 BYTE   TEMPO   136*OldKing_tbs/2
 BYTE   W09
 BYTE   TEMPO   134*OldKing_tbs/2
 BYTE   Dn1  v112
 BYTE   W01
 BYTE   TEMPO   134*OldKing_tbs/2
 BYTE   W08
 BYTE   TEMPO   132*OldKing_tbs/2
 BYTE   W01
 BYTE   TEMPO   132*OldKing_tbs/2
 BYTE   W02
// 062   ----------------------------------------
 BYTE   TEMPO   150*OldKing_tbs/2
 BYTE   TIE  Gn4  v096
 BYTE   TIE  Dn5  v112
 BYTE   W40
 BYTE   TEMPO   150*OldKing_tbs/2
 BYTE   W01
 BYTE   TEMPO   150*OldKing_tbs/2
 BYTE   W32
 BYTE   W02
 BYTE   TEMPO   154*OldKing_tbs/2
 BYTE   W01
 BYTE   TEMPO   154*OldKing_tbs/2
 BYTE   W14
 BYTE   TEMPO   154*OldKing_tbs/2
 BYTE   W01
 BYTE   TEMPO   154*OldKing_tbs/2
 BYTE   W05
// 063   ----------------------------------------
 BYTE   TEMPO   156*OldKing_tbs/2
 BYTE   W96
// 064   ----------------------------------------
 BYTE   W04
 BYTE   W01
 BYTE   W04
 BYTE   W01
 BYTE   W04
 BYTE   W01
 BYTE   W04
 BYTE   W01
 BYTE   W04
 BYTE   W01
 BYTE   W04
 BYTE   W01
 BYTE   W04
 BYTE   W01
 BYTE   W04
 BYTE   W01
 BYTE   W04
 BYTE   W01
 BYTE   W04
 BYTE   W01
 BYTE   W04
 BYTE   W01
 BYTE   W04
 BYTE   W01
 BYTE   W04
 BYTE   W01
 BYTE   W04
 BYTE   W01
 BYTE   W04
 BYTE   W01
 BYTE   W04
 BYTE   W01
 BYTE   W04
 BYTE   W01
 BYTE   W04
 BYTE   W01
 BYTE   W04
 BYTE   W01
 BYTE   W01
// 065   ----------------------------------------
 BYTE   W03
 BYTE   W01
 BYTE   W04
 BYTE   W01
 BYTE   W04
 BYTE   W01
 BYTE   W04
 BYTE   W01
 BYTE   W04
 BYTE   W01
 BYTE   W04
 BYTE   W01
 BYTE   W04
 BYTE   W01
 BYTE   W04
 BYTE   W01
 BYTE   W04
 BYTE   W01
 BYTE   W04
 BYTE   W01
 BYTE   W04
 BYTE   W01
 BYTE   W04
 BYTE   W01
 BYTE   W04
 BYTE   W01
 BYTE   W04
 BYTE   W01
 BYTE   W04
 BYTE   W01
 BYTE   W04
 BYTE   W01
 BYTE   W04
 BYTE   W01
 BYTE   W04
 BYTE   W01
 BYTE   W04
 BYTE   W01
 BYTE   W02
// 066   ----------------------------------------
 BYTE   EOT
 BYTE   Gn4  v086
 BYTE   TIE  Dn4  v088
 BYTE   TIE  Gn4  v096
 BYTE   W01
 BYTE   W01
 BYTE   W01
 BYTE   W01
 BYTE   W01
 BYTE   W01
 BYTE   W01
 BYTE   W01
 BYTE   W01
 BYTE   W01
 BYTE   W01
 BYTE   W01
 BYTE   W01
 BYTE   W01
 BYTE   W01
 BYTE   W01
 BYTE   W01
 BYTE   W01
 BYTE   W01
 BYTE   W01
 BYTE   W01
 BYTE   W01
 BYTE   W01
 BYTE   W01
 BYTE   W72
// 067   ----------------------------------------
 BYTE   W05
 BYTE   W01
 BYTE   W05
 BYTE   W01
 BYTE   W05
 BYTE   W01
 BYTE   W05
 BYTE   W01
 BYTE   W05
 BYTE   W01
 BYTE   W05
 BYTE   W01
 BYTE   W05
 BYTE   W01
 BYTE   W05
 BYTE   W01
 BYTE   W05
 BYTE   W01
 BYTE   W05
 BYTE   W01
 BYTE   W05
 BYTE   W01
 BYTE   W05
 BYTE   W01
 BYTE   W05
 BYTE   W06
 BYTE   W06
 BYTE   W06
 BYTE   W01
// 068   ----------------------------------------
 BYTE   W04
 BYTE   W01
 BYTE   W05
 BYTE   W01
 BYTE   W05
 BYTE   W01
 BYTE   W05
 BYTE   W01
 BYTE   W05
 BYTE   W01
 BYTE   W05
 BYTE   W01
 BYTE   W05
 BYTE   W01
 BYTE   W05
 BYTE   W01
 BYTE   W05
 BYTE   W01
 BYTE   W05
 BYTE   W01
 BYTE   W05
 BYTE   W01
 BYTE   W05
 BYTE   W01
 BYTE   W05
 BYTE   W06
 BYTE   W06
 BYTE   W06
 BYTE   W02
// 069   ----------------------------------------
 BYTE   W03
 BYTE   W01
 BYTE   W05
 BYTE   W01
 BYTE   W05
 BYTE   W01
 BYTE   W05
 BYTE   W01
 BYTE   W05
 BYTE   W01
 BYTE   W05
 BYTE   W01
 BYTE   W05
 BYTE   W01
 BYTE   W05
 BYTE   W01
 BYTE   W05
 BYTE   W01
 BYTE   W05
 BYTE   W01
 BYTE   W05
 BYTE   W01
 BYTE   W05
 BYTE   W01
 BYTE   W05
 BYTE   W06
 BYTE   W06
 BYTE   W06
 BYTE   W03
// 070   ----------------------------------------
 BYTE   EOT
 BYTE   Dn4  v079
 BYTE   N12  Gn0  v112
 BYTE   N12  Gn1  v127
 BYTE   W36
 BYTE   Gn0  v112
 BYTE   N12  Gn1  v127
 BYTE   W36
 BYTE   Gn0  v112
 BYTE   N12  Gn1  v127
 BYTE   W24
// 071   ----------------------------------------
 BYTE   PATT
  POIN2 Label_0_01301BD5
// 072   ----------------------------------------
 BYTE   PATT
  POIN2 Label_0_01301644
// 073   ----------------------------------------
 BYTE   PATT
  POIN2 Label_0_01301658
// 074   ----------------------------------------
 BYTE   GoTo
  POIN2 Label_0_01301681
 BYTE   FINE

//**************** Track 2 (Midi-Chn.1) ****************//

OldKing_002:
// 000   ----------------------------------------
 BYTE   KEYSH   OldKing_key+0
 BYTE   VOICE   48
 BYTE   VOL   23*OldKing_mvl/mxv
 BYTE   PAN   c_v-4
 BYTE   W96
// 001   ----------------------------------------
 BYTE   W96
// 002   ----------------------------------------
 BYTE   TIE  Dn2  v100
 BYTE   TIE  Gn2  v112
 BYTE   W96
// 003   ----------------------------------------
 BYTE   W96
// 004   ----------------------------------------
 BYTE   EOT
 BYTE   Dn2  v055
Label_1_012AD669:
 BYTE   N96  Dn2  v100
 BYTE   N96  An2  v112
 BYTE   W96
 BYTE   PEND 
// 005   ----------------------------------------
Label_1_012AD671:
 BYTE   N96  Gn2  v100
 BYTE   N96  As2  v112
 BYTE   W96
 BYTE   PEND 
// 006   ----------------------------------------
Label_1_012AD679:
 BYTE   N36  Gn2  v100
 BYTE   N36  Ds3  v112
 BYTE   W36
 BYTE   N90  Gn2  v100
 BYTE   N90  As3  v112
 BYTE   W60
// 007   ----------------------------------------
 BYTE   W36
 BYTE   N36  Gn2
 BYTE   N36  Ds3  v100
 BYTE   N36  An3  v112
 BYTE   W36
 BYTE   N24  Gn2
 BYTE   N24  An3  v100
 BYTE   N24  Cn4  v112
 BYTE   W24
// 008   ----------------------------------------
 BYTE   TIE  Gn2
 BYTE   TIE  Gn3  v100
 BYTE   TIE  As3  v112
 BYTE   W96
// 009   ----------------------------------------
 BYTE   W84
 BYTE   EOT
 BYTE   Gn2  v067
 BYTE   As3
 BYTE   W12
// 010   ----------------------------------------
 BYTE   N96  Cn3  v100
 BYTE   N96  Gn3
 BYTE   W96
// 011   ----------------------------------------
 BYTE   Dn3
 BYTE   N96  Fn3
 BYTE   W96
// 012   ----------------------------------------
 BYTE   Ds3
 BYTE   N96  Gn3
 BYTE   W96
// 013   ----------------------------------------
 BYTE   Dn3
 BYTE   N96  Fs3
 BYTE   W96
// 014   ----------------------------------------
 BYTE   N36  Dn2  v120
 BYTE   W36
 BYTE   N90  As2
 BYTE   W60
// 015   ----------------------------------------
 BYTE   W36
 BYTE   N36  An2
 BYTE   W36
 BYTE   N24  Dn3
 BYTE   W24
// 016   ----------------------------------------
 BYTE   TIE  As2
 BYTE   W96
// 017   ----------------------------------------
 BYTE   W84
 BYTE   EOT
 BYTE   W12
// 018   ----------------------------------------
 BYTE   N36
 BYTE   W36
 BYTE   N90  Gn3
 BYTE   W60
// 019   ----------------------------------------
 BYTE   W36
 BYTE   N36  Fn3
 BYTE   W36
 BYTE   N24  An3
 BYTE   W24
// 020   ----------------------------------------
 BYTE   TIE  Gn3
 BYTE   W96
// 021   ----------------------------------------
 BYTE   W84
 BYTE   EOT
 BYTE   W12
// 022   ----------------------------------------
 BYTE   W96
// 023   ----------------------------------------
 BYTE   W96
// 024   ----------------------------------------
 BYTE   W96
// 025   ----------------------------------------
 BYTE   W96
// 026   ----------------------------------------
 BYTE   W96
// 027   ----------------------------------------
 BYTE   W96
// 028   ----------------------------------------
 BYTE   W96
// 029   ----------------------------------------
 BYTE   W96
// 030   ----------------------------------------
 BYTE   W96
// 031   ----------------------------------------
 BYTE   W96
// 032   ----------------------------------------
 BYTE   W96
// 033   ----------------------------------------
 BYTE   W96
// 034   ----------------------------------------
 BYTE   W96
// 035   ----------------------------------------
 BYTE   W96
// 036   ----------------------------------------
 BYTE   W96
// 037   ----------------------------------------
 BYTE   W96
// 038   ----------------------------------------
Label_1_012AD6F1:
 BYTE   TIE  Dn2  v112
 BYTE   N96  As2  v120
 BYTE   W96
 BYTE   PEND 
// 039   ----------------------------------------
 BYTE   An2
 BYTE   W96
// 040   ----------------------------------------
 BYTE   EOT
 BYTE   Dn2
Label_1_012AD6FD:
 BYTE   N96  Dn2  v112
 BYTE   TIE  Gn2  v120
 BYTE   W96
 BYTE   PEND 
// 041   ----------------------------------------
 BYTE   N96  Cn2  v112
 BYTE   W96
// 042   ----------------------------------------
 BYTE   EOT
 BYTE   Gn2
Label_1_012AD70B:
 BYTE   TIE  Cs3  v108
 BYTE   TIE  Gn3  v116
 BYTE   W96
 BYTE   PEND 
// 043   ----------------------------------------
 BYTE   W96
// 044   ----------------------------------------
 BYTE   EOT
 BYTE   Cs3  v067
 BYTE   N96  Dn3  v108
 BYTE   N96  Fs3  v116
 BYTE   W96
// 045   ----------------------------------------
 BYTE   Dn3  v108
 BYTE   N36  Fs3  v116
 BYTE   W36
 BYTE   Gn3
 BYTE   W36
 BYTE   N24  An3
 BYTE   W24
// 046   ----------------------------------------
 BYTE   PATT
  POIN2 Label_1_012AD6F1
// 047   ----------------------------------------
 BYTE   N96  An2  v120
 BYTE   W96
// 048   ----------------------------------------
 BYTE   EOT
 BYTE   Dn2
// 049   ----------------------------------------
 BYTE   PATT
  POIN2 Label_1_012AD6FD
// 050   ----------------------------------------
 BYTE   N96  Cn2  v112
 BYTE   W96
// 051   ----------------------------------------
 BYTE   EOT
 BYTE   Gn2
// 052   ----------------------------------------
 BYTE   PATT
  POIN2 Label_1_012AD70B
// 053   ----------------------------------------
 BYTE   W96
// 054   ----------------------------------------
 BYTE   EOT
 BYTE   Cs3  v067
 BYTE   TIE  Dn3  v108
 BYTE   TIE  Fs3  v116
 BYTE   W96
// 055   ----------------------------------------
 BYTE   W96
// 056   ----------------------------------------
 BYTE   EOT
 BYTE   Dn3  v066
 BYTE   W96
// 057   ----------------------------------------
 BYTE   W96
// 058   ----------------------------------------
 BYTE   W96
// 059   ----------------------------------------
 BYTE   W96
// 060   ----------------------------------------
 BYTE   TIE  Gn2  v120
 BYTE   W96
// 061   ----------------------------------------
 BYTE   Dn3  v127
 BYTE   W48
 BYTE   N48  Gn3
 BYTE   W48
// 062   ----------------------------------------
 BYTE   N96  An3
 BYTE   W96
// 063   ----------------------------------------
 BYTE   EOT
 BYTE   Dn3
 BYTE   N96  Gn3
 BYTE   N96  As3
 BYTE   W96
// 064   ----------------------------------------
 BYTE   EOT
 BYTE   Gn2
 BYTE   TIE  As2  v096
 BYTE   TIE  Gn3
 BYTE   W48
 BYTE   W05
 BYTE   W01
 BYTE   W05
 BYTE   W01
 BYTE   W05
 BYTE   W05
 BYTE   W01
 BYTE   W05
 BYTE   W01
 BYTE   W05
 BYTE   W01
 BYTE   W05
 BYTE   W05
 BYTE   W01
 BYTE   W02
// 065   ----------------------------------------
 BYTE   W03
 BYTE   W01
 BYTE   W05
 BYTE   W01
 BYTE   W05
 BYTE   W05
 BYTE   W01
 BYTE   W05
 BYTE   W01
 BYTE   W05
 BYTE   W01
 BYTE   W05
 BYTE   W05
 BYTE   W01
 BYTE   W05
 BYTE   W01
 BYTE   W05
 BYTE   W01
 BYTE   W05
 BYTE   W05
 BYTE   W01
 BYTE   W05
 BYTE   W01
 BYTE   W05
 BYTE   W01
 BYTE   W05
 BYTE   W05
 BYTE   W01
 BYTE   W05
 BYTE   W01
// 066   ----------------------------------------
 BYTE   W05
 BYTE   W01
 BYTE   W05
 BYTE   W05
 BYTE   W01
 BYTE   W05
 BYTE   W01
 BYTE   W05
 BYTE   W01
 BYTE   W05
 BYTE   W05
 BYTE   W01
 BYTE   W05
 BYTE   W01
 BYTE   W05
 BYTE   W01
 BYTE   W05
 BYTE   W05
 BYTE   W01
 BYTE   W05
 BYTE   W01
 BYTE   W05
 BYTE   W01
 BYTE   W05
 BYTE   W05
 BYTE   W01
 BYTE   W05
 BYTE   W01
 BYTE   W04
// 067   ----------------------------------------
 BYTE   W01
 BYTE   W05
 BYTE   W01
 BYTE   W05
 BYTE   W01
 BYTE   W05
 BYTE   W01
 BYTE   W05
 BYTE   W05
 BYTE   W01
 BYTE   W05
 BYTE   W01
 BYTE   W05
 BYTE   W01
 BYTE   W05
 BYTE   W05
 BYTE   W01
 BYTE   W05
 BYTE   W01
 BYTE   W05
 BYTE   W01
 BYTE   W05
 BYTE   W05
 BYTE   W01
 BYTE   W05
 BYTE   W01
 BYTE   W05
 BYTE   W01
 BYTE   W05
 BYTE   W03
// 068   ----------------------------------------
 BYTE   EOT
 BYTE   As2  v067
 BYTE   TIE  Gn2  v108
 BYTE   W96
// 069   ----------------------------------------
 BYTE   W96
// 070   ----------------------------------------
 BYTE   Dn3  v116
 BYTE   W02
 BYTE   W02
 BYTE   W03
 BYTE   W02
 BYTE   W03
 BYTE   W02
 BYTE   W03
 BYTE   W02
 BYTE   W03
 BYTE   W02
 BYTE   W03
 BYTE   W02
 BYTE   W03
 BYTE   W02
 BYTE   W03
 BYTE   W02
 BYTE   W03
 BYTE   W02
 BYTE   W03
 BYTE   W02
 BYTE   W03
 BYTE   W02
 BYTE   W03
 BYTE   W02
 BYTE   W03
 BYTE   W02
 BYTE   W03
 BYTE   W02
 BYTE   W03
 BYTE   W02
 BYTE   W03
 BYTE   W02
 BYTE   W03
 BYTE   W02
 BYTE   W03
 BYTE   W02
 BYTE   W03
 BYTE   W02
 BYTE   W02
// 071   ----------------------------------------
 BYTE   N72  An3
 BYTE   W01
 BYTE   W02
 BYTE   W03
 BYTE   W02
 BYTE   W03
 BYTE   W02
 BYTE   W03
 BYTE   W02
 BYTE   W03
 BYTE   W02
 BYTE   W03
 BYTE   W02
 BYTE   W03
 BYTE   W02
 BYTE   W03
 BYTE   W02
 BYTE   W03
 BYTE   W02
 BYTE   W03
 BYTE   W02
 BYTE   W03
 BYTE   W02
 BYTE   W03
 BYTE   W02
 BYTE   W03
 BYTE   W02
 BYTE   W03
 BYTE   W02
 BYTE   W03
 BYTE   W01
 BYTE   N24  As3  v120
 BYTE   W01
 BYTE   W03
 BYTE   W02
 BYTE   W03
 BYTE   W02
 BYTE   W03
 BYTE   W02
 BYTE   W03
 BYTE   W02
 BYTE   W03
// 072   ----------------------------------------
 BYTE   EOT
 BYTE   Gn2  v062
 BYTE   TIE  Dn3  v108
 BYTE   TIE  As3  v120
 BYTE   W24
 BYTE   W01
 BYTE   W01
 BYTE   W01
 BYTE   W01
 BYTE   W01
 BYTE   W01
 BYTE   W01
 BYTE   W02
 BYTE   W01
 BYTE   W01
 BYTE   W01
 BYTE   W02
 BYTE   W01
 BYTE   W01
 BYTE   W01
 BYTE   W01
 BYTE   W01
 BYTE   W01
 BYTE   W01
 BYTE   W02
 BYTE   W01
 BYTE   W01
 BYTE   W01
 BYTE   W02
 BYTE   W01
 BYTE   W01
 BYTE   W01
 BYTE   W02
 BYTE   W01
 BYTE   W01
 BYTE   W01
 BYTE   W01
 BYTE   W01
 BYTE   W01
 BYTE   W01
 BYTE   W02
 BYTE   W01
 BYTE   W01
 BYTE   W01
 BYTE   W02
 BYTE   W01
 BYTE   W01
 BYTE   W01
 BYTE   W01
 BYTE   W01
 BYTE   W01
 BYTE   W01
 BYTE   W02
 BYTE   W01
 BYTE   W01
 BYTE   W01
 BYTE   W02
 BYTE   W01
 BYTE   W01
 BYTE   W01
 BYTE   W02
 BYTE   W01
 BYTE   W01
 BYTE   W01
 BYTE   W01
 BYTE   W01
 BYTE   W01
// 073   ----------------------------------------
 BYTE   W01
 BYTE   W02
 BYTE   W01
 BYTE   W01
 BYTE   W01
 BYTE   W02
 BYTE   W01
 BYTE   W01
 BYTE   W01
 BYTE   W02
 BYTE   W01
 BYTE   W01
 BYTE   W01
 BYTE   W01
 BYTE   W01
 BYTE   W01
 BYTE   W01
 BYTE   W02
 BYTE   W01
 BYTE   W01
 BYTE   W01
 BYTE   W02
 BYTE   W01
 BYTE   W01
 BYTE   W01
 BYTE   W01
 BYTE   W01
 BYTE   W01
 BYTE   W01
 BYTE   W02
 BYTE   W01
 BYTE   W01
 BYTE   W01
 BYTE   W02
 BYTE   W01
 BYTE   W01
 BYTE   W01
 BYTE   W02
 BYTE   W01
 BYTE   W01
 BYTE   EOT
 BYTE   Dn3  v070
 BYTE   W44
 BYTE   W03
 BYTE   W01
// 074   ----------------------------------------
 BYTE   PATT
  POIN2 Label_1_012AD669
// 075   ----------------------------------------
 BYTE   PATT
  POIN2 Label_1_012AD671
// 076   ----------------------------------------
 BYTE   GoTo
  POIN2 Label_1_012AD679
 BYTE   FINE

//**************** Track 3 (Midi-Chn.2) ****************//

OldKing_003:
// 000   ----------------------------------------
 BYTE   KEYSH   OldKing_key+0
 BYTE   VOICE   60
 BYTE   VOL   35*OldKing_mvl/mxv
 BYTE   PAN   c_v+6
 BYTE   W96
// 001   ----------------------------------------
 BYTE   W96
// 002   ----------------------------------------
Label_2_012ADE02:
 BYTE   N36  Gn1  v120
 BYTE   W36
 BYTE   N90  Dn2
 BYTE   W60
 BYTE   PEND 
// 003   ----------------------------------------
Label_2_012ADE0A:
 BYTE   W36
 BYTE   N36  Cn2  v120
 BYTE   W36
 BYTE   N24  Fn2
 BYTE   W24
 BYTE   PEND 
// 004   ----------------------------------------
 BYTE   TIE  Dn2
 BYTE   W96
// 005   ----------------------------------------
 BYTE   W84
 BYTE   EOT
 BYTE   W12
// 006   ----------------------------------------
Label_2_012ADE19:
 BYTE   N36  Ds2  v120
 BYTE   W36
 BYTE   N90  As2
 BYTE   W60
 BYTE   PEND 
// 007   ----------------------------------------
Label_2_012ADE21:
 BYTE   W36
 BYTE   N36  An2  v120
 BYTE   W36
 BYTE   N24  Cn3
 BYTE   W24
 BYTE   PEND 
// 008   ----------------------------------------
 BYTE   TIE  As2
 BYTE   W96
// 009   ----------------------------------------
 BYTE   W84
 BYTE   EOT
 BYTE   W12
// 010   ----------------------------------------
 BYTE   N36  Ds2
 BYTE   W36
 BYTE   N12  Dn2
 BYTE   W12
 BYTE   N18  Cn2
 BYTE   W18
 BYTE   Dn2
 BYTE   W18
 BYTE   N12  Ds2
 BYTE   W12
// 011   ----------------------------------------
 BYTE   N36  Fn2
 BYTE   W36
 BYTE   N12  Ds2
 BYTE   W12
 BYTE   N18  Dn2
 BYTE   W18
 BYTE   Ds2
 BYTE   W18
 BYTE   N12  Fn2
 BYTE   W12
// 012   ----------------------------------------
 BYTE   N60  Gn2
 BYTE   W72
 BYTE   N24
 BYTE   W24
// 013   ----------------------------------------
 BYTE   N36  Fs2
 BYTE   W36
 BYTE   N48  An2
 BYTE   W60
// 014   ----------------------------------------
 BYTE   PATT
  POIN2 Label_2_012ADE02
// 015   ----------------------------------------
 BYTE   PATT
  POIN2 Label_2_012ADE0A
// 016   ----------------------------------------
 BYTE   TIE  Dn2  v120
 BYTE   W96
// 017   ----------------------------------------
 BYTE   W84
 BYTE   EOT
 BYTE   W12
// 018   ----------------------------------------
 BYTE   PATT
  POIN2 Label_2_012ADE19
// 019   ----------------------------------------
 BYTE   PATT
  POIN2 Label_2_012ADE21
// 020   ----------------------------------------
 BYTE   TIE  As2  v120
 BYTE   W96
// 021   ----------------------------------------
 BYTE   W84
 BYTE   EOT
 BYTE   W12
// 022   ----------------------------------------
 BYTE   N96  Ds2  v108
 BYTE   N96  Gn2
 BYTE   W96
// 023   ----------------------------------------
 BYTE   Fn2
 BYTE   N96  An2
 BYTE   W96
// 024   ----------------------------------------
 BYTE   Gn2
 BYTE   N96  As2
 BYTE   W96
// 025   ----------------------------------------
 BYTE   N36  Dn2  v096
 BYTE   N36  Fs2  v116
 BYTE   W36
 BYTE   An1  v127
 BYTE   N36  En2  v100
 BYTE   N36  Gn2  v120
 BYTE   W36
 BYTE   N21  Dn2  v127
 BYTE   N21  Fs2  v100
 BYTE   N21  An2  v120
 BYTE   W24
// 026   ----------------------------------------
 BYTE   TIE  Gn1  v127
 BYTE   W96
// 027   ----------------------------------------
 BYTE   N96  Dn2  v120
 BYTE   W96
// 028   ----------------------------------------
 BYTE   TIE  Ds2  v127
 BYTE   W96
// 029   ----------------------------------------
 BYTE   N96  An2
 BYTE   W96
// 030   ----------------------------------------
 BYTE   EOT
 BYTE   Gn1  v051
 BYTE   W96
// 031   ----------------------------------------
 BYTE   W96
// 032   ----------------------------------------
 BYTE   W96
// 033   ----------------------------------------
 BYTE   W96
// 034   ----------------------------------------
 BYTE   W96
// 035   ----------------------------------------
 BYTE   W96
// 036   ----------------------------------------
 BYTE   W96
// 037   ----------------------------------------
 BYTE   W96
// 038   ----------------------------------------
 BYTE   W96
// 039   ----------------------------------------
 BYTE   W96
// 040   ----------------------------------------
 BYTE   W96
// 041   ----------------------------------------
 BYTE   W96
// 042   ----------------------------------------
 BYTE   W96
// 043   ----------------------------------------
 BYTE   W96
// 044   ----------------------------------------
 BYTE   W96
// 045   ----------------------------------------
 BYTE   W96
// 046   ----------------------------------------
 BYTE   N96  Dn2
 BYTE   W96
// 047   ----------------------------------------
 BYTE   N72  An2
 BYTE   W72
 BYTE   N24  As2
 BYTE   W24
// 048   ----------------------------------------
 BYTE   N30  Gn2
 BYTE   W36
 BYTE   N36  Dn2  v116
 BYTE   N36  Fs2  v127
 BYTE   W36
 BYTE   N24  Dn2  v116
 BYTE   N24  Gn2  v127
 BYTE   W24
// 049   ----------------------------------------
 BYTE   N36  Ds2  v116
 BYTE   N36  An2  v127
 BYTE   W36
 BYTE   Ds2  v116
 BYTE   N36  As2  v127
 BYTE   W36
 BYTE   N21  Gn2  v116
 BYTE   N21  Cn3  v127
 BYTE   W24
// 050   ----------------------------------------
 BYTE   N32  Cs3  v108
 BYTE   N32  Gn3  v127
 BYTE   W48
 BYTE   N48  Cs2  v108
 BYTE   N48  Gn2  v127
 BYTE   W48
// 051   ----------------------------------------
 BYTE   Cs2  v108
 BYTE   N48  An2  v127
 BYTE   W48
 BYTE   Cs2  v108
 BYTE   N48  As2  v127
 BYTE   W48
// 052   ----------------------------------------
 BYTE   N96  Fs2  v108
 BYTE   N96  Cn3  v127
 BYTE   W96
// 053   ----------------------------------------
 BYTE   Fs2  v108
 BYTE   N96  An2  v127
 BYTE   W96
// 054   ----------------------------------------
 BYTE   TIE  Gn1
 BYTE   TIE  Gn2  v120
 BYTE   W96
// 055   ----------------------------------------
 BYTE   N96  Dn2
 BYTE   W96
// 056   ----------------------------------------
 BYTE   TIE  Ds2  v127
 BYTE   W96
// 057   ----------------------------------------
 BYTE   EOT
 BYTE   Gn2
 BYTE   N96  An2
 BYTE   W96
// 058   ----------------------------------------
 BYTE   EOT
 BYTE   Gn1  v051
 BYTE   TIE  Gn1
 BYTE   TIE  As2
 BYTE   W96
// 059   ----------------------------------------
 BYTE   W96
// 060   ----------------------------------------
 BYTE   W96
// 061   ----------------------------------------
 BYTE   W96
// 062   ----------------------------------------
 BYTE   EOT
 BYTE   Gn1  v058
 BYTE   W96
// 063   ----------------------------------------
 BYTE   W96
// 064   ----------------------------------------
 BYTE   W96
// 065   ----------------------------------------
 BYTE   W96
// 066   ----------------------------------------
 BYTE   TIE  Gn1  v108
 BYTE   W96
// 067   ----------------------------------------
 BYTE   W96
// 068   ----------------------------------------
 BYTE   Dn2
 BYTE   W96
// 069   ----------------------------------------
 BYTE   N72  An2
 BYTE   W72
 BYTE   N24  As2  v100
 BYTE   W24
// 070   ----------------------------------------
 BYTE   EOT
 BYTE   Gn1  v050
 BYTE   N36  Gn1  v127
 BYTE   N96  As2  v096
 BYTE   W36
 BYTE   N90  Dn2  v127
 BYTE   W60
// 071   ----------------------------------------
 BYTE   PATT
  POIN2 Label_2_012ADE0A
// 072   ----------------------------------------
 BYTE   TIE  Dn2  v120
 BYTE   W96
// 073   ----------------------------------------
 BYTE   W84
 BYTE   EOT
 BYTE   W12
// 074   ----------------------------------------
 BYTE   GoTo
  POIN2 Label_2_012ADE19
 BYTE   FINE

//**************** Track 4 (Midi-Chn.3) ****************//

OldKing_004:
// 000   ----------------------------------------
 BYTE   KEYSH   OldKing_key+0
 BYTE   VOICE   60
 BYTE   VOL   24*OldKing_mvl/mxv
 BYTE   PAN   c_v+0
 BYTE   W96
// 001   ----------------------------------------
 BYTE   W96
// 002   ----------------------------------------
 BYTE   W96
// 003   ----------------------------------------
 BYTE   W96
// 004   ----------------------------------------
 BYTE   W96
// 005   ----------------------------------------
 BYTE   W96
// 006   ----------------------------------------
Label_3_012AE19A:
 BYTE   W96
// 007   ----------------------------------------
 BYTE   W96
// 008   ----------------------------------------
 BYTE   W96
// 009   ----------------------------------------
 BYTE   W96
// 010   ----------------------------------------
 BYTE   W96
// 011   ----------------------------------------
 BYTE   W96
// 012   ----------------------------------------
 BYTE   W96
// 013   ----------------------------------------
 BYTE   W96
// 014   ----------------------------------------
 BYTE   W96
// 015   ----------------------------------------
 BYTE   W96
// 016   ----------------------------------------
 BYTE   W96
// 017   ----------------------------------------
 BYTE   W96
// 018   ----------------------------------------
 BYTE   W96
// 019   ----------------------------------------
 BYTE   W96
// 020   ----------------------------------------
 BYTE   W96
// 021   ----------------------------------------
 BYTE   W96
// 022   ----------------------------------------
 BYTE   W96
// 023   ----------------------------------------
 BYTE   W96
// 024   ----------------------------------------
 BYTE   W96
// 025   ----------------------------------------
 BYTE   W96
// 026   ----------------------------------------
 BYTE   W96
// 027   ----------------------------------------
 BYTE   W96
// 028   ----------------------------------------
 BYTE   W96
// 029   ----------------------------------------
 BYTE   W96
// 030   ----------------------------------------
Label_3_012AE1B2:
 BYTE   TIE  As2  v112
 BYTE   TIE  Gn3
 BYTE   W96
 BYTE   PEND 
// 031   ----------------------------------------
 BYTE   W96
// 032   ----------------------------------------
 BYTE   EOT
 BYTE   As2  v067
 BYTE   TIE  An2
 BYTE   TIE  Fn3
 BYTE   W96
// 033   ----------------------------------------
 BYTE   W96
// 034   ----------------------------------------
 BYTE   EOT
 BYTE   An2  v065
// 035   ----------------------------------------
 BYTE   PATT
  POIN2 Label_3_012AE1B2
// 036   ----------------------------------------
 BYTE   W96
// 037   ----------------------------------------
 BYTE   EOT
 BYTE   As2  v067
 BYTE   TIE  An2  v112
 BYTE   TIE  Fs3
 BYTE   W96
// 038   ----------------------------------------
 BYTE   W96
// 039   ----------------------------------------
 BYTE   EOT
 BYTE   An2  v066
 BYTE   TIE  Dn2  v120
 BYTE   N96  As2  v127
 BYTE   W96
// 040   ----------------------------------------
 BYTE   An2
 BYTE   W96
// 041   ----------------------------------------
 BYTE   EOT
 BYTE   Dn2
 BYTE   N96  Dn2  v120
 BYTE   TIE  Gn2  v127
 BYTE   W96
// 042   ----------------------------------------
 BYTE   N96  Cn2  v120
 BYTE   W96
// 043   ----------------------------------------
 BYTE   EOT
 BYTE   Gn2
 BYTE   W96
// 044   ----------------------------------------
 BYTE   W96
// 045   ----------------------------------------
 BYTE   W96
// 046   ----------------------------------------
 BYTE   W96
// 047   ----------------------------------------
 BYTE   W96
// 048   ----------------------------------------
 BYTE   W96
// 049   ----------------------------------------
 BYTE   W96
// 050   ----------------------------------------
 BYTE   W96
// 051   ----------------------------------------
 BYTE   W96
// 052   ----------------------------------------
 BYTE   W96
// 053   ----------------------------------------
 BYTE   W96
// 054   ----------------------------------------
 BYTE   W96
// 055   ----------------------------------------
 BYTE   W96
// 056   ----------------------------------------
 BYTE   W96
// 057   ----------------------------------------
 BYTE   W96
// 058   ----------------------------------------
 BYTE   W96
// 059   ----------------------------------------
 BYTE   W96
// 060   ----------------------------------------
 BYTE   W96
// 061   ----------------------------------------
 BYTE   W96
// 062   ----------------------------------------
 BYTE   W96
// 063   ----------------------------------------
 BYTE   W96
// 064   ----------------------------------------
 BYTE   W96
// 065   ----------------------------------------
 BYTE   W96
// 066   ----------------------------------------
 BYTE   W96
// 067   ----------------------------------------
 BYTE   W96
// 068   ----------------------------------------
 BYTE   W96
// 069   ----------------------------------------
 BYTE   W96
// 070   ----------------------------------------
 BYTE   W96
// 071   ----------------------------------------
 BYTE   W96
// 072   ----------------------------------------
 BYTE   W96
// 073   ----------------------------------------
 BYTE   W96
// 074   ----------------------------------------
 BYTE   W96
// 075   ----------------------------------------
 BYTE   GoTo
  POIN2 Label_3_012AE19A
 BYTE   FINE

//**************** Track 5 (Midi-Chn.4) ****************//

OldKing_005:
// 000   ----------------------------------------
 BYTE   KEYSH   OldKing_key+0
 BYTE   VOICE   48
 BYTE   VOL   22*OldKing_mvl/mxv
 BYTE   PAN   c_v-10
 BYTE   W96
// 001   ----------------------------------------
 BYTE   W96
// 002   ----------------------------------------
 BYTE   W96
// 003   ----------------------------------------
 BYTE   W96
// 004   ----------------------------------------
 BYTE   W96
// 005   ----------------------------------------
 BYTE   W96
// 006   ----------------------------------------
Label_4_012AE58A:
 BYTE   W96
// 007   ----------------------------------------
 BYTE   W96
// 008   ----------------------------------------
 BYTE   W96
// 009   ----------------------------------------
 BYTE   W96
// 010   ----------------------------------------
 BYTE   W96
// 011   ----------------------------------------
 BYTE   W96
// 012   ----------------------------------------
 BYTE   W96
// 013   ----------------------------------------
 BYTE   W72
 BYTE   N04  Cn4  v108
 BYTE   N04  En4  v127
 BYTE   W04
 BYTE   Dn4  v108
 BYTE   N04  Fs4  v127
 BYTE   W04
 BYTE   En4  v108
 BYTE   N04  Gn4  v127
 BYTE   W04
 BYTE   Fs4  v108
 BYTE   N04  An4  v127
 BYTE   W04
 BYTE   Gn4  v108
 BYTE   N04  As4  v127
 BYTE   W04
 BYTE   An4  v108
 BYTE   N04  Cn5  v127
 BYTE   W04
// 014   ----------------------------------------
Label_4_012AE5B7:
 BYTE   N06  As4  v116
 BYTE   N06  Dn5  v127
 BYTE   W12
 BYTE   Dn4  v108
 BYTE   N06  Gn4  v127
 BYTE   W12
 BYTE   Dn4  v108
 BYTE   N06  Gn4  v127
 BYTE   W12
 BYTE   As4  v116
 BYTE   N06  Dn5  v127
 BYTE   W12
 BYTE   Dn4  v108
 BYTE   N06  Gn4  v127
 BYTE   W12
 BYTE   Dn4  v108
 BYTE   N06  Gn4  v127
 BYTE   W12
 BYTE   As4  v116
 BYTE   N06  Dn5  v127
 BYTE   W12
 BYTE   Dn4  v116
 BYTE   N06  Gn4  v127
 BYTE   W12
 BYTE   PEND 
// 015   ----------------------------------------
 BYTE   As4  v116
 BYTE   N06  Dn5  v127
 BYTE   W12
 BYTE   Dn4  v108
 BYTE   N06  Gn4  v127
 BYTE   W12
 BYTE   Dn4  v108
 BYTE   N06  Gn4  v127
 BYTE   W12
 BYTE   As4  v116
 BYTE   N06  Dn5  v127
 BYTE   W12
 BYTE   Dn4  v108
 BYTE   N06  Gn4  v127
 BYTE   W12
 BYTE   Dn4  v108
 BYTE   N06  Gn4  v127
 BYTE   W12
 BYTE   As4  v116
 BYTE   N06  Dn5  v127
 BYTE   W12
 BYTE   Cn5  v116
 BYTE   N06  Ds5  v127
 BYTE   W12
// 016   ----------------------------------------
 BYTE   PATT
  POIN2 Label_4_012AE5B7
// 017   ----------------------------------------
 BYTE   N06  As4  v116
 BYTE   N06  Dn5  v127
 BYTE   W12
 BYTE   Cn5  v108
 BYTE   N06  Ds5  v127
 BYTE   W12
 BYTE   Dn5  v108
 BYTE   N06  Fn5  v127
 BYTE   W12
 BYTE   Ds5  v116
 BYTE   N06  Gn5  v127
 BYTE   W12
 BYTE   Dn5  v108
 BYTE   N06  Fn5  v127
 BYTE   W12
 BYTE   Cn5  v108
 BYTE   N06  Ds5  v127
 BYTE   W12
 BYTE   As4  v116
 BYTE   N06  Dn5  v127
 BYTE   W12
 BYTE   An4  v116
 BYTE   N06  Cn5  v127
 BYTE   W12
// 018   ----------------------------------------
Label_4_012AE64F:
 BYTE   N06  Gn4  v116
 BYTE   N06  As4  v127
 BYTE   W12
 BYTE   Dn4  v108
 BYTE   N06  Gn4  v127
 BYTE   W12
 BYTE   Dn4  v108
 BYTE   N06  Gn4  v127
 BYTE   W12
 BYTE   Gn4  v116
 BYTE   N06  As4  v127
 BYTE   W12
 BYTE   Dn4  v108
 BYTE   N06  Gn4  v127
 BYTE   W12
 BYTE   Dn4  v108
 BYTE   N06  Gn4  v127
 BYTE   W12
 BYTE   Gn4  v116
 BYTE   N06  As4  v127
 BYTE   W12
 BYTE   Dn4  v108
 BYTE   N06  Gn4  v127
 BYTE   W12
 BYTE   PEND 
// 019   ----------------------------------------
 BYTE   Gn4  v116
 BYTE   N06  As4  v127
 BYTE   W12
 BYTE   Dn4  v108
 BYTE   N06  Gn4  v127
 BYTE   W12
 BYTE   Dn4  v108
 BYTE   N06  Gn4  v127
 BYTE   W12
 BYTE   Gn4  v116
 BYTE   N06  As4  v127
 BYTE   W12
 BYTE   Dn4  v108
 BYTE   N06  Gn4  v127
 BYTE   W12
 BYTE   Dn4  v108
 BYTE   N06  Gn4  v127
 BYTE   W12
 BYTE   Gn4  v116
 BYTE   N06  As4  v127
 BYTE   W12
 BYTE   An4  v108
 BYTE   N06  Cn5  v127
 BYTE   W12
// 020   ----------------------------------------
 BYTE   PATT
  POIN2 Label_4_012AE64F
// 021   ----------------------------------------
 BYTE   N06  Gn4  v116
 BYTE   N06  As4  v127
 BYTE   W12
 BYTE   An4  v108
 BYTE   N06  Cn5  v127
 BYTE   W12
 BYTE   As4  v108
 BYTE   N06  Dn5  v127
 BYTE   W12
 BYTE   Cn5  v116
 BYTE   N06  Ds5  v127
 BYTE   W12
 BYTE   As4  v108
 BYTE   N06  Dn5  v127
 BYTE   W12
 BYTE   An4  v108
 BYTE   N06  Cn5  v127
 BYTE   W12
 BYTE   Gn4  v116
 BYTE   N06  As4  v127
 BYTE   W12
 BYTE   Fn4  v116
 BYTE   N06  An4  v127
 BYTE   W12
// 022   ----------------------------------------
 BYTE   W96
// 023   ----------------------------------------
 BYTE   W96
// 024   ----------------------------------------
 BYTE   W96
// 025   ----------------------------------------
 BYTE   W96
// 026   ----------------------------------------
Label_4_012AE6EB:
 BYTE   N09  Dn3  v127
 BYTE   N09  Gn3
 BYTE   W12
 BYTE   Gn2
 BYTE   N09  Dn3
 BYTE   W12
 BYTE   Gn2  v120
 BYTE   N09  Dn3
 BYTE   W12
 BYTE   Dn3  v127
 BYTE   N09  Gn3
 BYTE   W12
 BYTE   Gn2  v120
 BYTE   N09  Dn3
 BYTE   W12
 BYTE   Gn2
 BYTE   N09  Dn3
 BYTE   W12
 BYTE   Dn3  v127
 BYTE   N09  Gn3
 BYTE   W12
 BYTE   Gn2
 BYTE   N09  Dn3
 BYTE   W12
 BYTE   PEND 
// 027   ----------------------------------------
Label_4_012AE712:
 BYTE   N09  Dn3  v127
 BYTE   N09  Gn3
 BYTE   N09  An3
 BYTE   W12
 BYTE   Gn2
 BYTE   N09  Dn3
 BYTE   W12
 BYTE   Gn2  v120
 BYTE   N09  Dn3
 BYTE   W12
 BYTE   Dn3  v127
 BYTE   N09  Gn3
 BYTE   N09  An3
 BYTE   W12
 BYTE   Gn2  v120
 BYTE   N09  Dn3
 BYTE   W12
 BYTE   Gn2
 BYTE   N09  Dn3
 BYTE   W12
 BYTE   Dn3  v127
 BYTE   N09  Gn3
 BYTE   N09  An3
 BYTE   W12
 BYTE   Gn2
 BYTE   N09  Dn3
 BYTE   W12
 BYTE   PEND 
// 028   ----------------------------------------
Label_4_012AE73F:
 BYTE   N09  Dn3  v127
 BYTE   N09  Gn3
 BYTE   N09  An3
 BYTE   N09  Dn4
 BYTE   W12
 BYTE   Gn2
 BYTE   N09  Dn3
 BYTE   W12
 BYTE   Gn2
 BYTE   N09  Dn3
 BYTE   W12
 BYTE   N09
 BYTE   N09  Gn3
 BYTE   N09  An3
 BYTE   N09  Dn4
 BYTE   W12
 BYTE   Gn2
 BYTE   N09  Dn3
 BYTE   W12
 BYTE   Gn2
 BYTE   N09  Dn3
 BYTE   W12
 BYTE   N09
 BYTE   N09  Gn3
 BYTE   N09  An3
 BYTE   N09  Dn4
 BYTE   W12
 BYTE   Gn2
 BYTE   N09  Dn3
 BYTE   W12
 BYTE   PEND 
// 029   ----------------------------------------
Label_4_012AE76E:
 BYTE   N09  Dn3  v127
 BYTE   N09  Gn3
 BYTE   N09  An3
 BYTE   N09  Cn4
 BYTE   W12
 BYTE   Gn2
 BYTE   N09  Dn3
 BYTE   W12
 BYTE   Gn2
 BYTE   N09  Dn3
 BYTE   W12
 BYTE   N09
 BYTE   N09  Gn3
 BYTE   N09  An3
 BYTE   N09  Cn4
 BYTE   W12
 BYTE   Gn2
 BYTE   N09  Dn3
 BYTE   W12
 BYTE   Gn2
 BYTE   N09  Dn3
 BYTE   W12
 BYTE   N09
 BYTE   N09  Gn3
 BYTE   N09  An3
 BYTE   N09  Cn4
 BYTE   W12
 BYTE   Gn2
 BYTE   N09  Dn3
 BYTE   W12
 BYTE   PEND 
// 030   ----------------------------------------
 BYTE   W96
// 031   ----------------------------------------
 BYTE   W96
// 032   ----------------------------------------
 BYTE   W96
// 033   ----------------------------------------
 BYTE   W96
// 034   ----------------------------------------
 BYTE   W96
// 035   ----------------------------------------
 BYTE   W96
// 036   ----------------------------------------
 BYTE   W96
// 037   ----------------------------------------
 BYTE   W96
// 038   ----------------------------------------
 BYTE   W96
// 039   ----------------------------------------
 BYTE   W96
// 040   ----------------------------------------
 BYTE   W96
// 041   ----------------------------------------
 BYTE   W96
// 042   ----------------------------------------
 BYTE   W96
// 043   ----------------------------------------
 BYTE   W96
// 044   ----------------------------------------
 BYTE   W96
// 045   ----------------------------------------
 BYTE   W96
// 046   ----------------------------------------
 BYTE   W96
// 047   ----------------------------------------
 BYTE   W96
// 048   ----------------------------------------
 BYTE   W96
// 049   ----------------------------------------
 BYTE   W96
// 050   ----------------------------------------
 BYTE   W96
// 051   ----------------------------------------
 BYTE   W96
// 052   ----------------------------------------
 BYTE   W96
// 053   ----------------------------------------
 BYTE   W96
// 054   ----------------------------------------
 BYTE   PATT
  POIN2 Label_4_012AE6EB
// 055   ----------------------------------------
 BYTE   PATT
  POIN2 Label_4_012AE712
// 056   ----------------------------------------
 BYTE   PATT
  POIN2 Label_4_012AE73F
// 057   ----------------------------------------
 BYTE   PATT
  POIN2 Label_4_012AE76E
// 058   ----------------------------------------
 BYTE   PATT
  POIN2 Label_4_012AE73F
// 059   ----------------------------------------
 BYTE   PATT
  POIN2 Label_4_012AE73F
// 060   ----------------------------------------
 BYTE   PATT
  POIN2 Label_4_012AE73F
// 061   ----------------------------------------
 BYTE   PATT
  POIN2 Label_4_012AE73F
// 062   ----------------------------------------
 BYTE   W96
// 063   ----------------------------------------
 BYTE   W96
// 064   ----------------------------------------
 BYTE   W96
// 065   ----------------------------------------
 BYTE   W96
// 066   ----------------------------------------
 BYTE   W96
// 067   ----------------------------------------
 BYTE   W96
// 068   ----------------------------------------
 BYTE   W96
// 069   ----------------------------------------
 BYTE   W96
// 070   ----------------------------------------
 BYTE   W96
// 071   ----------------------------------------
 BYTE   W96
// 072   ----------------------------------------
 BYTE   W96
// 073   ----------------------------------------
 BYTE   W96
// 074   ----------------------------------------
 BYTE   GoTo
  POIN2 Label_4_012AE58A
 BYTE   FINE

//**************** Track 6 (Midi-Chn.5) ****************//

OldKing_006:
// 000   ----------------------------------------
 BYTE   KEYSH   OldKing_key+0
Label_5_012AD9D2:
 BYTE   VOICE   68
 BYTE   VOL   22*OldKing_mvl/mxv
 BYTE   PAN   c_v-4
 BYTE   W96
 BYTE   PEND 
// 001   ----------------------------------------
 BYTE   W96
// 002   ----------------------------------------
 BYTE   W96
// 003   ----------------------------------------
 BYTE   W96
// 004   ----------------------------------------
 BYTE   W96
// 005   ----------------------------------------
 BYTE   W96
// 006   ----------------------------------------
Label_5_012AD9DF:
 BYTE   W96
// 007   ----------------------------------------
 BYTE   W96
// 008   ----------------------------------------
 BYTE   W96
// 009   ----------------------------------------
 BYTE   W96
// 010   ----------------------------------------
 BYTE   W96
// 011   ----------------------------------------
 BYTE   W96
// 012   ----------------------------------------
 BYTE   W96
// 013   ----------------------------------------
 BYTE   W96
// 014   ----------------------------------------
 BYTE   W96
// 015   ----------------------------------------
 BYTE   W96
// 016   ----------------------------------------
Label_5_012AD9E9:
 BYTE   N04  As2  v127
 BYTE   W04
 BYTE   Cn3  v100
 BYTE   W04
 BYTE   As2
 BYTE   W04
 BYTE   Cn3
 BYTE   W04
 BYTE   As2  v108
 BYTE   W04
 BYTE   Cn3  v112
 BYTE   W04
 BYTE   As2  v116
 BYTE   W04
 BYTE   Cn3  v120
 BYTE   W04
 BYTE   As2  v127
 BYTE   W04
 BYTE   Cn3
 BYTE   W04
 BYTE   As2
 BYTE   W04
 BYTE   Cn3
 BYTE   W04
 BYTE   As2
 BYTE   W04
 BYTE   Cn3  v120
 BYTE   W04
 BYTE   Dn3
 BYTE   W04
 BYTE   Ds3
 BYTE   W04
 BYTE   Fn3
 BYTE   W04
 BYTE   Gn3
 BYTE   W04
 BYTE   An3
 BYTE   W04
 BYTE   As3
 BYTE   W04
 BYTE   Cn4
 BYTE   W04
 BYTE   Dn4
 BYTE   W04
 BYTE   Ds4
 BYTE   W04
 BYTE   Fn4
 BYTE   W04
 BYTE   PEND 
// 017   ----------------------------------------
Label_5_012ADA23:
 BYTE   N04  Gn4  v120
 BYTE   W04
 BYTE   An4
 BYTE   W04
 BYTE   As4
 BYTE   W04
 BYTE   An4
 BYTE   W04
 BYTE   Gn4
 BYTE   W04
 BYTE   Fn4
 BYTE   W04
 BYTE   Ds4
 BYTE   W04
 BYTE   Dn4
 BYTE   W04
 BYTE   Cn4
 BYTE   W04
 BYTE   As3
 BYTE   W04
 BYTE   An3
 BYTE   W04
 BYTE   Gn3
 BYTE   W04
 BYTE   Fn3
 BYTE   W04
 BYTE   Ds3
 BYTE   W04
 BYTE   Dn3
 BYTE   W04
 BYTE   Cn3
 BYTE   W04
 BYTE   As2
 BYTE   W04
 BYTE   An2
 BYTE   W04
 BYTE   Gn2
 BYTE   W04
 BYTE   Fn2
 BYTE   W04
 BYTE   Ds2
 BYTE   W04
 BYTE   Dn2
 BYTE   W04
 BYTE   Cn2
 BYTE   W04
 BYTE   As1
 BYTE   W04
 BYTE   PEND 
// 018   ----------------------------------------
 BYTE   W96
// 019   ----------------------------------------
 BYTE   W96
// 020   ----------------------------------------
 BYTE   PATT
  POIN2 Label_5_012AD9E9
// 021   ----------------------------------------
 BYTE   PATT
  POIN2 Label_5_012ADA23
// 022   ----------------------------------------
 BYTE   W96
// 023   ----------------------------------------
 BYTE   W96
// 024   ----------------------------------------
 BYTE   W96
// 025   ----------------------------------------
 BYTE   W96
// 026   ----------------------------------------
 BYTE   W96
// 027   ----------------------------------------
 BYTE   W96
// 028   ----------------------------------------
 BYTE   W96
// 029   ----------------------------------------
 BYTE   W96
// 030   ----------------------------------------
Label_5_012ADA6A:
 BYTE   N36  An4  v112
 BYTE   W36
 BYTE   Gn4
 BYTE   W36
 BYTE   N24  Cn5
 BYTE   W24
 BYTE   PEND 
// 031   ----------------------------------------
 BYTE   TIE  An4
 BYTE   W96
// 032   ----------------------------------------
 BYTE   W24
 BYTE   EOT
 BYTE   W12
 BYTE   N36  Gn4
 BYTE   W36
 BYTE   N24  An4
 BYTE   W24
// 033   ----------------------------------------
 BYTE   N36  Dn4
 BYTE   W36
 BYTE   Fn4
 BYTE   W36
 BYTE   N24  Gn4
 BYTE   W24
// 034   ----------------------------------------
 BYTE   PATT
  POIN2 Label_5_012ADA6A
// 035   ----------------------------------------
 BYTE   TIE  An4  v112
 BYTE   W96
// 036   ----------------------------------------
 BYTE   W24
 BYTE   EOT
 BYTE   W12
 BYTE   N36  As4
 BYTE   W36
 BYTE   N24  An4
 BYTE   W24
// 037   ----------------------------------------
 BYTE   N36  Cn5
 BYTE   W36
 BYTE   As4
 BYTE   W36
 BYTE   N24  An4
 BYTE   W24
// 038   ----------------------------------------
 BYTE   W96
// 039   ----------------------------------------
 BYTE   W96
// 040   ----------------------------------------
 BYTE   W96
// 041   ----------------------------------------
 BYTE   W96
// 042   ----------------------------------------
 BYTE   W96
// 043   ----------------------------------------
 BYTE   W96
// 044   ----------------------------------------
 BYTE   W96
// 045   ----------------------------------------
 BYTE   W96
// 046   ----------------------------------------
 BYTE   W96
// 047   ----------------------------------------
 BYTE   W96
// 048   ----------------------------------------
 BYTE   W96
// 049   ----------------------------------------
 BYTE   W96
// 050   ----------------------------------------
 BYTE   W96
// 051   ----------------------------------------
 BYTE   W96
// 052   ----------------------------------------
 BYTE   W96
// 053   ----------------------------------------
 BYTE   W96
// 054   ----------------------------------------
 BYTE   W96
// 055   ----------------------------------------
 BYTE   W96
// 056   ----------------------------------------
 BYTE   W96
// 057   ----------------------------------------
 BYTE   W96
// 058   ----------------------------------------
 BYTE   W96
// 059   ----------------------------------------
 BYTE   W96
// 060   ----------------------------------------
 BYTE   VOICE   1
 BYTE   VOL   19*OldKing_mvl/mxv
 BYTE   PAN   c_v+6
 BYTE   W96
// 061   ----------------------------------------
 BYTE   W96
// 062   ----------------------------------------
 BYTE   W48
 BYTE   N48  Dn4  v100
 BYTE   N48  Dn5
 BYTE   W48
// 063   ----------------------------------------
 BYTE   Cn4
 BYTE   N48  Cn5
 BYTE   W48
 BYTE   An3
 BYTE   N48  An4
 BYTE   W48
// 064   ----------------------------------------
 BYTE   As3
 BYTE   N48  As4
 BYTE   W48
 BYTE   Gn3
 BYTE   N48  Gn4
 BYTE   W48
// 065   ----------------------------------------
 BYTE   Ds3
 BYTE   N48  Ds4
 BYTE   W48
 BYTE   Dn3
 BYTE   N48  Dn4
 BYTE   W48
// 066   ----------------------------------------
 BYTE   TIE  Gn2
 BYTE   TIE  Gn3
 BYTE   W96
// 067   ----------------------------------------
 BYTE   W96
// 068   ----------------------------------------
 BYTE   EOT
 BYTE   Gn2  v067
 BYTE   W96
// 069   ----------------------------------------
 BYTE   W96
// 070   ----------------------------------------
 BYTE   PATT
  POIN2 Label_5_012AD9D2
// 071   ----------------------------------------
 BYTE   W96
// 072   ----------------------------------------
 BYTE   W96
// 073   ----------------------------------------
 BYTE   W96
// 074   ----------------------------------------
 BYTE   GoTo
  POIN2 Label_5_012AD9DF
 BYTE   FINE

//**************** Track 7 (Midi-Chn.6) ****************//

OldKing_007:
// 000   ----------------------------------------
 BYTE   KEYSH   OldKing_key+0
Label_6_012ADB06:
 BYTE   VOICE   73
 BYTE   VOL   22*OldKing_mvl/mxv
 BYTE   PAN   c_v+4
 BYTE   W96
 BYTE   PEND 
// 001   ----------------------------------------
 BYTE   W96
// 002   ----------------------------------------
 BYTE   W96
// 003   ----------------------------------------
 BYTE   W96
// 004   ----------------------------------------
 BYTE   W96
// 005   ----------------------------------------
 BYTE   W96
// 006   ----------------------------------------
Label_6_012ADB13:
 BYTE   W96
// 007   ----------------------------------------
 BYTE   W96
// 008   ----------------------------------------
 BYTE   W96
// 009   ----------------------------------------
 BYTE   W96
// 010   ----------------------------------------
 BYTE   W96
// 011   ----------------------------------------
 BYTE   W96
// 012   ----------------------------------------
 BYTE   W96
// 013   ----------------------------------------
 BYTE   W96
// 014   ----------------------------------------
 BYTE   W96
// 015   ----------------------------------------
 BYTE   W96
// 016   ----------------------------------------
Label_6_012ADB1D:
 BYTE   N04  Gn4  v127
 BYTE   W04
 BYTE   An4  v092
 BYTE   W04
 BYTE   Gn4
 BYTE   W04
 BYTE   An4
 BYTE   W04
 BYTE   Gn4  v096
 BYTE   W04
 BYTE   An4  v100
 BYTE   W04
 BYTE   Gn4  v108
 BYTE   W04
 BYTE   An4  v112
 BYTE   W04
 BYTE   Gn4  v116
 BYTE   W04
 BYTE   An4
 BYTE   W04
 BYTE   Gn4  v120
 BYTE   W04
 BYTE   An4
 BYTE   W04
 BYTE   Gn4  v127
 BYTE   W04
 BYTE   An4  v112
 BYTE   W04
 BYTE   As4
 BYTE   W04
 BYTE   Cn5
 BYTE   W04
 BYTE   Dn5
 BYTE   W04
 BYTE   Ds5
 BYTE   W04
 BYTE   Fn5
 BYTE   W04
 BYTE   Gn5
 BYTE   W04
 BYTE   An5
 BYTE   W04
 BYTE   As5
 BYTE   W04
 BYTE   Cn6
 BYTE   W04
 BYTE   Dn6
 BYTE   W04
 BYTE   PEND 
// 017   ----------------------------------------
Label_6_012ADB59:
 BYTE   N04  Ds6  v112
 BYTE   W04
 BYTE   Fn6
 BYTE   W04
 BYTE   Gn6
 BYTE   W04
 BYTE   Fn6
 BYTE   W04
 BYTE   Ds6
 BYTE   W04
 BYTE   Dn6
 BYTE   W04
 BYTE   Cn6
 BYTE   W04
 BYTE   As5
 BYTE   W04
 BYTE   An5
 BYTE   W04
 BYTE   Gn5
 BYTE   W04
 BYTE   Fn5
 BYTE   W04
 BYTE   Ds5
 BYTE   W04
 BYTE   Dn5
 BYTE   W04
 BYTE   Cn5
 BYTE   W04
 BYTE   As4
 BYTE   W04
 BYTE   An4
 BYTE   W04
 BYTE   Gn4
 BYTE   W04
 BYTE   Fn4
 BYTE   W04
 BYTE   Ds4
 BYTE   W04
 BYTE   Dn4
 BYTE   W04
 BYTE   Cn4
 BYTE   W04
 BYTE   As3
 BYTE   W04
 BYTE   An3
 BYTE   W04
 BYTE   Gn3
 BYTE   W04
 BYTE   PEND 
// 018   ----------------------------------------
 BYTE   W96
// 019   ----------------------------------------
 BYTE   W96
// 020   ----------------------------------------
 BYTE   PATT
  POIN2 Label_6_012ADB1D
// 021   ----------------------------------------
 BYTE   PATT
  POIN2 Label_6_012ADB59
// 022   ----------------------------------------
 BYTE   W96
// 023   ----------------------------------------
 BYTE   W96
// 024   ----------------------------------------
 BYTE   W96
// 025   ----------------------------------------
 BYTE   W96
// 026   ----------------------------------------
 BYTE   W96
// 027   ----------------------------------------
 BYTE   W96
// 028   ----------------------------------------
 BYTE   W96
// 029   ----------------------------------------
 BYTE   W96
// 030   ----------------------------------------
 BYTE   W96
// 031   ----------------------------------------
 BYTE   W96
// 032   ----------------------------------------
 BYTE   W96
// 033   ----------------------------------------
 BYTE   W96
// 034   ----------------------------------------
 BYTE   W96
// 035   ----------------------------------------
 BYTE   W96
// 036   ----------------------------------------
 BYTE   W96
// 037   ----------------------------------------
 BYTE   W96
// 038   ----------------------------------------
 BYTE   W96
// 039   ----------------------------------------
 BYTE   W96
// 040   ----------------------------------------
 BYTE   W96
// 041   ----------------------------------------
 BYTE   W96
// 042   ----------------------------------------
 BYTE   W96
// 043   ----------------------------------------
 BYTE   W96
// 044   ----------------------------------------
 BYTE   W96
// 045   ----------------------------------------
 BYTE   W96
// 046   ----------------------------------------
 BYTE   W96
// 047   ----------------------------------------
 BYTE   W96
// 048   ----------------------------------------
 BYTE   W96
// 049   ----------------------------------------
 BYTE   W96
// 050   ----------------------------------------
 BYTE   W96
// 051   ----------------------------------------
 BYTE   W96
// 052   ----------------------------------------
 BYTE   W96
// 053   ----------------------------------------
 BYTE   W96
// 054   ----------------------------------------
 BYTE   W96
// 055   ----------------------------------------
 BYTE   W96
// 056   ----------------------------------------
 BYTE   W96
// 057   ----------------------------------------
 BYTE   W96
// 058   ----------------------------------------
 BYTE   W96
// 059   ----------------------------------------
 BYTE   VOICE   1
 BYTE   VOL   27*OldKing_mvl/mxv
 BYTE   PAN   c_v-4
 BYTE   W96
// 060   ----------------------------------------
 BYTE   W96
// 061   ----------------------------------------
 BYTE   W96
// 062   ----------------------------------------
Label_6_012ADBC6:
 BYTE   TIE  Gn0  v120
 BYTE   TIE  Gn1  v112
 BYTE   W96
 BYTE   PEND 
// 063   ----------------------------------------
 BYTE   W96
// 064   ----------------------------------------
 BYTE   W96
// 065   ----------------------------------------
 BYTE   W96
// 066   ----------------------------------------
 BYTE   EOT
 BYTE   Gn0  v043
// 067   ----------------------------------------
 BYTE   PATT
  POIN2 Label_6_012ADBC6
// 068   ----------------------------------------
 BYTE   W96
// 069   ----------------------------------------
 BYTE   EOT
 BYTE   Gn0  v043
 BYTE   W96
// 070   ----------------------------------------
 BYTE   W96
// 071   ----------------------------------------
 BYTE   PATT
  POIN2 Label_6_012ADB06
// 072   ----------------------------------------
 BYTE   W96
// 073   ----------------------------------------
 BYTE   W96
// 074   ----------------------------------------
 BYTE   W96
// 075   ----------------------------------------
 BYTE   GoTo
  POIN2 Label_6_012ADB13
 BYTE   FINE

//**************** Track 8 (Midi-Chn.7) ****************//

OldKing_008:
// 000   ----------------------------------------
 BYTE   KEYSH   OldKing_key+0
 BYTE   VOICE   68
 BYTE   VOL   11*OldKing_mvl/mxv
 BYTE   PAN   c_v+36
 BYTE   BEND   c_v+1
 BYTE   W96
// 001   ----------------------------------------
 BYTE   W96
// 002   ----------------------------------------
 BYTE   W96
// 003   ----------------------------------------
 BYTE   W96
// 004   ----------------------------------------
 BYTE   W96
// 005   ----------------------------------------
 BYTE   W96
// 006   ----------------------------------------
Label_7_01302598:
 BYTE   W96
// 007   ----------------------------------------
 BYTE   W96
// 008   ----------------------------------------
 BYTE   W96
// 009   ----------------------------------------
 BYTE   W96
// 010   ----------------------------------------
 BYTE   W96
// 011   ----------------------------------------
 BYTE   W96
// 012   ----------------------------------------
 BYTE   W96
// 013   ----------------------------------------
 BYTE   W96
// 014   ----------------------------------------
 BYTE   W96
// 015   ----------------------------------------
 BYTE   W96
// 016   ----------------------------------------
 BYTE   W96
// 017   ----------------------------------------
 BYTE   W96
// 018   ----------------------------------------
 BYTE   W96
// 019   ----------------------------------------
 BYTE   W96
// 020   ----------------------------------------
 BYTE   W96
// 021   ----------------------------------------
 BYTE   W96
// 022   ----------------------------------------
 BYTE   W96
// 023   ----------------------------------------
 BYTE   W96
// 024   ----------------------------------------
 BYTE   W96
// 025   ----------------------------------------
 BYTE   W96
// 026   ----------------------------------------
 BYTE   W96
// 027   ----------------------------------------
 BYTE   W96
// 028   ----------------------------------------
 BYTE   W96
// 029   ----------------------------------------
 BYTE   W96
// 030   ----------------------------------------
Label_7_013025B0:
 BYTE   W09
 BYTE   N36  An4  v112
 BYTE   W36
 BYTE   Gn4
 BYTE   W36
 BYTE   N24  Cn5
 BYTE   W15
 BYTE   PEND 
// 031   ----------------------------------------
Label_7_013025BB:
 BYTE   W09
 BYTE   TIE  An4  v112
 BYTE   W84
 BYTE   W03
 BYTE   PEND 
// 032   ----------------------------------------
 BYTE   W32
 BYTE   W01
 BYTE   EOT
 BYTE   W12
 BYTE   N36  Gn4
 BYTE   W36
 BYTE   N24  An4
 BYTE   W15
// 033   ----------------------------------------
 BYTE   W09
 BYTE   N36  Dn4
 BYTE   W36
 BYTE   Fn4
 BYTE   W36
 BYTE   N24  Gn4
 BYTE   W15
// 034   ----------------------------------------
 BYTE   PATT
  POIN2 Label_7_013025B0
// 035   ----------------------------------------
 BYTE   PATT
  POIN2 Label_7_013025BB
// 036   ----------------------------------------
 BYTE   W32
 BYTE   W01
 BYTE   EOT
 BYTE   An4
 BYTE   W12
 BYTE   N36  As4  v112
 BYTE   W36
 BYTE   N24  An4
 BYTE   W15
// 037   ----------------------------------------
 BYTE   W09
 BYTE   N36  Cn5
 BYTE   W36
 BYTE   As4
 BYTE   W36
 BYTE   N24  An4
 BYTE   W15
// 038   ----------------------------------------
 BYTE   W96
// 039   ----------------------------------------
 BYTE   W96
// 040   ----------------------------------------
 BYTE   W96
// 041   ----------------------------------------
 BYTE   W96
// 042   ----------------------------------------
 BYTE   W96
// 043   ----------------------------------------
 BYTE   W96
// 044   ----------------------------------------
 BYTE   W96
// 045   ----------------------------------------
 BYTE   W96
// 046   ----------------------------------------
 BYTE   W96
// 047   ----------------------------------------
 BYTE   W96
// 048   ----------------------------------------
 BYTE   W96
// 049   ----------------------------------------
 BYTE   W96
// 050   ----------------------------------------
 BYTE   W96
// 051   ----------------------------------------
 BYTE   W96
// 052   ----------------------------------------
 BYTE   W96
// 053   ----------------------------------------
 BYTE   W96
// 054   ----------------------------------------
 BYTE   W96
// 055   ----------------------------------------
 BYTE   W96
// 056   ----------------------------------------
 BYTE   W96
// 057   ----------------------------------------
 BYTE   W96
// 058   ----------------------------------------
 BYTE   W96
// 059   ----------------------------------------
 BYTE   W96
// 060   ----------------------------------------
 BYTE   W09
 BYTE   VOICE   1
 BYTE   VOL   10*OldKing_mvl/mxv
 BYTE   PAN   c_v-44
 BYTE   W84
 BYTE   W03
// 061   ----------------------------------------
 BYTE   W96
// 062   ----------------------------------------
 BYTE   W56
 BYTE   W01
 BYTE   N48  Dn4  v100
 BYTE   N48  Dn5
 BYTE   W36
 BYTE   W03
// 063   ----------------------------------------
 BYTE   W09
 BYTE   Cn4
 BYTE   N48  Cn5
 BYTE   W48
 BYTE   An3
 BYTE   N48  An4
 BYTE   W36
 BYTE   W03
// 064   ----------------------------------------
 BYTE   W09
 BYTE   As3
 BYTE   N48  As4
 BYTE   W48
 BYTE   Gn3
 BYTE   N48  Gn4
 BYTE   W36
 BYTE   W03
// 065   ----------------------------------------
 BYTE   W09
 BYTE   Ds3
 BYTE   N48  Ds4
 BYTE   W48
 BYTE   Dn3
 BYTE   N48  Dn4
 BYTE   W36
 BYTE   W03
// 066   ----------------------------------------
 BYTE   W09
 BYTE   TIE  Gn2
 BYTE   TIE  Gn3
 BYTE   W84
 BYTE   W03
// 067   ----------------------------------------
 BYTE   W96
// 068   ----------------------------------------
 BYTE   W09
 BYTE   EOT
 BYTE   Gn2  v067
 BYTE   W84
 BYTE   W03
// 069   ----------------------------------------
 BYTE   W96
// 070   ----------------------------------------
 BYTE   W09
 BYTE   VOICE   68
 BYTE   VOL   11*OldKing_mvl/mxv
 BYTE   PAN   c_v+36
 BYTE   W84
 BYTE   W03
// 071   ----------------------------------------
 BYTE   W96
// 072   ----------------------------------------
 BYTE   W96
// 073   ----------------------------------------
 BYTE   W96
// 074   ----------------------------------------
 BYTE   GoTo
  POIN2 Label_7_01302598
 BYTE   FINE

//**************** Track 9 (Midi-Chn.8) ****************//

OldKing_009:
// 000   ----------------------------------------
 BYTE   KEYSH   OldKing_key+0
 BYTE   VOICE   46
 BYTE   VOL   11*OldKing_mvl/mxv
 BYTE   PAN   c_v+36
 BYTE   BEND   c_v+1
 BYTE   W96
// 001   ----------------------------------------
 BYTE   W96
// 002   ----------------------------------------
 BYTE   W96
// 003   ----------------------------------------
 BYTE   W96
// 004   ----------------------------------------
 BYTE   W96
// 005   ----------------------------------------
 BYTE   W96
// 006   ----------------------------------------
Label_8_012AE228:
 BYTE   W96
// 007   ----------------------------------------
 BYTE   W96
// 008   ----------------------------------------
 BYTE   W96
// 009   ----------------------------------------
 BYTE   W96
// 010   ----------------------------------------
 BYTE   W96
// 011   ----------------------------------------
 BYTE   W96
// 012   ----------------------------------------
 BYTE   W96
// 013   ----------------------------------------
 BYTE   W96
// 014   ----------------------------------------
 BYTE   W96
// 015   ----------------------------------------
 BYTE   W96
// 016   ----------------------------------------
 BYTE   W96
// 017   ----------------------------------------
 BYTE   W96
// 018   ----------------------------------------
 BYTE   W96
// 019   ----------------------------------------
 BYTE   W96
// 020   ----------------------------------------
 BYTE   W96
// 021   ----------------------------------------
 BYTE   W96
// 022   ----------------------------------------
 BYTE   W96
// 023   ----------------------------------------
 BYTE   W96
// 024   ----------------------------------------
 BYTE   W96
// 025   ----------------------------------------
 BYTE   W96
// 026   ----------------------------------------
 BYTE   W96
// 027   ----------------------------------------
 BYTE   W96
// 028   ----------------------------------------
 BYTE   W96
// 029   ----------------------------------------
 BYTE   W96
// 030   ----------------------------------------
 BYTE   W96
// 031   ----------------------------------------
 BYTE   W96
// 032   ----------------------------------------
 BYTE   W96
// 033   ----------------------------------------
 BYTE   W96
// 034   ----------------------------------------
 BYTE   W96
// 035   ----------------------------------------
 BYTE   W96
// 036   ----------------------------------------
 BYTE   W96
// 037   ----------------------------------------
 BYTE   W96
// 038   ----------------------------------------
 BYTE   W96
// 039   ----------------------------------------
 BYTE   W96
// 040   ----------------------------------------
 BYTE   W96
// 041   ----------------------------------------
 BYTE   W96
// 042   ----------------------------------------
 BYTE   W96
// 043   ----------------------------------------
 BYTE   W96
// 044   ----------------------------------------
 BYTE   W96
// 045   ----------------------------------------
 BYTE   W96
// 046   ----------------------------------------
 BYTE   W96
// 047   ----------------------------------------
 BYTE   W96
// 048   ----------------------------------------
 BYTE   W96
// 049   ----------------------------------------
 BYTE   W96
// 050   ----------------------------------------
 BYTE   W96
// 051   ----------------------------------------
 BYTE   W96
// 052   ----------------------------------------
 BYTE   W96
// 053   ----------------------------------------
 BYTE   W96
// 054   ----------------------------------------
 BYTE   W96
// 055   ----------------------------------------
 BYTE   W96
// 056   ----------------------------------------
 BYTE   W96
// 057   ----------------------------------------
 BYTE   W96
// 058   ----------------------------------------
 BYTE   W96
// 059   ----------------------------------------
 BYTE   W96
// 060   ----------------------------------------
 BYTE   W96
// 061   ----------------------------------------
 BYTE   W96
// 062   ----------------------------------------
 BYTE   W96
// 063   ----------------------------------------
 BYTE   W96
// 064   ----------------------------------------
 BYTE   W32
 BYTE   W01
 BYTE   TIE  Gn0  v108
 BYTE   TIE  Gn1
 BYTE   W24
 BYTE   N24  Dn2
 BYTE   W24
 BYTE   Gn2
 BYTE   W15
// 065   ----------------------------------------
 BYTE   W09
 BYTE   As2
 BYTE   W24
 BYTE   Cn3
 BYTE   W24
 BYTE   Dn3  v100
 BYTE   W24
 BYTE   Gn3  v096
 BYTE   W15
// 066   ----------------------------------------
 BYTE   W09
 BYTE   EOT
 BYTE   Gn0  v043
 BYTE   W84
 BYTE   W03
// 067   ----------------------------------------
 BYTE   W96
// 068   ----------------------------------------
 BYTE   W96
// 069   ----------------------------------------
 BYTE   W96
// 070   ----------------------------------------
 BYTE   W96
// 071   ----------------------------------------
 BYTE   W96
// 072   ----------------------------------------
 BYTE   W96
// 073   ----------------------------------------
 BYTE   W96
// 074   ----------------------------------------
 BYTE   GoTo
  POIN2 Label_8_012AE228
 BYTE   FINE

//**************** Track 10 (Midi-Chn.9) ****************//

OldKing_010:
// 000   ----------------------------------------
 BYTE   KEYSH   OldKing_key+0
 BYTE   VOICE   127
 BYTE   VOL   27*OldKing_mvl/mxv
 BYTE   PAN   c_v+0
 BYTE   N12  Dn1  v084
 BYTE   W12
 BYTE   N06  Dn1  v080
 BYTE   W06
 BYTE   Dn1  v068
 BYTE   W06
 BYTE   N12
 BYTE   W12
 BYTE   Dn1  v080
 BYTE   W12
 BYTE   N06  Dn1  v072
 BYTE   W06
 BYTE   Dn1  v068
 BYTE   W06
 BYTE   N12  Dn1  v076
 BYTE   W12
 BYTE   Dn1  v068
 BYTE   W12
 BYTE   N06  Dn1  v084
 BYTE   W06
 BYTE   Dn1  v080
 BYTE   W06
// 001   ----------------------------------------
Label_9_01301D89:
 BYTE   N12  Dn1  v072
 BYTE   W12
 BYTE   N06  Dn1  v060
 BYTE   W06
 BYTE   Dn1  v084
 BYTE   W06
 BYTE   N12  Dn1  v072
 BYTE   W12
 BYTE   Dn1  v060
 BYTE   W12
 BYTE   N06  Dn1  v084
 BYTE   W06
 BYTE   Dn1  v080
 BYTE   W06
 BYTE   Dn1  v072
 BYTE   W06
 BYTE   Dn1  v060
 BYTE   W06
 BYTE   Dn1  v084
 BYTE   W06
 BYTE   N03  Dn1  v080
 BYTE   W03
 BYTE   Dn1  v072
 BYTE   W03
 BYTE   N06  Dn1  v060
 BYTE   W06
 BYTE   Dn1  v084
 BYTE   W06
 BYTE   PEND 
// 002   ----------------------------------------
Label_9_01301DBA:
 BYTE   N12  Dn1  v084
 BYTE   N96  Cs2  v080
 BYTE   W12
 BYTE   N06  Dn1
 BYTE   W06
 BYTE   Dn1  v068
 BYTE   W06
 BYTE   N12
 BYTE   W12
 BYTE   Dn1  v080
 BYTE   W12
 BYTE   N06  Dn1  v072
 BYTE   W06
 BYTE   Dn1  v068
 BYTE   W06
 BYTE   N12  Dn1  v076
 BYTE   W12
 BYTE   Dn1  v068
 BYTE   W12
 BYTE   N06  Dn1  v084
 BYTE   W06
 BYTE   Dn1  v080
 BYTE   W06
 BYTE   PEND 
// 003   ----------------------------------------
 BYTE   PATT
  POIN2 Label_9_01301D89
// 004   ----------------------------------------
Label_9_01301DE7:
 BYTE   N12  Dn1  v084
 BYTE   W12
 BYTE   N06  Dn1  v080
 BYTE   W06
 BYTE   Dn1  v068
 BYTE   W06
 BYTE   N12
 BYTE   W12
 BYTE   Dn1  v080
 BYTE   W12
 BYTE   N06  Dn1  v072
 BYTE   W06
 BYTE   Dn1  v068
 BYTE   W06
 BYTE   N12  Dn1  v076
 BYTE   W12
 BYTE   Dn1  v068
 BYTE   W12
 BYTE   N06  Dn1  v084
 BYTE   W06
 BYTE   Dn1  v080
 BYTE   W06
 BYTE   PEND 
// 005   ----------------------------------------
 BYTE   PATT
  POIN2 Label_9_01301D89
// 006   ----------------------------------------
Label_9_01301E12:
// 007   ----------------------------------------
 BYTE   PATT
  POIN2 Label_9_01301DE7
// 008   ----------------------------------------
 BYTE   PATT
  POIN2 Label_9_01301D89
// 009   ----------------------------------------
 BYTE   N12  Dn1  v084
 BYTE   W12
 BYTE   N06  Dn1  v080
 BYTE   W06
 BYTE   Dn1  v064
 BYTE   W06
 BYTE   N12
 BYTE   W12
 BYTE   Dn1  v080
 BYTE   W12
 BYTE   N06  Dn1  v068
 BYTE   W06
 BYTE   Dn1  v064
 BYTE   W06
 BYTE   N12  Dn1  v076
 BYTE   W12
 BYTE   Dn1  v064
 BYTE   W12
 BYTE   N06  Dn1  v084
 BYTE   W06
 BYTE   Dn1  v080
 BYTE   W06
// 010   ----------------------------------------
 BYTE   N12  Dn1  v068
 BYTE   W12
 BYTE   N06  Dn1  v060
 BYTE   W06
 BYTE   Dn1  v084
 BYTE   W06
 BYTE   N12  Dn1  v068
 BYTE   W12
 BYTE   Dn1  v060
 BYTE   W12
 BYTE   N06  Dn1  v084
 BYTE   W06
 BYTE   Dn1  v080
 BYTE   W06
 BYTE   Dn1  v068
 BYTE   W06
 BYTE   Dn1  v060
 BYTE   W06
 BYTE   Dn1  v084
 BYTE   W06
 BYTE   N03  Dn1  v080
 BYTE   W03
 BYTE   Dn1  v068
 BYTE   W03
 BYTE   N06  Dn1  v060
 BYTE   W06
 BYTE   Dn1  v084
 BYTE   W06
// 011   ----------------------------------------
 BYTE   N12  Dn1  v080
 BYTE   W12
 BYTE   N06  Dn1  v068
 BYTE   W06
 BYTE   N06
 BYTE   W06
 BYTE   N12  Dn1  v080
 BYTE   W12
 BYTE   Dn1  v072
 BYTE   W12
 BYTE   N06  Dn1  v084
 BYTE   W06
 BYTE   N06
 BYTE   W06
 BYTE   N06
 BYTE   W06
 BYTE   Dn1  v072
 BYTE   W06
 BYTE   N06
 BYTE   W06
 BYTE   N03  Dn1  v084
 BYTE   W03
 BYTE   Dn1  v076
 BYTE   W03
 BYTE   N06  Dn1  v072
 BYTE   W06
 BYTE   Dn1  v080
 BYTE   W06
// 012   ----------------------------------------
 BYTE   N12  Dn1  v072
 BYTE   W12
 BYTE   N06  Dn1  v084
 BYTE   W06
 BYTE   N06
 BYTE   W06
 BYTE   N12  Dn1  v076
 BYTE   W12
 BYTE   Dn1  v068
 BYTE   W12
 BYTE   N06  Dn1  v084
 BYTE   W06
 BYTE   Dn1  v076
 BYTE   W06
 BYTE   N12  Dn1  v064
 BYTE   W12
 BYTE   Dn1  v084
 BYTE   W12
 BYTE   N06
 BYTE   W06
 BYTE   Dn1  v076
 BYTE   W06
// 013   ----------------------------------------
 BYTE   N12  Dn1  v064
 BYTE   W12
 BYTE   N06  Dn1  v084
 BYTE   W06
 BYTE   N06
 BYTE   W06
 BYTE   N12  Dn1  v076
 BYTE   W12
 BYTE   Dn1  v064
 BYTE   W12
 BYTE   N06  Dn1  v084
 BYTE   W06
 BYTE   N06
 BYTE   W06
 BYTE   Dn1  v080
 BYTE   W06
 BYTE   Dn1  v068
 BYTE   W06
 BYTE   N06
 BYTE   W06
 BYTE   N03  Dn1  v080
 BYTE   W03
 BYTE   Dn1  v072
 BYTE   W03
 BYTE   N06  Dn1  v068
 BYTE   W06
 BYTE   Dn1  v076
 BYTE   W06
// 014   ----------------------------------------
Label_9_01301EEE:
 BYTE   N12  Dn1  v068
 BYTE   W12
 BYTE   N06  Dn1  v084
 BYTE   W06
 BYTE   Dn1  v080
 BYTE   W06
 BYTE   N12  Dn1  v072
 BYTE   W12
 BYTE   Dn1  v060
 BYTE   W12
 BYTE   N06  Dn1  v084
 BYTE   W06
 BYTE   Dn1  v072
 BYTE   W06
 BYTE   N12  Dn1  v060
 BYTE   W12
 BYTE   Dn1  v084
 BYTE   W12
 BYTE   N06  Dn1  v080
 BYTE   W06
 BYTE   Dn1  v072
 BYTE   W06
 BYTE   PEND 
// 015   ----------------------------------------
 BYTE   N12  Dn1  v060
 BYTE   W12
 BYTE   N06  Dn1  v084
 BYTE   W06
 BYTE   Dn1  v080
 BYTE   W06
 BYTE   N12  Dn1  v072
 BYTE   W12
 BYTE   Dn1  v060
 BYTE   W12
 BYTE   N06  Dn1  v084
 BYTE   W06
 BYTE   N06
 BYTE   W06
 BYTE   N12
 BYTE   W12
 BYTE   Dn1  v072
 BYTE   W12
 BYTE   N06
 BYTE   W06
 BYTE   Dn1  v084
 BYTE   W06
// 016   ----------------------------------------
Label_9_01301F38:
 BYTE   N12  Dn1  v076
 BYTE   W12
 BYTE   N06  Dn1  v072
 BYTE   W06
 BYTE   Dn1  v080
 BYTE   W06
 BYTE   N12  Dn1  v072
 BYTE   W12
 BYTE   Dn1  v084
 BYTE   W12
 BYTE   N06
 BYTE   W06
 BYTE   Dn1  v076
 BYTE   W06
 BYTE   Dn1  v068
 BYTE   W06
 BYTE   Dn1  v084
 BYTE   W06
 BYTE   Dn1  v076
 BYTE   W06
 BYTE   N03  Dn1  v064
 BYTE   W03
 BYTE   Dn1  v084
 BYTE   W03
 BYTE   N06
 BYTE   W06
 BYTE   Dn1  v076
 BYTE   W06
 BYTE   PEND 
// 017   ----------------------------------------
Label_9_01301F65:
 BYTE   N12  Dn1  v064
 BYTE   W12
 BYTE   N06  Dn1  v084
 BYTE   W06
 BYTE   N06
 BYTE   W06
 BYTE   N12  Dn1  v076
 BYTE   W12
 BYTE   Dn1  v064
 BYTE   W12
 BYTE   N06  Dn1  v084
 BYTE   W06
 BYTE   N06
 BYTE   W06
 BYTE   N12  Dn1  v080
 BYTE   W12
 BYTE   Dn1  v068
 BYTE   W12
 BYTE   N06
 BYTE   W06
 BYTE   Dn1  v080
 BYTE   W06
 BYTE   PEND 
// 018   ----------------------------------------
Label_9_01301F89:
 BYTE   N12  Dn1  v072
 BYTE   W12
 BYTE   N06  Dn1  v068
 BYTE   W06
 BYTE   Dn1  v076
 BYTE   W06
 BYTE   N12  Dn1  v068
 BYTE   W12
 BYTE   Dn1  v084
 BYTE   W12
 BYTE   N06  Dn1  v080
 BYTE   W06
 BYTE   Dn1  v072
 BYTE   W06
 BYTE   Dn1  v060
 BYTE   W06
 BYTE   Dn1  v084
 BYTE   W06
 BYTE   Dn1  v072
 BYTE   W06
 BYTE   N03  Dn1  v060
 BYTE   W03
 BYTE   Dn1  v084
 BYTE   W03
 BYTE   N06  Dn1  v080
 BYTE   W06
 BYTE   Dn1  v072
 BYTE   W06
 BYTE   PEND 
// 019   ----------------------------------------
Label_9_01301FBA:
 BYTE   N12  Dn1  v060
 BYTE   W12
 BYTE   N06  Dn1  v084
 BYTE   W06
 BYTE   Dn1  v080
 BYTE   W06
 BYTE   N12  Dn1  v072
 BYTE   W12
 BYTE   Dn1  v060
 BYTE   W12
 BYTE   N06  Dn1  v084
 BYTE   W06
 BYTE   N06
 BYTE   W06
 BYTE   N12  Dn1  v080
 BYTE   W12
 BYTE   Dn1  v068
 BYTE   W12
 BYTE   N06
 BYTE   W06
 BYTE   Dn1  v080
 BYTE   W06
 BYTE   PEND 
// 020   ----------------------------------------
 BYTE   PATT
  POIN2 Label_9_01301F89
// 021   ----------------------------------------
 BYTE   PATT
  POIN2 Label_9_01301FBA
// 022   ----------------------------------------
 BYTE   PATT
  POIN2 Label_9_01301F89
// 023   ----------------------------------------
Label_9_01301FEE:
 BYTE   N12  Dn1  v060
 BYTE   W12
 BYTE   N06  Dn1  v084
 BYTE   W06
 BYTE   Dn1  v080
 BYTE   W06
 BYTE   N12  Dn1  v072
 BYTE   W12
 BYTE   Dn1  v060
 BYTE   W12
 BYTE   N06  Dn1  v084
 BYTE   W06
 BYTE   N06
 BYTE   W06
 BYTE   Dn1  v080
 BYTE   W06
 BYTE   Dn1  v068
 BYTE   W06
 BYTE   N06
 BYTE   W06
 BYTE   N03  Dn1  v080
 BYTE   W03
 BYTE   Dn1  v072
 BYTE   W03
 BYTE   N06  Dn1  v068
 BYTE   W06
 BYTE   Dn1  v076
 BYTE   W06
 BYTE   PEND 
// 024   ----------------------------------------
 BYTE   PATT
  POIN2 Label_9_01301EEE
// 025   ----------------------------------------
 BYTE   PATT
  POIN2 Label_9_01301FEE
// 026   ----------------------------------------
 BYTE   PATT
  POIN2 Label_9_01301EEE
// 027   ----------------------------------------
 BYTE   PATT
  POIN2 Label_9_01301FBA
// 028   ----------------------------------------
 BYTE   PATT
  POIN2 Label_9_01301F89
// 029   ----------------------------------------
Label_9_01302036:
 BYTE   N12  Dn1  v060
 BYTE   TIE  En2  v120
 BYTE   W12
 BYTE   N06  Dn1  v084
 BYTE   W06
 BYTE   Dn1  v080
 BYTE   W06
 BYTE   N12  Dn1  v072
 BYTE   W12
 BYTE   Dn1  v060
 BYTE   W12
 BYTE   N06  Dn1  v084
 BYTE   W06
 BYTE   N06
 BYTE   W06
 BYTE   N12  Dn1  v080
 BYTE   W12
 BYTE   Dn1  v068
 BYTE   W12
 BYTE   N06
 BYTE   W06
 BYTE   Dn1  v080
 BYTE   W06
 BYTE   PEND 
// 030   ----------------------------------------
 BYTE   PATT
  POIN2 Label_9_01301F89
// 031   ----------------------------------------
 BYTE   EOT
 BYTE   En2
 BYTE   N96  Cs2  v080
 BYTE   N12  Fs2  v072
 BYTE   W12
 BYTE   N06  Fs2  v060
 BYTE   W06
 BYTE   Fs2  v052
 BYTE   W06
 BYTE   N12  Fs2  v076
 BYTE   W12
 BYTE   Fs2  v072
 BYTE   W12
 BYTE   N06  Fs2  v060
 BYTE   W06
 BYTE   Fs2  v052
 BYTE   W06
 BYTE   Fs2  v076
 BYTE   W06
 BYTE   N06
 BYTE   W06
 BYTE   Fs2  v072
 BYTE   W06
 BYTE   N03  Fs2  v056
 BYTE   W03
 BYTE   N03
 BYTE   W03
 BYTE   N06  Fs2  v072
 BYTE   W06
 BYTE   Fs2  v060
 BYTE   W06
// 032   ----------------------------------------
Label_9_01302096:
 BYTE   N12  Fs2  v056
 BYTE   W12
 BYTE   N06  Fs2  v068
 BYTE   W06
 BYTE   Fs2  v056
 BYTE   W06
 BYTE   N12  Fs2  v076
 BYTE   W12
 BYTE   Fs2  v072
 BYTE   W12
 BYTE   N06  Fs2  v060
 BYTE   W06
 BYTE   Fs2  v052
 BYTE   W06
 BYTE   N12  Fs2  v076
 BYTE   W12
 BYTE   Fs2  v060
 BYTE   W12
 BYTE   N06  Fs2  v052
 BYTE   W06
 BYTE   Fs2  v076
 BYTE   W06
 BYTE   PEND 
// 033   ----------------------------------------
Label_9_013020BE:
 BYTE   N12  Fs2  v072
 BYTE   W12
 BYTE   N06  Fs2  v060
 BYTE   W06
 BYTE   Fs2  v052
 BYTE   W06
 BYTE   N12  Fs2  v076
 BYTE   W12
 BYTE   Fs2  v072
 BYTE   W12
 BYTE   N06  Fs2  v060
 BYTE   W06
 BYTE   Fs2  v052
 BYTE   W06
 BYTE   Fs2  v076
 BYTE   W06
 BYTE   N06
 BYTE   W06
 BYTE   Fs2  v072
 BYTE   W06
 BYTE   N03  Fs2  v056
 BYTE   W03
 BYTE   N03
 BYTE   W03
 BYTE   N06  Fs2  v072
 BYTE   W06
 BYTE   Fs2  v060
 BYTE   W06
 BYTE   PEND 
// 034   ----------------------------------------
 BYTE   PATT
  POIN2 Label_9_01302096
// 035   ----------------------------------------
 BYTE   PATT
  POIN2 Label_9_013020BE
// 036   ----------------------------------------
 BYTE   PATT
  POIN2 Label_9_01302096
// 037   ----------------------------------------
 BYTE   PATT
  POIN2 Label_9_013020BE
// 038   ----------------------------------------
 BYTE   N12  Fs2  v056
 BYTE   W12
 BYTE   N06  Fs2  v068
 BYTE   W06
 BYTE   Fs2  v056
 BYTE   W06
 BYTE   N12  Fs2  v076
 BYTE   W12
 BYTE   Fs2  v072
 BYTE   W12
 BYTE   N06  Fs2  v060
 BYTE   W06
 BYTE   Fs2  v052
 BYTE   W06
 BYTE   N12  Fs2  v076
 BYTE   W12
 BYTE   N06  Dn1  v060
 BYTE   W06
 BYTE   N03  Dn1  v084
 BYTE   W03
 BYTE   Dn1  v080
 BYTE   W03
 BYTE   N06  Dn1  v072
 BYTE   W06
 BYTE   Dn1  v060
 BYTE   W06
// 039   ----------------------------------------
 BYTE   N12  Dn1  v084
 BYTE   N96  Cs2  v080
 BYTE   W12
 BYTE   N06  Dn1  v084
 BYTE   W06
 BYTE   Dn1  v080
 BYTE   W06
 BYTE   N12  Dn1  v068
 BYTE   W12
 BYTE   N12
 BYTE   W12
 BYTE   N06  Dn1  v080
 BYTE   W06
 BYTE   Dn1  v072
 BYTE   W06
 BYTE   N12  Dn1  v068
 BYTE   W12
 BYTE   Dn1  v076
 BYTE   W12
 BYTE   N06  Dn1  v068
 BYTE   W06
 BYTE   Dn1  v084
 BYTE   W06
// 040   ----------------------------------------
Label_9_01302159:
 BYTE   N12  Dn1  v080
 BYTE   W12
 BYTE   N06  Dn1  v072
 BYTE   W06
 BYTE   Dn1  v060
 BYTE   W06
 BYTE   N12  Dn1  v084
 BYTE   W12
 BYTE   Dn1  v072
 BYTE   W12
 BYTE   N06  Dn1  v060
 BYTE   W06
 BYTE   Dn1  v084
 BYTE   W06
 BYTE   Dn1  v080
 BYTE   W06
 BYTE   Dn1  v072
 BYTE   W06
 BYTE   Dn1  v060
 BYTE   W06
 BYTE   N03  Dn1  v084
 BYTE   W03
 BYTE   Dn1  v080
 BYTE   W03
 BYTE   N06  Dn1  v072
 BYTE   W06
 BYTE   Dn1  v060
 BYTE   W06
 BYTE   PEND 
// 041   ----------------------------------------
 BYTE   N12  Dn1  v084
 BYTE   W12
 BYTE   N06
 BYTE   W06
 BYTE   Dn1  v080
 BYTE   W06
 BYTE   N12  Dn1  v068
 BYTE   W12
 BYTE   N12
 BYTE   W12
 BYTE   N06  Dn1  v080
 BYTE   W06
 BYTE   Dn1  v072
 BYTE   W06
 BYTE   N12  Dn1  v068
 BYTE   W12
 BYTE   Dn1  v076
 BYTE   W12
 BYTE   N06  Dn1  v068
 BYTE   W06
 BYTE   Dn1  v084
 BYTE   W06
// 042   ----------------------------------------
 BYTE   PATT
  POIN2 Label_9_01302159
// 043   ----------------------------------------
 BYTE   N12  Dn1  v084
 BYTE   W12
 BYTE   N06  Dn1  v076
 BYTE   W06
 BYTE   Dn1  v072
 BYTE   W06
 BYTE   N12  Dn1  v068
 BYTE   W12
 BYTE   N12
 BYTE   W12
 BYTE   N06  Dn1  v076
 BYTE   W06
 BYTE   Dn1  v084
 BYTE   W06
 BYTE   N12
 BYTE   W12
 BYTE   Dn1  v072
 BYTE   W12
 BYTE   N06
 BYTE   W06
 BYTE   Dn1  v084
 BYTE   W06
// 044   ----------------------------------------
 BYTE   PATT
  POIN2 Label_9_01301F38
// 045   ----------------------------------------
 BYTE   PATT
  POIN2 Label_9_01301F65
// 046   ----------------------------------------
 BYTE   PATT
  POIN2 Label_9_01301F89
// 047   ----------------------------------------
Label_9_013021E4:
 BYTE   N12  Dn1  v060
 BYTE   N96  Cs2  v080
 BYTE   W12
 BYTE   N06  Dn1  v084
 BYTE   W06
 BYTE   Dn1  v080
 BYTE   W06
 BYTE   N12  Dn1  v072
 BYTE   W12
 BYTE   Dn1  v060
 BYTE   W12
 BYTE   N06  Dn1  v084
 BYTE   W06
 BYTE   Dn1  v072
 BYTE   W06
 BYTE   N12  Dn1  v060
 BYTE   W12
 BYTE   Dn1  v084
 BYTE   W12
 BYTE   N06  Dn1  v080
 BYTE   W06
 BYTE   Dn1  v072
 BYTE   W06
 BYTE   PEND 
// 048   ----------------------------------------
 BYTE   PATT
  POIN2 Label_9_01301FEE
// 049   ----------------------------------------
 BYTE   PATT
  POIN2 Label_9_01301EEE
// 050   ----------------------------------------
 BYTE   PATT
  POIN2 Label_9_01301FEE
// 051   ----------------------------------------
 BYTE   N12  Dn1  v068
 BYTE   W12
 BYTE   N06  Dn1  v084
 BYTE   W06
 BYTE   Dn1  v080
 BYTE   W06
 BYTE   N12  Dn1  v072
 BYTE   W12
 BYTE   Dn1  v060
 BYTE   W12
 BYTE   N06  Dn1  v084
 BYTE   W06
 BYTE   N06
 BYTE   W06
 BYTE   N12  Dn1  v080
 BYTE   W12
 BYTE   Dn1  v068
 BYTE   W12
 BYTE   N06
 BYTE   W06
 BYTE   Dn1  v080
 BYTE   W06
// 052   ----------------------------------------
 BYTE   PATT
  POIN2 Label_9_01301F89
// 053   ----------------------------------------
 BYTE   PATT
  POIN2 Label_9_01301FBA
// 054   ----------------------------------------
 BYTE   PATT
  POIN2 Label_9_01301F89
// 055   ----------------------------------------
 BYTE   PATT
  POIN2 Label_9_01301FBA
// 056   ----------------------------------------
 BYTE   PATT
  POIN2 Label_9_01301F89
// 057   ----------------------------------------
 BYTE   PATT
  POIN2 Label_9_01302036
// 058   ----------------------------------------
 BYTE   PATT
  POIN2 Label_9_01301F89
// 059   ----------------------------------------
 BYTE   EOT
 BYTE   En2
// 060   ----------------------------------------
 BYTE   PATT
  POIN2 Label_9_013021E4
// 061   ----------------------------------------
 BYTE   PATT
  POIN2 Label_9_01301FEE
// 062   ----------------------------------------
 BYTE   PATT
  POIN2 Label_9_01301EEE
// 063   ----------------------------------------
 BYTE   PATT
  POIN2 Label_9_01301FEE
// 064   ----------------------------------------
 BYTE   N01  Dn1  v068
 BYTE   N96  Cs2  v080
 BYTE   N24  An2  v100
 BYTE   W01
 BYTE   N10  Dn1  v084
 BYTE   W92
 BYTE   W03
// 065   ----------------------------------------
 BYTE   W72
 BYTE   N02  Dn1  v080
 BYTE   W02
 BYTE   N04  Dn1  v072
 BYTE   W04
 BYTE   N06  Dn1  v060
 BYTE   W06
 BYTE   Dn1  v084
 BYTE   W12
// 066   ----------------------------------------
 BYTE   PATT
  POIN2 Label_9_01301DE7
// 067   ----------------------------------------
 BYTE   PATT
  POIN2 Label_9_01301D89
// 068   ----------------------------------------
 BYTE   PATT
  POIN2 Label_9_01301DE7
// 069   ----------------------------------------
 BYTE   PATT
  POIN2 Label_9_01301D89
// 070   ----------------------------------------
 BYTE   N12  Dn1  v084
 BYTE   TIE  En2  v120
 BYTE   W12
 BYTE   N06  Dn1  v080
 BYTE   W06
 BYTE   Dn1  v068
 BYTE   W06
 BYTE   N12
 BYTE   W12
 BYTE   Dn1  v080
 BYTE   W12
 BYTE   N06  Dn1  v072
 BYTE   W06
 BYTE   Dn1  v068
 BYTE   W06
 BYTE   N12  Dn1  v076
 BYTE   W12
 BYTE   Dn1  v068
 BYTE   W12
 BYTE   N06  Dn1  v084
 BYTE   W06
 BYTE   Dn1  v080
 BYTE   W06
// 071   ----------------------------------------
 BYTE   PATT
  POIN2 Label_9_01301D89
// 072   ----------------------------------------
 BYTE   EOT
 BYTE   En2
// 073   ----------------------------------------
 BYTE   PATT
  POIN2 Label_9_01301DBA
// 074   ----------------------------------------
 BYTE   PATT
  POIN2 Label_9_01301D89
// 075   ----------------------------------------
 BYTE   PATT
  POIN2 Label_9_01301DE7
// 076   ----------------------------------------
 BYTE   PATT
  POIN2 Label_9_01301D89
// 077   ----------------------------------------
 BYTE   GoTo
  POIN2 Label_9_01301E12
 BYTE   FINE

//**************** Track 11 (Midi-Chn.10) ****************//

OldKing_011:
// 000   ----------------------------------------
 BYTE   KEYSH   OldKing_key+0
 BYTE   VOICE   61
 BYTE   VOL   27*OldKing_mvl/mxv
 BYTE   PAN   c_v+8
 BYTE   W96
// 001   ----------------------------------------
 BYTE   W96
// 002   ----------------------------------------
Label_10_01302302:
 BYTE   N06  As1  v112
 BYTE   N06  Dn2
 BYTE   W36
 BYTE   As1  v108
 BYTE   N06  Dn2
 BYTE   W36
 BYTE   N09  An1  v112
 BYTE   N09  Cn2
 BYTE   W24
 BYTE   PEND 
// 003   ----------------------------------------
Label_10_01302314:
 BYTE   N06  As1  v112
 BYTE   N06  Dn2
 BYTE   W36
 BYTE   As1  v108
 BYTE   N06  Dn2
 BYTE   W60
 BYTE   PEND 
// 004   ----------------------------------------
 BYTE   PATT
  POIN2 Label_10_01302302
// 005   ----------------------------------------
Label_10_01302325:
 BYTE   N06  As1  v112
 BYTE   N06  Dn2
 BYTE   W12
 BYTE   N04  As1  v092
 BYTE   N04  Dn2
 BYTE   W24
 BYTE   N06  As1  v108
 BYTE   N06  Dn2
 BYTE   W36
 BYTE   N10  An1
 BYTE   N10  Cn2
 BYTE   W24
 BYTE   PEND 
// 006   ----------------------------------------
Label_10_0130233D:
 BYTE   N06  As1  v112
 BYTE   N06  Ds2
 BYTE   W36
 BYTE   As1  v108
 BYTE   N06  Ds2
 BYTE   W36
 BYTE   N09  As1  v112
 BYTE   N09  Dn2
 BYTE   W24
 BYTE   PEND 
// 007   ----------------------------------------
Label_10_0130234F:
 BYTE   N06  As1  v112
 BYTE   N06  Ds2
 BYTE   W36
 BYTE   As1  v108
 BYTE   N06  Ds2
 BYTE   W60
 BYTE   PEND 
// 008   ----------------------------------------
 BYTE   PATT
  POIN2 Label_10_0130233D
// 009   ----------------------------------------
Label_10_01302360:
 BYTE   N06  As1  v112
 BYTE   N06  Ds2
 BYTE   W12
 BYTE   N04  As1  v092
 BYTE   N04  Ds2
 BYTE   W24
 BYTE   N06  As1  v108
 BYTE   N06  Ds2
 BYTE   W36
 BYTE   N10  As1
 BYTE   N10  Dn2
 BYTE   W24
 BYTE   PEND 
// 010   ----------------------------------------
Label_10_01302378:
 BYTE   N06  Cn2  v112
 BYTE   N06  Ds2
 BYTE   W36
 BYTE   Cn2  v108
 BYTE   N06  Ds2
 BYTE   W36
 BYTE   N09  Cn2  v112
 BYTE   N09  Ds2
 BYTE   W24
 BYTE   PEND 
// 011   ----------------------------------------
 BYTE   PATT
  POIN2 Label_10_01302314
// 012   ----------------------------------------
Label_10_0130238F:
 BYTE   N06  An1  v112
 BYTE   N06  Cn2
 BYTE   W36
 BYTE   An1  v108
 BYTE   N06  Cn2
 BYTE   W36
 BYTE   N09  An1  v112
 BYTE   N09  Cn2
 BYTE   W24
 BYTE   PEND 
// 013   ----------------------------------------
Label_10_013023A1:
 BYTE   N06  An1  v112
 BYTE   N06  Dn2
 BYTE   W12
 BYTE   N04  An1  v100
 BYTE   N04  Dn2
 BYTE   W24
 BYTE   N06  An1  v108
 BYTE   N06  Dn2
 BYTE   W36
 BYTE   N10  An1  v112
 BYTE   N10  Dn2
 BYTE   W24
 BYTE   PEND 
// 014   ----------------------------------------
 BYTE   PATT
  POIN2 Label_10_01302302
// 015   ----------------------------------------
 BYTE   PATT
  POIN2 Label_10_01302314
// 016   ----------------------------------------
 BYTE   PATT
  POIN2 Label_10_01302302
// 017   ----------------------------------------
 BYTE   PATT
  POIN2 Label_10_01302325
// 018   ----------------------------------------
 BYTE   PATT
  POIN2 Label_10_0130233D
// 019   ----------------------------------------
 BYTE   PATT
  POIN2 Label_10_0130234F
// 020   ----------------------------------------
 BYTE   PATT
  POIN2 Label_10_0130233D
// 021   ----------------------------------------
 BYTE   PATT
  POIN2 Label_10_01302360
// 022   ----------------------------------------
 BYTE   PATT
  POIN2 Label_10_01302378
// 023   ----------------------------------------
 BYTE   PATT
  POIN2 Label_10_01302314
// 024   ----------------------------------------
 BYTE   PATT
  POIN2 Label_10_0130238F
// 025   ----------------------------------------
 BYTE   PATT
  POIN2 Label_10_013023A1
// 026   ----------------------------------------
Label_10_013023F6:
 BYTE   W12
 BYTE   N06  Gn1  v112
 BYTE   N06  Dn2
 BYTE   W36
 BYTE   N03  Gn1  v100
 BYTE   N03  Dn2
 BYTE   W36
 BYTE   N04  Gn1  v112
 BYTE   N04  Dn2
 BYTE   W12
 BYTE   PEND 
// 027   ----------------------------------------
 BYTE   PATT
  POIN2 Label_10_013023F6
// 028   ----------------------------------------
Label_10_0130240F:
 BYTE   W12
 BYTE   N06  Gn1  v116
 BYTE   N06  Dn2
 BYTE   W36
 BYTE   N03  Gn1  v108
 BYTE   N03  Dn2
 BYTE   W36
 BYTE   N04  Gn1  v116
 BYTE   N04  Dn2
 BYTE   W12
 BYTE   PEND 
// 029   ----------------------------------------
Label_10_01302423:
 BYTE   W12
 BYTE   N06  Gn1  v120
 BYTE   N06  Dn2
 BYTE   W36
 BYTE   N03  Gn1  v112
 BYTE   N03  Dn2
 BYTE   W36
 BYTE   N04  Gn1  v120
 BYTE   N04  Dn2
 BYTE   W12
 BYTE   PEND 
// 030   ----------------------------------------
 BYTE   W96
// 031   ----------------------------------------
 BYTE   W96
// 032   ----------------------------------------
 BYTE   W96
// 033   ----------------------------------------
 BYTE   W96
// 034   ----------------------------------------
 BYTE   W96
// 035   ----------------------------------------
 BYTE   W96
// 036   ----------------------------------------
 BYTE   W96
// 037   ----------------------------------------
 BYTE   W96
// 038   ----------------------------------------
Label_10_0130243F:
 BYTE   N06  As1  v120
 BYTE   N06  Dn2
 BYTE   W36
 BYTE   As1  v116
 BYTE   N06  Dn2
 BYTE   W36
 BYTE   N09  As1  v120
 BYTE   N09  Dn2
 BYTE   W24
 BYTE   PEND 
// 039   ----------------------------------------
Label_10_01302451:
 BYTE   N06  An1  v120
 BYTE   N06  Dn2
 BYTE   W12
 BYTE   N04  An1  v100
 BYTE   N04  Dn2
 BYTE   W24
 BYTE   N06  An1  v116
 BYTE   N06  Dn2
 BYTE   W36
 BYTE   N10  An1
 BYTE   N10  Dn2
 BYTE   W24
 BYTE   PEND 
// 040   ----------------------------------------
Label_10_01302469:
 BYTE   N06  Gn1  v120
 BYTE   N06  Dn2
 BYTE   W36
 BYTE   Gn1  v116
 BYTE   N06  Dn2
 BYTE   W36
 BYTE   N09  Gn1  v120
 BYTE   N09  Dn2
 BYTE   W24
 BYTE   PEND 
// 041   ----------------------------------------
Label_10_0130247B:
 BYTE   N06  Cn2  v120
 BYTE   N06  Ds2
 BYTE   W12
 BYTE   N04  Cn2  v100
 BYTE   N04  Ds2
 BYTE   W24
 BYTE   N06  Cn2  v116
 BYTE   N06  Ds2
 BYTE   W36
 BYTE   N10  Cn2
 BYTE   N10  Ds2
 BYTE   W24
 BYTE   PEND 
// 042   ----------------------------------------
 BYTE   N06  An1  v120
 BYTE   N06  Cs2
 BYTE   W36
 BYTE   An1  v116
 BYTE   N06  Cs2
 BYTE   W36
 BYTE   N09  An1  v120
 BYTE   N09  Cs2
 BYTE   W24
// 043   ----------------------------------------
 BYTE   N06
 BYTE   N06  En2
 BYTE   W12
 BYTE   N04  Cs2  v100
 BYTE   N04  En2
 BYTE   W24
 BYTE   N06  Cs2  v116
 BYTE   N06  En2
 BYTE   W36
 BYTE   N10  Cs2
 BYTE   N10  En2
 BYTE   W24
// 044   ----------------------------------------
Label_10_013024B9:
 BYTE   N06  An1  v120
 BYTE   N06  Dn2
 BYTE   W36
 BYTE   An1  v116
 BYTE   N06  Dn2
 BYTE   W36
 BYTE   N09  An1  v120
 BYTE   N09  Dn2
 BYTE   W24
 BYTE   PEND 
// 045   ----------------------------------------
 BYTE   PATT
  POIN2 Label_10_01302451
// 046   ----------------------------------------
 BYTE   PATT
  POIN2 Label_10_0130243F
// 047   ----------------------------------------
 BYTE   PATT
  POIN2 Label_10_01302451
// 048   ----------------------------------------
 BYTE   PATT
  POIN2 Label_10_01302469
// 049   ----------------------------------------
 BYTE   PATT
  POIN2 Label_10_0130247B
// 050   ----------------------------------------
 BYTE   N06  Gn1  v120
 BYTE   N06  Cs2
 BYTE   W36
 BYTE   Gn1  v116
 BYTE   N06  Cs2
 BYTE   W36
 BYTE   N09  Gn1  v120
 BYTE   N09  Cs2
 BYTE   W24
// 051   ----------------------------------------
 BYTE   N06  Gn1
 BYTE   N06  Cs2
 BYTE   W12
 BYTE   N04  Gn1  v100
 BYTE   N04  Cs2
 BYTE   W24
 BYTE   N06  Gn1  v116
 BYTE   N06  Cs2
 BYTE   W36
 BYTE   N10  Gn1
 BYTE   N10  Cs2
 BYTE   W24
// 052   ----------------------------------------
 BYTE   PATT
  POIN2 Label_10_013024B9
// 053   ----------------------------------------
 BYTE   PATT
  POIN2 Label_10_01302451
// 054   ----------------------------------------
 BYTE   PATT
  POIN2 Label_10_013023F6
// 055   ----------------------------------------
 BYTE   PATT
  POIN2 Label_10_013023F6
// 056   ----------------------------------------
 BYTE   PATT
  POIN2 Label_10_0130240F
// 057   ----------------------------------------
 BYTE   PATT
  POIN2 Label_10_01302423
// 058   ----------------------------------------
 BYTE   W12
 BYTE   N06  Gn1  v112
 BYTE   N06  Dn2
 BYTE   W36
 BYTE   N03  Gn1
 BYTE   N03  Dn2
 BYTE   W36
 BYTE   N04  Gn1  v120
 BYTE   N04  Dn2
 BYTE   W12
// 059   ----------------------------------------
 BYTE   PATT
  POIN2 Label_10_01302423
// 060   ----------------------------------------
 BYTE   W12
 BYTE   N06  Gn1  v127
 BYTE   N06  Dn2
 BYTE   W36
 BYTE   N03  Gn1  v116
 BYTE   N03  Dn2
 BYTE   W36
 BYTE   N04  Gn1
 BYTE   N04  Dn2
 BYTE   W12
// 061   ----------------------------------------
 BYTE   W12
 BYTE   N06  Gn1  v127
 BYTE   N06  Dn2
 BYTE   W36
 BYTE   N03  Gn1  v120
 BYTE   N03  Dn2
 BYTE   W36
 BYTE   N04  Gn1  v127
 BYTE   N04  Dn2
 BYTE   W12
// 062   ----------------------------------------
 BYTE   W96
// 063   ----------------------------------------
 BYTE   W96
// 064   ----------------------------------------
 BYTE   W96
// 065   ----------------------------------------
 BYTE   W96
// 066   ----------------------------------------
 BYTE   W96
// 067   ----------------------------------------
 BYTE   W96
// 068   ----------------------------------------
 BYTE   W96
// 069   ----------------------------------------
 BYTE   W96
// 070   ----------------------------------------
 BYTE   PATT
  POIN2 Label_10_01302302
// 071   ----------------------------------------
 BYTE   PATT
  POIN2 Label_10_01302314
// 072   ----------------------------------------
 BYTE   PATT
  POIN2 Label_10_01302302
// 073   ----------------------------------------
 BYTE   PATT
  POIN2 Label_10_01302325
// 074   ----------------------------------------
 BYTE   GoTo
  POIN2 Label_10_0130233D
 BYTE   FINE

//**************** Track 12 (Midi-Chn.11) ****************//

OldKing_012:
// 000   ----------------------------------------
 BYTE   KEYSH   OldKing_key+0
 BYTE   VOICE   46
 BYTE   VOL   23*OldKing_mvl/mxv
 BYTE   PAN   c_v-24
 BYTE   W96
// 001   ----------------------------------------
 BYTE   W96
// 002   ----------------------------------------
 BYTE   W96
// 003   ----------------------------------------
 BYTE   W96
// 004   ----------------------------------------
 BYTE   W96
// 005   ----------------------------------------
 BYTE   W96
// 006   ----------------------------------------
Label_11_012ADBFE:
 BYTE   W96
// 007   ----------------------------------------
 BYTE   W96
// 008   ----------------------------------------
 BYTE   W96
// 009   ----------------------------------------
 BYTE   W96
// 010   ----------------------------------------
 BYTE   W96
// 011   ----------------------------------------
 BYTE   W96
// 012   ----------------------------------------
 BYTE   W96
// 013   ----------------------------------------
 BYTE   W96
// 014   ----------------------------------------
 BYTE   W96
// 015   ----------------------------------------
 BYTE   W96
// 016   ----------------------------------------
 BYTE   W96
// 017   ----------------------------------------
 BYTE   W96
// 018   ----------------------------------------
 BYTE   W96
// 019   ----------------------------------------
 BYTE   W96
// 020   ----------------------------------------
 BYTE   W96
// 021   ----------------------------------------
 BYTE   W96
// 022   ----------------------------------------
 BYTE   W96
// 023   ----------------------------------------
 BYTE   W96
// 024   ----------------------------------------
 BYTE   W96
// 025   ----------------------------------------
 BYTE   W96
// 026   ----------------------------------------
 BYTE   W96
// 027   ----------------------------------------
 BYTE   W96
// 028   ----------------------------------------
 BYTE   W96
// 029   ----------------------------------------
 BYTE   W96
// 030   ----------------------------------------
Label_11_012ADC16:
 BYTE   N52  Ds1  v112
 BYTE   W04
 BYTE   N04  As1  v108
 BYTE   W04
 BYTE   Ds2
 BYTE   W04
 BYTE   Gn2
 BYTE   W04
 BYTE   As2
 BYTE   W04
 BYTE   Dn3
 BYTE   W04
 BYTE   Ds3
 BYTE   W04
 BYTE   Gn3
 BYTE   W04
 BYTE   As3
 BYTE   W04
 BYTE   Dn4  v100
 BYTE   W04
 BYTE   Ds4
 BYTE   W04
 BYTE   Gn4  v096
 BYTE   W04
 BYTE   As4
 BYTE   W48
 BYTE   PEND 
// 031   ----------------------------------------
 BYTE   W96
// 032   ----------------------------------------
 BYTE   N52  Dn1  v112
 BYTE   W04
 BYTE   N04  An1  v108
 BYTE   W04
 BYTE   Dn2
 BYTE   W04
 BYTE   En2
 BYTE   W04
 BYTE   Fn2
 BYTE   W04
 BYTE   An2
 BYTE   W04
 BYTE   Dn3
 BYTE   W04
 BYTE   En3
 BYTE   W04
 BYTE   Fn3
 BYTE   W04
 BYTE   An3  v100
 BYTE   W04
 BYTE   Dn4
 BYTE   W04
 BYTE   En4  v096
 BYTE   W04
 BYTE   Fn4
 BYTE   W48
// 033   ----------------------------------------
 BYTE   W96
// 034   ----------------------------------------
 BYTE   PATT
  POIN2 Label_11_012ADC16
// 035   ----------------------------------------
 BYTE   W96
// 036   ----------------------------------------
 BYTE   N52  Dn1  v112
 BYTE   W04
 BYTE   N04  An1  v108
 BYTE   W04
 BYTE   Dn2
 BYTE   W04
 BYTE   En2
 BYTE   W04
 BYTE   Fs2
 BYTE   W04
 BYTE   An2
 BYTE   W04
 BYTE   Dn3
 BYTE   W04
 BYTE   En3
 BYTE   W04
 BYTE   Fs3
 BYTE   W04
 BYTE   An3  v100
 BYTE   W04
 BYTE   Dn4
 BYTE   W04
 BYTE   En4  v096
 BYTE   W04
 BYTE   Fs4
 BYTE   W48
// 037   ----------------------------------------
 BYTE   W96
// 038   ----------------------------------------
 BYTE   W96
// 039   ----------------------------------------
 BYTE   W96
// 040   ----------------------------------------
 BYTE   W96
// 041   ----------------------------------------
 BYTE   W96
// 042   ----------------------------------------
 BYTE   W96
// 043   ----------------------------------------
 BYTE   W96
// 044   ----------------------------------------
 BYTE   W96
// 045   ----------------------------------------
 BYTE   W96
// 046   ----------------------------------------
 BYTE   W96
// 047   ----------------------------------------
 BYTE   W96
// 048   ----------------------------------------
 BYTE   W96
// 049   ----------------------------------------
 BYTE   W96
// 050   ----------------------------------------
 BYTE   W96
// 051   ----------------------------------------
 BYTE   W96
// 052   ----------------------------------------
 BYTE   W96
// 053   ----------------------------------------
 BYTE   W96
// 054   ----------------------------------------
 BYTE   W96
// 055   ----------------------------------------
 BYTE   W96
// 056   ----------------------------------------
 BYTE   W96
// 057   ----------------------------------------
 BYTE   W96
// 058   ----------------------------------------
 BYTE   W96
// 059   ----------------------------------------
 BYTE   W96
// 060   ----------------------------------------
 BYTE   W96
// 061   ----------------------------------------
 BYTE   W96
// 062   ----------------------------------------
 BYTE   W96
// 063   ----------------------------------------
 BYTE   W96
// 064   ----------------------------------------
 BYTE   W24
 BYTE   TIE  Gn0  v108
 BYTE   TIE  Gn1
 BYTE   W24
 BYTE   N24  Dn2
 BYTE   W24
 BYTE   Gn2
 BYTE   W24
// 065   ----------------------------------------
 BYTE   As2
 BYTE   W24
 BYTE   Cn3
 BYTE   W24
 BYTE   Dn3  v100
 BYTE   W24
 BYTE   Gn3  v096
 BYTE   W24
// 066   ----------------------------------------
 BYTE   EOT
 BYTE   Gn0  v043
 BYTE   W96
// 067   ----------------------------------------
 BYTE   W96
// 068   ----------------------------------------
 BYTE   W96
// 069   ----------------------------------------
 BYTE   W96
// 070   ----------------------------------------
 BYTE   W96
// 071   ----------------------------------------
 BYTE   W96
// 072   ----------------------------------------
 BYTE   W96
// 073   ----------------------------------------
 BYTE   W96
// 074   ----------------------------------------
 BYTE   GoTo
  POIN2 Label_11_012ADBFE
 BYTE   FINE

//**************** Track 13 (Midi-Chn.12) ****************//

OldKing_013:
// 000   ----------------------------------------
 BYTE   KEYSH   OldKing_key+0
 BYTE   VOICE   45
 BYTE   VOL   23*OldKing_mvl/mxv
 BYTE   PAN   c_v-2
 BYTE   W96
// 001   ----------------------------------------
 BYTE   W96
// 002   ----------------------------------------
 BYTE   W96
// 003   ----------------------------------------
 BYTE   W96
// 004   ----------------------------------------
 BYTE   W96
// 005   ----------------------------------------
 BYTE   W96
// 006   ----------------------------------------
Label_12_012AE7FE:
 BYTE   W96
// 007   ----------------------------------------
 BYTE   W96
// 008   ----------------------------------------
 BYTE   W96
// 009   ----------------------------------------
 BYTE   W96
// 010   ----------------------------------------
 BYTE   W96
// 011   ----------------------------------------
 BYTE   W96
// 012   ----------------------------------------
 BYTE   W96
// 013   ----------------------------------------
 BYTE   W96
// 014   ----------------------------------------
 BYTE   W96
// 015   ----------------------------------------
 BYTE   W96
// 016   ----------------------------------------
 BYTE   W96
// 017   ----------------------------------------
 BYTE   W96
// 018   ----------------------------------------
 BYTE   W96
// 019   ----------------------------------------
 BYTE   W96
// 020   ----------------------------------------
 BYTE   W96
// 021   ----------------------------------------
 BYTE   W96
// 022   ----------------------------------------
 BYTE   W96
// 023   ----------------------------------------
 BYTE   W96
// 024   ----------------------------------------
 BYTE   W96
// 025   ----------------------------------------
 BYTE   W96
// 026   ----------------------------------------
 BYTE   W96
// 027   ----------------------------------------
 BYTE   W96
// 028   ----------------------------------------
 BYTE   W96
// 029   ----------------------------------------
 BYTE   W96
// 030   ----------------------------------------
Label_12_012AE816:
 BYTE   W12
 BYTE   N12  Gn3  v108
 BYTE   N12  Dn4
 BYTE   W12
 BYTE   As3
 BYTE   N12  Gn4
 BYTE   W12
 BYTE   Dn4
 BYTE   N12  As4
 BYTE   W60
 BYTE   PEND 
// 031   ----------------------------------------
Label_12_012AE826:
 BYTE   W24
 BYTE   N12  Dn4  v108
 BYTE   W01
 BYTE   As4  v100
 BYTE   W32
 BYTE   W03
 BYTE   As3
 BYTE   N12  Gn4  v096
 BYTE   W36
 BYTE   PEND 
// 032   ----------------------------------------
 BYTE   W12
 BYTE   An3  v108
 BYTE   N12  Dn4
 BYTE   W12
 BYTE   An3
 BYTE   N12  Fn4
 BYTE   W12
 BYTE   Dn4
 BYTE   N12  An4
 BYTE   W60
// 033   ----------------------------------------
 BYTE   W24
 BYTE   Dn4
 BYTE   W01
 BYTE   An4  v100
 BYTE   W32
 BYTE   W03
 BYTE   An3
 BYTE   N12  Fn4  v096
 BYTE   W36
// 034   ----------------------------------------
 BYTE   PATT
  POIN2 Label_12_012AE816
// 035   ----------------------------------------
 BYTE   PATT
  POIN2 Label_12_012AE826
// 036   ----------------------------------------
 BYTE   W12
 BYTE   N12  An3  v108
 BYTE   N12  Dn4
 BYTE   W12
 BYTE   An3
 BYTE   N12  Fs4
 BYTE   W12
 BYTE   Dn4
 BYTE   N12  An4
 BYTE   W60
// 037   ----------------------------------------
 BYTE   W24
 BYTE   Dn4
 BYTE   W01
 BYTE   An4  v100
 BYTE   W32
 BYTE   W03
 BYTE   An3
 BYTE   N12  Fs4  v096
 BYTE   W36
// 038   ----------------------------------------
 BYTE   W96
// 039   ----------------------------------------
 BYTE   W96
// 040   ----------------------------------------
 BYTE   W96
// 041   ----------------------------------------
 BYTE   W96
// 042   ----------------------------------------
 BYTE   W96
// 043   ----------------------------------------
 BYTE   W96
// 044   ----------------------------------------
 BYTE   W96
// 045   ----------------------------------------
 BYTE   W96
// 046   ----------------------------------------
 BYTE   W96
// 047   ----------------------------------------
 BYTE   W96
// 048   ----------------------------------------
 BYTE   W96
// 049   ----------------------------------------
 BYTE   W96
// 050   ----------------------------------------
 BYTE   W96
// 051   ----------------------------------------
 BYTE   W96
// 052   ----------------------------------------
 BYTE   W96
// 053   ----------------------------------------
 BYTE   W96
// 054   ----------------------------------------
 BYTE   W96
// 055   ----------------------------------------
 BYTE   W96
// 056   ----------------------------------------
 BYTE   W96
// 057   ----------------------------------------
 BYTE   W96
// 058   ----------------------------------------
 BYTE   W96
// 059   ----------------------------------------
 BYTE   W96
// 060   ----------------------------------------
 BYTE   W96
// 061   ----------------------------------------
 BYTE   W96
// 062   ----------------------------------------
 BYTE   W48
 BYTE   N48  Dn3  v100
 BYTE   N48  Gn3
 BYTE   N48  An3
 BYTE   W48
// 063   ----------------------------------------
 BYTE   W96
// 064   ----------------------------------------
 BYTE   W96
// 065   ----------------------------------------
 BYTE   W96
// 066   ----------------------------------------
 BYTE   W96
// 067   ----------------------------------------
 BYTE   W96
// 068   ----------------------------------------
 BYTE   W96
// 069   ----------------------------------------
 BYTE   W96
// 070   ----------------------------------------
 BYTE   W96
// 071   ----------------------------------------
 BYTE   W96
// 072   ----------------------------------------
 BYTE   W96
// 073   ----------------------------------------
 BYTE   W96
// 074   ----------------------------------------
 BYTE   GoTo
  POIN2 Label_12_012AE7FE
 BYTE   FINE

//**************** Track 14 (Midi-Chn.13) ****************//

OldKing_014:
// 000   ----------------------------------------
 BYTE   KEYSH   OldKing_key+0
 BYTE   VOICE   45
 BYTE   VOL   27*OldKing_mvl/mxv
 BYTE   PAN   c_v+4
 BYTE   W96
// 001   ----------------------------------------
 BYTE   W96
// 002   ----------------------------------------
 BYTE   W96
// 003   ----------------------------------------
 BYTE   W96
// 004   ----------------------------------------
 BYTE   W96
// 005   ----------------------------------------
 BYTE   W96
// 006   ----------------------------------------
Label_13_0130266A:
 BYTE   W96
// 007   ----------------------------------------
 BYTE   W96
// 008   ----------------------------------------
 BYTE   W96
// 009   ----------------------------------------
 BYTE   W96
// 010   ----------------------------------------
 BYTE   W96
// 011   ----------------------------------------
 BYTE   W96
// 012   ----------------------------------------
 BYTE   W96
// 013   ----------------------------------------
 BYTE   W96
// 014   ----------------------------------------
 BYTE   W96
// 015   ----------------------------------------
 BYTE   W96
// 016   ----------------------------------------
 BYTE   W96
// 017   ----------------------------------------
 BYTE   W96
// 018   ----------------------------------------
 BYTE   W96
// 019   ----------------------------------------
 BYTE   W96
// 020   ----------------------------------------
 BYTE   W96
// 021   ----------------------------------------
 BYTE   W96
// 022   ----------------------------------------
 BYTE   W96
// 023   ----------------------------------------
 BYTE   W96
// 024   ----------------------------------------
 BYTE   W96
// 025   ----------------------------------------
 BYTE   W96
// 026   ----------------------------------------
 BYTE   W96
// 027   ----------------------------------------
 BYTE   W96
// 028   ----------------------------------------
 BYTE   W96
// 029   ----------------------------------------
 BYTE   W96
// 030   ----------------------------------------
Label_13_01302682:
 BYTE   N12  Ds1  v116
 BYTE   N12  Ds2
 BYTE   W36
 BYTE   As1
 BYTE   N12  Gn2
 BYTE   W36
 BYTE   Ds2
 BYTE   N12  As2
 BYTE   W24
 BYTE   PEND 
// 031   ----------------------------------------
 BYTE   PATT
  POIN2 Label_13_01302682
// 032   ----------------------------------------
Label_13_01302696:
 BYTE   N12  Dn1  v116
 BYTE   N12  Dn2
 BYTE   W36
 BYTE   An1
 BYTE   N12  Fn2
 BYTE   W36
 BYTE   Dn2
 BYTE   N12  An2
 BYTE   W24
 BYTE   PEND 
// 033   ----------------------------------------
 BYTE   PATT
  POIN2 Label_13_01302696
// 034   ----------------------------------------
 BYTE   PATT
  POIN2 Label_13_01302682
// 035   ----------------------------------------
 BYTE   PATT
  POIN2 Label_13_01302682
// 036   ----------------------------------------
Label_13_013026B4:
 BYTE   N12  Dn1  v116
 BYTE   N12  Dn2
 BYTE   W36
 BYTE   An1
 BYTE   N12  Fs2
 BYTE   W36
 BYTE   Dn2
 BYTE   N12  An2
 BYTE   W24
 BYTE   PEND 
// 037   ----------------------------------------
 BYTE   PATT
  POIN2 Label_13_013026B4
// 038   ----------------------------------------
 BYTE   W96
// 039   ----------------------------------------
 BYTE   W96
// 040   ----------------------------------------
 BYTE   W96
// 041   ----------------------------------------
 BYTE   W96
// 042   ----------------------------------------
 BYTE   W96
// 043   ----------------------------------------
 BYTE   W96
// 044   ----------------------------------------
 BYTE   W96
// 045   ----------------------------------------
 BYTE   W96
// 046   ----------------------------------------
 BYTE   W96
// 047   ----------------------------------------
 BYTE   W96
// 048   ----------------------------------------
 BYTE   W96
// 049   ----------------------------------------
 BYTE   W96
// 050   ----------------------------------------
 BYTE   W96
// 051   ----------------------------------------
 BYTE   W96
// 052   ----------------------------------------
 BYTE   W96
// 053   ----------------------------------------
 BYTE   W96
// 054   ----------------------------------------
 BYTE   W96
// 055   ----------------------------------------
 BYTE   W96
// 056   ----------------------------------------
 BYTE   W96
// 057   ----------------------------------------
 BYTE   W96
// 058   ----------------------------------------
 BYTE   W96
// 059   ----------------------------------------
 BYTE   W96
// 060   ----------------------------------------
 BYTE   W96
// 061   ----------------------------------------
 BYTE   W96
// 062   ----------------------------------------
 BYTE   N48  Gn1  v112
 BYTE   N48  Gn2  v100
 BYTE   W96
// 063   ----------------------------------------
 BYTE   W96
// 064   ----------------------------------------
 BYTE   W96
// 065   ----------------------------------------
 BYTE   W96
// 066   ----------------------------------------
 BYTE   W96
// 067   ----------------------------------------
 BYTE   W96
// 068   ----------------------------------------
 BYTE   W96
// 069   ----------------------------------------
 BYTE   W96
// 070   ----------------------------------------
 BYTE   W96
// 071   ----------------------------------------
 BYTE   W96
// 072   ----------------------------------------
 BYTE   W96
// 073   ----------------------------------------
 BYTE   W96
// 074   ----------------------------------------
 BYTE   GoTo
  POIN2 Label_13_0130266A
 BYTE   FINE

//**************** Track 15 (Midi-Chn.14) ****************//

OldKing_015:
// 000   ----------------------------------------
 BYTE   KEYSH   OldKing_key+0
 BYTE   VOICE   47
 BYTE   VOL   35*OldKing_mvl/mxv
 BYTE   PAN   c_v+16
 BYTE   N12  Dn1  v127
 BYTE   W12
 BYTE   An1  v112
 BYTE   W12
 BYTE   An1  v092
 BYTE   W12
 BYTE   Dn1  v127
 BYTE   W12
 BYTE   An1  v112
 BYTE   W12
 BYTE   An1  v092
 BYTE   W12
 BYTE   Dn1  v127
 BYTE   W12
 BYTE   An1  v100
 BYTE   W12
// 001   ----------------------------------------
 BYTE   Dn1  v127
 BYTE   W24
 BYTE   Dn1  v120
 BYTE   W12
 BYTE   An1  v112
 BYTE   W24
 BYTE   An1  v092
 BYTE   W12
 BYTE   Dn1  v127
 BYTE   W12
 BYTE   N06  An1  v112
 BYTE   W06
 BYTE   N02  An1  v120
 BYTE   W02
 BYTE   An1  v112
 BYTE   W02
 BYTE   An1  v120
 BYTE   W02
// 002   ----------------------------------------
Label_14_01302736:
 BYTE   N12  Gn1  v127
 BYTE   W12
 BYTE   Dn1  v096
 BYTE   W12
 BYTE   Dn1  v076
 BYTE   W12
 BYTE   Gn1  v116
 BYTE   W12
 BYTE   Dn1  v096
 BYTE   W12
 BYTE   Dn1  v076
 BYTE   W12
 BYTE   Gn1  v116
 BYTE   W12
 BYTE   Dn1  v088
 BYTE   W12
 BYTE   PEND 
// 003   ----------------------------------------
Label_14_01302750:
 BYTE   N12  Gn1  v116
 BYTE   W24
 BYTE   Gn1  v108
 BYTE   W12
 BYTE   Dn1  v096
 BYTE   W24
 BYTE   Dn1  v076
 BYTE   W12
 BYTE   Gn1  v116
 BYTE   W12
 BYTE   Dn1  v108
 BYTE   W12
 BYTE   PEND 
// 004   ----------------------------------------
Label_14_01302764:
 BYTE   N12  Gn1  v116
 BYTE   W24
 BYTE   Dn1  v076
 BYTE   W12
 BYTE   Gn1  v116
 BYTE   W12
 BYTE   Dn1  v096
 BYTE   W12
 BYTE   Dn1  v076
 BYTE   W12
 BYTE   Gn1  v116
 BYTE   W12
 BYTE   Dn1  v088
 BYTE   W12
 BYTE   PEND 
// 005   ----------------------------------------
 BYTE   Gn1  v116
 BYTE   W24
 BYTE   Gn1  v108
 BYTE   W12
 BYTE   Dn1  v096
 BYTE   W24
 BYTE   Dn1  v076
 BYTE   W12
 BYTE   Gn1  v116
 BYTE   W12
 BYTE   N06  Dn1  v108
 BYTE   W06
 BYTE   N02  Dn1  v116
 BYTE   W02
 BYTE   Dn1  v108
 BYTE   W04
// 006   ----------------------------------------
Label_14_01302795:
 BYTE   N02  Dn1  v116
 BYTE   N12  Ds1  v127
 BYTE   W24
 BYTE   As1  v088
 BYTE   W12
 BYTE   Ds1  v127
 BYTE   W24
 BYTE   Ds1  v108
 BYTE   W12
 BYTE   As1  v116
 BYTE   W12
 BYTE   Ds1  v096
 BYTE   W12
// 007   ----------------------------------------
Label_14_013027AB:
 BYTE   N12  Ds1  v127
 BYTE   W24
 BYTE   Ds1  v116
 BYTE   W12
 BYTE   As1  v108
 BYTE   W24
 BYTE   As1  v088
 BYTE   W12
 BYTE   Ds1  v127
 BYTE   W12
 BYTE   As1  v116
 BYTE   W12
 BYTE   PEND 
// 008   ----------------------------------------
Label_14_013027BF:
 BYTE   N12  Ds1  v127
 BYTE   W24
 BYTE   As1  v088
 BYTE   W12
 BYTE   Ds1  v127
 BYTE   W24
 BYTE   Ds1  v108
 BYTE   W12
 BYTE   As1  v116
 BYTE   W12
 BYTE   Ds1  v096
 BYTE   W12
 BYTE   PEND 
// 009   ----------------------------------------
Label_14_013027D3:
 BYTE   N12  Ds1  v127
 BYTE   W24
 BYTE   Ds1  v116
 BYTE   W12
 BYTE   As1  v108
 BYTE   W24
 BYTE   As1  v096
 BYTE   W12
 BYTE   Ds1  v127
 BYTE   W12
 BYTE   As1  v116
 BYTE   W12
 BYTE   PEND 
// 010   ----------------------------------------
Label_14_013027E7:
 BYTE   N12  Cn1  v127
 BYTE   W24
 BYTE   Gn1  v088
 BYTE   W12
 BYTE   Cn1  v127
 BYTE   W12
 BYTE   Gn1  v108
 BYTE   W12
 BYTE   Gn1  v088
 BYTE   W12
 BYTE   Cn1  v127
 BYTE   W12
 BYTE   Gn1  v096
 BYTE   W12
 BYTE   PEND 
// 011   ----------------------------------------
 BYTE   As1  v127
 BYTE   W24
 BYTE   As1  v116
 BYTE   W12
 BYTE   Fn1  v108
 BYTE   W24
 BYTE   Fn1  v088
 BYTE   W12
 BYTE   As1  v127
 BYTE   W12
 BYTE   Fn1  v108
 BYTE   W12
// 012   ----------------------------------------
 BYTE   An1  v127
 BYTE   W24
 BYTE   Ds1  v088
 BYTE   W12
 BYTE   An1  v127
 BYTE   W12
 BYTE   Ds1  v108
 BYTE   W12
 BYTE   Ds1  v088
 BYTE   W12
 BYTE   An1  v127
 BYTE   W12
 BYTE   Ds1  v096
 BYTE   W12
// 013   ----------------------------------------
Label_14_01302825:
 BYTE   N12  Dn1  v127
 BYTE   W24
 BYTE   Dn1  v116
 BYTE   W12
 BYTE   An1  v108
 BYTE   W24
 BYTE   An1  v088
 BYTE   W12
 BYTE   Dn1  v127
 BYTE   W12
 BYTE   An1  v108
 BYTE   W12
 BYTE   PEND 
// 014   ----------------------------------------
 BYTE   PATT
  POIN2 Label_14_01302736
// 015   ----------------------------------------
 BYTE   PATT
  POIN2 Label_14_01302750
// 016   ----------------------------------------
 BYTE   PATT
  POIN2 Label_14_01302764
// 017   ----------------------------------------
Label_14_01302848:
 BYTE   N12  Gn1  v116
 BYTE   W24
 BYTE   Gn1  v108
 BYTE   W12
 BYTE   Dn1  v096
 BYTE   W24
 BYTE   Dn1  v076
 BYTE   W12
 BYTE   Gn1  v116
 BYTE   W12
 BYTE   N06  Dn1  v108
 BYTE   W06
 BYTE   N02  Dn1  v116
 BYTE   W02
 BYTE   Dn1  v108
 BYTE   W02
 BYTE   Dn1  v116
 BYTE   W02
 BYTE   PEND 
// 018   ----------------------------------------
 BYTE   PATT
  POIN2 Label_14_013027BF
// 019   ----------------------------------------
 BYTE   PATT
  POIN2 Label_14_013027AB
// 020   ----------------------------------------
 BYTE   PATT
  POIN2 Label_14_013027BF
// 021   ----------------------------------------
 BYTE   PATT
  POIN2 Label_14_013027D3
// 022   ----------------------------------------
 BYTE   PATT
  POIN2 Label_14_013027E7
// 023   ----------------------------------------
 BYTE   PATT
  POIN2 Label_14_01302825
// 024   ----------------------------------------
 BYTE   N12  Ds1  v127
 BYTE   W24
 BYTE   As1  v088
 BYTE   W12
 BYTE   Ds1  v127
 BYTE   W12
 BYTE   As1  v108
 BYTE   W12
 BYTE   As1  v088
 BYTE   W12
 BYTE   Ds1  v127
 BYTE   W12
 BYTE   Dn1  v096
 BYTE   W12
// 025   ----------------------------------------
 BYTE   Dn1  v127
 BYTE   W24
 BYTE   Dn1  v116
 BYTE   W12
 BYTE   An1  v108
 BYTE   W24
 BYTE   An1  v088
 BYTE   W12
 BYTE   Dn1  v127
 BYTE   W12
 BYTE   N04  An1
 BYTE   W04
 BYTE   N04
 BYTE   W04
 BYTE   N04
 BYTE   W04
// 026   ----------------------------------------
Label_14_013028B1:
 BYTE   N12  Gn1  v127
 BYTE   W24
 BYTE   Dn1  v088
 BYTE   W12
 BYTE   Gn1  v127
 BYTE   W12
 BYTE   Dn1  v108
 BYTE   W12
 BYTE   Dn1  v088
 BYTE   W12
 BYTE   Gn1  v127
 BYTE   W12
 BYTE   Dn1  v096
 BYTE   W12
 BYTE   PEND 
// 027   ----------------------------------------
Label_14_013028C8:
 BYTE   N12  Gn1  v127
 BYTE   W24
 BYTE   Gn1  v116
 BYTE   W12
 BYTE   Dn1  v108
 BYTE   W24
 BYTE   Dn1  v088
 BYTE   W12
 BYTE   Gn1  v127
 BYTE   W12
 BYTE   Dn1  v108
 BYTE   W12
 BYTE   PEND 
// 028   ----------------------------------------
 BYTE   PATT
  POIN2 Label_14_013028B1
// 029   ----------------------------------------
 BYTE   PATT
  POIN2 Label_14_013028C8
// 030   ----------------------------------------
 BYTE   N24  Ds1  v108
 BYTE   W96
// 031   ----------------------------------------
Label_14_013028EA:
 BYTE   W36
 BYTE   N12  As1  v088
 BYTE   W36
 BYTE   As1  v096
 BYTE   W24
 BYTE   PEND 
// 032   ----------------------------------------
 BYTE   Dn1
 BYTE   W96
// 033   ----------------------------------------
 BYTE   Dn1  v088
 BYTE   W36
 BYTE   An1  v096
 BYTE   W36
 BYTE   Dn1
 BYTE   W12
 BYTE   Dn1  v088
 BYTE   W12
// 034   ----------------------------------------
 BYTE   Ds1  v108
 BYTE   W36
 BYTE   As1  v088
 BYTE   W60
// 035   ----------------------------------------
 BYTE   PATT
  POIN2 Label_14_013028EA
// 036   ----------------------------------------
 BYTE   N12  Dn1  v096
 BYTE   W96
// 037   ----------------------------------------
 BYTE   N12
 BYTE   W36
 BYTE   An1  v108
 BYTE   W36
 BYTE   N06  Dn1
 BYTE   W06
 BYTE   Dn1  v088
 BYTE   W06
 BYTE   N04  Dn1  v116
 BYTE   W04
 BYTE   Dn1  v127
 BYTE   W04
 BYTE   N04
 BYTE   W04
// 038   ----------------------------------------
 BYTE   PATT
  POIN2 Label_14_01302736
// 039   ----------------------------------------
Label_14_01302928:
 BYTE   N12  An1  v116
 BYTE   W24
 BYTE   An1  v108
 BYTE   W12
 BYTE   Dn1  v096
 BYTE   W24
 BYTE   Dn1  v076
 BYTE   W12
 BYTE   An1  v116
 BYTE   W12
 BYTE   Dn1  v108
 BYTE   W12
 BYTE   PEND 
// 040   ----------------------------------------
Label_14_0130293C:
 BYTE   N12  As1  v127
 BYTE   W12
 BYTE   Gn1  v096
 BYTE   W12
 BYTE   Gn1  v076
 BYTE   W12
 BYTE   As1  v116
 BYTE   W12
 BYTE   Gn1  v096
 BYTE   W12
 BYTE   Gn1  v076
 BYTE   W12
 BYTE   As1  v116
 BYTE   W12
 BYTE   Gn1  v088
 BYTE   W12
 BYTE   PEND 
// 041   ----------------------------------------
 BYTE   Cn2  v116
 BYTE   W24
 BYTE   Cn2  v108
 BYTE   W12
 BYTE   Gn1  v096
 BYTE   W24
 BYTE   Gn1  v076
 BYTE   W12
 BYTE   Cn2  v116
 BYTE   W12
 BYTE   Cn2  v108
 BYTE   W12
// 042   ----------------------------------------
 BYTE   Cs2  v127
 BYTE   W12
 BYTE   An1  v096
 BYTE   W12
 BYTE   An1  v076
 BYTE   W12
 BYTE   Cs2  v116
 BYTE   W12
 BYTE   An1  v096
 BYTE   W12
 BYTE   An1  v076
 BYTE   W12
 BYTE   Cs2  v116
 BYTE   W12
 BYTE   An1  v088
 BYTE   W12
// 043   ----------------------------------------
 BYTE   An1  v116
 BYTE   W24
 BYTE   An1  v108
 BYTE   W12
 BYTE   En1  v096
 BYTE   W24
 BYTE   En1  v076
 BYTE   W12
 BYTE   An1  v116
 BYTE   W12
 BYTE   En1  v108
 BYTE   W12
// 044   ----------------------------------------
Label_14_01302992:
 BYTE   N12  Dn1  v127
 BYTE   W12
 BYTE   An1  v096
 BYTE   W12
 BYTE   An1  v076
 BYTE   W12
 BYTE   Dn1  v116
 BYTE   W12
 BYTE   An1  v096
 BYTE   W12
 BYTE   An1  v076
 BYTE   W12
 BYTE   Dn1  v116
 BYTE   W12
 BYTE   An1  v088
 BYTE   W12
 BYTE   PEND 
// 045   ----------------------------------------
Label_14_013029AC:
 BYTE   N12  Dn1  v116
 BYTE   W24
 BYTE   Dn1  v108
 BYTE   W12
 BYTE   An1  v096
 BYTE   W24
 BYTE   An1  v076
 BYTE   W12
 BYTE   Dn1  v116
 BYTE   W12
 BYTE   An1  v108
 BYTE   W12
 BYTE   PEND 
// 046   ----------------------------------------
 BYTE   PATT
  POIN2 Label_14_01302736
// 047   ----------------------------------------
 BYTE   PATT
  POIN2 Label_14_01302928
// 048   ----------------------------------------
 BYTE   PATT
  POIN2 Label_14_0130293C
// 049   ----------------------------------------
 BYTE   N12  Cn2  v116
 BYTE   W24
 BYTE   Cn2  v108
 BYTE   W12
 BYTE   Gn1  v096
 BYTE   W24
 BYTE   Gn1  v076
 BYTE   W12
 BYTE   Cn2  v116
 BYTE   W12
 BYTE   Gn1  v108
 BYTE   W12
// 050   ----------------------------------------
 BYTE   Cs2  v127
 BYTE   W12
 BYTE   Gn1  v096
 BYTE   W12
 BYTE   Gn1  v076
 BYTE   W12
 BYTE   Cs2  v116
 BYTE   W12
 BYTE   Gn1  v096
 BYTE   W12
 BYTE   Gn1  v076
 BYTE   W12
 BYTE   Cs2  v116
 BYTE   W12
 BYTE   Gn1  v088
 BYTE   W12
// 051   ----------------------------------------
 BYTE   Gn1  v116
 BYTE   W24
 BYTE   Gn1  v108
 BYTE   W12
 BYTE   Cs2  v096
 BYTE   W24
 BYTE   Cs2  v076
 BYTE   W12
 BYTE   Gn1  v116
 BYTE   W12
 BYTE   Cs2  v108
 BYTE   W12
// 052   ----------------------------------------
 BYTE   PATT
  POIN2 Label_14_01302992
// 053   ----------------------------------------
 BYTE   PATT
  POIN2 Label_14_013029AC
// 054   ----------------------------------------
 BYTE   PATT
  POIN2 Label_14_013028B1
// 055   ----------------------------------------
 BYTE   PATT
  POIN2 Label_14_013028C8
// 056   ----------------------------------------
 BYTE   PATT
  POIN2 Label_14_013028B1
// 057   ----------------------------------------
 BYTE   PATT
  POIN2 Label_14_013028C8
// 058   ----------------------------------------
 BYTE   PATT
  POIN2 Label_14_013028B1
// 059   ----------------------------------------
 BYTE   N12  Gn1  v127
 BYTE   W24
 BYTE   Gn1  v116
 BYTE   W12
 BYTE   Dn1
 BYTE   W24
 BYTE   Dn1  v088
 BYTE   W12
 BYTE   Gn1  v127
 BYTE   W12
 BYTE   Dn1  v108
 BYTE   W12
// 060   ----------------------------------------
 BYTE   PATT
  POIN2 Label_14_013028B1
// 061   ----------------------------------------
 BYTE   N12  Gn1  v127
 BYTE   W24
 BYTE   Gn1  v116
 BYTE   W12
 BYTE   Dn1
 BYTE   W24
 BYTE   Dn1  v088
 BYTE   W12
 BYTE   Gn1  v127
 BYTE   W12
 BYTE   N04  Gn1  v116
 BYTE   W04
 BYTE   Gn1  v127
 BYTE   W04
 BYTE   N04
 BYTE   W04
// 062   ----------------------------------------
 BYTE   N24
 BYTE   W96
// 063   ----------------------------------------
 BYTE   W96
// 064   ----------------------------------------
 BYTE   W96
// 065   ----------------------------------------
 BYTE   W84
 BYTE   N04  Dn1  v096
 BYTE   W04
 BYTE   Dn1  v108
 BYTE   W04
 BYTE   Dn1  v116
 BYTE   W04
// 066   ----------------------------------------
 BYTE   N12  Gn1
 BYTE   W12
 BYTE   Dn1  v088
 BYTE   W12
 BYTE   Dn1  v068
 BYTE   W12
 BYTE   Gn1  v108
 BYTE   W12
 BYTE   Dn1  v088
 BYTE   W12
 BYTE   Dn1  v068
 BYTE   W12
 BYTE   Gn1  v108
 BYTE   W12
 BYTE   Dn1  v076
 BYTE   W12
// 067   ----------------------------------------
 BYTE   Gn1  v108
 BYTE   W24
 BYTE   Gn1  v096
 BYTE   W12
 BYTE   Dn1  v088
 BYTE   W24
 BYTE   Dn1  v068
 BYTE   W12
 BYTE   Gn1  v108
 BYTE   W12
 BYTE   Dn1  v096
 BYTE   W12
// 068   ----------------------------------------
 BYTE   Gn1  v120
 BYTE   W12
 BYTE   Dn1  v100
 BYTE   W12
 BYTE   Dn1  v080
 BYTE   W12
 BYTE   Gn1  v120
 BYTE   W12
 BYTE   Dn1  v100
 BYTE   W12
 BYTE   Dn1  v080
 BYTE   W12
 BYTE   Gn1  v120
 BYTE   W12
 BYTE   Dn1  v092
 BYTE   W12
// 069   ----------------------------------------
 BYTE   Gn1  v127
 BYTE   W24
 BYTE   Gn1  v112
 BYTE   W12
 BYTE   Dn1  v100
 BYTE   W24
 BYTE   Dn1  v080
 BYTE   W12
 BYTE   Gn1  v127
 BYTE   W12
 BYTE   N06  Dn1  v100
 BYTE   W06
 BYTE   N02  Dn1  v112
 BYTE   W02
 BYTE   Dn1  v100
 BYTE   W02
 BYTE   Dn1  v112
 BYTE   W02
// 070   ----------------------------------------
 BYTE   PATT
  POIN2 Label_14_01302736
// 071   ----------------------------------------
 BYTE   PATT
  POIN2 Label_14_01302750
// 072   ----------------------------------------
 BYTE   PATT
  POIN2 Label_14_01302764
// 073   ----------------------------------------
 BYTE   PATT
  POIN2 Label_14_01302848
// 074   ----------------------------------------
 BYTE   GoTo
  POIN2 Label_14_01302795
 BYTE   FINE

//******************************************************//
	ALIGN 4

OldKing:
	BYTE	15	// NumTrks
	BYTE	0	// NumBlks
	BYTE	OldKing_pri	// Priority
	BYTE	OldKing_rev	// Reverb.
    
	POIN2	OldKing_grp
    
	POIN2	OldKing_001
	POIN2	OldKing_002
	POIN2	OldKing_003
	POIN2	OldKing_004
	POIN2	OldKing_005
	POIN2	OldKing_006
	POIN2	OldKing_007
	POIN2	OldKing_008
	POIN2	OldKing_009
	POIN2	OldKing_010
	POIN2	OldKing_011
	POIN2	OldKing_012
	POIN2	OldKing_013
	POIN2	OldKing_014
	POIN2	OldKing_015

	
