//Event file generated from Sappy .s format.
	#include "MPlayDef.event"

	#define	TenseMovementsAlt_grp  voicegroup000
	#define	TenseMovementsAlt_pri  0
	#define	TenseMovementsAlt_rev  192
	#define	TenseMovementsAlt_mvl  127
	#define	TenseMovementsAlt_key  0
	#define	TenseMovementsAlt_tbs  1
	#define	TenseMovementsAlt_exg  0
	#define	TenseMovementsAlt_cmp  1

	// .rodata
	//	TenseMovementsAlt
	ALIGN 4


//**************** Track 1 (Midi-Chn.0) ****************//

TenseMovementsAlt_001:
//  #01 //000   ----------------------------------------
 BYTE   KEYSH   TenseMovementsAlt_key+0
 BYTE   TEMPO   162*TenseMovementsAlt_tbs/2
 BYTE   VOICE   52
 BYTE   VOL   24*TenseMovementsAlt_mvl/mxv
 BYTE   PAN   c_v-14
 BYTE   W96
//  #01 //001   ----------------------------------------
 BYTE   W96
//  #01 //002   ----------------------------------------
 BYTE   W96
//  #01 //003   ----------------------------------------
 BYTE   N48  Cn3  v120
 BYTE   TIE  Gn3
 BYTE   W06
 BYTE   W01
 BYTE   W01
 BYTE   W01
 BYTE   W01
 BYTE   W01
 BYTE   W01
 BYTE   W01
 BYTE   W01
 BYTE   W01
 BYTE   W01
 BYTE   W01
 BYTE   W01
 BYTE   W18
 BYTE   W01
 BYTE   W01
 BYTE   W01
 BYTE   W01
 BYTE   W01
 BYTE   W01
 BYTE   W01
 BYTE   W01
 BYTE   W01
 BYTE   W01
 BYTE   W01
 BYTE   W01
 BYTE   N48  Dn3  v100
 BYTE   W01
 BYTE   W01
 BYTE   W01
 BYTE   W01
 BYTE   W01
 BYTE   W01
 BYTE   W01
 BYTE   W01
 BYTE   W01
 BYTE   W01
 BYTE   W01
 BYTE   W01
 BYTE   W01
 BYTE   W01
 BYTE   W01
 BYTE   W01
 BYTE   W01
 BYTE   W01
 BYTE   W01
 BYTE   W01
 BYTE   W01
 BYTE   W01
 BYTE   W01
 BYTE   W01
 BYTE   W01
 BYTE   W01
 BYTE   W01
 BYTE   W01
 BYTE   W01
 BYTE   W01
 BYTE   W01
 BYTE   W01
 BYTE   W01
 BYTE   W01
 BYTE   W01
 BYTE   W01
 BYTE   W12
//  #01 //004   ----------------------------------------
 BYTE   W24
 BYTE   EOT
 BYTE   Gn3
 BYTE   W72
//  #01 //005   ----------------------------------------
 BYTE   W96
//  #01 //006   ----------------------------------------
 BYTE   W96
//  #01 //007   ----------------------------------------
 BYTE   W96
//  #01 //008   ----------------------------------------
 BYTE   W96
//  #01 //009   ----------------------------------------
 BYTE   W96
//  #01 //010   ----------------------------------------
 BYTE   W96
//  #01 //011   ----------------------------------------
 BYTE   W96
//  #01 //012   ----------------------------------------
Label_0199353B:
 BYTE   W96
//  #01 //013   ----------------------------------------
 BYTE   W96
//  #01 //014   ----------------------------------------
 BYTE   W96
//  #01 //015   ----------------------------------------
 BYTE   W96
//  #01 //016   ----------------------------------------
 BYTE   N36  Cn3  v127
 BYTE   W36
 BYTE   N90  Gn3
 BYTE   W60
//  #01 //017   ----------------------------------------
 BYTE   W36
 BYTE   N36  Fn3
 BYTE   W36
 BYTE   N24  As3
 BYTE   W24
//  #01 //018   ----------------------------------------
 BYTE   TIE  Gn3
 BYTE   W96
//  #01 //019   ----------------------------------------
 BYTE   W84
 BYTE   EOT
 BYTE   W12
//  #01 //020   ----------------------------------------
 BYTE   N36  Gs3
 BYTE   W36
 BYTE   N90  Ds4
 BYTE   W60
//  #01 //021   ----------------------------------------
 BYTE   W36
 BYTE   N36  Dn4
 BYTE   W36
 BYTE   N24  Fn4
 BYTE   W24
//  #01 //022   ----------------------------------------
 BYTE   TIE  Ds4
 BYTE   W96
//  #01 //023   ----------------------------------------
 BYTE   W84
 BYTE   EOT
 BYTE   W12
//  #01 //024   ----------------------------------------
 BYTE   N96  Gs4  v112
 BYTE   N96  Fn5
 BYTE   W04
 BYTE   W04
 BYTE   W04
 BYTE   W05
 BYTE   W04
 BYTE   W04
 BYTE   W05
 BYTE   W04
 BYTE   W04
 BYTE   W04
 BYTE   W05
 BYTE   W04
 BYTE   W04
 BYTE   W05
 BYTE   W04
 BYTE   W04
 BYTE   W05
 BYTE   W04
 BYTE   W04
 BYTE   W04
 BYTE   W05
 BYTE   W04
 BYTE   W02
//  #01 //025   ----------------------------------------
 BYTE   Gn4
 BYTE   N96  Ds5
 BYTE   W02
 BYTE   W05
 BYTE   W04
 BYTE   W04
 BYTE   W05
 BYTE   W04
 BYTE   W04
 BYTE   W04
 BYTE   W05
 BYTE   W04
 BYTE   W04
 BYTE   W05
 BYTE   W04
 BYTE   W04
 BYTE   W05
 BYTE   W04
 BYTE   W04
 BYTE   W04
 BYTE   W05
 BYTE   W04
 BYTE   W04
 BYTE   W05
 BYTE   W03
//  #01 //026   ----------------------------------------
 BYTE   Cn5
 BYTE   N96  Fn5
 BYTE   W01
 BYTE   W04
 BYTE   W05
 BYTE   W04
 BYTE   W04
 BYTE   W04
 BYTE   W05
 BYTE   W04
 BYTE   W04
 BYTE   W05
 BYTE   W04
 BYTE   W04
 BYTE   W05
 BYTE   W04
 BYTE   W04
 BYTE   W04
 BYTE   W05
 BYTE   W04
 BYTE   W04
 BYTE   W05
 BYTE   W04
 BYTE   W04
 BYTE   W05
//  #01 //027   ----------------------------------------
 BYTE   Bn4
 BYTE   N96  Gn5
 BYTE   W96
//  #01 //028   ----------------------------------------
 BYTE   W96
//  #01 //029   ----------------------------------------
 BYTE   W96
//  #01 //030   ----------------------------------------
 BYTE   W96
//  #01 //031   ----------------------------------------
 BYTE   W96
//  #01 //032   ----------------------------------------
 BYTE   TIE  Cn5  v076
 BYTE   TIE  Gn5  v092
 BYTE   W96
//  #01 //033   ----------------------------------------
 BYTE   W96
//  #01 //034   ----------------------------------------
 BYTE   W04
 BYTE   W01
 BYTE   W04
 BYTE   W01
 BYTE   W04
 BYTE   W01
 BYTE   W04
 BYTE   W01
 BYTE   W04
 BYTE   W01
 BYTE   W04
 BYTE   W01
 BYTE   W04
 BYTE   W01
 BYTE   W04
 BYTE   W01
 BYTE   W04
 BYTE   W01
 BYTE   W04
 BYTE   W01
 BYTE   W04
 BYTE   W01
 BYTE   W04
 BYTE   W01
 BYTE   W04
 BYTE   W01
 BYTE   W04
 BYTE   W01
 BYTE   W04
 BYTE   W01
 BYTE   W04
 BYTE   W01
 BYTE   W04
 BYTE   W01
 BYTE   W04
 BYTE   W01
 BYTE   W04
 BYTE   W01
 BYTE   W01
//  #01 //035   ----------------------------------------
 BYTE   W03
 BYTE   W01
 BYTE   W04
 BYTE   W01
 BYTE   W04
 BYTE   W01
 BYTE   W04
 BYTE   W01
 BYTE   W04
 BYTE   W01
 BYTE   W04
 BYTE   W01
 BYTE   W04
 BYTE   W01
 BYTE   W04
 BYTE   W01
 BYTE   W04
 BYTE   W01
 BYTE   W04
 BYTE   W01
 BYTE   W04
 BYTE   W01
 BYTE   W04
 BYTE   W01
 BYTE   W04
 BYTE   W01
 BYTE   W04
 BYTE   W01
 BYTE   W04
 BYTE   W01
 BYTE   W04
 BYTE   W01
 BYTE   W04
 BYTE   W01
 BYTE   W04
 BYTE   W01
 BYTE   W04
 BYTE   W01
 BYTE   W02
//  #01 //036   ----------------------------------------
 BYTE   EOT
 BYTE   Cn5  v091
 BYTE   TIE  Gn4  v076
 BYTE   TIE  Cn5  v088
 BYTE   W01
 BYTE   W01
 BYTE   W01
 BYTE   W01
 BYTE   W01
 BYTE   W01
 BYTE   W01
 BYTE   W01
 BYTE   W01
 BYTE   W01
 BYTE   W01
 BYTE   W01
 BYTE   W01
 BYTE   W01
 BYTE   W01
 BYTE   W01
 BYTE   W01
 BYTE   W01
 BYTE   W01
 BYTE   W01
 BYTE   W01
 BYTE   W01
 BYTE   W01
 BYTE   W01
 BYTE   W72
//  #01 //037   ----------------------------------------
 BYTE   W48
 BYTE   W01
 BYTE   W03
 BYTE   W01
 BYTE   W03
 BYTE   W01
 BYTE   W03
 BYTE   W01
 BYTE   W03
 BYTE   W01
 BYTE   W03
 BYTE   W01
 BYTE   W03
 BYTE   W01
 BYTE   W03
 BYTE   W01
 BYTE   W03
 BYTE   W01
 BYTE   W03
 BYTE   W01
 BYTE   W03
 BYTE   W01
 BYTE   W03
 BYTE   W01
 BYTE   W03
//  #01 //038   ----------------------------------------
 BYTE   W01
 BYTE   W03
 BYTE   W01
 BYTE   W03
 BYTE   W01
 BYTE   W01
 BYTE   W02
 BYTE   W01
 BYTE   W01
 BYTE   W02
 BYTE   W01
 BYTE   W01
 BYTE   W02
 BYTE   W01
 BYTE   W01
 BYTE   W02
 BYTE   W01
 BYTE   W01
 BYTE   W02
 BYTE   W01
 BYTE   W01
 BYTE   W02
 BYTE   W01
 BYTE   W01
 BYTE   W02
 BYTE   W01
 BYTE   W01
 BYTE   W02
 BYTE   W01
 BYTE   W01
 BYTE   W02
 BYTE   W01
 BYTE   W01
 BYTE   W02
 BYTE   W01
 BYTE   W01
 BYTE   W02
 BYTE   W01
 BYTE   W01
 BYTE   W02
 BYTE   W01
 BYTE   W01
 BYTE   W03
 BYTE   W01
 BYTE   W03
 BYTE   W01
 BYTE   W03
 BYTE   W01
 BYTE   W03
 BYTE   W01
 BYTE   W03
 BYTE   W01
 BYTE   W03
 BYTE   W01
 BYTE   W03
 BYTE   W01
 BYTE   W03
 BYTE   W01
 BYTE   W03
 BYTE   W01
 BYTE   W02
//  #01 //039   ----------------------------------------
 BYTE   EOT
 BYTE   Gn4  v084
 BYTE   W96
//  #01 //040   ----------------------------------------
 BYTE   W96
//  #01 //041   ----------------------------------------
 BYTE   W96
//  #01 //042   ----------------------------------------
 BYTE   W96
//  #01 //043   ----------------------------------------
 BYTE   W96
//  #01 //044   ----------------------------------------
 BYTE   GoTo
  POIN2 Label_0199353B
 BYTE   FINE

//**************** Track 2 (Midi-Chn.1) ****************//

TenseMovementsAlt_002:
//  #02 //000   ----------------------------------------
 BYTE   KEYSH   TenseMovementsAlt_key+0
 BYTE   VOICE   34
 BYTE   PAN   c_v+15
 BYTE   VOL   27*TenseMovementsAlt_mvl/mxv
 BYTE   TIE  Gn2  v120
 BYTE   TIE  Cn3
 BYTE   W96
//  #02 //001   ----------------------------------------
 BYTE   W06
 BYTE   W06
 BYTE   W06
 BYTE   W06
 BYTE   W06
 BYTE   W06
 BYTE   W06
 BYTE   W07
 BYTE   W06
 BYTE   W06
 BYTE   W06
 BYTE   W06
 BYTE   W06
 BYTE   W06
 BYTE   W06
 BYTE   W05
//  #02 //002   ----------------------------------------
 BYTE   W02
 BYTE   W06
 BYTE   W06
 BYTE   W06
 BYTE   W06
 BYTE   W06
 BYTE   W06
 BYTE   W06
 BYTE   W07
 BYTE   W06
 BYTE   W06
 BYTE   W06
 BYTE   W06
 BYTE   W06
 BYTE   W06
 BYTE   W06
 BYTE   W03
//  #02 //003   ----------------------------------------
 BYTE   W04
 BYTE   W06
 BYTE   W06
 BYTE   W06
 BYTE   W06
 BYTE   W06
 BYTE   W06
 BYTE   W06
 BYTE   W07
 BYTE   W06
 BYTE   W06
 BYTE   W06
 BYTE   W06
 BYTE   W06
 BYTE   W06
 BYTE   W07
//  #02 //004   ----------------------------------------
 BYTE   EOT
 BYTE   Gn2  v060
 BYTE   N96  Gn2  v064
 BYTE   N96  Cn3
 BYTE   W96
//  #02 //005   ----------------------------------------
 BYTE   W96
//  #02 //006   ----------------------------------------
 BYTE   W96
//  #02 //007   ----------------------------------------
 BYTE   W96
//  #02 //008   ----------------------------------------
 BYTE   W96
//  #02 //009   ----------------------------------------
 BYTE   W96
//  #02 //010   ----------------------------------------
 BYTE   W96
//  #02 //011   ----------------------------------------
 BYTE   W96
//  #02 //012   ----------------------------------------
Label_01992F1F:
 BYTE   W96
//  #02 //013   ----------------------------------------
 BYTE   W96
//  #02 //014   ----------------------------------------
 BYTE   W96
//  #02 //015   ----------------------------------------
 BYTE   W68
 BYTE   VOICE   54
 BYTE   W28
//  #02 //016   ----------------------------------------
 BYTE   N36  Gn2  v127
 BYTE   W36
 BYTE   N90  Ds3
 BYTE   W60
//  #02 //017   ----------------------------------------
 BYTE   W36
 BYTE   N36  Dn3
 BYTE   W36
 BYTE   N24  Gn3
 BYTE   W24
//  #02 //018   ----------------------------------------
 BYTE   TIE  Ds3
 BYTE   W96
//  #02 //019   ----------------------------------------
 BYTE   W84
 BYTE   EOT
 BYTE   W12
//  #02 //020   ----------------------------------------
 BYTE   N36
 BYTE   W36
 BYTE   N90  Cn4
 BYTE   W60
//  #02 //021   ----------------------------------------
 BYTE   W36
 BYTE   N36  As3
 BYTE   W36
 BYTE   N24  Dn4
 BYTE   W24
//  #02 //022   ----------------------------------------
 BYTE   TIE  Cn4
 BYTE   W96
//  #02 //023   ----------------------------------------
 BYTE   W84
 BYTE   EOT
 BYTE   W12
//  #02 //024   ----------------------------------------
 BYTE   N96  Fn3
 BYTE   N96  Cn4
 BYTE   W96
//  #02 //025   ----------------------------------------
 BYTE   Gn3
 BYTE   N96  As3
 BYTE   W96
//  #02 //026   ----------------------------------------
 BYTE   Gs3
 BYTE   N96  Cn4
 BYTE   W96
//  #02 //027   ----------------------------------------
 BYTE   Gn3
 BYTE   N96  Bn3
 BYTE   W96
//  #02 //028   ----------------------------------------
 BYTE   W96
//  #02 //029   ----------------------------------------
 BYTE   W96
//  #02 //030   ----------------------------------------
 BYTE   W96
//  #02 //031   ----------------------------------------
 BYTE   W96
//  #02 //032   ----------------------------------------
 BYTE   TIE  Ds3
 BYTE   TIE  Cn4
 BYTE   W48
 BYTE   W05
 BYTE   W01
 BYTE   W05
 BYTE   W01
 BYTE   W05
 BYTE   W05
 BYTE   W01
 BYTE   W05
 BYTE   W01
 BYTE   W05
 BYTE   W01
 BYTE   W05
 BYTE   W05
 BYTE   W01
 BYTE   W02
//  #02 //033   ----------------------------------------
 BYTE   W03
 BYTE   W01
 BYTE   W05
 BYTE   W01
 BYTE   W05
 BYTE   W05
 BYTE   W01
 BYTE   W05
 BYTE   W01
 BYTE   W05
 BYTE   W01
 BYTE   W05
 BYTE   W05
 BYTE   W01
 BYTE   W05
 BYTE   W01
 BYTE   W05
 BYTE   W01
 BYTE   W05
 BYTE   W05
 BYTE   W01
 BYTE   W05
 BYTE   W01
 BYTE   W05
 BYTE   W01
 BYTE   W05
 BYTE   W05
 BYTE   W01
 BYTE   W05
 BYTE   W01
//  #02 //034   ----------------------------------------
 BYTE   W05
 BYTE   W01
 BYTE   W05
 BYTE   W05
 BYTE   W01
 BYTE   W05
 BYTE   W01
 BYTE   W05
 BYTE   W01
 BYTE   W05
 BYTE   W05
 BYTE   W01
 BYTE   W05
 BYTE   W01
 BYTE   W05
 BYTE   W01
 BYTE   W05
 BYTE   W05
 BYTE   W01
 BYTE   W05
 BYTE   W01
 BYTE   W05
 BYTE   W01
 BYTE   W05
 BYTE   W05
 BYTE   W01
 BYTE   W05
 BYTE   W01
 BYTE   W04
//  #02 //035   ----------------------------------------
 BYTE   W01
 BYTE   W05
 BYTE   W01
 BYTE   W05
 BYTE   W01
 BYTE   W05
 BYTE   W01
 BYTE   W05
 BYTE   W05
 BYTE   W01
 BYTE   W05
 BYTE   W01
 BYTE   W05
 BYTE   W01
 BYTE   W05
 BYTE   W05
 BYTE   W01
 BYTE   W05
 BYTE   W01
 BYTE   W05
 BYTE   W01
 BYTE   W05
 BYTE   W05
 BYTE   W01
 BYTE   W05
 BYTE   W01
 BYTE   W05
 BYTE   W01
 BYTE   W05
 BYTE   W03
//  #02 //036   ----------------------------------------
 BYTE   EOT
 BYTE   Ds3  v072
 BYTE   TIE  Cn3
 BYTE   W96
//  #02 //037   ----------------------------------------
 BYTE   W96
//  #02 //038   ----------------------------------------
 BYTE   W04
 BYTE   W01
 BYTE   W04
 BYTE   W01
 BYTE   W04
 BYTE   W01
 BYTE   W04
 BYTE   W01
 BYTE   W04
 BYTE   W01
 BYTE   W04
 BYTE   W01
 BYTE   W04
 BYTE   W01
 BYTE   W04
 BYTE   W01
 BYTE   W04
 BYTE   W01
 BYTE   W04
 BYTE   W01
 BYTE   W04
 BYTE   W01
 BYTE   W04
 BYTE   W01
 BYTE   W04
 BYTE   W01
 BYTE   W04
 BYTE   W01
 BYTE   W04
 BYTE   W01
 BYTE   W04
 BYTE   W01
 BYTE   W04
 BYTE   W01
 BYTE   W04
 BYTE   W01
 BYTE   W04
 BYTE   W01
 BYTE   W01
//  #02 //039   ----------------------------------------
 BYTE   W03
 BYTE   W01
 BYTE   W04
 BYTE   W01
 BYTE   W04
 BYTE   W01
 BYTE   W04
 BYTE   W01
 BYTE   W04
 BYTE   W01
 BYTE   W04
 BYTE   W01
 BYTE   W04
 BYTE   W01
 BYTE   W04
 BYTE   W01
 BYTE   W04
 BYTE   W01
 BYTE   W04
 BYTE   W01
 BYTE   W04
 BYTE   W01
 BYTE   W04
 BYTE   W01
 BYTE   W04
 BYTE   W01
 BYTE   W04
 BYTE   W01
 BYTE   W04
 BYTE   W01
 BYTE   W04
 BYTE   W01
 BYTE   W04
 BYTE   W01
 BYTE   W04
 BYTE   W01
 BYTE   W04
 BYTE   W01
 BYTE   W01
 BYTE   EOT
 BYTE   W01
//  #02 //040   ----------------------------------------
 BYTE   W96
//  #02 //041   ----------------------------------------
 BYTE   W96
//  #02 //042   ----------------------------------------
 BYTE   W96
//  #02 //043   ----------------------------------------
 BYTE   W96
//  #02 //044   ----------------------------------------
 BYTE   GoTo
  POIN2 Label_01992F1F
//  #02 //045   ----------------------------------------
 BYTE   VOICE   34
 BYTE   FINE

//**************** Track 3 (Midi-Chn.2) ****************//

TenseMovementsAlt_003:
//  #03 //000   ----------------------------------------
 BYTE   KEYSH   TenseMovementsAlt_key+0
 BYTE   VOICE   62
 BYTE   PAN   c_v+23
 BYTE   VOL   32*TenseMovementsAlt_mvl/mxv
 BYTE   N48  Gn2  v112
 BYTE   W96
//  #03 //001   ----------------------------------------
 BYTE   W48
 BYTE   N48
 BYTE   W36
 BYTE   N09  As2  v127
 BYTE   W12
//  #03 //002   ----------------------------------------
 BYTE   N48  Gn2  v112
 BYTE   W96
//  #03 //003   ----------------------------------------
 BYTE   W84
 BYTE   N12
 BYTE   W12
//  #03 //004   ----------------------------------------
 BYTE   N48
 BYTE   N72  Cn3  v120
 BYTE   W96
//  #03 //005   ----------------------------------------
 BYTE   W96
//  #03 //006   ----------------------------------------
 BYTE   W96
//  #03 //007   ----------------------------------------
 BYTE   W96
//  #03 //008   ----------------------------------------
 BYTE   W96
//  #03 //009   ----------------------------------------
 BYTE   W96
//  #03 //010   ----------------------------------------
 BYTE   W96
//  #03 //011   ----------------------------------------
 BYTE   W96
//  #03 //012   ----------------------------------------
Label_019ADEC2:
 BYTE   W96
//  #03 //013   ----------------------------------------
 BYTE   W96
//  #03 //014   ----------------------------------------
 BYTE   W96
//  #03 //015   ----------------------------------------
 BYTE   N96  Gn2  v127
 BYTE   N96  Bn2
 BYTE   W06
 BYTE   W01
 BYTE   W01
 BYTE   W01
 BYTE   W01
 BYTE   W01
 BYTE   W01
 BYTE   W01
 BYTE   W01
 BYTE   W01
 BYTE   W01
 BYTE   W01
 BYTE   W01
 BYTE   W18
 BYTE   W01
 BYTE   W01
 BYTE   W01
 BYTE   W01
 BYTE   W01
 BYTE   W01
 BYTE   W01
 BYTE   W01
 BYTE   W01
 BYTE   W01
 BYTE   W01
 BYTE   W01
 BYTE   W01
 BYTE   W01
 BYTE   W01
 BYTE   W01
 BYTE   W01
 BYTE   W01
 BYTE   W01
 BYTE   W01
 BYTE   W01
 BYTE   W01
 BYTE   W01
 BYTE   W01
 BYTE   W01
 BYTE   W01
 BYTE   W01
 BYTE   W01
 BYTE   W01
 BYTE   W01
 BYTE   W01
 BYTE   W01
 BYTE   W01
 BYTE   W01
 BYTE   W01
 BYTE   W01
 BYTE   W01
 BYTE   W01
 BYTE   W01
 BYTE   W01
 BYTE   W01
 BYTE   W01
 BYTE   W01
 BYTE   W01
 BYTE   W01
 BYTE   W01
 BYTE   W01
 BYTE   W01
 BYTE   W12
//  #03 //016   ----------------------------------------
 BYTE   N36  Gn2  v116
 BYTE   N36  Cn3  v127
 BYTE   W36
 BYTE   N90  Cn3  v116
 BYTE   N90  Gn3  v127
 BYTE   W60
//  #03 //017   ----------------------------------------
 BYTE   W36
 BYTE   N36  Dn3  v116
 BYTE   N36  Fn3  v127
 BYTE   W36
 BYTE   N24  Gn3  v116
 BYTE   N24  As3  v127
 BYTE   W24
//  #03 //018   ----------------------------------------
 BYTE   TIE  Ds3  v116
 BYTE   TIE  Gn3  v127
 BYTE   W96
//  #03 //019   ----------------------------------------
 BYTE   W84
 BYTE   EOT
 BYTE   Ds3  v067
 BYTE   W12
//  #03 //020   ----------------------------------------
 BYTE   N36  Gs2
 BYTE   W36
 BYTE   N90  Ds3
 BYTE   W60
//  #03 //021   ----------------------------------------
 BYTE   W36
 BYTE   N36  Dn3
 BYTE   W36
 BYTE   N24  Fn3
 BYTE   W24
//  #03 //022   ----------------------------------------
 BYTE   TIE  Ds3
 BYTE   W96
//  #03 //023   ----------------------------------------
 BYTE   W84
 BYTE   EOT
 BYTE   W12
//  #03 //024   ----------------------------------------
 BYTE   N36  Gs2
 BYTE   W36
 BYTE   N12  Gn2
 BYTE   W12
 BYTE   N18  Fn2
 BYTE   W18
 BYTE   Gn2
 BYTE   W18
 BYTE   N12  Gs2
 BYTE   W12
//  #03 //025   ----------------------------------------
 BYTE   N36  As2
 BYTE   W36
 BYTE   N12  Gs2
 BYTE   W12
 BYTE   N18  Gn2
 BYTE   W18
 BYTE   Gs2
 BYTE   W18
 BYTE   N12  As2
 BYTE   W12
//  #03 //026   ----------------------------------------
 BYTE   N60  Cn3
 BYTE   W72
 BYTE   N24
 BYTE   W24
//  #03 //027   ----------------------------------------
 BYTE   N36  Gn2  v116
 BYTE   N36  Bn2  v127
 BYTE   W36
 BYTE   Dn2
 BYTE   N36  An2  v120
 BYTE   N36  Cn3  v127
 BYTE   W36
 BYTE   N21  Gn2
 BYTE   N21  Bn2  v120
 BYTE   N21  Dn3  v127
 BYTE   W24
//  #03 //028   ----------------------------------------
 BYTE   TIE  Cn3
 BYTE   W96
//  #03 //029   ----------------------------------------
 BYTE   N96  Gn2
 BYTE   W96
//  #03 //030   ----------------------------------------
 BYTE   TIE  Gs2
 BYTE   W96
//  #03 //031   ----------------------------------------
 BYTE   EOT
 BYTE   Cn3
 BYTE   N96  Dn3
 BYTE   W96
//  #03 //032   ----------------------------------------
 BYTE   EOT
 BYTE   Gs2
 BYTE   TIE  Ds3  v120
 BYTE   W72
 BYTE   W01
 BYTE   W01
 BYTE   W01
 BYTE   W01
 BYTE   W01
 BYTE   W01
 BYTE   W01
 BYTE   W02
 BYTE   W01
 BYTE   W01
 BYTE   W01
 BYTE   W02
 BYTE   W01
 BYTE   W01
 BYTE   W01
 BYTE   W01
 BYTE   W01
 BYTE   W01
 BYTE   W01
 BYTE   W02
 BYTE   W01
//  #03 //033   ----------------------------------------
 BYTE   W01
 BYTE   W01
 BYTE   W02
 BYTE   W01
 BYTE   W01
 BYTE   W01
 BYTE   W02
 BYTE   W01
 BYTE   W01
 BYTE   W01
 BYTE   W01
 BYTE   W01
 BYTE   W01
 BYTE   W01
 BYTE   W02
 BYTE   W01
 BYTE   W01
 BYTE   W01
 BYTE   W02
 BYTE   W01
 BYTE   W01
 BYTE   W01
 BYTE   W01
 BYTE   W01
 BYTE   W01
 BYTE   W01
 BYTE   W02
 BYTE   W01
 BYTE   W01
 BYTE   W01
 BYTE   W02
 BYTE   W01
 BYTE   W01
 BYTE   W01
 BYTE   W02
 BYTE   W01
 BYTE   W01
 BYTE   W01
 BYTE   W01
 BYTE   W01
 BYTE   W01
 BYTE   W01
 BYTE   W02
 BYTE   W01
 BYTE   W01
 BYTE   W01
 BYTE   W02
 BYTE   W01
 BYTE   W01
 BYTE   W01
 BYTE   W02
 BYTE   W01
 BYTE   W01
 BYTE   W01
 BYTE   W01
 BYTE   W01
 BYTE   W01
 BYTE   W01
 BYTE   W02
 BYTE   W01
 BYTE   W01
 BYTE   W01
 BYTE   W02
 BYTE   W01
 BYTE   W01
 BYTE   W01
 BYTE   W01
 BYTE   W01
 BYTE   W01
 BYTE   W01
 BYTE   W02
 BYTE   W01
 BYTE   W01
 BYTE   W01
 BYTE   W02
 BYTE   W01
 BYTE   W01
 BYTE   W01
 BYTE   W02
 BYTE   W01
 BYTE   W01
//  #03 //034   ----------------------------------------
 BYTE   EOT
 BYTE   W96
//  #03 //035   ----------------------------------------
 BYTE   W96
//  #03 //036   ----------------------------------------
 BYTE   TIE  Cn2
 BYTE   W96
//  #03 //037   ----------------------------------------
 BYTE   W96
//  #03 //038   ----------------------------------------
 BYTE   W96
//  #03 //039   ----------------------------------------
 BYTE   EOT
 BYTE   W96
//  #03 //040   ----------------------------------------
 BYTE   W96
//  #03 //041   ----------------------------------------
 BYTE   W96
//  #03 //042   ----------------------------------------
 BYTE   W96
//  #03 //043   ----------------------------------------
 BYTE   W96
//  #03 //044   ----------------------------------------
 BYTE   GoTo
  POIN2 Label_019ADEC2
 BYTE   FINE

//**************** Track 4 (Midi-Chn.3) ****************//

TenseMovementsAlt_004:
//  #04 //000   ----------------------------------------
 BYTE   KEYSH   TenseMovementsAlt_key+0
 BYTE   VOICE   0
 BYTE   PAN   c_v+42
 BYTE   VOL   20*TenseMovementsAlt_mvl/mxv
 BYTE   W96
//  #04 //001   ----------------------------------------
 BYTE   N06  Gn1  v112
 BYTE   W06
 BYTE   Dn2  v108
 BYTE   W06
 BYTE   Gn2
 BYTE   W06
 BYTE   An2
 BYTE   W06
 BYTE   Bn2
 BYTE   W06
 BYTE   Dn3
 BYTE   W06
 BYTE   Gn3
 BYTE   W06
 BYTE   An3
 BYTE   W06
 BYTE   N04  Bn3
 BYTE   W04
 BYTE   Cn4  v100
 BYTE   W04
 BYTE   Dn4
 BYTE   W04
 BYTE   Fn4
 BYTE   W04
 BYTE   Gn4
 BYTE   W04
 BYTE   Bn4
 BYTE   W04
 BYTE   N06  Cn5  v096
 BYTE   W24
//  #04 //002   ----------------------------------------
 BYTE   W96
//  #04 //003   ----------------------------------------
 BYTE   N12  Cn5  v116
 BYTE   W06
 BYTE   N06  Bn4  v108
 BYTE   W06
 BYTE   N12  Gn4
 BYTE   W06
 BYTE   N06  Fn4
 BYTE   W06
 BYTE   Dn4
 BYTE   W06
 BYTE   Cn4
 BYTE   W06
 BYTE   An3
 BYTE   W06
 BYTE   N12  Gn3  v104
 BYTE   W06
 BYTE   N18  Dn3
 BYTE   W06
 BYTE   Bn2  v064
 BYTE   W06
 BYTE   N30  An2  v104
 BYTE   W06
 BYTE   N42  Gn2
 BYTE   W12
 BYTE   Dn2  v108
 BYTE   W06
 BYTE   N66  Gn1  v104
 BYTE   W12
//  #04 //004   ----------------------------------------
 BYTE   W96
//  #04 //005   ----------------------------------------
 BYTE   W96
//  #04 //006   ----------------------------------------
 BYTE   W96
//  #04 //007   ----------------------------------------
 BYTE   W96
//  #04 //008   ----------------------------------------
 BYTE   W96
//  #04 //009   ----------------------------------------
 BYTE   W96
//  #04 //010   ----------------------------------------
 BYTE   W96
//  #04 //011   ----------------------------------------
 BYTE   W96
//  #04 //012   ----------------------------------------
Label_019AE36B:
 BYTE   W96
//  #04 //013   ----------------------------------------
 BYTE   W96
//  #04 //014   ----------------------------------------
 BYTE   W96
//  #04 //015   ----------------------------------------
 BYTE   W12
 BYTE   N06  Gn1  v112
 BYTE   W06
 BYTE   Dn2  v108
 BYTE   W06
 BYTE   Gn2
 BYTE   W06
 BYTE   An2
 BYTE   W06
 BYTE   Bn2
 BYTE   W06
 BYTE   Dn3
 BYTE   W06
 BYTE   Gn3
 BYTE   W06
 BYTE   An3
 BYTE   W06
 BYTE   N04  Bn3
 BYTE   W04
 BYTE   Cn4  v100
 BYTE   W04
 BYTE   Dn4
 BYTE   W04
 BYTE   Fn4
 BYTE   W04
 BYTE   Gn4
 BYTE   W04
 BYTE   Bn4
 BYTE   W04
 BYTE   N06  Cn5  v096
 BYTE   W12
//  #04 //016   ----------------------------------------
 BYTE   W96
//  #04 //017   ----------------------------------------
 BYTE   W96
//  #04 //018   ----------------------------------------
 BYTE   W96
//  #04 //019   ----------------------------------------
 BYTE   W96
//  #04 //020   ----------------------------------------
 BYTE   W96
//  #04 //021   ----------------------------------------
 BYTE   W96
//  #04 //022   ----------------------------------------
 BYTE   W96
//  #04 //023   ----------------------------------------
 BYTE   W96
//  #04 //024   ----------------------------------------
 BYTE   W96
//  #04 //025   ----------------------------------------
 BYTE   W96
//  #04 //026   ----------------------------------------
 BYTE   W96
//  #04 //027   ----------------------------------------
 BYTE   W96
//  #04 //028   ----------------------------------------
 BYTE   W96
//  #04 //029   ----------------------------------------
 BYTE   W96
//  #04 //030   ----------------------------------------
 BYTE   W96
//  #04 //031   ----------------------------------------
 BYTE   W96
//  #04 //032   ----------------------------------------
 BYTE   W96
//  #04 //033   ----------------------------------------
 BYTE   W96
//  #04 //034   ----------------------------------------
 BYTE   W12
 BYTE   TIE  Cn1
 BYTE   TIE  Cn2
 BYTE   W24
 BYTE   N24  Gn2
 BYTE   W24
 BYTE   Cn3
 BYTE   W24
 BYTE   Ds3
 BYTE   W12
//  #04 //035   ----------------------------------------
 BYTE   W12
 BYTE   Fn3
 BYTE   W24
 BYTE   Gn3  v092
 BYTE   W24
 BYTE   Cn4  v088
 BYTE   W24
 BYTE   EOT
 BYTE   Cn1  v048
 BYTE   N24  Gn4
 BYTE   W12
//  #04 //036   ----------------------------------------
 BYTE   W96
//  #04 //037   ----------------------------------------
 BYTE   W96
//  #04 //038   ----------------------------------------
 BYTE   W96
//  #04 //039   ----------------------------------------
 BYTE   W96
//  #04 //040   ----------------------------------------
 BYTE   W96
//  #04 //041   ----------------------------------------
 BYTE   W96
//  #04 //042   ----------------------------------------
 BYTE   W96
//  #04 //043   ----------------------------------------
 BYTE   W96
//  #04 //044   ----------------------------------------
 BYTE   GoTo
  POIN2 Label_019AE36B
 BYTE   FINE

//**************** Track 5 (Midi-Chn.4) ****************//

TenseMovementsAlt_005:
//  #05 //000   ----------------------------------------
 BYTE   KEYSH   TenseMovementsAlt_key+0
 BYTE   VOICE   33
 BYTE   PAN   c_v-8
 BYTE   VOL   36*TenseMovementsAlt_mvl/mxv
 BYTE   W96
//  #05 //001   ----------------------------------------
 BYTE   W96
//  #05 //002   ----------------------------------------
 BYTE   W96
//  #05 //003   ----------------------------------------
 BYTE   W96
//  #05 //004   ----------------------------------------
Label_019ADC54:
 BYTE   N72  Cn2  v127
 BYTE   W24
 BYTE   N12  Gn2  v120
 BYTE   W12
 BYTE   N24  Cn3
 BYTE   W24
 BYTE   N12  Gn2
 BYTE   W12
 BYTE   N48  Cn2  v124
 BYTE   W24
 BYTE   PEND 
//  #05 //005   ----------------------------------------
Label_019ADC67:
 BYTE   N18  As2  v124
 BYTE   W12
 BYTE   N09  Gs2  v120
 BYTE   W12
 BYTE   N12  Gn2
 BYTE   W12
 BYTE   N60  Gn1  v108
 BYTE   N12  Fn2  v120
 BYTE   W24
 BYTE   Cn2
 BYTE   W12
 BYTE   N24  Gn2
 BYTE   W12
 BYTE   N12  Cn3  v108
 BYTE   W12
 BYTE   PEND 
//  #05 //006   ----------------------------------------
Label_019ADC83:
 BYTE   N72  Dn2  v127
 BYTE   W24
 BYTE   N12  Gn2  v120
 BYTE   W12
 BYTE   N24  Cn3
 BYTE   W24
 BYTE   N12  Gn2
 BYTE   W12
 BYTE   N48  Dn2  v124
 BYTE   W24
 BYTE   PEND 
//  #05 //007   ----------------------------------------
Label_019ADC96:
 BYTE   N18  As2  v124
 BYTE   W12
 BYTE   N09  Gs2  v120
 BYTE   W12
 BYTE   N12  Gn2
 BYTE   W12
 BYTE   N60  Gn1  v108
 BYTE   N12  Fn2  v120
 BYTE   W24
 BYTE   Dn2
 BYTE   W12
 BYTE   N24  Gn2
 BYTE   W12
 BYTE   N12  Cn3  v108
 BYTE   W12
 BYTE   PEND 
//  #05 //008   ----------------------------------------
 BYTE   PATT
  POIN2 Label_019ADC54
//  #05 //009   ----------------------------------------
Label_019ADCB7:
 BYTE   N18  As2  v124
 BYTE   W12
 BYTE   N09  Gs2  v120
 BYTE   W12
 BYTE   N12  Gn2
 BYTE   W12
 BYTE   N60  Cn2  v108
 BYTE   N12  Fn2  v120
 BYTE   W24
 BYTE   Gn2
 BYTE   W12
 BYTE   N24  Cn3
 BYTE   W12
 BYTE   N12  Gn3  v108
 BYTE   W12
 BYTE   PEND 
//  #05 //010   ----------------------------------------
Label_019ADCD3:
 BYTE   N72  Cn2  v127
 BYTE   W24
 BYTE   N12  Fn2  v120
 BYTE   W12
 BYTE   N24  Cn3
 BYTE   W24
 BYTE   N12  Fn2
 BYTE   W12
 BYTE   N48  Cn2  v124
 BYTE   W24
 BYTE   PEND 
//  #05 //011   ----------------------------------------
Label_019ADCE6:
 BYTE   N18  Gs2  v124
 BYTE   W12
 BYTE   N09  Gn2  v120
 BYTE   W12
 BYTE   N12  Fn2
 BYTE   W12
 BYTE   N60  Fn1  v108
 BYTE   N12  Ds2  v120
 BYTE   W24
 BYTE   Cn2
 BYTE   W12
 BYTE   N24  Fn2
 BYTE   W12
 BYTE   N12  Cn3  v108
 BYTE   W12
 BYTE   PEND 
//  #05 //012   ----------------------------------------
Label_019ADD02:
 BYTE   N72  Bn1  v127
 BYTE   W24
 BYTE   N12  Fn2  v120
 BYTE   W12
 BYTE   N24  Bn2
 BYTE   W24
 BYTE   N12  Fn2
 BYTE   W12
 BYTE   N48  Bn1  v124
 BYTE   W24
 BYTE   PEND 
//  #05 //013   ----------------------------------------
Label_019ADD15:
 BYTE   N18  Bn2  v124
 BYTE   W12
 BYTE   N09  An2  v120
 BYTE   W12
 BYTE   N12  Gn2
 BYTE   W12
 BYTE   N60  Gn1  v108
 BYTE   N12  Fn2  v120
 BYTE   W24
 BYTE   Bn1
 BYTE   W12
 BYTE   N24  Fn2
 BYTE   W12
 BYTE   N12  Bn2  v108
 BYTE   W12
 BYTE   PEND 
//  #05 //014   ----------------------------------------
 BYTE   PATT
  POIN2 Label_019ADD02
//  #05 //015   ----------------------------------------
 BYTE   PATT
  POIN2 Label_019ADD15
//  #05 //016   ----------------------------------------
 BYTE   PATT
  POIN2 Label_019ADC54
//  #05 //017   ----------------------------------------
 BYTE   PATT
  POIN2 Label_019ADC67
//  #05 //018   ----------------------------------------
 BYTE   PATT
  POIN2 Label_019ADC83
//  #05 //019   ----------------------------------------
 BYTE   PATT
  POIN2 Label_019ADC96
//  #05 //020   ----------------------------------------
 BYTE   PATT
  POIN2 Label_019ADC54
//  #05 //021   ----------------------------------------
 BYTE   PATT
  POIN2 Label_019ADCB7
//  #05 //022   ----------------------------------------
 BYTE   PATT
  POIN2 Label_019ADCD3
//  #05 //023   ----------------------------------------
 BYTE   PATT
  POIN2 Label_019ADCE6
//  #05 //024   ----------------------------------------
 BYTE   PATT
  POIN2 Label_019ADD02
//  #05 //025   ----------------------------------------
 BYTE   PATT
  POIN2 Label_019ADD15
//  #05 //026   ----------------------------------------
 BYTE   PATT
  POIN2 Label_019ADD02
//  #05 //027   ----------------------------------------
 BYTE   PATT
  POIN2 Label_019ADD15
//  #05 //028   ----------------------------------------
 BYTE   N09  Gn3  v127
 BYTE   N09  Cn4
 BYTE   W12
 BYTE   Cn3
 BYTE   N09  Gn3
 BYTE   W12
 BYTE   Cn3  v120
 BYTE   N09  Gn3
 BYTE   W12
 BYTE   Gn3  v127
 BYTE   N09  Cn4
 BYTE   W12
 BYTE   Cn3  v120
 BYTE   N09  Gn3
 BYTE   W12
 BYTE   Cn3
 BYTE   N09  Gn3
 BYTE   W12
 BYTE   Gn3  v127
 BYTE   N09  Cn4
 BYTE   W12
 BYTE   Cn3
 BYTE   N09  Gn3
 BYTE   W12
//  #05 //029   ----------------------------------------
 BYTE   N09
 BYTE   N09  Cn4
 BYTE   N09  Dn4
 BYTE   W12
 BYTE   Cn3
 BYTE   N09  Gn3
 BYTE   W12
 BYTE   Cn3  v120
 BYTE   N09  Gn3
 BYTE   W12
 BYTE   Gn3  v127
 BYTE   N09  Cn4
 BYTE   N09  Dn4
 BYTE   W12
 BYTE   Cn3  v120
 BYTE   N09  Gn3
 BYTE   W12
 BYTE   Cn3
 BYTE   N09  Gn3
 BYTE   W12
 BYTE   Gn3  v127
 BYTE   N09  Cn4
 BYTE   N09  Dn4
 BYTE   W12
 BYTE   Cn3
 BYTE   N09  Gn3
 BYTE   W12
//  #05 //030   ----------------------------------------
 BYTE   N09
 BYTE   N09  Cn4
 BYTE   N09  Dn4
 BYTE   N09  Gn4
 BYTE   W12
 BYTE   Cn3
 BYTE   N09  Gn3
 BYTE   W12
 BYTE   Cn3
 BYTE   N09  Gn3
 BYTE   W12
 BYTE   N09
 BYTE   N09  Cn4
 BYTE   N09  Dn4
 BYTE   N09  Gn4
 BYTE   W12
 BYTE   Cn3
 BYTE   N09  Gn3
 BYTE   W12
 BYTE   Cn3
 BYTE   N09  Gn3
 BYTE   W12
 BYTE   N09
 BYTE   N09  Cn4
 BYTE   N09  Dn4
 BYTE   N09  Gn4
 BYTE   W12
 BYTE   Cn3
 BYTE   N09  Gn3
 BYTE   W12
//  #05 //031   ----------------------------------------
 BYTE   N09
 BYTE   N09  Cn4
 BYTE   N09  Dn4
 BYTE   N09  Fn4
 BYTE   W12
 BYTE   Cn3
 BYTE   N09  Gn3
 BYTE   W12
 BYTE   Cn3
 BYTE   N09  Gn3
 BYTE   W12
 BYTE   N09
 BYTE   N09  Cn4
 BYTE   N09  Dn4
 BYTE   N09  Fn4
 BYTE   W12
 BYTE   Cn3
 BYTE   N09  Gn3
 BYTE   W12
 BYTE   Cn3
 BYTE   N09  Gn3
 BYTE   W12
 BYTE   N09
 BYTE   N09  Cn4
 BYTE   N09  Dn4
 BYTE   N09  Fn4
 BYTE   W12
 BYTE   Cn3
 BYTE   N09  Gn3
 BYTE   W12
//  #05 //032   ----------------------------------------
 BYTE   W96
//  #05 //033   ----------------------------------------
 BYTE   W96
//  #05 //034   ----------------------------------------
 BYTE   W96
//  #05 //035   ----------------------------------------
 BYTE   W96
//  #05 //036   ----------------------------------------
 BYTE   PATT
  POIN2 Label_019ADC54
//  #05 //037   ----------------------------------------
 BYTE   PATT
  POIN2 Label_019ADC67
//  #05 //038   ----------------------------------------
 BYTE   PATT
  POIN2 Label_019ADC83
//  #05 //039   ----------------------------------------
 BYTE   PATT
  POIN2 Label_019ADC96
//  #05 //040   ----------------------------------------
 BYTE   PATT
  POIN2 Label_019ADC54
//  #05 //041   ----------------------------------------
 BYTE   PATT
  POIN2 Label_019ADCB7
//  #05 //042   ----------------------------------------
 BYTE   PATT
  POIN2 Label_019ADCD3
//  #05 //043   ----------------------------------------
 BYTE   PATT
  POIN2 Label_019ADCE6
//  #05 //044   ----------------------------------------
 BYTE   GoTo
  POIN2 Label_019ADD02
 BYTE   FINE

//**************** Track 6 (Midi-Chn.5) ****************//

TenseMovementsAlt_006:
//  #06 //000   ----------------------------------------
 BYTE   KEYSH   TenseMovementsAlt_key+0
 BYTE   VOICE   53
 BYTE   PAN   c_v+14
 BYTE   VOL   27*TenseMovementsAlt_mvl/mxv
 BYTE   W96
//  #06 //001   ----------------------------------------
 BYTE   W96
//  #06 //002   ----------------------------------------
 BYTE   W96
//  #06 //003   ----------------------------------------
 BYTE   W96
//  #06 //004   ----------------------------------------
 BYTE   W96
//  #06 //005   ----------------------------------------
 BYTE   W96
//  #06 //006   ----------------------------------------
 BYTE   W96
//  #06 //007   ----------------------------------------
 BYTE   W96
//  #06 //008   ----------------------------------------
 BYTE   W96
//  #06 //009   ----------------------------------------
 BYTE   W96
//  #06 //010   ----------------------------------------
 BYTE   W96
//  #06 //011   ----------------------------------------
 BYTE   W96
//  #06 //012   ----------------------------------------
Label_01992108:
 BYTE   W96
//  #06 //013   ----------------------------------------
 BYTE   W96
//  #06 //014   ----------------------------------------
 BYTE   W96
//  #06 //015   ----------------------------------------
 BYTE   W96
//  #06 //016   ----------------------------------------
 BYTE   W96
//  #06 //017   ----------------------------------------
 BYTE   W96
//  #06 //018   ----------------------------------------
 BYTE   W96
//  #06 //019   ----------------------------------------
 BYTE   W96
//  #06 //020   ----------------------------------------
 BYTE   W96
//  #06 //021   ----------------------------------------
 BYTE   W96
//  #06 //022   ----------------------------------------
 BYTE   W96
//  #06 //023   ----------------------------------------
 BYTE   W96
//  #06 //024   ----------------------------------------
 BYTE   W96
//  #06 //025   ----------------------------------------
 BYTE   W96
//  #06 //026   ----------------------------------------
 BYTE   W96
//  #06 //027   ----------------------------------------
 BYTE   W96
//  #06 //028   ----------------------------------------
 BYTE   W96
//  #06 //029   ----------------------------------------
 BYTE   W96
//  #06 //030   ----------------------------------------
 BYTE   W96
//  #06 //031   ----------------------------------------
 BYTE   W96
//  #06 //032   ----------------------------------------
 BYTE   W48
 BYTE   N48  Gn4  v112
 BYTE   N48  Gn5
 BYTE   W48
//  #06 //033   ----------------------------------------
 BYTE   Fn4
 BYTE   N48  Fn5
 BYTE   W48
 BYTE   Dn4
 BYTE   N48  Dn5
 BYTE   W48
//  #06 //034   ----------------------------------------
 BYTE   Ds4
 BYTE   N48  Ds5
 BYTE   W48
 BYTE   Cn4
 BYTE   N48  Cn5
 BYTE   W48
//  #06 //035   ----------------------------------------
 BYTE   Gs3
 BYTE   N48  Gs4
 BYTE   W48
 BYTE   Gn3
 BYTE   N48  Gn4
 BYTE   W48
//  #06 //036   ----------------------------------------
 BYTE   TIE  Cn3  v092
 BYTE   TIE  Cn4  v108
 BYTE   W96
//  #06 //037   ----------------------------------------
 BYTE   W96
//  #06 //038   ----------------------------------------
 BYTE   EOT
 BYTE   Cn3  v072
 BYTE   W96
//  #06 //039   ----------------------------------------
 BYTE   W96
//  #06 //040   ----------------------------------------
 BYTE   W96
//  #06 //041   ----------------------------------------
 BYTE   W96
//  #06 //042   ----------------------------------------
 BYTE   W96
//  #06 //043   ----------------------------------------
 BYTE   W96
//  #06 //044   ----------------------------------------
 BYTE   GoTo
  POIN2 Label_01992108
 BYTE   FINE

//**************** Track 7 (Midi-Chn.6) ****************//

TenseMovementsAlt_007:
//  #07 //000   ----------------------------------------
 BYTE   KEYSH   TenseMovementsAlt_key+0
 BYTE   VOICE   14
 BYTE   PAN   c_v+6
 BYTE   VOL   27*TenseMovementsAlt_mvl/mxv
 BYTE   W96
//  #07 //001   ----------------------------------------
 BYTE   W96
//  #07 //002   ----------------------------------------
 BYTE   W96
//  #07 //003   ----------------------------------------
 BYTE   W96
//  #07 //004   ----------------------------------------
 BYTE   W96
//  #07 //005   ----------------------------------------
 BYTE   W96
//  #07 //006   ----------------------------------------
 BYTE   W96
//  #07 //007   ----------------------------------------
 BYTE   W96
//  #07 //008   ----------------------------------------
 BYTE   W96
//  #07 //009   ----------------------------------------
 BYTE   W96
//  #07 //010   ----------------------------------------
 BYTE   W96
//  #07 //011   ----------------------------------------
 BYTE   W96
//  #07 //012   ----------------------------------------
Label_01992CE8:
 BYTE   W96
//  #07 //013   ----------------------------------------
 BYTE   W96
//  #07 //014   ----------------------------------------
 BYTE   W96
//  #07 //015   ----------------------------------------
 BYTE   W96
//  #07 //016   ----------------------------------------
 BYTE   W96
//  #07 //017   ----------------------------------------
 BYTE   W96
//  #07 //018   ----------------------------------------
 BYTE   W96
//  #07 //019   ----------------------------------------
 BYTE   W96
//  #07 //020   ----------------------------------------
 BYTE   W96
//  #07 //021   ----------------------------------------
 BYTE   W96
//  #07 //022   ----------------------------------------
 BYTE   W96
//  #07 //023   ----------------------------------------
 BYTE   W96
//  #07 //024   ----------------------------------------
 BYTE   W96
//  #07 //025   ----------------------------------------
 BYTE   W96
//  #07 //026   ----------------------------------------
 BYTE   W96
//  #07 //027   ----------------------------------------
 BYTE   W96
//  #07 //028   ----------------------------------------
 BYTE   W96
//  #07 //029   ----------------------------------------
 BYTE   W96
//  #07 //030   ----------------------------------------
 BYTE   W96
//  #07 //031   ----------------------------------------
 BYTE   W96
//  #07 //032   ----------------------------------------
 BYTE   TIE  Cn1  v112
 BYTE   TIE  Cn2  v100
 BYTE   W96
//  #07 //033   ----------------------------------------
 BYTE   W96
//  #07 //034   ----------------------------------------
 BYTE   W96
//  #07 //035   ----------------------------------------
 BYTE   W96
//  #07 //036   ----------------------------------------
 BYTE   EOT
 BYTE   Cn1  v048
 BYTE   TIE  Cn1  v092
 BYTE   TIE  Cn2
 BYTE   W96
//  #07 //037   ----------------------------------------
 BYTE   W96
//  #07 //038   ----------------------------------------
 BYTE   EOT
 BYTE   Cn1  v048
 BYTE   W96
//  #07 //039   ----------------------------------------
 BYTE   W96
//  #07 //040   ----------------------------------------
 BYTE   W96
//  #07 //041   ----------------------------------------
 BYTE   W96
//  #07 //042   ----------------------------------------
 BYTE   W96
//  #07 //043   ----------------------------------------
 BYTE   W96
//  #07 //044   ----------------------------------------
 BYTE   GoTo
  POIN2 Label_01992CE8
 BYTE   FINE

//**************** Track 8 (Midi-Chn.7) ****************//

TenseMovementsAlt_008:
//  #08 //000   ----------------------------------------
 BYTE   KEYSH   TenseMovementsAlt_key+0
 BYTE   VOICE   63
 BYTE   VOL   22*TenseMovementsAlt_mvl/mxv
 BYTE   PAN   c_v-7
 BYTE   N12  Cn1  v120
 BYTE   N12  Cn2
 BYTE   W12
 BYTE   Cn1
 BYTE   N12  Cn2
 BYTE   W84
//  #08 //001   ----------------------------------------
Label_0199316E:
 BYTE   N12  Cn1  v120
 BYTE   N12  Cn2
 BYTE   W12
 BYTE   Cn1
 BYTE   N12  Cn2
 BYTE   W60
 BYTE   Gn0
 BYTE   N12  Gn1
 BYTE   W24
 BYTE   PEND 
//  #08 //002   ----------------------------------------
 BYTE   Cn1
 BYTE   N12  Cn2
 BYTE   W12
 BYTE   Cn1
 BYTE   N12  Cn2
 BYTE   W84
//  #08 //003   ----------------------------------------
 BYTE   PATT
  POIN2 Label_0199316E
//  #08 //004   ----------------------------------------
Label_0199318A:
 BYTE   N12  Cn1  v120
 BYTE   N12  Cn2
 BYTE   W36
 BYTE   Cn1
 BYTE   N12  Cn2
 BYTE   W36
 BYTE   Cn1
 BYTE   N12  Cn2
 BYTE   W24
 BYTE   PEND 
//  #08 //005   ----------------------------------------
Label_01993199:
 BYTE   N12  Cn1  v120
 BYTE   N12  Cn2
 BYTE   W12
 BYTE   Cn1
 BYTE   N12  Cn2
 BYTE   W24
 BYTE   Cn1
 BYTE   N12  Cn2
 BYTE   W24
 BYTE   Cn1
 BYTE   N12  Cn2
 BYTE   W12
 BYTE   Cn1
 BYTE   N12  Cn2
 BYTE   W24
 BYTE   PEND 
//  #08 //006   ----------------------------------------
Label_019931B0:
 BYTE   N12  Dn1  v120
 BYTE   N12  Dn2
 BYTE   W36
 BYTE   Dn1
 BYTE   N12  Dn2
 BYTE   W36
 BYTE   Dn1
 BYTE   N12  Dn2
 BYTE   W24
 BYTE   PEND 
//  #08 //007   ----------------------------------------
Label_019931BF:
 BYTE   N12  Dn1  v120
 BYTE   N12  Dn2
 BYTE   W12
 BYTE   Dn1
 BYTE   N12  Dn2
 BYTE   W24
 BYTE   Dn1
 BYTE   N12  Dn2
 BYTE   W24
 BYTE   Dn1
 BYTE   N12  Dn2
 BYTE   W12
 BYTE   Dn1
 BYTE   N12  Dn2
 BYTE   W24
 BYTE   PEND 
//  #08 //008   ----------------------------------------
Label_019931D6:
 BYTE   N12  Ds1  v120
 BYTE   N12  Ds2
 BYTE   W36
 BYTE   Ds1
 BYTE   N12  Ds2
 BYTE   W36
 BYTE   Ds1
 BYTE   N12  Ds2
 BYTE   W24
 BYTE   PEND 
//  #08 //009   ----------------------------------------
Label_019931E5:
 BYTE   N12  Ds1  v120
 BYTE   N12  Ds2
 BYTE   W12
 BYTE   Ds1
 BYTE   N12  Ds2
 BYTE   W24
 BYTE   Ds1
 BYTE   N12  Ds2
 BYTE   W24
 BYTE   Ds1
 BYTE   N12  Ds2
 BYTE   W12
 BYTE   Ds1
 BYTE   N12  Ds2
 BYTE   W24
 BYTE   PEND 
//  #08 //010   ----------------------------------------
Label_019931FC:
 BYTE   N12  Fn1  v120
 BYTE   N12  Fn2
 BYTE   W36
 BYTE   Fn1
 BYTE   N12  Fn2
 BYTE   W36
 BYTE   Fn1
 BYTE   N12  Fn2
 BYTE   W24
 BYTE   PEND 
//  #08 //011   ----------------------------------------
Label_0199320B:
 BYTE   N12  Fn1  v120
 BYTE   N12  Fn2
 BYTE   W12
 BYTE   Fn1
 BYTE   N12  Fn2
 BYTE   W24
 BYTE   Fn1
 BYTE   N12  Fn2
 BYTE   W24
 BYTE   Fn1
 BYTE   N12  Fn2
 BYTE   W12
 BYTE   Fn1
 BYTE   N12  Fn2
 BYTE   W24
 BYTE   PEND 
//  #08 //012   ----------------------------------------
Label_01993222:
 BYTE   N12  Gn1  v120
 BYTE   N12  Gn2
 BYTE   W36
 BYTE   Gn1
 BYTE   N12  Gn2
 BYTE   W36
 BYTE   Gn1
 BYTE   N12  Gn2
 BYTE   W24
//  #08 //013   ----------------------------------------
 BYTE   Gn1
 BYTE   N12  Gn2
 BYTE   W12
 BYTE   Gn1
 BYTE   N12  Gn2
 BYTE   W24
 BYTE   Gn1
 BYTE   N12  Gn2
 BYTE   W24
 BYTE   Gn1
 BYTE   N12  Gn2
 BYTE   W12
 BYTE   Gn1
 BYTE   N12  Gn2
 BYTE   W24
//  #08 //014   ----------------------------------------
 BYTE   Gn0
 BYTE   N12  Gn1
 BYTE   W36
 BYTE   Gn0
 BYTE   N12  Gn1
 BYTE   W36
 BYTE   Gn0
 BYTE   N12  Gn1
 BYTE   W24
//  #08 //015   ----------------------------------------
 BYTE   Gn0
 BYTE   N12  Gn1
 BYTE   W12
 BYTE   Gn0
 BYTE   N12  Gn1
 BYTE   W24
 BYTE   Gn0
 BYTE   N12  Gn1
 BYTE   W24
 BYTE   Gn0
 BYTE   N12  Gn1
 BYTE   W12
 BYTE   Gn0
 BYTE   N12  Gn1
 BYTE   W24
//  #08 //016   ----------------------------------------
 BYTE   PATT
  POIN2 Label_0199318A
//  #08 //017   ----------------------------------------
 BYTE   PATT
  POIN2 Label_01993199
//  #08 //018   ----------------------------------------
 BYTE   PATT
  POIN2 Label_0199318A
//  #08 //019   ----------------------------------------
 BYTE   PATT
  POIN2 Label_01993199
//  #08 //020   ----------------------------------------
Label_01993278:
 BYTE   N12  Gs0  v120
 BYTE   N12  Gs1
 BYTE   W36
 BYTE   Gs0
 BYTE   N12  Gs1
 BYTE   W36
 BYTE   Gs0
 BYTE   N12  Gs1
 BYTE   W24
 BYTE   PEND 
//  #08 //021   ----------------------------------------
Label_01993287:
 BYTE   N12  Gs0  v120
 BYTE   N12  Gs1
 BYTE   W12
 BYTE   Gs0
 BYTE   N12  Gs1
 BYTE   W24
 BYTE   Gs0
 BYTE   N12  Gs1
 BYTE   W24
 BYTE   Gs0
 BYTE   N12  Gs1
 BYTE   W12
 BYTE   Gs0
 BYTE   N12  Gs1
 BYTE   W24
 BYTE   PEND 
//  #08 //022   ----------------------------------------
 BYTE   PATT
  POIN2 Label_01993278
//  #08 //023   ----------------------------------------
 BYTE   PATT
  POIN2 Label_01993287
//  #08 //024   ----------------------------------------
 BYTE   N12  Fn1  v112
 BYTE   N12  Fn2  v127
 BYTE   W36
 BYTE   Fn1  v112
 BYTE   N12  Fn2  v127
 BYTE   W36
 BYTE   Fn1  v112
 BYTE   N12  Fn2  v127
 BYTE   W24
//  #08 //025   ----------------------------------------
 BYTE   Ds1  v112
 BYTE   N12  Ds2  v127
 BYTE   W12
 BYTE   As1  v112
 BYTE   W12
 BYTE   N12
 BYTE   W12
 BYTE   Ds1
 BYTE   N12  Ds2  v127
 BYTE   W12
 BYTE   As1  v112
 BYTE   W12
 BYTE   N12
 BYTE   W12
 BYTE   Ds1
 BYTE   N12  Ds2  v127
 BYTE   W12
 BYTE   As1  v112
 BYTE   W12
//  #08 //026   ----------------------------------------
 BYTE   Dn1
 BYTE   N12  Dn2  v127
 BYTE   W36
 BYTE   Dn1  v112
 BYTE   N12  Dn2  v127
 BYTE   W36
 BYTE   Dn1  v112
 BYTE   N12  Dn2  v127
 BYTE   W24
//  #08 //027   ----------------------------------------
 BYTE   Gn1  v112
 BYTE   N12  Gn2  v127
 BYTE   W12
 BYTE   Dn2  v112
 BYTE   W12
 BYTE   N12
 BYTE   W12
 BYTE   Gn1
 BYTE   N12  Gn2  v127
 BYTE   W12
 BYTE   Dn2  v112
 BYTE   W12
 BYTE   N12
 BYTE   W12
 BYTE   Gn1
 BYTE   N12  Gn2  v127
 BYTE   W12
 BYTE   Dn2  v112
 BYTE   W12
//  #08 //028   ----------------------------------------
Label_01993306:
 BYTE   N12  Cn1  v112
 BYTE   N12  Cn2  v127
 BYTE   W36
 BYTE   Cn1  v112
 BYTE   N12  Cn2  v127
 BYTE   W36
 BYTE   Cn1  v112
 BYTE   N12  Cn2  v127
 BYTE   W24
 BYTE   PEND 
//  #08 //029   ----------------------------------------
Label_0199331A:
 BYTE   N12  Cn1  v112
 BYTE   N12  Cn2  v127
 BYTE   W12
 BYTE   Gn1  v112
 BYTE   W12
 BYTE   N12
 BYTE   W12
 BYTE   Cn1
 BYTE   N12  Cn2  v127
 BYTE   W12
 BYTE   Gn1  v112
 BYTE   W12
 BYTE   N12
 BYTE   W12
 BYTE   Cn1
 BYTE   N12  Cn2  v127
 BYTE   W12
 BYTE   Gn1  v112
 BYTE   W12
 BYTE   PEND 
//  #08 //030   ----------------------------------------
 BYTE   PATT
  POIN2 Label_01993306
//  #08 //031   ----------------------------------------
 BYTE   PATT
  POIN2 Label_0199331A
//  #08 //032   ----------------------------------------
 BYTE   W96
//  #08 //033   ----------------------------------------
 BYTE   W96
//  #08 //034   ----------------------------------------
 BYTE   W96
//  #08 //035   ----------------------------------------
 BYTE   W96
//  #08 //036   ----------------------------------------
 BYTE   PATT
  POIN2 Label_0199318A
//  #08 //037   ----------------------------------------
 BYTE   PATT
  POIN2 Label_01993199
//  #08 //038   ----------------------------------------
 BYTE   PATT
  POIN2 Label_019931B0
//  #08 //039   ----------------------------------------
 BYTE   PATT
  POIN2 Label_019931BF
//  #08 //040   ----------------------------------------
 BYTE   PATT
  POIN2 Label_019931D6
//  #08 //041   ----------------------------------------
 BYTE   PATT
  POIN2 Label_019931E5
//  #08 //042   ----------------------------------------
 BYTE   PATT
  POIN2 Label_019931FC
//  #08 //043   ----------------------------------------
 BYTE   PATT
  POIN2 Label_0199320B
//  #08 //044   ----------------------------------------
 BYTE   GoTo
  POIN2 Label_01993222
 BYTE   FINE

//**************** Track 9 (Midi-Chn.8) ****************//

TenseMovementsAlt_009:
//  #09 //000   ----------------------------------------
 BYTE   KEYSH   TenseMovementsAlt_key+0
 BYTE   VOICE   55
 BYTE   VOL   26*TenseMovementsAlt_mvl/mxv
 BYTE   PAN   c_v-20
 BYTE   W96
//  #09 //001   ----------------------------------------
 BYTE   W96
//  #09 //002   ----------------------------------------
 BYTE   W96
//  #09 //003   ----------------------------------------
 BYTE   W96
//  #09 //004   ----------------------------------------
 BYTE   W96
//  #09 //005   ----------------------------------------
 BYTE   W96
//  #09 //006   ----------------------------------------
 BYTE   W96
//  #09 //007   ----------------------------------------
 BYTE   W96
//  #09 //008   ----------------------------------------
 BYTE   W96
//  #09 //009   ----------------------------------------
 BYTE   W96
//  #09 //010   ----------------------------------------
 BYTE   W96
//  #09 //011   ----------------------------------------
 BYTE   W96
//  #09 //012   ----------------------------------------
Label_0199285C:
 BYTE   W96
//  #09 //013   ----------------------------------------
 BYTE   W96
//  #09 //014   ----------------------------------------
 BYTE   W96
//  #09 //015   ----------------------------------------
 BYTE   W96
//  #09 //016   ----------------------------------------
Label_01992860:
 BYTE   N06  Ds2  v120
 BYTE   N06  Gn2
 BYTE   W36
 BYTE   Ds2  v116
 BYTE   N06  Gn2
 BYTE   W36
 BYTE   N09  Dn2  v120
 BYTE   N09  Fn2
 BYTE   W24
 BYTE   PEND 
//  #09 //017   ----------------------------------------
Label_01992872:
 BYTE   N06  Ds2  v120
 BYTE   N06  Gn2
 BYTE   W36
 BYTE   Ds2  v116
 BYTE   N06  Gn2
 BYTE   W60
 BYTE   PEND 
//  #09 //018   ----------------------------------------
 BYTE   PATT
  POIN2 Label_01992860
//  #09 //019   ----------------------------------------
 BYTE   N06  Ds2  v120
 BYTE   N06  Gn2
 BYTE   W12
 BYTE   N04  Ds2  v100
 BYTE   N04  Gn2
 BYTE   W24
 BYTE   N06  Ds2  v116
 BYTE   N06  Gn2
 BYTE   W36
 BYTE   N10  Dn2
 BYTE   N10  Fn2
 BYTE   W24
//  #09 //020   ----------------------------------------
Label_0199289A:
 BYTE   N06  Ds2  v120
 BYTE   N06  Gs2
 BYTE   W36
 BYTE   Ds2  v116
 BYTE   N06  Gs2
 BYTE   W36
 BYTE   N09  Ds2  v120
 BYTE   N09  Gn2
 BYTE   W24
 BYTE   PEND 
//  #09 //021   ----------------------------------------
 BYTE   N06  Ds2
 BYTE   N06  Gs2
 BYTE   W36
 BYTE   Ds2  v116
 BYTE   N06  Gs2
 BYTE   W60
//  #09 //022   ----------------------------------------
 BYTE   PATT
  POIN2 Label_0199289A
//  #09 //023   ----------------------------------------
 BYTE   N06  Ds2  v120
 BYTE   N06  Gs2
 BYTE   W12
 BYTE   N04  Ds2  v100
 BYTE   N04  Gs2
 BYTE   W24
 BYTE   N06  Ds2  v116
 BYTE   N06  Gs2
 BYTE   W36
 BYTE   N10  Ds2
 BYTE   N10  Gn2
 BYTE   W24
//  #09 //024   ----------------------------------------
 BYTE   N06  Fn2  v120
 BYTE   N06  Gs2
 BYTE   W36
 BYTE   Fn2  v116
 BYTE   N06  Gs2
 BYTE   W36
 BYTE   N09  Fn2  v120
 BYTE   N09  Gs2
 BYTE   W24
//  #09 //025   ----------------------------------------
 BYTE   PATT
  POIN2 Label_01992872
//  #09 //026   ----------------------------------------
 BYTE   N06  Dn2  v120
 BYTE   N06  Fn2
 BYTE   W36
 BYTE   Dn2  v116
 BYTE   N06  Fn2
 BYTE   W36
 BYTE   N09  Dn2  v120
 BYTE   N09  Fn2
 BYTE   W24
//  #09 //027   ----------------------------------------
 BYTE   N06  Dn2
 BYTE   N06  Gn2
 BYTE   W12
 BYTE   N04  Dn2  v112
 BYTE   N04  Gn2
 BYTE   W24
 BYTE   N06  Dn2  v116
 BYTE   N06  Gn2
 BYTE   W36
 BYTE   N10  Dn2  v120
 BYTE   N10  Gn2
 BYTE   W24
//  #09 //028   ----------------------------------------
Label_01992910:
 BYTE   W12
 BYTE   N06  Cn2  v120
 BYTE   N06  Gn2
 BYTE   W36
 BYTE   N03  Cn2  v112
 BYTE   N03  Gn2
 BYTE   W36
 BYTE   N04  Cn2  v120
 BYTE   N04  Gn2
 BYTE   W12
 BYTE   PEND 
//  #09 //029   ----------------------------------------
 BYTE   PATT
  POIN2 Label_01992910
//  #09 //030   ----------------------------------------
 BYTE   W12
 BYTE   N06  Cn2  v127
 BYTE   N06  Gn2
 BYTE   W36
 BYTE   N03  Cn2  v116
 BYTE   N03  Gn2
 BYTE   W36
 BYTE   N04  Cn2  v127
 BYTE   N04  Gn2
 BYTE   W12
//  #09 //031   ----------------------------------------
 BYTE   W12
 BYTE   N06  Cn2
 BYTE   N06  Gn2
 BYTE   W36
 BYTE   N03  Cn2  v120
 BYTE   N03  Gn2
 BYTE   W36
 BYTE   N04  Cn2  v127
 BYTE   N04  Gn2
 BYTE   W12
//  #09 //032   ----------------------------------------
 BYTE   W96
//  #09 //033   ----------------------------------------
 BYTE   W96
//  #09 //034   ----------------------------------------
 BYTE   W96
//  #09 //035   ----------------------------------------
 BYTE   W96
//  #09 //036   ----------------------------------------
 BYTE   W96
//  #09 //037   ----------------------------------------
 BYTE   W96
//  #09 //038   ----------------------------------------
 BYTE   W96
//  #09 //039   ----------------------------------------
 BYTE   W96
//  #09 //040   ----------------------------------------
 BYTE   W96
//  #09 //041   ----------------------------------------
 BYTE   W96
//  #09 //042   ----------------------------------------
 BYTE   W96
//  #09 //043   ----------------------------------------
 BYTE   W96
//  #09 //044   ----------------------------------------
 BYTE   GoTo
  POIN2 Label_0199285C
 BYTE   FINE

//**************** Track 10 (Midi-Chn.9) ****************//

TenseMovementsAlt_010:
//  #10 //000   ----------------------------------------
 BYTE   KEYSH   TenseMovementsAlt_key+0
 BYTE   VOICE   123
 BYTE   VOL   29*TenseMovementsAlt_mvl/mxv
 BYTE   PAN   c_v+0
 BYTE   N01  Dn1  v076
 BYTE   W01
 BYTE   N05  Dn1  v100
 BYTE   W11
 BYTE   N06  Dn1  v092
 BYTE   W06
 BYTE   Dn1  v088
 BYTE   W06
 BYTE   N24  Dn1  v096
 BYTE   W36
 BYTE   N01  Dn1  v080
 BYTE   W01
 BYTE   N05  Dn1  v092
 BYTE   W05
 BYTE   N06
 BYTE   W06
 BYTE   Dn1  v096
 BYTE   W06
 BYTE   Dn1  v088
 BYTE   W06
 BYTE   N11  Dn1  v100
 BYTE   W11
 BYTE   N01  Dn1  v088
 BYTE   W01
//  #10 //001   ----------------------------------------
Label_019AE0E7:
 BYTE   N12  Dn1  v100
 BYTE   W12
 BYTE   N06  Dn1  v088
 BYTE   W06
 BYTE   Dn1  v092
 BYTE   W06
 BYTE   N12  Dn1  v096
 BYTE   W12
 BYTE   Dn1  v100
 BYTE   W12
 BYTE   N06  Dn1  v088
 BYTE   W06
 BYTE   Dn1  v092
 BYTE   W06
 BYTE   N12  Dn1  v100
 BYTE   W12
 BYTE   N06  Dn1  v096
 BYTE   W06
 BYTE   N02  Dn1  v088
 BYTE   W02
 BYTE   Dn1  v080
 BYTE   W02
 BYTE   N02
 BYTE   W02
 BYTE   N06  Dn1  v088
 BYTE   W06
 BYTE   Dn1  v092
 BYTE   W06
 BYTE   PEND 
//  #10 //002   ----------------------------------------
 BYTE   N01  Dn1  v076
 BYTE   W01
 BYTE   N05  Dn1  v100
 BYTE   W11
 BYTE   N06  Dn1  v092
 BYTE   W06
 BYTE   Dn1  v088
 BYTE   W06
 BYTE   N24  Dn1  v096
 BYTE   W36
 BYTE   N01  Dn1  v080
 BYTE   W01
 BYTE   N05  Dn1  v092
 BYTE   W05
 BYTE   N06
 BYTE   W06
 BYTE   Dn1  v096
 BYTE   W06
 BYTE   Dn1  v088
 BYTE   W06
 BYTE   N11  Dn1  v100
 BYTE   W11
 BYTE   N01  Dn1  v088
 BYTE   W01
//  #10 //003   ----------------------------------------
 BYTE   PATT
  POIN2 Label_019AE0E7
//  #10 //004   ----------------------------------------
Label_019AE149:
 BYTE   N12  Dn1  v100
 BYTE   W12
 BYTE   N06  Dn1  v076
 BYTE   W06
 BYTE   Dn1  v088
 BYTE   W06
 BYTE   N12  Dn1  v096
 BYTE   W12
 BYTE   Dn1  v100
 BYTE   W12
 BYTE   N06  Dn1  v076
 BYTE   W06
 BYTE   Dn1  v088
 BYTE   W06
 BYTE   N12  Dn1  v096
 BYTE   W12
 BYTE   Dn1  v100
 BYTE   W12
 BYTE   N06  Dn1  v076
 BYTE   W06
 BYTE   Dn1  v088
 BYTE   W06
 BYTE   PEND 
//  #10 //005   ----------------------------------------
Label_019AE171:
 BYTE   N12  Dn1  v100
 BYTE   W12
 BYTE   N06  Dn1  v076
 BYTE   W06
 BYTE   Dn1  v088
 BYTE   W06
 BYTE   N12  Dn1  v096
 BYTE   W12
 BYTE   Dn1  v100
 BYTE   W12
 BYTE   N06  Dn1  v080
 BYTE   W06
 BYTE   Dn1  v092
 BYTE   W06
 BYTE   Dn1  v080
 BYTE   W06
 BYTE   Dn1  v088
 BYTE   W06
 BYTE   Dn1  v096
 BYTE   W06
 BYTE   N03  Dn1  v080
 BYTE   W03
 BYTE   N03
 BYTE   W03
 BYTE   N06  Dn1  v096
 BYTE   W06
 BYTE   Dn1  v108
 BYTE   W06
 BYTE   PEND 
//  #10 //006   ----------------------------------------
 BYTE   PATT
  POIN2 Label_019AE149
//  #10 //007   ----------------------------------------
 BYTE   PATT
  POIN2 Label_019AE171
//  #10 //008   ----------------------------------------
 BYTE   PATT
  POIN2 Label_019AE149
//  #10 //009   ----------------------------------------
 BYTE   PATT
  POIN2 Label_019AE171
//  #10 //010   ----------------------------------------
 BYTE   PATT
  POIN2 Label_019AE149
//  #10 //011   ----------------------------------------
 BYTE   PATT
  POIN2 Label_019AE171
//  #10 //012   ----------------------------------------
Label_019AE1BF:
//  #10 //013   ----------------------------------------
 BYTE   PATT
  POIN2 Label_019AE149
//  #10 //014   ----------------------------------------
 BYTE   PATT
  POIN2 Label_019AE171
//  #10 //015   ----------------------------------------
 BYTE   PATT
  POIN2 Label_019AE149
//  #10 //016   ----------------------------------------
 BYTE   PATT
  POIN2 Label_019AE171
//  #10 //017   ----------------------------------------
 BYTE   PATT
  POIN2 Label_019AE149
//  #10 //018   ----------------------------------------
 BYTE   PATT
  POIN2 Label_019AE171
//  #10 //019   ----------------------------------------
 BYTE   PATT
  POIN2 Label_019AE149
//  #10 //020   ----------------------------------------
 BYTE   PATT
  POIN2 Label_019AE171
//  #10 //021   ----------------------------------------
 BYTE   PATT
  POIN2 Label_019AE149
//  #10 //022   ----------------------------------------
 BYTE   PATT
  POIN2 Label_019AE171
//  #10 //023   ----------------------------------------
 BYTE   PATT
  POIN2 Label_019AE149
//  #10 //024   ----------------------------------------
 BYTE   PATT
  POIN2 Label_019AE171
//  #10 //025   ----------------------------------------
 BYTE   PATT
  POIN2 Label_019AE171
//  #10 //026   ----------------------------------------
 BYTE   PATT
  POIN2 Label_019AE149
//  #10 //027   ----------------------------------------
 BYTE   PATT
  POIN2 Label_019AE171
//  #10 //028   ----------------------------------------
 BYTE   PATT
  POIN2 Label_019AE149
//  #10 //029   ----------------------------------------
 BYTE   PATT
  POIN2 Label_019AE149
//  #10 //030   ----------------------------------------
 BYTE   PATT
  POIN2 Label_019AE171
//  #10 //031   ----------------------------------------
 BYTE   N12  Dn1  v104
 BYTE   W12
 BYTE   N06  Dn1  v080
 BYTE   W06
 BYTE   Dn1  v088
 BYTE   W06
 BYTE   N12  Dn1  v100
 BYTE   W12
 BYTE   Dn1  v104
 BYTE   W12
 BYTE   N06  Dn1  v080
 BYTE   W06
 BYTE   Dn1  v088
 BYTE   W06
 BYTE   N12  Dn1  v100
 BYTE   W12
 BYTE   Dn1  v104
 BYTE   W12
 BYTE   N06  Dn1  v080
 BYTE   W06
 BYTE   Dn1  v088
 BYTE   W06
//  #10 //032   ----------------------------------------
 BYTE   N12  Dn1  v108
 BYTE   W12
 BYTE   N06  Dn1  v080
 BYTE   W06
 BYTE   Dn1  v092
 BYTE   W06
 BYTE   N12  Dn1  v100
 BYTE   W12
 BYTE   Dn1  v108
 BYTE   W12
 BYTE   N06  Dn1  v088
 BYTE   W06
 BYTE   Dn1  v096
 BYTE   W06
 BYTE   Dn1  v088
 BYTE   W06
 BYTE   Dn1  v092
 BYTE   W06
 BYTE   Dn1  v100
 BYTE   W06
 BYTE   N03  Dn1  v088
 BYTE   W03
 BYTE   N03
 BYTE   W03
 BYTE   N06  Dn1  v100
 BYTE   W06
 BYTE   Dn1  v112
 BYTE   W06
//  #10 //033   ----------------------------------------
 BYTE   N01
 BYTE   W01
 BYTE   N10  Dn1  v088
 BYTE   W92
 BYTE   W03
//  #10 //034   ----------------------------------------
 BYTE   W72
 BYTE   N02  Dn1  v092
 BYTE   W02
 BYTE   N04  Dn1  v080
 BYTE   W04
 BYTE   N06
 BYTE   W06
 BYTE   Dn1  v092
 BYTE   W12
//  #10 //035   ----------------------------------------
 BYTE   N12  Dn1  v096
 BYTE   W12
 BYTE   N06  Dn1  v072
 BYTE   W06
 BYTE   Dn1  v080
 BYTE   W06
 BYTE   N12  Dn1  v092
 BYTE   W12
 BYTE   Dn1  v096
 BYTE   W12
 BYTE   N06  Dn1  v072
 BYTE   W06
 BYTE   Dn1  v080
 BYTE   W06
 BYTE   N12  Dn1  v092
 BYTE   W12
 BYTE   Dn1  v096
 BYTE   W12
 BYTE   N06  Dn1  v072
 BYTE   W06
 BYTE   Dn1  v080
 BYTE   W06
//  #10 //036   ----------------------------------------
 BYTE   N12  Dn1  v096
 BYTE   W12
 BYTE   N06  Dn1  v072
 BYTE   W06
 BYTE   Dn1  v080
 BYTE   W06
 BYTE   N12  Dn1  v092
 BYTE   W12
 BYTE   Dn1  v096
 BYTE   W12
 BYTE   N06  Dn1  v076
 BYTE   W06
 BYTE   Dn1  v088
 BYTE   W06
 BYTE   Dn1  v076
 BYTE   W06
 BYTE   Dn1  v080
 BYTE   W06
 BYTE   Dn1  v092
 BYTE   W06
 BYTE   N03  Dn1  v076
 BYTE   W03
 BYTE   N03
 BYTE   W03
 BYTE   N06  Dn1  v092
 BYTE   W06
 BYTE   Dn1  v100
 BYTE   W06
//  #10 //037   ----------------------------------------
 BYTE   PATT
  POIN2 Label_019AE149
//  #10 //038   ----------------------------------------
 BYTE   PATT
  POIN2 Label_019AE171
//  #10 //039   ----------------------------------------
 BYTE   PATT
  POIN2 Label_019AE149
//  #10 //040   ----------------------------------------
 BYTE   PATT
  POIN2 Label_019AE171
//  #10 //041   ----------------------------------------
 BYTE   PATT
  POIN2 Label_019AE149
//  #10 //042   ----------------------------------------
 BYTE   PATT
  POIN2 Label_019AE171
//  #10 //043   ----------------------------------------
 BYTE   PATT
  POIN2 Label_019AE149
//  #10 //044   ----------------------------------------
 BYTE   PATT
  POIN2 Label_019AE171
//  #10 //045   ----------------------------------------
 BYTE   GoTo
  POIN2 Label_019AE1BF
 BYTE   FINE

//**************** Track 11 (Midi-Chn.10) ****************//

TenseMovementsAlt_011:
//  #11 //000   ----------------------------------------
 BYTE   KEYSH   TenseMovementsAlt_key+0
 BYTE   VOICE   2
 BYTE   PAN   c_v-44
 BYTE   VOL   28*TenseMovementsAlt_mvl/mxv
 BYTE   W96
//  #11 //001   ----------------------------------------
 BYTE   N06  Gn1  v112
 BYTE   W06
 BYTE   Dn2  v108
 BYTE   W06
 BYTE   Gn2
 BYTE   W06
 BYTE   An2
 BYTE   W06
 BYTE   Bn2
 BYTE   W06
 BYTE   Dn3
 BYTE   W06
 BYTE   Gn3
 BYTE   W06
 BYTE   An3
 BYTE   W06
 BYTE   N04  Bn3
 BYTE   W04
 BYTE   Cn4  v100
 BYTE   W04
 BYTE   Dn4
 BYTE   W04
 BYTE   Fn4
 BYTE   W04
 BYTE   Gn4
 BYTE   W04
 BYTE   Bn4
 BYTE   W04
 BYTE   N06  Cn5  v096
 BYTE   W24
//  #11 //002   ----------------------------------------
 BYTE   W96
//  #11 //003   ----------------------------------------
 BYTE   N12  Cn5  v116
 BYTE   W06
 BYTE   N06  Bn4  v108
 BYTE   W06
 BYTE   N12  Gn4
 BYTE   W06
 BYTE   N06  Fn4
 BYTE   W06
 BYTE   Dn4
 BYTE   W06
 BYTE   Cn4
 BYTE   W06
 BYTE   An3
 BYTE   W06
 BYTE   N12  Gn3  v104
 BYTE   W06
 BYTE   N18  Dn3
 BYTE   W06
 BYTE   Bn2  v064
 BYTE   W06
 BYTE   N30  An2  v104
 BYTE   W06
 BYTE   N42  Gn2
 BYTE   W12
 BYTE   Dn2  v108
 BYTE   W06
 BYTE   N66  Gn1  v104
 BYTE   W12
//  #11 //004   ----------------------------------------
 BYTE   W96
//  #11 //005   ----------------------------------------
 BYTE   W96
//  #11 //006   ----------------------------------------
 BYTE   W96
//  #11 //007   ----------------------------------------
 BYTE   W96
//  #11 //008   ----------------------------------------
 BYTE   W96
//  #11 //009   ----------------------------------------
 BYTE   W96
//  #11 //010   ----------------------------------------
 BYTE   W96
//  #11 //011   ----------------------------------------
 BYTE   W96
//  #11 //012   ----------------------------------------
Label_01992353:
 BYTE   W96
//  #11 //013   ----------------------------------------
 BYTE   W96
//  #11 //014   ----------------------------------------
 BYTE   W96
//  #11 //015   ----------------------------------------
 BYTE   W12
 BYTE   N06  Gn1  v112
 BYTE   W06
 BYTE   Dn2  v108
 BYTE   W06
 BYTE   Gn2
 BYTE   W06
 BYTE   An2
 BYTE   W06
 BYTE   Bn2
 BYTE   W06
 BYTE   Dn3
 BYTE   W06
 BYTE   Gn3
 BYTE   W06
 BYTE   An3
 BYTE   W06
 BYTE   N04  Bn3
 BYTE   W04
 BYTE   Cn4  v100
 BYTE   W04
 BYTE   Dn4
 BYTE   W04
 BYTE   Fn4
 BYTE   W04
 BYTE   Gn4
 BYTE   W04
 BYTE   Bn4
 BYTE   W04
 BYTE   N06  Cn5  v096
 BYTE   W12
//  #11 //016   ----------------------------------------
 BYTE   W96
//  #11 //017   ----------------------------------------
 BYTE   W96
//  #11 //018   ----------------------------------------
 BYTE   W96
//  #11 //019   ----------------------------------------
 BYTE   W96
//  #11 //020   ----------------------------------------
 BYTE   W96
//  #11 //021   ----------------------------------------
 BYTE   W96
//  #11 //022   ----------------------------------------
 BYTE   W96
//  #11 //023   ----------------------------------------
 BYTE   W96
//  #11 //024   ----------------------------------------
 BYTE   W96
//  #11 //025   ----------------------------------------
 BYTE   W96
//  #11 //026   ----------------------------------------
 BYTE   W96
//  #11 //027   ----------------------------------------
 BYTE   W96
//  #11 //028   ----------------------------------------
 BYTE   W96
//  #11 //029   ----------------------------------------
 BYTE   W96
//  #11 //030   ----------------------------------------
 BYTE   W96
//  #11 //031   ----------------------------------------
 BYTE   W96
//  #11 //032   ----------------------------------------
 BYTE   W96
//  #11 //033   ----------------------------------------
 BYTE   W96
//  #11 //034   ----------------------------------------
 BYTE   W12
 BYTE   TIE  Cn1
 BYTE   TIE  Cn2
 BYTE   W24
 BYTE   N24  Gn2
 BYTE   W24
 BYTE   Cn3
 BYTE   W24
 BYTE   Ds3
 BYTE   W12
//  #11 //035   ----------------------------------------
 BYTE   W12
 BYTE   Fn3
 BYTE   W24
 BYTE   Gn3  v092
 BYTE   W24
 BYTE   Cn4  v088
 BYTE   W24
 BYTE   EOT
 BYTE   Cn1  v048
 BYTE   N24  Gn4
 BYTE   W12
//  #11 //036   ----------------------------------------
 BYTE   W96
//  #11 //037   ----------------------------------------
 BYTE   W96
//  #11 //038   ----------------------------------------
 BYTE   W96
//  #11 //039   ----------------------------------------
 BYTE   W96
//  #11 //040   ----------------------------------------
 BYTE   W96
//  #11 //041   ----------------------------------------
 BYTE   W96
//  #11 //042   ----------------------------------------
 BYTE   W96
//  #11 //043   ----------------------------------------
 BYTE   W96
//  #11 //044   ----------------------------------------
 BYTE   GoTo
  POIN2 Label_01992353
 BYTE   FINE

//**************** Track 12 (Midi-Chn.11) ****************//

TenseMovementsAlt_012:
//  #12 //000   ----------------------------------------
 BYTE   KEYSH   TenseMovementsAlt_key+0
 BYTE   VOICE   14
 BYTE   PAN   c_v+20
 BYTE   VOL   27*TenseMovementsAlt_mvl/mxv
 BYTE   W96
//  #12 //001   ----------------------------------------
 BYTE   W96
//  #12 //002   ----------------------------------------
 BYTE   W96
//  #12 //003   ----------------------------------------
 BYTE   W96
//  #12 //004   ----------------------------------------
 BYTE   W96
//  #12 //005   ----------------------------------------
 BYTE   W96
//  #12 //006   ----------------------------------------
 BYTE   W96
//  #12 //007   ----------------------------------------
 BYTE   W96
//  #12 //008   ----------------------------------------
 BYTE   W96
//  #12 //009   ----------------------------------------
 BYTE   W96
//  #12 //010   ----------------------------------------
 BYTE   W96
//  #12 //011   ----------------------------------------
 BYTE   W96
//  #12 //012   ----------------------------------------
Label_01992D34:
 BYTE   W96
//  #12 //013   ----------------------------------------
 BYTE   W96
//  #12 //014   ----------------------------------------
 BYTE   W96
//  #12 //015   ----------------------------------------
 BYTE   W96
//  #12 //016   ----------------------------------------
 BYTE   W96
//  #12 //017   ----------------------------------------
 BYTE   W96
//  #12 //018   ----------------------------------------
 BYTE   W96
//  #12 //019   ----------------------------------------
 BYTE   W96
//  #12 //020   ----------------------------------------
 BYTE   W96
//  #12 //021   ----------------------------------------
 BYTE   W96
//  #12 //022   ----------------------------------------
 BYTE   W96
//  #12 //023   ----------------------------------------
 BYTE   W96
//  #12 //024   ----------------------------------------
 BYTE   W96
//  #12 //025   ----------------------------------------
 BYTE   W96
//  #12 //026   ----------------------------------------
 BYTE   W96
//  #12 //027   ----------------------------------------
 BYTE   W96
//  #12 //028   ----------------------------------------
 BYTE   W96
//  #12 //029   ----------------------------------------
 BYTE   W96
//  #12 //030   ----------------------------------------
 BYTE   W96
//  #12 //031   ----------------------------------------
 BYTE   W96
//  #12 //032   ----------------------------------------
 BYTE   W48
 BYTE   N72  Gn3  v120
 BYTE   N72  Dn4
 BYTE   W48
//  #12 //033   ----------------------------------------
 BYTE   W96
//  #12 //034   ----------------------------------------
 BYTE   W96
//  #12 //035   ----------------------------------------
 BYTE   W96
//  #12 //036   ----------------------------------------
 BYTE   W96
//  #12 //037   ----------------------------------------
 BYTE   W96
//  #12 //038   ----------------------------------------
 BYTE   W96
//  #12 //039   ----------------------------------------
 BYTE   W96
//  #12 //040   ----------------------------------------
 BYTE   W96
//  #12 //041   ----------------------------------------
 BYTE   W96
//  #12 //042   ----------------------------------------
 BYTE   W96
//  #12 //043   ----------------------------------------
 BYTE   W96
//  #12 //044   ----------------------------------------
 BYTE   GoTo
  POIN2 Label_01992D34
 BYTE   FINE

//**************** Track 13 (Midi-Chn.12) ****************//

TenseMovementsAlt_013:
//  #13 //000   ----------------------------------------
 BYTE   KEYSH   TenseMovementsAlt_key+0
 BYTE   VOICE   14
 BYTE   PAN   c_v-20
 BYTE   VOL   27*TenseMovementsAlt_mvl/mxv
 BYTE   W96
//  #13 //001   ----------------------------------------
 BYTE   W96
//  #13 //002   ----------------------------------------
 BYTE   W96
//  #13 //003   ----------------------------------------
 BYTE   W96
//  #13 //004   ----------------------------------------
 BYTE   W96
//  #13 //005   ----------------------------------------
 BYTE   W96
//  #13 //006   ----------------------------------------
 BYTE   W96
//  #13 //007   ----------------------------------------
 BYTE   W96
//  #13 //008   ----------------------------------------
 BYTE   W96
//  #13 //009   ----------------------------------------
 BYTE   W96
//  #13 //010   ----------------------------------------
 BYTE   W96
//  #13 //011   ----------------------------------------
 BYTE   W96
//  #13 //012   ----------------------------------------
Label_0199370C:
 BYTE   W96
//  #13 //013   ----------------------------------------
 BYTE   W96
//  #13 //014   ----------------------------------------
 BYTE   W96
//  #13 //015   ----------------------------------------
 BYTE   W96
//  #13 //016   ----------------------------------------
 BYTE   W96
//  #13 //017   ----------------------------------------
 BYTE   W96
//  #13 //018   ----------------------------------------
 BYTE   W96
//  #13 //019   ----------------------------------------
 BYTE   W96
//  #13 //020   ----------------------------------------
 BYTE   W96
//  #13 //021   ----------------------------------------
 BYTE   W96
//  #13 //022   ----------------------------------------
 BYTE   W96
//  #13 //023   ----------------------------------------
 BYTE   W96
//  #13 //024   ----------------------------------------
 BYTE   W96
//  #13 //025   ----------------------------------------
 BYTE   W96
//  #13 //026   ----------------------------------------
 BYTE   W96
//  #13 //027   ----------------------------------------
 BYTE   W96
//  #13 //028   ----------------------------------------
 BYTE   W96
//  #13 //029   ----------------------------------------
 BYTE   W96
//  #13 //030   ----------------------------------------
 BYTE   W96
//  #13 //031   ----------------------------------------
 BYTE   W96
//  #13 //032   ----------------------------------------
 BYTE   N72  Gn1  v124
 BYTE   N96  Gn2  v112
 BYTE   W96
//  #13 //033   ----------------------------------------
 BYTE   W96
//  #13 //034   ----------------------------------------
 BYTE   W96
//  #13 //035   ----------------------------------------
 BYTE   W96
//  #13 //036   ----------------------------------------
 BYTE   W96
//  #13 //037   ----------------------------------------
 BYTE   W96
//  #13 //038   ----------------------------------------
 BYTE   W96
//  #13 //039   ----------------------------------------
 BYTE   W96
//  #13 //040   ----------------------------------------
 BYTE   W96
//  #13 //041   ----------------------------------------
 BYTE   W96
//  #13 //042   ----------------------------------------
 BYTE   W96
//  #13 //043   ----------------------------------------
 BYTE   W96
//  #13 //044   ----------------------------------------
 BYTE   GoTo
  POIN2 Label_0199370C
 BYTE   FINE

//**************** Track 14 (Midi-Chn.13) ****************//

TenseMovementsAlt_014:
//  #14 //000   ----------------------------------------
 BYTE   KEYSH   TenseMovementsAlt_key+0
 BYTE   VOICE   55
 BYTE   PAN   c_v-4
 BYTE   VOL   30*TenseMovementsAlt_mvl/mxv
 BYTE   W96
//  #14 //001   ----------------------------------------
 BYTE   W96
//  #14 //002   ----------------------------------------
 BYTE   W96
//  #14 //003   ----------------------------------------
 BYTE   W96
//  #14 //004   ----------------------------------------
 BYTE   W96
//  #14 //005   ----------------------------------------
 BYTE   W96
//  #14 //006   ----------------------------------------
 BYTE   W96
//  #14 //007   ----------------------------------------
 BYTE   W96
//  #14 //008   ----------------------------------------
 BYTE   W96
//  #14 //009   ----------------------------------------
 BYTE   W96
//  #14 //010   ----------------------------------------
 BYTE   W96
//  #14 //011   ----------------------------------------
 BYTE   W96
//  #14 //012   ----------------------------------------
Label_019AE3E4:
 BYTE   W96
//  #14 //013   ----------------------------------------
 BYTE   W84
 BYTE   N04  Gn1  v116
 BYTE   W04
 BYTE   Gn1  v112
 BYTE   W04
 BYTE   Gn1  v120
 BYTE   W04
//  #14 //014   ----------------------------------------
 BYTE   N12  Gn1  v124
 BYTE   W24
 BYTE   Dn1  v104
 BYTE   W12
 BYTE   Gn1  v124
 BYTE   W24
 BYTE   Gn1  v112
 BYTE   W12
 BYTE   Dn1  v120
 BYTE   W12
 BYTE   Gn1  v108
 BYTE   W12
//  #14 //015   ----------------------------------------
 BYTE   Gn1  v127
 BYTE   W24
 BYTE   Gn1  v120
 BYTE   W12
 BYTE   Dn1  v112
 BYTE   W24
 BYTE   Dn1  v108
 BYTE   W12
 BYTE   Gn1  v127
 BYTE   W12
 BYTE   Dn1  v120
 BYTE   W12
//  #14 //016   ----------------------------------------
 BYTE   Cn2  v124
 BYTE   W12
 BYTE   Gn1  v108
 BYTE   W12
 BYTE   Gn1  v100
 BYTE   W12
 BYTE   Cn2  v120
 BYTE   W12
 BYTE   Gn1  v108
 BYTE   W12
 BYTE   Gn1  v100
 BYTE   W12
 BYTE   Cn2  v120
 BYTE   W12
 BYTE   Gn1  v104
 BYTE   W12
//  #14 //017   ----------------------------------------
 BYTE   Cn2  v120
 BYTE   W24
 BYTE   Cn2  v112
 BYTE   W12
 BYTE   Gn1  v108
 BYTE   W24
 BYTE   Gn1  v100
 BYTE   W12
 BYTE   Cn2  v120
 BYTE   W12
 BYTE   Gn1  v112
 BYTE   W12
//  #14 //018   ----------------------------------------
 BYTE   Cn2  v120
 BYTE   W24
 BYTE   Gn1  v100
 BYTE   W12
 BYTE   Cn2  v120
 BYTE   W12
 BYTE   Gn1  v108
 BYTE   W12
 BYTE   Gn1  v100
 BYTE   W12
 BYTE   Cn2  v120
 BYTE   W12
 BYTE   Gn1  v104
 BYTE   W12
//  #14 //019   ----------------------------------------
 BYTE   Cn2  v120
 BYTE   W24
 BYTE   Cn2  v112
 BYTE   W12
 BYTE   Gn1  v108
 BYTE   W24
 BYTE   Gn1  v100
 BYTE   W12
 BYTE   Cn2  v120
 BYTE   W12
 BYTE   N06  Gn1  v112
 BYTE   W06
 BYTE   N02  Gn1  v120
 BYTE   W02
 BYTE   Gn1  v112
 BYTE   W02
 BYTE   Gn1  v120
 BYTE   W02
//  #14 //020   ----------------------------------------
Label_019AE471:
 BYTE   N12  Gs1  v124
 BYTE   W24
 BYTE   Ds1  v104
 BYTE   W12
 BYTE   Gs1  v124
 BYTE   W24
 BYTE   Gs1  v112
 BYTE   W12
 BYTE   Ds1  v120
 BYTE   W12
 BYTE   Gs1  v108
 BYTE   W12
 BYTE   PEND 
//  #14 //021   ----------------------------------------
 BYTE   Gs1  v127
 BYTE   W24
 BYTE   Gs1  v120
 BYTE   W12
 BYTE   Ds1  v112
 BYTE   W24
 BYTE   Ds1  v104
 BYTE   W12
 BYTE   Gs1  v127
 BYTE   W12
 BYTE   Ds1  v120
 BYTE   W12
//  #14 //022   ----------------------------------------
 BYTE   PATT
  POIN2 Label_019AE471
//  #14 //023   ----------------------------------------
 BYTE   N12  Gs1  v127
 BYTE   W24
 BYTE   Gs1  v120
 BYTE   W12
 BYTE   Ds1  v112
 BYTE   W24
 BYTE   Ds1  v108
 BYTE   W12
 BYTE   Gs1  v127
 BYTE   W12
 BYTE   Ds1  v120
 BYTE   W12
//  #14 //024   ----------------------------------------
 BYTE   Fn1  v124
 BYTE   W24
 BYTE   Cn2  v104
 BYTE   W12
 BYTE   Fn1  v124
 BYTE   W12
 BYTE   Cn2  v112
 BYTE   W12
 BYTE   Cn2  v104
 BYTE   W12
 BYTE   Fn1  v124
 BYTE   W12
 BYTE   Cn2  v108
 BYTE   W12
//  #14 //025   ----------------------------------------
 BYTE   Ds2  v127
 BYTE   W24
 BYTE   Ds2  v120
 BYTE   W12
 BYTE   As1  v112
 BYTE   W24
 BYTE   As1  v104
 BYTE   W12
 BYTE   Ds2  v127
 BYTE   W12
 BYTE   As1  v112
 BYTE   W12
//  #14 //026   ----------------------------------------
 BYTE   Dn2  v124
 BYTE   W24
 BYTE   Gs1  v104
 BYTE   W12
 BYTE   Dn2  v124
 BYTE   W12
 BYTE   Gs1  v112
 BYTE   W12
 BYTE   Gs1  v104
 BYTE   W12
 BYTE   Dn2  v124
 BYTE   W12
 BYTE   Gs1  v108
 BYTE   W12
//  #14 //027   ----------------------------------------
 BYTE   Gn1  v127
 BYTE   W24
 BYTE   Gn1  v120
 BYTE   W12
 BYTE   Dn2  v112
 BYTE   W24
 BYTE   Dn2  v104
 BYTE   W12
 BYTE   Gn1  v127
 BYTE   W12
 BYTE   Dn2  v112
 BYTE   W12
//  #14 //028   ----------------------------------------
 BYTE   Cn2  v127
 BYTE   W24
 BYTE   Gn1  v104
 BYTE   W12
 BYTE   Cn2  v124
 BYTE   W12
 BYTE   Gn1  v112
 BYTE   W12
 BYTE   Gn1  v104
 BYTE   W12
 BYTE   Cn2  v124
 BYTE   W12
 BYTE   Gn1  v108
 BYTE   W12
//  #14 //029   ----------------------------------------
Label_019AE512:
 BYTE   N12  Cn2  v127
 BYTE   W24
 BYTE   Cn2  v120
 BYTE   W12
 BYTE   Gn1  v112
 BYTE   W24
 BYTE   Gn1  v104
 BYTE   W12
 BYTE   Cn2  v127
 BYTE   W12
 BYTE   Gn1  v112
 BYTE   W12
 BYTE   PEND 
//  #14 //030   ----------------------------------------
 BYTE   Cn2  v124
 BYTE   W24
 BYTE   Gn1  v104
 BYTE   W12
 BYTE   Cn2  v124
 BYTE   W12
 BYTE   Gn1  v112
 BYTE   W12
 BYTE   Gn1  v104
 BYTE   W12
 BYTE   Cn2  v124
 BYTE   W12
 BYTE   Gn1  v108
 BYTE   W12
//  #14 //031   ----------------------------------------
 BYTE   PATT
  POIN2 Label_019AE512
//  #14 //032   ----------------------------------------
 BYTE   N24  Cn2  v127
 BYTE   W96
//  #14 //033   ----------------------------------------
 BYTE   W96
//  #14 //034   ----------------------------------------
 BYTE   W96
//  #14 //035   ----------------------------------------
 BYTE   W96
//  #14 //036   ----------------------------------------
 BYTE   W96
//  #14 //037   ----------------------------------------
 BYTE   W96
//  #14 //038   ----------------------------------------
 BYTE   W96
//  #14 //039   ----------------------------------------
 BYTE   W96
//  #14 //040   ----------------------------------------
 BYTE   W96
//  #14 //041   ----------------------------------------
 BYTE   W96
//  #14 //042   ----------------------------------------
 BYTE   W96
//  #14 //043   ----------------------------------------
 BYTE   W96
//  #14 //044   ----------------------------------------
 BYTE   GoTo
  POIN2 Label_019AE3E4
 BYTE   FINE

//**************** Track 15 (Midi-Chn.14) ****************//

TenseMovementsAlt_015:
//  #15 //000   ----------------------------------------
 BYTE   KEYSH   TenseMovementsAlt_key+0
 BYTE   VOICE   123
 BYTE   VOL   31*TenseMovementsAlt_mvl/mxv
 BYTE   PAN   c_v+0
 BYTE   N96  Cs2  v120
 BYTE   W96
//  #15 //001   ----------------------------------------
 BYTE   W96
//  #15 //002   ----------------------------------------
 BYTE   TIE  En2  v127
 BYTE   W96
//  #15 //003   ----------------------------------------
 BYTE   W96
//  #15 //004   ----------------------------------------
 BYTE   N96  Cs2  v120
 BYTE   N24  An2  v108
 BYTE   W24
 BYTE   EOT
 BYTE   En2
 BYTE   W12
 BYTE   N24  An2  v088
 BYTE   W60
//  #15 //005   ----------------------------------------
 BYTE   W72
 BYTE   An2  v100
 BYTE   W24
//  #15 //006   ----------------------------------------
Label_019926B0:
 BYTE   N24  An2  v108
 BYTE   W36
 BYTE   An2  v088
 BYTE   W60
 BYTE   PEND 
//  #15 //007   ----------------------------------------
 BYTE   W72
 BYTE   An2  v100
 BYTE   W24
//  #15 //008   ----------------------------------------
 BYTE   PATT
  POIN2 Label_019926B0
//  #15 //009   ----------------------------------------
 BYTE   W72
 BYTE   N24  An2  v100
 BYTE   W24
//  #15 //010   ----------------------------------------
 BYTE   PATT
  POIN2 Label_019926B0
//  #15 //011   ----------------------------------------
 BYTE   W72
 BYTE   N24  An2  v100
 BYTE   W24
//  #15 //012   ----------------------------------------
Label_019926D0:
//  #15 //013   ----------------------------------------
 BYTE   PATT
  POIN2 Label_019926B0
//  #15 //014   ----------------------------------------
 BYTE   W72
 BYTE   N24  An2  v100
 BYTE   W24
//  #15 //015   ----------------------------------------
 BYTE   TIE  En2  v127
 BYTE   N24  An2  v108
 BYTE   W36
 BYTE   An2  v088
 BYTE   W60
//  #15 //016   ----------------------------------------
 BYTE   W72
 BYTE   An2  v100
 BYTE   W24
//  #15 //017   ----------------------------------------
 BYTE   N96  Fn2  v060
 BYTE   W24
 BYTE   EOT
 BYTE   En2
 BYTE   W72
//  #15 //018   ----------------------------------------
 BYTE   W96
//  #15 //019   ----------------------------------------
 BYTE   W96
//  #15 //020   ----------------------------------------
 BYTE   W96
//  #15 //021   ----------------------------------------
 BYTE   W96
//  #15 //022   ----------------------------------------
 BYTE   W96
//  #15 //023   ----------------------------------------
 BYTE   W96
//  #15 //024   ----------------------------------------
 BYTE   W96
//  #15 //025   ----------------------------------------
 BYTE   W96
//  #15 //026   ----------------------------------------
 BYTE   W96
//  #15 //027   ----------------------------------------
 BYTE   W96
//  #15 //028   ----------------------------------------
 BYTE   W96
//  #15 //029   ----------------------------------------
 BYTE   W96
//  #15 //030   ----------------------------------------
 BYTE   W96
//  #15 //031   ----------------------------------------
 BYTE   TIE  En2  v127
 BYTE   W96
//  #15 //032   ----------------------------------------
 BYTE   W96
//  #15 //033   ----------------------------------------
 BYTE   N96  Cs2  v120
 BYTE   N24  An2
 BYTE   W24
 BYTE   EOT
 BYTE   En2
 BYTE   W72
//  #15 //034   ----------------------------------------
 BYTE   W96
//  #15 //035   ----------------------------------------
 BYTE   W96
//  #15 //036   ----------------------------------------
 BYTE   TIE  En2  v112
 BYTE   W96
//  #15 //037   ----------------------------------------
 BYTE   N96  Cs2  v120
 BYTE   N24  An2  v100
 BYTE   W36
 BYTE   An2  v112
 BYTE   W60
//  #15 //038   ----------------------------------------
 BYTE   W24
 BYTE   EOT
 BYTE   En2
 BYTE   W48
 BYTE   N24  An2  v120
 BYTE   W24
//  #15 //039   ----------------------------------------
Label_01992722:
 BYTE   N24  An2  v120
 BYTE   W36
 BYTE   An2  v100
 BYTE   W60
 BYTE   PEND 
//  #15 //040   ----------------------------------------
 BYTE   W72
 BYTE   An2  v120
 BYTE   W24
//  #15 //041   ----------------------------------------
 BYTE   PATT
  POIN2 Label_01992722
//  #15 //042   ----------------------------------------
 BYTE   W72
 BYTE   N24  An2  v120
 BYTE   W24
//  #15 //043   ----------------------------------------
 BYTE   PATT
  POIN2 Label_01992722
//  #15 //044   ----------------------------------------
 BYTE   W72
 BYTE   N24  An2  v120
 BYTE   W24
//  #15 //045   ----------------------------------------
 BYTE   GoTo
  POIN2 Label_019926D0
 BYTE   FINE

//******************************************************//
	ALIGN 4

TenseMovementsAlt:
	BYTE	15	// NumTrks
	BYTE	0	// NumBlks
	BYTE	TenseMovementsAlt_pri	// Priority
	BYTE	TenseMovementsAlt_rev	// Reverb.
    
	POIN2	TenseMovementsAlt_grp
    
	POIN2	TenseMovementsAlt_001
	POIN2	TenseMovementsAlt_002
	POIN2	TenseMovementsAlt_003
	POIN2	TenseMovementsAlt_004
	POIN2	TenseMovementsAlt_005
	POIN2	TenseMovementsAlt_006
	POIN2	TenseMovementsAlt_007
	POIN2	TenseMovementsAlt_008
	POIN2	TenseMovementsAlt_009
	POIN2	TenseMovementsAlt_010
	POIN2	TenseMovementsAlt_011
	POIN2	TenseMovementsAlt_012
	POIN2	TenseMovementsAlt_013
	POIN2	TenseMovementsAlt_014
	POIN2	TenseMovementsAlt_015

	
