//Event file generated from Sappy .s format.
	#include "MPlayDef.event"

	#define	Tense_grp  voicegroup000
	#define	Tense_pri  0
	#define	Tense_rev  160 //0xA0
	#define	Tense_mvl  127
	#define	Tense_key  0
	#define	Tense_tbs  1
	#define	Tense_exg  0
	#define	Tense_cmp  1

	// .rodata
	//	Tense
	ALIGN 4


//**************** Track 1 (Midi-Chn.0) ****************//

Tense_001:
// 000   ----------------------------------------
 BYTE   KEYSH   Tense_key+0
 BYTE   TEMPO   136*Tense_tbs/2
 BYTE   VOICE   48
 BYTE   VOL   26*Tense_mvl/mxv
 BYTE   PAN   c_v-14
 BYTE   W96
// 001   ----------------------------------------
 BYTE   W96
// 002   ----------------------------------------
 BYTE   W96
// 003   ----------------------------------------
 BYTE   N48  Cn3  v120
 BYTE   N96  Gn3
 BYTE   W06
 BYTE   W01
 BYTE   W01
 BYTE   W01
 BYTE   W01
 BYTE   W01
 BYTE   W01
 BYTE   W01
 BYTE   W01
 BYTE   W01
 BYTE   W01
 BYTE   W01
 BYTE   W01
 BYTE   W06
 BYTE   TEMPO   134*Tense_tbs/2
 BYTE   W12
 BYTE   TEMPO   132*Tense_tbs/2
 BYTE   W01
 BYTE   TEMPO   130*Tense_tbs/2
 BYTE   W01
 BYTE   W01
 BYTE   W01
 BYTE   W01
 BYTE   W01
 BYTE   W01
 BYTE   W01
 BYTE   W01
 BYTE   W01
 BYTE   W01
 BYTE   W01
 BYTE   TEMPO   128*Tense_tbs/2
 BYTE   N48  Dn3  v100
 BYTE   W01
 BYTE   TEMPO   128*Tense_tbs/2
 BYTE   W01
 BYTE   W01
 BYTE   W01
 BYTE   W01
 BYTE   W01
 BYTE   W01
 BYTE   W01
 BYTE   W01
 BYTE   W01
 BYTE   W01
 BYTE   TEMPO   128*Tense_tbs/2
 BYTE   W01
 BYTE   TEMPO   126*Tense_tbs/2
 BYTE   W01
 BYTE   W01
 BYTE   W01
 BYTE   W01
 BYTE   W01
 BYTE   W01
 BYTE   W01
 BYTE   W01
 BYTE   W01
 BYTE   W01
 BYTE   W01
 BYTE   TEMPO   124*Tense_tbs/2
 BYTE   W01
 BYTE   TEMPO   122*Tense_tbs/2
 BYTE   W01
 BYTE   W01
 BYTE   W01
 BYTE   W01
 BYTE   W01
 BYTE   W01
 BYTE   W01
 BYTE   W01
 BYTE   W01
 BYTE   W01
 BYTE   TEMPO   122*Tense_tbs/2
 BYTE   W01
 BYTE   TEMPO   120*Tense_tbs/2
 BYTE   W01
 BYTE   W09
 BYTE   TEMPO   120*Tense_tbs/2
 BYTE   W01
 BYTE   TEMPO   120*Tense_tbs/2
 BYTE   W02
// 004   ----------------------------------------
 BYTE   TEMPO   156*Tense_tbs/2
 BYTE   W96
// 005   ----------------------------------------
 BYTE   W96
// 006   ----------------------------------------
 BYTE   W96
// 007   ----------------------------------------
 BYTE   W96
// 008   ----------------------------------------
 BYTE   W96
// 009   ----------------------------------------
 BYTE   W96
// 010   ----------------------------------------
 BYTE   W96
// 011   ----------------------------------------
 BYTE   W96
// 012   ----------------------------------------
Label_0_012AEA6F:
 BYTE   W96
// 013   ----------------------------------------
 BYTE   W96
// 014   ----------------------------------------
 BYTE   W96
// 015   ----------------------------------------
 BYTE   W24
 BYTE   TEMPO   154*Tense_tbs/2
 BYTE   W10
 BYTE   TEMPO   150*Tense_tbs/2
 BYTE   W09
 BYTE   TEMPO   148*Tense_tbs/2
 BYTE   W01
 BYTE   TEMPO   148*Tense_tbs/2
 BYTE   W07
 BYTE   TEMPO   146*Tense_tbs/2
 BYTE   W01
 BYTE   TEMPO   144*Tense_tbs/2
 BYTE   W07
 BYTE   TEMPO   144*Tense_tbs/2
 BYTE   W01
 BYTE   TEMPO   142*Tense_tbs/2
 BYTE   W07
 BYTE   TEMPO   140*Tense_tbs/2
 BYTE   W01
 BYTE   TEMPO   138*Tense_tbs/2
 BYTE   W06
 BYTE   TEMPO   136*Tense_tbs/2
 BYTE   W01
 BYTE   TEMPO   136*Tense_tbs/2
 BYTE   W06
 BYTE   TEMPO   134*Tense_tbs/2
 BYTE   W01
 BYTE   TEMPO   134*Tense_tbs/2
 BYTE   W05
 BYTE   TEMPO   132*Tense_tbs/2
 BYTE   W01
 BYTE   TEMPO   130*Tense_tbs/2
 BYTE   W05
 BYTE   TEMPO   130*Tense_tbs/2
 BYTE   W01
 BYTE   TEMPO   130*Tense_tbs/2
 BYTE   W02
// 016   ----------------------------------------
 BYTE   TEMPO   154*Tense_tbs/2
 BYTE   N36  Cn3  v127
 BYTE   W36
 BYTE   N90  Gn3
 BYTE   W60
// 017   ----------------------------------------
 BYTE   W36
 BYTE   N36  Fn3
 BYTE   W36
 BYTE   N24  As3
 BYTE   W24
// 018   ----------------------------------------
 BYTE   TIE  Gn3
 BYTE   W96
// 019   ----------------------------------------
 BYTE   W84
 BYTE   EOT
 BYTE   W12
// 020   ----------------------------------------
 BYTE   N36  Gs3
 BYTE   W36
 BYTE   N90  Ds4
 BYTE   W60
// 021   ----------------------------------------
 BYTE   W36
 BYTE   N36  Dn4
 BYTE   W36
 BYTE   N24  Fn4
 BYTE   W24
// 022   ----------------------------------------
 BYTE   TIE  Ds4
 BYTE   W96
// 023   ----------------------------------------
 BYTE   W84
 BYTE   EOT
 BYTE   W12
// 024   ----------------------------------------
 BYTE   N96  Gs4  v112
 BYTE   N96  Fn5
 BYTE   W04
 BYTE   W04
 BYTE   W04
 BYTE   W05
 BYTE   W04
 BYTE   W04
 BYTE   W05
 BYTE   W04
 BYTE   W04
 BYTE   W04
 BYTE   W05
 BYTE   W04
 BYTE   W04
 BYTE   W05
 BYTE   W04
 BYTE   W04
 BYTE   W05
 BYTE   W04
 BYTE   W04
 BYTE   W04
 BYTE   W05
 BYTE   W04
 BYTE   W02
// 025   ----------------------------------------
 BYTE   Gn4
 BYTE   N96  Ds5
 BYTE   W02
 BYTE   W05
 BYTE   W04
 BYTE   W04
 BYTE   W05
 BYTE   W04
 BYTE   W04
 BYTE   W04
 BYTE   W05
 BYTE   W04
 BYTE   W04
 BYTE   W05
 BYTE   W04
 BYTE   W04
 BYTE   W05
 BYTE   W04
 BYTE   W04
 BYTE   W04
 BYTE   W05
 BYTE   W04
 BYTE   W04
 BYTE   W05
 BYTE   W03
// 026   ----------------------------------------
 BYTE   Cn5
 BYTE   N96  Fn5
 BYTE   W01
 BYTE   W04
 BYTE   W05
 BYTE   W04
 BYTE   W04
 BYTE   W04
 BYTE   W05
 BYTE   W04
 BYTE   W04
 BYTE   W05
 BYTE   W04
 BYTE   W04
 BYTE   W05
 BYTE   W04
 BYTE   W04
 BYTE   W04
 BYTE   W05
 BYTE   W04
 BYTE   W04
 BYTE   W05
 BYTE   W04
 BYTE   W04
 BYTE   W05
// 027   ----------------------------------------
 BYTE   Bn4
 BYTE   N96  Gn5
 BYTE   W96
// 028   ----------------------------------------
 BYTE   W96
// 029   ----------------------------------------
 BYTE   W96
// 030   ----------------------------------------
 BYTE   W96
// 031   ----------------------------------------
 BYTE   W96
// 032   ----------------------------------------
 BYTE   TIE  Cn5  v076
 BYTE   TIE  Gn5  v092
 BYTE   W96
// 033   ----------------------------------------
 BYTE   W96
// 034   ----------------------------------------
 BYTE   W04
 BYTE   W01
 BYTE   W04
 BYTE   W01
 BYTE   W04
 BYTE   W01
 BYTE   W04
 BYTE   W01
 BYTE   W04
 BYTE   W01
 BYTE   W04
 BYTE   W01
 BYTE   W04
 BYTE   W01
 BYTE   W04
 BYTE   W01
 BYTE   W04
 BYTE   W01
 BYTE   W04
 BYTE   W01
 BYTE   W04
 BYTE   W01
 BYTE   W04
 BYTE   W01
 BYTE   W04
 BYTE   W01
 BYTE   W04
 BYTE   W01
 BYTE   W04
 BYTE   W01
 BYTE   W04
 BYTE   W01
 BYTE   W04
 BYTE   W01
 BYTE   W04
 BYTE   W01
 BYTE   W04
 BYTE   W01
 BYTE   W01
// 035   ----------------------------------------
 BYTE   W03
 BYTE   W01
 BYTE   W04
 BYTE   W01
 BYTE   W04
 BYTE   W01
 BYTE   W04
 BYTE   W01
 BYTE   W04
 BYTE   W01
 BYTE   TEMPO   154*Tense_tbs/2
 BYTE   W04
 BYTE   W01
 BYTE   W02
 BYTE   TEMPO   150*Tense_tbs/2
 BYTE   W01
 BYTE   TEMPO   150*Tense_tbs/2
 BYTE   W01
 BYTE   W01
 BYTE   W04
 BYTE   TEMPO   148*Tense_tbs/2
 BYTE   W01
 BYTE   TEMPO   148*Tense_tbs/2
 BYTE   W04
 BYTE   W01
 BYTE   W01
 BYTE   TEMPO   144*Tense_tbs/2
 BYTE   W01
 BYTE   TEMPO   144*Tense_tbs/2
 BYTE   W02
 BYTE   W01
 BYTE   W02
 BYTE   TEMPO   142*Tense_tbs/2
 BYTE   W01
 BYTE   TEMPO   142*Tense_tbs/2
 BYTE   W01
 BYTE   W01
 BYTE   W03
 BYTE   TEMPO   140*Tense_tbs/2
 BYTE   W01
 BYTE   TEMPO   138*Tense_tbs/2
 BYTE   W01
 BYTE   W04
 BYTE   TEMPO   136*Tense_tbs/2
 BYTE   W01
 BYTE   TEMPO   136*Tense_tbs/2
 BYTE   W04
 BYTE   TEMPO   134*Tense_tbs/2
 BYTE   W01
 BYTE   TEMPO   134*Tense_tbs/2
 BYTE   W04
 BYTE   TEMPO   132*Tense_tbs/2
 BYTE   W01
 BYTE   TEMPO   130*Tense_tbs/2
 BYTE   W04
 BYTE   TEMPO   128*Tense_tbs/2
 BYTE   W01
 BYTE   TEMPO   128*Tense_tbs/2
 BYTE   W04
 BYTE   TEMPO   126*Tense_tbs/2
 BYTE   W01
 BYTE   TEMPO   126*Tense_tbs/2
 BYTE   W03
 BYTE   TEMPO   124*Tense_tbs/2
 BYTE   W01
 BYTE   TEMPO   122*Tense_tbs/2
 BYTE   W01
 BYTE   W02
 BYTE   TEMPO   122*Tense_tbs/2
 BYTE   W01
 BYTE   TEMPO   120*Tense_tbs/2
 BYTE   W01
 BYTE   TEMPO   96*Tense_tbs/2
 BYTE   W01
 BYTE   W02
// 036   ----------------------------------------
 BYTE   EOT
 BYTE   Cn5  v091
 BYTE   TEMPO   126*Tense_tbs/2
 BYTE   TIE  Gn4  v076
 BYTE   TIE  Cn5  v088
 BYTE   W01
 BYTE   W01
 BYTE   TEMPO   130*Tense_tbs/2
 BYTE   W01
 BYTE   W01
 BYTE   TEMPO   132*Tense_tbs/2
 BYTE   W01
 BYTE   W01
 BYTE   TEMPO   136*Tense_tbs/2
 BYTE   W01
 BYTE   W01
 BYTE   TEMPO   136*Tense_tbs/2
 BYTE   W01
 BYTE   W01
 BYTE   TEMPO   140*Tense_tbs/2
 BYTE   W01
 BYTE   TEMPO   140*Tense_tbs/2
 BYTE   W01
 BYTE   TEMPO   142*Tense_tbs/2
 BYTE   W01
 BYTE   TEMPO   142*Tense_tbs/2
 BYTE   W01
 BYTE   TEMPO   144*Tense_tbs/2
 BYTE   W01
 BYTE   TEMPO   146*Tense_tbs/2
 BYTE   W01
 BYTE   W01
 BYTE   TEMPO   148*Tense_tbs/2
 BYTE   W01
 BYTE   TEMPO   150*Tense_tbs/2
 BYTE   W01
 BYTE   TEMPO   150*Tense_tbs/2
 BYTE   W01
 BYTE   TEMPO   152*Tense_tbs/2
 BYTE   W01
 BYTE   W01
 BYTE   TEMPO   152*Tense_tbs/2
 BYTE   W01
 BYTE   TEMPO   154*Tense_tbs/2
 BYTE   W01
 BYTE   TEMPO   156*Tense_tbs/2
 BYTE   W72
// 037   ----------------------------------------
 BYTE   W48
 BYTE   W01
 BYTE   W03
 BYTE   W01
 BYTE   W03
 BYTE   W01
 BYTE   W03
 BYTE   W01
 BYTE   W03
 BYTE   W01
 BYTE   W03
 BYTE   W01
 BYTE   W03
 BYTE   W01
 BYTE   W03
 BYTE   W01
 BYTE   W03
 BYTE   W01
 BYTE   W03
 BYTE   W01
 BYTE   W03
 BYTE   W01
 BYTE   W03
 BYTE   W01
 BYTE   W03
// 038   ----------------------------------------
 BYTE   W01
 BYTE   W03
 BYTE   W01
 BYTE   W03
 BYTE   W01
 BYTE   W01
 BYTE   W02
 BYTE   W01
 BYTE   W01
 BYTE   W02
 BYTE   W01
 BYTE   W01
 BYTE   W02
 BYTE   W01
 BYTE   W01
 BYTE   W02
 BYTE   W01
 BYTE   W01
 BYTE   W02
 BYTE   W01
 BYTE   W01
 BYTE   W02
 BYTE   W01
 BYTE   W01
 BYTE   W02
 BYTE   W01
 BYTE   W01
 BYTE   W02
 BYTE   W01
 BYTE   W01
 BYTE   W02
 BYTE   W01
 BYTE   W01
 BYTE   W02
 BYTE   W01
 BYTE   W01
 BYTE   W02
 BYTE   W01
 BYTE   W01
 BYTE   W02
 BYTE   W01
 BYTE   W01
 BYTE   W03
 BYTE   W01
 BYTE   W03
 BYTE   W01
 BYTE   W03
 BYTE   W01
 BYTE   W03
 BYTE   W01
 BYTE   W03
 BYTE   W01
 BYTE   W03
 BYTE   W01
 BYTE   W03
 BYTE   W01
 BYTE   W03
 BYTE   W01
 BYTE   W03
 BYTE   W01
 BYTE   W02
// 039   ----------------------------------------
 BYTE   EOT
 BYTE   Gn4  v084
 BYTE   W96
// 040   ----------------------------------------
 BYTE   W96
// 041   ----------------------------------------
 BYTE   W96
// 042   ----------------------------------------
 BYTE   W96
// 043   ----------------------------------------
 BYTE   W96
// 044   ----------------------------------------
 BYTE   GoTo
  POIN2 Label_0_012AEA6F
 BYTE   FINE

//**************** Track 2 (Midi-Chn.1) ****************//

Tense_002:
// 000   ----------------------------------------
 BYTE   KEYSH   Tense_key+0
 BYTE   VOICE   48
 BYTE   VOL   26*Tense_mvl/mxv
 BYTE   PAN   c_v+4
 BYTE   TIE  Gn2  v120
 BYTE   TIE  Cn3
 BYTE   W96
// 001   ----------------------------------------
 BYTE   W06
 BYTE   W06
 BYTE   W06
 BYTE   W06
 BYTE   W06
 BYTE   W06
 BYTE   W06
 BYTE   W07
 BYTE   W06
 BYTE   W06
 BYTE   W06
 BYTE   W06
 BYTE   W06
 BYTE   W06
 BYTE   W06
 BYTE   W05
// 002   ----------------------------------------
 BYTE   W02
 BYTE   W06
 BYTE   W06
 BYTE   W06
 BYTE   W06
 BYTE   W06
 BYTE   W06
 BYTE   W06
 BYTE   W07
 BYTE   W06
 BYTE   W06
 BYTE   W06
 BYTE   W06
 BYTE   W06
 BYTE   W06
 BYTE   W06
 BYTE   W03
// 003   ----------------------------------------
 BYTE   W04
 BYTE   W06
 BYTE   W06
 BYTE   W06
 BYTE   W06
 BYTE   W06
 BYTE   W06
 BYTE   W06
 BYTE   W07
 BYTE   W06
 BYTE   W06
 BYTE   W06
 BYTE   W06
 BYTE   W06
 BYTE   W06
 BYTE   W07
// 004   ----------------------------------------
 BYTE   EOT
 BYTE   Gn2  v060
 BYTE   W96
// 005   ----------------------------------------
 BYTE   W96
// 006   ----------------------------------------
 BYTE   W96
// 007   ----------------------------------------
 BYTE   W96
// 008   ----------------------------------------
 BYTE   W96
// 009   ----------------------------------------
 BYTE   W96
// 010   ----------------------------------------
 BYTE   W96
// 011   ----------------------------------------
 BYTE   W96
// 012   ----------------------------------------
Label_1_012AF1E2:
 BYTE   W96
// 013   ----------------------------------------
 BYTE   W96
// 014   ----------------------------------------
 BYTE   W96
// 015   ----------------------------------------
 BYTE   W96
// 016   ----------------------------------------
 BYTE   N36  Gn2  v127
 BYTE   W36
 BYTE   N90  Ds3
 BYTE   W60
// 017   ----------------------------------------
 BYTE   W36
 BYTE   N36  Dn3
 BYTE   W36
 BYTE   N24  Gn3
 BYTE   W24
// 018   ----------------------------------------
 BYTE   TIE  Ds3
 BYTE   W96
// 019   ----------------------------------------
 BYTE   W84
 BYTE   EOT
 BYTE   W12
// 020   ----------------------------------------
 BYTE   N36
 BYTE   W36
 BYTE   N90  Cn4
 BYTE   W60
// 021   ----------------------------------------
 BYTE   W36
 BYTE   N36  As3
 BYTE   W36
 BYTE   N24  Dn4
 BYTE   W24
// 022   ----------------------------------------
 BYTE   TIE  Cn4
 BYTE   W96
// 023   ----------------------------------------
 BYTE   W84
 BYTE   EOT
 BYTE   W12
// 024   ----------------------------------------
 BYTE   N96  Fn3
 BYTE   N96  Cn4
 BYTE   W96
// 025   ----------------------------------------
 BYTE   Gn3
 BYTE   N96  As3
 BYTE   W96
// 026   ----------------------------------------
 BYTE   Gs3
 BYTE   N96  Cn4
 BYTE   W96
// 027   ----------------------------------------
 BYTE   Gn3
 BYTE   N96  Bn3
 BYTE   W96
// 028   ----------------------------------------
 BYTE   W96
// 029   ----------------------------------------
 BYTE   W96
// 030   ----------------------------------------
 BYTE   W96
// 031   ----------------------------------------
 BYTE   W96
// 032   ----------------------------------------
 BYTE   TIE  Ds3
 BYTE   TIE  Cn4
 BYTE   W48
 BYTE   W05
 BYTE   W01
 BYTE   W05
 BYTE   W01
 BYTE   W05
 BYTE   W05
 BYTE   W01
 BYTE   W05
 BYTE   W01
 BYTE   W05
 BYTE   W01
 BYTE   W05
 BYTE   W05
 BYTE   W01
 BYTE   W02
// 033   ----------------------------------------
 BYTE   W03
 BYTE   W01
 BYTE   W05
 BYTE   W01
 BYTE   W05
 BYTE   W05
 BYTE   W01
 BYTE   W05
 BYTE   W01
 BYTE   W05
 BYTE   W01
 BYTE   W05
 BYTE   W05
 BYTE   W01
 BYTE   W05
 BYTE   W01
 BYTE   W05
 BYTE   W01
 BYTE   W05
 BYTE   W05
 BYTE   W01
 BYTE   W05
 BYTE   W01
 BYTE   W05
 BYTE   W01
 BYTE   W05
 BYTE   W05
 BYTE   W01
 BYTE   W05
 BYTE   W01
// 034   ----------------------------------------
 BYTE   W05
 BYTE   W01
 BYTE   W05
 BYTE   W05
 BYTE   W01
 BYTE   W05
 BYTE   W01
 BYTE   W05
 BYTE   W01
 BYTE   W05
 BYTE   W05
 BYTE   W01
 BYTE   W05
 BYTE   W01
 BYTE   W05
 BYTE   W01
 BYTE   W05
 BYTE   W05
 BYTE   W01
 BYTE   W05
 BYTE   W01
 BYTE   W05
 BYTE   W01
 BYTE   W05
 BYTE   W05
 BYTE   W01
 BYTE   W05
 BYTE   W01
 BYTE   W04
// 035   ----------------------------------------
 BYTE   W01
 BYTE   W05
 BYTE   W01
 BYTE   W05
 BYTE   W01
 BYTE   W05
 BYTE   W01
 BYTE   W05
 BYTE   W05
 BYTE   W01
 BYTE   W05
 BYTE   W01
 BYTE   W05
 BYTE   W01
 BYTE   W05
 BYTE   W05
 BYTE   W01
 BYTE   W05
 BYTE   W01
 BYTE   W05
 BYTE   W01
 BYTE   W05
 BYTE   W05
 BYTE   W01
 BYTE   W05
 BYTE   W01
 BYTE   W05
 BYTE   W01
 BYTE   W05
 BYTE   W03
// 036   ----------------------------------------
 BYTE   EOT
 BYTE   Ds3  v072
Label_1_012AF291:
 BYTE   TIE  Cn3  v127
 BYTE   W96
 BYTE   PEND 
// 037   ----------------------------------------
 BYTE   W96
// 038   ----------------------------------------
 BYTE   W04
 BYTE   W01
 BYTE   W04
 BYTE   W01
 BYTE   W04
 BYTE   W01
 BYTE   W04
 BYTE   W01
 BYTE   W04
 BYTE   W01
 BYTE   W04
 BYTE   W01
 BYTE   W04
 BYTE   W01
 BYTE   W04
 BYTE   W01
 BYTE   W04
 BYTE   W01
 BYTE   W04
 BYTE   W01
 BYTE   W04
 BYTE   W01
 BYTE   W04
 BYTE   W01
 BYTE   W04
 BYTE   W01
 BYTE   W04
 BYTE   W01
 BYTE   W04
 BYTE   W01
 BYTE   W04
 BYTE   W01
 BYTE   W04
 BYTE   W01
 BYTE   W04
 BYTE   W01
 BYTE   W04
 BYTE   W01
 BYTE   W01
// 039   ----------------------------------------
 BYTE   W03
 BYTE   W01
 BYTE   W04
 BYTE   W01
 BYTE   W04
 BYTE   W01
 BYTE   W04
 BYTE   W01
 BYTE   W04
 BYTE   W01
 BYTE   W04
 BYTE   W01
 BYTE   W04
 BYTE   W01
 BYTE   W04
 BYTE   W01
 BYTE   W04
 BYTE   W01
 BYTE   W04
 BYTE   W01
 BYTE   W04
 BYTE   W01
 BYTE   W04
 BYTE   W01
 BYTE   W04
 BYTE   W01
 BYTE   W04
 BYTE   W01
 BYTE   W04
 BYTE   W01
 BYTE   W04
 BYTE   W01
 BYTE   W04
 BYTE   W01
 BYTE   W04
 BYTE   W01
 BYTE   W04
 BYTE   W01
 BYTE   W01
 BYTE   EOT
 BYTE   W01
// 040   ----------------------------------------
 BYTE   PATT
  POIN2 Label_1_012AF291
// 041   ----------------------------------------
 BYTE   W96
// 042   ----------------------------------------
 BYTE   W96
// 043   ----------------------------------------
 BYTE   W96
// 044   ----------------------------------------
 BYTE   EOT
 BYTE   Cn3
 BYTE   GoTo
  POIN2 Label_1_012AF1E2
 BYTE   FINE

//**************** Track 3 (Midi-Chn.2) ****************//

Tense_003:
// 000   ----------------------------------------
 BYTE   KEYSH   Tense_key+0
 BYTE   VOICE   60
 BYTE   VOL   32*Tense_mvl/mxv
 BYTE   PAN   c_v+6
 BYTE   N48  Gn2  v112
 BYTE   N36  Cn3  v127
 BYTE   W36
 BYTE   N06  Dn3
 BYTE   W06
 BYTE   Ds3
 BYTE   W06
 BYTE   N48  Cn3  v112
 BYTE   N54  Fn3  v127
 BYTE   W48
// 001   ----------------------------------------
 BYTE   W12
 BYTE   N36  Cn3  v112
 BYTE   N12  Gn3  v127
 BYTE   W12
 BYTE   Fn3
 BYTE   W12
 BYTE   Gn3
 BYTE   W12
 BYTE   N48  Gn2  v112
 BYTE   N12  Fn3  v127
 BYTE   W12
 BYTE   Ds3
 BYTE   W12
 BYTE   Dn3
 BYTE   W12
 BYTE   N09  As2
 BYTE   W12
// 002   ----------------------------------------
 BYTE   N48  Gn2  v112
 BYTE   N36  Cn3  v127
 BYTE   W36
 BYTE   N04  Dn3
 BYTE   W04
 BYTE   Ds3
 BYTE   W04
 BYTE   Gn3
 BYTE   W04
 BYTE   N48  Cn3  v112
 BYTE   N54  As3  v127
 BYTE   W48
// 003   ----------------------------------------
 BYTE   W12
 BYTE   N36  Gn3  v112
 BYTE   N12  Cn4  v127
 BYTE   W12
 BYTE   As3
 BYTE   W12
 BYTE   Cn4
 BYTE   W12
 BYTE   N36  Cn3  v112
 BYTE   N12  As3  v127
 BYTE   W12
 BYTE   Gs3
 BYTE   W12
 BYTE   Gn3
 BYTE   W12
 BYTE   Gn2  v112
 BYTE   N12  Dn3  v127
 BYTE   W12
// 004   ----------------------------------------
 BYTE   Gn2  v112
 BYTE   N12  Cn3  v120
 BYTE   W96
// 005   ----------------------------------------
 BYTE   W96
// 006   ----------------------------------------
 BYTE   W96
// 007   ----------------------------------------
 BYTE   W96
// 008   ----------------------------------------
 BYTE   W96
// 009   ----------------------------------------
 BYTE   W96
// 010   ----------------------------------------
 BYTE   W96
// 011   ----------------------------------------
 BYTE   W96
// 012   ----------------------------------------
Label_2_012AEF18:
 BYTE   W96
// 013   ----------------------------------------
 BYTE   W96
// 014   ----------------------------------------
 BYTE   W96
// 015   ----------------------------------------
 BYTE   N96  Gn2  v127
 BYTE   N96  Bn2
 BYTE   W06
 BYTE   W01
 BYTE   W01
 BYTE   W01
 BYTE   W01
 BYTE   W01
 BYTE   W01
 BYTE   W01
 BYTE   W01
 BYTE   W01
 BYTE   W01
 BYTE   W01
 BYTE   W01
 BYTE   W18
 BYTE   W01
 BYTE   W01
 BYTE   W01
 BYTE   W01
 BYTE   W01
 BYTE   W01
 BYTE   W01
 BYTE   W01
 BYTE   W01
 BYTE   W01
 BYTE   W01
 BYTE   W01
 BYTE   W01
 BYTE   W01
 BYTE   W01
 BYTE   W01
 BYTE   W01
 BYTE   W01
 BYTE   W01
 BYTE   W01
 BYTE   W01
 BYTE   W01
 BYTE   W01
 BYTE   W01
 BYTE   W01
 BYTE   W01
 BYTE   W01
 BYTE   W01
 BYTE   W01
 BYTE   W01
 BYTE   W01
 BYTE   W01
 BYTE   W01
 BYTE   W01
 BYTE   W01
 BYTE   W01
 BYTE   W01
 BYTE   W01
 BYTE   W01
 BYTE   W01
 BYTE   W01
 BYTE   W01
 BYTE   W01
 BYTE   W01
 BYTE   W01
 BYTE   W01
 BYTE   W01
 BYTE   W01
 BYTE   W12
// 016   ----------------------------------------
 BYTE   N36  Gn2  v116
 BYTE   N36  Cn3  v127
 BYTE   W36
 BYTE   N90  Cn3  v116
 BYTE   N90  Gn3  v127
 BYTE   W60
// 017   ----------------------------------------
 BYTE   W36
 BYTE   N36  Dn3  v116
 BYTE   N36  Fn3  v127
 BYTE   W36
 BYTE   N24  Gn3  v116
 BYTE   N24  As3  v127
 BYTE   W24
// 018   ----------------------------------------
 BYTE   TIE  Ds3  v116
 BYTE   TIE  Gn3  v127
 BYTE   W96
// 019   ----------------------------------------
 BYTE   W84
 BYTE   EOT
 BYTE   Ds3  v067
 BYTE   W12
// 020   ----------------------------------------
 BYTE   N36  Gs2
 BYTE   W36
 BYTE   N90  Ds3
 BYTE   W60
// 021   ----------------------------------------
 BYTE   W36
 BYTE   N36  Dn3
 BYTE   W36
 BYTE   N24  Fn3
 BYTE   W24
// 022   ----------------------------------------
 BYTE   TIE  Ds3
 BYTE   W96
// 023   ----------------------------------------
 BYTE   W84
 BYTE   EOT
 BYTE   W12
// 024   ----------------------------------------
 BYTE   N36  Gs2
 BYTE   W36
 BYTE   N12  Gn2
 BYTE   W12
 BYTE   N18  Fn2
 BYTE   W18
 BYTE   Gn2
 BYTE   W18
 BYTE   N12  Gs2
 BYTE   W12
// 025   ----------------------------------------
 BYTE   N36  As2
 BYTE   W36
 BYTE   N12  Gs2
 BYTE   W12
 BYTE   N18  Gn2
 BYTE   W18
 BYTE   Gs2
 BYTE   W18
 BYTE   N12  As2
 BYTE   W12
// 026   ----------------------------------------
 BYTE   N60  Cn3
 BYTE   W72
 BYTE   N24
 BYTE   W24
// 027   ----------------------------------------
 BYTE   N36  Gn2  v116
 BYTE   N36  Bn2  v127
 BYTE   W36
 BYTE   Dn2
 BYTE   N36  An2  v120
 BYTE   N36  Cn3  v127
 BYTE   W36
 BYTE   N21  Gn2
 BYTE   N21  Bn2  v120
 BYTE   N21  Dn3  v127
 BYTE   W24
// 028   ----------------------------------------
 BYTE   TIE  Cn2
 BYTE   TIE  Cn3
 BYTE   W96
// 029   ----------------------------------------
 BYTE   N96  Gn2
 BYTE   W96
// 030   ----------------------------------------
 BYTE   TIE  Gs2
 BYTE   W96
// 031   ----------------------------------------
 BYTE   EOT
 BYTE   Cn3
 BYTE   N96  Dn3
 BYTE   W96
// 032   ----------------------------------------
 BYTE   EOT
 BYTE   Cn2  v056
 BYTE   TIE  Cn2  v120
 BYTE   TIE  Ds3
 BYTE   W72
 BYTE   W01
 BYTE   W01
 BYTE   W01
 BYTE   W01
 BYTE   W01
 BYTE   W01
 BYTE   W01
 BYTE   W02
 BYTE   W01
 BYTE   W01
 BYTE   W01
 BYTE   W02
 BYTE   W01
 BYTE   W01
 BYTE   W01
 BYTE   W01
 BYTE   W01
 BYTE   W01
 BYTE   W01
 BYTE   W02
 BYTE   W01
// 033   ----------------------------------------
 BYTE   W01
 BYTE   W01
 BYTE   W02
 BYTE   W01
 BYTE   W01
 BYTE   W01
 BYTE   W02
 BYTE   W01
 BYTE   W01
 BYTE   W01
 BYTE   W01
 BYTE   W01
 BYTE   W01
 BYTE   W01
 BYTE   W02
 BYTE   W01
 BYTE   W01
 BYTE   W01
 BYTE   W02
 BYTE   W01
 BYTE   W01
 BYTE   W01
 BYTE   W01
 BYTE   W01
 BYTE   W01
 BYTE   W01
 BYTE   W02
 BYTE   W01
 BYTE   W01
 BYTE   W01
 BYTE   W02
 BYTE   W01
 BYTE   W01
 BYTE   W01
 BYTE   W02
 BYTE   W01
 BYTE   W01
 BYTE   W01
 BYTE   W01
 BYTE   W01
 BYTE   W01
 BYTE   W01
 BYTE   W02
 BYTE   W01
 BYTE   W01
 BYTE   W01
 BYTE   W02
 BYTE   W01
 BYTE   W01
 BYTE   W01
 BYTE   W02
 BYTE   W01
 BYTE   W01
 BYTE   W01
 BYTE   W01
 BYTE   W01
 BYTE   W01
 BYTE   W01
 BYTE   W02
 BYTE   W01
 BYTE   W01
 BYTE   W01
 BYTE   W02
 BYTE   W01
 BYTE   W01
 BYTE   W01
 BYTE   W01
 BYTE   W01
 BYTE   W01
 BYTE   W01
 BYTE   W02
 BYTE   W01
 BYTE   W01
 BYTE   W01
 BYTE   W02
 BYTE   W01
 BYTE   W01
 BYTE   W01
 BYTE   W02
 BYTE   W01
 BYTE   W01
// 034   ----------------------------------------
 BYTE   EOT
 BYTE   Cn2  v063
 BYTE   W96
// 035   ----------------------------------------
 BYTE   W96
// 036   ----------------------------------------
 BYTE   TIE  Cn2
 BYTE   W96
// 037   ----------------------------------------
 BYTE   W96
// 038   ----------------------------------------
 BYTE   W96
// 039   ----------------------------------------
 BYTE   EOT
 BYTE   W96
// 040   ----------------------------------------
 BYTE   W96
// 041   ----------------------------------------
 BYTE   W96
// 042   ----------------------------------------
 BYTE   W96
// 043   ----------------------------------------
 BYTE   W96
// 044   ----------------------------------------
 BYTE   GoTo
  POIN2 Label_2_012AEF18
 BYTE   FINE

//**************** Track 4 (Midi-Chn.3) ****************//

Tense_004:
// 000   ----------------------------------------
 BYTE   KEYSH   Tense_key+0
 BYTE   VOICE   48
 BYTE   VOL   26*Tense_mvl/mxv
 BYTE   PAN   c_v-4
 BYTE   W96
// 001   ----------------------------------------
 BYTE   W96
// 002   ----------------------------------------
 BYTE   W96
// 003   ----------------------------------------
 BYTE   W96
// 004   ----------------------------------------
Label_3_013010A0:
 BYTE   N12  Ds3  v124
 BYTE   N12  Gn3
 BYTE   W12
 BYTE   Cn3  v108
 BYTE   N12  Ds3
 BYTE   W12
 BYTE   Cn3  v104
 BYTE   N12  Ds3
 BYTE   W12
 BYTE   Fn3  v124
 BYTE   N12  Gs3
 BYTE   W12
 BYTE   Cn3  v108
 BYTE   N12  Dn3
 BYTE   W12
 BYTE   Cn3  v104
 BYTE   N12  Dn3
 BYTE   W12
 BYTE   Dn3  v124
 BYTE   N12  Fn3  v127
 BYTE   W12
 BYTE   Bn2  v108
 BYTE   N12  Dn3  v116
 BYTE   W12
 BYTE   PEND 
// 005   ----------------------------------------
Label_3_013010CC:
 BYTE   N12  Ds3  v124
 BYTE   N12  Gn3
 BYTE   W12
 BYTE   Ds3
 BYTE   N12  Gn3
 BYTE   W12
 BYTE   Cn3  v108
 BYTE   N12  Ds3
 BYTE   W12
 BYTE   Fn3  v124
 BYTE   N12  Gs3
 BYTE   W12
 BYTE   Cn3  v108
 BYTE   N12  Dn3
 BYTE   W12
 BYTE   Dn3  v124
 BYTE   N12  Fn3  v127
 BYTE   W12
 BYTE   Bn2  v108
 BYTE   N12  Dn3
 BYTE   W12
 BYTE   Bn2  v104
 BYTE   N12  Dn3
 BYTE   W12
 BYTE   PEND 
// 006   ----------------------------------------
Label_3_013010F6:
 BYTE   N12  Ds3  v124
 BYTE   N12  Gn3
 BYTE   W12
 BYTE   Cn3  v108
 BYTE   N12  Dn3
 BYTE   W12
 BYTE   Cn3  v104
 BYTE   N12  Dn3
 BYTE   W12
 BYTE   Fn3  v124
 BYTE   N12  Gs3
 BYTE   W12
 BYTE   Cn3  v108
 BYTE   N12  Dn3
 BYTE   W12
 BYTE   Cn3  v104
 BYTE   N12  Dn3
 BYTE   W12
 BYTE   Dn3  v124
 BYTE   N12  Fn3  v127
 BYTE   W12
 BYTE   Cn3  v108
 BYTE   N12  Dn3  v116
 BYTE   W12
 BYTE   PEND 
// 007   ----------------------------------------
Label_3_01301122:
 BYTE   N12  Ds3  v124
 BYTE   N12  Gn3
 BYTE   W12
 BYTE   Ds3
 BYTE   N12  Gn3
 BYTE   W12
 BYTE   Cn3  v108
 BYTE   N12  Dn3
 BYTE   W12
 BYTE   Fn3  v124
 BYTE   N12  Gs3
 BYTE   W12
 BYTE   Cn3  v108
 BYTE   N12  Dn3
 BYTE   W12
 BYTE   Dn3  v124
 BYTE   N12  Fn3  v127
 BYTE   W12
 BYTE   Cn3  v108
 BYTE   N12  Dn3
 BYTE   W12
 BYTE   Cn3  v104
 BYTE   N12  Dn3
 BYTE   W12
 BYTE   PEND 
// 008   ----------------------------------------
 BYTE   PATT
  POIN2 Label_3_013010A0
// 009   ----------------------------------------
 BYTE   PATT
  POIN2 Label_3_013010CC
// 010   ----------------------------------------
Label_3_01301156:
 BYTE   N12  Ds3  v124
 BYTE   N12  Gn3
 BYTE   W12
 BYTE   Cn3  v108
 BYTE   N12  Fn3
 BYTE   W12
 BYTE   Cn3  v104
 BYTE   N12  Fn3
 BYTE   W12
 BYTE   Fn3  v124
 BYTE   N12  Gs3
 BYTE   W12
 BYTE   Cn3  v108
 BYTE   N12  Fn3
 BYTE   W12
 BYTE   Cn3  v104
 BYTE   N12  Fn3
 BYTE   W12
 BYTE   Cn3  v124
 BYTE   N12  Fn3  v127
 BYTE   W12
 BYTE   Gs2  v108
 BYTE   N12  Cn3  v116
 BYTE   W12
 BYTE   PEND 
// 011   ----------------------------------------
Label_3_01301182:
 BYTE   N12  Gs3  v127
 BYTE   N12  Cn4
 BYTE   W12
 BYTE   Gn3  v116
 BYTE   N12  As3
 BYTE   W12
 BYTE   Fn3  v108
 BYTE   N12  Gs3
 BYTE   W12
 BYTE   Gn3  v127
 BYTE   N12  As3
 BYTE   W12
 BYTE   Fn3  v120
 BYTE   N12  Gs3
 BYTE   W12
 BYTE   Ds3  v108
 BYTE   N12  Gn3
 BYTE   W12
 BYTE   Fn3  v127
 BYTE   N12  Gs3
 BYTE   W12
 BYTE   Cn3  v116
 BYTE   N12  Fn3
 BYTE   W12
 BYTE   PEND 
// 012   ----------------------------------------
Label_3_013011AC:
 BYTE   N12  Gn3  v127
 BYTE   N12  Bn3
 BYTE   W12
 BYTE   Dn3  v116
 BYTE   N12  Gn3
 BYTE   W12
 BYTE   Dn3
 BYTE   N12  Gn3
 BYTE   W12
 BYTE   An3  v127
 BYTE   N12  Cn4
 BYTE   W12
 BYTE   Dn3  v116
 BYTE   N12  Gn3
 BYTE   W12
 BYTE   Dn3
 BYTE   N12  Gn3
 BYTE   W12
 BYTE   Bn3  v127
 BYTE   N12  Dn4
 BYTE   W12
 BYTE   Dn3  v116
 BYTE   N12  Gn3
 BYTE   W12
 BYTE   PEND 
// 013   ----------------------------------------
 BYTE   PATT
  POIN2 Label_3_013011AC
// 014   ----------------------------------------
Label_3_013011D9:
 BYTE   N12  Bn3  v127
 BYTE   N12  Dn4
 BYTE   W12
 BYTE   Dn3  v116
 BYTE   N12  Gn3
 BYTE   W12
 BYTE   Dn3
 BYTE   N12  Gn3
 BYTE   W12
 BYTE   Cn4  v127
 BYTE   N12  Ds4
 BYTE   W12
 BYTE   Dn3  v116
 BYTE   N12  Gn3
 BYTE   W12
 BYTE   Dn3
 BYTE   N12  Gn3
 BYTE   W12
 BYTE   Dn4  v127
 BYTE   N12  Fn4
 BYTE   W12
 BYTE   Dn3  v116
 BYTE   N12  Gn3
 BYTE   W12
 BYTE   PEND 
// 015   ----------------------------------------
 BYTE   PATT
  POIN2 Label_3_013011D9
// 016   ----------------------------------------
Label_3_01301206:
 BYTE   N06  Ds4  v112
 BYTE   N06  Gn4  v127
 BYTE   W12
 BYTE   Gn3  v100
 BYTE   N06  Cn4  v120
 BYTE   W12
 BYTE   Gn3  v100
 BYTE   N06  Cn4  v120
 BYTE   W12
 BYTE   Ds4  v112
 BYTE   N06  Gn4  v127
 BYTE   W12
 BYTE   Gn3  v100
 BYTE   N06  Cn4  v120
 BYTE   W12
 BYTE   Gn3  v100
 BYTE   N06  Cn4  v120
 BYTE   W12
 BYTE   Ds4  v112
 BYTE   N06  Gn4  v127
 BYTE   W12
 BYTE   Gn3  v112
 BYTE   N06  Cn4  v127
 BYTE   W12
 BYTE   PEND 
// 017   ----------------------------------------
 BYTE   Ds4  v112
 BYTE   N06  Gn4  v127
 BYTE   W12
 BYTE   Gn3  v100
 BYTE   N06  Cn4  v120
 BYTE   W12
 BYTE   Gn3  v100
 BYTE   N06  Cn4  v120
 BYTE   W12
 BYTE   Ds4  v112
 BYTE   N06  Gn4  v127
 BYTE   W12
 BYTE   Gn3  v100
 BYTE   N06  Cn4  v120
 BYTE   W12
 BYTE   Gn3  v100
 BYTE   N06  Cn4  v120
 BYTE   W12
 BYTE   Ds4  v112
 BYTE   N06  Gn4  v127
 BYTE   W12
 BYTE   Fn4  v112
 BYTE   N06  Gs4  v127
 BYTE   W12
// 018   ----------------------------------------
 BYTE   PATT
  POIN2 Label_3_01301206
// 019   ----------------------------------------
 BYTE   N06  Ds4  v112
 BYTE   N06  Gn4  v127
 BYTE   W12
 BYTE   Fn4  v100
 BYTE   N06  Gs4  v120
 BYTE   W12
 BYTE   Gn4  v100
 BYTE   N06  As4  v120
 BYTE   W12
 BYTE   Gs4  v112
 BYTE   N06  Cn5  v127
 BYTE   W12
 BYTE   Gn4  v100
 BYTE   N06  As4  v120
 BYTE   W12
 BYTE   Fn4  v100
 BYTE   N06  Gs4  v120
 BYTE   W12
 BYTE   Ds4  v112
 BYTE   N06  Gn4  v127
 BYTE   W12
 BYTE   Dn4  v112
 BYTE   N06  Fn4  v127
 BYTE   W12
// 020   ----------------------------------------
Label_3_0130129E:
 BYTE   N06  Ds4  v112
 BYTE   N06  Gn4  v127
 BYTE   W12
 BYTE   Gs3  v100
 BYTE   N06  Cn4  v120
 BYTE   W12
 BYTE   Gs3  v100
 BYTE   N06  Cn4  v120
 BYTE   W12
 BYTE   Ds4  v112
 BYTE   N06  Gn4  v127
 BYTE   W12
 BYTE   Gs3  v100
 BYTE   N06  Cn4  v120
 BYTE   W12
 BYTE   Gs3  v100
 BYTE   N06  Cn4  v120
 BYTE   W12
 BYTE   Ds4  v112
 BYTE   N06  Gn4  v127
 BYTE   W12
 BYTE   Gs3  v112
 BYTE   N06  Cn4  v127
 BYTE   W12
 BYTE   PEND 
// 021   ----------------------------------------
 BYTE   Ds4  v112
 BYTE   N06  Gn4  v127
 BYTE   W12
 BYTE   Gs3  v100
 BYTE   N06  Cn4  v120
 BYTE   W12
 BYTE   Gs3  v100
 BYTE   N06  Cn4  v120
 BYTE   W12
 BYTE   Ds4  v112
 BYTE   N06  Gn4  v127
 BYTE   W12
 BYTE   Gs3  v100
 BYTE   N06  Cn4  v120
 BYTE   W12
 BYTE   Gs3  v100
 BYTE   N06  Cn4  v120
 BYTE   W12
 BYTE   Ds4  v112
 BYTE   N06  Gn4  v127
 BYTE   W12
 BYTE   Ds4  v112
 BYTE   N06  Gs4  v127
 BYTE   W12
// 022   ----------------------------------------
 BYTE   PATT
  POIN2 Label_3_0130129E
// 023   ----------------------------------------
 BYTE   N06  Ds4  v112
 BYTE   N06  Gn4  v127
 BYTE   W12
 BYTE   Ds4  v100
 BYTE   N06  Gs4  v120
 BYTE   W12
 BYTE   Gn4  v100
 BYTE   N06  As4  v120
 BYTE   W12
 BYTE   Gs4  v112
 BYTE   N06  Cn5  v127
 BYTE   W12
 BYTE   Gn4  v100
 BYTE   N06  As4  v120
 BYTE   W12
 BYTE   Ds4  v100
 BYTE   N06  Gs4  v120
 BYTE   W12
 BYTE   Ds4  v112
 BYTE   N06  Gn4  v127
 BYTE   W12
 BYTE   Dn4  v112
 BYTE   N06  Fn4  v127
 BYTE   W12
// 024   ----------------------------------------
 BYTE   W96
// 025   ----------------------------------------
 BYTE   W96
// 026   ----------------------------------------
 BYTE   W96
// 027   ----------------------------------------
 BYTE   W96
// 028   ----------------------------------------
 BYTE   N09  Gn3
 BYTE   N09  Cn4
 BYTE   W12
 BYTE   Cn3
 BYTE   N09  Gn3
 BYTE   W12
 BYTE   Cn3  v120
 BYTE   N09  Gn3
 BYTE   W12
 BYTE   Gn3  v127
 BYTE   N09  Cn4
 BYTE   W12
 BYTE   Cn3  v120
 BYTE   N09  Gn3
 BYTE   W12
 BYTE   Cn3
 BYTE   N09  Gn3
 BYTE   W12
 BYTE   Gn3  v127
 BYTE   N09  Cn4
 BYTE   W12
 BYTE   Cn3
 BYTE   N09  Gn3
 BYTE   W12
// 029   ----------------------------------------
 BYTE   N09
 BYTE   N09  Cn4
 BYTE   N09  Dn4
 BYTE   W12
 BYTE   Cn3
 BYTE   N09  Gn3
 BYTE   W12
 BYTE   Cn3  v120
 BYTE   N09  Gn3
 BYTE   W12
 BYTE   Gn3  v127
 BYTE   N09  Cn4
 BYTE   N09  Dn4
 BYTE   W12
 BYTE   Cn3  v120
 BYTE   N09  Gn3
 BYTE   W12
 BYTE   Cn3
 BYTE   N09  Gn3
 BYTE   W12
 BYTE   Gn3  v127
 BYTE   N09  Cn4
 BYTE   N09  Dn4
 BYTE   W12
 BYTE   Cn3
 BYTE   N09  Gn3
 BYTE   W12
// 030   ----------------------------------------
 BYTE   N09
 BYTE   N09  Cn4
 BYTE   N09  Dn4
 BYTE   N09  Gn4
 BYTE   W12
 BYTE   Cn3
 BYTE   N09  Gn3
 BYTE   W12
 BYTE   Cn3
 BYTE   N09  Gn3
 BYTE   W12
 BYTE   N09
 BYTE   N09  Cn4
 BYTE   N09  Dn4
 BYTE   N09  Gn4
 BYTE   W12
 BYTE   Cn3
 BYTE   N09  Gn3
 BYTE   W12
 BYTE   Cn3
 BYTE   N09  Gn3
 BYTE   W12
 BYTE   N09
 BYTE   N09  Cn4
 BYTE   N09  Dn4
 BYTE   N09  Gn4
 BYTE   W12
 BYTE   Cn3
 BYTE   N09  Gn3
 BYTE   W12
// 031   ----------------------------------------
 BYTE   N09
 BYTE   N09  Cn4
 BYTE   N09  Dn4
 BYTE   N09  Fn4
 BYTE   W12
 BYTE   Cn3
 BYTE   N09  Gn3
 BYTE   W12
 BYTE   Cn3
 BYTE   N09  Gn3
 BYTE   W12
 BYTE   N09
 BYTE   N09  Cn4
 BYTE   N09  Dn4
 BYTE   N09  Fn4
 BYTE   W12
 BYTE   Cn3
 BYTE   N09  Gn3
 BYTE   W12
 BYTE   Cn3
 BYTE   N09  Gn3
 BYTE   W12
 BYTE   N09
 BYTE   N09  Cn4
 BYTE   N09  Dn4
 BYTE   N09  Fn4
 BYTE   W12
 BYTE   Cn3
 BYTE   N09  Gn3
 BYTE   W12
// 032   ----------------------------------------
 BYTE   W96
// 033   ----------------------------------------
 BYTE   W96
// 034   ----------------------------------------
 BYTE   W96
// 035   ----------------------------------------
 BYTE   W96
// 036   ----------------------------------------
 BYTE   PATT
  POIN2 Label_3_013010A0
// 037   ----------------------------------------
 BYTE   PATT
  POIN2 Label_3_013010CC
// 038   ----------------------------------------
 BYTE   PATT
  POIN2 Label_3_013010F6
// 039   ----------------------------------------
 BYTE   PATT
  POIN2 Label_3_01301122
// 040   ----------------------------------------
 BYTE   PATT
  POIN2 Label_3_013010A0
// 041   ----------------------------------------
 BYTE   PATT
  POIN2 Label_3_013010CC
// 042   ----------------------------------------
 BYTE   PATT
  POIN2 Label_3_01301156
// 043   ----------------------------------------
 BYTE   PATT
  POIN2 Label_3_01301182
// 044   ----------------------------------------
 BYTE   GoTo
  POIN2 Label_3_013011AC
 BYTE   FINE

//**************** Track 5 (Midi-Chn.4) ****************//

Tense_005:
// 000   ----------------------------------------
 BYTE   KEYSH   Tense_key+0
 BYTE   VOICE   24
 BYTE   VOL   16*Tense_mvl/mxv
 BYTE   PAN   c_v+10
 BYTE   W96
// 001   ----------------------------------------
 BYTE   W96
// 002   ----------------------------------------
 BYTE   W96
// 003   ----------------------------------------
 BYTE   W96
// 004   ----------------------------------------
Label_4_012AF928:
 BYTE   N72  Cn2  v127
 BYTE   W24
 BYTE   N12  Gn2  v120
 BYTE   W12
 BYTE   N24  Cn3
 BYTE   W24
 BYTE   N12  Gn2
 BYTE   W12
 BYTE   N48  Cn2  v124
 BYTE   W24
 BYTE   PEND 
// 005   ----------------------------------------
Label_4_012AF93B:
 BYTE   N18  As2  v124
 BYTE   W12
 BYTE   N09  Gs2  v120
 BYTE   W12
 BYTE   N12  Gn2
 BYTE   W12
 BYTE   N60  Gn1  v108
 BYTE   N12  Fn2  v120
 BYTE   W24
 BYTE   Cn2
 BYTE   W12
 BYTE   N24  Gn2
 BYTE   W12
 BYTE   N12  Cn3  v108
 BYTE   W12
 BYTE   PEND 
// 006   ----------------------------------------
Label_4_012AF957:
 BYTE   N72  Dn2  v127
 BYTE   W24
 BYTE   N12  Gn2  v120
 BYTE   W12
 BYTE   N24  Cn3
 BYTE   W24
 BYTE   N12  Gn2
 BYTE   W12
 BYTE   N48  Dn2  v124
 BYTE   W24
 BYTE   PEND 
// 007   ----------------------------------------
Label_4_012AF96A:
 BYTE   N18  As2  v124
 BYTE   W12
 BYTE   N09  Gs2  v120
 BYTE   W12
 BYTE   N12  Gn2
 BYTE   W12
 BYTE   N60  Gn1  v108
 BYTE   N12  Fn2  v120
 BYTE   W24
 BYTE   Dn2
 BYTE   W12
 BYTE   N24  Gn2
 BYTE   W12
 BYTE   N12  Cn3  v108
 BYTE   W12
 BYTE   PEND 
// 008   ----------------------------------------
 BYTE   PATT
  POIN2 Label_4_012AF928
// 009   ----------------------------------------
Label_4_012AF98B:
 BYTE   N18  As2  v124
 BYTE   W12
 BYTE   N09  Gs2  v120
 BYTE   W12
 BYTE   N12  Gn2
 BYTE   W12
 BYTE   N60  Cn2  v108
 BYTE   N12  Fn2  v120
 BYTE   W24
 BYTE   Gn2
 BYTE   W12
 BYTE   N24  Cn3
 BYTE   W12
 BYTE   N12  Gn3  v108
 BYTE   W12
 BYTE   PEND 
// 010   ----------------------------------------
Label_4_012AF9A7:
 BYTE   N72  Cn2  v127
 BYTE   W24
 BYTE   N12  Fn2  v120
 BYTE   W12
 BYTE   N24  Cn3
 BYTE   W24
 BYTE   N12  Fn2
 BYTE   W12
 BYTE   N48  Cn2  v124
 BYTE   W24
 BYTE   PEND 
// 011   ----------------------------------------
Label_4_012AF9BA:
 BYTE   N18  Gs2  v124
 BYTE   W12
 BYTE   N09  Gn2  v120
 BYTE   W12
 BYTE   N12  Fn2
 BYTE   W12
 BYTE   N60  Fn1  v108
 BYTE   N12  Ds2  v120
 BYTE   W24
 BYTE   Cn2
 BYTE   W12
 BYTE   N24  Fn2
 BYTE   W12
 BYTE   N12  Cn3  v108
 BYTE   W12
 BYTE   PEND 
// 012   ----------------------------------------
Label_4_012AF9D6:
 BYTE   N72  Bn1  v127
 BYTE   W24
 BYTE   N12  Fn2  v120
 BYTE   W12
 BYTE   N24  Bn2
 BYTE   W24
 BYTE   N12  Fn2
 BYTE   W12
 BYTE   N48  Bn1  v124
 BYTE   W24
 BYTE   PEND 
// 013   ----------------------------------------
Label_4_012AF9E9:
 BYTE   N18  Bn2  v124
 BYTE   W12
 BYTE   N09  An2  v120
 BYTE   W12
 BYTE   N12  Gn2
 BYTE   W12
 BYTE   N60  Gn1  v108
 BYTE   N12  Fn2  v120
 BYTE   W24
 BYTE   Bn1
 BYTE   W12
 BYTE   N24  Fn2
 BYTE   W12
 BYTE   N12  Bn2  v108
 BYTE   W12
 BYTE   PEND 
// 014   ----------------------------------------
 BYTE   PATT
  POIN2 Label_4_012AF9D6
// 015   ----------------------------------------
 BYTE   PATT
  POIN2 Label_4_012AF9E9
// 016   ----------------------------------------
 BYTE   W96
// 017   ----------------------------------------
 BYTE   W96
// 018   ----------------------------------------
 BYTE   W96
// 019   ----------------------------------------
 BYTE   W96
// 020   ----------------------------------------
 BYTE   W96
// 021   ----------------------------------------
 BYTE   W96
// 022   ----------------------------------------
 BYTE   W96
// 023   ----------------------------------------
 BYTE   W96
// 024   ----------------------------------------
 BYTE   W96
// 025   ----------------------------------------
 BYTE   W96
// 026   ----------------------------------------
 BYTE   W96
// 027   ----------------------------------------
 BYTE   W96
// 028   ----------------------------------------
 BYTE   W96
// 029   ----------------------------------------
 BYTE   W96
// 030   ----------------------------------------
 BYTE   W96
// 031   ----------------------------------------
 BYTE   W96
// 032   ----------------------------------------
 BYTE   W96
// 033   ----------------------------------------
 BYTE   W96
// 034   ----------------------------------------
 BYTE   W96
// 035   ----------------------------------------
 BYTE   W96
// 036   ----------------------------------------
 BYTE   PATT
  POIN2 Label_4_012AF928
// 037   ----------------------------------------
 BYTE   PATT
  POIN2 Label_4_012AF93B
// 038   ----------------------------------------
 BYTE   PATT
  POIN2 Label_4_012AF957
// 039   ----------------------------------------
 BYTE   PATT
  POIN2 Label_4_012AF96A
// 040   ----------------------------------------
 BYTE   PATT
  POIN2 Label_4_012AF928
// 041   ----------------------------------------
 BYTE   PATT
  POIN2 Label_4_012AF98B
// 042   ----------------------------------------
 BYTE   PATT
  POIN2 Label_4_012AF9A7
// 043   ----------------------------------------
 BYTE   PATT
  POIN2 Label_4_012AF9BA
// 044   ----------------------------------------
 BYTE   GoTo
  POIN2 Label_4_012AF9D6
 BYTE   FINE

//**************** Track 6 (Midi-Chn.5) ****************//

Tense_006:
// 000   ----------------------------------------
 BYTE   KEYSH   Tense_key+0
 BYTE   VOICE   1
 BYTE   VOL   26*Tense_mvl/mxv
 BYTE   PAN   c_v+12
 BYTE   W96
// 001   ----------------------------------------
 BYTE   W96
// 002   ----------------------------------------
 BYTE   W96
// 003   ----------------------------------------
 BYTE   W96
// 004   ----------------------------------------
 BYTE   W96
// 005   ----------------------------------------
 BYTE   W96
// 006   ----------------------------------------
 BYTE   W96
// 007   ----------------------------------------
 BYTE   W96
// 008   ----------------------------------------
 BYTE   W96
// 009   ----------------------------------------
 BYTE   W96
// 010   ----------------------------------------
 BYTE   W96
// 011   ----------------------------------------
 BYTE   W96
// 012   ----------------------------------------
Label_5_012AF540:
 BYTE   W96
// 013   ----------------------------------------
 BYTE   W96
// 014   ----------------------------------------
 BYTE   W96
// 015   ----------------------------------------
 BYTE   W96
// 016   ----------------------------------------
 BYTE   W96
// 017   ----------------------------------------
 BYTE   W96
// 018   ----------------------------------------
 BYTE   W96
// 019   ----------------------------------------
 BYTE   W96
// 020   ----------------------------------------
 BYTE   W96
// 021   ----------------------------------------
 BYTE   W96
// 022   ----------------------------------------
 BYTE   W96
// 023   ----------------------------------------
 BYTE   W96
// 024   ----------------------------------------
 BYTE   W96
// 025   ----------------------------------------
 BYTE   W96
// 026   ----------------------------------------
 BYTE   W96
// 027   ----------------------------------------
 BYTE   W96
// 028   ----------------------------------------
 BYTE   W96
// 029   ----------------------------------------
 BYTE   W96
// 030   ----------------------------------------
 BYTE   W96
// 031   ----------------------------------------
 BYTE   W96
// 032   ----------------------------------------
 BYTE   W48
 BYTE   N48  Gn4  v112
 BYTE   N48  Gn5
 BYTE   W48
// 033   ----------------------------------------
 BYTE   Fn4
 BYTE   N48  Fn5
 BYTE   W48
 BYTE   Dn4
 BYTE   N48  Dn5
 BYTE   W48
// 034   ----------------------------------------
 BYTE   Ds4
 BYTE   N48  Ds5
 BYTE   W48
 BYTE   Cn4
 BYTE   N48  Cn5
 BYTE   W48
// 035   ----------------------------------------
 BYTE   Gs3
 BYTE   N48  Gs4
 BYTE   W48
 BYTE   Gn3
 BYTE   N48  Gn4
 BYTE   W48
// 036   ----------------------------------------
 BYTE   TIE  Cn3  v092
 BYTE   TIE  Cn4  v108
 BYTE   W96
// 037   ----------------------------------------
 BYTE   W96
// 038   ----------------------------------------
 BYTE   EOT
 BYTE   Cn3  v072
 BYTE   W96
// 039   ----------------------------------------
 BYTE   W96
// 040   ----------------------------------------
 BYTE   W96
// 041   ----------------------------------------
 BYTE   W96
// 042   ----------------------------------------
 BYTE   W96
// 043   ----------------------------------------
 BYTE   W96
// 044   ----------------------------------------
 BYTE   GoTo
  POIN2 Label_5_012AF540
 BYTE   FINE

//**************** Track 7 (Midi-Chn.6) ****************//

Tense_007:
// 000   ----------------------------------------
 BYTE   KEYSH   Tense_key+0
 BYTE   VOICE   1
 BYTE   VOL   26*Tense_mvl/mxv
 BYTE   PAN   c_v-6
 BYTE   W96
// 001   ----------------------------------------
 BYTE   W96
// 002   ----------------------------------------
 BYTE   W96
// 003   ----------------------------------------
 BYTE   W96
// 004   ----------------------------------------
 BYTE   W96
// 005   ----------------------------------------
 BYTE   W96
// 006   ----------------------------------------
 BYTE   W96
// 007   ----------------------------------------
 BYTE   W96
// 008   ----------------------------------------
 BYTE   W96
// 009   ----------------------------------------
 BYTE   W96
// 010   ----------------------------------------
 BYTE   W96
// 011   ----------------------------------------
 BYTE   W96
// 012   ----------------------------------------
Label_6_012AF5A0:
 BYTE   W96
// 013   ----------------------------------------
 BYTE   W96
// 014   ----------------------------------------
 BYTE   W96
// 015   ----------------------------------------
 BYTE   W96
// 016   ----------------------------------------
 BYTE   W96
// 017   ----------------------------------------
 BYTE   W96
// 018   ----------------------------------------
 BYTE   W96
// 019   ----------------------------------------
 BYTE   W96
// 020   ----------------------------------------
 BYTE   W96
// 021   ----------------------------------------
 BYTE   W96
// 022   ----------------------------------------
 BYTE   W96
// 023   ----------------------------------------
 BYTE   W96
// 024   ----------------------------------------
 BYTE   W96
// 025   ----------------------------------------
 BYTE   W96
// 026   ----------------------------------------
 BYTE   W96
// 027   ----------------------------------------
 BYTE   W96
// 028   ----------------------------------------
 BYTE   W96
// 029   ----------------------------------------
 BYTE   W96
// 030   ----------------------------------------
 BYTE   W96
// 031   ----------------------------------------
 BYTE   W96
// 032   ----------------------------------------
 BYTE   TIE  Cn1  v112
 BYTE   TIE  Cn2  v100
 BYTE   W96
// 033   ----------------------------------------
 BYTE   W96
// 034   ----------------------------------------
 BYTE   W96
// 035   ----------------------------------------
 BYTE   W96
// 036   ----------------------------------------
 BYTE   EOT
 BYTE   Cn1  v048
 BYTE   TIE  Cn1  v092
 BYTE   TIE  Cn2
 BYTE   W96
// 037   ----------------------------------------
 BYTE   W96
// 038   ----------------------------------------
 BYTE   EOT
 BYTE   Cn1  v048
 BYTE   W96
// 039   ----------------------------------------
 BYTE   W96
// 040   ----------------------------------------
 BYTE   W96
// 041   ----------------------------------------
 BYTE   W96
// 042   ----------------------------------------
 BYTE   W96
// 043   ----------------------------------------
 BYTE   W96
// 044   ----------------------------------------
 BYTE   GoTo
  POIN2 Label_6_012AF5A0
 BYTE   FINE

//**************** Track 8 (Midi-Chn.7) ****************//

Tense_008:
// 000   ----------------------------------------
 BYTE   KEYSH   Tense_key+0
 BYTE   VOICE   48
 BYTE   VOL   26*Tense_mvl/mxv
 BYTE   PAN   c_v+10
 BYTE   N12  Cn1  v120
 BYTE   N12  Cn2
 BYTE   W12
 BYTE   Cn1
 BYTE   N12  Cn2
 BYTE   W84
// 001   ----------------------------------------
Label_7_01301426:
 BYTE   N12  Cn1  v120
 BYTE   N12  Cn2
 BYTE   W12
 BYTE   Cn1
 BYTE   N12  Cn2
 BYTE   W60
 BYTE   Gn0
 BYTE   N12  Gn1
 BYTE   W24
 BYTE   PEND 
// 002   ----------------------------------------
 BYTE   Cn1
 BYTE   N12  Cn2
 BYTE   W12
 BYTE   Cn1
 BYTE   N12  Cn2
 BYTE   W84
// 003   ----------------------------------------
 BYTE   PATT
  POIN2 Label_7_01301426
// 004   ----------------------------------------
Label_7_01301442:
 BYTE   N12  Cn1  v120
 BYTE   N12  Cn2
 BYTE   W36
 BYTE   Cn1
 BYTE   N12  Cn2
 BYTE   W36
 BYTE   Cn1
 BYTE   N12  Cn2
 BYTE   W24
 BYTE   PEND 
// 005   ----------------------------------------
Label_7_01301451:
 BYTE   N12  Cn1  v120
 BYTE   N12  Cn2
 BYTE   W12
 BYTE   Cn1
 BYTE   N12  Cn2
 BYTE   W24
 BYTE   Cn1
 BYTE   N12  Cn2
 BYTE   W24
 BYTE   Cn1
 BYTE   N12  Cn2
 BYTE   W12
 BYTE   Cn1
 BYTE   N12  Cn2
 BYTE   W24
 BYTE   PEND 
// 006   ----------------------------------------
Label_7_01301468:
 BYTE   N12  Dn1  v120
 BYTE   N12  Dn2
 BYTE   W36
 BYTE   Dn1
 BYTE   N12  Dn2
 BYTE   W36
 BYTE   Dn1
 BYTE   N12  Dn2
 BYTE   W24
 BYTE   PEND 
// 007   ----------------------------------------
Label_7_01301477:
 BYTE   N12  Dn1  v120
 BYTE   N12  Dn2
 BYTE   W12
 BYTE   Dn1
 BYTE   N12  Dn2
 BYTE   W24
 BYTE   Dn1
 BYTE   N12  Dn2
 BYTE   W24
 BYTE   Dn1
 BYTE   N12  Dn2
 BYTE   W12
 BYTE   Dn1
 BYTE   N12  Dn2
 BYTE   W24
 BYTE   PEND 
// 008   ----------------------------------------
Label_7_0130148E:
 BYTE   N12  Ds1  v120
 BYTE   N12  Ds2
 BYTE   W36
 BYTE   Ds1
 BYTE   N12  Ds2
 BYTE   W36
 BYTE   Ds1
 BYTE   N12  Ds2
 BYTE   W24
 BYTE   PEND 
// 009   ----------------------------------------
Label_7_0130149D:
 BYTE   N12  Ds1  v120
 BYTE   N12  Ds2
 BYTE   W12
 BYTE   Ds1
 BYTE   N12  Ds2
 BYTE   W24
 BYTE   Ds1
 BYTE   N12  Ds2
 BYTE   W24
 BYTE   Ds1
 BYTE   N12  Ds2
 BYTE   W12
 BYTE   Ds1
 BYTE   N12  Ds2
 BYTE   W24
 BYTE   PEND 
// 010   ----------------------------------------
Label_7_013014B4:
 BYTE   N12  Fn1  v120
 BYTE   N12  Fn2
 BYTE   W36
 BYTE   Fn1
 BYTE   N12  Fn2
 BYTE   W36
 BYTE   Fn1
 BYTE   N12  Fn2
 BYTE   W24
 BYTE   PEND 
// 011   ----------------------------------------
Label_7_013014C3:
 BYTE   N12  Fn1  v120
 BYTE   N12  Fn2
 BYTE   W12
 BYTE   Fn1
 BYTE   N12  Fn2
 BYTE   W24
 BYTE   Fn1
 BYTE   N12  Fn2
 BYTE   W24
 BYTE   Fn1
 BYTE   N12  Fn2
 BYTE   W12
 BYTE   Fn1
 BYTE   N12  Fn2
 BYTE   W24
 BYTE   PEND 
// 012   ----------------------------------------
Label_7_013014DA:
 BYTE   N12  Gn1  v120
 BYTE   N12  Gn2
 BYTE   W36
 BYTE   Gn1
 BYTE   N12  Gn2
 BYTE   W36
 BYTE   Gn1
 BYTE   N12  Gn2
 BYTE   W24
// 013   ----------------------------------------
 BYTE   Gn1
 BYTE   N12  Gn2
 BYTE   W12
 BYTE   Gn1
 BYTE   N12  Gn2
 BYTE   W24
 BYTE   Gn1
 BYTE   N12  Gn2
 BYTE   W24
 BYTE   Gn1
 BYTE   N12  Gn2
 BYTE   W12
 BYTE   Gn1
 BYTE   N12  Gn2
 BYTE   W24
// 014   ----------------------------------------
 BYTE   Gn0
 BYTE   N12  Gn1
 BYTE   W36
 BYTE   Gn0
 BYTE   N12  Gn1
 BYTE   W36
 BYTE   Gn0
 BYTE   N12  Gn1
 BYTE   W24
// 015   ----------------------------------------
 BYTE   Gn0
 BYTE   N12  Gn1
 BYTE   W12
 BYTE   Gn0
 BYTE   N12  Gn1
 BYTE   W24
 BYTE   Gn0
 BYTE   N12  Gn1
 BYTE   W24
 BYTE   Gn0
 BYTE   N12  Gn1
 BYTE   W12
 BYTE   Gn0
 BYTE   N12  Gn1
 BYTE   W24
// 016   ----------------------------------------
 BYTE   PATT
  POIN2 Label_7_01301442
// 017   ----------------------------------------
 BYTE   PATT
  POIN2 Label_7_01301451
// 018   ----------------------------------------
 BYTE   PATT
  POIN2 Label_7_01301442
// 019   ----------------------------------------
 BYTE   PATT
  POIN2 Label_7_01301451
// 020   ----------------------------------------
Label_7_01301530:
 BYTE   N12  Gs0  v120
 BYTE   N12  Gs1
 BYTE   W36
 BYTE   Gs0
 BYTE   N12  Gs1
 BYTE   W36
 BYTE   Gs0
 BYTE   N12  Gs1
 BYTE   W24
 BYTE   PEND 
// 021   ----------------------------------------
Label_7_0130153F:
 BYTE   N12  Gs0  v120
 BYTE   N12  Gs1
 BYTE   W12
 BYTE   Gs0
 BYTE   N12  Gs1
 BYTE   W24
 BYTE   Gs0
 BYTE   N12  Gs1
 BYTE   W24
 BYTE   Gs0
 BYTE   N12  Gs1
 BYTE   W12
 BYTE   Gs0
 BYTE   N12  Gs1
 BYTE   W24
 BYTE   PEND 
// 022   ----------------------------------------
 BYTE   PATT
  POIN2 Label_7_01301530
// 023   ----------------------------------------
 BYTE   PATT
  POIN2 Label_7_0130153F
// 024   ----------------------------------------
 BYTE   N12  Fn1  v112
 BYTE   N12  Fn2  v127
 BYTE   W36
 BYTE   Fn1  v112
 BYTE   N12  Fn2  v127
 BYTE   W36
 BYTE   Fn1  v112
 BYTE   N12  Fn2  v127
 BYTE   W24
// 025   ----------------------------------------
 BYTE   Ds1  v112
 BYTE   N12  Ds2  v127
 BYTE   W12
 BYTE   As1  v112
 BYTE   W12
 BYTE   N12
 BYTE   W12
 BYTE   Ds1
 BYTE   N12  Ds2  v127
 BYTE   W12
 BYTE   As1  v112
 BYTE   W12
 BYTE   N12
 BYTE   W12
 BYTE   Ds1
 BYTE   N12  Ds2  v127
 BYTE   W12
 BYTE   As1  v112
 BYTE   W12
// 026   ----------------------------------------
 BYTE   Dn1
 BYTE   N12  Dn2  v127
 BYTE   W36
 BYTE   Dn1  v112
 BYTE   N12  Dn2  v127
 BYTE   W36
 BYTE   Dn1  v112
 BYTE   N12  Dn2  v127
 BYTE   W24
// 027   ----------------------------------------
 BYTE   Gn1  v112
 BYTE   N12  Gn2  v127
 BYTE   W12
 BYTE   Dn2  v112
 BYTE   W12
 BYTE   N12
 BYTE   W12
 BYTE   Gn1
 BYTE   N12  Gn2  v127
 BYTE   W12
 BYTE   Dn2  v112
 BYTE   W12
 BYTE   N12
 BYTE   W12
 BYTE   Gn1
 BYTE   N12  Gn2  v127
 BYTE   W12
 BYTE   Dn2  v112
 BYTE   W12
// 028   ----------------------------------------
Label_7_013015BE:
 BYTE   N12  Cn1  v112
 BYTE   N12  Cn2  v127
 BYTE   W36
 BYTE   Cn1  v112
 BYTE   N12  Cn2  v127
 BYTE   W36
 BYTE   Cn1  v112
 BYTE   N12  Cn2  v127
 BYTE   W24
 BYTE   PEND 
// 029   ----------------------------------------
Label_7_013015D2:
 BYTE   N12  Cn1  v112
 BYTE   N12  Cn2  v127
 BYTE   W12
 BYTE   Gn1  v112
 BYTE   W12
 BYTE   N12
 BYTE   W12
 BYTE   Cn1
 BYTE   N12  Cn2  v127
 BYTE   W12
 BYTE   Gn1  v112
 BYTE   W12
 BYTE   N12
 BYTE   W12
 BYTE   Cn1
 BYTE   N12  Cn2  v127
 BYTE   W12
 BYTE   Gn1  v112
 BYTE   W12
 BYTE   PEND 
// 030   ----------------------------------------
 BYTE   PATT
  POIN2 Label_7_013015BE
// 031   ----------------------------------------
 BYTE   PATT
  POIN2 Label_7_013015D2
// 032   ----------------------------------------
 BYTE   W96
// 033   ----------------------------------------
 BYTE   W96
// 034   ----------------------------------------
 BYTE   W96
// 035   ----------------------------------------
 BYTE   W96
// 036   ----------------------------------------
 BYTE   PATT
  POIN2 Label_7_01301442
// 037   ----------------------------------------
 BYTE   PATT
  POIN2 Label_7_01301451
// 038   ----------------------------------------
 BYTE   PATT
  POIN2 Label_7_01301468
// 039   ----------------------------------------
 BYTE   PATT
  POIN2 Label_7_01301477
// 040   ----------------------------------------
 BYTE   PATT
  POIN2 Label_7_0130148E
// 041   ----------------------------------------
 BYTE   PATT
  POIN2 Label_7_0130149D
// 042   ----------------------------------------
 BYTE   PATT
  POIN2 Label_7_013014B4
// 043   ----------------------------------------
 BYTE   PATT
  POIN2 Label_7_013014C3
// 044   ----------------------------------------
 BYTE   GoTo
  POIN2 Label_7_013014DA
 BYTE   FINE

//**************** Track 9 (Midi-Chn.8) ****************//

Tense_009:
// 000   ----------------------------------------
 BYTE   KEYSH   Tense_key+0
 BYTE   VOICE   57
 BYTE   VOL   26*Tense_mvl/mxv
 BYTE   PAN   c_v+0
 BYTE   W96
// 001   ----------------------------------------
 BYTE   W96
// 002   ----------------------------------------
 BYTE   W96
// 003   ----------------------------------------
 BYTE   W96
// 004   ----------------------------------------
 BYTE   W96
// 005   ----------------------------------------
 BYTE   W96
// 006   ----------------------------------------
 BYTE   W96
// 007   ----------------------------------------
 BYTE   W96
// 008   ----------------------------------------
 BYTE   W96
// 009   ----------------------------------------
 BYTE   W96
// 010   ----------------------------------------
 BYTE   W96
// 011   ----------------------------------------
 BYTE   W96
// 012   ----------------------------------------
Label_8_012AED84:
 BYTE   W96
// 013   ----------------------------------------
 BYTE   W96
// 014   ----------------------------------------
 BYTE   W96
// 015   ----------------------------------------
 BYTE   W96
// 016   ----------------------------------------
Label_8_012AED88:
 BYTE   N06  Ds2  v120
 BYTE   N06  Gn2
 BYTE   W36
 BYTE   Ds2  v116
 BYTE   N06  Gn2
 BYTE   W36
 BYTE   N09  Dn2  v120
 BYTE   N09  Fn2
 BYTE   W24
 BYTE   PEND 
// 017   ----------------------------------------
Label_8_012AED9A:
 BYTE   N06  Ds2  v120
 BYTE   N06  Gn2
 BYTE   W36
 BYTE   Ds2  v116
 BYTE   N06  Gn2
 BYTE   W60
 BYTE   PEND 
// 018   ----------------------------------------
 BYTE   PATT
  POIN2 Label_8_012AED88
// 019   ----------------------------------------
 BYTE   N06  Ds2  v120
 BYTE   N06  Gn2
 BYTE   W12
 BYTE   N04  Ds2  v100
 BYTE   N04  Gn2
 BYTE   W24
 BYTE   N06  Ds2  v116
 BYTE   N06  Gn2
 BYTE   W36
 BYTE   N10  Dn2
 BYTE   N10  Fn2
 BYTE   W24
// 020   ----------------------------------------
Label_8_012AEDC2:
 BYTE   N06  Ds2  v120
 BYTE   N06  Gs2
 BYTE   W36
 BYTE   Ds2  v116
 BYTE   N06  Gs2
 BYTE   W36
 BYTE   N09  Ds2  v120
 BYTE   N09  Gn2
 BYTE   W24
 BYTE   PEND 
// 021   ----------------------------------------
 BYTE   N06  Ds2
 BYTE   N06  Gs2
 BYTE   W36
 BYTE   Ds2  v116
 BYTE   N06  Gs2
 BYTE   W60
// 022   ----------------------------------------
 BYTE   PATT
  POIN2 Label_8_012AEDC2
// 023   ----------------------------------------
 BYTE   N06  Ds2  v120
 BYTE   N06  Gs2
 BYTE   W12
 BYTE   N04  Ds2  v100
 BYTE   N04  Gs2
 BYTE   W24
 BYTE   N06  Ds2  v116
 BYTE   N06  Gs2
 BYTE   W36
 BYTE   N10  Ds2
 BYTE   N10  Gn2
 BYTE   W24
// 024   ----------------------------------------
 BYTE   N06  Fn2  v120
 BYTE   N06  Gs2
 BYTE   W36
 BYTE   Fn2  v116
 BYTE   N06  Gs2
 BYTE   W36
 BYTE   N09  Fn2  v120
 BYTE   N09  Gs2
 BYTE   W24
// 025   ----------------------------------------
 BYTE   PATT
  POIN2 Label_8_012AED9A
// 026   ----------------------------------------
 BYTE   N06  Dn2  v120
 BYTE   N06  Fn2
 BYTE   W36
 BYTE   Dn2  v116
 BYTE   N06  Fn2
 BYTE   W36
 BYTE   N09  Dn2  v120
 BYTE   N09  Fn2
 BYTE   W24
// 027   ----------------------------------------
 BYTE   N06  Dn2
 BYTE   N06  Gn2
 BYTE   W12
 BYTE   N04  Dn2  v112
 BYTE   N04  Gn2
 BYTE   W24
 BYTE   N06  Dn2  v116
 BYTE   N06  Gn2
 BYTE   W36
 BYTE   N10  Dn2  v120
 BYTE   N10  Gn2
 BYTE   W24
// 028   ----------------------------------------
Label_8_012AEE38:
 BYTE   W12
 BYTE   N06  Cn2  v120
 BYTE   N06  Gn2
 BYTE   W36
 BYTE   N03  Cn2  v112
 BYTE   N03  Gn2
 BYTE   W36
 BYTE   N04  Cn2  v120
 BYTE   N04  Gn2
 BYTE   W12
 BYTE   PEND 
// 029   ----------------------------------------
 BYTE   PATT
  POIN2 Label_8_012AEE38
// 030   ----------------------------------------
 BYTE   W12
 BYTE   N06  Cn2  v127
 BYTE   N06  Gn2
 BYTE   W36
 BYTE   N03  Cn2  v116
 BYTE   N03  Gn2
 BYTE   W36
 BYTE   N04  Cn2  v127
 BYTE   N04  Gn2
 BYTE   W12
// 031   ----------------------------------------
 BYTE   W12
 BYTE   N06  Cn2
 BYTE   N06  Gn2
 BYTE   W36
 BYTE   N03  Cn2  v120
 BYTE   N03  Gn2
 BYTE   W36
 BYTE   N04  Cn2  v127
 BYTE   N04  Gn2
 BYTE   W12
// 032   ----------------------------------------
 BYTE   W96
// 033   ----------------------------------------
 BYTE   W96
// 034   ----------------------------------------
 BYTE   W96
// 035   ----------------------------------------
 BYTE   W96
// 036   ----------------------------------------
 BYTE   W96
// 037   ----------------------------------------
 BYTE   W96
// 038   ----------------------------------------
 BYTE   W96
// 039   ----------------------------------------
 BYTE   W96
// 040   ----------------------------------------
 BYTE   W96
// 041   ----------------------------------------
 BYTE   W96
// 042   ----------------------------------------
 BYTE   W96
// 043   ----------------------------------------
 BYTE   W96
// 044   ----------------------------------------
 BYTE   GoTo
  POIN2 Label_8_012AED84
 BYTE   FINE

//**************** Track 10 (Midi-Chn.9) ****************//

Tense_010:
// 000   ----------------------------------------
 BYTE   KEYSH   Tense_key+0
 BYTE   VOICE   127
 BYTE   VOL   28*Tense_mvl/mxv
 BYTE   PAN   c_v+0
 BYTE   N01  Dn1  v076
 BYTE   W01
 BYTE   N05  Dn1  v100
 BYTE   W11
 BYTE   N06  Dn1  v092
 BYTE   W06
 BYTE   Dn1  v088
 BYTE   W06
 BYTE   N24  Dn1  v096
 BYTE   W36
 BYTE   N01  Dn1  v080
 BYTE   W01
 BYTE   N05  Dn1  v092
 BYTE   W05
 BYTE   N06
 BYTE   W06
 BYTE   Dn1  v096
 BYTE   W06
 BYTE   Dn1  v088
 BYTE   W06
 BYTE   N11  Dn1  v100
 BYTE   W11
 BYTE   N01  Dn1  v088
 BYTE   W01
// 001   ----------------------------------------
Label_9_01301663:
 BYTE   N12  Dn1  v100
 BYTE   W12
 BYTE   N06  Dn1  v088
 BYTE   W06
 BYTE   Dn1  v092
 BYTE   W06
 BYTE   N12  Dn1  v096
 BYTE   W12
 BYTE   Dn1  v100
 BYTE   W12
 BYTE   N06  Dn1  v088
 BYTE   W06
 BYTE   Dn1  v092
 BYTE   W06
 BYTE   N12  Dn1  v100
 BYTE   W12
 BYTE   N06  Dn1  v096
 BYTE   W06
 BYTE   N02  Dn1  v088
 BYTE   W02
 BYTE   Dn1  v080
 BYTE   W02
 BYTE   N02
 BYTE   W02
 BYTE   N06  Dn1  v088
 BYTE   W06
 BYTE   Dn1  v092
 BYTE   W06
 BYTE   PEND 
// 002   ----------------------------------------
 BYTE   N01  Dn1  v076
 BYTE   W01
 BYTE   N05  Dn1  v100
 BYTE   W11
 BYTE   N06  Dn1  v092
 BYTE   W06
 BYTE   Dn1  v088
 BYTE   W06
 BYTE   N24  Dn1  v096
 BYTE   W36
 BYTE   N01  Dn1  v080
 BYTE   W01
 BYTE   N05  Dn1  v092
 BYTE   W05
 BYTE   N06
 BYTE   W06
 BYTE   Dn1  v096
 BYTE   W06
 BYTE   Dn1  v088
 BYTE   W06
 BYTE   N11  Dn1  v100
 BYTE   W11
 BYTE   N01  Dn1  v088
 BYTE   W01
// 003   ----------------------------------------
 BYTE   PATT
  POIN2 Label_9_01301663
// 004   ----------------------------------------
Label_9_013016C5:
 BYTE   N12  Dn1  v100
 BYTE   W12
 BYTE   N06  Dn1  v076
 BYTE   W06
 BYTE   Dn1  v088
 BYTE   W06
 BYTE   N12  Dn1  v096
 BYTE   W12
 BYTE   Dn1  v100
 BYTE   W12
 BYTE   N06  Dn1  v076
 BYTE   W06
 BYTE   Dn1  v088
 BYTE   W06
 BYTE   N12  Dn1  v096
 BYTE   W12
 BYTE   Dn1  v100
 BYTE   W12
 BYTE   N06  Dn1  v076
 BYTE   W06
 BYTE   Dn1  v088
 BYTE   W06
 BYTE   PEND 
// 005   ----------------------------------------
Label_9_013016ED:
 BYTE   N12  Dn1  v100
 BYTE   W12
 BYTE   N06  Dn1  v076
 BYTE   W06
 BYTE   Dn1  v088
 BYTE   W06
 BYTE   N12  Dn1  v096
 BYTE   W12
 BYTE   Dn1  v100
 BYTE   W12
 BYTE   N06  Dn1  v080
 BYTE   W06
 BYTE   Dn1  v092
 BYTE   W06
 BYTE   Dn1  v080
 BYTE   W06
 BYTE   Dn1  v088
 BYTE   W06
 BYTE   Dn1  v096
 BYTE   W06
 BYTE   N03  Dn1  v080
 BYTE   W03
 BYTE   N03
 BYTE   W03
 BYTE   N06  Dn1  v096
 BYTE   W06
 BYTE   Dn1  v108
 BYTE   W06
 BYTE   PEND 
// 006   ----------------------------------------
 BYTE   PATT
  POIN2 Label_9_013016C5
// 007   ----------------------------------------
 BYTE   PATT
  POIN2 Label_9_013016ED
// 008   ----------------------------------------
 BYTE   PATT
  POIN2 Label_9_013016C5
// 009   ----------------------------------------
 BYTE   PATT
  POIN2 Label_9_013016ED
// 010   ----------------------------------------
 BYTE   PATT
  POIN2 Label_9_013016C5
// 011   ----------------------------------------
 BYTE   PATT
  POIN2 Label_9_013016ED
// 012   ----------------------------------------
Label_9_0130173B:
// 013   ----------------------------------------
 BYTE   PATT
  POIN2 Label_9_013016C5
// 014   ----------------------------------------
 BYTE   PATT
  POIN2 Label_9_013016ED
// 015   ----------------------------------------
 BYTE   PATT
  POIN2 Label_9_013016C5
// 016   ----------------------------------------
 BYTE   PATT
  POIN2 Label_9_013016ED
// 017   ----------------------------------------
 BYTE   PATT
  POIN2 Label_9_013016C5
// 018   ----------------------------------------
 BYTE   PATT
  POIN2 Label_9_013016ED
// 019   ----------------------------------------
 BYTE   PATT
  POIN2 Label_9_013016C5
// 020   ----------------------------------------
 BYTE   PATT
  POIN2 Label_9_013016ED
// 021   ----------------------------------------
 BYTE   PATT
  POIN2 Label_9_013016C5
// 022   ----------------------------------------
 BYTE   PATT
  POIN2 Label_9_013016ED
// 023   ----------------------------------------
 BYTE   PATT
  POIN2 Label_9_013016C5
// 024   ----------------------------------------
 BYTE   PATT
  POIN2 Label_9_013016ED
// 025   ----------------------------------------
 BYTE   PATT
  POIN2 Label_9_013016ED
// 026   ----------------------------------------
 BYTE   PATT
  POIN2 Label_9_013016C5
// 027   ----------------------------------------
 BYTE   PATT
  POIN2 Label_9_013016ED
// 028   ----------------------------------------
 BYTE   PATT
  POIN2 Label_9_013016C5
// 029   ----------------------------------------
 BYTE   PATT
  POIN2 Label_9_013016C5
// 030   ----------------------------------------
 BYTE   PATT
  POIN2 Label_9_013016ED
// 031   ----------------------------------------
 BYTE   N12  Dn1  v104
 BYTE   W12
 BYTE   N06  Dn1  v080
 BYTE   W06
 BYTE   Dn1  v088
 BYTE   W06
 BYTE   N12  Dn1  v100
 BYTE   W12
 BYTE   Dn1  v104
 BYTE   W12
 BYTE   N06  Dn1  v080
 BYTE   W06
 BYTE   Dn1  v088
 BYTE   W06
 BYTE   N12  Dn1  v100
 BYTE   W12
 BYTE   Dn1  v104
 BYTE   W12
 BYTE   N06  Dn1  v080
 BYTE   W06
 BYTE   Dn1  v088
 BYTE   W06
// 032   ----------------------------------------
 BYTE   N12  Dn1  v108
 BYTE   W12
 BYTE   N06  Dn1  v080
 BYTE   W06
 BYTE   Dn1  v092
 BYTE   W06
 BYTE   N12  Dn1  v100
 BYTE   W12
 BYTE   Dn1  v108
 BYTE   W12
 BYTE   N06  Dn1  v088
 BYTE   W06
 BYTE   Dn1  v096
 BYTE   W06
 BYTE   Dn1  v088
 BYTE   W06
 BYTE   Dn1  v092
 BYTE   W06
 BYTE   Dn1  v100
 BYTE   W06
 BYTE   N03  Dn1  v088
 BYTE   W03
 BYTE   N03
 BYTE   W03
 BYTE   N06  Dn1  v100
 BYTE   W06
 BYTE   Dn1  v112
 BYTE   W06
// 033   ----------------------------------------
 BYTE   N01
 BYTE   W01
 BYTE   N10  Dn1  v088
 BYTE   W92
 BYTE   W03
// 034   ----------------------------------------
 BYTE   W72
 BYTE   N02  Dn1  v092
 BYTE   W02
 BYTE   N04  Dn1  v080
 BYTE   W04
 BYTE   N06
 BYTE   W06
 BYTE   Dn1  v092
 BYTE   W12
// 035   ----------------------------------------
 BYTE   N12  Dn1  v096
 BYTE   W12
 BYTE   N06  Dn1  v072
 BYTE   W06
 BYTE   Dn1  v080
 BYTE   W06
 BYTE   N12  Dn1  v092
 BYTE   W12
 BYTE   Dn1  v096
 BYTE   W12
 BYTE   N06  Dn1  v072
 BYTE   W06
 BYTE   Dn1  v080
 BYTE   W06
 BYTE   N12  Dn1  v092
 BYTE   W12
 BYTE   Dn1  v096
 BYTE   W12
 BYTE   N06  Dn1  v072
 BYTE   W06
 BYTE   Dn1  v080
 BYTE   W06
// 036   ----------------------------------------
 BYTE   N12  Dn1  v096
 BYTE   W12
 BYTE   N06  Dn1  v072
 BYTE   W06
 BYTE   Dn1  v080
 BYTE   W06
 BYTE   N12  Dn1  v092
 BYTE   W12
 BYTE   Dn1  v096
 BYTE   W12
 BYTE   N06  Dn1  v076
 BYTE   W06
 BYTE   Dn1  v088
 BYTE   W06
 BYTE   Dn1  v076
 BYTE   W06
 BYTE   Dn1  v080
 BYTE   W06
 BYTE   Dn1  v092
 BYTE   W06
 BYTE   N03  Dn1  v076
 BYTE   W03
 BYTE   N03
 BYTE   W03
 BYTE   N06  Dn1  v092
 BYTE   W06
 BYTE   Dn1  v100
 BYTE   W06
// 037   ----------------------------------------
 BYTE   PATT
  POIN2 Label_9_013016C5
// 038   ----------------------------------------
 BYTE   PATT
  POIN2 Label_9_013016ED
// 039   ----------------------------------------
 BYTE   PATT
  POIN2 Label_9_013016C5
// 040   ----------------------------------------
 BYTE   PATT
  POIN2 Label_9_013016ED
// 041   ----------------------------------------
 BYTE   PATT
  POIN2 Label_9_013016C5
// 042   ----------------------------------------
 BYTE   PATT
  POIN2 Label_9_013016ED
// 043   ----------------------------------------
 BYTE   PATT
  POIN2 Label_9_013016C5
// 044   ----------------------------------------
 BYTE   PATT
  POIN2 Label_9_013016ED
// 045   ----------------------------------------
 BYTE   GoTo
  POIN2 Label_9_0130173B
 BYTE   FINE

//**************** Track 11 (Midi-Chn.10) ****************//

Tense_011:
// 000   ----------------------------------------
 BYTE   KEYSH   Tense_key+0
 BYTE   VOICE   46
 BYTE   VOL   24*Tense_mvl/mxv
 BYTE   PAN   c_v-14
 BYTE   W96
// 001   ----------------------------------------
 BYTE   W96
// 002   ----------------------------------------
 BYTE   W96
// 003   ----------------------------------------
 BYTE   W96
// 004   ----------------------------------------
 BYTE   W96
// 005   ----------------------------------------
 BYTE   W96
// 006   ----------------------------------------
 BYTE   W96
// 007   ----------------------------------------
 BYTE   W96
// 008   ----------------------------------------
 BYTE   W96
// 009   ----------------------------------------
 BYTE   W96
// 010   ----------------------------------------
 BYTE   W96
// 011   ----------------------------------------
 BYTE   W96
// 012   ----------------------------------------
Label_10_012AF5EC:
 BYTE   W96
// 013   ----------------------------------------
 BYTE   W96
// 014   ----------------------------------------
 BYTE   W96
// 015   ----------------------------------------
 BYTE   W24
 BYTE   N06  Gn1  v112
 BYTE   W06
 BYTE   Dn2  v108
 BYTE   W06
 BYTE   Gn2
 BYTE   W06
 BYTE   An2
 BYTE   W06
 BYTE   Bn2
 BYTE   W06
 BYTE   Dn3
 BYTE   W06
 BYTE   Gn3
 BYTE   W06
 BYTE   An3
 BYTE   W06
 BYTE   N04  Bn3
 BYTE   W04
 BYTE   Cn4  v100
 BYTE   W04
 BYTE   Dn4
 BYTE   W04
 BYTE   Fn4
 BYTE   W04
 BYTE   Gn4
 BYTE   W04
 BYTE   Bn4
 BYTE   W04
// 016   ----------------------------------------
 BYTE   N06  Cn5  v096
 BYTE   W96
// 017   ----------------------------------------
 BYTE   W96
// 018   ----------------------------------------
 BYTE   W96
// 019   ----------------------------------------
 BYTE   W96
// 020   ----------------------------------------
 BYTE   W96
// 021   ----------------------------------------
 BYTE   W96
// 022   ----------------------------------------
 BYTE   W96
// 023   ----------------------------------------
 BYTE   W96
// 024   ----------------------------------------
 BYTE   W96
// 025   ----------------------------------------
 BYTE   W96
// 026   ----------------------------------------
 BYTE   W96
// 027   ----------------------------------------
 BYTE   W96
// 028   ----------------------------------------
 BYTE   W96
// 029   ----------------------------------------
 BYTE   W96
// 030   ----------------------------------------
 BYTE   W96
// 031   ----------------------------------------
 BYTE   W96
// 032   ----------------------------------------
 BYTE   W96
// 033   ----------------------------------------
 BYTE   W96
// 034   ----------------------------------------
 BYTE   W24
 BYTE   TIE  Cn1
 BYTE   TIE  Cn2
 BYTE   W24
 BYTE   N24  Gn2
 BYTE   W24
 BYTE   Cn3
 BYTE   W24
// 035   ----------------------------------------
 BYTE   Ds3
 BYTE   W24
 BYTE   Fn3
 BYTE   W24
 BYTE   Gn3  v092
 BYTE   W24
 BYTE   Cn4  v088
 BYTE   W24
// 036   ----------------------------------------
 BYTE   EOT
 BYTE   Cn1  v048
 BYTE   N24  Gn4
 BYTE   W96
// 037   ----------------------------------------
 BYTE   W96
// 038   ----------------------------------------
 BYTE   W96
// 039   ----------------------------------------
 BYTE   W96
// 040   ----------------------------------------
 BYTE   W96
// 041   ----------------------------------------
 BYTE   W96
// 042   ----------------------------------------
 BYTE   W96
// 043   ----------------------------------------
 BYTE   W96
// 044   ----------------------------------------
 BYTE   GoTo
  POIN2 Label_10_012AF5EC
 BYTE   FINE

//**************** Track 12 (Midi-Chn.11) ****************//

Tense_012:
// 000   ----------------------------------------
 BYTE   KEYSH   Tense_key+0
 BYTE   VOICE   45
 BYTE   VOL   26*Tense_mvl/mxv
 BYTE   PAN   c_v-9
 BYTE   W96
// 001   ----------------------------------------
 BYTE   W96
// 002   ----------------------------------------
 BYTE   W96
// 003   ----------------------------------------
 BYTE   W96
// 004   ----------------------------------------
 BYTE   W96
// 005   ----------------------------------------
 BYTE   W96
// 006   ----------------------------------------
 BYTE   W96
// 007   ----------------------------------------
 BYTE   W96
// 008   ----------------------------------------
 BYTE   W96
// 009   ----------------------------------------
 BYTE   W96
// 010   ----------------------------------------
 BYTE   W96
// 011   ----------------------------------------
 BYTE   W96
// 012   ----------------------------------------
Label_11_012AF30C:
 BYTE   W96
// 013   ----------------------------------------
 BYTE   W96
// 014   ----------------------------------------
 BYTE   W96
// 015   ----------------------------------------
 BYTE   W96
// 016   ----------------------------------------
 BYTE   W96
// 017   ----------------------------------------
 BYTE   W96
// 018   ----------------------------------------
 BYTE   W96
// 019   ----------------------------------------
 BYTE   W96
// 020   ----------------------------------------
 BYTE   W96
// 021   ----------------------------------------
 BYTE   W96
// 022   ----------------------------------------
 BYTE   W96
// 023   ----------------------------------------
 BYTE   W96
// 024   ----------------------------------------
 BYTE   W96
// 025   ----------------------------------------
 BYTE   W96
// 026   ----------------------------------------
 BYTE   W96
// 027   ----------------------------------------
 BYTE   W96
// 028   ----------------------------------------
 BYTE   W96
// 029   ----------------------------------------
 BYTE   W96
// 030   ----------------------------------------
 BYTE   W96
// 031   ----------------------------------------
 BYTE   W96
// 032   ----------------------------------------
 BYTE   W48
 BYTE   N48  Gn3  v120
 BYTE   N48  Cn4
 BYTE   N48  Dn4
 BYTE   W48
// 033   ----------------------------------------
 BYTE   W96
// 034   ----------------------------------------
 BYTE   W96
// 035   ----------------------------------------
 BYTE   W96
// 036   ----------------------------------------
 BYTE   W96
// 037   ----------------------------------------
 BYTE   W96
// 038   ----------------------------------------
 BYTE   W96
// 039   ----------------------------------------
 BYTE   W96
// 040   ----------------------------------------
 BYTE   W96
// 041   ----------------------------------------
 BYTE   W96
// 042   ----------------------------------------
 BYTE   W96
// 043   ----------------------------------------
 BYTE   W96
// 044   ----------------------------------------
 BYTE   GoTo
  POIN2 Label_11_012AF30C
 BYTE   FINE

//**************** Track 13 (Midi-Chn.12) ****************//

Tense_013:
// 000   ----------------------------------------
 BYTE   KEYSH   Tense_key+0
 BYTE   VOICE   45
 BYTE   VOL   26*Tense_mvl/mxv
 BYTE   PAN   c_v+11
 BYTE   W96
// 001   ----------------------------------------
 BYTE   W96
// 002   ----------------------------------------
 BYTE   W96
// 003   ----------------------------------------
 BYTE   W96
// 004   ----------------------------------------
 BYTE   W96
// 005   ----------------------------------------
 BYTE   W96
// 006   ----------------------------------------
 BYTE   W96
// 007   ----------------------------------------
 BYTE   W96
// 008   ----------------------------------------
 BYTE   W96
// 009   ----------------------------------------
 BYTE   W96
// 010   ----------------------------------------
 BYTE   W96
// 011   ----------------------------------------
 BYTE   W96
// 012   ----------------------------------------
Label_12_012AF080:
 BYTE   W96
// 013   ----------------------------------------
 BYTE   W96
// 014   ----------------------------------------
 BYTE   W96
// 015   ----------------------------------------
 BYTE   W96
// 016   ----------------------------------------
 BYTE   W96
// 017   ----------------------------------------
 BYTE   W96
// 018   ----------------------------------------
 BYTE   W96
// 019   ----------------------------------------
 BYTE   W96
// 020   ----------------------------------------
 BYTE   W96
// 021   ----------------------------------------
 BYTE   W96
// 022   ----------------------------------------
 BYTE   W96
// 023   ----------------------------------------
 BYTE   W96
// 024   ----------------------------------------
 BYTE   W96
// 025   ----------------------------------------
 BYTE   W96
// 026   ----------------------------------------
 BYTE   W96
// 027   ----------------------------------------
 BYTE   W96
// 028   ----------------------------------------
 BYTE   W96
// 029   ----------------------------------------
 BYTE   W96
// 030   ----------------------------------------
 BYTE   W96
// 031   ----------------------------------------
 BYTE   W96
// 032   ----------------------------------------
 BYTE   N48  Cn2  v120
 BYTE   N48  Cn3
 BYTE   W96
// 033   ----------------------------------------
 BYTE   W96
// 034   ----------------------------------------
 BYTE   W96
// 035   ----------------------------------------
 BYTE   W96
// 036   ----------------------------------------
 BYTE   W96
// 037   ----------------------------------------
 BYTE   W96
// 038   ----------------------------------------
 BYTE   W96
// 039   ----------------------------------------
 BYTE   W96
// 040   ----------------------------------------
 BYTE   W96
// 041   ----------------------------------------
 BYTE   W96
// 042   ----------------------------------------
 BYTE   W96
// 043   ----------------------------------------
 BYTE   W96
// 044   ----------------------------------------
 BYTE   GoTo
  POIN2 Label_12_012AF080
 BYTE   FINE

//**************** Track 14 (Midi-Chn.13) ****************//

Tense_014:
// 000   ----------------------------------------
 BYTE   KEYSH   Tense_key+0
 BYTE   VOICE   47
 BYTE   VOL   29*Tense_mvl/mxv
 BYTE   PAN   c_v+0
 BYTE   W96
// 001   ----------------------------------------
 BYTE   W96
// 002   ----------------------------------------
 BYTE   W96
// 003   ----------------------------------------
 BYTE   W96
// 004   ----------------------------------------
 BYTE   W96
// 005   ----------------------------------------
 BYTE   W96
// 006   ----------------------------------------
 BYTE   W96
// 007   ----------------------------------------
 BYTE   W96
// 008   ----------------------------------------
 BYTE   W96
// 009   ----------------------------------------
 BYTE   W96
// 010   ----------------------------------------
 BYTE   W96
// 011   ----------------------------------------
 BYTE   W96
// 012   ----------------------------------------
Label_13_012AFA68:
 BYTE   W96
// 013   ----------------------------------------
 BYTE   W84
 BYTE   N04  Gn1  v116
 BYTE   W04
 BYTE   Gn1  v112
 BYTE   W04
 BYTE   Gn1  v120
 BYTE   W04
// 014   ----------------------------------------
 BYTE   N12  Gn1  v124
 BYTE   W24
 BYTE   Dn1  v104
 BYTE   W12
 BYTE   Gn1  v124
 BYTE   W24
 BYTE   Gn1  v112
 BYTE   W12
 BYTE   Dn1  v120
 BYTE   W12
 BYTE   Gn1  v108
 BYTE   W12
// 015   ----------------------------------------
 BYTE   Gn1  v127
 BYTE   W24
 BYTE   Gn1  v120
 BYTE   W12
 BYTE   Dn1  v112
 BYTE   W24
 BYTE   Dn1  v108
 BYTE   W12
 BYTE   Gn1  v127
 BYTE   W12
 BYTE   Dn1  v120
 BYTE   W12
// 016   ----------------------------------------
 BYTE   Cn2  v124
 BYTE   W12
 BYTE   Gn1  v108
 BYTE   W12
 BYTE   Gn1  v100
 BYTE   W12
 BYTE   Cn2  v120
 BYTE   W12
 BYTE   Gn1  v108
 BYTE   W12
 BYTE   Gn1  v100
 BYTE   W12
 BYTE   Cn2  v120
 BYTE   W12
 BYTE   Gn1  v104
 BYTE   W12
// 017   ----------------------------------------
 BYTE   Cn2  v120
 BYTE   W24
 BYTE   Cn2  v112
 BYTE   W12
 BYTE   Gn1  v108
 BYTE   W24
 BYTE   Gn1  v100
 BYTE   W12
 BYTE   Cn2  v120
 BYTE   W12
 BYTE   Gn1  v112
 BYTE   W12
// 018   ----------------------------------------
 BYTE   Cn2  v120
 BYTE   W24
 BYTE   Gn1  v100
 BYTE   W12
 BYTE   Cn2  v120
 BYTE   W12
 BYTE   Gn1  v108
 BYTE   W12
 BYTE   Gn1  v100
 BYTE   W12
 BYTE   Cn2  v120
 BYTE   W12
 BYTE   Gn1  v104
 BYTE   W12
// 019   ----------------------------------------
 BYTE   Cn2  v120
 BYTE   W24
 BYTE   Cn2  v112
 BYTE   W12
 BYTE   Gn1  v108
 BYTE   W24
 BYTE   Gn1  v100
 BYTE   W12
 BYTE   Cn2  v120
 BYTE   W12
 BYTE   N06  Gn1  v112
 BYTE   W06
 BYTE   N02  Gn1  v120
 BYTE   W02
 BYTE   Gn1  v112
 BYTE   W02
 BYTE   Gn1  v120
 BYTE   W02
// 020   ----------------------------------------
Label_13_012AFAF5:
 BYTE   N12  Gs1  v124
 BYTE   W24
 BYTE   Ds1  v104
 BYTE   W12
 BYTE   Gs1  v124
 BYTE   W24
 BYTE   Gs1  v112
 BYTE   W12
 BYTE   Ds1  v120
 BYTE   W12
 BYTE   Gs1  v108
 BYTE   W12
 BYTE   PEND 
// 021   ----------------------------------------
 BYTE   Gs1  v127
 BYTE   W24
 BYTE   Gs1  v120
 BYTE   W12
 BYTE   Ds1  v112
 BYTE   W24
 BYTE   Ds1  v104
 BYTE   W12
 BYTE   Gs1  v127
 BYTE   W12
 BYTE   Ds1  v120
 BYTE   W12
// 022   ----------------------------------------
 BYTE   PATT
  POIN2 Label_13_012AFAF5
// 023   ----------------------------------------
 BYTE   N12  Gs1  v127
 BYTE   W24
 BYTE   Gs1  v120
 BYTE   W12
 BYTE   Ds1  v112
 BYTE   W24
 BYTE   Ds1  v108
 BYTE   W12
 BYTE   Gs1  v127
 BYTE   W12
 BYTE   Ds1  v120
 BYTE   W12
// 024   ----------------------------------------
 BYTE   Fn1  v124
 BYTE   W24
 BYTE   Cn2  v104
 BYTE   W12
 BYTE   Fn1  v124
 BYTE   W12
 BYTE   Cn2  v112
 BYTE   W12
 BYTE   Cn2  v104
 BYTE   W12
 BYTE   Fn1  v124
 BYTE   W12
 BYTE   Cn2  v108
 BYTE   W12
// 025   ----------------------------------------
 BYTE   Ds2  v127
 BYTE   W24
 BYTE   Ds2  v120
 BYTE   W12
 BYTE   As1  v112
 BYTE   W24
 BYTE   As1  v104
 BYTE   W12
 BYTE   Ds2  v127
 BYTE   W12
 BYTE   As1  v112
 BYTE   W12
// 026   ----------------------------------------
 BYTE   Dn2  v124
 BYTE   W24
 BYTE   Gs1  v104
 BYTE   W12
 BYTE   Dn2  v124
 BYTE   W12
 BYTE   Gs1  v112
 BYTE   W12
 BYTE   Gs1  v104
 BYTE   W12
 BYTE   Dn2  v124
 BYTE   W12
 BYTE   Gs1  v108
 BYTE   W12
// 027   ----------------------------------------
 BYTE   Gn1  v127
 BYTE   W24
 BYTE   Gn1  v120
 BYTE   W12
 BYTE   Dn2  v112
 BYTE   W24
 BYTE   Dn2  v104
 BYTE   W12
 BYTE   Gn1  v127
 BYTE   W12
 BYTE   Dn2  v112
 BYTE   W12
// 028   ----------------------------------------
 BYTE   Cn2  v127
 BYTE   W24
 BYTE   Gn1  v104
 BYTE   W12
 BYTE   Cn2  v124
 BYTE   W12
 BYTE   Gn1  v112
 BYTE   W12
 BYTE   Gn1  v104
 BYTE   W12
 BYTE   Cn2  v124
 BYTE   W12
 BYTE   Gn1  v108
 BYTE   W12
// 029   ----------------------------------------
Label_13_012AFB96:
 BYTE   N12  Cn2  v127
 BYTE   W24
 BYTE   Cn2  v120
 BYTE   W12
 BYTE   Gn1  v112
 BYTE   W24
 BYTE   Gn1  v104
 BYTE   W12
 BYTE   Cn2  v127
 BYTE   W12
 BYTE   Gn1  v112
 BYTE   W12
 BYTE   PEND 
// 030   ----------------------------------------
 BYTE   Cn2  v124
 BYTE   W24
 BYTE   Gn1  v104
 BYTE   W12
 BYTE   Cn2  v124
 BYTE   W12
 BYTE   Gn1  v112
 BYTE   W12
 BYTE   Gn1  v104
 BYTE   W12
 BYTE   Cn2  v124
 BYTE   W12
 BYTE   Gn1  v108
 BYTE   W12
// 031   ----------------------------------------
 BYTE   PATT
  POIN2 Label_13_012AFB96
// 032   ----------------------------------------
 BYTE   N24  Cn2  v127
 BYTE   W96
// 033   ----------------------------------------
 BYTE   W96
// 034   ----------------------------------------
 BYTE   W96
// 035   ----------------------------------------
 BYTE   W96
// 036   ----------------------------------------
 BYTE   W96
// 037   ----------------------------------------
 BYTE   W96
// 038   ----------------------------------------
 BYTE   W96
// 039   ----------------------------------------
 BYTE   W96
// 040   ----------------------------------------
 BYTE   W96
// 041   ----------------------------------------
 BYTE   W96
// 042   ----------------------------------------
 BYTE   W96
// 043   ----------------------------------------
 BYTE   W96
// 044   ----------------------------------------
 BYTE   GoTo
  POIN2 Label_13_012AFA68
 BYTE   FINE

//**************** Track 15 (Midi-Chn.14) ****************//

Tense_015:
// 000   ----------------------------------------
 BYTE   KEYSH   Tense_key+0
 BYTE   VOICE   127
 BYTE   VOL   26*Tense_mvl/mxv
 BYTE   PAN   c_v+0
 BYTE   N96  Cs2  v120
 BYTE   W96
// 001   ----------------------------------------
 BYTE   W96
// 002   ----------------------------------------
 BYTE   TIE  En2  v127
 BYTE   W96
// 003   ----------------------------------------
 BYTE   W96
// 004   ----------------------------------------
 BYTE   N96  Cs2  v120
 BYTE   N24  An2  v108
 BYTE   W24
 BYTE   EOT
 BYTE   En2
 BYTE   W12
 BYTE   N24  An2  v088
 BYTE   W60
// 005   ----------------------------------------
 BYTE   W72
 BYTE   An2  v100
 BYTE   W24
// 006   ----------------------------------------
Label_14_013018A8:
 BYTE   N24  An2  v108
 BYTE   W36
 BYTE   An2  v088
 BYTE   W60
 BYTE   PEND 
// 007   ----------------------------------------
 BYTE   W72
 BYTE   An2  v100
 BYTE   W24
// 008   ----------------------------------------
 BYTE   PATT
  POIN2 Label_14_013018A8
// 009   ----------------------------------------
 BYTE   W72
 BYTE   N24  An2  v100
 BYTE   W24
// 010   ----------------------------------------
 BYTE   PATT
  POIN2 Label_14_013018A8
// 011   ----------------------------------------
 BYTE   W72
 BYTE   N24  An2  v100
 BYTE   W24
// 012   ----------------------------------------
Label_14_013018C8:
// 013   ----------------------------------------
 BYTE   PATT
  POIN2 Label_14_013018A8
// 014   ----------------------------------------
 BYTE   W72
 BYTE   N24  An2  v100
 BYTE   W24
// 015   ----------------------------------------
 BYTE   TIE  En2  v127
 BYTE   N24  An2  v108
 BYTE   W36
 BYTE   An2  v088
 BYTE   W60
// 016   ----------------------------------------
 BYTE   W72
 BYTE   An2  v100
 BYTE   W24
// 017   ----------------------------------------
 BYTE   N96  Fn2  v060
 BYTE   W24
 BYTE   EOT
 BYTE   En2
 BYTE   W72
// 018   ----------------------------------------
 BYTE   W96
// 019   ----------------------------------------
 BYTE   W96
// 020   ----------------------------------------
 BYTE   W96
// 021   ----------------------------------------
 BYTE   W96
// 022   ----------------------------------------
 BYTE   W96
// 023   ----------------------------------------
 BYTE   W96
// 024   ----------------------------------------
 BYTE   W96
// 025   ----------------------------------------
 BYTE   W96
// 026   ----------------------------------------
 BYTE   W96
// 027   ----------------------------------------
 BYTE   W96
// 028   ----------------------------------------
 BYTE   W96
// 029   ----------------------------------------
 BYTE   W96
// 030   ----------------------------------------
 BYTE   W96
// 031   ----------------------------------------
 BYTE   TIE  En2  v127
 BYTE   W96
// 032   ----------------------------------------
 BYTE   W96
// 033   ----------------------------------------
 BYTE   N96  Cs2  v120
 BYTE   N24  An2
 BYTE   W24
 BYTE   EOT
 BYTE   En2
 BYTE   W72
// 034   ----------------------------------------
 BYTE   W96
// 035   ----------------------------------------
 BYTE   W96
// 036   ----------------------------------------
 BYTE   TIE  En2  v112
 BYTE   W96
// 037   ----------------------------------------
 BYTE   N96  Cs2  v120
 BYTE   N24  An2  v100
 BYTE   W36
 BYTE   An2  v112
 BYTE   W60
// 038   ----------------------------------------
 BYTE   W24
 BYTE   EOT
 BYTE   En2
 BYTE   W48
 BYTE   N24  An2  v120
 BYTE   W24
// 039   ----------------------------------------
Label_14_0130191A:
 BYTE   N24  An2  v120
 BYTE   W36
 BYTE   An2  v100
 BYTE   W60
 BYTE   PEND 
// 040   ----------------------------------------
 BYTE   W72
 BYTE   An2  v120
 BYTE   W24
// 041   ----------------------------------------
 BYTE   PATT
  POIN2 Label_14_0130191A
// 042   ----------------------------------------
 BYTE   W72
 BYTE   N24  An2  v120
 BYTE   W24
// 043   ----------------------------------------
 BYTE   PATT
  POIN2 Label_14_0130191A
// 044   ----------------------------------------
 BYTE   W72
 BYTE   N24  An2  v120
 BYTE   W24
// 045   ----------------------------------------
 BYTE   GoTo
  POIN2 Label_14_013018C8
 BYTE   FINE

//******************************************************//
	ALIGN 4

Tense:
	BYTE	15	// NumTrks
	BYTE	0	// NumBlks
	BYTE	Tense_pri	// Priority
	BYTE	Tense_rev	// Reverb.
    
	POIN2	Tense_grp
    
	POIN2	Tense_001
	POIN2	Tense_002
	POIN2	Tense_003
	POIN2	Tense_004
	POIN2	Tense_005
	POIN2	Tense_006
	POIN2	Tense_007
	POIN2	Tense_008
	POIN2	Tense_009
	POIN2	Tense_010
	POIN2	Tense_011
	POIN2	Tense_012
	POIN2	Tense_013
	POIN2	Tense_014
	POIN2	Tense_015

	
