//Event file generated from Sappy .s format.
	#include "MPlayDef.event"

	#define	song03CE_grp  voicegroup001
	#define	song03CE_pri  0
	#define	song03CE_rev  0
	#define	song03CE_mvl  127
	#define	song03CE_key  0
	#define	song03CE_tbs  1
	#define	song03CE_exg  0
	#define	song03CE_cmp  1

	// .rodata
	//	song03CE
	ALIGN 4


//**************** Track 1 (Midi-Chn.0) ****************//

song03CE_001:
//  #01 //000   ----------------------------------------
 BYTE   KEYSH   song03CE_key+0
Label_014CBA56:
 BYTE   TEMPO   170*song03CE_tbs/2
 BYTE   VOICE   100
 BYTE   PAN   c_v+18
 BYTE   VOL   38*song03CE_mvl/mxv
 BYTE   BEND   c_v+0
 BYTE   W24
 BYTE   N23  Bn3  v100
 BYTE   N24  Bn4  v076
 BYTE   W24
 BYTE   N23  Dn4  v100
 BYTE   W24
 BYTE   Fs4
 BYTE   W24
//  #01 //001   ----------------------------------------
 BYTE   En4
 BYTE   W24
 BYTE   An4
 BYTE   W24
 BYTE   Gn4
 BYTE   W24
 BYTE   Fs4
 BYTE   W24
//  #01 //002   ----------------------------------------
 BYTE   W24
 BYTE   Bn3
 BYTE   W24
 BYTE   Dn4
 BYTE   W24
 BYTE   Fs4
 BYTE   W24
//  #01 //003   ----------------------------------------
 BYTE   Cs4
 BYTE   W24
 BYTE   Dn4
 BYTE   W24
 BYTE   N44  En4
 BYTE   W48
//  #01 //004   ----------------------------------------
 BYTE   W24
 BYTE   N23  Bn3
 BYTE   W24
 BYTE   Fs3
 BYTE   W24
 BYTE   Bn3
 BYTE   W24
//  #01 //005   ----------------------------------------
 BYTE   Cs4
 BYTE   W24
 BYTE   Dn4
 BYTE   W24
 BYTE   An4
 BYTE   W24
 BYTE   Cs5
 BYTE   W24
//  #01 //006   ----------------------------------------
 BYTE   N07  Dn5
 BYTE   W08
 BYTE   Cs5
 BYTE   W08
 BYTE   Bn4
 BYTE   W08
 BYTE   Fs4
 BYTE   W08
 BYTE   En4
 BYTE   W08
 BYTE   Dn4
 BYTE   W08
 BYTE   Cs5
 BYTE   W08
 BYTE   Bn4
 BYTE   W08
 BYTE   An4
 BYTE   W08
 BYTE   En4
 BYTE   W08
 BYTE   Dn4
 BYTE   W08
 BYTE   Cs4
 BYTE   W08
//  #01 //007   ----------------------------------------
 BYTE   Bn3
 BYTE   W08
 BYTE   N07
 BYTE   W08
 BYTE   N07
 BYTE   W08
 BYTE   An3
 BYTE   W08
 BYTE   N07
 BYTE   W08
 BYTE   N07
 BYTE   W08
 BYTE   Gn3
 BYTE   W08
 BYTE   N07
 BYTE   W08
 BYTE   N07
 BYTE   W08
 BYTE   Fs3
 BYTE   W08
 BYTE   N07
 BYTE   W08
 BYTE   N07
 BYTE   W08
//  #01 //008   ----------------------------------------
 BYTE   W24
 BYTE   N23  En3
 BYTE   W24
 BYTE   Gn3
 BYTE   W24
 BYTE   Bn3
 BYTE   W24
//  #01 //009   ----------------------------------------
 BYTE   En4
 BYTE   W24
 BYTE   Gn4
 BYTE   W24
 BYTE   Fs4
 BYTE   W24
 BYTE   Dn4
 BYTE   W24
//  #01 //010   ----------------------------------------
Label_014CBAD5:
 BYTE   W24
 BYTE   N23  Fs4  v100
 BYTE   W24
 BYTE   En4
 BYTE   W24
 BYTE   An4
 BYTE   W24
 BYTE   PEND 
//  #01 //011   ----------------------------------------
 BYTE   Gn4
 BYTE   W24
 BYTE   Bn4
 BYTE   W24
 BYTE   An4
 BYTE   W24
 BYTE   Gn4
 BYTE   W24
//  #01 //012   ----------------------------------------
 BYTE   Fs4
 BYTE   W24
 BYTE   N07  Dn4
 BYTE   W08
 BYTE   N07
 BYTE   W08
 BYTE   N07
 BYTE   W08
 BYTE   N23  Fs4
 BYTE   W24
 BYTE   N07  Dn4
 BYTE   W08
 BYTE   N07
 BYTE   W08
 BYTE   N07
 BYTE   W08
//  #01 //013   ----------------------------------------
 BYTE   N23  An4
 BYTE   W24
 BYTE   N07  En4
 BYTE   W08
 BYTE   N07
 BYTE   W08
 BYTE   N07
 BYTE   W08
 BYTE   N23  Bn4
 BYTE   W24
 BYTE   N07  Fs4
 BYTE   W08
 BYTE   N07
 BYTE   W08
 BYTE   N07
 BYTE   W08
//  #01 //014   ----------------------------------------
 BYTE   Dn5
 BYTE   W08
 BYTE   Cs5
 BYTE   W08
 BYTE   Bn4
 BYTE   W08
 BYTE   Fs5
 BYTE   W08
 BYTE   En5
 BYTE   W08
 BYTE   Dn5
 BYTE   W08
 BYTE   En5
 BYTE   W08
 BYTE   Dn5
 BYTE   W08
 BYTE   Cs5
 BYTE   W08
 BYTE   Bn4
 BYTE   W08
 BYTE   An4
 BYTE   W08
 BYTE   Gn4
 BYTE   W08
//  #01 //015   ----------------------------------------
 BYTE   Fs4
 BYTE   W08
 BYTE   En4
 BYTE   W08
 BYTE   Dn4
 BYTE   W08
 BYTE   En4
 BYTE   W08
 BYTE   Dn4
 BYTE   W08
 BYTE   Cs4
 BYTE   W08
 BYTE   Dn4
 BYTE   W08
 BYTE   En4
 BYTE   W08
 BYTE   An4
 BYTE   W08
 BYTE   Cs5
 BYTE   W08
 BYTE   Bn4
 BYTE   W08
 BYTE   An4
 BYTE   W08
//  #01 //016   ----------------------------------------
 BYTE   W24
 BYTE   N23  En4
 BYTE   W24
 BYTE   Bn3
 BYTE   W24
 BYTE   En4
 BYTE   W24
//  #01 //017   ----------------------------------------
 BYTE   Fs4
 BYTE   W24
 BYTE   Gn4
 BYTE   W24
 BYTE   Fs4
 BYTE   W24
 BYTE   Dn4
 BYTE   W24
//  #01 //018   ----------------------------------------
 BYTE   PATT
  POIN2 Label_014CBAD5
//  #01 //019   ----------------------------------------
 BYTE   N23  Gn4  v100
 BYTE   W24
 BYTE   Bn4
 BYTE   W24
 BYTE   Cs5
 BYTE   W24
 BYTE   Dn5
 BYTE   W24
//  #01 //020   ----------------------------------------
 BYTE   N07
 BYTE   W08
 BYTE   Cs5
 BYTE   W08
 BYTE   Bn4
 BYTE   W08
 BYTE   Dn5
 BYTE   W08
 BYTE   Cs5
 BYTE   W08
 BYTE   Bn4
 BYTE   W08
 BYTE   Cs5
 BYTE   W08
 BYTE   Bn4
 BYTE   W08
 BYTE   An4
 BYTE   W08
 BYTE   Cs5
 BYTE   W08
 BYTE   Bn4
 BYTE   W08
 BYTE   An4
 BYTE   W08
//  #01 //021   ----------------------------------------
 BYTE   Bn4
 BYTE   W08
 BYTE   Cs5
 BYTE   W08
 BYTE   Dn5
 BYTE   W08
 BYTE   Bn4
 BYTE   W08
 BYTE   Cs5
 BYTE   W08
 BYTE   Dn5
 BYTE   W08
 BYTE   Fs5
 BYTE   W08
 BYTE   En5
 BYTE   W08
 BYTE   Dn5
 BYTE   W08
 BYTE   En5
 BYTE   W08
 BYTE   Dn5
 BYTE   W08
 BYTE   Cs5
 BYTE   W08
//  #01 //022   ----------------------------------------
 BYTE   Bn4
 BYTE   W08
 BYTE   Fs4
 BYTE   W08
 BYTE   Dn4
 BYTE   W08
 BYTE   Bn4
 BYTE   W08
 BYTE   Fs4
 BYTE   W08
 BYTE   Dn4
 BYTE   W08
 BYTE   An4
 BYTE   W08
 BYTE   En4
 BYTE   W08
 BYTE   Cs4
 BYTE   W08
 BYTE   An4
 BYTE   W08
 BYTE   En4
 BYTE   W08
 BYTE   Cs4
 BYTE   W08
//  #01 //023   ----------------------------------------
 BYTE   Bn3
 BYTE   N07  Bn4
 BYTE   W16
 BYTE   Bn3
 BYTE   N07  Bn4
 BYTE   W16
 BYTE   Bn3
 BYTE   N07  Bn4
 BYTE   W16
 BYTE   N44  Bn3
 BYTE   N44  Bn4
 BYTE   W48
//  #01 //024   ----------------------------------------
 BYTE   GoTo
  POIN2 Label_014CBA56
//  #01 //025   ----------------------------------------
 BYTE   BEND   c_v+0
 BYTE   FINE

//**************** Track 2 (Midi-Chn.1) ****************//

song03CE_002:
//  #02 //000   ----------------------------------------
 BYTE   KEYSH   song03CE_key+0
Label_01543F36:
 BYTE   VOICE   18
 BYTE   VOL   48*song03CE_mvl/mxv
 BYTE   PAN   c_v+11
 BYTE   BEND   c_v+0
 BYTE   W24
 BYTE   N23  Bn3  v100
 BYTE   W24
 BYTE   Dn4
 BYTE   W24
 BYTE   Fs4
 BYTE   W24
//  #02 //001   ----------------------------------------
 BYTE   En4
 BYTE   W24
 BYTE   An4
 BYTE   W24
 BYTE   Gn4
 BYTE   W24
 BYTE   Fs4
 BYTE   W24
//  #02 //002   ----------------------------------------
 BYTE   W24
 BYTE   Bn3
 BYTE   W24
 BYTE   Dn4
 BYTE   W24
 BYTE   Fs4
 BYTE   W24
//  #02 //003   ----------------------------------------
 BYTE   Cs4
 BYTE   W24
 BYTE   Dn4
 BYTE   W24
 BYTE   N44  En4
 BYTE   W48
//  #02 //004   ----------------------------------------
 BYTE   W24
 BYTE   N23  Bn3
 BYTE   W24
 BYTE   Fs3
 BYTE   W24
 BYTE   Bn3
 BYTE   W24
//  #02 //005   ----------------------------------------
 BYTE   Cs4
 BYTE   W24
 BYTE   Dn4
 BYTE   W24
 BYTE   An4
 BYTE   W24
 BYTE   Cs5
 BYTE   W24
//  #02 //006   ----------------------------------------
 BYTE   N07  Dn5
 BYTE   W08
 BYTE   Cs5
 BYTE   W08
 BYTE   Bn4
 BYTE   W08
 BYTE   Fs4
 BYTE   W08
 BYTE   En4
 BYTE   W08
 BYTE   Dn4
 BYTE   W08
 BYTE   Cs5
 BYTE   W08
 BYTE   Bn4
 BYTE   W08
 BYTE   An4
 BYTE   W08
 BYTE   En4
 BYTE   W08
 BYTE   Dn4
 BYTE   W08
 BYTE   Cs4
 BYTE   W08
//  #02 //007   ----------------------------------------
 BYTE   Bn3
 BYTE   W08
 BYTE   N07
 BYTE   W08
 BYTE   N07
 BYTE   W08
 BYTE   An3
 BYTE   W08
 BYTE   N07
 BYTE   W08
 BYTE   N07
 BYTE   W08
 BYTE   Gn3
 BYTE   W08
 BYTE   N07
 BYTE   W08
 BYTE   N07
 BYTE   W08
 BYTE   Fs3
 BYTE   W08
 BYTE   N07
 BYTE   W08
 BYTE   N07
 BYTE   W08
//  #02 //008   ----------------------------------------
 BYTE   W24
 BYTE   N23  En3
 BYTE   W24
 BYTE   Gn3
 BYTE   W24
 BYTE   Bn3
 BYTE   W24
//  #02 //009   ----------------------------------------
 BYTE   En4
 BYTE   W24
 BYTE   Gn4
 BYTE   W24
 BYTE   Fs4
 BYTE   W24
 BYTE   Dn4
 BYTE   W24
//  #02 //010   ----------------------------------------
Label_01543FAE:
 BYTE   W24
 BYTE   N23  Fs4  v100
 BYTE   W24
 BYTE   En4
 BYTE   W24
 BYTE   An4
 BYTE   W24
 BYTE   PEND 
//  #02 //011   ----------------------------------------
 BYTE   Gn4
 BYTE   W24
 BYTE   Bn4
 BYTE   W24
 BYTE   An4
 BYTE   W24
 BYTE   Gn4
 BYTE   W24
//  #02 //012   ----------------------------------------
 BYTE   Fs4
 BYTE   W24
 BYTE   N07  Dn4
 BYTE   W08
 BYTE   N07
 BYTE   W08
 BYTE   N07
 BYTE   W08
 BYTE   N23  Fs4
 BYTE   W24
 BYTE   N07  Dn4
 BYTE   W08
 BYTE   N07
 BYTE   W08
 BYTE   N07
 BYTE   W08
//  #02 //013   ----------------------------------------
 BYTE   N23  An4
 BYTE   W24
 BYTE   N07  En4
 BYTE   W08
 BYTE   N07
 BYTE   W08
 BYTE   N07
 BYTE   W08
 BYTE   N23  Bn4
 BYTE   W24
 BYTE   N07  Fs4
 BYTE   W08
 BYTE   N07
 BYTE   W08
 BYTE   N07
 BYTE   W08
//  #02 //014   ----------------------------------------
 BYTE   Dn5
 BYTE   W08
 BYTE   Cs5
 BYTE   W08
 BYTE   Bn4
 BYTE   W08
 BYTE   Fs5
 BYTE   W08
 BYTE   En5
 BYTE   W08
 BYTE   Dn5
 BYTE   W08
 BYTE   En5
 BYTE   W08
 BYTE   Dn5
 BYTE   W08
 BYTE   Cs5
 BYTE   W08
 BYTE   Bn4
 BYTE   W08
 BYTE   An4
 BYTE   W08
 BYTE   Gn4
 BYTE   W08
//  #02 //015   ----------------------------------------
 BYTE   Fs4
 BYTE   W08
 BYTE   En4
 BYTE   W08
 BYTE   Dn4
 BYTE   W08
 BYTE   En4
 BYTE   W08
 BYTE   Dn4
 BYTE   W08
 BYTE   Cs4
 BYTE   W08
 BYTE   Dn4
 BYTE   W08
 BYTE   En4
 BYTE   W08
 BYTE   An4
 BYTE   W08
 BYTE   Cs5
 BYTE   W08
 BYTE   Bn4
 BYTE   W08
 BYTE   An4
 BYTE   W08
//  #02 //016   ----------------------------------------
 BYTE   W24
 BYTE   N23  En4
 BYTE   W24
 BYTE   Bn3
 BYTE   W24
 BYTE   En4
 BYTE   W24
//  #02 //017   ----------------------------------------
 BYTE   Fs4
 BYTE   W24
 BYTE   Gn4
 BYTE   W24
 BYTE   Fs4
 BYTE   W24
 BYTE   Dn4
 BYTE   W24
//  #02 //018   ----------------------------------------
 BYTE   PATT
  POIN2 Label_01543FAE
//  #02 //019   ----------------------------------------
 BYTE   N23  Gn4  v100
 BYTE   W24
 BYTE   Bn4
 BYTE   W24
 BYTE   Cs5
 BYTE   W24
 BYTE   Dn5
 BYTE   W24
//  #02 //020   ----------------------------------------
 BYTE   N07
 BYTE   W08
 BYTE   Cs5
 BYTE   W08
 BYTE   Bn4
 BYTE   W08
 BYTE   Dn5
 BYTE   W08
 BYTE   Cs5
 BYTE   W08
 BYTE   Bn4
 BYTE   W08
 BYTE   Cs5
 BYTE   W08
 BYTE   Bn4
 BYTE   W08
 BYTE   An4
 BYTE   W08
 BYTE   Cs5
 BYTE   W08
 BYTE   Bn4
 BYTE   W08
 BYTE   An4
 BYTE   W08
//  #02 //021   ----------------------------------------
 BYTE   Bn4
 BYTE   W08
 BYTE   Cs5
 BYTE   W08
 BYTE   Dn5
 BYTE   W08
 BYTE   Bn4
 BYTE   W08
 BYTE   Cs5
 BYTE   W08
 BYTE   Dn5
 BYTE   W08
 BYTE   Fs5
 BYTE   W08
 BYTE   En5
 BYTE   W08
 BYTE   Dn5
 BYTE   W08
 BYTE   En5
 BYTE   W08
 BYTE   Dn5
 BYTE   W08
 BYTE   Cs5
 BYTE   W08
//  #02 //022   ----------------------------------------
 BYTE   Bn4
 BYTE   W08
 BYTE   Fs4
 BYTE   W08
 BYTE   Dn4
 BYTE   W08
 BYTE   Bn4
 BYTE   W08
 BYTE   Fs4
 BYTE   W08
 BYTE   Dn4
 BYTE   W08
 BYTE   An4
 BYTE   W08
 BYTE   En4
 BYTE   W08
 BYTE   Cs4
 BYTE   W08
 BYTE   An4
 BYTE   W08
 BYTE   En4
 BYTE   W08
 BYTE   Cs4
 BYTE   W08
//  #02 //023   ----------------------------------------
 BYTE   Bn3
 BYTE   N07  Bn4
 BYTE   W16
 BYTE   Bn3
 BYTE   N07  Bn4
 BYTE   W16
 BYTE   Bn3
 BYTE   N07  Bn4
 BYTE   W16
 BYTE   N44  Bn3
 BYTE   N44  Bn4
 BYTE   W48
//  #02 //024   ----------------------------------------
 BYTE   GoTo
  POIN2 Label_01543F36
//  #02 //025   ----------------------------------------
 BYTE   VOICE   18
 BYTE   BEND   c_v+0
 BYTE   FINE

//**************** Track 3 (Midi-Chn.2) ****************//

song03CE_003:
//  #03 //000   ----------------------------------------
 BYTE   KEYSH   song03CE_key+0
Label_0154409E:
 BYTE   VOICE   63
 BYTE   PAN   c_v-11
 BYTE   VOL   25*song03CE_mvl/mxv
 BYTE   BEND   c_v+0
 BYTE   TIE  Bn1  v100
 BYTE   TIE  Bn2
 BYTE   W96
//  #03 //001   ----------------------------------------
 BYTE   W92
 BYTE   W03
 BYTE   EOT
 BYTE   Bn1  v059
 BYTE   W01
//  #03 //002   ----------------------------------------
Label_015440B2:
 BYTE   TIE  Bn1  v100
 BYTE   TIE  Bn2
 BYTE   W96
 BYTE   PEND 
//  #03 //003   ----------------------------------------
 BYTE   W92
 BYTE   W03
 BYTE   EOT
 BYTE   Bn1  v059
 BYTE   W01
//  #03 //004   ----------------------------------------
 BYTE   PATT
  POIN2 Label_015440B2
//  #03 //005   ----------------------------------------
 BYTE   W92
 BYTE   W03
 BYTE   EOT
 BYTE   Bn1  v059
 BYTE   W01
//  #03 //006   ----------------------------------------
 BYTE   N92  An1  v100
 BYTE   N92  An2
 BYTE   W96
//  #03 //007   ----------------------------------------
 BYTE   Bn1
 BYTE   N92  Bn2
 BYTE   W96
//  #03 //008   ----------------------------------------
Label_015440D4:
 BYTE   TIE  En1  v100
 BYTE   TIE  En2
 BYTE   W96
 BYTE   PEND 
//  #03 //009   ----------------------------------------
 BYTE   W92
 BYTE   W03
 BYTE   EOT
 BYTE   En1  v052
 BYTE   W01
//  #03 //010   ----------------------------------------
 BYTE   PATT
  POIN2 Label_015440D4
//  #03 //011   ----------------------------------------
 BYTE   W92
 BYTE   W03
 BYTE   EOT
 BYTE   En1  v052
 BYTE   W01
//  #03 //012   ----------------------------------------
 BYTE   N92  Bn1  v100
 BYTE   N92  Bn2
 BYTE   W96
//  #03 //013   ----------------------------------------
 BYTE   An1
 BYTE   N92  An2
 BYTE   W96
//  #03 //014   ----------------------------------------
 BYTE   Gn1
 BYTE   N92  Gn2
 BYTE   W96
//  #03 //015   ----------------------------------------
 BYTE   Fs1
 BYTE   N92  Fs2
 BYTE   W96
//  #03 //016   ----------------------------------------
 BYTE   PATT
  POIN2 Label_015440D4
//  #03 //017   ----------------------------------------
 BYTE   W92
 BYTE   W03
 BYTE   EOT
 BYTE   En1  v052
 BYTE   W01
//  #03 //018   ----------------------------------------
 BYTE   PATT
  POIN2 Label_015440D4
//  #03 //019   ----------------------------------------
 BYTE   W92
 BYTE   W03
 BYTE   EOT
 BYTE   En1  v052
 BYTE   W01
//  #03 //020   ----------------------------------------
 BYTE   N92  Bn1  v100
 BYTE   N92  Bn2
 BYTE   W96
//  #03 //021   ----------------------------------------
 BYTE   An1
 BYTE   N92  An2
 BYTE   W96
//  #03 //022   ----------------------------------------
 BYTE   N44  Gn1
 BYTE   N44  Gn2
 BYTE   W48
 BYTE   An1
 BYTE   N44  An2
 BYTE   W48
//  #03 //023   ----------------------------------------
 BYTE   N92  Bn1
 BYTE   N92  Bn2
 BYTE   W96
//  #03 //024   ----------------------------------------
 BYTE   GoTo
  POIN2 Label_0154409E
//  #03 //025   ----------------------------------------
 BYTE   VOICE   63
 BYTE   BEND   c_v+0
 BYTE   FINE

//**************** Track 4 (Midi-Chn.3) ****************//

song03CE_004:
//  #04 //000   ----------------------------------------
 BYTE   KEYSH   song03CE_key+0
Label_0154413A:
 BYTE   VOICE   49
 BYTE   PAN   c_v-5
 BYTE   VOL   37*song03CE_mvl/mxv
 BYTE   BEND   c_v+0
 BYTE   N07  Bn1  v100
 BYTE   N07  Bn2
 BYTE   W08
 BYTE   Bn1
 BYTE   N07  Bn2
 BYTE   W08
 BYTE   Bn1
 BYTE   N07  Bn2
 BYTE   W08
 BYTE   N15  Bn1
 BYTE   N15  Bn2
 BYTE   W16
 BYTE   N07  Bn1
 BYTE   N07  Bn2
 BYTE   W08
 BYTE   Bn1
 BYTE   N07  Bn2
 BYTE   W08
 BYTE   Bn1
 BYTE   N07  Bn2
 BYTE   W08
 BYTE   Bn1
 BYTE   N07  Bn2
 BYTE   W08
 BYTE   N15  Bn1
 BYTE   N15  Bn2
 BYTE   W16
 BYTE   N07  Bn1
 BYTE   N07  Bn2
 BYTE   W08
//  #04 //001   ----------------------------------------
Label_01544170:
 BYTE   N07  Bn1  v100
 BYTE   N07  Bn2
 BYTE   W08
 BYTE   Bn1
 BYTE   N07  Bn2
 BYTE   W08
 BYTE   Bn1
 BYTE   N07  Bn2
 BYTE   W08
 BYTE   N15  Bn1
 BYTE   N15  Bn2
 BYTE   W16
 BYTE   N07  Bn1
 BYTE   N07  Bn2
 BYTE   W08
 BYTE   Bn1
 BYTE   N07  Bn2
 BYTE   W08
 BYTE   Bn1
 BYTE   N07  Bn2
 BYTE   W08
 BYTE   Bn1
 BYTE   N07  Bn2
 BYTE   W08
 BYTE   N15  Bn1
 BYTE   N15  Bn2
 BYTE   W16
 BYTE   N07  Bn1
 BYTE   N07  Bn2
 BYTE   W08
 BYTE   PEND 
//  #04 //002   ----------------------------------------
 BYTE   PATT
  POIN2 Label_01544170
//  #04 //003   ----------------------------------------
 BYTE   PATT
  POIN2 Label_01544170
//  #04 //004   ----------------------------------------
 BYTE   PATT
  POIN2 Label_01544170
//  #04 //005   ----------------------------------------
 BYTE   PATT
  POIN2 Label_01544170
//  #04 //006   ----------------------------------------
Label_015441B3:
 BYTE   N07  An1  v100
 BYTE   N07  An2
 BYTE   W08
 BYTE   An1
 BYTE   N07  An2
 BYTE   W08
 BYTE   An1
 BYTE   N07  An2
 BYTE   W08
 BYTE   N15  An1
 BYTE   N15  An2
 BYTE   W16
 BYTE   N07  An1
 BYTE   N07  An2
 BYTE   W08
 BYTE   An1
 BYTE   N07  An2
 BYTE   W08
 BYTE   An1
 BYTE   N07  An2
 BYTE   W08
 BYTE   An1
 BYTE   N07  An2
 BYTE   W08
 BYTE   N15  An1
 BYTE   N15  An2
 BYTE   W16
 BYTE   N07  An1
 BYTE   N07  An2
 BYTE   W08
 BYTE   PEND 
//  #04 //007   ----------------------------------------
 BYTE   PATT
  POIN2 Label_01544170
//  #04 //008   ----------------------------------------
Label_015441E7:
 BYTE   N07  En1  v100
 BYTE   N07  En2
 BYTE   W08
 BYTE   En1
 BYTE   N07  En2
 BYTE   W08
 BYTE   En1
 BYTE   N07  En2
 BYTE   W08
 BYTE   N15  En1
 BYTE   N15  En2
 BYTE   W16
 BYTE   N07  En1
 BYTE   N07  En2
 BYTE   W08
 BYTE   En1
 BYTE   N07  En2
 BYTE   W08
 BYTE   En1
 BYTE   N07  En2
 BYTE   W08
 BYTE   En1
 BYTE   N07  En2
 BYTE   W08
 BYTE   N15  En1
 BYTE   N15  En2
 BYTE   W16
 BYTE   N07  En1
 BYTE   N07  En2
 BYTE   W08
 BYTE   PEND 
//  #04 //009   ----------------------------------------
 BYTE   PATT
  POIN2 Label_015441E7
//  #04 //010   ----------------------------------------
 BYTE   PATT
  POIN2 Label_015441E7
//  #04 //011   ----------------------------------------
 BYTE   PATT
  POIN2 Label_015441E7
//  #04 //012   ----------------------------------------
 BYTE   PATT
  POIN2 Label_01544170
//  #04 //013   ----------------------------------------
 BYTE   PATT
  POIN2 Label_015441B3
//  #04 //014   ----------------------------------------
 BYTE   N07  Gn1  v100
 BYTE   N07  Gn2
 BYTE   W08
 BYTE   Gn1
 BYTE   N07  Gn2
 BYTE   W08
 BYTE   Gn1
 BYTE   N07  Gn2
 BYTE   W08
 BYTE   N15  Gn1
 BYTE   N15  Gn2
 BYTE   W16
 BYTE   N07  Gn1
 BYTE   N07  Gn2
 BYTE   W08
 BYTE   Gn1
 BYTE   N07  Gn2
 BYTE   W08
 BYTE   Gn1
 BYTE   N07  Gn2
 BYTE   W08
 BYTE   Gn1
 BYTE   N07  Gn2
 BYTE   W08
 BYTE   N15  Gn1
 BYTE   N15  Gn2
 BYTE   W16
 BYTE   N07  Gn1
 BYTE   N07  Gn2
 BYTE   W08
//  #04 //015   ----------------------------------------
 BYTE   Fs1
 BYTE   N07  Fs2
 BYTE   W08
 BYTE   Fs1
 BYTE   N07  Fs2
 BYTE   W08
 BYTE   Fs1
 BYTE   N07  Fs2
 BYTE   W08
 BYTE   N15  Fs1
 BYTE   N15  Fs2
 BYTE   W16
 BYTE   N07  Fs1
 BYTE   N07  Fs2
 BYTE   W08
 BYTE   Fs1
 BYTE   N07  Fs2
 BYTE   W08
 BYTE   Fs1
 BYTE   N07  Fs2
 BYTE   W08
 BYTE   Fs1
 BYTE   N07  Fs2
 BYTE   W08
 BYTE   N15  Fs1
 BYTE   N15  Fs2
 BYTE   W16
 BYTE   N07  Fs1
 BYTE   N07  Fs2
 BYTE   W08
//  #04 //016   ----------------------------------------
 BYTE   PATT
  POIN2 Label_015441E7
//  #04 //017   ----------------------------------------
 BYTE   PATT
  POIN2 Label_015441E7
//  #04 //018   ----------------------------------------
 BYTE   PATT
  POIN2 Label_015441E7
//  #04 //019   ----------------------------------------
 BYTE   PATT
  POIN2 Label_015441E7
//  #04 //020   ----------------------------------------
 BYTE   PATT
  POIN2 Label_01544170
//  #04 //021   ----------------------------------------
 BYTE   PATT
  POIN2 Label_015441B3
//  #04 //022   ----------------------------------------
 BYTE   N07  Gn1  v100
 BYTE   N07  Gn2
 BYTE   W08
 BYTE   Gn1
 BYTE   N07  Gn2
 BYTE   W08
 BYTE   Gn1
 BYTE   N07  Gn2
 BYTE   W08
 BYTE   N15  Gn1
 BYTE   N15  Gn2
 BYTE   W16
 BYTE   N07  Gn1
 BYTE   N07  Gn2
 BYTE   W08
 BYTE   An1
 BYTE   N07  An2
 BYTE   W08
 BYTE   An1
 BYTE   N07  An2
 BYTE   W08
 BYTE   An1
 BYTE   N07  An2
 BYTE   W08
 BYTE   N15  An1
 BYTE   N15  An2
 BYTE   W16
 BYTE   N07  An1
 BYTE   N07  An2
 BYTE   W08
//  #04 //023   ----------------------------------------
 BYTE   Bn1
 BYTE   N07  Bn2
 BYTE   W08
 BYTE   Bn1
 BYTE   N07  Bn2
 BYTE   W08
 BYTE   Bn1
 BYTE   N07  Bn2
 BYTE   W08
 BYTE   Bn1
 BYTE   N07  Bn2
 BYTE   W08
 BYTE   Bn1
 BYTE   N07  Bn2
 BYTE   W08
 BYTE   Bn1
 BYTE   N07  Bn2
 BYTE   W08
 BYTE   N44  Bn1
 BYTE   N44  Bn2
 BYTE   W48
//  #04 //024   ----------------------------------------
 BYTE   GoTo
  POIN2 Label_0154413A
//  #04 //025   ----------------------------------------
 BYTE   BEND   c_v+0
 BYTE   FINE

//**************** Track 5 (Midi-Chn.4) ****************//

song03CE_005:
//  #05 //000   ----------------------------------------
 BYTE   KEYSH   song03CE_key+0
Label_015442FE:
 BYTE   VOICE   127
 BYTE   PAN   c_v+0
 BYTE   VOL   37*song03CE_mvl/mxv
 BYTE   BEND   c_v+0
 BYTE   N23  Cn1  v100
 BYTE   W16
 BYTE   N07  Fs1
 BYTE   W08
 BYTE   N23  Cn1
 BYTE   N07  Dn1
 BYTE   W16
 BYTE   Fs1
 BYTE   W08
 BYTE   N23  Cn1
 BYTE   W16
 BYTE   N07  Fs1
 BYTE   W08
 BYTE   Cn1
 BYTE   N07  Dn1
 BYTE   W08
 BYTE   Cn1
 BYTE   W08
 BYTE   N07
 BYTE   N07  Fs1
 BYTE   W08
//  #05 //001   ----------------------------------------
Label_01544324:
 BYTE   N23  Cn1  v100
 BYTE   W16
 BYTE   N07  Fs1
 BYTE   W08
 BYTE   N23  Cn1
 BYTE   N07  Dn1
 BYTE   W16
 BYTE   Fs1
 BYTE   W08
 BYTE   N23  Cn1
 BYTE   W16
 BYTE   N07  Fs1
 BYTE   W08
 BYTE   Cn1
 BYTE   N07  Ds1
 BYTE   W08
 BYTE   Cn1
 BYTE   N07  Dn1
 BYTE   W08
 BYTE   Cn1
 BYTE   N07  Fs1
 BYTE   W08
 BYTE   PEND 
//  #05 //002   ----------------------------------------
Label_01544345:
 BYTE   N23  Cn1  v100
 BYTE   W16
 BYTE   N07  Fs1
 BYTE   W08
 BYTE   N23  Cn1
 BYTE   N07  Dn1
 BYTE   W16
 BYTE   Fs1
 BYTE   W08
 BYTE   N23  Cn1
 BYTE   W16
 BYTE   N07  Fs1
 BYTE   W08
 BYTE   Cn1
 BYTE   N07  Dn1
 BYTE   W08
 BYTE   Cn1
 BYTE   W08
 BYTE   N07
 BYTE   N07  Fs1
 BYTE   W08
 BYTE   PEND 
//  #05 //003   ----------------------------------------
Label_01544364:
 BYTE   N23  Cn1  v100
 BYTE   W16
 BYTE   N07  Fs1
 BYTE   W08
 BYTE   N23  Cn1
 BYTE   N07  Dn1
 BYTE   W16
 BYTE   Fs1
 BYTE   W08
 BYTE   N23  Cn1
 BYTE   N07  Ds1
 BYTE   W08
 BYTE   Dn1
 BYTE   W08
 BYTE   Fs1
 BYTE   W08
 BYTE   Cn1
 BYTE   N23  Ds1
 BYTE   W08
 BYTE   N07  Cn1
 BYTE   W08
 BYTE   N07
 BYTE   N07  Fs1
 BYTE   W08
 BYTE   PEND 
//  #05 //004   ----------------------------------------
 BYTE   PATT
  POIN2 Label_01544345
//  #05 //005   ----------------------------------------
 BYTE   PATT
  POIN2 Label_01544324
//  #05 //006   ----------------------------------------
 BYTE   PATT
  POIN2 Label_01544345
//  #05 //007   ----------------------------------------
 BYTE   N07  Cn1  v100
 BYTE   N07  Dn1
 BYTE   W08
 BYTE   Cn1
 BYTE   W08
 BYTE   N07
 BYTE   N07  Fs1
 BYTE   W08
 BYTE   N23  Cn1
 BYTE   N07  Dn1
 BYTE   W16
 BYTE   Fs1
 BYTE   W08
 BYTE   Cn1
 BYTE   N07  Ds1
 BYTE   W08
 BYTE   Cn1
 BYTE   N07  Dn1
 BYTE   W08
 BYTE   Cn1
 BYTE   N07  Fs1
 BYTE   W08
 BYTE   Cn1
 BYTE   N07  Dn1
 BYTE   W08
 BYTE   Cn1
 BYTE   N07  Dn1
 BYTE   W08
 BYTE   Cn1
 BYTE   N07  Dn1
 BYTE   N07  Fs1
 BYTE   W08
//  #05 //008   ----------------------------------------
Label_015443C3:
 BYTE   N23  Cn1  v100
 BYTE   W16
 BYTE   N07  Fs1
 BYTE   W08
 BYTE   N23  Cn1
 BYTE   N07  Dn1
 BYTE   W16
 BYTE   Fs1
 BYTE   W08
 BYTE   N23  Cn1
 BYTE   W16
 BYTE   N07  Fs1
 BYTE   W08
 BYTE   N23  Cn1
 BYTE   N07  Dn1
 BYTE   W16
 BYTE   Fs1
 BYTE   W08
 BYTE   PEND 
//  #05 //009   ----------------------------------------
 BYTE   PATT
  POIN2 Label_01544324
//  #05 //010   ----------------------------------------
 BYTE   PATT
  POIN2 Label_015443C3
//  #05 //011   ----------------------------------------
 BYTE   PATT
  POIN2 Label_01544364
//  #05 //012   ----------------------------------------
 BYTE   PATT
  POIN2 Label_01544345
//  #05 //013   ----------------------------------------
 BYTE   PATT
  POIN2 Label_01544324
//  #05 //014   ----------------------------------------
 BYTE   PATT
  POIN2 Label_01544345
//  #05 //015   ----------------------------------------
 BYTE   N07  Cn1  v100
 BYTE   N07  Dn1
 BYTE   W08
 BYTE   Cn1
 BYTE   N07  Dn1
 BYTE   W08
 BYTE   Cn1
 BYTE   N07  Dn1
 BYTE   N07  Fs1
 BYTE   W08
 BYTE   N23  Cn1
 BYTE   N07  Ds1
 BYTE   W08
 BYTE   Dn1
 BYTE   W08
 BYTE   N07
 BYTE   N07  Fs1
 BYTE   W08
 BYTE   Cn1
 BYTE   N07  Ds1
 BYTE   W08
 BYTE   Cn1
 BYTE   N07  Dn1
 BYTE   W08
 BYTE   Cn1
 BYTE   N07  Dn1
 BYTE   N07  Fs1
 BYTE   W08
 BYTE   Cn1
 BYTE   N07  Ds1
 BYTE   W08
 BYTE   Cn1
 BYTE   N07  Dn1
 BYTE   W08
 BYTE   Cn1
 BYTE   N07  Ds1
 BYTE   N07  Fs1
 BYTE   W08
//  #05 //016   ----------------------------------------
 BYTE   PATT
  POIN2 Label_015443C3
//  #05 //017   ----------------------------------------
 BYTE   PATT
  POIN2 Label_01544324
//  #05 //018   ----------------------------------------
 BYTE   PATT
  POIN2 Label_015443C3
//  #05 //019   ----------------------------------------
 BYTE   PATT
  POIN2 Label_01544364
//  #05 //020   ----------------------------------------
 BYTE   PATT
  POIN2 Label_01544345
//  #05 //021   ----------------------------------------
 BYTE   PATT
  POIN2 Label_01544324
//  #05 //022   ----------------------------------------
 BYTE   PATT
  POIN2 Label_01544345
//  #05 //023   ----------------------------------------
 BYTE   N23  Cn1  v100
 BYTE   N07  Dn1
 BYTE   W08
 BYTE   N07
 BYTE   W08
 BYTE   N07
 BYTE   N07  Fs1
 BYTE   W08
 BYTE   N23  Cn1
 BYTE   N07  Ds1
 BYTE   W08
 BYTE   Dn1
 BYTE   W08
 BYTE   N07
 BYTE   N07  Fs1
 BYTE   W08
 BYTE   N23  Cn1
 BYTE   N15  Ds1
 BYTE   W16
 BYTE   N07  Dn1
 BYTE   N07  Fs1
 BYTE   W08
 BYTE   N23  Ds1
 BYTE   W24
//  #05 //024   ----------------------------------------
 BYTE   GoTo
  POIN2 Label_015442FE
//  #05 //025   ----------------------------------------
 BYTE   BEND   c_v+0
 BYTE   FINE

//**************** Track 6 (Midi-Chn.5) ****************//

song03CE_006:
//  #06 //000   ----------------------------------------
 BYTE   KEYSH   song03CE_key+0
Label_01544486:
 BYTE   VOICE   52
 BYTE   VOL   20*song03CE_mvl/mxv
 BYTE   PAN   c_v-17
 BYTE   BEND   c_v+0
 BYTE   TIE  Bn1  v104
 BYTE   TIE  Bn2  v124
 BYTE   W96
//  #06 //001   ----------------------------------------
 BYTE   W92
 BYTE   W03
 BYTE   EOT
 BYTE   Bn1  v059
 BYTE   W01
//  #06 //002   ----------------------------------------
Label_0154449B:
 BYTE   TIE  Bn1  v100
 BYTE   TIE  Bn2
 BYTE   W96
 BYTE   PEND 
//  #06 //003   ----------------------------------------
 BYTE   W92
 BYTE   W03
 BYTE   EOT
 BYTE   Bn1  v059
 BYTE   W01
//  #06 //004   ----------------------------------------
 BYTE   PATT
  POIN2 Label_0154449B
//  #06 //005   ----------------------------------------
 BYTE   W92
 BYTE   W03
 BYTE   EOT
 BYTE   Bn1  v059
 BYTE   W01
//  #06 //006   ----------------------------------------
 BYTE   N92  An1  v100
 BYTE   N92  An2
 BYTE   W96
//  #06 //007   ----------------------------------------
 BYTE   Bn1
 BYTE   N92  Bn2
 BYTE   W96
//  #06 //008   ----------------------------------------
Label_015444BD:
 BYTE   TIE  En1  v100
 BYTE   TIE  En2
 BYTE   W96
 BYTE   PEND 
//  #06 //009   ----------------------------------------
 BYTE   W92
 BYTE   W03
 BYTE   EOT
 BYTE   En1  v052
 BYTE   W01
//  #06 //010   ----------------------------------------
 BYTE   PATT
  POIN2 Label_015444BD
//  #06 //011   ----------------------------------------
 BYTE   W92
 BYTE   W03
 BYTE   EOT
 BYTE   En1  v052
 BYTE   W01
//  #06 //012   ----------------------------------------
 BYTE   N92  Bn1  v100
 BYTE   N92  Bn2
 BYTE   W96
//  #06 //013   ----------------------------------------
 BYTE   An1
 BYTE   N92  An2
 BYTE   W96
//  #06 //014   ----------------------------------------
 BYTE   Gn1
 BYTE   N92  Gn2
 BYTE   W96
//  #06 //015   ----------------------------------------
 BYTE   Fs1
 BYTE   N92  Fs2
 BYTE   W96
//  #06 //016   ----------------------------------------
 BYTE   PATT
  POIN2 Label_015444BD
//  #06 //017   ----------------------------------------
 BYTE   W92
 BYTE   W03
 BYTE   EOT
 BYTE   En1  v052
 BYTE   W01
//  #06 //018   ----------------------------------------
 BYTE   PATT
  POIN2 Label_015444BD
//  #06 //019   ----------------------------------------
 BYTE   W92
 BYTE   W03
 BYTE   EOT
 BYTE   En1  v052
 BYTE   W01
//  #06 //020   ----------------------------------------
 BYTE   N92  Bn1  v100
 BYTE   N92  Bn2
 BYTE   W96
//  #06 //021   ----------------------------------------
 BYTE   An1
 BYTE   N92  An2
 BYTE   W96
//  #06 //022   ----------------------------------------
 BYTE   N44  Gn1
 BYTE   N44  Gn2
 BYTE   W48
 BYTE   An1
 BYTE   N44  An2
 BYTE   W48
//  #06 //023   ----------------------------------------
 BYTE   N92  Bn1
 BYTE   N92  Bn2
 BYTE   W96
//  #06 //024   ----------------------------------------
 BYTE   GoTo
  POIN2 Label_01544486
//  #06 //025   ----------------------------------------
 BYTE   BEND   c_v+0
 BYTE   FINE

//**************** Track 7 (Midi-Chn.6) ****************//

song03CE_007:
//  #07 //000   ----------------------------------------
 BYTE   KEYSH   song03CE_key+0
Label_014CB7A2:
 BYTE   VOICE   14
 BYTE   PAN   c_v+43
 BYTE   VOL   47*song03CE_mvl/mxv
 BYTE   BEND   c_v+0
 BYTE   N96  Bn1  v064
 BYTE   N96  Gn2
 BYTE   TIE  Bn2  v127
 BYTE   W96
//  #07 //001   ----------------------------------------
 BYTE   W92
 BYTE   W03
 BYTE   EOT
 BYTE   W01
//  #07 //002   ----------------------------------------
 BYTE   TIE  Bn2  v100
 BYTE   W96
//  #07 //003   ----------------------------------------
 BYTE   W92
 BYTE   W03
 BYTE   EOT
 BYTE   W01
//  #07 //004   ----------------------------------------
 BYTE   TIE
 BYTE   W96
//  #07 //005   ----------------------------------------
 BYTE   W92
 BYTE   W03
 BYTE   EOT
 BYTE   W01
//  #07 //006   ----------------------------------------
 BYTE   N92  An2
 BYTE   W96
//  #07 //007   ----------------------------------------
 BYTE   Bn2
 BYTE   W96
//  #07 //008   ----------------------------------------
 BYTE   TIE  En2
 BYTE   W96
//  #07 //009   ----------------------------------------
 BYTE   W92
 BYTE   W03
 BYTE   EOT
 BYTE   W01
//  #07 //010   ----------------------------------------
 BYTE   TIE
 BYTE   W96
//  #07 //011   ----------------------------------------
 BYTE   W92
 BYTE   W03
 BYTE   EOT
 BYTE   W01
//  #07 //012   ----------------------------------------
 BYTE   N92  Bn2
 BYTE   W96
//  #07 //013   ----------------------------------------
 BYTE   An2
 BYTE   W96
//  #07 //014   ----------------------------------------
 BYTE   Gn2
 BYTE   W96
//  #07 //015   ----------------------------------------
 BYTE   Fs2
 BYTE   W96
//  #07 //016   ----------------------------------------
 BYTE   TIE  En2
 BYTE   W96
//  #07 //017   ----------------------------------------
 BYTE   W92
 BYTE   W03
 BYTE   EOT
 BYTE   W01
//  #07 //018   ----------------------------------------
 BYTE   TIE
 BYTE   W96
//  #07 //019   ----------------------------------------
 BYTE   W92
 BYTE   W03
 BYTE   EOT
 BYTE   W01
//  #07 //020   ----------------------------------------
 BYTE   N92  Bn2
 BYTE   W96
//  #07 //021   ----------------------------------------
 BYTE   An2
 BYTE   W96
//  #07 //022   ----------------------------------------
 BYTE   N44  Gn2
 BYTE   W48
 BYTE   An2
 BYTE   W48
//  #07 //023   ----------------------------------------
 BYTE   N92  Bn2
 BYTE   W96
//  #07 //024   ----------------------------------------
 BYTE   GoTo
  POIN2 Label_014CB7A2
//  #07 //025   ----------------------------------------
 BYTE   BEND   c_v+0
 BYTE   FINE

//******************************************************//
	ALIGN 4

song03CE:
	BYTE	7	// NumTrks
	BYTE	0	// NumBlks
	BYTE	song03CE_pri	// Priority
	BYTE	song03CE_rev	// Reverb.
    
	POIN2	song03CE_grp
    
	POIN2	song03CE_001
	POIN2	song03CE_002
	POIN2	song03CE_003
	POIN2	song03CE_004
	POIN2	song03CE_005
	POIN2	song03CE_006
	POIN2	song03CE_007

	
