//Event file generated from Sappy .s format.
	#include "MPlayDef.event"

	#define	song3D_grp  voicegroup001
	#define	song3D_pri  0
	#define	song3D_rev  0
	#define	song3D_mvl  127
	#define	song3D_key  0
	#define	song3D_tbs  1
	#define	song3D_exg  0
	#define	song3D_cmp  1

	// .rodata
	//	song3D
	ALIGN 4


//**************** Track 1 (Midi-Chn.0) ****************//

song3D_001:
// 000   ----------------------------------------
 BYTE   KEYSH   song3D_key+0
Label_0_014A9C62:
 BYTE   TEMPO   64*song3D_tbs/2
 BYTE   VOICE   68
 BYTE   VOL   62*song3D_mvl/mxv
 BYTE   PAN   c_v+0
 BYTE   W96
// 001   ----------------------------------------
 BYTE   W96
// 002   ----------------------------------------
 BYTE   W66
 BYTE   N05  Dn3  v080
 BYTE   W06
 BYTE   En3
 BYTE   W06
 BYTE   Fs3
 BYTE   W06
 BYTE   Gn3
 BYTE   W06
 BYTE   An3
 BYTE   W06
// 003   ----------------------------------------
Label_0_014A9C79:
 BYTE   N32  Cn4  v080
 BYTE   W36
 BYTE   N17  Bn3
 BYTE   W18
 BYTE   N05
 BYTE   W06
 BYTE   Fs3
 BYTE   W06
 BYTE   Gn3
 BYTE   W06
 BYTE   N64  An3
 BYTE   W24
 BYTE   PEND 
// 004   ----------------------------------------
 BYTE   W42
 BYTE   N02
 BYTE   W03
 BYTE   Bn3
 BYTE   W03
 BYTE   N40  Cn4
 BYTE   W42
 BYTE   N05  Bn3
 BYTE   W06
// 005   ----------------------------------------
 BYTE   Dn4
 BYTE   W06
 BYTE   Cn4
 BYTE   W06
 BYTE   Bn3
 BYTE   W06
 BYTE   An3
 BYTE   W06
 BYTE   N32  Bn3
 BYTE   W42
 BYTE   N05  En3
 BYTE   W06
 BYTE   Fs3
 BYTE   W06
 BYTE   Gn3
 BYTE   W06
 BYTE   An3
 BYTE   W06
 BYTE   Bn3
 BYTE   W06
// 006   ----------------------------------------
 BYTE   PATT
  POIN2 Label_0_014A9C79
// 007   ----------------------------------------
 BYTE   W42
 BYTE   N02  An3  v080
 BYTE   W03
 BYTE   Bn3
 BYTE   W03
 BYTE   N44  Cn4
 BYTE   W48
// 008   ----------------------------------------
 BYTE   W06
 BYTE   N05  Bn3
 BYTE   W06
 BYTE   An3
 BYTE   W06
 BYTE   Gn3
 BYTE   W06
 BYTE   N68  Fs3
 BYTE   W72
// 009   ----------------------------------------
 BYTE   W06
 BYTE   N05  En4
 BYTE   W06
 BYTE   Dn4
 BYTE   W06
 BYTE   Cn4
 BYTE   W06
 BYTE   Bn3
 BYTE   W06
 BYTE   An3
 BYTE   W06
 BYTE   N23  Bn3
 BYTE   W24
 BYTE   N11  An3
 BYTE   W12
 BYTE   N68  Dn3
 BYTE   W24
// 010   ----------------------------------------
 BYTE   W54
 BYTE   N05  Fn4
 BYTE   W06
 BYTE   En4
 BYTE   W06
 BYTE   Dn4
 BYTE   W06
 BYTE   Cn4
 BYTE   W06
 BYTE   Bn3
 BYTE   W06
 BYTE   N23  Cn4
 BYTE   W12
// 011   ----------------------------------------
 BYTE   W12
 BYTE   N11  Bn3
 BYTE   W12
 BYTE   N52  En3
 BYTE   W60
 BYTE   N05
 BYTE   W06
 BYTE   Fs3
 BYTE   W06
// 012   ----------------------------------------
 BYTE   Gn3
 BYTE   W06
 BYTE   An3
 BYTE   W06
 BYTE   N17  As3
 BYTE   W18
 BYTE   N05  An3
 BYTE   W06
 BYTE   N17  Cn4
 BYTE   W18
 BYTE   N05  As3
 BYTE   W06
 BYTE   Fn4
 BYTE   W06
 BYTE   Ds4
 BYTE   W06
 BYTE   N44  Dn4
 BYTE   W24
// 013   ----------------------------------------
 BYTE   W36
 BYTE   N11
 BYTE   W12
 BYTE   Cs4
 BYTE   W12
 BYTE   N05
 BYTE   W06
 BYTE   Cn4
 BYTE   W06
 BYTE   Cs4
 BYTE   W06
 BYTE   N23  Gn4
 BYTE   W18
// 014   ----------------------------------------
 BYTE   W06
 BYTE   N05
 BYTE   W06
 BYTE   An4
 BYTE   W06
 BYTE   Gn4
 BYTE   W06
 BYTE   N32
 BYTE   W36
 BYTE   N56  Fs4
 BYTE   W36
// 015   ----------------------------------------
 BYTE   W36
 BYTE   GoTo
  POIN2 Label_0_014A9C62
 BYTE   FINE

//**************** Track 2 (Midi-Chn.1) ****************//

song3D_002:
// 000   ----------------------------------------
 BYTE   KEYSH   song3D_key+0
Label_1_014A9D2E:
 BYTE   VOICE   73
 BYTE   VOL   62*song3D_mvl/mxv
 BYTE   PAN   c_v+0
 BYTE   W96
// 001   ----------------------------------------
 BYTE   W96
// 002   ----------------------------------------
 BYTE   W96
// 003   ----------------------------------------
 BYTE   W96
// 004   ----------------------------------------
 BYTE   W96
// 005   ----------------------------------------
 BYTE   W96
// 006   ----------------------------------------
 BYTE   W96
// 007   ----------------------------------------
 BYTE   W96
// 008   ----------------------------------------
 BYTE   W96
// 009   ----------------------------------------
 BYTE   W96
// 010   ----------------------------------------
 BYTE   W96
// 011   ----------------------------------------
 BYTE   W96
// 012   ----------------------------------------
 BYTE   W96
// 013   ----------------------------------------
 BYTE   W36
 BYTE   N11  Dn5  v096
 BYTE   W12
 BYTE   Cs5
 BYTE   W12
 BYTE   N05
 BYTE   W06
 BYTE   Cn5
 BYTE   W06
 BYTE   Cs5
 BYTE   W06
 BYTE   N23  Gn5
 BYTE   W18
// 014   ----------------------------------------
 BYTE   W06
 BYTE   N05
 BYTE   W06
 BYTE   An5
 BYTE   W06
 BYTE   Gn5
 BYTE   W06
 BYTE   N32
 BYTE   W36
 BYTE   N56  Fs5
 BYTE   W36
// 015   ----------------------------------------
 BYTE   W36
 BYTE   GoTo
  POIN2 Label_1_014A9D2E
 BYTE   FINE

//**************** Track 3 (Midi-Chn.2) ****************//

song3D_003:
// 000   ----------------------------------------
 BYTE   KEYSH   song3D_key+0
Label_2_014A9D66:
 BYTE   VOICE   52
 BYTE   VOL   62*song3D_mvl/mxv
 BYTE   PAN   c_v+0
 BYTE   W96
// 001   ----------------------------------------
 BYTE   W96
// 002   ----------------------------------------
 BYTE   W96
// 003   ----------------------------------------
 BYTE   W96
// 004   ----------------------------------------
 BYTE   W96
// 005   ----------------------------------------
 BYTE   W66
 BYTE   N05  En3  v080
 BYTE   W06
 BYTE   Fs3
 BYTE   W06
 BYTE   Gn3
 BYTE   W06
 BYTE   An3
 BYTE   W06
 BYTE   Bn3
 BYTE   W06
// 006   ----------------------------------------
 BYTE   N32  Cn4
 BYTE   W36
 BYTE   N17  Bn3
 BYTE   W18
 BYTE   N05
 BYTE   W06
 BYTE   Fs3
 BYTE   W06
 BYTE   Gn3
 BYTE   W06
 BYTE   N60  An3
 BYTE   W24
// 007   ----------------------------------------
 BYTE   W42
 BYTE   N02
 BYTE   W03
 BYTE   Bn3
 BYTE   W03
 BYTE   N44  Cn4
 BYTE   W48
// 008   ----------------------------------------
 BYTE   W06
 BYTE   N05  Bn3
 BYTE   W06
 BYTE   An3
 BYTE   W06
 BYTE   Gn3
 BYTE   W06
 BYTE   N68  Fs3
 BYTE   W72
// 009   ----------------------------------------
 BYTE   W06
 BYTE   N05  En4
 BYTE   W06
 BYTE   Dn4
 BYTE   W06
 BYTE   Cn4
 BYTE   W06
 BYTE   Bn3
 BYTE   W06
 BYTE   An3
 BYTE   W06
 BYTE   N22  Bn3
 BYTE   W24
 BYTE   N11  An3
 BYTE   W12
 BYTE   N68  Dn3
 BYTE   W24
// 010   ----------------------------------------
 BYTE   W54
 BYTE   N05  Fn4
 BYTE   W06
 BYTE   En4
 BYTE   W06
 BYTE   Dn4
 BYTE   W06
 BYTE   Cn4
 BYTE   W06
 BYTE   Bn3
 BYTE   W06
 BYTE   N22  Cn4
 BYTE   W12
// 011   ----------------------------------------
 BYTE   W12
 BYTE   N11  Bn3
 BYTE   W12
 BYTE   N48  En3
 BYTE   W60
 BYTE   N05
 BYTE   W06
 BYTE   Fs3
 BYTE   W06
// 012   ----------------------------------------
 BYTE   Gn3
 BYTE   W06
 BYTE   An3
 BYTE   W06
 BYTE   N17  As3
 BYTE   W18
 BYTE   N05  An3
 BYTE   W06
 BYTE   N17  Cn4
 BYTE   W18
 BYTE   N05  As3
 BYTE   W06
 BYTE   Fn4
 BYTE   W06
 BYTE   Ds4
 BYTE   W06
 BYTE   N44  Dn4
 BYTE   W24
// 013   ----------------------------------------
 BYTE   W36
 BYTE   N11
 BYTE   W12
 BYTE   Cs4
 BYTE   W12
 BYTE   N05
 BYTE   W06
 BYTE   Cn4
 BYTE   W06
 BYTE   Cs4
 BYTE   W06
 BYTE   N22  Gn4
 BYTE   W18
// 014   ----------------------------------------
 BYTE   W06
 BYTE   N05
 BYTE   W06
 BYTE   An4
 BYTE   W06
 BYTE   Gn4
 BYTE   W06
 BYTE   N32
 BYTE   W36
 BYTE   N56  Fs4
 BYTE   W36
// 015   ----------------------------------------
 BYTE   W36
 BYTE   GoTo
  POIN2 Label_2_014A9D66
 BYTE   FINE

//**************** Track 4 (Midi-Chn.3) ****************//

song3D_004:
// 000   ----------------------------------------
 BYTE   KEYSH   song3D_key+0
Label_3_014A9E0A:
 BYTE   VOICE   40
 BYTE   VOL   62*song3D_mvl/mxv
 BYTE   PAN   c_v+0
 BYTE   N68  Bn2  v052
 BYTE   W72
 BYTE   Dn3
 BYTE   W24
// 001   ----------------------------------------
 BYTE   W48
 BYTE   Cn3
 BYTE   W48
// 002   ----------------------------------------
 BYTE   W24
 BYTE   Bn2
 BYTE   W72
// 003   ----------------------------------------
 BYTE   N68
 BYTE   W72
 BYTE   Dn3
 BYTE   W24
// 004   ----------------------------------------
 BYTE   W48
 BYTE   Cn4
 BYTE   W48
// 005   ----------------------------------------
 BYTE   W24
 BYTE   Bn3
 BYTE   W72
// 006   ----------------------------------------
 BYTE   En4
 BYTE   W72
 BYTE   Fs4
 BYTE   W24
// 007   ----------------------------------------
 BYTE   W48
 BYTE   An4
 BYTE   W48
// 008   ----------------------------------------
 BYTE   W24
 BYTE   Fs4
 BYTE   W72
// 009   ----------------------------------------
 BYTE   W06
 BYTE   N05  En5  v064
 BYTE   W06
 BYTE   Dn5
 BYTE   W06
 BYTE   Cn5
 BYTE   W06
 BYTE   Bn4
 BYTE   W06
 BYTE   An4
 BYTE   W06
 BYTE   N23  Bn4
 BYTE   W24
 BYTE   N11  An4
 BYTE   W12
 BYTE   N68  Dn4
 BYTE   W24
// 010   ----------------------------------------
 BYTE   W54
 BYTE   N05  Fn5
 BYTE   W06
 BYTE   En5
 BYTE   W06
 BYTE   Dn5
 BYTE   W06
 BYTE   Cn5
 BYTE   W06
 BYTE   Bn4
 BYTE   W06
 BYTE   N23  Cn5
 BYTE   W12
// 011   ----------------------------------------
 BYTE   W12
 BYTE   N11  Bn4
 BYTE   W12
 BYTE   N52  En4
 BYTE   W60
 BYTE   N05
 BYTE   W06
 BYTE   Fs4
 BYTE   W06
// 012   ----------------------------------------
 BYTE   Gn4
 BYTE   W06
 BYTE   An4
 BYTE   W06
 BYTE   N17  As4
 BYTE   W18
 BYTE   N05  An4
 BYTE   W06
 BYTE   N17  Cn5
 BYTE   W18
 BYTE   N05  As4
 BYTE   W06
 BYTE   Fn5
 BYTE   W06
 BYTE   Ds5
 BYTE   W06
 BYTE   N44  Dn5
 BYTE   W24
// 013   ----------------------------------------
 BYTE   W48
 BYTE   N28  An3
 BYTE   W30
 BYTE   N40  Ds3
 BYTE   W18
// 014   ----------------------------------------
 BYTE   W24
 BYTE   N92  An3
 BYTE   W72
// 015   ----------------------------------------
 BYTE   W36
 BYTE   GoTo
  POIN2 Label_3_014A9E0A
 BYTE   FINE

//**************** Track 5 (Midi-Chn.4) ****************//

song3D_005:
// 000   ----------------------------------------
 BYTE   KEYSH   song3D_key+0
Label_4_014A9E8E:
 BYTE   VOICE   40
 BYTE   VOL   62*song3D_mvl/mxv
 BYTE   PAN   c_v+0
 BYTE   N68  Gn2  v052
 BYTE   W72
 BYTE   An2
 BYTE   W24
// 001   ----------------------------------------
 BYTE   W48
 BYTE   N68
 BYTE   W48
// 002   ----------------------------------------
 BYTE   W24
 BYTE   Gn2
 BYTE   W72
// 003   ----------------------------------------
 BYTE   N68
 BYTE   W72
 BYTE   An2
 BYTE   W24
// 004   ----------------------------------------
 BYTE   W48
 BYTE   An3
 BYTE   W48
// 005   ----------------------------------------
 BYTE   W24
 BYTE   Gn3
 BYTE   W72
// 006   ----------------------------------------
 BYTE   Bn3
 BYTE   W72
 BYTE   Dn4
 BYTE   W24
// 007   ----------------------------------------
 BYTE   W48
 BYTE   En4
 BYTE   W48
// 008   ----------------------------------------
 BYTE   W24
 BYTE   N68
 BYTE   W72
// 009   ----------------------------------------
 BYTE   N05  Gn2  v064
 BYTE   W06
 BYTE   An2
 BYTE   W06
 BYTE   N28  Bn2
 BYTE   W30
 BYTE   N05  An2
 BYTE   W06
 BYTE   Bn2
 BYTE   W06
 BYTE   Cn3
 BYTE   W06
 BYTE   Dn3
 BYTE   W06
 BYTE   En3
 BYTE   W06
 BYTE   N23  Fs3
 BYTE   W24
// 010   ----------------------------------------
 BYTE   N11  En3
 BYTE   W12
 BYTE   N32  Bn3
 BYTE   W36
 BYTE   N05  Fn3
 BYTE   W06
 BYTE   Gn3
 BYTE   W06
 BYTE   N28  An3
 BYTE   W30
 BYTE   N05  Gn3
 BYTE   W06
// 011   ----------------------------------------
 BYTE   An3
 BYTE   W06
 BYTE   Bn3
 BYTE   W06
 BYTE   Cn4
 BYTE   W06
 BYTE   Dn4
 BYTE   W06
 BYTE   N68  En4
 BYTE   W72
// 012   ----------------------------------------
 BYTE   Gn4
 BYTE   W72
 BYTE   N05  Gn3
 BYTE   W06
 BYTE   An3
 BYTE   W06
 BYTE   N23  As3
 BYTE   W12
// 013   ----------------------------------------
 BYTE   W12
 BYTE   N05  An3
 BYTE   W06
 BYTE   Cn4
 BYTE   W06
 BYTE   As3
 BYTE   W06
 BYTE   An3
 BYTE   W06
 BYTE   N11  As3
 BYTE   W12
 BYTE   N28  En3
 BYTE   W30
 BYTE   N40  As2
 BYTE   W18
// 014   ----------------------------------------
 BYTE   W24
 BYTE   N32  Gn4
 BYTE   W36
 BYTE   N56  Fs4
 BYTE   W36
// 015   ----------------------------------------
 BYTE   W36
 BYTE   GoTo
  POIN2 Label_4_014A9E8E
 BYTE   FINE

//**************** Track 6 (Midi-Chn.5) ****************//

song3D_006:
// 000   ----------------------------------------
 BYTE   KEYSH   song3D_key+0
Label_5_014A9F16:
 BYTE   VOICE   41
 BYTE   VOL   62*song3D_mvl/mxv
 BYTE   PAN   c_v+0
 BYTE   N68  En2  v036
 BYTE   W72
 BYTE   Fs2
 BYTE   W24
// 001   ----------------------------------------
 BYTE   W48
 BYTE   En2
 BYTE   W48
// 002   ----------------------------------------
 BYTE   W24
 BYTE   N68
 BYTE   W72
// 003   ----------------------------------------
 BYTE   N68
 BYTE   W72
 BYTE   Fs2
 BYTE   W24
// 004   ----------------------------------------
 BYTE   W48
 BYTE   En3
 BYTE   W48
// 005   ----------------------------------------
 BYTE   W24
 BYTE   N68
 BYTE   W72
// 006   ----------------------------------------
 BYTE   Gn3
 BYTE   W72
 BYTE   An3
 BYTE   W24
// 007   ----------------------------------------
 BYTE   W48
 BYTE   Cn4
 BYTE   W48
// 008   ----------------------------------------
 BYTE   W24
 BYTE   Bn3
 BYTE   W72
// 009   ----------------------------------------
 BYTE   N05  Gn2  v064
 BYTE   W06
 BYTE   An2
 BYTE   W06
 BYTE   N28  Bn2
 BYTE   W30
 BYTE   N05  An2
 BYTE   W06
 BYTE   Bn2
 BYTE   W06
 BYTE   Cn3
 BYTE   W06
 BYTE   Dn3
 BYTE   W06
 BYTE   En3
 BYTE   W06
 BYTE   N23  Fs3
 BYTE   W24
// 010   ----------------------------------------
 BYTE   N11  En3
 BYTE   W12
 BYTE   N32  Bn3
 BYTE   W36
 BYTE   N05  Fn3
 BYTE   W06
 BYTE   Gn3
 BYTE   W06
 BYTE   N28  An3
 BYTE   W30
 BYTE   N05  Gn3
 BYTE   W06
// 011   ----------------------------------------
 BYTE   An3
 BYTE   W06
 BYTE   Bn3
 BYTE   W06
 BYTE   Cn4
 BYTE   W06
 BYTE   Dn4
 BYTE   W06
 BYTE   N68  En4
 BYTE   W72
// 012   ----------------------------------------
 BYTE   Ds4
 BYTE   W72
 BYTE   N05  Gn3
 BYTE   W06
 BYTE   An3
 BYTE   W06
 BYTE   N23  As3
 BYTE   W12
// 013   ----------------------------------------
 BYTE   W12
 BYTE   N05  An3
 BYTE   W06
 BYTE   Cn4
 BYTE   W06
 BYTE   As3
 BYTE   W06
 BYTE   An3
 BYTE   W06
 BYTE   N11  As3
 BYTE   W12
 BYTE   N28  Cs3
 BYTE   W30
 BYTE   N40  Gn2
 BYTE   W18
// 014   ----------------------------------------
 BYTE   W24
 BYTE   N68  Dn3
 BYTE   W72
// 015   ----------------------------------------
 BYTE   W36
 BYTE   GoTo
  POIN2 Label_5_014A9F16
 BYTE   FINE

//**************** Track 7 (Midi-Chn.6) ****************//

song3D_007:
// 000   ----------------------------------------
 BYTE   KEYSH   song3D_key+0
Label_6_014A9F9A:
 BYTE   VOICE   0
 BYTE   VOL   62*song3D_mvl/mxv
 BYTE   PAN   c_v+0
 BYTE   N11  En1  v080
 BYTE   W12
 BYTE   N05  Bn1
 BYTE   W06
 BYTE   N11  Gn2
 BYTE   W12
 BYTE   N05  Bn1
 BYTE   W06
 BYTE   N11  En1
 BYTE   W12
 BYTE   Bn1
 BYTE   W12
 BYTE   N05  Gn2
 BYTE   W06
 BYTE   Bn1
 BYTE   W06
 BYTE   N11  En1
 BYTE   W12
 BYTE   N05  An1
 BYTE   W06
 BYTE   N11  Fs2
 BYTE   W06
// 001   ----------------------------------------
Label_6_014A9FC0:
 BYTE   W06
 BYTE   N05  An1  v080
 BYTE   W06
 BYTE   N11  En1
 BYTE   W12
 BYTE   An1
 BYTE   W12
 BYTE   N05  Fs2
 BYTE   W06
 BYTE   An1
 BYTE   W06
 BYTE   N11  En1
 BYTE   W12
 BYTE   N05  Cn2
 BYTE   W06
 BYTE   N11  An2
 BYTE   W12
 BYTE   N05  Cn2
 BYTE   W06
 BYTE   N11  En1
 BYTE   W12
 BYTE   PEND 
// 002   ----------------------------------------
Label_6_014A9FDF:
 BYTE   N11  Cn2  v080
 BYTE   W12
 BYTE   N05  An2
 BYTE   W06
 BYTE   Cn2
 BYTE   W06
 BYTE   N11  En1
 BYTE   W12
 BYTE   N05  Bn1
 BYTE   W06
 BYTE   N11  Gn2
 BYTE   W12
 BYTE   N05  Bn1
 BYTE   W06
 BYTE   N11  En1
 BYTE   W12
 BYTE   Bn1
 BYTE   W12
 BYTE   N05  Gn2
 BYTE   W06
 BYTE   Bn1
 BYTE   W06
 BYTE   PEND 
// 003   ----------------------------------------
Label_6_014A9FFF:
 BYTE   N11  En1  v080
 BYTE   W12
 BYTE   N05  Bn1
 BYTE   W06
 BYTE   N11  Gn2
 BYTE   W12
 BYTE   N05  Bn1
 BYTE   W06
 BYTE   N11  En1
 BYTE   W12
 BYTE   Bn1
 BYTE   W12
 BYTE   N05  Gn2
 BYTE   W06
 BYTE   Bn1
 BYTE   W06
 BYTE   N11  En1
 BYTE   W12
 BYTE   N05  An1
 BYTE   W06
 BYTE   N11  Fs2
 BYTE   W06
 BYTE   PEND 
// 004   ----------------------------------------
 BYTE   PATT
  POIN2 Label_6_014A9FC0
// 005   ----------------------------------------
 BYTE   PATT
  POIN2 Label_6_014A9FDF
// 006   ----------------------------------------
 BYTE   PATT
  POIN2 Label_6_014A9FFF
// 007   ----------------------------------------
 BYTE   PATT
  POIN2 Label_6_014A9FC0
// 008   ----------------------------------------
 BYTE   N11  Cn2  v080
 BYTE   W12
 BYTE   N05  An2
 BYTE   W06
 BYTE   Cn2
 BYTE   W06
 BYTE   N11  En1
 BYTE   W12
 BYTE   N05  Fs2
 BYTE   W06
 BYTE   N11  Fs3
 BYTE   W12
 BYTE   N05  Fs2
 BYTE   W06
 BYTE   N11  Bn1
 BYTE   W12
 BYTE   Fs2
 BYTE   W12
 BYTE   N05  Fs3
 BYTE   W06
 BYTE   Fs2
 BYTE   W06
// 009   ----------------------------------------
 BYTE   N13  Gn2  v064
 BYTE   N15  Bn2
 BYTE   N17  En3
 BYTE   W01
 BYTE   N07  En1
 BYTE   N09  Bn1
 BYTE   N11  En2
 BYTE   W17
 BYTE   N13  Gn2
 BYTE   N15  Bn2
 BYTE   N17  En3
 BYTE   W01
 BYTE   N07  En1
 BYTE   N09  Bn1
 BYTE   N11  En2
 BYTE   W23
 BYTE   N04  Gn2
 BYTE   N05  Bn2
 BYTE   N05  En3
 BYTE   W01
 BYTE   N02  Bn1
 BYTE   N03  En2
 BYTE   W01
 BYTE   N01  En1
 BYTE   W04
 BYTE   N17  Gn2
 BYTE   N20  Bn2
 BYTE   N23  En3
 BYTE   W01
 BYTE   N11  Bn1
 BYTE   N14  En2
 BYTE   W01
 BYTE   N07  En1
 BYTE   W22
 BYTE   N14  Dn3
 BYTE   N17  Fs3
 BYTE   W01
 BYTE   N08  Dn2
 BYTE   N11  An2
 BYTE   W01
 BYTE   N05  An1
 BYTE   W16
 BYTE   N23  An2
 BYTE   N24  Dn3
 BYTE   N28  Fs3
 BYTE   W01
 BYTE   N17  An1
 BYTE   N20  Dn2
 BYTE   W05
// 010   ----------------------------------------
 BYTE   W24
 BYTE   N04  An2
 BYTE   N05  Dn3
 BYTE   N05  Fs3
 BYTE   W01
 BYTE   N02  An1
 BYTE   N03  Dn2
 BYTE   W05
 BYTE   N04  An2
 BYTE   N05  Dn3
 BYTE   N05  Fs3
 BYTE   W01
 BYTE   N02  An1
 BYTE   N03  Dn2
 BYTE   W11
 BYTE   N05  Dn3
 BYTE   N05  Fs3
 BYTE   W01
 BYTE   N04  An2
 BYTE   W01
 BYTE   N03  Dn2
 BYTE   W01
 BYTE   N02  An1
 BYTE   W03
 BYTE   N14  Dn3
 BYTE   N17  Fn3
 BYTE   W01
 BYTE   N08  Dn2
 BYTE   N11  An2
 BYTE   W01
 BYTE   N05  An1
 BYTE   W16
 BYTE   N23  An2
 BYTE   N24  Dn3
 BYTE   N28  Fn3
 BYTE   W01
 BYTE   N17  An1
 BYTE   N20  Dn2
 BYTE   W28
 BYTE   W01
// 011   ----------------------------------------
 BYTE   N04  An2
 BYTE   N05  Dn3
 BYTE   N05  Fn3
 BYTE   W01
 BYTE   N02  An1
 BYTE   N03  Dn2
 BYTE   W05
 BYTE   N14  Dn3
 BYTE   N17  Fn3
 BYTE   W01
 BYTE   N08  Dn2
 BYTE   N11  An2
 BYTE   W01
 BYTE   N05  An1
 BYTE   W16
 BYTE   N14  Cn3
 BYTE   N17  En3
 BYTE   W01
 BYTE   N08  En2
 BYTE   N11  An2
 BYTE   W01
 BYTE   N05  An1
 BYTE   W16
 BYTE   N14  Cn3
 BYTE   N17  En3
 BYTE   W01
 BYTE   N08  En2
 BYTE   N11  An2
 BYTE   W01
 BYTE   N05  An1
 BYTE   W22
 BYTE   N04  An2
 BYTE   N05  Cn3
 BYTE   N05  En3
 BYTE   W01
 BYTE   N02  An1
 BYTE   N03  En2
 BYTE   W05
 BYTE   N17  An2
 BYTE   N20  Cn3
 BYTE   N23  En3
 BYTE   W01
 BYTE   N11  An1
 BYTE   N14  En2
 BYTE   W23
// 012   ----------------------------------------
 BYTE   Ds3
 BYTE   N17  Gn3
 BYTE   W01
 BYTE   N08  Ds2
 BYTE   N11  As2
 BYTE   W17
 BYTE   N23
 BYTE   N24  Ds3
 BYTE   N28  Gn3
 BYTE   W01
 BYTE   N20  Ds2
 BYTE   W28
 BYTE   W01
 BYTE   N04  Ds3
 BYTE   N05  Gn3
 BYTE   W01
 BYTE   N03  As2
 BYTE   W01
 BYTE   N01  Ds2
 BYTE   W04
 BYTE   N14  Ds3
 BYTE   N17  Gn3
 BYTE   W01
 BYTE   N08  Ds2
 BYTE   N11  As2
 BYTE   W17
 BYTE   N13
 BYTE   N15  Dn3
 BYTE   N17  Gn3
 BYTE   W01
 BYTE   N07  Gn1
 BYTE   N09  Dn2
 BYTE   N11  Gn2
 BYTE   W17
 BYTE   N13  As2
 BYTE   N15  Dn3
 BYTE   N17  Gn3
 BYTE   W01
 BYTE   N07  Gn1
 BYTE   N09  Dn2
 BYTE   N11  Gn2
 BYTE   W05
// 013   ----------------------------------------
 BYTE   W18
 BYTE   N04  As2
 BYTE   N05  Dn3
 BYTE   N05  Gn3
 BYTE   W01
 BYTE   N02  Dn2
 BYTE   N03  Gn2
 BYTE   W01
 BYTE   N01  Gn1
 BYTE   W04
 BYTE   N17  As2
 BYTE   N20  Dn3
 BYTE   N23  Gn3
 BYTE   W01
 BYTE   N11  Dn2
 BYTE   N14  Gn2
 BYTE   W01
 BYTE   N07  Gn1
 BYTE   W22
 BYTE   N14  Cs3
 BYTE   N17  En3
 BYTE   W01
 BYTE   N08  En2
 BYTE   N11  An2
 BYTE   W01
 BYTE   N05  An1
 BYTE   W16
 BYTE   N11  En3
 BYTE   W02
 BYTE   N09  Cs3
 BYTE   W02
 BYTE   N07  An2
 BYTE   W02
 BYTE   N05  En2
 BYTE   W02
 BYTE   N03  An1
 BYTE   W04
 BYTE   N14  Ds3
 BYTE   N17  Gn3
 BYTE   W01
 BYTE   N08  Ds2
 BYTE   N11  As2
 BYTE   W17
// 014   ----------------------------------------
 BYTE   N17
 BYTE   N20  Ds3
 BYTE   N23  Gn3
 BYTE   W01
 BYTE   N14  Ds2
 BYTE   W23
 BYTE   Dn3
 BYTE   N17  Gn3
 BYTE   W01
 BYTE   N08  Dn2
 BYTE   N11  An2
 BYTE   W01
 BYTE   N05  An1
 BYTE   W16
 BYTE   N23  An2
 BYTE   N24  Dn3
 BYTE   N28  Gn3
 BYTE   W01
 BYTE   N17  An1
 BYTE   N20  Dn2
 BYTE   W28
 BYTE   W01
 BYTE   N04  An2
 BYTE   N05  Dn3
 BYTE   N05  Fs3
 BYTE   W01
 BYTE   N02  An1
 BYTE   N03  Dn2
 BYTE   W05
 BYTE   N04  An2
 BYTE   N05  Dn3
 BYTE   N05  Fs3
 BYTE   W01
 BYTE   N02  An1
 BYTE   N03  Dn2
 BYTE   W11
 BYTE   N24  Dn3
 BYTE   N28  Fs3
 BYTE   W01
 BYTE   N20  Dn2
 BYTE   N23  An2
 BYTE   W01
 BYTE   N17  An1
 BYTE   W04
// 015   ----------------------------------------
 BYTE   W36
 BYTE   GoTo
  POIN2 Label_6_014A9F9A
 BYTE   FINE

//**************** Track 8 (Midi-Chn.7) ****************//

song3D_008:
// 000   ----------------------------------------
 BYTE   KEYSH   song3D_key+0
Label_7_014AA20E:
 BYTE   VOICE   42
 BYTE   VOL   62*song3D_mvl/mxv
 BYTE   PAN   c_v+0
 BYTE   W96
// 001   ----------------------------------------
 BYTE   W96
// 002   ----------------------------------------
 BYTE   W96
// 003   ----------------------------------------
 BYTE   W96
// 004   ----------------------------------------
 BYTE   W96
// 005   ----------------------------------------
 BYTE   W96
// 006   ----------------------------------------
 BYTE   N68  En2  v052
 BYTE   W72
 BYTE   Fs2
 BYTE   W24
// 007   ----------------------------------------
 BYTE   W48
 BYTE   An2
 BYTE   W48
// 008   ----------------------------------------
 BYTE   W24
 BYTE   Fs2
 BYTE   W72
// 009   ----------------------------------------
 BYTE   En2  v064
 BYTE   W72
 BYTE   Fs2
 BYTE   W24
// 010   ----------------------------------------
 BYTE   W48
 BYTE   Fn2
 BYTE   W48
// 011   ----------------------------------------
 BYTE   W24
 BYTE   En3
 BYTE   W72
// 012   ----------------------------------------
 BYTE   Gn2
 BYTE   W72
 BYTE   N44
 BYTE   W24
// 013   ----------------------------------------
 BYTE   W36
 BYTE   N11
 BYTE   W12
 BYTE   N28  An2
 BYTE   W30
 BYTE   N40  Ds2
 BYTE   W18
// 014   ----------------------------------------
 BYTE   W24
 BYTE   N92  Dn2
 BYTE   W72
// 015   ----------------------------------------
 BYTE   W36
 BYTE   GoTo
  POIN2 Label_7_014AA20E
 BYTE   FINE

//******************************************************//
	ALIGN 4

song3D:
	BYTE	8	// NumTrks
	BYTE	0	// NumBlks
	BYTE	song3D_pri	// Priority
	BYTE	song3D_rev	// Reverb.
    
	POIN2	song3D_grp
    
	POIN2	song3D_001
	POIN2	song3D_002
	POIN2	song3D_003
	POIN2	song3D_004
	POIN2	song3D_005
	POIN2	song3D_006
	POIN2	song3D_007
	POIN2	song3D_008

	
