//Event file generated from Sappy .s format.
	#include "MPlayDef.event"

	#define	song01F2_grp  voicegroup000
	#define	song01F2_pri  0
	#define	song01F2_rev  160 //0xA0
	#define	song01F2_mvl  127
	#define	song01F2_key  0
	#define	song01F2_tbs  1
	#define	song01F2_exg  0
	#define	song01F2_cmp  1

	// .rodata
	//	song01F2
	ALIGN 4


//**************** Track 1 (Midi-Chn.0) ****************//

song01F2_001:
//  #01 //000   ----------------------------------------
 BYTE   KEYSH   song01F2_key+0
 BYTE   TEMPO   162*song01F2_tbs/2
 BYTE   VOICE   62
 BYTE   VOL   50*song01F2_mvl/mxv
 BYTE   PAN   c_v+12
 BYTE   N18  As2  v100
 BYTE   W24
Label_018BFAF6:
 BYTE   W12
 BYTE   N12  Fn2  v100
 BYTE   W12
 BYTE   As2
 BYTE   W12
 BYTE   Cn3
 BYTE   W12
 BYTE   N48  Cs3
 BYTE   W24
//  #01 //001   ----------------------------------------
 BYTE   W24
 BYTE   N42  Ds3
 BYTE   W48
 BYTE   N24  Fn3
 BYTE   W24
//  #01 //002   ----------------------------------------
 BYTE   Ds3
 BYTE   W96
//  #01 //003   ----------------------------------------
 BYTE   W36
 BYTE   Cs3
 BYTE   W24
 BYTE   N12  Cn3
 BYTE   W12
 BYTE   N36  Cs3
 BYTE   W24
//  #01 //004   ----------------------------------------
 BYTE   W12
 BYTE   N12  Dn3
 BYTE   W12
 BYTE   N36  Ds3
 BYTE   W36
 BYTE   En3
 BYTE   W36
//  #01 //005   ----------------------------------------
 BYTE   N24  Fn3
 BYTE   W24
 BYTE   N12  As3
 BYTE   W48
 BYTE   N12
 BYTE   W24
//  #01 //006   ----------------------------------------
 BYTE   W24
 BYTE   N12
 BYTE   W48
 BYTE   N12
 BYTE   W24
//  #01 //007   ----------------------------------------
 BYTE   W36
 BYTE   Gn2
 BYTE   W12
 BYTE   En3
 BYTE   W12
 BYTE   Ds3
 BYTE   W12
 BYTE   N36  En3
 BYTE   W24
//  #01 //008   ----------------------------------------
 BYTE   W12
 BYTE   N12  Ds3
 BYTE   W12
 BYTE   N36  Fs3
 BYTE   W36
 BYTE   N12  En3
 BYTE   W12
 BYTE   N36  Gs3
 BYTE   W24
//  #01 //009   ----------------------------------------
 BYTE   W12
 BYTE   N12  Fs3
 BYTE   W12
 BYTE   N48  Cs4
 BYTE   W48
 BYTE   Ds4
 BYTE   W24
//  #01 //010   ----------------------------------------
 BYTE   W24
 BYTE   En4
 BYTE   W48
 BYTE   Ds4
 BYTE   W24
//  #01 //011   ----------------------------------------
 BYTE   W36
 BYTE   GoTo
  POIN2 Label_018BFAF6
 BYTE   FINE

//**************** Track 2 (Midi-Chn.1) ****************//

song01F2_002:
//  #02 //000   ----------------------------------------
 BYTE   KEYSH   song01F2_key+0
 BYTE   VOICE   48
 BYTE   PAN   c_v-4
 BYTE   VOL   41*song01F2_mvl/mxv
 BYTE   N06  Ds5  v100
 BYTE   W24
Label_018BFD74:
 BYTE   W72
//  #02 //001   ----------------------------------------
 BYTE   W96
//  #02 //002   ----------------------------------------
 BYTE   W24
 BYTE   N06  Fn5  v100
 BYTE   W06
 BYTE   Ds5
 BYTE   W06
 BYTE   Cs5
 BYTE   W06
 BYTE   Cn5
 BYTE   W06
 BYTE   Ds5
 BYTE   W06
 BYTE   Cs5
 BYTE   W06
 BYTE   Cn5
 BYTE   W06
 BYTE   As4
 BYTE   W06
 BYTE   Cs5
 BYTE   W06
 BYTE   Cn5
 BYTE   W06
 BYTE   As4
 BYTE   W06
 BYTE   Gs4
 BYTE   W06
//  #02 //003   ----------------------------------------
 BYTE   Cn5
 BYTE   W06
 BYTE   As4
 BYTE   W06
 BYTE   Gs4
 BYTE   W06
 BYTE   Gn4
 BYTE   W78
//  #02 //004   ----------------------------------------
 BYTE   W96
//  #02 //005   ----------------------------------------
 BYTE   W24
 BYTE   N12  Fn3
 BYTE   W12
 BYTE   N24  As2
 BYTE   W24
 BYTE   N06  As4  v088
 BYTE   W06
 BYTE   En5
 BYTE   W06
 BYTE   N24  Fs4
 BYTE   W24
//  #02 //006   ----------------------------------------
 BYTE   N12  Ds3
 BYTE   W12
 BYTE   N06  As4
 BYTE   W06
 BYTE   Fs5
 BYTE   W06
 BYTE   N24  Gn4
 BYTE   W24
 BYTE   N12  As2
 BYTE   W12
 BYTE   N06  As4
 BYTE   W06
 BYTE   En5
 BYTE   W06
 BYTE   N24  Fs4
 BYTE   W24
//  #02 //007   ----------------------------------------
 BYTE   N12  Ds3
 BYTE   W12
 BYTE   N06  As4
 BYTE   W06
 BYTE   Fn5
 BYTE   W78
//  #02 //008   ----------------------------------------
 BYTE   W96
//  #02 //009   ----------------------------------------
 BYTE   W96
//  #02 //010   ----------------------------------------
 BYTE   W96
//  #02 //011   ----------------------------------------
 BYTE   W36
 BYTE   GoTo
  POIN2 Label_018BFD74
 BYTE   FINE

//**************** Track 3 (Midi-Chn.2) ****************//

song01F2_003:
//  #03 //000   ----------------------------------------
 BYTE   KEYSH   song01F2_key+0
 BYTE   VOICE   61
 BYTE   PAN   c_v+3
 BYTE   VOL   45*song01F2_mvl/mxv
 BYTE   W24
Label_0185070D:
 BYTE   W60
 BYTE   N12  Fn2  v100
 BYTE   W12
//  #03 //001   ----------------------------------------
 BYTE   As2
 BYTE   W12
 BYTE   Cn3
 BYTE   W12
 BYTE   N36  Cs3
 BYTE   W36
 BYTE   N06  As2
 BYTE   W12
 BYTE   N24  Ds3
 BYTE   W24
//  #03 //002   ----------------------------------------
 BYTE   Bn2
 BYTE   W96
//  #03 //003   ----------------------------------------
 BYTE   W24
 BYTE   N12  Gn2
 BYTE   W12
 BYTE   As2
 BYTE   W12
 BYTE   Gs2
 BYTE   W12
 BYTE   An2
 BYTE   W12
 BYTE   As2
 BYTE   W12
 BYTE   Fn2
 BYTE   W12
//  #03 //004   ----------------------------------------
 BYTE   As2
 BYTE   W12
 BYTE   N06  Cn3
 BYTE   W06
 BYTE   As2
 BYTE   W06
 BYTE   N12  Fs2
 BYTE   W12
 BYTE   N18  Gn2
 BYTE   W24
 BYTE   Gs2
 BYTE   W24
 BYTE   N12  An2
 BYTE   W12
//  #03 //005   ----------------------------------------
 BYTE   As2
 BYTE   W96
//  #03 //006   ----------------------------------------
 BYTE   W96
//  #03 //007   ----------------------------------------
 BYTE   W96
//  #03 //008   ----------------------------------------
 BYTE   W96
//  #03 //009   ----------------------------------------
 BYTE   W96
//  #03 //010   ----------------------------------------
 BYTE   W96
//  #03 //011   ----------------------------------------
 BYTE   W36
 BYTE   GoTo
  POIN2 Label_0185070D
 BYTE   FINE

//**************** Track 4 (Midi-Chn.3) ****************//

song01F2_004:
//  #04 //000   ----------------------------------------
 BYTE   KEYSH   song01F2_key+0
 BYTE   VOICE   55
 BYTE   VOL   62*song01F2_mvl/mxv
 BYTE   PAN   c_v-16
 BYTE   N06  Ds4  v100
 BYTE   W24
Label_018BFB70:
 BYTE   W72
//  #04 //001   ----------------------------------------
 BYTE   W96
//  #04 //002   ----------------------------------------
 BYTE   W24
 BYTE   N06  Fn3  v100
 BYTE   W06
 BYTE   Ds3
 BYTE   W06
 BYTE   Cs3
 BYTE   W06
 BYTE   Cn3
 BYTE   W06
 BYTE   Ds3
 BYTE   W06
 BYTE   Cs3
 BYTE   W06
 BYTE   Cn3
 BYTE   W06
 BYTE   As2
 BYTE   W06
 BYTE   Cs3
 BYTE   W06
 BYTE   Cn3
 BYTE   W06
 BYTE   As2
 BYTE   W06
 BYTE   Gs2
 BYTE   W06
//  #04 //003   ----------------------------------------
 BYTE   Cn3
 BYTE   W06
 BYTE   As2
 BYTE   W06
 BYTE   Gs2
 BYTE   W06
 BYTE   Gn2
 BYTE   W78
//  #04 //004   ----------------------------------------
 BYTE   W96
//  #04 //005   ----------------------------------------
 BYTE   W96
//  #04 //006   ----------------------------------------
 BYTE   W96
//  #04 //007   ----------------------------------------
 BYTE   W36
 BYTE   N12  As2
 BYTE   W12
 BYTE   En3
 BYTE   W12
 BYTE   Ds3
 BYTE   W12
 BYTE   En3
 BYTE   W12
 BYTE   N24  Cs3
 BYTE   W12
//  #04 //008   ----------------------------------------
 BYTE   W12
 BYTE   N12  Ds3
 BYTE   W12
 BYTE   Fs3
 BYTE   W12
 BYTE   N36  En3
 BYTE   W36
 BYTE   N12  Gs3
 BYTE   W12
 BYTE   N36  Fs3
 BYTE   W12
//  #04 //009   ----------------------------------------
 BYTE   W24
 BYTE   N24  Cs4
 BYTE   W24
 BYTE   N06
 BYTE   W06
 BYTE   Gs3
 BYTE   W06
 BYTE   Ds3
 BYTE   W06
 BYTE   Gs3
 BYTE   W06
 BYTE   N24  Ds4
 BYTE   W24
//  #04 //010   ----------------------------------------
 BYTE   N06
 BYTE   W06
 BYTE   Gs3
 BYTE   W06
 BYTE   Ds3
 BYTE   W06
 BYTE   Gs3
 BYTE   W06
 BYTE   N24  En4
 BYTE   W24
 BYTE   N06
 BYTE   W06
 BYTE   Gs3
 BYTE   W06
 BYTE   Ds3
 BYTE   W06
 BYTE   Gs3
 BYTE   W06
 BYTE   N48  Ds4
 BYTE   W24
//  #04 //011   ----------------------------------------
 BYTE   W36
 BYTE   GoTo
  POIN2 Label_018BFB70
 BYTE   FINE

//**************** Track 5 (Midi-Chn.4) ****************//

song01F2_005:
//  #05 //000   ----------------------------------------
 BYTE   KEYSH   song01F2_key+0
 BYTE   VOICE   60
 BYTE   PAN   c_v+6
 BYTE   VOL   45*song01F2_mvl/mxv
 BYTE   N12  Fn2  v100
 BYTE   W24
Label_018509E0:
 BYTE   W12
 BYTE   N24  Fn2  v100
 BYTE   W24
 BYTE   N12  Fs2
 BYTE   W12
 BYTE   N48  Gs2
 BYTE   W24
//  #05 //001   ----------------------------------------
 BYTE   W24
 BYTE   Gn2
 BYTE   W48
 BYTE   Fs2
 BYTE   W24
//  #05 //002   ----------------------------------------
 BYTE   W96
//  #05 //003   ----------------------------------------
 BYTE   W24
 BYTE   N24  En2
 BYTE   W24
 BYTE   Fs2
 BYTE   W24
 BYTE   N36  Fn2
 BYTE   W24
//  #05 //004   ----------------------------------------
 BYTE   W12
 BYTE   Ds2
 BYTE   W36
 BYTE   N24  En2
 BYTE   W24
 BYTE   Fn2
 BYTE   W24
//  #05 //005   ----------------------------------------
 BYTE   W96
//  #05 //006   ----------------------------------------
 BYTE   W96
//  #05 //007   ----------------------------------------
 BYTE   N06  As2
 BYTE   W06
 BYTE   Cn3
 BYTE   W06
 BYTE   Cs3
 BYTE   W06
 BYTE   Ds3
 BYTE   W78
//  #05 //008   ----------------------------------------
 BYTE   W96
//  #05 //009   ----------------------------------------
 BYTE   W96
//  #05 //010   ----------------------------------------
 BYTE   W96
//  #05 //011   ----------------------------------------
 BYTE   W36
 BYTE   GoTo
  POIN2 Label_018509E0
 BYTE   FINE

//**************** Track 6 (Midi-Chn.5) ****************//

song01F2_006:
//  #06 //000   ----------------------------------------
 BYTE   KEYSH   song01F2_key+0
 BYTE   VOICE   55
 BYTE   VOL   64*song01F2_mvl/mxv
 BYTE   PAN   c_v+15
 BYTE   W24
Label_018508B5:
 BYTE   W72
//  #06 //001   ----------------------------------------
 BYTE   W96
//  #06 //002   ----------------------------------------
 BYTE   W96
//  #06 //003   ----------------------------------------
 BYTE   W96
//  #06 //004   ----------------------------------------
 BYTE   W72
 BYTE   N48  Fn2  v100
 BYTE   W24
//  #06 //005   ----------------------------------------
 BYTE   W24
 BYTE   Fs2
 BYTE   W48
 BYTE   Gn2
 BYTE   W24
//  #06 //006   ----------------------------------------
 BYTE   W24
 BYTE   Fs2
 BYTE   W72
//  #06 //007   ----------------------------------------
 BYTE   W24
 BYTE   Gs2
 BYTE   W48
 BYTE   An2
 BYTE   W24
//  #06 //008   ----------------------------------------
Label_018508CB:
 BYTE   W24
 BYTE   N48  As2  v100
 BYTE   W48
 BYTE   An2
 BYTE   W24
 BYTE   PEND 
//  #06 //009   ----------------------------------------
 BYTE   W24
 BYTE   Gs2
 BYTE   W48
 BYTE   Bn2
 BYTE   W24
//  #06 //010   ----------------------------------------
 BYTE   PATT
  POIN2 Label_018508CB
//  #06 //011   ----------------------------------------
 BYTE   W36
 BYTE   GoTo
  POIN2 Label_018508B5
 BYTE   FINE

//**************** Track 7 (Midi-Chn.6) ****************//

song01F2_007:
//  #07 //000   ----------------------------------------
 BYTE   KEYSH   song01F2_key+0
 BYTE   VOICE   30
 BYTE   VOL   21*song01F2_mvl/mxv
 BYTE   N06  Bn1  v100
 BYTE   W24
Label_018BFE16:
 BYTE   N12  As0  v100
 BYTE   W12
 BYTE   N12
 BYTE   W12
 BYTE   N12
 BYTE   W12
 BYTE   N06
 BYTE   W06
 BYTE   Fn1
 BYTE   W06
 BYTE   N12  As0
 BYTE   W12
 BYTE   N12
 BYTE   W12
//  #07 //001   ----------------------------------------
 BYTE   N12
 BYTE   W12
 BYTE   N06
 BYTE   W06
 BYTE   Fn1
 BYTE   W06
 BYTE   N12  Ds1
 BYTE   W12
 BYTE   N36  As0
 BYTE   W36
 BYTE   N12  Bn0
 BYTE   W12
 BYTE   N36  Fs1
 BYTE   W12
//  #07 //002   ----------------------------------------
 BYTE   W96
//  #07 //003   ----------------------------------------
 BYTE   W24
 BYTE   N12  As0
 BYTE   W12
 BYTE   N12
 BYTE   W12
 BYTE   N12
 BYTE   W12
 BYTE   N06
 BYTE   W06
 BYTE   Fn1
 BYTE   W06
 BYTE   N12  As0
 BYTE   W12
 BYTE   N12
 BYTE   W12
//  #07 //004   ----------------------------------------
 BYTE   N12
 BYTE   W12
 BYTE   N06
 BYTE   W06
 BYTE   Fn1
 BYTE   W06
 BYTE   N12  Bn0
 BYTE   W12
 BYTE   N24
 BYTE   W24
 BYTE   Cs1
 BYTE   W24
 BYTE   N12
 BYTE   W12
//  #07 //005   ----------------------------------------
 BYTE   N24  Ds1
 BYTE   W24
 BYTE   N12  As0
 BYTE   W12
 BYTE   N12
 BYTE   W12
 BYTE   N12
 BYTE   W12
 BYTE   N06
 BYTE   W06
 BYTE   Fn1
 BYTE   W06
 BYTE   N12  As0
 BYTE   W12
 BYTE   N12
 BYTE   W12
//  #07 //006   ----------------------------------------
 BYTE   N12
 BYTE   W12
 BYTE   N06
 BYTE   W06
 BYTE   Fn1
 BYTE   W06
 BYTE   N12  As0
 BYTE   W12
 BYTE   N12
 BYTE   W12
 BYTE   N12
 BYTE   W12
 BYTE   N06
 BYTE   W06
 BYTE   Fn1
 BYTE   W06
 BYTE   N12  As0
 BYTE   W12
 BYTE   N12
 BYTE   W12
//  #07 //007   ----------------------------------------
 BYTE   N12
 BYTE   W12
 BYTE   N06
 BYTE   W06
 BYTE   Fn1
 BYTE   W06
 BYTE   N12  Cs1
 BYTE   W12
 BYTE   N12
 BYTE   W12
 BYTE   N12
 BYTE   W12
 BYTE   N06
 BYTE   W06
 BYTE   Gs1
 BYTE   W06
 BYTE   N12  Cs1
 BYTE   W12
 BYTE   N12
 BYTE   W12
//  #07 //008   ----------------------------------------
Label_018BFE99:
 BYTE   N12  Cs1  v100
 BYTE   W12
 BYTE   N06
 BYTE   W06
 BYTE   Gs1
 BYTE   W06
 BYTE   N12  Cs1
 BYTE   W12
 BYTE   N12
 BYTE   W12
 BYTE   N12
 BYTE   W12
 BYTE   N06
 BYTE   W06
 BYTE   Gs1
 BYTE   W06
 BYTE   N12  Cs1
 BYTE   W12
 BYTE   N12
 BYTE   W12
 BYTE   PEND 
//  #07 //009   ----------------------------------------
 BYTE   PATT
  POIN2 Label_018BFE99
//  #07 //010   ----------------------------------------
 BYTE   PATT
  POIN2 Label_018BFE99
//  #07 //011   ----------------------------------------
 BYTE   N12  Cs1  v100
 BYTE   W12
 BYTE   N06
 BYTE   W06
 BYTE   Gs1
 BYTE   W06
 BYTE   N12  As0
 BYTE   W12
 BYTE   GoTo
  POIN2 Label_018BFE16
 BYTE   FINE

//**************** Track 8 (Midi-Chn.7) ****************//

song01F2_008:
//  #08 //000   ----------------------------------------
 BYTE   KEYSH   song01F2_key+0
 BYTE   VOICE   47
 BYTE   PAN   c_v-28
 BYTE   VOL   37*song01F2_mvl/mxv
 BYTE   W24
Label_018BFC9D:
 BYTE   W12
 BYTE   N36  As2  v100
 BYTE   W36
 BYTE   N12
 BYTE   W12
 BYTE   N36
 BYTE   W12
//  #08 //001   ----------------------------------------
 BYTE   W24
 BYTE   N24
 BYTE   W24
 BYTE   N24
 BYTE   W36
 BYTE   N24
 BYTE   W12
//  #08 //002   ----------------------------------------
 BYTE   W24
 BYTE   N36
 BYTE   W36
 BYTE   N24
 BYTE   W24
 BYTE   N24
 BYTE   W12
//  #08 //003   ----------------------------------------
 BYTE   W12
 BYTE   N12
 BYTE   W12
 BYTE   N12
 BYTE   W12
 BYTE   N36
 BYTE   W36
 BYTE   N24
 BYTE   W24
//  #08 //004   ----------------------------------------
 BYTE   N24
 BYTE   W24
 BYTE   N36
 BYTE   W36
 BYTE   N36
 BYTE   W36
//  #08 //005   ----------------------------------------
 BYTE   N36
 BYTE   W36
 BYTE   N24
 BYTE   W24
 BYTE   N24
 BYTE   W24
 BYTE   N12
 BYTE   W12
//  #08 //006   ----------------------------------------
 BYTE   N24
 BYTE   W24
 BYTE   N24
 BYTE   W24
 BYTE   N24
 BYTE   W24
 BYTE   N12
 BYTE   W12
 BYTE   N24
 BYTE   W12
//  #08 //007   ----------------------------------------
 BYTE   W12
 BYTE   N12
 BYTE   W12
 BYTE   N24
 BYTE   W24
 BYTE   N24
 BYTE   W24
 BYTE   N24
 BYTE   W24
//  #08 //008   ----------------------------------------
Label_018BFCDE:
 BYTE   N24  As2  v100
 BYTE   W24
 BYTE   N24
 BYTE   W24
 BYTE   N24
 BYTE   W24
 BYTE   N24
 BYTE   W24
 BYTE   PEND 
//  #08 //009   ----------------------------------------
 BYTE   PATT
  POIN2 Label_018BFCDE
//  #08 //010   ----------------------------------------
 BYTE   PATT
  POIN2 Label_018BFCDE
//  #08 //011   ----------------------------------------
 BYTE   N24  As2  v100
 BYTE   W36
 BYTE   GoTo
  POIN2 Label_018BFC9D
 BYTE   FINE

//**************** Track 9 (Midi-Chn.8) ****************//

song01F2_009:
//  #09 //000   ----------------------------------------
 BYTE   KEYSH   song01F2_key+0
 BYTE   VOICE   47
 BYTE   PAN   c_v+27
 BYTE   VOL   37*song01F2_mvl/mxv
 BYTE   W24
Label_018507C1:
 BYTE   N12  Ds2  v100
 BYTE   W24
 BYTE   N12
 BYTE   W12
 BYTE   N24
 BYTE   W24
 BYTE   N24
 BYTE   W12
//  #09 //001   ----------------------------------------
 BYTE   W12
 BYTE   N24
 BYTE   W24
 BYTE   N24
 BYTE   W48
 BYTE   N24
 BYTE   W12
//  #09 //002   ----------------------------------------
 BYTE   W12
 BYTE   N24
 BYTE   W36
 BYTE   N12
 BYTE   W12
 BYTE   N24
 BYTE   W36
//  #09 //003   ----------------------------------------
 BYTE   N24
 BYTE   W24
 BYTE   N36
 BYTE   W36
 BYTE   N36
 BYTE   W36
//  #09 //004   ----------------------------------------
 BYTE   W24
 BYTE   N24
 BYTE   W24
 BYTE   N12
 BYTE   W12
 BYTE   N12
 BYTE   W12
 BYTE   N24
 BYTE   W24
//  #09 //005   ----------------------------------------
 BYTE   N24
 BYTE   W24
 BYTE   N24
 BYTE   W24
 BYTE   N24
 BYTE   W24
 BYTE   N12
 BYTE   W12
 BYTE   N36
 BYTE   W12
//  #09 //006   ----------------------------------------
 BYTE   W24
 BYTE   N12
 BYTE   W12
 BYTE   N24
 BYTE   W24
 BYTE   N24
 BYTE   W36
//  #09 //007   ----------------------------------------
Label_018507F9:
 BYTE   W24
 BYTE   N24  Ds2  v100
 BYTE   W24
 BYTE   N24
 BYTE   W24
 BYTE   N24
 BYTE   W24
 BYTE   PEND 
//  #09 //008   ----------------------------------------
 BYTE   W24
 BYTE   N24
 BYTE   W24
 BYTE   N24
 BYTE   W48
//  #09 //009   ----------------------------------------
 BYTE   PATT
  POIN2 Label_018507F9
//  #09 //010   ----------------------------------------
 BYTE   N24  Ds2  v100
 BYTE   W24
 BYTE   N24
 BYTE   W24
 BYTE   N24
 BYTE   W24
 BYTE   N12
 BYTE   W12
 BYTE   N12
 BYTE   W12
//  #09 //011   ----------------------------------------
 BYTE   W24
 BYTE   N12
 BYTE   W12
 BYTE   GoTo
  POIN2 Label_018507C1
 BYTE   FINE

//**************** Track 10 (Midi-Chn.9) ****************//

song01F2_010:
//  #10 //000   ----------------------------------------
 BYTE   KEYSH   song01F2_key+0
 BYTE   VOICE   47
 BYTE   PAN   c_v-51
 BYTE   VOL   44*song01F2_mvl/mxv
 BYTE   W24
Label_018BFD09:
 BYTE   N12  Ds1  v100
 BYTE   W24
 BYTE   N12
 BYTE   W12
 BYTE   N24
 BYTE   W24
 BYTE   N24
 BYTE   W12
//  #10 //001   ----------------------------------------
 BYTE   W12
 BYTE   N24
 BYTE   W24
 BYTE   N24
 BYTE   W48
 BYTE   N24
 BYTE   W12
//  #10 //002   ----------------------------------------
 BYTE   W12
 BYTE   N24
 BYTE   W36
 BYTE   N12
 BYTE   W12
 BYTE   N24
 BYTE   W36
//  #10 //003   ----------------------------------------
 BYTE   N24
 BYTE   W24
 BYTE   N36
 BYTE   W36
 BYTE   N36
 BYTE   W36
//  #10 //004   ----------------------------------------
 BYTE   W24
 BYTE   N24
 BYTE   W24
 BYTE   N12
 BYTE   W12
 BYTE   N12
 BYTE   W12
 BYTE   N24
 BYTE   W24
//  #10 //005   ----------------------------------------
 BYTE   N24
 BYTE   W24
 BYTE   N24
 BYTE   W24
 BYTE   N24
 BYTE   W24
 BYTE   N12
 BYTE   W12
 BYTE   N36
 BYTE   W12
//  #10 //006   ----------------------------------------
 BYTE   W24
 BYTE   N12
 BYTE   W12
 BYTE   N24
 BYTE   W24
 BYTE   N24
 BYTE   W36
//  #10 //007   ----------------------------------------
Label_018BFD41:
 BYTE   W24
 BYTE   N24  Ds1  v100
 BYTE   W24
 BYTE   N24
 BYTE   W24
 BYTE   N24
 BYTE   W24
 BYTE   PEND 
//  #10 //008   ----------------------------------------
 BYTE   W24
 BYTE   N24
 BYTE   W24
 BYTE   N24
 BYTE   W48
//  #10 //009   ----------------------------------------
 BYTE   PATT
  POIN2 Label_018BFD41
//  #10 //010   ----------------------------------------
 BYTE   N24  Ds1  v100
 BYTE   W24
 BYTE   N24
 BYTE   W24
 BYTE   N24
 BYTE   W24
 BYTE   N12
 BYTE   W12
 BYTE   N12
 BYTE   W12
//  #10 //011   ----------------------------------------
 BYTE   W36
 BYTE   GoTo
  POIN2 Label_018BFD09
 BYTE   FINE

//**************** Track 11 (Midi-Chn.10) ****************//

song01F2_011:
//  #11 //000   ----------------------------------------
 BYTE   KEYSH   song01F2_key+0
 BYTE   VOICE   47
 BYTE   PAN   c_v+51
 BYTE   VOL   43*song01F2_mvl/mxv
 BYTE   W24
Label_018BFC31:
 BYTE   W12
 BYTE   N36  As1  v100
 BYTE   W36
 BYTE   N12
 BYTE   W12
 BYTE   N36
 BYTE   W12
//  #11 //001   ----------------------------------------
 BYTE   W24
 BYTE   N24
 BYTE   W24
 BYTE   N24
 BYTE   W36
 BYTE   N24
 BYTE   W12
//  #11 //002   ----------------------------------------
 BYTE   W24
 BYTE   N36
 BYTE   W36
 BYTE   N24
 BYTE   W24
 BYTE   N24
 BYTE   W12
//  #11 //003   ----------------------------------------
 BYTE   W12
 BYTE   N12
 BYTE   W12
 BYTE   N12
 BYTE   W12
 BYTE   N36
 BYTE   W36
 BYTE   N24
 BYTE   W24
//  #11 //004   ----------------------------------------
 BYTE   N24
 BYTE   W24
 BYTE   N36
 BYTE   W36
 BYTE   N36
 BYTE   W36
//  #11 //005   ----------------------------------------
 BYTE   N36
 BYTE   W36
 BYTE   N24
 BYTE   W24
 BYTE   N24
 BYTE   W24
 BYTE   N12
 BYTE   W12
//  #11 //006   ----------------------------------------
 BYTE   N24
 BYTE   W24
 BYTE   N24
 BYTE   W24
 BYTE   N24
 BYTE   W24
 BYTE   N12
 BYTE   W12
 BYTE   N24
 BYTE   W12
//  #11 //007   ----------------------------------------
 BYTE   W12
 BYTE   N12
 BYTE   W12
 BYTE   N24
 BYTE   W24
 BYTE   N24
 BYTE   W24
 BYTE   N24
 BYTE   W24
//  #11 //008   ----------------------------------------
Label_018BFC72:
 BYTE   N24  As1  v100
 BYTE   W24
 BYTE   N24
 BYTE   W24
 BYTE   N24
 BYTE   W24
 BYTE   N24
 BYTE   W24
 BYTE   PEND 
//  #11 //009   ----------------------------------------
 BYTE   PATT
  POIN2 Label_018BFC72
//  #11 //010   ----------------------------------------
 BYTE   PATT
  POIN2 Label_018BFC72
//  #11 //011   ----------------------------------------
 BYTE   N24  As1  v100
 BYTE   W36
 BYTE   GoTo
  POIN2 Label_018BFC31
 BYTE   FINE

//******************************************************//
	ALIGN 4

song01F2:
	BYTE	11	// NumTrks
	BYTE	0	// NumBlks
	BYTE	song01F2_pri	// Priority
	BYTE	song01F2_rev	// Reverb.
    
	POIN2	song01F2_grp
    
	POIN2	song01F2_001
	POIN2	song01F2_002
	POIN2	song01F2_003
	POIN2	song01F2_004
	POIN2	song01F2_005
	POIN2	song01F2_006
	POIN2	song01F2_007
	POIN2	song01F2_008
	POIN2	song01F2_009
	POIN2	song01F2_010
	POIN2	song01F2_011

	
