//Event file generated from Sappy .s format.
	#include "MPlayDef.event"

	#define	song01F0_grp  voicegroup001
	#define	song01F0_pri  0
	#define	song01F0_rev  0
	#define	song01F0_mvl  127
	#define	song01F0_key  0
	#define	song01F0_tbs  1
	#define	song01F0_exg  0
	#define	song01F0_cmp  1

	// .rodata
	//	song01F0
	ALIGN 4


//**************** Track 1 (Midi-Chn.0) ****************//

song01F0_001:
// 000   ----------------------------------------
 BYTE   KEYSH   song01F0_key+0
Label_0_012730F2:
 BYTE   TEMPO   158*song01F0_tbs/2
 BYTE   VOICE   48
 BYTE   PAN   c_v+20
 BYTE   VOL   47*song01F0_mvl/mxv
 BYTE   N03  As3  v100
 BYTE   N03  As4
 BYTE   W06
 BYTE   As3
 BYTE   N03  As4
 BYTE   W06
 BYTE   An3
 BYTE   N03  An4
 BYTE   W06
 BYTE   As3
 BYTE   N03  As4
 BYTE   W06
 BYTE   Fn3
 BYTE   N03  Fn4
 BYTE   W06
 BYTE   Cs3
 BYTE   N03  Cs4
 BYTE   W06
 BYTE   N60  As2
 BYTE   N60  As3
 BYTE   W60
// 001   ----------------------------------------
 BYTE   N48  Fs3
 BYTE   N48  Fs4
 BYTE   W48
 BYTE   An3
 BYTE   N48  An4
 BYTE   W48
// 002   ----------------------------------------
 BYTE   W96
// 003   ----------------------------------------
 BYTE   N03  Dn3
 BYTE   N03  Dn4
 BYTE   W06
 BYTE   Dn3
 BYTE   N03  Dn4
 BYTE   W06
 BYTE   Cs3
 BYTE   N03  Cs4
 BYTE   W06
 BYTE   Dn3
 BYTE   N03  Dn4
 BYTE   W06
 BYTE   Ds3
 BYTE   N03  Ds4
 BYTE   W06
 BYTE   En3
 BYTE   N03  En4
 BYTE   W06
 BYTE   N60  Fn3
 BYTE   N60  Fn4
 BYTE   W60
// 004   ----------------------------------------
 BYTE   N48  Ds3
 BYTE   N48  Ds4
 BYTE   W48
 BYTE   Bn3
 BYTE   N48  Bn4
 BYTE   W48
// 005   ----------------------------------------
 BYTE   W54
 BYTE   N03  As2
 BYTE   N03  As3
 BYTE   W06
 BYTE   Bn2
 BYTE   N03  Bn3
 BYTE   W06
 BYTE   Ds3
 BYTE   N03  Ds4
 BYTE   W06
 BYTE   En3
 BYTE   N03  En4
 BYTE   W06
 BYTE   Fn3
 BYTE   N03  Fn4
 BYTE   W06
 BYTE   N18  Fs3
 BYTE   N18  Fs4
 BYTE   W12
// 006   ----------------------------------------
 BYTE   W06
 BYTE   N03  Fs3
 BYTE   N03  Fs4
 BYTE   W06
 BYTE   Fn3
 BYTE   N03  Fn4
 BYTE   W06
 BYTE   En3
 BYTE   N03  En4
 BYTE   W06
 BYTE   N72  Ds3
 BYTE   N72  Ds4
 BYTE   W72
// 007   ----------------------------------------
 BYTE   GoTo
  POIN2 Label_0_012730F2
 BYTE   FINE

//**************** Track 2 (Midi-Chn.1) ****************//

song01F0_002:
// 000   ----------------------------------------
 BYTE   KEYSH   song01F0_key+0
Label_1_01273322:
 BYTE   VOICE   48
 BYTE   PAN   c_v+6
 BYTE   VOL   47*song01F0_mvl/mxv
 BYTE   W48
 BYTE   N06  Gs3  v100
 BYTE   W06
 BYTE   As3
 BYTE   W06
 BYTE   Fn3
 BYTE   W06
 BYTE   Cs3
 BYTE   W06
 BYTE   N24  As2
 BYTE   W24
// 001   ----------------------------------------
Label_1_01273336:
 BYTE   N06  Bn1  v100
 BYTE   N06  Bn2
 BYTE   W12
 BYTE   Bn1  v080
 BYTE   N06  Bn2
 BYTE   W12
 BYTE   Bn1  v088
 BYTE   N06  Bn2
 BYTE   W12
 BYTE   Bn1  v092
 BYTE   N06  Bn2
 BYTE   W12
 BYTE   Bn1  v096
 BYTE   N06  Bn2
 BYTE   W12
 BYTE   Bn1  v100
 BYTE   N06  Bn2
 BYTE   W12
 BYTE   Bn1
 BYTE   N06  Bn2
 BYTE   W12
 BYTE   Bn1
 BYTE   N06  Bn2
 BYTE   W12
 BYTE   PEND 
// 002   ----------------------------------------
 BYTE   N18  As1
 BYTE   N18  As2
 BYTE   W96
// 003   ----------------------------------------
 BYTE   N48  As1
 BYTE   N48  As2
 BYTE   W48
 BYTE   N03
 BYTE   N03  As3
 BYTE   W06
 BYTE   An2
 BYTE   N03  An3
 BYTE   W06
 BYTE   Gs2
 BYTE   N03  Gs3
 BYTE   W06
 BYTE   Gn2
 BYTE   N03  Gn3
 BYTE   W06
 BYTE   Fs2
 BYTE   N03  Fs3
 BYTE   W06
 BYTE   Fn2
 BYTE   N03  Fn3
 BYTE   W06
 BYTE   Cs2
 BYTE   N03  Cs3
 BYTE   W06
 BYTE   An1
 BYTE   N03  An2
 BYTE   W06
// 004   ----------------------------------------
 BYTE   PATT
  POIN2 Label_1_01273336
// 005   ----------------------------------------
 BYTE   W12
 BYTE   N12  Fn2  v100
 BYTE   W12
 BYTE   As2
 BYTE   W12
 BYTE   Bn2
 BYTE   W60
// 006   ----------------------------------------
 BYTE   N06  Bn1
 BYTE   N06  Bn2
 BYTE   W06
 BYTE   As1
 BYTE   N06  As2
 BYTE   W06
 BYTE   An1
 BYTE   N06  An2
 BYTE   W06
 BYTE   Gs1
 BYTE   N06  Gs2
 BYTE   W06
 BYTE   N72  Gs1
 BYTE   N72  Gs2
 BYTE   W72
// 007   ----------------------------------------
 BYTE   GoTo
  POIN2 Label_1_01273322
 BYTE   FINE

//**************** Track 3 (Midi-Chn.2) ****************//

song01F0_003:
// 000   ----------------------------------------
 BYTE   KEYSH   song01F0_key+0
Label_2_01273212:
 BYTE   VOICE   58
 BYTE   PAN   c_v-1
 BYTE   VOL   56*song01F0_mvl/mxv
 BYTE   N96  As0  v100
 BYTE   W96
// 001   ----------------------------------------
 BYTE   W96
// 002   ----------------------------------------
 BYTE   W96
// 003   ----------------------------------------
 BYTE   W96
// 004   ----------------------------------------
 BYTE   W96
// 005   ----------------------------------------
 BYTE   N12
 BYTE   W96
// 006   ----------------------------------------
 BYTE   W96
// 007   ----------------------------------------
 BYTE   GoTo
  POIN2 Label_2_01273212
 BYTE   FINE

//**************** Track 4 (Midi-Chn.3) ****************//

song01F0_004:
// 000   ----------------------------------------
 BYTE   KEYSH   song01F0_key+0
Label_3_0127326E:
 BYTE   VOICE   57
 BYTE   VOL   49*song01F0_mvl/mxv
 BYTE   PAN   c_v-33
 BYTE   W96
// 001   ----------------------------------------
 BYTE   N06  Ds2  v100
 BYTE   W06
 BYTE   Fs2
 BYTE   W06
 BYTE   As2
 BYTE   W06
 BYTE   Bn2
 BYTE   W06
 BYTE   N48  Ds3
 BYTE   W72
// 002   ----------------------------------------
 BYTE   W96
// 003   ----------------------------------------
 BYTE   W96
// 004   ----------------------------------------
 BYTE   N06  Fs2
 BYTE   W06
 BYTE   N03  Bn2
 BYTE   W06
 BYTE   N03
 BYTE   W06
 BYTE   N30
 BYTE   W30
 BYTE   N48  Ds3
 BYTE   W48
// 005   ----------------------------------------
 BYTE   W12
 BYTE   N12  Fn2
 BYTE   W24
 BYTE   N06  Fs2
 BYTE   W06
 BYTE   N06
 BYTE   W06
 BYTE   N06
 BYTE   W06
 BYTE   N03  Bn2
 BYTE   W06
 BYTE   N03
 BYTE   W06
 BYTE   N06
 BYTE   W30
// 006   ----------------------------------------
 BYTE   W48
 BYTE   N12  Ds2
 BYTE   W24
 BYTE   N12
 BYTE   W24
// 007   ----------------------------------------
 BYTE   GoTo
  POIN2 Label_3_0127326E
 BYTE   FINE

//**************** Track 5 (Midi-Chn.4) ****************//

song01F0_005:
// 000   ----------------------------------------
 BYTE   KEYSH   song01F0_key+0
Label_4_012733B6:
 BYTE   VOICE   47
 BYTE   VOL   42*song01F0_mvl/mxv
 BYTE   PAN   c_v-44
 BYTE   N12  As2  v100
 BYTE   W36
 BYTE   N12
 BYTE   W48
 BYTE   N12
 BYTE   W12
// 001   ----------------------------------------
 BYTE   Cn3
 BYTE   W72
 BYTE   As2  v080
 BYTE   W24
// 002   ----------------------------------------
 BYTE   As2  v100
 BYTE   W24
 BYTE   N12
 BYTE   W12
 BYTE   N08  Fs2
 BYTE   W08
 BYTE   N04  Fs2  v080
 BYTE   W04
 BYTE   N12  As2  v100
 BYTE   W12
 BYTE   Fs2
 BYTE   W12
 BYTE   As2
 BYTE   W12
 BYTE   N08  Fs2
 BYTE   W08
 BYTE   N04  Fs2  v080
 BYTE   W04
// 003   ----------------------------------------
Label_4_012733E4:
 BYTE   N12  As2  v100
 BYTE   W24
 BYTE   N12
 BYTE   W12
 BYTE   Fs2
 BYTE   W12
 BYTE   As2
 BYTE   W12
 BYTE   Fs2
 BYTE   W12
 BYTE   As2
 BYTE   W12
 BYTE   Fs2
 BYTE   W12
 BYTE   PEND 
// 004   ----------------------------------------
 BYTE   PATT
  POIN2 Label_4_012733E4
// 005   ----------------------------------------
 BYTE   N12  As2  v100
 BYTE   W12
 BYTE   N12
 BYTE   W24
 BYTE   N12
 BYTE   W60
// 006   ----------------------------------------
 BYTE   W48
 BYTE   An2
 BYTE   W24
 BYTE   Fs2
 BYTE   W24
// 007   ----------------------------------------
 BYTE   GoTo
  POIN2 Label_4_012733B6
 BYTE   FINE

//**************** Track 6 (Midi-Chn.5) ****************//

song01F0_006:
// 000   ----------------------------------------
 BYTE   KEYSH   song01F0_key+0
Label_5_01273412:
 BYTE   VOICE   47
 BYTE   VOL   42*song01F0_mvl/mxv
 BYTE   PAN   c_v+43
 BYTE   N12  As1  v100
 BYTE   W36
 BYTE   N12
 BYTE   W48
 BYTE   N12
 BYTE   W12
// 001   ----------------------------------------
 BYTE   Cn2
 BYTE   W72
 BYTE   As1  v080
 BYTE   W24
// 002   ----------------------------------------
 BYTE   As1  v100
 BYTE   W24
 BYTE   N12
 BYTE   W12
 BYTE   N08  Fs1
 BYTE   W08
 BYTE   N04  Fs1  v080
 BYTE   W04
 BYTE   N12  As1  v100
 BYTE   W12
 BYTE   Fs1
 BYTE   W12
 BYTE   As1
 BYTE   W12
 BYTE   N08  Fs1
 BYTE   W08
 BYTE   N04  Fs1  v080
 BYTE   W04
// 003   ----------------------------------------
Label_5_01273440:
 BYTE   N12  As1  v100
 BYTE   W24
 BYTE   N12
 BYTE   W12
 BYTE   Fs1
 BYTE   W12
 BYTE   As1
 BYTE   W12
 BYTE   Fs1
 BYTE   W12
 BYTE   As1
 BYTE   W12
 BYTE   Fs1
 BYTE   W12
 BYTE   PEND 
// 004   ----------------------------------------
 BYTE   PATT
  POIN2 Label_5_01273440
// 005   ----------------------------------------
 BYTE   N12  As1  v100
 BYTE   W12
 BYTE   N12
 BYTE   W24
 BYTE   N12
 BYTE   W60
// 006   ----------------------------------------
 BYTE   W48
 BYTE   An1
 BYTE   W24
 BYTE   Fs1
 BYTE   W24
// 007   ----------------------------------------
 BYTE   GoTo
  POIN2 Label_5_01273412
 BYTE   FINE

//**************** Track 7 (Midi-Chn.6) ****************//

song01F0_007:
// 000   ----------------------------------------
 BYTE   KEYSH   song01F0_key+0
Label_6_012B83A2:
 BYTE   VOICE   36
 BYTE   VOL   33*song01F0_mvl/mxv
 BYTE   PAN   c_v-13
 BYTE   N24  Bn1  v108
 BYTE   W36
 BYTE   N36
 BYTE   W48
 BYTE   N09
 BYTE   W12
// 001   ----------------------------------------
 BYTE   N24  Cn2
 BYTE   W36
 BYTE   N36
 BYTE   W60
// 002   ----------------------------------------
 BYTE   W96
// 003   ----------------------------------------
 BYTE   N18  Bn1  v120
 BYTE   W36
 BYTE   N18
 BYTE   W36
 BYTE   N18
 BYTE   W24
// 004   ----------------------------------------
 BYTE   Cn2
 BYTE   W36
 BYTE   N18
 BYTE   W36
 BYTE   N18
 BYTE   W24
// 005   ----------------------------------------
 BYTE   N09  Bn1  v108
 BYTE   W12
 BYTE   Fs2
 BYTE   W12
 BYTE   Bn2
 BYTE   W12
 BYTE   N56  Cn3
 BYTE   W60
// 006   ----------------------------------------
 BYTE   N05
 BYTE   W06
 BYTE   Bn2
 BYTE   W06
 BYTE   As2
 BYTE   W06
 BYTE   N36  An2
 BYTE   W36
 BYTE   W03
 BYTE   N24  An1
 BYTE   W24
 BYTE   W03
 BYTE   N09
 BYTE   W12
// 007   ----------------------------------------
 BYTE   GoTo
  POIN2 Label_6_012B83A2
 BYTE   FINE

//**************** Track 8 (Midi-Chn.7) ****************//

song01F0_008:
// 000   ----------------------------------------
 BYTE   KEYSH   song01F0_key+0
Label_7_012B83EA:
 BYTE   VOICE   124
 BYTE   VOL   45*song01F0_mvl/mxv
 BYTE   PAN   c_v+0
 BYTE   N06  Fs1  v060
 BYTE   N30  Cs2  v108
 BYTE   W06
 BYTE   N06  Fs1  v028
 BYTE   W06
 BYTE   N06
 BYTE   W06
 BYTE   Fs1  v036
 BYTE   W06
 BYTE   Fs1  v060
 BYTE   W06
 BYTE   As1  v028
 BYTE   W06
 BYTE   Cn1  v108
 BYTE   N06  Fs1  v028
 BYTE   W06
 BYTE   N06
 BYTE   W06
 BYTE   Fs1  v060
 BYTE   W06
 BYTE   Fs1  v044
 BYTE   W06
 BYTE   N06
 BYTE   W06
 BYTE   Fs1  v036
 BYTE   W06
 BYTE   Fs1  v060
 BYTE   W06
 BYTE   Fs1  v032
 BYTE   W06
 BYTE   Cn1  v108
 BYTE   N06  As1  v032
 BYTE   W06
 BYTE   Fs1  v048
 BYTE   W06
// 001   ----------------------------------------
 BYTE   Cn1  v108
 BYTE   N06  Fs1  v060
 BYTE   W06
 BYTE   Fs1  v028
 BYTE   W06
 BYTE   N06
 BYTE   W06
 BYTE   Fs1  v036
 BYTE   W06
 BYTE   Fs1  v060
 BYTE   W06
 BYTE   As1  v028
 BYTE   W06
 BYTE   Cn1  v108
 BYTE   N06  Fs1  v028
 BYTE   W06
 BYTE   N06
 BYTE   W06
 BYTE   Fs1  v060
 BYTE   W06
 BYTE   Fs1  v044
 BYTE   W06
 BYTE   N06
 BYTE   W06
 BYTE   Fs1  v036
 BYTE   W06
 BYTE   Cn1  v108
 BYTE   N06  As1  v024
 BYTE   W06
 BYTE   As1  v036
 BYTE   W06
 BYTE   As1  v052
 BYTE   W06
 BYTE   As1  v060
 BYTE   W06
// 002   ----------------------------------------
 BYTE   Cn1  v108
 BYTE   N06  Fs1  v060
 BYTE   W12
 BYTE   Fs1  v028
 BYTE   W06
 BYTE   N06
 BYTE   W06
 BYTE   Cn1  v108
 BYTE   N06  Dn1  v112
 BYTE   W12
 BYTE   Fs1  v028
 BYTE   W06
 BYTE   N06
 BYTE   W06
 BYTE   Cn1  v108
 BYTE   N06  Fs1  v060
 BYTE   W12
 BYTE   Fs1  v028
 BYTE   W06
 BYTE   N06
 BYTE   W06
 BYTE   Cn1  v108
 BYTE   N06  Dn1  v072
 BYTE   W06
 BYTE   Dn1  v088
 BYTE   W06
 BYTE   Dn1  v100
 BYTE   W06
 BYTE   Dn1  v112
 BYTE   W06
// 003   ----------------------------------------
 BYTE   Fs1  v060
 BYTE   N30  Cs2  v108
 BYTE   W06
 BYTE   N06  Fs1  v028
 BYTE   W06
 BYTE   N06
 BYTE   W06
 BYTE   Fs1  v036
 BYTE   W06
 BYTE   Fs1  v060
 BYTE   W06
 BYTE   As1  v028
 BYTE   W06
 BYTE   Cn1  v108
 BYTE   N06  Fs1  v028
 BYTE   W06
 BYTE   N06
 BYTE   W06
 BYTE   Fs1  v060
 BYTE   W06
 BYTE   Fs1  v044
 BYTE   W06
 BYTE   As1
 BYTE   W06
 BYTE   Fs1  v036
 BYTE   W06
 BYTE   Cn1  v108
 BYTE   N06  Fs1  v060
 BYTE   W06
 BYTE   Fs1  v032
 BYTE   W06
 BYTE   N06
 BYTE   W06
 BYTE   As1
 BYTE   W06
// 004   ----------------------------------------
 BYTE   Cn1  v108
 BYTE   N06  Fs1  v060
 BYTE   W06
 BYTE   Fs1  v028
 BYTE   W06
 BYTE   As1
 BYTE   W06
 BYTE   Fs1  v036
 BYTE   W06
 BYTE   Fs1  v060
 BYTE   W06
 BYTE   Fs1  v028
 BYTE   W06
 BYTE   Cn1  v108
 BYTE   N06  Fs1  v028
 BYTE   W06
 BYTE   N06
 BYTE   W06
 BYTE   Fs1  v060
 BYTE   W06
 BYTE   Fs1  v044
 BYTE   W06
 BYTE   As1
 BYTE   W06
 BYTE   Fs1  v036
 BYTE   W06
 BYTE   Cn1  v108
 BYTE   N06  Fs1  v060
 BYTE   W06
 BYTE   As1  v032
 BYTE   W06
 BYTE   Fs1
 BYTE   W06
 BYTE   N06
 BYTE   W06
// 005   ----------------------------------------
 BYTE   Cn1  v108
 BYTE   N12  Cn2
 BYTE   W12
 BYTE   An1
 BYTE   W12
 BYTE   N06  Cn1
 BYTE   N12  Fn1
 BYTE   W12
 BYTE   N36  Cs2
 BYTE   W12
 BYTE   N06  Cn1
 BYTE   W24
 BYTE   N06
 BYTE   N06  Cn2
 BYTE   W06
 BYTE   An1
 BYTE   W06
 BYTE   Fn1
 BYTE   W06
 BYTE   N06
 BYTE   W06
// 006   ----------------------------------------
 BYTE   Cn1
 BYTE   N06  Fs1  v060
 BYTE   W24
 BYTE   Cn1  v108
 BYTE   N06  Fs1  v060
 BYTE   W24
 BYTE   Cn1  v108
 BYTE   N06  Fs1  v060
 BYTE   W06
 BYTE   Cn2  v108
 BYTE   W06
 BYTE   An1
 BYTE   W06
 BYTE   Fn1
 BYTE   W06
 BYTE   Cn1
 BYTE   N06  As1  v044
 BYTE   W06
 BYTE   As1  v052
 BYTE   W06
 BYTE   As1  v064
 BYTE   W06
 BYTE   As1  v076
 BYTE   W06
// 007   ----------------------------------------
 BYTE   GoTo
  POIN2 Label_7_012B83EA
 BYTE   FINE

//******************************************************//
	ALIGN 4

song01F0:
	BYTE	8	// NumTrks
	BYTE	0	// NumBlks
	BYTE	song01F0_pri	// Priority
	BYTE	song01F0_rev	// Reverb.
    
	POIN2	song01F0_grp
    
	POIN2	song01F0_001
	POIN2	song01F0_002
	POIN2	song01F0_003
	POIN2	song01F0_004
	POIN2	song01F0_005
	POIN2	song01F0_006
	POIN2	song01F0_007
	POIN2	song01F0_008

	
