//Event file generated from Sappy .s format.
	#include "MPlayDef.event"

	#define	L_FE11_Together_We_Ride_grp  voicegroup001
	#define	L_FE11_Together_We_Ride_pri  0
	#define	L_FE11_Together_We_Ride_rev  0
	#define	L_FE11_Together_We_Ride_mvl  127
	#define	L_FE11_Together_We_Ride_key  0
	#define	L_FE11_Together_We_Ride_tbs  1
	#define	L_FE11_Together_We_Ride_exg  0
	#define	L_FE11_Together_We_Ride_cmp  1

	// .rodata
	//	L_FE11_Together_We_Ride
	ALIGN 4

//**************** Track 1 (Midi-Chn.1) ****************//

L_FE11_Together_We_Ride_1:
	BYTE	KEYSH   L_FE11_Together_We_Ride_key+0
// 000   ----------------------------------------
	BYTE	TEMPO   195*L_FE11_Together_We_Ride_tbs/2
	BYTE		VOICE   57
	BYTE		VOL     57*L_FE11_Together_We_Ride_mvl/mxv
	BYTE		PAN     c_v-26
	BYTE	W96
L_FE11_Together_We_Ride_1_B1:
// 001   ----------------------------------------
L_FE11_Together_We_Ride_1_001:
	BYTE		N36     An3   v064
	BYTE	W36
	BYTE		N12   
	BYTE	W12
	BYTE		        An3   v036
	BYTE	W12
	BYTE		        An3   v064
	BYTE	W12
	BYTE		        An3   v036
	BYTE	W12
	BYTE		        An3   v064
	BYTE	W12
	BYTE	PEND
// 002   ----------------------------------------
	BYTE		        An3   v036
	BYTE		N36     As3   v064
	BYTE	W36
	BYTE		N12   
	BYTE	W12
	BYTE		        As3   v036
	BYTE	W12
	BYTE		        As3   v064
	BYTE	W12
	BYTE		        As3   v036
	BYTE	W12
	BYTE		        As3   v064
	BYTE	W12
// 003   ----------------------------------------
	BYTE		        As3   v036
	BYTE		N36     Cn4   v064
	BYTE	W36
	BYTE		N12   
	BYTE	W12
	BYTE		        Cn4   v036
	BYTE	W12
	BYTE		        Cn4   v064
	BYTE	W12
	BYTE		        Cn4   v036
	BYTE	W12
	BYTE		        Cn4   v064
	BYTE	W12
// 004   ----------------------------------------
	BYTE		N36     As3 
	BYTE		N12     Cn4   v036
	BYTE	W36
	BYTE		        As3   v064
	BYTE	W12
	BYTE		        As3   v036
	BYTE	W12
	BYTE		        As3   v064
	BYTE	W12
	BYTE		        As3   v036
	BYTE	W12
	BYTE		        As3   v064
	BYTE	W12
// 005   ----------------------------------------
	BYTE		N36     An3 
	BYTE		N12     As3   v036
	BYTE	W36
	BYTE		        An3   v064
	BYTE	W12
	BYTE		        An3   v036
	BYTE	W12
	BYTE		        An3   v064
	BYTE	W12
	BYTE		        An3   v036
	BYTE	W12
	BYTE		        An3   v064
	BYTE	W12
// 006   ----------------------------------------
	BYTE	PATT
	 POIN2	L_FE11_Together_We_Ride_1_001
// 007   ----------------------------------------
	BYTE		N12     An3   v064
	BYTE		N36     En4 
	BYTE	W36
	BYTE		N12     An3 
	BYTE		N12     En4 
	BYTE	W12
	BYTE		        En4   v036
	BYTE	W12
	BYTE		        An3   v064
	BYTE		N12     En4 
	BYTE	W12
	BYTE		        En4   v036
	BYTE	W12
	BYTE		        An3   v064
	BYTE		N12     En4 
	BYTE	W12
// 008   ----------------------------------------
	BYTE		N36     As3 
	BYTE		N12     En4   v036
	BYTE		N36     Fn4   v064
	BYTE	W36
	BYTE		N12     As3 
	BYTE		N12     Fn4 
	BYTE	W12
	BYTE		        Fn4   v036
	BYTE	W12
	BYTE		        As3   v064
	BYTE		N12     Fn4 
	BYTE	W12
	BYTE		        Fn4   v036
	BYTE	W12
	BYTE		        As3   v064
	BYTE		N12     Fn4 
	BYTE	W12
// 009   ----------------------------------------
	BYTE		N36     Cn4 
	BYTE		N12     Fn4   v036
	BYTE		N36     Gn4   v064
	BYTE	W36
	BYTE		N12     Cn4 
	BYTE		N12     Gn4 
	BYTE	W12
	BYTE		        Gn4   v036
	BYTE	W12
	BYTE		        Cn4   v064
	BYTE		N12     Gn4 
	BYTE	W12
	BYTE		        Gn4   v036
	BYTE	W12
	BYTE		        Cn4   v064
	BYTE		N12     Gn4 
	BYTE	W12
// 010   ----------------------------------------
	BYTE		N36     As3 
	BYTE		N36     Fn4 
	BYTE	W36
	BYTE		N12     As3 
	BYTE		N12     Fn4 
	BYTE	W12
	BYTE		        Fn4   v036
	BYTE	W12
	BYTE		        As3   v064
	BYTE		N12     Fn4 
	BYTE	W12
	BYTE		        Fn4   v036
	BYTE	W12
	BYTE		        As3   v064
	BYTE		N12     Fn4 
	BYTE	W12
// 011   ----------------------------------------
	BYTE		N36     An3 
	BYTE		N36     En4 
	BYTE		N12     Fn4   v036
	BYTE	W36
	BYTE		        An3   v064
	BYTE		N12     En4 
	BYTE	W12
	BYTE		        En4   v036
	BYTE	W12
	BYTE		        An3   v064
	BYTE		N12     En4 
	BYTE	W12
	BYTE		        En4   v036
	BYTE	W12
	BYTE		        An3   v064
	BYTE		N12     En4 
	BYTE	W12
// 012   ----------------------------------------
	BYTE		        En4   v036
	BYTE		N12     An4   v064
	BYTE	W12
	BYTE		        An4   v056
	BYTE	W12
	BYTE		        An4   v044
	BYTE	W12
	BYTE		        An4   v036
	BYTE	W12
	BYTE		        An4   v044
	BYTE	W12
	BYTE		        An4   v056
	BYTE	W12
	BYTE		N24     En4   v064
	BYTE	W24
// 013   ----------------------------------------
	BYTE		N48     Fn4 
	BYTE		N48     An4 
	BYTE	W48
	BYTE		N12     En4 
	BYTE	W12
	BYTE		        Dn4 
	BYTE	W12
	BYTE		        En4 
	BYTE	W12
	BYTE		N48     Fn4 
	BYTE		N48     An4 
	BYTE	W12
// 014   ----------------------------------------
L_FE11_Together_We_Ride_1_014:
	BYTE	W36
	BYTE		N12     Fn4   v036
	BYTE		N12     An4 
	BYTE	W12
	BYTE		        En4   v064
	BYTE	W12
	BYTE		        Dn4 
	BYTE	W12
	BYTE		        En4 
	BYTE	W12
	BYTE		N48     Fn4 
	BYTE		N48     An4 
	BYTE	W12
	BYTE	PEND
// 015   ----------------------------------------
L_FE11_Together_We_Ride_1_015:
	BYTE	W36
	BYTE		N12     Fn4   v036
	BYTE		N12     An4 
	BYTE	W12
	BYTE		        En4   v064
	BYTE	W12
	BYTE		        Dn4 
	BYTE	W12
	BYTE		        En4 
	BYTE	W12
	BYTE		        An4 
	BYTE	W12
	BYTE	PEND
// 016   ----------------------------------------
	BYTE		        En4 
	BYTE		N12     Gn4 
	BYTE	W12
	BYTE		        Fn4 
	BYTE		N12     An4 
	BYTE	W12
	BYTE		        En4 
	BYTE		N12     Gn4 
	BYTE	W12
	BYTE		        Dn4 
	BYTE		N12     Fn4 
	BYTE	W12
	BYTE		        Cs4 
	BYTE		N12     En4 
	BYTE	W12
	BYTE		        Bn3 
	BYTE		N12     Dn4 
	BYTE	W12
	BYTE		        An3 
	BYTE		N12     Cs4 
	BYTE	W12
	BYTE		N12   
	BYTE		N12     En4 
	BYTE	W12
// 017   ----------------------------------------
	BYTE		N48     Dn4 
	BYTE		N48     Fn4 
	BYTE	W48
	BYTE		N12     En4 
	BYTE	W12
	BYTE		        Dn4 
	BYTE	W12
	BYTE		        En4 
	BYTE	W12
	BYTE		N48     Fn4 
	BYTE		N48     An4 
	BYTE	W12
// 018   ----------------------------------------
	BYTE	PATT
	 POIN2	L_FE11_Together_We_Ride_1_014
// 019   ----------------------------------------
	BYTE	PATT
	 POIN2	L_FE11_Together_We_Ride_1_015
// 020   ----------------------------------------
	BYTE		N12     Fn4   v064
	BYTE		N12     An4 
	BYTE	W12
	BYTE		        Gn4 
	BYTE		N12     As4 
	BYTE	W12
	BYTE		        Fn4 
	BYTE		N12     An4 
	BYTE	W12
	BYTE		        En4 
	BYTE		N12     Gn4 
	BYTE	W12
	BYTE		        Fn4 
	BYTE		N12     An4 
	BYTE	W12
	BYTE		        En4 
	BYTE		N12     Gn4 
	BYTE	W12
	BYTE		        Dn4 
	BYTE		N12     Fn4 
	BYTE	W12
	BYTE		        Cs4 
	BYTE		N12     En4 
	BYTE	W12
// 021   ----------------------------------------
	BYTE		N36     An3 
	BYTE	W36
	BYTE		N12     An3   v036
	BYTE	W12
	BYTE		        Fn4   v064
	BYTE	W12
	BYTE		        En4 
	BYTE	W12
	BYTE		        Dn4 
	BYTE	W12
	BYTE		N48     An3 
	BYTE	W12
// 022   ----------------------------------------
	BYTE	W36
	BYTE		N12     An3   v036
	BYTE	W12
	BYTE		        Fn4   v064
	BYTE	W12
	BYTE		        En4 
	BYTE	W12
	BYTE		        Dn4 
	BYTE	W12
	BYTE		N60     An3 
	BYTE	W12
// 023   ----------------------------------------
	BYTE	W48
	BYTE		N12     An3   v036
	BYTE		N12     Fn4   v064
	BYTE	W12
	BYTE		        En4 
	BYTE	W12
	BYTE		        Dn4 
	BYTE	W12
	BYTE		        An3 
	BYTE	W12
// 024   ----------------------------------------
	BYTE		N24   
	BYTE	W24
	BYTE		N12     An3   v036
	BYTE	W12
	BYTE		N24     An3   v064
	BYTE	W24
	BYTE		N12     An3   v036
	BYTE	W12
	BYTE		N24     Dn4   v064
	BYTE	W24
	BYTE	GoTo
	 POIN2	L_FE11_Together_We_Ride_1_B1
L_FE11_Together_We_Ride_1_B2:
// 025   ----------------------------------------
	BYTE	FINE

//**************** Track 2 (Midi-Chn.2) ****************//

L_FE11_Together_We_Ride_2:
	BYTE	KEYSH   L_FE11_Together_We_Ride_key+0
// 000   ----------------------------------------
	BYTE		VOICE   40
	BYTE		VOL     57*L_FE11_Together_We_Ride_mvl/mxv
	BYTE		PAN     c_v+25
	BYTE	W96
L_FE11_Together_We_Ride_2_B1:
// 001   ----------------------------------------
	BYTE	W96
// 002   ----------------------------------------
	BYTE	W96
// 003   ----------------------------------------
	BYTE	W96
// 004   ----------------------------------------
	BYTE	W96
// 005   ----------------------------------------
	BYTE	W96
// 006   ----------------------------------------
	BYTE	W96
// 007   ----------------------------------------
	BYTE	W96
// 008   ----------------------------------------
	BYTE	W96
// 009   ----------------------------------------
	BYTE	W96
// 010   ----------------------------------------
	BYTE	W96
// 011   ----------------------------------------
	BYTE	W96
// 012   ----------------------------------------
	BYTE	W72
	BYTE		N24     En4   v064
	BYTE	W24
// 013   ----------------------------------------
L_FE11_Together_We_Ride_2_013:
	BYTE		N12     En4   v064
	BYTE	W12
	BYTE		        Dn4 
	BYTE	W12
	BYTE		        En4 
	BYTE	W12
	BYTE		N48     Fn4 
	BYTE	W48
	BYTE		N12     Fn4   v036
	BYTE	W12
	BYTE	PEND
// 014   ----------------------------------------
	BYTE	PATT
	 POIN2	L_FE11_Together_We_Ride_2_013
// 015   ----------------------------------------
	BYTE	PATT
	 POIN2	L_FE11_Together_We_Ride_2_013
// 016   ----------------------------------------
	BYTE	W96
// 017   ----------------------------------------
	BYTE	PATT
	 POIN2	L_FE11_Together_We_Ride_2_013
// 018   ----------------------------------------
	BYTE	PATT
	 POIN2	L_FE11_Together_We_Ride_2_013
// 019   ----------------------------------------
	BYTE	PATT
	 POIN2	L_FE11_Together_We_Ride_2_013
// 020   ----------------------------------------
	BYTE	W96
// 021   ----------------------------------------
L_FE11_Together_We_Ride_2_021:
	BYTE		N12     Fn4   v064
	BYTE	W12
	BYTE		        En4 
	BYTE	W12
	BYTE		        Dn4 
	BYTE	W12
	BYTE		N48     An3 
	BYTE	W48
	BYTE		N12     An3   v036
	BYTE	W12
	BYTE	PEND
// 022   ----------------------------------------
	BYTE	PATT
	 POIN2	L_FE11_Together_We_Ride_2_021
// 023   ----------------------------------------
	BYTE		N12     Fn4   v064
	BYTE	W12
	BYTE		        En4 
	BYTE	W12
	BYTE		        Dn4 
	BYTE	W12
	BYTE		N36     Cn4 
	BYTE	W36
	BYTE		N12     Cn4   v036
	BYTE		N24     En4   v064
	BYTE	W24
// 024   ----------------------------------------
	BYTE		N36   
	BYTE	W36
	BYTE		        Dn4 
	BYTE		N12     En4   v036
	BYTE	W36
	BYTE		        Dn4 
	BYTE		N24     An4   v064
	BYTE	W24
	BYTE	GoTo
	 POIN2	L_FE11_Together_We_Ride_2_B1
L_FE11_Together_We_Ride_2_B2:
// 025   ----------------------------------------
	BYTE	FINE

//**************** Track 3 (Midi-Chn.3) ****************//

L_FE11_Together_We_Ride_3:
	BYTE	KEYSH   L_FE11_Together_We_Ride_key+0
// 000   ----------------------------------------
	BYTE		VOICE   41
	BYTE		VOL     57*L_FE11_Together_We_Ride_mvl/mxv
	BYTE		PAN     c_v+25
	BYTE	W96
L_FE11_Together_We_Ride_3_B1:
// 001   ----------------------------------------
	BYTE		N96     An2   v056
	BYTE	W96
// 002   ----------------------------------------
	BYTE		        As2 
	BYTE	W96
// 003   ----------------------------------------
	BYTE		        Cn3 
	BYTE	W96
// 004   ----------------------------------------
	BYTE		        As2 
	BYTE	W96
// 005   ----------------------------------------
	BYTE		TIE     An2 
	BYTE	W96
// 006   ----------------------------------------
	BYTE	W96
	BYTE		EOT   
// 007   ----------------------------------------
	BYTE		N96     En3   v064
	BYTE		N36     En4 
	BYTE	W36
	BYTE		N12   
	BYTE	W12
	BYTE		        En4   v036
	BYTE	W12
	BYTE		        En4   v064
	BYTE	W12
	BYTE		        En4   v036
	BYTE	W12
	BYTE		        En4   v064
	BYTE	W12
// 008   ----------------------------------------
	BYTE		N96     Fn3 
	BYTE		N12     En4   v036
	BYTE		N36     Fn4   v064
	BYTE	W36
	BYTE		N12   
	BYTE	W12
	BYTE		        Fn4   v036
	BYTE	W12
	BYTE		        Fn4   v064
	BYTE	W12
	BYTE		        Fn4   v036
	BYTE	W12
	BYTE		        Fn4   v064
	BYTE	W12
// 009   ----------------------------------------
	BYTE		N96     Gn3 
	BYTE		N12     Fn4   v036
	BYTE		N36     Gn4   v064
	BYTE	W36
	BYTE		N12   
	BYTE	W12
	BYTE		        Gn4   v036
	BYTE	W12
	BYTE		        Gn4   v064
	BYTE	W12
	BYTE		        Gn4   v036
	BYTE	W12
	BYTE		        Gn4   v064
	BYTE	W12
// 010   ----------------------------------------
	BYTE		N96     As3 
	BYTE		N36     Fn4 
	BYTE		N12     Gn4   v036
	BYTE	W36
	BYTE		        Fn4   v064
	BYTE	W12
	BYTE		        Fn4   v036
	BYTE	W12
	BYTE		        Fn4   v064
	BYTE	W12
	BYTE		        Fn4   v036
	BYTE	W12
	BYTE		        Fn4   v064
	BYTE	W12
// 011   ----------------------------------------
	BYTE		N36     An3 
	BYTE		N36     En4 
	BYTE		N12     Fn4   v036
	BYTE	W36
	BYTE		        An3   v064
	BYTE		N12     En4 
	BYTE	W12
	BYTE		        En4   v036
	BYTE	W12
	BYTE		        An3   v064
	BYTE		N12     En4 
	BYTE	W12
	BYTE		        An2 
	BYTE		N12     An3 
	BYTE		N12     En4   v036
	BYTE	W12
	BYTE		N03     An3   v064
	BYTE	W03
	BYTE		        Cn4 
	BYTE	W03
	BYTE		        En4 
	BYTE	W03
	BYTE		        Gn4 
	BYTE	W03
// 012   ----------------------------------------
	BYTE		N18     Cn4 
	BYTE		N12     En4   v036
	BYTE		N24     An4   v064
	BYTE	W24
	BYTE		N18     Cn4   v044
	BYTE		N24     An4 
	BYTE	W24
	BYTE		N18     Cn4   v036
	BYTE		N24     An4 
	BYTE	W24
	BYTE		N18     Cn4   v044
	BYTE		N24     En4   v064
	BYTE	W24
// 013   ----------------------------------------
	BYTE	W96
// 014   ----------------------------------------
	BYTE	W96
// 015   ----------------------------------------
	BYTE	W96
// 016   ----------------------------------------
	BYTE		N12     Gn4 
	BYTE	W12
	BYTE		        An4 
	BYTE	W12
	BYTE		        Gn4 
	BYTE	W12
	BYTE		        Fn4 
	BYTE	W12
	BYTE		        En4 
	BYTE	W12
	BYTE		        Dn4 
	BYTE	W12
	BYTE		        Cs4 
	BYTE	W12
	BYTE		        En4 
	BYTE	W12
// 017   ----------------------------------------
	BYTE	W96
// 018   ----------------------------------------
	BYTE	W96
// 019   ----------------------------------------
	BYTE	W96
// 020   ----------------------------------------
	BYTE		        An4 
	BYTE	W12
	BYTE		        As4 
	BYTE	W12
	BYTE		        An4 
	BYTE	W12
	BYTE		        Gn4 
	BYTE	W12
	BYTE		        An4 
	BYTE	W12
	BYTE		        Gn4 
	BYTE	W12
	BYTE		        Fn4 
	BYTE	W12
	BYTE		        En4 
	BYTE	W12
// 021   ----------------------------------------
	BYTE	W96
// 022   ----------------------------------------
	BYTE	W96
// 023   ----------------------------------------
	BYTE	W96
// 024   ----------------------------------------
	BYTE	W96
	BYTE	GoTo
	 POIN2	L_FE11_Together_We_Ride_3_B1
L_FE11_Together_We_Ride_3_B2:
// 025   ----------------------------------------
	BYTE	FINE

//**************** Track 4 (Midi-Chn.4) ****************//

L_FE11_Together_We_Ride_4:
	BYTE	KEYSH   L_FE11_Together_We_Ride_key+0
// 000   ----------------------------------------
	BYTE		VOICE   40
	BYTE		VOL     57*L_FE11_Together_We_Ride_mvl/mxv
	BYTE		PAN     c_v-26
	BYTE	W96
L_FE11_Together_We_Ride_4_B1:
// 001   ----------------------------------------
	BYTE	W96
// 002   ----------------------------------------
	BYTE	W96
// 003   ----------------------------------------
	BYTE	W96
// 004   ----------------------------------------
	BYTE	W96
// 005   ----------------------------------------
	BYTE	W96
// 006   ----------------------------------------
	BYTE	W96
// 007   ----------------------------------------
	BYTE		N96     An3   v056
	BYTE	W96
// 008   ----------------------------------------
	BYTE		        As3 
	BYTE	W96
// 009   ----------------------------------------
	BYTE		        Cn4 
	BYTE	W96
// 010   ----------------------------------------
	BYTE		        As3 
	BYTE	W96
// 011   ----------------------------------------
	BYTE		        An3 
	BYTE	W96
// 012   ----------------------------------------
	BYTE	W96
// 013   ----------------------------------------
	BYTE	W96
// 014   ----------------------------------------
	BYTE	W96
// 015   ----------------------------------------
	BYTE	W96
// 016   ----------------------------------------
	BYTE	W96
// 017   ----------------------------------------
	BYTE	W96
// 018   ----------------------------------------
	BYTE	W96
// 019   ----------------------------------------
	BYTE	W96
// 020   ----------------------------------------
	BYTE	W96
// 021   ----------------------------------------
	BYTE	W96
// 022   ----------------------------------------
	BYTE	W96
// 023   ----------------------------------------
	BYTE	W96
// 024   ----------------------------------------
	BYTE	W96
	BYTE	GoTo
	 POIN2	L_FE11_Together_We_Ride_4_B1
L_FE11_Together_We_Ride_4_B2:
// 025   ----------------------------------------
	BYTE	FINE

//**************** Track 5 (Midi-Chn.5) ****************//

L_FE11_Together_We_Ride_5:
	BYTE	KEYSH   L_FE11_Together_We_Ride_key+0
// 000   ----------------------------------------
	BYTE		VOICE   31
	BYTE		VOL     57*L_FE11_Together_We_Ride_mvl/mxv
	BYTE	W72
	BYTE		N48     Gs2   v064
	BYTE		N36     Bn2 
	BYTE	W24
L_FE11_Together_We_Ride_5_B1:
// 001   ----------------------------------------
	BYTE	W96
// 002   ----------------------------------------
	BYTE	W96
// 003   ----------------------------------------
	BYTE	W96
// 004   ----------------------------------------
	BYTE	W96
// 005   ----------------------------------------
	BYTE	W96
// 006   ----------------------------------------
	BYTE	W96
// 007   ----------------------------------------
	BYTE	W96
// 008   ----------------------------------------
	BYTE	W96
// 009   ----------------------------------------
	BYTE	W96
// 010   ----------------------------------------
	BYTE	W96
// 011   ----------------------------------------
	BYTE	W96
// 012   ----------------------------------------
	BYTE	W96
// 013   ----------------------------------------
	BYTE	W96
// 014   ----------------------------------------
	BYTE	W96
// 015   ----------------------------------------
	BYTE	W96
// 016   ----------------------------------------
	BYTE	W96
// 017   ----------------------------------------
	BYTE	W96
// 018   ----------------------------------------
	BYTE	W96
// 019   ----------------------------------------
	BYTE	W96
// 020   ----------------------------------------
	BYTE	W96
// 021   ----------------------------------------
	BYTE	W96
// 022   ----------------------------------------
	BYTE	W96
// 023   ----------------------------------------
	BYTE	W96
// 024   ----------------------------------------
	BYTE	W96
	BYTE	GoTo
	 POIN2	L_FE11_Together_We_Ride_5_B1
L_FE11_Together_We_Ride_5_B2:
// 025   ----------------------------------------
	BYTE	FINE

//**************** Track 6 (Midi-Chn.6) ****************//

L_FE11_Together_We_Ride_6:
	BYTE	KEYSH   L_FE11_Together_We_Ride_key+0
// 000   ----------------------------------------
	BYTE		VOICE   42
	BYTE		VOL     57*L_FE11_Together_We_Ride_mvl/mxv
	BYTE		PAN     c_v+0
	BYTE	W96
L_FE11_Together_We_Ride_6_B1:
// 001   ----------------------------------------
	BYTE	W96
// 002   ----------------------------------------
	BYTE	W96
// 003   ----------------------------------------
	BYTE	W96
// 004   ----------------------------------------
	BYTE	W96
// 005   ----------------------------------------
	BYTE	W96
// 006   ----------------------------------------
	BYTE	W96
// 007   ----------------------------------------
	BYTE	W96
// 008   ----------------------------------------
	BYTE	W96
// 009   ----------------------------------------
	BYTE	W96
// 010   ----------------------------------------
	BYTE	W96
// 011   ----------------------------------------
	BYTE	W96
// 012   ----------------------------------------
	BYTE	W96
// 013   ----------------------------------------
	BYTE		TIE     Fn3   v064
	BYTE	W96
// 014   ----------------------------------------
	BYTE	W96
// 015   ----------------------------------------
	BYTE	W96
	BYTE		EOT   
// 016   ----------------------------------------
	BYTE		N96     En3 
	BYTE		N12     Fn3   v036
	BYTE	W96
// 017   ----------------------------------------
	BYTE		        En3 
	BYTE		TIE     Fn3   v064
	BYTE	W96
// 018   ----------------------------------------
	BYTE	W96
// 019   ----------------------------------------
	BYTE	W96
	BYTE		EOT   
// 020   ----------------------------------------
	BYTE		N12     Fn3   v036
	BYTE		N96     Gn3   v064
	BYTE	W96
// 021   ----------------------------------------
	BYTE		N12     Gn3   v036
	BYTE		TIE     An3   v064
	BYTE	W96
// 022   ----------------------------------------
	BYTE	W96
// 023   ----------------------------------------
	BYTE	W96
	BYTE		EOT   
// 024   ----------------------------------------
	BYTE		N12     An3   v036
	BYTE	W96
	BYTE	GoTo
	 POIN2	L_FE11_Together_We_Ride_6_B1
L_FE11_Together_We_Ride_6_B2:
// 025   ----------------------------------------
	BYTE	FINE

//**************** Track 7 (Midi-Chn.7) ****************//

L_FE11_Together_We_Ride_7:
	BYTE	KEYSH   L_FE11_Together_We_Ride_key+0
// 000   ----------------------------------------
	BYTE		VOICE   30
	BYTE		VOL     70*L_FE11_Together_We_Ride_mvl/mxv
	BYTE		PAN     c_v-13
	BYTE	W96
L_FE11_Together_We_Ride_7_B1:
// 001   ----------------------------------------
L_FE11_Together_We_Ride_7_001:
	BYTE	W24
	BYTE		N12     An2   v064
	BYTE	W36
	BYTE		N12   
	BYTE	W24
	BYTE		N12   
	BYTE	W12
	BYTE	PEND
// 002   ----------------------------------------
	BYTE	PATT
	 POIN2	L_FE11_Together_We_Ride_7_001
// 003   ----------------------------------------
	BYTE	PATT
	 POIN2	L_FE11_Together_We_Ride_7_001
// 004   ----------------------------------------
	BYTE	PATT
	 POIN2	L_FE11_Together_We_Ride_7_001
// 005   ----------------------------------------
	BYTE	PATT
	 POIN2	L_FE11_Together_We_Ride_7_001
// 006   ----------------------------------------
	BYTE	W12
	BYTE		N12     An2   v064
	BYTE	W24
	BYTE		BEND    c_v-48
	BYTE		N24     Ds3 
	BYTE	W12
	BYTE		BEND    c_v+0
	BYTE	W06
	BYTE		        c_v-8
	BYTE	W06
	BYTE		        c_v-16
	BYTE		N12     Dn3 
	BYTE	W06
	BYTE		BEND    c_v+0
	BYTE	W06
	BYTE		N12     Cn3 
	BYTE	W12
	BYTE		        Dn3 
	BYTE	W12
// 007   ----------------------------------------
	BYTE	PATT
	 POIN2	L_FE11_Together_We_Ride_7_001
// 008   ----------------------------------------
	BYTE	PATT
	 POIN2	L_FE11_Together_We_Ride_7_001
// 009   ----------------------------------------
	BYTE	PATT
	 POIN2	L_FE11_Together_We_Ride_7_001
// 010   ----------------------------------------
	BYTE	PATT
	 POIN2	L_FE11_Together_We_Ride_7_001
// 011   ----------------------------------------
	BYTE	PATT
	 POIN2	L_FE11_Together_We_Ride_7_001
// 012   ----------------------------------------
	BYTE	W96
// 013   ----------------------------------------
L_FE11_Together_We_Ride_7_013:
	BYTE		N24     Dn2   v064
	BYTE	W36
	BYTE		N24   
	BYTE	W36
	BYTE		N24   
	BYTE	W24
	BYTE	PEND
// 014   ----------------------------------------
L_FE11_Together_We_Ride_7_014:
	BYTE		N24     As1   v064
	BYTE	W36
	BYTE		N24   
	BYTE	W36
	BYTE		N24   
	BYTE	W24
	BYTE	PEND
// 015   ----------------------------------------
L_FE11_Together_We_Ride_7_015:
	BYTE		N24     Gn1   v064
	BYTE	W36
	BYTE		N24   
	BYTE	W36
	BYTE		N24   
	BYTE	W24
	BYTE	PEND
// 016   ----------------------------------------
	BYTE		N12     An1 
	BYTE	W12
	BYTE		N09     An2 
	BYTE	W12
	BYTE		        Fn2 
	BYTE	W12
	BYTE		        Dn2 
	BYTE	W12
	BYTE		        An1 
	BYTE	W12
	BYTE		        Cn2 
	BYTE	W12
	BYTE		N12     An1 
	BYTE	W12
	BYTE		        Ds2 
	BYTE	W12
// 017   ----------------------------------------
	BYTE	PATT
	 POIN2	L_FE11_Together_We_Ride_7_013
// 018   ----------------------------------------
	BYTE	PATT
	 POIN2	L_FE11_Together_We_Ride_7_014
// 019   ----------------------------------------
	BYTE	PATT
	 POIN2	L_FE11_Together_We_Ride_7_015
// 020   ----------------------------------------
	BYTE		N24     An1   v064
	BYTE	W36
	BYTE		N24   
	BYTE	W36
	BYTE		N24   
	BYTE	W24
// 021   ----------------------------------------
	BYTE	PATT
	 POIN2	L_FE11_Together_We_Ride_7_013
// 022   ----------------------------------------
	BYTE		N24     Cn2   v064
	BYTE	W36
	BYTE		N24   
	BYTE	W36
	BYTE		N24   
	BYTE	W24
// 023   ----------------------------------------
	BYTE	PATT
	 POIN2	L_FE11_Together_We_Ride_7_014
// 024   ----------------------------------------
	BYTE	PATT
	 POIN2	L_FE11_Together_We_Ride_7_014
	BYTE	GoTo
	 POIN2	L_FE11_Together_We_Ride_7_B1
L_FE11_Together_We_Ride_7_B2:
// 025   ----------------------------------------
	BYTE	FINE

//**************** Track 8 (Midi-Chn.8) ****************//

L_FE11_Together_We_Ride_8:
	BYTE	KEYSH   L_FE11_Together_We_Ride_key+0
// 000   ----------------------------------------
	BYTE		VOICE   28
	BYTE		VOL     57*L_FE11_Together_We_Ride_mvl/mxv
	BYTE		PAN     c_v+12
	BYTE	W96
L_FE11_Together_We_Ride_8_B1:
// 001   ----------------------------------------
L_FE11_Together_We_Ride_8_001:
	BYTE		N09     An1   v056
	BYTE	W12
	BYTE		N09   
	BYTE	W24
	BYTE		N09   
	BYTE	W12
	BYTE		N09   
	BYTE	W24
	BYTE		N09   
	BYTE	W24
	BYTE	PEND
// 002   ----------------------------------------
	BYTE	PATT
	 POIN2	L_FE11_Together_We_Ride_8_001
// 003   ----------------------------------------
	BYTE	PATT
	 POIN2	L_FE11_Together_We_Ride_8_001
// 004   ----------------------------------------
	BYTE	PATT
	 POIN2	L_FE11_Together_We_Ride_8_001
// 005   ----------------------------------------
	BYTE	PATT
	 POIN2	L_FE11_Together_We_Ride_8_001
// 006   ----------------------------------------
	BYTE		N09     An1   v056
	BYTE	W24
	BYTE		N12   
	BYTE	W72
// 007   ----------------------------------------
	BYTE	PATT
	 POIN2	L_FE11_Together_We_Ride_8_001
// 008   ----------------------------------------
	BYTE	PATT
	 POIN2	L_FE11_Together_We_Ride_8_001
// 009   ----------------------------------------
	BYTE	PATT
	 POIN2	L_FE11_Together_We_Ride_8_001
// 010   ----------------------------------------
	BYTE	PATT
	 POIN2	L_FE11_Together_We_Ride_8_001
// 011   ----------------------------------------
	BYTE	PATT
	 POIN2	L_FE11_Together_We_Ride_8_001
// 012   ----------------------------------------
	BYTE	W96
// 013   ----------------------------------------
	BYTE	W96
// 014   ----------------------------------------
	BYTE	W96
// 015   ----------------------------------------
	BYTE	W96
// 016   ----------------------------------------
	BYTE	W96
// 017   ----------------------------------------
	BYTE	W96
// 018   ----------------------------------------
	BYTE	W96
// 019   ----------------------------------------
	BYTE	W96
// 020   ----------------------------------------
	BYTE	W96
// 021   ----------------------------------------
	BYTE	W96
// 022   ----------------------------------------
	BYTE	W96
// 023   ----------------------------------------
	BYTE	W96
// 024   ----------------------------------------
	BYTE	W96
	BYTE	GoTo
	 POIN2	L_FE11_Together_We_Ride_8_B1
L_FE11_Together_We_Ride_8_B2:
// 025   ----------------------------------------
	BYTE	FINE

//**************** Track 9 (Midi-Chn.9) ****************//

L_FE11_Together_We_Ride_9:
	BYTE	KEYSH   L_FE11_Together_We_Ride_key+0
// 000   ----------------------------------------
	BYTE		VOICE   30
	BYTE		VOL     63*L_FE11_Together_We_Ride_mvl/mxv
	BYTE		PAN     c_v+12
	BYTE	W96
L_FE11_Together_We_Ride_9_B1:
// 001   ----------------------------------------
L_FE11_Together_We_Ride_9_001:
	BYTE		N09     An1   v064
	BYTE	W12
	BYTE		N09   
	BYTE	W24
	BYTE		N09   
	BYTE	W12
	BYTE		N09   
	BYTE	W24
	BYTE		N09   
	BYTE	W24
	BYTE	PEND
// 002   ----------------------------------------
	BYTE	PATT
	 POIN2	L_FE11_Together_We_Ride_9_001
// 003   ----------------------------------------
	BYTE	PATT
	 POIN2	L_FE11_Together_We_Ride_9_001
// 004   ----------------------------------------
	BYTE	PATT
	 POIN2	L_FE11_Together_We_Ride_9_001
// 005   ----------------------------------------
	BYTE	PATT
	 POIN2	L_FE11_Together_We_Ride_9_001
// 006   ----------------------------------------
	BYTE		N09     An1   v064
	BYTE	W24
	BYTE		N12   
	BYTE	W12
	BYTE		BEND    c_v-64
	BYTE		N24     Ds2   v080
	BYTE	W12
	BYTE		BEND    c_v+0
	BYTE	W06
	BYTE		        c_v-8
	BYTE	W06
	BYTE		        c_v-16
	BYTE		N12     Dn2 
	BYTE	W06
	BYTE		BEND    c_v+0
	BYTE	W06
	BYTE		N12     Cn2 
	BYTE	W12
	BYTE		        Dn2 
	BYTE	W12
// 007   ----------------------------------------
	BYTE	PATT
	 POIN2	L_FE11_Together_We_Ride_9_001
// 008   ----------------------------------------
	BYTE	PATT
	 POIN2	L_FE11_Together_We_Ride_9_001
// 009   ----------------------------------------
	BYTE	PATT
	 POIN2	L_FE11_Together_We_Ride_9_001
// 010   ----------------------------------------
	BYTE	PATT
	 POIN2	L_FE11_Together_We_Ride_9_001
// 011   ----------------------------------------
	BYTE	PATT
	 POIN2	L_FE11_Together_We_Ride_9_001
// 012   ----------------------------------------
	BYTE	W96
// 013   ----------------------------------------
L_FE11_Together_We_Ride_9_013:
	BYTE	W24
	BYTE		N09     Dn1   v064
	BYTE	W36
	BYTE		N09   
	BYTE	W36
	BYTE	PEND
// 014   ----------------------------------------
	BYTE	PATT
	 POIN2	L_FE11_Together_We_Ride_9_013
// 015   ----------------------------------------
	BYTE	PATT
	 POIN2	L_FE11_Together_We_Ride_9_013
// 016   ----------------------------------------
	BYTE	W96
// 017   ----------------------------------------
	BYTE	PATT
	 POIN2	L_FE11_Together_We_Ride_9_013
// 018   ----------------------------------------
	BYTE	PATT
	 POIN2	L_FE11_Together_We_Ride_9_013
// 019   ----------------------------------------
	BYTE	PATT
	 POIN2	L_FE11_Together_We_Ride_9_013
// 020   ----------------------------------------
	BYTE	PATT
	 POIN2	L_FE11_Together_We_Ride_9_013
// 021   ----------------------------------------
	BYTE	PATT
	 POIN2	L_FE11_Together_We_Ride_9_013
// 022   ----------------------------------------
	BYTE	W24
	BYTE		N09     Cn1   v064
	BYTE	W36
	BYTE		N09   
	BYTE	W36
// 023   ----------------------------------------
L_FE11_Together_We_Ride_9_023:
	BYTE	W24
	BYTE		N09     As0   v064
	BYTE	W36
	BYTE		N09   
	BYTE	W36
	BYTE	PEND
// 024   ----------------------------------------
	BYTE	PATT
	 POIN2	L_FE11_Together_We_Ride_9_023
	BYTE	GoTo
	 POIN2	L_FE11_Together_We_Ride_9_B1
L_FE11_Together_We_Ride_9_B2:
// 025   ----------------------------------------
	BYTE	FINE

//**************** Track 10 (Midi-Chn.11) ****************//

L_FE11_Together_We_Ride_10:
	BYTE	KEYSH   L_FE11_Together_We_Ride_key+0
// 000   ----------------------------------------
	BYTE		VOICE   36
	BYTE		VOL     70*L_FE11_Together_We_Ride_mvl/mxv
	BYTE		PAN     c_v+0
	BYTE	W96
L_FE11_Together_We_Ride_10_B1:
// 001   ----------------------------------------
L_FE11_Together_We_Ride_10_001:
	BYTE		N24     An1   v072
	BYTE	W24
	BYTE		N12   
	BYTE	W12
	BYTE		N12   
	BYTE	W24
	BYTE		N12   
	BYTE	W24
	BYTE		N12   
	BYTE	W12
	BYTE	PEND
// 002   ----------------------------------------
L_FE11_Together_We_Ride_10_002:
	BYTE		N24     As1   v072
	BYTE	W24
	BYTE		N12   
	BYTE	W12
	BYTE		N12   
	BYTE	W24
	BYTE		N12   
	BYTE	W24
	BYTE		N12   
	BYTE	W12
	BYTE	PEND
// 003   ----------------------------------------
	BYTE		N24     Cn2 
	BYTE	W24
	BYTE		N12   
	BYTE	W12
	BYTE		N12   
	BYTE	W24
	BYTE		N12   
	BYTE	W24
	BYTE		N12   
	BYTE	W12
// 004   ----------------------------------------
	BYTE	PATT
	 POIN2	L_FE11_Together_We_Ride_10_002
// 005   ----------------------------------------
	BYTE	PATT
	 POIN2	L_FE11_Together_We_Ride_10_001
// 006   ----------------------------------------
	BYTE		N12     An1   v072
	BYTE	W12
	BYTE		N24   
	BYTE	W24
	BYTE		        Ds2 
	BYTE	W24
	BYTE		N12     Dn2 
	BYTE	W12
	BYTE		        Cn2 
	BYTE	W12
	BYTE		        Dn2 
	BYTE	W12
// 007   ----------------------------------------
	BYTE	PATT
	 POIN2	L_FE11_Together_We_Ride_10_001
// 008   ----------------------------------------
	BYTE	PATT
	 POIN2	L_FE11_Together_We_Ride_10_002
// 009   ----------------------------------------
	BYTE		N12     Cn2   v072
	BYTE	W12
	BYTE		N24   
	BYTE	W24
	BYTE		N12   
	BYTE	W24
	BYTE		N12   
	BYTE	W24
	BYTE		N12   
	BYTE	W12
// 010   ----------------------------------------
	BYTE	PATT
	 POIN2	L_FE11_Together_We_Ride_10_002
// 011   ----------------------------------------
	BYTE	PATT
	 POIN2	L_FE11_Together_We_Ride_10_001
// 012   ----------------------------------------
	BYTE	W96
// 013   ----------------------------------------
L_FE11_Together_We_Ride_10_013:
	BYTE		N24     Dn2   v072
	BYTE	W24
	BYTE		N12   
	BYTE	W12
	BYTE		N24   
	BYTE	W24
	BYTE		N12   
	BYTE	W12
	BYTE		N24   
	BYTE	W24
	BYTE	PEND
// 014   ----------------------------------------
L_FE11_Together_We_Ride_10_014:
	BYTE		N24     As1   v072
	BYTE	W24
	BYTE		N12   
	BYTE	W12
	BYTE		N24   
	BYTE	W24
	BYTE		N12   
	BYTE	W12
	BYTE		N24   
	BYTE	W24
	BYTE	PEND
// 015   ----------------------------------------
L_FE11_Together_We_Ride_10_015:
	BYTE		N24     Gn1   v072
	BYTE	W24
	BYTE		N12   
	BYTE	W12
	BYTE		N24   
	BYTE	W24
	BYTE		N12   
	BYTE	W12
	BYTE		N24   
	BYTE	W24
	BYTE	PEND
// 016   ----------------------------------------
	BYTE		        An1 
	BYTE	W24
	BYTE		N12   
	BYTE	W12
	BYTE		N24   
	BYTE	W24
	BYTE		N12   
	BYTE	W12
	BYTE		N24   
	BYTE	W24
// 017   ----------------------------------------
	BYTE	PATT
	 POIN2	L_FE11_Together_We_Ride_10_013
// 018   ----------------------------------------
	BYTE	PATT
	 POIN2	L_FE11_Together_We_Ride_10_014
// 019   ----------------------------------------
	BYTE	PATT
	 POIN2	L_FE11_Together_We_Ride_10_015
// 020   ----------------------------------------
	BYTE		N12     An1   v072
	BYTE	W12
	BYTE		        Gn1 
	BYTE	W12
	BYTE		        An1 
	BYTE	W12
	BYTE		        Bn1 
	BYTE	W12
	BYTE		        Cs2 
	BYTE	W12
	BYTE		        Dn2 
	BYTE	W12
	BYTE		        En2 
	BYTE	W12
	BYTE		        An1 
	BYTE	W12
// 021   ----------------------------------------
	BYTE		        Dn2 
	BYTE	W12
	BYTE		N12   
	BYTE	W12
	BYTE		BEND    c_v-48
	BYTE		N12     Dn3 
	BYTE	W06
	BYTE		BEND    c_v+0
	BYTE	W06
	BYTE		N24     Dn2 
	BYTE	W24
	BYTE		N12   
	BYTE	W12
	BYTE		        Dn3 
	BYTE	W12
	BYTE		        Dn2 
	BYTE	W12
// 022   ----------------------------------------
	BYTE		        Cn2 
	BYTE	W12
	BYTE		N12   
	BYTE	W12
	BYTE		BEND    c_v-48
	BYTE		N12     Cn3 
	BYTE	W06
	BYTE		BEND    c_v+0
	BYTE	W06
	BYTE		N24     Cn2 
	BYTE	W24
	BYTE		N12   
	BYTE	W12
	BYTE		        Cn3 
	BYTE	W12
	BYTE		        Cn2 
	BYTE	W12
// 023   ----------------------------------------
L_FE11_Together_We_Ride_10_023:
	BYTE		N24     As1   v072
	BYTE	W24
	BYTE		N09   
	BYTE	W12
	BYTE		N24   
	BYTE	W24
	BYTE		N09   
	BYTE	W12
	BYTE		N24   
	BYTE	W24
	BYTE	PEND
// 024   ----------------------------------------
	BYTE	PATT
	 POIN2	L_FE11_Together_We_Ride_10_023
	BYTE	GoTo
	 POIN2	L_FE11_Together_We_Ride_10_B1
L_FE11_Together_We_Ride_10_B2:
// 025   ----------------------------------------
	BYTE	FINE

//**************** Track 11 (Midi-Chn.12) ****************//

L_FE11_Together_We_Ride_11:
	BYTE	KEYSH   L_FE11_Together_We_Ride_key+0
// 000   ----------------------------------------
	BYTE		VOICE   124
	BYTE		VOL     64*L_FE11_Together_We_Ride_mvl/mxv
	BYTE		N12     Cn1   v064
	BYTE	W12
	BYTE		        Cn2 
	BYTE	W12
	BYTE		        Bn1 
	BYTE	W12
	BYTE		        Cn1 
	BYTE		N12     An1 
	BYTE	W24
	BYTE		N06     Cn1 
	BYTE		N06     Cn2 
	BYTE	W06
	BYTE		        Cn1 
	BYTE		N06     Cn2 
	BYTE	W06
	BYTE		        Cn1 
	BYTE		N06     Bn1 
	BYTE	W06
	BYTE		        Cn1 
	BYTE		N06     Bn1 
	BYTE	W06
	BYTE		        Cn1 
	BYTE		N06     An1 
	BYTE	W06
	BYTE		        Cn1 
	BYTE		N06     Gn1 
	BYTE	W06
L_FE11_Together_We_Ride_11_B1:
// 001   ----------------------------------------
	BYTE		N12     Cn1   v064
	BYTE		N96     Cs2 
	BYTE		N96     Gn2 
	BYTE		N96     An2 
	BYTE	W12
	BYTE		N12     Cn1 
	BYTE	W12
	BYTE		        Dn1 
	BYTE		N06     Fs1   v056
	BYTE	W06
	BYTE		N06   
	BYTE	W06
	BYTE		N12     Cn1   v064
	BYTE		N06     Fs1   v056
	BYTE	W06
	BYTE		N06   
	BYTE	W06
	BYTE		N06   
	BYTE	W06
	BYTE		N06   
	BYTE	W06
	BYTE		N12     Cn1   v064
	BYTE		N06     Fs1   v056
	BYTE	W06
	BYTE		N06   
	BYTE	W06
	BYTE		N12     Dn1   v064
	BYTE		N06     Fs1   v056
	BYTE	W06
	BYTE		N06   
	BYTE	W06
	BYTE		N06   
	BYTE	W06
	BYTE		N06   
	BYTE	W06
// 002   ----------------------------------------
L_FE11_Together_We_Ride_11_002:
	BYTE		N12     Cn1   v064
	BYTE		N06     Fs1   v056
	BYTE	W06
	BYTE		N06   
	BYTE	W06
	BYTE		N12     Cn1   v064
	BYTE		N06     Fs1   v056
	BYTE	W06
	BYTE		N06   
	BYTE	W06
	BYTE		N12     Dn1   v064
	BYTE		N06     Fs1   v056
	BYTE	W06
	BYTE		N06   
	BYTE	W06
	BYTE		N12     Cn1   v064
	BYTE		N06     Fs1   v056
	BYTE	W06
	BYTE		N06   
	BYTE	W06
	BYTE		N06   
	BYTE	W06
	BYTE		N06   
	BYTE	W06
	BYTE		N12     Cn1   v064
	BYTE		N06     Fs1   v056
	BYTE	W06
	BYTE		N06   
	BYTE	W06
	BYTE		N12     Dn1   v064
	BYTE		N06     Fs1   v056
	BYTE	W06
	BYTE		N06   
	BYTE	W06
	BYTE		N12     Cn1   v064
	BYTE		N06     Fs1   v056
	BYTE	W06
	BYTE		N06   
	BYTE	W06
	BYTE	PEND
// 003   ----------------------------------------
L_FE11_Together_We_Ride_11_003:
	BYTE		N12     Cn1   v064
	BYTE		N24     Fn1 
	BYTE	W12
	BYTE		N12     Cn1 
	BYTE	W12
	BYTE		        Dn1 
	BYTE		N06     Fs1   v056
	BYTE		N48     As1   v064
	BYTE	W06
	BYTE		N06     Fs1   v056
	BYTE	W06
	BYTE		N12     Cn1   v064
	BYTE		N06     Fs1   v056
	BYTE	W06
	BYTE		N06   
	BYTE	W06
	BYTE		N06   
	BYTE	W06
	BYTE		N06   
	BYTE	W06
	BYTE		N12     Cn1   v064
	BYTE		N06     Fs1   v056
	BYTE	W06
	BYTE		N06   
	BYTE	W06
	BYTE		N12     Dn1   v064
	BYTE		N06     Fs1   v056
	BYTE	W06
	BYTE		N06   
	BYTE	W06
	BYTE		N12     Cn1   v064
	BYTE		N06     Fs1   v056
	BYTE	W06
	BYTE		N06   
	BYTE	W06
	BYTE	PEND
// 004   ----------------------------------------
	BYTE	PATT
	 POIN2	L_FE11_Together_We_Ride_11_002
// 005   ----------------------------------------
	BYTE		N12     Cn1   v064
	BYTE		N12     Fn1 
	BYTE	W12
	BYTE		        Cn1 
	BYTE		N12     Fn1 
	BYTE	W12
	BYTE		        Dn1 
	BYTE		N06     Fs1   v056
	BYTE		N48     As1   v064
	BYTE	W06
	BYTE		N06     Fs1   v056
	BYTE	W06
	BYTE		N12     Cn1   v064
	BYTE		N06     Fs1   v056
	BYTE	W06
	BYTE		N06   
	BYTE	W06
	BYTE		N06   
	BYTE	W06
	BYTE		N06   
	BYTE	W06
	BYTE		N12     Cn1   v064
	BYTE		N06     Fs1   v056
	BYTE	W06
	BYTE		N06   
	BYTE	W06
	BYTE		N12     Dn1   v064
	BYTE		N06     Fs1   v056
	BYTE	W06
	BYTE		N06   
	BYTE	W06
	BYTE		N12     Cn1   v064
	BYTE		N06     Fs1   v056
	BYTE	W06
	BYTE		N06   
	BYTE	W06
// 006   ----------------------------------------
	BYTE		N12     Cn1   v064
	BYTE		N06     Fs1   v056
	BYTE		N96     En2   v064
	BYTE	W06
	BYTE		N06     Fs1   v056
	BYTE	W06
	BYTE		N12     Cn1   v064
	BYTE		N06     Fs1   v056
	BYTE	W06
	BYTE		N06   
	BYTE	W06
	BYTE		N12     Dn1   v064
	BYTE		N06     Fs1   v056
	BYTE	W06
	BYTE		N06   
	BYTE	W06
	BYTE		N12     Cn1   v064
	BYTE		N06     Fs1   v056
	BYTE	W06
	BYTE		N06   
	BYTE	W06
	BYTE		N12     Dn1   v064
	BYTE		N06     Fs1   v056
	BYTE	W06
	BYTE		N06   
	BYTE	W06
	BYTE		N12     Cn1   v064
	BYTE		N06     Cn2 
	BYTE	W06
	BYTE		N06   
	BYTE	W06
	BYTE		        Dn1 
	BYTE		N06     Bn1 
	BYTE	W06
	BYTE		        Dn1 
	BYTE		N06     Bn1 
	BYTE	W06
	BYTE		        Cn1 
	BYTE		N06     An1 
	BYTE	W06
	BYTE		        Cn1 
	BYTE		N06     Gn1 
	BYTE	W06
// 007   ----------------------------------------
	BYTE		N12     Cn1 
	BYTE		N96     Cs2 
	BYTE		N96     Gn2 
	BYTE		N96     An2 
	BYTE	W12
	BYTE		N12     Cn1 
	BYTE	W12
	BYTE		        Dn1 
	BYTE		N06     Fs1   v056
	BYTE	W06
	BYTE		N06   
	BYTE	W06
	BYTE		N12     Cn1   v064
	BYTE		N06     Fs1   v056
	BYTE	W06
	BYTE		N06   
	BYTE	W06
	BYTE		N06   
	BYTE	W06
	BYTE		N06   
	BYTE	W06
	BYTE		N12     Cn1   v064
	BYTE		N06     Fs1   v056
	BYTE	W06
	BYTE		N06   
	BYTE	W06
	BYTE		N12     Dn1   v064
	BYTE		N06     Fs1   v056
	BYTE	W06
	BYTE		N06   
	BYTE	W06
	BYTE		N12     Cn1   v064
	BYTE		N06     Fs1   v056
	BYTE	W06
	BYTE		N06   
	BYTE	W06
// 008   ----------------------------------------
	BYTE		N12     Cn1   v064
	BYTE		N06     Fs1   v056
	BYTE	W06
	BYTE		N06   
	BYTE	W06
	BYTE		N12     Cn1   v064
	BYTE		N06     Fs1   v056
	BYTE	W06
	BYTE		N06   
	BYTE	W06
	BYTE		N12     Dn1   v064
	BYTE		N06     Fs1   v056
	BYTE	W06
	BYTE		N06   
	BYTE	W06
	BYTE		N12     Cn1   v064
	BYTE		N06     Fs1   v056
	BYTE	W06
	BYTE		N06   
	BYTE	W06
	BYTE		N06   
	BYTE	W06
	BYTE		N12     Dn1   v064
	BYTE		N06     Fs1   v056
	BYTE	W06
	BYTE		N12     Cn1   v064
	BYTE		N06     Fs1   v056
	BYTE	W06
	BYTE		N06   
	BYTE	W06
	BYTE		N12     Dn1   v064
	BYTE		N06     Fs1   v056
	BYTE	W06
	BYTE		N06   
	BYTE	W06
	BYTE		N12     Cn1   v064
	BYTE		N06     Fs1   v056
	BYTE	W06
	BYTE		N06   
	BYTE	W06
// 009   ----------------------------------------
	BYTE	PATT
	 POIN2	L_FE11_Together_We_Ride_11_003
// 010   ----------------------------------------
	BYTE	PATT
	 POIN2	L_FE11_Together_We_Ride_11_002
// 011   ----------------------------------------
	BYTE		N12     Cn1   v064
	BYTE		N12     Fn1 
	BYTE	W12
	BYTE		        Cn1 
	BYTE		N12     Fn1 
	BYTE	W12
	BYTE		        Dn1 
	BYTE		N06     Fs1   v056
	BYTE		N72     Cs2   v064
	BYTE		N72     An2 
	BYTE	W06
	BYTE		N06     Fs1   v056
	BYTE	W06
	BYTE		N12     Cn1   v064
	BYTE		N06     Fs1   v056
	BYTE	W06
	BYTE		N06   
	BYTE	W06
	BYTE		N06   
	BYTE	W06
	BYTE		N06   
	BYTE	W06
	BYTE		N12     Cn1   v064
	BYTE		N06     Fs1   v056
	BYTE	W06
	BYTE		N06   
	BYTE	W06
	BYTE		N12     Dn1   v064
	BYTE		N06     Fs1   v056
	BYTE	W06
	BYTE		N06   
	BYTE	W06
	BYTE		N12     Cn1   v064
	BYTE		N06     Fs1   v056
	BYTE	W06
	BYTE		N06   
	BYTE	W06
// 012   ----------------------------------------
	BYTE		N12     Dn1   v064
	BYTE		N06     Fs1   v056
	BYTE		N96     Cs2   v064
	BYTE		N96     Gs2 
	BYTE	W06
	BYTE		N06     Fs1   v056
	BYTE	W06
	BYTE		N12     Dn1   v064
	BYTE		N06     Fs1   v056
	BYTE	W06
	BYTE		N06   
	BYTE	W06
	BYTE		N06   
	BYTE		N12     Bn1   v064
	BYTE	W06
	BYTE		N06     Fs1   v056
	BYTE	W06
	BYTE		N06   
	BYTE		N12     Bn1   v064
	BYTE	W06
	BYTE		N06     Fs1   v056
	BYTE	W06
	BYTE		N12     Cn1   v064
	BYTE		N06     Fs1   v056
	BYTE		N12     An1   v064
	BYTE	W06
	BYTE		N06     Fs1   v056
	BYTE	W06
	BYTE		N12     Cn1   v064
	BYTE		N06     Fs1   v056
	BYTE		N12     An1   v064
	BYTE	W06
	BYTE		N06     Fs1   v056
	BYTE	W06
	BYTE		        Cn1   v064
	BYTE		N06     Fs1   v056
	BYTE		N12     Gn1   v064
	BYTE		N24     As1 
	BYTE		N24     An2 
	BYTE	W06
	BYTE		N06     Cn1 
	BYTE		N06     Fs1   v056
	BYTE	W06
	BYTE		        Cn1   v064
	BYTE		N06     Fs1   v056
	BYTE		N12     Gn1   v064
	BYTE	W06
	BYTE		N06     Cn1 
	BYTE		N06     Fs1   v056
	BYTE	W06
// 013   ----------------------------------------
L_FE11_Together_We_Ride_11_013:
	BYTE		N12     Cn1   v064
	BYTE		N96     Cs2 
	BYTE		N96     Gn2 
	BYTE		N96     An2 
	BYTE	W12
	BYTE		N12     Cn1 
	BYTE	W12
	BYTE		        Dn1 
	BYTE	W12
	BYTE		        Cn1 
	BYTE	W12
	BYTE		N06     Fs1   v056
	BYTE	W12
	BYTE		N12     Cn1   v064
	BYTE		N06     Fs1   v056
	BYTE	W12
	BYTE		N12     Dn1   v064
	BYTE		N06     Fs1   v056
	BYTE	W12
	BYTE		N06   
	BYTE	W12
	BYTE	PEND
// 014   ----------------------------------------
L_FE11_Together_We_Ride_11_014:
	BYTE		N12     Cn1   v064
	BYTE		N06     Fs1   v056
	BYTE	W12
	BYTE		N12     Cn1   v064
	BYTE		N06     Fs1   v056
	BYTE	W12
	BYTE		N12     Dn1   v064
	BYTE		N06     Fs1   v056
	BYTE	W12
	BYTE		N12     Cn1   v064
	BYTE		N06     Fs1   v056
	BYTE	W12
	BYTE		N06   
	BYTE	W12
	BYTE		N12     Cn1   v064
	BYTE		N06     Fs1   v056
	BYTE	W12
	BYTE		N12     Dn1   v064
	BYTE		N06     Fs1   v056
	BYTE	W12
	BYTE		N12     Cn1   v064
	BYTE		N06     Fs1   v056
	BYTE	W12
	BYTE	PEND
// 015   ----------------------------------------
L_FE11_Together_We_Ride_11_015:
	BYTE		N12     Cn1   v064
	BYTE		N06     Fs1   v056
	BYTE	W12
	BYTE		N12     Cn1   v064
	BYTE		N06     Fs1   v056
	BYTE	W12
	BYTE		N12     Dn1   v064
	BYTE		N06     Fs1   v056
	BYTE	W12
	BYTE		N12     Cn1   v064
	BYTE		N06     Fs1   v056
	BYTE	W12
	BYTE		N06   
	BYTE	W12
	BYTE		N12     Cn1   v064
	BYTE		N06     Fs1   v056
	BYTE	W12
	BYTE		N12     Dn1   v064
	BYTE		N06     Fs1   v056
	BYTE	W12
	BYTE		N06   
	BYTE	W12
	BYTE	PEND
// 016   ----------------------------------------
	BYTE		N12     Cn1   v064
	BYTE		N06     Fs1   v056
	BYTE	W12
	BYTE		N06   
	BYTE	W12
	BYTE		N12     Dn1   v064
	BYTE		N06     Fs1   v056
	BYTE	W12
	BYTE		N06   
	BYTE	W12
	BYTE		N12     Cn1   v064
	BYTE		N06     Fs1   v056
	BYTE	W12
	BYTE		        Cn1   v064
	BYTE		N06     Fs1   v056
	BYTE	W06
	BYTE		        Cn1   v064
	BYTE	W06
	BYTE		N12     Dn1 
	BYTE		N06     Fs1   v056
	BYTE	W12
	BYTE		N12     As1 
	BYTE	W12
// 017   ----------------------------------------
	BYTE	PATT
	 POIN2	L_FE11_Together_We_Ride_11_013
// 018   ----------------------------------------
	BYTE	PATT
	 POIN2	L_FE11_Together_We_Ride_11_014
// 019   ----------------------------------------
	BYTE	PATT
	 POIN2	L_FE11_Together_We_Ride_11_015
// 020   ----------------------------------------
	BYTE		N12     Cn1   v064
	BYTE		N06     Fs1   v056
	BYTE	W12
	BYTE		N12     Cn1   v064
	BYTE		N06     Fs1   v056
	BYTE	W12
	BYTE		N12     Dn1   v064
	BYTE		N06     Fs1   v056
	BYTE	W12
	BYTE		N12     Cn1   v064
	BYTE		N06     Fs1   v056
	BYTE	W12
	BYTE		N12     Dn1   v064
	BYTE		N06     Fs1   v056
	BYTE	W12
	BYTE		N12     Cn1   v064
	BYTE		N06     Fs1   v056
	BYTE	W12
	BYTE		        Dn1   v064
	BYTE		N06     Fs1   v056
	BYTE		N24     Cs2   v064
	BYTE		N24     Gn2 
	BYTE	W06
	BYTE		N06     Dn1 
	BYTE	W06
	BYTE		N12     Cn1 
	BYTE		N06     Fs1   v056
	BYTE	W12
// 021   ----------------------------------------
	BYTE		N12     Cn1   v064
	BYTE		N96     Cs2 
	BYTE		N96     Gn2 
	BYTE		N96     An2 
	BYTE	W24
	BYTE		N12     Dn1 
	BYTE	W12
	BYTE		        Cn1 
	BYTE	W12
	BYTE		N06     Fs1   v056
	BYTE	W12
	BYTE		N12     Cn1   v064
	BYTE		N06     Fs1   v056
	BYTE	W12
	BYTE		N12     Dn1   v064
	BYTE		N06     Fs1   v056
	BYTE	W12
	BYTE		N12     Cn1   v064
	BYTE		N06     Fs1   v056
	BYTE	W12
// 022   ----------------------------------------
	BYTE	PATT
	 POIN2	L_FE11_Together_We_Ride_11_014
// 023   ----------------------------------------
	BYTE		N12     Dn1   v064
	BYTE		N72     Cs2 
	BYTE		N96     Gn2 
	BYTE		N96     An2 
	BYTE	W12
	BYTE		N12     Cn1 
	BYTE		N12     Bn1 
	BYTE	W12
	BYTE		        Cn1 
	BYTE		N12     An1 
	BYTE	W12
	BYTE		        Dn1 
	BYTE	W12
	BYTE		        Cn1 
	BYTE		N12     Bn1 
	BYTE	W12
	BYTE		        Cn1 
	BYTE		N12     An1 
	BYTE	W12
	BYTE		        Dn1 
	BYTE		N12     Bn1 
	BYTE		N24     Cs2 
	BYTE	W12
	BYTE		N12     Cn1 
	BYTE		N12     An1 
	BYTE	W12
// 024   ----------------------------------------
	BYTE		N06     Dn1 
	BYTE		N96     Cs2 
	BYTE		N96     Gn2 
	BYTE		N96     An2 
	BYTE	W06
	BYTE		N06     Dn1 
	BYTE	W06
	BYTE		N06   
	BYTE	W06
	BYTE		N06   
	BYTE	W06
	BYTE		        Cn1 
	BYTE		N06     Bn1 
	BYTE	W06
	BYTE		        Cn1 
	BYTE		N06     Bn1 
	BYTE	W06
	BYTE		        Cn1 
	BYTE		N06     Bn1 
	BYTE	W06
	BYTE		        Cn1 
	BYTE		N06     Bn1 
	BYTE	W06
	BYTE		        Cn1 
	BYTE		N06     An1 
	BYTE	W06
	BYTE		        Cn1 
	BYTE		N06     An1 
	BYTE	W06
	BYTE		        Cn1 
	BYTE		N06     An1 
	BYTE	W06
	BYTE		        Cn1 
	BYTE		N06     An1 
	BYTE	W06
	BYTE		        Cn1 
	BYTE		N06     Gn1 
	BYTE	W06
	BYTE		        Cn1 
	BYTE		N06     Gn1 
	BYTE	W06
	BYTE		        Cn1 
	BYTE		N06     Gn1 
	BYTE	W06
	BYTE		        Cn1 
	BYTE		N06     Gn1 
	BYTE	W06
	BYTE	GoTo
	 POIN2	L_FE11_Together_We_Ride_11_B1
L_FE11_Together_We_Ride_11_B2:
// 025   ----------------------------------------
	BYTE	FINE

//******************************************************//
	ALIGN 4

L_FE11_Together_We_Ride:
	BYTE	11	// NumTrks
	BYTE	0	// NumBlks
	BYTE	L_FE11_Together_We_Ride_pri	// Priority
	BYTE	L_FE11_Together_We_Ride_rev	// Reverb.

	POIN2	L_FE11_Together_We_Ride_grp

	POIN2	L_FE11_Together_We_Ride_1
	POIN2	L_FE11_Together_We_Ride_2
	POIN2	L_FE11_Together_We_Ride_3
	POIN2	L_FE11_Together_We_Ride_4
	POIN2	L_FE11_Together_We_Ride_5
	POIN2	L_FE11_Together_We_Ride_6
	POIN2	L_FE11_Together_We_Ride_7
	POIN2	L_FE11_Together_We_Ride_8
	POIN2	L_FE11_Together_We_Ride_9
	POIN2	L_FE11_Together_We_Ride_10
	POIN2	L_FE11_Together_We_Ride_11

	
