//Event file generated from Sappy .s format.
	#include "MPlayDef.event"

	#define	TSPreps_grp  voicegroup000
	#define	TSPreps_pri  0
	#define	TSPreps_rev  0
	#define	TSPreps_mvl  127
	#define	TSPreps_key  0
	#define	TSPreps_tbs  1
	#define	TSPreps_exg  0
	#define	TSPreps_cmp  1

	// .rodata
	//	TSPreps
	ALIGN 4


//**************** Track 1 (Midi-Chn.0) ****************//

TSPreps_001:
//  #01 //000   ----------------------------------------
 BYTE   KEYSH   TSPreps_key+0
 BYTE   TEMPO   112*TSPreps_tbs/2
 BYTE   VOICE   45
 BYTE   VOL   24*TSPreps_mvl/mxv
 BYTE   PAN   c_v-19
 BYTE   W96
//  #01 //001   ----------------------------------------
 BYTE   W96
//  #01 //002   ----------------------------------------
Label_018D90D8:
 BYTE   W96
//  #01 //003   ----------------------------------------
 BYTE   W96
//  #01 //004   ----------------------------------------
 BYTE   W96
//  #01 //005   ----------------------------------------
Label_018D90DB:
 BYTE   W24
 BYTE   N05  Gn4  v096
 BYTE   W06
 BYTE   As4
 BYTE   W06
 BYTE   Ds5
 BYTE   W06
 BYTE   Fn5
 BYTE   W06
 BYTE   Gn5
 BYTE   W06
 BYTE   Fn5
 BYTE   W06
 BYTE   Ds5
 BYTE   W06
 BYTE   As4
 BYTE   W06
 BYTE   Gn4
 BYTE   W06
 BYTE   Ds4
 BYTE   W18
 BYTE   PEND 
//  #01 //006   ----------------------------------------
Label_018D90F3:
 BYTE   W24
 BYTE   N05  An4  v096
 BYTE   W06
 BYTE   Dn5
 BYTE   W06
 BYTE   Fn5
 BYTE   W06
 BYTE   Gn5
 BYTE   W06
 BYTE   Fn5
 BYTE   W06
 BYTE   Gn5
 BYTE   W06
 BYTE   Fn5
 BYTE   W06
 BYTE   Dn5
 BYTE   W06
 BYTE   An4
 BYTE   W06
 BYTE   Fn4
 BYTE   W18
 BYTE   PEND 
//  #01 //007   ----------------------------------------
Label_018D910B:
 BYTE   W24
 BYTE   N05  Gn4  v096
 BYTE   W06
 BYTE   Cn5
 BYTE   W06
 BYTE   Dn5
 BYTE   W06
 BYTE   Fn5
 BYTE   W06
 BYTE   Gn5
 BYTE   W06
 BYTE   Fn5
 BYTE   W06
 BYTE   Ds5
 BYTE   W06
 BYTE   Cn5
 BYTE   W06
 BYTE   Gn4
 BYTE   W06
 BYTE   Ds4
 BYTE   W18
 BYTE   PEND 
//  #01 //008   ----------------------------------------
 BYTE   PATT
  POIN2 Label_018D910B
//  #01 //009   ----------------------------------------
Label_018D9128:
 BYTE   W24
 BYTE   N05  Gs4  v096
 BYTE   W06
 BYTE   Cs5
 BYTE   W06
 BYTE   Fn5
 BYTE   W06
 BYTE   Gn5
 BYTE   W06
 BYTE   Gs5
 BYTE   W06
 BYTE   Gn5
 BYTE   W06
 BYTE   Fn5
 BYTE   W06
 BYTE   Dn5
 BYTE   W06
 BYTE   Gs4
 BYTE   W06
 BYTE   Fn4
 BYTE   W18
 BYTE   PEND 
//  #01 //010   ----------------------------------------
Label_018D9140:
 BYTE   W24
 BYTE   N05  Gn4  v096
 BYTE   W06
 BYTE   Cn5
 BYTE   W06
 BYTE   Fn5
 BYTE   W06
 BYTE   Gn5
 BYTE   W06
 BYTE   Fn5
 BYTE   W06
 BYTE   Gn5
 BYTE   W06
 BYTE   Fn5
 BYTE   W06
 BYTE   Cn5
 BYTE   W06
 BYTE   As4
 BYTE   W06
 BYTE   Gn4
 BYTE   W18
 BYTE   PEND 
//  #01 //011   ----------------------------------------
 BYTE   W96
//  #01 //012   ----------------------------------------
 BYTE   W96
//  #01 //013   ----------------------------------------
 BYTE   W96
//  #01 //014   ----------------------------------------
Label_018D915B:
 BYTE   N02  Dn5  v096
 BYTE   W03
 BYTE   Ds5
 BYTE   W03
 BYTE   Dn5
 BYTE   W02
 BYTE   W01
 BYTE   Ds5  v100
 BYTE   W03
 BYTE   Dn5
 BYTE   W02
 BYTE   W01
 BYTE   Ds5
 BYTE   W03
 BYTE   Dn5
 BYTE   W02
 BYTE   W01
 BYTE   Ds5
 BYTE   W03
 BYTE   Dn5
 BYTE   W02
 BYTE   W01
 BYTE   Ds5
 BYTE   W03
 BYTE   Dn5
 BYTE   W02
 BYTE   W01
 BYTE   Ds5  v104
 BYTE   W03
 BYTE   Dn5
 BYTE   W01
 BYTE   W02
 BYTE   Ds5
 BYTE   W03
 BYTE   Dn5
 BYTE   W01
 BYTE   W02
 BYTE   Ds5
 BYTE   W03
 BYTE   Dn5
 BYTE   W01
 BYTE   W02
 BYTE   Ds5
 BYTE   W03
 BYTE   Dn5
 BYTE   W01
 BYTE   W02
 BYTE   Ds5  v108
 BYTE   W03
 BYTE   Dn5
 BYTE   W01
 BYTE   W02
 BYTE   Ds5
 BYTE   W03
 BYTE   Dn5
 BYTE   W03
 BYTE   Ds5
 BYTE   W03
 BYTE   Dn5
 BYTE   W03
 BYTE   Ds5
 BYTE   W03
 BYTE   Dn5
 BYTE   W03
 BYTE   Ds5  v112
 BYTE   W03
 BYTE   Dn5
 BYTE   W03
 BYTE   Ds5
 BYTE   W03
 BYTE   Dn5
 BYTE   W03
 BYTE   Ds5
 BYTE   W03
 BYTE   PEND 
//  #01 //015   ----------------------------------------
Label_018D91AC:
 BYTE   N02  Dn5  v112
 BYTE   W03
 BYTE   Ds5
 BYTE   W03
 BYTE   Dn5
 BYTE   W03
 BYTE   Ds5
 BYTE   W03
 BYTE   Dn5
 BYTE   W03
 BYTE   Ds5
 BYTE   W03
 BYTE   Dn5
 BYTE   W03
 BYTE   Ds5
 BYTE   W03
 BYTE   Dn5
 BYTE   W03
 BYTE   Ds5
 BYTE   W03
 BYTE   Dn5
 BYTE   W03
 BYTE   Ds5
 BYTE   W03
 BYTE   Dn5
 BYTE   W03
 BYTE   Ds5
 BYTE   W03
 BYTE   Dn5
 BYTE   W03
 BYTE   Ds5
 BYTE   W03
 BYTE   Dn5
 BYTE   W03
 BYTE   Ds5
 BYTE   W03
 BYTE   Dn5
 BYTE   W03
 BYTE   Ds5
 BYTE   W03
 BYTE   Dn5
 BYTE   W03
 BYTE   Ds5
 BYTE   W03
 BYTE   Dn5
 BYTE   W03
 BYTE   Ds5
 BYTE   W03
 BYTE   Dn5
 BYTE   W03
 BYTE   Ds5
 BYTE   W03
 BYTE   Dn5
 BYTE   W03
 BYTE   Ds5
 BYTE   W03
 BYTE   Dn4  v096
 BYTE   N02  As4
 BYTE   W03
 BYTE   Fn4
 BYTE   N02  Dn5
 BYTE   W03
 BYTE   As4
 BYTE   N02  Fn5
 BYTE   W03
 BYTE   Dn5
 BYTE   N02  Fs5
 BYTE   W03
 BYTE   PEND 
//  #01 //016   ----------------------------------------
 BYTE   N05  Gn5
 BYTE   W96
//  #01 //017   ----------------------------------------
 BYTE   W96
//  #01 //018   ----------------------------------------
 BYTE   W96
//  #01 //019   ----------------------------------------
 BYTE   W96
//  #01 //020   ----------------------------------------
 BYTE   PATT
  POIN2 Label_018D90DB
//  #01 //021   ----------------------------------------
 BYTE   PATT
  POIN2 Label_018D90F3
//  #01 //022   ----------------------------------------
 BYTE   PATT
  POIN2 Label_018D910B
//  #01 //023   ----------------------------------------
 BYTE   PATT
  POIN2 Label_018D910B
//  #01 //024   ----------------------------------------
 BYTE   PATT
  POIN2 Label_018D9128
//  #01 //025   ----------------------------------------
 BYTE   PATT
  POIN2 Label_018D9140
//  #01 //026   ----------------------------------------
 BYTE   W96
//  #01 //027   ----------------------------------------
 BYTE   W96
//  #01 //028   ----------------------------------------
 BYTE   W96
//  #01 //029   ----------------------------------------
 BYTE   PATT
  POIN2 Label_018D915B
//  #01 //030   ----------------------------------------
 BYTE   PATT
  POIN2 Label_018D91AC
//  #01 //031   ----------------------------------------
 BYTE   N05  Gn5  v096
 BYTE   W92
 BYTE   W03
 BYTE   GoTo
  POIN2 Label_018D90D8
 BYTE   FINE

//**************** Track 2 (Midi-Chn.1) ****************//

TSPreps_002:
//  #02 //000   ----------------------------------------
 BYTE   KEYSH   TSPreps_key+0
 BYTE   VOICE   73
 BYTE   PAN   c_v-10
 BYTE   VOL   28*TSPreps_mvl/mxv
 BYTE   W96
//  #02 //001   ----------------------------------------
 BYTE   W96
//  #02 //002   ----------------------------------------
Label_019049CE:
 BYTE   W96
//  #02 //003   ----------------------------------------
 BYTE   W96
//  #02 //004   ----------------------------------------
 BYTE   W96
//  #02 //005   ----------------------------------------
Label_019049D1:
 BYTE   W24
 BYTE   N05  Gn3  v096
 BYTE   W06
 BYTE   As3
 BYTE   W06
 BYTE   Ds4
 BYTE   W06
 BYTE   Fn4
 BYTE   W06
 BYTE   Gn4
 BYTE   W06
 BYTE   Fn4
 BYTE   W06
 BYTE   Ds4
 BYTE   W06
 BYTE   As3
 BYTE   W06
 BYTE   Gn3
 BYTE   W06
 BYTE   Ds3
 BYTE   W18
 BYTE   PEND 
//  #02 //006   ----------------------------------------
Label_019049E9:
 BYTE   W24
 BYTE   N05  An3  v096
 BYTE   W06
 BYTE   Dn4
 BYTE   W06
 BYTE   Fn4
 BYTE   W06
 BYTE   Gn4
 BYTE   W06
 BYTE   Fn4
 BYTE   W06
 BYTE   Gn4
 BYTE   W06
 BYTE   Fn4
 BYTE   W06
 BYTE   Dn4
 BYTE   W06
 BYTE   An3
 BYTE   W06
 BYTE   Fn3
 BYTE   W18
 BYTE   PEND 
//  #02 //007   ----------------------------------------
Label_01904A01:
 BYTE   W24
 BYTE   N05  Gn3  v096
 BYTE   W06
 BYTE   Cn4
 BYTE   W06
 BYTE   Dn4
 BYTE   W06
 BYTE   Fn4
 BYTE   W06
 BYTE   Gn4
 BYTE   W06
 BYTE   Fn4
 BYTE   W06
 BYTE   Ds4
 BYTE   W06
 BYTE   Cn4
 BYTE   W06
 BYTE   Gn3
 BYTE   W06
 BYTE   Ds3
 BYTE   W18
 BYTE   PEND 
//  #02 //008   ----------------------------------------
 BYTE   PATT
  POIN2 Label_01904A01
//  #02 //009   ----------------------------------------
Label_01904A1E:
 BYTE   W24
 BYTE   N05  Gs3  v096
 BYTE   W06
 BYTE   Cs4
 BYTE   W06
 BYTE   Fn4
 BYTE   W06
 BYTE   Gn4
 BYTE   W06
 BYTE   Gs4
 BYTE   W06
 BYTE   Gn4
 BYTE   W06
 BYTE   Fn4
 BYTE   W06
 BYTE   Dn4
 BYTE   W06
 BYTE   Gs3
 BYTE   W06
 BYTE   Fn3
 BYTE   W18
 BYTE   PEND 
//  #02 //010   ----------------------------------------
Label_01904A36:
 BYTE   W24
 BYTE   N05  Gn3  v096
 BYTE   W06
 BYTE   Cn4
 BYTE   W06
 BYTE   Fn4
 BYTE   W06
 BYTE   Gn4
 BYTE   W06
 BYTE   Fn4
 BYTE   W06
 BYTE   Gn4
 BYTE   W06
 BYTE   Fn4
 BYTE   W06
 BYTE   Cn4
 BYTE   W06
 BYTE   As3
 BYTE   W06
 BYTE   Gn3
 BYTE   W18
 BYTE   PEND 
//  #02 //011   ----------------------------------------
 BYTE   W96
//  #02 //012   ----------------------------------------
 BYTE   W96
//  #02 //013   ----------------------------------------
 BYTE   W96
//  #02 //014   ----------------------------------------
Label_01904A51:
 BYTE   N02  Dn4  v096
 BYTE   W02
 BYTE   Ds4
 BYTE   W03
 BYTE   Dn4
 BYTE   W01
 BYTE   W02
 BYTE   Ds4  v100
 BYTE   W04
 BYTE   Dn4
 BYTE   W02
 BYTE   Ds4
 BYTE   W03
 BYTE   Dn4
 BYTE   W01
 BYTE   W02
 BYTE   Ds4
 BYTE   W04
 BYTE   Dn4
 BYTE   W02
 BYTE   Ds4
 BYTE   W03
 BYTE   Dn4
 BYTE   W01
 BYTE   W02
 BYTE   Ds4  v104
 BYTE   W04
 BYTE   Dn4
 BYTE   W02
 BYTE   Ds4
 BYTE   W03
 BYTE   Dn4
 BYTE   W01
 BYTE   W02
 BYTE   Ds4
 BYTE   W04
 BYTE   Dn4
 BYTE   W02
 BYTE   Ds4
 BYTE   W03
 BYTE   Dn4
 BYTE   W01
 BYTE   W02
 BYTE   Ds4  v108
 BYTE   W04
 BYTE   Dn4
 BYTE   W02
 BYTE   Ds4
 BYTE   W03
 BYTE   Dn4
 BYTE   W01
 BYTE   W02
 BYTE   Ds4
 BYTE   W04
 BYTE   Dn4
 BYTE   W02
 BYTE   Ds4
 BYTE   W03
 BYTE   Dn4
 BYTE   W01
 BYTE   W02
 BYTE   Ds4  v112
 BYTE   W04
 BYTE   Dn4
 BYTE   W02
 BYTE   Ds4
 BYTE   W03
 BYTE   Dn4
 BYTE   W01
 BYTE   W02
 BYTE   Ds4
 BYTE   W04
 BYTE   PEND 
//  #02 //015   ----------------------------------------
Label_01904AA0:
 BYTE   N02  Dn4  v112
 BYTE   W02
 BYTE   Ds4
 BYTE   W03
 BYTE   Dn4
 BYTE   W03
 BYTE   Ds4
 BYTE   W03
 BYTE   Dn4
 BYTE   W03
 BYTE   Ds4
 BYTE   W03
 BYTE   Dn4
 BYTE   W04
 BYTE   Ds4
 BYTE   W02
 BYTE   Dn4
 BYTE   W03
 BYTE   Ds4
 BYTE   W03
 BYTE   Dn4
 BYTE   W03
 BYTE   Ds4
 BYTE   W03
 BYTE   Dn4
 BYTE   W03
 BYTE   Ds4
 BYTE   W04
 BYTE   Dn4
 BYTE   W02
 BYTE   Ds4
 BYTE   W03
 BYTE   Dn4
 BYTE   W03
 BYTE   Ds4
 BYTE   W03
 BYTE   Dn4
 BYTE   W03
 BYTE   Ds4
 BYTE   W03
 BYTE   Dn4
 BYTE   W04
 BYTE   Ds4
 BYTE   W02
 BYTE   Dn4
 BYTE   W03
 BYTE   Ds4
 BYTE   W03
 BYTE   Dn4
 BYTE   W03
 BYTE   Ds4
 BYTE   W03
 BYTE   Dn4
 BYTE   W03
 BYTE   Ds4
 BYTE   W04
 BYTE   As3  v096
 BYTE   N02  As4
 BYTE   W03
 BYTE   Dn4
 BYTE   N02  Dn5
 BYTE   W03
 BYTE   Fn4
 BYTE   N02  Fn5
 BYTE   W03
 BYTE   Fs4
 BYTE   N02  Fs5
 BYTE   W03
 BYTE   PEND 
//  #02 //016   ----------------------------------------
 BYTE   N05  Gn4
 BYTE   N05  Gn5
 BYTE   W96
//  #02 //017   ----------------------------------------
 BYTE   W96
//  #02 //018   ----------------------------------------
 BYTE   W96
//  #02 //019   ----------------------------------------
 BYTE   W96
//  #02 //020   ----------------------------------------
 BYTE   PATT
  POIN2 Label_019049D1
//  #02 //021   ----------------------------------------
 BYTE   PATT
  POIN2 Label_019049E9
//  #02 //022   ----------------------------------------
 BYTE   PATT
  POIN2 Label_01904A01
//  #02 //023   ----------------------------------------
 BYTE   PATT
  POIN2 Label_01904A01
//  #02 //024   ----------------------------------------
 BYTE   PATT
  POIN2 Label_01904A1E
//  #02 //025   ----------------------------------------
 BYTE   PATT
  POIN2 Label_01904A36
//  #02 //026   ----------------------------------------
 BYTE   W96
//  #02 //027   ----------------------------------------
 BYTE   W96
//  #02 //028   ----------------------------------------
 BYTE   W96
//  #02 //029   ----------------------------------------
 BYTE   PATT
  POIN2 Label_01904A51
//  #02 //030   ----------------------------------------
 BYTE   PATT
  POIN2 Label_01904AA0
//  #02 //031   ----------------------------------------
 BYTE   N05  Gn4  v096
 BYTE   N05  Gn5
 BYTE   W92
 BYTE   W03
 BYTE   GoTo
  POIN2 Label_019049CE
 BYTE   FINE

//**************** Track 3 (Midi-Chn.2) ****************//

TSPreps_003:
//  #03 //000   ----------------------------------------
 BYTE   KEYSH   TSPreps_key+0
 BYTE   VOICE   60
 BYTE   PAN   c_v+14
 BYTE   VOL   41*TSPreps_mvl/mxv
 BYTE   W96
//  #03 //001   ----------------------------------------
 BYTE   W12
 BYTE   N11  As2  v096
 BYTE   N11  Dn3
 BYTE   W12
 BYTE   N05
 BYTE   N05  Gn3
 BYTE   W06
 BYTE   Dn3
 BYTE   N05  Gn3
 BYTE   W06
 BYTE   N11  Dn3
 BYTE   N11  Gn3
 BYTE   W12
 BYTE   Cn3
 BYTE   N11  Fn3
 BYTE   W12
 BYTE   Cn3
 BYTE   N11  Fn3
 BYTE   W36
//  #03 //002   ----------------------------------------
Label_018D927D:
 BYTE   W12
 BYTE   N11  Cn3  v096
 BYTE   N11  Ds3
 BYTE   W12
 BYTE   N05  Cn3
 BYTE   N05  Fn3
 BYTE   W06
 BYTE   Cn3
 BYTE   N05  Fn3
 BYTE   W06
 BYTE   N11  Cn3
 BYTE   N11  Ds3
 BYTE   W12
 BYTE   As2
 BYTE   N11  Dn3
 BYTE   W12
 BYTE   As2
 BYTE   N11  Dn3
 BYTE   W36
 BYTE   PEND 
//  #03 //003   ----------------------------------------
Label_018D929B:
 BYTE   W12
 BYTE   N11  As2  v096
 BYTE   N11  Dn3
 BYTE   W12
 BYTE   N05
 BYTE   N05  Gn3
 BYTE   W06
 BYTE   Dn3
 BYTE   N05  Gn3
 BYTE   W06
 BYTE   N11  Dn3
 BYTE   N11  Gn3
 BYTE   W12
 BYTE   Fn3
 BYTE   N11  An3
 BYTE   W12
 BYTE   Cn3
 BYTE   N11  Fn3
 BYTE   W36
 BYTE   PEND 
//  #03 //004   ----------------------------------------
 BYTE   PATT
  POIN2 Label_018D927D
//  #03 //005   ----------------------------------------
Label_018D92BD:
 BYTE   N23  Gn3  v096
 BYTE   W24
 BYTE   N07
 BYTE   W08
 BYTE   N07
 BYTE   W08
 BYTE   N07
 BYTE   W08
 BYTE   N44
 BYTE   W48
 BYTE   PEND 
//  #03 //006   ----------------------------------------
Label_018D92CA:
 BYTE   N32  Fn3  v096
 BYTE   W36
 BYTE   N05
 BYTE   W06
 BYTE   N05
 BYTE   W06
 BYTE   N44
 BYTE   W48
 BYTE   PEND 
//  #03 //007   ----------------------------------------
 BYTE   PATT
  POIN2 Label_018D92BD
//  #03 //008   ----------------------------------------
Label_018D92DA:
 BYTE   N32  Gn3  v096
 BYTE   W36
 BYTE   N05
 BYTE   W06
 BYTE   N05
 BYTE   W06
 BYTE   N44
 BYTE   W48
 BYTE   PEND 
//  #03 //009   ----------------------------------------
Label_018D92E5:
 BYTE   W12
 BYTE   N05  Gs3  v096
 BYTE   W06
 BYTE   N05
 BYTE   W06
 BYTE   N23  Fn3
 BYTE   W48
 BYTE   N23
 BYTE   W24
 BYTE   PEND 
//  #03 //010   ----------------------------------------
Label_018D92F2:
 BYTE   W24
 BYTE   N23  Fn3  v096
 BYTE   W24
 BYTE   Gn3
 BYTE   W48
 BYTE   PEND 
//  #03 //011   ----------------------------------------
Label_018D92FA:
 BYTE   N32  Cn3  v096
 BYTE   W36
 BYTE   N11
 BYTE   N11  Gn3
 BYTE   W12
 BYTE   N44  Cn3
 BYTE   N44  Gn3
 BYTE   W48
 BYTE   PEND 
//  #03 //012   ----------------------------------------
Label_018D9308:
 BYTE   N32  Cn3  v096
 BYTE   N32  Gn3
 BYTE   W36
 BYTE   N05
 BYTE   W06
 BYTE   N05
 BYTE   W06
 BYTE   N44  As3
 BYTE   W48
 BYTE   PEND 
//  #03 //013   ----------------------------------------
Label_018D9316:
 BYTE   N05  Cn3  v096
 BYTE   N05  Gn3
 BYTE   W06
 BYTE   N88  Cn3
 BYTE   N88  Gn3
 BYTE   W06
 BYTE   W84
 BYTE   PEND 
//  #03 //014   ----------------------------------------
Label_018D9323:
 BYTE   W24
 BYTE   N23  Gn2  v112
 BYTE   N23  Cn3
 BYTE   W10
 BYTE   W10
 BYTE   W04
 BYTE   An2  v116
 BYTE   N23  Dn3
 BYTE   W06
 BYTE   W11
 BYTE   W07
 BYTE   N23
 BYTE   N23  Gn3
 BYTE   W03
 BYTE   W10
 BYTE   W11
 BYTE   PEND 
//  #03 //015   ----------------------------------------
Label_018D933A:
 BYTE   N23  Dn3  v120
 BYTE   N23  Fs3
 BYTE   W10
 BYTE   W10
 BYTE   W04
 BYTE   An2  v124
 BYTE   N23  Cn3
 BYTE   W06
 BYTE   W11
 BYTE   W07
 BYTE   An2
 BYTE   N23  Cn3
 BYTE   N23  Ds3
 BYTE   W03
 BYTE   W10
 BYTE   W11
 BYTE   Cn3  v127
 BYTE   N23  Fs3
 BYTE   W24
 BYTE   PEND 
//  #03 //016   ----------------------------------------
 BYTE   N11  As2
 BYTE   N11  Dn3
 BYTE   N11  Gn3
 BYTE   W12
 BYTE   As2  v096
 BYTE   N11  Dn3
 BYTE   W12
 BYTE   N05
 BYTE   N05  Gn3
 BYTE   W06
 BYTE   Dn3
 BYTE   N05  Gn3
 BYTE   W06
 BYTE   N11  Dn3
 BYTE   N11  Gn3
 BYTE   W12
 BYTE   Cn3
 BYTE   N11  Fn3
 BYTE   W12
 BYTE   Cn3
 BYTE   N11  Fn3
 BYTE   W36
//  #03 //017   ----------------------------------------
 BYTE   PATT
  POIN2 Label_018D927D
//  #03 //018   ----------------------------------------
 BYTE   PATT
  POIN2 Label_018D929B
//  #03 //019   ----------------------------------------
 BYTE   PATT
  POIN2 Label_018D927D
//  #03 //020   ----------------------------------------
 BYTE   PATT
  POIN2 Label_018D92BD
//  #03 //021   ----------------------------------------
 BYTE   PATT
  POIN2 Label_018D92CA
//  #03 //022   ----------------------------------------
 BYTE   PATT
  POIN2 Label_018D92BD
//  #03 //023   ----------------------------------------
 BYTE   PATT
  POIN2 Label_018D92DA
//  #03 //024   ----------------------------------------
 BYTE   PATT
  POIN2 Label_018D92E5
//  #03 //025   ----------------------------------------
 BYTE   PATT
  POIN2 Label_018D92F2
//  #03 //026   ----------------------------------------
 BYTE   PATT
  POIN2 Label_018D92FA
//  #03 //027   ----------------------------------------
 BYTE   PATT
  POIN2 Label_018D9308
//  #03 //028   ----------------------------------------
 BYTE   PATT
  POIN2 Label_018D9316
//  #03 //029   ----------------------------------------
 BYTE   PATT
  POIN2 Label_018D9323
//  #03 //030   ----------------------------------------
 BYTE   PATT
  POIN2 Label_018D933A
//  #03 //031   ----------------------------------------
 BYTE   N11  As2  v127
 BYTE   N11  Dn3
 BYTE   N11  Gn3
 BYTE   W12
 BYTE   As2  v096
 BYTE   N11  Dn3
 BYTE   W12
 BYTE   N05
 BYTE   N05  Gn3
 BYTE   W06
 BYTE   Dn3
 BYTE   N05  Gn3
 BYTE   W06
 BYTE   N11  Dn3
 BYTE   N11  Gn3
 BYTE   W12
 BYTE   Cn3
 BYTE   N11  Fn3
 BYTE   W12
 BYTE   Cn3
 BYTE   N11  Fn3
 BYTE   W32
 BYTE   W03
 BYTE   GoTo
  POIN2 Label_018D927D
 BYTE   FINE

//**************** Track 4 (Midi-Chn.3) ****************//

TSPreps_004:
//  #04 //000   ----------------------------------------
 BYTE   KEYSH   TSPreps_key+0
 BYTE   VOICE   61
 BYTE   PAN   c_v+9
 BYTE   VOL   49*TSPreps_mvl/mxv
 BYTE   W96
//  #04 //001   ----------------------------------------
 BYTE   W12
 BYTE   N11  Gn2  v080
 BYTE   N11  As2
 BYTE   N11  As3  v096
 BYTE   N11  Dn4
 BYTE   W12
 BYTE   N05  As2  v080
 BYTE   N05  Dn3
 BYTE   N05  Dn4  v096
 BYTE   N05  Gn4
 BYTE   W06
 BYTE   As2  v080
 BYTE   N05  Dn3
 BYTE   N05  Dn4  v096
 BYTE   N05  Gn4
 BYTE   W06
 BYTE   N11  As2  v080
 BYTE   N11  Dn3
 BYTE   N11  Dn4  v096
 BYTE   N11  Gn4
 BYTE   W12
 BYTE   An2  v080
 BYTE   N11  Cn3
 BYTE   N11  Cn4  v096
 BYTE   N11  Fn4
 BYTE   W12
 BYTE   An2  v080
 BYTE   N11  Cn3
 BYTE   N11  Cn4  v096
 BYTE   N11  Fn4
 BYTE   W36
//  #04 //002   ----------------------------------------
Label_01904D0D:
 BYTE   W12
 BYTE   N11  An2  v080
 BYTE   N11  Cn3
 BYTE   N11  Cn4  v096
 BYTE   N11  Ds4
 BYTE   W12
 BYTE   N05  An2  v080
 BYTE   N05  Cn3
 BYTE   N05  Cn4  v096
 BYTE   N05  Fn4
 BYTE   W06
 BYTE   An2  v080
 BYTE   N05  Cn3
 BYTE   N05  Cn4  v096
 BYTE   N05  Fn4
 BYTE   W06
 BYTE   N11  An2  v080
 BYTE   N11  Cn3
 BYTE   N11  Cn4  v096
 BYTE   N11  Ds4
 BYTE   W12
 BYTE   Gn2  v080
 BYTE   N11  As2
 BYTE   N11  As3  v096
 BYTE   N11  Dn4
 BYTE   W12
 BYTE   Gn2  v080
 BYTE   N11  As2
 BYTE   N11  As3  v096
 BYTE   N11  Dn4
 BYTE   W36
 BYTE   PEND 
//  #04 //003   ----------------------------------------
Label_01904D4E:
 BYTE   W12
 BYTE   N11  As2  v080
 BYTE   N11  Dn3
 BYTE   N11  As3  v096
 BYTE   N11  Dn4
 BYTE   W12
 BYTE   N05  As2  v080
 BYTE   N05  Dn3
 BYTE   N05  Dn4  v096
 BYTE   N05  Gn4
 BYTE   W06
 BYTE   As2  v080
 BYTE   N05  Dn3
 BYTE   N05  Dn4  v096
 BYTE   N05  Gn4
 BYTE   W06
 BYTE   N11  As2  v080
 BYTE   N11  Dn3
 BYTE   N11  Dn4  v096
 BYTE   N11  Gn4
 BYTE   W12
 BYTE   Cn3  v080
 BYTE   N11  Fn3
 BYTE   N11  Fn4  v096
 BYTE   N11  An4
 BYTE   W12
 BYTE   An2  v080
 BYTE   N11  Cn3
 BYTE   N11  Cn4  v096
 BYTE   N11  Fn4
 BYTE   W36
 BYTE   PEND 
//  #04 //004   ----------------------------------------
 BYTE   PATT
  POIN2 Label_01904D0D
//  #04 //005   ----------------------------------------
Label_01904D94:
 BYTE   N23  Gn3  v080
 BYTE   W24
 BYTE   N07
 BYTE   W08
 BYTE   N07
 BYTE   W08
 BYTE   N07
 BYTE   W08
 BYTE   N44
 BYTE   W48
 BYTE   PEND 
//  #04 //006   ----------------------------------------
Label_01904DA1:
 BYTE   N32  Fn3  v080
 BYTE   W36
 BYTE   N05
 BYTE   W06
 BYTE   N05
 BYTE   W06
 BYTE   N44
 BYTE   W48
 BYTE   PEND 
//  #04 //007   ----------------------------------------
 BYTE   PATT
  POIN2 Label_01904D94
//  #04 //008   ----------------------------------------
Label_01904DB1:
 BYTE   N32  Gn3  v080
 BYTE   W36
 BYTE   N05
 BYTE   W06
 BYTE   N05
 BYTE   W06
 BYTE   N44
 BYTE   W48
 BYTE   PEND 
//  #04 //009   ----------------------------------------
Label_01904DBC:
 BYTE   W12
 BYTE   N05  Gs3  v080
 BYTE   W06
 BYTE   N05
 BYTE   W06
 BYTE   N23  Fn3
 BYTE   W48
 BYTE   N23
 BYTE   W24
 BYTE   PEND 
//  #04 //010   ----------------------------------------
Label_01904DC9:
 BYTE   W24
 BYTE   N23  Fn3  v080
 BYTE   W24
 BYTE   Gn3
 BYTE   W48
 BYTE   PEND 
//  #04 //011   ----------------------------------------
Label_01904DD1:
 BYTE   N32  Cn3  v096
 BYTE   W36
 BYTE   N11
 BYTE   N11  Gn3
 BYTE   W12
 BYTE   N44  Cn3
 BYTE   N44  Gn3
 BYTE   W48
 BYTE   PEND 
//  #04 //012   ----------------------------------------
Label_01904DDF:
 BYTE   N32  Ds3  v096
 BYTE   N32  Gn3
 BYTE   W36
 BYTE   N05
 BYTE   N05  Cn4
 BYTE   W06
 BYTE   Gn3
 BYTE   N05  Cn4
 BYTE   W06
 BYTE   N44
 BYTE   N44  Ds4
 BYTE   W48
 BYTE   PEND 
//  #04 //013   ----------------------------------------
Label_01904DF2:
 BYTE   N05  Cn4  v096
 BYTE   N05  Ds4
 BYTE   N05  Gn4
 BYTE   W06
 BYTE   N88  Cn4
 BYTE   N88  Ds4
 BYTE   N88  Gn4
 BYTE   W06
 BYTE   W84
 BYTE   PEND 
//  #04 //014   ----------------------------------------
Label_01904E03:
 BYTE   N24  An2  v096
 BYTE   W24
 BYTE   N23  An2  v112
 BYTE   N23  Cn3
 BYTE   W10
 BYTE   W10
 BYTE   W04
 BYTE   An2  v116
 BYTE   N23  Dn3
 BYTE   W06
 BYTE   W11
 BYTE   W07
 BYTE   N23
 BYTE   N23  Gn3
 BYTE   W03
 BYTE   W10
 BYTE   W11
 BYTE   PEND 
//  #04 //015   ----------------------------------------
Label_01904E1D:
 BYTE   N92  An2  v096
 BYTE   N23  Dn3  v120
 BYTE   N23  Fs3
 BYTE   W10
 BYTE   W10
 BYTE   W04
 BYTE   Fs3  v124
 BYTE   N23  Cn4
 BYTE   W06
 BYTE   W11
 BYTE   W07
 BYTE   An3
 BYTE   N23  Cn4
 BYTE   N23  Ds4
 BYTE   W03
 BYTE   W10
 BYTE   W11
 BYTE   Dn4  v127
 BYTE   N23  Fs4
 BYTE   W24
 BYTE   PEND 
//  #04 //016   ----------------------------------------
 BYTE   N11  As2  v096
 BYTE   N11  Gn3
 BYTE   N11  Dn4  v127
 BYTE   N11  Gn4
 BYTE   W12
 BYTE   Gn2  v096
 BYTE   N11  As2
 BYTE   N11  As3
 BYTE   N11  Dn4
 BYTE   W12
 BYTE   N05  As2
 BYTE   N05  Dn3
 BYTE   N05  Dn4
 BYTE   N05  Gn4
 BYTE   W06
 BYTE   As2
 BYTE   N05  Dn3
 BYTE   N05  Dn4
 BYTE   N05  Gn4
 BYTE   W06
 BYTE   N11  As2
 BYTE   N11  Dn3
 BYTE   N11  Dn4
 BYTE   N11  Gn4
 BYTE   W12
 BYTE   An2
 BYTE   N11  Cn3
 BYTE   N11  Cn4
 BYTE   N11  Fn4
 BYTE   W12
 BYTE   An2
 BYTE   N11  Cn3
 BYTE   N11  Cn4
 BYTE   N11  Fn4
 BYTE   W36
//  #04 //017   ----------------------------------------
 BYTE   PATT
  POIN2 Label_01904D0D
//  #04 //018   ----------------------------------------
 BYTE   PATT
  POIN2 Label_01904D4E
//  #04 //019   ----------------------------------------
 BYTE   PATT
  POIN2 Label_01904D0D
//  #04 //020   ----------------------------------------
 BYTE   PATT
  POIN2 Label_01904D94
//  #04 //021   ----------------------------------------
 BYTE   PATT
  POIN2 Label_01904DA1
//  #04 //022   ----------------------------------------
 BYTE   PATT
  POIN2 Label_01904D94
//  #04 //023   ----------------------------------------
 BYTE   PATT
  POIN2 Label_01904DB1
//  #04 //024   ----------------------------------------
 BYTE   PATT
  POIN2 Label_01904DBC
//  #04 //025   ----------------------------------------
 BYTE   PATT
  POIN2 Label_01904DC9
//  #04 //026   ----------------------------------------
 BYTE   PATT
  POIN2 Label_01904DD1
//  #04 //027   ----------------------------------------
 BYTE   PATT
  POIN2 Label_01904DDF
//  #04 //028   ----------------------------------------
 BYTE   PATT
  POIN2 Label_01904DF2
//  #04 //029   ----------------------------------------
 BYTE   PATT
  POIN2 Label_01904E03
//  #04 //030   ----------------------------------------
 BYTE   PATT
  POIN2 Label_01904E1D
//  #04 //031   ----------------------------------------
 BYTE   N11  As2  v096
 BYTE   N11  Gn3
 BYTE   N11  Dn4  v127
 BYTE   N11  Gn4
 BYTE   W12
 BYTE   Gn2  v096
 BYTE   N11  As2
 BYTE   N11  As3
 BYTE   N11  Dn4
 BYTE   W12
 BYTE   N05  As2
 BYTE   N05  Dn3
 BYTE   N05  Dn4
 BYTE   N05  Gn4
 BYTE   W06
 BYTE   As2
 BYTE   N05  Dn3
 BYTE   N05  Dn4
 BYTE   N05  Gn4
 BYTE   W06
 BYTE   N11  As2
 BYTE   N11  Dn3
 BYTE   N11  Dn4
 BYTE   N11  Gn4
 BYTE   W12
 BYTE   An2
 BYTE   N11  Cn3
 BYTE   N11  Cn4
 BYTE   N11  Fn4
 BYTE   W12
 BYTE   An2
 BYTE   N11  Cn3
 BYTE   N11  Cn4
 BYTE   N11  Fn4
 BYTE   W32
 BYTE   W03
 BYTE   GoTo
  POIN2 Label_01904D0D
 BYTE   FINE

//**************** Track 5 (Midi-Chn.4) ****************//

TSPreps_005:
//  #05 //000   ----------------------------------------
 BYTE   KEYSH   TSPreps_key+0
 BYTE   VOICE   57
 BYTE   PAN   c_v-17
 BYTE   VOL   31*TSPreps_mvl/mxv
 BYTE   N11  Gn1  v112
 BYTE   N11  Gn2
 BYTE   W60
 BYTE   N05  Gn1
 BYTE   W06
 BYTE   N05
 BYTE   W06
 BYTE   N11
 BYTE   W12
 BYTE   N05
 BYTE   W06
 BYTE   N05
 BYTE   W06
//  #05 //001   ----------------------------------------
 BYTE   N12
 BYTE   W12
 BYTE   N11  Gn1  v096
 BYTE   N11  Dn2
 BYTE   W12
 BYTE   N05  As1
 BYTE   N05  Gn2
 BYTE   W06
 BYTE   As1
 BYTE   N05  Gn2
 BYTE   W06
 BYTE   N11  As1
 BYTE   N11  Gn2
 BYTE   W12
 BYTE   An1
 BYTE   N11  Fn2
 BYTE   W12
 BYTE   N05  Gn1  v112
 BYTE   N11  An1  v096
 BYTE   N11  Fn2
 BYTE   W06
 BYTE   N05  Gn1  v112
 BYTE   W06
 BYTE   N11
 BYTE   W12
 BYTE   N05
 BYTE   W06
 BYTE   N05
 BYTE   W06
//  #05 //002   ----------------------------------------
Label_01904F4E:
 BYTE   N23  Gn1  v112
 BYTE   W12
 BYTE   N11  An1  v096
 BYTE   N11  Ds2
 BYTE   W12
 BYTE   N05  An1
 BYTE   N05  Fn2
 BYTE   W06
 BYTE   An1
 BYTE   N05  Fn2
 BYTE   W06
 BYTE   N11  An1
 BYTE   N11  Ds2
 BYTE   W12
 BYTE   Gn1
 BYTE   N11  Dn2
 BYTE   W12
 BYTE   N05  Gn1
 BYTE   N11  Dn2
 BYTE   W06
 BYTE   N05  Gn1  v112
 BYTE   W06
 BYTE   N11
 BYTE   W12
 BYTE   N05
 BYTE   W06
 BYTE   N05
 BYTE   W06
 BYTE   PEND 
//  #05 //003   ----------------------------------------
Label_01904F7A:
 BYTE   N12  Gn1  v112
 BYTE   W12
 BYTE   N11  Gn1  v096
 BYTE   N11  Dn2
 BYTE   W12
 BYTE   N05  As1
 BYTE   N05  Gn2
 BYTE   W06
 BYTE   As1
 BYTE   N05  Gn2
 BYTE   W06
 BYTE   N11  As1
 BYTE   N11  Gn2
 BYTE   W12
 BYTE   Cn2
 BYTE   N11  An2
 BYTE   W12
 BYTE   N05  Gn1  v112
 BYTE   N11  An1  v096
 BYTE   N11  Fn2
 BYTE   W06
 BYTE   N05  Gn1  v112
 BYTE   W06
 BYTE   N11
 BYTE   W12
 BYTE   N05
 BYTE   W06
 BYTE   N05
 BYTE   W06
 BYTE   PEND 
//  #05 //004   ----------------------------------------
 BYTE   PATT
  POIN2 Label_01904F4E
//  #05 //005   ----------------------------------------
 BYTE   N23  Gn1  v112
 BYTE   W96
//  #05 //006   ----------------------------------------
 BYTE   W96
//  #05 //007   ----------------------------------------
 BYTE   W96
//  #05 //008   ----------------------------------------
 BYTE   W96
//  #05 //009   ----------------------------------------
Label_01904FB6:
 BYTE   N11  Cn3  v096
 BYTE   N11  Fn3
 BYTE   W12
 BYTE   Gs2
 BYTE   N11  Cn3
 BYTE   W12
 BYTE   N23  Fn2
 BYTE   N23  Gs2
 BYTE   W24
 BYTE   N11  Cn3
 BYTE   N11  Fn3
 BYTE   W12
 BYTE   Gs2
 BYTE   N11  Cn3
 BYTE   W12
 BYTE   N23  Fn2
 BYTE   N23  Gs2
 BYTE   W24
 BYTE   PEND 
//  #05 //010   ----------------------------------------
Label_01904FD4:
 BYTE   N11  Cs3  v096
 BYTE   N11  Fn3
 BYTE   W12
 BYTE   As2
 BYTE   N11  Cs3
 BYTE   W12
 BYTE   N23  Gn2
 BYTE   N23  As2
 BYTE   W24
 BYTE   Cn3
 BYTE   N23  Fn3
 BYTE   W24
 BYTE   Cn3
 BYTE   N23  En3
 BYTE   W24
 BYTE   PEND 
//  #05 //011   ----------------------------------------
Label_01904FEC:
 BYTE   N11  Gs2  v096
 BYTE   N11  Cs3
 BYTE   W12
 BYTE   Fn2
 BYTE   N11  Gs2
 BYTE   W12
 BYTE   Cs2
 BYTE   N11  Fn2
 BYTE   W72
 BYTE   PEND 
//  #05 //012   ----------------------------------------
Label_01904FFB:
 BYTE   N32  Gn1  v096
 BYTE   W36
 BYTE   N05  Cn2
 BYTE   W06
 BYTE   N05
 BYTE   W06
 BYTE   N44  Ds2
 BYTE   W48
 BYTE   PEND 
//  #05 //013   ----------------------------------------
Label_01905008:
 BYTE   N05  Cn2  v096
 BYTE   N05  Gn2
 BYTE   W06
 BYTE   N88  Cn2
 BYTE   N88  Gn2
 BYTE   W06
 BYTE   W84
 BYTE   PEND 
//  #05 //014   ----------------------------------------
Label_01905015:
 BYTE   W24
 BYTE   N23  Gn1  v112
 BYTE   N23  Cn2
 BYTE   W10
 BYTE   W10
 BYTE   W04
 BYTE   An1  v116
 BYTE   N23  Dn2
 BYTE   W06
 BYTE   W11
 BYTE   W07
 BYTE   N23
 BYTE   N23  Gn2
 BYTE   W03
 BYTE   W10
 BYTE   W11
 BYTE   PEND 
//  #05 //015   ----------------------------------------
Label_0190502C:
 BYTE   N23  Dn2  v120
 BYTE   N23  Fs2
 BYTE   W10
 BYTE   W10
 BYTE   W04
 BYTE   Fs2  v124
 BYTE   N23  Cn3
 BYTE   W06
 BYTE   W11
 BYTE   W07
 BYTE   An2
 BYTE   N23  Cn3
 BYTE   N23  Ds3
 BYTE   W03
 BYTE   W10
 BYTE   W11
 BYTE   An2  v127
 BYTE   N23  Cn3
 BYTE   W24
 BYTE   PEND 
//  #05 //016   ----------------------------------------
 BYTE   N12  Gn1  v112
 BYTE   N11  As2  v127
 BYTE   N11  Gn3
 BYTE   W12
 BYTE   Gn1  v096
 BYTE   N11  Dn2
 BYTE   W12
 BYTE   N05  As1
 BYTE   N05  Gn2
 BYTE   W06
 BYTE   As1
 BYTE   N05  Gn2
 BYTE   W06
 BYTE   N11  As1
 BYTE   N11  Gn2
 BYTE   W12
 BYTE   An1
 BYTE   N11  Fn2
 BYTE   W12
 BYTE   N05  Gn1  v112
 BYTE   N11  An1  v096
 BYTE   N11  Fn2
 BYTE   W06
 BYTE   N05  Gn1  v112
 BYTE   W06
 BYTE   N11
 BYTE   W12
 BYTE   N05
 BYTE   W06
 BYTE   N05
 BYTE   W06
//  #05 //017   ----------------------------------------
 BYTE   PATT
  POIN2 Label_01904F4E
//  #05 //018   ----------------------------------------
 BYTE   PATT
  POIN2 Label_01904F7A
//  #05 //019   ----------------------------------------
 BYTE   PATT
  POIN2 Label_01904F4E
//  #05 //020   ----------------------------------------
 BYTE   N23  Gn1  v112
 BYTE   W96
//  #05 //021   ----------------------------------------
 BYTE   W96
//  #05 //022   ----------------------------------------
 BYTE   W96
//  #05 //023   ----------------------------------------
 BYTE   W96
//  #05 //024   ----------------------------------------
 BYTE   PATT
  POIN2 Label_01904FB6
//  #05 //025   ----------------------------------------
 BYTE   PATT
  POIN2 Label_01904FD4
//  #05 //026   ----------------------------------------
 BYTE   PATT
  POIN2 Label_01904FEC
//  #05 //027   ----------------------------------------
 BYTE   PATT
  POIN2 Label_01904FFB
//  #05 //028   ----------------------------------------
 BYTE   PATT
  POIN2 Label_01905008
//  #05 //029   ----------------------------------------
 BYTE   PATT
  POIN2 Label_01905015
//  #05 //030   ----------------------------------------
 BYTE   PATT
  POIN2 Label_0190502C
//  #05 //031   ----------------------------------------
 BYTE   N12  Gn1  v112
 BYTE   N11  As2  v127
 BYTE   N11  Gn3
 BYTE   W12
 BYTE   Gn1  v096
 BYTE   N11  Dn2
 BYTE   W12
 BYTE   N05  As1
 BYTE   N05  Gn2
 BYTE   W06
 BYTE   As1
 BYTE   N05  Gn2
 BYTE   W06
 BYTE   N11  As1
 BYTE   N11  Gn2
 BYTE   W12
 BYTE   An1
 BYTE   N11  Fn2
 BYTE   W12
 BYTE   N05  Gn1  v112
 BYTE   N11  An1  v096
 BYTE   N11  Fn2
 BYTE   W06
 BYTE   N05  Gn1  v112
 BYTE   W06
 BYTE   N11
 BYTE   W12
 BYTE   N05
 BYTE   W06
 BYTE   N05
 BYTE   W05
 BYTE   GoTo
  POIN2 Label_01904F4E
 BYTE   FINE

//**************** Track 6 (Midi-Chn.5) ****************//

TSPreps_006:
//  #06 //000   ----------------------------------------
 BYTE   KEYSH   TSPreps_key+0
 BYTE   VOICE   48
 BYTE   VOL   41*TSPreps_mvl/mxv
 BYTE   PAN   c_v-4
 BYTE   W96
//  #06 //001   ----------------------------------------
 BYTE   W96
//  #06 //002   ----------------------------------------
Label_018D8952:
 BYTE   W96
//  #06 //003   ----------------------------------------
 BYTE   W96
//  #06 //004   ----------------------------------------
 BYTE   W96
//  #06 //005   ----------------------------------------
Label_018D8955:
 BYTE   N32  Gn4  v096
 BYTE   N32  As4
 BYTE   W36
 BYTE   Ds4
 BYTE   N32  Gn4
 BYTE   W36
 BYTE   N23  Cn4
 BYTE   N23  Ds4
 BYTE   W24
 BYTE   PEND 
//  #06 //006   ----------------------------------------
Label_018D8965:
 BYTE   N32  Dn4  v096
 BYTE   N32  Fn4
 BYTE   W36
 BYTE   N56  An4
 BYTE   N56  Dn5
 BYTE   W48
 BYTE   W12
 BYTE   PEND 
//  #06 //007   ----------------------------------------
Label_018D8972:
 BYTE   N32  Gn4  v096
 BYTE   N32  Cn5
 BYTE   W36
 BYTE   Ds4
 BYTE   N32  Gn4
 BYTE   W36
 BYTE   N23  Cn4
 BYTE   N23  Ds4
 BYTE   W24
 BYTE   PEND 
//  #06 //008   ----------------------------------------
Label_018D8982:
 BYTE   N32  Ds4  v096
 BYTE   N32  Gn4
 BYTE   W36
 BYTE   Cn5
 BYTE   N32  Ds5
 BYTE   W36
 BYTE   N23  Cn5
 BYTE   W24
 BYTE   PEND 
//  #06 //009   ----------------------------------------
Label_018D8990:
 BYTE   N68  Gs4  v096
 BYTE   N68  Cs5
 BYTE   W72
 BYTE   N23  As4
 BYTE   N23  Cs5
 BYTE   W24
 BYTE   PEND 
//  #06 //010   ----------------------------------------
Label_018D899C:
 BYTE   N68  As4  v096
 BYTE   N68  Cs5
 BYTE   W72
 BYTE   N23  Gn4
 BYTE   N23  As4
 BYTE   W24
 BYTE   PEND 
//  #06 //011   ----------------------------------------
Label_018D89A8:
 BYTE   N56  Fn4  v096
 BYTE   N56  Gs4
 BYTE   W48
 BYTE   W12
 BYTE   N11  Cn4
 BYTE   W12
 BYTE   Gs3
 BYTE   W12
 BYTE   Fn3
 BYTE   W12
 BYTE   PEND 
//  #06 //012   ----------------------------------------
Label_018D89B7:
 BYTE   N92  Cn3  v096
 BYTE   W96
 BYTE   PEND 
//  #06 //013   ----------------------------------------
 BYTE   PATT
  POIN2 Label_018D89B7
//  #06 //014   ----------------------------------------
Label_018D89C1:
 BYTE   N92  Fs3  v080
 BYTE   W06
 BYTE   W06
 BYTE   W06
 BYTE   W06
 BYTE   W06
 BYTE   W06
 BYTE   W06
 BYTE   W06
 BYTE   W06
 BYTE   W06
 BYTE   W06
 BYTE   W06
 BYTE   W06
 BYTE   W06
 BYTE   W06
 BYTE   W06
 BYTE   PEND 
//  #06 //015   ----------------------------------------
Label_018D89D5:
 BYTE   N92  Fs3  v096
 BYTE   W96
 BYTE   PEND 
//  #06 //016   ----------------------------------------
 BYTE   W96
//  #06 //017   ----------------------------------------
 BYTE   W96
//  #06 //018   ----------------------------------------
 BYTE   W96
//  #06 //019   ----------------------------------------
 BYTE   W96
//  #06 //020   ----------------------------------------
 BYTE   PATT
  POIN2 Label_018D8955
//  #06 //021   ----------------------------------------
 BYTE   PATT
  POIN2 Label_018D8965
//  #06 //022   ----------------------------------------
 BYTE   PATT
  POIN2 Label_018D8972
//  #06 //023   ----------------------------------------
 BYTE   PATT
  POIN2 Label_018D8982
//  #06 //024   ----------------------------------------
 BYTE   PATT
  POIN2 Label_018D8990
//  #06 //025   ----------------------------------------
 BYTE   PATT
  POIN2 Label_018D899C
//  #06 //026   ----------------------------------------
 BYTE   PATT
  POIN2 Label_018D89A8
//  #06 //027   ----------------------------------------
 BYTE   PATT
  POIN2 Label_018D89B7
//  #06 //028   ----------------------------------------
 BYTE   PATT
  POIN2 Label_018D89B7
//  #06 //029   ----------------------------------------
 BYTE   PATT
  POIN2 Label_018D89C1
//  #06 //030   ----------------------------------------
 BYTE   PATT
  POIN2 Label_018D89D5
//  #06 //031   ----------------------------------------
 BYTE   W92
 BYTE   W03
 BYTE   GoTo
  POIN2 Label_018D8952
 BYTE   FINE

//**************** Track 7 (Midi-Chn.6) ****************//

TSPreps_007:
//  #07 //000   ----------------------------------------
 BYTE   KEYSH   TSPreps_key+0
 BYTE   VOICE   40
 BYTE   VOL   35*TSPreps_mvl/mxv
 BYTE   PAN   c_v-7
 BYTE   W96
//  #07 //001   ----------------------------------------
 BYTE   W96
//  #07 //002   ----------------------------------------
Label_018D84BA:
 BYTE   W96
//  #07 //003   ----------------------------------------
 BYTE   W96
//  #07 //004   ----------------------------------------
Label_018D84BC:
 BYTE   W84
 BYTE   N03  Gn4  v096
 BYTE   W04
 BYTE   An4
 BYTE   W04
 BYTE   As4
 BYTE   W04
 BYTE   PEND 
//  #07 //005   ----------------------------------------
Label_018D84C6:
 BYTE   N32  Dn5  v096
 BYTE   W36
 BYTE   Cn5
 BYTE   W36
 BYTE   N23  Gn4
 BYTE   W24
 BYTE   PEND 
//  #07 //006   ----------------------------------------
Label_018D84D0:
 BYTE   N32  An4  v096
 BYTE   W36
 BYTE   N56  Fn5
 BYTE   W48
 BYTE   W12
 BYTE   PEND 
//  #07 //007   ----------------------------------------
Label_018D84D9:
 BYTE   N32  Ds5  v096
 BYTE   W36
 BYTE   Dn5
 BYTE   W36
 BYTE   N23  Gn4
 BYTE   W24
 BYTE   PEND 
//  #07 //008   ----------------------------------------
Label_018D84E3:
 BYTE   N32  Cn5  v096
 BYTE   W36
 BYTE   Gn5
 BYTE   W36
 BYTE   N23  Fn5
 BYTE   W24
 BYTE   PEND 
//  #07 //009   ----------------------------------------
Label_018D84ED:
 BYTE   N68  Gn5  v096
 BYTE   W72
 BYTE   N23  Fn5
 BYTE   W24
 BYTE   PEND 
//  #07 //010   ----------------------------------------
Label_018D84F5:
 BYTE   N68  Fn5  v096
 BYTE   W72
 BYTE   N23  En5
 BYTE   W24
 BYTE   PEND 
//  #07 //011   ----------------------------------------
Label_018D84FD:
 BYTE   N56  Ds5  v096
 BYTE   W48
 BYTE   W12
 BYTE   N11  Cn5
 BYTE   W12
 BYTE   Gs4
 BYTE   W12
 BYTE   Fn4
 BYTE   W12
 BYTE   PEND 
//  #07 //012   ----------------------------------------
Label_018D850A:
 BYTE   N92  Cn4  v096
 BYTE   W96
 BYTE   PEND 
//  #07 //013   ----------------------------------------
 BYTE   PATT
  POIN2 Label_018D850A
//  #07 //014   ----------------------------------------
Label_018D8514:
 BYTE   N92  Cn4  v080
 BYTE   W06
 BYTE   W06
 BYTE   W06
 BYTE   W06
 BYTE   W06
 BYTE   W06
 BYTE   W06
 BYTE   W06
 BYTE   W06
 BYTE   W06
 BYTE   W06
 BYTE   W06
 BYTE   W06
 BYTE   W06
 BYTE   W06
 BYTE   W06
 BYTE   PEND 
//  #07 //015   ----------------------------------------
 BYTE   PATT
  POIN2 Label_018D850A
//  #07 //016   ----------------------------------------
 BYTE   W96
//  #07 //017   ----------------------------------------
 BYTE   W96
//  #07 //018   ----------------------------------------
 BYTE   W96
//  #07 //019   ----------------------------------------
 BYTE   PATT
  POIN2 Label_018D84BC
//  #07 //020   ----------------------------------------
 BYTE   PATT
  POIN2 Label_018D84C6
//  #07 //021   ----------------------------------------
 BYTE   PATT
  POIN2 Label_018D84D0
//  #07 //022   ----------------------------------------
 BYTE   PATT
  POIN2 Label_018D84D9
//  #07 //023   ----------------------------------------
 BYTE   PATT
  POIN2 Label_018D84E3
//  #07 //024   ----------------------------------------
 BYTE   PATT
  POIN2 Label_018D84ED
//  #07 //025   ----------------------------------------
 BYTE   PATT
  POIN2 Label_018D84F5
//  #07 //026   ----------------------------------------
 BYTE   PATT
  POIN2 Label_018D84FD
//  #07 //027   ----------------------------------------
 BYTE   PATT
  POIN2 Label_018D850A
//  #07 //028   ----------------------------------------
 BYTE   PATT
  POIN2 Label_018D850A
//  #07 //029   ----------------------------------------
 BYTE   PATT
  POIN2 Label_018D8514
//  #07 //030   ----------------------------------------
 BYTE   PATT
  POIN2 Label_018D850A
//  #07 //031   ----------------------------------------
 BYTE   W92
 BYTE   W03
 BYTE   GoTo
  POIN2 Label_018D84BA
 BYTE   FINE

//**************** Track 8 (Midi-Chn.7) ****************//

TSPreps_008:
//  #08 //000   ----------------------------------------
 BYTE   KEYSH   TSPreps_key+0
 BYTE   VOICE   49
 BYTE   PAN   c_v-1
 BYTE   VOL   38*TSPreps_mvl/mxv
 BYTE   N05  Gn1  v096
 BYTE   W36
 BYTE   N05
 BYTE   W06
 BYTE   N05
 BYTE   W06
 BYTE   N05
 BYTE   W36
 BYTE   N05
 BYTE   W06
 BYTE   N05
 BYTE   W06
//  #08 //001   ----------------------------------------
Label_018D8E76:
 BYTE   N05  Gn1  v096
 BYTE   W36
 BYTE   N11
 BYTE   W12
 BYTE   N11
 BYTE   W36
 BYTE   N05
 BYTE   W06
 BYTE   N05
 BYTE   W06
 BYTE   PEND 
//  #08 //002   ----------------------------------------
Label_018D8E83:
//  #08 //003   ----------------------------------------
 BYTE   PATT
  POIN2 Label_018D8E76
//  #08 //004   ----------------------------------------
 BYTE   PATT
  POIN2 Label_018D8E76
//  #08 //005   ----------------------------------------
Label_018D8E8D:
 BYTE   N05  Gn1  v096
 BYTE   W36
 BYTE   N11
 BYTE   W12
 BYTE   N11
 BYTE   W36
 BYTE   N05
 BYTE   W06
 BYTE   Fn1
 BYTE   W06
 BYTE   PEND 
//  #08 //006   ----------------------------------------
Label_018D8E9A:
 BYTE   N11  Ds1  v096
 BYTE   W36
 BYTE   N11
 BYTE   W12
 BYTE   N11
 BYTE   W36
 BYTE   N11
 BYTE   W12
 BYTE   PEND 
//  #08 //007   ----------------------------------------
Label_018D8EA5:
 BYTE   N11  Dn1  v096
 BYTE   W36
 BYTE   N11
 BYTE   W12
 BYTE   N11
 BYTE   W36
 BYTE   N11
 BYTE   W12
 BYTE   PEND 
//  #08 //008   ----------------------------------------
Label_018D8EB0:
 BYTE   N11  Cn1  v096
 BYTE   W36
 BYTE   N11
 BYTE   W12
 BYTE   N11
 BYTE   W36
 BYTE   N11
 BYTE   W12
 BYTE   PEND 
//  #08 //009   ----------------------------------------
Label_018D8EBB:
 BYTE   N11  Gs1  v096
 BYTE   W36
 BYTE   N11
 BYTE   W12
 BYTE   N11
 BYTE   W36
 BYTE   N11
 BYTE   W12
 BYTE   PEND 
//  #08 //010   ----------------------------------------
Label_018D8EC6:
 BYTE   N11  Cs1  v096
 BYTE   W36
 BYTE   N11
 BYTE   W12
 BYTE   Dn1
 BYTE   W36
 BYTE   N11
 BYTE   W12
 BYTE   PEND 
//  #08 //011   ----------------------------------------
Label_018D8ED1:
 BYTE   N11  Gn1  v096
 BYTE   W36
 BYTE   N11
 BYTE   W12
 BYTE   Cn1
 BYTE   W36
 BYTE   N11
 BYTE   W12
 BYTE   PEND 
//  #08 //012   ----------------------------------------
Label_018D8EDC:
 BYTE   N11  Cs1  v096
 BYTE   W36
 BYTE   N56  Gs1
 BYTE   W48
 BYTE   W12
 BYTE   PEND 
//  #08 //013   ----------------------------------------
Label_018D8EE5:
 BYTE   N23  Cs1  v096
 BYTE   W36
 BYTE   N56  Gs1
 BYTE   W48
 BYTE   W12
 BYTE   PEND 
//  #08 //014   ----------------------------------------
Label_018D8EEE:
 BYTE   N11  An1  v096
 BYTE   W36
 BYTE   N11
 BYTE   W12
 BYTE   N11
 BYTE   W36
 BYTE   N11
 BYTE   W12
 BYTE   PEND 
//  #08 //015   ----------------------------------------
Label_018D8EF9:
 BYTE   N11  Dn1  v096
 BYTE   W06
 BYTE   W06
 BYTE   W24
 BYTE   Dn1  v104
 BYTE   W06
 BYTE   W06
 BYTE   N11
 BYTE   W06
 BYTE   W06
 BYTE   W06
 BYTE   W06
 BYTE   W06
 BYTE   W06
 BYTE   Dn1  v112
 BYTE   W06
 BYTE   W06
 BYTE   PEND 
//  #08 //016   ----------------------------------------
Label_018D8F0F:
 BYTE   N11  Dn1  v112
 BYTE   W36
 BYTE   N11
 BYTE   W12
 BYTE   N11
 BYTE   W36
 BYTE   N11
 BYTE   W12
 BYTE   PEND 
//  #08 //017   ----------------------------------------
 BYTE   N05  Gn1  v096
 BYTE   W36
 BYTE   N11
 BYTE   W12
 BYTE   N11
 BYTE   W36
 BYTE   N05
 BYTE   W06
 BYTE   N05
 BYTE   W06
//  #08 //018   ----------------------------------------
 BYTE   PATT
  POIN2 Label_018D8E76
//  #08 //019   ----------------------------------------
 BYTE   PATT
  POIN2 Label_018D8E76
//  #08 //020   ----------------------------------------
 BYTE   PATT
  POIN2 Label_018D8E8D
//  #08 //021   ----------------------------------------
 BYTE   PATT
  POIN2 Label_018D8E9A
//  #08 //022   ----------------------------------------
 BYTE   PATT
  POIN2 Label_018D8EA5
//  #08 //023   ----------------------------------------
 BYTE   PATT
  POIN2 Label_018D8EB0
//  #08 //024   ----------------------------------------
 BYTE   PATT
  POIN2 Label_018D8EBB
//  #08 //025   ----------------------------------------
 BYTE   PATT
  POIN2 Label_018D8EC6
//  #08 //026   ----------------------------------------
 BYTE   PATT
  POIN2 Label_018D8ED1
//  #08 //027   ----------------------------------------
 BYTE   PATT
  POIN2 Label_018D8EDC
//  #08 //028   ----------------------------------------
 BYTE   PATT
  POIN2 Label_018D8EE5
//  #08 //029   ----------------------------------------
 BYTE   PATT
  POIN2 Label_018D8EEE
//  #08 //030   ----------------------------------------
 BYTE   PATT
  POIN2 Label_018D8EF9
//  #08 //031   ----------------------------------------
 BYTE   PATT
  POIN2 Label_018D8F0F
//  #08 //032   ----------------------------------------
 BYTE   N05  Gn1  v096
 BYTE   W36
 BYTE   N11
 BYTE   W12
 BYTE   N11
 BYTE   W36
 BYTE   N05
 BYTE   W06
 BYTE   N05
 BYTE   W05
 BYTE   GoTo
  POIN2 Label_018D8E83
 BYTE   FINE

//**************** Track 9 (Midi-Chn.8) ****************//

TSPreps_009:
//  #09 //000   ----------------------------------------
 BYTE   KEYSH   TSPreps_key+0
 BYTE   VOICE   127
 BYTE   VOL   45*TSPreps_mvl/mxv
 BYTE   PAN   c_v+0
 BYTE   PAN   c_v+0
 BYTE   N23  Cs2  v116
 BYTE   N18  An2  v064
 BYTE   W72
 BYTE   N23  Cs2  v116
 BYTE   W24
//  #09 //001   ----------------------------------------
Label_01905104:
 BYTE   N23  Cs2  v116
 BYTE   N11  Fs2  v080
 BYTE   W12
 BYTE   N11
 BYTE   W12
 BYTE   N11
 BYTE   W12
 BYTE   N11
 BYTE   W12
 BYTE   N11
 BYTE   W12
 BYTE   N11
 BYTE   W12
 BYTE   N23  Cs2  v116
 BYTE   N11  Fs2  v080
 BYTE   W24
 BYTE   PEND 
//  #09 //002   ----------------------------------------
Label_0190511D:
//  #09 //003   ----------------------------------------
 BYTE   PATT
  POIN2 Label_01905104
//  #09 //004   ----------------------------------------
 BYTE   PATT
  POIN2 Label_01905104
//  #09 //005   ----------------------------------------
 BYTE   PATT
  POIN2 Label_01905104
//  #09 //006   ----------------------------------------
Label_0190512C:
 BYTE   N11  Fs2  v080
 BYTE   W12
 BYTE   N11
 BYTE   W12
 BYTE   N11
 BYTE   W12
 BYTE   N11
 BYTE   W12
 BYTE   N11
 BYTE   W12
 BYTE   N11
 BYTE   W12
 BYTE   N11
 BYTE   W24
 BYTE   PEND 
//  #09 //007   ----------------------------------------
 BYTE   PATT
  POIN2 Label_0190512C
//  #09 //008   ----------------------------------------
 BYTE   PATT
  POIN2 Label_0190512C
//  #09 //009   ----------------------------------------
Label_01905147:
 BYTE   N11  Fs2  v080
 BYTE   W12
 BYTE   N11
 BYTE   W12
 BYTE   N11
 BYTE   W12
 BYTE   N11
 BYTE   W12
 BYTE   N11
 BYTE   W12
 BYTE   N11
 BYTE   W12
 BYTE   N11
 BYTE   W12
 BYTE   N05  Fs2  v064
 BYTE   W06
 BYTE   N05
 BYTE   W06
 BYTE   PEND 
//  #09 //010   ----------------------------------------
 BYTE   PATT
  POIN2 Label_01905147
//  #09 //011   ----------------------------------------
 BYTE   PATT
  POIN2 Label_01905147
//  #09 //012   ----------------------------------------
Label_01905168:
 BYTE   N11  Fs2  v080
 BYTE   W12
 BYTE   N02
 BYTE   W03
 BYTE   N02
 BYTE   W03
 BYTE   N02
 BYTE   W06
 BYTE   N11
 BYTE   W12
 BYTE   N23  Fs2  v112
 BYTE   W24
 BYTE   N02  Fs2  v080
 BYTE   W03
 BYTE   N02
 BYTE   W03
 BYTE   N02
 BYTE   W06
 BYTE   N11
 BYTE   W12
 BYTE   N05  Fs2  v064
 BYTE   W06
 BYTE   N05
 BYTE   W06
 BYTE   PEND 
//  #09 //013   ----------------------------------------
 BYTE   PATT
  POIN2 Label_01905168
//  #09 //014   ----------------------------------------
Label_0190518E:
 BYTE   N11  Fs2  v080
 BYTE   W12
 BYTE   N11
 BYTE   W12
 BYTE   N11
 BYTE   W12
 BYTE   N11
 BYTE   W12
 BYTE   N11
 BYTE   W12
 BYTE   N11
 BYTE   W12
 BYTE   N11
 BYTE   W12
 BYTE   N05
 BYTE   W06
 BYTE   N05
 BYTE   W06
 BYTE   PEND 
//  #09 //015   ----------------------------------------
 BYTE   PATT
  POIN2 Label_0190518E
//  #09 //016   ----------------------------------------
Label_019051A8:
 BYTE   N11  Fs2  v096
 BYTE   W12
 BYTE   N11
 BYTE   W12
 BYTE   N11
 BYTE   W12
 BYTE   N11
 BYTE   W12
 BYTE   N11
 BYTE   W12
 BYTE   N11
 BYTE   W12
 BYTE   N23  Cs2  v127
 BYTE   N11  Fs2  v096
 BYTE   W12
 BYTE   N05
 BYTE   W06
 BYTE   N05
 BYTE   W06
 BYTE   PEND 
//  #09 //017   ----------------------------------------
 BYTE   N23  Cs2  v127
 BYTE   N11  Fs2  v080
 BYTE   W12
 BYTE   N11
 BYTE   W12
 BYTE   N11
 BYTE   W12
 BYTE   N11
 BYTE   W12
 BYTE   N11
 BYTE   W12
 BYTE   N11
 BYTE   W12
 BYTE   N23  Cs2  v116
 BYTE   N11  Fs2  v080
 BYTE   W24
//  #09 //018   ----------------------------------------
 BYTE   PATT
  POIN2 Label_01905104
//  #09 //019   ----------------------------------------
 BYTE   PATT
  POIN2 Label_01905104
//  #09 //020   ----------------------------------------
 BYTE   PATT
  POIN2 Label_01905104
//  #09 //021   ----------------------------------------
 BYTE   PATT
  POIN2 Label_0190512C
//  #09 //022   ----------------------------------------
 BYTE   PATT
  POIN2 Label_0190512C
//  #09 //023   ----------------------------------------
 BYTE   PATT
  POIN2 Label_0190512C
//  #09 //024   ----------------------------------------
 BYTE   PATT
  POIN2 Label_01905147
//  #09 //025   ----------------------------------------
 BYTE   PATT
  POIN2 Label_01905147
//  #09 //026   ----------------------------------------
 BYTE   PATT
  POIN2 Label_01905147
//  #09 //027   ----------------------------------------
 BYTE   PATT
  POIN2 Label_01905168
//  #09 //028   ----------------------------------------
 BYTE   PATT
  POIN2 Label_01905168
//  #09 //029   ----------------------------------------
 BYTE   PATT
  POIN2 Label_0190518E
//  #09 //030   ----------------------------------------
 BYTE   PATT
  POIN2 Label_0190518E
//  #09 //031   ----------------------------------------
 BYTE   PATT
  POIN2 Label_019051A8
//  #09 //032   ----------------------------------------
 BYTE   N23  Cs2  v127
 BYTE   N11  Fs2  v080
 BYTE   W12
 BYTE   N11
 BYTE   W12
 BYTE   N11
 BYTE   W12
 BYTE   N11
 BYTE   W12
 BYTE   N11
 BYTE   W12
 BYTE   N11
 BYTE   W12
 BYTE   N23  Cs2  v116
 BYTE   N11  Fs2  v080
 BYTE   W23
 BYTE   GoTo
  POIN2 Label_0190511D
 BYTE   FINE

//**************** Track 10 (Midi-Chn.9) ****************//

TSPreps_010:
//  #10 //000   ----------------------------------------
 BYTE   KEYSH   TSPreps_key+0
 BYTE   VOICE   47
 BYTE   PAN   c_v+0
 BYTE   VOL   34*TSPreps_mvl/mxv
 BYTE   N23  Gn2  v096
 BYTE   W72
 BYTE   N23
 BYTE   W24
//  #10 //001   ----------------------------------------
Label_01904BB6:
 BYTE   N23  Gn2  v096
 BYTE   W72
 BYTE   N23
 BYTE   W24
 BYTE   PEND 
//  #10 //002   ----------------------------------------
Label_01904BBD:
//  #10 //003   ----------------------------------------
 BYTE   PATT
  POIN2 Label_01904BB6
//  #10 //004   ----------------------------------------
 BYTE   PATT
  POIN2 Label_01904BB6
//  #10 //005   ----------------------------------------
 BYTE   PATT
  POIN2 Label_01904BB6
//  #10 //006   ----------------------------------------
 BYTE   W96
//  #10 //007   ----------------------------------------
 BYTE   W96
//  #10 //008   ----------------------------------------
 BYTE   W96
//  #10 //009   ----------------------------------------
 BYTE   W96
//  #10 //010   ----------------------------------------
 BYTE   W96
//  #10 //011   ----------------------------------------
 BYTE   W96
//  #10 //012   ----------------------------------------
 BYTE   W96
//  #10 //013   ----------------------------------------
 BYTE   W96
//  #10 //014   ----------------------------------------
 BYTE   W96
//  #10 //015   ----------------------------------------
 BYTE   W96
//  #10 //016   ----------------------------------------
 BYTE   W72
 BYTE   N23  Gn2  v096
 BYTE   W24
//  #10 //017   ----------------------------------------
 BYTE   PATT
  POIN2 Label_01904BB6
//  #10 //018   ----------------------------------------
 BYTE   PATT
  POIN2 Label_01904BB6
//  #10 //019   ----------------------------------------
 BYTE   PATT
  POIN2 Label_01904BB6
//  #10 //020   ----------------------------------------
 BYTE   PATT
  POIN2 Label_01904BB6
//  #10 //021   ----------------------------------------
 BYTE   W96
//  #10 //022   ----------------------------------------
 BYTE   W96
//  #10 //023   ----------------------------------------
 BYTE   W96
//  #10 //024   ----------------------------------------
 BYTE   W96
//  #10 //025   ----------------------------------------
 BYTE   W96
//  #10 //026   ----------------------------------------
 BYTE   W96
//  #10 //027   ----------------------------------------
 BYTE   W96
//  #10 //028   ----------------------------------------
 BYTE   W96
//  #10 //029   ----------------------------------------
 BYTE   W96
//  #10 //030   ----------------------------------------
 BYTE   W96
//  #10 //031   ----------------------------------------
 BYTE   W72
 BYTE   N23  Gn2  v096
 BYTE   W24
//  #10 //032   ----------------------------------------
 BYTE   N23
 BYTE   W72
 BYTE   N23
 BYTE   W23
 BYTE   GoTo
  POIN2 Label_01904BBD
 BYTE   FINE

//******************************************************//
	ALIGN 4

TSPreps:
	BYTE	10	// NumTrks
	BYTE	0	// NumBlks
	BYTE	TSPreps_pri	// Priority
	BYTE	TSPreps_rev	// Reverb.
    
	POIN2	TSPreps_grp
    
	POIN2	TSPreps_001
	POIN2	TSPreps_002
	POIN2	TSPreps_003
	POIN2	TSPreps_004
	POIN2	TSPreps_005
	POIN2	TSPreps_006
	POIN2	TSPreps_007
	POIN2	TSPreps_008
	POIN2	TSPreps_009
	POIN2	TSPreps_010

	
