//Event file generated from Sappy .s format.
	#include "MPlayDef.event"

	#define	song5E_grp  voicegroup001
	#define	song5E_pri  0
	#define	song5E_rev  148
	#define	song5E_mvl  127
	#define	song5E_key  0
	#define	song5E_tbs  1
	#define	song5E_exg  0
	#define	song5E_cmp  1

	// .rodata
	//	song5E
	ALIGN 4


//**************** Track 1 (Midi-Chn.0) ****************//

song5E_001:
// 000   ----------------------------------------
 BYTE   KEYSH   song5E_key+0
Label_0_0136056A:
 BYTE   TEMPO   128*song5E_tbs/2
 BYTE   VOICE   61
 BYTE   MOD 0
 BYTE   CnM2  v000
 BYTE   CnM2  v003
 BYTE   VOL   28*song5E_mvl/mxv
 BYTE   PAN   c_v+0
 BYTE   LFOS 0
 BYTE   CnM2  v000
 BYTE   CnM2  v040
 BYTE   TUNE 0
 BYTE   CnM2  v000
 BYTE   CnM2  v064
 BYTE   LFODL 0
 BYTE   CnM2  v000
 BYTE   CnM2  v060
 BYTE   BEND   c_v+0
 BYTE   N44  Fs3  v096
 BYTE   W48
 BYTE   N10  Gs3  v096
 BYTE   W12
 BYTE   N10  An3  v096
 BYTE   W12
 BYTE   N10  Bn3  v096
 BYTE   W12
 BYTE   N10  En4  v096
 BYTE   W12
// 001   ----------------------------------------
 BYTE   N90  Cs4  v096
 BYTE   W96
// 002   ----------------------------------------
Label_0_013605A0:
 BYTE   N32  Dn4  v096
 BYTE   W36
 BYTE   N05  En4  v096
 BYTE   W06
 BYTE   N05  Fs4  v096
 BYTE   W06
 BYTE   N20  En4  v096
 BYTE   W24
 BYTE   N20  Bn3  v096
 BYTE   W24
 BYTE   PEND 
// 003   ----------------------------------------
 BYTE   N90  Cs4  v096
 BYTE   W96
// 004   ----------------------------------------
Label_0_013605B9:
 BYTE   N10  Bn3  v096
 BYTE   W12
 BYTE   N10  Cs4  v096
 BYTE   W12
 BYTE   N30  Fs3  v096
 BYTE   W36
 BYTE   N10  En3  v096
 BYTE   W12
 BYTE   N20  Fs3  v096
 BYTE   W24
 BYTE   PEND 
// 005   ----------------------------------------
Label_0_013605CE:
 BYTE   N10  Bn3  v096
 BYTE   W12
 BYTE   N10  Cs4  v096
 BYTE   W12
 BYTE   N30  Fs3  v096
 BYTE   W36
 BYTE   N10  En3  v096
 BYTE   W12
 BYTE   N10  Fs3  v096
 BYTE   W12
 BYTE   N10  Gs3  v096
 BYTE   W12
 BYTE   PEND 
// 006   ----------------------------------------
 BYTE   N90  Fs3  v096
 BYTE   W96
// 007   ----------------------------------------
 BYTE   N44  Fs3  v096
 BYTE   W48
 BYTE   N17  Fs3  v096
 BYTE   W18
 BYTE   N17  Gs3  v096
 BYTE   W18
 BYTE   N11  An3  v096
 BYTE   W12
// 008   ----------------------------------------
Label_0_013605FB:
 BYTE   N44  Fs3  v096
 BYTE   W48
 BYTE   N10  Gs3  v096
 BYTE   W12
 BYTE   N10  An3  v096
 BYTE   W12
 BYTE   N10  Bn3  v096
 BYTE   W12
 BYTE   N10  En4  v096
 BYTE   W12
 BYTE   PEND 
// 009   ----------------------------------------
 BYTE   N90  Cs4  v096
 BYTE   W96
// 010   ----------------------------------------
 BYTE   PATT
  POIN2 Label_0_013605A0
// 011   ----------------------------------------
 BYTE   N90  Cs4  v096
 BYTE   W96
// 012   ----------------------------------------
 BYTE   PATT
  POIN2 Label_0_013605B9
// 013   ----------------------------------------
 BYTE   PATT
  POIN2 Label_0_013605CE
// 014   ----------------------------------------
 BYTE   N90  Fs3  v096
 BYTE   W96
// 015   ----------------------------------------
Label_0_0136062B:
 BYTE   N44  Fs3  v096
 BYTE   W48
 BYTE   N44  En3  v096
 BYTE   W48
 BYTE   PEND 
// 016   ----------------------------------------
 BYTE   W96
// 017   ----------------------------------------
 BYTE   W96
// 018   ----------------------------------------
 BYTE   W96
// 019   ----------------------------------------
 BYTE   W96
// 020   ----------------------------------------
 BYTE   W96
// 021   ----------------------------------------
 BYTE   W96
// 022   ----------------------------------------
 BYTE   W96
// 023   ----------------------------------------
 BYTE   W96
// 024   ----------------------------------------
 BYTE   PATT
  POIN2 Label_0_013605FB
// 025   ----------------------------------------
 BYTE   N90  Cs4  v096
 BYTE   W96
// 026   ----------------------------------------
 BYTE   PATT
  POIN2 Label_0_013605A0
// 027   ----------------------------------------
 BYTE   N90  Cs4  v096
 BYTE   W96
// 028   ----------------------------------------
 BYTE   PATT
  POIN2 Label_0_013605B9
// 029   ----------------------------------------
 BYTE   PATT
  POIN2 Label_0_013605CE
// 030   ----------------------------------------
 BYTE   N90  Fs3  v096
 BYTE   W96
// 031   ----------------------------------------
 BYTE   PATT
  POIN2 Label_0_0136062B
// 032   ----------------------------------------
 BYTE   W96
// 033   ----------------------------------------
 BYTE   W96
// 034   ----------------------------------------
 BYTE   W96
// 035   ----------------------------------------
 BYTE   W96
// 036   ----------------------------------------
 BYTE   W96
// 037   ----------------------------------------
 BYTE   W96
// 038   ----------------------------------------
 BYTE   W96
// 039   ----------------------------------------
 BYTE   W96
// 040   ----------------------------------------
 BYTE   N44  Cs4  v096
 BYTE   N44  En4  v096
 BYTE   W48
 BYTE   N15  Cs4  v096
 BYTE   N15  En4  v096
 BYTE   W18
 BYTE   N15  Bn3  v096
 BYTE   N15  Ds4  v096
 BYTE   W18
 BYTE   N10  Cs4  v096
 BYTE   N10  En4  v096
 BYTE   W12
// 041   ----------------------------------------
 BYTE   N92  Ds4  v096
 BYTE   N92  Fs4  v096
 BYTE   W96
// 042   ----------------------------------------
 BYTE   N44  Cn4  v096
 BYTE   N44  An4  v096
 BYTE   W48
 BYTE   N15  Cn4  v096
 BYTE   N15  An4  v096
 BYTE   W18
 BYTE   N15  Cn4  v096
 BYTE   N15  Gn4  v096
 BYTE   W18
 BYTE   N10  Cn4  v096
 BYTE   N10  An4  v096
 BYTE   W12
// 043   ----------------------------------------
 BYTE   N44  Dn4  v096
 BYTE   N44  Bn4  v096
 BYTE   W48
 BYTE   N44  En4  v096
 BYTE   N44  Bn4  v096
 BYTE   W48
// 044   ----------------------------------------
 BYTE   GoTo
  POIN2 Label_0_0136056A
 BYTE   FINE

//**************** Track 2 (Midi-Chn.1) ****************//

song5E_002:
// 000   ----------------------------------------
 BYTE   KEYSH   song5E_key+0
Label_1_013606BE:
 BYTE   VOICE   52
 BYTE   MOD 0
 BYTE   CnM2  v000
 BYTE   CnM2  v003
 BYTE   VOL   28*song5E_mvl/mxv
 BYTE   PAN   c_v+0
 BYTE   LFOS 0
 BYTE   CnM2  v000
 BYTE   CnM2  v040
 BYTE   TUNE 0
 BYTE   CnM2  v000
 BYTE   CnM2  v064
 BYTE   LFODL 0
 BYTE   CnM2  v000
 BYTE   CnM2  v060
 BYTE   BEND   c_v+0
 BYTE   N44  An2  v104
 BYTE   N44  Cs3  v104
 BYTE   W48
 BYTE   N44  Gs2  v104
 BYTE   N44  Bn2  v104
 BYTE   W48
// 001   ----------------------------------------
Label_1_013606E8:
 BYTE   N44  Fs2  v104
 BYTE   N44  An2  v104
 BYTE   W48
 BYTE   N44  Gs2  v104
 BYTE   N44  Bn2  v104
 BYTE   W48
 BYTE   PEND 
// 002   ----------------------------------------
 BYTE   PATT
  POIN2 Label_1_013606E8
// 003   ----------------------------------------
Label_1_013606FC:
 BYTE   N44  Fs2  v104
 BYTE   N44  Cs3  v104
 BYTE   W48
 BYTE   N44  Fn2  v104
 BYTE   N44  Cs3  v104
 BYTE   W48
 BYTE   PEND 
// 004   ----------------------------------------
 BYTE   N92  Dn2  v104
 BYTE   N92  An2  v104
 BYTE   W96
// 005   ----------------------------------------
 BYTE   N92  En2  v104
 BYTE   N92  Bn2  v104
 BYTE   W96
// 006   ----------------------------------------
 BYTE   N92  Cs2  v104
 BYTE   N92  An2  v104
 BYTE   W96
// 007   ----------------------------------------
 BYTE   N44  Dn2  v104
 BYTE   N44  An2  v104
 BYTE   W48
 BYTE   N44  Fs2  v104
 BYTE   N44  Dn3  v104
 BYTE   W48
// 008   ----------------------------------------
Label_1_0136072E:
 BYTE   N44  An2  v104
 BYTE   N44  Cs3  v104
 BYTE   W48
 BYTE   N44  Gs2  v104
 BYTE   N44  Bn2  v104
 BYTE   W48
 BYTE   PEND 
// 009   ----------------------------------------
 BYTE   PATT
  POIN2 Label_1_013606E8
// 010   ----------------------------------------
 BYTE   PATT
  POIN2 Label_1_013606E8
// 011   ----------------------------------------
 BYTE   PATT
  POIN2 Label_1_013606FC
// 012   ----------------------------------------
 BYTE   N92  Dn2  v104
 BYTE   N92  An2  v104
 BYTE   W96
// 013   ----------------------------------------
 BYTE   N92  En2  v104
 BYTE   N92  Bn2  v104
 BYTE   W96
// 014   ----------------------------------------
 BYTE   N92  Cs2  v104
 BYTE   N92  As2  v104
 BYTE   W96
// 015   ----------------------------------------
 BYTE   N92  En2  v104
 BYTE   N92  Bn2  v104
 BYTE   W96
// 016   ----------------------------------------
Label_1_01360768:
 BYTE   N44  Cs3  v127
 BYTE   W48
 BYTE   N44  Dn3  v127
 BYTE   W48
 BYTE   PEND 
// 017   ----------------------------------------
 BYTE   N44  En3  v127
 BYTE   W48
 BYTE   N44  Bn2  v127
 BYTE   W48
// 018   ----------------------------------------
 BYTE   PATT
  POIN2 Label_1_01360768
// 019   ----------------------------------------
 BYTE   N44  En3  v127
 BYTE   W48
 BYTE   N23  Fs3  v127
 BYTE   W24
 BYTE   N23  Bn2  v127
 BYTE   W24
// 020   ----------------------------------------
 BYTE   PATT
  POIN2 Label_1_01360768
// 021   ----------------------------------------
 BYTE   N44  En3  v127
 BYTE   W48
 BYTE   N44  Bn2  v127
 BYTE   W48
// 022   ----------------------------------------
 BYTE   N44  Cs3  v127
 BYTE   W48
 BYTE   N44  Bn2  v127
 BYTE   W48
// 023   ----------------------------------------
 BYTE   N44  Gs2  v127
 BYTE   W48
 BYTE   N44  Cs3  v127
 BYTE   W48
// 024   ----------------------------------------
 BYTE   PATT
  POIN2 Label_1_0136072E
// 025   ----------------------------------------
 BYTE   PATT
  POIN2 Label_1_013606E8
// 026   ----------------------------------------
 BYTE   PATT
  POIN2 Label_1_013606E8
// 027   ----------------------------------------
 BYTE   PATT
  POIN2 Label_1_013606FC
// 028   ----------------------------------------
 BYTE   N92  Dn2  v104
 BYTE   N92  An2  v104
 BYTE   W96
// 029   ----------------------------------------
 BYTE   N92  En2  v104
 BYTE   N92  Bn2  v104
 BYTE   W96
// 030   ----------------------------------------
 BYTE   N92  Cs2  v104
 BYTE   N92  As2  v104
 BYTE   W96
// 031   ----------------------------------------
 BYTE   N92  En2  v104
 BYTE   N92  Bn2  v104
 BYTE   W96
// 032   ----------------------------------------
Label_1_013607D7:
 BYTE   TIE  An2  v104
 BYTE   TIE  Fn3  v104
 BYTE   W96
 BYTE   PEND 
// 033   ----------------------------------------
 BYTE   W92
 BYTE   W03
 BYTE   EOT
 BYTE   An2
 BYTE   EOT
 BYTE   Fn3
 BYTE   W01
// 034   ----------------------------------------
 BYTE   N92  Gn2  v104
 BYTE   N92  Dn3  v104
 BYTE   W96
// 035   ----------------------------------------
 BYTE   N92  Bn2  v104
 BYTE   N92  Gn3  v104
 BYTE   W96
// 036   ----------------------------------------
 BYTE   PATT
  POIN2 Label_1_013607D7
// 037   ----------------------------------------
 BYTE   W92
 BYTE   W03
 BYTE   EOT
 BYTE   An2
 BYTE   EOT
 BYTE   Fn3
 BYTE   W01
// 038   ----------------------------------------
 BYTE   N92  Gn2  v104
 BYTE   N92  Dn3  v104
 BYTE   W96
// 039   ----------------------------------------
 BYTE   N92  Bn2  v104
 BYTE   N92  Gn3  v104
 BYTE   W96
// 040   ----------------------------------------
 BYTE   W96
// 041   ----------------------------------------
 BYTE   W96
// 042   ----------------------------------------
 BYTE   W96
// 043   ----------------------------------------
 BYTE   W96
// 044   ----------------------------------------
 BYTE   GoTo
  POIN2 Label_1_013606BE
 BYTE   FINE

//**************** Track 3 (Midi-Chn.2) ****************//

song5E_003:
// 000   ----------------------------------------
 BYTE   KEYSH   song5E_key+0
Label_2_0136081A:
 BYTE   VOICE   34
 BYTE   MOD 0
 BYTE   CnM2  v000
 BYTE   CnM2  v003
 BYTE   VOL   59*song5E_mvl/mxv
 BYTE   PAN   c_v+0
 BYTE   LFOS 0
 BYTE   CnM2  v000
 BYTE   CnM2  v040
 BYTE   TUNE 0
 BYTE   CnM2  v000
 BYTE   CnM2  v064
 BYTE   LFODL 0
 BYTE   CnM2  v000
 BYTE   CnM2  v060
 BYTE   BEND   c_v+0
 BYTE   N08  Fs2  v120
 BYTE   W12
 BYTE   N08  Fs2  v120
 BYTE   W12
 BYTE   N08  Fs2  v120
 BYTE   W12
 BYTE   N05  Fs2  v120
 BYTE   W06
 BYTE   N08  Fs2  v120
 BYTE   W12
 BYTE   N08  Fs2  v120
 BYTE   W12
 BYTE   N05  Fs2  v120
 BYTE   W06
 BYTE   N08  Fs2  v120
 BYTE   W12
 BYTE   N08  Fs2  v120
 BYTE   W12
// 001   ----------------------------------------
Label_2_0136085A:
 BYTE   N08  Fs2  v120
 BYTE   W12
 BYTE   N08  Fs2  v120
 BYTE   W12
 BYTE   N08  Fs2  v120
 BYTE   W12
 BYTE   N05  Fs2  v120
 BYTE   W06
 BYTE   N08  Fs2  v120
 BYTE   W12
 BYTE   N08  Fs2  v120
 BYTE   W12
 BYTE   N05  Fs2  v120
 BYTE   W06
 BYTE   N08  Fs2  v120
 BYTE   W12
 BYTE   N08  Fs2  v120
 BYTE   W12
 BYTE   PEND 
// 002   ----------------------------------------
Label_2_0136087F:
 BYTE   N08  Dn2  v120
 BYTE   W12
 BYTE   N08  Dn2  v120
 BYTE   W12
 BYTE   N08  Dn2  v120
 BYTE   W12
 BYTE   N05  En2  v120
 BYTE   W06
 BYTE   N08  En2  v120
 BYTE   W12
 BYTE   N08  En2  v120
 BYTE   W12
 BYTE   N05  En2  v120
 BYTE   W06
 BYTE   N08  En2  v120
 BYTE   W12
 BYTE   N08  En2  v120
 BYTE   W12
 BYTE   PEND 
// 003   ----------------------------------------
Label_2_013608A4:
 BYTE   N08  Fs2  v120
 BYTE   W12
 BYTE   N08  Fs2  v120
 BYTE   W12
 BYTE   N08  Fs2  v120
 BYTE   W12
 BYTE   N05  Cs2  v120
 BYTE   W06
 BYTE   N08  Cs2  v120
 BYTE   W12
 BYTE   N08  Cs2  v120
 BYTE   W12
 BYTE   N05  Cs2  v120
 BYTE   W06
 BYTE   N08  Cs3  v120
 BYTE   W12
 BYTE   N08  Cs2  v120
 BYTE   W12
 BYTE   PEND 
// 004   ----------------------------------------
Label_2_013608C9:
 BYTE   N08  Dn2  v120
 BYTE   W12
 BYTE   N08  Dn2  v120
 BYTE   W12
 BYTE   N08  Dn2  v120
 BYTE   W12
 BYTE   N05  Dn2  v120
 BYTE   W06
 BYTE   N08  Dn2  v120
 BYTE   W12
 BYTE   N08  Dn2  v120
 BYTE   W12
 BYTE   N05  Dn2  v120
 BYTE   W06
 BYTE   N08  Dn2  v120
 BYTE   W12
 BYTE   N08  Dn2  v120
 BYTE   W12
 BYTE   PEND 
// 005   ----------------------------------------
Label_2_013608EE:
 BYTE   N08  En2  v120
 BYTE   W12
 BYTE   N08  En2  v120
 BYTE   W12
 BYTE   N08  En2  v120
 BYTE   W12
 BYTE   N05  En2  v120
 BYTE   W06
 BYTE   N08  En2  v120
 BYTE   W12
 BYTE   N08  En2  v120
 BYTE   W12
 BYTE   N05  En2  v120
 BYTE   W06
 BYTE   N08  En2  v120
 BYTE   W12
 BYTE   N08  En2  v120
 BYTE   W12
 BYTE   PEND 
// 006   ----------------------------------------
 BYTE   PATT
  POIN2 Label_2_0136085A
// 007   ----------------------------------------
 BYTE   N08  Dn2  v120
 BYTE   W12
 BYTE   N08  Dn2  v120
 BYTE   W12
 BYTE   N08  Dn2  v120
 BYTE   W12
 BYTE   N05  Dn2  v120
 BYTE   W06
 BYTE   N08  Dn2  v120
 BYTE   W12
 BYTE   N08  Dn2  v120
 BYTE   W12
 BYTE   N05  Dn2  v120
 BYTE   W06
 BYTE   N08  Dn2  v120
 BYTE   W12
 BYTE   N08  Dn3  v120
 BYTE   W12
// 008   ----------------------------------------
 BYTE   PATT
  POIN2 Label_2_0136085A
// 009   ----------------------------------------
 BYTE   PATT
  POIN2 Label_2_0136085A
// 010   ----------------------------------------
 BYTE   PATT
  POIN2 Label_2_0136087F
// 011   ----------------------------------------
 BYTE   PATT
  POIN2 Label_2_013608A4
// 012   ----------------------------------------
 BYTE   PATT
  POIN2 Label_2_013608C9
// 013   ----------------------------------------
 BYTE   PATT
  POIN2 Label_2_013608EE
// 014   ----------------------------------------
 BYTE   PATT
  POIN2 Label_2_0136085A
// 015   ----------------------------------------
Label_2_0136095F:
 BYTE   N08  En2  v120
 BYTE   W12
 BYTE   N08  En2  v120
 BYTE   W12
 BYTE   N08  En2  v120
 BYTE   W12
 BYTE   N05  En2  v120
 BYTE   W06
 BYTE   N08  En2  v120
 BYTE   W12
 BYTE   N08  En2  v120
 BYTE   W12
 BYTE   N05  En2  v120
 BYTE   W06
 BYTE   N05  En2  v120
 BYTE   W06
 BYTE   N05  En2  v120
 BYTE   W06
 BYTE   N05  En3  v120
 BYTE   W06
 BYTE   N05  En3  v120
 BYTE   W06
 BYTE   PEND 
// 016   ----------------------------------------
 BYTE   N80  Dn2  v120
 BYTE   W84
 BYTE   N05  Dn3  v120
 BYTE   W06
 BYTE   N05  Dn3  v120
 BYTE   W06
// 017   ----------------------------------------
 BYTE   N23  En2  v120
 BYTE   W24
 BYTE   N23  En2  v120
 BYTE   W24
 BYTE   N23  En2  v120
 BYTE   W24
 BYTE   N11  En2  v120
 BYTE   W12
 BYTE   N11  Fn2  v120
 BYTE   W12
// 018   ----------------------------------------
 BYTE   N11  Fs2  v120
 BYTE   W12
 BYTE   N11  Fs2  v120
 BYTE   W24
 BYTE   N05  Fs2  v120
 BYTE   W06
 BYTE   N05  Fs2  v120
 BYTE   W06
 BYTE   N11  Fs2  v120
 BYTE   W12
 BYTE   N11  Fs2  v120
 BYTE   W12
 BYTE   N11  Fs2  v120
 BYTE   W12
 BYTE   N11  Fs2  v120
 BYTE   W12
// 019   ----------------------------------------
Label_2_013609CC:
 BYTE   N11  En2  v120
 BYTE   W12
 BYTE   N11  Bn2  v120
 BYTE   W12
 BYTE   N11  En2  v120
 BYTE   W12
 BYTE   N11  Bn2  v120
 BYTE   W12
 BYTE   N11  En2  v120
 BYTE   W12
 BYTE   N11  Bn2  v120
 BYTE   W12
 BYTE   N11  En2  v120
 BYTE   W12
 BYTE   N11  Bn2  v120
 BYTE   W12
 BYTE   PEND 
// 020   ----------------------------------------
 BYTE   N11  Dn2  v120
 BYTE   W12
 BYTE   N11  An2  v120
 BYTE   W12
 BYTE   N11  Dn2  v120
 BYTE   W12
 BYTE   N11  An2  v120
 BYTE   W12
 BYTE   N11  Dn2  v120
 BYTE   W12
 BYTE   N11  An2  v120
 BYTE   W12
 BYTE   N11  Dn2  v120
 BYTE   W12
 BYTE   N11  An2  v120
 BYTE   W12
// 021   ----------------------------------------
 BYTE   PATT
  POIN2 Label_2_013609CC
// 022   ----------------------------------------
 BYTE   N11  Fs2  v120
 BYTE   W12
 BYTE   N11  Fs3  v120
 BYTE   W12
 BYTE   N11  Fs2  v120
 BYTE   W12
 BYTE   N11  Fs3  v120
 BYTE   W12
 BYTE   N11  Fs2  v120
 BYTE   W12
 BYTE   N11  Fs3  v120
 BYTE   W12
 BYTE   N11  Fs2  v120
 BYTE   W12
 BYTE   N11  Fs3  v120
 BYTE   W12
// 023   ----------------------------------------
 BYTE   N11  Cs2  v120
 BYTE   W12
 BYTE   N11  Cs3  v120
 BYTE   W12
 BYTE   N11  Cs2  v120
 BYTE   W12
 BYTE   N11  Cs3  v120
 BYTE   W12
 BYTE   N11  Cs2  v120
 BYTE   W12
 BYTE   N11  Cs3  v120
 BYTE   W12
 BYTE   N11  Cs2  v120
 BYTE   W12
 BYTE   N11  Cs3  v120
 BYTE   W12
// 024   ----------------------------------------
 BYTE   PATT
  POIN2 Label_2_0136085A
// 025   ----------------------------------------
 BYTE   PATT
  POIN2 Label_2_0136085A
// 026   ----------------------------------------
 BYTE   PATT
  POIN2 Label_2_0136087F
// 027   ----------------------------------------
 BYTE   PATT
  POIN2 Label_2_013608A4
// 028   ----------------------------------------
 BYTE   PATT
  POIN2 Label_2_013608C9
// 029   ----------------------------------------
 BYTE   PATT
  POIN2 Label_2_013608EE
// 030   ----------------------------------------
 BYTE   PATT
  POIN2 Label_2_0136085A
// 031   ----------------------------------------
 BYTE   PATT
  POIN2 Label_2_0136095F
// 032   ----------------------------------------
Label_2_01360A7A:
 BYTE   N10  Fn2  v120
 BYTE   W12
 BYTE   N10  Fn2  v120
 BYTE   W12
 BYTE   N10  Fn2  v120
 BYTE   W12
 BYTE   N10  Fn2  v120
 BYTE   W12
 BYTE   N10  Fn2  v120
 BYTE   W12
 BYTE   N10  Fn2  v120
 BYTE   W12
 BYTE   N10  Fn2  v120
 BYTE   W12
 BYTE   N10  Fn2  v120
 BYTE   W12
 BYTE   PEND 
// 033   ----------------------------------------
Label_2_01360A9B:
 BYTE   N10  Fn2  v120
 BYTE   W12
 BYTE   N10  Fn3  v120
 BYTE   W12
 BYTE   N10  Fn2  v120
 BYTE   W12
 BYTE   N10  En3  v120
 BYTE   W12
 BYTE   N10  Fn2  v120
 BYTE   W12
 BYTE   N10  Dn3  v120
 BYTE   W12
 BYTE   N10  Fn2  v120
 BYTE   W12
 BYTE   N10  Cn3  v120
 BYTE   W12
 BYTE   PEND 
// 034   ----------------------------------------
Label_2_01360ABC:
 BYTE   N10  Gn2  v120
 BYTE   W12
 BYTE   N10  Gn3  v120
 BYTE   W12
 BYTE   N10  Gn2  v120
 BYTE   W12
 BYTE   N10  Fn3  v120
 BYTE   W12
 BYTE   N10  Gn2  v120
 BYTE   W12
 BYTE   N10  En3  v120
 BYTE   W12
 BYTE   N10  Gn2  v120
 BYTE   W12
 BYTE   N10  Dn3  v120
 BYTE   W12
 BYTE   PEND 
// 035   ----------------------------------------
Label_2_01360ADD:
 BYTE   N10  Gn2  v120
 BYTE   W12
 BYTE   N10  Gn2  v120
 BYTE   W12
 BYTE   N10  Gn2  v120
 BYTE   W12
 BYTE   N10  Gn2  v120
 BYTE   W12
 BYTE   N10  Gn2  v120
 BYTE   W12
 BYTE   N10  Gn2  v120
 BYTE   W12
 BYTE   N10  Gn3  v120
 BYTE   W12
 BYTE   N10  Gn2  v120
 BYTE   W12
 BYTE   PEND 
// 036   ----------------------------------------
 BYTE   PATT
  POIN2 Label_2_01360A7A
// 037   ----------------------------------------
 BYTE   PATT
  POIN2 Label_2_01360A9B
// 038   ----------------------------------------
 BYTE   PATT
  POIN2 Label_2_01360ABC
// 039   ----------------------------------------
 BYTE   PATT
  POIN2 Label_2_01360ADD
// 040   ----------------------------------------
 BYTE   N32  An2  v120
 BYTE   W36
 BYTE   N10  An2  v120
 BYTE   W12
 BYTE   N17  An3  v120
 BYTE   W18
 BYTE   N17  En3  v120
 BYTE   W18
 BYTE   N11  An3  v120
 BYTE   W12
// 041   ----------------------------------------
 BYTE   N44  Bn2  v120
 BYTE   W48
 BYTE   N23  Fs2  v120
 BYTE   W24
 BYTE   N23  Bn2  v120
 BYTE   W24
// 042   ----------------------------------------
 BYTE   N32  Fn2  v120
 BYTE   W36
 BYTE   N05  Fn2  v120
 BYTE   W06
 BYTE   N05  Fn2  v120
 BYTE   W06
 BYTE   N17  Fn3  v120
 BYTE   W18
 BYTE   N17  Cn3  v120
 BYTE   W18
 BYTE   N11  Fn3  v120
 BYTE   W12
// 043   ----------------------------------------
 BYTE   N11  Gn2  v120
 BYTE   W12
 BYTE   N11  Gn2  v120
 BYTE   W12
 BYTE   N11  Gn3  v120
 BYTE   W12
 BYTE   N11  Gn2  v120
 BYTE   W12
 BYTE   N11  Gs2  v120
 BYTE   W12
 BYTE   N11  En3  v120
 BYTE   W12
 BYTE   N11  Gs3  v120
 BYTE   W12
 BYTE   N11  Bn3  v120
 BYTE   W12
// 044   ----------------------------------------
 BYTE   GoTo
  POIN2 Label_2_0136081A
 BYTE   FINE

//**************** Track 4 (Midi-Chn.3) ****************//

song5E_004:
// 000   ----------------------------------------
 BYTE   KEYSH   song5E_key+0
Label_3_01360B72:
 BYTE   VOICE   8
 BYTE   MOD 0
 BYTE   CnM2  v000
 BYTE   CnM2  v003
 BYTE   VOL   18*song5E_mvl/mxv
 BYTE   PAN   c_v+0
 BYTE   LFOS 0
 BYTE   CnM2  v000
 BYTE   CnM2  v040
 BYTE   TUNE 0
 BYTE   CnM2  v000
 BYTE   CnM2  v064
 BYTE   LFODL 0
 BYTE   CnM2  v000
 BYTE   CnM2  v060
 BYTE   BEND   c_v+0
 BYTE   W96
// 001   ----------------------------------------
 BYTE   W96
// 002   ----------------------------------------
 BYTE   W96
// 003   ----------------------------------------
 BYTE   W96
// 004   ----------------------------------------
 BYTE   W96
// 005   ----------------------------------------
 BYTE   W96
// 006   ----------------------------------------
 BYTE   W96
// 007   ----------------------------------------
 BYTE   W96
// 008   ----------------------------------------
 BYTE   W96
// 009   ----------------------------------------
 BYTE   W96
// 010   ----------------------------------------
 BYTE   W96
// 011   ----------------------------------------
 BYTE   W96
// 012   ----------------------------------------
 BYTE   W96
// 013   ----------------------------------------
 BYTE   W96
// 014   ----------------------------------------
 BYTE   W96
// 015   ----------------------------------------
 BYTE   W96
// 016   ----------------------------------------
Label_3_01360B9E:
 BYTE   N32  Fs4  v104
 BYTE   W36
 BYTE   N23  Fs5  v104
 BYTE   W24
 BYTE   N10  En5  v104
 BYTE   W12
 BYTE   N10  Dn5  v104
 BYTE   W12
 BYTE   N10  Cs5  v104
 BYTE   W12
 BYTE   PEND 
// 017   ----------------------------------------
Label_3_01360BB3:
 BYTE   N44  Bn4  v104
 BYTE   W48
 BYTE   N17  Bn4  v104
 BYTE   W18
 BYTE   N17  Cs5  v104
 BYTE   W18
 BYTE   N11  Dn5  v104
 BYTE   W12
 BYTE   PEND 
// 018   ----------------------------------------
 BYTE   N32  Cs5  v104
 BYTE   W36
 BYTE   TIE  Fs4  v104
 BYTE   W60
// 019   ----------------------------------------
 BYTE   W44
 BYTE   W03
 BYTE   EOT
 BYTE   W01
 BYTE   N17  Fs4  v104
 BYTE   W18
 BYTE   N17  Gs4  v104
 BYTE   W18
 BYTE   N11  An4  v104
 BYTE   W12
// 020   ----------------------------------------
 BYTE   PATT
  POIN2 Label_3_01360B9E
// 021   ----------------------------------------
 BYTE   PATT
  POIN2 Label_3_01360BB3
// 022   ----------------------------------------
 BYTE   N32  Cs5  v127
 BYTE   W36
 BYTE   N56  Fs5  v127
 BYTE   W60
// 023   ----------------------------------------
 BYTE   N32  Fn5  v127
 BYTE   W36
 BYTE   N32  Fs5  v127
 BYTE   W36
 BYTE   N23  Gs5  v127
 BYTE   W24
// 024   ----------------------------------------
 BYTE   W96
// 025   ----------------------------------------
 BYTE   W96
// 026   ----------------------------------------
 BYTE   W96
// 027   ----------------------------------------
 BYTE   W96
// 028   ----------------------------------------
 BYTE   W96
// 029   ----------------------------------------
 BYTE   W96
// 030   ----------------------------------------
 BYTE   W96
// 031   ----------------------------------------
 BYTE   W96
// 032   ----------------------------------------
 BYTE   W96
// 033   ----------------------------------------
 BYTE   W96
// 034   ----------------------------------------
 BYTE   W96
// 035   ----------------------------------------
 BYTE   W96
// 036   ----------------------------------------
 BYTE   W96
// 037   ----------------------------------------
 BYTE   W96
// 038   ----------------------------------------
 BYTE   W96
// 039   ----------------------------------------
 BYTE   W96
// 040   ----------------------------------------
 BYTE   N05  En3  v100
 BYTE   W06
 BYTE   N05  An3  v100
 BYTE   W06
 BYTE   N05  Cs4  v100
 BYTE   W06
 BYTE   N05  En4  v100
 BYTE   W06
 BYTE   N05  An4  v100
 BYTE   W06
 BYTE   N05  Cs5  v100
 BYTE   W06
 BYTE   N05  En5  v100
 BYTE   W06
 BYTE   N05  An4  v100
 BYTE   W06
 BYTE   N05  An5  v100
 BYTE   W06
 BYTE   N05  En5  v100
 BYTE   W06
 BYTE   N05  Cs5  v100
 BYTE   W06
 BYTE   N05  An4  v100
 BYTE   W06
 BYTE   N05  En5  v100
 BYTE   W06
 BYTE   N05  Cs5  v100
 BYTE   W06
 BYTE   N05  An4  v100
 BYTE   W06
 BYTE   N05  En4  v100
 BYTE   W06
// 041   ----------------------------------------
 BYTE   N05  Fs3  v100
 BYTE   W06
 BYTE   N05  Bn3  v100
 BYTE   W06
 BYTE   N05  Ds4  v100
 BYTE   W06
 BYTE   N05  Fs4  v100
 BYTE   W06
 BYTE   N05  Bn4  v100
 BYTE   W06
 BYTE   N05  Ds4  v100
 BYTE   W06
 BYTE   N05  Fs4  v100
 BYTE   W06
 BYTE   N05  Bn4  v100
 BYTE   W06
 BYTE   N05  Fs5  v100
 BYTE   W06
 BYTE   N05  Ds5  v100
 BYTE   W06
 BYTE   N05  Bn4  v100
 BYTE   W06
 BYTE   N05  Fs4  v100
 BYTE   W06
 BYTE   N05  Bn4  v100
 BYTE   W06
 BYTE   N05  Fs4  v100
 BYTE   W06
 BYTE   N05  Ds4  v100
 BYTE   W06
 BYTE   N05  Bn3  v100
 BYTE   W06
// 042   ----------------------------------------
 BYTE   N05  Fn3  v100
 BYTE   W06
 BYTE   N05  An3  v100
 BYTE   W06
 BYTE   N05  Cn4  v100
 BYTE   W06
 BYTE   N05  Fn4  v100
 BYTE   W06
 BYTE   N05  An4  v100
 BYTE   W06
 BYTE   N05  Cn4  v100
 BYTE   W06
 BYTE   N05  Fn4  v100
 BYTE   W06
 BYTE   N05  An4  v100
 BYTE   W06
 BYTE   N05  An5  v100
 BYTE   W06
 BYTE   N05  Fn5  v100
 BYTE   W06
 BYTE   N05  Cn5  v100
 BYTE   W06
 BYTE   N05  An4  v100
 BYTE   W06
 BYTE   N05  Fn5  v100
 BYTE   W06
 BYTE   N05  Cn5  v100
 BYTE   W06
 BYTE   N05  An4  v100
 BYTE   W06
 BYTE   N05  Fn4  v100
 BYTE   W06
// 043   ----------------------------------------
 BYTE   N05  Gn3  v100
 BYTE   W06
 BYTE   N05  Bn3  v100
 BYTE   W06
 BYTE   N05  Dn4  v100
 BYTE   W06
 BYTE   N05  Gn4  v100
 BYTE   W06
 BYTE   N05  Bn4  v100
 BYTE   W06
 BYTE   N05  Dn5  v100
 BYTE   W06
 BYTE   N05  Gn5  v100
 BYTE   W06
 BYTE   N05  Bn5  v100
 BYTE   W06
 BYTE   N05  Gs5  v100
 BYTE   W06
 BYTE   N05  En6  v100
 BYTE   W06
 BYTE   N05  En5  v100
 BYTE   W06
 BYTE   N05  Bn5  v100
 BYTE   W06
 BYTE   N05  Bn4  v100
 BYTE   W06
 BYTE   N05  Gs5  v100
 BYTE   W06
 BYTE   N05  Gs4  v100
 BYTE   W06
 BYTE   N05  En5  v100
 BYTE   W06
// 044   ----------------------------------------
 BYTE   GoTo
  POIN2 Label_3_01360B72
 BYTE   FINE

//**************** Track 5 (Midi-Chn.4) ****************//

song5E_005:
// 000   ----------------------------------------
 BYTE   KEYSH   song5E_key+0
Label_4_01360D12:
 BYTE   VOICE   41
 BYTE   MOD 0
 BYTE   CnM2  v000
 BYTE   CnM2  v003
 BYTE   VOL   19*song5E_mvl/mxv
 BYTE   PAN   c_v-9
 BYTE   LFOS 0
 BYTE   CnM2  v000
 BYTE   CnM2  v040
 BYTE   TUNE 0
 BYTE   CnM2  v000
 BYTE   CnM2  v064
 BYTE   LFODL 0
 BYTE   CnM2  v000
 BYTE   CnM2  v060
 BYTE   BEND   c_v+0
 BYTE   W96
// 001   ----------------------------------------
 BYTE   W96
// 002   ----------------------------------------
 BYTE   W96
// 003   ----------------------------------------
 BYTE   W96
// 004   ----------------------------------------
 BYTE   W96
// 005   ----------------------------------------
 BYTE   W96
// 006   ----------------------------------------
 BYTE   W96
// 007   ----------------------------------------
 BYTE   W96
// 008   ----------------------------------------
 BYTE   W96
// 009   ----------------------------------------
 BYTE   W96
// 010   ----------------------------------------
 BYTE   W96
// 011   ----------------------------------------
 BYTE   W96
// 012   ----------------------------------------
 BYTE   W96
// 013   ----------------------------------------
 BYTE   W96
// 014   ----------------------------------------
 BYTE   W96
// 015   ----------------------------------------
 BYTE   W96
// 016   ----------------------------------------
Label_4_01360D3E:
 BYTE   N32  Fs3  v100
 BYTE   W36
 BYTE   N23  Fs4  v100
 BYTE   W24
 BYTE   N11  En4  v100
 BYTE   W12
 BYTE   N11  Dn4  v100
 BYTE   W12
 BYTE   N11  Cs4  v100
 BYTE   W12
 BYTE   PEND 
// 017   ----------------------------------------
Label_4_01360D53:
 BYTE   N44  Bn3  v100
 BYTE   W48
 BYTE   N17  Bn3  v100
 BYTE   W18
 BYTE   N17  Cs4  v100
 BYTE   W18
 BYTE   N11  Dn4  v100
 BYTE   W12
 BYTE   PEND 
// 018   ----------------------------------------
 BYTE   N32  Cs4  v100
 BYTE   W36
 BYTE   TIE  Fs3  v100
 BYTE   W60
// 019   ----------------------------------------
 BYTE   W64
 BYTE   W01
 BYTE   EOT
 BYTE   W01
 BYTE   N17  Gs3  v076
 BYTE   W18
 BYTE   N11  An3  v076
 BYTE   W12
// 020   ----------------------------------------
 BYTE   PATT
  POIN2 Label_4_01360D3E
// 021   ----------------------------------------
 BYTE   PATT
  POIN2 Label_4_01360D53
// 022   ----------------------------------------
 BYTE   N32  Cs4  v100
 BYTE   W36
 BYTE   N56  Fs4  v100
 BYTE   W60
// 023   ----------------------------------------
 BYTE   N32  Fn4  v100
 BYTE   W36
 BYTE   N32  Fs4  v100
 BYTE   W36
 BYTE   N23  Gs4  v100
 BYTE   W24
// 024   ----------------------------------------
 BYTE   W96
// 025   ----------------------------------------
 BYTE   W96
// 026   ----------------------------------------
 BYTE   W96
// 027   ----------------------------------------
 BYTE   W96
// 028   ----------------------------------------
 BYTE   W96
// 029   ----------------------------------------
 BYTE   W96
// 030   ----------------------------------------
 BYTE   W96
// 031   ----------------------------------------
 BYTE   W96
// 032   ----------------------------------------
 BYTE   N44  An4  v100
 BYTE   W48
 BYTE   N44  Gn4  v100
 BYTE   W48
// 033   ----------------------------------------
 BYTE   N44  Fn4  v100
 BYTE   W48
 BYTE   N44  En4  v100
 BYTE   W48
// 034   ----------------------------------------
 BYTE   N32  Dn4  v100
 BYTE   W36
 BYTE   N32  En4  v100
 BYTE   W36
 BYTE   N23  Fn4  v100
 BYTE   W24
// 035   ----------------------------------------
 BYTE   N32  Dn4  v100
 BYTE   N32  Gn4  v100
 BYTE   W36
 BYTE   N32  Fn4  v100
 BYTE   N32  An4  v100
 BYTE   W36
 BYTE   N23  Gn4  v100
 BYTE   N23  Bn4  v100
 BYTE   W24
// 036   ----------------------------------------
 BYTE   N44  An4  v100
 BYTE   N44  Cn5  v100
 BYTE   W48
 BYTE   N44  Gn4  v100
 BYTE   N44  Bn4  v100
 BYTE   W48
// 037   ----------------------------------------
 BYTE   N44  Fn4  v100
 BYTE   N44  An4  v100
 BYTE   W48
 BYTE   N44  En4  v100
 BYTE   N44  Gn4  v100
 BYTE   W48
// 038   ----------------------------------------
 BYTE   N32  Bn3  v100
 BYTE   N32  Dn4  v100
 BYTE   W36
 BYTE   N32  Cn4  v100
 BYTE   N32  En4  v100
 BYTE   W36
 BYTE   N23  Dn4  v100
 BYTE   N23  Fn4  v100
 BYTE   W24
// 039   ----------------------------------------
 BYTE   N44  Dn4  v100
 BYTE   N44  An4  v100
 BYTE   W48
 BYTE   N44  Dn4  v100
 BYTE   N44  Gn4  v100
 BYTE   W48
// 040   ----------------------------------------
 BYTE   N92  Cs4  v100
 BYTE   W96
// 041   ----------------------------------------
 BYTE   N44  Bn3  v100
 BYTE   W48
 BYTE   N44  Ds4  v100
 BYTE   W48
// 042   ----------------------------------------
 BYTE   N44  Fn4  v100
 BYTE   W48
 BYTE   N44  An4  v100
 BYTE   W48
// 043   ----------------------------------------
 BYTE   N92  Bn4  v100
 BYTE   W96
// 044   ----------------------------------------
 BYTE   GoTo
  POIN2 Label_4_01360D12
 BYTE   FINE

//**************** Track 6 (Midi-Chn.5) ****************//

song5E_006:
// 000   ----------------------------------------
 BYTE   KEYSH   song5E_key+0
Label_5_01360E2E:
 BYTE   VOICE   40
 BYTE   MOD 0
 BYTE   CnM2  v000
 BYTE   CnM2  v003
 BYTE   VOL   19*song5E_mvl/mxv
 BYTE   PAN   c_v+6
 BYTE   LFOS 0
 BYTE   CnM2  v000
 BYTE   CnM2  v040
 BYTE   TUNE 0
 BYTE   CnM2  v000
 BYTE   CnM2  v064
 BYTE   LFODL 0
 BYTE   CnM2  v000
 BYTE   CnM2  v060
 BYTE   BEND   c_v+0
 BYTE   N08  Fs2  v127
 BYTE   N08  Cs3  v127
 BYTE   W12
 BYTE   N08  Fs2  v127
 BYTE   N08  Cs3  v127
 BYTE   W12
 BYTE   N08  Fs2  v127
 BYTE   N08  Cs3  v127
 BYTE   W12
 BYTE   N08  Fs2  v127
 BYTE   N08  Cs3  v127
 BYTE   W12
 BYTE   N08  Gs2  v127
 BYTE   N08  Dn3  v127
 BYTE   W12
 BYTE   N08  Gs2  v127
 BYTE   N08  Dn3  v127
 BYTE   W12
 BYTE   N08  Gs2  v127
 BYTE   N08  Dn3  v127
 BYTE   W12
 BYTE   N08  Gs2  v127
 BYTE   N08  Dn3  v127
 BYTE   W12
// 001   ----------------------------------------
 BYTE   N08  Fs2  v127
 BYTE   N08  Cs3  v127
 BYTE   W12
 BYTE   N08  Fs2  v127
 BYTE   N08  Cs3  v127
 BYTE   W12
 BYTE   N08  Fs2  v127
 BYTE   N08  Cs3  v127
 BYTE   W12
 BYTE   N08  Fs2  v127
 BYTE   N08  Cs3  v127
 BYTE   W12
 BYTE   N08  Gs2  v127
 BYTE   N08  En3  v127
 BYTE   W12
 BYTE   N08  Gs2  v127
 BYTE   N08  En3  v127
 BYTE   W12
 BYTE   N08  Gs2  v127
 BYTE   N08  En3  v127
 BYTE   W12
 BYTE   N08  Gs2  v127
 BYTE   N08  En3  v127
 BYTE   W12
// 002   ----------------------------------------
 BYTE   N08  Fs2  v127
 BYTE   N08  Dn3  v127
 BYTE   W12
 BYTE   N08  Fs2  v127
 BYTE   N08  Dn3  v127
 BYTE   W12
 BYTE   N08  Fs2  v127
 BYTE   N08  Dn3  v127
 BYTE   W12
 BYTE   N08  Fs2  v127
 BYTE   N08  Dn3  v127
 BYTE   W12
 BYTE   N08  En2  v127
 BYTE   N08  Bn2  v127
 BYTE   W12
 BYTE   N08  En2  v127
 BYTE   N08  Bn2  v127
 BYTE   W12
 BYTE   N08  En2  v127
 BYTE   N08  Bn2  v127
 BYTE   W12
 BYTE   N08  En2  v127
 BYTE   N08  Bn2  v127
 BYTE   W12
// 003   ----------------------------------------
 BYTE   N08  Fs2  v127
 BYTE   N08  Cs3  v127
 BYTE   W12
 BYTE   N08  Fs2  v127
 BYTE   N08  Cs3  v127
 BYTE   W12
 BYTE   N08  Fs2  v127
 BYTE   N08  Cs3  v127
 BYTE   W12
 BYTE   N08  Gs2  v127
 BYTE   N08  Cs3  v127
 BYTE   W12
 BYTE   N08  Gs2  v127
 BYTE   N08  Cs3  v127
 BYTE   W12
 BYTE   N08  Gs2  v127
 BYTE   N08  Cs3  v127
 BYTE   W12
 BYTE   N08  Gs2  v127
 BYTE   N08  Cs3  v127
 BYTE   W12
 BYTE   N08  Gs2  v127
 BYTE   N08  Cs3  v127
 BYTE   W12
// 004   ----------------------------------------
 BYTE   W96
// 005   ----------------------------------------
 BYTE   W96
// 006   ----------------------------------------
 BYTE   VOICE   41
 BYTE   VOL   0*song5E_mvl/mxv
 BYTE   TIE  Cs4  v127
 BYTE   W02
 BYTE   VOL   0*song5E_mvl/mxv
 BYTE   W02
 BYTE   VOL   0*song5E_mvl/mxv
 BYTE   W02
 BYTE   VOL   0*song5E_mvl/mxv
 BYTE   W02
 BYTE   VOL   0*song5E_mvl/mxv
 BYTE   W02
 BYTE   VOL   0*song5E_mvl/mxv
 BYTE   W02
 BYTE   VOL   0*song5E_mvl/mxv
 BYTE   W02
 BYTE   VOL   0*song5E_mvl/mxv
 BYTE   W02
 BYTE   VOL   0*song5E_mvl/mxv
 BYTE   W02
 BYTE   VOL   0*song5E_mvl/mxv
 BYTE   W02
 BYTE   VOL   0*song5E_mvl/mxv
 BYTE   W02
 BYTE   VOL   0*song5E_mvl/mxv
 BYTE   W02
 BYTE   VOL   0*song5E_mvl/mxv
 BYTE   W02
 BYTE   VOL   0*song5E_mvl/mxv
 BYTE   W02
 BYTE   VOL   0*song5E_mvl/mxv
 BYTE   W02
 BYTE   VOL   0*song5E_mvl/mxv
 BYTE   W02
 BYTE   VOL   0*song5E_mvl/mxv
 BYTE   W02
 BYTE   VOL   0*song5E_mvl/mxv
 BYTE   W02
 BYTE   VOL   0*song5E_mvl/mxv
 BYTE   W02
 BYTE   VOL   0*song5E_mvl/mxv
 BYTE   W02
 BYTE   VOL   0*song5E_mvl/mxv
 BYTE   W02
 BYTE   VOL   0*song5E_mvl/mxv
 BYTE   W02
 BYTE   VOL   0*song5E_mvl/mxv
 BYTE   W02
 BYTE   VOL   0*song5E_mvl/mxv
 BYTE   W02
 BYTE   VOL   0*song5E_mvl/mxv
 BYTE   W02
 BYTE   VOL   0*song5E_mvl/mxv
 BYTE   W02
 BYTE   VOL   0*song5E_mvl/mxv
 BYTE   W02
 BYTE   VOL   0*song5E_mvl/mxv
 BYTE   W02
 BYTE   VOL   0*song5E_mvl/mxv
 BYTE   W02
 BYTE   VOL   0*song5E_mvl/mxv
 BYTE   W02
 BYTE   VOL   0*song5E_mvl/mxv
 BYTE   W02
 BYTE   VOL   0*song5E_mvl/mxv
 BYTE   W02
 BYTE   VOL   0*song5E_mvl/mxv
 BYTE   W02
 BYTE   VOL   0*song5E_mvl/mxv
 BYTE   W02
 BYTE   VOL   0*song5E_mvl/mxv
 BYTE   W02
 BYTE   VOL   0*song5E_mvl/mxv
 BYTE   W02
 BYTE   VOL   0*song5E_mvl/mxv
 BYTE   W02
 BYTE   VOL   0*song5E_mvl/mxv
 BYTE   W02
 BYTE   VOL   0*song5E_mvl/mxv
 BYTE   W02
 BYTE   VOL   0*song5E_mvl/mxv
 BYTE   W02
 BYTE   VOL   0*song5E_mvl/mxv
 BYTE   W02
 BYTE   VOL   0*song5E_mvl/mxv
 BYTE   W02
 BYTE   VOL   0*song5E_mvl/mxv
 BYTE   W02
 BYTE   VOL   0*song5E_mvl/mxv
 BYTE   W02
 BYTE   VOL   0*song5E_mvl/mxv
 BYTE   W02
 BYTE   VOL   0*song5E_mvl/mxv
 BYTE   W02
 BYTE   VOL   0*song5E_mvl/mxv
 BYTE   W02
 BYTE   VOL   0*song5E_mvl/mxv
 BYTE   W02
// 007   ----------------------------------------
 BYTE   VOL   0*song5E_mvl/mxv
 BYTE   W02
 BYTE   VOL   0*song5E_mvl/mxv
 BYTE   W02
 BYTE   VOL   0*song5E_mvl/mxv
 BYTE   W02
 BYTE   VOL   0*song5E_mvl/mxv
 BYTE   W02
 BYTE   VOL   0*song5E_mvl/mxv
 BYTE   W02
 BYTE   VOL   0*song5E_mvl/mxv
 BYTE   W02
 BYTE   VOL   0*song5E_mvl/mxv
 BYTE   W02
 BYTE   VOL   1*song5E_mvl/mxv
 BYTE   W02
 BYTE   VOL   2*song5E_mvl/mxv
 BYTE   W02
 BYTE   VOL   3*song5E_mvl/mxv
 BYTE   W02
 BYTE   VOL   5*song5E_mvl/mxv
 BYTE   W02
 BYTE   VOL   6*song5E_mvl/mxv
 BYTE   W02
 BYTE   VOL   6*song5E_mvl/mxv
 BYTE   W02
 BYTE   VOL   7*song5E_mvl/mxv
 BYTE   W02
 BYTE   VOL   9*song5E_mvl/mxv
 BYTE   W02
 BYTE   VOL   10*song5E_mvl/mxv
 BYTE   W02
 BYTE   VOL   11*song5E_mvl/mxv
 BYTE   W02
 BYTE   VOL   12*song5E_mvl/mxv
 BYTE   W02
 BYTE   VOL   13*song5E_mvl/mxv
 BYTE   W02
 BYTE   VOL   14*song5E_mvl/mxv
 BYTE   W02
 BYTE   VOL   15*song5E_mvl/mxv
 BYTE   W02
 BYTE   VOL   16*song5E_mvl/mxv
 BYTE   W02
 BYTE   VOL   17*song5E_mvl/mxv
 BYTE   W02
 BYTE   EOT
 BYTE   VOL   19*song5E_mvl/mxv
 BYTE   W02
 BYTE   VOL   19*song5E_mvl/mxv
 BYTE   N44  Bn3  v127
 BYTE   W48
// 008   ----------------------------------------
Label_5_01361010:
 BYTE   VOICE   41
 BYTE   N05  Cs4  v127
 BYTE   N05  Fs4  v127
 BYTE   W06
 BYTE   N05  An3  v127
 BYTE   N05  Cs4  v127
 BYTE   W06
 BYTE   N05  Fs3  v127
 BYTE   N05  An3  v127
 BYTE   W06
 BYTE   N05  Cs3  v127
 BYTE   N05  Fs3  v127
 BYTE   W06
 BYTE   VOICE   40
 BYTE   N05  An2  v127
 BYTE   N05  Cs3  v127
 BYTE   W06
 BYTE   N05  Fs2  v127
 BYTE   N05  An2  v127
 BYTE   W06
 BYTE   N08  Cs2  v127
 BYTE   N08  Fs2  v127
 BYTE   W60
 BYTE   PEND 
// 009   ----------------------------------------
 BYTE   PATT
  POIN2 Label_5_01361010
// 010   ----------------------------------------
Label_5_0136104B:
 BYTE   VOICE   41
 BYTE   N05  Dn4  v127
 BYTE   N05  Fs4  v127
 BYTE   W06
 BYTE   N05  An3  v127
 BYTE   N05  Dn4  v127
 BYTE   W06
 BYTE   N05  Fs3  v127
 BYTE   N05  An3  v127
 BYTE   W06
 BYTE   N05  Dn3  v127
 BYTE   N05  Fs3  v127
 BYTE   W06
 BYTE   VOICE   40
 BYTE   N05  An2  v127
 BYTE   N05  Dn3  v127
 BYTE   W06
 BYTE   N05  Fs2  v127
 BYTE   N05  An2  v127
 BYTE   W06
 BYTE   N05  An2  v127
 BYTE   N05  Dn3  v127
 BYTE   W06
 BYTE   N05  Dn3  v127
 BYTE   N05  Fs3  v127
 BYTE   W06
 BYTE   VOICE   41
 BYTE   N05  Bn3  v127
 BYTE   N05  En4  v127
 BYTE   W06
 BYTE   N05  Gs3  v127
 BYTE   N05  Bn3  v127
 BYTE   W06
 BYTE   N05  En3  v127
 BYTE   N05  Gs3  v127
 BYTE   W06
 BYTE   VOICE   40
 BYTE   N05  Bn2  v127
 BYTE   N05  En3  v127
 BYTE   W06
 BYTE   N05  Gs2  v127
 BYTE   N05  Bn2  v127
 BYTE   W06
 BYTE   N05  En2  v127
 BYTE   N05  Gs2  v127
 BYTE   W06
 BYTE   N05  Gs2  v127
 BYTE   N05  Bn2  v127
 BYTE   W06
 BYTE   N05  Bn2  v127
 BYTE   N05  En3  v127
 BYTE   W06
 BYTE   PEND 
// 011   ----------------------------------------
Label_5_013610C4:
 BYTE   VOICE   41
 BYTE   N05  Cs4  v127
 BYTE   N05  Fs4  v127
 BYTE   W06
 BYTE   N05  An3  v127
 BYTE   N05  Cs4  v127
 BYTE   W06
 BYTE   N05  Fs3  v127
 BYTE   N05  An3  v127
 BYTE   W06
 BYTE   N05  Cs3  v127
 BYTE   N05  Fs3  v127
 BYTE   W06
 BYTE   VOICE   40
 BYTE   N05  An2  v127
 BYTE   N05  Cs3  v127
 BYTE   W06
 BYTE   N05  Fs2  v127
 BYTE   N05  An2  v127
 BYTE   W06
 BYTE   N05  Fn2  v127
 BYTE   N05  Gs2  v127
 BYTE   W06
 BYTE   N05  Gs2  v127
 BYTE   N05  Cs3  v127
 BYTE   W06
 BYTE   N05  Cs3  v127
 BYTE   N05  Fn3  v127
 BYTE   W06
 BYTE   N05  Fn3  v127
 BYTE   N05  Gs3  v127
 BYTE   W06
 BYTE   N05  Cs3  v127
 BYTE   N05  Fn3  v127
 BYTE   W06
 BYTE   N05  Fn3  v127
 BYTE   N05  Gs3  v127
 BYTE   W06
 BYTE   VOICE   41
 BYTE   N05  Gs3  v127
 BYTE   N05  Cs4  v127
 BYTE   W06
 BYTE   N05  Cs4  v127
 BYTE   N05  Fn4  v127
 BYTE   W06
 BYTE   N05  Fn4  v127
 BYTE   N05  Gs4  v127
 BYTE   W06
 BYTE   N05  Cs4  v127
 BYTE   N05  Fn4  v127
 BYTE   W06
 BYTE   PEND 
// 012   ----------------------------------------
Label_5_0136113B:
 BYTE   VOICE   40
 BYTE   N08  An2  v127
 BYTE   N08  Dn3  v127
 BYTE   W12
 BYTE   N08  An2  v127
 BYTE   N08  Dn3  v127
 BYTE   W12
 BYTE   N08  An2  v127
 BYTE   N08  Dn3  v127
 BYTE   W12
 BYTE   N08  An2  v127
 BYTE   N08  Dn3  v127
 BYTE   W12
 BYTE   N08  An2  v127
 BYTE   N08  Dn3  v127
 BYTE   W12
 BYTE   N08  An2  v127
 BYTE   N08  Dn3  v127
 BYTE   W12
 BYTE   N08  An2  v127
 BYTE   N08  Dn3  v127
 BYTE   W12
 BYTE   N08  An2  v127
 BYTE   N08  Dn3  v127
 BYTE   W12
 BYTE   PEND 
// 013   ----------------------------------------
Label_5_01361176:
 BYTE   VOICE   40
 BYTE   N08  Bn2  v127
 BYTE   N08  En3  v127
 BYTE   W12
 BYTE   N08  Bn2  v127
 BYTE   N08  En3  v127
 BYTE   W12
 BYTE   N08  Bn2  v127
 BYTE   N08  En3  v127
 BYTE   W12
 BYTE   N08  Bn2  v127
 BYTE   N08  En3  v127
 BYTE   W12
 BYTE   N08  Bn2  v127
 BYTE   N08  En3  v127
 BYTE   W12
 BYTE   N08  Bn2  v127
 BYTE   N08  En3  v127
 BYTE   W12
 BYTE   N08  Bn2  v127
 BYTE   N08  En3  v127
 BYTE   W12
 BYTE   N08  Bn2  v127
 BYTE   N08  En3  v127
 BYTE   W12
 BYTE   PEND 
// 014   ----------------------------------------
Label_5_013611B1:
 BYTE   VOICE   40
 BYTE   N08  As2  v127
 BYTE   N08  Cs3  v127
 BYTE   W12
 BYTE   N08  As2  v127
 BYTE   N08  Cs3  v127
 BYTE   W12
 BYTE   N08  As2  v127
 BYTE   N08  Cs3  v127
 BYTE   W12
 BYTE   N08  As2  v127
 BYTE   N08  Cs3  v127
 BYTE   W12
 BYTE   N08  As2  v127
 BYTE   N08  Cs3  v127
 BYTE   W12
 BYTE   N08  As2  v127
 BYTE   N08  Cs3  v127
 BYTE   W12
 BYTE   N08  As2  v127
 BYTE   N08  Cs3  v127
 BYTE   W12
 BYTE   N08  As2  v127
 BYTE   N08  Cs3  v127
 BYTE   W12
 BYTE   PEND 
// 015   ----------------------------------------
Label_5_013611EC:
 BYTE   VOICE   40
 BYTE   N05  En2  v127
 BYTE   N05  Bn2  v127
 BYTE   W06
 BYTE   N05  Gs2  v127
 BYTE   N05  En3  v127
 BYTE   W06
 BYTE   N05  Bn2  v127
 BYTE   N05  Gs3  v127
 BYTE   W06
 BYTE   N05  En3  v127
 BYTE   N05  Bn3  v127
 BYTE   W06
 BYTE   N05  Gs2  v127
 BYTE   N05  En3  v127
 BYTE   W06
 BYTE   N05  Bn2  v127
 BYTE   N05  Gs3  v127
 BYTE   W06
 BYTE   VOICE   41
 BYTE   N05  En3  v127
 BYTE   N05  Bn3  v127
 BYTE   W06
 BYTE   N05  Gs3  v127
 BYTE   N05  En4  v127
 BYTE   W06
 BYTE   N05  Bn3  v127
 BYTE   N05  Gs4  v127
 BYTE   W06
 BYTE   N05  Gs3  v127
 BYTE   N05  En4  v127
 BYTE   W06
 BYTE   N05  En3  v127
 BYTE   N05  Bn3  v127
 BYTE   W06
 BYTE   N05  Bn2  v127
 BYTE   N05  Gs3  v127
 BYTE   W06
 BYTE   N05  En3  v127
 BYTE   N05  Bn3  v127
 BYTE   W06
 BYTE   VOICE   40
 BYTE   N05  Bn2  v127
 BYTE   N05  Gs3  v127
 BYTE   W06
 BYTE   N05  Gs2  v127
 BYTE   N05  En3  v127
 BYTE   W06
 BYTE   N05  En2  v127
 BYTE   N05  Bn2  v127
 BYTE   W06
 BYTE   PEND 
// 016   ----------------------------------------
Label_5_01361263:
 BYTE   VOICE   40
 BYTE   N08  Dn2  v127
 BYTE   N08  An2  v127
 BYTE   W12
 BYTE   N08  Dn2  v127
 BYTE   N08  An2  v127
 BYTE   W12
 BYTE   N08  Dn2  v127
 BYTE   N08  An2  v127
 BYTE   W12
 BYTE   N08  Dn2  v127
 BYTE   N08  An2  v127
 BYTE   W12
 BYTE   N08  Dn2  v127
 BYTE   N08  An2  v127
 BYTE   W12
 BYTE   N08  Dn2  v127
 BYTE   N08  An2  v127
 BYTE   W12
 BYTE   N08  Dn2  v127
 BYTE   N08  An2  v127
 BYTE   W12
 BYTE   N08  Dn2  v127
 BYTE   N08  An2  v127
 BYTE   W12
 BYTE   PEND 
// 017   ----------------------------------------
Label_5_0136129E:
 BYTE   VOICE   40
 BYTE   N08  En2  v127
 BYTE   N08  Bn2  v127
 BYTE   W12
 BYTE   N08  En2  v127
 BYTE   N08  Bn2  v127
 BYTE   W12
 BYTE   N08  En2  v127
 BYTE   N08  Bn2  v127
 BYTE   W12
 BYTE   N08  En2  v127
 BYTE   N08  Bn2  v127
 BYTE   W12
 BYTE   N08  En2  v127
 BYTE   N08  Bn2  v127
 BYTE   W12
 BYTE   N08  En2  v127
 BYTE   N08  Bn2  v127
 BYTE   W12
 BYTE   N08  En2  v127
 BYTE   N08  Bn2  v127
 BYTE   W12
 BYTE   N08  En2  v127
 BYTE   N08  Bn2  v127
 BYTE   W12
 BYTE   PEND 
// 018   ----------------------------------------
Label_5_013612D9:
 BYTE   VOICE   40
 BYTE   N08  Fs2  v127
 BYTE   N08  Cs3  v127
 BYTE   W12
 BYTE   N08  Fs2  v127
 BYTE   N08  Cs3  v127
 BYTE   W12
 BYTE   N08  Fs2  v127
 BYTE   N08  Cs3  v127
 BYTE   W12
 BYTE   N08  Fs2  v127
 BYTE   N08  Cs3  v127
 BYTE   W12
 BYTE   N08  Fs2  v127
 BYTE   N08  Cs3  v127
 BYTE   W12
 BYTE   N08  Fs2  v127
 BYTE   N08  Cs3  v127
 BYTE   W12
 BYTE   N08  Fs2  v127
 BYTE   N08  Cs3  v127
 BYTE   W12
 BYTE   N08  Fs2  v127
 BYTE   N08  Cs3  v127
 BYTE   W12
 BYTE   PEND 
// 019   ----------------------------------------
 BYTE   PATT
  POIN2 Label_5_0136129E
// 020   ----------------------------------------
 BYTE   PATT
  POIN2 Label_5_01361263
// 021   ----------------------------------------
 BYTE   PATT
  POIN2 Label_5_0136129E
// 022   ----------------------------------------
 BYTE   PATT
  POIN2 Label_5_013612D9
// 023   ----------------------------------------
 BYTE   VOICE   40
 BYTE   N05  Cs2  v127
 BYTE   N05  Fn2  v127
 BYTE   W06
 BYTE   N05  Fn2  v127
 BYTE   N05  Gs2  v127
 BYTE   W06
 BYTE   N05  Gs2  v127
 BYTE   N05  Cs3  v127
 BYTE   W06
 BYTE   N05  Cs3  v127
 BYTE   N05  Fn3  v127
 BYTE   W06
 BYTE   N05  Fn2  v127
 BYTE   N05  Gs2  v127
 BYTE   W06
 BYTE   N05  Gs2  v127
 BYTE   N05  Cs3  v127
 BYTE   W06
 BYTE   N05  Cs3  v127
 BYTE   N05  Fn3  v127
 BYTE   W06
 BYTE   N05  Fn3  v127
 BYTE   N05  Gs3  v127
 BYTE   W06
 BYTE   N05  Gs3  v127
 BYTE   N05  Cs4  v127
 BYTE   W06
 BYTE   N05  Fn3  v127
 BYTE   N05  Gs3  v127
 BYTE   W06
 BYTE   N05  Cs3  v127
 BYTE   N05  Fn3  v127
 BYTE   W06
 BYTE   N05  Gs2  v127
 BYTE   N05  Cs3  v127
 BYTE   W06
 BYTE   N05  Fn3  v127
 BYTE   N05  Gs3  v127
 BYTE   W06
 BYTE   N05  Cs3  v127
 BYTE   N05  Fn3  v127
 BYTE   W06
 BYTE   N05  Gs2  v127
 BYTE   N05  Cs3  v127
 BYTE   W06
 BYTE   N05  Fn2  v127
 BYTE   N05  Gs2  v127
 BYTE   W06
// 024   ----------------------------------------
 BYTE   PATT
  POIN2 Label_5_01361010
// 025   ----------------------------------------
 BYTE   PATT
  POIN2 Label_5_01361010
// 026   ----------------------------------------
 BYTE   PATT
  POIN2 Label_5_0136104B
// 027   ----------------------------------------
 BYTE   PATT
  POIN2 Label_5_013610C4
// 028   ----------------------------------------
 BYTE   PATT
  POIN2 Label_5_0136113B
// 029   ----------------------------------------
 BYTE   PATT
  POIN2 Label_5_01361176
// 030   ----------------------------------------
 BYTE   PATT
  POIN2 Label_5_013611B1
// 031   ----------------------------------------
 BYTE   PATT
  POIN2 Label_5_013611EC
// 032   ----------------------------------------
 BYTE   W96
// 033   ----------------------------------------
 BYTE   W96
// 034   ----------------------------------------
 BYTE   W96
// 035   ----------------------------------------
 BYTE   W96
// 036   ----------------------------------------
 BYTE   W96
// 037   ----------------------------------------
 BYTE   W96
// 038   ----------------------------------------
 BYTE   W96
// 039   ----------------------------------------
 BYTE   W96
// 040   ----------------------------------------
 BYTE   W96
// 041   ----------------------------------------
 BYTE   W96
// 042   ----------------------------------------
 BYTE   W96
// 043   ----------------------------------------
 BYTE   W96
// 044   ----------------------------------------
 BYTE   GoTo
  POIN2 Label_5_01360E2E
 BYTE   FINE

//**************** Track 7 (Midi-Chn.6) ****************//

song5E_007:
// 000   ----------------------------------------
 BYTE   KEYSH   song5E_key+0
Label_6_013613D6:
 BYTE   VOICE   74
 BYTE   MOD 0
 BYTE   CnM2  v000
 BYTE   CnM2  v003
 BYTE   VOL   28*song5E_mvl/mxv
 BYTE   PAN   c_v+0
 BYTE   LFOS 0
 BYTE   CnM2  v000
 BYTE   CnM2  v040
 BYTE   TUNE 0
 BYTE   CnM2  v000
 BYTE   CnM2  v064
 BYTE   LFODL 0
 BYTE   CnM2  v000
 BYTE   CnM2  v060
 BYTE   BEND   c_v+0
 BYTE   W96
// 001   ----------------------------------------
 BYTE   W96
// 002   ----------------------------------------
 BYTE   W96
// 003   ----------------------------------------
 BYTE   W96
// 004   ----------------------------------------
 BYTE   W96
// 005   ----------------------------------------
 BYTE   W96
// 006   ----------------------------------------
 BYTE   W96
// 007   ----------------------------------------
 BYTE   W96
// 008   ----------------------------------------
 BYTE   W96
// 009   ----------------------------------------
 BYTE   W96
// 010   ----------------------------------------
 BYTE   W96
// 011   ----------------------------------------
 BYTE   W96
// 012   ----------------------------------------
 BYTE   W96
// 013   ----------------------------------------
 BYTE   W96
// 014   ----------------------------------------
 BYTE   W96
// 015   ----------------------------------------
 BYTE   W96
// 016   ----------------------------------------
 BYTE   W96
// 017   ----------------------------------------
 BYTE   W96
// 018   ----------------------------------------
 BYTE   W96
// 019   ----------------------------------------
 BYTE   W96
// 020   ----------------------------------------
 BYTE   W96
// 021   ----------------------------------------
 BYTE   W96
// 022   ----------------------------------------
 BYTE   W96
// 023   ----------------------------------------
 BYTE   W96
// 024   ----------------------------------------
 BYTE   W96
// 025   ----------------------------------------
 BYTE   W96
// 026   ----------------------------------------
 BYTE   W96
// 027   ----------------------------------------
 BYTE   W96
// 028   ----------------------------------------
 BYTE   W96
// 029   ----------------------------------------
 BYTE   W96
// 030   ----------------------------------------
 BYTE   W96
// 031   ----------------------------------------
 BYTE   W96
// 032   ----------------------------------------
Label_6_01361412:
 BYTE   N06  An3  v104
 BYTE   N06  Cn4  v104
 BYTE   W12
 BYTE   N06  Bn3  v104
 BYTE   N06  Dn4  v104
 BYTE   W12
 BYTE   N06  Gn3  v104
 BYTE   N06  Bn3  v104
 BYTE   W12
 BYTE   N06  An3  v104
 BYTE   N06  Cn4  v104
 BYTE   W12
 BYTE   N20  Bn3  v104
 BYTE   N20  Dn4  v104
 BYTE   W24
 BYTE   N06  An3  v104
 BYTE   N06  Cn4  v104
 BYTE   W12
 BYTE   N06  Bn3  v104
 BYTE   N06  Dn4  v104
 BYTE   W12
 BYTE   PEND 
// 033   ----------------------------------------
Label_6_01361444:
 BYTE   N06  Gn3  v104
 BYTE   N06  Bn3  v104
 BYTE   W12
 BYTE   N06  An3  v104
 BYTE   N06  Cn4  v104
 BYTE   W12
 BYTE   N20  Bn3  v104
 BYTE   N20  Dn4  v104
 BYTE   W24
 BYTE   N06  An3  v104
 BYTE   N06  Cn4  v104
 BYTE   W12
 BYTE   N06  Bn3  v104
 BYTE   N06  Dn4  v104
 BYTE   W12
 BYTE   N06  Gn3  v104
 BYTE   N06  Bn3  v104
 BYTE   W12
 BYTE   N06  An3  v104
 BYTE   N06  Cn4  v104
 BYTE   W12
 BYTE   PEND 
// 034   ----------------------------------------
 BYTE   PATT
  POIN2 Label_6_01361412
// 035   ----------------------------------------
 BYTE   PATT
  POIN2 Label_6_01361444
// 036   ----------------------------------------
 BYTE   PATT
  POIN2 Label_6_01361412
// 037   ----------------------------------------
 BYTE   PATT
  POIN2 Label_6_01361444
// 038   ----------------------------------------
 BYTE   PATT
  POIN2 Label_6_01361412
// 039   ----------------------------------------
 BYTE   PATT
  POIN2 Label_6_01361444
// 040   ----------------------------------------
 BYTE   W96
// 041   ----------------------------------------
 BYTE   W96
// 042   ----------------------------------------
 BYTE   W96
// 043   ----------------------------------------
 BYTE   W96
// 044   ----------------------------------------
 BYTE   GoTo
  POIN2 Label_6_013613D6
 BYTE   FINE

//**************** Track 8 (Midi-Chn.7) ****************//

song5E_008:
// 000   ----------------------------------------
 BYTE   KEYSH   song5E_key+0
Label_7_013614A0:
 BYTE   VOICE   124
 BYTE   VOL   42*song5E_mvl/mxv
 BYTE   PAN   c_v+0
 BYTE   N10  Cn1  v120
 BYTE   N48  Cs2  v080
 BYTE   W24
 BYTE   N10  Dn1  v120
 BYTE   W24
 BYTE   N10  Cn1  v120
 BYTE   W12
 BYTE   N10  Cn1  v120
 BYTE   W12
 BYTE   N10  Dn1  v120
 BYTE   W24
// 001   ----------------------------------------
Label_7_013614BD:
 BYTE   N10  Cn1  v120
 BYTE   W24
 BYTE   N10  Dn1  v120
 BYTE   W24
 BYTE   N10  Cn1  v120
 BYTE   W18
 BYTE   N05  Cn1  v120
 BYTE   W06
 BYTE   N10  Dn1  v120
 BYTE   W24
 BYTE   PEND 
// 002   ----------------------------------------
Label_7_013614D2:
 BYTE   N10  Cn1  v120
 BYTE   W24
 BYTE   N10  Dn1  v120
 BYTE   W24
 BYTE   N10  Cn1  v120
 BYTE   W12
 BYTE   N10  Cn1  v120
 BYTE   W12
 BYTE   N10  Dn1  v120
 BYTE   W24
 BYTE   PEND 
// 003   ----------------------------------------
Label_7_013614E7:
 BYTE   N10  Cn1  v120
 BYTE   W24
 BYTE   N10  Dn1  v120
 BYTE   W24
 BYTE   N05  Cn1  v120
 BYTE   W06
 BYTE   N05  Cn1  v120
 BYTE   W06
 BYTE   N10  Cn1  v120
 BYTE   W12
 BYTE   N10  Dn1  v120
 BYTE   W12
 BYTE   N10  Dn1  v120
 BYTE   W12
 BYTE   PEND 
// 004   ----------------------------------------
 BYTE   PATT
  POIN2 Label_7_013614D2
// 005   ----------------------------------------
Label_7_01361509:
 BYTE   N10  Cn1  v120
 BYTE   W24
 BYTE   N10  Dn1  v120
 BYTE   W24
 BYTE   N10  Cn1  v120
 BYTE   W18
 BYTE   N05  Cn1  v120
 BYTE   W06
 BYTE   N05  Dn1  v120
 BYTE   W06
 BYTE   N05  Dn1  v120
 BYTE   W06
 BYTE   N05  Dn1  v120
 BYTE   W06
 BYTE   N05  Dn1  v120
 BYTE   W06
 BYTE   PEND 
// 006   ----------------------------------------
 BYTE   PATT
  POIN2 Label_7_013614D2
// 007   ----------------------------------------
 BYTE   N10  Cn1  v120
 BYTE   W18
 BYTE   N05  Cn1  v120
 BYTE   W06
 BYTE   N10  Dn1  v120
 BYTE   W12
 BYTE   N10  Cn1  v120
 BYTE   W12
 BYTE   N05  Cn2  v120
 BYTE   W06
 BYTE   N05  Cn2  v120
 BYTE   W06
 BYTE   N05  An1  v120
 BYTE   W06
 BYTE   N05  An1  v120
 BYTE   W06
 BYTE   N05  Fn1  v120
 BYTE   W06
 BYTE   N05  Fn1  v120
 BYTE   W06
 BYTE   N05  An1  v120
 BYTE   W06
 BYTE   N05  Fn1  v120
 BYTE   W06
// 008   ----------------------------------------
Label_7_0136155F:
 BYTE   N10  Cn1  v120
 BYTE   N92  Cs2  v080
 BYTE   W24
 BYTE   N10  Dn1  v120
 BYTE   W24
 BYTE   N10  Cn1  v120
 BYTE   W12
 BYTE   N10  Cn1  v120
 BYTE   W12
 BYTE   N10  Dn1  v120
 BYTE   W24
 BYTE   PEND 
// 009   ----------------------------------------
 BYTE   PATT
  POIN2 Label_7_013614BD
// 010   ----------------------------------------
 BYTE   PATT
  POIN2 Label_7_013614D2
// 011   ----------------------------------------
 BYTE   PATT
  POIN2 Label_7_013614E7
// 012   ----------------------------------------
 BYTE   PATT
  POIN2 Label_7_013614D2
// 013   ----------------------------------------
 BYTE   PATT
  POIN2 Label_7_01361509
// 014   ----------------------------------------
 BYTE   PATT
  POIN2 Label_7_0136155F
// 015   ----------------------------------------
Label_7_01361595:
 BYTE   N10  Cn1  v120
 BYTE   W18
 BYTE   N05  Cn1  v120
 BYTE   W06
 BYTE   N10  Dn1  v120
 BYTE   N68  Cs2  v080
 BYTE   W12
 BYTE   N10  Cn1  v120
 BYTE   W12
 BYTE   N05  Cn2  v120
 BYTE   W06
 BYTE   N05  Dn1  v076
 BYTE   W06
 BYTE   N05  Dn1  v076
 BYTE   W06
 BYTE   N05  An1  v120
 BYTE   W06
 BYTE   N05  Dn1  v076
 BYTE   W06
 BYTE   N05  Dn1  v076
 BYTE   W06
 BYTE   N05  Fn1  v120
 BYTE   W06
 BYTE   N05  Dn1  v076
 BYTE   W06
 BYTE   PEND 
// 016   ----------------------------------------
 BYTE   N32  Cn1  v120
 BYTE   N92  Cs2  v080
 BYTE   W36
 BYTE   N11  Cn1  v120
 BYTE   W12
 BYTE   N11  Dn1  v120
 BYTE   W36
 BYTE   N05  Fs1  v084
 BYTE   W06
 BYTE   N05  Fs1  v084
 BYTE   W06
// 017   ----------------------------------------
 BYTE   N11  Cn1  v120
 BYTE   W12
 BYTE   N11  Cn1  v120
 BYTE   W24
 BYTE   N11  Cn1  v120
 BYTE   W12
 BYTE   N11  Dn1  v120
 BYTE   W12
 BYTE   N11  Cn1  v120
 BYTE   W12
 BYTE   N11  Dn1  v120
 BYTE   W12
 BYTE   N11  Dn1  v120
 BYTE   W12
// 018   ----------------------------------------
 BYTE   N32  Cn1  v120
 BYTE   W36
 BYTE   N11  Cn1  v120
 BYTE   W12
 BYTE   N11  Dn1  v120
 BYTE   W36
 BYTE   N05  Fs1  v084
 BYTE   W06
 BYTE   N05  Fs1  v084
 BYTE   W06
// 019   ----------------------------------------
 BYTE   N11  Cn1  v120
 BYTE   W12
 BYTE   N11  Cn1  v120
 BYTE   W24
 BYTE   N11  Cn1  v120
 BYTE   W12
 BYTE   N11  Dn1  v120
 BYTE   W12
 BYTE   N11  Cn1  v120
 BYTE   W12
 BYTE   N11  Dn1  v120
 BYTE   W12
 BYTE   N05  Dn1  v120
 BYTE   W06
 BYTE   N05  Dn1  v120
 BYTE   W06
// 020   ----------------------------------------
 BYTE   PATT
  POIN2 Label_7_0136155F
// 021   ----------------------------------------
 BYTE   PATT
  POIN2 Label_7_013614BD
// 022   ----------------------------------------
 BYTE   PATT
  POIN2 Label_7_013614D2
// 023   ----------------------------------------
 BYTE   N10  Cn1  v120
 BYTE   W24
 BYTE   N10  Dn1  v120
 BYTE   W24
 BYTE   N05  Cn1  v120
 BYTE   W06
 BYTE   N05  Cn1  v120
 BYTE   W06
 BYTE   N10  Cn1  v120
 BYTE   W12
 BYTE   N05  Dn1  v120
 BYTE   W06
 BYTE   N05  Dn1  v120
 BYTE   W06
 BYTE   N05  Dn1  v120
 BYTE   W06
 BYTE   N05  Dn1  v120
 BYTE   W06
// 024   ----------------------------------------
 BYTE   PATT
  POIN2 Label_7_0136155F
// 025   ----------------------------------------
 BYTE   PATT
  POIN2 Label_7_013614BD
// 026   ----------------------------------------
 BYTE   PATT
  POIN2 Label_7_013614D2
// 027   ----------------------------------------
 BYTE   PATT
  POIN2 Label_7_013614E7
// 028   ----------------------------------------
 BYTE   PATT
  POIN2 Label_7_013614D2
// 029   ----------------------------------------
 BYTE   PATT
  POIN2 Label_7_01361509
// 030   ----------------------------------------
 BYTE   PATT
  POIN2 Label_7_0136155F
// 031   ----------------------------------------
 BYTE   PATT
  POIN2 Label_7_01361595
// 032   ----------------------------------------
Label_7_0136168B:
 BYTE   N11  Cn1  v120
 BYTE   N92  Cs2  v080
 BYTE   W24
 BYTE   N11  Cn1  v120
 BYTE   W12
 BYTE   N11  Dn1  v120
 BYTE   W24
 BYTE   N11  Cn1  v120
 BYTE   W12
 BYTE   N11  Dn1  v120
 BYTE   W24
 BYTE   PEND 
// 033   ----------------------------------------
Label_7_013616A3:
 BYTE   W12
 BYTE   N11  Cn1  v120
 BYTE   W12
 BYTE   N11  Dn1  v120
 BYTE   W36
 BYTE   N11  Cn1  v120
 BYTE   W12
 BYTE   N11  Dn1  v120
 BYTE   W12
 BYTE   N05  Dn1  v120
 BYTE   W06
 BYTE   N05  Dn1  v120
 BYTE   W06
 BYTE   PEND 
// 034   ----------------------------------------
Label_7_013616BD:
 BYTE   N11  Cn1  v120
 BYTE   W24
 BYTE   N11  Cn1  v120
 BYTE   W12
 BYTE   N11  Dn1  v120
 BYTE   W24
 BYTE   N11  Cn1  v120
 BYTE   W12
 BYTE   N11  Dn1  v120
 BYTE   W24
 BYTE   PEND 
// 035   ----------------------------------------
 BYTE   W12
 BYTE   N11  Cn1  v120
 BYTE   W12
 BYTE   N11  Dn1  v120
 BYTE   W36
 BYTE   N11  Cn1  v120
 BYTE   W12
 BYTE   N05  Cn2  v120
 BYTE   W06
 BYTE   N05  An1  v120
 BYTE   W06
 BYTE   N05  Fn1  v120
 BYTE   W06
 BYTE   N05  Fn1  v120
 BYTE   W06
// 036   ----------------------------------------
 BYTE   PATT
  POIN2 Label_7_0136168B
// 037   ----------------------------------------
 BYTE   PATT
  POIN2 Label_7_013616A3
// 038   ----------------------------------------
 BYTE   PATT
  POIN2 Label_7_013616BD
// 039   ----------------------------------------
 BYTE   N05  Cn2  v120
 BYTE   W06
 BYTE   N05  Cn2  v120
 BYTE   W06
 BYTE   N05  Cn2  v120
 BYTE   W06
 BYTE   N05  Cn2  v120
 BYTE   W06
 BYTE   N05  An1  v120
 BYTE   W06
 BYTE   N05  An1  v120
 BYTE   W06
 BYTE   N05  An1  v120
 BYTE   W06
 BYTE   N05  An1  v120
 BYTE   W06
 BYTE   N05  Fn1  v120
 BYTE   W06
 BYTE   N05  Fn1  v120
 BYTE   W06
 BYTE   N05  Fn1  v120
 BYTE   W06
 BYTE   N05  Fn1  v120
 BYTE   W06
 BYTE   N05  Dn1  v120
 BYTE   W06
 BYTE   N05  Dn1  v120
 BYTE   W06
 BYTE   N05  Dn1  v120
 BYTE   W06
 BYTE   N05  Dn1  v120
 BYTE   W06
// 040   ----------------------------------------
Label_7_0136173E:
 BYTE   N11  Cn1  v120
 BYTE   N44  Cs2  v080
 BYTE   W48
 BYTE   N11  Cn1  v120
 BYTE   N17  Cs2  v056
 BYTE   W18
 BYTE   N11  Cn1  v120
 BYTE   N17  Cs2  v064
 BYTE   W18
 BYTE   N11  Dn1  v120
 BYTE   N11  Cs2  v080
 BYTE   W12
 BYTE   PEND 
// 041   ----------------------------------------
 BYTE   N11  Cn1  v120
 BYTE   N44  Cs2  v080
 BYTE   W48
 BYTE   N11  Cn1  v120
 BYTE   N44  Cs2  v080
 BYTE   W24
 BYTE   N11  Dn1  v120
 BYTE   W24
// 042   ----------------------------------------
 BYTE   PATT
  POIN2 Label_7_0136173E
// 043   ----------------------------------------
 BYTE   N05  Cn2  v120
 BYTE   W06
 BYTE   N05  Cn2  v120
 BYTE   W06
 BYTE   N05  Cn2  v120
 BYTE   W06
 BYTE   N05  Cn2  v120
 BYTE   W06
 BYTE   N05  An1  v120
 BYTE   W06
 BYTE   N05  An1  v120
 BYTE   W06
 BYTE   N05  An1  v120
 BYTE   W06
 BYTE   N05  An1  v120
 BYTE   W06
 BYTE   N05  Fn1  v120
 BYTE   W06
 BYTE   N05  Fn1  v120
 BYTE   W06
 BYTE   N05  Fn1  v120
 BYTE   W06
 BYTE   N05  Fn1  v120
 BYTE   W06
 BYTE   N11  Dn1  v120
 BYTE   W12
 BYTE   N11  Dn1  v120
 BYTE   W12
// 044   ----------------------------------------
 BYTE   GoTo
  POIN2 Label_7_013614A0
 BYTE   FINE

//**************** Track 9 (Midi-Chn.8) ****************//

song5E_009:
// 000   ----------------------------------------
 BYTE   KEYSH   song5E_key+0
Label_8_013617B2:
 BYTE   VOICE   61
 BYTE   MOD 0
 BYTE   CnM2  v000
 BYTE   CnM2  v003
 BYTE   VOL   11*song5E_mvl/mxv
 BYTE   PAN   c_v+0
 BYTE   LFOS 0
 BYTE   CnM2  v000
 BYTE   CnM2  v040
 BYTE   TUNE 0
 BYTE   CnM2  v000
 BYTE   CnM2  v058
 BYTE   LFODL 0
 BYTE   CnM2  v000
 BYTE   CnM2  v060
 BYTE   BEND   c_v+0
 BYTE   W11
 BYTE   N44  Fs3  v096
 BYTE   W48
 BYTE   N10  Gs3  v096
 BYTE   W12
 BYTE   N10  An3  v096
 BYTE   W12
 BYTE   N10  Bn3  v096
 BYTE   W12
 BYTE   N10  En4  v096
 BYTE   W01
// 001   ----------------------------------------
Label_8_013617E3:
 BYTE   W11
 BYTE   N90  Cs4  v096
 BYTE   W84
 BYTE   W01
 BYTE   PEND 
// 002   ----------------------------------------
Label_8_013617EA:
 BYTE   W11
 BYTE   N32  Dn4  v096
 BYTE   W36
 BYTE   N05  En4  v096
 BYTE   W06
 BYTE   N05  Fs4  v096
 BYTE   W06
 BYTE   N20  En4  v096
 BYTE   W24
 BYTE   N20  Bn3  v096
 BYTE   W13
 BYTE   PEND 
// 003   ----------------------------------------
 BYTE   PATT
  POIN2 Label_8_013617E3
// 004   ----------------------------------------
Label_8_01361805:
 BYTE   W11
 BYTE   N10  Bn3  v096
 BYTE   W12
 BYTE   N10  Cs4  v096
 BYTE   W12
 BYTE   N30  Fs3  v096
 BYTE   W36
 BYTE   N10  En3  v096
 BYTE   W12
 BYTE   N20  Fs3  v096
 BYTE   W13
 BYTE   PEND 
// 005   ----------------------------------------
Label_8_0136181B:
 BYTE   W11
 BYTE   N10  Bn3  v096
 BYTE   W12
 BYTE   N10  Cs4  v096
 BYTE   W12
 BYTE   N30  Fs3  v096
 BYTE   W36
 BYTE   N10  En3  v096
 BYTE   W12
 BYTE   N10  Fs3  v096
 BYTE   W12
 BYTE   N10  Gs3  v096
 BYTE   W01
 BYTE   PEND 
// 006   ----------------------------------------
Label_8_01361835:
 BYTE   W11
 BYTE   N90  Fs3  v096
 BYTE   W84
 BYTE   W01
 BYTE   PEND 
// 007   ----------------------------------------
 BYTE   W11
 BYTE   N44  Fs3  v096
 BYTE   W48
 BYTE   N17  Fs3  v096
 BYTE   W18
 BYTE   N17  Gs3  v096
 BYTE   W18
 BYTE   N11  An3  v096
 BYTE   W01
// 008   ----------------------------------------
Label_8_0136184D:
 BYTE   W11
 BYTE   N44  Fs3  v096
 BYTE   W48
 BYTE   N10  Gs3  v096
 BYTE   W12
 BYTE   N10  An3  v096
 BYTE   W12
 BYTE   N10  Bn3  v096
 BYTE   W12
 BYTE   N10  En4  v096
 BYTE   W01
 BYTE   PEND 
// 009   ----------------------------------------
 BYTE   PATT
  POIN2 Label_8_013617E3
// 010   ----------------------------------------
 BYTE   PATT
  POIN2 Label_8_013617EA
// 011   ----------------------------------------
 BYTE   PATT
  POIN2 Label_8_013617E3
// 012   ----------------------------------------
 BYTE   PATT
  POIN2 Label_8_01361805
// 013   ----------------------------------------
 BYTE   PATT
  POIN2 Label_8_0136181B
// 014   ----------------------------------------
 BYTE   PATT
  POIN2 Label_8_01361835
// 015   ----------------------------------------
Label_8_01361881:
 BYTE   W11
 BYTE   N44  Fs3  v096
 BYTE   W48
 BYTE   N44  En3  v096
 BYTE   W36
 BYTE   W01
 BYTE   PEND 
// 016   ----------------------------------------
 BYTE   W96
// 017   ----------------------------------------
 BYTE   W96
// 018   ----------------------------------------
 BYTE   W96
// 019   ----------------------------------------
 BYTE   W96
// 020   ----------------------------------------
 BYTE   W96
// 021   ----------------------------------------
 BYTE   W96
// 022   ----------------------------------------
 BYTE   W96
// 023   ----------------------------------------
 BYTE   W96
// 024   ----------------------------------------
 BYTE   PATT
  POIN2 Label_8_0136184D
// 025   ----------------------------------------
 BYTE   PATT
  POIN2 Label_8_013617E3
// 026   ----------------------------------------
 BYTE   PATT
  POIN2 Label_8_013617EA
// 027   ----------------------------------------
 BYTE   PATT
  POIN2 Label_8_013617E3
// 028   ----------------------------------------
 BYTE   PATT
  POIN2 Label_8_01361805
// 029   ----------------------------------------
 BYTE   PATT
  POIN2 Label_8_0136181B
// 030   ----------------------------------------
 BYTE   PATT
  POIN2 Label_8_01361835
// 031   ----------------------------------------
 BYTE   PATT
  POIN2 Label_8_01361881
// 032   ----------------------------------------
 BYTE   W96
// 033   ----------------------------------------
 BYTE   W96
// 034   ----------------------------------------
 BYTE   W96
// 035   ----------------------------------------
 BYTE   W96
// 036   ----------------------------------------
 BYTE   W96
// 037   ----------------------------------------
 BYTE   W96
// 038   ----------------------------------------
 BYTE   W96
// 039   ----------------------------------------
 BYTE   W96
// 040   ----------------------------------------
 BYTE   W96
// 041   ----------------------------------------
 BYTE   W96
// 042   ----------------------------------------
 BYTE   W96
// 043   ----------------------------------------
 BYTE   W96
// 044   ----------------------------------------
 BYTE   GoTo
  POIN2 Label_8_013617B2
 BYTE   FINE

//**************** Track 10 (Midi-Chn.9) ****************//

song5E_010:
// 000   ----------------------------------------
 BYTE   KEYSH   song5E_key+0
Label_9_013618D0:
 BYTE   VOICE   8
 BYTE   MOD 0
 BYTE   CnM2  v000
 BYTE   CnM2  v003
 BYTE   VOL   3*song5E_mvl/mxv
 BYTE   PAN   c_v+0
 BYTE   LFOS 0
 BYTE   CnM2  v000
 BYTE   CnM2  v040
 BYTE   TUNE 0
 BYTE   CnM2  v000
 BYTE   CnM2  v055
 BYTE   LFODL 0
 BYTE   CnM2  v000
 BYTE   CnM2  v060
 BYTE   BEND   c_v+0
 BYTE   W96
// 001   ----------------------------------------
 BYTE   W96
// 002   ----------------------------------------
 BYTE   W96
// 003   ----------------------------------------
 BYTE   W96
// 004   ----------------------------------------
 BYTE   W96
// 005   ----------------------------------------
 BYTE   W96
// 006   ----------------------------------------
 BYTE   W96
// 007   ----------------------------------------
 BYTE   W96
// 008   ----------------------------------------
 BYTE   W96
// 009   ----------------------------------------
 BYTE   W96
// 010   ----------------------------------------
 BYTE   W96
// 011   ----------------------------------------
 BYTE   W96
// 012   ----------------------------------------
 BYTE   W96
// 013   ----------------------------------------
 BYTE   W96
// 014   ----------------------------------------
 BYTE   W96
// 015   ----------------------------------------
 BYTE   W96
// 016   ----------------------------------------
Label_9_013618FC:
 BYTE   W11
 BYTE   N32  Fs4  v104
 BYTE   W36
 BYTE   N23  Fs5  v104
 BYTE   W24
 BYTE   N10  En5  v104
 BYTE   W12
 BYTE   N10  Dn5  v104
 BYTE   W12
 BYTE   N10  Cs5  v104
 BYTE   W01
 BYTE   PEND 
// 017   ----------------------------------------
Label_9_01361912:
 BYTE   W11
 BYTE   N44  Bn4  v104
 BYTE   W48
 BYTE   N17  Bn4  v104
 BYTE   W18
 BYTE   N17  Cs5  v104
 BYTE   W18
 BYTE   N11  Dn5  v104
 BYTE   W01
 BYTE   PEND 
// 018   ----------------------------------------
 BYTE   W11
 BYTE   N32  Cs5  v104
 BYTE   W36
 BYTE   TIE  Fs4  v104
 BYTE   W48
 BYTE   W01
// 019   ----------------------------------------
 BYTE   W56
 BYTE   W02
 BYTE   EOT
 BYTE   W01
 BYTE   N17  Fs4  v104
 BYTE   W18
 BYTE   N17  Gs4  v104
 BYTE   W18
 BYTE   N11  An4  v104
 BYTE   W01
// 020   ----------------------------------------
 BYTE   PATT
  POIN2 Label_9_013618FC
// 021   ----------------------------------------
 BYTE   PATT
  POIN2 Label_9_01361912
// 022   ----------------------------------------
 BYTE   W11
 BYTE   N32  Cs5  v127
 BYTE   W36
 BYTE   N56  Fs5  v127
 BYTE   W48
 BYTE   W01
// 023   ----------------------------------------
 BYTE   W11
 BYTE   N32  Fn5  v127
 BYTE   W36
 BYTE   N32  Fs5  v127
 BYTE   W36
 BYTE   N23  Gs5  v127
 BYTE   W13
// 024   ----------------------------------------
 BYTE   W96
// 025   ----------------------------------------
 BYTE   W96
// 026   ----------------------------------------
 BYTE   W96
// 027   ----------------------------------------
 BYTE   W96
// 028   ----------------------------------------
 BYTE   W96
// 029   ----------------------------------------
 BYTE   W96
// 030   ----------------------------------------
 BYTE   W96
// 031   ----------------------------------------
 BYTE   W96
// 032   ----------------------------------------
 BYTE   W96
// 033   ----------------------------------------
 BYTE   W96
// 034   ----------------------------------------
 BYTE   W96
// 035   ----------------------------------------
 BYTE   W96
// 036   ----------------------------------------
 BYTE   W96
// 037   ----------------------------------------
 BYTE   W96
// 038   ----------------------------------------
 BYTE   W96
// 039   ----------------------------------------
 BYTE   W96
// 040   ----------------------------------------
 BYTE   W96
// 041   ----------------------------------------
 BYTE   W96
// 042   ----------------------------------------
 BYTE   W96
// 043   ----------------------------------------
 BYTE   W96
// 044   ----------------------------------------
 BYTE   GoTo
  POIN2 Label_9_013618D0
 BYTE   FINE

//******************************************************//
	ALIGN 4

song5E:
	BYTE	10	// NumTrks
	BYTE	0	// NumBlks
	BYTE	song5E_pri	// Priority
	BYTE	song5E_rev	// Reverb.
    
	POIN2	song5E_grp
    
	POIN2	song5E_001
	POIN2	song5E_002
	POIN2	song5E_003
	POIN2	song5E_004
	POIN2	song5E_005
	POIN2	song5E_006
	POIN2	song5E_007
	POIN2	song5E_008
	POIN2	song5E_009
	POIN2	song5E_010

	
