//Event file generated from Sappy .s format.
	#include "MPlayDef.event"

	#define	song10_grp  voicegroup001
	#define	song10_pri  0
	#define	song10_rev  0
	#define	song10_mvl  127
	#define	song10_key  0
	#define	song10_tbs  1
	#define	song10_exg  0
	#define	song10_cmp  1

	// .rodata
	//	song10
	ALIGN 4


//**************** Track 1 (Midi-Chn.0) ****************//

song10_001:
// 000   ----------------------------------------
 BYTE   KEYSH   song10_key+0
Label_0_018A2A42:
 BYTE   TEMPO   130*song10_tbs/2
 BYTE   VOICE   73
 BYTE   PAN   c_v+18
 BYTE   W96
// 001   ----------------------------------------
 BYTE   W96
// 002   ----------------------------------------
 BYTE   W96
// 003   ----------------------------------------
 BYTE   W96
// 004   ----------------------------------------
 BYTE   W96
// 005   ----------------------------------------
 BYTE   W96
// 006   ----------------------------------------
 BYTE   W96
// 007   ----------------------------------------
 BYTE   W01
 BYTE   MOD 0
 BYTE   CnM2
 BYTE   VOL   35*song10_mvl/mxv
 BYTE   W44
 BYTE   W02
 BYTE   W01
 BYTE   W01
 BYTE   N05  Ds4  v116
 BYTE   W01
 BYTE   W01
 BYTE   W02
 BYTE   W01
 BYTE   W01
 BYTE   N04  En4  v100
 BYTE   W05
 BYTE   Ds4  v096
 BYTE   W04
 BYTE   En4
 BYTE   W02
 BYTE   W03
 BYTE   Ds4  v068
 BYTE   W03
 BYTE   W01
 BYTE   En4  v096
 BYTE   W02
 BYTE   W02
 BYTE   Ds4  v068
 BYTE   W01
 BYTE   W03
 BYTE   W01
 BYTE   En4  v080
 BYTE   W02
 BYTE   W03
 BYTE   N05  Ds4  v084
 BYTE   W03
 BYTE   W03
 BYTE   N01  En4  v056
 BYTE   W01
 BYTE   N04  Ds4  v068
 BYTE   W02
// 008   ----------------------------------------
 BYTE   W03
 BYTE   N18  Cs4  v088
 BYTE   W09
 BYTE   W05
 BYTE   W05
 BYTE   W02
 BYTE   N04  Cs4  v096
 BYTE   W02
 BYTE   W05
 BYTE   W02
 BYTE   N02  En4  v080
 BYTE   W03
 BYTE   W04
 BYTE   N03  An4  v084
 BYTE   W01
 BYTE   W04
 BYTE   W05
 BYTE   N44  Cs5  v072
 BYTE   W44
 BYTE   W02
// 009   ----------------------------------------
 BYTE   W02
 BYTE   N19  Cs4  v092
 BYTE   W23
 BYTE   N04  Cs4  v096
 BYTE   W08
 BYTE   N05  Fs4  v084
 BYTE   W07
 BYTE   N02  An4
 BYTE   W08
 BYTE   N44  Cs5  v080
 BYTE   W48
// 010   ----------------------------------------
 BYTE   W01
 BYTE   N19  Cs4  v096
 BYTE   W23
 BYTE   N05  Cs4  v100
 BYTE   W08
 BYTE   Fs4  v088
 BYTE   W08
 BYTE   N01  As4  v080
 BYTE   W07
 BYTE   N48  Cs5  v088
 BYTE   W48
 BYTE   W01
// 011   ----------------------------------------
 BYTE   W02
 BYTE   N20  Ds4  v100
 BYTE   W24
 BYTE   N05
 BYTE   W08
 BYTE   N04  Gs4  v096
 BYTE   W08
 BYTE   N01  Cn5
 BYTE   W07
 BYTE   N44  Ds5
 BYTE   W01
 BYTE   W01
 BYTE   W01
 BYTE   W01
 BYTE   W01
 BYTE   W03
 BYTE   W02
 BYTE   W01
 BYTE   W02
 BYTE   W01
 BYTE   W02
 BYTE   W01
 BYTE   W02
 BYTE   W01
 BYTE   W02
 BYTE   W01
 BYTE   W02
 BYTE   W01
 BYTE   W02
 BYTE   W01
 BYTE   W02
 BYTE   W01
 BYTE   W02
 BYTE   W01
 BYTE   W02
 BYTE   W01
 BYTE   W02
 BYTE   W01
 BYTE   W02
 BYTE   W01
 BYTE   W03
// 012   ----------------------------------------
 BYTE   W01
 BYTE   N05  En5  v084
 BYTE   W04
 BYTE   W02
 BYTE   Ds5  v072
 BYTE   W02
 BYTE   W04
 BYTE   Cs5  v076
 BYTE   W04
 BYTE   W02
 BYTE   Bn4
 BYTE   W02
 BYTE   W04
 BYTE   Cs5  v080
 BYTE   W04
 BYTE   W02
 BYTE   Bn4
 BYTE   W02
 BYTE   W04
 BYTE   An4  v076
 BYTE   W04
 BYTE   W02
 BYTE   Gs4  v080
 BYTE   W02
 BYTE   W04
 BYTE   An4  v084
 BYTE   W04
 BYTE   W02
 BYTE   Gs4  v076
 BYTE   W02
 BYTE   W04
 BYTE   Fs4  v084
 BYTE   W04
 BYTE   W02
 BYTE   En4  v076
 BYTE   W02
 BYTE   W04
 BYTE   Ds4  v084
 BYTE   W04
 BYTE   W02
 BYTE   Cs4
 BYTE   W02
 BYTE   W04
 BYTE   N06  Bn3  v076
 BYTE   W04
 BYTE   W02
 BYTE   N05  An3  v080
 BYTE   W02
 BYTE   W03
// 013   ----------------------------------------
 BYTE   W01
 BYTE   Gs3  v084
 BYTE   W06
 BYTE   An3
 BYTE   W03
 BYTE   W03
 BYTE   Bn3  v072
 BYTE   W04
 BYTE   W02
 BYTE   N06  Cs4  v076
 BYTE   W01
 BYTE   W03
 BYTE   W02
 BYTE   N05  Ds4
 BYTE   W01
 BYTE   W03
 BYTE   W02
 BYTE   En4
 BYTE   W01
 BYTE   W03
 BYTE   W02
 BYTE   Fs4
 BYTE   W01
 BYTE   W03
 BYTE   W02
 BYTE   Gs4  v084
 BYTE   W01
 BYTE   W03
 BYTE   W02
 BYTE   An4  v076
 BYTE   W02
 BYTE   W03
 BYTE   W01
 BYTE   N06  Gs4  v084
 BYTE   W02
 BYTE   W03
 BYTE   W01
 BYTE   N05  An4  v080
 BYTE   W02
 BYTE   W03
 BYTE   W01
 BYTE   N04  Bn4  v088
 BYTE   W02
 BYTE   W03
 BYTE   W01
 BYTE   N05  Ds5  v080
 BYTE   W04
 BYTE   W02
 BYTE   N06  Cs5  v076
 BYTE   W03
 BYTE   W03
 BYTE   N05  Bn4  v072
 BYTE   W02
 BYTE   W04
 BYTE   Gs4  v080
 BYTE   W05
// 014   ----------------------------------------
 BYTE   W01
 BYTE   Cs5  v076
 BYTE   W04
 BYTE   W02
 BYTE   Bn4
 BYTE   W03
 BYTE   W03
 BYTE   Gs4  v080
 BYTE   W02
 BYTE   W04
 BYTE   N06  En4  v076
 BYTE   W05
 BYTE   W01
 BYTE   N05  Bn4  v084
 BYTE   W04
 BYTE   W02
 BYTE   N06  An4  v076
 BYTE   W03
 BYTE   W03
 BYTE   N05  Gs4  v080
 BYTE   W02
 BYTE   W04
 BYTE   N06  Fs4  v084
 BYTE   W05
 BYTE   W02
 BYTE   N05  Gs4
 BYTE   W03
 BYTE   W03
 BYTE   Fs4
 BYTE   W02
 BYTE   W03
 BYTE   N04  En4  v076
 BYTE   W02
 BYTE   W04
 BYTE   N05  Ds4
 BYTE   W05
 BYTE   W01
 BYTE   N06  Bn3  v072
 BYTE   W06
 BYTE   N05  Cs4  v080
 BYTE   W01
 BYTE   W03
 BYTE   W02
 BYTE   Ds4
 BYTE   W02
 BYTE   W03
 BYTE   W01
 BYTE   N06  En4  v076
 BYTE   W03
 BYTE   W02
// 015   ----------------------------------------
 BYTE   W01
 BYTE   N05  Cs4  v080
 BYTE   W01
 BYTE   W03
 BYTE   W03
 BYTE   Ds4  v076
 BYTE   W01
 BYTE   W04
 BYTE   En4
 BYTE   W03
 BYTE   W03
 BYTE   Fs4  v080
 BYTE   W01
 BYTE   W04
 BYTE   W01
 BYTE   Ds4  v088
 BYTE   W02
 BYTE   W04
 BYTE   W01
 BYTE   En4  v080
 BYTE   W02
 BYTE   W03
 BYTE   Fs4  v084
 BYTE   W01
 BYTE   W04
 BYTE   W01
 BYTE   Gs4  v088
 BYTE   W02
 BYTE   W04
 BYTE   As4  v080
 BYTE   W06
 BYTE   Gn4  v076
 BYTE   W03
 BYTE   W04
 BYTE   Fs4  v080
 BYTE   W01
 BYTE   W04
 BYTE   En4  v076
 BYTE   W01
 BYTE   W04
 BYTE   W02
 BYTE   Gn4
 BYTE   W03
 BYTE   W02
 BYTE   N06  Fs4  v068
 BYTE   W03
 BYTE   W03
 BYTE   N05  En4  v076
 BYTE   W01
 BYTE   W05
 BYTE   Ds4  v084
 BYTE   W05
// 016   ----------------------------------------
 BYTE   W01
 BYTE   En4
 BYTE   W03
 BYTE   W03
 BYTE   Ds4  v080
 BYTE   W02
 BYTE   W04
 BYTE   Cs4
 BYTE   W01
 BYTE   W04
 BYTE   W01
 BYTE   As3  v076
 BYTE   W04
 BYTE   W02
 BYTE   Cs4  v072
 BYTE   W03
 BYTE   W03
 BYTE   As3
 BYTE   W01
 BYTE   W05
 BYTE   Gn3  v076
 BYTE   W04
 BYTE   W02
 BYTE   Fs3  v080
 BYTE   W03
 BYTE   W03
 BYTE   En3  v076
 BYTE   W02
 BYTE   W04
 BYTE   Fs3
 BYTE   W06
 BYTE   N06  Gn3  v080
 BYTE   W01
 BYTE   W03
 BYTE   W03
 BYTE   N04  As3  v052
 BYTE   W03
 BYTE   W02
 BYTE   N05  Gn3  v084
 BYTE   W01
 BYTE   W03
 BYTE   W02
 BYTE   As3
 BYTE   W01
 BYTE   W03
 BYTE   W02
 BYTE   Cs4  v080
 BYTE   W01
 BYTE   W03
 BYTE   W02
 BYTE   En4
 BYTE   W02
 BYTE   W03
// 017   ----------------------------------------
 BYTE   W01
 BYTE   Cs4  v084
 BYTE   W02
 BYTE   W03
 BYTE   W01
 BYTE   En4  v068
 BYTE   W02
 BYTE   W03
 BYTE   W01
 BYTE   Fs4  v084
 BYTE   W02
 BYTE   W03
 BYTE   N06  Gn4  v080
 BYTE   W03
 BYTE   W03
 BYTE   W01
 BYTE   N05  An4
 BYTE   W02
 BYTE   W04
 BYTE   Gs4  v076
 BYTE   W06
 BYTE   Fs4
 BYTE   W05
 BYTE   W01
 BYTE   N06  En4  v072
 BYTE   W04
 BYTE   W02
 BYTE   N05  Fs4  v080
 BYTE   W03
 BYTE   W03
 BYTE   En4  v072
 BYTE   W02
 BYTE   W04
 BYTE   Ds4  v080
 BYTE   W01
 BYTE   W05
 BYTE   Cs4  v084
 BYTE   W05
 BYTE   W01
 BYTE   En4
 BYTE   W04
 BYTE   W02
 BYTE   Ds4
 BYTE   W03
 BYTE   W03
 BYTE   Cs4
 BYTE   W02
 BYTE   W04
 BYTE   N06  Bn3  v080
 BYTE   W01
 BYTE   W04
// 018   ----------------------------------------
 BYTE   W01
 BYTE   N05  An3
 BYTE   W05
 BYTE   W01
 BYTE   N06  Gs3  v084
 BYTE   W04
 BYTE   W02
 BYTE   N05  An3
 BYTE   W03
 BYTE   W03
 BYTE   N03  Bn3  v080
 BYTE   W02
 BYTE   W05
 BYTE   N05  Bn3  v084
 BYTE   W04
 BYTE   W01
 BYTE   N06  Cs4  v080
 BYTE   W03
 BYTE   W04
 BYTE   N05  Ds4  v084
 BYTE   W04
 BYTE   W02
 BYTE   En4  v076
 BYTE   W02
 BYTE   W04
 BYTE   Cs4
 BYTE   W04
 BYTE   W02
 BYTE   Ds4  v084
 BYTE   W02
 BYTE   W03
 BYTE   En4  v080
 BYTE   W01
 BYTE   W04
 BYTE   W01
 BYTE   Fs4  v076
 BYTE   W03
 BYTE   W03
 BYTE   Ds4  v088
 BYTE   W01
 BYTE   W04
 BYTE   W01
 BYTE   En4  v076
 BYTE   W03
 BYTE   W03
 BYTE   Fs4  v080
 BYTE   W01
 BYTE   W04
 BYTE   W01
 BYTE   Gn4
 BYTE   W03
 BYTE   W02
// 019   ----------------------------------------
 BYTE   W01
 BYTE   N02  Gs4
 BYTE   W01
 BYTE   W05
 BYTE   N06  Gs3  v084
 BYTE   W06
 BYTE   N05  As3  v068
 BYTE   W06
 BYTE   Cn4  v076
 BYTE   W06
 BYTE   Cs4  v080
 BYTE   W05
 BYTE   W01
 BYTE   N06  Ds4
 BYTE   W05
 BYTE   W01
 BYTE   N05  Fn4  v088
 BYTE   W05
 BYTE   W01
 BYTE   Fs4
 BYTE   W04
 BYTE   W02
 BYTE   Ds4  v084
 BYTE   W04
 BYTE   W02
 BYTE   Fn4  v076
 BYTE   W04
 BYTE   W02
 BYTE   Fs4
 BYTE   W03
 BYTE   W03
 BYTE   Gs4
 BYTE   W03
 BYTE   W03
 BYTE   Fs4  v084
 BYTE   W03
 BYTE   W03
 BYTE   Gs4  v080
 BYTE   W03
 BYTE   W03
 BYTE   As4  v076
 BYTE   W02
 BYTE   W04
 BYTE   N06  Cn5  v068
 BYTE   W02
 BYTE   W03
// 020   ----------------------------------------
 BYTE   W01
 BYTE   N08  Cs5  v076
 BYTE   W02
 BYTE   W10
 BYTE   N05  Cs5  v072
 BYTE   W06
 BYTE   Ds5  v080
 BYTE   W06
 BYTE   Cs5  v084
 BYTE   W06
 BYTE   Ds5  v080
 BYTE   W06
 BYTE   Cs5  v084
 BYTE   W06
 BYTE   Ds5  v080
 BYTE   W06
 BYTE   N40  Cs5
 BYTE   W44
 BYTE   W03
// 021   ----------------------------------------
 BYTE   W01
 BYTE   GoTo
  POIN2 Label_0_018A2A42
// 022   ----------------------------------------
 BYTE   W28
 BYTE   FINE

//**************** Track 2 (Midi-Chn.1) ****************//

song10_002:
// 000   ----------------------------------------
 BYTE   KEYSH   song10_key+0
Label_1_018A2D5E:
 BYTE   VOICE   40
 BYTE   VOL   35*song10_mvl/mxv
 BYTE   MOD 0
 BYTE   CnM2
 BYTE   PAN   c_v-26
 BYTE   W01
 BYTE   MOD 0
 BYTE   CnM2
 BYTE   VOL   30*song10_mvl/mxv
 BYTE   PAN   c_v+0
 BYTE   N04  Cs2  v127
 BYTE   W06
 BYTE   Gs2  v120
 BYTE   W06
 BYTE   Cs3  v112
 BYTE   W06
 BYTE   Gs2  v120
 BYTE   W06
 BYTE   Cs2  v127
 BYTE   W06
 BYTE   Gs2  v108
 BYTE   W06
 BYTE   Cs3  v112
 BYTE   W06
 BYTE   Gs2
 BYTE   W06
 BYTE   Cs2  v127
 BYTE   W06
 BYTE   Gs2  v104
 BYTE   W06
 BYTE   Cs3  v112
 BYTE   W06
 BYTE   Gs2
 BYTE   W06
 BYTE   Cs2  v127
 BYTE   W06
 BYTE   Gs2  v088
 BYTE   W06
 BYTE   N03  Cs3  v100
 BYTE   W06
 BYTE   N04  Gs2  v116
 BYTE   W05
// 001   ----------------------------------------
Label_1_018A2D9E:
 BYTE   W01
 BYTE   N04  En2  v124
 BYTE   W06
 BYTE   Gs2  v100
 BYTE   W06
 BYTE   En3  v112
 BYTE   W06
 BYTE   Gs2
 BYTE   W06
 BYTE   En2  v127
 BYTE   W06
 BYTE   Gs2  v088
 BYTE   W06
 BYTE   En3  v112
 BYTE   W06
 BYTE   Gs2  v120
 BYTE   W06
 BYTE   En2  v108
 BYTE   W06
 BYTE   Gs2  v096
 BYTE   W06
 BYTE   En3  v112
 BYTE   W06
 BYTE   Gs2  v120
 BYTE   W06
 BYTE   En2  v116
 BYTE   W06
 BYTE   Gs2  v088
 BYTE   W06
 BYTE   En3  v112
 BYTE   W06
 BYTE   N03  Gs2  v120
 BYTE   W05
 BYTE   PEND 
// 002   ----------------------------------------
Label_1_018A2DD1:
 BYTE   W01
 BYTE   N04  Cs2  v124
 BYTE   W06
 BYTE   An2  v100
 BYTE   W06
 BYTE   Cs3  v112
 BYTE   W06
 BYTE   An2
 BYTE   W06
 BYTE   Cs2  v127
 BYTE   W06
 BYTE   An2  v088
 BYTE   W06
 BYTE   Cs3  v112
 BYTE   W06
 BYTE   An2  v120
 BYTE   W06
 BYTE   Cs2  v108
 BYTE   W06
 BYTE   An2  v096
 BYTE   W06
 BYTE   Cs3  v112
 BYTE   W06
 BYTE   An2  v120
 BYTE   W06
 BYTE   Cs2  v116
 BYTE   W06
 BYTE   An2  v088
 BYTE   W06
 BYTE   Cs3  v112
 BYTE   W06
 BYTE   N03  An2  v120
 BYTE   W05
 BYTE   PEND 
// 003   ----------------------------------------
Label_1_018A2E04:
 BYTE   W01
 BYTE   N04  Ds2  v124
 BYTE   W06
 BYTE   Gs2  v100
 BYTE   W06
 BYTE   Ds3  v112
 BYTE   W06
 BYTE   Gs2
 BYTE   W06
 BYTE   Ds2  v127
 BYTE   W06
 BYTE   Gs2  v088
 BYTE   W06
 BYTE   Ds3  v112
 BYTE   W06
 BYTE   Gs2  v120
 BYTE   W06
 BYTE   Ds2  v108
 BYTE   W06
 BYTE   Gs2  v096
 BYTE   W06
 BYTE   Ds3  v112
 BYTE   W06
 BYTE   Gs2  v120
 BYTE   W06
 BYTE   Ds2  v116
 BYTE   W06
 BYTE   Gs2  v088
 BYTE   W06
 BYTE   Ds3  v112
 BYTE   W06
 BYTE   N03  Gs2  v120
 BYTE   W05
 BYTE   PEND 
// 004   ----------------------------------------
 BYTE   W01
 BYTE   N04  Cs2  v127
 BYTE   W06
 BYTE   Gs2  v120
 BYTE   W06
 BYTE   Cs3  v112
 BYTE   W06
 BYTE   Gs2  v120
 BYTE   W06
 BYTE   Cs2  v127
 BYTE   W06
 BYTE   Gs2  v108
 BYTE   W06
 BYTE   Cs3  v112
 BYTE   W06
 BYTE   Gs2
 BYTE   W06
 BYTE   Cs2  v127
 BYTE   W06
 BYTE   Gs2  v104
 BYTE   W06
 BYTE   Cs3  v112
 BYTE   W06
 BYTE   Gs2
 BYTE   W06
 BYTE   Cs2  v127
 BYTE   W06
 BYTE   Gs2  v088
 BYTE   W06
 BYTE   N03  Cs3  v100
 BYTE   W06
 BYTE   N04  Gs2  v116
 BYTE   W05
// 005   ----------------------------------------
 BYTE   PATT
  POIN2 Label_1_018A2D9E
// 006   ----------------------------------------
 BYTE   PATT
  POIN2 Label_1_018A2DD1
// 007   ----------------------------------------
 BYTE   PATT
  POIN2 Label_1_018A2E04
// 008   ----------------------------------------
 BYTE   W01
 BYTE   N02  En2  v127
 BYTE   W06
 BYTE   An2  v120
 BYTE   W06
 BYTE   Cs3  v112
 BYTE   W06
 BYTE   An2  v120
 BYTE   W06
 BYTE   En2  v127
 BYTE   W06
 BYTE   An2  v108
 BYTE   W06
 BYTE   Cs3  v112
 BYTE   W06
 BYTE   An2
 BYTE   W06
 BYTE   En2  v127
 BYTE   W06
 BYTE   An2  v104
 BYTE   W06
 BYTE   Cs3  v112
 BYTE   W06
 BYTE   An2
 BYTE   W06
 BYTE   En2  v127
 BYTE   W06
 BYTE   An2  v088
 BYTE   W06
 BYTE   Cs3  v080
 BYTE   W06
 BYTE   An2  v116
 BYTE   W05
// 009   ----------------------------------------
 BYTE   W01
 BYTE   Ds2  v124
 BYTE   W06
 BYTE   An2  v100
 BYTE   W06
 BYTE   Cs3  v112
 BYTE   W06
 BYTE   An2
 BYTE   W06
 BYTE   Ds2  v127
 BYTE   W06
 BYTE   An2  v088
 BYTE   W06
 BYTE   Cs3  v112
 BYTE   W06
 BYTE   An2  v120
 BYTE   W06
 BYTE   Ds2  v108
 BYTE   W06
 BYTE   An2  v096
 BYTE   W06
 BYTE   Cs3  v112
 BYTE   W06
 BYTE   An2  v120
 BYTE   W06
 BYTE   Ds2  v116
 BYTE   W06
 BYTE   An2  v088
 BYTE   W06
 BYTE   Cs3  v112
 BYTE   W06
 BYTE   An2  v120
 BYTE   W05
// 010   ----------------------------------------
 BYTE   W01
 BYTE   Ds2  v124
 BYTE   W06
 BYTE   Gs2  v100
 BYTE   W06
 BYTE   Cs3  v112
 BYTE   W06
 BYTE   Gs2
 BYTE   W06
 BYTE   Ds2  v127
 BYTE   W06
 BYTE   Gs2  v088
 BYTE   W06
 BYTE   Cs3  v112
 BYTE   W06
 BYTE   Gs2  v120
 BYTE   W06
 BYTE   Ds2  v108
 BYTE   W06
 BYTE   Gs2  v096
 BYTE   W06
 BYTE   Cs3  v112
 BYTE   W06
 BYTE   Gs2  v120
 BYTE   W06
 BYTE   Ds2  v116
 BYTE   W06
 BYTE   Gs2  v088
 BYTE   W06
 BYTE   Cs3  v112
 BYTE   W06
 BYTE   Gs2  v120
 BYTE   W05
// 011   ----------------------------------------
 BYTE   W01
 BYTE   Ds2  v124
 BYTE   W01
 BYTE   W03
 BYTE   W02
 BYTE   Fs2  v100
 BYTE   W01
 BYTE   W03
 BYTE   W02
 BYTE   Ds2  v112
 BYTE   W01
 BYTE   W03
 BYTE   W02
 BYTE   N02
 BYTE   W01
 BYTE   W03
 BYTE   W02
 BYTE   Cn2  v120
 BYTE   W01
 BYTE   W03
 BYTE   W01
 BYTE   W01
 BYTE   Bn0  v127
 BYTE   W06
 BYTE   Cs1  v124
 BYTE   W06
 BYTE   Ds1  v127
 BYTE   W06
 BYTE   En1  v120
 BYTE   W06
 BYTE   Fs1  v096
 BYTE   W06
 BYTE   Gs1  v112
 BYTE   W06
 BYTE   As1  v120
 BYTE   W06
 BYTE   Cn2  v116
 BYTE   W06
 BYTE   Cs2  v088
 BYTE   W06
 BYTE   Ds2  v112
 BYTE   W06
 BYTE   Gs2  v120
 BYTE   W05
// 012   ----------------------------------------
 BYTE   W01
 BYTE   MOD 0
 BYTE   CnM2
 BYTE   VOL   35*song10_mvl/mxv
 BYTE   PAN   c_v+36
 BYTE   W01
 BYTE   N06  Ds2  v104
 BYTE   W12
 BYTE   Ds2  v040
 BYTE   W11
 BYTE   En2  v100
 BYTE   W12
 BYTE   En2  v036
 BYTE   W12
 BYTE   N23  Cs2  v092
 BYTE   W24
 BYTE   N12  En2  v088
 BYTE   W12
 BYTE   N06  Ds2  v092
 BYTE   W11
// 013   ----------------------------------------
 BYTE   W01
 BYTE   Ds2  v032
 BYTE   W12
 BYTE   En2  v096
 BYTE   W12
 BYTE   En2  v036
 BYTE   W12
 BYTE   N23  Cs2  v092
 BYTE   W24
 BYTE   N11  En2  v084
 BYTE   W12
 BYTE   N06  Ds2  v092
 BYTE   W12
 BYTE   Ds2  v032
 BYTE   W11
// 014   ----------------------------------------
 BYTE   W01
 BYTE   En2  v092
 BYTE   W12
 BYTE   En2  v036
 BYTE   W12
 BYTE   N23  Cs2  v092
 BYTE   W24
 BYTE   N11  En2  v088
 BYTE   W12
 BYTE   N06  Ds2  v092
 BYTE   W12
 BYTE   Ds2  v032
 BYTE   W12
 BYTE   En2  v100
 BYTE   W11
// 015   ----------------------------------------
 BYTE   W01
 BYTE   En2  v036
 BYTE   W12
 BYTE   N23  Cs2  v092
 BYTE   W24
 BYTE   N11  En2  v088
 BYTE   W12
 BYTE   N06  Ds2  v092
 BYTE   W12
 BYTE   Ds2  v036
 BYTE   W12
 BYTE   En2  v096
 BYTE   W12
 BYTE   En2  v036
 BYTE   W11
// 016   ----------------------------------------
 BYTE   W01
 BYTE   N23  Cs2  v092
 BYTE   W24
 BYTE   N11  En2  v088
 BYTE   W12
 BYTE   N06  Ds2
 BYTE   W12
 BYTE   Ds2  v032
 BYTE   W12
 BYTE   En2  v100
 BYTE   W12
 BYTE   En2  v036
 BYTE   W12
 BYTE   N23  Cs2  v092
 BYTE   W11
// 017   ----------------------------------------
 BYTE   W13
 BYTE   N11  En2  v084
 BYTE   W12
 BYTE   N06  Ds2  v092
 BYTE   W12
 BYTE   Ds2  v032
 BYTE   W12
 BYTE   En2  v088
 BYTE   W12
 BYTE   En2  v032
 BYTE   W12
 BYTE   N23  Cs2  v088
 BYTE   W23
// 018   ----------------------------------------
 BYTE   W01
 BYTE   N11  En2  v084
 BYTE   W12
 BYTE   N06  Ds2  v092
 BYTE   W12
 BYTE   Ds2  v032
 BYTE   W12
 BYTE   En2  v092
 BYTE   W12
 BYTE   En2  v036
 BYTE   W11
 BYTE   N24  Cs2  v092
 BYTE   W24
 BYTE   W01
 BYTE   N12  Ds2
 BYTE   W11
// 019   ----------------------------------------
 BYTE   W01
 BYTE   TIE  Fn2  v084
 BYTE   W92
 BYTE   W03
// 020   ----------------------------------------
 BYTE   W90
 BYTE   EOT
 BYTE   W06
// 021   ----------------------------------------
 BYTE   W01
 BYTE   GoTo
  POIN2 Label_1_018A2D5E
// 022   ----------------------------------------
 BYTE   W28
 BYTE   FINE

//**************** Track 3 (Midi-Chn.2) ****************//

song10_003:
// 000   ----------------------------------------
 BYTE   KEYSH   song10_key+0
Label_2_018A301E:
 BYTE   VOICE   40
 BYTE   PAN   c_v+26
 BYTE   W01
 BYTE   MOD 0
 BYTE   CnM2
 BYTE   VOL   31*song10_mvl/mxv
 BYTE   N02  Fn2  v127
 BYTE   W06
 BYTE   Cs3  v120
 BYTE   W06
 BYTE   Fn3  v112
 BYTE   W06
 BYTE   Cs3  v120
 BYTE   W06
 BYTE   Fn2  v127
 BYTE   W06
 BYTE   Cs3  v108
 BYTE   W06
 BYTE   Fn3  v112
 BYTE   W06
 BYTE   Cs3
 BYTE   W06
 BYTE   Fn2  v127
 BYTE   W06
 BYTE   Cs3  v104
 BYTE   W06
 BYTE   Fn3  v112
 BYTE   W06
 BYTE   Cs3
 BYTE   W06
 BYTE   Fn2  v127
 BYTE   W06
 BYTE   Cs3  v088
 BYTE   W06
 BYTE   Fn3  v100
 BYTE   W06
 BYTE   Cs3  v116
 BYTE   W05
// 001   ----------------------------------------
Label_2_018A3056:
 BYTE   W01
 BYTE   N02  Gs2  v124
 BYTE   W06
 BYTE   Cs3  v100
 BYTE   W06
 BYTE   Gs3  v112
 BYTE   W06
 BYTE   Cs3
 BYTE   W06
 BYTE   Gs2  v127
 BYTE   W06
 BYTE   Cs3  v088
 BYTE   W06
 BYTE   Gs3  v112
 BYTE   W06
 BYTE   Cs3  v120
 BYTE   W06
 BYTE   Gs2  v108
 BYTE   W06
 BYTE   Cs3  v096
 BYTE   W06
 BYTE   Gs3  v112
 BYTE   W06
 BYTE   Cs3  v120
 BYTE   W06
 BYTE   Gs2  v116
 BYTE   W06
 BYTE   Cs3  v088
 BYTE   W06
 BYTE   Gs3  v112
 BYTE   W06
 BYTE   Cs3  v120
 BYTE   W05
 BYTE   PEND 
// 002   ----------------------------------------
Label_2_018A3088:
 BYTE   W01
 BYTE   N02  Fs2  v124
 BYTE   W06
 BYTE   Cs3  v100
 BYTE   W06
 BYTE   Gs3  v112
 BYTE   W06
 BYTE   Cs3
 BYTE   W06
 BYTE   Fs2  v127
 BYTE   W06
 BYTE   Cs3  v088
 BYTE   W06
 BYTE   Gs3  v112
 BYTE   W06
 BYTE   Cs3  v120
 BYTE   W06
 BYTE   Fs2  v108
 BYTE   W06
 BYTE   Cs3  v096
 BYTE   W06
 BYTE   Gs3  v112
 BYTE   W06
 BYTE   Cs3  v120
 BYTE   W06
 BYTE   Fs2  v116
 BYTE   W06
 BYTE   Cs3  v088
 BYTE   W06
 BYTE   Fs3  v112
 BYTE   W06
 BYTE   Cs3  v120
 BYTE   W05
 BYTE   PEND 
// 003   ----------------------------------------
 BYTE   W01
 BYTE   Gs2  v124
 BYTE   W06
 BYTE   Ds3  v100
 BYTE   W06
 BYTE   Fs3  v112
 BYTE   W06
 BYTE   Ds3
 BYTE   W06
 BYTE   Gs2  v127
 BYTE   W06
 BYTE   Ds3  v088
 BYTE   W06
 BYTE   Fs3  v112
 BYTE   W06
 BYTE   Ds3  v120
 BYTE   W06
 BYTE   Gs2  v108
 BYTE   W06
 BYTE   Cn3  v096
 BYTE   W06
 BYTE   Fs3  v112
 BYTE   W06
 BYTE   Cn3  v120
 BYTE   W06
 BYTE   Gs2  v116
 BYTE   W06
 BYTE   Cn3  v088
 BYTE   W06
 BYTE   Fs3  v112
 BYTE   W06
 BYTE   Cn3  v120
 BYTE   W05
// 004   ----------------------------------------
 BYTE   W01
 BYTE   Fn2  v127
 BYTE   W06
 BYTE   Cs3  v120
 BYTE   W06
 BYTE   Fn3  v112
 BYTE   W06
 BYTE   Cs3  v120
 BYTE   W06
 BYTE   Fn2  v127
 BYTE   W06
 BYTE   Cs3  v108
 BYTE   W06
 BYTE   Fn3  v112
 BYTE   W06
 BYTE   Cs3
 BYTE   W06
 BYTE   Fn2  v127
 BYTE   W06
 BYTE   Cs3  v104
 BYTE   W06
 BYTE   Fn3  v112
 BYTE   W06
 BYTE   Cs3
 BYTE   W06
 BYTE   Fn2  v127
 BYTE   W06
 BYTE   Cs3  v088
 BYTE   W06
 BYTE   Fn3  v100
 BYTE   W06
 BYTE   Cs3  v116
 BYTE   W05
// 005   ----------------------------------------
 BYTE   PATT
  POIN2 Label_2_018A3056
// 006   ----------------------------------------
 BYTE   PATT
  POIN2 Label_2_018A3088
// 007   ----------------------------------------
 BYTE   W01
 BYTE   N02  Gs2  v124
 BYTE   W06
 BYTE   Bn2  v100
 BYTE   W06
 BYTE   Fs3  v112
 BYTE   W06
 BYTE   Bn2
 BYTE   W06
 BYTE   Gs2  v127
 BYTE   W06
 BYTE   Bn2  v088
 BYTE   W06
 BYTE   Fs3  v112
 BYTE   W06
 BYTE   Bn2  v120
 BYTE   W06
 BYTE   Gs2  v108
 BYTE   W06
 BYTE   Bn2  v096
 BYTE   W06
 BYTE   Fs3  v112
 BYTE   W06
 BYTE   Bn2  v120
 BYTE   W06
 BYTE   Gs2  v116
 BYTE   W06
 BYTE   Bn2  v088
 BYTE   W06
 BYTE   Fs3  v112
 BYTE   W06
 BYTE   Bn2  v120
 BYTE   W05
// 008   ----------------------------------------
 BYTE   W01
 BYTE   An2  v127
 BYTE   W06
 BYTE   Cs3  v120
 BYTE   W06
 BYTE   En3  v112
 BYTE   W06
 BYTE   Cs3  v120
 BYTE   W06
 BYTE   An2  v127
 BYTE   W06
 BYTE   Cs3  v108
 BYTE   W06
 BYTE   En3  v112
 BYTE   W06
 BYTE   Cs3
 BYTE   W06
 BYTE   An2  v127
 BYTE   W06
 BYTE   Cs3  v104
 BYTE   W06
 BYTE   En3  v112
 BYTE   W06
 BYTE   Cs3
 BYTE   W06
 BYTE   An2  v127
 BYTE   W06
 BYTE   Cs3  v088
 BYTE   W06
 BYTE   En3  v096
 BYTE   W06
 BYTE   Cs3  v116
 BYTE   W05
// 009   ----------------------------------------
 BYTE   W01
 BYTE   Fs2  v124
 BYTE   W06
 BYTE   Cs3  v100
 BYTE   W06
 BYTE   Ds3  v112
 BYTE   W06
 BYTE   Cs3
 BYTE   W06
 BYTE   Fs2  v127
 BYTE   W06
 BYTE   Cs3  v088
 BYTE   W06
 BYTE   Ds3  v112
 BYTE   W06
 BYTE   Cs3  v120
 BYTE   W06
 BYTE   Fs2  v108
 BYTE   W06
 BYTE   Cs3  v096
 BYTE   W06
 BYTE   Ds3  v112
 BYTE   W06
 BYTE   Cs3  v120
 BYTE   W06
 BYTE   Fs2  v116
 BYTE   W06
 BYTE   Cs3  v088
 BYTE   W06
 BYTE   Ds3  v112
 BYTE   W06
 BYTE   Cs3  v120
 BYTE   W05
// 010   ----------------------------------------
 BYTE   W01
 BYTE   Gs2  v124
 BYTE   W06
 BYTE   Cs3  v100
 BYTE   W06
 BYTE   Ds3  v112
 BYTE   W06
 BYTE   Cs3
 BYTE   W06
 BYTE   Gs2  v127
 BYTE   W06
 BYTE   Cs3  v088
 BYTE   W06
 BYTE   Ds3  v112
 BYTE   W06
 BYTE   Cs3  v120
 BYTE   W06
 BYTE   Gs2  v108
 BYTE   W06
 BYTE   Cs3  v096
 BYTE   W06
 BYTE   Ds3  v112
 BYTE   W06
 BYTE   Cs3  v120
 BYTE   W06
 BYTE   Gs2  v116
 BYTE   W06
 BYTE   Cs3  v088
 BYTE   W06
 BYTE   Ds3  v112
 BYTE   W06
 BYTE   Cs3  v120
 BYTE   W05
// 011   ----------------------------------------
 BYTE   W01
 BYTE   Gs2  v124
 BYTE   W01
 BYTE   W02
 BYTE   W01
 BYTE   W02
 BYTE   Cn3  v100
 BYTE   W01
 BYTE   W02
 BYTE   W01
 BYTE   W02
 BYTE   Gs2  v112
 BYTE   W01
 BYTE   W02
 BYTE   W01
 BYTE   W02
 BYTE   Fs2
 BYTE   W01
 BYTE   W02
 BYTE   W01
 BYTE   W02
 BYTE   Ds2  v120
 BYTE   W01
 BYTE   W03
 BYTE   W02
 BYTE   Gs1  v127
 BYTE   W01
 BYTE   W03
 BYTE   W02
 BYTE   As1  v124
 BYTE   W01
 BYTE   W03
 BYTE   W02
 BYTE   Cn2  v127
 BYTE   W01
 BYTE   W03
 BYTE   W02
 BYTE   Cs2  v120
 BYTE   W01
 BYTE   W03
 BYTE   W02
 BYTE   Ds2  v096
 BYTE   W01
 BYTE   W03
 BYTE   W02
 BYTE   En2  v112
 BYTE   W01
 BYTE   W03
 BYTE   W02
 BYTE   Fs2  v120
 BYTE   W01
 BYTE   W03
 BYTE   W02
 BYTE   Gs2  v116
 BYTE   W01
 BYTE   W03
 BYTE   W02
 BYTE   As2  v088
 BYTE   W01
 BYTE   W03
 BYTE   W02
 BYTE   Cn3  v112
 BYTE   W01
 BYTE   W03
 BYTE   W02
 BYTE   Cs3  v120
 BYTE   W01
 BYTE   W03
 BYTE   W01
// 012   ----------------------------------------
 BYTE   W01
 BYTE   MOD 0
 BYTE   CnM2
 BYTE   VOL   35*song10_mvl/mxv
 BYTE   N05  Bn2  v108
 BYTE   W01
 BYTE   W02
 BYTE   W03
 BYTE   Bn2  v064
 BYTE   W06
 BYTE   Bn2  v040
 BYTE   W12
 BYTE   Cs3  v092
 BYTE   W06
 BYTE   Cs3  v056
 BYTE   W06
 BYTE   N06  Cs3  v032
 BYTE   W12
 BYTE   N23  An2  v084
 BYTE   W24
 BYTE   N12  Cs3  v088
 BYTE   W12
 BYTE   N05  Bn2  v096
 BYTE   W06
 BYTE   Bn2  v060
 BYTE   W05
// 013   ----------------------------------------
 BYTE   W01
 BYTE   Bn2  v036
 BYTE   W12
 BYTE   Cs3  v088
 BYTE   W06
 BYTE   Cs3  v052
 BYTE   W06
 BYTE   Cs3  v032
 BYTE   W12
 BYTE   N23  An2  v084
 BYTE   W24
 BYTE   N10  Cs3  v088
 BYTE   W12
 BYTE   N05  Bn2  v100
 BYTE   W06
 BYTE   Bn2  v060
 BYTE   W06
 BYTE   N06  Bn2  v036
 BYTE   W11
// 014   ----------------------------------------
 BYTE   W01
 BYTE   N05  Cs3  v088
 BYTE   W06
 BYTE   Cs3  v052
 BYTE   W06
 BYTE   N06  Cs3  v032
 BYTE   W12
 BYTE   N23  Gs2  v084
 BYTE   W24
 BYTE   N11  Cs3
 BYTE   W12
 BYTE   N05  Bn2  v092
 BYTE   W06
 BYTE   Bn2  v056
 BYTE   W06
 BYTE   N06  Bn2  v032
 BYTE   W12
 BYTE   N05  Cs3  v088
 BYTE   W06
 BYTE   Cs3  v052
 BYTE   W05
// 015   ----------------------------------------
 BYTE   W01
 BYTE   N06  Cs3  v032
 BYTE   W12
 BYTE   N23  Gs2  v088
 BYTE   W24
 BYTE   N11  Cs3  v084
 BYTE   W12
 BYTE   N05  As2  v096
 BYTE   W06
 BYTE   As2  v060
 BYTE   W06
 BYTE   N06  As2  v036
 BYTE   W12
 BYTE   N05  Cs3  v088
 BYTE   W06
 BYTE   Cs3  v052
 BYTE   W06
 BYTE   N06  Cs3  v032
 BYTE   W11
// 016   ----------------------------------------
 BYTE   W01
 BYTE   N23  Gn2  v080
 BYTE   W24
 BYTE   N12  Cs3  v088
 BYTE   W12
 BYTE   N05  As2  v096
 BYTE   W06
 BYTE   As2  v056
 BYTE   W06
 BYTE   As2  v036
 BYTE   W12
 BYTE   Cs3  v088
 BYTE   W06
 BYTE   Cs3  v052
 BYTE   W06
 BYTE   N06  Cs3  v032
 BYTE   W12
 BYTE   N24  Gn2  v076
 BYTE   W11
// 017   ----------------------------------------
 BYTE   W13
 BYTE   N11  Cs3  v084
 BYTE   W12
 BYTE   N05  Bn2  v100
 BYTE   W06
 BYTE   Bn2  v060
 BYTE   W06
 BYTE   N06  Bn2  v036
 BYTE   W12
 BYTE   N05  Cs3  v088
 BYTE   W06
 BYTE   Cs3  v052
 BYTE   W06
 BYTE   N06  Cs3  v032
 BYTE   W12
 BYTE   N23  An2  v084
 BYTE   W23
// 018   ----------------------------------------
 BYTE   W01
 BYTE   N12  Cs3  v080
 BYTE   W12
 BYTE   N05  Fs2
 BYTE   W06
 BYTE   Fs2  v048
 BYTE   W06
 BYTE   N06  Fs2  v028
 BYTE   W12
 BYTE   N05  Fs2  v092
 BYTE   W06
 BYTE   Fs2  v056
 BYTE   W06
 BYTE   N06  Fs2  v032
 BYTE   W12
 BYTE   N19  An2  v084
 BYTE   W23
 BYTE   N12  An2  v088
 BYTE   W12
// 019   ----------------------------------------
 BYTE   W01
 BYTE   TIE  Gs2  v080
 BYTE   W92
 BYTE   W03
// 020   ----------------------------------------
 BYTE   W90
 BYTE   W01
 BYTE   EOT
 BYTE   W05
// 021   ----------------------------------------
 BYTE   W01
 BYTE   GoTo
  POIN2 Label_2_018A301E
// 022   ----------------------------------------
 BYTE   W28
 BYTE   FINE

//**************** Track 4 (Midi-Chn.3) ****************//

song10_004:
// 000   ----------------------------------------
 BYTE   KEYSH   song10_key+0
Label_3_554241:
 BYTE   VOICE   40
 BYTE   PAN   c_v+0
 BYTE   W01
 BYTE   VOL   31*song10_mvl/mxv
 BYTE   MOD 0
 BYTE   CnM2
 BYTE   W92
 BYTE   W03
// 001   ----------------------------------------
 BYTE   W96
// 002   ----------------------------------------
 BYTE   W96
// 003   ----------------------------------------
 BYTE   W96
// 004   ----------------------------------------
 BYTE   W96
// 005   ----------------------------------------
 BYTE   W96
// 006   ----------------------------------------
 BYTE   W96
// 007   ----------------------------------------
 BYTE   W96
// 008   ----------------------------------------
 BYTE   W01
 BYTE   W92
 BYTE   W03
// 009   ----------------------------------------
 BYTE   W96
// 010   ----------------------------------------
 BYTE   W96
// 011   ----------------------------------------
 BYTE   W02
 BYTE   W02
 BYTE   W01
 BYTE   W02
 BYTE   W01
 BYTE   W02
 BYTE   W01
 BYTE   W02
 BYTE   W01
 BYTE   W02
 BYTE   W01
 BYTE   W02
 BYTE   W01
 BYTE   W02
 BYTE   W01
 BYTE   W02
 BYTE   W01
 BYTE   W03
 BYTE   W03
 BYTE   W03
 BYTE   W03
 BYTE   W03
 BYTE   W03
 BYTE   W03
 BYTE   W03
 BYTE   W03
 BYTE   W03
 BYTE   W03
 BYTE   W03
 BYTE   W03
 BYTE   W03
 BYTE   W03
 BYTE   W03
 BYTE   W03
 BYTE   W03
 BYTE   W03
 BYTE   W03
 BYTE   W03
 BYTE   W03
 BYTE   W03
 BYTE   W01
// 012   ----------------------------------------
 BYTE   W01
 BYTE   VOL   35*song10_mvl/mxv
 BYTE   MOD 0
 BYTE   CnM2
 BYTE   W01
 BYTE   W03
 BYTE   CnM2
 BYTE   VOL   35*song10_mvl/mxv
 BYTE   W01
 BYTE   N05  Ds3  v104
 BYTE   W06
 BYTE   Ds3  v064
 BYTE   W06
 BYTE   N06  Ds3  v040
 BYTE   W11
 BYTE   N05  En3  v100
 BYTE   W06
 BYTE   En3  v060
 BYTE   W06
 BYTE   N06  En3  v036
 BYTE   W12
 BYTE   N23  Cs3  v092
 BYTE   W24
 BYTE   N12  En3  v088
 BYTE   W12
 BYTE   N05  Ds3  v092
 BYTE   W06
 BYTE   Ds3  v056
 BYTE   W01
// 013   ----------------------------------------
 BYTE   W05
 BYTE   N06  Ds3  v032
 BYTE   W12
 BYTE   N05  En3  v096
 BYTE   W06
 BYTE   En3  v056
 BYTE   W06
 BYTE   N06  En3  v036
 BYTE   W12
 BYTE   N23  Cs3  v092
 BYTE   W24
 BYTE   N11  En3  v084
 BYTE   W12
 BYTE   N05  Ds3  v092
 BYTE   W06
 BYTE   Ds3  v056
 BYTE   W06
 BYTE   N06  Ds3  v032
 BYTE   W07
// 014   ----------------------------------------
 BYTE   W05
 BYTE   N05  En3  v092
 BYTE   W06
 BYTE   En3  v056
 BYTE   W06
 BYTE   N06  En3  v036
 BYTE   W12
 BYTE   N23  Cs3  v092
 BYTE   W24
 BYTE   N11  En3  v088
 BYTE   W12
 BYTE   N05  Ds3  v092
 BYTE   W06
 BYTE   Ds3  v056
 BYTE   W06
 BYTE   N06  Ds3  v032
 BYTE   W12
 BYTE   N05  En3  v100
 BYTE   W06
 BYTE   En3  v060
 BYTE   W01
// 015   ----------------------------------------
 BYTE   W05
 BYTE   N06  En3  v036
 BYTE   W12
 BYTE   N23  Cs3  v092
 BYTE   W24
 BYTE   N11  En3  v088
 BYTE   W12
 BYTE   N05  Ds3  v092
 BYTE   W06
 BYTE   Ds3  v056
 BYTE   W06
 BYTE   N06  Ds3  v036
 BYTE   W12
 BYTE   N05  En3  v096
 BYTE   W06
 BYTE   En3  v060
 BYTE   W06
 BYTE   N06  En3  v036
 BYTE   W07
// 016   ----------------------------------------
 BYTE   W05
 BYTE   N23  Cs3  v092
 BYTE   W24
 BYTE   N11  En3  v088
 BYTE   W12
 BYTE   N05  Ds3
 BYTE   W06
 BYTE   Ds3  v052
 BYTE   W06
 BYTE   N06  Ds3  v032
 BYTE   W12
 BYTE   N05  En3  v100
 BYTE   W06
 BYTE   En3  v060
 BYTE   W06
 BYTE   N06  En3  v036
 BYTE   W12
 BYTE   N23  Cs3  v092
 BYTE   W07
// 017   ----------------------------------------
 BYTE   W17
 BYTE   N11  En3  v084
 BYTE   W12
 BYTE   N05  Ds3  v092
 BYTE   W06
 BYTE   Ds3  v056
 BYTE   W06
 BYTE   N06  Ds3  v032
 BYTE   W12
 BYTE   N05  En3  v088
 BYTE   W06
 BYTE   En3  v052
 BYTE   W06
 BYTE   N06  En3  v032
 BYTE   W12
 BYTE   N23  Cs3  v088
 BYTE   W19
// 018   ----------------------------------------
 BYTE   W05
 BYTE   N11  En3  v084
 BYTE   W12
 BYTE   N05  Ds3  v092
 BYTE   W06
 BYTE   Ds3  v056
 BYTE   W06
 BYTE   N06  Ds3  v032
 BYTE   W12
 BYTE   N05  En3  v092
 BYTE   W06
 BYTE   En3  v056
 BYTE   W06
 BYTE   N06  En3  v036
 BYTE   W11
 BYTE   N24  Cs3  v092
 BYTE   W24
 BYTE   W01
 BYTE   N12  Ds3
 BYTE   W07
// 019   ----------------------------------------
 BYTE   W05
 BYTE   TIE  Fn3  v084
 BYTE   W90
 BYTE   W01
// 020   ----------------------------------------
 BYTE   W92
 BYTE   W02
 BYTE   EOT
 BYTE   W02
// 021   ----------------------------------------
 BYTE   W01
 BYTE   GoTo
  POIN2 Label_3_554241
// 022   ----------------------------------------
 BYTE   W28
 BYTE   FINE

//**************** Track 5 (Midi-Chn.4) ****************//

song10_005:
// 000   ----------------------------------------
 BYTE   KEYSH   song10_key+0
Label_4_018A3352:
 BYTE   VOICE   127
 BYTE   W01
 BYTE   Gn8
 BYTE   MOD 0
 BYTE   CnM2
 BYTE   VOL   35*song10_mvl/mxv
 BYTE   PAN   c_v+0
 BYTE   MOD 0
 BYTE   CnM2
 BYTE   VOL   35*song10_mvl/mxv
 BYTE   PAN   c_v+0
 BYTE   N01  Dn1  v104
 BYTE   N56  En2  v072
 BYTE   W04
 BYTE   N01  Dn1  v060
 BYTE   W08
 BYTE   N03  Dn1  v096
 BYTE   W04
 BYTE   N02  Dn1  v092
 BYTE   W04
 BYTE   N03  Dn1  v108
 BYTE   W04
 BYTE   Dn1  v112
 BYTE   W04
 BYTE   Cs2  v068
 BYTE   W08
 BYTE   Dn1  v092
 BYTE   W04
 BYTE   N04  Dn1  v096
 BYTE   W04
 BYTE   N03  Dn1  v104
 BYTE   W04
 BYTE   Dn1  v116
 BYTE   W04
 BYTE   Cs2  v072
 BYTE   W08
 BYTE   N23  Ds1  v127
 BYTE   N18  En2  v084
 BYTE   W23
 BYTE   N12  An2  v076
 BYTE   W01
 BYTE   N03  Dn1  v120
 BYTE   W04
 BYTE   Dn1  v072
 BYTE   W07
// 001   ----------------------------------------
 BYTE   N24  An2
 BYTE   W01
 BYTE   N03  Dn1  v124
 BYTE   W04
 BYTE   Cs2  v072
 BYTE   W08
 BYTE   Cs2  v036
 BYTE   W12
 BYTE   Dn1  v112
 BYTE   N24  An2  v068
 BYTE   W04
 BYTE   N03  Dn1
 BYTE   W08
 BYTE   Dn1  v032
 BYTE   W24
 BYTE   N02  Dn1  v104
 BYTE   W04
 BYTE   Dn1  v064
 BYTE   W08
 BYTE   N01  Dn1  v092
 BYTE   W04
 BYTE   Cs2  v056
 BYTE   W08
 BYTE   N02  Dn1  v084
 BYTE   W04
 BYTE   Dn1  v048
 BYTE   W06
 BYTE   N24  An2  v064
 BYTE   W01
// 002   ----------------------------------------
Label_4_018A33D4:
 BYTE   W01
 BYTE   N02  Dn1  v108
 BYTE   W04
 BYTE   Dn1  v064
 BYTE   W08
 BYTE   Dn1  v100
 BYTE   W04
 BYTE   N04
 BYTE   W04
 BYTE   N03  Dn1  v092
 BYTE   W04
 BYTE   N01  Dn1  v108
 BYTE   W04
 BYTE   Cs2  v064
 BYTE   W08
 BYTE   N03  Dn1  v096
 BYTE   W04
 BYTE   N04
 BYTE   W04
 BYTE   Dn1  v116
 BYTE   W04
 BYTE   N01  Dn1  v092
 BYTE   W04
 BYTE   Cs2  v056
 BYTE   W08
 BYTE   Dn1  v092
 BYTE   W04
 BYTE   Dn1  v056
 BYTE   W08
 BYTE   Dn1  v092
 BYTE   W04
 BYTE   Cs2  v056
 BYTE   W08
 BYTE   Dn1  v076
 BYTE   W04
 BYTE   Dn1  v044
 BYTE   W07
 BYTE   PEND 
// 003   ----------------------------------------
 BYTE   W01
 BYTE   N02  Dn1  v096
 BYTE   W04
 BYTE   Dn1  v056
 BYTE   W08
 BYTE   Dn1  v104
 BYTE   W04
 BYTE   N04  Dn1  v100
 BYTE   W04
 BYTE   N04
 BYTE   W04
 BYTE   N01  Dn1  v080
 BYTE   W04
 BYTE   Cs2  v048
 BYTE   W08
 BYTE   N03  Dn1  v092
 BYTE   W04
 BYTE   N04  Dn1  v100
 BYTE   W04
 BYTE   N03  Dn1  v124
 BYTE   W04
 BYTE   Dn1  v076
 BYTE   W08
 BYTE   Dn1  v036
 BYTE   W04
 BYTE   N01  Dn1  v104
 BYTE   W04
 BYTE   Cs2  v064
 BYTE   W07
 BYTE   N18  En2  v072
 BYTE   W01
 BYTE   N23  Fn1  v124
 BYTE   W23
// 004   ----------------------------------------
 BYTE   N52  En2  v060
 BYTE   W01
 BYTE   N01  Dn1  v104
 BYTE   W04
 BYTE   Dn1  v060
 BYTE   W08
 BYTE   N03  Dn1  v096
 BYTE   W04
 BYTE   N02  Dn1  v092
 BYTE   W04
 BYTE   N03  Dn1  v108
 BYTE   W04
 BYTE   Dn1  v112
 BYTE   W04
 BYTE   Cs2  v068
 BYTE   W08
 BYTE   Dn1  v092
 BYTE   W04
 BYTE   N04  Dn1  v096
 BYTE   W04
 BYTE   N03  Dn1  v104
 BYTE   W04
 BYTE   Dn1  v116
 BYTE   W04
 BYTE   Cs2  v072
 BYTE   W07
 BYTE   N18  En2  v084
 BYTE   W01
 BYTE   N23  Ds1  v127
 BYTE   W24
 BYTE   N03  Dn1  v120
 BYTE   N11  An2  v072
 BYTE   W04
 BYTE   N03  Dn1
 BYTE   W07
// 005   ----------------------------------------
 BYTE   W01
 BYTE   Dn1  v124
 BYTE   N23  An2  v072
 BYTE   W04
 BYTE   N03  Cs2
 BYTE   W08
 BYTE   Cs2  v036
 BYTE   W11
 BYTE   N24  An2  v052
 BYTE   W01
 BYTE   N03  Dn1  v112
 BYTE   W04
 BYTE   Dn1  v068
 BYTE   W08
 BYTE   Dn1  v032
 BYTE   W24
 BYTE   N02  Dn1  v104
 BYTE   W04
 BYTE   Dn1  v064
 BYTE   W08
 BYTE   N11  Ds1  v108
 BYTE   W12
 BYTE   N02  Dn1  v084
 BYTE   W04
 BYTE   Dn1  v048
 BYTE   W06
 BYTE   N24  An2  v060
 BYTE   W01
// 006   ----------------------------------------
 BYTE   PATT
  POIN2 Label_4_018A33D4
// 007   ----------------------------------------
 BYTE   W01
 BYTE   N02  Dn1  v096
 BYTE   W04
 BYTE   Dn1  v056
 BYTE   W08
 BYTE   Dn1  v104
 BYTE   W04
 BYTE   N04  Dn1  v100
 BYTE   W04
 BYTE   N04
 BYTE   W04
 BYTE   N01  Dn1  v080
 BYTE   W04
 BYTE   Cs2  v048
 BYTE   W08
 BYTE   N03  Dn1  v092
 BYTE   W04
 BYTE   N04  Dn1  v100
 BYTE   W04
 BYTE   N03  Dn1  v124
 BYTE   W04
 BYTE   Dn1  v076
 BYTE   W08
 BYTE   Dn1  v036
 BYTE   W04
 BYTE   N01  Dn1  v104
 BYTE   W04
 BYTE   Cs2  v064
 BYTE   W07
 BYTE   N23  An2
 BYTE   W01
 BYTE   Fn1  v124
 BYTE   W23
// 008   ----------------------------------------
 BYTE   N19  En2  v072
 BYTE   W01
 BYTE   N01  Dn1  v076
 BYTE   W04
 BYTE   Dn1  v044
 BYTE   W08
 BYTE   N02  Dn1  v064
 BYTE   W04
 BYTE   N03  Dn1  v068
 BYTE   W04
 BYTE   Dn1  v052
 BYTE   W04
 BYTE   Dn1  v084
 BYTE   W04
 BYTE   Cs2  v052
 BYTE   W08
 BYTE   Dn1  v068
 BYTE   W04
 BYTE   N04
 BYTE   W04
 BYTE   N03  Dn1  v076
 BYTE   W04
 BYTE   N02  Dn1  v088
 BYTE   W04
 BYTE   Cs2  v052
 BYTE   W08
 BYTE   N03  Dn1  v072
 BYTE   W04
 BYTE   Dn1  v044
 BYTE   W08
 BYTE   N02  Dn1  v072
 BYTE   W04
 BYTE   Cs2  v044
 BYTE   W08
 BYTE   Dn1  v068
 BYTE   W04
 BYTE   Dn1  v040
 BYTE   W07
// 009   ----------------------------------------
 BYTE   W01
 BYTE   Dn1  v072
 BYTE   W04
 BYTE   Dn1  v044
 BYTE   W08
 BYTE   N01  Dn1  v060
 BYTE   W04
 BYTE   N03  Dn1  v068
 BYTE   W04
 BYTE   N04  Dn1  v060
 BYTE   W04
 BYTE   N02  Dn1  v080
 BYTE   W04
 BYTE   Cs2  v048
 BYTE   W08
 BYTE   N03  Dn1  v064
 BYTE   W04
 BYTE   Dn1  v060
 BYTE   W04
 BYTE   Dn1  v072
 BYTE   W04
 BYTE   N01  Dn1  v084
 BYTE   W04
 BYTE   Cs2  v048
 BYTE   W08
 BYTE   Dn1  v080
 BYTE   W04
 BYTE   Dn1  v048
 BYTE   W08
 BYTE   Dn1  v072
 BYTE   W04
 BYTE   Dn1  v044
 BYTE   W08
 BYTE   N11  Fn1  v076
 BYTE   W11
// 010   ----------------------------------------
 BYTE   W01
 BYTE   N03  Dn1  v088
 BYTE   W04
 BYTE   Dn1  v052
 BYTE   W08
 BYTE   Dn1  v068
 BYTE   W04
 BYTE   N04  Dn1  v072
 BYTE   W04
 BYTE   N03
 BYTE   W04
 BYTE   Dn1  v084
 BYTE   W04
 BYTE   Cs2  v048
 BYTE   W08
 BYTE   Dn1  v072
 BYTE   W04
 BYTE   Dn1  v068
 BYTE   W04
 BYTE   Dn1  v088
 BYTE   W04
 BYTE   N01  Dn1  v068
 BYTE   W04
 BYTE   Cs2  v040
 BYTE   W08
 BYTE   N02  Dn1  v068
 BYTE   W04
 BYTE   Dn1  v040
 BYTE   W08
 BYTE   N01  Dn1  v060
 BYTE   W04
 BYTE   Cs2  v036
 BYTE   W08
 BYTE   Dn1  v060
 BYTE   W04
 BYTE   Dn1  v036
 BYTE   W07
// 011   ----------------------------------------
 BYTE   W01
 BYTE   N02  Dn1  v076
 BYTE   W04
 BYTE   Dn1  v044
 BYTE   W08
 BYTE   N03  Dn1  v076
 BYTE   W04
 BYTE   Dn1  v068
 BYTE   W04
 BYTE   Dn1  v084
 BYTE   W04
 BYTE   N12  Fn1  v100
 BYTE   W12
 BYTE   N03  Dn1  v092
 BYTE   W04
 BYTE   Dn1  v056
 BYTE   W08
 BYTE   Dn1  v088
 BYTE   W04
 BYTE   Cs2  v052
 BYTE   W08
 BYTE   Dn1  v084
 BYTE   W04
 BYTE   Dn1  v052
 BYTE   W08
 BYTE   N01  Dn1  v088
 BYTE   W04
 BYTE   Cs2  v052
 BYTE   W08
 BYTE   N11  Fn1  v112
 BYTE   W11
// 012   ----------------------------------------
 BYTE   W01
 BYTE   N02  Dn1  v124
 BYTE   W04
 BYTE   Dn1  v076
 BYTE   W08
 BYTE   N03  Dn1  v108
 BYTE   W04
 BYTE   Dn1  v092
 BYTE   W04
 BYTE   Dn1  v080
 BYTE   W04
 BYTE   N02  Dn1  v100
 BYTE   N36  En2  v088
 BYTE   W04
 BYTE   N02  Cs2  v060
 BYTE   W08
 BYTE   N03  Dn1  v104
 BYTE   W04
 BYTE   Dn1  v064
 BYTE   W08
 BYTE   Dn1  v100
 BYTE   W04
 BYTE   Cs2  v060
 BYTE   W08
 BYTE   N11  Fn1  v108
 BYTE   N24  An2  v068
 BYTE   W12
 BYTE   N02  Dn1  v120
 BYTE   W04
 BYTE   Dn1  v072
 BYTE   W08
 BYTE   N03  Dn1  v104
 BYTE   W04
 BYTE   Dn1  v088
 BYTE   W04
 BYTE   Dn1  v080
 BYTE   W03
// 013   ----------------------------------------
 BYTE   W01
 BYTE   N01
 BYTE   W04
 BYTE   Cs2  v048
 BYTE   W08
 BYTE   N03  Dn1  v096
 BYTE   N44  En2  v080
 BYTE   W04
 BYTE   N03  Dn1  v084
 BYTE   W04
 BYTE   Dn1  v088
 BYTE   W04
 BYTE   N01  Dn1  v084
 BYTE   W04
 BYTE   Cs2  v052
 BYTE   W08
 BYTE   N03  Dn1  v108
 BYTE   W04
 BYTE   Dn1  v064
 BYTE   W08
 BYTE   Dn1  v100
 BYTE   W04
 BYTE   Cs2  v060
 BYTE   W07
 BYTE   N05  An2  v072
 BYTE   W01
 BYTE   N03  Dn1  v112
 BYTE   W04
 BYTE   Dn1  v068
 BYTE   W01
 BYTE   N06  An2  v044
 BYTE   W07
 BYTE   N02  Dn1  v116
 BYTE   N24  An2  v064
 BYTE   W04
 BYTE   N02  Dn1  v068
 BYTE   W08
 BYTE   N03  Dn1  v108
 BYTE   W04
 BYTE   Dn1  v088
 BYTE   W04
 BYTE   Dn1  v076
 BYTE   W03
// 014   ----------------------------------------
 BYTE   W01
 BYTE   Dn1  v104
 BYTE   N30  En2  v068
 BYTE   W04
 BYTE   N03  Cs2  v064
 BYTE   W08
 BYTE   Dn1  v104
 BYTE   W04
 BYTE   Dn1  v064
 BYTE   W08
 BYTE   N11  Fn1  v112
 BYTE   W12
 BYTE   N02  Dn1  v124
 BYTE   N23  An2  v072
 BYTE   W04
 BYTE   N02  Dn1  v076
 BYTE   W08
 BYTE   Dn1  v104
 BYTE   W04
 BYTE   Dn1  v064
 BYTE   W08
 BYTE   N03  Dn1  v104
 BYTE   W01
 BYTE   N23  An2  v044
 BYTE   W03
 BYTE   N03  Dn1  v080
 BYTE   W04
 BYTE   N03
 BYTE   W04
 BYTE   Dn1  v100
 BYTE   W04
 BYTE   Cs2  v060
 BYTE   W08
 BYTE   Dn1  v104
 BYTE   N44  En2  v072
 BYTE   W04
 BYTE   N03  Dn1  v064
 BYTE   W07
// 015   ----------------------------------------
 BYTE   W01
 BYTE   Dn1  v104
 BYTE   W04
 BYTE   Cs2  v064
 BYTE   W08
 BYTE   N02  Dn1  v108
 BYTE   W04
 BYTE   Dn1  v064
 BYTE   W08
 BYTE   Dn1  v096
 BYTE   W04
 BYTE   Cs2  v056
 BYTE   W08
 BYTE   N11  Fn1  v120
 BYTE   N24  An2  v072
 BYTE   W12
 BYTE   N03  Dn1  v124
 BYTE   W04
 BYTE   Dn1  v076
 BYTE   W08
 BYTE   Dn1  v100
 BYTE   W04
 BYTE   Dn1  v088
 BYTE   W04
 BYTE   Dn1  v084
 BYTE   W04
 BYTE   N02  Dn1  v088
 BYTE   N32  En2
 BYTE   W04
 BYTE   N02  Cs2  v052
 BYTE   W08
 BYTE   Dn1  v096
 BYTE   W04
 BYTE   Dn1  v060
 BYTE   W07
// 016   ----------------------------------------
 BYTE   W01
 BYTE   N11  Fn1  v112
 BYTE   W12
 BYTE   N03  Dn1  v120
 BYTE   N24  An2  v060
 BYTE   W04
 BYTE   N03  Dn1  v072
 BYTE   W08
 BYTE   N02  Dn1  v104
 BYTE   W04
 BYTE   Dn1  v064
 BYTE   W08
 BYTE   N03  Dn1  v100
 BYTE   W04
 BYTE   Dn1  v088
 BYTE   W04
 BYTE   Dn1  v084
 BYTE   W04
 BYTE   Dn1  v088
 BYTE   W04
 BYTE   Cs2  v052
 BYTE   W08
 BYTE   Dn1  v104
 BYTE   N44  En2  v080
 BYTE   W04
 BYTE   N03  Dn1  v064
 BYTE   W08
 BYTE   Dn1  v100
 BYTE   W04
 BYTE   Cs2  v060
 BYTE   W08
 BYTE   Dn1  v104
 BYTE   W04
 BYTE   Dn1  v064
 BYTE   W07
// 017   ----------------------------------------
 BYTE   W01
 BYTE   Dn1  v108
 BYTE   W04
 BYTE   Cs2  v064
 BYTE   W08
 BYTE   N02  Dn1  v112
 BYTE   N11  An2  v080
 BYTE   W04
 BYTE   N02  Dn1  v068
 BYTE   W08
 BYTE   N03  Dn1  v112
 BYTE   N23  An2  v068
 BYTE   W04
 BYTE   N03  Dn1
 BYTE   W08
 BYTE   Dn1  v104
 BYTE   W04
 BYTE   Dn1  v088
 BYTE   W04
 BYTE   Dn1  v084
 BYTE   W04
 BYTE   Dn1  v096
 BYTE   N28  En2  v072
 BYTE   W04
 BYTE   N03  Cs2  v056
 BYTE   W08
 BYTE   Dn1  v112
 BYTE   W04
 BYTE   Dn1  v068
 BYTE   W08
 BYTE   N11  Fn1  v108
 BYTE   W12
 BYTE   N03  Dn1  v116
 BYTE   N24  An2  v068
 BYTE   W04
 BYTE   N03  Dn1  v072
 BYTE   W07
// 018   ----------------------------------------
 BYTE   W01
 BYTE   Dn1  v100
 BYTE   W04
 BYTE   Dn1  v060
 BYTE   W08
 BYTE   Dn1  v100
 BYTE   W01
 BYTE   N23  An2  v076
 BYTE   W03
 BYTE   N03  Dn1  v080
 BYTE   W04
 BYTE   Dn1  v096
 BYTE   W04
 BYTE   N02  Dn1  v088
 BYTE   W04
 BYTE   Cs2  v052
 BYTE   W08
 BYTE   N03  Dn1  v104
 BYTE   N44  En2  v080
 BYTE   W04
 BYTE   N03  Dn1  v064
 BYTE   W08
 BYTE   Dn1  v104
 BYTE   W04
 BYTE   Cs2  v064
 BYTE   W08
 BYTE   N02  Dn1  v112
 BYTE   W04
 BYTE   Dn1  v068
 BYTE   W08
 BYTE   N03  Dn1  v108
 BYTE   W04
 BYTE   Cs2  v064
 BYTE   W08
 BYTE   N11  Fn1  v120
 BYTE   N11  An2  v080
 BYTE   W11
// 019   ----------------------------------------
 BYTE   W01
 BYTE   N02  Dn1  v124
 BYTE   N80  En2  v084
 BYTE   W04
 BYTE   N02  Dn1  v076
 BYTE   W08
 BYTE   N03  Dn1  v108
 BYTE   W04
 BYTE   Dn1  v088
 BYTE   W04
 BYTE   Dn1  v076
 BYTE   W04
 BYTE   Dn1  v092
 BYTE   W04
 BYTE   Cs2  v056
 BYTE   W08
 BYTE   Dn1  v104
 BYTE   W04
 BYTE   Dn1  v064
 BYTE   W08
 BYTE   N02  Dn1  v100
 BYTE   W04
 BYTE   Cs2  v060
 BYTE   W08
 BYTE   N11  Fn1  v108
 BYTE   W12
 BYTE   N02  Dn1  v116
 BYTE   W04
 BYTE   Dn1  v068
 BYTE   W08
 BYTE   N03  Dn1  v096
 BYTE   W04
 BYTE   Dn1  v080
 BYTE   W04
 BYTE   Dn1  v072
 BYTE   W03
// 020   ----------------------------------------
 BYTE   W01
 BYTE   Dn1  v088
 BYTE   W04
 BYTE   Cs2  v052
 BYTE   W08
 BYTE   Dn1  v100
 BYTE   W04
 BYTE   Dn1  v096
 BYTE   W04
 BYTE   N03
 BYTE   W04
 BYTE   Dn1  v092
 BYTE   W04
 BYTE   Cs2  v056
 BYTE   W08
 BYTE   N02  Dn1  v112
 BYTE   W04
 BYTE   Dn1  v068
 BYTE   W08
 BYTE   Dn1  v100
 BYTE   W04
 BYTE   Cs2  v060
 BYTE   W08
 BYTE   N03  Dn1  v120
 BYTE   W04
 BYTE   Dn1  v088
 BYTE   W04
 BYTE   Dn1  v080
 BYTE   W03
 BYTE   N22  En2
 BYTE   W01
 BYTE   N03  Dn1  v116
 BYTE   W04
 BYTE   Cs2  v072
 BYTE   W08
 BYTE   N02  Dn1  v108
 BYTE   W04
 BYTE   Dn1  v064
 BYTE   W07
// 021   ----------------------------------------
 BYTE   W01
 BYTE   GoTo
  POIN2 Label_4_018A3352
// 022   ----------------------------------------
 BYTE   W28
 BYTE   FINE

//**************** Track 6 (Midi-Chn.5) ****************//

song10_006:
// 000   ----------------------------------------
 BYTE   KEYSH   song10_key+0
Label_5_018A3846:
 BYTE   VOICE   56
 BYTE   W01
 BYTE   MOD 0
 BYTE   CnM2
 BYTE   VOL   35*song10_mvl/mxv
 BYTE   PAN   c_v+0
 BYTE   N18  Fn1  v127
 BYTE   W23
 BYTE   N03  Fn1  v116
 BYTE   W04
 BYTE   N04  Fn1  v064
 BYTE   W05
 BYTE   N03  Gs1  v124
 BYTE   W07
 BYTE   Cs2
 BYTE   W04
 BYTE   Cs2  v068
 BYTE   W06
 BYTE   N42  Fn2  v104
 BYTE   W44
 BYTE   W02
// 001   ----------------------------------------
 BYTE   N20  En2
 BYTE   W24
 BYTE   N03  En2  v112
 BYTE   W04
 BYTE   N04  En2  v068
 BYTE   W05
 BYTE   N03  Fs2  v108
 BYTE   W04
 BYTE   Fs2  v064
 BYTE   W03
 BYTE   En2  v104
 BYTE   W04
 BYTE   N05  En2  v064
 BYTE   W06
 BYTE   N21  Fs2  v108
 BYTE   W23
 BYTE   W01
 BYTE   N22  En2  v100
 BYTE   W22
// 002   ----------------------------------------
 BYTE   W01
 BYTE   N03  Ds2  v112
 BYTE   W04
 BYTE   N04  Ds2  v068
 BYTE   W04
 BYTE   N03  Cs2  v112
 BYTE   W04
 BYTE   Cs2  v068
 BYTE   W04
 BYTE   Bn1  v116
 BYTE   W04
 BYTE   N04  Bn1  v072
 BYTE   W04
 BYTE   N21  An1  v112
 BYTE   W24
 BYTE   W01
 BYTE   Gs1
 BYTE   W11
 BYTE   W12
 BYTE   N24  Fs1  v108
 BYTE   W23
// 003   ----------------------------------------
 BYTE   W02
 BYTE   N44  Gs1  v104
 BYTE   W44
 BYTE   W03
 BYTE   N48  Ds1  v076
 BYTE   W44
 BYTE   W03
// 004   ----------------------------------------
 BYTE   W03
 BYTE   N18  Fn1  v120
 BYTE   W22
 BYTE   N03
 BYTE   W04
 BYTE   N04  Fn1  v064
 BYTE   W05
 BYTE   N03  Gs1  v127
 BYTE   W03
 BYTE   W01
 BYTE   Gs1  v072
 BYTE   W04
 BYTE   N01  Cs2  v112
 BYTE   W04
 BYTE   Cs2  v060
 BYTE   W04
 BYTE   N44  Fn2  v108
 BYTE   W44
 BYTE   W02
// 005   ----------------------------------------
 BYTE   W01
 BYTE   N19  En2  v116
 BYTE   W24
 BYTE   N03  En2  v108
 BYTE   W04
 BYTE   N04  En2  v064
 BYTE   W04
 BYTE   N03  Fs2  v116
 BYTE   W04
 BYTE   Fs2  v068
 BYTE   W04
 BYTE   Gs2  v116
 BYTE   W04
 BYTE   N04  Gs2  v068
 BYTE   W05
 BYTE   N20  Fs2  v116
 BYTE   W23
 BYTE   N22  En2  v100
 BYTE   W22
 BYTE   N03  Ds2  v108
 BYTE   W01
// 006   ----------------------------------------
 BYTE   W03
 BYTE   N04  Ds2  v064
 BYTE   W05
 BYTE   N03  Cs2  v104
 BYTE   W04
 BYTE   Cs2  v064
 BYTE   W01
 BYTE   W02
 BYTE   Bn1  v112
 BYTE   W04
 BYTE   N04  Bn1  v068
 BYTE   W05
 BYTE   N23  An1  v108
 BYTE   W24
 BYTE   W02
 BYTE   N22  Gs1  v112
 BYTE   W24
 BYTE   Fs1  v108
 BYTE   W22
// 007   ----------------------------------------
 BYTE   W01
 BYTE   W02
 BYTE   N88  Gs1  v100
 BYTE   W06
 BYTE   W07
 BYTE   W06
 BYTE   W05
 BYTE   W04
 BYTE   W03
 BYTE   W05
 BYTE   W03
 BYTE   W03
 BYTE   W01
 BYTE   W03
 BYTE   W03
 BYTE   W02
 BYTE   W01
 BYTE   W02
 BYTE   W01
 BYTE   W02
 BYTE   W01
 BYTE   W02
 BYTE   W01
 BYTE   W02
 BYTE   W01
 BYTE   W02
 BYTE   W01
 BYTE   W02
 BYTE   W01
 BYTE   W02
 BYTE   W01
 BYTE   W02
 BYTE   W01
 BYTE   W02
 BYTE   W01
 BYTE   W02
 BYTE   W01
 BYTE   W02
 BYTE   W01
 BYTE   W02
 BYTE   W01
 BYTE   W05
// 008   ----------------------------------------
 BYTE   W01
 BYTE   MOD 0
 BYTE   CnM2
 BYTE   VOL   35*song10_mvl/mxv
 BYTE   PAN   c_v-36
 BYTE   N21  Cs3  v080
 BYTE   W24
 BYTE   N05  Cs3  v096
 BYTE   W09
 BYTE   N02  En3  v092
 BYTE   W07
 BYTE   N05  An3  v088
 BYTE   W09
 BYTE   N36  Cs4  v084
 BYTE   W44
 BYTE   W02
// 009   ----------------------------------------
 BYTE   W01
 BYTE   N21  Cs3  v088
 BYTE   W24
 BYTE   N05  Cs3  v096
 BYTE   W08
 BYTE   N04  Fs3  v092
 BYTE   W08
 BYTE   An3  v088
 BYTE   W08
 BYTE   N42  Cs4  v092
 BYTE   W44
 BYTE   W03
// 010   ----------------------------------------
 BYTE   N20  Cs3  v084
 BYTE   W24
 BYTE   N05  Cs3  v096
 BYTE   W09
 BYTE   Fs3
 BYTE   W08
 BYTE   N04  As3  v092
 BYTE   W09
 BYTE   N40  Cs4
 BYTE   W44
 BYTE   W02
// 011   ----------------------------------------
 BYTE   W01
 BYTE   N19  Ds3  v084
 BYTE   W24
 BYTE   N05  Ds3  v092
 BYTE   W08
 BYTE   N04  Gs3  v096
 BYTE   W07
 BYTE   Cn4
 BYTE   W09
 BYTE   W01
 BYTE   N44  Ds4
 BYTE   W01
 BYTE   W06
 BYTE   W06
 BYTE   W03
 BYTE   W03
 BYTE   W03
 BYTE   W03
 BYTE   W03
 BYTE   W03
 BYTE   W03
 BYTE   W03
 BYTE   W03
 BYTE   W03
 BYTE   W02
 BYTE   W01
// 012   ----------------------------------------
 BYTE   W01
 BYTE   N06  Cs5  v092
 BYTE   W06
 BYTE   N05  Bn4  v084
 BYTE   W03
 BYTE   W03
 BYTE   An4  v088
 BYTE   W01
 BYTE   W04
 BYTE   W01
 BYTE   N06  Gs4
 BYTE   W04
 BYTE   W02
 BYTE   N05  An4
 BYTE   W02
 BYTE   W04
 BYTE   Gs4  v080
 BYTE   W01
 BYTE   W04
 BYTE   W01
 BYTE   Fs4  v088
 BYTE   W03
 BYTE   W03
 BYTE   En4  v092
 BYTE   W02
 BYTE   W04
 BYTE   Fs4  v096
 BYTE   W04
 BYTE   W02
 BYTE   En4  v092
 BYTE   W03
 BYTE   W03
 BYTE   Ds4  v084
 BYTE   W01
 BYTE   W04
 BYTE   W01
 BYTE   N06  Cs4  v088
 BYTE   W04
 BYTE   W03
 BYTE   N05  Bn3
 BYTE   W01
 BYTE   W04
 BYTE   An3
 BYTE   W01
 BYTE   W04
 BYTE   W01
 BYTE   Gs3  v084
 BYTE   W03
 BYTE   W03
 BYTE   Fs3  v088
 BYTE   W02
 BYTE   W03
// 013   ----------------------------------------
 BYTE   W01
 BYTE   En3  v092
 BYTE   W06
 BYTE   Fs3  v088
 BYTE   W01
 BYTE   W03
 BYTE   W02
 BYTE   N06  Gs3  v080
 BYTE   W02
 BYTE   W03
 BYTE   W01
 BYTE   N05  An3  v088
 BYTE   W02
 BYTE   W04
 BYTE   W01
 BYTE   Bn3  v080
 BYTE   W02
 BYTE   W03
 BYTE   Cs4  v088
 BYTE   W01
 BYTE   W03
 BYTE   W02
 BYTE   Ds4  v084
 BYTE   W01
 BYTE   W04
 BYTE   W01
 BYTE   En4
 BYTE   W02
 BYTE   W03
 BYTE   W01
 BYTE   Fs4
 BYTE   W03
 BYTE   W03
 BYTE   En4  v096
 BYTE   W04
 BYTE   W02
 BYTE   N06  Fs4  v088
 BYTE   W01
 BYTE   W03
 BYTE   W02
 BYTE   N05  Gs4  v080
 BYTE   W02
 BYTE   W03
 BYTE   W01
 BYTE   Bn4
 BYTE   W06
 BYTE   An4
 BYTE   W04
 BYTE   W02
 BYTE   Gs4  v088
 BYTE   W03
 BYTE   W03
 BYTE   En4
 BYTE   W03
 BYTE   W02
// 014   ----------------------------------------
 BYTE   W01
 BYTE   An4
 BYTE   W02
 BYTE   W04
 BYTE   Gs4  v080
 BYTE   W01
 BYTE   W05
 BYTE   En4  v088
 BYTE   W01
 BYTE   W04
 BYTE   N06  Cs4  v080
 BYTE   W01
 BYTE   W05
 BYTE   W01
 BYTE   N05  Gs4  v088
 BYTE   W05
 BYTE   N06  Fs4
 BYTE   W05
 BYTE   W02
 BYTE   N05  En4  v092
 BYTE   W03
 BYTE   W03
 BYTE   N06  Ds4
 BYTE   W03
 BYTE   W03
 BYTE   En4
 BYTE   W02
 BYTE   W05
 BYTE   N05  Ds4  v084
 BYTE   W05
 BYTE   Cs4
 BYTE   W01
 BYTE   W05
 BYTE   Bn3  v088
 BYTE   W05
 BYTE   W01
 BYTE   Gs3  v084
 BYTE   W06
 BYTE   An3  v088
 BYTE   W01
 BYTE   W04
 BYTE   W01
 BYTE   Bn3
 BYTE   W03
 BYTE   W03
 BYTE   N06  Cs4  v084
 BYTE   W01
 BYTE   W04
// 015   ----------------------------------------
 BYTE   W01
 BYTE   An3  v088
 BYTE   W04
 BYTE   W03
 BYTE   N05  Bn3
 BYTE   W01
 BYTE   W04
 BYTE   Cs4
 BYTE   W04
 BYTE   W02
 BYTE   Ds4  v096
 BYTE   W02
 BYTE   W04
 BYTE   Bn3  v092
 BYTE   W04
 BYTE   W02
 BYTE   N06  Cs4  v084
 BYTE   W02
 BYTE   W04
 BYTE   N05  Ds4  v096
 BYTE   W04
 BYTE   W02
 BYTE   N03  En4
 BYTE   W02
 BYTE   W04
 BYTE   N05  Gn4  v076
 BYTE   W06
 BYTE   En4  v088
 BYTE   W04
 BYTE   W02
 BYTE   Ds4
 BYTE   W03
 BYTE   W03
 BYTE   Cs4
 BYTE   W03
 BYTE   W03
 BYTE   En4
 BYTE   W02
 BYTE   W04
 BYTE   Ds4
 BYTE   W01
 BYTE   W05
 BYTE   Cs4  v084
 BYTE   W05
 BYTE   W01
 BYTE   Cn4  v092
 BYTE   W04
 BYTE   W01
// 016   ----------------------------------------
 BYTE   W01
 BYTE   N06  Cs4  v088
 BYTE   W03
 BYTE   W03
 BYTE   N05  Cn4  v084
 BYTE   W02
 BYTE   W04
 BYTE   As3  v080
 BYTE   W01
 BYTE   W05
 BYTE   Gn3  v084
 BYTE   W01
 BYTE   W05
 BYTE   As3
 BYTE   W05
 BYTE   W01
 BYTE   Gn3  v076
 BYTE   W04
 BYTE   W02
 BYTE   En3  v088
 BYTE   W03
 BYTE   W03
 BYTE   Ds3
 BYTE   W02
 BYTE   W04
 BYTE   Cs3  v084
 BYTE   W01
 BYTE   W05
 BYTE   N06  Ds3
 BYTE   W04
 BYTE   W02
 BYTE   En3  v088
 BYTE   W01
 BYTE   W04
 BYTE   W01
 BYTE   N05  Gn3  v068
 BYTE   W02
 BYTE   W03
 BYTE   W01
 BYTE   En3  v088
 BYTE   W03
 BYTE   W03
 BYTE   Gn3  v084
 BYTE   W04
 BYTE   W02
 BYTE   As3  v088
 BYTE   W01
 BYTE   W03
 BYTE   W02
 BYTE   Cs4  v068
 BYTE   W02
 BYTE   W03
// 017   ----------------------------------------
 BYTE   W01
 BYTE   As3  v088
 BYTE   W03
 BYTE   W03
 BYTE   Cs4  v080
 BYTE   W03
 BYTE   W03
 BYTE   Ds4  v092
 BYTE   W01
 BYTE   W03
 BYTE   W02
 BYTE   N06  En4  v088
 BYTE   W02
 BYTE   W03
 BYTE   W01
 BYTE   N05  Fs4  v092
 BYTE   W02
 BYTE   W04
 BYTE   En4
 BYTE   W06
 BYTE   Ds4  v088
 BYTE   W02
 BYTE   W04
 BYTE   Cs4  v084
 BYTE   W01
 BYTE   W05
 BYTE   Ds4  v088
 BYTE   W01
 BYTE   W05
 BYTE   Cs4
 BYTE   W06
 BYTE   Bn3  v080
 BYTE   W05
 BYTE   W01
 BYTE   An3  v088
 BYTE   W05
 BYTE   W01
 BYTE   Cs4
 BYTE   W04
 BYTE   W02
 BYTE   Bn3
 BYTE   W04
 BYTE   W02
 BYTE   An3  v084
 BYTE   W04
 BYTE   W02
 BYTE   Gs3  v088
 BYTE   W03
 BYTE   W02
// 018   ----------------------------------------
 BYTE   W01
 BYTE   Fs3  v084
 BYTE   W03
 BYTE   W03
 BYTE   En3
 BYTE   W02
 BYTE   W04
 BYTE   Fs3
 BYTE   W02
 BYTE   W04
 BYTE   N04  Gs3  v088
 BYTE   W01
 BYTE   W05
 BYTE   N05  Ds3  v080
 BYTE   W01
 BYTE   W04
 BYTE   W01
 BYTE   N06  En3  v088
 BYTE   W04
 BYTE   W02
 BYTE   N05  Fs3
 BYTE   W02
 BYTE   W04
 BYTE   N06  Gs3  v080
 BYTE   W01
 BYTE   W04
 BYTE   W01
 BYTE   N05  En3  v084
 BYTE   W04
 BYTE   W02
 BYTE   Fs3  v088
 BYTE   W02
 BYTE   W04
 BYTE   Gs3
 BYTE   W01
 BYTE   W04
 BYTE   W01
 BYTE   An3
 BYTE   W04
 BYTE   W02
 BYTE   Fs3
 BYTE   W02
 BYTE   W04
 BYTE   Gs3  v084
 BYTE   W01
 BYTE   W04
 BYTE   W01
 BYTE   An3  v088
 BYTE   W04
 BYTE   W02
 BYTE   Ds4  v084
 BYTE   W02
 BYTE   W03
// 019   ----------------------------------------
 BYTE   W01
 BYTE   Fn4  v092
 BYTE   W01
 BYTE   W05
 BYTE   Fn3  v088
 BYTE   W06
 BYTE   Fs3  v092
 BYTE   W02
 BYTE   W04
 BYTE   Gs3
 BYTE   W02
 BYTE   W04
 BYTE   As3
 BYTE   W03
 BYTE   W03
 BYTE   Cn4  v088
 BYTE   W03
 BYTE   W03
 BYTE   Cs4  v092
 BYTE   W04
 BYTE   W02
 BYTE   Ds4  v088
 BYTE   W04
 BYTE   W01
 BYTE   Cn4
 BYTE   W05
 BYTE   W01
 BYTE   Cs4
 BYTE   W06
 BYTE   W01
 BYTE   Ds4
 BYTE   W05
 BYTE   W01
 BYTE   Fn4  v096
 BYTE   W05
 BYTE   Ds4  v092
 BYTE   W01
 BYTE   W06
 BYTE   Fn4  v088
 BYTE   W05
 BYTE   Fs4
 BYTE   W02
 BYTE   W04
 BYTE   N06  Gn4  v096
 BYTE   W02
 BYTE   W04
// 020   ----------------------------------------
 BYTE   N10  Gs4  v092
 BYTE   W03
 BYTE   W10
 BYTE   N06  Gs4  v100
 BYTE   W06
 BYTE   N05  As4  v088
 BYTE   W06
 BYTE   Gs4
 BYTE   W06
 BYTE   As4
 BYTE   W06
 BYTE   Gs4
 BYTE   W06
 BYTE   As4
 BYTE   W06
 BYTE   N32  Gs4
 BYTE   W44
 BYTE   W03
// 021   ----------------------------------------
 BYTE   W01
 BYTE   GoTo
  POIN2 Label_5_018A3846
// 022   ----------------------------------------
 BYTE   W28
 BYTE   FINE

//**************** Track 7 (Midi-Chn.6) ****************//

song10_007:
// 000   ----------------------------------------
 BYTE   KEYSH   song10_key+0
Label_6_018A3BF2:
 BYTE   VOICE   57
 BYTE   W01
 BYTE   MOD 0
 BYTE   CnM2
 BYTE   VOL   33*song10_mvl/mxv
 BYTE   PAN   c_v-35
 BYTE   N18  Fn2  v127
 BYTE   W23
 BYTE   N03
 BYTE   W04
 BYTE   N04  Fn2  v076
 BYTE   W05
 BYTE   N03  Gs2  v127
 BYTE   W04
 BYTE   Gs2  v076
 BYTE   W04
 BYTE   Cs3  v127
 BYTE   W04
 BYTE   Cs3  v076
 BYTE   W04
 BYTE   N42  Fn3  v120
 BYTE   W44
 BYTE   W03
// 001   ----------------------------------------
 BYTE   W01
 BYTE   N18  En3  v127
 BYTE   W23
 BYTE   N03  En3  v112
 BYTE   W04
 BYTE   En3  v068
 BYTE   W04
 BYTE   Fs3  v116
 BYTE   W04
 BYTE   Fs3  v072
 BYTE   W05
 BYTE   En3  v120
 BYTE   W04
 BYTE   En3  v072
 BYTE   W05
 BYTE   N20  Fs3  v120
 BYTE   W24
 BYTE   N21  En3  v124
 BYTE   W22
// 002   ----------------------------------------
 BYTE   W02
 BYTE   N03  Ds3
 BYTE   W04
 BYTE   Ds3  v072
 BYTE   W03
 BYTE   Cs3  v120
 BYTE   W04
 BYTE   Cs3  v072
 BYTE   W04
 BYTE   Bn2  v120
 BYTE   W04
 BYTE   N04  Bn2  v072
 BYTE   W05
 BYTE   N21  An2  v120
 BYTE   W24
 BYTE   N20  Gs2  v124
 BYTE   W23
 BYTE   N21  Fs2  v127
 BYTE   W23
// 003   ----------------------------------------
 BYTE   W02
 BYTE   N44  Gs2  v124
 BYTE   W48
 BYTE   N40  Ds2
 BYTE   W44
 BYTE   W02
// 004   ----------------------------------------
 BYTE   W01
 BYTE   N18  Fn2  v127
 BYTE   W23
 BYTE   N03
 BYTE   W04
 BYTE   N04  Fn2  v076
 BYTE   W05
 BYTE   N03  Gs2  v127
 BYTE   W04
 BYTE   Gs2  v076
 BYTE   W04
 BYTE   Cs3  v127
 BYTE   W04
 BYTE   Cs3  v076
 BYTE   W04
 BYTE   N42  Fn3  v127
 BYTE   W44
 BYTE   W03
// 005   ----------------------------------------
 BYTE   W01
 BYTE   N20  En3
 BYTE   W24
 BYTE   N03  En3  v116
 BYTE   W04
 BYTE   En3  v072
 BYTE   W04
 BYTE   Fs3  v120
 BYTE   W04
 BYTE   Fs3  v072
 BYTE   W04
 BYTE   Gs3  v120
 BYTE   W04
 BYTE   Gs3  v072
 BYTE   W05
 BYTE   N21  Fs3  v124
 BYTE   W24
 BYTE   N22  En3  v116
 BYTE   W22
// 006   ----------------------------------------
 BYTE   N03  Ds3  v124
 BYTE   W04
 BYTE   Ds3  v076
 BYTE   W04
 BYTE   Cs3  v124
 BYTE   W04
 BYTE   Cs3  v076
 BYTE   W04
 BYTE   Bn2  v124
 BYTE   W04
 BYTE   N04  Bn2  v076
 BYTE   W05
 BYTE   N21  An2  v124
 BYTE   W24
 BYTE   W01
 BYTE   N20  Gs2
 BYTE   W24
 BYTE   Fs2  v127
 BYTE   W20
 BYTE   W02
// 007   ----------------------------------------
 BYTE   W02
 BYTE   N92  Gs2  v120
 BYTE   W05
 BYTE   W09
 BYTE   W06
 BYTE   W03
 BYTE   W06
 BYTE   W06
 BYTE   W03
 BYTE   W03
 BYTE   W03
 BYTE   W03
 BYTE   W03
 BYTE   W03
 BYTE   W03
 BYTE   W03
 BYTE   W03
 BYTE   W03
 BYTE   W03
 BYTE   W03
 BYTE   W03
 BYTE   W03
 BYTE   W03
 BYTE   W03
 BYTE   W03
 BYTE   W03
 BYTE   W03
 BYTE   W02
// 008   ----------------------------------------
 BYTE   W01
 BYTE   MOD 0
 BYTE   CnM2
 BYTE   VOL   35*song10_mvl/mxv
 BYTE   PAN   c_v-34
 BYTE   N05  An2  v052
 BYTE   W24
 BYTE   N02  An2  v044
 BYTE   W32
 BYTE   W02
 BYTE   N18  An2  v048
 BYTE   W24
 BYTE   N06  An2  v052
 BYTE   W12
 BYTE   N06
 BYTE   W01
// 009   ----------------------------------------
 BYTE   W22
 BYTE   N05
 BYTE   W36
 BYTE   W01
 BYTE   N17  An2  v056
 BYTE   W23
 BYTE   N06  An2  v048
 BYTE   W14
// 010   ----------------------------------------
 BYTE   W01
 BYTE   N04  Gs2
 BYTE   W23
 BYTE   N05  Gs2  v060
 BYTE   W36
 BYTE   N18  Gs2  v052
 BYTE   W23
 BYTE   N06  Gs2  v056
 BYTE   W13
// 011   ----------------------------------------
 BYTE   N06
 BYTE   W23
 BYTE   N04  Gs2  v064
 BYTE   W36
 BYTE   W02
 BYTE   N18  Gs2  v072
 BYTE   W23
 BYTE   N04  Gs2  v084
 BYTE   W12
// 012   ----------------------------------------
 BYTE   W01
 BYTE   MOD 0
 BYTE   CnM2
 BYTE   VOL   35*song10_mvl/mxv
 BYTE   PAN   c_v+13
 BYTE   W01
 BYTE   N04  En2  v116
 BYTE   W06
 BYTE   En2  v080
 BYTE   W17
 BYTE   En2  v112
 BYTE   W06
 BYTE   En2  v076
 BYTE   W18
 BYTE   N22  En3  v104
 BYTE   W24
 BYTE   W01
 BYTE   N06  En2  v100
 BYTE   W12
 BYTE   N05  En3  v096
 BYTE   W06
 BYTE   En3  v064
 BYTE   W04
// 013   ----------------------------------------
 BYTE   W13
 BYTE   N04  En2  v108
 BYTE   W06
 BYTE   En2  v076
 BYTE   W18
 BYTE   N23  En3  v104
 BYTE   W24
 BYTE   W01
 BYTE   N06  En2  v100
 BYTE   W12
 BYTE   N05
 BYTE   W06
 BYTE   En2  v072
 BYTE   W16
// 014   ----------------------------------------
 BYTE   W02
 BYTE   N04  En3  v104
 BYTE   W06
 BYTE   En3  v068
 BYTE   W06
 BYTE   En3  v044
 BYTE   W11
 BYTE   N19  En3  v104
 BYTE   W24
 BYTE   W01
 BYTE   N05  En2  v092
 BYTE   W12
 BYTE   En3  v100
 BYTE   W06
 BYTE   En3  v068
 BYTE   W17
 BYTE   N04  En2  v108
 BYTE   W06
 BYTE   En2  v076
 BYTE   W05
// 015   ----------------------------------------
 BYTE   W13
 BYTE   N20  En3  v104
 BYTE   W24
 BYTE   N06  En2  v096
 BYTE   W13
 BYTE   N05  En2  v108
 BYTE   W06
 BYTE   En2  v072
 BYTE   W18
 BYTE   N04  En3  v104
 BYTE   W06
 BYTE   En3  v068
 BYTE   W06
 BYTE   En3  v044
 BYTE   W10
// 016   ----------------------------------------
 BYTE   W02
 BYTE   N18  En3  v104
 BYTE   W24
 BYTE   N05  En2  v100
 BYTE   W12
 BYTE   En3  v096
 BYTE   W06
 BYTE   En3  v064
 BYTE   W17
 BYTE   N04  En2  v108
 BYTE   W06
 BYTE   En2  v076
 BYTE   W18
 BYTE   N18  En3  v104
 BYTE   W11
// 017   ----------------------------------------
 BYTE   W13
 BYTE   N05  En2  v100
 BYTE   W12
 BYTE   En2  v112
 BYTE   W06
 BYTE   En2  v076
 BYTE   W18
 BYTE   En3  v104
 BYTE   W06
 BYTE   En3  v068
 BYTE   W06
 BYTE   En3  v044
 BYTE   W12
 BYTE   N18  En3  v108
 BYTE   W23
// 018   ----------------------------------------
 BYTE   W02
 BYTE   N06  En2  v116
 BYTE   W12
 BYTE   N05  Ds2  v100
 BYTE   W06
 BYTE   Ds2  v068
 BYTE   W17
 BYTE   Ds2  v108
 BYTE   W06
 BYTE   Ds2  v076
 BYTE   W18
 BYTE   N19  Ds3  v104
 BYTE   W24
 BYTE   N06  Ds3  v092
 BYTE   W11
// 019   ----------------------------------------
 BYTE   W01
 BYTE   N05  Cs3  v096
 BYTE   W06
 BYTE   Cs3  v064
 BYTE   W18
 BYTE   Cs3  v092
 BYTE   W06
 BYTE   Cs3  v064
 BYTE   W18
 BYTE   N19  Cs3  v092
 BYTE   W23
 BYTE   N06  Cs3  v088
 BYTE   W13
 BYTE   N05  Cs3  v092
 BYTE   W06
 BYTE   Cs3  v064
 BYTE   W05
// 020   ----------------------------------------
 BYTE   W01
 BYTE   Cs3  v040
 BYTE   W11
 BYTE   N36  Cs3  v096
 BYTE   W48
 BYTE   N20  Cs3  v088
 BYTE   W24
 BYTE   W01
 BYTE   N03
 BYTE   W06
 BYTE   Cs3  v060
 BYTE   W05
// 021   ----------------------------------------
 BYTE   W01
 BYTE   GoTo
  POIN2 Label_6_018A3BF2
// 022   ----------------------------------------
 BYTE   W28
 BYTE   FINE

//**************** Track 8 (Midi-Chn.7) ****************//

song10_008:
// 000   ----------------------------------------
 BYTE   KEYSH   song10_key+0
Label_7_55404F:
 BYTE   VOICE   62
 BYTE   PAN   c_v+30
 BYTE   W01
 BYTE   MOD 0
 BYTE   CnM2
 BYTE   VOL   35*song10_mvl/mxv
 BYTE   N05  Fn3  v124
 BYTE   W06
 BYTE   Fn3  v068
 BYTE   W06
 BYTE   Fn3  v048
 BYTE   W06
 BYTE   N06  Fn3  v032
 BYTE   W42
 BYTE   W01
 BYTE   N17  Fn3  v112
 BYTE   W18
 BYTE   N02  Fn3  v052
 BYTE   W06
 BYTE   N05  Fn3  v100
 BYTE   W06
 BYTE   Fn3  v060
 BYTE   W04
// 001   ----------------------------------------
 BYTE   W01
 BYTE   En3  v112
 BYTE   W06
 BYTE   En3  v068
 BYTE   W06
 BYTE   En3  v048
 BYTE   W06
 BYTE   En3  v032
 BYTE   W06
 BYTE   N04  En3  v108
 BYTE   W06
 BYTE   En3  v064
 BYTE   W06
 BYTE   En3  v044
 BYTE   W06
 BYTE   En3  v032
 BYTE   W30
 BYTE   W01
 BYTE   N17  En3  v100
 BYTE   W18
 BYTE   N05  En3  v048
 BYTE   W04
// 002   ----------------------------------------
 BYTE   W02
 BYTE   En3  v108
 BYTE   W06
 BYTE   En3  v064
 BYTE   W06
 BYTE   En3  v044
 BYTE   W06
 BYTE   En3  v032
 BYTE   W05
 BYTE   N04  En3  v108
 BYTE   W06
 BYTE   En3  v064
 BYTE   W06
 BYTE   En3  v044
 BYTE   W06
 BYTE   En3  v032
 BYTE   W18
 BYTE   Ds3  v108
 BYTE   W06
 BYTE   Ds3  v064
 BYTE   W06
 BYTE   Ds3  v044
 BYTE   W06
 BYTE   Ds3  v032
 BYTE   W05
 BYTE   N05  Ds3  v104
 BYTE   W06
 BYTE   Ds3  v060
 BYTE   W06
// 003   ----------------------------------------
 BYTE   N04  Ds3  v104
 BYTE   W06
 BYTE   Ds3  v064
 BYTE   W06
 BYTE   Ds3  v044
 BYTE   W06
 BYTE   Ds3  v032
 BYTE   W07
 BYTE   Ds3  v112
 BYTE   W06
 BYTE   Ds3  v068
 BYTE   W06
 BYTE   Ds3  v048
 BYTE   W06
 BYTE   Ds3  v032
 BYTE   W18
 BYTE   N17  Ds3  v112
 BYTE   W18
 BYTE   N03  Ds3  v052
 BYTE   W05
 BYTE   N05  Ds3  v104
 BYTE   W06
 BYTE   N06  Ds3  v060
 BYTE   W06
// 004   ----------------------------------------
 BYTE   W01
 BYTE   N05  Fn3  v108
 BYTE   W06
 BYTE   Fn3  v064
 BYTE   W06
 BYTE   Fn3  v044
 BYTE   W06
 BYTE   Fn3  v032
 BYTE   W06
 BYTE   N04  Fn3  v112
 BYTE   W06
 BYTE   Fn3  v068
 BYTE   W06
 BYTE   Fn3  v048
 BYTE   W06
 BYTE   Fn3  v032
 BYTE   W18
 BYTE   N17  Fn3  v108
 BYTE   W18
 BYTE   N02  Fn3  v052
 BYTE   W06
 BYTE   N04  Fn3  v096
 BYTE   W06
 BYTE   Fn3  v060
 BYTE   W05
// 005   ----------------------------------------
 BYTE   W01
 BYTE   N05  En3  v104
 BYTE   W06
 BYTE   En3  v060
 BYTE   W06
 BYTE   En3  v044
 BYTE   W06
 BYTE   En3  v028
 BYTE   W06
 BYTE   En3  v104
 BYTE   W06
 BYTE   En3  v060
 BYTE   W06
 BYTE   En3  v044
 BYTE   W06
 BYTE   En3  v028
 BYTE   W30
 BYTE   W01
 BYTE   N17  En3  v104
 BYTE   W18
 BYTE   N04  En3  v048
 BYTE   W04
// 006   ----------------------------------------
 BYTE   W01
 BYTE   N05  En3  v108
 BYTE   W06
 BYTE   En3  v064
 BYTE   W06
 BYTE   En3  v044
 BYTE   W06
 BYTE   N04  En3  v032
 BYTE   W05
 BYTE   N05  En3  v108
 BYTE   W06
 BYTE   En3  v064
 BYTE   W06
 BYTE   En3  v044
 BYTE   W06
 BYTE   En3  v032
 BYTE   W19
 BYTE   N04  Ds3  v108
 BYTE   W06
 BYTE   Ds3  v064
 BYTE   W06
 BYTE   Ds3  v044
 BYTE   W06
 BYTE   Ds3  v032
 BYTE   W06
 BYTE   N05  Ds3  v104
 BYTE   W06
 BYTE   Ds3  v060
 BYTE   W05
// 007   ----------------------------------------
 BYTE   W01
 BYTE   Ds3  v096
 BYTE   W06
 BYTE   Ds3  v056
 BYTE   W06
 BYTE   Ds3  v040
 BYTE   W06
 BYTE   Ds3  v028
 BYTE   W05
 BYTE   Ds3  v100
 BYTE   W06
 BYTE   Ds3  v060
 BYTE   W06
 BYTE   Ds3  v040
 BYTE   W06
 BYTE   Ds3  v028
 BYTE   W07
 BYTE   N28  Ds3  v100
 BYTE   W30
 BYTE   N04  Ds3  v052
 BYTE   W05
 BYTE   N05  Ds3  v112
 BYTE   W06
 BYTE   Ds3  v068
 BYTE   W06
// 008   ----------------------------------------
 BYTE   W96
// 009   ----------------------------------------
 BYTE   W96
// 010   ----------------------------------------
 BYTE   W96
// 011   ----------------------------------------
 BYTE   W96
// 012   ----------------------------------------
 BYTE   W96
// 013   ----------------------------------------
 BYTE   W96
// 014   ----------------------------------------
 BYTE   W96
// 015   ----------------------------------------
 BYTE   W96
// 016   ----------------------------------------
 BYTE   W96
// 017   ----------------------------------------
 BYTE   W96
// 018   ----------------------------------------
 BYTE   W96
// 019   ----------------------------------------
 BYTE   W96
// 020   ----------------------------------------
 BYTE   W96
// 021   ----------------------------------------
 BYTE   W01
 BYTE   GoTo
  POIN2 Label_7_55404F
// 022   ----------------------------------------
 BYTE   W28
 BYTE   FINE

//**************** Track 9 (Midi-Chn.8) ****************//

song10_009:
// 000   ----------------------------------------
 BYTE   KEYSH   song10_key+0
Label_8_018A3E2E:
 BYTE   VOICE   50
 BYTE   MOD 0
 BYTE   CnM2
 BYTE   VOL   35*song10_mvl/mxv
 BYTE   PAN   c_v-19
 BYTE   W01
 BYTE   N05  Gs2  v116
 BYTE   N05  Cs3
 BYTE   W12
 BYTE   Cs3  v044
 BYTE   W48
 BYTE   N17  Gs2  v108
 BYTE   N17  Cs3  v112
 BYTE   W24
 BYTE   N04  Gs2  v100
 BYTE   N06  Cs3
 BYTE   W11
// 001   ----------------------------------------
 BYTE   N04  Gs2  v096
 BYTE   W01
 BYTE   N05  Bn2  v112
 BYTE   W12
 BYTE   Bn2  v048
 BYTE   W12
 BYTE   Gs2  v096
 BYTE   N04  Bn2  v104
 BYTE   W12
 BYTE   Bn2  v044
 BYTE   W36
 BYTE   N17  Gs2  v096
 BYTE   N17  Bn2  v100
 BYTE   W23
// 002   ----------------------------------------
 BYTE   N04  Fs2
 BYTE   N04  An2  v096
 BYTE   W12
 BYTE   An2  v040
 BYTE   W12
 BYTE   Fs2  v104
 BYTE   N03  An2  v084
 BYTE   W12
 BYTE   An2  v036
 BYTE   W24
 BYTE   W01
 BYTE   Fs2  v100
 BYTE   N03  An2  v092
 BYTE   W12
 BYTE   An2  v040
 BYTE   W12
 BYTE   N04  Fs2  v108
 BYTE   N02  An2  v084
 BYTE   W11
// 003   ----------------------------------------
 BYTE   W01
 BYTE   N04  Fs2  v100
 BYTE   N04  Gs2
 BYTE   W12
 BYTE   Gs2  v044
 BYTE   W12
 BYTE   N02  Fs2  v100
 BYTE   N04  Gs2
 BYTE   W12
 BYTE   Gs2  v040
 BYTE   W24
 BYTE   N17  Fs2  v088
 BYTE   N17  Gs2  v104
 BYTE   W24
 BYTE   N05  Fs2  v088
 BYTE   N05  Gs2  v092
 BYTE   W11
// 004   ----------------------------------------
 BYTE   W02
 BYTE   N03  Gs2  v116
 BYTE   N04  Cs3  v124
 BYTE   W12
 BYTE   Cs3  v052
 BYTE   W11
 BYTE   N01  Gs2  v100
 BYTE   N04  Cs3  v108
 BYTE   W12
 BYTE   Cs3  v044
 BYTE   W24
 BYTE   N16  Cs3  v112
 BYTE   W01
 BYTE   Gs2  v108
 BYTE   W23
 BYTE   N04  Gs2  v100
 BYTE   N05  Cs3
 BYTE   W11
// 005   ----------------------------------------
 BYTE   N03  Gs2  v088
 BYTE   N04  Bn2  v108
 BYTE   W12
 BYTE   Bn2  v044
 BYTE   W13
 BYTE   N05  Gs2  v100
 BYTE   N05  Bn2  v104
 BYTE   W12
 BYTE   Bn2  v044
 BYTE   W36
 BYTE   N17  Gs2  v100
 BYTE   N17  Bn2
 BYTE   W22
 BYTE   N05  An2  v088
 BYTE   W01
// 006   ----------------------------------------
 BYTE   N04  Fs2  v100
 BYTE   W11
 BYTE   N05  An2  v036
 BYTE   W13
 BYTE   N04  Fs2  v100
 BYTE   N04  An2  v088
 BYTE   W12
 BYTE   An2  v036
 BYTE   W24
 BYTE   W01
 BYTE   N03  Fs2  v100
 BYTE   N04  An2  v096
 BYTE   W12
 BYTE   An2  v040
 BYTE   W12
 BYTE   Fs2  v100
 BYTE   N02  An2  v072
 BYTE   W11
// 007   ----------------------------------------
 BYTE   W01
 BYTE   N04  Fs2  v100
 BYTE   N05  Gs2  v096
 BYTE   W12
 BYTE   Gs2  v040
 BYTE   W12
 BYTE   N02  Fs2  v096
 BYTE   N04  Gs2
 BYTE   W12
 BYTE   Gs2  v040
 BYTE   W13
 BYTE   N28  Gs2  v100
 BYTE   W32
 BYTE   W03
 BYTE   N04
 BYTE   W11
// 008   ----------------------------------------
 BYTE   W01
 BYTE   MOD 0
 BYTE   CnM2
 BYTE   VOL   35*song10_mvl/mxv
 BYTE   PAN   c_v+26
 BYTE   N02  En2  v064
 BYTE   W23
 BYTE   N04  En2  v060
 BYTE   W32
 BYTE   W03
 BYTE   N19  En2  v064
 BYTE   W24
 BYTE   N05  En2  v068
 BYTE   W12
 BYTE   Ds2  v072
 BYTE   W01
// 009   ----------------------------------------
 BYTE   W22
 BYTE   N04  Ds2  v060
 BYTE   W36
 BYTE   W02
 BYTE   N17
 BYTE   W22
 BYTE   N06  Ds2  v048
 BYTE   W14
// 010   ----------------------------------------
 BYTE   N04  Ds2  v068
 BYTE   W24
 BYTE   Ds2  v064
 BYTE   W36
 BYTE   N18  Ds2  v060
 BYTE   W23
 BYTE   N06  Ds2  v052
 BYTE   W13
// 011   ----------------------------------------
 BYTE   N05  Ds2  v060
 BYTE   W24
 BYTE   N03
 BYTE   W36
 BYTE   W02
 BYTE   N18
 BYTE   W22
 BYTE   N04  Ds2  v072
 BYTE   W12
// 012   ----------------------------------------
 BYTE   W01
 BYTE   MOD 0
 BYTE   CnM2
 BYTE   VOL   35*song10_mvl/mxv
 BYTE   PAN   c_v-14
 BYTE   W01
 BYTE   N05  Ds3  v127
 BYTE   W06
 BYTE   Ds3  v084
 BYTE   W06
 BYTE   Ds3  v052
 BYTE   W06
 BYTE   Ds3  v036
 BYTE   W06
 BYTE   En3  v104
 BYTE   W06
 BYTE   En3  v068
 BYTE   W06
 BYTE   En3  v044
 BYTE   W06
 BYTE   En3  v032
 BYTE   W05
 BYTE   N23  Cs3  v120
 BYTE   W24
 BYTE   N11  En3  v104
 BYTE   W12
 BYTE   N05  Ds3  v112
 BYTE   W06
 BYTE   Ds3  v072
 BYTE   W05
// 013   ----------------------------------------
 BYTE   W01
 BYTE   Ds3  v044
 BYTE   W06
 BYTE   N06  Ds3  v032
 BYTE   W07
 BYTE   N05  En3  v112
 BYTE   W06
 BYTE   En3  v072
 BYTE   W06
 BYTE   En3  v048
 BYTE   W06
 BYTE   En3  v036
 BYTE   W06
 BYTE   N23  Cs3  v112
 BYTE   W23
 BYTE   N11  En3  v100
 BYTE   W12
 BYTE   N05  Ds3  v112
 BYTE   W06
 BYTE   Ds3  v072
 BYTE   W06
 BYTE   Ds3  v044
 BYTE   W06
 BYTE   Ds3  v032
 BYTE   W05
// 014   ----------------------------------------
 BYTE   W01
 BYTE   En3  v112
 BYTE   W06
 BYTE   En3  v072
 BYTE   W06
 BYTE   En3  v044
 BYTE   W06
 BYTE   En3  v032
 BYTE   W06
 BYTE   N23  Cs3  v112
 BYTE   W24
 BYTE   N11  En3  v104
 BYTE   W12
 BYTE   N05  Ds3  v108
 BYTE   W06
 BYTE   Ds3  v072
 BYTE   W06
 BYTE   Ds3  v044
 BYTE   W06
 BYTE   N06  Ds3  v032
 BYTE   W07
 BYTE   N05  En3  v108
 BYTE   W06
 BYTE   En3  v072
 BYTE   W04
// 015   ----------------------------------------
 BYTE   W02
 BYTE   En3  v044
 BYTE   W06
 BYTE   En3  v032
 BYTE   W06
 BYTE   N23  Cs3  v112
 BYTE   W24
 BYTE   N11  En3  v108
 BYTE   W11
 BYTE   N05  Ds3  v112
 BYTE   W06
 BYTE   Ds3  v072
 BYTE   W06
 BYTE   Ds3  v044
 BYTE   W06
 BYTE   Ds3  v032
 BYTE   W07
 BYTE   En3  v108
 BYTE   W06
 BYTE   En3  v068
 BYTE   W06
 BYTE   En3  v044
 BYTE   W06
 BYTE   En3  v032
 BYTE   W04
// 016   ----------------------------------------
 BYTE   W01
 BYTE   N23  Cs3  v112
 BYTE   W24
 BYTE   N11  En3  v100
 BYTE   W12
 BYTE   N05  Ds3  v108
 BYTE   W06
 BYTE   Ds3  v072
 BYTE   W06
 BYTE   Ds3  v044
 BYTE   W06
 BYTE   Ds3  v032
 BYTE   W06
 BYTE   En3  v112
 BYTE   W06
 BYTE   En3  v072
 BYTE   W06
 BYTE   En3  v048
 BYTE   W06
 BYTE   En3  v036
 BYTE   W06
 BYTE   N23  Cs3  v112
 BYTE   W11
// 017   ----------------------------------------
 BYTE   W13
 BYTE   N11  En3  v100
 BYTE   W12
 BYTE   N05  Ds3  v112
 BYTE   W06
 BYTE   Ds3  v072
 BYTE   W06
 BYTE   Ds3  v048
 BYTE   W06
 BYTE   N06  Ds3  v036
 BYTE   W06
 BYTE   N05  En3  v108
 BYTE   W06
 BYTE   En3  v068
 BYTE   W06
 BYTE   En3  v044
 BYTE   W06
 BYTE   En3  v032
 BYTE   W06
 BYTE   N23  Cs3  v112
 BYTE   W23
// 018   ----------------------------------------
 BYTE   W01
 BYTE   N12  En3  v100
 BYTE   W12
 BYTE   N05  Ds3  v108
 BYTE   W06
 BYTE   Ds3  v072
 BYTE   W06
 BYTE   Ds3  v044
 BYTE   W06
 BYTE   N06  Ds3  v032
 BYTE   W06
 BYTE   N05  En3  v104
 BYTE   W06
 BYTE   En3  v068
 BYTE   W06
 BYTE   En3  v044
 BYTE   W06
 BYTE   En3  v032
 BYTE   W06
 BYTE   N21  Cs3  v112
 BYTE   W24
 BYTE   N10  Ds3
 BYTE   W11
// 019   ----------------------------------------
 BYTE   N92  Fn3  v108
 BYTE   W96
// 020   ----------------------------------------
 BYTE   W13
 BYTE   N32  Cs3  v072
 BYTE   W48
 BYTE   N21  Cs3  v088
 BYTE   W24
 BYTE   N04
 BYTE   W06
 BYTE   Cs3  v056
 BYTE   W05
// 021   ----------------------------------------
 BYTE   W01
 BYTE   GoTo
  POIN2 Label_8_018A3E2E
// 022   ----------------------------------------
 BYTE   W28
 BYTE   FINE

//**************** Track 10 (Midi-Chn.9) ****************//

song10_010:
// 000   ----------------------------------------
 BYTE   KEYSH   song10_key+0
Label_9_018A40BA:
 BYTE   VOICE   51
 BYTE   W01
 BYTE   MOD 0
 BYTE   CnM2
 BYTE   VOL   35*song10_mvl/mxv
 BYTE   PAN   c_v-34
 BYTE   N05  Fn3  v124
 BYTE   W12
 BYTE   Fn3  v048
 BYTE   W48
 BYTE   W01
 BYTE   N17  Fn3  v120
 BYTE   W23
 BYTE   N05  Fn3  v100
 BYTE   W11
// 001   ----------------------------------------
 BYTE   W01
 BYTE   N04  En3  v116
 BYTE   W12
 BYTE   En3  v052
 BYTE   W12
 BYTE   N03  En3  v116
 BYTE   W12
 BYTE   En3  v052
 BYTE   W36
 BYTE   N17  En3  v104
 BYTE   W23
// 002   ----------------------------------------
 BYTE   W01
 BYTE   N04  En3  v108
 BYTE   W12
 BYTE   En3  v048
 BYTE   W12
 BYTE   En3  v104
 BYTE   W12
 BYTE   En3  v044
 BYTE   W24
 BYTE   Ds3  v104
 BYTE   W12
 BYTE   Ds3  v048
 BYTE   W12
 BYTE   Ds3  v100
 BYTE   W11
// 003   ----------------------------------------
 BYTE   W01
 BYTE   N03
 BYTE   W12
 BYTE   Ds3  v044
 BYTE   W12
 BYTE   N04  Ds3  v100
 BYTE   W12
 BYTE   Ds3  v044
 BYTE   W24
 BYTE   N17  Ds3  v108
 BYTE   W24
 BYTE   N05
 BYTE   W11
// 004   ----------------------------------------
 BYTE   W01
 BYTE   N04  Fn3  v124
 BYTE   W12
 BYTE   Fn3  v056
 BYTE   W13
 BYTE   Fn3  v127
 BYTE   W12
 BYTE   Fn3  v056
 BYTE   W24
 BYTE   N17  Fn3  v120
 BYTE   W23
 BYTE   N05  Fn3  v100
 BYTE   W11
// 005   ----------------------------------------
 BYTE   W01
 BYTE   N04  En3  v108
 BYTE   W12
 BYTE   En3  v048
 BYTE   W12
 BYTE   En3  v108
 BYTE   W12
 BYTE   En3  v048
 BYTE   W36
 BYTE   N17  En3  v100
 BYTE   W23
// 006   ----------------------------------------
 BYTE   W01
 BYTE   N04
 BYTE   W12
 BYTE   En3  v044
 BYTE   W12
 BYTE   En3  v096
 BYTE   W12
 BYTE   En3  v040
 BYTE   W24
 BYTE   Ds3  v100
 BYTE   W12
 BYTE   Ds3  v040
 BYTE   W12
 BYTE   Ds3  v092
 BYTE   W11
// 007   ----------------------------------------
 BYTE   W01
 BYTE   Ds3  v096
 BYTE   W12
 BYTE   Ds3  v040
 BYTE   W12
 BYTE   Ds3  v100
 BYTE   W12
 BYTE   Ds3  v040
 BYTE   W12
 BYTE   N28  Ds3  v100
 BYTE   W36
 BYTE   N04  Ds3  v092
 BYTE   W06
 BYTE   Ds3  v056
 BYTE   W05
// 008   ----------------------------------------
 BYTE   W01
 BYTE   W01
 BYTE   N03  Cs3  v112
 BYTE   N05  En3
 BYTE   W06
 BYTE   N03  Cs3  v068
 BYTE   N05  En3
 BYTE   W06
 BYTE   En3  v048
 BYTE   W11
 BYTE   N04  Cs3  v104
 BYTE   N04  En3
 BYTE   W06
 BYTE   Cs3  v064
 BYTE   N04  En3
 BYTE   W06
 BYTE   En3  v044
 BYTE   W23
 BYTE   N17  Cs3  v108
 BYTE   N17  En3  v100
 BYTE   W18
 BYTE   N04  En3  v048
 BYTE   W06
 BYTE   N05  Cs3  v092
 BYTE   N05  En3
 BYTE   W06
 BYTE   En3  v056
 BYTE   W06
// 009   ----------------------------------------
 BYTE   Cs3  v104
 BYTE   N05  Ds3
 BYTE   W06
 BYTE   Cs3  v064
 BYTE   N05  Ds3
 BYTE   W06
 BYTE   N06  Ds3  v044
 BYTE   W11
 BYTE   N04  Cs3  v100
 BYTE   N05  Ds3  v104
 BYTE   W06
 BYTE   N04  Cs3  v060
 BYTE   N05  Ds3  v064
 BYTE   W06
 BYTE   Ds3  v044
 BYTE   W24
 BYTE   W01
 BYTE   N17  Cs3  v104
 BYTE   N17  Ds3  v096
 BYTE   W18
 BYTE   N04  Ds3  v044
 BYTE   W07
 BYTE   Cs3  v092
 BYTE   N05  Ds3  v080
 BYTE   W06
 BYTE   Ds3  v048
 BYTE   W05
// 010   ----------------------------------------
 BYTE   W01
 BYTE   N04  Cs3  v096
 BYTE   W01
 BYTE   N05  Ds3  v100
 BYTE   W05
 BYTE   N04  Cs3  v060
 BYTE   W01
 BYTE   N05  Ds3
 BYTE   W06
 BYTE   Ds3  v044
 BYTE   W10
 BYTE   N04  Cs3  v104
 BYTE   N05  Ds3  v100
 BYTE   W06
 BYTE   N04  Cs3  v064
 BYTE   N05  Ds3  v060
 BYTE   W06
 BYTE   Ds3  v040
 BYTE   W24
 BYTE   W01
 BYTE   N17  Cs3  v104
 BYTE   N17  Ds3  v100
 BYTE   W18
 BYTE   N03  Ds3  v048
 BYTE   W06
 BYTE   N04  Cs3  v096
 BYTE   W01
 BYTE   N05  Ds3  v088
 BYTE   W06
 BYTE   Ds3  v052
 BYTE   W04
// 011   ----------------------------------------
 BYTE   W01
 BYTE   Cn3  v096
 BYTE   N05  Ds3  v100
 BYTE   W06
 BYTE   Cn3  v060
 BYTE   N05  Ds3
 BYTE   W06
 BYTE   Ds3  v040
 BYTE   W12
 BYTE   N04  Cn3  v088
 BYTE   N04  Ds3  v104
 BYTE   W06
 BYTE   Cn3  v052
 BYTE   N04  Ds3  v064
 BYTE   W06
 BYTE   Ds3  v044
 BYTE   W24
 BYTE   N17  Cn3  v104
 BYTE   N17  Ds3  v112
 BYTE   W18
 BYTE   N04  Ds3  v056
 BYTE   W04
 BYTE   N05  Ds3  v108
 BYTE   W01
 BYTE   Cn3  v096
 BYTE   W05
 BYTE   Ds3  v064
 BYTE   W07
// 012   ----------------------------------------
 BYTE   W01
 BYTE   MOD 0
 BYTE   CnM2
 BYTE   VOL   35*song10_mvl/mxv
 BYTE   PAN   c_v-33
 BYTE   N05  Bn2  v112
 BYTE   W12
 BYTE   N06  Bn2  v044
 BYTE   W12
 BYTE   N05  Cs3  v092
 BYTE   W12
 BYTE   N06  Cs3  v040
 BYTE   W12
 BYTE   N23  An2  v092
 BYTE   W24
 BYTE   N11  Cs3
 BYTE   W12
 BYTE   N05  Bn2  v104
 BYTE   W11
// 013   ----------------------------------------
 BYTE   W01
 BYTE   N06  Bn2  v044
 BYTE   W12
 BYTE   N05  Cs3  v096
 BYTE   W12
 BYTE   N06  Cs3  v040
 BYTE   W12
 BYTE   N24  An2  v088
 BYTE   W24
 BYTE   N11  Cs3  v092
 BYTE   W12
 BYTE   N05  Bn2  v100
 BYTE   W12
 BYTE   N06  Bn2  v044
 BYTE   W11
// 014   ----------------------------------------
 BYTE   W01
 BYTE   N05  Cs3  v092
 BYTE   W12
 BYTE   N06  Cs3  v036
 BYTE   W12
 BYTE   N24  Gs2  v092
 BYTE   W24
 BYTE   W01
 BYTE   N11  Cs3
 BYTE   W12
 BYTE   N05  Bn2  v100
 BYTE   W12
 BYTE   N06  Bn2  v040
 BYTE   W11
 BYTE   N05  Cs3  v092
 BYTE   W11
// 015   ----------------------------------------
 BYTE   W01
 BYTE   N06  Cs3  v036
 BYTE   W13
 BYTE   N23  Gs2  v096
 BYTE   W24
 BYTE   N11  Cs3  v092
 BYTE   W11
 BYTE   N05  As2  v104
 BYTE   W12
 BYTE   N06  As2  v044
 BYTE   W13
 BYTE   N05  Cs3  v092
 BYTE   W12
 BYTE   N06  Cs3  v040
 BYTE   W10
// 016   ----------------------------------------
 BYTE   W02
 BYTE   N23  Gn2  v088
 BYTE   W24
 BYTE   N11  Cs3  v092
 BYTE   W12
 BYTE   N05  As2  v096
 BYTE   W12
 BYTE   N06  As2  v040
 BYTE   W12
 BYTE   N05  Cs3  v092
 BYTE   W12
 BYTE   N06  Cs3  v040
 BYTE   W11
 BYTE   N24  Gn2  v092
 BYTE   W11
// 017   ----------------------------------------
 BYTE   W13
 BYTE   N11  Cs3
 BYTE   W12
 BYTE   N05  Bn2  v100
 BYTE   W12
 BYTE   N06  Bn2  v044
 BYTE   W12
 BYTE   N05  Cs3  v092
 BYTE   W12
 BYTE   N06  Cs3  v040
 BYTE   W12
 BYTE   N24  An2  v092
 BYTE   W23
// 018   ----------------------------------------
 BYTE   W02
 BYTE   N12  Cs3  v088
 BYTE   W12
 BYTE   N05  Fs2
 BYTE   W12
 BYTE   N06  Fs2  v036
 BYTE   W11
 BYTE   N05  Fs2  v100
 BYTE   W12
 BYTE   N06  Fs2  v040
 BYTE   W12
 BYTE   N20  An2  v092
 BYTE   W24
 BYTE   N09
 BYTE   W10
 BYTE   N05  Gs2
 BYTE   W01
// 019   ----------------------------------------
 BYTE   W11
 BYTE   Gs2  v040
 BYTE   W13
 BYTE   Gs2  v092
 BYTE   W12
 BYTE   N06  Gs2  v036
 BYTE   W11
 BYTE   N19  Gs2  v092
 BYTE   W24
 BYTE   N07  Gs2  v088
 BYTE   W13
 BYTE   N05
 BYTE   W12
// 020   ----------------------------------------
 BYTE   Gs2  v036
 BYTE   W11
 BYTE   N32  Gs2  v088
 BYTE   W48
 BYTE   W02
 BYTE   N21  Gs2  v092
 BYTE   W24
 BYTE   N05
 BYTE   W11
// 021   ----------------------------------------
 BYTE   W01
 BYTE   GoTo
  POIN2 Label_9_018A40BA
// 022   ----------------------------------------
 BYTE   W28
 BYTE   FINE

//**************** Track 11 (Midi-Chn.10) ****************//

song10_011:
// 000   ----------------------------------------
 BYTE   KEYSH   song10_key+0
Label_10_018A4346:
 BYTE   VOICE   45
 BYTE   W01
 BYTE   MOD 0
 BYTE   CnM2
 BYTE   VOL   35*song10_mvl/mxv
 BYTE   PAN   c_v+10
 BYTE   N05  Cs2  v120
 BYTE   W06
 BYTE   Cs2  v068
 BYTE   W54
 BYTE   N16  Cs2  v124
 BYTE   W24
 BYTE   N04
 BYTE   W06
 BYTE   Cs2  v072
 BYTE   W05
// 001   ----------------------------------------
 BYTE   W01
 BYTE   N03  Cs2  v124
 BYTE   W06
 BYTE   Cs2  v072
 BYTE   W18
 BYTE   Cs2  v120
 BYTE   W06
 BYTE   Cs2  v072
 BYTE   W42
 BYTE   N17  Cs2  v116
 BYTE   W23
// 002   ----------------------------------------
 BYTE   W01
 BYTE   N04  Cs2  v120
 BYTE   W06
 BYTE   Cs2  v072
 BYTE   W17
 BYTE   Cs2  v112
 BYTE   W06
 BYTE   Cs2  v068
 BYTE   W30
 BYTE   W01
 BYTE   N03  Cs2  v112
 BYTE   W06
 BYTE   Cs2  v068
 BYTE   W17
 BYTE   N02  Cs2  v100
 BYTE   W12
// 003   ----------------------------------------
 BYTE   W01
 BYTE   N03  Cn2  v108
 BYTE   W06
 BYTE   Cn2  v064
 BYTE   W18
 BYTE   Cn2  v112
 BYTE   W06
 BYTE   Cn2  v068
 BYTE   W30
 BYTE   N17  Cn2  v120
 BYTE   W24
 BYTE   N04  Cn2  v112
 BYTE   W06
 BYTE   Cn2  v068
 BYTE   W05
// 004   ----------------------------------------
 BYTE   W01
 BYTE   N03  Cs2  v108
 BYTE   W06
 BYTE   Cs2  v064
 BYTE   W18
 BYTE   N04  Cs2  v120
 BYTE   W06
 BYTE   Cs2  v072
 BYTE   W30
 BYTE   N15  Cs2  v127
 BYTE   W24
 BYTE   N04  Cs2  v120
 BYTE   W06
 BYTE   Cs2  v072
 BYTE   W05
// 005   ----------------------------------------
 BYTE   W01
 BYTE   Cs2  v124
 BYTE   W06
 BYTE   Cs2  v076
 BYTE   W18
 BYTE   Cs2  v124
 BYTE   W06
 BYTE   Cs2  v072
 BYTE   W42
 BYTE   N17  Cs2  v116
 BYTE   W23
// 006   ----------------------------------------
 BYTE   W01
 BYTE   N03  Cs2  v112
 BYTE   W06
 BYTE   Cs2  v068
 BYTE   W18
 BYTE   N04  Cs2  v112
 BYTE   W06
 BYTE   Cs2  v068
 BYTE   W28
 BYTE   W01
 BYTE   N03  Cs2  v108
 BYTE   W06
 BYTE   Cs2  v064
 BYTE   W18
 BYTE   Cs2  v104
 BYTE   W12
// 007   ----------------------------------------
 BYTE   W01
 BYTE   N04  Bn1  v112
 BYTE   W06
 BYTE   Bn1  v068
 BYTE   W18
 BYTE   N03  Bn1  v108
 BYTE   W06
 BYTE   Bn1  v064
 BYTE   W18
 BYTE   N28  Fs2  v112
 BYTE   W32
 BYTE   W03
 BYTE   N05  Fs2  v108
 BYTE   W06
 BYTE   Fs2  v064
 BYTE   W06
// 008   ----------------------------------------
 BYTE   N04  An1  v096
 BYTE   W12
 BYTE   An1  v040
 BYTE   W11
 BYTE   An1  v088
 BYTE   W12
 BYTE   An1  v036
 BYTE   W24
 BYTE   W02
 BYTE   N17  An1  v084
 BYTE   W22
 BYTE   N05  An1  v072
 BYTE   W13
// 009   ----------------------------------------
 BYTE   N04  Fs1  v084
 BYTE   W12
 BYTE   Fs1  v036
 BYTE   W11
 BYTE   Fs1  v084
 BYTE   W12
 BYTE   Fs1  v036
 BYTE   W24
 BYTE   W01
 BYTE   N17  Fs1  v084
 BYTE   W23
 BYTE   N05  Fs1  v076
 BYTE   W12
 BYTE   Gs1  v084
 BYTE   W01
// 010   ----------------------------------------
 BYTE   W11
 BYTE   Gs1  v036
 BYTE   W13
 BYTE   N04  Gs1  v080
 BYTE   W12
 BYTE   Gs1  v032
 BYTE   W24
 BYTE   W01
 BYTE   N17  Gs1  v092
 BYTE   W23
 BYTE   N05  Gs1  v068
 BYTE   W12
// 011   ----------------------------------------
 BYTE   Gs1  v088
 BYTE   W12
 BYTE   N06  Gs1  v036
 BYTE   W10
 BYTE   N05  Gs1  v084
 BYTE   W12
 BYTE   Gs1  v036
 BYTE   W24
 BYTE   W03
 BYTE   N17  Gs1  v100
 BYTE   W23
 BYTE   N05  Gs1  v088
 BYTE   W12
// 012   ----------------------------------------
 BYTE   W96
// 013   ----------------------------------------
 BYTE   W96
// 014   ----------------------------------------
 BYTE   W96
// 015   ----------------------------------------
 BYTE   W96
// 016   ----------------------------------------
 BYTE   W96
// 017   ----------------------------------------
 BYTE   W96
// 018   ----------------------------------------
 BYTE   W96
// 019   ----------------------------------------
 BYTE   W96
// 020   ----------------------------------------
 BYTE   W96
// 021   ----------------------------------------
 BYTE   W01
 BYTE   GoTo
  POIN2 Label_10_018A4346
// 022   ----------------------------------------
 BYTE   W28
 BYTE   FINE

//**************** Track 12 (Midi-Chn.11) ****************//

song10_012:
// 000   ----------------------------------------
 BYTE   KEYSH   song10_key+0
Label_11_018A4482:
 BYTE   VOICE   48
 BYTE   PAN   c_v-13
 BYTE   W01
 BYTE   MOD 0
 BYTE   CnM2
 BYTE   VOL   35*song10_mvl/mxv
 BYTE   N05  Cs1  v127
 BYTE   W06
 BYTE   Cs1  v084
 BYTE   W06
 BYTE   Cs1  v052
 BYTE   W06
 BYTE   N08  Cs1  v032
 BYTE   W42
 BYTE   N18  Cs1  v127
 BYTE   W18
 BYTE   N05  Cs1  v052
 BYTE   W06
 BYTE   Cs1  v120
 BYTE   W06
 BYTE   Cs1  v080
 BYTE   W05
// 001   ----------------------------------------
 BYTE   W01
 BYTE   Cs1  v120
 BYTE   W06
 BYTE   Cs1  v076
 BYTE   W06
 BYTE   Cs1  v048
 BYTE   W06
 BYTE   Cs1  v032
 BYTE   W06
 BYTE   N04  Cs1  v112
 BYTE   W06
 BYTE   Cs1  v064
 BYTE   W06
 BYTE   Cs1  v040
 BYTE   W06
 BYTE   Cs1  v028
 BYTE   W28
 BYTE   W01
 BYTE   N24  Cs1  v124
 BYTE   W24
// 002   ----------------------------------------
 BYTE   N05  Fs0  v116
 BYTE   W06
 BYTE   Fs0  v076
 BYTE   W06
 BYTE   Fs0  v048
 BYTE   W06
 BYTE   Fs0  v032
 BYTE   W07
 BYTE   Fs0  v108
 BYTE   W06
 BYTE   Fs0  v072
 BYTE   W06
 BYTE   Fs0  v044
 BYTE   W06
 BYTE   N06  Fs0  v028
 BYTE   W17
 BYTE   N05  Fs0  v112
 BYTE   W06
 BYTE   N06  Fs0  v072
 BYTE   W06
 BYTE   N03  Fs0  v104
 BYTE   W04
 BYTE   N04  Fs0  v068
 BYTE   W04
 BYTE   N03  Ds1  v104
 BYTE   W04
 BYTE   N04  Ds1  v068
 BYTE   W04
 BYTE   N03  Cs1  v108
 BYTE   W04
 BYTE   N04  Cs1  v068
 BYTE   W04
// 003   ----------------------------------------
 BYTE   N05  Cn1  v116
 BYTE   W06
 BYTE   Cn1  v076
 BYTE   W06
 BYTE   Cn1  v048
 BYTE   W06
 BYTE   N06  Cn1  v032
 BYTE   W07
 BYTE   N05  Cn1  v116
 BYTE   W06
 BYTE   Cn1  v076
 BYTE   W06
 BYTE   Cn1  v048
 BYTE   W06
 BYTE   Cn1  v032
 BYTE   W17
 BYTE   Cn1  v116
 BYTE   W06
 BYTE   Cn1  v076
 BYTE   W06
 BYTE   N04  Cn1  v108
 BYTE   W06
 BYTE   Cn1  v072
 BYTE   W06
 BYTE   N05  Cn1  v100
 BYTE   W06
 BYTE   Cn1  v064
 BYTE   W06
// 004   ----------------------------------------
 BYTE   Cs1  v120
 BYTE   W06
 BYTE   Cs1  v076
 BYTE   W06
 BYTE   Cs1  v048
 BYTE   W06
 BYTE   Cs1  v032
 BYTE   W06
 BYTE   Cs1  v112
 BYTE   W06
 BYTE   Cs1  v072
 BYTE   W06
 BYTE   Cs1  v044
 BYTE   W06
 BYTE   Cs1  v028
 BYTE   W19
 BYTE   N15  Cs1  v127
 BYTE   W18
 BYTE   N03  Cs1  v052
 BYTE   W05
 BYTE   N05  Cs1  v108
 BYTE   W06
 BYTE   Cs1  v072
 BYTE   W06
// 005   ----------------------------------------
 BYTE   Cs1  v120
 BYTE   W06
 BYTE   Cs1  v076
 BYTE   W06
 BYTE   Cs1  v048
 BYTE   W06
 BYTE   N06  Cs1  v032
 BYTE   W07
 BYTE   N05  Cs1  v104
 BYTE   W06
 BYTE   Cs1  v068
 BYTE   W06
 BYTE   Cs1  v044
 BYTE   W06
 BYTE   Cs1  v028
 BYTE   W28
 BYTE   W01
 BYTE   N24  Cs1  v112
 BYTE   W24
// 006   ----------------------------------------
 BYTE   N05  Fs0  v116
 BYTE   W06
 BYTE   Fs0  v076
 BYTE   W06
 BYTE   Fs0  v048
 BYTE   W06
 BYTE   Fs0  v032
 BYTE   W06
 BYTE   Fs0  v112
 BYTE   W06
 BYTE   Fs0  v072
 BYTE   W06
 BYTE   Fs0  v048
 BYTE   W06
 BYTE   N06  Fs0  v032
 BYTE   W18
 BYTE   N05  Fs0  v108
 BYTE   W06
 BYTE   Fs0  v072
 BYTE   W06
 BYTE   Gs0  v100
 BYTE   W06
 BYTE   Gs0  v064
 BYTE   W06
 BYTE   An0  v100
 BYTE   W06
 BYTE   An0  v064
 BYTE   W06
// 007   ----------------------------------------
 BYTE   Bn0  v108
 BYTE   W06
 BYTE   Bn0  v072
 BYTE   W06
 BYTE   Bn0  v044
 BYTE   W06
 BYTE   N06  Bn0  v028
 BYTE   W07
 BYTE   N05  Bn0  v108
 BYTE   W06
 BYTE   Bn0  v072
 BYTE   W06
 BYTE   Bn0  v044
 BYTE   W06
 BYTE   Bn0  v028
 BYTE   W06
 BYTE   N44  Bn0  v116
 BYTE   W44
 BYTE   W03
// 008   ----------------------------------------
 BYTE   W01
 BYTE   N04  An0  v124
 BYTE   W06
 BYTE   An0  v076
 BYTE   W06
 BYTE   An0  v044
 BYTE   W12
 BYTE   An0  v120
 BYTE   W06
 BYTE   An0  v072
 BYTE   W06
 BYTE   An0  v044
 BYTE   W24
 BYTE   N17  An0  v124
 BYTE   W18
 BYTE   N05  An0  v044
 BYTE   W06
 BYTE   An0  v104
 BYTE   W06
 BYTE   An0  v064
 BYTE   W05
// 009   ----------------------------------------
 BYTE   N04  Fs0  v116
 BYTE   W06
 BYTE   Fs0  v068
 BYTE   W06
 BYTE   Fs0  v040
 BYTE   W12
 BYTE   Fs0  v116
 BYTE   W06
 BYTE   Fs0  v068
 BYTE   W06
 BYTE   Fs0  v040
 BYTE   W24
 BYTE   W01
 BYTE   N17  Fs0  v112
 BYTE   W18
 BYTE   N06  Fs0  v040
 BYTE   W07
 BYTE   N05  Fs0  v092
 BYTE   W06
 BYTE   Fs0  v056
 BYTE   W04
// 010   ----------------------------------------
 BYTE   W02
 BYTE   Gs0  v116
 BYTE   W06
 BYTE   Gs0  v072
 BYTE   W06
 BYTE   Gs0  v040
 BYTE   W12
 BYTE   Gs0  v112
 BYTE   W06
 BYTE   Gs0  v068
 BYTE   W06
 BYTE   Gs0  v040
 BYTE   W24
 BYTE   N17  Gs0  v112
 BYTE   W17
 BYTE   N06  Gs0  v040
 BYTE   W07
 BYTE   N04  Gs0  v104
 BYTE   W06
 BYTE   Gs0  v064
 BYTE   W04
// 011   ----------------------------------------
 BYTE   W02
 BYTE   Gs0  v116
 BYTE   W06
 BYTE   Gs0  v068
 BYTE   W06
 BYTE   Gs0  v040
 BYTE   W11
 BYTE   N05  Gs0  v116
 BYTE   W06
 BYTE   Gs0  v068
 BYTE   W06
 BYTE   Gs0  v040
 BYTE   W24
 BYTE   N22  Gs0  v124
 BYTE   W23
 BYTE   N05  Gs0  v116
 BYTE   W06
 BYTE   N07  Gs0  v072
 BYTE   W06
// 012   ----------------------------------------
 BYTE   W01
 BYTE   W01
 BYTE   N06  An1  v127
 BYTE   W06
 BYTE   An1  v084
 BYTE   W06
 BYTE   An1  v052
 BYTE   W12
 BYTE   An0  v120
 BYTE   W06
 BYTE   An0  v076
 BYTE   W06
 BYTE   An0  v048
 BYTE   W11
 BYTE   N24  An0  v127
 BYTE   W24
 BYTE   N12  An1  v120
 BYTE   W13
 BYTE   N06  An0  v124
 BYTE   W06
 BYTE   An0  v080
 BYTE   W04
// 013   ----------------------------------------
 BYTE   W02
 BYTE   An0  v048
 BYTE   W11
 BYTE   An1  v127
 BYTE   W06
 BYTE   An1  v080
 BYTE   W06
 BYTE   An1  v052
 BYTE   W13
 BYTE   N22  An0  v124
 BYTE   W23
 BYTE   N12  An1
 BYTE   W12
 BYTE   N06  Gs1  v112
 BYTE   W06
 BYTE   Gs1  v072
 BYTE   W06
 BYTE   Gs1  v044
 BYTE   W11
// 014   ----------------------------------------
 BYTE   W01
 BYTE   Gs0  v120
 BYTE   W06
 BYTE   Gs0  v076
 BYTE   W06
 BYTE   Gs0  v048
 BYTE   W12
 BYTE   N24  Gs0  v116
 BYTE   W24
 BYTE   N12  Gs1  v112
 BYTE   W13
 BYTE   N06  Gs0  v120
 BYTE   W06
 BYTE   Gs0  v076
 BYTE   W06
 BYTE   Gs0  v048
 BYTE   W12
 BYTE   Gs1  v112
 BYTE   W06
 BYTE   N05  Gs1  v072
 BYTE   W04
// 015   ----------------------------------------
 BYTE   W01
 BYTE   N01  Gs1  v044
 BYTE   W06
 BYTE   N06  Gs1  v028
 BYTE   W06
 BYTE   N23  Gs0  v112
 BYTE   W24
 BYTE   W01
 BYTE   N11  Gs1  v116
 BYTE   W11
 BYTE   N06  Gn1  v108
 BYTE   W06
 BYTE   Gn1  v072
 BYTE   W06
 BYTE   Gn1  v044
 BYTE   W12
 BYTE   Gn0  v112
 BYTE   W06
 BYTE   Gn0  v072
 BYTE   W06
 BYTE   Gn0  v044
 BYTE   W11
// 016   ----------------------------------------
 BYTE   W02
 BYTE   N22  Gn0  v116
 BYTE   W23
 BYTE   N12  Gn1  v112
 BYTE   W13
 BYTE   N06  Gn0  v116
 BYTE   W06
 BYTE   Gn0  v076
 BYTE   W06
 BYTE   Gn0  v048
 BYTE   W11
 BYTE   Gn1  v124
 BYTE   W06
 BYTE   Gn1  v080
 BYTE   W06
 BYTE   Gn1  v048
 BYTE   W12
 BYTE   N24  Gn0  v124
 BYTE   W11
// 017   ----------------------------------------
 BYTE   W13
 BYTE   N12  Gn1  v112
 BYTE   W12
 BYTE   N06  Fs1  v116
 BYTE   W06
 BYTE   Fs1  v076
 BYTE   W06
 BYTE   Fs1  v048
 BYTE   W12
 BYTE   Fs0  v120
 BYTE   W06
 BYTE   Fs0  v080
 BYTE   W06
 BYTE   Fs0  v048
 BYTE   W12
 BYTE   N23  Fs0  v120
 BYTE   W23
// 018   ----------------------------------------
 BYTE   W01
 BYTE   N12  Fs1  v116
 BYTE   W12
 BYTE   N06  Bn0  v124
 BYTE   W06
 BYTE   Bn0  v080
 BYTE   W06
 BYTE   Bn0  v052
 BYTE   W12
 BYTE   Bn0  v120
 BYTE   W06
 BYTE   Bn0  v076
 BYTE   W06
 BYTE   Bn0  v048
 BYTE   W12
 BYTE   N23  BnM1  v120
 BYTE   W24
 BYTE   N06  Bn0  v116
 BYTE   W06
 BYTE   Bn0  v048
 BYTE   W05
// 019   ----------------------------------------
 BYTE   W01
 BYTE   N80  Cs1  v108
 BYTE   W84
 BYTE   N20  Cs1  v112
 BYTE   W11
// 020   ----------------------------------------
 BYTE   W12
 BYTE   N28  Cs1  v116
 BYTE   W30
 BYTE   N10  Cs1  v040
 BYTE   W20
 BYTE   N17  Cs1  v116
 BYTE   W23
 BYTE   N06  Cs1  v104
 BYTE   W06
 BYTE   N05  Cs1  v068
 BYTE   W05
// 021   ----------------------------------------
 BYTE   W01
 BYTE   GoTo
  POIN2 Label_11_018A4482
// 022   ----------------------------------------
 BYTE   W28
 BYTE   FINE

//**************** Track 13 (Midi-Chn.12) ****************//

song10_013:
// 000   ----------------------------------------
 BYTE   KEYSH   song10_key+0
Label_12_018A476A:
 BYTE   VOICE   49
 BYTE   PAN   c_v+27
 BYTE   W01
 BYTE   MOD 0
 BYTE   CnM2
 BYTE   VOL   35*song10_mvl/mxv
 BYTE   N05  Cs1  v127
 BYTE   W01
 BYTE   W05
 BYTE   Cs1  v084
 BYTE   W06
 BYTE   Cs1  v052
 BYTE   W48
 BYTE   N18  Cs1  v127
 BYTE   W24
 BYTE   N05  Cs1  v120
 BYTE   W11
// 001   ----------------------------------------
 BYTE   W01
 BYTE   N05
 BYTE   W06
 BYTE   Cs1  v076
 BYTE   W06
 BYTE   Cs1  v048
 BYTE   W12
 BYTE   N04  Cs1  v112
 BYTE   W06
 BYTE   Cs1  v064
 BYTE   W06
 BYTE   Cs1  v040
 BYTE   W32
 BYTE   W03
 BYTE   N23  Cs1  v124
 BYTE   W24
// 002   ----------------------------------------
 BYTE   N05  Fs0  v127
 BYTE   W06
 BYTE   Fs0  v084
 BYTE   W06
 BYTE   Fs0  v056
 BYTE   W13
 BYTE   Fs0  v120
 BYTE   W06
 BYTE   Fs0  v080
 BYTE   W06
 BYTE   Fs0  v056
 BYTE   W23
 BYTE   Fs0  v120
 BYTE   W06
 BYTE   Fs0  v084
 BYTE   W06
 BYTE   N03  Fs0  v112
 BYTE   W08
 BYTE   Ds1
 BYTE   W08
 BYTE   Cs1  v116
 BYTE   W08
// 003   ----------------------------------------
 BYTE   N05  Cn1
 BYTE   W06
 BYTE   Cn1  v076
 BYTE   W06
 BYTE   Cn1  v048
 BYTE   W13
 BYTE   Cn1  v116
 BYTE   W06
 BYTE   Cn1  v076
 BYTE   W06
 BYTE   Cn1  v048
 BYTE   W23
 BYTE   Cn1  v116
 BYTE   W12
 BYTE   N04  Cn1  v108
 BYTE   W12
 BYTE   N05  Cn1  v100
 BYTE   W12
// 004   ----------------------------------------
 BYTE   Cs1  v120
 BYTE   W06
 BYTE   Cs1  v076
 BYTE   W06
 BYTE   Cs1  v048
 BYTE   W12
 BYTE   Cs1  v112
 BYTE   W06
 BYTE   Cs1  v072
 BYTE   W06
 BYTE   Cs1  v044
 BYTE   W24
 BYTE   W01
 BYTE   N15  Cs1  v127
 BYTE   W23
 BYTE   N05  Cs1  v108
 BYTE   W12
// 005   ----------------------------------------
 BYTE   Cs1  v120
 BYTE   W06
 BYTE   Cs1  v076
 BYTE   W06
 BYTE   Cs1  v048
 BYTE   W13
 BYTE   Cs1  v104
 BYTE   W06
 BYTE   Cs1  v068
 BYTE   W06
 BYTE   Cs1  v044
 BYTE   W32
 BYTE   W03
 BYTE   N23  Cs1  v112
 BYTE   W24
// 006   ----------------------------------------
 BYTE   N05  Fs0  v127
 BYTE   W06
 BYTE   Fs0  v084
 BYTE   W06
 BYTE   Fs0  v056
 BYTE   W12
 BYTE   Fs0  v124
 BYTE   W06
 BYTE   Fs0  v084
 BYTE   W06
 BYTE   Fs0  v056
 BYTE   W24
 BYTE   Fs0  v120
 BYTE   W12
 BYTE   Gs0  v112
 BYTE   W12
 BYTE   An0
 BYTE   W12
// 007   ----------------------------------------
 BYTE   Bn0  v108
 BYTE   W06
 BYTE   Bn0  v072
 BYTE   W06
 BYTE   Bn0  v044
 BYTE   W13
 BYTE   Bn0  v108
 BYTE   W06
 BYTE   Bn0  v072
 BYTE   W06
 BYTE   Bn0  v044
 BYTE   W56
 BYTE   W03
// 008   ----------------------------------------
 BYTE   W01
 BYTE   N04  An0  v124
 BYTE   W06
 BYTE   An0  v076
 BYTE   W06
 BYTE   An0  v044
 BYTE   W12
 BYTE   An0  v120
 BYTE   W06
 BYTE   An0  v072
 BYTE   W06
 BYTE   An0  v044
 BYTE   W24
 BYTE   N17  An0  v124
 BYTE   W18
 BYTE   N05  An0  v044
 BYTE   W06
 BYTE   An0  v104
 BYTE   W11
// 009   ----------------------------------------
 BYTE   N04  Fs0  v116
 BYTE   W06
 BYTE   Fs0  v068
 BYTE   W06
 BYTE   Fs0  v040
 BYTE   W12
 BYTE   Fs0  v116
 BYTE   W06
 BYTE   Fs0  v068
 BYTE   W06
 BYTE   Fs0  v040
 BYTE   W24
 BYTE   W01
 BYTE   N17  Fs0  v112
 BYTE   W18
 BYTE   N06  Fs0  v040
 BYTE   W07
 BYTE   N05  Fs0  v092
 BYTE   W06
 BYTE   Fs0  v056
 BYTE   W04
// 010   ----------------------------------------
 BYTE   W02
 BYTE   Gs0  v116
 BYTE   W06
 BYTE   Gs0  v072
 BYTE   W06
 BYTE   Gs0  v040
 BYTE   W12
 BYTE   Gs0  v112
 BYTE   W06
 BYTE   Gs0  v068
 BYTE   W06
 BYTE   Gs0  v040
 BYTE   W24
 BYTE   N17  Gs0  v112
 BYTE   W17
 BYTE   N06  Gs0  v040
 BYTE   W07
 BYTE   N04  Gs0  v104
 BYTE   W06
 BYTE   Gs0  v064
 BYTE   W04
// 011   ----------------------------------------
 BYTE   W02
 BYTE   Gs0  v116
 BYTE   W06
 BYTE   Gs0  v068
 BYTE   W06
 BYTE   Gs0  v040
 BYTE   W11
 BYTE   N05  Gs0  v116
 BYTE   W06
 BYTE   Gs0  v068
 BYTE   W06
 BYTE   Gs0  v040
 BYTE   W24
 BYTE   N22  Gs0  v124
 BYTE   W23
 BYTE   N05  Gs0  v116
 BYTE   W06
 BYTE   N07  Gs0  v072
 BYTE   W06
// 012   ----------------------------------------
 BYTE   W01
 BYTE   W01
 BYTE   N05  An1  v120
 BYTE   W06
 BYTE   An1  v076
 BYTE   W06
 BYTE   N06  An1  v044
 BYTE   W12
 BYTE   N05  An0  v120
 BYTE   W06
 BYTE   An0  v076
 BYTE   W06
 BYTE   N06  An0  v048
 BYTE   W11
 BYTE   N23  An0  v127
 BYTE   W24
 BYTE   N12  An1  v112
 BYTE   W13
 BYTE   N05  An0  v124
 BYTE   W06
 BYTE   An0  v080
 BYTE   W04
// 013   ----------------------------------------
 BYTE   W02
 BYTE   N06  An0  v048
 BYTE   W11
 BYTE   N05  An1  v120
 BYTE   W06
 BYTE   An1  v072
 BYTE   W06
 BYTE   N06  An1  v040
 BYTE   W13
 BYTE   N22  An0  v124
 BYTE   W23
 BYTE   N12  An1  v112
 BYTE   W12
 BYTE   N05  Gs1  v104
 BYTE   W06
 BYTE   Gs1  v064
 BYTE   W06
 BYTE   N06  Gs1  v036
 BYTE   W11
// 014   ----------------------------------------
 BYTE   W01
 BYTE   N05  Gs0  v120
 BYTE   W06
 BYTE   Gs0  v076
 BYTE   W06
 BYTE   N06  Gs0  v048
 BYTE   W12
 BYTE   N23  Gs0  v116
 BYTE   W24
 BYTE   N12  Gs1  v100
 BYTE   W13
 BYTE   N05  Gs0  v120
 BYTE   W06
 BYTE   Gs0  v076
 BYTE   W06
 BYTE   N06  Gs0  v048
 BYTE   W12
 BYTE   N05  Gs1  v100
 BYTE   W06
 BYTE   Gs1  v060
 BYTE   W04
// 015   ----------------------------------------
 BYTE   W02
 BYTE   Gs1  v036
 BYTE   W06
 BYTE   Gs1  v020
 BYTE   W05
 BYTE   N23  Gs0  v112
 BYTE   W24
 BYTE   W01
 BYTE   N11  Gs1  v104
 BYTE   W11
 BYTE   N05  Gn1  v100
 BYTE   W06
 BYTE   Gn1  v060
 BYTE   W06
 BYTE   N06  Gn1  v032
 BYTE   W12
 BYTE   N05  Gn0  v112
 BYTE   W06
 BYTE   Gn0  v072
 BYTE   W06
 BYTE   N06  Gn0  v044
 BYTE   W11
// 016   ----------------------------------------
 BYTE   W02
 BYTE   N22  Gn0  v116
 BYTE   W23
 BYTE   N12  Gn1  v104
 BYTE   W13
 BYTE   N05  Gn0  v116
 BYTE   W06
 BYTE   Gn0  v076
 BYTE   W06
 BYTE   N06  Gn0  v048
 BYTE   W11
 BYTE   N05  Gn1  v112
 BYTE   W06
 BYTE   Gn1  v068
 BYTE   W06
 BYTE   N06  Gn1  v040
 BYTE   W12
 BYTE   N23  Gn0  v124
 BYTE   W11
// 017   ----------------------------------------
 BYTE   W13
 BYTE   N11  Gn1  v104
 BYTE   W12
 BYTE   N05  Fs1  v108
 BYTE   W06
 BYTE   Fs1  v064
 BYTE   W06
 BYTE   N06  Fs1  v036
 BYTE   W12
 BYTE   N05  Fs0  v120
 BYTE   W06
 BYTE   Fs0  v080
 BYTE   W06
 BYTE   N06  Fs0  v048
 BYTE   W12
 BYTE   N23  Fs0  v120
 BYTE   W23
// 018   ----------------------------------------
 BYTE   W01
 BYTE   N12  Fs1  v104
 BYTE   W12
 BYTE   N05  Bn0  v124
 BYTE   W06
 BYTE   Bn0  v080
 BYTE   W06
 BYTE   N06  Bn0  v052
 BYTE   W12
 BYTE   N05  Bn0  v120
 BYTE   W06
 BYTE   Bn0  v076
 BYTE   W06
 BYTE   N06  Bn0  v048
 BYTE   W12
 BYTE   N23  BnM1  v120
 BYTE   W24
 BYTE   N05  Bn0  v116
 BYTE   W06
 BYTE   Bn0  v048
 BYTE   W05
// 019   ----------------------------------------
 BYTE   W01
 BYTE   N80  Cs1  v108
 BYTE   W84
 BYTE   N20  Cs1  v112
 BYTE   W11
// 020   ----------------------------------------
 BYTE   W12
 BYTE   N28  Cs1  v116
 BYTE   W30
 BYTE   N10  Cs1  v040
 BYTE   W20
 BYTE   N17  Cs1  v116
 BYTE   W23
 BYTE   N05  Cs1  v104
 BYTE   W06
 BYTE   Cs1  v068
 BYTE   W05
// 021   ----------------------------------------
 BYTE   W01
 BYTE   GoTo
  POIN2 Label_12_018A476A
// 022   ----------------------------------------
 BYTE   W28
 BYTE   FINE

//******************************************************//
	ALIGN 4

song10:
	BYTE	13	// NumTrks
	BYTE	0	// NumBlks
	BYTE	song10_pri	// Priority
	BYTE	song10_rev	// Reverb.
    
	POIN2	song10_grp
    
	POIN2	song10_001
	POIN2	song10_002
	POIN2	song10_003
	POIN2	song10_004
	POIN2	song10_005
	POIN2	song10_006
	POIN2	song10_007
	POIN2	song10_008
	POIN2	song10_009
	POIN2	song10_010
	POIN2	song10_011
	POIN2	song10_012
	POIN2	song10_013

	
