//Event file generated from Sappy .s format.
	#include "MPlayDef.event"

	#define	songF3_grp  voicegroup001
	#define	songF3_pri  0
	#define	songF3_rev  0
	#define	songF3_mvl  127
	#define	songF3_key  0
	#define	songF3_tbs  1
	#define	songF3_exg  0
	#define	songF3_cmp  1

	// .rodata
	//	songF3
	ALIGN 4


//**************** Track 1 (Midi-Chn.0) ****************//

songF3_001:
// 000   ----------------------------------------
 BYTE   KEYSH   songF3_key+0
Label_0_01278916:
 BYTE   TEMPO   160*songF3_tbs/2
 BYTE   VOICE   80
 BYTE   VOL   24*songF3_mvl/mxv
 BYTE   PAN   c_v+20
 BYTE   BEND   c_v+0
 BYTE   N04  En3  v104
 BYTE   N04  Bn3
 BYTE   W08
 BYTE   En4
 BYTE   N04  Fn4
 BYTE   N04  Bn4
 BYTE   W08
 BYTE   En4
 BYTE   N04  Fn4
 BYTE   N04  Bn4
 BYTE   W08
 BYTE   En3
 BYTE   N04  Bn3
 BYTE   W08
 BYTE   En4
 BYTE   N04  Fn4
 BYTE   N04  Bn4
 BYTE   W08
 BYTE   En4
 BYTE   N04  Fn4
 BYTE   N04  Bn4
 BYTE   W08
 BYTE   En3
 BYTE   N04  Bn3
 BYTE   W08
 BYTE   En4
 BYTE   N04  Fn4
 BYTE   N04  Bn4
 BYTE   W08
 BYTE   En4
 BYTE   N04  Fn4
 BYTE   N04  Bn4
 BYTE   W08
 BYTE   En3
 BYTE   N04  Bn3
 BYTE   W08
 BYTE   En4
 BYTE   N04  Fn4
 BYTE   N04  Bn4
 BYTE   W08
 BYTE   En4
 BYTE   N04  Fn4
 BYTE   N04  Bn4
 BYTE   W08
// 001   ----------------------------------------
Label_0_01278962:
 BYTE   N04  En3  v112
 BYTE   N04  Bn3
 BYTE   W08
 BYTE   En4
 BYTE   N04  Fn4
 BYTE   N04  Bn4
 BYTE   W08
 BYTE   En4
 BYTE   N04  Fn4
 BYTE   N04  Bn4
 BYTE   W08
 BYTE   En3
 BYTE   N04  Bn3
 BYTE   W08
 BYTE   En4
 BYTE   N04  Fn4
 BYTE   N04  Bn4
 BYTE   W08
 BYTE   En4
 BYTE   N04  Fn4
 BYTE   N04  Bn4
 BYTE   W08
 BYTE   En3
 BYTE   N04  Bn3
 BYTE   W08
 BYTE   En4
 BYTE   N04  Fn4
 BYTE   N04  Bn4
 BYTE   W08
 BYTE   En4
 BYTE   N04  Fn4
 BYTE   N04  Bn4
 BYTE   W08
 BYTE   En3
 BYTE   N04  Bn3
 BYTE   W08
 BYTE   En4
 BYTE   N04  Fn4
 BYTE   N04  Bn4
 BYTE   W08
 BYTE   En4
 BYTE   N04  Fn4
 BYTE   N04  Bn4
 BYTE   W08
 BYTE   PEND 
// 002   ----------------------------------------
 BYTE   PATT
  POIN2 Label_0_01278962
// 003   ----------------------------------------
Label_0_012789AA:
 BYTE   N04  Fn3  v112
 BYTE   N04  Cn4
 BYTE   W08
 BYTE   Fn4
 BYTE   N04  Fs4
 BYTE   N04  Cn5
 BYTE   W08
 BYTE   Fn4
 BYTE   N04  Fs4
 BYTE   N04  Cn5
 BYTE   W08
 BYTE   Fn3
 BYTE   N04  Cn4
 BYTE   W08
 BYTE   Fn4
 BYTE   N04  Fs4
 BYTE   N04  Cn5
 BYTE   W08
 BYTE   Fn4
 BYTE   N04  Fs4
 BYTE   N04  Cn5
 BYTE   W08
 BYTE   Fn3
 BYTE   N04  Cn4
 BYTE   W08
 BYTE   Fn4
 BYTE   N04  Fs4
 BYTE   N04  Cn5
 BYTE   W08
 BYTE   Fn4
 BYTE   N04  Fs4
 BYTE   N04  Cn5
 BYTE   W08
 BYTE   Fn3
 BYTE   N04  Cn4
 BYTE   W08
 BYTE   Fn4
 BYTE   N04  Fs4
 BYTE   N04  Cn5
 BYTE   W08
 BYTE   Fn4
 BYTE   N04  Fs4
 BYTE   N04  Cn5
 BYTE   W08
 BYTE   PEND 
// 004   ----------------------------------------
 BYTE   PATT
  POIN2 Label_0_012789AA
// 005   ----------------------------------------
 BYTE   PATT
  POIN2 Label_0_01278962
// 006   ----------------------------------------
 BYTE   PATT
  POIN2 Label_0_01278962
// 007   ----------------------------------------
Label_0_012789FC:
 BYTE   N04  Gn3  v112
 BYTE   N04  Dn4
 BYTE   W08
 BYTE   Gn4
 BYTE   N04  Gs4
 BYTE   N04  Dn5
 BYTE   W08
 BYTE   Gn4
 BYTE   N04  Gs4
 BYTE   N04  Dn5
 BYTE   W08
 BYTE   Gn3
 BYTE   N04  Dn4
 BYTE   W08
 BYTE   Gn4
 BYTE   N04  Gs4
 BYTE   N04  Dn5
 BYTE   W08
 BYTE   Gn4
 BYTE   N04  Gs4
 BYTE   N04  Dn5
 BYTE   W08
 BYTE   Gn3
 BYTE   N04  Dn4
 BYTE   W08
 BYTE   Gn4
 BYTE   N04  Gs4
 BYTE   N04  Dn5
 BYTE   W08
 BYTE   Gn4
 BYTE   N04  Gs4
 BYTE   N04  Dn5
 BYTE   W08
 BYTE   Gn3
 BYTE   N04  Dn4
 BYTE   W08
 BYTE   Gn4
 BYTE   N04  Gs4
 BYTE   N04  Dn5
 BYTE   W08
 BYTE   Gn4
 BYTE   N04  Gs4
 BYTE   N04  Dn5
 BYTE   W08
 BYTE   PEND 
// 008   ----------------------------------------
 BYTE   PATT
  POIN2 Label_0_012789FC
// 009   ----------------------------------------
Label_0_01278A44:
 BYTE   N04  Fn3  v112
 BYTE   N04  Dn5
 BYTE   W06
 BYTE   Gs3
 BYTE   N04  Bn4
 BYTE   W06
 BYTE   Bn3
 BYTE   N04  Gs4
 BYTE   W06
 BYTE   Dn4
 BYTE   N04  Fn4
 BYTE   W06
 BYTE   Fn3
 BYTE   N04  Dn5
 BYTE   W06
 BYTE   Gs3
 BYTE   N04  Bn4
 BYTE   W06
 BYTE   Bn3
 BYTE   N04  Gs4
 BYTE   W06
 BYTE   Dn4
 BYTE   N04  Fn4
 BYTE   W06
 BYTE   Gn3
 BYTE   N04  En5
 BYTE   W06
 BYTE   As3
 BYTE   N04  Cs5
 BYTE   W06
 BYTE   Cs4
 BYTE   N04  As4
 BYTE   W06
 BYTE   En4
 BYTE   N04  Gn4
 BYTE   W06
 BYTE   Gn3
 BYTE   N04  En5
 BYTE   W06
 BYTE   As3
 BYTE   N04  Cs5
 BYTE   W06
 BYTE   Cs4
 BYTE   N04  As4
 BYTE   W06
 BYTE   En4
 BYTE   N04  Gn4
 BYTE   W06
 BYTE   PEND 
// 010   ----------------------------------------
 BYTE   PATT
  POIN2 Label_0_01278A44
// 011   ----------------------------------------
 BYTE   PATT
  POIN2 Label_0_01278A44
// 012   ----------------------------------------
 BYTE   PATT
  POIN2 Label_0_01278A44
// 013   ----------------------------------------
Label_0_01278A96:
 BYTE   N05  An4  v112
 BYTE   N05  As4
 BYTE   N05  Ds5
 BYTE   N05  En5
 BYTE   W08
 BYTE   An3
 BYTE   N05  As3
 BYTE   N05  Ds4
 BYTE   N05  En4
 BYTE   W08
 BYTE   An4
 BYTE   N05  As4
 BYTE   N05  Ds5
 BYTE   N05  En5
 BYTE   W08
 BYTE   An4
 BYTE   N05  As4
 BYTE   N05  Ds5
 BYTE   N05  En5
 BYTE   W08
 BYTE   An3
 BYTE   N05  As3
 BYTE   N05  Ds4
 BYTE   N05  En4
 BYTE   W08
 BYTE   An4
 BYTE   N05  As4
 BYTE   N05  Ds5
 BYTE   N05  En5
 BYTE   W08
 BYTE   An4
 BYTE   N05  As4
 BYTE   N05  Ds5
 BYTE   N05  En5
 BYTE   W08
 BYTE   An3
 BYTE   N05  As3
 BYTE   N05  Ds4
 BYTE   N05  En4
 BYTE   W08
 BYTE   An3
 BYTE   N05  As3
 BYTE   N05  Ds4
 BYTE   N05  En4
 BYTE   W08
 BYTE   An4
 BYTE   N05  As4
 BYTE   N05  Ds5
 BYTE   N05  En5
 BYTE   W08
 BYTE   An3
 BYTE   N05  As3
 BYTE   N05  Ds4
 BYTE   N05  En4
 BYTE   W08
 BYTE   An4
 BYTE   N05  As4
 BYTE   N05  Ds5
 BYTE   N05  En5
 BYTE   W08
 BYTE   PEND 
// 014   ----------------------------------------
 BYTE   PATT
  POIN2 Label_0_01278A96
// 015   ----------------------------------------
 BYTE   PATT
  POIN2 Label_0_01278A96
// 016   ----------------------------------------
 BYTE   PATT
  POIN2 Label_0_01278A96
// 017   ----------------------------------------
 BYTE   N92  En3  v112
 BYTE   N92  An3
 BYTE   N92  Cn4
 BYTE   W96
// 018   ----------------------------------------
Label_0_01278B10:
 BYTE   N92  Dn3  v112
 BYTE   N92  Fn3
 BYTE   N92  An3
 BYTE   W96
 BYTE   PEND 
// 019   ----------------------------------------
 BYTE   En3
 BYTE   N92  Gn3
 BYTE   N92  Bn3
 BYTE   W96
// 020   ----------------------------------------
Label_0_01278B1F:
 BYTE   N44  En3  v112
 BYTE   N44  An3
 BYTE   N44  Cn4
 BYTE   W48
 BYTE   Dn3
 BYTE   N44  Gn3
 BYTE   N44  Bn3
 BYTE   W48
 BYTE   PEND 
// 021   ----------------------------------------
Label_0_01278B2E:
 BYTE   N92  Cn3  v112
 BYTE   N92  Fn3
 BYTE   N92  An3
 BYTE   W96
 BYTE   PEND 
// 022   ----------------------------------------
Label_0_01278B37:
 BYTE   N44  Dn3  v112
 BYTE   N44  Gn3
 BYTE   N44  Cn4
 BYTE   W48
 BYTE   Dn3
 BYTE   N44  Gn3
 BYTE   N44  Bn3
 BYTE   W48
 BYTE   PEND 
// 023   ----------------------------------------
 BYTE   N92  En3
 BYTE   N92  An3
 BYTE   N92  Cn4
 BYTE   W96
// 024   ----------------------------------------
 BYTE   En3
 BYTE   N92  An3
 BYTE   N92  Cs4
 BYTE   W96
// 025   ----------------------------------------
 BYTE   En3
 BYTE   N92  An3
 BYTE   N92  Cn4
 BYTE   W96
// 026   ----------------------------------------
 BYTE   PATT
  POIN2 Label_0_01278B10
// 027   ----------------------------------------
 BYTE   N92  En3  v112
 BYTE   N92  Gn3
 BYTE   N92  Bn3
 BYTE   W96
// 028   ----------------------------------------
 BYTE   PATT
  POIN2 Label_0_01278B1F
// 029   ----------------------------------------
 BYTE   PATT
  POIN2 Label_0_01278B2E
// 030   ----------------------------------------
 BYTE   PATT
  POIN2 Label_0_01278B37
// 031   ----------------------------------------
 BYTE   N92  En3  v112
 BYTE   N92  An3
 BYTE   N92  Cn4
 BYTE   W96
// 032   ----------------------------------------
 BYTE   En3
 BYTE   N92  An3
 BYTE   N92  Cs4
 BYTE   W96
// 033   ----------------------------------------
Label_0_01278B83:
 BYTE   N05  Fn4  v112
 BYTE   N05  Bn4
 BYTE   N05  En5
 BYTE   W08
 BYTE   Fn3
 BYTE   N05  Bn3
 BYTE   N05  En4
 BYTE   W08
 BYTE   Fn3
 BYTE   N05  Bn3
 BYTE   N05  En4
 BYTE   W08
 BYTE   Fn4
 BYTE   N05  Bn4
 BYTE   N05  En5
 BYTE   W08
 BYTE   Fn3
 BYTE   N05  Bn3
 BYTE   N05  En4
 BYTE   W08
 BYTE   Fn3
 BYTE   N05  Bn3
 BYTE   N05  En4
 BYTE   W08
 BYTE   Fn4
 BYTE   N05  Bn4
 BYTE   N05  En5
 BYTE   W08
 BYTE   Fn3
 BYTE   N05  Bn3
 BYTE   N05  En4
 BYTE   W08
 BYTE   Fn3
 BYTE   N05  Bn3
 BYTE   N05  En4
 BYTE   W08
 BYTE   Fn4
 BYTE   N05  Bn4
 BYTE   N05  En5
 BYTE   W08
 BYTE   Fn3
 BYTE   N05  Bn3
 BYTE   N05  En4
 BYTE   W08
 BYTE   Fn4
 BYTE   N05  Bn4
 BYTE   N05  En5
 BYTE   W08
 BYTE   PEND 
// 034   ----------------------------------------
 BYTE   PATT
  POIN2 Label_0_01278B83
// 035   ----------------------------------------
 BYTE   PATT
  POIN2 Label_0_01278B83
// 036   ----------------------------------------
 BYTE   PATT
  POIN2 Label_0_01278B83
// 037   ----------------------------------------
 BYTE   PATT
  POIN2 Label_0_01278B83
// 038   ----------------------------------------
 BYTE   PATT
  POIN2 Label_0_01278B83
// 039   ----------------------------------------
 BYTE   PATT
  POIN2 Label_0_01278B83
// 040   ----------------------------------------
 BYTE   PATT
  POIN2 Label_0_01278B83
// 041   ----------------------------------------
 BYTE   W20
 BYTE   GoTo
  POIN2 Label_0_01278916
 BYTE   FINE

//**************** Track 2 (Midi-Chn.1) ****************//

songF3_002:
// 000   ----------------------------------------
 BYTE   KEYSH   songF3_key+0
Label_1_01278BFA:
 BYTE   VOICE   81
 BYTE   VOL   35*songF3_mvl/mxv
 BYTE   PAN   c_v+0
 BYTE   BEND   c_v+0
 BYTE   W96
// 001   ----------------------------------------
 BYTE   CnM2
 BYTE   N14  Bn4  v127
 BYTE   W02
 BYTE   BEND   c_v-30
 BYTE   W02
 BYTE   Dn2
 BYTE   W02
 BYTE   An2
 BYTE   W02
 BYTE   Cs3
 BYTE   W02
 BYTE   Ds3
 BYTE   W02
 BYTE   En3
 BYTE   W04
 BYTE   N14  As4
 BYTE   W16
 BYTE   En4
 BYTE   W16
 BYTE   An4
 BYTE   W16
 BYTE   Gs4
 BYTE   W16
 BYTE   Dn4
 BYTE   W16
// 002   ----------------------------------------
 BYTE   En4
 BYTE   W16
 BYTE   Fn4
 BYTE   W16
 BYTE   Bn3
 BYTE   W16
 BYTE   As3
 BYTE   W16
 BYTE   An3
 BYTE   W16
 BYTE   En3
 BYTE   W16
// 003   ----------------------------------------
 BYTE   N07  Fn3
 BYTE   W08
 BYTE   En3
 BYTE   W08
 BYTE   Cn4
 BYTE   W08
 BYTE   Bn3
 BYTE   W08
 BYTE   En4
 BYTE   W08
 BYTE   Cn4
 BYTE   W08
 BYTE   Bn3
 BYTE   W08
 BYTE   Fn3
 BYTE   W08
 BYTE   Fn4
 BYTE   W08
 BYTE   En4
 BYTE   W08
 BYTE   Bn4
 BYTE   W08
 BYTE   Cn5
 BYTE   W08
// 004   ----------------------------------------
 BYTE   N04  Fn5
 BYTE   W06
 BYTE   En5
 BYTE   W06
 BYTE   Bn4
 BYTE   W06
 BYTE   Bn5
 BYTE   W06
 BYTE   Fn5
 BYTE   W06
 BYTE   En5
 BYTE   W06
 BYTE   Bn4
 BYTE   W06
 BYTE   Fn4
 BYTE   W06
 BYTE   En4
 BYTE   W06
 BYTE   Bn3
 BYTE   W06
 BYTE   En4
 BYTE   W06
 BYTE   Fn4
 BYTE   W06
 BYTE   Bn4
 BYTE   W06
 BYTE   Fn4
 BYTE   W06
 BYTE   En4
 BYTE   W06
 BYTE   Bn3
 BYTE   W06
// 005   ----------------------------------------
 BYTE   N14  En4
 BYTE   W16
 BYTE   Fn4
 BYTE   W16
 BYTE   En4
 BYTE   W16
 BYTE   BEND   c_v-64
 BYTE   N14  Bn4
 BYTE   W02
 BYTE   BEND   c_v-30
 BYTE   W02
 BYTE   Dn2
 BYTE   W02
 BYTE   An2
 BYTE   W02
 BYTE   Cs3
 BYTE   W02
 BYTE   Ds3
 BYTE   W02
 BYTE   En3
 BYTE   W04
 BYTE   N14  Fn4
 BYTE   W16
 BYTE   En4
 BYTE   W16
// 006   ----------------------------------------
 BYTE   Dn4
 BYTE   W16
 BYTE   En4
 BYTE   W16
 BYTE   Fn4
 BYTE   W16
 BYTE   En4
 BYTE   W16
 BYTE   Dn4
 BYTE   W16
 BYTE   En4
 BYTE   W16
// 007   ----------------------------------------
 BYTE   N07  Gs4
 BYTE   W08
 BYTE   Gn4
 BYTE   W08
 BYTE   Gs4
 BYTE   W08
 BYTE   Dn5
 BYTE   W08
 BYTE   Gs4
 BYTE   W08
 BYTE   Gn4
 BYTE   W08
 BYTE   Gn5
 BYTE   W08
 BYTE   Dn5
 BYTE   W08
 BYTE   Gs4
 BYTE   W08
 BYTE   Gn4
 BYTE   W08
 BYTE   Gs4
 BYTE   W08
 BYTE   Dn5
 BYTE   W08
// 008   ----------------------------------------
 BYTE   N05  Gs5
 BYTE   W06
 BYTE   Gn5
 BYTE   W06
 BYTE   Gs5
 BYTE   W06
 BYTE   Dn5
 BYTE   W06
 BYTE   Gn5
 BYTE   W06
 BYTE   Gs5
 BYTE   W06
 BYTE   Gn5
 BYTE   W06
 BYTE   Dn5
 BYTE   W06
 BYTE   Gs4
 BYTE   W06
 BYTE   Gn4
 BYTE   W06
 BYTE   Gs4
 BYTE   W06
 BYTE   Dn5
 BYTE   W06
 BYTE   Gs5
 BYTE   W06
 BYTE   Gn5
 BYTE   W06
 BYTE   Dn5
 BYTE   W06
 BYTE   Gs4
 BYTE   W06
// 009   ----------------------------------------
 BYTE   BEND   c_v-64
 BYTE   N14  Gs3
 BYTE   N14  Fn4
 BYTE   W02
 BYTE   BEND   c_v-30
 BYTE   W02
 BYTE   Dn2
 BYTE   W02
 BYTE   An2
 BYTE   W02
 BYTE   Cs3
 BYTE   W02
 BYTE   Ds3
 BYTE   W02
 BYTE   En3
 BYTE   W04
 BYTE   N14  Dn4
 BYTE   N14  Gs4
 BYTE   W16
 BYTE   Fn4
 BYTE   N14  Bn4
 BYTE   W15
 BYTE   BEND   c_v+0
 BYTE   W01
 BYTE   N44  An4
 BYTE   N44  Ds5
 BYTE   W12
 BYTE   BEND   c_v-1
 BYTE   W06
 BYTE   Dn3
 BYTE   W04
 BYTE   Cs3
 BYTE   W02
 BYTE   Cn3
 BYTE   W02
 BYTE   Bn2
 BYTE   W02
 BYTE   As2
 BYTE   W02
 BYTE   Gs2
 BYTE   W02
 BYTE   Fs2
 BYTE   W02
 BYTE   Ds2
 BYTE   W02
 BYTE   Cn2
 BYTE   W02
 BYTE   Gs1
 BYTE   W02
 BYTE   Dn1
 BYTE   W02
 BYTE   Gn0
 BYTE   W02
 BYTE   AsM1
 BYTE   W02
 BYTE   CnM1
 BYTE   W01
 BYTE   En3
 BYTE   W01
// 010   ----------------------------------------
 BYTE   CnM2
 BYTE   N14  Fn4
 BYTE   N14  Bn4
 BYTE   W02
 BYTE   BEND   c_v-30
 BYTE   W02
 BYTE   Dn2
 BYTE   W02
 BYTE   An2
 BYTE   W02
 BYTE   Cs3
 BYTE   W02
 BYTE   Ds3
 BYTE   W02
 BYTE   En3
 BYTE   W04
 BYTE   N14  Gs4
 BYTE   N14  Dn5
 BYTE   W16
 BYTE   Bn4
 BYTE   N14  Fn5
 BYTE   W15
 BYTE   BEND   c_v+0
 BYTE   W01
 BYTE   N44  An4
 BYTE   N44  Ds5
 BYTE   W12
 BYTE   BEND   c_v-1
 BYTE   W06
 BYTE   Dn3
 BYTE   W04
 BYTE   Cs3
 BYTE   W02
 BYTE   Cn3
 BYTE   W02
 BYTE   Bn2
 BYTE   W02
 BYTE   As2
 BYTE   W02
 BYTE   Gs2
 BYTE   W02
 BYTE   Fs2
 BYTE   W02
 BYTE   Ds2
 BYTE   W02
 BYTE   Cn2
 BYTE   W02
 BYTE   Gs1
 BYTE   W02
 BYTE   Dn1
 BYTE   W02
 BYTE   Gn0
 BYTE   W02
 BYTE   AsM1
 BYTE   W02
 BYTE   CnM1
 BYTE   W01
 BYTE   En3
 BYTE   W01
// 011   ----------------------------------------
 BYTE   CnM2
 BYTE   N14  Gs4
 BYTE   N14  Dn5
 BYTE   W02
 BYTE   BEND   c_v-30
 BYTE   W02
 BYTE   Dn2
 BYTE   W02
 BYTE   An2
 BYTE   W02
 BYTE   Cs3
 BYTE   W02
 BYTE   Ds3
 BYTE   W02
 BYTE   En3
 BYTE   W04
 BYTE   N14  Fn4
 BYTE   N14  Bn4
 BYTE   W16
 BYTE   Gs4
 BYTE   N14  Dn5
 BYTE   W16
 BYTE   BEND   c_v+0
 BYTE   N44  An4
 BYTE   N44  Cn5
 BYTE   W12
 BYTE   BEND   c_v-1
 BYTE   W06
 BYTE   Dn3
 BYTE   W04
 BYTE   Cs3
 BYTE   W02
 BYTE   Cn3
 BYTE   W02
 BYTE   Bn2
 BYTE   W02
 BYTE   As2
 BYTE   W02
 BYTE   Gs2
 BYTE   W02
 BYTE   Fs2
 BYTE   W02
 BYTE   Ds2
 BYTE   W02
 BYTE   Cn2
 BYTE   W02
 BYTE   Gs1
 BYTE   W02
 BYTE   Dn1
 BYTE   W02
 BYTE   Gn0
 BYTE   W02
 BYTE   AsM1
 BYTE   W02
 BYTE   CnM1
 BYTE   W01
 BYTE   En3
 BYTE   W01
// 012   ----------------------------------------
 BYTE   CnM2
 BYTE   N44  Gs3
 BYTE   N44  Dn4
 BYTE   W02
 BYTE   BEND   c_v-50
 BYTE   W02
 BYTE   Cs0
 BYTE   W02
 BYTE   An0
 BYTE   W02
 BYTE   En1
 BYTE   W02
 BYTE   An1
 BYTE   W02
 BYTE   Cs2
 BYTE   W02
 BYTE   En2
 BYTE   W02
 BYTE   Gn2
 BYTE   W02
 BYTE   An2
 BYTE   W02
 BYTE   As2
 BYTE   W02
 BYTE   Cn3
 BYTE   W02
 BYTE   Cs3
 BYTE   W04
 BYTE   Dn3
 BYTE   W02
 BYTE   Ds3
 BYTE   W06
 BYTE   En3
 BYTE   W11
 BYTE   En3
 BYTE   W01
 BYTE   N44  An4
 BYTE   N44  Ds5
 BYTE   W12
 BYTE   BEND   c_v-1
 BYTE   W06
 BYTE   Dn3
 BYTE   W04
 BYTE   Cs3
 BYTE   W02
 BYTE   Cn3
 BYTE   W02
 BYTE   Bn2
 BYTE   W02
 BYTE   As2
 BYTE   W02
 BYTE   Gs2
 BYTE   W02
 BYTE   Fs2
 BYTE   W02
 BYTE   Ds2
 BYTE   W02
 BYTE   Cn2
 BYTE   W02
 BYTE   Gs1
 BYTE   W02
 BYTE   Dn1
 BYTE   W02
 BYTE   Gn0
 BYTE   W02
 BYTE   AsM1
 BYTE   W02
 BYTE   CnM1
 BYTE   W01
 BYTE   En3
 BYTE   W01
// 013   ----------------------------------------
 BYTE   N07  Bn4  v120
 BYTE   W08
 BYTE   Cn5
 BYTE   W08
 BYTE   Dn5
 BYTE   W08
 BYTE   Bn4
 BYTE   W08
 BYTE   Cn5
 BYTE   W08
 BYTE   Dn5
 BYTE   W08
 BYTE   Bn4
 BYTE   W08
 BYTE   Cn5
 BYTE   W08
 BYTE   Dn5
 BYTE   W08
 BYTE   Ds5
 BYTE   W08
 BYTE   Dn5
 BYTE   W08
 BYTE   Cn5
 BYTE   W08
// 014   ----------------------------------------
 BYTE   Bn4
 BYTE   W08
 BYTE   Cn5
 BYTE   W08
 BYTE   Dn5
 BYTE   W08
 BYTE   Ds5
 BYTE   W08
 BYTE   Dn5
 BYTE   W08
 BYTE   Cn5
 BYTE   W08
 BYTE   An4
 BYTE   W08
 BYTE   Gs4
 BYTE   W08
 BYTE   Fs4
 BYTE   W08
 BYTE   Fn4
 BYTE   W08
 BYTE   Ds4
 BYTE   W08
 BYTE   Dn4
 BYTE   W08
// 015   ----------------------------------------
 BYTE   Bn3
 BYTE   W08
 BYTE   Cn4
 BYTE   W08
 BYTE   Dn4
 BYTE   W08
 BYTE   Ds4
 BYTE   W08
 BYTE   Bn3
 BYTE   W08
 BYTE   Cn4
 BYTE   W08
 BYTE   Dn4
 BYTE   W08
 BYTE   Ds4
 BYTE   W08
 BYTE   Fn4
 BYTE   W08
 BYTE   Fs4
 BYTE   W08
 BYTE   Gs4
 BYTE   W08
 BYTE   An4
 BYTE   W08
// 016   ----------------------------------------
 BYTE   N07
 BYTE   W08
 BYTE   Bn4
 BYTE   W08
 BYTE   Fn4
 BYTE   W08
 BYTE   Fs4
 BYTE   W08
 BYTE   Gs4
 BYTE   W08
 BYTE   An4
 BYTE   W08
 BYTE   Ds5
 BYTE   W08
 BYTE   Dn5
 BYTE   W08
 BYTE   Cn5
 BYTE   W08
 BYTE   Bn4
 BYTE   W08
 BYTE   Fs5
 BYTE   W08
 BYTE   Fn5
 BYTE   W08
// 017   ----------------------------------------
Label_1_01278E48:
 BYTE   N16  An3  v127
 BYTE   W18
 BYTE   Bn3
 BYTE   W18
 BYTE   N11  Cn4
 BYTE   W12
 BYTE   N16  Dn4
 BYTE   W18
 BYTE   Cn4
 BYTE   W18
 BYTE   N11  Dn4
 BYTE   W12
 BYTE   PEND 
// 018   ----------------------------------------
Label_1_01278E5A:
 BYTE   N16  En4  v127
 BYTE   W18
 BYTE   Fn4
 BYTE   W18
 BYTE   N11  Gn4
 BYTE   W12
 BYTE   N16  Fn4
 BYTE   W18
 BYTE   En4
 BYTE   W18
 BYTE   N11  Dn4
 BYTE   W12
 BYTE   PEND 
// 019   ----------------------------------------
Label_1_01278E6C:
 BYTE   N16  Bn4  v127
 BYTE   W18
 BYTE   An4
 BYTE   W18
 BYTE   N11  Bn4
 BYTE   W12
 BYTE   N16  Cn5
 BYTE   W18
 BYTE   Bn4
 BYTE   W18
 BYTE   N11  An4
 BYTE   W12
 BYTE   PEND 
// 020   ----------------------------------------
Label_1_01278E7E:
 BYTE   N16  Dn5  v127
 BYTE   W18
 BYTE   Cn5
 BYTE   W18
 BYTE   N11  Bn4
 BYTE   W12
 BYTE   N16  An4
 BYTE   W18
 BYTE   Bn4
 BYTE   W18
 BYTE   N11  Cn5
 BYTE   W12
 BYTE   PEND 
// 021   ----------------------------------------
Label_1_01278E90:
 BYTE   BEND   c_v-64
 BYTE   N44  Bn4  v127
 BYTE   W02
 BYTE   BEND   c_v-50
 BYTE   W02
 BYTE   Cs0
 BYTE   W02
 BYTE   An0
 BYTE   W02
 BYTE   En1
 BYTE   W02
 BYTE   An1
 BYTE   W02
 BYTE   Cs2
 BYTE   W02
 BYTE   En2
 BYTE   W02
 BYTE   Gn2
 BYTE   W02
 BYTE   An2
 BYTE   W02
 BYTE   As2
 BYTE   W02
 BYTE   Cn3
 BYTE   W02
 BYTE   Cs3
 BYTE   W04
 BYTE   Dn3
 BYTE   W02
 BYTE   Ds3
 BYTE   W06
 BYTE   En3
 BYTE   W12
 BYTE   N44  An4
 BYTE   W48
 BYTE   PEND 
// 022   ----------------------------------------
Label_1_01278EB9:
 BYTE   N16  Bn4  v127
 BYTE   W18
 BYTE   An4
 BYTE   W18
 BYTE   N11  Gn4
 BYTE   W12
 BYTE   N16  Cn5
 BYTE   W18
 BYTE   Bn4
 BYTE   W18
 BYTE   N11  An4
 BYTE   W12
 BYTE   PEND 
// 023   ----------------------------------------
Label_1_01278ECB:
 BYTE   BEND   c_v-64
 BYTE   N32  En5  v127
 BYTE   W02
 BYTE   BEND   c_v-46
 BYTE   W02
 BYTE   Fs0
 BYTE   W02
 BYTE   En1
 BYTE   W02
 BYTE   As1
 BYTE   W02
 BYTE   Ds2
 BYTE   W02
 BYTE   Gn2
 BYTE   W02
 BYTE   An2
 BYTE   W02
 BYTE   Bn2
 BYTE   W02
 BYTE   Cs3
 BYTE   W02
 BYTE   Dn3
 BYTE   W04
 BYTE   Ds3
 BYTE   W04
 BYTE   En3
 BYTE   W08
 BYTE   N32  An4
 BYTE   W36
 BYTE   N22  En5
 BYTE   W24
 BYTE   PEND 
// 024   ----------------------------------------
Label_1_01278EF1:
 BYTE   BEND   c_v-64
 BYTE   N44  En5  v127
 BYTE   W02
 BYTE   BEND   c_v-50
 BYTE   W02
 BYTE   Cs0
 BYTE   W02
 BYTE   An0
 BYTE   W02
 BYTE   En1
 BYTE   W02
 BYTE   An1
 BYTE   W02
 BYTE   Cs2
 BYTE   W02
 BYTE   En2
 BYTE   W02
 BYTE   Gn2
 BYTE   W02
 BYTE   An2
 BYTE   W02
 BYTE   As2
 BYTE   W02
 BYTE   Cn3
 BYTE   W02
 BYTE   Cs3
 BYTE   W04
 BYTE   Dn3
 BYTE   W02
 BYTE   Ds3
 BYTE   W06
 BYTE   En3
 BYTE   W12
 BYTE   N44  An4
 BYTE   W48
 BYTE   PEND 
// 025   ----------------------------------------
 BYTE   PATT
  POIN2 Label_1_01278E48
// 026   ----------------------------------------
 BYTE   PATT
  POIN2 Label_1_01278E5A
// 027   ----------------------------------------
 BYTE   PATT
  POIN2 Label_1_01278E6C
// 028   ----------------------------------------
 BYTE   PATT
  POIN2 Label_1_01278E7E
// 029   ----------------------------------------
 BYTE   PATT
  POIN2 Label_1_01278E90
// 030   ----------------------------------------
 BYTE   PATT
  POIN2 Label_1_01278EB9
// 031   ----------------------------------------
 BYTE   PATT
  POIN2 Label_1_01278ECB
// 032   ----------------------------------------
 BYTE   PATT
  POIN2 Label_1_01278EF1
// 033   ----------------------------------------
 BYTE   N05  En5  v127
 BYTE   W06
 BYTE   Ds5
 BYTE   W06
 BYTE   As4
 BYTE   W06
 BYTE   An4
 BYTE   W06
 BYTE   En5
 BYTE   W06
 BYTE   Ds5
 BYTE   W06
 BYTE   As4
 BYTE   W06
 BYTE   An4
 BYTE   W06
 BYTE   En5
 BYTE   W06
 BYTE   Ds5
 BYTE   W06
 BYTE   As4
 BYTE   W06
 BYTE   An4
 BYTE   W06
 BYTE   En5
 BYTE   W06
 BYTE   Ds5
 BYTE   W06
 BYTE   As4
 BYTE   W06
 BYTE   An4
 BYTE   W06
// 034   ----------------------------------------
 BYTE   En5
 BYTE   W06
 BYTE   Ds5
 BYTE   W06
 BYTE   As4
 BYTE   W06
 BYTE   An4
 BYTE   W06
 BYTE   En5
 BYTE   W06
 BYTE   Ds5
 BYTE   W06
 BYTE   As4
 BYTE   W06
 BYTE   An4
 BYTE   W06
 BYTE   Fn5
 BYTE   W06
 BYTE   Ds5
 BYTE   W06
 BYTE   As4
 BYTE   W06
 BYTE   An4
 BYTE   W06
 BYTE   Fs5
 BYTE   W06
 BYTE   Ds5
 BYTE   W06
 BYTE   As4
 BYTE   W06
 BYTE   An4
 BYTE   W06
// 035   ----------------------------------------
 BYTE   Gn5
 BYTE   W06
 BYTE   Fs5
 BYTE   W06
 BYTE   As4
 BYTE   W06
 BYTE   An4
 BYTE   W06
 BYTE   Gn5
 BYTE   W06
 BYTE   Fs5
 BYTE   W06
 BYTE   As4
 BYTE   W06
 BYTE   An4
 BYTE   W06
 BYTE   Gn5
 BYTE   W06
 BYTE   Fs5
 BYTE   W06
 BYTE   As4
 BYTE   W06
 BYTE   An4
 BYTE   W06
 BYTE   Gn5
 BYTE   W06
 BYTE   Fs5
 BYTE   W06
 BYTE   As4
 BYTE   W06
 BYTE   An4
 BYTE   W06
// 036   ----------------------------------------
 BYTE   Gn5
 BYTE   W06
 BYTE   Fs5
 BYTE   W06
 BYTE   As4
 BYTE   W06
 BYTE   An4
 BYTE   W06
 BYTE   Gs5
 BYTE   W06
 BYTE   Fs5
 BYTE   W06
 BYTE   As4
 BYTE   W06
 BYTE   An4
 BYTE   W06
 BYTE   Gn5
 BYTE   W06
 BYTE   Fs5
 BYTE   W06
 BYTE   As4
 BYTE   W06
 BYTE   An4
 BYTE   W06
 BYTE   Gs5
 BYTE   W06
 BYTE   Fs5
 BYTE   W06
 BYTE   As4
 BYTE   W06
 BYTE   An4
 BYTE   W06
// 037   ----------------------------------------
 BYTE   Fs5
 BYTE   W06
 BYTE   Fn5
 BYTE   W06
 BYTE   En5
 BYTE   W06
 BYTE   Ds5
 BYTE   W06
 BYTE   Dn5
 BYTE   W06
 BYTE   Cs5
 BYTE   W06
 BYTE   Cn5
 BYTE   W06
 BYTE   Bn4
 BYTE   W06
 BYTE   As4
 BYTE   W06
 BYTE   An4
 BYTE   W06
 BYTE   Gs4
 BYTE   W06
 BYTE   Gn4
 BYTE   W06
 BYTE   Fs4
 BYTE   W06
 BYTE   Fn4
 BYTE   W06
 BYTE   En4
 BYTE   W06
 BYTE   Ds4
 BYTE   W06
// 038   ----------------------------------------
 BYTE   N07  En4
 BYTE   W08
 BYTE   Fn4
 BYTE   W08
 BYTE   Bn4
 BYTE   W08
 BYTE   As4
 BYTE   W08
 BYTE   En4
 BYTE   W08
 BYTE   Cn5
 BYTE   W08
 BYTE   En4
 BYTE   W08
 BYTE   Cs5
 BYTE   W08
 BYTE   En4
 BYTE   W08
 BYTE   Dn5
 BYTE   W08
 BYTE   Ds5
 BYTE   W08
 BYTE   En5
 BYTE   W08
// 039   ----------------------------------------
 BYTE   Fn5
 BYTE   W08
 BYTE   Fs5
 BYTE   W08
 BYTE   Bn4
 BYTE   W08
 BYTE   Cn5
 BYTE   W08
 BYTE   En5
 BYTE   W08
 BYTE   Ds5
 BYTE   W08
 BYTE   An4
 BYTE   W08
 BYTE   As4
 BYTE   W08
 BYTE   Dn5
 BYTE   W08
 BYTE   Cs5
 BYTE   W08
 BYTE   Cn5
 BYTE   W08
 BYTE   Bn4
 BYTE   W08
// 040   ----------------------------------------
 BYTE   N05  En5
 BYTE   W06
 BYTE   Ds5
 BYTE   W06
 BYTE   As4
 BYTE   W06
 BYTE   An4
 BYTE   W06
 BYTE   En5
 BYTE   W06
 BYTE   Ds5
 BYTE   W06
 BYTE   As4
 BYTE   W06
 BYTE   An4
 BYTE   W06
 BYTE   En5
 BYTE   W06
 BYTE   Ds5
 BYTE   W06
 BYTE   As4
 BYTE   W06
 BYTE   An4
 BYTE   W06
 BYTE   Fn5
 BYTE   W06
 BYTE   Ds5
 BYTE   W06
 BYTE   As4
 BYTE   W06
 BYTE   An4
 BYTE   W06
// 041   ----------------------------------------
 BYTE   W20
 BYTE   GoTo
  POIN2 Label_1_01278BFA
 BYTE   FINE

//**************** Track 3 (Midi-Chn.2) ****************//

songF3_003:
// 000   ----------------------------------------
 BYTE   KEYSH   songF3_key+0
Label_2_0127903F:
 BYTE   VOICE   33
 BYTE   VOL   35*songF3_mvl/mxv
 BYTE   PAN   c_v+4
 BYTE   BEND   c_v+0
 BYTE   N11  En0  v127
 BYTE   W12
 BYTE   Fn0
 BYTE   W12
 BYTE   Fs0
 BYTE   W12
 BYTE   Gn0
 BYTE   W12
 BYTE   As0
 BYTE   W12
 BYTE   An0
 BYTE   W12
 BYTE   N07  Cn1
 BYTE   W09
 BYTE   N02  En1
 BYTE   W03
 BYTE   Bn0
 BYTE   W03
 BYTE   An0
 BYTE   W03
 BYTE   Fs0
 BYTE   W03
 BYTE   Fn0
 BYTE   W03
// 001   ----------------------------------------
Label_2_01279063:
 BYTE   N05  En0  v127
 BYTE   W06
 BYTE   N05
 BYTE   W06
 BYTE   En1
 BYTE   W06
 BYTE   En0
 BYTE   W06
 BYTE   En1
 BYTE   W06
 BYTE   En0
 BYTE   W06
 BYTE   N05
 BYTE   W06
 BYTE   En1
 BYTE   W06
 BYTE   En0
 BYTE   W06
 BYTE   N05
 BYTE   W06
 BYTE   En1
 BYTE   W06
 BYTE   En0
 BYTE   W06
 BYTE   N05
 BYTE   W06
 BYTE   En1
 BYTE   W06
 BYTE   En0
 BYTE   W06
 BYTE   En1
 BYTE   W06
 BYTE   PEND 
// 002   ----------------------------------------
 BYTE   PATT
  POIN2 Label_2_01279063
// 003   ----------------------------------------
Label_2_0127908B:
 BYTE   N05  Fn0  v127
 BYTE   W06
 BYTE   N05
 BYTE   W06
 BYTE   Fn1
 BYTE   W06
 BYTE   Fn0
 BYTE   W06
 BYTE   Fn1
 BYTE   W06
 BYTE   Fn0
 BYTE   W06
 BYTE   N05
 BYTE   W06
 BYTE   Fn1
 BYTE   W06
 BYTE   Fn0
 BYTE   W06
 BYTE   N05
 BYTE   W06
 BYTE   Fn1
 BYTE   W06
 BYTE   Fn0
 BYTE   W06
 BYTE   N05
 BYTE   W06
 BYTE   Fn1
 BYTE   W06
 BYTE   Fn0
 BYTE   W06
 BYTE   Fn1
 BYTE   W06
 BYTE   PEND 
// 004   ----------------------------------------
 BYTE   PATT
  POIN2 Label_2_0127908B
// 005   ----------------------------------------
 BYTE   PATT
  POIN2 Label_2_01279063
// 006   ----------------------------------------
 BYTE   PATT
  POIN2 Label_2_01279063
// 007   ----------------------------------------
Label_2_012790BD:
 BYTE   N05  Gn0  v127
 BYTE   W06
 BYTE   N05
 BYTE   W06
 BYTE   Gn1
 BYTE   W06
 BYTE   Gn0
 BYTE   W06
 BYTE   Gn1
 BYTE   W06
 BYTE   Gn0
 BYTE   W06
 BYTE   N05
 BYTE   W06
 BYTE   Gn1
 BYTE   W06
 BYTE   Gn0
 BYTE   W06
 BYTE   N05
 BYTE   W06
 BYTE   Gn1
 BYTE   W06
 BYTE   Gn0
 BYTE   W06
 BYTE   N05
 BYTE   W06
 BYTE   Gn1
 BYTE   W06
 BYTE   Gn0
 BYTE   W06
 BYTE   Gn1
 BYTE   W06
 BYTE   PEND 
// 008   ----------------------------------------
 BYTE   PATT
  POIN2 Label_2_012790BD
// 009   ----------------------------------------
Label_2_012790E5:
 BYTE   N11  Dn1  v127
 BYTE   W12
 BYTE   Cs1
 BYTE   W12
 BYTE   Cn1
 BYTE   W12
 BYTE   Bn0
 BYTE   W12
 BYTE   Ds1
 BYTE   W12
 BYTE   Dn1
 BYTE   W12
 BYTE   Cs1
 BYTE   W12
 BYTE   Cn1
 BYTE   W12
 BYTE   PEND 
// 010   ----------------------------------------
Label_2_012790F8:
 BYTE   N11  Dn1  v127
 BYTE   W12
 BYTE   Cs1
 BYTE   W12
 BYTE   Cn1
 BYTE   W12
 BYTE   Bn0
 BYTE   W12
 BYTE   An0
 BYTE   W12
 BYTE   Gs0
 BYTE   W12
 BYTE   Gn0
 BYTE   W12
 BYTE   Fs0
 BYTE   W12
 BYTE   PEND 
// 011   ----------------------------------------
 BYTE   PATT
  POIN2 Label_2_012790E5
// 012   ----------------------------------------
 BYTE   PATT
  POIN2 Label_2_012790F8
// 013   ----------------------------------------
 BYTE   N16  Bn0  v127
 BYTE   W18
 BYTE   As0
 BYTE   W18
 BYTE   N11  An0
 BYTE   W12
 BYTE   N16  Gs0
 BYTE   W18
 BYTE   Gn0
 BYTE   W18
 BYTE   N11  Fs0
 BYTE   W12
// 014   ----------------------------------------
 BYTE   N16  Fs1
 BYTE   W18
 BYTE   Gn0
 BYTE   W18
 BYTE   N11  Gs0
 BYTE   W12
 BYTE   N16  An0
 BYTE   W18
 BYTE   As0
 BYTE   W18
 BYTE   N11  Bn0
 BYTE   W12
// 015   ----------------------------------------
 BYTE   N16  Fs0
 BYTE   W18
 BYTE   Gn0
 BYTE   W18
 BYTE   N11  Gs0
 BYTE   W12
 BYTE   N16  An0
 BYTE   W18
 BYTE   As0
 BYTE   W18
 BYTE   N11  Bn0
 BYTE   W12
// 016   ----------------------------------------
 BYTE   N16  Cn1
 BYTE   W18
 BYTE   Bn0
 BYTE   W18
 BYTE   N11  Fn0
 BYTE   W12
 BYTE   N16  En0
 BYTE   W18
 BYTE   As0
 BYTE   W18
 BYTE   N11  En1
 BYTE   W12
// 017   ----------------------------------------
Label_2_01279156:
 BYTE   N05  An0  v127
 BYTE   W06
 BYTE   N05
 BYTE   W06
 BYTE   An1
 BYTE   W06
 BYTE   An0
 BYTE   W06
 BYTE   N05
 BYTE   W06
 BYTE   An1
 BYTE   W06
 BYTE   An0
 BYTE   W06
 BYTE   N05
 BYTE   W06
 BYTE   An1
 BYTE   W06
 BYTE   An0
 BYTE   W06
 BYTE   N05
 BYTE   W06
 BYTE   An1
 BYTE   W06
 BYTE   An0
 BYTE   W06
 BYTE   An1
 BYTE   W06
 BYTE   An0
 BYTE   W06
 BYTE   N05
 BYTE   W06
 BYTE   PEND 
// 018   ----------------------------------------
Label_2_01279179:
 BYTE   N05  Dn0  v127
 BYTE   W06
 BYTE   N05
 BYTE   W06
 BYTE   Dn1
 BYTE   W06
 BYTE   Dn0
 BYTE   W06
 BYTE   N05
 BYTE   W06
 BYTE   Dn1
 BYTE   W06
 BYTE   Dn0
 BYTE   W06
 BYTE   N05
 BYTE   W06
 BYTE   Dn1
 BYTE   W06
 BYTE   Dn0
 BYTE   W06
 BYTE   N05
 BYTE   W06
 BYTE   Dn1
 BYTE   W06
 BYTE   Dn0
 BYTE   W06
 BYTE   N05
 BYTE   W06
 BYTE   Dn1
 BYTE   W06
 BYTE   Dn0
 BYTE   W06
 BYTE   PEND 
// 019   ----------------------------------------
Label_2_0127919C:
 BYTE   N05  En0  v127
 BYTE   W06
 BYTE   N05
 BYTE   W06
 BYTE   En1
 BYTE   W06
 BYTE   En0
 BYTE   W06
 BYTE   N05
 BYTE   W06
 BYTE   En1
 BYTE   W06
 BYTE   En0
 BYTE   W06
 BYTE   N05
 BYTE   W06
 BYTE   En1
 BYTE   W06
 BYTE   En0
 BYTE   W06
 BYTE   N05
 BYTE   W06
 BYTE   En1
 BYTE   W06
 BYTE   En0
 BYTE   W06
 BYTE   N05
 BYTE   W06
 BYTE   En1
 BYTE   W06
 BYTE   En0
 BYTE   W06
 BYTE   PEND 
// 020   ----------------------------------------
Label_2_012791BF:
 BYTE   N05  An0  v127
 BYTE   W06
 BYTE   En1
 BYTE   W06
 BYTE   An1
 BYTE   W06
 BYTE   An0
 BYTE   W06
 BYTE   An1
 BYTE   W06
 BYTE   An0
 BYTE   W06
 BYTE   En1
 BYTE   W06
 BYTE   An1
 BYTE   W06
 BYTE   Gn0
 BYTE   W06
 BYTE   Dn1
 BYTE   W06
 BYTE   Gn1
 BYTE   W06
 BYTE   Gn0
 BYTE   W06
 BYTE   Gn1
 BYTE   W06
 BYTE   Gn0
 BYTE   W06
 BYTE   Dn1
 BYTE   W06
 BYTE   Gn1
 BYTE   W06
 BYTE   PEND 
// 021   ----------------------------------------
Label_2_012791E2:
 BYTE   N05  Fn0  v127
 BYTE   W06
 BYTE   N05
 BYTE   W06
 BYTE   Fn1
 BYTE   W06
 BYTE   Fn0
 BYTE   W06
 BYTE   Fn1
 BYTE   W06
 BYTE   Fn0
 BYTE   W06
 BYTE   En1
 BYTE   W06
 BYTE   Fn1
 BYTE   W06
 BYTE   Fn0
 BYTE   W06
 BYTE   N05
 BYTE   W06
 BYTE   Fn1
 BYTE   W06
 BYTE   Fn0
 BYTE   W06
 BYTE   En1
 BYTE   W06
 BYTE   Fn1
 BYTE   W06
 BYTE   Fn0
 BYTE   W06
 BYTE   Fn1
 BYTE   W06
 BYTE   PEND 
// 022   ----------------------------------------
Label_2_01279205:
 BYTE   N05  Gn0  v127
 BYTE   W06
 BYTE   N05
 BYTE   W06
 BYTE   Gn1
 BYTE   W06
 BYTE   Gn0
 BYTE   W06
 BYTE   Fn1
 BYTE   W06
 BYTE   Gn1
 BYTE   W06
 BYTE   Gn0
 BYTE   W06
 BYTE   Gn1
 BYTE   W06
 BYTE   Gn0
 BYTE   W06
 BYTE   N05
 BYTE   W06
 BYTE   Gn1
 BYTE   W06
 BYTE   Gn0
 BYTE   W06
 BYTE   Gn1
 BYTE   W06
 BYTE   Gn0
 BYTE   W06
 BYTE   Dn1
 BYTE   W06
 BYTE   Gn1
 BYTE   W06
 BYTE   PEND 
// 023   ----------------------------------------
Label_2_01279228:
 BYTE   N05  An0  v127
 BYTE   W06
 BYTE   N05
 BYTE   W06
 BYTE   An1
 BYTE   W06
 BYTE   An0
 BYTE   W06
 BYTE   An1
 BYTE   W06
 BYTE   An0
 BYTE   W06
 BYTE   Gn1
 BYTE   W06
 BYTE   An1
 BYTE   W06
 BYTE   An0
 BYTE   W06
 BYTE   An1
 BYTE   W06
 BYTE   An0
 BYTE   W06
 BYTE   N05
 BYTE   W06
 BYTE   An1
 BYTE   W06
 BYTE   An0
 BYTE   W06
 BYTE   Gn1
 BYTE   W06
 BYTE   An1
 BYTE   W06
 BYTE   PEND 
// 024   ----------------------------------------
Label_2_0127924B:
 BYTE   N05  An0  v127
 BYTE   W06
 BYTE   N05
 BYTE   W06
 BYTE   An1
 BYTE   W06
 BYTE   An0
 BYTE   W06
 BYTE   Gn1
 BYTE   W06
 BYTE   An1
 BYTE   W06
 BYTE   An0
 BYTE   W06
 BYTE   N05
 BYTE   W06
 BYTE   An1
 BYTE   W06
 BYTE   An0
 BYTE   W06
 BYTE   N05
 BYTE   W06
 BYTE   An1
 BYTE   W06
 BYTE   An0
 BYTE   W06
 BYTE   N05
 BYTE   W06
 BYTE   Gn1
 BYTE   W06
 BYTE   An1
 BYTE   W06
 BYTE   PEND 
// 025   ----------------------------------------
 BYTE   PATT
  POIN2 Label_2_01279156
// 026   ----------------------------------------
 BYTE   PATT
  POIN2 Label_2_01279179
// 027   ----------------------------------------
 BYTE   PATT
  POIN2 Label_2_0127919C
// 028   ----------------------------------------
 BYTE   PATT
  POIN2 Label_2_012791BF
// 029   ----------------------------------------
 BYTE   PATT
  POIN2 Label_2_012791E2
// 030   ----------------------------------------
 BYTE   PATT
  POIN2 Label_2_01279205
// 031   ----------------------------------------
 BYTE   PATT
  POIN2 Label_2_01279228
// 032   ----------------------------------------
 BYTE   PATT
  POIN2 Label_2_0127924B
// 033   ----------------------------------------
Label_2_01279296:
 BYTE   N11  Fn0  v127
 BYTE   W12
 BYTE   Gn0
 BYTE   W12
 BYTE   An0
 BYTE   W12
 BYTE   Cn1
 BYTE   W12
 BYTE   Bn0
 BYTE   W12
 BYTE   En1
 BYTE   W12
 BYTE   Dn1
 BYTE   W12
 BYTE   Fn1
 BYTE   W12
 BYTE   PEND 
// 034   ----------------------------------------
Label_2_012792A9:
 BYTE   N11  Bn1  v127
 BYTE   W12
 BYTE   Cn2
 BYTE   W12
 BYTE   Fn1
 BYTE   W12
 BYTE   Gn1
 BYTE   W12
 BYTE   Dn1
 BYTE   W12
 BYTE   Cn1
 BYTE   W12
 BYTE   Bn0
 BYTE   W12
 BYTE   Fn0
 BYTE   W12
 BYTE   PEND 
// 035   ----------------------------------------
Label_2_012792BC:
 BYTE   N11  En0  v127
 BYTE   W12
 BYTE   Fn0
 BYTE   W12
 BYTE   Bn0
 BYTE   W12
 BYTE   Cn1
 BYTE   W12
 BYTE   En1
 BYTE   W12
 BYTE   Fn1
 BYTE   W12
 BYTE   Bn0
 BYTE   W12
 BYTE   Bn1
 BYTE   W12
 BYTE   PEND 
// 036   ----------------------------------------
Label_2_012792CF:
 BYTE   N11  An1  v127
 BYTE   W12
 BYTE   Bn1
 BYTE   W12
 BYTE   En1
 BYTE   W12
 BYTE   Fn1
 BYTE   W12
 BYTE   Bn0
 BYTE   W12
 BYTE   Cn1
 BYTE   W12
 BYTE   En0
 BYTE   W12
 BYTE   Fn0
 BYTE   W12
 BYTE   PEND 
// 037   ----------------------------------------
 BYTE   PATT
  POIN2 Label_2_01279296
// 038   ----------------------------------------
 BYTE   PATT
  POIN2 Label_2_012792A9
// 039   ----------------------------------------
 BYTE   PATT
  POIN2 Label_2_012792BC
// 040   ----------------------------------------
 BYTE   PATT
  POIN2 Label_2_012792CF
// 041   ----------------------------------------
 BYTE   W20
 BYTE   GoTo
  POIN2 Label_2_0127903F
 BYTE   FINE

//**************** Track 4 (Midi-Chn.3) ****************//

songF3_004:
// 000   ----------------------------------------
 BYTE   KEYSH   songF3_key+0
Label_3_012792FF:
 BYTE   VOICE   38
 BYTE   VOL   35*songF3_mvl/mxv
 BYTE   PAN   c_v-4
 BYTE   BEND   c_v+0
 BYTE   N11  En0  v127
 BYTE   W12
 BYTE   Fn0
 BYTE   W12
 BYTE   Fs0
 BYTE   W12
 BYTE   Gn0
 BYTE   W12
 BYTE   As0
 BYTE   W12
 BYTE   An0
 BYTE   W12
 BYTE   N07  Cn1
 BYTE   W09
 BYTE   N02  En1
 BYTE   W03
 BYTE   Bn0
 BYTE   W03
 BYTE   An0
 BYTE   W03
 BYTE   Fs0
 BYTE   W03
 BYTE   Fn0
 BYTE   W03
// 001   ----------------------------------------
Label_3_01279323:
 BYTE   N05  En0  v127
 BYTE   W06
 BYTE   N05
 BYTE   W06
 BYTE   En1
 BYTE   W06
 BYTE   En0
 BYTE   W06
 BYTE   En1
 BYTE   W06
 BYTE   En0
 BYTE   W06
 BYTE   N05
 BYTE   W06
 BYTE   En1
 BYTE   W06
 BYTE   En0
 BYTE   W06
 BYTE   N05
 BYTE   W06
 BYTE   En1
 BYTE   W06
 BYTE   En0
 BYTE   W06
 BYTE   N05
 BYTE   W06
 BYTE   En1
 BYTE   W06
 BYTE   En0
 BYTE   W06
 BYTE   En1
 BYTE   W06
 BYTE   PEND 
// 002   ----------------------------------------
 BYTE   PATT
  POIN2 Label_3_01279323
// 003   ----------------------------------------
Label_3_0127934B:
 BYTE   N05  Fn0  v127
 BYTE   W06
 BYTE   N05
 BYTE   W06
 BYTE   Fn1
 BYTE   W06
 BYTE   Fn0
 BYTE   W06
 BYTE   Fn1
 BYTE   W06
 BYTE   Fn0
 BYTE   W06
 BYTE   N05
 BYTE   W06
 BYTE   Fn1
 BYTE   W06
 BYTE   Fn0
 BYTE   W06
 BYTE   N05
 BYTE   W06
 BYTE   Fn1
 BYTE   W06
 BYTE   Fn0
 BYTE   W06
 BYTE   N05
 BYTE   W06
 BYTE   Fn1
 BYTE   W06
 BYTE   Fn0
 BYTE   W06
 BYTE   Fn1
 BYTE   W06
 BYTE   PEND 
// 004   ----------------------------------------
 BYTE   PATT
  POIN2 Label_3_0127934B
// 005   ----------------------------------------
 BYTE   PATT
  POIN2 Label_3_01279323
// 006   ----------------------------------------
 BYTE   PATT
  POIN2 Label_3_01279323
// 007   ----------------------------------------
Label_3_0127937D:
 BYTE   N05  Gn0  v127
 BYTE   W06
 BYTE   N05
 BYTE   W06
 BYTE   Gn1
 BYTE   W06
 BYTE   Gn0
 BYTE   W06
 BYTE   Gn1
 BYTE   W06
 BYTE   Gn0
 BYTE   W06
 BYTE   N05
 BYTE   W06
 BYTE   Gn1
 BYTE   W06
 BYTE   Gn0
 BYTE   W06
 BYTE   N05
 BYTE   W06
 BYTE   Gn1
 BYTE   W06
 BYTE   Gn0
 BYTE   W06
 BYTE   N05
 BYTE   W06
 BYTE   Gn1
 BYTE   W06
 BYTE   Gn0
 BYTE   W06
 BYTE   Gn1
 BYTE   W06
 BYTE   PEND 
// 008   ----------------------------------------
 BYTE   PATT
  POIN2 Label_3_0127937D
// 009   ----------------------------------------
Label_3_012793A5:
 BYTE   N11  Dn1  v127
 BYTE   W12
 BYTE   Cs1
 BYTE   W12
 BYTE   Cn1
 BYTE   W12
 BYTE   Bn0
 BYTE   W12
 BYTE   Ds1
 BYTE   W12
 BYTE   Dn1
 BYTE   W12
 BYTE   Cs1
 BYTE   W12
 BYTE   Cn1
 BYTE   W12
 BYTE   PEND 
// 010   ----------------------------------------
Label_3_012793B8:
 BYTE   N11  Dn1  v127
 BYTE   W12
 BYTE   Cs1
 BYTE   W12
 BYTE   Cn1
 BYTE   W12
 BYTE   Bn0
 BYTE   W12
 BYTE   An0
 BYTE   W12
 BYTE   Gs0
 BYTE   W12
 BYTE   Gn0
 BYTE   W12
 BYTE   Fs0
 BYTE   W12
 BYTE   PEND 
// 011   ----------------------------------------
 BYTE   PATT
  POIN2 Label_3_012793A5
// 012   ----------------------------------------
 BYTE   PATT
  POIN2 Label_3_012793B8
// 013   ----------------------------------------
 BYTE   N16  Bn0  v127
 BYTE   W18
 BYTE   As0
 BYTE   W18
 BYTE   N11  An0
 BYTE   W12
 BYTE   N16  Gs0
 BYTE   W18
 BYTE   Gn0
 BYTE   W18
 BYTE   N11  Fs0
 BYTE   W12
// 014   ----------------------------------------
 BYTE   N16  Fs1
 BYTE   W18
 BYTE   Gn0
 BYTE   W18
 BYTE   N11  Gs0
 BYTE   W12
 BYTE   N16  An0
 BYTE   W18
 BYTE   As0
 BYTE   W18
 BYTE   N11  Bn0
 BYTE   W12
// 015   ----------------------------------------
 BYTE   N16  Fs0
 BYTE   W18
 BYTE   Gn0
 BYTE   W18
 BYTE   N11  Gs0
 BYTE   W12
 BYTE   N16  An0
 BYTE   W18
 BYTE   As0
 BYTE   W18
 BYTE   N11  Bn0
 BYTE   W12
// 016   ----------------------------------------
 BYTE   N16  Cn1
 BYTE   W18
 BYTE   Bn0
 BYTE   W18
 BYTE   N11  Fn0
 BYTE   W12
 BYTE   N16  En0
 BYTE   W18
 BYTE   As0
 BYTE   W18
 BYTE   N11  En1
 BYTE   W12
// 017   ----------------------------------------
Label_3_01279416:
 BYTE   N05  An0  v127
 BYTE   W06
 BYTE   N05
 BYTE   W06
 BYTE   An1
 BYTE   W06
 BYTE   An0
 BYTE   W06
 BYTE   N05
 BYTE   W06
 BYTE   An1
 BYTE   W06
 BYTE   An0
 BYTE   W06
 BYTE   N05
 BYTE   W06
 BYTE   An1
 BYTE   W06
 BYTE   An0
 BYTE   W06
 BYTE   N05
 BYTE   W06
 BYTE   An1
 BYTE   W06
 BYTE   An0
 BYTE   W06
 BYTE   An1
 BYTE   W06
 BYTE   An0
 BYTE   W06
 BYTE   N05
 BYTE   W06
 BYTE   PEND 
// 018   ----------------------------------------
Label_3_01279439:
 BYTE   N05  Dn0  v127
 BYTE   W06
 BYTE   N05
 BYTE   W06
 BYTE   Dn1
 BYTE   W06
 BYTE   Dn0
 BYTE   W06
 BYTE   N05
 BYTE   W06
 BYTE   Dn1
 BYTE   W06
 BYTE   Dn0
 BYTE   W06
 BYTE   N05
 BYTE   W06
 BYTE   Dn1
 BYTE   W06
 BYTE   Dn0
 BYTE   W06
 BYTE   N05
 BYTE   W06
 BYTE   Dn1
 BYTE   W06
 BYTE   Dn0
 BYTE   W06
 BYTE   N05
 BYTE   W06
 BYTE   Dn1
 BYTE   W06
 BYTE   Dn0
 BYTE   W06
 BYTE   PEND 
// 019   ----------------------------------------
Label_3_0127945C:
 BYTE   N05  En0  v127
 BYTE   W06
 BYTE   N05
 BYTE   W06
 BYTE   En1
 BYTE   W06
 BYTE   En0
 BYTE   W06
 BYTE   N05
 BYTE   W06
 BYTE   En1
 BYTE   W06
 BYTE   En0
 BYTE   W06
 BYTE   N05
 BYTE   W06
 BYTE   En1
 BYTE   W06
 BYTE   En0
 BYTE   W06
 BYTE   N05
 BYTE   W06
 BYTE   En1
 BYTE   W06
 BYTE   En0
 BYTE   W06
 BYTE   N05
 BYTE   W06
 BYTE   En1
 BYTE   W06
 BYTE   En0
 BYTE   W06
 BYTE   PEND 
// 020   ----------------------------------------
Label_3_0127947F:
 BYTE   N05  An0  v127
 BYTE   W06
 BYTE   En1
 BYTE   W06
 BYTE   An1
 BYTE   W06
 BYTE   An0
 BYTE   W06
 BYTE   An1
 BYTE   W06
 BYTE   An0
 BYTE   W06
 BYTE   En1
 BYTE   W06
 BYTE   An1
 BYTE   W06
 BYTE   Gn0
 BYTE   W06
 BYTE   Dn1
 BYTE   W06
 BYTE   Gn1
 BYTE   W06
 BYTE   Gn0
 BYTE   W06
 BYTE   Gn1
 BYTE   W06
 BYTE   Gn0
 BYTE   W06
 BYTE   Dn1
 BYTE   W06
 BYTE   Gn1
 BYTE   W06
 BYTE   PEND 
// 021   ----------------------------------------
Label_3_012794A2:
 BYTE   N05  Fn0  v127
 BYTE   W06
 BYTE   N05
 BYTE   W06
 BYTE   Fn1
 BYTE   W06
 BYTE   Fn0
 BYTE   W06
 BYTE   Fn1
 BYTE   W06
 BYTE   Fn0
 BYTE   W06
 BYTE   En1
 BYTE   W06
 BYTE   Fn1
 BYTE   W06
 BYTE   Fn0
 BYTE   W06
 BYTE   N05
 BYTE   W06
 BYTE   Fn1
 BYTE   W06
 BYTE   Fn0
 BYTE   W06
 BYTE   En1
 BYTE   W06
 BYTE   Fn1
 BYTE   W06
 BYTE   Fn0
 BYTE   W06
 BYTE   Fn1
 BYTE   W06
 BYTE   PEND 
// 022   ----------------------------------------
Label_3_012794C5:
 BYTE   N05  Gn0  v127
 BYTE   W06
 BYTE   N05
 BYTE   W06
 BYTE   Gn1
 BYTE   W06
 BYTE   Gn0
 BYTE   W06
 BYTE   Fn1
 BYTE   W06
 BYTE   Gn1
 BYTE   W06
 BYTE   Gn0
 BYTE   W06
 BYTE   Gn1
 BYTE   W06
 BYTE   Gn0
 BYTE   W06
 BYTE   N05
 BYTE   W06
 BYTE   Gn1
 BYTE   W06
 BYTE   Gn0
 BYTE   W06
 BYTE   Gn1
 BYTE   W06
 BYTE   Gn0
 BYTE   W06
 BYTE   Dn1
 BYTE   W06
 BYTE   Gn1
 BYTE   W06
 BYTE   PEND 
// 023   ----------------------------------------
Label_3_012794E8:
 BYTE   N05  An0  v127
 BYTE   W06
 BYTE   N05
 BYTE   W06
 BYTE   An1
 BYTE   W06
 BYTE   An0
 BYTE   W06
 BYTE   An1
 BYTE   W06
 BYTE   An0
 BYTE   W06
 BYTE   Gn1
 BYTE   W06
 BYTE   An1
 BYTE   W06
 BYTE   An0
 BYTE   W06
 BYTE   An1
 BYTE   W06
 BYTE   An0
 BYTE   W06
 BYTE   N05
 BYTE   W06
 BYTE   An1
 BYTE   W06
 BYTE   An0
 BYTE   W06
 BYTE   Gn1
 BYTE   W06
 BYTE   An1
 BYTE   W06
 BYTE   PEND 
// 024   ----------------------------------------
Label_3_0127950B:
 BYTE   N05  An0  v127
 BYTE   W06
 BYTE   N05
 BYTE   W06
 BYTE   An1
 BYTE   W06
 BYTE   An0
 BYTE   W06
 BYTE   Gn1
 BYTE   W06
 BYTE   An1
 BYTE   W06
 BYTE   An0
 BYTE   W06
 BYTE   N05
 BYTE   W06
 BYTE   An1
 BYTE   W06
 BYTE   An0
 BYTE   W06
 BYTE   N05
 BYTE   W06
 BYTE   An1
 BYTE   W06
 BYTE   An0
 BYTE   W06
 BYTE   N05
 BYTE   W06
 BYTE   Gn1
 BYTE   W06
 BYTE   An1
 BYTE   W06
 BYTE   PEND 
// 025   ----------------------------------------
 BYTE   PATT
  POIN2 Label_3_01279416
// 026   ----------------------------------------
 BYTE   PATT
  POIN2 Label_3_01279439
// 027   ----------------------------------------
 BYTE   PATT
  POIN2 Label_3_0127945C
// 028   ----------------------------------------
 BYTE   PATT
  POIN2 Label_3_0127947F
// 029   ----------------------------------------
 BYTE   PATT
  POIN2 Label_3_012794A2
// 030   ----------------------------------------
 BYTE   PATT
  POIN2 Label_3_012794C5
// 031   ----------------------------------------
 BYTE   PATT
  POIN2 Label_3_012794E8
// 032   ----------------------------------------
 BYTE   PATT
  POIN2 Label_3_0127950B
// 033   ----------------------------------------
Label_3_01279556:
 BYTE   N11  Fn0  v127
 BYTE   W12
 BYTE   Gn0
 BYTE   W12
 BYTE   An0
 BYTE   W12
 BYTE   Cn1
 BYTE   W12
 BYTE   Bn0
 BYTE   W12
 BYTE   En1
 BYTE   W12
 BYTE   Dn1
 BYTE   W12
 BYTE   Fn1
 BYTE   W12
 BYTE   PEND 
// 034   ----------------------------------------
Label_3_01279569:
 BYTE   N11  Bn1  v127
 BYTE   W12
 BYTE   Cn2
 BYTE   W12
 BYTE   Fn1
 BYTE   W12
 BYTE   Gn1
 BYTE   W12
 BYTE   Dn1
 BYTE   W12
 BYTE   Cn1
 BYTE   W12
 BYTE   Bn0
 BYTE   W12
 BYTE   Fn0
 BYTE   W12
 BYTE   PEND 
// 035   ----------------------------------------
Label_3_0127957C:
 BYTE   N11  En0  v127
 BYTE   W12
 BYTE   Fn0
 BYTE   W12
 BYTE   Bn0
 BYTE   W12
 BYTE   Cn1
 BYTE   W12
 BYTE   En1
 BYTE   W12
 BYTE   Fn1
 BYTE   W12
 BYTE   Bn0
 BYTE   W12
 BYTE   Bn1
 BYTE   W12
 BYTE   PEND 
// 036   ----------------------------------------
Label_3_0127958F:
 BYTE   N11  An1  v127
 BYTE   W12
 BYTE   Bn1
 BYTE   W12
 BYTE   En1
 BYTE   W12
 BYTE   Fn1
 BYTE   W12
 BYTE   Bn0
 BYTE   W12
 BYTE   Cn1
 BYTE   W12
 BYTE   En0
 BYTE   W12
 BYTE   Fn0
 BYTE   W12
 BYTE   PEND 
// 037   ----------------------------------------
 BYTE   PATT
  POIN2 Label_3_01279556
// 038   ----------------------------------------
 BYTE   PATT
  POIN2 Label_3_01279569
// 039   ----------------------------------------
 BYTE   PATT
  POIN2 Label_3_0127957C
// 040   ----------------------------------------
 BYTE   PATT
  POIN2 Label_3_0127958F
// 041   ----------------------------------------
 BYTE   W20
 BYTE   GoTo
  POIN2 Label_3_012792FF
 BYTE   FINE

//**************** Track 5 (Midi-Chn.4) ****************//

songF3_005:
// 000   ----------------------------------------
 BYTE   KEYSH   songF3_key+0
Label_4_012795BF:
 BYTE   VOICE   81
 BYTE   VOL   26*songF3_mvl/mxv
 BYTE   PAN   c_v+0
 BYTE   BEND   c_v-1
 BYTE   W96
// 001   ----------------------------------------
 BYTE   W11
 BYTE   CnM2
 BYTE   N14  Bn4  v127
 BYTE   W02
 BYTE   BEND   c_v-31
 BYTE   W02
 BYTE   Cs2
 BYTE   W02
 BYTE   Gs2
 BYTE   W02
 BYTE   Cn3
 BYTE   W02
 BYTE   Dn3
 BYTE   W02
 BYTE   Ds3
 BYTE   W04
 BYTE   N14  As4
 BYTE   W16
 BYTE   En4
 BYTE   W16
 BYTE   An4
 BYTE   W16
 BYTE   Gs4
 BYTE   W16
 BYTE   Dn4
 BYTE   W05
// 002   ----------------------------------------
 BYTE   W11
 BYTE   En4
 BYTE   W16
 BYTE   Fn4
 BYTE   W16
 BYTE   Bn3
 BYTE   W16
 BYTE   As3
 BYTE   W16
 BYTE   An3
 BYTE   W16
 BYTE   En3
 BYTE   W05
// 003   ----------------------------------------
 BYTE   W11
 BYTE   N07  Fn3
 BYTE   W08
 BYTE   En3
 BYTE   W08
 BYTE   Cn4
 BYTE   W08
 BYTE   Bn3
 BYTE   W08
 BYTE   En4
 BYTE   W08
 BYTE   Cn4
 BYTE   W08
 BYTE   Bn3
 BYTE   W08
 BYTE   Fn3
 BYTE   W08
 BYTE   Fn4
 BYTE   W08
 BYTE   En4
 BYTE   W08
 BYTE   Bn4
 BYTE   W05
// 004   ----------------------------------------
 BYTE   W03
 BYTE   Cn5
 BYTE   W08
 BYTE   N04  Fn5
 BYTE   W06
 BYTE   En5
 BYTE   W06
 BYTE   Bn4
 BYTE   W06
 BYTE   Bn5
 BYTE   W06
 BYTE   Fn5
 BYTE   W06
 BYTE   En5
 BYTE   W06
 BYTE   Bn4
 BYTE   W06
 BYTE   Fn4
 BYTE   W06
 BYTE   En4
 BYTE   W06
 BYTE   Bn3
 BYTE   W06
 BYTE   En4
 BYTE   W06
 BYTE   Fn4
 BYTE   W06
 BYTE   Bn4
 BYTE   W06
 BYTE   Fn4
 BYTE   W06
 BYTE   En4
 BYTE   W01
// 005   ----------------------------------------
 BYTE   W05
 BYTE   Bn3
 BYTE   W06
 BYTE   N14  En4
 BYTE   W16
 BYTE   Fn4
 BYTE   W16
 BYTE   En4
 BYTE   W16
 BYTE   BEND   c_v-64
 BYTE   N14  Bn4
 BYTE   W02
 BYTE   BEND   c_v-31
 BYTE   W02
 BYTE   Cs2
 BYTE   W02
 BYTE   Gs2
 BYTE   W02
 BYTE   Cn3
 BYTE   W02
 BYTE   Dn3
 BYTE   W02
 BYTE   Ds3
 BYTE   W04
 BYTE   N14  Fn4
 BYTE   W16
 BYTE   En4
 BYTE   W05
// 006   ----------------------------------------
 BYTE   W11
 BYTE   Dn4
 BYTE   W16
 BYTE   En4
 BYTE   W16
 BYTE   Fn4
 BYTE   W16
 BYTE   En4
 BYTE   W16
 BYTE   Dn4
 BYTE   W16
 BYTE   En4
 BYTE   W05
// 007   ----------------------------------------
 BYTE   W11
 BYTE   N07  Gs4
 BYTE   W08
 BYTE   Gn4
 BYTE   W08
 BYTE   Gs4
 BYTE   W08
 BYTE   Dn5
 BYTE   W08
 BYTE   Gs4
 BYTE   W08
 BYTE   Gn4
 BYTE   W08
 BYTE   Gn5
 BYTE   W08
 BYTE   Dn5
 BYTE   W08
 BYTE   Gs4
 BYTE   W08
 BYTE   Gn4
 BYTE   W08
 BYTE   Gs4
 BYTE   W05
// 008   ----------------------------------------
 BYTE   W03
 BYTE   Dn5
 BYTE   W08
 BYTE   N05  Gs5
 BYTE   W06
 BYTE   Gn5
 BYTE   W06
 BYTE   Gs5
 BYTE   W06
 BYTE   Dn5
 BYTE   W06
 BYTE   Gn5
 BYTE   W06
 BYTE   Gs5
 BYTE   W06
 BYTE   Gn5
 BYTE   W06
 BYTE   Dn5
 BYTE   W06
 BYTE   Gs4
 BYTE   W06
 BYTE   Gn4
 BYTE   W06
 BYTE   Gs4
 BYTE   W06
 BYTE   Dn5
 BYTE   W06
 BYTE   Gs5
 BYTE   W06
 BYTE   Gn5
 BYTE   W06
 BYTE   Dn5
 BYTE   W01
// 009   ----------------------------------------
 BYTE   W05
 BYTE   Gs4
 BYTE   W06
 BYTE   BEND   c_v-64
 BYTE   N14  Gs3
 BYTE   N14  Fn4
 BYTE   W02
 BYTE   BEND   c_v-31
 BYTE   W02
 BYTE   Cs2
 BYTE   W02
 BYTE   Gs2
 BYTE   W02
 BYTE   Cn3
 BYTE   W02
 BYTE   Dn3
 BYTE   W02
 BYTE   Ds3
 BYTE   W04
 BYTE   N14  Dn4
 BYTE   N14  Gs4
 BYTE   W16
 BYTE   Fn4
 BYTE   N14  Bn4
 BYTE   W15
 BYTE   BEND   c_v-1
 BYTE   W01
 BYTE   N44  An4
 BYTE   N44  Ds5
 BYTE   W12
 BYTE   BEND   c_v-2
 BYTE   W06
 BYTE   Cs3
 BYTE   W04
 BYTE   Cn3
 BYTE   W02
 BYTE   Bn2
 BYTE   W02
 BYTE   As2
 BYTE   W02
 BYTE   An2
 BYTE   W02
 BYTE   Gn2
 BYTE   W02
 BYTE   Fn2
 BYTE   W02
 BYTE   Dn2
 BYTE   W02
 BYTE   Bn1
 BYTE   W01
// 010   ----------------------------------------
 BYTE   W01
 BYTE   Gn1
 BYTE   W02
 BYTE   Cs1
 BYTE   W02
 BYTE   Fs0
 BYTE   W02
 BYTE   AnM1
 BYTE   W02
 BYTE   BnM2
 BYTE   W01
 BYTE   Ds3
 BYTE   W01
 BYTE   CnM2
 BYTE   N14  Fn4
 BYTE   N14  Bn4
 BYTE   W02
 BYTE   BEND   c_v-31
 BYTE   W02
 BYTE   Cs2
 BYTE   W02
 BYTE   Gs2
 BYTE   W02
 BYTE   Cn3
 BYTE   W02
 BYTE   Dn3
 BYTE   W02
 BYTE   Ds3
 BYTE   W04
 BYTE   N14  Gs4
 BYTE   N14  Dn5
 BYTE   W16
 BYTE   Bn4
 BYTE   N14  Fn5
 BYTE   W15
 BYTE   BEND   c_v-1
 BYTE   W01
 BYTE   N44  An4
 BYTE   N44  Ds5
 BYTE   W12
 BYTE   BEND   c_v-2
 BYTE   W06
 BYTE   Cs3
 BYTE   W04
 BYTE   Cn3
 BYTE   W02
 BYTE   Bn2
 BYTE   W02
 BYTE   As2
 BYTE   W02
 BYTE   An2
 BYTE   W02
 BYTE   Gn2
 BYTE   W02
 BYTE   Fn2
 BYTE   W02
 BYTE   Dn2
 BYTE   W02
 BYTE   Bn1
 BYTE   W01
// 011   ----------------------------------------
 BYTE   W01
 BYTE   Gn1
 BYTE   W02
 BYTE   Cs1
 BYTE   W02
 BYTE   Fs0
 BYTE   W02
 BYTE   AnM1
 BYTE   W02
 BYTE   BnM2
 BYTE   W01
 BYTE   Ds3
 BYTE   W01
 BYTE   CnM2
 BYTE   N14  Gs4
 BYTE   N14  Dn5
 BYTE   W02
 BYTE   BEND   c_v-31
 BYTE   W02
 BYTE   Cs2
 BYTE   W02
 BYTE   Gs2
 BYTE   W02
 BYTE   Cn3
 BYTE   W02
 BYTE   Dn3
 BYTE   W02
 BYTE   Ds3
 BYTE   W04
 BYTE   N14  Fn4
 BYTE   N14  Bn4
 BYTE   W16
 BYTE   Gs4
 BYTE   N14  Dn5
 BYTE   W16
 BYTE   BEND   c_v-1
 BYTE   N44  An4
 BYTE   N44  Cn5
 BYTE   W12
 BYTE   BEND   c_v-2
 BYTE   W06
 BYTE   Cs3
 BYTE   W04
 BYTE   Cn3
 BYTE   W02
 BYTE   Bn2
 BYTE   W02
 BYTE   As2
 BYTE   W02
 BYTE   An2
 BYTE   W02
 BYTE   Gn2
 BYTE   W02
 BYTE   Fn2
 BYTE   W02
 BYTE   Dn2
 BYTE   W02
 BYTE   Bn1
 BYTE   W01
// 012   ----------------------------------------
 BYTE   W01
 BYTE   Gn1
 BYTE   W02
 BYTE   Cs1
 BYTE   W02
 BYTE   Fs0
 BYTE   W02
 BYTE   AnM1
 BYTE   W02
 BYTE   BnM2
 BYTE   W01
 BYTE   Ds3
 BYTE   W01
 BYTE   CnM2
 BYTE   N44  Gs3
 BYTE   N44  Dn4
 BYTE   W02
 BYTE   BEND   c_v-51
 BYTE   W02
 BYTE   Cn0
 BYTE   W02
 BYTE   Gs0
 BYTE   W02
 BYTE   Ds1
 BYTE   W02
 BYTE   Gs1
 BYTE   W02
 BYTE   Cn2
 BYTE   W02
 BYTE   Ds2
 BYTE   W02
 BYTE   Fs2
 BYTE   W02
 BYTE   Gs2
 BYTE   W02
 BYTE   An2
 BYTE   W02
 BYTE   Bn2
 BYTE   W02
 BYTE   Cn3
 BYTE   W04
 BYTE   Cs3
 BYTE   W02
 BYTE   Dn3
 BYTE   W06
 BYTE   Ds3
 BYTE   W11
 BYTE   Ds3
 BYTE   W01
 BYTE   N44  An4
 BYTE   N44  Ds5
 BYTE   W12
 BYTE   BEND   c_v-2
 BYTE   W06
 BYTE   Cs3
 BYTE   W04
 BYTE   Cn3
 BYTE   W02
 BYTE   Bn2
 BYTE   W02
 BYTE   As2
 BYTE   W02
 BYTE   An2
 BYTE   W02
 BYTE   Gn2
 BYTE   W02
 BYTE   Fn2
 BYTE   W02
 BYTE   Dn2
 BYTE   W02
 BYTE   Bn1
 BYTE   W01
// 013   ----------------------------------------
 BYTE   W01
 BYTE   Gn1
 BYTE   W02
 BYTE   Cs1
 BYTE   W02
 BYTE   Fs0
 BYTE   W02
 BYTE   AnM1
 BYTE   W02
 BYTE   BnM2
 BYTE   W01
 BYTE   Ds3
 BYTE   W01
 BYTE   N07  Bn4
 BYTE   W08
 BYTE   Cn5
 BYTE   W08
 BYTE   Dn5
 BYTE   W08
 BYTE   Bn4
 BYTE   W08
 BYTE   Cn5
 BYTE   W08
 BYTE   Dn5
 BYTE   W08
 BYTE   Bn4
 BYTE   W08
 BYTE   Cn5
 BYTE   W08
 BYTE   Dn5
 BYTE   W08
 BYTE   Ds5
 BYTE   W08
 BYTE   Dn5
 BYTE   W05
// 014   ----------------------------------------
 BYTE   W03
 BYTE   Cn5
 BYTE   W08
 BYTE   Bn4
 BYTE   W08
 BYTE   Cn5
 BYTE   W08
 BYTE   Dn5
 BYTE   W08
 BYTE   Ds5
 BYTE   W08
 BYTE   Dn5
 BYTE   W08
 BYTE   Cn5
 BYTE   W08
 BYTE   An4
 BYTE   W08
 BYTE   Gs4
 BYTE   W08
 BYTE   Fs4
 BYTE   W08
 BYTE   Fn4
 BYTE   W08
 BYTE   Ds4
 BYTE   W05
// 015   ----------------------------------------
 BYTE   W03
 BYTE   Dn4
 BYTE   W08
 BYTE   Bn3
 BYTE   W08
 BYTE   Cn4
 BYTE   W08
 BYTE   Dn4
 BYTE   W08
 BYTE   Ds4
 BYTE   W08
 BYTE   Bn3
 BYTE   W08
 BYTE   Cn4
 BYTE   W08
 BYTE   Dn4
 BYTE   W08
 BYTE   Ds4
 BYTE   W08
 BYTE   Fn4
 BYTE   W08
 BYTE   Fs4
 BYTE   W08
 BYTE   Gs4
 BYTE   W05
// 016   ----------------------------------------
 BYTE   W03
 BYTE   An4
 BYTE   W08
 BYTE   N07
 BYTE   W08
 BYTE   Bn4
 BYTE   W08
 BYTE   Fn4
 BYTE   W08
 BYTE   Fs4
 BYTE   W08
 BYTE   Gs4
 BYTE   W08
 BYTE   An4
 BYTE   W08
 BYTE   Ds5
 BYTE   W08
 BYTE   Dn5
 BYTE   W08
 BYTE   Cn5
 BYTE   W08
 BYTE   Bn4
 BYTE   W08
 BYTE   Fs5
 BYTE   W05
// 017   ----------------------------------------
 BYTE   W03
 BYTE   Fn5
 BYTE   W08
 BYTE   N16  An3
 BYTE   W18
 BYTE   Bn3
 BYTE   W18
 BYTE   N11  Cn4
 BYTE   W12
 BYTE   N16  Dn4
 BYTE   W18
 BYTE   Cn4
 BYTE   W18
 BYTE   N11  Dn4
 BYTE   W01
// 018   ----------------------------------------
Label_4_0127982D:
 BYTE   W11
 BYTE   N16  En4  v127
 BYTE   W18
 BYTE   Fn4
 BYTE   W18
 BYTE   N11  Gn4
 BYTE   W12
 BYTE   N16  Fn4
 BYTE   W18
 BYTE   En4
 BYTE   W18
 BYTE   N11  Dn4
 BYTE   W01
 BYTE   PEND 
// 019   ----------------------------------------
Label_4_01279840:
 BYTE   W11
 BYTE   N16  Bn4  v127
 BYTE   W18
 BYTE   An4
 BYTE   W18
 BYTE   N11  Bn4
 BYTE   W12
 BYTE   N16  Cn5
 BYTE   W18
 BYTE   Bn4
 BYTE   W18
 BYTE   N11  An4
 BYTE   W01
 BYTE   PEND 
// 020   ----------------------------------------
Label_4_01279853:
 BYTE   W11
 BYTE   N16  Dn5  v127
 BYTE   W18
 BYTE   Cn5
 BYTE   W18
 BYTE   N11  Bn4
 BYTE   W12
 BYTE   N16  An4
 BYTE   W18
 BYTE   Bn4
 BYTE   W18
 BYTE   N11  Cn5
 BYTE   W01
 BYTE   PEND 
// 021   ----------------------------------------
Label_4_01279866:
 BYTE   W11
 BYTE   BEND   c_v-64
 BYTE   N44  Bn4  v127
 BYTE   W02
 BYTE   BEND   c_v-51
 BYTE   W02
 BYTE   Cn0
 BYTE   W02
 BYTE   Gs0
 BYTE   W02
 BYTE   Ds1
 BYTE   W02
 BYTE   Gs1
 BYTE   W02
 BYTE   Cn2
 BYTE   W02
 BYTE   Ds2
 BYTE   W02
 BYTE   Fs2
 BYTE   W02
 BYTE   Gs2
 BYTE   W02
 BYTE   An2
 BYTE   W02
 BYTE   Bn2
 BYTE   W02
 BYTE   Cn3
 BYTE   W04
 BYTE   Cs3
 BYTE   W02
 BYTE   Dn3
 BYTE   W06
 BYTE   Ds3
 BYTE   W12
 BYTE   N44  An4
 BYTE   W36
 BYTE   W01
 BYTE   PEND 
// 022   ----------------------------------------
Label_4_01279891:
 BYTE   W11
 BYTE   N16  Bn4  v127
 BYTE   W18
 BYTE   An4
 BYTE   W18
 BYTE   N11  Gn4
 BYTE   W12
 BYTE   N16  Cn5
 BYTE   W18
 BYTE   Bn4
 BYTE   W18
 BYTE   N11  An4
 BYTE   W01
 BYTE   PEND 
// 023   ----------------------------------------
Label_4_012798A4:
 BYTE   W11
 BYTE   BEND   c_v-64
 BYTE   N32  En5  v127
 BYTE   W02
 BYTE   BEND   c_v-47
 BYTE   W02
 BYTE   Fn0
 BYTE   W02
 BYTE   Ds1
 BYTE   W02
 BYTE   An1
 BYTE   W02
 BYTE   Dn2
 BYTE   W02
 BYTE   Fs2
 BYTE   W02
 BYTE   Gs2
 BYTE   W02
 BYTE   As2
 BYTE   W02
 BYTE   Cn3
 BYTE   W02
 BYTE   Cs3
 BYTE   W04
 BYTE   Dn3
 BYTE   W04
 BYTE   Ds3
 BYTE   W08
 BYTE   N32  An4
 BYTE   W36
 BYTE   N22  En5
 BYTE   W13
 BYTE   PEND 
// 024   ----------------------------------------
Label_4_012798CB:
 BYTE   W11
 BYTE   BEND   c_v-64
 BYTE   N44  En5  v127
 BYTE   W02
 BYTE   BEND   c_v-51
 BYTE   W02
 BYTE   Cn0
 BYTE   W02
 BYTE   Gs0
 BYTE   W02
 BYTE   Ds1
 BYTE   W02
 BYTE   Gs1
 BYTE   W02
 BYTE   Cn2
 BYTE   W02
 BYTE   Ds2
 BYTE   W02
 BYTE   Fs2
 BYTE   W02
 BYTE   Gs2
 BYTE   W02
 BYTE   An2
 BYTE   W02
 BYTE   Bn2
 BYTE   W02
 BYTE   Cn3
 BYTE   W04
 BYTE   Cs3
 BYTE   W02
 BYTE   Dn3
 BYTE   W06
 BYTE   Ds3
 BYTE   W12
 BYTE   N44  An4
 BYTE   W36
 BYTE   W01
 BYTE   PEND 
// 025   ----------------------------------------
 BYTE   W11
 BYTE   N16  An3
 BYTE   W18
 BYTE   Bn3
 BYTE   W18
 BYTE   N11  Cn4
 BYTE   W12
 BYTE   N16  Dn4
 BYTE   W18
 BYTE   Cn4
 BYTE   W18
 BYTE   N11  Dn4
 BYTE   W01
// 026   ----------------------------------------
 BYTE   PATT
  POIN2 Label_4_0127982D
// 027   ----------------------------------------
 BYTE   PATT
  POIN2 Label_4_01279840
// 028   ----------------------------------------
 BYTE   PATT
  POIN2 Label_4_01279853
// 029   ----------------------------------------
 BYTE   PATT
  POIN2 Label_4_01279866
// 030   ----------------------------------------
 BYTE   PATT
  POIN2 Label_4_01279891
// 031   ----------------------------------------
 BYTE   PATT
  POIN2 Label_4_012798A4
// 032   ----------------------------------------
 BYTE   PATT
  POIN2 Label_4_012798CB
// 033   ----------------------------------------
 BYTE   W11
 BYTE   N05  En5  v124
 BYTE   W06
 BYTE   Ds5
 BYTE   W06
 BYTE   As4
 BYTE   W06
 BYTE   An4
 BYTE   W06
 BYTE   En5
 BYTE   W06
 BYTE   Ds5
 BYTE   W06
 BYTE   As4
 BYTE   W06
 BYTE   An4
 BYTE   W06
 BYTE   En5
 BYTE   W06
 BYTE   Ds5
 BYTE   W06
 BYTE   As4
 BYTE   W06
 BYTE   An4
 BYTE   W06
 BYTE   En5
 BYTE   W06
 BYTE   Ds5
 BYTE   W06
 BYTE   As4
 BYTE   W01
// 034   ----------------------------------------
 BYTE   W05
 BYTE   An4
 BYTE   W06
 BYTE   En5
 BYTE   W06
 BYTE   Ds5
 BYTE   W06
 BYTE   As4
 BYTE   W06
 BYTE   An4
 BYTE   W06
 BYTE   En5
 BYTE   W06
 BYTE   Ds5
 BYTE   W06
 BYTE   As4
 BYTE   W06
 BYTE   An4
 BYTE   W06
 BYTE   Fn5
 BYTE   W06
 BYTE   Ds5
 BYTE   W06
 BYTE   As4
 BYTE   W06
 BYTE   An4
 BYTE   W06
 BYTE   Fs5
 BYTE   W06
 BYTE   Ds5
 BYTE   W06
 BYTE   As4
 BYTE   W01
// 035   ----------------------------------------
 BYTE   W05
 BYTE   An4
 BYTE   W06
 BYTE   Gn5
 BYTE   W06
 BYTE   Fs5
 BYTE   W06
 BYTE   As4
 BYTE   W06
 BYTE   An4
 BYTE   W06
 BYTE   Gn5
 BYTE   W06
 BYTE   Fs5
 BYTE   W06
 BYTE   As4
 BYTE   W06
 BYTE   An4
 BYTE   W06
 BYTE   Gn5
 BYTE   W06
 BYTE   Fs5
 BYTE   W06
 BYTE   As4
 BYTE   W06
 BYTE   An4
 BYTE   W06
 BYTE   Gn5
 BYTE   W06
 BYTE   Fs5
 BYTE   W06
 BYTE   As4
 BYTE   W01
// 036   ----------------------------------------
 BYTE   W05
 BYTE   An4
 BYTE   W06
 BYTE   Gn5
 BYTE   W06
 BYTE   Fs5
 BYTE   W06
 BYTE   As4
 BYTE   W06
 BYTE   An4
 BYTE   W06
 BYTE   Gs5
 BYTE   W06
 BYTE   Fs5
 BYTE   W06
 BYTE   As4
 BYTE   W06
 BYTE   An4
 BYTE   W06
 BYTE   Gn5
 BYTE   W06
 BYTE   Fs5
 BYTE   W06
 BYTE   As4
 BYTE   W06
 BYTE   An4
 BYTE   W06
 BYTE   Gs5
 BYTE   W06
 BYTE   Fs5
 BYTE   W06
 BYTE   As4
 BYTE   W01
// 037   ----------------------------------------
 BYTE   W05
 BYTE   An4
 BYTE   W06
 BYTE   Fs5
 BYTE   W06
 BYTE   Fn5
 BYTE   W06
 BYTE   En5
 BYTE   W06
 BYTE   Ds5
 BYTE   W06
 BYTE   Dn5
 BYTE   W06
 BYTE   Cs5
 BYTE   W06
 BYTE   Cn5
 BYTE   W06
 BYTE   Bn4
 BYTE   W06
 BYTE   As4
 BYTE   W06
 BYTE   An4
 BYTE   W06
 BYTE   Gs4
 BYTE   W06
 BYTE   Gn4
 BYTE   W06
 BYTE   Fs4
 BYTE   W06
 BYTE   Fn4
 BYTE   W06
 BYTE   En4
 BYTE   W01
// 038   ----------------------------------------
 BYTE   W05
 BYTE   Ds4
 BYTE   W06
 BYTE   N07  En4
 BYTE   W08
 BYTE   Fn4
 BYTE   W08
 BYTE   Bn4
 BYTE   W08
 BYTE   As4
 BYTE   W08
 BYTE   En4
 BYTE   W08
 BYTE   Cn5
 BYTE   W08
 BYTE   En4
 BYTE   W08
 BYTE   Cs5
 BYTE   W08
 BYTE   En4
 BYTE   W08
 BYTE   Dn5
 BYTE   W08
 BYTE   Ds5
 BYTE   W05
// 039   ----------------------------------------
 BYTE   W03
 BYTE   En5
 BYTE   W08
 BYTE   Fn5
 BYTE   W08
 BYTE   Fs5
 BYTE   W08
 BYTE   Bn4
 BYTE   W08
 BYTE   Cn5
 BYTE   W08
 BYTE   En5
 BYTE   W08
 BYTE   Ds5
 BYTE   W08
 BYTE   An4
 BYTE   W08
 BYTE   As4
 BYTE   W08
 BYTE   Dn5
 BYTE   W08
 BYTE   Cs5
 BYTE   W08
 BYTE   Cn5
 BYTE   W05
// 040   ----------------------------------------
 BYTE   W03
 BYTE   Bn4
 BYTE   W08
 BYTE   N05  En5
 BYTE   W06
 BYTE   Ds5
 BYTE   W06
 BYTE   As4
 BYTE   W06
 BYTE   An4
 BYTE   W06
 BYTE   En5
 BYTE   W06
 BYTE   Ds5
 BYTE   W06
 BYTE   As4
 BYTE   W06
 BYTE   An4
 BYTE   W06
 BYTE   En5
 BYTE   W06
 BYTE   Ds5
 BYTE   W06
 BYTE   As4
 BYTE   W06
 BYTE   An4
 BYTE   W06
 BYTE   Fn5
 BYTE   W06
 BYTE   Ds5
 BYTE   W07
// 041   ----------------------------------------
 BYTE   W20
 BYTE   GoTo
  POIN2 Label_4_012795BF
 BYTE   FINE

//**************** Track 6 (Midi-Chn.5) ****************//

songF3_006:
// 000   ----------------------------------------
 BYTE   KEYSH   songF3_key+0
Label_5_01279A2B:
 BYTE   VOICE   29
 BYTE   VOL   35*songF3_mvl/mxv
 BYTE   PAN   c_v-30
 BYTE   BEND   c_v+0
 BYTE   N07  En1  v127
 BYTE   W08
 BYTE   Fn1
 BYTE   W08
 BYTE   Fs1
 BYTE   W08
 BYTE   Gn1
 BYTE   W08
 BYTE   Cn2
 BYTE   W08
 BYTE   Bn1
 BYTE   W08
 BYTE   Ds2
 BYTE   W08
 BYTE   Dn2
 BYTE   W08
 BYTE   Fn2
 BYTE   W08
 BYTE   Fs2
 BYTE   W08
 BYTE   Bn2
 BYTE   W08
 BYTE   As2
 BYTE   W08
// 001   ----------------------------------------
Label_5_01279A4D:
 BYTE   N11  En1  v120
 BYTE   N11  Bn1
 BYTE   W24
 BYTE   En1
 BYTE   N11  Bn1
 BYTE   W24
 BYTE   N09  En1
 BYTE   N09  Bn1
 BYTE   W16
 BYTE   Fn1
 BYTE   N09  Cn2
 BYTE   W16
 BYTE   Gn1
 BYTE   N09  Dn2
 BYTE   W16
 BYTE   PEND 
// 002   ----------------------------------------
 BYTE   PATT
  POIN2 Label_5_01279A4D
// 003   ----------------------------------------
Label_5_01279A6A:
 BYTE   N11  Fn1  v120
 BYTE   N11  Cn2
 BYTE   W24
 BYTE   Fn1
 BYTE   N11  Cn2
 BYTE   W24
 BYTE   N09  Fn1
 BYTE   N09  Cn2
 BYTE   W16
 BYTE   Fn1
 BYTE   N09  Bn1
 BYTE   W16
 BYTE   Fn1
 BYTE   N09  Cn2
 BYTE   W16
 BYTE   PEND 
// 004   ----------------------------------------
 BYTE   PATT
  POIN2 Label_5_01279A6A
// 005   ----------------------------------------
 BYTE   PATT
  POIN2 Label_5_01279A4D
// 006   ----------------------------------------
 BYTE   PATT
  POIN2 Label_5_01279A4D
// 007   ----------------------------------------
Label_5_01279A91:
 BYTE   N11  Gn1  v120
 BYTE   N11  Dn2
 BYTE   W24
 BYTE   Gn1
 BYTE   N11  Dn2
 BYTE   W24
 BYTE   N09  Gs1
 BYTE   N09  Dn2
 BYTE   W16
 BYTE   Gs1
 BYTE   N09  Dn2
 BYTE   W16
 BYTE   Gs1
 BYTE   N09  Dn2
 BYTE   W16
 BYTE   PEND 
// 008   ----------------------------------------
 BYTE   PATT
  POIN2 Label_5_01279A91
// 009   ----------------------------------------
Label_5_01279AAE:
 BYTE   N11  Dn2  v127
 BYTE   W12
 BYTE   Cs2
 BYTE   W12
 BYTE   Cn2
 BYTE   W12
 BYTE   Bn1
 BYTE   W12
 BYTE   Ds2
 BYTE   W12
 BYTE   Dn2
 BYTE   W12
 BYTE   Cs2
 BYTE   W12
 BYTE   Cn2
 BYTE   W12
 BYTE   PEND 
// 010   ----------------------------------------
Label_5_01279AC1:
 BYTE   N11  Dn2  v127
 BYTE   W12
 BYTE   Cs2
 BYTE   W12
 BYTE   Cn2
 BYTE   W12
 BYTE   Bn1
 BYTE   W12
 BYTE   An1
 BYTE   W12
 BYTE   Gs1
 BYTE   W12
 BYTE   Gn1
 BYTE   W12
 BYTE   Fs1
 BYTE   W12
 BYTE   PEND 
// 011   ----------------------------------------
 BYTE   PATT
  POIN2 Label_5_01279AAE
// 012   ----------------------------------------
 BYTE   PATT
  POIN2 Label_5_01279AC1
// 013   ----------------------------------------
Label_5_01279ADE:
 BYTE   N11  Bn1  v108
 BYTE   N11  Fn2
 BYTE   W24
 BYTE   Bn1
 BYTE   N11  Fn2
 BYTE   W24
 BYTE   N09  Bn1
 BYTE   N09  Fn2
 BYTE   W16
 BYTE   Bn1
 BYTE   N09  Fn2
 BYTE   W16
 BYTE   Bn1
 BYTE   N09  Fn2
 BYTE   W16
 BYTE   PEND 
// 014   ----------------------------------------
 BYTE   PATT
  POIN2 Label_5_01279ADE
// 015   ----------------------------------------
Label_5_01279AFB:
 BYTE   N11  Bn1  v120
 BYTE   N11  Fn2
 BYTE   W24
 BYTE   Bn1
 BYTE   N11  Fn2
 BYTE   W24
 BYTE   N09  Bn1
 BYTE   N09  Fn2
 BYTE   W16
 BYTE   Bn1
 BYTE   N09  Fn2
 BYTE   W16
 BYTE   Bn1
 BYTE   N09  Fn2
 BYTE   W16
 BYTE   PEND 
// 016   ----------------------------------------
 BYTE   PATT
  POIN2 Label_5_01279AFB
// 017   ----------------------------------------
Label_5_01279B18:
 BYTE   N22  An1  v112
 BYTE   N22  En2
 BYTE   W24
 BYTE   An1
 BYTE   N22  En2
 BYTE   W24
 BYTE   N14  An1
 BYTE   N14  En2
 BYTE   W16
 BYTE   An1
 BYTE   N14  En2
 BYTE   W16
 BYTE   An1
 BYTE   N14  En2
 BYTE   W16
 BYTE   PEND 
// 018   ----------------------------------------
Label_5_01279B30:
 BYTE   N44  Dn1  v112
 BYTE   N44  An1
 BYTE   W48
 BYTE   N44
 BYTE   N44  Dn2
 BYTE   W48
 BYTE   PEND 
// 019   ----------------------------------------
Label_5_01279B3B:
 BYTE   N44  En1  v112
 BYTE   N44  Bn1
 BYTE   W48
 BYTE   N44
 BYTE   N44  En2
 BYTE   W48
 BYTE   PEND 
// 020   ----------------------------------------
Label_5_01279B46:
 BYTE   N07  An1  v112
 BYTE   W08
 BYTE   En2
 BYTE   W08
 BYTE   An2
 BYTE   W08
 BYTE   En2
 BYTE   W08
 BYTE   An2
 BYTE   W08
 BYTE   En2
 BYTE   W08
 BYTE   Gn1
 BYTE   W08
 BYTE   Dn2
 BYTE   W08
 BYTE   Gn2
 BYTE   W08
 BYTE   Dn2
 BYTE   W08
 BYTE   Gn2
 BYTE   W08
 BYTE   Dn2
 BYTE   W08
 BYTE   PEND 
// 021   ----------------------------------------
 BYTE   N92  Fn1
 BYTE   N92  Cn2
 BYTE   W96
// 022   ----------------------------------------
Label_5_01279B66:
 BYTE   N44  Gn1  v112
 BYTE   N44  Dn2
 BYTE   W48
 BYTE   Bn1
 BYTE   N44  Gn2
 BYTE   W48
 BYTE   PEND 
// 023   ----------------------------------------
 BYTE   PATT
  POIN2 Label_5_01279B18
// 024   ----------------------------------------
 BYTE   PATT
  POIN2 Label_5_01279B18
// 025   ----------------------------------------
 BYTE   PATT
  POIN2 Label_5_01279B18
// 026   ----------------------------------------
 BYTE   PATT
  POIN2 Label_5_01279B30
// 027   ----------------------------------------
 BYTE   PATT
  POIN2 Label_5_01279B3B
// 028   ----------------------------------------
 BYTE   PATT
  POIN2 Label_5_01279B46
// 029   ----------------------------------------
 BYTE   N92  Fn1  v112
 BYTE   N92  Cn2
 BYTE   W96
// 030   ----------------------------------------
 BYTE   PATT
  POIN2 Label_5_01279B66
// 031   ----------------------------------------
 BYTE   PATT
  POIN2 Label_5_01279B18
// 032   ----------------------------------------
 BYTE   PATT
  POIN2 Label_5_01279B18
// 033   ----------------------------------------
Label_5_01279BA4:
 BYTE   N11  Fn1  v127
 BYTE   W12
 BYTE   Gn1
 BYTE   W12
 BYTE   An1
 BYTE   W12
 BYTE   Cn2
 BYTE   W12
 BYTE   Bn1
 BYTE   W12
 BYTE   En2
 BYTE   W12
 BYTE   Dn2
 BYTE   W12
 BYTE   Fn2
 BYTE   W12
 BYTE   PEND 
// 034   ----------------------------------------
Label_5_01279BB7:
 BYTE   N11  Bn2  v127
 BYTE   W12
 BYTE   Cn3
 BYTE   W12
 BYTE   Fn2
 BYTE   W12
 BYTE   Gn2
 BYTE   W12
 BYTE   Dn2
 BYTE   W12
 BYTE   Cn2
 BYTE   W12
 BYTE   Bn1
 BYTE   W12
 BYTE   Fn1
 BYTE   W12
 BYTE   PEND 
// 035   ----------------------------------------
Label_5_01279BCA:
 BYTE   N11  En1  v127
 BYTE   W12
 BYTE   Fn1
 BYTE   W12
 BYTE   Bn1
 BYTE   W12
 BYTE   Cn2
 BYTE   W12
 BYTE   En2
 BYTE   W12
 BYTE   Fn2
 BYTE   W12
 BYTE   Bn1
 BYTE   W12
 BYTE   Bn2
 BYTE   W12
 BYTE   PEND 
// 036   ----------------------------------------
Label_5_01279BDD:
 BYTE   N11  An2  v127
 BYTE   W12
 BYTE   Bn2
 BYTE   W12
 BYTE   En2
 BYTE   W12
 BYTE   Fn2
 BYTE   W12
 BYTE   Bn1
 BYTE   W12
 BYTE   Cn2
 BYTE   W12
 BYTE   En1
 BYTE   W12
 BYTE   Fn1
 BYTE   W12
 BYTE   PEND 
// 037   ----------------------------------------
 BYTE   PATT
  POIN2 Label_5_01279BA4
// 038   ----------------------------------------
 BYTE   PATT
  POIN2 Label_5_01279BB7
// 039   ----------------------------------------
 BYTE   PATT
  POIN2 Label_5_01279BCA
// 040   ----------------------------------------
 BYTE   PATT
  POIN2 Label_5_01279BDD
// 041   ----------------------------------------
 BYTE   W20
 BYTE   GoTo
  POIN2 Label_5_01279A2B
 BYTE   FINE

//**************** Track 7 (Midi-Chn.6) ****************//

songF3_007:
// 000   ----------------------------------------
 BYTE   KEYSH   songF3_key+0
Label_6_01279C0D:
 BYTE   VOICE   81
 BYTE   VOL   35*songF3_mvl/mxv
 BYTE   PAN   c_v+6
 BYTE   BEND   c_v+0
 BYTE   W96
// 001   ----------------------------------------
 BYTE   W96
// 002   ----------------------------------------
 BYTE   W96
// 003   ----------------------------------------
 BYTE   W96
// 004   ----------------------------------------
 BYTE   W96
// 005   ----------------------------------------
 BYTE   W96
// 006   ----------------------------------------
 BYTE   W96
// 007   ----------------------------------------
 BYTE   W96
// 008   ----------------------------------------
 BYTE   W96
// 009   ----------------------------------------
 BYTE   W96
// 010   ----------------------------------------
 BYTE   W96
// 011   ----------------------------------------
 BYTE   W96
// 012   ----------------------------------------
 BYTE   W96
// 013   ----------------------------------------
 BYTE   W96
// 014   ----------------------------------------
 BYTE   W96
// 015   ----------------------------------------
 BYTE   W96
// 016   ----------------------------------------
 BYTE   W96
// 017   ----------------------------------------
 BYTE   W96
// 018   ----------------------------------------
 BYTE   W96
// 019   ----------------------------------------
 BYTE   W96
// 020   ----------------------------------------
 BYTE   W96
// 021   ----------------------------------------
 BYTE   W96
// 022   ----------------------------------------
 BYTE   W96
// 023   ----------------------------------------
 BYTE   W96
// 024   ----------------------------------------
 BYTE   W96
// 025   ----------------------------------------
 BYTE   N16  En3  v127
 BYTE   W18
 BYTE   Gn3
 BYTE   W18
 BYTE   N11  An3
 BYTE   W12
 BYTE   N16  Bn3
 BYTE   W18
 BYTE   An3
 BYTE   W18
 BYTE   N11  Bn3
 BYTE   W12
// 026   ----------------------------------------
 BYTE   N16  Cn4
 BYTE   W18
 BYTE   Dn4
 BYTE   W18
 BYTE   N11  En4
 BYTE   W12
 BYTE   N16  Dn4
 BYTE   W18
 BYTE   Cn4
 BYTE   W18
 BYTE   N11  Bn3
 BYTE   W12
// 027   ----------------------------------------
 BYTE   N16  En4
 BYTE   W18
 BYTE   N16
 BYTE   W18
 BYTE   N11
 BYTE   W12
 BYTE   N16
 BYTE   W18
 BYTE   N16
 BYTE   W18
 BYTE   N11
 BYTE   W12
// 028   ----------------------------------------
 BYTE   N16  An4
 BYTE   W18
 BYTE   N16
 BYTE   W18
 BYTE   N11
 BYTE   W12
 BYTE   N16  En4
 BYTE   W18
 BYTE   Gn4
 BYTE   W18
 BYTE   N11  An4
 BYTE   W12
// 029   ----------------------------------------
 BYTE   BEND   c_v-64
 BYTE   N44  Fn4
 BYTE   W02
 BYTE   BEND   c_v-50
 BYTE   W02
 BYTE   Cs0
 BYTE   W02
 BYTE   An0
 BYTE   W02
 BYTE   En1
 BYTE   W02
 BYTE   An1
 BYTE   W02
 BYTE   Cs2
 BYTE   W02
 BYTE   En2
 BYTE   W02
 BYTE   Gn2
 BYTE   W02
 BYTE   An2
 BYTE   W02
 BYTE   As2
 BYTE   W02
 BYTE   Cn3
 BYTE   W02
 BYTE   Cs3
 BYTE   W04
 BYTE   Dn3
 BYTE   W02
 BYTE   Ds3
 BYTE   W06
 BYTE   En3
 BYTE   W12
 BYTE   N44
 BYTE   W48
// 030   ----------------------------------------
 BYTE   N16  Gn4
 BYTE   W18
 BYTE   En4
 BYTE   W18
 BYTE   N11  Dn4
 BYTE   W12
 BYTE   N16  An4
 BYTE   W18
 BYTE   Gn4
 BYTE   W18
 BYTE   N11  En4
 BYTE   W12
// 031   ----------------------------------------
 BYTE   BEND   c_v-64
 BYTE   N32  An4
 BYTE   W02
 BYTE   BEND   c_v-46
 BYTE   W02
 BYTE   Fs0
 BYTE   W02
 BYTE   En1
 BYTE   W02
 BYTE   As1
 BYTE   W02
 BYTE   Ds2
 BYTE   W02
 BYTE   Gn2
 BYTE   W02
 BYTE   An2
 BYTE   W02
 BYTE   Bn2
 BYTE   W02
 BYTE   Cs3
 BYTE   W02
 BYTE   Dn3
 BYTE   W04
 BYTE   Ds3
 BYTE   W04
 BYTE   En3
 BYTE   W08
 BYTE   N32  En4
 BYTE   W36
 BYTE   N22  An4
 BYTE   W24
// 032   ----------------------------------------
 BYTE   BEND   c_v-64
 BYTE   N44
 BYTE   W02
 BYTE   BEND   c_v-50
 BYTE   W02
 BYTE   Cs0
 BYTE   W02
 BYTE   An0
 BYTE   W02
 BYTE   En1
 BYTE   W02
 BYTE   An1
 BYTE   W02
 BYTE   Cs2
 BYTE   W02
 BYTE   En2
 BYTE   W02
 BYTE   Gn2
 BYTE   W02
 BYTE   An2
 BYTE   W02
 BYTE   As2
 BYTE   W02
 BYTE   Cn3
 BYTE   W02
 BYTE   Cs3
 BYTE   W04
 BYTE   Dn3
 BYTE   W02
 BYTE   Ds3
 BYTE   W06
 BYTE   En3
 BYTE   W12
 BYTE   N44  En4
 BYTE   W48
// 033   ----------------------------------------
 BYTE   W96
// 034   ----------------------------------------
 BYTE   W96
// 035   ----------------------------------------
 BYTE   W96
// 036   ----------------------------------------
 BYTE   W96
// 037   ----------------------------------------
 BYTE   W96
// 038   ----------------------------------------
 BYTE   W96
// 039   ----------------------------------------
 BYTE   W96
// 040   ----------------------------------------
 BYTE   W96
// 041   ----------------------------------------
 BYTE   W20
 BYTE   GoTo
  POIN2 Label_6_01279C0D
 BYTE   FINE

//**************** Track 8 (Midi-Chn.7) ****************//

songF3_008:
// 000   ----------------------------------------
 BYTE   KEYSH   songF3_key+0
Label_7_01279CFC:
 BYTE   VOICE   124
 BYTE   VOL   39*songF3_mvl/mxv
 BYTE   PAN   c_v+0
 BYTE   BEND   c_v+0
 BYTE   N24  Dn1  v120
 BYTE   N44  Cs2  v127
 BYTE   W08
 BYTE   N02  Cn1  v112
 BYTE   W08
 BYTE   Fn1  v127
 BYTE   W08
 BYTE   An1
 BYTE   W08
 BYTE   Bn1
 BYTE   W08
 BYTE   Fn1
 BYTE   W08
 BYTE   N23  Dn1  v120
 BYTE   N44  Cs2  v127
 BYTE   W08
 BYTE   N02  Cn1  v112
 BYTE   W08
 BYTE   Fn1  v127
 BYTE   W08
 BYTE   N07  Dn1  v120
 BYTE   W08
 BYTE   N07
 BYTE   W08
 BYTE   N19
 BYTE   W08
// 001   ----------------------------------------
Label_7_01279D2E:
 BYTE   N02  Cn1  v112
 BYTE   N92  Cs2  v120
 BYTE   W06
 BYTE   N02  Cn1  v112
 BYTE   W06
 BYTE   N23  Dn1  v120
 BYTE   N11  As1  v080
 BYTE   W06
 BYTE   N02  Cn1  v112
 BYTE   W06
 BYTE   N02
 BYTE   N11  As1  v100
 BYTE   W06
 BYTE   N02  Cn1  v112
 BYTE   W06
 BYTE   N23  Dn1  v120
 BYTE   N11  As1  v080
 BYTE   W06
 BYTE   N02  Cn1  v112
 BYTE   W06
 BYTE   N02
 BYTE   N11  As1  v100
 BYTE   W06
 BYTE   N02  Cn1  v112
 BYTE   W06
 BYTE   N23  Dn1  v120
 BYTE   N11  As1  v080
 BYTE   W06
 BYTE   N02  Cn1  v112
 BYTE   W06
 BYTE   N02
 BYTE   N11  As1  v100
 BYTE   W06
 BYTE   N02  Cn1  v112
 BYTE   W06
 BYTE   N23  Dn1  v120
 BYTE   N11  As1  v080
 BYTE   W06
 BYTE   N02  Cn1  v112
 BYTE   W06
 BYTE   PEND 
// 002   ----------------------------------------
Label_7_01279D81:
 BYTE   N02  Cn1  v112
 BYTE   N11  As1  v100
 BYTE   W06
 BYTE   N02  Cn1  v112
 BYTE   W06
 BYTE   N23  Dn1  v120
 BYTE   N11  As1  v080
 BYTE   W06
 BYTE   N02  Cn1  v112
 BYTE   W06
 BYTE   N02
 BYTE   N11  As1  v100
 BYTE   W06
 BYTE   N02  Cn1  v112
 BYTE   W06
 BYTE   N23  Dn1  v120
 BYTE   N11  As1  v080
 BYTE   W06
 BYTE   N02  Cn1  v112
 BYTE   W06
 BYTE   N02
 BYTE   N11  As1  v100
 BYTE   W06
 BYTE   N02  Cn1  v112
 BYTE   W06
 BYTE   N23  Dn1  v120
 BYTE   N11  As1  v080
 BYTE   W06
 BYTE   N02  Cn1  v112
 BYTE   W06
 BYTE   N02
 BYTE   N11  As1  v100
 BYTE   W06
 BYTE   N02  Cn1  v112
 BYTE   W06
 BYTE   N23  Dn1  v120
 BYTE   N11  As1  v080
 BYTE   W06
 BYTE   N02  Cn1  v112
 BYTE   W06
 BYTE   PEND 
// 003   ----------------------------------------
 BYTE   PATT
  POIN2 Label_7_01279D81
// 004   ----------------------------------------
 BYTE   N02  Cn1  v112
 BYTE   N11  As1  v100
 BYTE   W06
 BYTE   N02  Cn1  v112
 BYTE   W06
 BYTE   N23  Dn1  v120
 BYTE   N11  As1  v080
 BYTE   W06
 BYTE   N02  Cn1  v112
 BYTE   W06
 BYTE   N02
 BYTE   N11  As1  v100
 BYTE   W06
 BYTE   N02  Cn1  v112
 BYTE   W06
 BYTE   N23  Dn1  v120
 BYTE   N11  As1  v080
 BYTE   W06
 BYTE   N02  Cn1  v112
 BYTE   W06
 BYTE   N02
 BYTE   N11  As1  v100
 BYTE   W06
 BYTE   N02  Cn1  v112
 BYTE   W06
 BYTE   N23  Dn1  v120
 BYTE   N11  As1  v080
 BYTE   W06
 BYTE   N02  Cn1  v112
 BYTE   W06
 BYTE   N02
 BYTE   N11  As1  v100
 BYTE   W06
 BYTE   N02  Cn1  v112
 BYTE   W06
 BYTE   N05  Dn1  v120
 BYTE   N11  As1  v080
 BYTE   W06
 BYTE   N17  Dn1  v120
 BYTE   W06
// 005   ----------------------------------------
 BYTE   PATT
  POIN2 Label_7_01279D2E
// 006   ----------------------------------------
 BYTE   PATT
  POIN2 Label_7_01279D81
// 007   ----------------------------------------
 BYTE   PATT
  POIN2 Label_7_01279D81
// 008   ----------------------------------------
 BYTE   N02  Cn1  v112
 BYTE   N11  As1  v100
 BYTE   W06
 BYTE   N02  Cn1  v112
 BYTE   W06
 BYTE   N23  Dn1  v120
 BYTE   N11  As1  v080
 BYTE   W06
 BYTE   N02  Cn1  v112
 BYTE   W06
 BYTE   N02
 BYTE   N11  As1  v100
 BYTE   W06
 BYTE   N02  Cn1  v112
 BYTE   W06
 BYTE   N23  Dn1  v120
 BYTE   N11  As1  v080
 BYTE   W06
 BYTE   N02  Cn1  v112
 BYTE   W06
 BYTE   N02
 BYTE   N11  As1  v100
 BYTE   W06
 BYTE   N02  Cn1  v112
 BYTE   W06
 BYTE   N23  Dn1  v120
 BYTE   N11  As1  v080
 BYTE   W06
 BYTE   N02  Cn1  v112
 BYTE   W06
 BYTE   N02
 BYTE   N11  As1  v100
 BYTE   W06
 BYTE   N02  Cn1  v112
 BYTE   W06
 BYTE   N05  Dn1  v120
 BYTE   N11  As1  v080
 BYTE   W06
 BYTE   N05  Dn1  v120
 BYTE   W06
// 009   ----------------------------------------
Label_7_01279E8C:
 BYTE   N24  Dn1  v120
 BYTE   N44  Cs2  v127
 BYTE   W08
 BYTE   N02  Cn1  v112
 BYTE   W08
 BYTE   Fn1  v127
 BYTE   W08
 BYTE   An1
 BYTE   W08
 BYTE   Cn2
 BYTE   W08
 BYTE   Fn1
 BYTE   W08
 BYTE   N23  Dn1  v120
 BYTE   N44  Cs2  v127
 BYTE   W08
 BYTE   N02  Cn1  v112
 BYTE   W08
 BYTE   Fn1  v127
 BYTE   W08
 BYTE   N07  Dn1  v120
 BYTE   W08
 BYTE   N07
 BYTE   W08
 BYTE   N07
 BYTE   W08
 BYTE   PEND 
// 010   ----------------------------------------
 BYTE   PATT
  POIN2 Label_7_01279E8C
// 011   ----------------------------------------
 BYTE   PATT
  POIN2 Label_7_01279E8C
// 012   ----------------------------------------
 BYTE   N24  Dn1  v120
 BYTE   N44  Cs2  v127
 BYTE   W08
 BYTE   N02  Cn1  v112
 BYTE   W08
 BYTE   Fn1  v127
 BYTE   W08
 BYTE   An1
 BYTE   W08
 BYTE   Cn2
 BYTE   W08
 BYTE   Fn1
 BYTE   W08
 BYTE   N24  Dn1  v120
 BYTE   N44  Cs2  v127
 BYTE   W08
 BYTE   N02  Cn1  v112
 BYTE   W08
 BYTE   Fn1  v127
 BYTE   W08
 BYTE   Cn2
 BYTE   W08
 BYTE   An1
 BYTE   W08
 BYTE   Fn1
 BYTE   W08
// 013   ----------------------------------------
Label_7_01279EE9:
 BYTE   N02  Cn1  v112
 BYTE   N44  Cs2  v127
 BYTE   W08
 BYTE   N02  Cn1  v112
 BYTE   W08
 BYTE   N02
 BYTE   W08
 BYTE   N24  Dn1  v120
 BYTE   N19  As1  v127
 BYTE   W08
 BYTE   N02  Cn1  v112
 BYTE   W08
 BYTE   N02
 BYTE   W08
 BYTE   N02
 BYTE   N44  Cs2  v127
 BYTE   W08
 BYTE   N02  Cn1  v112
 BYTE   W08
 BYTE   N02
 BYTE   W08
 BYTE   N24  Dn1  v120
 BYTE   N19  As1  v127
 BYTE   W08
 BYTE   N02  Cn1  v112
 BYTE   W08
 BYTE   N02
 BYTE   W08
 BYTE   PEND 
// 014   ----------------------------------------
 BYTE   PATT
  POIN2 Label_7_01279EE9
// 015   ----------------------------------------
 BYTE   PATT
  POIN2 Label_7_01279EE9
// 016   ----------------------------------------
 BYTE   PATT
  POIN2 Label_7_01279EE9
// 017   ----------------------------------------
Label_7_01279F2B:
 BYTE   N02  Cn1  v112
 BYTE   N92  Cs2  v127
 BYTE   W06
 BYTE   N02  Cn1  v112
 BYTE   W06
 BYTE   N23  Dn1  v120
 BYTE   N11  Fn2  v096
 BYTE   W06
 BYTE   N02  Cn1  v112
 BYTE   W06
 BYTE   N02
 BYTE   N11  Fn2  v116
 BYTE   W06
 BYTE   N02  Cn1  v112
 BYTE   W06
 BYTE   N23  Dn1  v120
 BYTE   N11  Fn2  v096
 BYTE   W06
 BYTE   N02  Cn1  v112
 BYTE   W06
 BYTE   N02
 BYTE   N11  Fn2  v116
 BYTE   W06
 BYTE   N02  Cn1  v112
 BYTE   W06
 BYTE   N23  Dn1  v120
 BYTE   N11  Fn2  v096
 BYTE   W06
 BYTE   N02  Cn1  v112
 BYTE   W06
 BYTE   N02
 BYTE   N11  Fn2  v116
 BYTE   W06
 BYTE   N02  Cn1  v112
 BYTE   W06
 BYTE   N23  Dn1  v120
 BYTE   N11  Fn2  v096
 BYTE   W06
 BYTE   N02  Cn1  v112
 BYTE   W06
 BYTE   PEND 
// 018   ----------------------------------------
Label_7_01279F7E:
 BYTE   N02  Cn1  v112
 BYTE   N11  Fn2  v116
 BYTE   W06
 BYTE   N02  Cn1  v112
 BYTE   W06
 BYTE   N23  Dn1  v120
 BYTE   N11  Fn2  v096
 BYTE   W06
 BYTE   N02  Cn1  v112
 BYTE   W06
 BYTE   N02
 BYTE   N11  Fn2  v116
 BYTE   W06
 BYTE   N02  Cn1  v112
 BYTE   W06
 BYTE   N23  Dn1  v120
 BYTE   N11  Fn2  v096
 BYTE   W06
 BYTE   N02  Cn1  v112
 BYTE   W06
 BYTE   N02
 BYTE   N11  Fn2  v116
 BYTE   W06
 BYTE   N02  Cn1  v112
 BYTE   W06
 BYTE   N23  Dn1  v120
 BYTE   N11  Fn2  v096
 BYTE   W06
 BYTE   N02  Cn1  v112
 BYTE   W06
 BYTE   N02
 BYTE   N11  Fn2  v116
 BYTE   W06
 BYTE   N02  Cn1  v112
 BYTE   W06
 BYTE   N23  Dn1  v120
 BYTE   N11  Fn2  v096
 BYTE   W06
 BYTE   N02  Cn1  v112
 BYTE   W06
 BYTE   PEND 
// 019   ----------------------------------------
 BYTE   PATT
  POIN2 Label_7_01279F7E
// 020   ----------------------------------------
Label_7_01279FD6:
 BYTE   N02  Cn1  v112
 BYTE   N44  Cs2  v127
 BYTE   W06
 BYTE   N02  Cn1  v112
 BYTE   W06
 BYTE   N23  Dn1  v120
 BYTE   N11  Fn2  v096
 BYTE   W06
 BYTE   N02  Cn1  v112
 BYTE   W06
 BYTE   N02
 BYTE   N11  Fn2  v116
 BYTE   W06
 BYTE   N02  Cn1  v112
 BYTE   W06
 BYTE   N23  Dn1  v120
 BYTE   N11  Fn2  v096
 BYTE   W06
 BYTE   N02  Cn1  v112
 BYTE   W06
 BYTE   N02
 BYTE   N44  En2  v127
 BYTE   W06
 BYTE   N02  Cn1  v112
 BYTE   W06
 BYTE   N23  Dn1  v120
 BYTE   N11  Fn2  v096
 BYTE   W06
 BYTE   N02  Cn1  v112
 BYTE   W06
 BYTE   N02
 BYTE   N11  Fn2  v116
 BYTE   W06
 BYTE   N02  Cn1  v112
 BYTE   W06
 BYTE   N05  Dn1  v120
 BYTE   N11  Fn2  v096
 BYTE   W06
 BYTE   N17  Dn1  v120
 BYTE   W06
 BYTE   PEND 
// 021   ----------------------------------------
 BYTE   PATT
  POIN2 Label_7_01279F2B
// 022   ----------------------------------------
 BYTE   PATT
  POIN2 Label_7_01279F7E
// 023   ----------------------------------------
 BYTE   PATT
  POIN2 Label_7_01279F7E
// 024   ----------------------------------------
 BYTE   PATT
  POIN2 Label_7_01279FD6
// 025   ----------------------------------------
 BYTE   PATT
  POIN2 Label_7_01279F2B
// 026   ----------------------------------------
 BYTE   PATT
  POIN2 Label_7_01279F7E
// 027   ----------------------------------------
 BYTE   PATT
  POIN2 Label_7_01279F7E
// 028   ----------------------------------------
 BYTE   PATT
  POIN2 Label_7_01279FD6
// 029   ----------------------------------------
 BYTE   PATT
  POIN2 Label_7_01279F2B
// 030   ----------------------------------------
 BYTE   PATT
  POIN2 Label_7_01279F7E
// 031   ----------------------------------------
 BYTE   PATT
  POIN2 Label_7_01279F7E
// 032   ----------------------------------------
 BYTE   N02  Cn1  v112
 BYTE   N44  Cs2  v127
 BYTE   W06
 BYTE   N02  Cn1  v112
 BYTE   W06
 BYTE   N23  Dn1  v120
 BYTE   N11  Fn2  v096
 BYTE   W06
 BYTE   N02  Cn1  v112
 BYTE   W06
 BYTE   N02
 BYTE   N11  Fn2  v116
 BYTE   W06
 BYTE   N02  Cn1  v112
 BYTE   W06
 BYTE   N23  Dn1  v120
 BYTE   N11  Fn2  v096
 BYTE   W06
 BYTE   N02  Cn1  v112
 BYTE   W06
 BYTE   N02
 BYTE   N44  En2  v127
 BYTE   W06
 BYTE   N02  Cn1  v112
 BYTE   W06
 BYTE   N17  Dn1  v120
 BYTE   N11  Fn2  v096
 BYTE   W06
 BYTE   N02  Cn1  v112
 BYTE   W06
 BYTE   N02
 BYTE   N11  Fn2  v116
 BYTE   W06
 BYTE   N05  Dn1  v120
 BYTE   W06
 BYTE   N05
 BYTE   N11  Fn2  v096
 BYTE   W06
 BYTE   N24  Dn1  v120
 BYTE   W06
// 033   ----------------------------------------
Label_7_0127A0B0:
 BYTE   N02  Cn1  v112
 BYTE   N07  Fn2  v120
 BYTE   W08
 BYTE   N02  Cn1  v112
 BYTE   N07  Fn2  v096
 BYTE   W08
 BYTE   N02  Cn1  v112
 BYTE   N07  Fn2  v096
 BYTE   W08
 BYTE   N24  Dn1  v120
 BYTE   N22  En2  v127
 BYTE   W24
 BYTE   N02  Cn1  v112
 BYTE   N07  Fn2  v120
 BYTE   W08
 BYTE   N02  Cn1  v112
 BYTE   N07  Fn2  v096
 BYTE   W08
 BYTE   N02  Cn1  v112
 BYTE   N07  Fn2  v096
 BYTE   W08
 BYTE   N24  Dn1  v120
 BYTE   N22  En2  v127
 BYTE   W24
 BYTE   PEND 
// 034   ----------------------------------------
 BYTE   PATT
  POIN2 Label_7_0127A0B0
// 035   ----------------------------------------
 BYTE   PATT
  POIN2 Label_7_0127A0B0
// 036   ----------------------------------------
 BYTE   PATT
  POIN2 Label_7_0127A0B0
// 037   ----------------------------------------
 BYTE   N02  Cn1  v112
 BYTE   N92  Cs2  v120
 BYTE   W06
 BYTE   N02  Cn1  v112
 BYTE   W06
 BYTE   N23  Dn1  v120
 BYTE   N11  As1  v092
 BYTE   W06
 BYTE   N02  Cn1  v112
 BYTE   W06
 BYTE   N02
 BYTE   N11  As1  v108
 BYTE   W06
 BYTE   N02  Cn1  v112
 BYTE   W06
 BYTE   N23  Dn1  v120
 BYTE   N11  As1  v092
 BYTE   W06
 BYTE   N02  Cn1  v112
 BYTE   W06
 BYTE   N02
 BYTE   N11  As1  v108
 BYTE   W06
 BYTE   N02  Cn1  v112
 BYTE   W06
 BYTE   N23  Dn1  v120
 BYTE   N11  As1  v092
 BYTE   W06
 BYTE   N02  Cn1  v112
 BYTE   W06
 BYTE   N02
 BYTE   N11  As1  v108
 BYTE   W06
 BYTE   N02  Cn1  v112
 BYTE   W06
 BYTE   N23  Dn1  v120
 BYTE   N11  As1  v092
 BYTE   W06
 BYTE   N02  Cn1  v112
 BYTE   W06
// 038   ----------------------------------------
Label_7_0127A14A:
 BYTE   N02  Cn1  v112
 BYTE   N11  As1  v108
 BYTE   W06
 BYTE   N02  Cn1  v112
 BYTE   W06
 BYTE   N23  Dn1  v120
 BYTE   N11  As1  v092
 BYTE   W06
 BYTE   N02  Cn1  v112
 BYTE   W06
 BYTE   N02
 BYTE   N11  As1  v108
 BYTE   W06
 BYTE   N02  Cn1  v112
 BYTE   W06
 BYTE   N23  Dn1  v120
 BYTE   N11  As1  v092
 BYTE   W06
 BYTE   N02  Cn1  v112
 BYTE   W06
 BYTE   N02
 BYTE   N11  As1  v108
 BYTE   W06
 BYTE   N02  Cn1  v112
 BYTE   W06
 BYTE   N23  Dn1  v120
 BYTE   N11  As1  v092
 BYTE   W06
 BYTE   N02  Cn1  v112
 BYTE   W06
 BYTE   N02
 BYTE   N11  As1  v108
 BYTE   W06
 BYTE   N02  Cn1  v112
 BYTE   W06
 BYTE   N23  Dn1  v120
 BYTE   N11  As1  v092
 BYTE   W06
 BYTE   N02  Cn1  v112
 BYTE   W06
 BYTE   PEND 
// 039   ----------------------------------------
 BYTE   PATT
  POIN2 Label_7_0127A14A
// 040   ----------------------------------------
 BYTE   N02  Cn1  v112
 BYTE   N11  As1  v108
 BYTE   W06
 BYTE   N02  Cn1  v112
 BYTE   W06
 BYTE   N23  Dn1  v120
 BYTE   N11  As1  v092
 BYTE   W06
 BYTE   N02  Cn1  v112
 BYTE   W06
 BYTE   N02
 BYTE   N11  As1  v108
 BYTE   W06
 BYTE   N02  Cn1  v112
 BYTE   W06
 BYTE   N23  Dn1  v120
 BYTE   N11  As1  v092
 BYTE   W06
 BYTE   N02  Cn1  v112
 BYTE   W06
 BYTE   N02
 BYTE   N11  As1  v108
 BYTE   W06
 BYTE   N02  Cn1  v112
 BYTE   W06
 BYTE   N23  Dn1  v120
 BYTE   N11  As1  v092
 BYTE   W06
 BYTE   N02  Cn1  v112
 BYTE   W06
 BYTE   N02
 BYTE   N11  As1  v108
 BYTE   W06
 BYTE   N02  Cn1  v112
 BYTE   W06
 BYTE   N05  Dn1  v120
 BYTE   N11  As1  v092
 BYTE   W06
 BYTE   N24  Dn1  v120
 BYTE   W06
// 041   ----------------------------------------
 BYTE   W20
 BYTE   GoTo
  POIN2 Label_7_01279CFC
 BYTE   FINE

//******************************************************//
	ALIGN 4

songF3:
	BYTE	8	// NumTrks
	BYTE	0	// NumBlks
	BYTE	songF3_pri	// Priority
	BYTE	songF3_rev	// Reverb.
    
	POIN2	songF3_grp
    
	POIN2	songF3_001
	POIN2	songF3_002
	POIN2	songF3_003
	POIN2	songF3_004
	POIN2	songF3_005
	POIN2	songF3_006
	POIN2	songF3_007
	POIN2	songF3_008

	
