//Event file generated from Sappy .s format.
	#include "MPlayDef.event"

	#define	song11_grp  voicegroup001
	#define	song11_pri  0
	#define	song11_rev  148
	#define	song11_mvl  127
	#define	song11_key  0
	#define	song11_tbs  1
	#define	song11_exg  0
	#define	song11_cmp  1

	// .rodata
	//	song11
	ALIGN 4


//**************** Track 1 (Midi-Chn.0) ****************//

song11_001:
// 000   ----------------------------------------
 BYTE   KEYSH   song11_key+0
 BYTE   TEMPO   220*song11_tbs/2
 BYTE   VOICE   41
 BYTE   VOL   40*song11_mvl/mxv
 BYTE   PAN   c_v+19
 BYTE   BENDR  24
 BYTE   BEND   c_v+32
 BYTE   W96
// 001   ----------------------------------------
Label_0_015C356B:
 BYTE   VOL   40*song11_mvl/mxv
 BYTE   W96
// 002   ----------------------------------------
 BYTE   W96
// 003   ----------------------------------------
 BYTE   W96
// 004   ----------------------------------------
 BYTE   W96
// 005   ----------------------------------------
 BYTE   W96
// 006   ----------------------------------------
 BYTE   W96
// 007   ----------------------------------------
 BYTE   W96
// 008   ----------------------------------------
 BYTE   W96
// 009   ----------------------------------------
 BYTE   W96
// 010   ----------------------------------------
 BYTE   W96
// 011   ----------------------------------------
 BYTE   W96
// 012   ----------------------------------------
 BYTE   W96
// 013   ----------------------------------------
 BYTE   W96
// 014   ----------------------------------------
 BYTE   W96
// 015   ----------------------------------------
 BYTE   W96
// 016   ----------------------------------------
Label_0_015C357C:
 BYTE   W60
 BYTE   N11  Ds3  v127
 BYTE   W12
 BYTE   Fs3
 BYTE   W12
 BYTE   Gs3
 BYTE   W12
 BYTE   PEND 
// 017   ----------------------------------------
 BYTE   N56  As3
 BYTE   W72
 BYTE   N23  Ds3
 BYTE   W24
// 018   ----------------------------------------
 BYTE   Bn3
 BYTE   W24
 BYTE   As3
 BYTE   W24
 BYTE   Gs3
 BYTE   W24
 BYTE   As3
 BYTE   W24
// 019   ----------------------------------------
 BYTE   N56  Gs3
 BYTE   W72
 BYTE   N23
 BYTE   W24
// 020   ----------------------------------------
 BYTE   As3
 BYTE   W24
 BYTE   Gs3
 BYTE   W24
 BYTE   Fs3
 BYTE   W24
 BYTE   N11  Gs3
 BYTE   W12
 BYTE   N44  Fn3
 BYTE   W12
// 021   ----------------------------------------
 BYTE   W36
 BYTE   N32  Fs3
 BYTE   W36
 BYTE   N23  Gs3
 BYTE   W24
// 022   ----------------------------------------
 BYTE   N32  Fn3
 BYTE   W36
 BYTE   As2
 BYTE   W36
 BYTE   N23  Cs3
 BYTE   W24
// 023   ----------------------------------------
 BYTE   N32  Fn3
 BYTE   W36
 BYTE   N56  Ds3
 BYTE   W60
// 024   ----------------------------------------
 BYTE   PATT
  POIN2 Label_0_015C357C
// 025   ----------------------------------------
 BYTE   N56  As3  v127
 BYTE   W72
 BYTE   N23
 BYTE   W24
// 026   ----------------------------------------
 BYTE   Cs4
 BYTE   W24
 BYTE   As3
 BYTE   W24
 BYTE   Gs3
 BYTE   W24
 BYTE   As3
 BYTE   W24
// 027   ----------------------------------------
 BYTE   N56  Gs3
 BYTE   W72
 BYTE   N23  Cs4
 BYTE   W24
// 028   ----------------------------------------
 BYTE   N23
 BYTE   W24
 BYTE   Bn3
 BYTE   W24
 BYTE   As3
 BYTE   W24
 BYTE   Bn3
 BYTE   W24
// 029   ----------------------------------------
 BYTE   N32  Cs4
 BYTE   W36
 BYTE   Ds4
 BYTE   W36
 BYTE   N23  Fn4
 BYTE   W24
// 030   ----------------------------------------
 BYTE   Gs4
 BYTE   W24
 BYTE   Fs4
 BYTE   W24
 BYTE   Fn4
 BYTE   W24
 BYTE   Fs4
 BYTE   W24
// 031   ----------------------------------------
 BYTE   N32  Fn4
 BYTE   W36
 BYTE   TIE  Ds4
 BYTE   W60
// 032   ----------------------------------------
 BYTE   W44
 BYTE   W03
 BYTE   EOT
 BYTE   W13
 BYTE   VOL   36*song11_mvl/mxv
 BYTE   N11  Ds3
 BYTE   N11  Ds4
 BYTE   W12
 BYTE   Fs3
 BYTE   N11  Fs4
 BYTE   W12
 BYTE   Gs3
 BYTE   N11  Gs4
 BYTE   W12
// 033   ----------------------------------------
 BYTE   N56  As3
 BYTE   N56  As4
 BYTE   W72
 BYTE   N23  Ds3
 BYTE   N23  Ds4
 BYTE   W24
// 034   ----------------------------------------
 BYTE   Bn3
 BYTE   N23  Bn4
 BYTE   W24
 BYTE   As3
 BYTE   N23  As4
 BYTE   W24
 BYTE   Gs3
 BYTE   N23  Gs4
 BYTE   W24
 BYTE   As3
 BYTE   N23  As4
 BYTE   W24
// 035   ----------------------------------------
 BYTE   N56  Gs3
 BYTE   N56  Gs4
 BYTE   W72
 BYTE   N23  Gs3
 BYTE   N23  Gs4
 BYTE   W24
// 036   ----------------------------------------
 BYTE   As3
 BYTE   N23  As4
 BYTE   W24
 BYTE   Gs3
 BYTE   N23  Gs4
 BYTE   W24
 BYTE   Fs3
 BYTE   N23  Fs4
 BYTE   W24
 BYTE   N11  Gs3
 BYTE   N11  Gs4
 BYTE   W12
 BYTE   N44  Fn3
 BYTE   N44  Fn4
 BYTE   W12
// 037   ----------------------------------------
 BYTE   W36
 BYTE   N32  Fs3
 BYTE   N32  Fs4
 BYTE   W36
 BYTE   N23  Gs3
 BYTE   N23  Gs4
 BYTE   W24
// 038   ----------------------------------------
 BYTE   N32  Fn3
 BYTE   N32  Fn4
 BYTE   W36
 BYTE   As2
 BYTE   N32  As3
 BYTE   W36
 BYTE   N23  Cs3
 BYTE   N23  Cs4
 BYTE   W24
// 039   ----------------------------------------
 BYTE   N32  Fn3
 BYTE   N32  Fn4
 BYTE   W36
 BYTE   N56  Ds3
 BYTE   N56  Ds4
 BYTE   W60
// 040   ----------------------------------------
 BYTE   W60
 BYTE   N11  Ds3
 BYTE   N11  Ds4
 BYTE   W12
 BYTE   Fs3
 BYTE   N11  Fs4
 BYTE   W12
 BYTE   Gs3
 BYTE   N11  Gs4
 BYTE   W12
// 041   ----------------------------------------
 BYTE   N56  As3
 BYTE   N56  As4
 BYTE   W72
 BYTE   N23  As3
 BYTE   N23  As4
 BYTE   W24
// 042   ----------------------------------------
 BYTE   Cs4
 BYTE   N23  Cs5
 BYTE   W24
 BYTE   As3
 BYTE   N23  As4
 BYTE   W24
 BYTE   Gs3
 BYTE   N23  Gs4
 BYTE   W24
 BYTE   As3
 BYTE   N23  As4
 BYTE   W24
// 043   ----------------------------------------
 BYTE   N56  Gs3
 BYTE   N56  Gs4
 BYTE   W72
 BYTE   N23  Cs4
 BYTE   N23  Cs5
 BYTE   W24
// 044   ----------------------------------------
 BYTE   Cs4
 BYTE   N23  Cs5
 BYTE   W24
 BYTE   Bn3
 BYTE   N23  Bn4
 BYTE   W24
 BYTE   As3
 BYTE   N23  As4
 BYTE   W24
 BYTE   Bn3
 BYTE   N23  Bn4
 BYTE   W24
// 045   ----------------------------------------
 BYTE   N32  Cs4
 BYTE   N32  Cs5
 BYTE   W36
 BYTE   Ds4
 BYTE   N32  Ds5
 BYTE   W36
 BYTE   N23  Fn4
 BYTE   N23  Fn5
 BYTE   W24
// 046   ----------------------------------------
 BYTE   Gs4
 BYTE   N23  Gs5
 BYTE   W24
 BYTE   Fs4
 BYTE   N23  Fs5
 BYTE   W24
 BYTE   Fn4
 BYTE   N23  Fn5
 BYTE   W24
 BYTE   Fs4
 BYTE   N23  Fs5
 BYTE   W24
// 047   ----------------------------------------
 BYTE   N32  Fn4
 BYTE   N32  Fn5
 BYTE   W36
 BYTE   TIE  Ds4
 BYTE   TIE  Ds5
 BYTE   W60
// 048   ----------------------------------------
 BYTE   W44
 BYTE   W03
 BYTE   EOT
 BYTE   Ds4
 BYTE   EOT
 BYTE   Ds5  v075
 BYTE   Ds5
 BYTE   W13
 BYTE   N11  Ds3
 BYTE   N11  Ds4
 BYTE   W12
 BYTE   Ds3
 BYTE   N11  Ds4
 BYTE   W12
 BYTE   Fn3
 BYTE   N11  Fn4
 BYTE   W12
// 049   ----------------------------------------
Label_0_015C36E1:
 BYTE   N68  Fs3  v127
 BYTE   N68  Fs4
 BYTE   W72
 BYTE   N11  Fn3
 BYTE   N11  Fn4
 BYTE   W12
 BYTE   Ds3
 BYTE   N11  Ds4
 BYTE   W12
 BYTE   PEND 
// 050   ----------------------------------------
Label_0_015C36F1:
 BYTE   N32  Fs3  v127
 BYTE   N32  Fs4
 BYTE   W36
 BYTE   Gs3
 BYTE   N32  Gs4
 BYTE   W36
 BYTE   N23  As3
 BYTE   N23  As4
 BYTE   W24
 BYTE   PEND 
// 051   ----------------------------------------
 BYTE   PATT
  POIN2 Label_0_015C36E1
// 052   ----------------------------------------
 BYTE   PATT
  POIN2 Label_0_015C36F1
// 053   ----------------------------------------
 BYTE   N32  Gs3  v127
 BYTE   N32  Gs4
 BYTE   W36
 BYTE   Bn3
 BYTE   N32  Bn4
 BYTE   W36
 BYTE   N23  Ds4
 BYTE   N23  Ds5
 BYTE   W24
// 054   ----------------------------------------
 BYTE   N32  Fs4
 BYTE   N32  Fs5
 BYTE   W36
 BYTE   Fn4
 BYTE   N32  Fn5
 BYTE   W36
 BYTE   N23  Ds4
 BYTE   N23  Ds5
 BYTE   W24
// 055   ----------------------------------------
 BYTE   N32  Ds4
 BYTE   N32  Ds5
 BYTE   W36
 BYTE   Dn4
 BYTE   N32  Dn5
 BYTE   W36
 BYTE   N23  Ds4
 BYTE   N23  Ds5
 BYTE   W24
// 056   ----------------------------------------
 BYTE   N92  Fn4
 BYTE   N92  Fn5
 BYTE   W96
// 057   ----------------------------------------
 BYTE   W96
// 058   ----------------------------------------
 BYTE   W96
// 059   ----------------------------------------
 BYTE   N28  Ds3
 BYTE   W36
 BYTE   Fn3
 BYTE   W36
 BYTE   N17  Fs3
 BYTE   W24
// 060   ----------------------------------------
Label_0_015C3745:
 BYTE   N28  Fn3  v127
 BYTE   W36
 BYTE   Fs3
 BYTE   W36
 BYTE   N17  Gs3
 BYTE   W24
 BYTE   PEND 
// 061   ----------------------------------------
 BYTE   N28  Cs4
 BYTE   W36
 BYTE   Ds4
 BYTE   W36
 BYTE   N17  Cs4
 BYTE   W24
// 062   ----------------------------------------
 BYTE   N92  Cn4
 BYTE   W96
// 063   ----------------------------------------
Label_0_015C375A:
 BYTE   N28  Bn3  v127
 BYTE   W36
 BYTE   Cs4
 BYTE   W36
 BYTE   N17  Bn3
 BYTE   W24
 BYTE   PEND 
// 064   ----------------------------------------
 BYTE   N23  As3
 BYTE   W24
 BYTE   Fs3
 BYTE   W24
 BYTE   N17  Cs3
 BYTE   W24
 BYTE   Fs3
 BYTE   W24
// 065   ----------------------------------------
 BYTE   N32  Gs3
 BYTE   W36
 BYTE   N28  Ds3
 BYTE   W36
 BYTE   N23  Gs3
 BYTE   W24
// 066   ----------------------------------------
 BYTE   N92  Fn3
 BYTE   W96
// 067   ----------------------------------------
 BYTE   N28  Ds3
 BYTE   W36
 BYTE   As2
 BYTE   W36
 BYTE   N17  Fs3
 BYTE   W24
// 068   ----------------------------------------
 BYTE   PATT
  POIN2 Label_0_015C3745
// 069   ----------------------------------------
 BYTE   N28  As3  v127
 BYTE   W36
 BYTE   N32  Cs4
 BYTE   W36
 BYTE   N17  Ds4
 BYTE   W24
// 070   ----------------------------------------
 BYTE   N92  Cn4
 BYTE   W96
// 071   ----------------------------------------
 BYTE   PATT
  POIN2 Label_0_015C375A
// 072   ----------------------------------------
 BYTE   N23  As3  v127
 BYTE   W24
 BYTE   N17  Fs3
 BYTE   W24
 BYTE   Cs3
 BYTE   W24
 BYTE   Fs3
 BYTE   W24
// 073   ----------------------------------------
 BYTE   N80  Gs3
 BYTE   W96
// 074   ----------------------------------------
 BYTE   As3
 BYTE   W96
// 075   ----------------------------------------
 BYTE   N32  Ds3
 BYTE   N32  Ds4
 BYTE   W36
 BYTE   Fn3
 BYTE   N32  Fn4
 BYTE   W36
 BYTE   N23  Fs3
 BYTE   N23  Fs4
 BYTE   W24
// 076   ----------------------------------------
Label_0_015C37B7:
 BYTE   N32  Fn3  v127
 BYTE   N32  Fn4
 BYTE   W36
 BYTE   Fs3
 BYTE   N32  Fs4
 BYTE   W36
 BYTE   N23  Gs3
 BYTE   N23  Gs4
 BYTE   W24
 BYTE   PEND 
// 077   ----------------------------------------
 BYTE   N32  Cs4
 BYTE   N32  Cs5
 BYTE   W36
 BYTE   Ds4
 BYTE   N32  Ds5
 BYTE   W36
 BYTE   N23  Cs4
 BYTE   N23  Cs5
 BYTE   W24
// 078   ----------------------------------------
 BYTE   N92  Cn4
 BYTE   N92  Cn5
 BYTE   W96
// 079   ----------------------------------------
Label_0_015C37DA:
 BYTE   N32  Bn3  v127
 BYTE   N32  Bn4
 BYTE   W36
 BYTE   Cs4
 BYTE   N32  Cs5
 BYTE   W36
 BYTE   N23  Bn3
 BYTE   N23  Bn4
 BYTE   W24
 BYTE   PEND 
// 080   ----------------------------------------
Label_0_015C37EA:
 BYTE   N23  As3  v127
 BYTE   N23  As4
 BYTE   W24
 BYTE   Fs3
 BYTE   N23  Fs4
 BYTE   W24
 BYTE   Cs3
 BYTE   N23  Cs4
 BYTE   W24
 BYTE   Fs3
 BYTE   N23  Fs4
 BYTE   W24
 BYTE   PEND 
// 081   ----------------------------------------
 BYTE   N32  Gs3
 BYTE   N32  Gs4
 BYTE   W36
 BYTE   Ds3
 BYTE   N32  Ds4
 BYTE   W36
 BYTE   N23  Gs3
 BYTE   N23  Gs4
 BYTE   W24
// 082   ----------------------------------------
 BYTE   N92  Fn3
 BYTE   N92  Fn4
 BYTE   W96
// 083   ----------------------------------------
 BYTE   N32  Ds3
 BYTE   N32  Ds4
 BYTE   W36
 BYTE   As2
 BYTE   N32  As3
 BYTE   W36
 BYTE   N23  Fs3
 BYTE   N23  Fs4
 BYTE   W24
// 084   ----------------------------------------
 BYTE   PATT
  POIN2 Label_0_015C37B7
// 085   ----------------------------------------
 BYTE   N32  As3  v127
 BYTE   N32  As4
 BYTE   W36
 BYTE   Cs4
 BYTE   N32  Cs5
 BYTE   W36
 BYTE   N23  Ds4
 BYTE   N23  Ds5
 BYTE   W24
// 086   ----------------------------------------
 BYTE   N92  Cn4
 BYTE   N92  Cn5
 BYTE   W96
// 087   ----------------------------------------
 BYTE   PATT
  POIN2 Label_0_015C37DA
// 088   ----------------------------------------
 BYTE   PATT
  POIN2 Label_0_015C37EA
// 089   ----------------------------------------
 BYTE   TIE  Gs3  v127
 BYTE   TIE  Gs4
 BYTE   W96
// 090   ----------------------------------------
 BYTE   W80
 BYTE   W03
 BYTE   EOT
 BYTE   Gs3  v080
 BYTE   W13
// 091   ----------------------------------------
 BYTE   N92  As3
 BYTE   N92  As4
 BYTE   W96
// 092   ----------------------------------------
 BYTE   GoTo
  POIN2 Label_0_015C356B
 BYTE   FINE

//**************** Track 2 (Midi-Chn.1) ****************//

song11_002:
// 000   ----------------------------------------
 BYTE   KEYSH   song11_key+0
 BYTE   VOICE   30
 BYTE   VOL   62*song11_mvl/mxv
 BYTE   PAN   c_v-19
 BYTE   W96
// 001   ----------------------------------------
Label_1_015C3861:
 BYTE   N44  As1  v104
 BYTE   N44  Ds2
 BYTE   W48
 BYTE   N23  As1
 BYTE   N23  Ds2
 BYTE   W24
 BYTE   N08  As1
 BYTE   N08  Ds2
 BYTE   W12
 BYTE   As1
 BYTE   N08  Ds2
 BYTE   W12
// 002   ----------------------------------------
 BYTE   W96
// 003   ----------------------------------------
 BYTE   W12
 BYTE   As1
 BYTE   N08  Ds2
 BYTE   W12
 BYTE   N23  As1
 BYTE   N23  Ds2
 BYTE   W24
 BYTE   As1
 BYTE   N23  Ds2
 BYTE   W24
 BYTE   N08  As1
 BYTE   N08  Ds2
 BYTE   W12
 BYTE   N11  As1
 BYTE   N11  Ds2
 BYTE   W12
// 004   ----------------------------------------
 BYTE   W96
// 005   ----------------------------------------
 BYTE   N08  Ds1
 BYTE   N08  Gs1
 BYTE   W12
 BYTE   Ds1
 BYTE   N08  Gs1
 BYTE   W12
 BYTE   N23  Ds1
 BYTE   N23  Gs1
 BYTE   W24
 BYTE   N08  Ds1
 BYTE   N08  Gs1
 BYTE   W12
 BYTE   N23  Ds1
 BYTE   N23  Gs1
 BYTE   W24
 BYTE   N08  Ds1
 BYTE   N08  Gs1
 BYTE   W12
// 006   ----------------------------------------
 BYTE   N23
 BYTE   N23  Cs2
 BYTE   W24
 BYTE   Gs1
 BYTE   N23  Cs2
 BYTE   W24
 BYTE   N08  Gs1
 BYTE   N08  Cs2
 BYTE   W12
 BYTE   N23  Gs1
 BYTE   N23  Cs2
 BYTE   W24
 BYTE   N08  Gs1
 BYTE   N08  Cs2
 BYTE   W12
// 007   ----------------------------------------
 BYTE   W12
 BYTE   N23
 BYTE   N23  Fs2
 BYTE   W24
 BYTE   N08  Cs2
 BYTE   N08  Fs2
 BYTE   W12
 BYTE   N23  Cs2
 BYTE   N23  Fs2
 BYTE   W24
 BYTE   Cs2
 BYTE   N23  Fs2
 BYTE   W24
// 008   ----------------------------------------
 BYTE   N44  Fn1
 BYTE   N44  As1
 BYTE   W48
 BYTE   N08  Fn1
 BYTE   N08  As1
 BYTE   W12
 BYTE   N23  Fn1
 BYTE   N23  As1
 BYTE   W24
 BYTE   N08  Fn1
 BYTE   N08  As1
 BYTE   W12
// 009   ----------------------------------------
Label_1_015C38EA:
 BYTE   N44  As1  v088
 BYTE   N44  Ds2
 BYTE   W48
 BYTE   N23  As1
 BYTE   N23  Ds2
 BYTE   W24
 BYTE   N08  As1
 BYTE   N08  Ds2
 BYTE   W12
 BYTE   As1
 BYTE   N08  Ds2
 BYTE   W12
 BYTE   PEND 
// 010   ----------------------------------------
 BYTE   W96
// 011   ----------------------------------------
Label_1_015C3900:
 BYTE   W12
 BYTE   N08  As1  v088
 BYTE   N08  Ds2
 BYTE   W12
 BYTE   N23  As1
 BYTE   N23  Ds2
 BYTE   W24
 BYTE   As1
 BYTE   N23  Ds2
 BYTE   W24
 BYTE   N08  As1
 BYTE   N08  Ds2
 BYTE   W12
 BYTE   As1
 BYTE   N08  Ds2
 BYTE   W12
 BYTE   PEND 
// 012   ----------------------------------------
 BYTE   W96
// 013   ----------------------------------------
 BYTE   As1
 BYTE   N08  Ds2
 BYTE   W12
 BYTE   As1
 BYTE   N08  Ds2
 BYTE   W12
 BYTE   N23  As1
 BYTE   N23  Ds2
 BYTE   W24
 BYTE   N08  As1
 BYTE   N08  Ds2
 BYTE   W12
 BYTE   N23  As1
 BYTE   N23  Ds2
 BYTE   W24
 BYTE   N08  As1
 BYTE   N08  Ds2
 BYTE   W12
// 014   ----------------------------------------
 BYTE   N23  Fn1
 BYTE   N23  As1
 BYTE   W24
 BYTE   Fn1
 BYTE   N23  As1
 BYTE   W24
 BYTE   N08  Fn1
 BYTE   N08  As1
 BYTE   W12
 BYTE   N23  Fn1
 BYTE   N23  As1
 BYTE   W24
 BYTE   N08  Fn1
 BYTE   N08  As1
 BYTE   W12
// 015   ----------------------------------------
Label_1_015C394F:
 BYTE   W12
 BYTE   N23  As1  v088
 BYTE   N23  Ds2
 BYTE   W24
 BYTE   N08  As1
 BYTE   N08  Ds2
 BYTE   W12
 BYTE   N23  As1
 BYTE   N23  Ds2
 BYTE   W24
 BYTE   As1
 BYTE   N23  Ds2
 BYTE   W24
 BYTE   PEND 
// 016   ----------------------------------------
Label_1_015C3965:
 BYTE   N44  As1  v088
 BYTE   N44  Ds2
 BYTE   W48
 BYTE   N08  As1
 BYTE   N08  Ds2
 BYTE   W12
 BYTE   N23  As1
 BYTE   N23  Ds2
 BYTE   W24
 BYTE   N08  As1
 BYTE   N08  Ds2
 BYTE   W12
 BYTE   PEND 
// 017   ----------------------------------------
 BYTE   PATT
  POIN2 Label_1_015C38EA
// 018   ----------------------------------------
 BYTE   W96
// 019   ----------------------------------------
 BYTE   PATT
  POIN2 Label_1_015C3900
// 020   ----------------------------------------
 BYTE   W96
// 021   ----------------------------------------
Label_1_015C3987:
 BYTE   N08  Gs1  v088
 BYTE   N08  Cs2
 BYTE   W12
 BYTE   Gs1
 BYTE   N08  Cs2
 BYTE   W12
 BYTE   N23  Gs1
 BYTE   N23  Cs2
 BYTE   W24
 BYTE   N08  Gs1
 BYTE   N08  Cs2
 BYTE   W12
 BYTE   N23  Gs1
 BYTE   N23  Cs2
 BYTE   W24
 BYTE   N08  Gs1
 BYTE   N08  Cs2
 BYTE   W12
 BYTE   PEND 
// 022   ----------------------------------------
Label_1_015C39A6:
 BYTE   N23  Gs1  v088
 BYTE   N23  Cs2
 BYTE   W24
 BYTE   Gs1
 BYTE   N23  Cs2
 BYTE   W24
 BYTE   N08  Gs1
 BYTE   N08  Cs2
 BYTE   W12
 BYTE   N23  Gs1
 BYTE   N23  Cs2
 BYTE   W24
 BYTE   N08  Gs1
 BYTE   N08  Cs2
 BYTE   W12
 BYTE   PEND 
// 023   ----------------------------------------
 BYTE   PATT
  POIN2 Label_1_015C394F
// 024   ----------------------------------------
 BYTE   PATT
  POIN2 Label_1_015C3965
// 025   ----------------------------------------
 BYTE   PATT
  POIN2 Label_1_015C38EA
// 026   ----------------------------------------
 BYTE   W96
// 027   ----------------------------------------
Label_1_015C39D0:
 BYTE   W12
 BYTE   N08  Fs1  v088
 BYTE   N08  Bn1
 BYTE   W12
 BYTE   N23  Fs1
 BYTE   N23  Bn1
 BYTE   W24
 BYTE   Fs1
 BYTE   N23  Bn1
 BYTE   W24
 BYTE   N08  Fs1
 BYTE   N08  Bn1
 BYTE   W12
 BYTE   Fs1
 BYTE   N08  Bn1
 BYTE   W12
 BYTE   PEND 
// 028   ----------------------------------------
 BYTE   W96
// 029   ----------------------------------------
 BYTE   PATT
  POIN2 Label_1_015C3987
// 030   ----------------------------------------
 BYTE   PATT
  POIN2 Label_1_015C39A6
// 031   ----------------------------------------
 BYTE   PATT
  POIN2 Label_1_015C394F
// 032   ----------------------------------------
 BYTE   PATT
  POIN2 Label_1_015C3965
// 033   ----------------------------------------
 BYTE   PATT
  POIN2 Label_1_015C38EA
// 034   ----------------------------------------
 BYTE   W96
// 035   ----------------------------------------
 BYTE   PATT
  POIN2 Label_1_015C3900
// 036   ----------------------------------------
 BYTE   W96
// 037   ----------------------------------------
 BYTE   PATT
  POIN2 Label_1_015C3987
// 038   ----------------------------------------
 BYTE   PATT
  POIN2 Label_1_015C39A6
// 039   ----------------------------------------
 BYTE   PATT
  POIN2 Label_1_015C394F
// 040   ----------------------------------------
 BYTE   PATT
  POIN2 Label_1_015C3965
// 041   ----------------------------------------
 BYTE   PATT
  POIN2 Label_1_015C38EA
// 042   ----------------------------------------
 BYTE   W96
// 043   ----------------------------------------
 BYTE   PATT
  POIN2 Label_1_015C39D0
// 044   ----------------------------------------
 BYTE   W96
// 045   ----------------------------------------
 BYTE   PATT
  POIN2 Label_1_015C3987
// 046   ----------------------------------------
 BYTE   PATT
  POIN2 Label_1_015C39A6
// 047   ----------------------------------------
 BYTE   PATT
  POIN2 Label_1_015C394F
// 048   ----------------------------------------
 BYTE   PATT
  POIN2 Label_1_015C3965
// 049   ----------------------------------------
Label_1_015C3A3F:
 BYTE   N23  Ds2  v088
 BYTE   N23  Gs2
 BYTE   W24
 BYTE   N08  Ds2
 BYTE   N08  Gs2
 BYTE   W12
 BYTE   Ds2
 BYTE   N08  Gs2
 BYTE   W12
 BYTE   Ds2
 BYTE   N08  Gs2
 BYTE   W12
 BYTE   Ds2
 BYTE   N08  Gs2
 BYTE   W12
 BYTE   Ds2
 BYTE   N08  Gs2
 BYTE   W12
 BYTE   Ds2
 BYTE   N08  Gs2
 BYTE   W12
 BYTE   PEND 
// 050   ----------------------------------------
Label_1_015C3A5F:
 BYTE   N08  Ds2  v088
 BYTE   N08  Gs2
 BYTE   W12
 BYTE   Ds2
 BYTE   N08  Gs2
 BYTE   W12
 BYTE   Ds2
 BYTE   N08  Gs2
 BYTE   W12
 BYTE   N23  Ds2
 BYTE   N23  Gs2
 BYTE   W24
 BYTE   N08  Ds2
 BYTE   N08  Gs2
 BYTE   W12
 BYTE   N23  Ds2
 BYTE   N23  Gs2
 BYTE   W24
 BYTE   PEND 
// 051   ----------------------------------------
 BYTE   PATT
  POIN2 Label_1_015C3A3F
// 052   ----------------------------------------
 BYTE   PATT
  POIN2 Label_1_015C3A5F
// 053   ----------------------------------------
 BYTE   N23  Cn2  v088
 BYTE   N23  Fn2
 BYTE   W24
 BYTE   N08  Cn2
 BYTE   N08  Fn2
 BYTE   W12
 BYTE   N23  Cn2
 BYTE   N23  Fn2
 BYTE   W24
 BYTE   N08  Cn2
 BYTE   N08  Fn2
 BYTE   W12
 BYTE   N23  Cn2
 BYTE   N23  Fn2
 BYTE   W24
// 054   ----------------------------------------
 BYTE   N08  Cn2
 BYTE   N08  Fn2
 BYTE   W12
 BYTE   N23  Cn2
 BYTE   N23  Fn2
 BYTE   W24
 BYTE   N08  Cn2
 BYTE   N08  Fn2
 BYTE   W12
 BYTE   N23  Cn2
 BYTE   N23  Fn2
 BYTE   W24
 BYTE   Cn2
 BYTE   N23  Fn2
 BYTE   W24
// 055   ----------------------------------------
 BYTE   N32  Ds2
 BYTE   N32  Gs2
 BYTE   W36
 BYTE   Ds2
 BYTE   N32  Gs2
 BYTE   W36
 BYTE   N23  Ds2
 BYTE   N23  Gs2
 BYTE   W24
// 056   ----------------------------------------
 BYTE   Fn2
 BYTE   N23  As2
 BYTE   W24
 BYTE   N08  Fn2
 BYTE   N08  As2
 BYTE   W12
 BYTE   Fn2
 BYTE   N08  As2
 BYTE   W12
 BYTE   Fn2
 BYTE   N08  As2
 BYTE   W12
 BYTE   Fn2
 BYTE   N08  As2
 BYTE   W12
 BYTE   N23  Fn2
 BYTE   N23  As2
 BYTE   W24
// 057   ----------------------------------------
 BYTE   PATT
  POIN2 Label_1_015C3A5F
// 058   ----------------------------------------
 BYTE   N08  Fn2  v088
 BYTE   N08  As2
 BYTE   W12
 BYTE   Fn2
 BYTE   N08  As2
 BYTE   W12
 BYTE   Fn2
 BYTE   N08  As2
 BYTE   W12
 BYTE   Fn2
 BYTE   N08  As2
 BYTE   W12
 BYTE   Fn2
 BYTE   N08  As2
 BYTE   W12
 BYTE   N23  Fn2
 BYTE   N23  As2
 BYTE   W24
 BYTE   N08  Fn2
 BYTE   N08  As2
 BYTE   W12
// 059   ----------------------------------------
Label_1_015C3B06:
 BYTE   N23  As1  v088
 BYTE   N23  Ds2
 BYTE   W24
 BYTE   N08  As1
 BYTE   N08  Ds2
 BYTE   W12
 BYTE   As1
 BYTE   N08  Ds2
 BYTE   W12
 BYTE   As1
 BYTE   N08  Ds2
 BYTE   W12
 BYTE   As1
 BYTE   N08  Ds2
 BYTE   W12
 BYTE   As1
 BYTE   N08  Ds2
 BYTE   W12
 BYTE   As1
 BYTE   N08  Ds2
 BYTE   W12
 BYTE   PEND 
// 060   ----------------------------------------
Label_1_015C3B26:
 BYTE   N08  Cn2  v088
 BYTE   N08  Fn2
 BYTE   W12
 BYTE   N11  Cn2
 BYTE   N11  Fn2
 BYTE   W12
 BYTE   N08  Cn2
 BYTE   N08  Fn2
 BYTE   W12
 BYTE   Cn2
 BYTE   N08  Fn2
 BYTE   W12
 BYTE   N11  Cn2
 BYTE   N11  Fn2
 BYTE   W12
 BYTE   N08  Cn2
 BYTE   N08  Fn2
 BYTE   W12
 BYTE   Cn2
 BYTE   N08  Fn2
 BYTE   W12
 BYTE   Cn2
 BYTE   N08  Fn2
 BYTE   W12
 BYTE   PEND 
// 061   ----------------------------------------
Label_1_015C3B4D:
 BYTE   N11  Ds2  v088
 BYTE   N11  Gs2
 BYTE   W12
 BYTE   N08  Ds2
 BYTE   N08  Gs2
 BYTE   W12
 BYTE   N11  Ds2
 BYTE   N11  Gs2
 BYTE   W12
 BYTE   N08  Ds2
 BYTE   N08  Gs2
 BYTE   W12
 BYTE   N11  Ds2
 BYTE   N11  Gs2
 BYTE   W12
 BYTE   Ds2
 BYTE   N11  Gs2
 BYTE   W12
 BYTE   N08  Ds2
 BYTE   N08  Gs2
 BYTE   W12
 BYTE   Ds2
 BYTE   N08  Gs2
 BYTE   W12
 BYTE   PEND 
// 062   ----------------------------------------
Label_1_015C3B75:
 BYTE   N08  Fn2  v088
 BYTE   N08  As2
 BYTE   W12
 BYTE   Fn2
 BYTE   N08  As2
 BYTE   W12
 BYTE   Fn2
 BYTE   N08  As2
 BYTE   W12
 BYTE   Fn2
 BYTE   N08  As2
 BYTE   W12
 BYTE   Fn2
 BYTE   N08  As2
 BYTE   W12
 BYTE   N11  Fn2
 BYTE   N11  As2
 BYTE   W12
 BYTE   N08  Fn2
 BYTE   N08  As2
 BYTE   W12
 BYTE   N11  Fn2
 BYTE   N11  As2
 BYTE   W12
 BYTE   PEND 
// 063   ----------------------------------------
Label_1_015C3B9B:
 BYTE   N17  Fs2  v088
 BYTE   N17  Bn2
 BYTE   W24
 BYTE   N08  Fs2
 BYTE   N08  Bn2
 BYTE   W12
 BYTE   Fs2
 BYTE   N08  Bn2
 BYTE   W12
 BYTE   Fs2
 BYTE   N08  Bn2
 BYTE   W12
 BYTE   N11  Fs2
 BYTE   N11  Bn2
 BYTE   W12
 BYTE   N08  Fs2
 BYTE   N08  Bn2
 BYTE   W12
 BYTE   Fs2
 BYTE   N08  Bn2
 BYTE   W12
 BYTE   PEND 
// 064   ----------------------------------------
Label_1_015C3BBD:
 BYTE   N08  Cs2  v088
 BYTE   N08  Fs2
 BYTE   W12
 BYTE   N11  Cs2
 BYTE   N11  Fs2
 BYTE   W12
 BYTE   N08  Cs2
 BYTE   N08  Fs2
 BYTE   W12
 BYTE   Cs2
 BYTE   N08  Fs2
 BYTE   W12
 BYTE   N11  Cs2
 BYTE   N11  Fs2
 BYTE   W12
 BYTE   N08  Cs2
 BYTE   N08  Fs2
 BYTE   W12
 BYTE   N11  Cs2
 BYTE   N11  Fs2
 BYTE   W12
 BYTE   N08  Cs2
 BYTE   N08  Fs2
 BYTE   W12
 BYTE   PEND 
// 065   ----------------------------------------
Label_1_015C3BE6:
 BYTE   N08  Ds2  v088
 BYTE   N08  Gs2
 BYTE   W12
 BYTE   Ds2
 BYTE   N08  Gs2
 BYTE   W12
 BYTE   N11  Ds2
 BYTE   N11  Gs2
 BYTE   W12
 BYTE   N08  Ds2
 BYTE   N08  Gs2
 BYTE   W12
 BYTE   Ds2
 BYTE   N08  Gs2
 BYTE   W12
 BYTE   N11  Ds2
 BYTE   N11  Gs2
 BYTE   W12
 BYTE   N08  Ds2
 BYTE   N08  Gs2
 BYTE   W12
 BYTE   Ds2
 BYTE   N08  Gs2
 BYTE   W12
 BYTE   PEND 
// 066   ----------------------------------------
Label_1_015C3C0D:
 BYTE   N11  Fn2  v088
 BYTE   N11  As2
 BYTE   W12
 BYTE   N08  Fn2
 BYTE   N08  As2
 BYTE   W12
 BYTE   N11  Fn2
 BYTE   N11  As2
 BYTE   W12
 BYTE   N08  Fn2
 BYTE   N08  As2
 BYTE   W12
 BYTE   N11  Fn2
 BYTE   N11  As2
 BYTE   W12
 BYTE   Fn2
 BYTE   N11  As2
 BYTE   W12
 BYTE   N08  Fn2
 BYTE   N08  As2
 BYTE   W12
 BYTE   N11  Fn2
 BYTE   N11  As2
 BYTE   W12
 BYTE   PEND 
// 067   ----------------------------------------
 BYTE   PATT
  POIN2 Label_1_015C3B06
// 068   ----------------------------------------
 BYTE   PATT
  POIN2 Label_1_015C3B26
// 069   ----------------------------------------
 BYTE   PATT
  POIN2 Label_1_015C3B4D
// 070   ----------------------------------------
 BYTE   PATT
  POIN2 Label_1_015C3B75
// 071   ----------------------------------------
 BYTE   PATT
  POIN2 Label_1_015C3B9B
// 072   ----------------------------------------
 BYTE   PATT
  POIN2 Label_1_015C3BBD
// 073   ----------------------------------------
 BYTE   PATT
  POIN2 Label_1_015C3BE6
// 074   ----------------------------------------
 BYTE   PATT
  POIN2 Label_1_015C3C0D
// 075   ----------------------------------------
 BYTE   PATT
  POIN2 Label_1_015C3B06
// 076   ----------------------------------------
 BYTE   PATT
  POIN2 Label_1_015C3B26
// 077   ----------------------------------------
 BYTE   PATT
  POIN2 Label_1_015C3B4D
// 078   ----------------------------------------
 BYTE   PATT
  POIN2 Label_1_015C3B75
// 079   ----------------------------------------
 BYTE   PATT
  POIN2 Label_1_015C3B9B
// 080   ----------------------------------------
 BYTE   PATT
  POIN2 Label_1_015C3BBD
// 081   ----------------------------------------
 BYTE   PATT
  POIN2 Label_1_015C3BE6
// 082   ----------------------------------------
 BYTE   PATT
  POIN2 Label_1_015C3C0D
// 083   ----------------------------------------
 BYTE   PATT
  POIN2 Label_1_015C3B06
// 084   ----------------------------------------
 BYTE   PATT
  POIN2 Label_1_015C3B26
// 085   ----------------------------------------
 BYTE   PATT
  POIN2 Label_1_015C3B4D
// 086   ----------------------------------------
 BYTE   PATT
  POIN2 Label_1_015C3B75
// 087   ----------------------------------------
 BYTE   PATT
  POIN2 Label_1_015C3B9B
// 088   ----------------------------------------
 BYTE   PATT
  POIN2 Label_1_015C3BBD
// 089   ----------------------------------------
 BYTE   PATT
  POIN2 Label_1_015C3BE6
// 090   ----------------------------------------
 BYTE   PATT
  POIN2 Label_1_015C3BE6
// 091   ----------------------------------------
 BYTE   N92  Fn1  v088
 BYTE   N92  As1
 BYTE   W96
// 092   ----------------------------------------
 BYTE   GoTo
  POIN2 Label_1_015C3861
 BYTE   FINE

//**************** Track 3 (Midi-Chn.2) ****************//

song11_003:
// 000   ----------------------------------------
 BYTE   KEYSH   song11_key+0
 BYTE   VOICE   34
 BYTE   VOL   62*song11_mvl/mxv
 BYTE   BENDR  24
 BYTE   BEND   c_v+32
 BYTE   PAN   c_v+0
 BYTE   W96
// 001   ----------------------------------------
Label_2_015C3CC9:
 BYTE   N08  Ds1  v127
 BYTE   W12
 BYTE   N08
 BYTE   W12
 BYTE   N08
 BYTE   W12
 BYTE   N08
 BYTE   W12
 BYTE   N08
 BYTE   W12
 BYTE   N08
 BYTE   W12
 BYTE   N08
 BYTE   W12
 BYTE   N08
 BYTE   W12
 BYTE   PEND 
// 002   ----------------------------------------
Label_2_015C3CDC:
 BYTE   N08  Dn1  v127
 BYTE   W12
 BYTE   N08
 BYTE   W12
 BYTE   N08
 BYTE   W12
 BYTE   N08
 BYTE   W12
 BYTE   N08
 BYTE   W12
 BYTE   N08
 BYTE   W12
 BYTE   N08
 BYTE   W12
 BYTE   N08
 BYTE   W12
 BYTE   PEND 
// 003   ----------------------------------------
Label_2_015C3CEF:
 BYTE   N08  Cs1  v127
 BYTE   W12
 BYTE   N08
 BYTE   W12
 BYTE   N08
 BYTE   W12
 BYTE   N08
 BYTE   W12
 BYTE   N08
 BYTE   W12
 BYTE   N08
 BYTE   W12
 BYTE   N08
 BYTE   W12
 BYTE   N08
 BYTE   W12
 BYTE   PEND 
// 004   ----------------------------------------
Label_2_015C3D02:
 BYTE   N08  Cn1  v127
 BYTE   W12
 BYTE   N08
 BYTE   W12
 BYTE   N08
 BYTE   W12
 BYTE   N08
 BYTE   W12
 BYTE   N08
 BYTE   W12
 BYTE   N08
 BYTE   W12
 BYTE   N08
 BYTE   W12
 BYTE   N08
 BYTE   W12
 BYTE   PEND 
// 005   ----------------------------------------
Label_2_015C3D15:
 BYTE   N08  Gs0  v127
 BYTE   W12
 BYTE   N08
 BYTE   W12
 BYTE   N08
 BYTE   W12
 BYTE   N08
 BYTE   W12
 BYTE   N08
 BYTE   W12
 BYTE   N08
 BYTE   W12
 BYTE   N08
 BYTE   W12
 BYTE   N08
 BYTE   W12
 BYTE   PEND 
// 006   ----------------------------------------
 BYTE   PATT
  POIN2 Label_2_015C3CEF
// 007   ----------------------------------------
Label_2_015C3D2D:
 BYTE   N08  Fs0  v127
 BYTE   W12
 BYTE   N08
 BYTE   W12
 BYTE   N08
 BYTE   W12
 BYTE   N08
 BYTE   W12
 BYTE   N08
 BYTE   W12
 BYTE   N08
 BYTE   W12
 BYTE   N08
 BYTE   W12
 BYTE   N08
 BYTE   W12
 BYTE   PEND 
// 008   ----------------------------------------
 BYTE   Fn0
 BYTE   W12
 BYTE   N08
 BYTE   W12
 BYTE   N08
 BYTE   W12
 BYTE   N08
 BYTE   W12
 BYTE   As0
 BYTE   W12
 BYTE   N08
 BYTE   W12
 BYTE   N08
 BYTE   W12
 BYTE   N08
 BYTE   W12
// 009   ----------------------------------------
 BYTE   PATT
  POIN2 Label_2_015C3CC9
// 010   ----------------------------------------
 BYTE   PATT
  POIN2 Label_2_015C3CDC
// 011   ----------------------------------------
 BYTE   PATT
  POIN2 Label_2_015C3CEF
// 012   ----------------------------------------
 BYTE   PATT
  POIN2 Label_2_015C3D02
// 013   ----------------------------------------
 BYTE   PATT
  POIN2 Label_2_015C3D15
// 014   ----------------------------------------
Label_2_015C3D69:
 BYTE   N08  As0  v127
 BYTE   W12
 BYTE   N08
 BYTE   W12
 BYTE   N08
 BYTE   W12
 BYTE   N08
 BYTE   W12
 BYTE   N08
 BYTE   W12
 BYTE   N08
 BYTE   W12
 BYTE   N08
 BYTE   W12
 BYTE   N08
 BYTE   W12
 BYTE   PEND 
// 015   ----------------------------------------
 BYTE   PATT
  POIN2 Label_2_015C3CC9
// 016   ----------------------------------------
 BYTE   PATT
  POIN2 Label_2_015C3CC9
// 017   ----------------------------------------
 BYTE   PATT
  POIN2 Label_2_015C3CC9
// 018   ----------------------------------------
 BYTE   PATT
  POIN2 Label_2_015C3CC9
// 019   ----------------------------------------
 BYTE   PATT
  POIN2 Label_2_015C3CC9
// 020   ----------------------------------------
 BYTE   PATT
  POIN2 Label_2_015C3CC9
// 021   ----------------------------------------
 BYTE   PATT
  POIN2 Label_2_015C3CEF
// 022   ----------------------------------------
 BYTE   PATT
  POIN2 Label_2_015C3CEF
// 023   ----------------------------------------
 BYTE   PATT
  POIN2 Label_2_015C3CC9
// 024   ----------------------------------------
 BYTE   PATT
  POIN2 Label_2_015C3CC9
// 025   ----------------------------------------
 BYTE   PATT
  POIN2 Label_2_015C3CC9
// 026   ----------------------------------------
 BYTE   PATT
  POIN2 Label_2_015C3CC9
// 027   ----------------------------------------
Label_2_015C3DB8:
 BYTE   N08  Bn0  v127
 BYTE   W12
 BYTE   N08
 BYTE   W12
 BYTE   N08
 BYTE   W12
 BYTE   N08
 BYTE   W12
 BYTE   N08
 BYTE   W12
 BYTE   N08
 BYTE   W12
 BYTE   N08
 BYTE   W12
 BYTE   N08
 BYTE   W12
 BYTE   PEND 
// 028   ----------------------------------------
 BYTE   PATT
  POIN2 Label_2_015C3DB8
// 029   ----------------------------------------
 BYTE   PATT
  POIN2 Label_2_015C3CEF
// 030   ----------------------------------------
 BYTE   PATT
  POIN2 Label_2_015C3CEF
// 031   ----------------------------------------
 BYTE   PATT
  POIN2 Label_2_015C3CC9
// 032   ----------------------------------------
 BYTE   PATT
  POIN2 Label_2_015C3CC9
// 033   ----------------------------------------
 BYTE   PATT
  POIN2 Label_2_015C3CC9
// 034   ----------------------------------------
 BYTE   PATT
  POIN2 Label_2_015C3CC9
// 035   ----------------------------------------
 BYTE   PATT
  POIN2 Label_2_015C3CC9
// 036   ----------------------------------------
 BYTE   PATT
  POIN2 Label_2_015C3CC9
// 037   ----------------------------------------
 BYTE   PATT
  POIN2 Label_2_015C3CEF
// 038   ----------------------------------------
 BYTE   PATT
  POIN2 Label_2_015C3CEF
// 039   ----------------------------------------
 BYTE   PATT
  POIN2 Label_2_015C3CC9
// 040   ----------------------------------------
 BYTE   PATT
  POIN2 Label_2_015C3CC9
// 041   ----------------------------------------
 BYTE   PATT
  POIN2 Label_2_015C3CC9
// 042   ----------------------------------------
 BYTE   PATT
  POIN2 Label_2_015C3CC9
// 043   ----------------------------------------
 BYTE   PATT
  POIN2 Label_2_015C3DB8
// 044   ----------------------------------------
 BYTE   PATT
  POIN2 Label_2_015C3DB8
// 045   ----------------------------------------
 BYTE   PATT
  POIN2 Label_2_015C3CEF
// 046   ----------------------------------------
 BYTE   PATT
  POIN2 Label_2_015C3CEF
// 047   ----------------------------------------
 BYTE   PATT
  POIN2 Label_2_015C3CC9
// 048   ----------------------------------------
 BYTE   PATT
  POIN2 Label_2_015C3CC9
// 049   ----------------------------------------
 BYTE   N92  Gs0  v127
 BYTE   W96
// 050   ----------------------------------------
Label_2_015C3E38:
 BYTE   N23  Gs0  v127
 BYTE   W24
 BYTE   N08
 BYTE   W12
 BYTE   N23
 BYTE   W24
 BYTE   N08
 BYTE   W12
 BYTE   N23
 BYTE   W24
 BYTE   PEND 
// 051   ----------------------------------------
 BYTE   N92
 BYTE   W96
// 052   ----------------------------------------
 BYTE   PATT
  POIN2 Label_2_015C3E38
// 053   ----------------------------------------
 BYTE   N23  Fn0  v127
 BYTE   W24
 BYTE   N08
 BYTE   W12
 BYTE   N08
 BYTE   W12
 BYTE   N08
 BYTE   W12
 BYTE   N08
 BYTE   W12
 BYTE   N08
 BYTE   W12
 BYTE   N08
 BYTE   W12
// 054   ----------------------------------------
 BYTE   N23
 BYTE   W24
 BYTE   N08
 BYTE   W12
 BYTE   N23
 BYTE   W24
 BYTE   N08
 BYTE   W12
 BYTE   N08
 BYTE   W12
 BYTE   N08
 BYTE   W12
// 055   ----------------------------------------
 BYTE   PATT
  POIN2 Label_2_015C3D15
// 056   ----------------------------------------
 BYTE   PATT
  POIN2 Label_2_015C3D69
// 057   ----------------------------------------
 BYTE   PATT
  POIN2 Label_2_015C3D15
// 058   ----------------------------------------
 BYTE   PATT
  POIN2 Label_2_015C3D69
// 059   ----------------------------------------
Label_2_015C3E7C:
 BYTE   N08  Ds0  v127
 BYTE   W12
 BYTE   N08
 BYTE   W12
 BYTE   N08
 BYTE   W12
 BYTE   N08
 BYTE   W12
 BYTE   N08
 BYTE   W12
 BYTE   N08
 BYTE   W12
 BYTE   N08
 BYTE   W12
 BYTE   N08
 BYTE   W12
 BYTE   PEND 
// 060   ----------------------------------------
Label_2_015C3E8F:
 BYTE   N08  Fn0  v127
 BYTE   W12
 BYTE   N08
 BYTE   W12
 BYTE   N08
 BYTE   W12
 BYTE   N08
 BYTE   W12
 BYTE   N08
 BYTE   W12
 BYTE   N08
 BYTE   W12
 BYTE   N08
 BYTE   W12
 BYTE   N08
 BYTE   W12
 BYTE   PEND 
// 061   ----------------------------------------
 BYTE   PATT
  POIN2 Label_2_015C3D15
// 062   ----------------------------------------
 BYTE   PATT
  POIN2 Label_2_015C3D69
// 063   ----------------------------------------
 BYTE   PATT
  POIN2 Label_2_015C3DB8
// 064   ----------------------------------------
 BYTE   PATT
  POIN2 Label_2_015C3D2D
// 065   ----------------------------------------
 BYTE   PATT
  POIN2 Label_2_015C3D15
// 066   ----------------------------------------
 BYTE   PATT
  POIN2 Label_2_015C3D69
// 067   ----------------------------------------
 BYTE   PATT
  POIN2 Label_2_015C3E7C
// 068   ----------------------------------------
 BYTE   PATT
  POIN2 Label_2_015C3E8F
// 069   ----------------------------------------
 BYTE   PATT
  POIN2 Label_2_015C3D15
// 070   ----------------------------------------
 BYTE   PATT
  POIN2 Label_2_015C3D69
// 071   ----------------------------------------
 BYTE   PATT
  POIN2 Label_2_015C3DB8
// 072   ----------------------------------------
 BYTE   PATT
  POIN2 Label_2_015C3D2D
// 073   ----------------------------------------
 BYTE   PATT
  POIN2 Label_2_015C3D15
// 074   ----------------------------------------
 BYTE   PATT
  POIN2 Label_2_015C3D69
// 075   ----------------------------------------
 BYTE   PATT
  POIN2 Label_2_015C3E7C
// 076   ----------------------------------------
 BYTE   PATT
  POIN2 Label_2_015C3E8F
// 077   ----------------------------------------
 BYTE   PATT
  POIN2 Label_2_015C3D15
// 078   ----------------------------------------
 BYTE   PATT
  POIN2 Label_2_015C3D69
// 079   ----------------------------------------
 BYTE   PATT
  POIN2 Label_2_015C3DB8
// 080   ----------------------------------------
 BYTE   PATT
  POIN2 Label_2_015C3D2D
// 081   ----------------------------------------
 BYTE   PATT
  POIN2 Label_2_015C3D15
// 082   ----------------------------------------
 BYTE   PATT
  POIN2 Label_2_015C3D69
// 083   ----------------------------------------
 BYTE   PATT
  POIN2 Label_2_015C3E7C
// 084   ----------------------------------------
 BYTE   PATT
  POIN2 Label_2_015C3E8F
// 085   ----------------------------------------
 BYTE   PATT
  POIN2 Label_2_015C3D15
// 086   ----------------------------------------
 BYTE   PATT
  POIN2 Label_2_015C3D69
// 087   ----------------------------------------
 BYTE   PATT
  POIN2 Label_2_015C3DB8
// 088   ----------------------------------------
 BYTE   PATT
  POIN2 Label_2_015C3D2D
// 089   ----------------------------------------
 BYTE   PATT
  POIN2 Label_2_015C3D15
// 090   ----------------------------------------
 BYTE   PATT
  POIN2 Label_2_015C3D15
// 091   ----------------------------------------
 BYTE   N92  As0  v127
 BYTE   W96
// 092   ----------------------------------------
 BYTE   GoTo
  POIN2 Label_2_015C3CC9
 BYTE   FINE

//**************** Track 4 (Midi-Chn.3) ****************//

song11_004:
// 000   ----------------------------------------
 BYTE   KEYSH   song11_key+0
 BYTE   VOICE   4
 BYTE   VOL   13*song11_mvl/mxv
 BYTE   PAN   c_v+0
 BYTE   W96
// 001   ----------------------------------------
Label_3_015C3F4D:
 BYTE   N08  Ds5  v116
 BYTE   N08  Gs5
 BYTE   W12
 BYTE   Fn5
 BYTE   N08  As5
 BYTE   W12
 BYTE   N08
 BYTE   N08  Ds6
 BYTE   W12
 BYTE   Ds5
 BYTE   N08  Gs5
 BYTE   W12
 BYTE   Fn5
 BYTE   N08  As5
 BYTE   W12
 BYTE   N08
 BYTE   N08  Ds6
 BYTE   W12
 BYTE   Ds5
 BYTE   N08  Gs5
 BYTE   W12
 BYTE   Fn5
 BYTE   N08  As5
 BYTE   W12
 BYTE   PEND 
// 002   ----------------------------------------
Label_3_015C3F70:
 BYTE   N08  As5  v116
 BYTE   N08  Ds6
 BYTE   W12
 BYTE   Ds5
 BYTE   N08  Gs5
 BYTE   W12
 BYTE   Fn5
 BYTE   N08  As5
 BYTE   W12
 BYTE   N08
 BYTE   N08  Ds6
 BYTE   W12
 BYTE   Ds5
 BYTE   N08  Gs5
 BYTE   W12
 BYTE   Fn5
 BYTE   N08  As5
 BYTE   W12
 BYTE   N08
 BYTE   N08  Ds6
 BYTE   W12
 BYTE   Ds5
 BYTE   N08  Gs5
 BYTE   W12
 BYTE   PEND 
// 003   ----------------------------------------
Label_3_015C3F93:
 BYTE   N08  Fn5  v116
 BYTE   N08  As5
 BYTE   W12
 BYTE   N08
 BYTE   N08  Ds6
 BYTE   W12
 BYTE   Ds5
 BYTE   N08  Gs5
 BYTE   W12
 BYTE   Fn5
 BYTE   N08  As5
 BYTE   W12
 BYTE   N08
 BYTE   N08  Ds6
 BYTE   W12
 BYTE   Ds5
 BYTE   N08  Gs5
 BYTE   W12
 BYTE   Fn5
 BYTE   N08  As5
 BYTE   W12
 BYTE   N08
 BYTE   N08  Ds6
 BYTE   W12
 BYTE   PEND 
// 004   ----------------------------------------
 BYTE   PATT
  POIN2 Label_3_015C3F4D
// 005   ----------------------------------------
 BYTE   PATT
  POIN2 Label_3_015C3F70
// 006   ----------------------------------------
 BYTE   PATT
  POIN2 Label_3_015C3F93
// 007   ----------------------------------------
 BYTE   PATT
  POIN2 Label_3_015C3F4D
// 008   ----------------------------------------
 BYTE   PATT
  POIN2 Label_3_015C3F70
// 009   ----------------------------------------
 BYTE   PATT
  POIN2 Label_3_015C3F93
// 010   ----------------------------------------
 BYTE   PATT
  POIN2 Label_3_015C3F4D
// 011   ----------------------------------------
 BYTE   PATT
  POIN2 Label_3_015C3F70
// 012   ----------------------------------------
 BYTE   PATT
  POIN2 Label_3_015C3F93
// 013   ----------------------------------------
 BYTE   PATT
  POIN2 Label_3_015C3F4D
// 014   ----------------------------------------
 BYTE   PATT
  POIN2 Label_3_015C3F70
// 015   ----------------------------------------
 BYTE   PATT
  POIN2 Label_3_015C3F93
// 016   ----------------------------------------
 BYTE   PATT
  POIN2 Label_3_015C3F4D
// 017   ----------------------------------------
 BYTE   W96
// 018   ----------------------------------------
 BYTE   W96
// 019   ----------------------------------------
 BYTE   W96
// 020   ----------------------------------------
 BYTE   W96
// 021   ----------------------------------------
 BYTE   W96
// 022   ----------------------------------------
 BYTE   W96
// 023   ----------------------------------------
 BYTE   W96
// 024   ----------------------------------------
Label_3_015C3FFE:
 BYTE   VOL   23*song11_mvl/mxv
 BYTE   W12
 BYTE   N11  Ds3  v127
 BYTE   N11  Ds4
 BYTE   W12
 BYTE   Ds3
 BYTE   N11  Ds4
 BYTE   W12
 BYTE   Fn3
 BYTE   N11  Fn4
 BYTE   W12
 BYTE   Fs3
 BYTE   N11  Fs4
 BYTE   W12
 BYTE   Fn3
 BYTE   N11  Fn4
 BYTE   W12
 BYTE   Ds3
 BYTE   N11  Ds4
 BYTE   W12
 BYTE   Cs3
 BYTE   N11  Cs4
 BYTE   W12
 BYTE   PEND 
// 025   ----------------------------------------
 BYTE   Ds3
 BYTE   N11  Ds4
 BYTE   W96
// 026   ----------------------------------------
 BYTE   W96
// 027   ----------------------------------------
 BYTE   W96
// 028   ----------------------------------------
 BYTE   W96
// 029   ----------------------------------------
 BYTE   W96
// 030   ----------------------------------------
 BYTE   W96
// 031   ----------------------------------------
 BYTE   W96
// 032   ----------------------------------------
 BYTE   W96
// 033   ----------------------------------------
 BYTE   W96
// 034   ----------------------------------------
 BYTE   W96
// 035   ----------------------------------------
 BYTE   W96
// 036   ----------------------------------------
 BYTE   W96
// 037   ----------------------------------------
 BYTE   W96
// 038   ----------------------------------------
 BYTE   W96
// 039   ----------------------------------------
 BYTE   W96
// 040   ----------------------------------------
 BYTE   PATT
  POIN2 Label_3_015C3FFE
// 041   ----------------------------------------
 BYTE   N11  Ds3  v127
 BYTE   N11  Ds4
 BYTE   W96
// 042   ----------------------------------------
 BYTE   W96
// 043   ----------------------------------------
 BYTE   W96
// 044   ----------------------------------------
 BYTE   W96
// 045   ----------------------------------------
 BYTE   W96
// 046   ----------------------------------------
 BYTE   W96
// 047   ----------------------------------------
 BYTE   W96
// 048   ----------------------------------------
 BYTE   W96
// 049   ----------------------------------------
 BYTE   TIE  Gs2  v104
 BYTE   TIE  Bn2
 BYTE   TIE  Ds3
 BYTE   TIE  Fs3
 BYTE   W96
// 050   ----------------------------------------
 BYTE   W96
// 051   ----------------------------------------
 BYTE   W96
// 052   ----------------------------------------
 BYTE   W92
 BYTE   W03
 BYTE   EOT
 BYTE   Gs2  v059
 BYTE   Ds3  v066
 BYTE   W01
// 053   ----------------------------------------
 BYTE   TIE  Gs2
 BYTE   TIE  Bn2
 BYTE   TIE  Ds3
 BYTE   TIE  Fn3
 BYTE   W96
// 054   ----------------------------------------
 BYTE   W92
 BYTE   W03
 BYTE   EOT
 BYTE   Gs2  v059
 BYTE   Ds3  v065
 BYTE   W01
// 055   ----------------------------------------
 BYTE   N92  Gs2
 BYTE   N92  Bn2
 BYTE   N92  Ds3
 BYTE   W96
// 056   ----------------------------------------
 BYTE   As2
 BYTE   N92  Dn3
 BYTE   N92  Fn3
 BYTE   W96
// 057   ----------------------------------------
 BYTE   Gs2  v127
 BYTE   N92  Bn2
 BYTE   N92  Ds3
 BYTE   N92  Fs3
 BYTE   W96
// 058   ----------------------------------------
 BYTE   As2
 BYTE   N92  Dn3
 BYTE   N92  Fn3
 BYTE   N92  Gs3
 BYTE   W96
// 059   ----------------------------------------
Label_3_015C4087:
 BYTE   N92  As3  v104
 BYTE   N92  Ds4
 BYTE   N92  Fs4
 BYTE   W96
 BYTE   PEND 
// 060   ----------------------------------------
Label_3_015C4090:
 BYTE   N92  Cs4  v104
 BYTE   N92  Fn4
 BYTE   N92  Gs4
 BYTE   W96
 BYTE   PEND 
// 061   ----------------------------------------
Label_3_015C4099:
 BYTE   N92  Cs4  v104
 BYTE   N92  Ds4
 BYTE   N92  Gs4
 BYTE   W96
 BYTE   PEND 
// 062   ----------------------------------------
Label_3_015C40A2:
 BYTE   N92  Cn4  v104
 BYTE   N92  Ds4
 BYTE   N92  Gs4
 BYTE   W96
 BYTE   PEND 
// 063   ----------------------------------------
Label_3_015C40AB:
 BYTE   N92  Ds4  v104
 BYTE   N92  Fs4
 BYTE   N92  Bn4
 BYTE   W96
 BYTE   PEND 
// 064   ----------------------------------------
Label_3_015C40B4:
 BYTE   N92  Cs4  v104
 BYTE   N92  Fs4
 BYTE   N92  As4
 BYTE   W96
 BYTE   PEND 
// 065   ----------------------------------------
 BYTE   PATT
  POIN2 Label_3_015C40A2
// 066   ----------------------------------------
Label_3_015C40C2:
 BYTE   N92  Dn4  v104
 BYTE   N92  Fn4
 BYTE   N92  As4
 BYTE   W96
 BYTE   PEND 
// 067   ----------------------------------------
 BYTE   PATT
  POIN2 Label_3_015C4087
// 068   ----------------------------------------
 BYTE   PATT
  POIN2 Label_3_015C4090
// 069   ----------------------------------------
 BYTE   PATT
  POIN2 Label_3_015C4099
// 070   ----------------------------------------
 BYTE   PATT
  POIN2 Label_3_015C40A2
// 071   ----------------------------------------
 BYTE   PATT
  POIN2 Label_3_015C40AB
// 072   ----------------------------------------
 BYTE   PATT
  POIN2 Label_3_015C40B4
// 073   ----------------------------------------
 BYTE   PATT
  POIN2 Label_3_015C40A2
// 074   ----------------------------------------
 BYTE   PATT
  POIN2 Label_3_015C40C2
// 075   ----------------------------------------
 BYTE   PATT
  POIN2 Label_3_015C4087
// 076   ----------------------------------------
 BYTE   PATT
  POIN2 Label_3_015C4090
// 077   ----------------------------------------
 BYTE   PATT
  POIN2 Label_3_015C4099
// 078   ----------------------------------------
 BYTE   PATT
  POIN2 Label_3_015C40A2
// 079   ----------------------------------------
 BYTE   PATT
  POIN2 Label_3_015C40AB
// 080   ----------------------------------------
 BYTE   PATT
  POIN2 Label_3_015C40B4
// 081   ----------------------------------------
 BYTE   PATT
  POIN2 Label_3_015C40A2
// 082   ----------------------------------------
 BYTE   PATT
  POIN2 Label_3_015C40C2
// 083   ----------------------------------------
 BYTE   PATT
  POIN2 Label_3_015C4087
// 084   ----------------------------------------
 BYTE   PATT
  POIN2 Label_3_015C4090
// 085   ----------------------------------------
 BYTE   PATT
  POIN2 Label_3_015C4099
// 086   ----------------------------------------
 BYTE   PATT
  POIN2 Label_3_015C40A2
// 087   ----------------------------------------
 BYTE   PATT
  POIN2 Label_3_015C40AB
// 088   ----------------------------------------
 BYTE   PATT
  POIN2 Label_3_015C40B4
// 089   ----------------------------------------
 BYTE   TIE  Cn4  v104
 BYTE   TIE  Ds4
 BYTE   TIE  Gs4
 BYTE   W96
// 090   ----------------------------------------
 BYTE   W92
 BYTE   W03
 BYTE   EOT
 BYTE   Cn4  v075
 BYTE   Gs4
 BYTE   W01
// 091   ----------------------------------------
 BYTE   PATT
  POIN2 Label_3_015C40C2
// 092   ----------------------------------------
 BYTE   GoTo
  POIN2 Label_3_015C3F4D
 BYTE   FINE

//**************** Track 5 (Midi-Chn.4) ****************//

song11_005:
// 000   ----------------------------------------
 BYTE   KEYSH   song11_key+0
 BYTE   VOICE   18
 BYTE   VOL   46*song11_mvl/mxv
 BYTE   PAN   c_v-37
 BYTE   W96
// 001   ----------------------------------------
Label_4_015C415D:
 BYTE   N68  Ds4  v088
 BYTE   N68  Fs4
 BYTE   N68  As4
 BYTE   W72
 BYTE   N22  Ds4
 BYTE   N22  Fs4
 BYTE   N22  As4
 BYTE   W24
 BYTE   PEND 
// 002   ----------------------------------------
Label_4_015C416D:
 BYTE   N68  Dn4  v088
 BYTE   N68  Fn4
 BYTE   N68  As4
 BYTE   W72
 BYTE   N22  Dn4
 BYTE   N22  Fn4
 BYTE   N22  As4
 BYTE   W24
 BYTE   PEND 
// 003   ----------------------------------------
Label_4_015C417D:
 BYTE   N32  Cs4  v088
 BYTE   N32  Fs4
 BYTE   N32  As4
 BYTE   W36
 BYTE   Cs4
 BYTE   N32  Fs4
 BYTE   N32  As4
 BYTE   W36
 BYTE   N22  Cs4
 BYTE   N22  Fs4
 BYTE   N22  As4
 BYTE   W24
 BYTE   PEND 
// 004   ----------------------------------------
Label_4_015C4193:
 BYTE   N32  Cn4  v088
 BYTE   N32  Ds4
 BYTE   N32  Fs4
 BYTE   N32  As4
 BYTE   W36
 BYTE   Cn4
 BYTE   N32  Ds4
 BYTE   N32  Fs4
 BYTE   N32  As4
 BYTE   W36
 BYTE   N22  Cn4
 BYTE   N22  Ds4
 BYTE   N22  Fs4
 BYTE   N22  As4
 BYTE   W24
 BYTE   PEND 
// 005   ----------------------------------------
Label_4_015C41AF:
 BYTE   N32  Bn3  v088
 BYTE   N32  Ds4
 BYTE   N32  Fs4
 BYTE   N32  As4
 BYTE   W36
 BYTE   Bn3
 BYTE   N32  Ds4
 BYTE   N32  Fs4
 BYTE   N32  As4
 BYTE   W36
 BYTE   N22  Bn3
 BYTE   N22  Ds4
 BYTE   N22  Fs4
 BYTE   N22  As4
 BYTE   W24
 BYTE   PEND 
// 006   ----------------------------------------
 BYTE   N44  Cs4
 BYTE   N44  Fn4
 BYTE   N44  Gs4
 BYTE   W48
 BYTE   Cs4
 BYTE   N44  Ds4
 BYTE   N44  Gs4
 BYTE   W48
// 007   ----------------------------------------
 BYTE   N68  As3
 BYTE   N68  Cs4
 BYTE   N68  Fs4
 BYTE   W72
 BYTE   N22  As3
 BYTE   N22  Cs4
 BYTE   N22  Fs4
 BYTE   W24
// 008   ----------------------------------------
 BYTE   N11  As3
 BYTE   N22  Ds4
 BYTE   N32  Fn4
 BYTE   W12
 BYTE   As3
 BYTE   W12
 BYTE   N22  Ds4
 BYTE   W12
 BYTE   N11  Fn4
 BYTE   W12
 BYTE   As3
 BYTE   N22  Dn4
 BYTE   N32  Fn4
 BYTE   W12
 BYTE   As3
 BYTE   W12
 BYTE   N22  Dn4
 BYTE   W12
 BYTE   N11  Fn4
 BYTE   W12
// 009   ----------------------------------------
 BYTE   PATT
  POIN2 Label_4_015C415D
// 010   ----------------------------------------
 BYTE   PATT
  POIN2 Label_4_015C416D
// 011   ----------------------------------------
 BYTE   PATT
  POIN2 Label_4_015C417D
// 012   ----------------------------------------
 BYTE   PATT
  POIN2 Label_4_015C4193
// 013   ----------------------------------------
 BYTE   PATT
  POIN2 Label_4_015C41AF
// 014   ----------------------------------------
 BYTE   N44  As3  v088
 BYTE   N44  Dn4
 BYTE   N44  Fn4
 BYTE   N44  As4
 BYTE   W48
 BYTE   As3
 BYTE   N44  Dn4
 BYTE   N44  Fn4
 BYTE   W48
// 015   ----------------------------------------
 BYTE   N68  Fn3
 BYTE   N68  As3
 BYTE   N68  Cs4
 BYTE   W72
 BYTE   N22  Fn3
 BYTE   N22  As3
 BYTE   N22  Cs4
 BYTE   W24
// 016   ----------------------------------------
 BYTE   N90  Fs3
 BYTE   N90  As3
 BYTE   N90  Ds4
 BYTE   W96
// 017   ----------------------------------------
 BYTE   PATT
  POIN2 Label_4_015C415D
// 018   ----------------------------------------
 BYTE   PATT
  POIN2 Label_4_015C415D
// 019   ----------------------------------------
Label_4_015C424B:
 BYTE   N32  Cs4  v088
 BYTE   N32  Fn4
 BYTE   N32  As4
 BYTE   W36
 BYTE   Cs4
 BYTE   N32  Fn4
 BYTE   N32  As4
 BYTE   W36
 BYTE   N22  Cs4
 BYTE   N22  Fn4
 BYTE   N22  As4
 BYTE   W24
 BYTE   PEND 
// 020   ----------------------------------------
 BYTE   PATT
  POIN2 Label_4_015C424B
// 021   ----------------------------------------
Label_4_015C4266:
 BYTE   N32  Cs4  v088
 BYTE   N32  Fn4
 BYTE   N32  Gs4
 BYTE   W36
 BYTE   Cs4
 BYTE   N32  Fn4
 BYTE   N32  Gs4
 BYTE   W36
 BYTE   N22  Cs4
 BYTE   N22  Fn4
 BYTE   N22  Gs4
 BYTE   W24
 BYTE   PEND 
// 022   ----------------------------------------
Label_4_015C427C:
 BYTE   N44  Cs4  v088
 BYTE   N44  Fn4
 BYTE   N44  Gs4
 BYTE   W48
 BYTE   Cs4
 BYTE   N44  Fn4
 BYTE   N44  Gs4
 BYTE   W48
 BYTE   PEND 
// 023   ----------------------------------------
 BYTE   PATT
  POIN2 Label_4_015C415D
// 024   ----------------------------------------
Label_4_015C4290:
 BYTE   N90  Ds4  v088
 BYTE   N90  Fs4
 BYTE   N90  As4
 BYTE   W96
 BYTE   PEND 
// 025   ----------------------------------------
 BYTE   PATT
  POIN2 Label_4_015C415D
// 026   ----------------------------------------
 BYTE   PATT
  POIN2 Label_4_015C415D
// 027   ----------------------------------------
Label_4_015C42A3:
 BYTE   N32  Bn3  v088
 BYTE   N32  Ds4
 BYTE   N32  Fs4
 BYTE   W36
 BYTE   Bn3
 BYTE   N32  Ds4
 BYTE   N32  Fs4
 BYTE   W36
 BYTE   N22  Bn3
 BYTE   N22  Ds4
 BYTE   N22  Fs4
 BYTE   W24
 BYTE   PEND 
// 028   ----------------------------------------
 BYTE   PATT
  POIN2 Label_4_015C42A3
// 029   ----------------------------------------
 BYTE   PATT
  POIN2 Label_4_015C4266
// 030   ----------------------------------------
 BYTE   PATT
  POIN2 Label_4_015C427C
// 031   ----------------------------------------
 BYTE   PATT
  POIN2 Label_4_015C415D
// 032   ----------------------------------------
 BYTE   PATT
  POIN2 Label_4_015C4290
// 033   ----------------------------------------
 BYTE   PATT
  POIN2 Label_4_015C415D
// 034   ----------------------------------------
 BYTE   PATT
  POIN2 Label_4_015C415D
// 035   ----------------------------------------
 BYTE   PATT
  POIN2 Label_4_015C424B
// 036   ----------------------------------------
 BYTE   PATT
  POIN2 Label_4_015C424B
// 037   ----------------------------------------
 BYTE   PATT
  POIN2 Label_4_015C4266
// 038   ----------------------------------------
 BYTE   PATT
  POIN2 Label_4_015C427C
// 039   ----------------------------------------
 BYTE   PATT
  POIN2 Label_4_015C415D
// 040   ----------------------------------------
 BYTE   PATT
  POIN2 Label_4_015C4290
// 041   ----------------------------------------
 BYTE   PATT
  POIN2 Label_4_015C415D
// 042   ----------------------------------------
 BYTE   PATT
  POIN2 Label_4_015C415D
// 043   ----------------------------------------
 BYTE   PATT
  POIN2 Label_4_015C42A3
// 044   ----------------------------------------
 BYTE   PATT
  POIN2 Label_4_015C42A3
// 045   ----------------------------------------
 BYTE   PATT
  POIN2 Label_4_015C4266
// 046   ----------------------------------------
 BYTE   PATT
  POIN2 Label_4_015C427C
// 047   ----------------------------------------
 BYTE   PATT
  POIN2 Label_4_015C415D
// 048   ----------------------------------------
 BYTE   N44  Ds4  v088
 BYTE   N44  Fs4
 BYTE   N44  As4
 BYTE   W96
// 049   ----------------------------------------
 BYTE   W96
// 050   ----------------------------------------
Label_4_015C4326:
 BYTE   W36
 BYTE   N11  Gs3  v127
 BYTE   N11  Gs4
 BYTE   W60
 BYTE   PEND 
// 051   ----------------------------------------
 BYTE   W96
// 052   ----------------------------------------
 BYTE   PATT
  POIN2 Label_4_015C4326
// 053   ----------------------------------------
 BYTE   W96
// 054   ----------------------------------------
 BYTE   W96
// 055   ----------------------------------------
 BYTE   W96
// 056   ----------------------------------------
 BYTE   W96
// 057   ----------------------------------------
 BYTE   W96
// 058   ----------------------------------------
 BYTE   W96
// 059   ----------------------------------------
 BYTE   W96
// 060   ----------------------------------------
 BYTE   W96
// 061   ----------------------------------------
 BYTE   W96
// 062   ----------------------------------------
 BYTE   W96
// 063   ----------------------------------------
 BYTE   W96
// 064   ----------------------------------------
 BYTE   W96
// 065   ----------------------------------------
 BYTE   W96
// 066   ----------------------------------------
 BYTE   W96
// 067   ----------------------------------------
 BYTE   W96
// 068   ----------------------------------------
 BYTE   W96
// 069   ----------------------------------------
 BYTE   W96
// 070   ----------------------------------------
 BYTE   W96
// 071   ----------------------------------------
 BYTE   W96
// 072   ----------------------------------------
 BYTE   W96
// 073   ----------------------------------------
 BYTE   W96
// 074   ----------------------------------------
 BYTE   W96
// 075   ----------------------------------------
Label_4_015C434A:
 BYTE   N32  Ds4  v088
 BYTE   N32  Fs4
 BYTE   N32  As4
 BYTE   W36
 BYTE   Ds4
 BYTE   N32  Fs4
 BYTE   N32  As4
 BYTE   W36
 BYTE   N22  Ds4
 BYTE   N22  Fs4
 BYTE   N22  As4
 BYTE   W24
 BYTE   PEND 
// 076   ----------------------------------------
Label_4_015C4360:
 BYTE   N32  Fn4  v088
 BYTE   N32  Gs4
 BYTE   N32  Cs5
 BYTE   W36
 BYTE   Fn4
 BYTE   N32  Gs4
 BYTE   N32  Cs5
 BYTE   W36
 BYTE   N22  Fn4
 BYTE   N22  Gs4
 BYTE   N22  Cs5
 BYTE   W24
 BYTE   PEND 
// 077   ----------------------------------------
Label_4_015C4376:
 BYTE   N32  Gs4  v088
 BYTE   N32  Cs5
 BYTE   W36
 BYTE   Gs4
 BYTE   N32  Cs5
 BYTE   W36
 BYTE   N22  Gs4
 BYTE   N22  Cs5
 BYTE   W24
 BYTE   PEND 
// 078   ----------------------------------------
 BYTE   N90  Gs4
 BYTE   N90  Cn5
 BYTE   W96
// 079   ----------------------------------------
Label_4_015C438B:
 BYTE   N32  Gs4  v088
 BYTE   N32  Bn4
 BYTE   W36
 BYTE   Gs4
 BYTE   N32  Bn4
 BYTE   W36
 BYTE   N22  Gs4
 BYTE   N22  Bn4
 BYTE   W24
 BYTE   PEND 
// 080   ----------------------------------------
Label_4_015C439B:
 BYTE   N22  Fs4  v088
 BYTE   N22  As4
 BYTE   W24
 BYTE   Fs4
 BYTE   N22  As4
 BYTE   W24
 BYTE   Fs4
 BYTE   N22  As4
 BYTE   W24
 BYTE   Fs4
 BYTE   N22  As4
 BYTE   W24
 BYTE   PEND 
// 081   ----------------------------------------
 BYTE   N32  Ds4
 BYTE   N32  Gs4
 BYTE   W36
 BYTE   Ds4
 BYTE   N32  Gs4
 BYTE   W36
 BYTE   N22  Ds4
 BYTE   N22  Gs4
 BYTE   W24
// 082   ----------------------------------------
 BYTE   N90  Fn4
 BYTE   N90  As4
 BYTE   W96
// 083   ----------------------------------------
 BYTE   PATT
  POIN2 Label_4_015C434A
// 084   ----------------------------------------
 BYTE   PATT
  POIN2 Label_4_015C4360
// 085   ----------------------------------------
 BYTE   PATT
  POIN2 Label_4_015C4376
// 086   ----------------------------------------
 BYTE   N90  Gs4  v088
 BYTE   N90  Cn5
 BYTE   W96
// 087   ----------------------------------------
 BYTE   PATT
  POIN2 Label_4_015C438B
// 088   ----------------------------------------
 BYTE   PATT
  POIN2 Label_4_015C439B
// 089   ----------------------------------------
 BYTE   N32  Ds4  v088
 BYTE   N32  Gs4
 BYTE   W96
// 090   ----------------------------------------
 BYTE   W96
// 091   ----------------------------------------
 BYTE   N90  Fn4
 BYTE   N90  As4
 BYTE   W96
// 092   ----------------------------------------
 BYTE   GoTo
  POIN2 Label_4_015C415D
 BYTE   FINE

//**************** Track 6 (Midi-Chn.5) ****************//

song11_006:
// 000   ----------------------------------------
 BYTE   KEYSH   song11_key+0
 BYTE   VOICE   124
 BYTE   VOL   65*song11_mvl/mxv
 BYTE   PAN   c_v+0
 BYTE   N23  As5  v120
 BYTE   W24
 BYTE   N23
 BYTE   W24
 BYTE   N23
 BYTE   W24
 BYTE   N23
 BYTE   W24
// 001   ----------------------------------------
Label_5_015C4406:
 BYTE   N02  Cn1  v127
 BYTE   N02  Cs2
 BYTE   W24
 BYTE   Dn1
 BYTE   N02  As1
 BYTE   W24
 BYTE   Cn1
 BYTE   W12
 BYTE   N02
 BYTE   W12
 BYTE   Dn1
 BYTE   N02  As1
 BYTE   W24
 BYTE   PEND 
// 002   ----------------------------------------
Label_5_015C4419:
 BYTE   N02  Cn1  v127
 BYTE   W24
 BYTE   Dn1
 BYTE   N02  As1
 BYTE   W24
 BYTE   Cn1
 BYTE   W12
 BYTE   N02
 BYTE   W12
 BYTE   Dn1
 BYTE   N02  As1
 BYTE   W24
 BYTE   PEND 
// 003   ----------------------------------------
 BYTE   PATT
  POIN2 Label_5_015C4419
// 004   ----------------------------------------
 BYTE   PATT
  POIN2 Label_5_015C4419
// 005   ----------------------------------------
 BYTE   PATT
  POIN2 Label_5_015C4419
// 006   ----------------------------------------
 BYTE   PATT
  POIN2 Label_5_015C4419
// 007   ----------------------------------------
 BYTE   PATT
  POIN2 Label_5_015C4419
// 008   ----------------------------------------
Label_5_015C4443:
 BYTE   N02  Cn1  v127
 BYTE   W12
 BYTE   N02
 BYTE   W12
 BYTE   Dn1
 BYTE   N02  As1
 BYTE   W24
 BYTE   Cn1
 BYTE   N02  Dn1
 BYTE   W12
 BYTE   Cn1
 BYTE   N02  Dn1
 BYTE   W12
 BYTE   Cn1
 BYTE   N02  Dn1
 BYTE   W12
 BYTE   Cn1
 BYTE   N02  Dn1
 BYTE   W12
 BYTE   PEND 
// 009   ----------------------------------------
Label_5_015C445E:
 BYTE   N02  Cn1  v127
 BYTE   N02  An2
 BYTE   W24
 BYTE   Dn1
 BYTE   N02  As1
 BYTE   W24
 BYTE   Cn1
 BYTE   W12
 BYTE   N02
 BYTE   W12
 BYTE   Dn1
 BYTE   N02  As1
 BYTE   W24
 BYTE   PEND 
// 010   ----------------------------------------
 BYTE   PATT
  POIN2 Label_5_015C4419
// 011   ----------------------------------------
 BYTE   PATT
  POIN2 Label_5_015C4419
// 012   ----------------------------------------
 BYTE   PATT
  POIN2 Label_5_015C4419
// 013   ----------------------------------------
 BYTE   PATT
  POIN2 Label_5_015C4419
// 014   ----------------------------------------
 BYTE   PATT
  POIN2 Label_5_015C4419
// 015   ----------------------------------------
 BYTE   PATT
  POIN2 Label_5_015C4419
// 016   ----------------------------------------
Label_5_015C448F:
 BYTE   N02  Cn1  v127
 BYTE   N02  Dn1
 BYTE   W12
 BYTE   Cn1
 BYTE   N02  Dn1
 BYTE   W12
 BYTE   Cn1
 BYTE   N02  Dn1
 BYTE   W12
 BYTE   Cn1
 BYTE   N02  Dn1
 BYTE   W12
 BYTE   Cn1
 BYTE   N02  Dn1
 BYTE   W12
 BYTE   Cn1
 BYTE   N02  Dn1
 BYTE   W12
 BYTE   Cn1
 BYTE   N02  Dn1
 BYTE   W12
 BYTE   Cn1
 BYTE   N02  Dn1
 BYTE   W12
 BYTE   PEND 
// 017   ----------------------------------------
 BYTE   PATT
  POIN2 Label_5_015C4406
// 018   ----------------------------------------
 BYTE   PATT
  POIN2 Label_5_015C4419
// 019   ----------------------------------------
 BYTE   PATT
  POIN2 Label_5_015C4419
// 020   ----------------------------------------
 BYTE   PATT
  POIN2 Label_5_015C4419
// 021   ----------------------------------------
 BYTE   PATT
  POIN2 Label_5_015C4419
// 022   ----------------------------------------
 BYTE   PATT
  POIN2 Label_5_015C4419
// 023   ----------------------------------------
 BYTE   PATT
  POIN2 Label_5_015C4419
// 024   ----------------------------------------
 BYTE   PATT
  POIN2 Label_5_015C4443
// 025   ----------------------------------------
 BYTE   PATT
  POIN2 Label_5_015C445E
// 026   ----------------------------------------
 BYTE   PATT
  POIN2 Label_5_015C4419
// 027   ----------------------------------------
 BYTE   PATT
  POIN2 Label_5_015C4419
// 028   ----------------------------------------
 BYTE   PATT
  POIN2 Label_5_015C4419
// 029   ----------------------------------------
 BYTE   N02  Cn1  v127
 BYTE   N02  Gn2
 BYTE   W24
 BYTE   Dn1
 BYTE   N02  As1
 BYTE   W24
 BYTE   Cn1
 BYTE   W12
 BYTE   N02
 BYTE   W12
 BYTE   Dn1
 BYTE   N02  As1
 BYTE   W24
// 030   ----------------------------------------
 BYTE   PATT
  POIN2 Label_5_015C4419
// 031   ----------------------------------------
 BYTE   PATT
  POIN2 Label_5_015C4419
// 032   ----------------------------------------
 BYTE   PATT
  POIN2 Label_5_015C448F
// 033   ----------------------------------------
 BYTE   PATT
  POIN2 Label_5_015C4406
// 034   ----------------------------------------
 BYTE   PATT
  POIN2 Label_5_015C4419
// 035   ----------------------------------------
 BYTE   PATT
  POIN2 Label_5_015C4419
// 036   ----------------------------------------
 BYTE   PATT
  POIN2 Label_5_015C4419
// 037   ----------------------------------------
 BYTE   PATT
  POIN2 Label_5_015C4419
// 038   ----------------------------------------
 BYTE   PATT
  POIN2 Label_5_015C4419
// 039   ----------------------------------------
 BYTE   PATT
  POIN2 Label_5_015C4419
// 040   ----------------------------------------
 BYTE   PATT
  POIN2 Label_5_015C4443
// 041   ----------------------------------------
 BYTE   PATT
  POIN2 Label_5_015C445E
// 042   ----------------------------------------
 BYTE   PATT
  POIN2 Label_5_015C4419
// 043   ----------------------------------------
 BYTE   PATT
  POIN2 Label_5_015C4419
// 044   ----------------------------------------
 BYTE   PATT
  POIN2 Label_5_015C4419
// 045   ----------------------------------------
 BYTE   PATT
  POIN2 Label_5_015C4406
// 046   ----------------------------------------
 BYTE   PATT
  POIN2 Label_5_015C4419
// 047   ----------------------------------------
 BYTE   PATT
  POIN2 Label_5_015C4419
// 048   ----------------------------------------
 BYTE   PATT
  POIN2 Label_5_015C448F
// 049   ----------------------------------------
Label_5_015C455F:
 BYTE   N02  Cn1  v127
 BYTE   N02  Fn2
 BYTE   W48
 BYTE   Dn1
 BYTE   N02  Fn2
 BYTE   W48
 BYTE   PEND 
// 050   ----------------------------------------
Label_5_015C456A:
 BYTE   N02  Cn1  v127
 BYTE   N02  Fn2
 BYTE   W36
 BYTE   Dn1
 BYTE   W12
 BYTE   Fn2
 BYTE   W24
 BYTE   Cn1
 BYTE   W24
 BYTE   PEND 
// 051   ----------------------------------------
 BYTE   PATT
  POIN2 Label_5_015C455F
// 052   ----------------------------------------
 BYTE   PATT
  POIN2 Label_5_015C456A
// 053   ----------------------------------------
 BYTE   PATT
  POIN2 Label_5_015C455F
// 054   ----------------------------------------
 BYTE   PATT
  POIN2 Label_5_015C456A
// 055   ----------------------------------------
 BYTE   PATT
  POIN2 Label_5_015C4419
// 056   ----------------------------------------
 BYTE   PATT
  POIN2 Label_5_015C4419
// 057   ----------------------------------------
 BYTE   N02  Dn1  v127
 BYTE   N02  As1
 BYTE   W12
 BYTE   Cn1
 BYTE   N02  Gs1
 BYTE   W12
 BYTE   Dn1
 BYTE   N02  As1
 BYTE   W12
 BYTE   Cn1
 BYTE   N02  Gs1
 BYTE   W12
 BYTE   Dn1
 BYTE   N02  As1
 BYTE   W12
 BYTE   Cn1
 BYTE   N02  Gs1
 BYTE   W12
 BYTE   Dn1
 BYTE   N02  As1
 BYTE   W12
 BYTE   Cn1
 BYTE   N02  Gs1
 BYTE   W12
// 058   ----------------------------------------
 BYTE   Dn2
 BYTE   W12
 BYTE   N02
 BYTE   W12
 BYTE   Cn2
 BYTE   W12
 BYTE   N02
 BYTE   W12
 BYTE   Bn1
 BYTE   W07
 BYTE   N02
 BYTE   W11
 BYTE   N02
 BYTE   W06
 BYTE   An1
 BYTE   W07
 BYTE   N02
 BYTE   W11
 BYTE   N02
 BYTE   W06
// 059   ----------------------------------------
Label_5_015C45CB:
 BYTE   N02  Cn1  v127
 BYTE   N02  As1
 BYTE   N02  An2
 BYTE   W24
 BYTE   Dn1
 BYTE   N02  As1
 BYTE   W24
 BYTE   Cn1
 BYTE   N02  As1
 BYTE   W12
 BYTE   Cn1
 BYTE   W12
 BYTE   Dn1
 BYTE   N02  As1
 BYTE   W24
 BYTE   PEND 
// 060   ----------------------------------------
Label_5_015C45E2:
 BYTE   N02  Cn1  v127
 BYTE   N02  As1
 BYTE   W24
 BYTE   Dn1
 BYTE   N02  As1
 BYTE   W24
 BYTE   Cn1
 BYTE   N02  As1
 BYTE   W12
 BYTE   Cn1
 BYTE   W12
 BYTE   Dn1
 BYTE   N02  As1
 BYTE   W24
 BYTE   PEND 
// 061   ----------------------------------------
 BYTE   PATT
  POIN2 Label_5_015C45E2
// 062   ----------------------------------------
 BYTE   PATT
  POIN2 Label_5_015C45E2
// 063   ----------------------------------------
 BYTE   PATT
  POIN2 Label_5_015C45CB
// 064   ----------------------------------------
 BYTE   PATT
  POIN2 Label_5_015C45E2
// 065   ----------------------------------------
Label_5_015C460B:
 BYTE   N02  Cn1  v127
 BYTE   N02  As1
 BYTE   N02  Cs2
 BYTE   W24
 BYTE   Dn1
 BYTE   N02  As1
 BYTE   W24
 BYTE   Cn1
 BYTE   N02  As1
 BYTE   W12
 BYTE   Cn1
 BYTE   W12
 BYTE   Dn1
 BYTE   N02  As1
 BYTE   W24
 BYTE   PEND 
// 066   ----------------------------------------
Label_5_015C4622:
 BYTE   N02  Cn1  v127
 BYTE   N02  As1
 BYTE   W24
 BYTE   Dn1
 BYTE   N02  As1
 BYTE   W24
 BYTE   Cn1
 BYTE   N02  Dn1
 BYTE   W12
 BYTE   Cn1
 BYTE   N02  Dn1
 BYTE   W12
 BYTE   Cn1
 BYTE   N02  Dn1
 BYTE   W12
 BYTE   Cn1
 BYTE   N02  Dn1
 BYTE   W12
 BYTE   PEND 
// 067   ----------------------------------------
 BYTE   PATT
  POIN2 Label_5_015C45CB
// 068   ----------------------------------------
 BYTE   PATT
  POIN2 Label_5_015C45E2
// 069   ----------------------------------------
 BYTE   PATT
  POIN2 Label_5_015C45E2
// 070   ----------------------------------------
 BYTE   PATT
  POIN2 Label_5_015C45E2
// 071   ----------------------------------------
 BYTE   PATT
  POIN2 Label_5_015C45CB
// 072   ----------------------------------------
 BYTE   PATT
  POIN2 Label_5_015C45E2
// 073   ----------------------------------------
 BYTE   PATT
  POIN2 Label_5_015C460B
// 074   ----------------------------------------
 BYTE   PATT
  POIN2 Label_5_015C448F
// 075   ----------------------------------------
 BYTE   PATT
  POIN2 Label_5_015C45CB
// 076   ----------------------------------------
 BYTE   PATT
  POIN2 Label_5_015C45E2
// 077   ----------------------------------------
 BYTE   PATT
  POIN2 Label_5_015C45E2
// 078   ----------------------------------------
 BYTE   PATT
  POIN2 Label_5_015C45E2
// 079   ----------------------------------------
 BYTE   PATT
  POIN2 Label_5_015C45CB
// 080   ----------------------------------------
 BYTE   PATT
  POIN2 Label_5_015C45E2
// 081   ----------------------------------------
 BYTE   PATT
  POIN2 Label_5_015C460B
// 082   ----------------------------------------
 BYTE   PATT
  POIN2 Label_5_015C4622
// 083   ----------------------------------------
 BYTE   PATT
  POIN2 Label_5_015C45CB
// 084   ----------------------------------------
 BYTE   PATT
  POIN2 Label_5_015C45E2
// 085   ----------------------------------------
 BYTE   PATT
  POIN2 Label_5_015C45E2
// 086   ----------------------------------------
 BYTE   PATT
  POIN2 Label_5_015C45E2
// 087   ----------------------------------------
 BYTE   PATT
  POIN2 Label_5_015C45CB
// 088   ----------------------------------------
 BYTE   PATT
  POIN2 Label_5_015C45E2
// 089   ----------------------------------------
 BYTE   PATT
  POIN2 Label_5_015C460B
// 090   ----------------------------------------
 BYTE   PATT
  POIN2 Label_5_015C448F
// 091   ----------------------------------------
 BYTE   N02  Cn1  v127
 BYTE   N02  Cs2
 BYTE   W48
 BYTE   As1
 BYTE   W24
 BYTE   N02
 BYTE   W24
// 092   ----------------------------------------
 BYTE   GoTo
  POIN2 Label_5_015C4406
 BYTE   FINE

//**************** Track 7 (Midi-Chn.6) ****************//

song11_007:
// 000   ----------------------------------------
 BYTE   KEYSH   song11_key+0
 BYTE   VOICE   54
 BYTE   VOL   38*song11_mvl/mxv
 BYTE   PAN   c_v+33
 BYTE   W96
// 001   ----------------------------------------
Label_6_015C46D1:
 BYTE   N92  Fs3  v104
 BYTE   N92  As3
 BYTE   N92  Ds4
 BYTE   W96
 BYTE   PEND 
// 002   ----------------------------------------
 BYTE   As3
 BYTE   N92  Dn4
 BYTE   N92  Fn4
 BYTE   W96
// 003   ----------------------------------------
 BYTE   As3
 BYTE   N92  Ds4
 BYTE   N92  Fs4
 BYTE   W96
// 004   ----------------------------------------
 BYTE   PATT
  POIN2 Label_6_015C46D1
// 005   ----------------------------------------
 BYTE   N92  Gs3  v104
 BYTE   N92  Bn3
 BYTE   N92  Ds4
 BYTE   N92  Fs4
 BYTE   W96
// 006   ----------------------------------------
 BYTE   N44  Gs3
 BYTE   N44  Cs4
 BYTE   N44  Fn4
 BYTE   W48
 BYTE   Gs3
 BYTE   N44  Cs4
 BYTE   N44  Ds4
 BYTE   W48
// 007   ----------------------------------------
 BYTE   N92  Fs3
 BYTE   N92  As3
 BYTE   N92  Cs4
 BYTE   W96
// 008   ----------------------------------------
 BYTE   N44  Fn3
 BYTE   N44  As3
 BYTE   N44  Ds4
 BYTE   W48
 BYTE   Fn3
 BYTE   N44  As3
 BYTE   N44  Dn4
 BYTE   W48
// 009   ----------------------------------------
Label_6_015C4716:
 BYTE   N92  As3  v116
 BYTE   N92  Ds4
 BYTE   N92  Fs4
 BYTE   W96
 BYTE   PEND 
// 010   ----------------------------------------
 BYTE   As3
 BYTE   N92  Dn4
 BYTE   N92  Fn4
 BYTE   N92  Gs4
 BYTE   W96
// 011   ----------------------------------------
 BYTE   PATT
  POIN2 Label_6_015C4716
// 012   ----------------------------------------
Label_6_015C472C:
 BYTE   N92  Fs3  v116
 BYTE   N92  As3
 BYTE   N92  Ds4
 BYTE   W96
 BYTE   PEND 
// 013   ----------------------------------------
 BYTE   Gs3
 BYTE   N92  Bn3
 BYTE   N92  Ds4
 BYTE   W96
// 014   ----------------------------------------
 BYTE   N44  As3
 BYTE   N44  Dn4
 BYTE   N44  Fn4
 BYTE   W48
 BYTE   Dn3
 BYTE   N44  Fn3
 BYTE   N44  As3
 BYTE   W48
// 015   ----------------------------------------
 BYTE   N92
 BYTE   N92  Cs4
 BYTE   N92  Fn4
 BYTE   W96
// 016   ----------------------------------------
 BYTE   PATT
  POIN2 Label_6_015C472C
// 017   ----------------------------------------
Label_6_015C4753:
 BYTE   TIE  As2  v116
 BYTE   TIE  Ds3
 BYTE   TIE  Fs3
 BYTE   W96
 BYTE   PEND 
// 018   ----------------------------------------
 BYTE   W92
 BYTE   W03
 BYTE   EOT
 BYTE   As2  v063
 BYTE   Fs3
 BYTE   W01
// 019   ----------------------------------------
Label_6_015C4763:
 BYTE   TIE  As2  v116
 BYTE   TIE  Cs3
 BYTE   TIE  Fn3
 BYTE   W96
 BYTE   PEND 
// 020   ----------------------------------------
 BYTE   W92
 BYTE   W03
 BYTE   EOT
 BYTE   As2  v061
 BYTE   Fn3
 BYTE   W01
// 021   ----------------------------------------
Label_6_015C4773:
 BYTE   TIE  Gs2  v116
 BYTE   TIE  Cs3
 BYTE   TIE  Fn3
 BYTE   W96
 BYTE   PEND 
// 022   ----------------------------------------
 BYTE   W92
 BYTE   W03
 BYTE   EOT
 BYTE   Gs2  v061
 BYTE   Fn3
 BYTE   W01
// 023   ----------------------------------------
 BYTE   PATT
  POIN2 Label_6_015C4753
// 024   ----------------------------------------
 BYTE   W92
 BYTE   W03
 BYTE   EOT
 BYTE   As2  v063
 BYTE   Fs3
 BYTE   W01
// 025   ----------------------------------------
 BYTE   PATT
  POIN2 Label_6_015C4753
// 026   ----------------------------------------
 BYTE   W92
 BYTE   W03
 BYTE   EOT
 BYTE   As2  v063
 BYTE   Fs3
 BYTE   W01
// 027   ----------------------------------------
Label_6_015C479B:
 BYTE   TIE  Bn2  v116
 BYTE   TIE  Ds3
 BYTE   TIE  Fs3
 BYTE   TIE  As3
 BYTE   W96
 BYTE   PEND 
// 028   ----------------------------------------
 BYTE   W92
 BYTE   W03
 BYTE   EOT
 BYTE   Bn2  v063
 BYTE   Fs3  v070
 BYTE   W01
// 029   ----------------------------------------
Label_6_015C47AE:
 BYTE   TIE  Fn3  v116
 BYTE   TIE  Gs3
 BYTE   TIE  Cs4
 BYTE   W96
 BYTE   PEND 
// 030   ----------------------------------------
 BYTE   W92
 BYTE   W03
 BYTE   EOT
 BYTE   Fn3  v068
 BYTE   Cs4
 BYTE   W01
// 031   ----------------------------------------
Label_6_015C47BE:
 BYTE   TIE  Fs3  v116
 BYTE   TIE  As3
 BYTE   TIE  Ds4
 BYTE   W96
 BYTE   PEND 
// 032   ----------------------------------------
 BYTE   W92
 BYTE   W03
 BYTE   EOT
 BYTE   Fs3  v070
 BYTE   Ds4
 BYTE   W01
// 033   ----------------------------------------
 BYTE   PATT
  POIN2 Label_6_015C4753
// 034   ----------------------------------------
 BYTE   W92
 BYTE   W03
 BYTE   EOT
 BYTE   As2  v063
 BYTE   Fs3
 BYTE   W01
// 035   ----------------------------------------
 BYTE   PATT
  POIN2 Label_6_015C4763
// 036   ----------------------------------------
 BYTE   W92
 BYTE   W03
 BYTE   EOT
 BYTE   As2  v061
 BYTE   Fn3
 BYTE   W01
// 037   ----------------------------------------
 BYTE   PATT
  POIN2 Label_6_015C4773
// 038   ----------------------------------------
 BYTE   W92
 BYTE   W03
 BYTE   EOT
 BYTE   Gs2  v061
 BYTE   Fn3
 BYTE   W01
// 039   ----------------------------------------
 BYTE   PATT
  POIN2 Label_6_015C4753
// 040   ----------------------------------------
 BYTE   W92
 BYTE   W03
 BYTE   EOT
 BYTE   As2  v063
 BYTE   Fs3
 BYTE   W01
// 041   ----------------------------------------
 BYTE   PATT
  POIN2 Label_6_015C4753
// 042   ----------------------------------------
 BYTE   W92
 BYTE   W03
 BYTE   EOT
 BYTE   As2  v063
 BYTE   Fs3
 BYTE   W01
// 043   ----------------------------------------
 BYTE   PATT
  POIN2 Label_6_015C479B
// 044   ----------------------------------------
 BYTE   W92
 BYTE   W03
 BYTE   EOT
 BYTE   Bn2  v063
 BYTE   Fs3  v070
 BYTE   W01
// 045   ----------------------------------------
 BYTE   PATT
  POIN2 Label_6_015C47AE
// 046   ----------------------------------------
 BYTE   W92
 BYTE   W03
 BYTE   EOT
 BYTE   Fn3  v068
 BYTE   Cs4
 BYTE   W01
// 047   ----------------------------------------
 BYTE   PATT
  POIN2 Label_6_015C47BE
// 048   ----------------------------------------
 BYTE   W44
 BYTE   W03
 BYTE   EOT
 BYTE   Fs3  v070
 BYTE   Ds4
 BYTE   W13
 BYTE   N11  Ds3  v127
 BYTE   N11  Ds4
 BYTE   W12
 BYTE   Ds3
 BYTE   N11  Ds4
 BYTE   W12
 BYTE   Fn3
 BYTE   N11  Fn4
 BYTE   W12
// 049   ----------------------------------------
Label_6_015C483D:
 BYTE   N68  Fs3  v127
 BYTE   N68  Fs4
 BYTE   W72
 BYTE   N11  Fn3
 BYTE   N11  Fn4
 BYTE   W12
 BYTE   Ds3
 BYTE   N11  Ds4
 BYTE   W12
 BYTE   PEND 
// 050   ----------------------------------------
Label_6_015C484D:
 BYTE   N32  Fs3  v127
 BYTE   N32  Fs4
 BYTE   W36
 BYTE   Gs3
 BYTE   N32  Gs4
 BYTE   W36
 BYTE   N23  As3
 BYTE   N23  As4
 BYTE   W24
 BYTE   PEND 
// 051   ----------------------------------------
 BYTE   PATT
  POIN2 Label_6_015C483D
// 052   ----------------------------------------
 BYTE   PATT
  POIN2 Label_6_015C484D
// 053   ----------------------------------------
 BYTE   N32  Gs3  v127
 BYTE   N32  Gs4
 BYTE   W36
 BYTE   Bn3
 BYTE   N32  Bn4
 BYTE   W36
 BYTE   N23  Ds4
 BYTE   N23  Ds5
 BYTE   W24
// 054   ----------------------------------------
 BYTE   N32  Fs4
 BYTE   N32  Fs5
 BYTE   W36
 BYTE   Fn4
 BYTE   N32  Fn5
 BYTE   W36
 BYTE   N23  Ds4
 BYTE   N23  Ds5
 BYTE   W24
// 055   ----------------------------------------
 BYTE   N32  Ds4
 BYTE   N32  Ds5
 BYTE   W36
 BYTE   Dn4
 BYTE   N32  Dn5
 BYTE   W36
 BYTE   N23  Ds4
 BYTE   N23  Ds5
 BYTE   W24
// 056   ----------------------------------------
 BYTE   N92  Fn4
 BYTE   N92  Fn5
 BYTE   W96
// 057   ----------------------------------------
 BYTE   W96
// 058   ----------------------------------------
 BYTE   N23  Ds3
 BYTE   N23  Ds4
 BYTE   W24
 BYTE   Dn3
 BYTE   N23  Dn4
 BYTE   W24
 BYTE   Cn3
 BYTE   N23  Cn4
 BYTE   W24
 BYTE   Dn3
 BYTE   N23  Dn4
 BYTE   W24
// 059   ----------------------------------------
 BYTE   Ds3
 BYTE   N23  Ds4
 BYTE   W96
// 060   ----------------------------------------
 BYTE   W96
// 061   ----------------------------------------
 BYTE   W96
// 062   ----------------------------------------
 BYTE   W96
// 063   ----------------------------------------
 BYTE   W96
// 064   ----------------------------------------
 BYTE   W96
// 065   ----------------------------------------
 BYTE   N92  Cs4
 BYTE   N92  Cs5
 BYTE   W96
// 066   ----------------------------------------
 BYTE   Dn4
 BYTE   N92  Dn5
 BYTE   W96
// 067   ----------------------------------------
 BYTE   Ds4
 BYTE   N92  Ds5
 BYTE   W96
// 068   ----------------------------------------
 BYTE   W96
// 069   ----------------------------------------
 BYTE   W96
// 070   ----------------------------------------
 BYTE   W96
// 071   ----------------------------------------
 BYTE   W96
// 072   ----------------------------------------
 BYTE   W96
// 073   ----------------------------------------
 BYTE   Gs3
 BYTE   N92  Gs4
 BYTE   W96
// 074   ----------------------------------------
 BYTE   As3
 BYTE   N92  As4
 BYTE   W96
// 075   ----------------------------------------
 BYTE   N23  Ds3
 BYTE   N23  Ds4
 BYTE   W96
// 076   ----------------------------------------
 BYTE   W96
// 077   ----------------------------------------
 BYTE   W96
// 078   ----------------------------------------
 BYTE   W96
// 079   ----------------------------------------
 BYTE   W96
// 080   ----------------------------------------
 BYTE   W96
// 081   ----------------------------------------
 BYTE   N92  Cs4
 BYTE   N92  Cs5
 BYTE   W96
// 082   ----------------------------------------
 BYTE   Dn4
 BYTE   N92  Dn5
 BYTE   W96
// 083   ----------------------------------------
 BYTE   Ds4
 BYTE   N92  Ds5
 BYTE   W96
// 084   ----------------------------------------
 BYTE   W96
// 085   ----------------------------------------
 BYTE   W96
// 086   ----------------------------------------
 BYTE   W96
// 087   ----------------------------------------
 BYTE   W96
// 088   ----------------------------------------
 BYTE   W96
// 089   ----------------------------------------
 BYTE   Gs3
 BYTE   N92  Gs4
 BYTE   W96
// 090   ----------------------------------------
 BYTE   W96
// 091   ----------------------------------------
 BYTE   As3
 BYTE   N92  As4
 BYTE   W96
// 092   ----------------------------------------
 BYTE   GoTo
  POIN2 Label_6_015C46D1
 BYTE   FINE

//******************************************************//
	ALIGN 4

song11:
	BYTE	7	// NumTrks
	BYTE	0	// NumBlks
	BYTE	song11_pri	// Priority
	BYTE	song11_rev	// Reverb.
    
	POIN2	song11_grp
    
	POIN2	song11_001
	POIN2	song11_002
	POIN2	song11_003
	POIN2	song11_004
	POIN2	song11_005
	POIN2	song11_006
	POIN2	song11_007

	
