//Event file generated from Sappy .s format.
	#include "MPlayDef.event"

	#define	WallDefense_grp  voicegroup001
	#define	WallDefense_pri  0
	#define	WallDefense_rev  0
	#define	WallDefense_mvl  127
	#define	WallDefense_key  0
	#define	WallDefense_tbs  1
	#define	WallDefense_exg  0
	#define	WallDefense_cmp  1

	// .rodata
	//	WallDefense
	ALIGN 4


//**************** Track 1 (Midi-Chn.0) ****************//

WallDefense_001:
//  #01 //000   ----------------------------------------
 BYTE   KEYSH   WallDefense_key+0
Label_0157CE62:
 BYTE   TEMPO   128*WallDefense_tbs/2
 BYTE   VOICE   58
 BYTE   VOL   32*WallDefense_mvl/mxv
 BYTE   PAN   c_v-5
 BYTE   N11  Cn1  v044
 BYTE   W12
 BYTE   Gn1
 BYTE   W12
 BYTE   Cn1
 BYTE   W12
 BYTE   N11
 BYTE   W12
 BYTE   Gn1
 BYTE   W12
 BYTE   Cn1
 BYTE   W12
 BYTE   N11
 BYTE   W12
 BYTE   Gn1
 BYTE   W12
//  #01 //001   ----------------------------------------
Label_0157CE7C:
 BYTE   N11  Cn1  v044
 BYTE   W12
 BYTE   Gn1
 BYTE   W12
 BYTE   Cn1
 BYTE   W12
 BYTE   N11
 BYTE   W12
 BYTE   Gn1
 BYTE   W12
 BYTE   Cn1
 BYTE   W12
 BYTE   N11
 BYTE   W12
 BYTE   Gn1
 BYTE   W12
 BYTE   PEND 
//  #01 //002   ----------------------------------------
 BYTE   PATT
  POIN2 Label_0157CE7C
//  #01 //003   ----------------------------------------
 BYTE   PATT
  POIN2 Label_0157CE7C
//  #01 //004   ----------------------------------------
 BYTE   PATT
  POIN2 Label_0157CE7C
//  #01 //005   ----------------------------------------
Label_0157CE9E:
 BYTE   N11  Gs0  v044
 BYTE   W12
 BYTE   Ds1
 BYTE   W12
 BYTE   Gs0
 BYTE   W12
 BYTE   N11
 BYTE   W12
 BYTE   Ds1
 BYTE   W12
 BYTE   Gs0
 BYTE   W12
 BYTE   N11
 BYTE   W12
 BYTE   Ds1
 BYTE   W12
 BYTE   PEND 
//  #01 //006   ----------------------------------------
Label_0157CEB1:
 BYTE   N11  Fn0  v044
 BYTE   W12
 BYTE   Cn1
 BYTE   W12
 BYTE   Fn0
 BYTE   W12
 BYTE   N11
 BYTE   W12
 BYTE   Cn1
 BYTE   W12
 BYTE   Fn0
 BYTE   W12
 BYTE   N11
 BYTE   W12
 BYTE   Cn1
 BYTE   W12
 BYTE   PEND 
//  #01 //007   ----------------------------------------
Label_0157CEC4:
 BYTE   N11  Cn1  v044
 BYTE   W12
 BYTE   Gn1
 BYTE   W12
 BYTE   Cn1
 BYTE   W12
 BYTE   Ds1
 BYTE   W12
 BYTE   Gn0
 BYTE   W12
 BYTE   Dn1
 BYTE   W12
 BYTE   Gn0
 BYTE   W12
 BYTE   Bn0
 BYTE   W12
 BYTE   PEND 
//  #01 //008   ----------------------------------------
 BYTE   PATT
  POIN2 Label_0157CE7C
//  #01 //009   ----------------------------------------
 BYTE   PATT
  POIN2 Label_0157CE9E
//  #01 //010   ----------------------------------------
 BYTE   PATT
  POIN2 Label_0157CEB1
//  #01 //011   ----------------------------------------
 BYTE   PATT
  POIN2 Label_0157CEC4
//  #01 //012   ----------------------------------------
 BYTE   PATT
  POIN2 Label_0157CE7C
//  #01 //013   ----------------------------------------
 BYTE   PATT
  POIN2 Label_0157CE9E
//  #01 //014   ----------------------------------------
 BYTE   PATT
  POIN2 Label_0157CEB1
//  #01 //015   ----------------------------------------
 BYTE   PATT
  POIN2 Label_0157CEC4
//  #01 //016   ----------------------------------------
 BYTE   PATT
  POIN2 Label_0157CE7C
//  #01 //017   ----------------------------------------
 BYTE   PATT
  POIN2 Label_0157CE9E
//  #01 //018   ----------------------------------------
 BYTE   PATT
  POIN2 Label_0157CEB1
//  #01 //019   ----------------------------------------
 BYTE   PATT
  POIN2 Label_0157CEC4
//  #01 //020   ----------------------------------------
 BYTE   N11  En0  v044
 BYTE   W12
 BYTE   Bn0
 BYTE   W12
 BYTE   En0
 BYTE   W12
 BYTE   N11
 BYTE   W12
 BYTE   Bn0
 BYTE   W12
 BYTE   En0
 BYTE   W12
 BYTE   N11
 BYTE   W12
 BYTE   Bn0
 BYTE   W12
//  #01 //021   ----------------------------------------
Label_0157CF25:
 BYTE   N11  Dn0  v044
 BYTE   W12
 BYTE   Bn0
 BYTE   W12
 BYTE   Dn0
 BYTE   W12
 BYTE   N11
 BYTE   W12
 BYTE   Bn0
 BYTE   W12
 BYTE   Dn0
 BYTE   W12
 BYTE   N11
 BYTE   W12
 BYTE   Bn0
 BYTE   W12
 BYTE   PEND 
//  #01 //022   ----------------------------------------
Label_0157CF38:
 BYTE   N11  Cn0  v044
 BYTE   W12
 BYTE   Gn0
 BYTE   W12
 BYTE   Cn0
 BYTE   W12
 BYTE   N11
 BYTE   W12
 BYTE   Gn0
 BYTE   W12
 BYTE   Cn0
 BYTE   W12
 BYTE   N11
 BYTE   W12
 BYTE   Gn0
 BYTE   W12
 BYTE   PEND 
//  #01 //023   ----------------------------------------
Label_0157CF4B:
 BYTE   N11  Dn0  v044
 BYTE   W12
 BYTE   An0
 BYTE   W12
 BYTE   Dn0
 BYTE   W12
 BYTE   N11
 BYTE   W12
 BYTE   An0
 BYTE   W12
 BYTE   Dn0
 BYTE   W12
 BYTE   N11
 BYTE   W12
 BYTE   An0
 BYTE   W12
 BYTE   PEND 
//  #01 //024   ----------------------------------------
 BYTE   Dn0
 BYTE   W12
 BYTE   Bn0
 BYTE   W12
 BYTE   En0
 BYTE   W12
 BYTE   N11
 BYTE   W12
 BYTE   Bn0
 BYTE   W12
 BYTE   En0
 BYTE   W12
 BYTE   N11
 BYTE   W12
 BYTE   Bn0
 BYTE   W12
//  #01 //025   ----------------------------------------
 BYTE   PATT
  POIN2 Label_0157CF25
//  #01 //026   ----------------------------------------
 BYTE   PATT
  POIN2 Label_0157CF38
//  #01 //027   ----------------------------------------
 BYTE   PATT
  POIN2 Label_0157CF4B
//  #01 //028   ----------------------------------------
 BYTE   PATT
  POIN2 Label_0157CE7C
//  #01 //029   ----------------------------------------
 BYTE   N11  Bn0  v044
 BYTE   W12
 BYTE   Fs1
 BYTE   W12
 BYTE   Bn0
 BYTE   W12
 BYTE   N11
 BYTE   W12
 BYTE   Fs1
 BYTE   W12
 BYTE   Bn0
 BYTE   W12
 BYTE   N11
 BYTE   W12
 BYTE   Fs1
 BYTE   W12
//  #01 //030   ----------------------------------------
 BYTE   PATT
  POIN2 Label_0157CE7C
//  #01 //031   ----------------------------------------
 BYTE   N11  Dn1  v044
 BYTE   W12
 BYTE   An1
 BYTE   W12
 BYTE   Dn1
 BYTE   W12
 BYTE   N11
 BYTE   W12
 BYTE   An1
 BYTE   W12
 BYTE   Dn1
 BYTE   W12
 BYTE   N11
 BYTE   W12
 BYTE   An1
 BYTE   W12
//  #01 //032   ----------------------------------------
 BYTE   Ds1
 BYTE   W12
 BYTE   As1
 BYTE   W12
 BYTE   Ds1
 BYTE   W12
 BYTE   N11
 BYTE   W12
 BYTE   As1
 BYTE   W12
 BYTE   Ds1
 BYTE   W12
 BYTE   N11
 BYTE   W12
 BYTE   As1
 BYTE   W12
//  #01 //033   ----------------------------------------
 BYTE   Fn1
 BYTE   W12
 BYTE   Cn1
 BYTE   W12
 BYTE   Fn1
 BYTE   W12
 BYTE   N11
 BYTE   W12
 BYTE   Cn1
 BYTE   W12
 BYTE   Fn1
 BYTE   W12
 BYTE   N11
 BYTE   W12
 BYTE   Cn1
 BYTE   W12
//  #01 //034   ----------------------------------------
 BYTE   N11
 BYTE   W12
 BYTE   Gn0
 BYTE   W12
 BYTE   Cn1
 BYTE   W12
 BYTE   N11
 BYTE   W12
 BYTE   Gn0
 BYTE   W12
 BYTE   Cn1
 BYTE   W12
 BYTE   N11
 BYTE   W12
 BYTE   Gn0
 BYTE   W12
//  #01 //035   ----------------------------------------
 BYTE   Cn1
 BYTE   W12
 BYTE   Gn0
 BYTE   W12
 BYTE   Cn1
 BYTE   W12
 BYTE   N11
 BYTE   W12
 BYTE   Gn0
 BYTE   W12
 BYTE   Cn1
 BYTE   W36
//  #01 //036   ----------------------------------------
 BYTE   GoTo
  POIN2 Label_0157CE62
 BYTE   FINE

//**************** Track 2 (Midi-Chn.1) ****************//

WallDefense_002:
//  #02 //000   ----------------------------------------
 BYTE   KEYSH   WallDefense_key+0
Label_015D2FDA:
 BYTE   VOICE   48
 BYTE   VOL   26*WallDefense_mvl/mxv
 BYTE   PAN   c_v-10
 BYTE   N04  Gn4  v112
 BYTE   W12
 BYTE   Cn3
 BYTE   W12
 BYTE   Ds3
 BYTE   W12
 BYTE   Gn2
 BYTE   W12
 BYTE   Cn3
 BYTE   W12
 BYTE   Ds3
 BYTE   W12
 BYTE   N05  Gn3
 BYTE   W06
 BYTE   N04  Ds3
 BYTE   W06
 BYTE   N05  Cn3
 BYTE   W12
//  #02 //001   ----------------------------------------
Label_015D2FF7:
 BYTE   N04  Gs4  v112
 BYTE   W12
 BYTE   Cn3
 BYTE   W12
 BYTE   Fn3
 BYTE   W12
 BYTE   Gs2
 BYTE   W12
 BYTE   Cn3
 BYTE   W12
 BYTE   Ds3
 BYTE   W12
 BYTE   N05  Gn3
 BYTE   W06
 BYTE   N04  Ds3
 BYTE   W06
 BYTE   N05  Cn3
 BYTE   W12
 BYTE   PEND 
//  #02 //002   ----------------------------------------
Label_015D300F:
 BYTE   N04  Gn4  v112
 BYTE   W12
 BYTE   Cn3
 BYTE   W12
 BYTE   Ds3
 BYTE   W12
 BYTE   Gn2
 BYTE   W12
 BYTE   Cn3
 BYTE   W12
 BYTE   Ds3
 BYTE   W12
 BYTE   N05  Gn3
 BYTE   W06
 BYTE   N04  Ds3
 BYTE   W06
 BYTE   N05  Cn3
 BYTE   W12
 BYTE   PEND 
//  #02 //003   ----------------------------------------
 BYTE   PATT
  POIN2 Label_015D2FF7
//  #02 //004   ----------------------------------------
 BYTE   PATT
  POIN2 Label_015D300F
//  #02 //005   ----------------------------------------
Label_015D3031:
 BYTE   N04  Gs4  v112
 BYTE   W12
 BYTE   Cn3
 BYTE   W12
 BYTE   Ds3
 BYTE   W12
 BYTE   Gs2
 BYTE   W12
 BYTE   Cn3
 BYTE   W12
 BYTE   Ds3
 BYTE   W12
 BYTE   Gs3
 BYTE   W06
 BYTE   Ds3
 BYTE   W06
 BYTE   N05  Cn3
 BYTE   W12
 BYTE   PEND 
//  #02 //006   ----------------------------------------
Label_015D3047:
 BYTE   N04  Gs4  v112
 BYTE   W12
 BYTE   Cn3
 BYTE   W12
 BYTE   Fn3
 BYTE   W12
 BYTE   Gs2
 BYTE   W12
 BYTE   Cn3
 BYTE   W12
 BYTE   Fn3
 BYTE   W12
 BYTE   Gs3
 BYTE   W06
 BYTE   Fn3
 BYTE   W06
 BYTE   N05  Cn3
 BYTE   W12
 BYTE   PEND 
//  #02 //007   ----------------------------------------
Label_015D305D:
 BYTE   N04  Gn4  v112
 BYTE   W12
 BYTE   Cn3
 BYTE   W12
 BYTE   Ds3
 BYTE   W12
 BYTE   Gn2
 BYTE   W12
 BYTE   Dn3
 BYTE   W12
 BYTE   Gn3
 BYTE   W12
 BYTE   Bn3
 BYTE   W06
 BYTE   Gn3
 BYTE   W06
 BYTE   N05  Dn3
 BYTE   W12
 BYTE   PEND 
//  #02 //008   ----------------------------------------
 BYTE   PATT
  POIN2 Label_015D300F
//  #02 //009   ----------------------------------------
 BYTE   PATT
  POIN2 Label_015D3031
//  #02 //010   ----------------------------------------
 BYTE   PATT
  POIN2 Label_015D3047
//  #02 //011   ----------------------------------------
 BYTE   PATT
  POIN2 Label_015D305D
//  #02 //012   ----------------------------------------
Label_015D3087:
 BYTE   N04  Gn4  v112
 BYTE   W12
 BYTE   Cn3
 BYTE   W12
 BYTE   Ds3
 BYTE   W12
 BYTE   Gn2
 BYTE   W12
 BYTE   Cn3
 BYTE   W12
 BYTE   Ds3
 BYTE   W12
 BYTE   N05  Gn3
 BYTE   W06
 BYTE   N04  Ds3
 BYTE   W06
 BYTE   Cn3
 BYTE   W12
 BYTE   PEND 
//  #02 //013   ----------------------------------------
Label_015D309E:
 BYTE   N04  Gs4  v112
 BYTE   W12
 BYTE   Cn3
 BYTE   W12
 BYTE   Ds3
 BYTE   W12
 BYTE   Gs2
 BYTE   W12
 BYTE   Cn3
 BYTE   W12
 BYTE   Ds3
 BYTE   W12
 BYTE   Gs3
 BYTE   W06
 BYTE   Ds3
 BYTE   W06
 BYTE   Cn3
 BYTE   W12
 BYTE   PEND 
//  #02 //014   ----------------------------------------
Label_015D30B3:
 BYTE   N04  Gs4  v112
 BYTE   W12
 BYTE   Cn3
 BYTE   W12
 BYTE   Fn3
 BYTE   W12
 BYTE   Gs2
 BYTE   W12
 BYTE   Cn3
 BYTE   W12
 BYTE   Fn3
 BYTE   W12
 BYTE   Gs3
 BYTE   W06
 BYTE   Fn3
 BYTE   W06
 BYTE   Cn3
 BYTE   W12
 BYTE   PEND 
//  #02 //015   ----------------------------------------
Label_015D30C8:
 BYTE   N04  Gn4  v112
 BYTE   W12
 BYTE   Cn3
 BYTE   W12
 BYTE   Ds3
 BYTE   W12
 BYTE   Gn2
 BYTE   W12
 BYTE   Dn3
 BYTE   W12
 BYTE   Gn3
 BYTE   W12
 BYTE   Bn3
 BYTE   W06
 BYTE   Gn3
 BYTE   W06
 BYTE   Dn3
 BYTE   W12
 BYTE   PEND 
//  #02 //016   ----------------------------------------
 BYTE   PATT
  POIN2 Label_015D3087
//  #02 //017   ----------------------------------------
 BYTE   PATT
  POIN2 Label_015D309E
//  #02 //018   ----------------------------------------
 BYTE   PATT
  POIN2 Label_015D30B3
//  #02 //019   ----------------------------------------
 BYTE   PATT
  POIN2 Label_015D30C8
//  #02 //020   ----------------------------------------
Label_015D30F1:
 BYTE   N11  Bn3  v112
 BYTE   W12
 BYTE   En3
 BYTE   W12
 BYTE   Gn3
 BYTE   W12
 BYTE   N23  Bn2
 BYTE   W24
 BYTE   N11  En3
 BYTE   W12
 BYTE   Gn3
 BYTE   W12
 BYTE   Bn2
 BYTE   W12
 BYTE   PEND 
//  #02 //021   ----------------------------------------
 BYTE   PATT
  POIN2 Label_015D30F1
//  #02 //022   ----------------------------------------
Label_015D3109:
 BYTE   N11  Gn3  v112
 BYTE   W12
 BYTE   Cn3
 BYTE   W12
 BYTE   En3
 BYTE   W12
 BYTE   N23  Gn2
 BYTE   W24
 BYTE   N11  Cn3
 BYTE   W12
 BYTE   En3
 BYTE   W12
 BYTE   Cn3
 BYTE   W12
 BYTE   PEND 
//  #02 //023   ----------------------------------------
Label_015D311C:
 BYTE   N11  An3  v112
 BYTE   W12
 BYTE   Dn3
 BYTE   W12
 BYTE   Fs3
 BYTE   W12
 BYTE   N23  An2
 BYTE   W24
 BYTE   N11  Dn3
 BYTE   W12
 BYTE   Fs3
 BYTE   W12
 BYTE   An2
 BYTE   W12
 BYTE   PEND 
//  #02 //024   ----------------------------------------
 BYTE   PATT
  POIN2 Label_015D30F1
//  #02 //025   ----------------------------------------
 BYTE   PATT
  POIN2 Label_015D30F1
//  #02 //026   ----------------------------------------
 BYTE   PATT
  POIN2 Label_015D3109
//  #02 //027   ----------------------------------------
 BYTE   PATT
  POIN2 Label_015D311C
//  #02 //028   ----------------------------------------
Label_015D3143:
 BYTE   N04  Gn4  v112
 BYTE   W12
 BYTE   Cn3
 BYTE   W06
 BYTE   Dn3
 BYTE   W06
 BYTE   En3
 BYTE   W12
 BYTE   En2
 BYTE   W06
 BYTE   Gn2
 BYTE   W06
 BYTE   Cn3
 BYTE   W12
 BYTE   En3
 BYTE   W12
 BYTE   Gn3
 BYTE   W06
 BYTE   En3
 BYTE   W06
 BYTE   Cn3
 BYTE   W12
 BYTE   PEND 
//  #02 //029   ----------------------------------------
 BYTE   Fs4
 BYTE   W12
 BYTE   Bn2
 BYTE   W06
 BYTE   Cs3
 BYTE   W06
 BYTE   Ds3
 BYTE   W12
 BYTE   Ds2
 BYTE   W06
 BYTE   Fs2
 BYTE   W06
 BYTE   Bn2
 BYTE   W12
 BYTE   Ds3
 BYTE   W12
 BYTE   Fs3
 BYTE   W06
 BYTE   Ds3
 BYTE   W06
 BYTE   Bn2
 BYTE   W12
//  #02 //030   ----------------------------------------
 BYTE   PATT
  POIN2 Label_015D3143
//  #02 //031   ----------------------------------------
 BYTE   N04  An4  v112
 BYTE   W12
 BYTE   Dn3
 BYTE   W06
 BYTE   En3
 BYTE   W06
 BYTE   Fs3
 BYTE   W12
 BYTE   Fs2
 BYTE   W06
 BYTE   An2
 BYTE   W06
 BYTE   Dn3
 BYTE   W12
 BYTE   Fs3
 BYTE   W12
 BYTE   An3
 BYTE   W06
 BYTE   Fs3
 BYTE   W06
 BYTE   Dn3
 BYTE   W12
//  #02 //032   ----------------------------------------
 BYTE   As4
 BYTE   W12
 BYTE   Ds3
 BYTE   W06
 BYTE   Fn3
 BYTE   W06
 BYTE   Gn3
 BYTE   W12
 BYTE   Gn2
 BYTE   W06
 BYTE   As2
 BYTE   W06
 BYTE   Ds3
 BYTE   W12
 BYTE   Gn3
 BYTE   W12
 BYTE   As3
 BYTE   W06
 BYTE   Gn3
 BYTE   W06
 BYTE   Ds3
 BYTE   W12
//  #02 //033   ----------------------------------------
 BYTE   An4
 BYTE   W12
 BYTE   Cn3
 BYTE   W06
 BYTE   En3
 BYTE   W06
 BYTE   Fn3
 BYTE   W12
 BYTE   Fn2
 BYTE   W06
 BYTE   An2
 BYTE   W06
 BYTE   Cn3
 BYTE   W12
 BYTE   Fn3
 BYTE   W12
 BYTE   An3
 BYTE   W06
 BYTE   Fn3
 BYTE   W06
 BYTE   Cn3
 BYTE   W12
//  #02 //034   ----------------------------------------
 BYTE   N11  Gn4
 BYTE   W12
 BYTE   Cn4
 BYTE   W12
 BYTE   Dn4
 BYTE   W12
 BYTE   En4
 BYTE   W12
 BYTE   Fn4
 BYTE   W12
 BYTE   En4
 BYTE   W12
 BYTE   Dn4
 BYTE   W12
 BYTE   Gn3
 BYTE   W12
//  #02 //035   ----------------------------------------
 BYTE   Cn4
 BYTE   W12
 BYTE   Gn3
 BYTE   W12
 BYTE   En3
 BYTE   W12
 BYTE   Gn3
 BYTE   W12
 BYTE   N42  Cn3
 BYTE   W48
//  #02 //036   ----------------------------------------
 BYTE   GoTo
  POIN2 Label_015D2FDA
 BYTE   FINE

//**************** Track 3 (Midi-Chn.2) ****************//

WallDefense_003:
//  #03 //000   ----------------------------------------
 BYTE   KEYSH   WallDefense_key+0
Label_0157CC32:
 BYTE   VOICE   58
 BYTE   PAN   c_v-8
 BYTE   VOL   27*WallDefense_mvl/mxv
 BYTE   W12
 BYTE   N04  Ds3  v112
 BYTE   W12
 BYTE   N04
 BYTE   W12
 BYTE   N04
 BYTE   W12
 BYTE   N04
 BYTE   W06
 BYTE   N04
 BYTE   W06
 BYTE   N04
 BYTE   W36
//  #03 //001   ----------------------------------------
Label_0157CC47:
 BYTE   W12
 BYTE   N04  Fn3  v112
 BYTE   W12
 BYTE   N04
 BYTE   W12
 BYTE   N04
 BYTE   W12
 BYTE   N04
 BYTE   W06
 BYTE   N04
 BYTE   W06
 BYTE   Ds3
 BYTE   W36
 BYTE   PEND 
//  #03 //002   ----------------------------------------
Label_0157CC57:
 BYTE   W12
 BYTE   N04  Ds3  v112
 BYTE   W12
 BYTE   N04
 BYTE   W12
 BYTE   N04
 BYTE   W12
 BYTE   N04
 BYTE   W06
 BYTE   N04
 BYTE   W06
 BYTE   N04
 BYTE   W36
 BYTE   PEND 
//  #03 //003   ----------------------------------------
 BYTE   PATT
  POIN2 Label_0157CC47
//  #03 //004   ----------------------------------------
Label_0157CC6C:
 BYTE   W12
 BYTE   N04  Ds3  v112
 BYTE   W12
 BYTE   N04
 BYTE   W12
 BYTE   N04
 BYTE   W12
 BYTE   N04
 BYTE   W06
 BYTE   Cn3
 BYTE   W06
 BYTE   Ds3
 BYTE   W36
 BYTE   PEND 
//  #03 //005   ----------------------------------------
 BYTE   PATT
  POIN2 Label_0157CC57
//  #03 //006   ----------------------------------------
Label_0157CC81:
 BYTE   W12
 BYTE   N04  Fn3  v112
 BYTE   W12
 BYTE   N04
 BYTE   W12
 BYTE   N04
 BYTE   W12
 BYTE   N04
 BYTE   W06
 BYTE   Gs3
 BYTE   W06
 BYTE   Fn3
 BYTE   W36
 BYTE   PEND 
//  #03 //007   ----------------------------------------
Label_0157CC91:
 BYTE   W12
 BYTE   N04  Ds3  v112
 BYTE   W12
 BYTE   N04
 BYTE   W12
 BYTE   N04
 BYTE   W12
 BYTE   Dn3
 BYTE   W06
 BYTE   N04
 BYTE   W06
 BYTE   N04
 BYTE   W36
 BYTE   PEND 
//  #03 //008   ----------------------------------------
 BYTE   PATT
  POIN2 Label_0157CC6C
//  #03 //009   ----------------------------------------
 BYTE   PATT
  POIN2 Label_0157CC57
//  #03 //010   ----------------------------------------
 BYTE   PATT
  POIN2 Label_0157CC81
//  #03 //011   ----------------------------------------
 BYTE   PATT
  POIN2 Label_0157CC91
//  #03 //012   ----------------------------------------
 BYTE   VOICE   48
 BYTE   N90  Ds3  v112
 BYTE   W96
//  #03 //013   ----------------------------------------
 BYTE   N90
 BYTE   W96
//  #03 //014   ----------------------------------------
 BYTE   Cn3
 BYTE   W96
//  #03 //015   ----------------------------------------
 BYTE   N42  Ds3
 BYTE   W48
 BYTE   Bn2
 BYTE   W48
//  #03 //016   ----------------------------------------
 BYTE   N90  Ds3
 BYTE   W96
//  #03 //017   ----------------------------------------
 BYTE   N90
 BYTE   W96
//  #03 //018   ----------------------------------------
 BYTE   Cn3
 BYTE   W96
//  #03 //019   ----------------------------------------
 BYTE   N42  Ds3
 BYTE   W48
 BYTE   Dn3
 BYTE   W48
//  #03 //020   ----------------------------------------
 BYTE   VOICE   57
 BYTE   W12
 BYTE   N02  En4
 BYTE   W04
 BYTE   N02
 BYTE   W04
 BYTE   N02
 BYTE   W04
 BYTE   N08
 BYTE   W12
 BYTE   N02
 BYTE   W04
 BYTE   N02
 BYTE   W04
 BYTE   N02
 BYTE   W04
 BYTE   N08
 BYTE   W12
 BYTE   N02
 BYTE   W04
 BYTE   N02
 BYTE   W04
 BYTE   N02
 BYTE   W04
 BYTE   N04
 BYTE   W06
 BYTE   N04
 BYTE   W06
 BYTE   N08
 BYTE   W12
//  #03 //021   ----------------------------------------
 BYTE   W12
 BYTE   N02
 BYTE   W04
 BYTE   N02
 BYTE   W04
 BYTE   N02
 BYTE   W04
 BYTE   N08
 BYTE   W12
 BYTE   N02
 BYTE   W04
 BYTE   N02
 BYTE   W04
 BYTE   N02
 BYTE   W04
 BYTE   N08
 BYTE   W12
 BYTE   N02
 BYTE   W04
 BYTE   N02
 BYTE   W04
 BYTE   N02
 BYTE   W04
 BYTE   N04
 BYTE   W06
 BYTE   N04
 BYTE   W06
 BYTE   N08
 BYTE   W12
//  #03 //022   ----------------------------------------
 BYTE   W12
 BYTE   N02  Cn4
 BYTE   W04
 BYTE   N02
 BYTE   W04
 BYTE   N02
 BYTE   W04
 BYTE   N08
 BYTE   W12
 BYTE   N02
 BYTE   W04
 BYTE   N02
 BYTE   W04
 BYTE   N02
 BYTE   W04
 BYTE   N08
 BYTE   W12
 BYTE   N02
 BYTE   W04
 BYTE   N02
 BYTE   W04
 BYTE   N02
 BYTE   W04
 BYTE   N04
 BYTE   W06
 BYTE   N04
 BYTE   W06
 BYTE   VOICE   48
 BYTE   N08  Gn2
 BYTE   W12
//  #03 //023   ----------------------------------------
 BYTE   VOICE   58
 BYTE   W12
 BYTE   N02  Dn4
 BYTE   W04
 BYTE   N02
 BYTE   W04
 BYTE   N02
 BYTE   W04
 BYTE   N08
 BYTE   W12
 BYTE   N02
 BYTE   W04
 BYTE   N02
 BYTE   W04
 BYTE   N02
 BYTE   W04
 BYTE   N08
 BYTE   W12
 BYTE   N02
 BYTE   W04
 BYTE   N02
 BYTE   W04
 BYTE   N03
 BYTE   W04
 BYTE   N04
 BYTE   W06
 BYTE   N04
 BYTE   W06
 BYTE   N08
 BYTE   W12
//  #03 //024   ----------------------------------------
 BYTE   VOICE   58
 BYTE   TIE  Bn3
 BYTE   W96
//  #03 //025   ----------------------------------------
 BYTE   W72
 BYTE   EOT
 BYTE   N24  An3
 BYTE   W24
//  #03 //026   ----------------------------------------
 BYTE   N72  Gn3
 BYTE   W72
 BYTE   N24  En3
 BYTE   W24
//  #03 //027   ----------------------------------------
 BYTE   N11  An3
 BYTE   W12
 BYTE   Gn3
 BYTE   W12
 BYTE   Fs3
 BYTE   W12
 BYTE   N24  Dn3
 BYTE   W24
 BYTE   N11  An2
 BYTE   W12
 BYTE   N24  Fs2
 BYTE   W24
//  #03 //028   ----------------------------------------
 BYTE   VOICE   48
 BYTE   N90  Cn4
 BYTE   W96
//  #03 //029   ----------------------------------------
 BYTE   Bn3
 BYTE   W96
//  #03 //030   ----------------------------------------
 BYTE   Gn3
 BYTE   W96
//  #03 //031   ----------------------------------------
 BYTE   Dn4
 BYTE   W96
//  #03 //032   ----------------------------------------
 BYTE   VOICE   58
 BYTE   N36  Gn2
 BYTE   W36
 BYTE   Ds3
 BYTE   W36
 BYTE   N24  As1
 BYTE   W24
//  #03 //033   ----------------------------------------
 BYTE   N36  An2
 BYTE   W36
 BYTE   Fn2
 BYTE   W36
 BYTE   N20  Cn2
 BYTE   W24
//  #03 //034   ----------------------------------------
 BYTE   N36
 BYTE   W36
 BYTE   Fn2
 BYTE   W36
 BYTE   N24  Cn3
 BYTE   W24
//  #03 //035   ----------------------------------------
 BYTE   N90  Gn2
 BYTE   W96
//  #03 //036   ----------------------------------------
 BYTE   GoTo
  POIN2 Label_0157CC32
 BYTE   FINE

//**************** Track 4 (Midi-Chn.3) ****************//

WallDefense_004:
//  #04 //000   ----------------------------------------
 BYTE   KEYSH   WallDefense_key+0
Label_0157D18E:
 BYTE   VOICE   56
 BYTE   PAN   c_v-17
 BYTE   VOL   27*WallDefense_mvl/mxv
 BYTE   W12
 BYTE   N04  Gn3  v112
 BYTE   W12
 BYTE   N04
 BYTE   W12
 BYTE   N04
 BYTE   W12
 BYTE   N04
 BYTE   W06
 BYTE   N04
 BYTE   W06
 BYTE   N04
 BYTE   W36
//  #04 //001   ----------------------------------------
Label_0157D1A3:
 BYTE   W12
 BYTE   N04  Gs3  v112
 BYTE   W12
 BYTE   N04
 BYTE   W12
 BYTE   N04
 BYTE   W12
 BYTE   N04
 BYTE   W06
 BYTE   N04
 BYTE   W06
 BYTE   Gn3
 BYTE   W36
 BYTE   PEND 
//  #04 //002   ----------------------------------------
Label_0157D1B3:
 BYTE   W12
 BYTE   N04  Gn3  v112
 BYTE   W12
 BYTE   N04
 BYTE   W12
 BYTE   N04
 BYTE   W12
 BYTE   N04
 BYTE   W06
 BYTE   N04
 BYTE   W06
 BYTE   N04
 BYTE   W36
 BYTE   PEND 
//  #04 //003   ----------------------------------------
 BYTE   PATT
  POIN2 Label_0157D1A3
//  #04 //004   ----------------------------------------
Label_0157D1C8:
 BYTE   W12
 BYTE   N04  Gn3  v112
 BYTE   W12
 BYTE   N04
 BYTE   W12
 BYTE   N04
 BYTE   W12
 BYTE   N04
 BYTE   W06
 BYTE   Ds3
 BYTE   W06
 BYTE   Gn3
 BYTE   W36
 BYTE   PEND 
//  #04 //005   ----------------------------------------
Label_0157D1D8:
 BYTE   W12
 BYTE   N04  Gs3  v112
 BYTE   W12
 BYTE   N04
 BYTE   W12
 BYTE   N04
 BYTE   W12
 BYTE   N04
 BYTE   W06
 BYTE   N04
 BYTE   W06
 BYTE   N04
 BYTE   W36
 BYTE   PEND 
//  #04 //006   ----------------------------------------
Label_0157D1E8:
 BYTE   W12
 BYTE   N04  Gs3  v112
 BYTE   W12
 BYTE   N04
 BYTE   W12
 BYTE   N04
 BYTE   W12
 BYTE   N04
 BYTE   W06
 BYTE   Fn3
 BYTE   W06
 BYTE   Gs3
 BYTE   W36
 BYTE   PEND 
//  #04 //007   ----------------------------------------
 BYTE   PATT
  POIN2 Label_0157D1B3
//  #04 //008   ----------------------------------------
 BYTE   PATT
  POIN2 Label_0157D1C8
//  #04 //009   ----------------------------------------
 BYTE   PATT
  POIN2 Label_0157D1D8
//  #04 //010   ----------------------------------------
 BYTE   PATT
  POIN2 Label_0157D1E8
//  #04 //011   ----------------------------------------
 BYTE   PATT
  POIN2 Label_0157D1B3
//  #04 //012   ----------------------------------------
Label_0157D211:
 BYTE   VOICE   48
 BYTE   N90  Gn4  v112
 BYTE   W96
 BYTE   PEND 
//  #04 //013   ----------------------------------------
Label_0157D218:
 BYTE   N72  Gs4  v112
 BYTE   W72
 BYTE   N20  Gn4
 BYTE   W24
 BYTE   PEND 
//  #04 //014   ----------------------------------------
 BYTE   N90  Fn4
 BYTE   W96
//  #04 //015   ----------------------------------------
 BYTE   N42  Gn4
 BYTE   W48
 BYTE   Dn4
 BYTE   W48
//  #04 //016   ----------------------------------------
 BYTE   N90  Gn4
 BYTE   W96
//  #04 //017   ----------------------------------------
 BYTE   PATT
  POIN2 Label_0157D218
//  #04 //018   ----------------------------------------
 BYTE   N90  Fn4  v112
 BYTE   W96
//  #04 //019   ----------------------------------------
 BYTE   N42  Gn4
 BYTE   W48
 BYTE   Bn4
 BYTE   W48
//  #04 //020   ----------------------------------------
 BYTE   VOICE   56
 BYTE   W12
 BYTE   N02
 BYTE   W04
 BYTE   N02
 BYTE   W04
 BYTE   N02
 BYTE   W04
 BYTE   N08
 BYTE   W12
 BYTE   N02
 BYTE   W04
 BYTE   N02
 BYTE   W04
 BYTE   N02
 BYTE   W04
 BYTE   N08
 BYTE   W12
 BYTE   N02
 BYTE   W04
 BYTE   N02
 BYTE   W04
 BYTE   N02
 BYTE   W04
 BYTE   N04
 BYTE   W06
 BYTE   N04
 BYTE   W06
 BYTE   N08
 BYTE   W12
//  #04 //021   ----------------------------------------
 BYTE   W12
 BYTE   N02
 BYTE   W04
 BYTE   N02
 BYTE   W04
 BYTE   N02
 BYTE   W04
 BYTE   N08
 BYTE   W12
 BYTE   N02
 BYTE   W04
 BYTE   N02
 BYTE   W04
 BYTE   N02
 BYTE   W04
 BYTE   N08
 BYTE   W12
 BYTE   N02
 BYTE   W04
 BYTE   N02
 BYTE   W04
 BYTE   N02
 BYTE   W04
 BYTE   N04
 BYTE   W06
 BYTE   N04
 BYTE   W06
 BYTE   N08
 BYTE   W12
//  #04 //022   ----------------------------------------
 BYTE   W12
 BYTE   N02  Gn4
 BYTE   W04
 BYTE   N02
 BYTE   W04
 BYTE   N02
 BYTE   W04
 BYTE   N08
 BYTE   W12
 BYTE   N02
 BYTE   W04
 BYTE   N02
 BYTE   W04
 BYTE   N02
 BYTE   W04
 BYTE   N08
 BYTE   W12
 BYTE   N02
 BYTE   W04
 BYTE   N02
 BYTE   W04
 BYTE   N03
 BYTE   W04
 BYTE   N04
 BYTE   W06
 BYTE   N04
 BYTE   W06
 BYTE   N08
 BYTE   W12
//  #04 //023   ----------------------------------------
 BYTE   W12
 BYTE   N02  An4
 BYTE   W04
 BYTE   N02
 BYTE   W04
 BYTE   N02
 BYTE   W04
 BYTE   N08
 BYTE   W12
 BYTE   N02
 BYTE   W04
 BYTE   N02
 BYTE   W04
 BYTE   N02
 BYTE   W04
 BYTE   N08
 BYTE   W12
 BYTE   N02
 BYTE   W04
 BYTE   N02
 BYTE   W04
 BYTE   N03
 BYTE   W04
 BYTE   N04
 BYTE   W06
 BYTE   N04
 BYTE   W06
 BYTE   N08
 BYTE   W12
//  #04 //024   ----------------------------------------
 BYTE   VOICE   56
 BYTE   N05  En3
 BYTE   W06
 BYTE   Gn3
 BYTE   W06
 BYTE   Bn3
 BYTE   W06
 BYTE   Ds4
 BYTE   W06
 BYTE   TIE  En4
 BYTE   W72
//  #04 //025   ----------------------------------------
 BYTE   W48
 BYTE   EOT
 BYTE   N11
 BYTE   W12
 BYTE   N11
 BYTE   W12
 BYTE   Dn4
 BYTE   W12
 BYTE   Cn4
 BYTE   W12
//  #04 //026   ----------------------------------------
 BYTE   N24
 BYTE   W24
 BYTE   N32  En4
 BYTE   W36
 BYTE   N11  En3
 BYTE   W12
 BYTE   N07  Gn3
 BYTE   W08
 BYTE   Cn4
 BYTE   W08
 BYTE   En4
 BYTE   W08
//  #04 //027   ----------------------------------------
 BYTE   N20  Fs4
 BYTE   W24
 BYTE   N07
 BYTE   W08
 BYTE   Gn4
 BYTE   W08
 BYTE   Fs4
 BYTE   W08
 BYTE   Dn4
 BYTE   W08
 BYTE   Bn3
 BYTE   W08
 BYTE   An3
 BYTE   W08
 BYTE   N20  Fs3
 BYTE   W24
//  #04 //028   ----------------------------------------
 BYTE   PATT
  POIN2 Label_0157D211
//  #04 //029   ----------------------------------------
 BYTE   N90  Fs4  v112
 BYTE   W96
//  #04 //030   ----------------------------------------
 BYTE   En4
 BYTE   W96
//  #04 //031   ----------------------------------------
 BYTE   An4
 BYTE   W96
//  #04 //032   ----------------------------------------
 BYTE   N11  As4
 BYTE   W12
 BYTE   As3
 BYTE   W12
 BYTE   Gn4
 BYTE   W12
 BYTE   Gn3
 BYTE   W12
 BYTE   Ds4
 BYTE   W12
 BYTE   Ds3
 BYTE   W12
 BYTE   As3
 BYTE   W12
 BYTE   As2
 BYTE   W12
//  #04 //033   ----------------------------------------
 BYTE   An4
 BYTE   W12
 BYTE   An3
 BYTE   W12
 BYTE   Fn4
 BYTE   W12
 BYTE   Fn3
 BYTE   W12
 BYTE   Cn4
 BYTE   W12
 BYTE   Cn3
 BYTE   W12
 BYTE   An3
 BYTE   W12
 BYTE   An2
 BYTE   W12
//  #04 //034   ----------------------------------------
 BYTE   N90  Fn3
 BYTE   W96
//  #04 //035   ----------------------------------------
 BYTE   En3
 BYTE   W96
//  #04 //036   ----------------------------------------
 BYTE   GoTo
  POIN2 Label_0157D18E
 BYTE   FINE

//**************** Track 5 (Midi-Chn.4) ****************//

WallDefense_005:
//  #05 //000   ----------------------------------------
 BYTE   KEYSH   WallDefense_key+0
Label_015D31E2:
 BYTE   VOICE   47
 BYTE   VOL   39*WallDefense_mvl/mxv
 BYTE   PAN   c_v+0
 BYTE   N20  An2  v112
 BYTE   W24
 BYTE   N11  En2
 BYTE   W12
 BYTE   N20  An2
 BYTE   W24
 BYTE   N11  En2
 BYTE   W12
 BYTE   An2
 BYTE   W12
 BYTE   En2
 BYTE   W12
//  #05 //001   ----------------------------------------
Label_015D31F9:
 BYTE   N20  An2  v112
 BYTE   W24
 BYTE   N11  En2
 BYTE   W12
 BYTE   N20  An2
 BYTE   W24
 BYTE   N11  En2
 BYTE   W12
 BYTE   An2
 BYTE   W12
 BYTE   En2
 BYTE   W12
 BYTE   PEND 
//  #05 //002   ----------------------------------------
 BYTE   PATT
  POIN2 Label_015D31F9
//  #05 //003   ----------------------------------------
 BYTE   PATT
  POIN2 Label_015D31F9
//  #05 //004   ----------------------------------------
 BYTE   PATT
  POIN2 Label_015D31F9
//  #05 //005   ----------------------------------------
Label_015D321A:
 BYTE   N20  An2  v112
 BYTE   W24
 BYTE   N11  Fn2
 BYTE   W12
 BYTE   N20  An2
 BYTE   W24
 BYTE   N11  Fn2
 BYTE   W12
 BYTE   An2
 BYTE   W12
 BYTE   Fn2
 BYTE   W12
 BYTE   PEND 
//  #05 //006   ----------------------------------------
 BYTE   PATT
  POIN2 Label_015D321A
//  #05 //007   ----------------------------------------
Label_015D3231:
 BYTE   N20  An2  v112
 BYTE   W24
 BYTE   N11
 BYTE   W12
 BYTE   N20  En2
 BYTE   W24
 BYTE   N11  Gs2
 BYTE   W12
 BYTE   Bn2
 BYTE   W12
 BYTE   En2
 BYTE   W12
 BYTE   PEND 
//  #05 //008   ----------------------------------------
 BYTE   PATT
  POIN2 Label_015D31F9
//  #05 //009   ----------------------------------------
 BYTE   PATT
  POIN2 Label_015D321A
//  #05 //010   ----------------------------------------
 BYTE   PATT
  POIN2 Label_015D321A
//  #05 //011   ----------------------------------------
 BYTE   PATT
  POIN2 Label_015D3231
//  #05 //012   ----------------------------------------
 BYTE   PATT
  POIN2 Label_015D31F9
//  #05 //013   ----------------------------------------
 BYTE   PATT
  POIN2 Label_015D321A
//  #05 //014   ----------------------------------------
 BYTE   PATT
  POIN2 Label_015D321A
//  #05 //015   ----------------------------------------
 BYTE   PATT
  POIN2 Label_015D3231
//  #05 //016   ----------------------------------------
 BYTE   PATT
  POIN2 Label_015D31F9
//  #05 //017   ----------------------------------------
 BYTE   PATT
  POIN2 Label_015D321A
//  #05 //018   ----------------------------------------
 BYTE   PATT
  POIN2 Label_015D321A
//  #05 //019   ----------------------------------------
 BYTE   PATT
  POIN2 Label_015D3231
//  #05 //020   ----------------------------------------
Label_015D327E:
 BYTE   N20  Cs3  v112
 BYTE   W24
 BYTE   N11  Gs2
 BYTE   W12
 BYTE   N20  Cs3
 BYTE   W24
 BYTE   N11  Gs2
 BYTE   W12
 BYTE   N05
 BYTE   W06
 BYTE   N05
 BYTE   W06
 BYTE   Gs2  v127
 BYTE   W06
 BYTE   Gs2  v112
 BYTE   W06
 BYTE   PEND 
//  #05 //021   ----------------------------------------
Label_015D3296:
 BYTE   N20  Bn2  v112
 BYTE   W24
 BYTE   N11  Gs2
 BYTE   W12
 BYTE   N20  Bn2
 BYTE   W24
 BYTE   N11  Gs2
 BYTE   W12
 BYTE   N05
 BYTE   W06
 BYTE   N05
 BYTE   W06
 BYTE   Gs2  v127
 BYTE   W06
 BYTE   Gs2  v112
 BYTE   W06
 BYTE   PEND 
//  #05 //022   ----------------------------------------
Label_015D32AE:
 BYTE   N20  An2  v112
 BYTE   W24
 BYTE   N11  En2
 BYTE   W12
 BYTE   N20  An2
 BYTE   W24
 BYTE   N11  En2
 BYTE   W12
 BYTE   N05
 BYTE   W06
 BYTE   N05
 BYTE   W06
 BYTE   N05
 BYTE   W06
 BYTE   N05
 BYTE   W06
 BYTE   PEND 
//  #05 //023   ----------------------------------------
Label_015D32C4:
 BYTE   N20  Bn2  v112
 BYTE   W24
 BYTE   N11  Fs2
 BYTE   W12
 BYTE   N20  Bn2
 BYTE   W24
 BYTE   N11  Fs2
 BYTE   W12
 BYTE   N05
 BYTE   W06
 BYTE   N05
 BYTE   W06
 BYTE   Fs2  v127
 BYTE   W06
 BYTE   Fs2  v112
 BYTE   W06
 BYTE   PEND 
//  #05 //024   ----------------------------------------
 BYTE   PATT
  POIN2 Label_015D327E
//  #05 //025   ----------------------------------------
 BYTE   PATT
  POIN2 Label_015D3296
//  #05 //026   ----------------------------------------
 BYTE   PATT
  POIN2 Label_015D32AE
//  #05 //027   ----------------------------------------
 BYTE   PATT
  POIN2 Label_015D32C4
//  #05 //028   ----------------------------------------
Label_015D32F0:
 BYTE   N20  An2  v112
 BYTE   W24
 BYTE   N11  En2
 BYTE   W12
 BYTE   N20  An2
 BYTE   W24
 BYTE   N11  En2
 BYTE   W12
 BYTE   N05  An2
 BYTE   W06
 BYTE   N05
 BYTE   W06
 BYTE   An2  v127
 BYTE   W06
 BYTE   An2  v112
 BYTE   W06
 BYTE   PEND 
//  #05 //029   ----------------------------------------
 BYTE   N20  Gs2
 BYTE   W24
 BYTE   N11  En2
 BYTE   W12
 BYTE   N20  Gs2
 BYTE   W24
 BYTE   N11  En2
 BYTE   W12
 BYTE   N05  Gs2
 BYTE   W06
 BYTE   N05
 BYTE   W06
 BYTE   Gs2  v127
 BYTE   W06
 BYTE   Gs2  v112
 BYTE   W06
//  #05 //030   ----------------------------------------
 BYTE   PATT
  POIN2 Label_015D32F0
//  #05 //031   ----------------------------------------
 BYTE   N20  Bn2  v112
 BYTE   W24
 BYTE   N11  Fs2
 BYTE   W12
 BYTE   N20  Bn1
 BYTE   W24
 BYTE   N11  Fs2
 BYTE   W12
 BYTE   N05  Bn2
 BYTE   W06
 BYTE   N05
 BYTE   W06
 BYTE   Bn2  v127
 BYTE   W06
 BYTE   Bn2  v112
 BYTE   W06
//  #05 //032   ----------------------------------------
 BYTE   N20  Cs3
 BYTE   W24
 BYTE   N11  Gs2
 BYTE   W12
 BYTE   N20  Cs3
 BYTE   W24
 BYTE   N11  Gs2
 BYTE   W12
 BYTE   N05  Cs3
 BYTE   W06
 BYTE   N05
 BYTE   W06
 BYTE   Cs3  v127
 BYTE   W06
 BYTE   Cs3  v112
 BYTE   W06
//  #05 //033   ----------------------------------------
 BYTE   N20  Ds2
 BYTE   W24
 BYTE   N11  Gs2
 BYTE   W12
 BYTE   N20  Ds2
 BYTE   W24
 BYTE   N11  Gs2
 BYTE   W12
 BYTE   N05  Ds2
 BYTE   W06
 BYTE   N05
 BYTE   W06
 BYTE   Ds2  v127
 BYTE   W06
 BYTE   Ds2  v112
 BYTE   W06
//  #05 //034   ----------------------------------------
 BYTE   N20  An2
 BYTE   W24
 BYTE   N11  En2
 BYTE   W12
 BYTE   N20  An2
 BYTE   W24
 BYTE   N11  En2
 BYTE   W12
 BYTE   N20  An2
 BYTE   W24
//  #05 //035   ----------------------------------------
 BYTE   N11  En2
 BYTE   W12
 BYTE   N20  An2
 BYTE   W24
 BYTE   N11  En2
 BYTE   W12
 BYTE   N05  An2
 BYTE   W06
 BYTE   N05
 BYTE   W06
 BYTE   N05
 BYTE   W06
 BYTE   N05
 BYTE   W06
 BYTE   An2  v127
 BYTE   W06
 BYTE   N05
 BYTE   W06
 BYTE   N05
 BYTE   W06
 BYTE   N05
 BYTE   W06
//  #05 //036   ----------------------------------------
 BYTE   GoTo
  POIN2 Label_015D31E2
 BYTE   FINE

//**************** Track 6 (Midi-Chn.5) ****************//

WallDefense_006:
//  #06 //000   ----------------------------------------
 BYTE   KEYSH   WallDefense_key+0
Label_015D339E:
 BYTE   VOICE   48
 BYTE   VOL   26*WallDefense_mvl/mxv
 BYTE   PAN   c_v-10
 BYTE   N04  Cn4  v112
 BYTE   W12
 BYTE   Ds2
 BYTE   W12
 BYTE   Gn2
 BYTE   W12
 BYTE   Cn2
 BYTE   W12
 BYTE   Ds2
 BYTE   W12
 BYTE   Gn2
 BYTE   W12
 BYTE   Cn3
 BYTE   W06
 BYTE   Gn2
 BYTE   W06
 BYTE   Ds2
 BYTE   W12
//  #06 //001   ----------------------------------------
Label_015D33B8:
 BYTE   N04  Cn4  v112
 BYTE   W12
 BYTE   Fn2
 BYTE   W12
 BYTE   Gs2
 BYTE   W12
 BYTE   Cn2
 BYTE   W12
 BYTE   Fn2
 BYTE   W12
 BYTE   Gn2
 BYTE   W12
 BYTE   Cn3
 BYTE   W06
 BYTE   Gn2
 BYTE   W06
 BYTE   Ds2
 BYTE   W12
 BYTE   PEND 
//  #06 //002   ----------------------------------------
Label_015D33CD:
 BYTE   N04  Cn4  v112
 BYTE   W12
 BYTE   Ds2
 BYTE   W12
 BYTE   Gn2
 BYTE   W12
 BYTE   Cn2
 BYTE   W12
 BYTE   Ds2
 BYTE   W12
 BYTE   Gn2
 BYTE   W12
 BYTE   Cn3
 BYTE   W06
 BYTE   Gn2
 BYTE   W06
 BYTE   Ds2
 BYTE   W12
 BYTE   PEND 
//  #06 //003   ----------------------------------------
 BYTE   PATT
  POIN2 Label_015D33B8
//  #06 //004   ----------------------------------------
 BYTE   PATT
  POIN2 Label_015D33CD
//  #06 //005   ----------------------------------------
Label_015D33EC:
 BYTE   N04  Cn4  v112
 BYTE   W12
 BYTE   Ds2
 BYTE   W12
 BYTE   Gs2
 BYTE   W12
 BYTE   Cn2
 BYTE   W12
 BYTE   Ds2
 BYTE   W12
 BYTE   Gs2
 BYTE   W12
 BYTE   Cn3
 BYTE   W06
 BYTE   Gs2
 BYTE   W06
 BYTE   Ds2
 BYTE   W12
 BYTE   PEND 
//  #06 //006   ----------------------------------------
Label_015D3401:
 BYTE   N04  Cn4  v112
 BYTE   W12
 BYTE   Fn2
 BYTE   W12
 BYTE   Gs2
 BYTE   W12
 BYTE   Cn2
 BYTE   W12
 BYTE   Fn2
 BYTE   W12
 BYTE   Gs2
 BYTE   W12
 BYTE   Cn3
 BYTE   W06
 BYTE   Gs2
 BYTE   W06
 BYTE   Fn2
 BYTE   W12
 BYTE   PEND 
//  #06 //007   ----------------------------------------
Label_015D3416:
 BYTE   N04  Cn4  v112
 BYTE   W12
 BYTE   Ds2
 BYTE   W12
 BYTE   Gn2
 BYTE   W12
 BYTE   Cn2
 BYTE   W12
 BYTE   Gn2
 BYTE   W12
 BYTE   Bn2
 BYTE   W12
 BYTE   Dn3
 BYTE   W06
 BYTE   Bn2
 BYTE   W06
 BYTE   Gn2
 BYTE   W12
 BYTE   PEND 
//  #06 //008   ----------------------------------------
 BYTE   PATT
  POIN2 Label_015D33CD
//  #06 //009   ----------------------------------------
 BYTE   PATT
  POIN2 Label_015D33EC
//  #06 //010   ----------------------------------------
 BYTE   PATT
  POIN2 Label_015D3401
//  #06 //011   ----------------------------------------
 BYTE   PATT
  POIN2 Label_015D3416
//  #06 //012   ----------------------------------------
 BYTE   PATT
  POIN2 Label_015D33CD
//  #06 //013   ----------------------------------------
 BYTE   PATT
  POIN2 Label_015D33EC
//  #06 //014   ----------------------------------------
 BYTE   PATT
  POIN2 Label_015D3401
//  #06 //015   ----------------------------------------
 BYTE   PATT
  POIN2 Label_015D3416
//  #06 //016   ----------------------------------------
 BYTE   PATT
  POIN2 Label_015D33CD
//  #06 //017   ----------------------------------------
 BYTE   PATT
  POIN2 Label_015D33EC
//  #06 //018   ----------------------------------------
 BYTE   PATT
  POIN2 Label_015D3401
//  #06 //019   ----------------------------------------
 BYTE   PATT
  POIN2 Label_015D3416
//  #06 //020   ----------------------------------------
Label_015D3467:
 BYTE   N11  En3  v112
 BYTE   W12
 BYTE   Gn2
 BYTE   W12
 BYTE   Bn2
 BYTE   W12
 BYTE   N20  En2
 BYTE   W24
 BYTE   N11  Gn2
 BYTE   W12
 BYTE   Bn2
 BYTE   W12
 BYTE   En2
 BYTE   W12
 BYTE   PEND 
//  #06 //021   ----------------------------------------
 BYTE   PATT
  POIN2 Label_015D3467
//  #06 //022   ----------------------------------------
Label_015D347F:
 BYTE   N11  Cn3  v112
 BYTE   W12
 BYTE   En2
 BYTE   W12
 BYTE   Gn2
 BYTE   W12
 BYTE   N20  Cn2
 BYTE   W24
 BYTE   N11  En2
 BYTE   W12
 BYTE   Gn2
 BYTE   W12
 BYTE   Cn2
 BYTE   W12
 BYTE   PEND 
//  #06 //023   ----------------------------------------
Label_015D3492:
 BYTE   N11  Dn3  v112
 BYTE   W12
 BYTE   Fs2
 BYTE   W12
 BYTE   An2
 BYTE   W12
 BYTE   N20  Dn2
 BYTE   W24
 BYTE   N11  Fs2
 BYTE   W12
 BYTE   An2
 BYTE   W12
 BYTE   Dn2
 BYTE   W12
 BYTE   PEND 
//  #06 //024   ----------------------------------------
 BYTE   PATT
  POIN2 Label_015D3467
//  #06 //025   ----------------------------------------
 BYTE   PATT
  POIN2 Label_015D3467
//  #06 //026   ----------------------------------------
 BYTE   PATT
  POIN2 Label_015D347F
//  #06 //027   ----------------------------------------
 BYTE   PATT
  POIN2 Label_015D3492
//  #06 //028   ----------------------------------------
Label_015D34B9:
 BYTE   N04  Cn4  v112
 BYTE   W12
 BYTE   En2
 BYTE   W06
 BYTE   Fn2
 BYTE   W06
 BYTE   Gn2
 BYTE   W12
 BYTE   Gn1
 BYTE   W06
 BYTE   Cn2
 BYTE   W06
 BYTE   En2
 BYTE   W12
 BYTE   Gn2
 BYTE   W12
 BYTE   Cn3
 BYTE   W06
 BYTE   Gn2
 BYTE   W06
 BYTE   En2
 BYTE   W12
 BYTE   PEND 
//  #06 //029   ----------------------------------------
 BYTE   Bn3
 BYTE   W12
 BYTE   Ds2
 BYTE   W06
 BYTE   En2
 BYTE   W06
 BYTE   Fs2
 BYTE   W12
 BYTE   Fs1
 BYTE   W06
 BYTE   Bn1
 BYTE   W06
 BYTE   Ds2
 BYTE   W12
 BYTE   Fs2
 BYTE   W12
 BYTE   Bn2
 BYTE   W06
 BYTE   Fs2
 BYTE   W06
 BYTE   Ds2
 BYTE   W12
//  #06 //030   ----------------------------------------
 BYTE   PATT
  POIN2 Label_015D34B9
//  #06 //031   ----------------------------------------
 BYTE   N04  Dn4  v112
 BYTE   W12
 BYTE   Fs2
 BYTE   W06
 BYTE   Gn2
 BYTE   W06
 BYTE   An2
 BYTE   W12
 BYTE   An1
 BYTE   W06
 BYTE   Dn2
 BYTE   W06
 BYTE   Fs2
 BYTE   W12
 BYTE   An2
 BYTE   W12
 BYTE   Dn3
 BYTE   W06
 BYTE   An2
 BYTE   W06
 BYTE   Fs2
 BYTE   W12
//  #06 //032   ----------------------------------------
 BYTE   Ds4
 BYTE   W12
 BYTE   Gn2
 BYTE   W06
 BYTE   Gs2
 BYTE   W06
 BYTE   As2
 BYTE   W12
 BYTE   As1
 BYTE   W06
 BYTE   Ds2
 BYTE   W06
 BYTE   Gn2
 BYTE   W12
 BYTE   As2
 BYTE   W12
 BYTE   Ds3
 BYTE   W06
 BYTE   As2
 BYTE   W06
 BYTE   Gn2
 BYTE   W12
//  #06 //033   ----------------------------------------
 BYTE   Cn4
 BYTE   W12
 BYTE   Fn2
 BYTE   W06
 BYTE   Gn2
 BYTE   W06
 BYTE   An2
 BYTE   W12
 BYTE   An1
 BYTE   W06
 BYTE   Cn2
 BYTE   W06
 BYTE   Fn2
 BYTE   W12
 BYTE   An2
 BYTE   W12
 BYTE   Cn3
 BYTE   W06
 BYTE   An2
 BYTE   W06
 BYTE   Fn2
 BYTE   W12
//  #06 //034   ----------------------------------------
 BYTE   N11  Cn4
 BYTE   W12
 BYTE   En3
 BYTE   W12
 BYTE   Fn3
 BYTE   W12
 BYTE   Gn3
 BYTE   W12
 BYTE   An3
 BYTE   W12
 BYTE   Gn3
 BYTE   W12
 BYTE   Fn3
 BYTE   W12
 BYTE   En3
 BYTE   W12
//  #06 //035   ----------------------------------------
 BYTE   N11
 BYTE   W12
 BYTE   Cn3
 BYTE   W12
 BYTE   Gn2
 BYTE   W12
 BYTE   Cn3
 BYTE   W12
 BYTE   N42  En2
 BYTE   W48
//  #06 //036   ----------------------------------------
 BYTE   GoTo
  POIN2 Label_015D339E
 BYTE   FINE

//**************** Track 7 (Midi-Chn.6) ****************//

WallDefense_007:
//  #07 //000   ----------------------------------------
 BYTE   KEYSH   WallDefense_key+0
Label_0157CA82:
 BYTE   VOICE   48
 BYTE   VOL   30*WallDefense_mvl/mxv
 BYTE   PAN   c_v-13
 BYTE   N36  Gn2  v112
 BYTE   W36
 BYTE   Ds2
 BYTE   W36
 BYTE   N20  Cn2
 BYTE   W24
//  #07 //001   ----------------------------------------
Label_0157CA91:
 BYTE   N36  Cn2  v112
 BYTE   W36
 BYTE   N24
 BYTE   W24
 BYTE   N36  Ds2
 BYTE   W36
 BYTE   PEND 
//  #07 //002   ----------------------------------------
 BYTE   Gn2
 BYTE   W36
 BYTE   Ds2
 BYTE   W36
 BYTE   N20  Cn2
 BYTE   W24
//  #07 //003   ----------------------------------------
 BYTE   PATT
  POIN2 Label_0157CA91
//  #07 //004   ----------------------------------------
Label_0157CAA7:
 BYTE   N52  Ds3  v112
 BYTE   W60
 BYTE   N12  Cn3
 BYTE   W12
 BYTE   Dn3
 BYTE   W12
 BYTE   N11  Ds3
 BYTE   W12
 BYTE   PEND 
//  #07 //005   ----------------------------------------
Label_0157CAB4:
 BYTE   N24  Gs3  v112
 BYTE   W24
 BYTE   N11  As3
 BYTE   W12
 BYTE   N24  Gs3
 BYTE   W24
 BYTE   N36  Ds3
 BYTE   W36
 BYTE   PEND 
//  #07 //006   ----------------------------------------
Label_0157CAC2:
 BYTE   N52  Fn3  v112
 BYTE   W60
 BYTE   N12  Cn3
 BYTE   W12
 BYTE   Dn3
 BYTE   W12
 BYTE   N11  Fn3
 BYTE   W12
 BYTE   PEND 
//  #07 //007   ----------------------------------------
Label_0157CACF:
 BYTE   N32  Gn3  v112
 BYTE   W36
 BYTE   N04
 BYTE   W06
 BYTE   Gs3
 BYTE   W06
 BYTE   N42  Gn3
 BYTE   W48
 BYTE   PEND 
//  #07 //008   ----------------------------------------
Label_0157CADB:
 BYTE   N52  Cn3  v112
 BYTE   W60
 BYTE   N12  Ds3
 BYTE   W12
 BYTE   Dn3
 BYTE   W12
 BYTE   N11  Ds3
 BYTE   W12
 BYTE   PEND 
//  #07 //009   ----------------------------------------
 BYTE   PATT
  POIN2 Label_0157CAB4
//  #07 //010   ----------------------------------------
Label_0157CAED:
 BYTE   N42  Fn3  v112
 BYTE   W48
 BYTE   N11  Cn4
 BYTE   W12
 BYTE   N12  Fn3
 BYTE   W12
 BYTE   Gs3
 BYTE   W12
 BYTE   N11  Cn3
 BYTE   W12
 BYTE   PEND 
//  #07 //011   ----------------------------------------
Label_0157CAFD:
 BYTE   N32  Gn3  v112
 BYTE   W36
 BYTE   N05
 BYTE   W06
 BYTE   An3
 BYTE   W06
 BYTE   N42  Bn3
 BYTE   W48
 BYTE   PEND 
//  #07 //012   ----------------------------------------
 BYTE   PATT
  POIN2 Label_0157CAA7
//  #07 //013   ----------------------------------------
 BYTE   PATT
  POIN2 Label_0157CAB4
//  #07 //014   ----------------------------------------
 BYTE   PATT
  POIN2 Label_0157CAC2
//  #07 //015   ----------------------------------------
 BYTE   PATT
  POIN2 Label_0157CACF
//  #07 //016   ----------------------------------------
 BYTE   PATT
  POIN2 Label_0157CADB
//  #07 //017   ----------------------------------------
 BYTE   PATT
  POIN2 Label_0157CAB4
//  #07 //018   ----------------------------------------
 BYTE   PATT
  POIN2 Label_0157CAED
//  #07 //019   ----------------------------------------
 BYTE   PATT
  POIN2 Label_0157CAFD
//  #07 //020   ----------------------------------------
Label_0157CB31:
 BYTE   N04  En3  v112
 BYTE   W06
 BYTE   Fs3
 BYTE   W06
 BYTE   Gn3
 BYTE   W06
 BYTE   An3
 BYTE   W06
 BYTE   TIE  Bn3
 BYTE   W72
 BYTE   PEND 
//  #07 //021   ----------------------------------------
 BYTE   W48
 BYTE   EOT
 BYTE   N11
 BYTE   W12
 BYTE   Cn4
 BYTE   W12
 BYTE   Bn3
 BYTE   W12
 BYTE   An3
 BYTE   W12
//  #07 //022   ----------------------------------------
 BYTE   N20  Gn3
 BYTE   W24
 BYTE   N32  En3
 BYTE   W48
 BYTE   N11  Cn3
 BYTE   W12
 BYTE   Cn2
 BYTE   W12
//  #07 //023   ----------------------------------------
 BYTE   N20  An3
 BYTE   W24
 BYTE   N42  Fs3
 BYTE   W48
 BYTE   N07  Dn3
 BYTE   W08
 BYTE   An2
 BYTE   W08
 BYTE   Dn3
 BYTE   W08
//  #07 //024   ----------------------------------------
 BYTE   PATT
  POIN2 Label_0157CB31
//  #07 //025   ----------------------------------------
 BYTE   W48
 BYTE   EOT
 BYTE   Bn3
 BYTE   N11  Bn3  v112
 BYTE   W12
 BYTE   Cn4
 BYTE   W12
 BYTE   Bn3
 BYTE   W12
 BYTE   An3
 BYTE   W12
//  #07 //026   ----------------------------------------
 BYTE   N20  Gn3
 BYTE   W24
 BYTE   N32  Cn4
 BYTE   W36
 BYTE   N11  Cn3
 BYTE   W12
 BYTE   N07  En3
 BYTE   W08
 BYTE   Gn3
 BYTE   W08
 BYTE   Cn4
 BYTE   W08
//  #07 //027   ----------------------------------------
 BYTE   N20  Dn4
 BYTE   W24
 BYTE   N07
 BYTE   W08
 BYTE   En4
 BYTE   W08
 BYTE   Dn4
 BYTE   W08
 BYTE   An3
 BYTE   W08
 BYTE   Fs3
 BYTE   W08
 BYTE   En3
 BYTE   W08
 BYTE   N20  Dn3
 BYTE   W24
//  #07 //028   ----------------------------------------
 BYTE   N32  Cn3
 BYTE   W36
 BYTE   N04
 BYTE   W06
 BYTE   Dn3
 BYTE   W06
 BYTE   N11  En3
 BYTE   W12
 BYTE   Fn3
 BYTE   W12
 BYTE   Gn3
 BYTE   W12
 BYTE   En3
 BYTE   W12
//  #07 //029   ----------------------------------------
 BYTE   Ds3
 BYTE   W12
 BYTE   Fs3
 BYTE   W12
 BYTE   Bn2
 BYTE   W12
 BYTE   N20  Bn3
 BYTE   W24
 BYTE   N11  An3
 BYTE   W12
 BYTE   Gn3
 BYTE   W12
 BYTE   Fs3
 BYTE   W12
//  #07 //030   ----------------------------------------
 BYTE   N32  En3
 BYTE   W36
 BYTE   N04
 BYTE   W06
 BYTE   Fn3
 BYTE   W06
 BYTE   N11  Gn3
 BYTE   W12
 BYTE   Cn4
 BYTE   W12
 BYTE   En4
 BYTE   W12
 BYTE   Cn4
 BYTE   W12
//  #07 //031   ----------------------------------------
 BYTE   Dn4
 BYTE   W12
 BYTE   An3
 BYTE   W12
 BYTE   Gn3
 BYTE   W12
 BYTE   N20  Fs3
 BYTE   W24
 BYTE   N11  En3
 BYTE   W12
 BYTE   Dn3
 BYTE   W12
 BYTE   Fs3
 BYTE   W12
//  #07 //032   ----------------------------------------
 BYTE   N04  Ds3
 BYTE   W12
 BYTE   N05
 BYTE   W06
 BYTE   Fn3
 BYTE   W06
 BYTE   N42  Gn3
 BYTE   W48
 BYTE   N11  Ds3
 BYTE   W12
 BYTE   Gn3
 BYTE   W12
//  #07 //033   ----------------------------------------
 BYTE   N04  Fn3
 BYTE   W12
 BYTE   N05
 BYTE   W06
 BYTE   Gn3
 BYTE   W06
 BYTE   N42  An3
 BYTE   W48
 BYTE   N11  Fn3
 BYTE   W12
 BYTE   An3
 BYTE   W12
//  #07 //034   ----------------------------------------
 BYTE   N90  Gn3
 BYTE   W96
//  #07 //035   ----------------------------------------
 BYTE   N11  Cn3
 BYTE   W18
 BYTE   N05
 BYTE   W06
 BYTE   N42
 BYTE   W72
//  #07 //036   ----------------------------------------
 BYTE   GoTo
  POIN2 Label_0157CA82
 BYTE   FINE

//**************** Track 8 (Midi-Chn.7) ****************//

WallDefense_008:
//  #08 //000   ----------------------------------------
 BYTE   KEYSH   WallDefense_key+0
Label_0157D332:
 BYTE   VOICE   58
 BYTE   VOL   33*WallDefense_mvl/mxv
 BYTE   PAN   c_v+9
 BYTE   W18
 BYTE   N04  Gn3  v112
 BYTE   W12
 BYTE   N04
 BYTE   W12
 BYTE   N04
 BYTE   W12
 BYTE   N04
 BYTE   W06
 BYTE   N04
 BYTE   W06
 BYTE   N08
 BYTE   W30
//  #08 //001   ----------------------------------------
Label_0157D347:
 BYTE   W18
 BYTE   N04  Gs3  v112
 BYTE   W12
 BYTE   N04
 BYTE   W12
 BYTE   N04
 BYTE   W12
 BYTE   N04
 BYTE   W06
 BYTE   N04
 BYTE   W06
 BYTE   N08  Gn3
 BYTE   W30
 BYTE   PEND 
//  #08 //002   ----------------------------------------
Label_0157D358:
 BYTE   W18
 BYTE   N04  Gn3  v112
 BYTE   W12
 BYTE   N04
 BYTE   W12
 BYTE   N04
 BYTE   W12
 BYTE   N04
 BYTE   W06
 BYTE   N04
 BYTE   W06
 BYTE   N08
 BYTE   W30
 BYTE   PEND 
//  #08 //003   ----------------------------------------
 BYTE   PATT
  POIN2 Label_0157D347
//  #08 //004   ----------------------------------------
Label_0157D36D:
 BYTE   W18
 BYTE   N04  Gn3  v112
 BYTE   W12
 BYTE   N04
 BYTE   W12
 BYTE   N04
 BYTE   W12
 BYTE   N04
 BYTE   W06
 BYTE   Ds3
 BYTE   W06
 BYTE   N08  Gn3
 BYTE   W30
 BYTE   PEND 
//  #08 //005   ----------------------------------------
 BYTE   W18
 BYTE   N04  Gs3
 BYTE   W12
 BYTE   N04
 BYTE   W12
 BYTE   N04
 BYTE   W12
 BYTE   N05
 BYTE   W06
 BYTE   N05
 BYTE   W06
 BYTE   N08
 BYTE   W30
//  #08 //006   ----------------------------------------
Label_0157D38C:
 BYTE   W18
 BYTE   N04  Gs3  v112
 BYTE   W12
 BYTE   N04
 BYTE   W12
 BYTE   N04
 BYTE   W12
 BYTE   N04
 BYTE   W06
 BYTE   Fn3
 BYTE   W06
 BYTE   N08  Gs3
 BYTE   W30
 BYTE   PEND 
//  #08 //007   ----------------------------------------
 BYTE   PATT
  POIN2 Label_0157D358
//  #08 //008   ----------------------------------------
 BYTE   PATT
  POIN2 Label_0157D36D
//  #08 //009   ----------------------------------------
 BYTE   W18
 BYTE   N04  Gs3  v112
 BYTE   W12
 BYTE   N04
 BYTE   W12
 BYTE   N04
 BYTE   W12
 BYTE   N04
 BYTE   W06
 BYTE   N04
 BYTE   W06
 BYTE   N08
 BYTE   W30
//  #08 //010   ----------------------------------------
 BYTE   PATT
  POIN2 Label_0157D38C
//  #08 //011   ----------------------------------------
 BYTE   PATT
  POIN2 Label_0157D358
//  #08 //012   ----------------------------------------
 BYTE   W96
//  #08 //013   ----------------------------------------
 BYTE   W96
//  #08 //014   ----------------------------------------
 BYTE   W96
//  #08 //015   ----------------------------------------
 BYTE   W96
//  #08 //016   ----------------------------------------
 BYTE   W96
//  #08 //017   ----------------------------------------
 BYTE   W96
//  #08 //018   ----------------------------------------
 BYTE   W96
//  #08 //019   ----------------------------------------
 BYTE   W96
//  #08 //020   ----------------------------------------
 BYTE   W96
//  #08 //021   ----------------------------------------
 BYTE   W96
//  #08 //022   ----------------------------------------
 BYTE   W96
//  #08 //023   ----------------------------------------
 BYTE   W96
//  #08 //024   ----------------------------------------
 BYTE   W96
//  #08 //025   ----------------------------------------
 BYTE   W96
//  #08 //026   ----------------------------------------
 BYTE   W96
//  #08 //027   ----------------------------------------
 BYTE   W96
//  #08 //028   ----------------------------------------
 BYTE   W96
//  #08 //029   ----------------------------------------
 BYTE   W96
//  #08 //030   ----------------------------------------
 BYTE   W96
//  #08 //031   ----------------------------------------
 BYTE   W96
//  #08 //032   ----------------------------------------
 BYTE   W96
//  #08 //033   ----------------------------------------
 BYTE   W96
//  #08 //034   ----------------------------------------
 BYTE   W96
//  #08 //035   ----------------------------------------
 BYTE   W96
//  #08 //036   ----------------------------------------
 BYTE   GoTo
  POIN2 Label_0157D332
 BYTE   FINE

//**************** Track 9 (Midi-Chn.8) ****************//

WallDefense_009:
//  #09 //000   ----------------------------------------
 BYTE   KEYSH   WallDefense_key+0
Label_0157D3E2:
 BYTE   VOICE   56
 BYTE   VOL   33*WallDefense_mvl/mxv
 BYTE   PAN   c_v+17
 BYTE   W18
 BYTE   N04  Ds3  v112
 BYTE   W12
 BYTE   N04
 BYTE   W12
 BYTE   N04
 BYTE   W12
 BYTE   N04
 BYTE   W06
 BYTE   N04
 BYTE   W06
 BYTE   N08
 BYTE   W30
//  #09 //001   ----------------------------------------
Label_0157D3F7:
 BYTE   W18
 BYTE   N04  Fn3  v112
 BYTE   W12
 BYTE   N04
 BYTE   W12
 BYTE   N04
 BYTE   W12
 BYTE   N04
 BYTE   W06
 BYTE   N04
 BYTE   W06
 BYTE   N08  Ds3
 BYTE   W30
 BYTE   PEND 
//  #09 //002   ----------------------------------------
Label_0157D408:
 BYTE   W18
 BYTE   N04  Ds3  v112
 BYTE   W12
 BYTE   N04
 BYTE   W12
 BYTE   N04
 BYTE   W12
 BYTE   N04
 BYTE   W06
 BYTE   N04
 BYTE   W06
 BYTE   N08
 BYTE   W30
 BYTE   PEND 
//  #09 //003   ----------------------------------------
 BYTE   PATT
  POIN2 Label_0157D3F7
//  #09 //004   ----------------------------------------
Label_0157D41D:
 BYTE   W18
 BYTE   N04  Ds3  v112
 BYTE   W12
 BYTE   N04
 BYTE   W12
 BYTE   N04
 BYTE   W12
 BYTE   N04
 BYTE   W06
 BYTE   Cn3
 BYTE   W06
 BYTE   N08  Ds3
 BYTE   W30
 BYTE   PEND 
//  #09 //005   ----------------------------------------
 BYTE   PATT
  POIN2 Label_0157D408
//  #09 //006   ----------------------------------------
Label_0157D433:
 BYTE   W18
 BYTE   N04  Fn3  v112
 BYTE   W12
 BYTE   N04
 BYTE   W12
 BYTE   N04
 BYTE   W12
 BYTE   N04
 BYTE   W06
 BYTE   Gs3
 BYTE   W06
 BYTE   N08  Fn3
 BYTE   W30
 BYTE   PEND 
//  #09 //007   ----------------------------------------
Label_0157D444:
 BYTE   W18
 BYTE   N04  Ds3  v112
 BYTE   W12
 BYTE   N04
 BYTE   W12
 BYTE   N04
 BYTE   W12
 BYTE   Dn3
 BYTE   W06
 BYTE   N04
 BYTE   W06
 BYTE   N08
 BYTE   W30
 BYTE   PEND 
//  #09 //008   ----------------------------------------
 BYTE   PATT
  POIN2 Label_0157D41D
//  #09 //009   ----------------------------------------
 BYTE   PATT
  POIN2 Label_0157D408
//  #09 //010   ----------------------------------------
 BYTE   PATT
  POIN2 Label_0157D433
//  #09 //011   ----------------------------------------
 BYTE   PATT
  POIN2 Label_0157D444
//  #09 //012   ----------------------------------------
 BYTE   W96
//  #09 //013   ----------------------------------------
 BYTE   W96
//  #09 //014   ----------------------------------------
 BYTE   W96
//  #09 //015   ----------------------------------------
 BYTE   W96
//  #09 //016   ----------------------------------------
 BYTE   W96
//  #09 //017   ----------------------------------------
 BYTE   W96
//  #09 //018   ----------------------------------------
 BYTE   W96
//  #09 //019   ----------------------------------------
 BYTE   W96
//  #09 //020   ----------------------------------------
 BYTE   W96
//  #09 //021   ----------------------------------------
 BYTE   W96
//  #09 //022   ----------------------------------------
 BYTE   W96
//  #09 //023   ----------------------------------------
 BYTE   W96
//  #09 //024   ----------------------------------------
 BYTE   W96
//  #09 //025   ----------------------------------------
 BYTE   W96
//  #09 //026   ----------------------------------------
 BYTE   W96
//  #09 //027   ----------------------------------------
 BYTE   W96
//  #09 //028   ----------------------------------------
 BYTE   W96
//  #09 //029   ----------------------------------------
 BYTE   W96
//  #09 //030   ----------------------------------------
 BYTE   W96
//  #09 //031   ----------------------------------------
 BYTE   W96
//  #09 //032   ----------------------------------------
 BYTE   W96
//  #09 //033   ----------------------------------------
 BYTE   W96
//  #09 //034   ----------------------------------------
 BYTE   W96
//  #09 //035   ----------------------------------------
 BYTE   W96
//  #09 //036   ----------------------------------------
 BYTE   GoTo
  POIN2 Label_0157D3E2
 BYTE   FINE

//**************** Track 10 (Midi-Chn.9) ****************//

WallDefense_010:
//  #10 //000   ----------------------------------------
 BYTE   KEYSH   WallDefense_key+0
Label_015D3556:
 BYTE   VOICE   123
 BYTE   VOL   27*WallDefense_mvl/mxv
 BYTE   PAN   c_v+0
 BYTE   N02  Dn1  v112
 BYTE   W03
 BYTE   N02
 BYTE   W03
 BYTE   Dn1  v127
 BYTE   W03
 BYTE   Dn1  v112
 BYTE   W03
 BYTE   N11
 BYTE   W12
 BYTE   Dn1  v127
 BYTE   W12
 BYTE   N02  Dn1  v112
 BYTE   W03
 BYTE   N02
 BYTE   W03
 BYTE   Dn1  v127
 BYTE   W03
 BYTE   Dn1  v112
 BYTE   W03
 BYTE   N11
 BYTE   W12
 BYTE   Dn1  v127
 BYTE   W12
 BYTE   N02  Dn1  v112
 BYTE   W03
 BYTE   N02
 BYTE   W03
 BYTE   Dn1  v127
 BYTE   W03
 BYTE   Dn1  v112
 BYTE   W03
 BYTE   N11
 BYTE   W12
//  #10 //001   ----------------------------------------
Label_015D358C:
 BYTE   N02  Dn1  v112
 BYTE   W03
 BYTE   N02
 BYTE   W03
 BYTE   Dn1  v127
 BYTE   W03
 BYTE   Dn1  v112
 BYTE   W03
 BYTE   N11
 BYTE   W12
 BYTE   Dn1  v127
 BYTE   W12
 BYTE   N02  Dn1  v112
 BYTE   W03
 BYTE   N02
 BYTE   W03
 BYTE   Dn1  v127
 BYTE   W03
 BYTE   Dn1  v112
 BYTE   W03
 BYTE   N11
 BYTE   W12
 BYTE   Dn1  v127
 BYTE   W12
 BYTE   N02  Dn1  v112
 BYTE   W03
 BYTE   N02
 BYTE   W03
 BYTE   Dn1  v127
 BYTE   W03
 BYTE   Dn1  v112
 BYTE   W03
 BYTE   N11
 BYTE   W12
 BYTE   PEND 
//  #10 //002   ----------------------------------------
 BYTE   PATT
  POIN2 Label_015D358C
//  #10 //003   ----------------------------------------
Label_015D35C2:
 BYTE   N02  Dn1  v112
 BYTE   W03
 BYTE   N02
 BYTE   W03
 BYTE   Dn1  v127
 BYTE   W03
 BYTE   Dn1  v112
 BYTE   W03
 BYTE   N11
 BYTE   W12
 BYTE   Dn1  v127
 BYTE   W12
 BYTE   N02  Dn1  v112
 BYTE   W03
 BYTE   N02
 BYTE   W03
 BYTE   Dn1  v127
 BYTE   W03
 BYTE   Dn1  v112
 BYTE   W03
 BYTE   N11
 BYTE   W12
 BYTE   Dn1  v127
 BYTE   W12
 BYTE   N05  Dn1  v112
 BYTE   W06
 BYTE   N05
 BYTE   W06
 BYTE   Dn1  v127
 BYTE   W06
 BYTE   Dn1  v112
 BYTE   W06
 BYTE   PEND 
//  #10 //004   ----------------------------------------
 BYTE   PATT
  POIN2 Label_015D358C
//  #10 //005   ----------------------------------------
 BYTE   PATT
  POIN2 Label_015D35C2
//  #10 //006   ----------------------------------------
 BYTE   PATT
  POIN2 Label_015D358C
//  #10 //007   ----------------------------------------
 BYTE   PATT
  POIN2 Label_015D35C2
//  #10 //008   ----------------------------------------
 BYTE   PATT
  POIN2 Label_015D358C
//  #10 //009   ----------------------------------------
 BYTE   PATT
  POIN2 Label_015D35C2
//  #10 //010   ----------------------------------------
 BYTE   PATT
  POIN2 Label_015D358C
//  #10 //011   ----------------------------------------
 BYTE   PATT
  POIN2 Label_015D35C2
//  #10 //012   ----------------------------------------
 BYTE   PATT
  POIN2 Label_015D358C
//  #10 //013   ----------------------------------------
 BYTE   PATT
  POIN2 Label_015D35C2
//  #10 //014   ----------------------------------------
 BYTE   PATT
  POIN2 Label_015D358C
//  #10 //015   ----------------------------------------
 BYTE   PATT
  POIN2 Label_015D35C2
//  #10 //016   ----------------------------------------
 BYTE   PATT
  POIN2 Label_015D358C
//  #10 //017   ----------------------------------------
 BYTE   PATT
  POIN2 Label_015D35C2
//  #10 //018   ----------------------------------------
 BYTE   PATT
  POIN2 Label_015D358C
//  #10 //019   ----------------------------------------
 BYTE   PATT
  POIN2 Label_015D35C2
//  #10 //020   ----------------------------------------
 BYTE   PATT
  POIN2 Label_015D358C
//  #10 //021   ----------------------------------------
 BYTE   PATT
  POIN2 Label_015D358C
//  #10 //022   ----------------------------------------
 BYTE   PATT
  POIN2 Label_015D358C
//  #10 //023   ----------------------------------------
 BYTE   PATT
  POIN2 Label_015D35C2
//  #10 //024   ----------------------------------------
 BYTE   PATT
  POIN2 Label_015D358C
//  #10 //025   ----------------------------------------
 BYTE   PATT
  POIN2 Label_015D358C
//  #10 //026   ----------------------------------------
 BYTE   PATT
  POIN2 Label_015D358C
//  #10 //027   ----------------------------------------
 BYTE   PATT
  POIN2 Label_015D35C2
//  #10 //028   ----------------------------------------
 BYTE   PATT
  POIN2 Label_015D358C
//  #10 //029   ----------------------------------------
 BYTE   PATT
  POIN2 Label_015D35C2
//  #10 //030   ----------------------------------------
 BYTE   PATT
  POIN2 Label_015D358C
//  #10 //031   ----------------------------------------
 BYTE   PATT
  POIN2 Label_015D35C2
//  #10 //032   ----------------------------------------
 BYTE   PATT
  POIN2 Label_015D358C
//  #10 //033   ----------------------------------------
 BYTE   PATT
  POIN2 Label_015D35C2
//  #10 //034   ----------------------------------------
 BYTE   PATT
  POIN2 Label_015D358C
//  #10 //035   ----------------------------------------
 BYTE   N02  Dn1  v112
 BYTE   W03
 BYTE   N02
 BYTE   W03
 BYTE   Dn1  v127
 BYTE   W03
 BYTE   Dn1  v112
 BYTE   W03
 BYTE   N11
 BYTE   W12
 BYTE   N05
 BYTE   W06
 BYTE   N02
 BYTE   W03
 BYTE   N02
 BYTE   W03
 BYTE   Dn1  v127
 BYTE   W03
 BYTE   Dn1  v112
 BYTE   W03
 BYTE   Dn1  v127
 BYTE   W03
 BYTE   Dn1  v112
 BYTE   W03
 BYTE   N11
 BYTE   W12
 BYTE   N05
 BYTE   W06
 BYTE   N02
 BYTE   W03
 BYTE   N02
 BYTE   W03
 BYTE   Dn1  v127
 BYTE   W03
 BYTE   Dn1  v112
 BYTE   W03
 BYTE   Dn1  v127
 BYTE   W06
 BYTE   N02
 BYTE   W03
 BYTE   Dn1  v112
 BYTE   W03
 BYTE   Dn1  v127
 BYTE   W06
//  #10 //036   ----------------------------------------
 BYTE   GoTo
  POIN2 Label_015D3556
 BYTE   FINE

//******************************************************//
	ALIGN 4

WallDefense:
	BYTE	10	// NumTrks
	BYTE	0	// NumBlks
	BYTE	WallDefense_pri	// Priority
	BYTE	WallDefense_rev	// Reverb.
    
	POIN2	WallDefense_grp
    
	POIN2	WallDefense_001
	POIN2	WallDefense_002
	POIN2	WallDefense_003
	POIN2	WallDefense_004
	POIN2	WallDefense_005
	POIN2	WallDefense_006
	POIN2	WallDefense_007
	POIN2	WallDefense_008
	POIN2	WallDefense_009
	POIN2	WallDefense_010

	
