//Event file generated from Sappy .s format.
	#include "MPlayDef.event"

	#define	song03CC_grp  voicegroup001
	#define	song03CC_pri  0
	#define	song03CC_rev  0
	#define	song03CC_mvl  127
	#define	song03CC_key  0
	#define	song03CC_tbs  1
	#define	song03CC_exg  0
	#define	song03CC_cmp  1

	// .rodata
	//	song03CC
	ALIGN 4


//**************** Track 1 (Midi-Chn.0) ****************//

song03CC_001:
// 000   ----------------------------------------
 BYTE   KEYSH   song03CC_key+0
 BYTE   TEMPO   240*song03CC_tbs/2
 BYTE   PAN   c_v+17
 BYTE   W12
 BYTE   VOL   34*song03CC_mvl/mxv
 BYTE   W06
 BYTE   W03
 BYTE   VOICE   23
 BYTE   W03
Label_0_01720ECE:
 BYTE   TEMPO   150*song03CC_tbs/2
 BYTE   N96  En3  v127
 BYTE   W96
// 001   ----------------------------------------
 BYTE   Bn3
 BYTE   W96
// 002   ----------------------------------------
 BYTE   Cn4
 BYTE   W96
// 003   ----------------------------------------
 BYTE   As3
 BYTE   W96
// 004   ----------------------------------------
 BYTE   En3
 BYTE   W96
// 005   ----------------------------------------
Label_0_01720EDC:
 BYTE   N36  Bn3  v127
 BYTE   W36
 BYTE   En3
 BYTE   W36
 BYTE   N24  En4
 BYTE   W24
 BYTE   PEND 
// 006   ----------------------------------------
Label_0_01720EE6:
 BYTE   N12  Ds4  v127
 BYTE   W12
 BYTE   Dn4
 BYTE   W12
 BYTE   N48  Ds4
 BYTE   W48
 BYTE   N24  Dn4
 BYTE   W24
 BYTE   PEND 
// 007   ----------------------------------------
Label_0_01720EF3:
 BYTE   N12  Cs4  v127
 BYTE   W12
 BYTE   Cn4
 BYTE   W12
 BYTE   N72  Cs4
 BYTE   W72
 BYTE   PEND 
// 008   ----------------------------------------
 BYTE   N96  En3
 BYTE   W96
// 009   ----------------------------------------
 BYTE   PATT
  POIN2 Label_0_01720EDC
// 010   ----------------------------------------
Label_0_01720F05:
 BYTE   N72  Dn4  v127
 BYTE   W72
 BYTE   N12  Cn4
 BYTE   W12
 BYTE   Bn3
 BYTE   W12
 BYTE   PEND 
// 011   ----------------------------------------
Label_0_01720F0F:
 BYTE   N48  Cn4  v127
 BYTE   W48
 BYTE   Gn3
 BYTE   W48
 BYTE   PEND 
// 012   ----------------------------------------
Label_0_01720F16:
 BYTE   N48  As3  v127
 BYTE   W48
 BYTE   N36  An3
 BYTE   W36
 BYTE   N12  As3
 BYTE   W12
 BYTE   PEND 
// 013   ----------------------------------------
Label_0_01720F21:
 BYTE   N48  Bn3  v127
 BYTE   W48
 BYTE   Fs3
 BYTE   W48
 BYTE   PEND 
// 014   ----------------------------------------
 BYTE   TIE  En3
 BYTE   W96
// 015   ----------------------------------------
 BYTE   W92
 BYTE   W01
 BYTE   EOT
 BYTE   W03
// 016   ----------------------------------------
 BYTE   N96
 BYTE   W96
// 017   ----------------------------------------
 BYTE   Bn3
 BYTE   W96
// 018   ----------------------------------------
 BYTE   Cn4
 BYTE   W96
// 019   ----------------------------------------
 BYTE   As3
 BYTE   W96
// 020   ----------------------------------------
 BYTE   En3
 BYTE   W96
// 021   ----------------------------------------
 BYTE   PATT
  POIN2 Label_0_01720EDC
// 022   ----------------------------------------
 BYTE   PATT
  POIN2 Label_0_01720EE6
// 023   ----------------------------------------
 BYTE   PATT
  POIN2 Label_0_01720EF3
// 024   ----------------------------------------
 BYTE   N96  En3  v127
 BYTE   W96
// 025   ----------------------------------------
 BYTE   PATT
  POIN2 Label_0_01720EDC
// 026   ----------------------------------------
 BYTE   PATT
  POIN2 Label_0_01720F05
// 027   ----------------------------------------
 BYTE   PATT
  POIN2 Label_0_01720F0F
// 028   ----------------------------------------
 BYTE   PATT
  POIN2 Label_0_01720F16
// 029   ----------------------------------------
 BYTE   PATT
  POIN2 Label_0_01720F21
// 030   ----------------------------------------
 BYTE   TIE  En3  v127
 BYTE   W96
// 031   ----------------------------------------
 BYTE   W92
 BYTE   W01
 BYTE   EOT
 BYTE   W03
// 032   ----------------------------------------
 BYTE   W96
// 033   ----------------------------------------
 BYTE   W96
// 034   ----------------------------------------
 BYTE   W96
// 035   ----------------------------------------
 BYTE   W96
// 036   ----------------------------------------
 BYTE   W96
// 037   ----------------------------------------
 BYTE   W96
// 038   ----------------------------------------
 BYTE   W96
// 039   ----------------------------------------
 BYTE   W96
// 040   ----------------------------------------
 BYTE   TIE  As3
 BYTE   N84  En4
 BYTE   W84
 BYTE   N24  Dn4
 BYTE   W12
// 041   ----------------------------------------
 BYTE   W12
 BYTE   EOT
 BYTE   As3
 BYTE   W24
 BYTE   N12
 BYTE   N12  Dn4
 BYTE   W12
 BYTE   Gs3
 BYTE   N12  En4
 BYTE   W12
 BYTE   N06  As3
 BYTE   N06  Dn4
 BYTE   W06
 BYTE   Gs3
 BYTE   N06  Cn4
 BYTE   W06
 BYTE   N12  Gn3
 BYTE   N12  En4
 BYTE   W12
 BYTE   N06  Gs3
 BYTE   N06  Ds4
 BYTE   W06
 BYTE   Fn3
 BYTE   N06  Cn4
 BYTE   W06
// 042   ----------------------------------------
 BYTE   N72  Dn4
 BYTE   W72
 BYTE   An4
 BYTE   W24
// 043   ----------------------------------------
 BYTE   W48
 BYTE   N12  Gs4
 BYTE   W12
 BYTE   An4
 BYTE   W12
 BYTE   As4
 BYTE   W12
 BYTE   En4
 BYTE   W12
// 044   ----------------------------------------
 BYTE   N48  An4
 BYTE   W48
 BYTE   N60  Gs4
 BYTE   W48
// 045   ----------------------------------------
 BYTE   W12
 BYTE   N06  Gn4
 BYTE   W06
 BYTE   Fn4
 BYTE   W06
 BYTE   En4
 BYTE   W06
 BYTE   Fn4
 BYTE   W06
 BYTE   En4
 BYTE   W06
 BYTE   Dn4
 BYTE   W06
 BYTE   N48  Cs4
 BYTE   W48
// 046   ----------------------------------------
 BYTE   N16  An3
 BYTE   W16
 BYTE   Cn4
 BYTE   W16
 BYTE   En4
 BYTE   W16
 BYTE   Ds4
 BYTE   W16
 BYTE   Gn3
 BYTE   W16
 BYTE   Gs3
 BYTE   W16
// 047   ----------------------------------------
 BYTE   Gn4
 BYTE   W16
 BYTE   En4
 BYTE   W16
 BYTE   An3
 BYTE   W16
 BYTE   Bn3
 BYTE   W16
 BYTE   An4
 BYTE   W32
// 048   ----------------------------------------
 BYTE   N96  En4
 BYTE   W96
// 049   ----------------------------------------
 BYTE   Ds4
 BYTE   W96
// 050   ----------------------------------------
 BYTE   N16  Dn4
 BYTE   W16
 BYTE   Cs4
 BYTE   W16
 BYTE   Dn4
 BYTE   W16
 BYTE   Ds4
 BYTE   W16
 BYTE   Dn4
 BYTE   W16
 BYTE   Cs4
 BYTE   W16
// 051   ----------------------------------------
 BYTE   N48  Cn4
 BYTE   W48
 BYTE   Dn4
 BYTE   W48
// 052   ----------------------------------------
 BYTE   N60  En4
 BYTE   W60
 BYTE   N18  Bn3
 BYTE   W18
 BYTE   En4
 BYTE   W18
// 053   ----------------------------------------
 BYTE   N48  Ds4
 BYTE   W48
 BYTE   Bn3
 BYTE   W48
// 054   ----------------------------------------
 BYTE   N60  Dn4
 BYTE   W60
 BYTE   N18  Bn3
 BYTE   W18
 BYTE   Dn4
 BYTE   W18
// 055   ----------------------------------------
 BYTE   N48  Cs4
 BYTE   W48
 BYTE   An3
 BYTE   W48
// 056   ----------------------------------------
 BYTE   GoTo
  POIN2 Label_0_01720ECE
 BYTE   FINE

//**************** Track 2 (Midi-Chn.1) ****************//

song03CC_002:
// 000   ----------------------------------------
 BYTE   KEYSH   song03CC_key+0
 BYTE   PAN   c_v-35
 BYTE   W12
 BYTE   VOL   28*song03CC_mvl/mxv
 BYTE   W06
 BYTE   W03
 BYTE   VOICE   52
 BYTE   W03
Label_1_01721020:
 BYTE   TIE  En2  v127
 BYTE   TIE  Gn2
 BYTE   TIE  Bn2
 BYTE   W96
// 001   ----------------------------------------
 BYTE   W96
// 002   ----------------------------------------
 BYTE   EOT
 BYTE   N96  Cn3
 BYTE   W96
// 003   ----------------------------------------
Label_1_0172102D:
 BYTE   N96  As2  v127
 BYTE   W92
 BYTE   W01
 BYTE   PEND 
 BYTE   EOT
 BYTE   En2  v055
 BYTE   W03
// 004   ----------------------------------------
Label_1_01721037:
 BYTE   TIE  En2  v127
 BYTE   TIE  Gn2
 BYTE   TIE  Bn2
 BYTE   W96
 BYTE   PEND 
// 005   ----------------------------------------
 BYTE   W92
 BYTE   W01
 BYTE   EOT
 BYTE   En2  v055
 BYTE   W03
// 006   ----------------------------------------
 BYTE   Bn2
Label_1_01721047:
 BYTE   N96  En2  v127
 BYTE   N96  Gn2
 BYTE   N96  As2
 BYTE   W96
 BYTE   PEND 
// 007   ----------------------------------------
Label_1_01721050:
 BYTE   N96  Ds2  v127
 BYTE   N96  Fs2
 BYTE   N92  Bn2
 BYTE   W96
 BYTE   PEND 
// 008   ----------------------------------------
 BYTE   PATT
  POIN2 Label_1_01721037
// 009   ----------------------------------------
 BYTE   W96
// 010   ----------------------------------------
 BYTE   EOT
 BYTE   En2  v055
 BYTE   Bn2
Label_1_01721063:
 BYTE   N96  Dn2  v127
 BYTE   N96  Fs2
 BYTE   N92  An2
 BYTE   W96
 BYTE   PEND 
// 011   ----------------------------------------
Label_1_0172106C:
 BYTE   N96  An2  v127
 BYTE   N96  Cn3
 BYTE   N96  En3
 BYTE   W96
 BYTE   PEND 
// 012   ----------------------------------------
 BYTE   PATT
  POIN2 Label_1_01721047
// 013   ----------------------------------------
 BYTE   N96  Fs2  v127
 BYTE   N96  Bn2
 BYTE   N96  Ds3
 BYTE   W96
// 014   ----------------------------------------
 BYTE   PATT
  POIN2 Label_1_01721037
// 015   ----------------------------------------
 BYTE   W92
 BYTE   W01
 BYTE   EOT
 BYTE   En2  v055
 BYTE   Bn2
 BYTE   W03
// 016   ----------------------------------------
 BYTE   TIE  En2  v127
 BYTE   TIE  Gn2
 BYTE   TIE  Bn2
 BYTE   W96
// 017   ----------------------------------------
 BYTE   W96
// 018   ----------------------------------------
 BYTE   EOT
 BYTE   N96  Cn3
 BYTE   W96
// 019   ----------------------------------------
 BYTE   PATT
  POIN2 Label_1_0172102D
// 020   ----------------------------------------
 BYTE   EOT
 BYTE   En2  v055
 BYTE   W03
// 021   ----------------------------------------
 BYTE   PATT
  POIN2 Label_1_01721037
// 022   ----------------------------------------
 BYTE   W92
 BYTE   W01
 BYTE   EOT
 BYTE   En2  v055
 BYTE   W03
// 023   ----------------------------------------
 BYTE   Bn2
// 024   ----------------------------------------
 BYTE   PATT
  POIN2 Label_1_01721047
// 025   ----------------------------------------
 BYTE   PATT
  POIN2 Label_1_01721050
// 026   ----------------------------------------
 BYTE   PATT
  POIN2 Label_1_01721037
// 027   ----------------------------------------
 BYTE   W96
// 028   ----------------------------------------
 BYTE   EOT
 BYTE   En2  v055
 BYTE   Bn2
// 029   ----------------------------------------
 BYTE   PATT
  POIN2 Label_1_01721063
// 030   ----------------------------------------
 BYTE   PATT
  POIN2 Label_1_0172106C
// 031   ----------------------------------------
 BYTE   PATT
  POIN2 Label_1_01721047
// 032   ----------------------------------------
 BYTE   N96  Fs2  v127
 BYTE   N92  Bn2
 BYTE   N96  Ds3
 BYTE   W96
// 033   ----------------------------------------
 BYTE   PATT
  POIN2 Label_1_01721037
// 034   ----------------------------------------
 BYTE   W92
 BYTE   W01
 BYTE   EOT
 BYTE   En2  v055
 BYTE   Bn2
 BYTE   W03
// 035   ----------------------------------------
 BYTE   TIE  En2  v127
 BYTE   N96  Gn2
 BYTE   N96  Bn2
 BYTE   W96
// 036   ----------------------------------------
 BYTE   An2
 BYTE   N96  Cn3
 BYTE   W96
// 037   ----------------------------------------
 BYTE   Bn2
 BYTE   N96  Dn3
 BYTE   W96
// 038   ----------------------------------------
Label_1_017210F7:
 BYTE   N96  Cn3  v127
 BYTE   N96  Ds3
 BYTE   W92
 BYTE   W01
 BYTE   PEND 
 BYTE   EOT
 BYTE   En2
 BYTE   W03
// 039   ----------------------------------------
Label_1_01721102:
 BYTE   TIE  En2  v127
 BYTE   N92  Gn2
 BYTE   N96  Bn2
 BYTE   W96
 BYTE   PEND 
// 040   ----------------------------------------
Label_1_0172110B:
 BYTE   N92  Gn2  v127
 BYTE   N96  As2
 BYTE   W96
 BYTE   PEND 
// 041   ----------------------------------------
 BYTE   Gn2
 BYTE   N96  Bn2
 BYTE   W96
// 042   ----------------------------------------
Label_1_01721116:
 BYTE   N96  Gs2  v127
 BYTE   N96  Cn3
 BYTE   W92
 BYTE   W01
 BYTE   PEND 
 BYTE   EOT
 BYTE   En2
 BYTE   W03
// 043   ----------------------------------------
Label_1_01721121:
 BYTE   TIE  En2  v127
 BYTE   N96  Gn2
 BYTE   N96  Bn2
 BYTE   W96
 BYTE   PEND 
// 044   ----------------------------------------
 BYTE   An2
 BYTE   N96  Cn3
 BYTE   W96
// 045   ----------------------------------------
 BYTE   Bn2
 BYTE   N96  Dn3
 BYTE   W96
// 046   ----------------------------------------
 BYTE   PATT
  POIN2 Label_1_017210F7
// 047   ----------------------------------------
 BYTE   EOT
 BYTE   En2
 BYTE   W03
// 048   ----------------------------------------
 BYTE   PATT
  POIN2 Label_1_01721102
// 049   ----------------------------------------
 BYTE   PATT
  POIN2 Label_1_0172110B
// 050   ----------------------------------------
 BYTE   N96  Gn2  v127
 BYTE   N96  Bn2
 BYTE   W96
// 051   ----------------------------------------
 BYTE   PATT
  POIN2 Label_1_01721116
// 052   ----------------------------------------
 BYTE   EOT
 BYTE   En2
 BYTE   W03
// 053   ----------------------------------------
 BYTE   PATT
  POIN2 Label_1_01721121
// 054   ----------------------------------------
 BYTE   N96  An2  v127
 BYTE   N96  Cn3
 BYTE   W96
// 055   ----------------------------------------
 BYTE   Bn2
 BYTE   N96  Dn3
 BYTE   W96
// 056   ----------------------------------------
 BYTE   PATT
  POIN2 Label_1_017210F7
// 057   ----------------------------------------
 BYTE   EOT
 BYTE   En2
 BYTE   W03
// 058   ----------------------------------------
 BYTE   PATT
  POIN2 Label_1_01721102
// 059   ----------------------------------------
 BYTE   PATT
  POIN2 Label_1_0172110B
// 060   ----------------------------------------
 BYTE   N96  Gn2  v127
 BYTE   N96  Bn2
 BYTE   W96
// 061   ----------------------------------------
 BYTE   Gs2
 BYTE   N96  Cn3
 BYTE   W96
// 062   ----------------------------------------
 BYTE   EOT
 BYTE   En2
 BYTE   GoTo
  POIN2 Label_1_01721020
 BYTE   FINE

//**************** Track 3 (Midi-Chn.2) ****************//

song03CC_003:
// 000   ----------------------------------------
 BYTE   KEYSH   song03CC_key+0
 BYTE   W12
 BYTE   VOL   40*song03CC_mvl/mxv
 BYTE   W03
 BYTE   PAN   c_v+0
 BYTE   W03
 BYTE   W03
 BYTE   VOICE   35
 BYTE   W03
Label_2_01721195:
 BYTE   PAN   c_v+0
 BYTE   TIE  En1  v127
 BYTE   W96
// 001   ----------------------------------------
 BYTE   W96
// 002   ----------------------------------------
 BYTE   W96
// 003   ----------------------------------------
 BYTE   W92
 BYTE   W01
 BYTE   EOT
 BYTE   W03
// 004   ----------------------------------------
 BYTE   TIE
 BYTE   W96
// 005   ----------------------------------------
 BYTE   W96
// 006   ----------------------------------------
 BYTE   EOT
 BYTE   N96  As1
 BYTE   W96
// 007   ----------------------------------------
 BYTE   Bn1
 BYTE   W96
// 008   ----------------------------------------
 BYTE   TIE  En1
 BYTE   W96
// 009   ----------------------------------------
 BYTE   W96
// 010   ----------------------------------------
 BYTE   W96
// 011   ----------------------------------------
 BYTE   EOT
 BYTE   N96  An1
 BYTE   W96
// 012   ----------------------------------------
 BYTE   As1
 BYTE   W96
// 013   ----------------------------------------
 BYTE   Bn1
 BYTE   W96
// 014   ----------------------------------------
 BYTE   TIE  En1
 BYTE   W96
// 015   ----------------------------------------
 BYTE   W92
 BYTE   W01
 BYTE   EOT
 BYTE   W03
// 016   ----------------------------------------
Label_2_017211BE:
 BYTE   N12  En1  v127
 BYTE   W12
 BYTE   N12
 BYTE   W12
 BYTE   En2
 BYTE   W12
 BYTE   En1
 BYTE   W12
 BYTE   N12
 BYTE   W12
 BYTE   En2
 BYTE   W12
 BYTE   Dn2
 BYTE   W12
 BYTE   En1
 BYTE   W12
 BYTE   PEND 
// 017   ----------------------------------------
 BYTE   PATT
  POIN2 Label_2_017211BE
// 018   ----------------------------------------
 BYTE   PATT
  POIN2 Label_2_017211BE
// 019   ----------------------------------------
 BYTE   N12  En1  v127
 BYTE   W12
 BYTE   N12
 BYTE   W12
 BYTE   As1
 BYTE   W12
 BYTE   En1
 BYTE   W12
 BYTE   As1
 BYTE   W12
 BYTE   En2
 BYTE   W12
 BYTE   As1
 BYTE   W12
 BYTE   En2
 BYTE   W12
// 020   ----------------------------------------
 BYTE   PATT
  POIN2 Label_2_017211BE
// 021   ----------------------------------------
 BYTE   PATT
  POIN2 Label_2_017211BE
// 022   ----------------------------------------
 BYTE   N12  Ds2  v127
 BYTE   W12
 BYTE   Dn2
 BYTE   W12
 BYTE   Cs2
 BYTE   W12
 BYTE   Bn1
 BYTE   W12
 BYTE   As1
 BYTE   W12
 BYTE   Bn1
 BYTE   W12
 BYTE   As1
 BYTE   W12
 BYTE   Gs1
 BYTE   W12
// 023   ----------------------------------------
 BYTE   Cs2
 BYTE   W12
 BYTE   Ds2
 BYTE   W12
 BYTE   En2
 BYTE   W12
 BYTE   Gn2
 BYTE   W12
 BYTE   Ds2
 BYTE   W12
 BYTE   An2
 BYTE   W12
 BYTE   Gs2
 BYTE   W12
 BYTE   En2
 BYTE   W12
// 024   ----------------------------------------
 BYTE   En1
 BYTE   W12
 BYTE   En2
 BYTE   W12
 BYTE   En1
 BYTE   W12
 BYTE   N12
 BYTE   W12
 BYTE   En2
 BYTE   W12
 BYTE   Dn2
 BYTE   W12
 BYTE   En2
 BYTE   W12
 BYTE   En1
 BYTE   W12
// 025   ----------------------------------------
 BYTE   N12
 BYTE   W12
 BYTE   N12
 BYTE   W12
 BYTE   En2
 BYTE   W12
 BYTE   En1
 BYTE   W12
 BYTE   N12
 BYTE   W12
 BYTE   En2
 BYTE   W12
 BYTE   Dn2
 BYTE   W12
 BYTE   En2
 BYTE   W12
// 026   ----------------------------------------
 BYTE   En1
 BYTE   W12
 BYTE   N12
 BYTE   W12
 BYTE   Dn2
 BYTE   W12
 BYTE   N12
 BYTE   W12
 BYTE   N12
 BYTE   W12
 BYTE   An1
 BYTE   W12
 BYTE   N12
 BYTE   W12
 BYTE   Dn2
 BYTE   W12
// 027   ----------------------------------------
 BYTE   An1
 BYTE   W12
 BYTE   An2
 BYTE   W12
 BYTE   An1
 BYTE   W12
 BYTE   Gn2
 BYTE   W12
 BYTE   An2
 BYTE   W12
 BYTE   An1
 BYTE   W12
 BYTE   En2
 BYTE   W12
 BYTE   An2
 BYTE   W12
// 028   ----------------------------------------
 BYTE   As1
 BYTE   W12
 BYTE   N12
 BYTE   W12
 BYTE   As2
 BYTE   W12
 BYTE   As1
 BYTE   W12
 BYTE   An2
 BYTE   W12
 BYTE   As2
 BYTE   W12
 BYTE   As1
 BYTE   W12
 BYTE   An1
 BYTE   W12
// 029   ----------------------------------------
 BYTE   Bn1
 BYTE   W12
 BYTE   N12
 BYTE   W12
 BYTE   Bn2
 BYTE   W12
 BYTE   Bn1
 BYTE   W12
 BYTE   An2
 BYTE   W12
 BYTE   Bn2
 BYTE   W12
 BYTE   Bn1
 BYTE   W12
 BYTE   Fs2
 BYTE   W12
// 030   ----------------------------------------
 BYTE   PATT
  POIN2 Label_2_017211BE
// 031   ----------------------------------------
 BYTE   PATT
  POIN2 Label_2_017211BE
// 032   ----------------------------------------
Label_2_01721283:
 BYTE   N12  En1  v127
 BYTE   W12
 BYTE   N12
 BYTE   W12
 BYTE   N12
 BYTE   W12
 BYTE   N12
 BYTE   W12
 BYTE   N12
 BYTE   W12
 BYTE   N12
 BYTE   W12
 BYTE   N12
 BYTE   W12
 BYTE   N12
 BYTE   W12
 BYTE   PEND 
// 033   ----------------------------------------
 BYTE   PATT
  POIN2 Label_2_01721283
// 034   ----------------------------------------
 BYTE   PATT
  POIN2 Label_2_01721283
// 035   ----------------------------------------
 BYTE   PATT
  POIN2 Label_2_01721283
// 036   ----------------------------------------
 BYTE   PATT
  POIN2 Label_2_01721283
// 037   ----------------------------------------
 BYTE   PATT
  POIN2 Label_2_01721283
// 038   ----------------------------------------
 BYTE   PATT
  POIN2 Label_2_01721283
// 039   ----------------------------------------
 BYTE   PATT
  POIN2 Label_2_01721283
// 040   ----------------------------------------
 BYTE   PATT
  POIN2 Label_2_01721283
// 041   ----------------------------------------
 BYTE   PATT
  POIN2 Label_2_01721283
// 042   ----------------------------------------
 BYTE   PATT
  POIN2 Label_2_01721283
// 043   ----------------------------------------
 BYTE   PATT
  POIN2 Label_2_01721283
// 044   ----------------------------------------
 BYTE   PATT
  POIN2 Label_2_01721283
// 045   ----------------------------------------
 BYTE   PATT
  POIN2 Label_2_01721283
// 046   ----------------------------------------
 BYTE   PATT
  POIN2 Label_2_01721283
// 047   ----------------------------------------
 BYTE   PATT
  POIN2 Label_2_01721283
// 048   ----------------------------------------
 BYTE   PATT
  POIN2 Label_2_01721283
// 049   ----------------------------------------
 BYTE   PATT
  POIN2 Label_2_01721283
// 050   ----------------------------------------
 BYTE   PATT
  POIN2 Label_2_01721283
// 051   ----------------------------------------
 BYTE   PATT
  POIN2 Label_2_01721283
// 052   ----------------------------------------
 BYTE   PATT
  POIN2 Label_2_01721283
// 053   ----------------------------------------
 BYTE   PATT
  POIN2 Label_2_01721283
// 054   ----------------------------------------
 BYTE   PATT
  POIN2 Label_2_01721283
// 055   ----------------------------------------
 BYTE   PATT
  POIN2 Label_2_01721283
// 056   ----------------------------------------
 BYTE   GoTo
  POIN2 Label_2_01721195
 BYTE   FINE

//**************** Track 4 (Midi-Chn.3) ****************//

song03CC_004:
// 000   ----------------------------------------
 BYTE   KEYSH   song03CC_key+0
 BYTE   W12
 BYTE   VOL   31*song03CC_mvl/mxv
 BYTE   W03
 BYTE   PAN   c_v+0
 BYTE   W03
 BYTE   W03
 BYTE   VOICE   11
 BYTE   W03
Label_3_0172131D:
 BYTE   PAN   c_v+0
 BYTE   N08  Bn4  v127
 BYTE   W08
 BYTE   Gn4
 BYTE   W08
 BYTE   En4
 BYTE   W08
 BYTE   Bn4
 BYTE   W08
 BYTE   Gn4
 BYTE   W08
 BYTE   En4
 BYTE   W08
 BYTE   Bn4
 BYTE   W08
 BYTE   Gn4
 BYTE   W08
 BYTE   En4
 BYTE   W08
// 001   ----------------------------------------
 BYTE   Bn4
 BYTE   W08
 BYTE   Gn4
 BYTE   W08
 BYTE   En4
 BYTE   W08
Label_3_01721339:
 BYTE   N08  Bn4  v127
 BYTE   W08
 BYTE   Gn4
 BYTE   W08
 BYTE   En4
 BYTE   W08
 BYTE   Bn4
 BYTE   W08
 BYTE   Gn4
 BYTE   W08
 BYTE   En4
 BYTE   W08
 BYTE   Bn4
 BYTE   W08
 BYTE   Gn4
 BYTE   W08
 BYTE   En4
 BYTE   W08
// 002   ----------------------------------------
 BYTE   Bn4
 BYTE   W08
 BYTE   Gn4
 BYTE   W08
 BYTE   En4
 BYTE   W08
 BYTE   PEND 
 BYTE   Cn5
 BYTE   W08
 BYTE   Gn4
 BYTE   W08
 BYTE   En4
 BYTE   W08
 BYTE   Cn5
 BYTE   W08
 BYTE   Gn4
 BYTE   W08
 BYTE   En4
 BYTE   W08
 BYTE   Cn5
 BYTE   W08
 BYTE   Gn4
 BYTE   W08
 BYTE   En4
 BYTE   W08
// 003   ----------------------------------------
 BYTE   Cn5
 BYTE   W08
 BYTE   Gn4
 BYTE   W08
 BYTE   En4
 BYTE   W08
Label_3_0172136C:
 BYTE   N08  As4  v127
 BYTE   W08
 BYTE   Gn4
 BYTE   W08
 BYTE   En4
 BYTE   W08
 BYTE   As4
 BYTE   W08
 BYTE   Gn4
 BYTE   W08
 BYTE   En4
 BYTE   W08
 BYTE   As4
 BYTE   W08
 BYTE   Gn4
 BYTE   W08
 BYTE   En4
 BYTE   W08
// 004   ----------------------------------------
 BYTE   As4
 BYTE   W08
 BYTE   Gn4
 BYTE   W08
 BYTE   En4
 BYTE   W08
 BYTE   PEND 
Label_3_01721387:
 BYTE   PAN   c_v+0
 BYTE   N08  Bn4  v127
 BYTE   W08
 BYTE   Gn4
 BYTE   W08
 BYTE   En4
 BYTE   W08
 BYTE   Bn4
 BYTE   W08
 BYTE   Gn4
 BYTE   W08
 BYTE   En4
 BYTE   W08
 BYTE   Bn4
 BYTE   W08
 BYTE   Gn4
 BYTE   W08
 BYTE   En4
 BYTE   W08
// 005   ----------------------------------------
 BYTE   Bn4
 BYTE   W08
 BYTE   Gn4
 BYTE   W08
 BYTE   En4
 BYTE   W08
 BYTE   PEND 
// 006   ----------------------------------------
 BYTE   PATT
  POIN2 Label_3_01721339
// 007   ----------------------------------------
 BYTE   N08  Cn5  v127
 BYTE   W08
 BYTE   Bn4
 BYTE   W08
 BYTE   As4
 BYTE   W08
 BYTE   Cn5
 BYTE   W08
 BYTE   Bn4
 BYTE   W08
 BYTE   As4
 BYTE   W08
 BYTE   Cn5
 BYTE   W08
 BYTE   Bn4
 BYTE   W08
 BYTE   As4
 BYTE   W08
 BYTE   Cn5
 BYTE   W08
 BYTE   Bn4
 BYTE   W08
 BYTE   As4
 BYTE   W08
// 008   ----------------------------------------
 BYTE   Bn4
 BYTE   W08
 BYTE   As4
 BYTE   W08
 BYTE   Bn4
 BYTE   W08
 BYTE   As4
 BYTE   W08
 BYTE   An4
 BYTE   W08
 BYTE   Gs4
 BYTE   W08
 BYTE   Gn4
 BYTE   W08
 BYTE   Fs4
 BYTE   W08
 BYTE   Fn4
 BYTE   W08
 BYTE   N08
 BYTE   W08
 BYTE   En4
 BYTE   W08
 BYTE   Ds4
 BYTE   W08
// 009   ----------------------------------------
 BYTE   PATT
  POIN2 Label_3_01721387
// 010   ----------------------------------------
 BYTE   PATT
  POIN2 Label_3_01721339
// 011   ----------------------------------------
 BYTE   N08  An4  v127
 BYTE   W08
 BYTE   Fs4
 BYTE   W08
 BYTE   Dn4
 BYTE   W08
 BYTE   An4
 BYTE   W08
 BYTE   Fs4
 BYTE   W08
 BYTE   Dn4
 BYTE   W08
 BYTE   An4
 BYTE   W08
 BYTE   Fs4
 BYTE   W08
 BYTE   Dn4
 BYTE   W08
 BYTE   An4
 BYTE   W08
 BYTE   Fs4
 BYTE   W08
 BYTE   Dn4
 BYTE   W08
// 012   ----------------------------------------
 BYTE   Cn5
 BYTE   W08
 BYTE   An4
 BYTE   W08
 BYTE   En4
 BYTE   W08
 BYTE   Cn5
 BYTE   W08
 BYTE   An4
 BYTE   W08
 BYTE   En4
 BYTE   W08
 BYTE   Cn5
 BYTE   W08
 BYTE   An4
 BYTE   W08
 BYTE   En4
 BYTE   W08
 BYTE   Cn5
 BYTE   W08
 BYTE   An4
 BYTE   W08
 BYTE   En4
 BYTE   W08
// 013   ----------------------------------------
 BYTE   PATT
  POIN2 Label_3_0172136C
// 014   ----------------------------------------
 BYTE   N08  Bn4  v127
 BYTE   W08
 BYTE   Fs4
 BYTE   W08
 BYTE   Ds4
 BYTE   W08
 BYTE   Bn4
 BYTE   W08
 BYTE   Fs4
 BYTE   W08
 BYTE   Ds4
 BYTE   W08
 BYTE   Bn4
 BYTE   W08
 BYTE   Fs4
 BYTE   W08
 BYTE   Ds4
 BYTE   W08
 BYTE   Bn4
 BYTE   W08
 BYTE   Fs4
 BYTE   W08
 BYTE   Ds4
 BYTE   W08
// 015   ----------------------------------------
 BYTE   PATT
  POIN2 Label_3_01721339
// 016   ----------------------------------------
 BYTE   N08  Bn4  v127
 BYTE   W08
 BYTE   Gn4
 BYTE   W08
 BYTE   En4
 BYTE   W08
 BYTE   Gn4
 BYTE   W08
 BYTE   En4
 BYTE   W08
 BYTE   Bn3
 BYTE   W08
 BYTE   En4
 BYTE   W08
 BYTE   Bn3
 BYTE   W08
 BYTE   Gn3
 BYTE   W08
 BYTE   Bn3
 BYTE   W08
 BYTE   Gn3
 BYTE   W08
 BYTE   En3
 BYTE   W08
// 017   ----------------------------------------
Label_3_01721455:
 BYTE   N08  Bn5  v127
 BYTE   W08
 BYTE   Gn5
 BYTE   W08
 BYTE   En5
 BYTE   W08
 BYTE   Bn5
 BYTE   W08
 BYTE   Gn5
 BYTE   W08
 BYTE   En5
 BYTE   W08
 BYTE   Bn5
 BYTE   W08
 BYTE   Gn5
 BYTE   W08
 BYTE   En5
 BYTE   W08
 BYTE   Bn5
 BYTE   W08
 BYTE   Gn5
 BYTE   W08
 BYTE   En5
 BYTE   W08
 BYTE   PEND 
// 018   ----------------------------------------
 BYTE   PATT
  POIN2 Label_3_01721455
// 019   ----------------------------------------
 BYTE   N08  Cn6  v127
 BYTE   W08
 BYTE   Gn5
 BYTE   W08
 BYTE   En5
 BYTE   W08
 BYTE   Cn6
 BYTE   W08
 BYTE   Gn5
 BYTE   W08
 BYTE   En5
 BYTE   W08
 BYTE   Cn6
 BYTE   W08
 BYTE   Gn5
 BYTE   W08
 BYTE   En5
 BYTE   W08
 BYTE   Cn6
 BYTE   W08
 BYTE   Gn5
 BYTE   W08
 BYTE   En5
 BYTE   W08
// 020   ----------------------------------------
Label_3_0172148F:
 BYTE   N08  As5  v127
 BYTE   W08
 BYTE   Gn5
 BYTE   W08
 BYTE   En5
 BYTE   W08
 BYTE   As5
 BYTE   W08
 BYTE   Gn5
 BYTE   W08
 BYTE   En5
 BYTE   W08
 BYTE   As5
 BYTE   W08
 BYTE   Gn5
 BYTE   W08
 BYTE   En5
 BYTE   W08
 BYTE   As5
 BYTE   W08
 BYTE   Gn5
 BYTE   W08
 BYTE   En5
 BYTE   W08
 BYTE   PEND 
// 021   ----------------------------------------
 BYTE   PATT
  POIN2 Label_3_01721455
// 022   ----------------------------------------
 BYTE   PATT
  POIN2 Label_3_01721455
// 023   ----------------------------------------
 BYTE   N08  Cn6  v127
 BYTE   W08
 BYTE   Bn5
 BYTE   W08
 BYTE   As5
 BYTE   W08
 BYTE   Cn6
 BYTE   W08
 BYTE   Bn5
 BYTE   W08
 BYTE   As5
 BYTE   W08
 BYTE   Cn6
 BYTE   W08
 BYTE   Bn5
 BYTE   W08
 BYTE   As5
 BYTE   W08
 BYTE   Cn6
 BYTE   W08
 BYTE   Bn5
 BYTE   W08
 BYTE   As5
 BYTE   W08
// 024   ----------------------------------------
 BYTE   Bn5
 BYTE   W08
 BYTE   As5
 BYTE   W08
 BYTE   Bn5
 BYTE   W08
 BYTE   As5
 BYTE   W08
 BYTE   An5
 BYTE   W08
 BYTE   Gs5
 BYTE   W08
 BYTE   Gn5
 BYTE   W08
 BYTE   Fs5
 BYTE   W08
 BYTE   Fn5
 BYTE   W08
 BYTE   N08
 BYTE   W08
 BYTE   En5
 BYTE   W08
 BYTE   Ds5
 BYTE   W08
// 025   ----------------------------------------
 BYTE   PATT
  POIN2 Label_3_01721455
// 026   ----------------------------------------
 BYTE   PATT
  POIN2 Label_3_01721455
// 027   ----------------------------------------
 BYTE   N08  An5  v127
 BYTE   W08
 BYTE   Fs5
 BYTE   W08
 BYTE   Dn5
 BYTE   W08
 BYTE   An5
 BYTE   W08
 BYTE   Fs5
 BYTE   W08
 BYTE   Dn5
 BYTE   W08
 BYTE   An5
 BYTE   W08
 BYTE   Fs5
 BYTE   W08
 BYTE   Dn5
 BYTE   W08
 BYTE   An5
 BYTE   W08
 BYTE   Fs5
 BYTE   W08
 BYTE   Dn5
 BYTE   W08
// 028   ----------------------------------------
 BYTE   Cn6
 BYTE   W08
 BYTE   An5
 BYTE   W08
 BYTE   En5
 BYTE   W08
 BYTE   Cn6
 BYTE   W08
 BYTE   An5
 BYTE   W08
 BYTE   En5
 BYTE   W08
 BYTE   Cn6
 BYTE   W08
 BYTE   An5
 BYTE   W08
 BYTE   En5
 BYTE   W08
 BYTE   Cn6
 BYTE   W08
 BYTE   An5
 BYTE   W08
 BYTE   En5
 BYTE   W08
// 029   ----------------------------------------
 BYTE   PATT
  POIN2 Label_3_0172148F
// 030   ----------------------------------------
 BYTE   N08  Bn5  v127
 BYTE   W08
 BYTE   Fs5
 BYTE   W08
 BYTE   Ds5
 BYTE   W08
 BYTE   Bn5
 BYTE   W08
 BYTE   Fs5
 BYTE   W08
 BYTE   Ds5
 BYTE   W08
 BYTE   Bn5
 BYTE   W08
 BYTE   Fs5
 BYTE   W08
 BYTE   Ds5
 BYTE   W08
 BYTE   Bn5
 BYTE   W08
 BYTE   Fs5
 BYTE   W08
 BYTE   Ds5
 BYTE   W08
// 031   ----------------------------------------
 BYTE   PATT
  POIN2 Label_3_01721455
// 032   ----------------------------------------
 BYTE   N08  Bn5  v127
 BYTE   W08
 BYTE   Gn5
 BYTE   W08
 BYTE   En5
 BYTE   W08
 BYTE   Gn5
 BYTE   W08
 BYTE   En5
 BYTE   W08
 BYTE   Bn4
 BYTE   W08
 BYTE   En5
 BYTE   W08
 BYTE   Bn4
 BYTE   W08
 BYTE   Gn4
 BYTE   W08
 BYTE   Bn4
 BYTE   W08
 BYTE   Gn4
 BYTE   W08
 BYTE   En4
 BYTE   W08
// 033   ----------------------------------------
 BYTE   Bn3
 BYTE   W08
 BYTE   Gn3
 BYTE   W08
 BYTE   En3
 BYTE   W08
 BYTE   Bn3
 BYTE   W08
 BYTE   Gn3
 BYTE   W08
 BYTE   En3
 BYTE   W08
 BYTE   Bn3
 BYTE   W08
 BYTE   Gn3
 BYTE   W08
 BYTE   En3
 BYTE   W08
 BYTE   Bn3
 BYTE   W08
 BYTE   Gn3
 BYTE   W08
 BYTE   En3
 BYTE   W08
// 034   ----------------------------------------
 BYTE   Cn4
 BYTE   W08
 BYTE   An3
 BYTE   W08
 BYTE   En3
 BYTE   W08
 BYTE   Cn4
 BYTE   W08
 BYTE   An3
 BYTE   W08
 BYTE   En3
 BYTE   W08
 BYTE   Cn4
 BYTE   W08
 BYTE   An3
 BYTE   W08
 BYTE   En3
 BYTE   W08
 BYTE   Cn4
 BYTE   W08
 BYTE   An3
 BYTE   W08
 BYTE   En3
 BYTE   W08
// 035   ----------------------------------------
 BYTE   Dn4
 BYTE   W08
 BYTE   Bn3
 BYTE   W08
 BYTE   En3
 BYTE   W08
 BYTE   Dn4
 BYTE   W08
 BYTE   Bn3
 BYTE   W08
 BYTE   En3
 BYTE   W08
 BYTE   Dn4
 BYTE   W08
 BYTE   Bn3
 BYTE   W08
 BYTE   En3
 BYTE   W08
 BYTE   Dn4
 BYTE   W08
 BYTE   Bn3
 BYTE   W08
 BYTE   En3
 BYTE   W08
// 036   ----------------------------------------
 BYTE   Ds4
 BYTE   W08
 BYTE   Cn4
 BYTE   W08
 BYTE   En3
 BYTE   W08
 BYTE   Ds4
 BYTE   W08
 BYTE   Cn4
 BYTE   W08
 BYTE   En3
 BYTE   W08
 BYTE   Ds4
 BYTE   W08
 BYTE   Cn4
 BYTE   W08
 BYTE   En3
 BYTE   W08
 BYTE   Ds4
 BYTE   W08
 BYTE   Cn4
 BYTE   W08
 BYTE   En3
 BYTE   W08
// 037   ----------------------------------------
Label_3_017215C0:
 BYTE   N08  En4  v127
 BYTE   W08
 BYTE   Bn3
 BYTE   W08
 BYTE   Gn3
 BYTE   W08
 BYTE   En4
 BYTE   W08
 BYTE   Bn3
 BYTE   W08
 BYTE   Gn3
 BYTE   W08
 BYTE   En4
 BYTE   W08
 BYTE   Bn3
 BYTE   W08
 BYTE   Gn3
 BYTE   W08
 BYTE   En4
 BYTE   W08
 BYTE   Bn3
 BYTE   W08
 BYTE   Gn3
 BYTE   W08
 BYTE   PEND 
// 038   ----------------------------------------
 BYTE   En4
 BYTE   W08
 BYTE   As3
 BYTE   W08
 BYTE   Gn3
 BYTE   W08
 BYTE   En4
 BYTE   W08
 BYTE   As3
 BYTE   W08
 BYTE   Gn3
 BYTE   W08
 BYTE   En4
 BYTE   W08
 BYTE   As3
 BYTE   W08
 BYTE   Gn3
 BYTE   W08
 BYTE   En4
 BYTE   W08
 BYTE   As3
 BYTE   W08
 BYTE   Gn3
 BYTE   W08
// 039   ----------------------------------------
 BYTE   PATT
  POIN2 Label_3_017215C0
// 040   ----------------------------------------
 BYTE   N08  Ds4  v127
 BYTE   W08
 BYTE   Bn3
 BYTE   W08
 BYTE   Gn3
 BYTE   W08
 BYTE   Gs3
 BYTE   W08
 BYTE   Dn4
 BYTE   W08
 BYTE   Fn3
 BYTE   W08
 BYTE   Cs4
 BYTE   W08
 BYTE   Fs3
 BYTE   W08
 BYTE   En3
 BYTE   W08
 BYTE   Ds3
 BYTE   W08
 BYTE   Dn3
 BYTE   W08
 BYTE   Cs3
 BYTE   W08
// 041   ----------------------------------------
 BYTE   W96
// 042   ----------------------------------------
 BYTE   W96
// 043   ----------------------------------------
 BYTE   W96
// 044   ----------------------------------------
 BYTE   W96
// 045   ----------------------------------------
 BYTE   W96
// 046   ----------------------------------------
 BYTE   W96
// 047   ----------------------------------------
 BYTE   W96
// 048   ----------------------------------------
 BYTE   W96
// 049   ----------------------------------------
 BYTE   W96
// 050   ----------------------------------------
 BYTE   W96
// 051   ----------------------------------------
 BYTE   W96
// 052   ----------------------------------------
 BYTE   W96
// 053   ----------------------------------------
 BYTE   W96
// 054   ----------------------------------------
 BYTE   W96
// 055   ----------------------------------------
 BYTE   W96
// 056   ----------------------------------------
 BYTE   W96
// 057   ----------------------------------------
 BYTE   GoTo
  POIN2 Label_3_0172131D
 BYTE   FINE

//**************** Track 5 (Midi-Chn.4) ****************//

song03CC_005:
// 000   ----------------------------------------
 BYTE   KEYSH   song03CC_key+0
 BYTE   PAN   c_v-22
 BYTE   W12
 BYTE   VOL   31*song03CC_mvl/mxv
 BYTE   W06
 BYTE   W03
 BYTE   VOICE   19
 BYTE   W03
Label_4_01721634:
 BYTE   W96
// 001   ----------------------------------------
 BYTE   W96
// 002   ----------------------------------------
 BYTE   W96
// 003   ----------------------------------------
 BYTE   W96
// 004   ----------------------------------------
 BYTE   W96
// 005   ----------------------------------------
 BYTE   W96
// 006   ----------------------------------------
 BYTE   W96
// 007   ----------------------------------------
 BYTE   W96
// 008   ----------------------------------------
 BYTE   N96  Bn2  v127
 BYTE   W96
// 009   ----------------------------------------
 BYTE   En3
 BYTE   W96
// 010   ----------------------------------------
 BYTE   Dn3
 BYTE   W96
// 011   ----------------------------------------
 BYTE   En3
 BYTE   W96
// 012   ----------------------------------------
 BYTE   W96
// 013   ----------------------------------------
 BYTE   W96
// 014   ----------------------------------------
 BYTE   W96
// 015   ----------------------------------------
 BYTE   W96
// 016   ----------------------------------------
 BYTE   W24
 BYTE   N96
 BYTE   W72
// 017   ----------------------------------------
 BYTE   W24
 BYTE   Bn3
 BYTE   W72
// 018   ----------------------------------------
 BYTE   W24
 BYTE   Cn4
 BYTE   W72
// 019   ----------------------------------------
 BYTE   W24
 BYTE   As3
 BYTE   W72
// 020   ----------------------------------------
 BYTE   W24
 BYTE   En3
 BYTE   W72
// 021   ----------------------------------------
Label_4_01721659:
 BYTE   W24
 BYTE   N36  Bn3  v127
 BYTE   W36
 BYTE   En3
 BYTE   W36
 BYTE   PEND 
// 022   ----------------------------------------
 BYTE   N24  En4
 BYTE   W24
 BYTE   N12  Ds4
 BYTE   W12
 BYTE   Dn4
 BYTE   W12
 BYTE   N48  Ds4
 BYTE   W48
// 023   ----------------------------------------
 BYTE   N24  Dn4
 BYTE   W24
 BYTE   N12  Cs4
 BYTE   W12
 BYTE   Cn4
 BYTE   W12
 BYTE   N72  Cs4
 BYTE   W48
// 024   ----------------------------------------
 BYTE   W24
 BYTE   N96  En3
 BYTE   W72
// 025   ----------------------------------------
 BYTE   PATT
  POIN2 Label_4_01721659
// 026   ----------------------------------------
 BYTE   N24  En4  v127
 BYTE   W24
 BYTE   N72  Dn4
 BYTE   W72
// 027   ----------------------------------------
 BYTE   N12  Cn4
 BYTE   W12
 BYTE   Bn3
 BYTE   W12
 BYTE   N48  Cn4
 BYTE   W48
 BYTE   Gn3
 BYTE   W24
// 028   ----------------------------------------
 BYTE   W24
 BYTE   As3
 BYTE   W48
 BYTE   N36  An3
 BYTE   W24
// 029   ----------------------------------------
 BYTE   W12
 BYTE   N12  As3
 BYTE   W12
 BYTE   N48  Bn3
 BYTE   W48
 BYTE   Fs3
 BYTE   W24
// 030   ----------------------------------------
 BYTE   W24
 BYTE   TIE  En3
 BYTE   W72
// 031   ----------------------------------------
 BYTE   W96
// 032   ----------------------------------------
 BYTE   EOT
 BYTE   W96
// 033   ----------------------------------------
 BYTE   W96
// 034   ----------------------------------------
 BYTE   W96
// 035   ----------------------------------------
 BYTE   W96
// 036   ----------------------------------------
 BYTE   W96
// 037   ----------------------------------------
 BYTE   W96
// 038   ----------------------------------------
 BYTE   W96
// 039   ----------------------------------------
 BYTE   W96
// 040   ----------------------------------------
 BYTE   W96
// 041   ----------------------------------------
 BYTE   W96
// 042   ----------------------------------------
 BYTE   W84
 BYTE   N72  An4
 BYTE   W12
// 043   ----------------------------------------
 BYTE   W60
 BYTE   N12  Gs4
 BYTE   W12
 BYTE   An4
 BYTE   W12
 BYTE   As4
 BYTE   W12
// 044   ----------------------------------------
 BYTE   En4
 BYTE   W12
 BYTE   N48  An4
 BYTE   W48
 BYTE   N60  Gs4
 BYTE   W36
// 045   ----------------------------------------
 BYTE   W24
 BYTE   N06  Gn4
 BYTE   W06
 BYTE   Fn4
 BYTE   W06
 BYTE   En4
 BYTE   W06
 BYTE   Fn4
 BYTE   W06
 BYTE   En4
 BYTE   W06
 BYTE   Dn4
 BYTE   W06
 BYTE   N48  Cs4
 BYTE   W36
// 046   ----------------------------------------
 BYTE   W12
 BYTE   N16  An3
 BYTE   W16
 BYTE   Cn4
 BYTE   W16
 BYTE   En4
 BYTE   W16
 BYTE   Ds4
 BYTE   W16
 BYTE   Gn3
 BYTE   W16
 BYTE   Gs3
 BYTE   W04
// 047   ----------------------------------------
 BYTE   W12
 BYTE   Gn4
 BYTE   W16
 BYTE   Fn4
 BYTE   W16
 BYTE   An3
 BYTE   W16
 BYTE   Bn3
 BYTE   W16
 BYTE   En4
 BYTE   W20
// 048   ----------------------------------------
 BYTE   W12
 BYTE   N96
 BYTE   W84
// 049   ----------------------------------------
 BYTE   W12
 BYTE   Ds4
 BYTE   W84
// 050   ----------------------------------------
 BYTE   W12
 BYTE   N16  Dn4
 BYTE   W16
 BYTE   Cs4
 BYTE   W16
 BYTE   Dn4
 BYTE   W16
 BYTE   Ds4
 BYTE   W16
 BYTE   Dn4
 BYTE   W16
 BYTE   Cs4
 BYTE   W04
// 051   ----------------------------------------
 BYTE   W12
 BYTE   N48  Cn4
 BYTE   W48
 BYTE   Dn4
 BYTE   W36
// 052   ----------------------------------------
 BYTE   W12
 BYTE   N60  En4
 BYTE   W60
 BYTE   N18  Bn3
 BYTE   W18
 BYTE   En4
 BYTE   W06
// 053   ----------------------------------------
 BYTE   W12
 BYTE   N48  Ds4
 BYTE   W48
 BYTE   Bn3
 BYTE   W36
// 054   ----------------------------------------
 BYTE   W12
 BYTE   N60  Dn4
 BYTE   W60
 BYTE   N18  Bn3
 BYTE   W18
 BYTE   Dn4
 BYTE   W06
// 055   ----------------------------------------
 BYTE   W12
 BYTE   N48  Cs4
 BYTE   W48
 BYTE   N36  An3
 BYTE   W36
// 056   ----------------------------------------
 BYTE   GoTo
  POIN2 Label_4_01721634
 BYTE   FINE

//**************** Track 6 (Midi-Chn.5) ****************//

song03CC_006:
// 000   ----------------------------------------
 BYTE   KEYSH   song03CC_key+0
 BYTE   PAN   c_v-36
 BYTE   W12
 BYTE   VOL   31*song03CC_mvl/mxv
 BYTE   W06
 BYTE   W03
 BYTE   VOICE   14
 BYTE   W03
Label_5_0172173C:
 BYTE   W96
// 001   ----------------------------------------
 BYTE   W96
// 002   ----------------------------------------
 BYTE   W96
// 003   ----------------------------------------
 BYTE   W96
// 004   ----------------------------------------
 BYTE   W96
// 005   ----------------------------------------
 BYTE   W96
// 006   ----------------------------------------
 BYTE   W96
// 007   ----------------------------------------
 BYTE   W96
// 008   ----------------------------------------
 BYTE   W96
// 009   ----------------------------------------
 BYTE   W96
// 010   ----------------------------------------
 BYTE   W96
// 011   ----------------------------------------
 BYTE   W96
// 012   ----------------------------------------
 BYTE   W96
// 013   ----------------------------------------
 BYTE   W96
// 014   ----------------------------------------
 BYTE   W96
// 015   ----------------------------------------
 BYTE   W96
// 016   ----------------------------------------
 BYTE   W96
// 017   ----------------------------------------
 BYTE   W96
// 018   ----------------------------------------
 BYTE   W96
// 019   ----------------------------------------
 BYTE   W96
// 020   ----------------------------------------
 BYTE   W96
// 021   ----------------------------------------
 BYTE   W96
// 022   ----------------------------------------
 BYTE   W96
// 023   ----------------------------------------
 BYTE   W96
// 024   ----------------------------------------
 BYTE   W96
// 025   ----------------------------------------
 BYTE   W96
// 026   ----------------------------------------
 BYTE   W96
// 027   ----------------------------------------
 BYTE   W96
// 028   ----------------------------------------
 BYTE   W96
// 029   ----------------------------------------
 BYTE   W96
// 030   ----------------------------------------
 BYTE   W96
// 031   ----------------------------------------
 BYTE   W96
// 032   ----------------------------------------
 BYTE   N24  Bn3  v127
 BYTE   W24
 BYTE   N72
 BYTE   W72
// 033   ----------------------------------------
 BYTE   N24  Cn4
 BYTE   W24
 BYTE   N72
 BYTE   W72
// 034   ----------------------------------------
 BYTE   N24  Dn4
 BYTE   W24
 BYTE   N72
 BYTE   W72
// 035   ----------------------------------------
 BYTE   N24  Ds4
 BYTE   W24
 BYTE   N72
 BYTE   W72
// 036   ----------------------------------------
Label_5_01721771:
 BYTE   N24  En4  v127
 BYTE   W24
 BYTE   N72
 BYTE   W72
 BYTE   PEND 
// 037   ----------------------------------------
 BYTE   PATT
  POIN2 Label_5_01721771
// 038   ----------------------------------------
 BYTE   PATT
  POIN2 Label_5_01721771
// 039   ----------------------------------------
 BYTE   N48  Ds4  v127
 BYTE   W48
 BYTE   Cs4
 BYTE   W48
// 040   ----------------------------------------
 BYTE   W96
// 041   ----------------------------------------
 BYTE   W96
// 042   ----------------------------------------
 BYTE   W96
// 043   ----------------------------------------
 BYTE   W96
// 044   ----------------------------------------
 BYTE   W96
// 045   ----------------------------------------
 BYTE   W96
// 046   ----------------------------------------
 BYTE   W96
// 047   ----------------------------------------
 BYTE   W96
// 048   ----------------------------------------
 BYTE   W96
// 049   ----------------------------------------
 BYTE   W96
// 050   ----------------------------------------
 BYTE   W96
// 051   ----------------------------------------
 BYTE   W96
// 052   ----------------------------------------
 BYTE   W96
// 053   ----------------------------------------
 BYTE   W96
// 054   ----------------------------------------
 BYTE   W96
// 055   ----------------------------------------
 BYTE   W96
// 056   ----------------------------------------
 BYTE   GoTo
  POIN2 Label_5_0172173C
 BYTE   FINE

//**************** Track 7 (Midi-Chn.6) ****************//

song03CC_007:
// 000   ----------------------------------------
 BYTE   KEYSH   song03CC_key+0
 BYTE   VOICE   124
 BYTE   W12
 BYTE   VOL   34*song03CC_mvl/mxv
 BYTE   W03
 BYTE   PAN   c_v+0
 BYTE   W03
 BYTE   W06
Label_6_017217AC:
 BYTE   PAN   c_v+0
 BYTE   N12  Cn1  v127
 BYTE   N12  Cs2
 BYTE   W96
 BYTE   PEND 
// 001   ----------------------------------------
 BYTE   W96
// 002   ----------------------------------------
 BYTE   W96
// 003   ----------------------------------------
 BYTE   W96
// 004   ----------------------------------------
 BYTE   PATT
  POIN2 Label_6_017217AC
// 005   ----------------------------------------
 BYTE   W96
// 006   ----------------------------------------
 BYTE   W96
// 007   ----------------------------------------
 BYTE   W48
 BYTE   N12  Gn2  v127
 BYTE   W48
// 008   ----------------------------------------
 BYTE   Cn1
 BYTE   N12  Cs2
 BYTE   W24
 BYTE   Cn1
 BYTE   W24
 BYTE   N12
 BYTE   W24
 BYTE   N12
 BYTE   W24
// 009   ----------------------------------------
 BYTE   N12
 BYTE   W24
 BYTE   N12
 BYTE   W24
 BYTE   N12
 BYTE   W24
 BYTE   N06
 BYTE   W06
 BYTE   N06
 BYTE   W06
 BYTE   N06
 BYTE   W06
 BYTE   N06
 BYTE   W06
// 010   ----------------------------------------
 BYTE   N12
 BYTE   W24
 BYTE   N12
 BYTE   W24
 BYTE   N12
 BYTE   W24
 BYTE   N12
 BYTE   W24
// 011   ----------------------------------------
 BYTE   N12
 BYTE   W24
 BYTE   N12
 BYTE   W24
 BYTE   N12
 BYTE   W24
 BYTE   Cn2
 BYTE   W24
// 012   ----------------------------------------
 BYTE   Cn1
 BYTE   W12
 BYTE   N12
 BYTE   W12
 BYTE   N12
 BYTE   W12
 BYTE   N12
 BYTE   W12
 BYTE   N12
 BYTE   W12
 BYTE   N12
 BYTE   W12
 BYTE   Dn1
 BYTE   N12  En1
 BYTE   N12  Cs2
 BYTE   W24
// 013   ----------------------------------------
 BYTE   N08  Cn2
 BYTE   W08
 BYTE   Bn1
 BYTE   W08
 BYTE   Cn2
 BYTE   W08
 BYTE   Gn1
 BYTE   W08
 BYTE   Cn2
 BYTE   W08
 BYTE   Bn1
 BYTE   W08
 BYTE   Cn2
 BYTE   W08
 BYTE   Gn1
 BYTE   W08
 BYTE   Cn2
 BYTE   W08
 BYTE   Bn1
 BYTE   W08
 BYTE   Cn2
 BYTE   W08
 BYTE   Gn1
 BYTE   W08
// 014   ----------------------------------------
 BYTE   N12  Cn1
 BYTE   N12  Cs2
 BYTE   W12
 BYTE   Cn1
 BYTE   W12
 BYTE   N12
 BYTE   W12
 BYTE   N12
 BYTE   W12
 BYTE   Cs2
 BYTE   W36
 BYTE   Cn1
 BYTE   W12
// 015   ----------------------------------------
 BYTE   N06  Dn1
 BYTE   N06  En1
 BYTE   W06
 BYTE   Dn1
 BYTE   N06  En1
 BYTE   W06
 BYTE   Dn1
 BYTE   N06  En1
 BYTE   W06
 BYTE   Dn1
 BYTE   N06  En1
 BYTE   W06
 BYTE   Cn2
 BYTE   W06
 BYTE   N06
 BYTE   W06
 BYTE   N06
 BYTE   W06
 BYTE   N06
 BYTE   W06
 BYTE   Bn1
 BYTE   W06
 BYTE   N06
 BYTE   W06
 BYTE   N06
 BYTE   W06
 BYTE   N06
 BYTE   W06
 BYTE   Gn1
 BYTE   W06
 BYTE   N06
 BYTE   W06
 BYTE   N06
 BYTE   W06
 BYTE   N06
 BYTE   W06
// 016   ----------------------------------------
Label_6_0172184F:
 BYTE   N12  Cn1  v127
 BYTE   N12  Cs2
 BYTE   W12
 BYTE   Cn1
 BYTE   W12
 BYTE   Dn1
 BYTE   N12  En1
 BYTE   W18
 BYTE   N06  Cn1
 BYTE   W12
 BYTE   N06
 BYTE   W06
 BYTE   N12
 BYTE   W12
 BYTE   Dn1
 BYTE   N12  En1
 BYTE   W12
 BYTE   Cn1
 BYTE   W12
 BYTE   PEND 
// 017   ----------------------------------------
Label_6_01721869:
 BYTE   N12  Cn1  v127
 BYTE   W12
 BYTE   N12
 BYTE   W12
 BYTE   Dn1
 BYTE   N12  En1
 BYTE   W18
 BYTE   N06  Cn1
 BYTE   W12
 BYTE   N06
 BYTE   W06
 BYTE   N12
 BYTE   W12
 BYTE   Dn1
 BYTE   N12  En1
 BYTE   W12
 BYTE   Cn1
 BYTE   W12
 BYTE   PEND 
// 018   ----------------------------------------
 BYTE   PATT
  POIN2 Label_6_01721869
// 019   ----------------------------------------
Label_6_01721886:
 BYTE   N12  Cn1  v127
 BYTE   W12
 BYTE   N12
 BYTE   W12
 BYTE   Dn1
 BYTE   N12  En1
 BYTE   W18
 BYTE   N06  Cn1
 BYTE   W12
 BYTE   N06
 BYTE   W06
 BYTE   N12
 BYTE   W12
 BYTE   Dn1
 BYTE   N12  En1
 BYTE   W12
 BYTE   Dn1
 BYTE   N12  En1
 BYTE   W12
 BYTE   PEND 
// 020   ----------------------------------------
 BYTE   PATT
  POIN2 Label_6_01721869
// 021   ----------------------------------------
 BYTE   PATT
  POIN2 Label_6_01721869
// 022   ----------------------------------------
 BYTE   PATT
  POIN2 Label_6_01721869
// 023   ----------------------------------------
 BYTE   N12  Cn1  v127
 BYTE   W12
 BYTE   N12
 BYTE   W12
 BYTE   Dn1
 BYTE   N12  En1
 BYTE   W18
 BYTE   N06  Cn1
 BYTE   W12
 BYTE   N06
 BYTE   W06
 BYTE   N12
 BYTE   W12
 BYTE   N06  Dn1
 BYTE   N06  En1
 BYTE   W06
 BYTE   Dn1
 BYTE   N06  En1
 BYTE   W06
 BYTE   Bn1
 BYTE   W06
 BYTE   Dn1
 BYTE   N06  En1
 BYTE   W06
// 024   ----------------------------------------
 BYTE   PATT
  POIN2 Label_6_01721869
// 025   ----------------------------------------
 BYTE   PATT
  POIN2 Label_6_01721869
// 026   ----------------------------------------
 BYTE   PATT
  POIN2 Label_6_01721869
// 027   ----------------------------------------
 BYTE   PATT
  POIN2 Label_6_01721886
// 028   ----------------------------------------
 BYTE   PATT
  POIN2 Label_6_01721869
// 029   ----------------------------------------
 BYTE   PATT
  POIN2 Label_6_01721869
// 030   ----------------------------------------
 BYTE   PATT
  POIN2 Label_6_01721869
// 031   ----------------------------------------
Label_6_017218F2:
 BYTE   N12  Cn1  v127
 BYTE   W12
 BYTE   N12
 BYTE   W12
 BYTE   Dn1
 BYTE   N12  En1
 BYTE   W18
 BYTE   N06  Cn1
 BYTE   W12
 BYTE   N06
 BYTE   W06
 BYTE   N12
 BYTE   W12
 BYTE   N06  Dn1
 BYTE   N06  En1
 BYTE   W06
 BYTE   Dn1
 BYTE   N06  En1
 BYTE   W06
 BYTE   Dn1
 BYTE   N06  En1
 BYTE   W06
 BYTE   Dn1
 BYTE   N06  En1
 BYTE   W06
 BYTE   PEND 
// 032   ----------------------------------------
 BYTE   N12  Dn1
 BYTE   N12  En1
 BYTE   N12  Cs2
 BYTE   N12  Gn2
 BYTE   W12
 BYTE   Cn1
 BYTE   W12
 BYTE   Dn1
 BYTE   N12  En1
 BYTE   N12  As1
 BYTE   W12
 BYTE   Cn1
 BYTE   W12
 BYTE   Dn1
 BYTE   N12  En1
 BYTE   N12  Gn2
 BYTE   W12
 BYTE   Cn1
 BYTE   W12
 BYTE   Dn1
 BYTE   N12  En1
 BYTE   N12  As1
 BYTE   W12
 BYTE   Cn1
 BYTE   W12
// 033   ----------------------------------------
Label_6_01721938:
 BYTE   N12  Dn1  v127
 BYTE   N12  En1
 BYTE   N12  Gn2
 BYTE   W12
 BYTE   Cn1
 BYTE   W12
 BYTE   Dn1
 BYTE   N12  En1
 BYTE   N12  As1
 BYTE   W12
 BYTE   Cn1
 BYTE   W12
 BYTE   Dn1
 BYTE   N12  En1
 BYTE   N12  Gn2
 BYTE   W12
 BYTE   Cn1
 BYTE   W12
 BYTE   Dn1
 BYTE   N12  En1
 BYTE   N12  As1
 BYTE   W12
 BYTE   Cn1
 BYTE   W12
 BYTE   PEND 
// 034   ----------------------------------------
 BYTE   PATT
  POIN2 Label_6_01721938
// 035   ----------------------------------------
 BYTE   PATT
  POIN2 Label_6_01721938
// 036   ----------------------------------------
 BYTE   PATT
  POIN2 Label_6_01721938
// 037   ----------------------------------------
 BYTE   PATT
  POIN2 Label_6_01721938
// 038   ----------------------------------------
 BYTE   PATT
  POIN2 Label_6_01721938
// 039   ----------------------------------------
 BYTE   N06  Cn2  v127
 BYTE   W06
 BYTE   N06
 BYTE   W06
 BYTE   N06
 BYTE   W06
 BYTE   N06
 BYTE   W06
 BYTE   Bn1
 BYTE   W06
 BYTE   N06
 BYTE   W06
 BYTE   N06
 BYTE   W06
 BYTE   N06
 BYTE   W06
 BYTE   Gn1
 BYTE   W06
 BYTE   N06
 BYTE   W06
 BYTE   N06
 BYTE   W06
 BYTE   N06
 BYTE   W06
 BYTE   Dn1
 BYTE   N06  En1
 BYTE   W06
 BYTE   Dn1
 BYTE   N06  En1
 BYTE   W06
 BYTE   Dn1
 BYTE   N06  En1
 BYTE   W06
 BYTE   Dn1
 BYTE   N06  En1
 BYTE   W06
// 040   ----------------------------------------
 BYTE   PATT
  POIN2 Label_6_0172184F
// 041   ----------------------------------------
 BYTE   PATT
  POIN2 Label_6_01721869
// 042   ----------------------------------------
 BYTE   PATT
  POIN2 Label_6_01721869
// 043   ----------------------------------------
 BYTE   PATT
  POIN2 Label_6_01721886
// 044   ----------------------------------------
 BYTE   PATT
  POIN2 Label_6_01721869
// 045   ----------------------------------------
 BYTE   PATT
  POIN2 Label_6_01721869
// 046   ----------------------------------------
 BYTE   PATT
  POIN2 Label_6_01721869
// 047   ----------------------------------------
 BYTE   PATT
  POIN2 Label_6_017218F2
// 048   ----------------------------------------
 BYTE   PATT
  POIN2 Label_6_01721869
// 049   ----------------------------------------
 BYTE   PATT
  POIN2 Label_6_01721869
// 050   ----------------------------------------
 BYTE   PATT
  POIN2 Label_6_01721869
// 051   ----------------------------------------
 BYTE   PATT
  POIN2 Label_6_01721886
// 052   ----------------------------------------
 BYTE   PATT
  POIN2 Label_6_01721869
// 053   ----------------------------------------
 BYTE   PATT
  POIN2 Label_6_01721869
// 054   ----------------------------------------
 BYTE   PATT
  POIN2 Label_6_01721869
// 055   ----------------------------------------
 BYTE   PATT
  POIN2 Label_6_017218F2
// 056   ----------------------------------------
 BYTE   GoTo
  POIN2 Label_6_017217AC
 BYTE   FINE

//******************************************************//
	ALIGN 4

song03CC:
	BYTE	7	// NumTrks
	BYTE	0	// NumBlks
	BYTE	song03CC_pri	// Priority
	BYTE	song03CC_rev	// Reverb.
    
	POIN2	song03CC_grp
    
	POIN2	song03CC_001
	POIN2	song03CC_002
	POIN2	song03CC_003
	POIN2	song03CC_004
	POIN2	song03CC_005
	POIN2	song03CC_006
	POIN2	song03CC_007

	
