//Event file generated from Sappy .s format.
	#include "MPlayDef.event"

	#define	song012D_grp  voicegroup000
	#define	song012D_pri  0
	#define	song012D_rev  0xA0
	#define	song012D_mvl  59
	#define	song012D_key  0
	#define	song012D_tbs  1
	#define	song012D_exg  0
	#define	song012D_cmp  1

	// .rodata
	//	song012D
	ALIGN 4

//**************** Track 1 (Midi-Chn.1) ****************//

song012D_1:
	BYTE	KEYSH   song012D_key+0
// 000   ----------------------------------------
	BYTE	TEMPO   83*song012D_tbs/2
	BYTE		VOICE   60
	BYTE		MODT    0
	BYTE		LFOS    44
	BYTE		VOL     116*song012D_mvl/mxv
	BYTE		PAN     c_v+6
	BYTE	W96
// 001   ----------------------------------------
	BYTE	W72
	BYTE		N24     Bn2   v100
	BYTE	W24
song012D_1_B1:
// 002   ----------------------------------------
song012D_1_002:
	BYTE		N72     En2   v100
	BYTE	W72
	BYTE		N24     Dn2 
	BYTE	W24
	BYTE	PEND
// 003   ----------------------------------------
song012D_1_003:
	BYTE		N48     En2   v100
	BYTE	W48
	BYTE		N24     Gn2 
	BYTE	W24
	BYTE		        An2 
	BYTE	W24
	BYTE	PEND
// 004   ----------------------------------------
	BYTE		N90     Dn3 
	BYTE	W96
// 005   ----------------------------------------
song012D_1_005:
	BYTE		N48     Cn3   v100
	BYTE	W48
	BYTE		        An2 
	BYTE	W48
	BYTE	PEND
// 006   ----------------------------------------
	BYTE		N90     Bn2 
	BYTE	W96
// 007   ----------------------------------------
	BYTE		N48     An2 
	BYTE	W48
	BYTE		        Fs2 
	BYTE	W48
// 008   ----------------------------------------
	BYTE		TIE     Gn2 
	BYTE	W96
// 009   ----------------------------------------
	BYTE	W72
	BYTE		EOT   
	BYTE	W24
// 010   ----------------------------------------
	BYTE	W96
// 011   ----------------------------------------
	BYTE	W96
// 012   ----------------------------------------
	BYTE	W96
// 013   ----------------------------------------
	BYTE	W96
// 014   ----------------------------------------
	BYTE	W96
// 015   ----------------------------------------
	BYTE	W96
// 016   ----------------------------------------
	BYTE	W96
// 017   ----------------------------------------
	BYTE	W72
	BYTE		N24     Bn2 
	BYTE	W24
// 018   ----------------------------------------
	BYTE	PATT
	 POIN2	song012D_1_002
// 019   ----------------------------------------
	BYTE	PATT
	 POIN2	song012D_1_003
// 020   ----------------------------------------
	BYTE		N90     Dn3   v100
	BYTE	W96
// 021   ----------------------------------------
	BYTE	PATT
	 POIN2	song012D_1_005
// 022   ----------------------------------------
	BYTE		N90     Bn2   v100
	BYTE	W96
// 023   ----------------------------------------
	BYTE		N48     An2 
	BYTE	W48
	BYTE		        Dn3 
	BYTE	W48
// 024   ----------------------------------------
	BYTE		TIE     En3 
	BYTE	W96
// 025   ----------------------------------------
	BYTE	W72
	BYTE		EOT   
	BYTE	W24
// 026   ----------------------------------------
	BYTE	W96
// 027   ----------------------------------------
	BYTE	W96
// 028   ----------------------------------------
	BYTE	W96
// 029   ----------------------------------------
	BYTE	W96
// 030   ----------------------------------------
	BYTE	W96
// 031   ----------------------------------------
	BYTE	W96
// 032   ----------------------------------------
	BYTE	W96
// 033   ----------------------------------------
	BYTE	W96
// 034   ----------------------------------------
	BYTE	W96
// 035   ----------------------------------------
	BYTE	W96
// 036   ----------------------------------------
	BYTE	W96
// 037   ----------------------------------------
	BYTE	W72
	BYTE		N24     Bn2 
	BYTE	W24
	BYTE	GoTo
	 POIN2	song012D_1_B1
song012D_1_B2:
// 038   ----------------------------------------
	BYTE	FINE

//**************** Track 2 (Midi-Chn.2) ****************//

song012D_2:
	BYTE	KEYSH   song012D_key+0
// 000   ----------------------------------------
	BYTE		VOICE   48
	BYTE		MODT    0
	BYTE		LFOS    44
	BYTE		VOL     100*song012D_mvl/mxv
	BYTE		PAN     c_v-14
	BYTE	W96
// 001   ----------------------------------------
	BYTE	W96
song012D_2_B1:
// 002   ----------------------------------------
	BYTE	W96
// 003   ----------------------------------------
	BYTE	W96
// 004   ----------------------------------------
	BYTE	W96
// 005   ----------------------------------------
	BYTE	W96
// 006   ----------------------------------------
	BYTE	W96
// 007   ----------------------------------------
	BYTE	W96
// 008   ----------------------------------------
	BYTE	W96
// 009   ----------------------------------------
	BYTE	W96
// 010   ----------------------------------------
	BYTE	W96
// 011   ----------------------------------------
	BYTE	W96
// 012   ----------------------------------------
	BYTE	W96
// 013   ----------------------------------------
	BYTE	W96
// 014   ----------------------------------------
	BYTE	W96
// 015   ----------------------------------------
	BYTE	W96
// 016   ----------------------------------------
	BYTE	W96
// 017   ----------------------------------------
	BYTE	W96
// 018   ----------------------------------------
song012D_2_018:
	BYTE		N96     Gn4   v020
	BYTE		N96     Bn4   v036
	BYTE	W96
	BYTE	PEND
// 019   ----------------------------------------
	BYTE	PATT
	 POIN2	song012D_2_018
// 020   ----------------------------------------
	BYTE	PATT
	 POIN2	song012D_2_018
// 021   ----------------------------------------
	BYTE	PATT
	 POIN2	song012D_2_018
// 022   ----------------------------------------
	BYTE	PATT
	 POIN2	song012D_2_018
// 023   ----------------------------------------
	BYTE	PATT
	 POIN2	song012D_2_018
// 024   ----------------------------------------
	BYTE	PATT
	 POIN2	song012D_2_018
// 025   ----------------------------------------
	BYTE	PATT
	 POIN2	song012D_2_018
// 026   ----------------------------------------
song012D_2_026:
	BYTE		N44     En3   v068
	BYTE		N44     En4 
	BYTE	W48
	BYTE		        Bn3 
	BYTE		N44     Bn4 
	BYTE	W48
	BYTE	PEND
// 027   ----------------------------------------
	BYTE		        An3 
	BYTE		N44     An4 
	BYTE	W48
	BYTE		N23     Gn3 
	BYTE		N23     Gn4 
	BYTE	W24
	BYTE		        Fs3 
	BYTE		N23     Fs4 
	BYTE	W24
// 028   ----------------------------------------
song012D_2_028:
	BYTE		N68     En3   v068
	BYTE		N68     En4 
	BYTE	W72
	BYTE		N23     Fs3 
	BYTE		N23     Fs4 
	BYTE	W24
	BYTE	PEND
// 029   ----------------------------------------
	BYTE		N44     Gn3 
	BYTE		N44     Gn4 
	BYTE	W48
	BYTE		        Fs3 
	BYTE		N44     Fs4 
	BYTE	W48
// 030   ----------------------------------------
	BYTE	PATT
	 POIN2	song012D_2_026
// 031   ----------------------------------------
	BYTE		N44     Cn4   v068
	BYTE		N44     Cn5 
	BYTE	W48
	BYTE		N23     Bn3 
	BYTE		N23     Bn4 
	BYTE	W24
	BYTE		        An3 
	BYTE		N23     An4 
	BYTE	W24
// 032   ----------------------------------------
	BYTE	PATT
	 POIN2	song012D_2_028
// 033   ----------------------------------------
	BYTE		N44     Fs3   v068
	BYTE		N44     Fs4 
	BYTE	W48
	BYTE		N17     Fs3 
	BYTE		N17     Fs4 
	BYTE	W18
	BYTE		        Gn3 
	BYTE		N17     Gn4 
	BYTE	W18
	BYTE		N11     An3 
	BYTE		N11     An4 
	BYTE	W12
// 034   ----------------------------------------
	BYTE		N96     En3 
	BYTE		N96     En4 
	BYTE	W96
// 035   ----------------------------------------
	BYTE		VOL     98*song012D_mvl/mxv
	BYTE		N92     En3 
	BYTE		N92     En4 
	BYTE	W04
	BYTE		VOL     95*song012D_mvl/mxv
	BYTE	W04
	BYTE		        92*song012D_mvl/mxv
	BYTE	W04
	BYTE		        91*song012D_mvl/mxv
	BYTE	W01
	BYTE		        90*song012D_mvl/mxv
	BYTE	W03
	BYTE		        90*song012D_mvl/mxv
	BYTE	W01
	BYTE		        88*song012D_mvl/mxv
	BYTE	W03
	BYTE		        87*song012D_mvl/mxv
	BYTE	W01
	BYTE		        85*song012D_mvl/mxv
	BYTE	W03
	BYTE		        84*song012D_mvl/mxv
	BYTE	W01
	BYTE		        82*song012D_mvl/mxv
	BYTE	W03
	BYTE		        81*song012D_mvl/mxv
	BYTE	W01
	BYTE		        81*song012D_mvl/mxv
	BYTE	W03
	BYTE		        80*song012D_mvl/mxv
	BYTE	W01
	BYTE		        78*song012D_mvl/mxv
	BYTE	W03
	BYTE		        77*song012D_mvl/mxv
	BYTE	W01
	BYTE		        76*song012D_mvl/mxv
	BYTE	W03
	BYTE		        74*song012D_mvl/mxv
	BYTE	W01
	BYTE		        73*song012D_mvl/mxv
	BYTE	W03
	BYTE		        72*song012D_mvl/mxv
	BYTE	W01
	BYTE		        72*song012D_mvl/mxv
	BYTE	W04
	BYTE		        69*song012D_mvl/mxv
	BYTE	W04
	BYTE		        66*song012D_mvl/mxv
	BYTE	W04
	BYTE		        64*song012D_mvl/mxv
	BYTE	W04
	BYTE		        64*song012D_mvl/mxv
	BYTE	W01
	BYTE		        63*song012D_mvl/mxv
	BYTE	W03
	BYTE		        61*song012D_mvl/mxv
	BYTE	W01
	BYTE		        60*song012D_mvl/mxv
	BYTE	W03
	BYTE		        59*song012D_mvl/mxv
	BYTE	W01
	BYTE		        58*song012D_mvl/mxv
	BYTE	W03
	BYTE		        56*song012D_mvl/mxv
	BYTE	W01
	BYTE		        55*song012D_mvl/mxv
	BYTE	W03
	BYTE		        55*song012D_mvl/mxv
	BYTE	W01
	BYTE		        54*song012D_mvl/mxv
	BYTE	W03
	BYTE		        53*song012D_mvl/mxv
	BYTE	W01
	BYTE		        52*song012D_mvl/mxv
	BYTE	W03
	BYTE		        50*song012D_mvl/mxv
	BYTE	W01
	BYTE		        49*song012D_mvl/mxv
	BYTE	W03
	BYTE		        48*song012D_mvl/mxv
	BYTE	W01
	BYTE		        48*song012D_mvl/mxv
	BYTE	W03
	BYTE		        47*song012D_mvl/mxv
	BYTE	W01
	BYTE		        46*song012D_mvl/mxv
	BYTE	W02
// 036   ----------------------------------------
	BYTE		        46*song012D_mvl/mxv
	BYTE	W96
// 037   ----------------------------------------
	BYTE		        100*song012D_mvl/mxv
	BYTE	W96
	BYTE	GoTo
	 POIN2	song012D_2_B1
song012D_2_B2:
// 038   ----------------------------------------
	BYTE	FINE

//**************** Track 3 (Midi-Chn.3) ****************//

song012D_3:
	BYTE	KEYSH   song012D_key+0
// 000   ----------------------------------------
	BYTE		VOICE   48
	BYTE		MODT    0
	BYTE		LFOS    44
	BYTE		VOL     100*song012D_mvl/mxv
	BYTE		PAN     c_v+0
	BYTE	W96
// 001   ----------------------------------------
	BYTE	W96
song012D_3_B1:
// 002   ----------------------------------------
	BYTE	W96
// 003   ----------------------------------------
	BYTE	W96
// 004   ----------------------------------------
	BYTE	W96
// 005   ----------------------------------------
	BYTE	W96
// 006   ----------------------------------------
	BYTE	W96
// 007   ----------------------------------------
	BYTE	W96
// 008   ----------------------------------------
	BYTE	W96
// 009   ----------------------------------------
	BYTE	W96
// 010   ----------------------------------------
	BYTE		N96     Gn3   v052
	BYTE		N96     Bn3 
	BYTE	W96
// 011   ----------------------------------------
	BYTE		N72     An3 
	BYTE		N72     Cn4 
	BYTE	W72
	BYTE		N24     Fs3 
	BYTE		N24     An3 
	BYTE	W24
// 012   ----------------------------------------
	BYTE		N48     Gn3 
	BYTE		N48     Bn3 
	BYTE	W48
	BYTE		N96     En3 
	BYTE		N96     Gn3 
	BYTE	W48
// 013   ----------------------------------------
	BYTE	W48
	BYTE		N48     Fs3 
	BYTE		N48     An3 
	BYTE	W48
// 014   ----------------------------------------
	BYTE		TIE     Dn3 
	BYTE		TIE     Fs3 
	BYTE	W96
// 015   ----------------------------------------
	BYTE	W48
	BYTE		EOT     Dn3 
	BYTE		        Fs3 
	BYTE		N48     En3 
	BYTE		N48     Gn3 
	BYTE	W48
// 016   ----------------------------------------
	BYTE		TIE     Bn2 
	BYTE		N96     En3 
	BYTE	W96
// 017   ----------------------------------------
	BYTE		N72     Dn3 
	BYTE	W72
	BYTE		N24     En3 
	BYTE	W24
	BYTE		EOT     Bn2 
// 018   ----------------------------------------
	BYTE		N72     En2   v060
	BYTE	W72
	BYTE		N24     Dn2 
	BYTE	W24
// 019   ----------------------------------------
	BYTE		N48     En2 
	BYTE	W48
	BYTE		N24     Gn2 
	BYTE	W24
	BYTE		        An2 
	BYTE	W24
// 020   ----------------------------------------
	BYTE		N90     Dn3 
	BYTE	W96
// 021   ----------------------------------------
	BYTE		N48     Cn3 
	BYTE	W48
	BYTE		        An2 
	BYTE	W48
// 022   ----------------------------------------
	BYTE		N90     Bn2 
	BYTE	W96
// 023   ----------------------------------------
	BYTE		N48     An2 
	BYTE	W48
	BYTE		        Dn3 
	BYTE	W48
// 024   ----------------------------------------
	BYTE		TIE     Bn2 
	BYTE	W96
// 025   ----------------------------------------
	BYTE	W72
	BYTE		EOT   
	BYTE	W24
// 026   ----------------------------------------
	BYTE		TIE     Gn2   v056
	BYTE		N96     Bn2 
	BYTE	W96
// 027   ----------------------------------------
	BYTE		        Cn3 
	BYTE	W96
	BYTE		EOT     Gn2 
// 028   ----------------------------------------
	BYTE		N96     An2 
	BYTE		N72     Cn3 
	BYTE	W72
	BYTE		N24     Dn3 
	BYTE	W24
// 029   ----------------------------------------
	BYTE		N96     Bn2 
	BYTE		N48     En3 
	BYTE	W48
	BYTE		        Ds3 
	BYTE	W48
// 030   ----------------------------------------
	BYTE		N96     Gn2 
	BYTE		N96     Bn2 
	BYTE	W96
// 031   ----------------------------------------
	BYTE		        En2 
	BYTE		N96     Gn2 
	BYTE	W96
// 032   ----------------------------------------
	BYTE		N72     En2 
	BYTE		N72     An2 
	BYTE	W72
	BYTE		N24     En2 
	BYTE		N24     An2 
	BYTE	W24
// 033   ----------------------------------------
	BYTE		N48     Fs2   v068
	BYTE		N48     An2 
	BYTE	W48
	BYTE		N18     Fs2 
	BYTE		N18     An2 
	BYTE	W18
	BYTE		        Fs2 
	BYTE		N18     Bn2 
	BYTE	W18
	BYTE		N12     Fs2 
	BYTE		N12     Cn3 
	BYTE	W12
// 034   ----------------------------------------
	BYTE		TIE     Gn2   v044
	BYTE		TIE     Bn2   v056
	BYTE	W96
// 035   ----------------------------------------
	BYTE		VOL     98*song012D_mvl/mxv
	BYTE	W04
	BYTE		        95*song012D_mvl/mxv
	BYTE	W04
	BYTE		        92*song012D_mvl/mxv
	BYTE	W04
	BYTE		        91*song012D_mvl/mxv
	BYTE	W01
	BYTE		        90*song012D_mvl/mxv
	BYTE	W03
	BYTE		        90*song012D_mvl/mxv
	BYTE	W01
	BYTE		        88*song012D_mvl/mxv
	BYTE	W03
	BYTE		        87*song012D_mvl/mxv
	BYTE	W01
	BYTE		        85*song012D_mvl/mxv
	BYTE	W03
	BYTE		        84*song012D_mvl/mxv
	BYTE	W01
	BYTE		        82*song012D_mvl/mxv
	BYTE	W03
	BYTE		        81*song012D_mvl/mxv
	BYTE	W01
	BYTE		        81*song012D_mvl/mxv
	BYTE	W03
	BYTE		        80*song012D_mvl/mxv
	BYTE	W01
	BYTE		        78*song012D_mvl/mxv
	BYTE	W03
	BYTE		        77*song012D_mvl/mxv
	BYTE	W01
	BYTE		        76*song012D_mvl/mxv
	BYTE	W03
	BYTE		        74*song012D_mvl/mxv
	BYTE	W01
	BYTE		        73*song012D_mvl/mxv
	BYTE	W03
	BYTE		        72*song012D_mvl/mxv
	BYTE	W01
	BYTE		        72*song012D_mvl/mxv
	BYTE	W04
	BYTE		        69*song012D_mvl/mxv
	BYTE	W04
	BYTE		        66*song012D_mvl/mxv
	BYTE	W04
	BYTE		        64*song012D_mvl/mxv
	BYTE	W04
	BYTE		        64*song012D_mvl/mxv
	BYTE	W01
	BYTE		        63*song012D_mvl/mxv
	BYTE	W03
	BYTE		        61*song012D_mvl/mxv
	BYTE	W01
	BYTE		        60*song012D_mvl/mxv
	BYTE	W03
	BYTE		        59*song012D_mvl/mxv
	BYTE	W01
	BYTE		        58*song012D_mvl/mxv
	BYTE	W03
	BYTE		        56*song012D_mvl/mxv
	BYTE	W01
	BYTE		        55*song012D_mvl/mxv
	BYTE	W03
	BYTE		        55*song012D_mvl/mxv
	BYTE	W01
	BYTE		        54*song012D_mvl/mxv
	BYTE	W03
	BYTE		        53*song012D_mvl/mxv
	BYTE	W01
	BYTE		        52*song012D_mvl/mxv
	BYTE	W03
	BYTE		        50*song012D_mvl/mxv
	BYTE	W01
	BYTE		        49*song012D_mvl/mxv
	BYTE	W03
	BYTE		        48*song012D_mvl/mxv
	BYTE	W01
	BYTE		        48*song012D_mvl/mxv
	BYTE	W03
	BYTE		        47*song012D_mvl/mxv
	BYTE	W01
	BYTE		        46*song012D_mvl/mxv
	BYTE	W02
	BYTE		EOT     Gn2 
	BYTE		        Bn2 
// 036   ----------------------------------------
	BYTE		TIE     En2   v032
	BYTE		TIE     Gn2   v044
	BYTE	W01
	BYTE		VOL     68*song012D_mvl/mxv
	BYTE	W02
	BYTE		        69*song012D_mvl/mxv
	BYTE	W02
	BYTE		        70*song012D_mvl/mxv
	BYTE	W02
	BYTE		        72*song012D_mvl/mxv
	BYTE	W01
	BYTE		        72*song012D_mvl/mxv
	BYTE	W02
	BYTE		        73*song012D_mvl/mxv
	BYTE	W02
	BYTE		        74*song012D_mvl/mxv
	BYTE	W02
	BYTE		        76*song012D_mvl/mxv
	BYTE	W02
	BYTE		        77*song012D_mvl/mxv
	BYTE	W01
	BYTE		        78*song012D_mvl/mxv
	BYTE	W02
	BYTE		        80*song012D_mvl/mxv
	BYTE	W02
	BYTE		        81*song012D_mvl/mxv
	BYTE	W02
	BYTE		        81*song012D_mvl/mxv
	BYTE	W01
	BYTE		        82*song012D_mvl/mxv
	BYTE	W02
	BYTE		        84*song012D_mvl/mxv
	BYTE	W02
	BYTE		        85*song012D_mvl/mxv
	BYTE	W02
	BYTE		        87*song012D_mvl/mxv
	BYTE	W02
	BYTE		        88*song012D_mvl/mxv
	BYTE	W01
	BYTE		        90*song012D_mvl/mxv
	BYTE	W02
	BYTE		        90*song012D_mvl/mxv
	BYTE	W02
	BYTE		        91*song012D_mvl/mxv
	BYTE	W02
	BYTE		        92*song012D_mvl/mxv
	BYTE	W01
	BYTE		        94*song012D_mvl/mxv
	BYTE	W02
	BYTE		        95*song012D_mvl/mxv
	BYTE	W02
	BYTE		        97*song012D_mvl/mxv
	BYTE	W02
	BYTE		        98*song012D_mvl/mxv
	BYTE	W02
	BYTE		        100*song012D_mvl/mxv
	BYTE	W48
// 037   ----------------------------------------
	BYTE	W96
	BYTE		EOT     En2 
	BYTE		        Gn2 
	BYTE	GoTo
	 POIN2	song012D_3_B1
song012D_3_B2:
// 038   ----------------------------------------
	BYTE	FINE

//**************** Track 4 (Midi-Chn.4) ****************//

song012D_4:
	BYTE	KEYSH   song012D_key+0
// 000   ----------------------------------------
	BYTE		VOICE   48
	BYTE		MODT    0
	BYTE		LFOS    44
	BYTE		VOL     100*song012D_mvl/mxv
	BYTE		PAN     c_v+12
	BYTE	W96
// 001   ----------------------------------------
	BYTE	W96
song012D_4_B1:
// 002   ----------------------------------------
	BYTE	W96
// 003   ----------------------------------------
	BYTE	W96
// 004   ----------------------------------------
	BYTE	W96
// 005   ----------------------------------------
	BYTE	W96
// 006   ----------------------------------------
	BYTE	W96
// 007   ----------------------------------------
	BYTE	W96
// 008   ----------------------------------------
	BYTE	W96
// 009   ----------------------------------------
	BYTE	W96
// 010   ----------------------------------------
	BYTE	W96
// 011   ----------------------------------------
	BYTE	W96
// 012   ----------------------------------------
	BYTE	W96
// 013   ----------------------------------------
	BYTE	W96
// 014   ----------------------------------------
	BYTE	W96
// 015   ----------------------------------------
	BYTE	W96
// 016   ----------------------------------------
	BYTE	W96
// 017   ----------------------------------------
	BYTE	W96
// 018   ----------------------------------------
	BYTE		N72     Bn1   v060
	BYTE	W72
	BYTE		N24   
	BYTE	W24
// 019   ----------------------------------------
	BYTE		N48   
	BYTE	W48
	BYTE		N24     En2 
	BYTE	W24
	BYTE		N24   
	BYTE	W24
// 020   ----------------------------------------
	BYTE		N90     Bn2 
	BYTE	W96
// 021   ----------------------------------------
	BYTE		N48     An2 
	BYTE	W48
	BYTE		        Fs2 
	BYTE	W48
// 022   ----------------------------------------
	BYTE		N90     Gn2 
	BYTE	W96
// 023   ----------------------------------------
	BYTE		N48     Fs2 
	BYTE	W48
	BYTE		N48   
	BYTE	W48
// 024   ----------------------------------------
	BYTE		TIE     Gn2 
	BYTE	W96
// 025   ----------------------------------------
	BYTE	W72
	BYTE		EOT   
	BYTE	W24
// 026   ----------------------------------------
	BYTE		N96     En0 
	BYTE		N96     En1 
	BYTE	W96
// 027   ----------------------------------------
	BYTE		        Cn0 
	BYTE		N96     Cn1 
	BYTE	W96
// 028   ----------------------------------------
	BYTE		        AnM1
	BYTE		N96     An0 
	BYTE	W96
// 029   ----------------------------------------
	BYTE		        BnM1
	BYTE		N96     Bn0 
	BYTE	W96
// 030   ----------------------------------------
	BYTE		        En0 
	BYTE		N96     En1 
	BYTE	W96
// 031   ----------------------------------------
	BYTE		        Cn0 
	BYTE		N96     Cn1 
	BYTE	W96
// 032   ----------------------------------------
	BYTE		        AnM1
	BYTE		N96     An0 
	BYTE	W96
// 033   ----------------------------------------
	BYTE		        BnM1
	BYTE		N96     Bn0 
	BYTE	W96
// 034   ----------------------------------------
	BYTE	W96
// 035   ----------------------------------------
	BYTE	W96
// 036   ----------------------------------------
	BYTE	W96
// 037   ----------------------------------------
	BYTE	W96
	BYTE	GoTo
	 POIN2	song012D_4_B1
song012D_4_B2:
// 038   ----------------------------------------
	BYTE	FINE

//**************** Track 5 (Midi-Chn.5) ****************//

song012D_5:
	BYTE	KEYSH   song012D_key+0
// 000   ----------------------------------------
	BYTE		VOICE   61
	BYTE		MODT    0
	BYTE		LFOS    44
	BYTE		VOL     59*song012D_mvl/mxv
	BYTE		PAN     c_v-6
	BYTE		N03     Dn2   v088
	BYTE		N03     En2   v100
	BYTE		N03     Gn2 
	BYTE	W24
	BYTE		        Dn2   v072
	BYTE		N03     En2   v088
	BYTE		N03     Gn2 
	BYTE	W24
	BYTE		        Dn2 
	BYTE		N03     En2   v100
	BYTE		N03     Gn2 
	BYTE	W24
	BYTE		        Dn2   v088
	BYTE		N03     En2   v100
	BYTE		N03     Gn2 
	BYTE	W12
	BYTE		        Dn2   v072
	BYTE		N03     En2   v088
	BYTE		N03     Gn2 
	BYTE	W12
// 001   ----------------------------------------
song012D_5_001:
	BYTE		N03     Dn2   v088
	BYTE		N03     En2   v100
	BYTE		N03     Gn2 
	BYTE	W24
	BYTE		        Dn2   v072
	BYTE		N03     En2   v088
	BYTE		N03     Gn2 
	BYTE	W24
	BYTE		        Dn2 
	BYTE		N03     En2   v100
	BYTE		N03     Gn2 
	BYTE	W24
	BYTE		        Dn2   v088
	BYTE		N03     En2   v100
	BYTE		N03     Gn2 
	BYTE	W12
	BYTE		        Dn2   v072
	BYTE		N03     En2   v088
	BYTE		N03     Gn2 
	BYTE	W12
	BYTE	PEND
song012D_5_B1:
// 002   ----------------------------------------
	BYTE	PATT
	 POIN2	song012D_5_001
// 003   ----------------------------------------
	BYTE	PATT
	 POIN2	song012D_5_001
// 004   ----------------------------------------
	BYTE	PATT
	 POIN2	song012D_5_001
// 005   ----------------------------------------
	BYTE	PATT
	 POIN2	song012D_5_001
// 006   ----------------------------------------
	BYTE	PATT
	 POIN2	song012D_5_001
// 007   ----------------------------------------
	BYTE	PATT
	 POIN2	song012D_5_001
// 008   ----------------------------------------
	BYTE	PATT
	 POIN2	song012D_5_001
// 009   ----------------------------------------
	BYTE	PATT
	 POIN2	song012D_5_001
// 010   ----------------------------------------
	BYTE	PATT
	 POIN2	song012D_5_001
// 011   ----------------------------------------
	BYTE	PATT
	 POIN2	song012D_5_001
// 012   ----------------------------------------
	BYTE	PATT
	 POIN2	song012D_5_001
// 013   ----------------------------------------
	BYTE	PATT
	 POIN2	song012D_5_001
// 014   ----------------------------------------
	BYTE	PATT
	 POIN2	song012D_5_001
// 015   ----------------------------------------
	BYTE	PATT
	 POIN2	song012D_5_001
// 016   ----------------------------------------
	BYTE	PATT
	 POIN2	song012D_5_001
// 017   ----------------------------------------
	BYTE	PATT
	 POIN2	song012D_5_001
// 018   ----------------------------------------
	BYTE	PATT
	 POIN2	song012D_5_001
// 019   ----------------------------------------
	BYTE	PATT
	 POIN2	song012D_5_001
// 020   ----------------------------------------
	BYTE	PATT
	 POIN2	song012D_5_001
// 021   ----------------------------------------
	BYTE	PATT
	 POIN2	song012D_5_001
// 022   ----------------------------------------
	BYTE	PATT
	 POIN2	song012D_5_001
// 023   ----------------------------------------
	BYTE	PATT
	 POIN2	song012D_5_001
// 024   ----------------------------------------
	BYTE	PATT
	 POIN2	song012D_5_001
// 025   ----------------------------------------
	BYTE	PATT
	 POIN2	song012D_5_001
// 026   ----------------------------------------
	BYTE		TIE     Gn2   v088
	BYTE		N96     Bn2 
	BYTE	W96
// 027   ----------------------------------------
	BYTE		TIE     Cn3 
	BYTE	W96
	BYTE		EOT     Gn2 
// 028   ----------------------------------------
	BYTE		N96     An2 
	BYTE	W72
	BYTE		N24     Dn3 
	BYTE	W01
	BYTE		EOT     Cn3 
	BYTE	W23
// 029   ----------------------------------------
	BYTE		TIE     Bn2 
	BYTE		N48     En3 
	BYTE	W48
	BYTE		        Ds3 
	BYTE	W48
// 030   ----------------------------------------
	BYTE		TIE     Gn2 
	BYTE	W96
	BYTE		EOT     Bn2 
// 031   ----------------------------------------
	BYTE		TIE     En2 
	BYTE	W96
	BYTE		EOT     Gn2 
// 032   ----------------------------------------
	BYTE		TIE     An2 
	BYTE	W96
// 033   ----------------------------------------
	BYTE		        Fs2   v100
	BYTE	W01
	BYTE		EOT     En2 
	BYTE	W64
	BYTE	W01
	BYTE		N19     Bn2 
	BYTE	W01
	BYTE		EOT     An2 
	BYTE	W17
	BYTE		N13     Cn3 
	BYTE	W12
// 034   ----------------------------------------
	BYTE		N03     Dn2   v088
	BYTE		N03     En2   v100
	BYTE		N03     Bn2 
	BYTE	W01
	BYTE		EOT     Fs2 
	BYTE	W23
	BYTE		N03     Dn2   v072
	BYTE		N03     En2   v088
	BYTE		N03     Gn2 
	BYTE	W24
	BYTE		        Dn2 
	BYTE		N03     En2   v100
	BYTE		N03     Gn2 
	BYTE	W24
	BYTE		        Dn2   v088
	BYTE		N03     En2   v100
	BYTE		N03     Gn2 
	BYTE	W12
	BYTE		        Dn2   v072
	BYTE		N03     En2   v088
	BYTE		N03     Gn2 
	BYTE	W12
// 035   ----------------------------------------
	BYTE	PATT
	 POIN2	song012D_5_001
// 036   ----------------------------------------
	BYTE	PATT
	 POIN2	song012D_5_001
// 037   ----------------------------------------
	BYTE	PATT
	 POIN2	song012D_5_001
	BYTE	GoTo
	 POIN2	song012D_5_B1
song012D_5_B2:
// 038   ----------------------------------------
	BYTE	FINE

//**************** Track 6 (Midi-Chn.6) ****************//

song012D_6:
	BYTE	KEYSH   song012D_key+0
// 000   ----------------------------------------
	BYTE		VOICE   48
	BYTE		MODT    0
	BYTE		LFOS    44
	BYTE		VOL     100*song012D_mvl/mxv
	BYTE		PAN     c_v+4
	BYTE		N06     En1   v072
	BYTE		N06     En2 
	BYTE	W24
	BYTE		        En1 
	BYTE		N06     En2 
	BYTE	W08
	BYTE		        En1   v060
	BYTE		N06     En2 
	BYTE	W08
	BYTE		        En1 
	BYTE		N06     En2 
	BYTE	W08
	BYTE		        En1 
	BYTE		N06     En2 
	BYTE	W24
	BYTE		        En1   v068
	BYTE		N06     En2 
	BYTE	W24
// 001   ----------------------------------------
song012D_6_001:
	BYTE		N06     En1   v072
	BYTE		N06     En2 
	BYTE	W24
	BYTE		        En1 
	BYTE		N06     En2 
	BYTE	W08
	BYTE		        En1   v060
	BYTE		N06     En2 
	BYTE	W08
	BYTE		        En1 
	BYTE		N06     En2 
	BYTE	W08
	BYTE		        En1 
	BYTE		N06     En2 
	BYTE	W24
	BYTE		        En1   v068
	BYTE		N06     En2 
	BYTE	W12
	BYTE		        En1   v072
	BYTE		N06     En2 
	BYTE	W12
	BYTE	PEND
song012D_6_B1:
// 002   ----------------------------------------
song012D_6_002:
	BYTE		N06     En1   v072
	BYTE		N06     En2 
	BYTE	W24
	BYTE		        En1 
	BYTE		N06     En2 
	BYTE	W08
	BYTE		        En1   v060
	BYTE		N06     En2 
	BYTE	W08
	BYTE		        En1 
	BYTE		N06     En2 
	BYTE	W08
	BYTE		        En1 
	BYTE		N06     En2 
	BYTE	W24
	BYTE		        En1   v068
	BYTE		N06     En2 
	BYTE	W24
	BYTE	PEND
// 003   ----------------------------------------
	BYTE	PATT
	 POIN2	song012D_6_001
// 004   ----------------------------------------
	BYTE	PATT
	 POIN2	song012D_6_002
// 005   ----------------------------------------
	BYTE	PATT
	 POIN2	song012D_6_001
// 006   ----------------------------------------
	BYTE	PATT
	 POIN2	song012D_6_002
// 007   ----------------------------------------
	BYTE	PATT
	 POIN2	song012D_6_001
// 008   ----------------------------------------
	BYTE	PATT
	 POIN2	song012D_6_002
// 009   ----------------------------------------
	BYTE	PATT
	 POIN2	song012D_6_001
// 010   ----------------------------------------
	BYTE	PATT
	 POIN2	song012D_6_002
// 011   ----------------------------------------
	BYTE	PATT
	 POIN2	song012D_6_001
// 012   ----------------------------------------
	BYTE	PATT
	 POIN2	song012D_6_002
// 013   ----------------------------------------
	BYTE	PATT
	 POIN2	song012D_6_001
// 014   ----------------------------------------
	BYTE	PATT
	 POIN2	song012D_6_002
// 015   ----------------------------------------
	BYTE	PATT
	 POIN2	song012D_6_001
// 016   ----------------------------------------
	BYTE	PATT
	 POIN2	song012D_6_002
// 017   ----------------------------------------
	BYTE	PATT
	 POIN2	song012D_6_001
// 018   ----------------------------------------
song012D_6_018:
	BYTE		N06     En1   v088
	BYTE		N06     En2 
	BYTE	W24
	BYTE		        En1 
	BYTE		N06     En2 
	BYTE	W08
	BYTE		        En1   v072
	BYTE		N06     En2 
	BYTE	W08
	BYTE		        En1 
	BYTE		N06     En2 
	BYTE	W08
	BYTE		        En1 
	BYTE		N06     En2 
	BYTE	W24
	BYTE		        En1   v080
	BYTE		N06     En2 
	BYTE	W24
	BYTE	PEND
// 019   ----------------------------------------
song012D_6_019:
	BYTE		N06     En1   v088
	BYTE		N06     En2 
	BYTE	W24
	BYTE		        En1 
	BYTE		N06     En2 
	BYTE	W08
	BYTE		        En1   v072
	BYTE		N06     En2 
	BYTE	W08
	BYTE		        En1 
	BYTE		N06     En2 
	BYTE	W08
	BYTE		        En1 
	BYTE		N06     En2 
	BYTE	W24
	BYTE		        En1   v080
	BYTE		N06     En2 
	BYTE	W12
	BYTE		        En1   v088
	BYTE		N06     En2 
	BYTE	W12
	BYTE	PEND
// 020   ----------------------------------------
	BYTE	PATT
	 POIN2	song012D_6_018
// 021   ----------------------------------------
	BYTE	PATT
	 POIN2	song012D_6_019
// 022   ----------------------------------------
	BYTE	PATT
	 POIN2	song012D_6_018
// 023   ----------------------------------------
	BYTE	PATT
	 POIN2	song012D_6_019
// 024   ----------------------------------------
	BYTE	PATT
	 POIN2	song012D_6_018
// 025   ----------------------------------------
	BYTE	PATT
	 POIN2	song012D_6_019
// 026   ----------------------------------------
	BYTE	W96
// 027   ----------------------------------------
	BYTE	W96
// 028   ----------------------------------------
	BYTE	W96
// 029   ----------------------------------------
	BYTE	W96
// 030   ----------------------------------------
	BYTE	W96
// 031   ----------------------------------------
	BYTE	W96
// 032   ----------------------------------------
	BYTE	W96
// 033   ----------------------------------------
	BYTE	W96
// 034   ----------------------------------------
	BYTE	PATT
	 POIN2	song012D_6_002
// 035   ----------------------------------------
	BYTE	PATT
	 POIN2	song012D_6_001
// 036   ----------------------------------------
	BYTE	PATT
	 POIN2	song012D_6_002
// 037   ----------------------------------------
	BYTE	PATT
	 POIN2	song012D_6_001
	BYTE	GoTo
	 POIN2	song012D_6_B1
song012D_6_B2:
// 038   ----------------------------------------
	BYTE	FINE

//**************** Track 7 (Midi-Chn.7) ****************//

song012D_7:
	BYTE	KEYSH   song012D_key+0
// 000   ----------------------------------------
	BYTE		VOICE   60
	BYTE		MODT    0
	BYTE		LFOS    44
	BYTE		VOL     116*song012D_mvl/mxv
	BYTE		PAN     c_v+16
	BYTE		N06     En1   v116
	BYTE	W24
	BYTE		N06   
	BYTE	W08
	BYTE		        En1   v100
	BYTE	W08
	BYTE		N06   
	BYTE	W08
	BYTE		N06   
	BYTE	W24
	BYTE		        En1   v108
	BYTE	W24
// 001   ----------------------------------------
song012D_7_001:
	BYTE		N06     En1   v116
	BYTE	W24
	BYTE		N06   
	BYTE	W08
	BYTE		        En1   v100
	BYTE	W08
	BYTE		N06   
	BYTE	W08
	BYTE		N06   
	BYTE	W24
	BYTE		        En1   v108
	BYTE	W12
	BYTE		        En1   v116
	BYTE	W12
	BYTE	PEND
song012D_7_B1:
// 002   ----------------------------------------
song012D_7_002:
	BYTE		N06     En1   v116
	BYTE	W24
	BYTE		N06   
	BYTE	W08
	BYTE		        En1   v100
	BYTE	W08
	BYTE		N06   
	BYTE	W08
	BYTE		N06   
	BYTE	W24
	BYTE		        En1   v108
	BYTE	W24
	BYTE	PEND
// 003   ----------------------------------------
	BYTE	PATT
	 POIN2	song012D_7_001
// 004   ----------------------------------------
	BYTE	PATT
	 POIN2	song012D_7_002
// 005   ----------------------------------------
	BYTE	PATT
	 POIN2	song012D_7_001
// 006   ----------------------------------------
	BYTE	PATT
	 POIN2	song012D_7_002
// 007   ----------------------------------------
	BYTE	PATT
	 POIN2	song012D_7_001
// 008   ----------------------------------------
	BYTE	PATT
	 POIN2	song012D_7_002
// 009   ----------------------------------------
	BYTE	PATT
	 POIN2	song012D_7_001
// 010   ----------------------------------------
	BYTE	PATT
	 POIN2	song012D_7_002
// 011   ----------------------------------------
	BYTE	PATT
	 POIN2	song012D_7_001
// 012   ----------------------------------------
	BYTE	PATT
	 POIN2	song012D_7_002
// 013   ----------------------------------------
	BYTE	PATT
	 POIN2	song012D_7_001
// 014   ----------------------------------------
	BYTE	PATT
	 POIN2	song012D_7_002
// 015   ----------------------------------------
	BYTE	PATT
	 POIN2	song012D_7_001
// 016   ----------------------------------------
	BYTE	PATT
	 POIN2	song012D_7_002
// 017   ----------------------------------------
	BYTE	PATT
	 POIN2	song012D_7_001
// 018   ----------------------------------------
song012D_7_018:
	BYTE		N06     En1   v127
	BYTE	W24
	BYTE		N06   
	BYTE	W08
	BYTE		        En1   v116
	BYTE	W08
	BYTE		N06   
	BYTE	W08
	BYTE		N06   
	BYTE	W24
	BYTE		        En1   v124
	BYTE	W24
	BYTE	PEND
// 019   ----------------------------------------
song012D_7_019:
	BYTE		N06     En1   v127
	BYTE	W24
	BYTE		N06   
	BYTE	W08
	BYTE		        En1   v116
	BYTE	W08
	BYTE		N06   
	BYTE	W08
	BYTE		N06   
	BYTE	W24
	BYTE		        En1   v124
	BYTE	W12
	BYTE		        En1   v127
	BYTE	W12
	BYTE	PEND
// 020   ----------------------------------------
	BYTE	PATT
	 POIN2	song012D_7_018
// 021   ----------------------------------------
	BYTE	PATT
	 POIN2	song012D_7_019
// 022   ----------------------------------------
	BYTE	PATT
	 POIN2	song012D_7_018
// 023   ----------------------------------------
	BYTE	PATT
	 POIN2	song012D_7_019
// 024   ----------------------------------------
	BYTE	PATT
	 POIN2	song012D_7_018
// 025   ----------------------------------------
	BYTE	PATT
	 POIN2	song012D_7_019
// 026   ----------------------------------------
	BYTE		N96     En1   v100
	BYTE	W96
// 027   ----------------------------------------
	BYTE		        Cn2 
	BYTE	W96
// 028   ----------------------------------------
	BYTE		        An1 
	BYTE	W96
// 029   ----------------------------------------
	BYTE		        Bn1 
	BYTE	W96
// 030   ----------------------------------------
	BYTE		        En1 
	BYTE	W96
// 031   ----------------------------------------
	BYTE		        Cn2 
	BYTE	W96
// 032   ----------------------------------------
	BYTE		        An1 
	BYTE	W96
// 033   ----------------------------------------
	BYTE		N48     Bn1 
	BYTE	W48
	BYTE		N16     Bn1   v127
	BYTE	W18
	BYTE		N16   
	BYTE	W18
	BYTE		N10   
	BYTE	W12
// 034   ----------------------------------------
	BYTE	PATT
	 POIN2	song012D_7_002
// 035   ----------------------------------------
	BYTE	PATT
	 POIN2	song012D_7_001
// 036   ----------------------------------------
	BYTE	PATT
	 POIN2	song012D_7_002
// 037   ----------------------------------------
	BYTE	PATT
	 POIN2	song012D_7_001
	BYTE	GoTo
	 POIN2	song012D_7_B1
song012D_7_B2:
// 038   ----------------------------------------
	BYTE	FINE

//**************** Track 8 (Midi-Chn.8) ****************//

song012D_8:
	BYTE	KEYSH   song012D_key+0
// 000   ----------------------------------------
	BYTE		VOICE   46
	BYTE		MODT    0
	BYTE		LFOS    44
	BYTE		VOL     59*song012D_mvl/mxv
	BYTE		PAN     c_v-24
	BYTE	W96
// 001   ----------------------------------------
	BYTE	W96
song012D_8_B1:
// 002   ----------------------------------------
	BYTE	W96
// 003   ----------------------------------------
	BYTE	W96
// 004   ----------------------------------------
	BYTE	W96
// 005   ----------------------------------------
	BYTE	W96
// 006   ----------------------------------------
	BYTE	W96
// 007   ----------------------------------------
	BYTE	W96
// 008   ----------------------------------------
	BYTE	W96
// 009   ----------------------------------------
	BYTE	W96
// 010   ----------------------------------------
song012D_8_010:
	BYTE		N12     Bn4   v088
	BYTE	W12
	BYTE		        Gn4 
	BYTE	W12
	BYTE		        En4 
	BYTE	W12
	BYTE		        Dn4 
	BYTE	W12
	BYTE		        Bn4 
	BYTE	W12
	BYTE		        Gn4 
	BYTE	W12
	BYTE		        En4 
	BYTE	W12
	BYTE		        Dn4 
	BYTE	W12
	BYTE	PEND
// 011   ----------------------------------------
	BYTE	PATT
	 POIN2	song012D_8_010
// 012   ----------------------------------------
	BYTE	PATT
	 POIN2	song012D_8_010
// 013   ----------------------------------------
	BYTE	PATT
	 POIN2	song012D_8_010
// 014   ----------------------------------------
	BYTE	PATT
	 POIN2	song012D_8_010
// 015   ----------------------------------------
	BYTE	PATT
	 POIN2	song012D_8_010
// 016   ----------------------------------------
	BYTE	PATT
	 POIN2	song012D_8_010
// 017   ----------------------------------------
	BYTE	PATT
	 POIN2	song012D_8_010
// 018   ----------------------------------------
	BYTE	W96
// 019   ----------------------------------------
	BYTE	W96
// 020   ----------------------------------------
	BYTE	W96
// 021   ----------------------------------------
	BYTE	W96
// 022   ----------------------------------------
	BYTE	W96
// 023   ----------------------------------------
	BYTE	W96
// 024   ----------------------------------------
	BYTE	W96
// 025   ----------------------------------------
	BYTE	W96
// 026   ----------------------------------------
	BYTE	W96
// 027   ----------------------------------------
	BYTE	W96
// 028   ----------------------------------------
	BYTE	W96
// 029   ----------------------------------------
	BYTE	W96
// 030   ----------------------------------------
	BYTE	W96
// 031   ----------------------------------------
	BYTE	W96
// 032   ----------------------------------------
	BYTE	W96
// 033   ----------------------------------------
	BYTE	W96
// 034   ----------------------------------------
	BYTE	W96
// 035   ----------------------------------------
	BYTE	W96
// 036   ----------------------------------------
	BYTE	W96
// 037   ----------------------------------------
	BYTE	W96
	BYTE	GoTo
	 POIN2	song012D_8_B1
song012D_8_B2:
// 038   ----------------------------------------
	BYTE	FINE

//**************** Track 9 (Midi-Chn.9) ****************//

song012D_9:
	BYTE	KEYSH   song012D_key+0
// 000   ----------------------------------------
	BYTE		VOICE   46
	BYTE		MODT    0
	BYTE		LFOS    44
	BYTE		VOL     85*song012D_mvl/mxv
	BYTE		PAN     c_v+6
	BYTE	W96
// 001   ----------------------------------------
	BYTE	W96
song012D_9_B1:
// 002   ----------------------------------------
	BYTE	W96
// 003   ----------------------------------------
	BYTE	W96
// 004   ----------------------------------------
	BYTE	W96
// 005   ----------------------------------------
	BYTE	W96
// 006   ----------------------------------------
	BYTE	W96
// 007   ----------------------------------------
	BYTE	W96
// 008   ----------------------------------------
	BYTE	W96
// 009   ----------------------------------------
	BYTE	W96
// 010   ----------------------------------------
song012D_9_010:
	BYTE	W09
	BYTE		N12     Bn4   v048
	BYTE	W12
	BYTE		        Gn4 
	BYTE	W12
	BYTE		        En4 
	BYTE	W12
	BYTE		        Dn4 
	BYTE	W12
	BYTE		        Bn4 
	BYTE	W12
	BYTE		        Gn4 
	BYTE	W12
	BYTE		        En4 
	BYTE	W12
	BYTE		        Dn4 
	BYTE	W03
	BYTE	PEND
// 011   ----------------------------------------
	BYTE	PATT
	 POIN2	song012D_9_010
// 012   ----------------------------------------
	BYTE	PATT
	 POIN2	song012D_9_010
// 013   ----------------------------------------
	BYTE	PATT
	 POIN2	song012D_9_010
// 014   ----------------------------------------
	BYTE	PATT
	 POIN2	song012D_9_010
// 015   ----------------------------------------
	BYTE	PATT
	 POIN2	song012D_9_010
// 016   ----------------------------------------
	BYTE	PATT
	 POIN2	song012D_9_010
// 017   ----------------------------------------
	BYTE	PATT
	 POIN2	song012D_9_010
// 018   ----------------------------------------
	BYTE	W96
// 019   ----------------------------------------
	BYTE	W96
// 020   ----------------------------------------
	BYTE	W96
// 021   ----------------------------------------
	BYTE	W96
// 022   ----------------------------------------
	BYTE	W96
// 023   ----------------------------------------
	BYTE	W96
// 024   ----------------------------------------
	BYTE	W96
// 025   ----------------------------------------
	BYTE	W96
// 026   ----------------------------------------
	BYTE	W96
// 027   ----------------------------------------
	BYTE	W96
// 028   ----------------------------------------
	BYTE	W96
// 029   ----------------------------------------
	BYTE	W96
// 030   ----------------------------------------
	BYTE	W96
// 031   ----------------------------------------
	BYTE	W96
// 032   ----------------------------------------
	BYTE	W96
// 033   ----------------------------------------
	BYTE	W96
// 034   ----------------------------------------
	BYTE	W96
// 035   ----------------------------------------
	BYTE	W96
// 036   ----------------------------------------
	BYTE	W96
// 037   ----------------------------------------
	BYTE	W96
	BYTE	GoTo
	 POIN2	song012D_9_B1
song012D_9_B2:
// 038   ----------------------------------------
	BYTE	FINE

//**************** Track 10 (Midi-Chn.11) ****************//

song012D_10:
	BYTE	KEYSH   song012D_key+0
// 000   ----------------------------------------
	BYTE		VOICE   127
	BYTE		MODT    0
	BYTE		LFOS    44
	BYTE		VOL     100*song012D_mvl/mxv
	BYTE		PAN     c_v+0
	BYTE		N06     Dn1   v044
	BYTE	W12
	BYTE		        Dn1   v036
	BYTE	W12
	BYTE		N01     Dn1   v056
	BYTE	W01
	BYTE		N04   
	BYTE	W05
	BYTE		N06     Dn1   v036
	BYTE	W06
	BYTE		        Dn1   v048
	BYTE	W06
	BYTE		        Dn1   v056
	BYTE	W06
	BYTE		        Dn1   v072
	BYTE	W12
	BYTE		        Dn1   v048
	BYTE	W36
// 001   ----------------------------------------
	BYTE		        Dn1   v084
	BYTE		N96     En2   v116
	BYTE	W12
	BYTE		N06     Dn1   v036
	BYTE	W12
	BYTE		N02   
	BYTE	W02
	BYTE		N02   
	BYTE	W02
	BYTE		N02   
	BYTE	W02
	BYTE		        Dn1   v048
	BYTE	W03
	BYTE		N02   
	BYTE	W03
	BYTE		N06   
	BYTE	W06
	BYTE		        Dn1   v056
	BYTE	W06
	BYTE		        Dn1   v072
	BYTE	W12
	BYTE		        Dn1   v028
	BYTE	W06
	BYTE		        Dn1   v048
	BYTE	W06
	BYTE		        Dn1   v072
	BYTE	W12
	BYTE		        Dn1   v048
	BYTE		N04     Cs2   v088
	BYTE	W06
	BYTE		N06     Dn1   v084
	BYTE		N06     Cs2   v092
	BYTE	W06
song012D_10_B1:
// 002   ----------------------------------------
	BYTE		N06     Dn1   v036
	BYTE		N24     Cs2   v116
	BYTE		N96     An2   v100
	BYTE	W12
	BYTE		N06     Dn1   v056
	BYTE	W12
	BYTE		N01   
	BYTE	W01
	BYTE		N04     Dn1   v036
	BYTE	W05
	BYTE		N06     Dn1   v048
	BYTE	W06
	BYTE		        Dn1   v056
	BYTE	W06
	BYTE		        Dn1   v072
	BYTE	W06
	BYTE		        Dn1   v048
	BYTE	W12
	BYTE		        Dn1   v084
	BYTE	W36
// 003   ----------------------------------------
	BYTE		        Dn1   v036
	BYTE	W12
	BYTE		N06   
	BYTE	W12
	BYTE		N02   
	BYTE	W02
	BYTE		N02   
	BYTE	W02
	BYTE		        Dn1   v048
	BYTE	W02
	BYTE		N02   
	BYTE	W03
	BYTE		N02   
	BYTE	W03
	BYTE		N06     Dn1   v056
	BYTE	W06
	BYTE		        Dn1   v072
	BYTE	W06
	BYTE		        Dn1   v028
	BYTE	W12
	BYTE		        Dn1   v048
	BYTE	W06
	BYTE		        Dn1   v072
	BYTE	W06
	BYTE		        Dn1   v036
	BYTE	W12
	BYTE		        Dn1   v048
	BYTE		N04     Cs2   v088
	BYTE	W06
	BYTE		N06     Dn1   v084
	BYTE		N06     Cs2   v092
	BYTE	W06
// 004   ----------------------------------------
song012D_10_004:
	BYTE		N06     Dn1   v036
	BYTE		N24     Cs2   v116
	BYTE	W12
	BYTE		N06     Dn1   v056
	BYTE	W12
	BYTE		N01   
	BYTE	W01
	BYTE		N04     Dn1   v036
	BYTE	W05
	BYTE		N06     Dn1   v048
	BYTE	W06
	BYTE		        Dn1   v056
	BYTE	W06
	BYTE		        Dn1   v072
	BYTE	W06
	BYTE		        Dn1   v084
	BYTE	W12
	BYTE		N06   
	BYTE	W36
	BYTE	PEND
// 005   ----------------------------------------
song012D_10_005:
	BYTE		N06     Dn1   v036
	BYTE	W12
	BYTE		N06   
	BYTE	W12
	BYTE		N02   
	BYTE	W02
	BYTE		N02   
	BYTE	W02
	BYTE		        Dn1   v048
	BYTE	W02
	BYTE		N02   
	BYTE	W03
	BYTE		        Dn1   v056
	BYTE	W03
	BYTE		N06     Dn1   v072
	BYTE	W06
	BYTE		        Dn1   v084
	BYTE	W06
	BYTE		        Dn1   v036
	BYTE	W12
	BYTE		        Dn1   v056
	BYTE	W06
	BYTE		        Dn1   v072
	BYTE	W06
	BYTE		        Dn1   v036
	BYTE	W12
	BYTE		        Dn1   v048
	BYTE		N04     Cs2   v088
	BYTE	W06
	BYTE		N06     Dn1   v084
	BYTE		N06     Cs2   v092
	BYTE	W06
	BYTE	PEND
// 006   ----------------------------------------
	BYTE	PATT
	 POIN2	song012D_10_004
// 007   ----------------------------------------
	BYTE	PATT
	 POIN2	song012D_10_005
// 008   ----------------------------------------
	BYTE	PATT
	 POIN2	song012D_10_004
// 009   ----------------------------------------
	BYTE	PATT
	 POIN2	song012D_10_005
// 010   ----------------------------------------
	BYTE		N06     Dn1   v036
	BYTE		N24     Cs2   v116
	BYTE		N96     An2   v092
	BYTE	W12
	BYTE		N06     Dn1   v056
	BYTE	W12
	BYTE		N01   
	BYTE	W01
	BYTE		N04     Dn1   v036
	BYTE	W05
	BYTE		N06     Dn1   v048
	BYTE	W06
	BYTE		        Dn1   v056
	BYTE	W06
	BYTE		        Dn1   v072
	BYTE	W06
	BYTE		        Dn1   v084
	BYTE	W12
	BYTE		N06   
	BYTE	W36
// 011   ----------------------------------------
	BYTE		        Dn1   v036
	BYTE	W12
	BYTE		N06   
	BYTE	W12
	BYTE		N02   
	BYTE	W02
	BYTE		N02   
	BYTE	W02
	BYTE		        Dn1   v048
	BYTE	W02
	BYTE		N02   
	BYTE	W03
	BYTE		        Dn1   v056
	BYTE	W03
	BYTE		N06     Dn1   v072
	BYTE	W06
	BYTE		        Dn1   v084
	BYTE	W06
	BYTE		        Dn1   v036
	BYTE	W12
	BYTE		        Dn1   v056
	BYTE	W06
	BYTE		        Dn1   v072
	BYTE	W06
	BYTE		        Dn1   v036
	BYTE	W12
	BYTE		        Dn1   v048
	BYTE		N04     Cs2   v088
	BYTE	W06
	BYTE		N06     Dn1   v032
	BYTE		N06     Cs2   v092
	BYTE	W06
// 012   ----------------------------------------
song012D_10_012:
	BYTE		N06     Dn1   v056
	BYTE		N24     Cs2   v116
	BYTE	W12
	BYTE		N06     Dn1   v056
	BYTE	W12
	BYTE		N01     Dn1   v032
	BYTE	W01
	BYTE		N04     Dn1   v044
	BYTE	W05
	BYTE		N06     Dn1   v056
	BYTE	W06
	BYTE		        Dn1   v068
	BYTE	W06
	BYTE		        Dn1   v080
	BYTE	W06
	BYTE		N06   
	BYTE	W12
	BYTE		        Dn1   v032
	BYTE	W36
	BYTE	PEND
// 013   ----------------------------------------
song012D_10_013:
	BYTE		N06     Dn1   v032
	BYTE	W12
	BYTE		N06   
	BYTE	W12
	BYTE		N02   
	BYTE	W02
	BYTE		        Dn1   v044
	BYTE	W02
	BYTE		N02   
	BYTE	W02
	BYTE		        Dn1   v056
	BYTE	W03
	BYTE		        Dn1   v068
	BYTE	W03
	BYTE		N06     Dn1   v080
	BYTE	W06
	BYTE		        Dn1   v032
	BYTE	W06
	BYTE		        Dn1   v056
	BYTE	W12
	BYTE		        Dn1   v068
	BYTE	W06
	BYTE		        Dn1   v032
	BYTE	W06
	BYTE		        Dn1   v044
	BYTE	W12
	BYTE		        Dn1   v080
	BYTE		N04     Cs2   v088
	BYTE	W06
	BYTE		N06     Dn1   v032
	BYTE		N06     Cs2   v092
	BYTE	W06
	BYTE	PEND
// 014   ----------------------------------------
	BYTE	PATT
	 POIN2	song012D_10_012
// 015   ----------------------------------------
	BYTE	PATT
	 POIN2	song012D_10_013
// 016   ----------------------------------------
	BYTE	PATT
	 POIN2	song012D_10_012
// 017   ----------------------------------------
	BYTE	PATT
	 POIN2	song012D_10_013
// 018   ----------------------------------------
song012D_10_018:
	BYTE		N06     Dn1   v056
	BYTE		N24     Cs2   v116
	BYTE		N96     An2   v092
	BYTE	W12
	BYTE		N06     Dn1   v056
	BYTE	W12
	BYTE		N01     Dn1   v032
	BYTE	W01
	BYTE		N04     Dn1   v044
	BYTE	W05
	BYTE		N06     Dn1   v056
	BYTE	W06
	BYTE		        Dn1   v068
	BYTE	W06
	BYTE		        Dn1   v080
	BYTE	W06
	BYTE		N06   
	BYTE	W12
	BYTE		        Dn1   v032
	BYTE	W36
	BYTE	PEND
// 019   ----------------------------------------
	BYTE	PATT
	 POIN2	song012D_10_013
// 020   ----------------------------------------
	BYTE	PATT
	 POIN2	song012D_10_012
// 021   ----------------------------------------
	BYTE	PATT
	 POIN2	song012D_10_013
// 022   ----------------------------------------
	BYTE	PATT
	 POIN2	song012D_10_012
// 023   ----------------------------------------
	BYTE	PATT
	 POIN2	song012D_10_013
// 024   ----------------------------------------
	BYTE	PATT
	 POIN2	song012D_10_012
// 025   ----------------------------------------
song012D_10_025:
	BYTE		N06     Dn1   v032
	BYTE		N96     En2   v116
	BYTE	W12
	BYTE		N06     Dn1   v032
	BYTE	W12
	BYTE		N02   
	BYTE	W02
	BYTE		        Dn1   v044
	BYTE	W02
	BYTE		N02   
	BYTE	W02
	BYTE		        Dn1   v056
	BYTE	W03
	BYTE		        Dn1   v068
	BYTE	W03
	BYTE		N06     Dn1   v080
	BYTE	W06
	BYTE		        Dn1   v032
	BYTE	W06
	BYTE		        Dn1   v056
	BYTE	W12
	BYTE		        Dn1   v068
	BYTE	W06
	BYTE		        Dn1   v032
	BYTE	W06
	BYTE		        Dn1   v044
	BYTE	W12
	BYTE		        Dn1   v080
	BYTE		N04     Cs2   v088
	BYTE	W06
	BYTE		N06     Dn1   v032
	BYTE		N06     Cs2   v092
	BYTE	W06
	BYTE	PEND
// 026   ----------------------------------------
	BYTE		        Dn1   v056
	BYTE		N24     Cs2   v116
	BYTE		N96     An2   v092
	BYTE	W96
// 027   ----------------------------------------
	BYTE	W84
	BYTE		N04     Cs2   v088
	BYTE	W04
	BYTE		        Cs2   v092
	BYTE	W04
	BYTE		        Cs2   v100
	BYTE	W04
// 028   ----------------------------------------
	BYTE		N24     Cs2   v116
	BYTE		N96     An2   v092
	BYTE	W96
// 029   ----------------------------------------
	BYTE		        En2   v116
	BYTE	W84
	BYTE		N04     Cs2   v088
	BYTE	W04
	BYTE		        Cs2   v092
	BYTE	W04
	BYTE		        Cs2   v100
	BYTE	W04
// 030   ----------------------------------------
	BYTE		N06     Dn1   v056
	BYTE		N24     Cs2   v116
	BYTE		N96     An2   v092
	BYTE	W12
	BYTE		N06     Dn1   v032
	BYTE	W12
	BYTE		N01     Dn1   v044
	BYTE	W01
	BYTE		N04     Dn1   v056
	BYTE	W05
	BYTE		N06     Dn1   v068
	BYTE	W06
	BYTE		        Dn1   v080
	BYTE	W06
	BYTE		N06   
	BYTE	W06
	BYTE		        Dn1   v032
	BYTE	W12
	BYTE		N06   
	BYTE	W36
// 031   ----------------------------------------
	BYTE		N06   
	BYTE	W12
	BYTE		N06   
	BYTE	W12
	BYTE		N02     Dn1   v044
	BYTE	W02
	BYTE		N02   
	BYTE	W02
	BYTE		        Dn1   v056
	BYTE	W02
	BYTE		        Dn1   v068
	BYTE	W03
	BYTE		        Dn1   v080
	BYTE	W03
	BYTE		N06     Dn1   v032
	BYTE	W06
	BYTE		        Dn1   v056
	BYTE	W06
	BYTE		        Dn1   v068
	BYTE	W12
	BYTE		        Dn1   v032
	BYTE	W06
	BYTE		        Dn1   v044
	BYTE	W06
	BYTE		        Dn1   v080
	BYTE	W12
	BYTE		        Dn1   v032
	BYTE		N04     Cs2   v088
	BYTE	W04
	BYTE		        Cs2   v092
	BYTE	W04
	BYTE		        Cs2   v100
	BYTE	W04
// 032   ----------------------------------------
	BYTE	PATT
	 POIN2	song012D_10_018
// 033   ----------------------------------------
	BYTE	PATT
	 POIN2	song012D_10_025
// 034   ----------------------------------------
	BYTE		N06     Dn1   v056
	BYTE		N24     Cs2   v116
	BYTE		N96     An2   v092
	BYTE	W12
	BYTE		N06     Dn1   v056
	BYTE	W12
	BYTE		N01     Dn1   v032
	BYTE	W01
	BYTE		N04     Dn1   v044
	BYTE		N44     Cs2   v088
	BYTE	W05
	BYTE		N06     Dn1   v056
	BYTE	W06
	BYTE		        Dn1   v068
	BYTE	W06
	BYTE		        Dn1   v080
	BYTE	W06
	BYTE		N06   
	BYTE	W12
	BYTE		        Dn1   v032
	BYTE	W12
	BYTE		N24     Cs2   v088
	BYTE	W24
// 035   ----------------------------------------
	BYTE		N06     Dn1   v032
	BYTE		N24     Cs2   v116
	BYTE	W12
	BYTE		N06     Dn1   v032
	BYTE	W12
	BYTE		N02   
	BYTE	W02
	BYTE		        Dn1   v044
	BYTE		N44     Cs2   v088
	BYTE	W02
	BYTE		N02     Dn1   v044
	BYTE	W02
	BYTE		        Dn1   v056
	BYTE	W03
	BYTE		        Dn1   v068
	BYTE	W03
	BYTE		N06     Dn1   v080
	BYTE	W06
	BYTE		        Dn1   v032
	BYTE	W06
	BYTE		        Dn1   v056
	BYTE	W12
	BYTE		        Dn1   v068
	BYTE	W06
	BYTE		        Dn1   v032
	BYTE	W06
	BYTE		        Dn1   v044
	BYTE		N24     Cs2   v088
	BYTE	W12
	BYTE		N06     Dn1   v080
	BYTE	W06
	BYTE		        Dn1   v032
	BYTE	W06
// 036   ----------------------------------------
	BYTE		        Dn1   v056
	BYTE		N24     Cs2   v116
	BYTE	W12
	BYTE		N06     Dn1   v056
	BYTE	W12
	BYTE		N01     Dn1   v032
	BYTE	W01
	BYTE		N04     Dn1   v044
	BYTE		N44     Cs2   v088
	BYTE	W05
	BYTE		N06     Dn1   v056
	BYTE	W06
	BYTE		        Dn1   v068
	BYTE	W06
	BYTE		        Dn1   v080
	BYTE	W06
	BYTE		N06   
	BYTE	W12
	BYTE		        Dn1   v032
	BYTE	W12
	BYTE		N24     Cs2   v088
	BYTE	W24
// 037   ----------------------------------------
	BYTE		N06     Dn1   v032
	BYTE		N24     Cs2   v116
	BYTE		N96     En2 
	BYTE	W12
	BYTE		N06     Dn1   v032
	BYTE	W12
	BYTE		N02   
	BYTE	W02
	BYTE		        Dn1   v044
	BYTE		N44     Cs2   v088
	BYTE	W02
	BYTE		N02     Dn1   v044
	BYTE	W02
	BYTE		        Dn1   v056
	BYTE	W03
	BYTE		        Dn1   v068
	BYTE	W03
	BYTE		N06     Dn1   v080
	BYTE	W06
	BYTE		        Dn1   v032
	BYTE	W06
	BYTE		        Dn1   v056
	BYTE	W12
	BYTE		        Dn1   v068
	BYTE	W06
	BYTE		        Dn1   v032
	BYTE	W06
	BYTE		        Dn1   v044
	BYTE		N24     Cs2   v088
	BYTE	W12
	BYTE		N06     Dn1   v080
	BYTE	W06
	BYTE		        Dn1   v032
	BYTE	W06
	BYTE	GoTo
	 POIN2	song012D_10_B1
song012D_10_B2:
// 038   ----------------------------------------
	BYTE	FINE

//**************** Track 11 (Midi-Chn.12) ****************//

song012D_11:
	BYTE	KEYSH   song012D_key+0
// 000   ----------------------------------------
	BYTE		VOICE   14
	BYTE		MODT    0
	BYTE		LFOS    44
	BYTE		VOL     80*song012D_mvl/mxv
	BYTE		PAN     c_v-2
	BYTE		N96     En3   v080
	BYTE	W01
	BYTE		N92     Bn2   v088
	BYTE	W92
	BYTE	W03
// 001   ----------------------------------------
	BYTE	W96
song012D_11_B1:
// 002   ----------------------------------------
song012D_11_002:
	BYTE		N96     En3   v080
	BYTE	W01
	BYTE		N92     Bn2   v088
	BYTE	W92
	BYTE	W03
	BYTE	PEND
// 003   ----------------------------------------
	BYTE	W96
// 004   ----------------------------------------
	BYTE	PATT
	 POIN2	song012D_11_002
// 005   ----------------------------------------
	BYTE	W96
// 006   ----------------------------------------
	BYTE	PATT
	 POIN2	song012D_11_002
// 007   ----------------------------------------
	BYTE	W96
// 008   ----------------------------------------
	BYTE	PATT
	 POIN2	song012D_11_002
// 009   ----------------------------------------
	BYTE	W96
// 010   ----------------------------------------
	BYTE	PATT
	 POIN2	song012D_11_002
// 011   ----------------------------------------
	BYTE	W96
// 012   ----------------------------------------
	BYTE	PATT
	 POIN2	song012D_11_002
// 013   ----------------------------------------
	BYTE	W96
// 014   ----------------------------------------
	BYTE	PATT
	 POIN2	song012D_11_002
// 015   ----------------------------------------
	BYTE	W96
// 016   ----------------------------------------
	BYTE	PATT
	 POIN2	song012D_11_002
// 017   ----------------------------------------
	BYTE	W96
// 018   ----------------------------------------
	BYTE	PATT
	 POIN2	song012D_11_002
// 019   ----------------------------------------
	BYTE	W96
// 020   ----------------------------------------
	BYTE	PATT
	 POIN2	song012D_11_002
// 021   ----------------------------------------
	BYTE	W96
// 022   ----------------------------------------
	BYTE	PATT
	 POIN2	song012D_11_002
// 023   ----------------------------------------
	BYTE	W96
// 024   ----------------------------------------
	BYTE		N96     En3   v080
	BYTE	W03
	BYTE		N92     Bn2   v088
	BYTE	W92
	BYTE	W01
// 025   ----------------------------------------
	BYTE	W96
// 026   ----------------------------------------
	BYTE	PATT
	 POIN2	song012D_11_002
// 027   ----------------------------------------
	BYTE	W96
// 028   ----------------------------------------
song012D_11_028:
	BYTE		N96     En3   v080
	BYTE	W01
	BYTE		N92     An2   v088
	BYTE	W92
	BYTE	W03
	BYTE	PEND
// 029   ----------------------------------------
	BYTE	PATT
	 POIN2	song012D_11_002
// 030   ----------------------------------------
	BYTE	PATT
	 POIN2	song012D_11_002
// 031   ----------------------------------------
	BYTE	W96
// 032   ----------------------------------------
	BYTE	PATT
	 POIN2	song012D_11_028
// 033   ----------------------------------------
	BYTE	PATT
	 POIN2	song012D_11_002
// 034   ----------------------------------------
	BYTE	W96
// 035   ----------------------------------------
	BYTE	W96
// 036   ----------------------------------------
	BYTE	W96
// 037   ----------------------------------------
	BYTE	W96
	BYTE	GoTo
	 POIN2	song012D_11_B1
song012D_11_B2:
// 038   ----------------------------------------
	BYTE	FINE

//**************** Track 12 (Midi-Chn.13) ****************//

song012D_12:
	BYTE	KEYSH   song012D_key+0
// 000   ----------------------------------------
	BYTE		VOICE   60
	BYTE		MODT    0
	BYTE		LFOS    44
	BYTE		VOL     22*song012D_mvl/mxv
	BYTE		PAN     c_v-44
	BYTE		BEND    c_v+1
	BYTE	W96
// 001   ----------------------------------------
	BYTE	W80
	BYTE		N24     Bn2   v100
	BYTE	W16
song012D_12_B1:
// 002   ----------------------------------------
song012D_12_002:
	BYTE	W08
	BYTE		N72     En2   v100
	BYTE	W72
	BYTE		N24     Dn2 
	BYTE	W16
	BYTE	PEND
// 003   ----------------------------------------
song012D_12_003:
	BYTE	W08
	BYTE		N48     En2   v100
	BYTE	W48
	BYTE		N24     Gn2 
	BYTE	W24
	BYTE		        An2 
	BYTE	W16
	BYTE	PEND
// 004   ----------------------------------------
	BYTE	W08
	BYTE		N90     Dn3 
	BYTE	W88
// 005   ----------------------------------------
song012D_12_005:
	BYTE	W08
	BYTE		N48     Cn3   v100
	BYTE	W48
	BYTE		        An2 
	BYTE	W40
	BYTE	PEND
// 006   ----------------------------------------
	BYTE	W08
	BYTE		N90     Bn2 
	BYTE	W88
// 007   ----------------------------------------
	BYTE	W08
	BYTE		N48     An2 
	BYTE	W48
	BYTE		        Fs2 
	BYTE	W40
// 008   ----------------------------------------
	BYTE	W08
	BYTE		TIE     Gn2 
	BYTE	W88
// 009   ----------------------------------------
	BYTE	W80
	BYTE		EOT   
	BYTE	W16
// 010   ----------------------------------------
	BYTE	W96
// 011   ----------------------------------------
	BYTE	W96
// 012   ----------------------------------------
	BYTE	W96
// 013   ----------------------------------------
	BYTE	W96
// 014   ----------------------------------------
	BYTE	W96
// 015   ----------------------------------------
	BYTE	W96
// 016   ----------------------------------------
	BYTE	W96
// 017   ----------------------------------------
	BYTE	W80
	BYTE		N24     Bn2 
	BYTE	W16
// 018   ----------------------------------------
	BYTE	PATT
	 POIN2	song012D_12_002
// 019   ----------------------------------------
	BYTE	PATT
	 POIN2	song012D_12_003
// 020   ----------------------------------------
	BYTE	W08
	BYTE		N90     Dn3   v100
	BYTE	W88
// 021   ----------------------------------------
	BYTE	PATT
	 POIN2	song012D_12_005
// 022   ----------------------------------------
	BYTE	W08
	BYTE		N90     Bn2   v100
	BYTE	W88
// 023   ----------------------------------------
	BYTE	W08
	BYTE		N48     An2 
	BYTE	W48
	BYTE		        Dn3 
	BYTE	W40
// 024   ----------------------------------------
	BYTE	W08
	BYTE		TIE     En3 
	BYTE	W88
// 025   ----------------------------------------
	BYTE	W80
	BYTE		EOT   
	BYTE	W16
// 026   ----------------------------------------
	BYTE	W96
// 027   ----------------------------------------
	BYTE	W96
// 028   ----------------------------------------
	BYTE	W96
// 029   ----------------------------------------
	BYTE	W96
// 030   ----------------------------------------
	BYTE	W96
// 031   ----------------------------------------
	BYTE	W96
// 032   ----------------------------------------
	BYTE	W96
// 033   ----------------------------------------
	BYTE	W96
// 034   ----------------------------------------
	BYTE	W96
// 035   ----------------------------------------
	BYTE	W96
// 036   ----------------------------------------
	BYTE	W96
// 037   ----------------------------------------
	BYTE	W96
	BYTE	GoTo
	 POIN2	song012D_12_B1
song012D_12_B2:
// 038   ----------------------------------------
	BYTE	FINE

//******************************************************//
	ALIGN 4

song012D:
	BYTE	12	// NumTrks
	BYTE	0	// NumBlks
	BYTE	song012D_pri	// Priority
	BYTE	song012D_rev	// Reverb.

	POIN2	song012D_grp

	POIN2	song012D_1
	POIN2	song012D_2
	POIN2	song012D_3
	POIN2	song012D_4
	POIN2	song012D_5
	POIN2	song012D_6
	POIN2	song012D_7
	POIN2	song012D_8
	POIN2	song012D_9
	POIN2	song012D_10
	POIN2	song012D_11
	POIN2	song012D_12

	
