//Event file generated from Sappy .s format.
	#include "MPlayDef.event"

	#define	Anakin_grp  voicegroup000
	#define	Anakin_pri  0
	#define	Anakin_rev  192 //0xC0
	#define	Anakin_mvl  127
	#define	Anakin_key  0
	#define	Anakin_tbs  1
	#define	Anakin_exg  0
	#define	Anakin_cmp  1

	// .rodata
	//	Anakin
	ALIGN 4


//**************** Track 1 (Midi-Chn.0) ****************//

Anakin_001:
// 000   ----------------------------------------
 BYTE   KEYSH   Anakin_key+0
 BYTE   TEMPO   94*Anakin_tbs/2
 BYTE   VOICE   68
 BYTE   VOL   22*Anakin_mvl/mxv
 BYTE   PAN   c_v-2
 BYTE   W09
 BYTE   TEMPO   92*Anakin_tbs/2
 BYTE   W01
 BYTE   TEMPO   92*Anakin_tbs/2
 BYTE   W08
 BYTE   TEMPO   90*Anakin_tbs/2
 BYTE   W08
 BYTE   TEMPO   88*Anakin_tbs/2
 BYTE   W01
 BYTE   TEMPO   88*Anakin_tbs/2
 BYTE   W07
 BYTE   TEMPO   86*Anakin_tbs/2
 BYTE   W01
 BYTE   TEMPO   86*Anakin_tbs/2
 BYTE   W06
 BYTE   TEMPO   86*Anakin_tbs/2
 BYTE   W01
 BYTE   TEMPO   84*Anakin_tbs/2
 BYTE   W06
 BYTE   TEMPO   84*Anakin_tbs/2
 BYTE   W01
 BYTE   TEMPO   82*Anakin_tbs/2
 BYTE   W06
 BYTE   TEMPO   82*Anakin_tbs/2
 BYTE   W01
 BYTE   TEMPO   82*Anakin_tbs/2
 BYTE   W05
 BYTE   TEMPO   80*Anakin_tbs/2
 BYTE   W01
 BYTE   TEMPO   80*Anakin_tbs/2
 BYTE   W05
 BYTE   TEMPO   80*Anakin_tbs/2
 BYTE   W01
 BYTE   TEMPO   78*Anakin_tbs/2
 BYTE   W05
 BYTE   TEMPO   76*Anakin_tbs/2
 BYTE   W01
 BYTE   TEMPO   76*Anakin_tbs/2
 BYTE   W05
 BYTE   TEMPO   74*Anakin_tbs/2
 BYTE   W01
 BYTE   TEMPO   74*Anakin_tbs/2
 BYTE   W04
 BYTE   TEMPO   74*Anakin_tbs/2
 BYTE   W01
 BYTE   TEMPO   72*Anakin_tbs/2
 BYTE   W04
 BYTE   TEMPO   72*Anakin_tbs/2
 BYTE   W01
 BYTE   TEMPO   72*Anakin_tbs/2
 BYTE   W04
 BYTE   TEMPO   50*Anakin_tbs/2
 BYTE   W01
 BYTE   TEMPO   40*Anakin_tbs/2
 BYTE   W01
// 001   ----------------------------------------
Label_0_0136869C:
 BYTE   TEMPO   82*Anakin_tbs/2
 BYTE   VOL   29*Anakin_mvl/mxv
 BYTE   N24  Bn3  v120
 BYTE   W05
 BYTE   TEMPO   86*Anakin_tbs/2
 BYTE   W05
 BYTE   TEMPO   88*Anakin_tbs/2
 BYTE   W01
 BYTE   TEMPO   88*Anakin_tbs/2
 BYTE   W04
 BYTE   TEMPO   88*Anakin_tbs/2
 BYTE   W01
 BYTE   TEMPO   88*Anakin_tbs/2
 BYTE   W04
 BYTE   TEMPO   88*Anakin_tbs/2
 BYTE   W01
 BYTE   TEMPO   90*Anakin_tbs/2
 BYTE   W03
 BYTE   TEMPO   90*Anakin_tbs/2
 BYTE   N18  Bn4
 BYTE   W18
 BYTE   N03  As4
 BYTE   W03
 BYTE   Bn4
 BYTE   W03
 BYTE   N12  As4
 BYTE   W12
 BYTE   Gs4
 BYTE   W12
 BYTE   Fs4
 BYTE   W12
 BYTE   En4
 BYTE   W12
// 002   ----------------------------------------
Label_0_013686CC:
 BYTE   N24  Fs4  v120
 BYTE   W24
 BYTE   N12  En4
 BYTE   W12
 BYTE   Ds4
 BYTE   W12
 BYTE   Cs4
 BYTE   W12
 BYTE   Ds4
 BYTE   W12
 BYTE   N21  Cs4
 BYTE   W24
 BYTE   PEND 
// 003   ----------------------------------------
Label_0_013686DD:
 BYTE   N24  Bn3  v120
 BYTE   W24
 BYTE   N18  Bn4
 BYTE   W18
 BYTE   N03  As4
 BYTE   W03
 BYTE   Bn4
 BYTE   W03
 BYTE   N12  As4
 BYTE   W12
 BYTE   Bn4
 BYTE   W12
 BYTE   Cs5
 BYTE   W12
 BYTE   Ds5
 BYTE   W12
 BYTE   PEND 
// 004   ----------------------------------------
Label_0_013686F3:
 BYTE   N66  Bn4  v120
 BYTE   W72
 BYTE   N12
 BYTE   W12
 BYTE   As4
 BYTE   W12
 BYTE   PEND 
// 005   ----------------------------------------
Label_0_013686FC:
 BYTE   TIE  Bn4  v112
 BYTE   W72
 BYTE   VOL   28*Anakin_mvl/mxv
 BYTE   W01
 BYTE   En0
 BYTE   W01
 BYTE   Ds0
 BYTE   W01
 BYTE   Ds0
 BYTE   W01
 BYTE   Ds0
 BYTE   W01
 BYTE   Dn0
 BYTE   W01
 BYTE   Dn0
 BYTE   W01
 BYTE   Cs0
 BYTE   W01
 BYTE   Cs0
 BYTE   W01
 BYTE   Cs0
 BYTE   W01
 BYTE   Cn0
 BYTE   W01
 BYTE   Cn0
 BYTE   W01
 BYTE   BnM1
 BYTE   W01
 BYTE   BnM1
 BYTE   W01
 BYTE   BnM1
 BYTE   W01
 BYTE   AsM1
 BYTE   W01
 BYTE   AsM1
 BYTE   W01
 BYTE   AsM1
 BYTE   W01
 BYTE   AnM1
 BYTE   W01
 BYTE   GsM1
 BYTE   W01
 BYTE   GsM1
 BYTE   W01
 BYTE   GsM1
 BYTE   W01
 BYTE   GnM1
 BYTE   W01
 BYTE   GnM1
 BYTE   W01
 BYTE   PEND 
// 006   ----------------------------------------
Label_0_01368732:
 BYTE   VOL   18*Anakin_mvl/mxv
 BYTE   W01
 BYTE   FsM1
 BYTE   W01
 BYTE   FsM1
 BYTE   W01
 BYTE   FnM1
 BYTE   W01
 BYTE   FnM1
 BYTE   W01
 BYTE   FnM1
 BYTE   W01
 BYTE   EnM1
 BYTE   W01
 BYTE   EnM1
 BYTE   W01
 BYTE   EnM1
 BYTE   W01
 BYTE   DsM1
 BYTE   W01
 BYTE   DsM1
 BYTE   W01
 BYTE   DnM1
 BYTE   W01
 BYTE   CsM1
 BYTE   W01
 BYTE   CsM1
 BYTE   W01
 BYTE   CsM1
 BYTE   W01
 BYTE   CnM1
 BYTE   W01
 BYTE   CnM1
 BYTE   W01
 BYTE   CnM1
 BYTE   W01
 BYTE   BnM2
 BYTE   W01
 BYTE   BnM2
 BYTE   W01
 BYTE   BnM2
 BYTE   W01
 BYTE   AsM2
 BYTE   W01
 BYTE   AsM2
 BYTE   W01
 BYTE   AnM2
 BYTE   W01
 BYTE   AnM2
 BYTE   W01
 BYTE   AnM2
 BYTE   W01
 BYTE   GsM2
 BYTE   W01
 BYTE   GsM2
 BYTE   W01
 BYTE   GnM2
 BYTE   W01
 BYTE   GnM2
 BYTE   W01
 BYTE   FsM2
 BYTE   W01
 BYTE   FsM2
 BYTE   W01
 BYTE   FsM2
 BYTE   W01
 BYTE   FnM2
 BYTE   W01
 BYTE   FnM2
 BYTE   W01
 BYTE   EnM2
 BYTE   W01
 BYTE   EnM2
 BYTE   W01
 BYTE   EnM2
 BYTE   W01
 BYTE   DsM2
 BYTE   W01
 BYTE   DsM2
 BYTE   W01
 BYTE   DnM2
 BYTE   W01
 BYTE   DnM2
 BYTE   W01
 BYTE   DnM2
 BYTE   W01
 BYTE   CsM2
 BYTE   W01
 BYTE   CsM2
 BYTE   W01
 BYTE   CnM2
 BYTE   W01
 BYTE   CnM2
 BYTE   W01
 BYTE   CnM2
 BYTE   W01
 BYTE   PEND 
 BYTE   EOT
 BYTE   Bn4
 BYTE   VOL   0*Anakin_mvl/mxv
 BYTE   W48
// 007   ----------------------------------------
 BYTE   Fn0
 BYTE   W96
// 008   ----------------------------------------
 BYTE   W96
// 009   ----------------------------------------
Label_0_0136879C:
 BYTE   N24  Bn3  v120
 BYTE   W24
 BYTE   N18  Bn4
 BYTE   W18
 BYTE   N03  As4
 BYTE   W03
 BYTE   Bn4
 BYTE   W03
 BYTE   N12  As4
 BYTE   W12
 BYTE   Gs4
 BYTE   W12
 BYTE   Fs4
 BYTE   W12
 BYTE   En4
 BYTE   W12
 BYTE   PEND 
// 010   ----------------------------------------
 BYTE   PATT
  POIN2 Label_0_013686CC
// 011   ----------------------------------------
 BYTE   PATT
  POIN2 Label_0_013686DD
// 012   ----------------------------------------
 BYTE   PATT
  POIN2 Label_0_013686F3
// 013   ----------------------------------------
 BYTE   PATT
  POIN2 Label_0_013686FC
// 014   ----------------------------------------
 BYTE   PATT
  POIN2 Label_0_01368732
// 015   ----------------------------------------
 BYTE   EOT
 BYTE   Bn4
 BYTE   VOL   0*Anakin_mvl/mxv
 BYTE   W48
 BYTE   Fn0
 BYTE   W96
// 016   ----------------------------------------
 BYTE   W96
// 017   ----------------------------------------
 BYTE   W96
// 018   ----------------------------------------
 BYTE   W96
// 019   ----------------------------------------
 BYTE   W96
// 020   ----------------------------------------
 BYTE   W96
// 021   ----------------------------------------
 BYTE   W96
// 022   ----------------------------------------
 BYTE   W72
 BYTE   N24  As3  v112
 BYTE   W24
// 023   ----------------------------------------
 BYTE   GoTo
  POIN2 Label_0_0136869C
// 024   ----------------------------------------
 BYTE   PATT
  POIN2 Label_0_0136879C
// 025   ----------------------------------------
 BYTE   W10
 BYTE   FINE

//**************** Track 2 (Midi-Chn.1) ****************//

Anakin_002:
// 000   ----------------------------------------
 BYTE   KEYSH   Anakin_key+0
 BYTE   VOICE   71
 BYTE   VOL   26*Anakin_mvl/mxv
 BYTE   PAN   c_v+0
 BYTE   W96
// 001   ----------------------------------------
Label_1_0130EE69:
 BYTE   W96
// 002   ----------------------------------------
 BYTE   W96
// 003   ----------------------------------------
 BYTE   W96
// 004   ----------------------------------------
 BYTE   W96
// 005   ----------------------------------------
 BYTE   W96
// 006   ----------------------------------------
 BYTE   W96
// 007   ----------------------------------------
 BYTE   W96
// 008   ----------------------------------------
 BYTE   W96
// 009   ----------------------------------------
 BYTE   W96
// 010   ----------------------------------------
 BYTE   W96
// 011   ----------------------------------------
 BYTE   W96
// 012   ----------------------------------------
 BYTE   W96
// 013   ----------------------------------------
 BYTE   W96
// 014   ----------------------------------------
 BYTE   W96
// 015   ----------------------------------------
 BYTE   W96
// 016   ----------------------------------------
 BYTE   W72
 BYTE   N24  En3  v100
 BYTE   W24
// 017   ----------------------------------------
 BYTE   N06  Fs3  v112
 BYTE   W12
 BYTE   N06
 BYTE   W06
 BYTE   Gn3
 BYTE   W06
 BYTE   Fs3
 BYTE   W12
 BYTE   En3
 BYTE   W12
 BYTE   N54  Fs3  v100
 BYTE   W48
// 018   ----------------------------------------
 BYTE   W12
 BYTE   N12
 BYTE   W12
 BYTE   N06  Bn3  v112
 BYTE   W12
 BYTE   Fs3  v100
 BYTE   W12
 BYTE   N12  Fs3  v092
 BYTE   W12
 BYTE   N06  En3
 BYTE   W12
 BYTE   N12  Fs3
 BYTE   W24
// 019   ----------------------------------------
 BYTE   N72  Bn2  v100
 BYTE   W72
 BYTE   N24  Bn2  v080
 BYTE   N24  Cs3  v100
 BYTE   W24
// 020   ----------------------------------------
 BYTE   N48  An2  v072
 BYTE   N48  Dn3  v100
 BYTE   W48
 BYTE   Gn2  v072
 BYTE   N48  En3  v100
 BYTE   W48
// 021   ----------------------------------------
 BYTE   N96  Gn2  v072
 BYTE   N96  Bn2  v092
 BYTE   W96
// 022   ----------------------------------------
 BYTE   N48  Fs2  v052
 BYTE   N96  As2
 BYTE   W48
 BYTE   N48  Gn2
 BYTE   W48
// 023   ----------------------------------------
 BYTE   GoTo
  POIN2 Label_1_0130EE69
// 024   ----------------------------------------
 BYTE   N12  Gs2  v052
 BYTE   N12  Bn2
 BYTE   W96
// 025   ----------------------------------------
 BYTE   W10
 BYTE   FINE

//**************** Track 3 (Midi-Chn.2) ****************//

Anakin_003:
// 000   ----------------------------------------
 BYTE   KEYSH   Anakin_key+0
 BYTE   VOICE   48
 BYTE   VOL   23*Anakin_mvl/mxv
 BYTE   PAN   c_v-14
 BYTE   W96
// 001   ----------------------------------------
Label_2_0130EC0D:
 BYTE   W96
// 002   ----------------------------------------
 BYTE   W96
// 003   ----------------------------------------
 BYTE   W96
// 004   ----------------------------------------
 BYTE   W96
// 005   ----------------------------------------
Label_2_0130EC11:
 BYTE   N24  Bn4  v112
 BYTE   W24
 BYTE   Fs4
 BYTE   W24
 BYTE   Gs4
 BYTE   W24
 BYTE   En4
 BYTE   W24
 BYTE   PEND 
// 006   ----------------------------------------
Label_2_0130EC1C:
 BYTE   N24  Ds4  v112
 BYTE   W24
 BYTE   Fs4
 BYTE   W24
 BYTE   Gs4
 BYTE   W24
 BYTE   As4
 BYTE   W24
 BYTE   PEND 
// 007   ----------------------------------------
Label_2_0130EC27:
 BYTE   N24  Bn4  v112
 BYTE   W24
 BYTE   Fs4  v092
 BYTE   N24  Ds5  v112
 BYTE   W24
 BYTE   Gs4  v092
 BYTE   N24  En5  v112
 BYTE   W24
 BYTE   En4  v092
 BYTE   N24  Cs5  v112
 BYTE   W24
 BYTE   PEND 
// 008   ----------------------------------------
 BYTE   Fs4  v092
 BYTE   N24  Bn4  v112
 BYTE   W24
 BYTE   Ds4
 BYTE   W24
 BYTE   En4
 BYTE   W24
 BYTE   Cs4
 BYTE   W24
// 009   ----------------------------------------
 BYTE   N48  Bn3  v100
 BYTE   W96
// 010   ----------------------------------------
 BYTE   W96
// 011   ----------------------------------------
 BYTE   W96
// 012   ----------------------------------------
 BYTE   W96
// 013   ----------------------------------------
 BYTE   PATT
  POIN2 Label_2_0130EC11
// 014   ----------------------------------------
 BYTE   PATT
  POIN2 Label_2_0130EC1C
// 015   ----------------------------------------
 BYTE   PATT
  POIN2 Label_2_0130EC27
// 016   ----------------------------------------
 BYTE   N24  Fs4  v092
 BYTE   N24  Bn4  v112
 BYTE   W24
 BYTE   Ds4
 BYTE   W24
 BYTE   En4
 BYTE   W24
 BYTE   N21  Cs4
 BYTE   W24
// 017   ----------------------------------------
 BYTE   W96
// 018   ----------------------------------------
 BYTE   W96
// 019   ----------------------------------------
 BYTE   W96
// 020   ----------------------------------------
 BYTE   W96
// 021   ----------------------------------------
 BYTE   W96
// 022   ----------------------------------------
 BYTE   W96
// 023   ----------------------------------------
 BYTE   GoTo
  POIN2 Label_2_0130EC0D
// 024   ----------------------------------------
 BYTE   W96
// 025   ----------------------------------------
 BYTE   W10
 BYTE   FINE

//**************** Track 4 (Midi-Chn.3) ****************//

Anakin_004:
// 000   ----------------------------------------
 BYTE   KEYSH   Anakin_key+0
 BYTE   VOICE   48
 BYTE   VOL   26*Anakin_mvl/mxv
 BYTE   PAN   c_v-4
 BYTE   W96
// 001   ----------------------------------------
Label_3_0130F605:
 BYTE   N48  Gs3  v092
 BYTE   N48  Bn3
 BYTE   W48
 BYTE   As3
 BYTE   N48  Cs4
 BYTE   W48
// 002   ----------------------------------------
Label_3_0130F60F:
 BYTE   N48  Bn3  v092
 BYTE   N48  Ds4
 BYTE   W48
 BYTE   N24  As3
 BYTE   N24  Cs4
 BYTE   W24
 BYTE   Gn3
 BYTE   N24  As3
 BYTE   W24
 BYTE   PEND 
// 003   ----------------------------------------
Label_3_0130F61F:
 BYTE   N48  Gs3  v092
 BYTE   N48  Bn3
 BYTE   W48
 BYTE   Fs3
 BYTE   N48  As3
 BYTE   W48
 BYTE   PEND 
// 004   ----------------------------------------
 BYTE   N96  Gs3
 BYTE   N96  Bn3
 BYTE   W96
// 005   ----------------------------------------
Label_3_0130F62F:
 BYTE   N48  Fs3  v092
 BYTE   TIE  Bn3
 BYTE   W48
 BYTE   N48  Gs3
 BYTE   W48
 BYTE   PEND 
// 006   ----------------------------------------
Label_3_0130F639:
 BYTE   N48  Fs3  v092
 BYTE   W48
 BYTE   En3
 BYTE   W48
 BYTE   PEND 
// 007   ----------------------------------------
 BYTE   EOT
 BYTE   Bn3
Label_3_0130F642:
 BYTE   N48  Fs3  v092
 BYTE   N96  Bn3
 BYTE   W48
 BYTE   N48  Gs3
 BYTE   W48
 BYTE   PEND 
// 008   ----------------------------------------
Label_3_0130F64C:
 BYTE   N48  Fs3  v092
 BYTE   N24  Bn3
 BYTE   W24
 BYTE   Bn3  v100
 BYTE   W24
 BYTE   N48  En3  v092
 BYTE   N24  Cs4  v100
 BYTE   W24
 BYTE   Gs3
 BYTE   W24
 BYTE   PEND 
// 009   ----------------------------------------
 BYTE   N48
 BYTE   N48  Bn3
 BYTE   W48
 BYTE   Fs3
 BYTE   N48  Cs4
 BYTE   W48
// 010   ----------------------------------------
 BYTE   PATT
  POIN2 Label_3_0130F60F
// 011   ----------------------------------------
 BYTE   PATT
  POIN2 Label_3_0130F61F
// 012   ----------------------------------------
 BYTE   N96  Gs3  v092
 BYTE   N96  Bn3
 BYTE   W96
// 013   ----------------------------------------
 BYTE   PATT
  POIN2 Label_3_0130F62F
// 014   ----------------------------------------
 BYTE   PATT
  POIN2 Label_3_0130F639
// 015   ----------------------------------------
 BYTE   EOT
 BYTE   Bn3
// 016   ----------------------------------------
 BYTE   PATT
  POIN2 Label_3_0130F642
// 017   ----------------------------------------
 BYTE   PATT
  POIN2 Label_3_0130F64C
// 018   ----------------------------------------
 BYTE   W96
// 019   ----------------------------------------
 BYTE   W96
// 020   ----------------------------------------
 BYTE   W96
// 021   ----------------------------------------
 BYTE   W96
// 022   ----------------------------------------
 BYTE   W96
// 023   ----------------------------------------
 BYTE   W96
// 024   ----------------------------------------
 BYTE   GoTo
  POIN2 Label_3_0130F605
// 025   ----------------------------------------
 BYTE   N42  Gs3  v092
 BYTE   N48  Bn3
 BYTE   W48
 BYTE   As3
 BYTE   N48  Cs4
 BYTE   W48
// 026   ----------------------------------------
 BYTE   W10
 BYTE   FINE

//**************** Track 5 (Midi-Chn.4) ****************//

Anakin_005:
// 000   ----------------------------------------
 BYTE   KEYSH   Anakin_key+0
 BYTE   VOICE   48
 BYTE   VOL   26*Anakin_mvl/mxv
 BYTE   PAN   c_v+12
 BYTE   W96
// 001   ----------------------------------------
Label_4_0130EEE1:
 BYTE   W96
// 002   ----------------------------------------
 BYTE   W96
// 003   ----------------------------------------
 BYTE   W96
// 004   ----------------------------------------
 BYTE   W96
// 005   ----------------------------------------
 BYTE   W96
// 006   ----------------------------------------
 BYTE   W96
// 007   ----------------------------------------
 BYTE   W96
// 008   ----------------------------------------
 BYTE   W48
 BYTE   N24  En1  v112
 BYTE   N48  Gs2
 BYTE   W24
 BYTE   N24  Bn1
 BYTE   W24
// 009   ----------------------------------------
 BYTE   N48  Gs1  v120
 BYTE   N48  Gs2  v112
 BYTE   W48
 BYTE   Fs1  v120
 BYTE   N48  As2  v112
 BYTE   W48
// 010   ----------------------------------------
 BYTE   Bn1  v120
 BYTE   N48  Fs2  v112
 BYTE   W48
 BYTE   As1  v120
 BYTE   N24  Gn2  v112
 BYTE   W24
 BYTE   En2
 BYTE   W24
// 011   ----------------------------------------
 BYTE   N48  Gs1  v120
 BYTE   N48  Ds2  v112
 BYTE   W48
 BYTE   Fs1  v120
 BYTE   N48  Ds2  v112
 BYTE   W48
// 012   ----------------------------------------
 BYTE   En1  v120
 BYTE   N24  Gs2
 BYTE   W24
 BYTE   As2
 BYTE   W24
 BYTE   N48  Fs1
 BYTE   N24  Bn2
 BYTE   W24
 BYTE   N12  Ds3
 BYTE   W12
 BYTE   Cs3
 BYTE   W12
// 013   ----------------------------------------
Label_4_0130EF2B:
 BYTE   N48  Bn1  v120
 BYTE   N48  Bn2  v112
 BYTE   W48
 BYTE   En1  v120
 BYTE   N48  En2  v112
 BYTE   W48
 BYTE   PEND 
// 014   ----------------------------------------
 BYTE   PATT
  POIN2 Label_4_0130EF2B
// 015   ----------------------------------------
 BYTE   PATT
  POIN2 Label_4_0130EF2B
// 016   ----------------------------------------
 BYTE   N48  Bn1  v120
 BYTE   N48  Bn2  v112
 BYTE   W48
 BYTE   N44  En1  v120
 BYTE   N44  En2  v112
 BYTE   W48
// 017   ----------------------------------------
 BYTE   W96
// 018   ----------------------------------------
 BYTE   W96
// 019   ----------------------------------------
 BYTE   W96
// 020   ----------------------------------------
 BYTE   W96
// 021   ----------------------------------------
 BYTE   W96
// 022   ----------------------------------------
 BYTE   W96
// 023   ----------------------------------------
 BYTE   GoTo
  POIN2 Label_4_0130EEE1
// 024   ----------------------------------------
 BYTE   W96
// 025   ----------------------------------------
 BYTE   W10
 BYTE   FINE

//**************** Track 6 (Midi-Chn.5) ****************//

Anakin_006:
// 000   ----------------------------------------
 BYTE   KEYSH   Anakin_key+0
 BYTE   VOICE   70
 BYTE   VOL   29*Anakin_mvl/mxv
 BYTE   PAN   c_v+4
 BYTE   W96
// 001   ----------------------------------------
Label_5_0130F85D:
 BYTE   N08  Gs1  v100
 BYTE   W12
 BYTE   N06  Ds2
 BYTE   W12
 BYTE   N08  Bn2
 BYTE   W24
 BYTE   Fs1
 BYTE   W12
 BYTE   N06  Cs2
 BYTE   W12
 BYTE   N08  As2
 BYTE   W24
 BYTE   PEND 
// 002   ----------------------------------------
Label_5_0130F870:
 BYTE   N08  Bn1  v100
 BYTE   W12
 BYTE   N06  Fs2
 BYTE   W12
 BYTE   Ds3
 BYTE   W12
 BYTE   Fs2
 BYTE   W12
 BYTE   N08  As1
 BYTE   W12
 BYTE   N06  Gn2
 BYTE   W12
 BYTE   Cs3
 BYTE   W12
 BYTE   Gn2
 BYTE   W12
 BYTE   PEND 
// 003   ----------------------------------------
Label_5_0130F886:
 BYTE   N08  Gs1  v100
 BYTE   W12
 BYTE   N06  Ds2
 BYTE   W12
 BYTE   N08  Bn2
 BYTE   W24
 BYTE   Fs1
 BYTE   W12
 BYTE   N06  Ds2
 BYTE   W12
 BYTE   N08  As2
 BYTE   W24
 BYTE   PEND 
// 004   ----------------------------------------
Label_5_0130F899:
 BYTE   N08  En1  v100
 BYTE   W12
 BYTE   N06  Bn1
 BYTE   W12
 BYTE   Gs2
 BYTE   W12
 BYTE   Bn1
 BYTE   W12
 BYTE   N08  Fs1
 BYTE   W12
 BYTE   N06  Cs2
 BYTE   W12
 BYTE   Gs2
 BYTE   W12
 BYTE   As2
 BYTE   W12
 BYTE   PEND 
// 005   ----------------------------------------
Label_5_0130F8AF:
 BYTE   N08  Bn0  v100
 BYTE   W12
 BYTE   N06  Fs1
 BYTE   W12
 BYTE   Ds2
 BYTE   W12
 BYTE   Fs1
 BYTE   W12
 BYTE   N08  En1
 BYTE   W12
 BYTE   N06  Bn1
 BYTE   W12
 BYTE   En2
 BYTE   W12
 BYTE   Bn1
 BYTE   W12
 BYTE   PEND 
// 006   ----------------------------------------
 BYTE   PATT
  POIN2 Label_5_0130F8AF
// 007   ----------------------------------------
 BYTE   PATT
  POIN2 Label_5_0130F8AF
// 008   ----------------------------------------
 BYTE   PATT
  POIN2 Label_5_0130F8AF
// 009   ----------------------------------------
 BYTE   PATT
  POIN2 Label_5_0130F85D
// 010   ----------------------------------------
 BYTE   PATT
  POIN2 Label_5_0130F870
// 011   ----------------------------------------
 BYTE   PATT
  POIN2 Label_5_0130F886
// 012   ----------------------------------------
 BYTE   PATT
  POIN2 Label_5_0130F899
// 013   ----------------------------------------
 BYTE   PATT
  POIN2 Label_5_0130F8AF
// 014   ----------------------------------------
 BYTE   PATT
  POIN2 Label_5_0130F8AF
// 015   ----------------------------------------
 BYTE   PATT
  POIN2 Label_5_0130F8AF
// 016   ----------------------------------------
 BYTE   PATT
  POIN2 Label_5_0130F8AF
// 017   ----------------------------------------
Label_5_0130F8FC:
 BYTE   N08  Gn1  v100
 BYTE   W12
 BYTE   N06  Dn2
 BYTE   W12
 BYTE   N08  Bn2
 BYTE   W24
 BYTE   Gn1
 BYTE   W12
 BYTE   N06  Dn2
 BYTE   W12
 BYTE   N08  Bn2
 BYTE   W24
 BYTE   PEND 
// 018   ----------------------------------------
 BYTE   An1
 BYTE   W12
 BYTE   N06  En2
 BYTE   W12
 BYTE   N08  Cs3
 BYTE   W24
 BYTE   Dn2
 BYTE   W12
 BYTE   N06  An2
 BYTE   W12
 BYTE   N08  Fs3
 BYTE   W24
// 019   ----------------------------------------
 BYTE   PATT
  POIN2 Label_5_0130F8FC
// 020   ----------------------------------------
 BYTE   N08  An1  v100
 BYTE   W12
 BYTE   N06  En2
 BYTE   W12
 BYTE   N08  Cs3
 BYTE   W24
 BYTE   An1
 BYTE   W12
 BYTE   N06  En2
 BYTE   W12
 BYTE   N08  Cs3
 BYTE   W24
// 021   ----------------------------------------
 BYTE   PATT
  POIN2 Label_5_0130F8FC
// 022   ----------------------------------------
 BYTE   N08  Fs1  v100
 BYTE   W12
 BYTE   N06  Cs2
 BYTE   W12
 BYTE   N08  As2
 BYTE   W24
 BYTE   Ds1
 BYTE   W12
 BYTE   N06  As1
 BYTE   W12
 BYTE   N08  Gn2
 BYTE   W24
// 023   ----------------------------------------
 BYTE   GoTo
  POIN2 Label_5_0130F85D
// 024   ----------------------------------------
 BYTE   PATT
  POIN2 Label_5_0130F85D
// 025   ----------------------------------------
 BYTE   W10
 BYTE   FINE

//**************** Track 7 (Midi-Chn.6) ****************//

Anakin_007:
// 000   ----------------------------------------
 BYTE   KEYSH   Anakin_key+0
 BYTE   VOICE   45
 BYTE   VOL   23*Anakin_mvl/mxv
 BYTE   PAN   c_v-4
 BYTE   W12
 BYTE   N12  Bn2  v100
 BYTE   N12  Ds3  v112
 BYTE   W12
 BYTE   Ds3  v100
 BYTE   N12  Fs3  v112
 BYTE   W12
 BYTE   Bn3  v100
 BYTE   N12  Ds4  v112
 BYTE   W12
 BYTE   Fs3  v100
 BYTE   N12  Cs4  v112
 BYTE   W12
 BYTE   Fs3  v100
 BYTE   N12  Bn3  v112
 BYTE   W12
 BYTE   Fs3  v100
 BYTE   N12  As3  v112
 BYTE   W12
 BYTE   En3  v100
 BYTE   N12  Gs3  v112
 BYTE   W12
// 001   ----------------------------------------
Label_6_0130EB7C:
 BYTE   W96
// 002   ----------------------------------------
 BYTE   W96
// 003   ----------------------------------------
 BYTE   W96
// 004   ----------------------------------------
 BYTE   W96
// 005   ----------------------------------------
 BYTE   W96
// 006   ----------------------------------------
 BYTE   W96
// 007   ----------------------------------------
 BYTE   W96
// 008   ----------------------------------------
 BYTE   W96
// 009   ----------------------------------------
 BYTE   W96
// 010   ----------------------------------------
 BYTE   W96
// 011   ----------------------------------------
 BYTE   W96
// 012   ----------------------------------------
 BYTE   W96
// 013   ----------------------------------------
 BYTE   W96
// 014   ----------------------------------------
 BYTE   W96
// 015   ----------------------------------------
 BYTE   W96
// 016   ----------------------------------------
 BYTE   W96
// 017   ----------------------------------------
 BYTE   N12  Fs4  v112
 BYTE   N12  Bn4  v120
 BYTE   W24
 BYTE   Cs4  v112
 BYTE   N12  Fs4  v120
 BYTE   W24
 BYTE   Cs4  v112
 BYTE   N12  En4  v120
 BYTE   W48
// 018   ----------------------------------------
 BYTE   W24
 BYTE   En4  v112
 BYTE   N12  An4  v120
 BYTE   W24
 BYTE   Gn3  v112
 BYTE   N12  Cs4  v120
 BYTE   W24
 BYTE   Fs3  v112
 BYTE   N12  Dn4  v120
 BYTE   W24
// 019   ----------------------------------------
 BYTE   Bn3  v112
 BYTE   N12  En4  v120
 BYTE   W24
 BYTE   Cs4  v112
 BYTE   N12  Fs4  v120
 BYTE   W24
 BYTE   Bn3  v112
 BYTE   N12  En4  v120
 BYTE   W48
// 020   ----------------------------------------
 BYTE   W24
 BYTE   En4  v112
 BYTE   N12  An4  v120
 BYTE   W24
 BYTE   Gn3  v112
 BYTE   N12  Cs4  v120
 BYTE   W24
 BYTE   An3  v112
 BYTE   N12  Cs4  v120
 BYTE   W24
// 021   ----------------------------------------
 BYTE   W12
 BYTE   Fs3  v112
 BYTE   N12  Bn3
 BYTE   W12
 BYTE   Fs3
 BYTE   N12  Bn3
 BYTE   W36
 BYTE   Fs3
 BYTE   N12  Bn3
 BYTE   W12
 BYTE   Fs3
 BYTE   N12  Bn3
 BYTE   W24
// 022   ----------------------------------------
 BYTE   W12
 BYTE   As3
 BYTE   N12  Cs4
 BYTE   W12
 BYTE   As3
 BYTE   N12  Cs4
 BYTE   W36
 BYTE   As3
 BYTE   N12  Cs4
 BYTE   W12
 BYTE   As3
 BYTE   N12  Cs4
 BYTE   W24
// 023   ----------------------------------------
 BYTE   GoTo
  POIN2 Label_6_0130EB7C
// 024   ----------------------------------------
 BYTE   W96
// 025   ----------------------------------------
 BYTE   W10
 BYTE   FINE

//**************** Track 8 (Midi-Chn.7) ****************//

Anakin_008:
// 000   ----------------------------------------
 BYTE   KEYSH   Anakin_key+0
 BYTE   VOICE   45
 BYTE   VOL   32*Anakin_mvl/mxv
 BYTE   PAN   c_v+6
 BYTE   N12  En1  v080
 BYTE   N12  En2
 BYTE   W36
 BYTE   En1  v092
 BYTE   N12  En2
 BYTE   W12
 BYTE   Fs1  v100
 BYTE   N12  Fs2
 BYTE   W24
 BYTE   Fs1
 BYTE   N12  Fs2
 BYTE   W24
// 001   ----------------------------------------
Label_7_0130F0D8:
 BYTE   N12  Gs1  v100
 BYTE   N12  Gs2
 BYTE   W96
// 002   ----------------------------------------
 BYTE   W96
// 003   ----------------------------------------
 BYTE   W96
// 004   ----------------------------------------
 BYTE   W96
// 005   ----------------------------------------
 BYTE   W96
// 006   ----------------------------------------
 BYTE   W96
// 007   ----------------------------------------
 BYTE   W96
// 008   ----------------------------------------
 BYTE   W96
// 009   ----------------------------------------
 BYTE   W96
// 010   ----------------------------------------
 BYTE   W96
// 011   ----------------------------------------
 BYTE   W96
// 012   ----------------------------------------
 BYTE   W96
// 013   ----------------------------------------
 BYTE   W96
// 014   ----------------------------------------
 BYTE   W96
// 015   ----------------------------------------
 BYTE   W96
// 016   ----------------------------------------
 BYTE   W96
// 017   ----------------------------------------
Label_7_0130F0ED:
 BYTE   N12  Gn1  v100
 BYTE   N12  Gn2
 BYTE   W36
 BYTE   Gn1
 BYTE   N12  Gn2
 BYTE   W12
 BYTE   Gn1
 BYTE   N12  Gn2
 BYTE   W24
 BYTE   Gn1
 BYTE   N12  Gn2
 BYTE   W12
 BYTE   N12
 BYTE   N12  Bn2  v112
 BYTE   W12
 BYTE   PEND 
// 018   ----------------------------------------
 BYTE   An1  v100
 BYTE   N12  An2  v112
 BYTE   W36
 BYTE   An1  v100
 BYTE   N12  An2
 BYTE   W12
 BYTE   Dn1
 BYTE   N12  Dn2
 BYTE   W36
 BYTE   Dn1
 BYTE   N12  Dn2
 BYTE   W12
// 019   ----------------------------------------
 BYTE   PATT
  POIN2 Label_7_0130F0ED
// 020   ----------------------------------------
 BYTE   N12  An1  v100
 BYTE   N12  An2  v112
 BYTE   W36
 BYTE   An1  v100
 BYTE   N12  An2
 BYTE   W12
 BYTE   An1
 BYTE   N12  An2
 BYTE   W36
 BYTE   An1
 BYTE   N12  An2
 BYTE   W12
// 021   ----------------------------------------
 BYTE   Gn1
 BYTE   N12  Gn2
 BYTE   W36
 BYTE   Gn1
 BYTE   N12  Gn2
 BYTE   W12
 BYTE   Gn1
 BYTE   N12  Gn2
 BYTE   W24
 BYTE   Gn1
 BYTE   N12  Gn2
 BYTE   W12
 BYTE   Bn2
 BYTE   N12  Dn3  v112
 BYTE   W12
// 022   ----------------------------------------
 BYTE   Fs1  v100
 BYTE   N12  Fs2  v112
 BYTE   N12  As2  v100
 BYTE   N12  En3  v112
 BYTE   W36
 BYTE   Fs1  v100
 BYTE   N12  Fs2
 BYTE   W12
 BYTE   Ds1
 BYTE   N12  Ds2
 BYTE   W36
 BYTE   Ds1
 BYTE   N12  Ds2
 BYTE   W12
// 023   ----------------------------------------
 BYTE   GoTo
  POIN2 Label_7_0130F0D8
// 024   ----------------------------------------
 BYTE   N12  Gs1  v100
 BYTE   N12  Gs2
 BYTE   W96
// 025   ----------------------------------------
 BYTE   W10
 BYTE   FINE

//**************** Track 9 (Midi-Chn.8) ****************//

Anakin_009:
// 000   ----------------------------------------
 BYTE   KEYSH   Anakin_key+0
 BYTE   VOICE   68
 BYTE   VOL   10*Anakin_mvl/mxv
 BYTE   PAN   c_v+56
 BYTE   BEND   c_v+1
 BYTE   W96
// 001   ----------------------------------------
Label_8_0130E973:
 BYTE   W10
 BYTE   VOL   11*Anakin_mvl/mxv
 BYTE   N24  Bn3  v120
 BYTE   W24
 BYTE   N18  Bn4
 BYTE   W18
 BYTE   N03  As4
 BYTE   W03
 BYTE   Bn4
 BYTE   W03
 BYTE   N12  As4
 BYTE   W12
 BYTE   Gs4
 BYTE   W12
 BYTE   Fs4
 BYTE   W12
 BYTE   En4
 BYTE   W02
// 002   ----------------------------------------
Label_8_0130E98B:
 BYTE   W10
 BYTE   N24  Fs4  v120
 BYTE   W24
 BYTE   N12  En4
 BYTE   W12
 BYTE   Ds4
 BYTE   W12
 BYTE   Cs4
 BYTE   W12
 BYTE   Ds4
 BYTE   W12
 BYTE   N21  Cs4
 BYTE   W14
 BYTE   PEND 
// 003   ----------------------------------------
Label_8_0130E99D:
 BYTE   W10
 BYTE   N24  Bn3  v120
 BYTE   W24
 BYTE   N18  Bn4
 BYTE   W18
 BYTE   N03  As4
 BYTE   W03
 BYTE   Bn4
 BYTE   W03
 BYTE   N12  As4
 BYTE   W12
 BYTE   Bn4
 BYTE   W12
 BYTE   Cs5
 BYTE   W12
 BYTE   Ds5
 BYTE   W02
 BYTE   PEND 
// 004   ----------------------------------------
Label_8_0130E9B4:
 BYTE   W10
 BYTE   N66  Bn4  v120
 BYTE   W72
 BYTE   N12
 BYTE   W12
 BYTE   As4
 BYTE   W02
 BYTE   PEND 
// 005   ----------------------------------------
Label_8_0130E9BE:
 BYTE   W10
 BYTE   TIE  Bn4  v112
 BYTE   W72
 BYTE   VOL   11*Anakin_mvl/mxv
 BYTE   W01
 BYTE   BnM2
 BYTE   W01
 BYTE   BnM2
 BYTE   W01
 BYTE   AsM2
 BYTE   W01
 BYTE   AsM2
 BYTE   W01
 BYTE   AsM2
 BYTE   W01
 BYTE   AsM2
 BYTE   W01
 BYTE   AsM2
 BYTE   W01
 BYTE   AsM2
 BYTE   W01
 BYTE   AnM2
 BYTE   W01
 BYTE   AnM2
 BYTE   W01
 BYTE   AnM2
 BYTE   W01
 BYTE   AnM2
 BYTE   W01
 BYTE   AnM2
 BYTE   W01
 BYTE   PEND 
// 006   ----------------------------------------
Label_8_0130E9E1:
 BYTE   VOL   9*Anakin_mvl/mxv
 BYTE   W01
 BYTE   AnM2
 BYTE   W01
 BYTE   GsM2
 BYTE   W01
 BYTE   GsM2
 BYTE   W01
 BYTE   GsM2
 BYTE   W01
 BYTE   GsM2
 BYTE   W01
 BYTE   GsM2
 BYTE   W01
 BYTE   GnM2
 BYTE   W01
 BYTE   GnM2
 BYTE   W01
 BYTE   GnM2
 BYTE   W01
 BYTE   GnM2
 BYTE   W01
 BYTE   GnM2
 BYTE   W01
 BYTE   GnM2
 BYTE   W01
 BYTE   FsM2
 BYTE   W01
 BYTE   FsM2
 BYTE   W01
 BYTE   FsM2
 BYTE   W01
 BYTE   FsM2
 BYTE   W01
 BYTE   FsM2
 BYTE   W01
 BYTE   FsM2
 BYTE   W01
 BYTE   FsM2
 BYTE   W01
 BYTE   FnM2
 BYTE   W01
 BYTE   FnM2
 BYTE   W01
 BYTE   FnM2
 BYTE   W01
 BYTE   FnM2
 BYTE   W01
 BYTE   FnM2
 BYTE   W01
 BYTE   EnM2
 BYTE   W01
 BYTE   EnM2
 BYTE   W01
 BYTE   EnM2
 BYTE   W01
 BYTE   EnM2
 BYTE   W01
 BYTE   EnM2
 BYTE   W01
 BYTE   EnM2
 BYTE   W01
 BYTE   EnM2
 BYTE   W01
 BYTE   EnM2
 BYTE   W01
 BYTE   DsM2
 BYTE   W01
 BYTE   DsM2
 BYTE   W01
 BYTE   DsM2
 BYTE   W01
 BYTE   DsM2
 BYTE   W01
 BYTE   DsM2
 BYTE   W01
 BYTE   DnM2
 BYTE   W01
 BYTE   DnM2
 BYTE   W01
 BYTE   DnM2
 BYTE   W01
 BYTE   DnM2
 BYTE   W01
 BYTE   DnM2
 BYTE   W01
 BYTE   DnM2
 BYTE   W01
 BYTE   DnM2
 BYTE   W01
 BYTE   CsM2
 BYTE   W01
 BYTE   CsM2
 BYTE   W01
 BYTE   CsM2
 BYTE   W01
 BYTE   CsM2
 BYTE   W01
 BYTE   CsM2
 BYTE   W01
 BYTE   CsM2
 BYTE   W01
 BYTE   CnM2
 BYTE   W01
 BYTE   CnM2
 BYTE   W01
 BYTE   CnM2
 BYTE   W01
 BYTE   CnM2
 BYTE   W01
 BYTE   CnM2
 BYTE   W01
 BYTE   CnM2
 BYTE   W01
 BYTE   CnM2
 BYTE   W01
 BYTE   PEND 
 BYTE   EOT
 BYTE   Bn4
 BYTE   VOL   0*Anakin_mvl/mxv
 BYTE   W36
 BYTE   W02
// 007   ----------------------------------------
Label_8_0130EA5D:
 BYTE   W10
 BYTE   VOL   11*Anakin_mvl/mxv
 BYTE   W84
 BYTE   W02
 BYTE   PEND 
// 008   ----------------------------------------
 BYTE   W96
// 009   ----------------------------------------
Label_8_0130EA64:
 BYTE   W10
 BYTE   N24  Bn3  v120
 BYTE   W24
 BYTE   N18  Bn4
 BYTE   W18
 BYTE   N03  As4
 BYTE   W03
 BYTE   Bn4
 BYTE   W03
 BYTE   N12  As4
 BYTE   W12
 BYTE   Gs4
 BYTE   W12
 BYTE   Fs4
 BYTE   W12
 BYTE   En4
 BYTE   W02
 BYTE   PEND 
// 010   ----------------------------------------
 BYTE   PATT
  POIN2 Label_8_0130E98B
// 011   ----------------------------------------
 BYTE   PATT
  POIN2 Label_8_0130E99D
// 012   ----------------------------------------
 BYTE   PATT
  POIN2 Label_8_0130E9B4
// 013   ----------------------------------------
 BYTE   PATT
  POIN2 Label_8_0130E9BE
// 014   ----------------------------------------
 BYTE   PATT
  POIN2 Label_8_0130E9E1
// 015   ----------------------------------------
 BYTE   EOT
 BYTE   Bn4
 BYTE   VOL   0*Anakin_mvl/mxv
 BYTE   W36
 BYTE   W02
// 016   ----------------------------------------
 BYTE   PATT
  POIN2 Label_8_0130EA5D
// 017   ----------------------------------------
 BYTE   W96
// 018   ----------------------------------------
 BYTE   W96
// 019   ----------------------------------------
 BYTE   W96
// 020   ----------------------------------------
 BYTE   W96
// 021   ----------------------------------------
 BYTE   W96
// 022   ----------------------------------------
 BYTE   W96
// 023   ----------------------------------------
 BYTE   W80
 BYTE   W02
 BYTE   N24  As3  v112
 BYTE   W14
// 024   ----------------------------------------
 BYTE   GoTo
  POIN2 Label_8_0130E973
// 025   ----------------------------------------
 BYTE   PATT
  POIN2 Label_8_0130EA64
// 026   ----------------------------------------
 BYTE   W10
 BYTE   FINE

//**************** Track 10 (Midi-Chn.9) ****************//

Anakin_010:
// 000   ----------------------------------------
 BYTE   KEYSH   Anakin_key+0
 BYTE   VOICE   71
 BYTE   VOL   11*Anakin_mvl/mxv
 BYTE   PAN   c_v-44
 BYTE   BEND   c_v+1
 BYTE   W96
// 001   ----------------------------------------
Label_9_0130F55F:
 BYTE   W96
// 002   ----------------------------------------
 BYTE   W96
// 003   ----------------------------------------
 BYTE   W96
// 004   ----------------------------------------
 BYTE   W96
// 005   ----------------------------------------
 BYTE   W96
// 006   ----------------------------------------
 BYTE   W96
// 007   ----------------------------------------
 BYTE   W96
// 008   ----------------------------------------
 BYTE   W96
// 009   ----------------------------------------
 BYTE   W96
// 010   ----------------------------------------
 BYTE   W96
// 011   ----------------------------------------
 BYTE   W96
// 012   ----------------------------------------
 BYTE   W96
// 013   ----------------------------------------
 BYTE   W96
// 014   ----------------------------------------
 BYTE   W96
// 015   ----------------------------------------
 BYTE   W96
// 016   ----------------------------------------
 BYTE   W80
 BYTE   W01
 BYTE   N24  En3  v100
 BYTE   W15
// 017   ----------------------------------------
 BYTE   W09
 BYTE   N06  Fs3  v112
 BYTE   W12
 BYTE   N06
 BYTE   W06
 BYTE   Gn3
 BYTE   W06
 BYTE   Fs3
 BYTE   W12
 BYTE   En3
 BYTE   W12
 BYTE   N54  Fs3  v100
 BYTE   W36
 BYTE   W03
// 018   ----------------------------------------
 BYTE   W21
 BYTE   N12
 BYTE   W12
 BYTE   N06  Bn3  v112
 BYTE   W12
 BYTE   Fs3  v100
 BYTE   W12
 BYTE   N12  Fs3  v092
 BYTE   W12
 BYTE   N06  En3
 BYTE   W12
 BYTE   N12  Fs3
 BYTE   W15
// 019   ----------------------------------------
 BYTE   W09
 BYTE   N72  Bn2  v100
 BYTE   W72
 BYTE   N24  Bn2  v080
 BYTE   N24  Cs3  v100
 BYTE   W15
// 020   ----------------------------------------
 BYTE   W09
 BYTE   N48  An2  v072
 BYTE   N48  Dn3  v100
 BYTE   W48
 BYTE   Gn2  v072
 BYTE   N48  En3  v100
 BYTE   W36
 BYTE   W03
// 021   ----------------------------------------
 BYTE   W09
 BYTE   N96  Gn2  v072
 BYTE   N96  Bn2  v092
 BYTE   W84
 BYTE   W03
// 022   ----------------------------------------
 BYTE   W09
 BYTE   N48  Fs2  v052
 BYTE   N96  As2
 BYTE   W48
 BYTE   N48  Gn2
 BYTE   W36
 BYTE   W03
// 023   ----------------------------------------
 BYTE   GoTo
  POIN2 Label_9_0130F55F
// 024   ----------------------------------------
 BYTE   W09
 BYTE   N12  Gs2  v052
 BYTE   N12  Bn2
 BYTE   W84
 BYTE   W03
// 025   ----------------------------------------
 BYTE   W10
 BYTE   FINE

//**************** Track 11 (Midi-Chn.10) ****************//

Anakin_011:
// 000   ----------------------------------------
 BYTE   KEYSH   Anakin_key+0
 BYTE   VOICE   48
 BYTE   VOL   11*Anakin_mvl/mxv
 BYTE   PAN   c_v-14
 BYTE   BEND   c_v+1
 BYTE   W96
// 001   ----------------------------------------
Label_10_0130F9AF:
 BYTE   W96
// 002   ----------------------------------------
 BYTE   W96
// 003   ----------------------------------------
 BYTE   W96
// 004   ----------------------------------------
 BYTE   W96
// 005   ----------------------------------------
Label_10_0130F9B3:
 BYTE   W09
 BYTE   N24  Bn4  v112
 BYTE   W24
 BYTE   Fs4
 BYTE   W24
 BYTE   Gs4
 BYTE   W24
 BYTE   En4
 BYTE   W15
 BYTE   PEND 
// 006   ----------------------------------------
Label_10_0130F9BF:
 BYTE   W09
 BYTE   N24  Ds4  v112
 BYTE   W24
 BYTE   Fs4
 BYTE   W24
 BYTE   Gs4
 BYTE   W24
 BYTE   As4
 BYTE   W15
 BYTE   PEND 
// 007   ----------------------------------------
Label_10_0130F9CB:
 BYTE   W09
 BYTE   N24  Bn4  v112
 BYTE   W24
 BYTE   Ds5
 BYTE   W24
 BYTE   En5
 BYTE   W24
 BYTE   Cs5
 BYTE   W15
 BYTE   PEND 
// 008   ----------------------------------------
 BYTE   W09
 BYTE   Bn4
 BYTE   W24
 BYTE   Ds4
 BYTE   W24
 BYTE   En4
 BYTE   W24
 BYTE   Cs4
 BYTE   W15
// 009   ----------------------------------------
 BYTE   W09
 BYTE   N48  Bn3  v100
 BYTE   W84
 BYTE   W03
// 010   ----------------------------------------
 BYTE   W96
// 011   ----------------------------------------
 BYTE   W96
// 012   ----------------------------------------
 BYTE   W96
// 013   ----------------------------------------
 BYTE   PATT
  POIN2 Label_10_0130F9B3
// 014   ----------------------------------------
 BYTE   PATT
  POIN2 Label_10_0130F9BF
// 015   ----------------------------------------
 BYTE   PATT
  POIN2 Label_10_0130F9CB
// 016   ----------------------------------------
 BYTE   W09
 BYTE   N24  Bn4  v112
 BYTE   W24
 BYTE   Ds4
 BYTE   W24
 BYTE   En4
 BYTE   W24
 BYTE   N21  Cs4
 BYTE   W15
// 017   ----------------------------------------
 BYTE   W96
// 018   ----------------------------------------
 BYTE   W96
// 019   ----------------------------------------
 BYTE   W96
// 020   ----------------------------------------
 BYTE   W96
// 021   ----------------------------------------
 BYTE   W96
// 022   ----------------------------------------
 BYTE   W96
// 023   ----------------------------------------
 BYTE   GoTo
  POIN2 Label_10_0130F9AF
// 024   ----------------------------------------
 BYTE   W96
// 025   ----------------------------------------
 BYTE   W10
 BYTE   FINE

//**************** Track 12 (Midi-Chn.11) ****************//

Anakin_012:
// 000   ----------------------------------------
 BYTE   KEYSH   Anakin_key+0
 BYTE   VOICE   70
 BYTE   VOL   9*Anakin_mvl/mxv
 BYTE   PAN   c_v-44
 BYTE   BEND   c_v+1
 BYTE   W96
// 001   ----------------------------------------
Label_11_01368807:
 BYTE   W09
 BYTE   N08  Gs1  v100
 BYTE   W12
 BYTE   N06  Ds2
 BYTE   W12
 BYTE   N08  Bn2
 BYTE   W24
 BYTE   Fs1
 BYTE   W12
 BYTE   N06  Cs2
 BYTE   W12
 BYTE   N08  As2
 BYTE   W15
 BYTE   PEND 
// 002   ----------------------------------------
Label_11_0136881B:
 BYTE   W09
 BYTE   N08  Bn1  v100
 BYTE   W12
 BYTE   N06  Fs2
 BYTE   W12
 BYTE   Ds3
 BYTE   W12
 BYTE   Fs2
 BYTE   W12
 BYTE   N08  As1
 BYTE   W12
 BYTE   N06  Gn2
 BYTE   W12
 BYTE   Cs3
 BYTE   W12
 BYTE   Gn2
 BYTE   W03
 BYTE   PEND 
// 003   ----------------------------------------
Label_11_01368832:
 BYTE   W09
 BYTE   N08  Gs1  v100
 BYTE   W12
 BYTE   N06  Ds2
 BYTE   W12
 BYTE   N08  Bn2
 BYTE   W24
 BYTE   Fs1
 BYTE   W12
 BYTE   N06  Ds2
 BYTE   W12
 BYTE   N08  As2
 BYTE   W15
 BYTE   PEND 
// 004   ----------------------------------------
Label_11_01368846:
 BYTE   W09
 BYTE   N08  En1  v100
 BYTE   W12
 BYTE   N06  Bn1
 BYTE   W12
 BYTE   Gs2
 BYTE   W12
 BYTE   Bn1
 BYTE   W12
 BYTE   N08  Fs1
 BYTE   W12
 BYTE   N06  Cs2
 BYTE   W12
 BYTE   Gs2
 BYTE   W12
 BYTE   As2
 BYTE   W03
 BYTE   PEND 
// 005   ----------------------------------------
Label_11_0136885D:
 BYTE   W09
 BYTE   N08  Bn0  v100
 BYTE   W12
 BYTE   N06  Fs1
 BYTE   W12
 BYTE   Ds2
 BYTE   W12
 BYTE   Fs1
 BYTE   W12
 BYTE   N08  En1
 BYTE   W12
 BYTE   N06  Bn1
 BYTE   W12
 BYTE   En2
 BYTE   W12
 BYTE   Bn1
 BYTE   W03
 BYTE   PEND 
// 006   ----------------------------------------
 BYTE   PATT
  POIN2 Label_11_0136885D
// 007   ----------------------------------------
 BYTE   PATT
  POIN2 Label_11_0136885D
// 008   ----------------------------------------
 BYTE   PATT
  POIN2 Label_11_0136885D
// 009   ----------------------------------------
 BYTE   PATT
  POIN2 Label_11_01368807
// 010   ----------------------------------------
 BYTE   PATT
  POIN2 Label_11_0136881B
// 011   ----------------------------------------
 BYTE   PATT
  POIN2 Label_11_01368832
// 012   ----------------------------------------
 BYTE   PATT
  POIN2 Label_11_01368846
// 013   ----------------------------------------
 BYTE   PATT
  POIN2 Label_11_0136885D
// 014   ----------------------------------------
 BYTE   PATT
  POIN2 Label_11_0136885D
// 015   ----------------------------------------
 BYTE   PATT
  POIN2 Label_11_0136885D
// 016   ----------------------------------------
 BYTE   PATT
  POIN2 Label_11_0136885D
// 017   ----------------------------------------
Label_11_013688AB:
 BYTE   W09
 BYTE   N08  Gn1  v100
 BYTE   W12
 BYTE   N06  Dn2
 BYTE   W12
 BYTE   N08  Bn2
 BYTE   W24
 BYTE   Gn1
 BYTE   W12
 BYTE   N06  Dn2
 BYTE   W12
 BYTE   N08  Bn2
 BYTE   W15
 BYTE   PEND 
// 018   ----------------------------------------
 BYTE   W09
 BYTE   An1
 BYTE   W12
 BYTE   N06  En2
 BYTE   W12
 BYTE   N08  Cs3
 BYTE   W24
 BYTE   Dn2
 BYTE   W12
 BYTE   N06  An2
 BYTE   W12
 BYTE   N08  Fs3
 BYTE   W15
// 019   ----------------------------------------
 BYTE   PATT
  POIN2 Label_11_013688AB
// 020   ----------------------------------------
 BYTE   W09
 BYTE   N08  An1  v100
 BYTE   W12
 BYTE   N06  En2
 BYTE   W12
 BYTE   N08  Cs3
 BYTE   W24
 BYTE   An1
 BYTE   W12
 BYTE   N06  En2
 BYTE   W12
 BYTE   N08  Cs3
 BYTE   W15
// 021   ----------------------------------------
 BYTE   PATT
  POIN2 Label_11_013688AB
// 022   ----------------------------------------
 BYTE   W09
 BYTE   N08  Fs1  v100
 BYTE   W12
 BYTE   N06  Cs2
 BYTE   W12
 BYTE   N08  As2
 BYTE   W24
 BYTE   Ds1
 BYTE   W12
 BYTE   N06  As1
 BYTE   W12
 BYTE   N08  Gn2
 BYTE   W15
// 023   ----------------------------------------
 BYTE   GoTo
  POIN2 Label_11_01368807
// 024   ----------------------------------------
 BYTE   PATT
  POIN2 Label_11_01368807
// 025   ----------------------------------------
 BYTE   W10
 BYTE   FINE

//******************************************************//
	ALIGN 4

Anakin:
	BYTE	12	// NumTrks
	BYTE	0	// NumBlks
	BYTE	Anakin_pri	// Priority
	BYTE	Anakin_rev	// Reverb.
    
	POIN2	Anakin_grp
    
	POIN2	Anakin_001
	POIN2	Anakin_002
	POIN2	Anakin_003
	POIN2	Anakin_004
	POIN2	Anakin_005
	POIN2	Anakin_006
	POIN2	Anakin_007
	POIN2	Anakin_008
	POIN2	Anakin_009
	POIN2	Anakin_010
	POIN2	Anakin_011
	POIN2	Anakin_012

	
